<svg xmlns="http://www.w3.org/2000/svg" xmlns:xlink="http://www.w3.org/1999/xlink" version="1.1" x="0" y="0" height="230" width="800" viewBox="0 0 800 230" preserveAspectRatio="none"  >
<g label="Query sequence" class="clusterblast-cluster"  >
<text x="5" y="20" class="clusterblast-acc"  >
Query sequence</text>
<line x1="10" y1="35" x2="778.0" y2="35" style="stroke-width:1; stroke:grey; "  />
<polygon points="21,35 26,30 61,30 61,40 26,40 21,35 " style="fill:#d81515; stroke-width:1; stroke:black; " description="&lt;b&gt;LLPMBPKK_01150&lt;/b&gt;&lt;br&gt;two-component regulator&lt;br&gt;Location: 1403914 - 1404556" locus_tag="LLPMBPKK_01150" class="clusterblast-orf" id="dummy-8_q0_0_all"  />
<polygon points="71,35 76,30 122,30 122,40 76,40 71,35 " style="fill:#d81515; stroke-width:1; stroke:black; " description="&lt;b&gt;LLPMBPKK_01151&lt;/b&gt;&lt;br&gt;response regulator transcription factor&lt;br&gt;Location: 1404722 - 1405544" locus_tag="LLPMBPKK_01151" class="clusterblast-orf" id="dummy-8_q1_0_all"  />
<polygon points="132,35 137,30 224,30 224,40 137,40 132,35 " style="fill:#15d863; stroke-width:1; stroke:black; " description="&lt;b&gt;LLPMBPKK_01152&lt;/b&gt;&lt;br&gt;HAMP domain-containing protein&lt;br&gt;Location: 1405698 - 1407189" locus_tag="LLPMBPKK_01152" class="clusterblast-orf" id="dummy-8_q2_0_all"  />
<polygon points="224,35 229,30 271,30 271,40 229,40 224,35 " style="fill:#d81515; stroke-width:1; stroke:black; " description="&lt;b&gt;LLPMBPKK_01153&lt;/b&gt;&lt;br&gt;response regulator transcription factor&lt;br&gt;Location: 1407185 - 1407944" locus_tag="LLPMBPKK_01153" class="clusterblast-orf" id="dummy-8_q3_0_all"  />
<polygon points="302,40 395,40 400,35 395,30 302,30 302,40 " style="fill:#1563d8; stroke-width:1; stroke:black; " description="&lt;b&gt;LLPMBPKK_01154&lt;/b&gt;&lt;br&gt;IucA/IucC family siderophore biosynthesisprotein&lt;br&gt;Location: 1408441 - 1410028" locus_tag="LLPMBPKK_01154" class="clusterblast-orf" id="dummy-8_q4_0_all"  />
<polygon points="405,40 505,40 510,35 505,30 405,30 405,40 " style="fill:#b115d8; stroke-width:1; stroke:black; " description="&lt;b&gt;LLPMBPKK_01155&lt;/b&gt;&lt;br&gt;iron transporter&lt;br&gt;Location: 1410100 - 1411795" locus_tag="LLPMBPKK_01155" class="clusterblast-orf" id="dummy-8_q5_0_all"  />
<polygon points="584,40 668,40 673,35 668,30 584,30 584,40 " style="fill:#b1d815; stroke-width:1; stroke:black; " description="&lt;b&gt;LLPMBPKK_01157&lt;/b&gt;&lt;br&gt;MFS transporter&lt;br&gt;Location: 1412994 - 1414431" locus_tag="LLPMBPKK_01157" class="clusterblast-orf" id="dummy-8_q6_0_all"  />
<polygon points="686,35 691,30 759,30 759,40 691,40 686,35 " style="fill:white; stroke-width:1; stroke:black; " description="&lt;b&gt;LLPMBPKK_01158&lt;/b&gt;&lt;br&gt;LLM class flavin-dependent oxidoreductase&lt;br&gt;Location: 1414648 - 1415818" locus_tag="LLPMBPKK_01158" class="clusterblast-orf" id="dummy-8_q7_0_all"  />
</g>
<g label="NZ_KQ948214" description="NZ_KQ948214 (287614-300921): Streptomyces yokosukanensis strain DSM 40224 PRJ... (45% of genes show similarity), siderophore" class="clusterblast-cluster"  >
<text x="5" y="70" class="clusterblast-acc"  >
<a xlink:href="https://antismash-db.secondarymetabolites.org/area.html?record=NZ_KQ948214&amp;start=287614&amp;end=300921" target="_blank">NZ_KQ948214 (287614-300921)</a>: Streptomyces yokosukanensis strain DSM 40224 PRJ... (45% of genes show similarity), siderophore</text>
<line x1="10" y1="85" x2="778.0" y2="85" style="stroke-width:1; stroke:grey; "  />
</g>
<g id="a8_000"  >
<polygon points="0,90 39,90 44,85 39,80 0,80 0,90 " style="fill:white; stroke-width:1; stroke:black; " description="&lt;b&gt;AQI95_RS23520&lt;/b&gt;&lt;br&gt;methyltransferase domain-containing protein&lt;br&gt;Location: 300372 - 299653" locus_tag="AQI95_RS23520" class="clusterblast-orf" id="dummy-8_h8_8_0"  />
</g>
<g id="a8_001"  >
<polygon points="50,85 55,80 101,80 101,90 55,90 50,85 " style="fill:white; stroke-width:1; stroke:black; " description="&lt;b&gt;AQI95_RS23515&lt;/b&gt;&lt;br&gt;SDR family oxidoreductase&lt;br&gt;Location: 299550 - 298732" locus_tag="AQI95_RS23515" class="clusterblast-orf" id="dummy-8_h8_8_1"  />
</g>
<g id="a8_002"  >
<polygon points="110,85 115,80 203,80 203,90 115,90 110,85 " style="fill:#15d863; stroke-width:1; stroke:black; " description="&lt;b&gt;AQI95_RS23510&lt;/b&gt;&lt;br&gt;HAMP domain-containing histidine kinase&lt;br&gt;Location: 298581 - 297091&lt;br&gt;&lt;br&gt;&lt;b&gt;BlastP hit with LLPMBPKK_01152&lt;/b&gt;&lt;br&gt;Percentage identity: 65&lt;br&gt;Percentage coverage: 93&lt;br&gt;BLAST bit score: 553&lt;br&gt;E-value: 1.62e-193" locus_tag="AQI95_RS23510" class="clusterblast-orf" id="dummy-8_h8_8_2"  />
</g>
<g id="a8_003"  >
<polygon points="203,85 208,80 250,80 250,90 208,90 203,85 " style="fill:#d81515; stroke-width:1; stroke:black; " description="&lt;b&gt;AQI95_RS23505&lt;/b&gt;&lt;br&gt;response regulator transcription factor&lt;br&gt;Location: 297094 - 296330&lt;br&gt;&lt;br&gt;&lt;b&gt;BlastP hit with LLPMBPKK_01150&lt;/b&gt;&lt;br&gt;Percentage identity: 34&lt;br&gt;Percentage coverage: 110&lt;br&gt;BLAST bit score: 105&lt;br&gt;E-value: 1.24e-25&lt;br&gt;&lt;br&gt;&lt;b&gt;BlastP hit with LLPMBPKK_01151&lt;/b&gt;&lt;br&gt;Percentage identity: 63&lt;br&gt;Percentage coverage: 90&lt;br&gt;BLAST bit score: 308&lt;br&gt;E-value: 2.19e-104&lt;br&gt;&lt;br&gt;&lt;b&gt;BlastP hit with LLPMBPKK_01153&lt;/b&gt;&lt;br&gt;Percentage identity: 70&lt;br&gt;Percentage coverage: 102&lt;br&gt;BLAST bit score: 338&lt;br&gt;E-value: 1.37e-116" locus_tag="AQI95_RS23505" class="clusterblast-orf" id="dummy-8_h8_8_3"  />
</g>
<g id="a8_004"  >
<polygon points="275,90 368,90 373,85 368,80 275,80 275,90 " style="fill:#1563d8; stroke-width:1; stroke:black; " description="&lt;b&gt;AQI95_RS23500&lt;/b&gt;&lt;br&gt;iron transporter&lt;br&gt;Location: 295921 - 294347&lt;br&gt;&lt;br&gt;&lt;b&gt;BlastP hit with LLPMBPKK_01154&lt;/b&gt;&lt;br&gt;Percentage identity: 74&lt;br&gt;Percentage coverage: 98&lt;br&gt;BLAST bit score: 745&lt;br&gt;E-value: 2.32e-268" locus_tag="AQI95_RS23500" class="clusterblast-orf" id="dummy-8_h8_8_4"  />
</g>
<g id="a8_005"  >
<polygon points="375,90 475,90 480,85 475,80 375,80 375,90 " style="fill:#b115d8; stroke-width:1; stroke:black; " description="&lt;b&gt;AQI95_RS23495&lt;/b&gt;&lt;br&gt;iron transporter&lt;br&gt;Location: 294309 - 292615&lt;br&gt;&lt;br&gt;&lt;b&gt;BlastP hit with LLPMBPKK_01155&lt;/b&gt;&lt;br&gt;Percentage identity: 75&lt;br&gt;Percentage coverage: 97&lt;br&gt;BLAST bit score: 842&lt;br&gt;E-value: 2.69e-305" locus_tag="AQI95_RS23495" class="clusterblast-orf" id="dummy-8_h8_8_5"  />
</g>
<g id="a8_006"  >
<polygon points="480,90 550,90 555,85 550,80 480,80 480,90 " style="fill:white; stroke-width:1; stroke:black; " description="&lt;b&gt;AQI95_RS23490&lt;/b&gt;&lt;br&gt;type III PLP-dependent enzyme&lt;br&gt;Location: 292618 - 291404" locus_tag="AQI95_RS23490" class="clusterblast-orf" id="dummy-8_h8_8_6"  />
</g>
<g id="a8_007"  >
<polygon points="557,90 631,90 636,85 631,80 557,80 557,90 " style="fill:#b1d815; stroke-width:1; stroke:black; " description="&lt;b&gt;AQI95_RS23485&lt;/b&gt;&lt;br&gt;MFS transporter&lt;br&gt;Location: 291383 - 290103&lt;br&gt;&lt;br&gt;&lt;b&gt;BlastP hit with LLPMBPKK_01157&lt;/b&gt;&lt;br&gt;Percentage identity: 67&lt;br&gt;Percentage coverage: 89&lt;br&gt;BLAST bit score: 513&lt;br&gt;E-value: 3.02e-179" locus_tag="AQI95_RS23485" class="clusterblast-orf" id="dummy-8_h8_8_7"  />
</g>
<g id="a8_008"  >
<polygon points="645,90 692,90 697,85 692,80 645,80 645,90 " style="fill:white; stroke-width:1; stroke:black; " description="&lt;b&gt;AQI95_RS23480&lt;/b&gt;&lt;br&gt;ABC transporter permease&lt;br&gt;Location: 289964 - 289116" locus_tag="AQI95_RS23480" class="clusterblast-orf" id="dummy-8_h8_8_8"  />
</g>
<g id="a8_009"  >
<polygon points="701,90 714,90 719,85 714,80 701,80 701,90 " style="fill:white; stroke-width:1; stroke:black; " description="&lt;b&gt;AQI95_RS23475&lt;/b&gt;&lt;br&gt;LLM class flavin-dependent oxidoreductase&lt;br&gt;Location: 289048 - 288764" locus_tag="AQI95_RS23475" class="clusterblast-orf" id="dummy-8_h8_8_9"  />
</g>
<g id="a8_0010"  >
<polygon points="728,90 775,90 780,85 775,80 728,80 728,90 " style="fill:white; stroke-width:1; stroke:black; " description="&lt;b&gt;AQI95_RS23470&lt;/b&gt;&lt;br&gt;M55 family metallopeptidase&lt;br&gt;Location: 288619 - 287786" locus_tag="AQI95_RS23470" class="clusterblast-orf" id="dummy-8_h8_8_10"  />
</g>
</svg>
