<svg xmlns="http://www.w3.org/2000/svg" xmlns:xlink="http://www.w3.org/1999/xlink" version="1.1" x="0" y="0" height="230" width="800" viewBox="0 0 800 230" preserveAspectRatio="none"  >
<g label="Query sequence" class="clusterblast-cluster"  >
<text x="5" y="20" class="clusterblast-acc"  >
Query sequence</text>
<line x1="10" y1="35" x2="778.0" y2="35" style="stroke-width:1; stroke:grey; "  />
<polygon points="0,35 5,30 73,30 73,40 5,40 0,35 " style="fill:#d81515; stroke-width:1; stroke:black; " description="&lt;b&gt;LLPMBPKK_02136&lt;/b&gt;&lt;br&gt;transporter substrate-binding domain-containingprotein&lt;br&gt;Location: 2469208 - 2470057" locus_tag="LLPMBPKK_02136" class="clusterblast-orf" id="dummy-11_q0_0_all"  />
<polygon points="86,40 176,40 181,35 176,30 86,30 86,40 " style="fill:#3cd815; stroke-width:1; stroke:black; " description="&lt;b&gt;LLPMBPKK_02137&lt;/b&gt;&lt;br&gt;alanine--glyoxylate aminotransferase familyprotein&lt;br&gt;Location: 2470207 - 2471308" locus_tag="LLPMBPKK_02137" class="clusterblast-orf" id="dummy-11_q1_0_all"  />
<polygon points="208,40 247,40 252,35 247,30 208,30 208,40 " style="fill:#1563d8; stroke-width:1; stroke:black; " description="&lt;b&gt;LLPMBPKK_02138&lt;/b&gt;&lt;br&gt;diaminobutyrate acetyltransferase&lt;br&gt;Location: 2471624 - 2472143" locus_tag="LLPMBPKK_02138" class="clusterblast-orf" id="dummy-11_q2_0_all"  />
<polygon points="253,40 357,40 362,35 357,30 253,30 253,40 " style="fill:#b115d8; stroke-width:1; stroke:black; " description="&lt;b&gt;LLPMBPKK_02139&lt;/b&gt;&lt;br&gt;diaminobutyrate--2-oxoglutarate transaminase&lt;br&gt;Location: 2472156 - 2473428" locus_tag="LLPMBPKK_02139" class="clusterblast-orf" id="dummy-11_q3_0_all"  />
<polygon points="364,40 394,40 399,35 394,30 364,30 364,40 " style="fill:#d88a15; stroke-width:1; stroke:black; " description="&lt;b&gt;LLPMBPKK_02140&lt;/b&gt;&lt;br&gt;ectoine synthase&lt;br&gt;Location: 2473451 - 2473856" locus_tag="LLPMBPKK_02140" class="clusterblast-orf" id="dummy-11_q4_0_all"  />
<polygon points="400,40 471,40 476,35 471,30 400,30 400,40 " style="fill:#15d863; stroke-width:1; stroke:black; " description="&lt;b&gt;LLPMBPKK_02141&lt;/b&gt;&lt;br&gt;ectoine hydroxylase&lt;br&gt;Location: 2473861 - 2474755" locus_tag="LLPMBPKK_02141" class="clusterblast-orf" id="dummy-11_q5_0_all"  />
<polygon points="485,35 490,30 576,30 576,40 490,40 485,35 " style="fill:#3c15d8; stroke-width:1; stroke:black; " description="&lt;b&gt;LLPMBPKK_02142&lt;/b&gt;&lt;br&gt;aminotransferase class V-fold PLP-dependentenzyme&lt;br&gt;Location: 2474859 - 2475921" locus_tag="LLPMBPKK_02142" class="clusterblast-orf" id="dummy-11_q6_0_all"  />
<polygon points="585,35 590,30 647,30 647,40 590,40 585,35 " style="fill:#d8158a; stroke-width:1; stroke:black; " description="&lt;b&gt;LLPMBPKK_02143&lt;/b&gt;&lt;br&gt;DsbA family oxidoreductase&lt;br&gt;Location: 2476018 - 2476744" locus_tag="LLPMBPKK_02143" class="clusterblast-orf" id="dummy-11_q7_0_all"  />
<polygon points="653,35 658,30 697,30 697,40 658,40 653,35 " style="fill:#b1d815; stroke-width:1; stroke:black; " description="&lt;b&gt;LLPMBPKK_02144&lt;/b&gt;&lt;br&gt;GNAT family N-acetyltransferase&lt;br&gt;Location: 2476819 - 2477326" locus_tag="LLPMBPKK_02144" class="clusterblast-orf" id="dummy-11_q8_0_all"  />
<polygon points="696,35 701,30 780,30 780,40 701,40 696,35 " style="fill:#15d8d8; stroke-width:1; stroke:black; " description="&lt;b&gt;LLPMBPKK_02145&lt;/b&gt;&lt;br&gt;helix-turn-helix domain-containing protein&lt;br&gt;Location: 2477322 - 2478300" locus_tag="LLPMBPKK_02145" class="clusterblast-orf" id="dummy-11_q9_0_all"  />
</g>
<g label="NC_017765" description="NC_017765 (3881675-3892080): Streptomyces hygroscopicus subsp. jinggangensis ... (90% of genes show similarity), ectoine" class="clusterblast-cluster"  >
<text x="5" y="70" class="clusterblast-acc"  >
<a xlink:href="https://antismash-db.secondarymetabolites.org/area.html?record=NC_017765&amp;start=3881675&amp;end=3892080" target="_blank">NC_017765 (3881675-3892080)</a>: Streptomyces hygroscopicus subsp. jinggangensis ... (90% of genes show similarity), ectoine</text>
<line x1="10" y1="85" x2="778.0" y2="85" style="stroke-width:1; stroke:grey; "  />
</g>
<g id="a11_000"  >
<polygon points="13,85 18,80 86,80 86,90 18,90 13,85 " style="fill:#d81515; stroke-width:1; stroke:black; " description="&lt;b&gt;SHJG_RS16880&lt;/b&gt;&lt;br&gt;transporter substrate-binding domain-containing protein&lt;br&gt;Location: 3882408 - 3883256&lt;br&gt;&lt;br&gt;&lt;b&gt;BlastP hit with LLPMBPKK_02136&lt;/b&gt;&lt;br&gt;Percentage identity: 97&lt;br&gt;Percentage coverage: 100&lt;br&gt;BLAST bit score: 536&lt;br&gt;E-value: 6.4e-194" locus_tag="SHJG_RS16880" class="clusterblast-orf" id="dummy-11_h11_10_0"  />
</g>
<g id="a11_001"  >
<polygon points="98,90 187,90 192,85 187,80 98,80 98,90 " style="fill:#3cd815; stroke-width:1; stroke:black; " description="&lt;b&gt;SHJG_RS16885&lt;/b&gt;&lt;br&gt;alanine--glyoxylate aminotransferase family protein&lt;br&gt;Location: 3883395 - 3884495&lt;br&gt;&lt;br&gt;&lt;b&gt;BlastP hit with LLPMBPKK_02137&lt;/b&gt;&lt;br&gt;Percentage identity: 93&lt;br&gt;Percentage coverage: 100&lt;br&gt;BLAST bit score: 654&lt;br&gt;E-value: 9.8e-238" locus_tag="SHJG_RS16885" class="clusterblast-orf" id="dummy-11_h11_10_1"  />
</g>
<g id="a11_002"  >
<polygon points="221,90 260,90 265,85 260,80 221,80 221,90 " style="fill:#1563d8; stroke-width:1; stroke:black; " description="&lt;b&gt;SHJG_RS16890&lt;/b&gt;&lt;br&gt;diaminobutyrate acetyltransferase&lt;br&gt;Location: 3884826 - 3885344&lt;br&gt;&lt;br&gt;&lt;b&gt;BlastP hit with LLPMBPKK_02138&lt;/b&gt;&lt;br&gt;Percentage identity: 88&lt;br&gt;Percentage coverage: 100&lt;br&gt;BLAST bit score: 310&lt;br&gt;E-value: 8.75e-108" locus_tag="SHJG_RS16890" class="clusterblast-orf" id="dummy-11_h11_10_2"  />
</g>
<g id="a11_003"  >
<polygon points="266,90 371,90 376,85 371,80 266,80 266,90 " style="fill:#b115d8; stroke-width:1; stroke:black; " description="&lt;b&gt;SHJG_RS16895&lt;/b&gt;&lt;br&gt;diaminobutyrate--2-oxoglutarate transaminase&lt;br&gt;Location: 3885358 - 3886629&lt;br&gt;&lt;br&gt;&lt;b&gt;BlastP hit with LLPMBPKK_02139&lt;/b&gt;&lt;br&gt;Percentage identity: 96&lt;br&gt;Percentage coverage: 100&lt;br&gt;BLAST bit score: 825&lt;br&gt;E-value: 1.8e-303" locus_tag="SHJG_RS16895" class="clusterblast-orf" id="dummy-11_h11_10_3"  />
</g>
<g id="a11_004"  >
<polygon points="380,90 409,90 414,85 409,80 380,80 380,90 " style="fill:#d88a15; stroke-width:1; stroke:black; " description="&lt;b&gt;SHJG_RS16900&lt;/b&gt;&lt;br&gt;ectoine synthase&lt;br&gt;Location: 3886676 - 3887080&lt;br&gt;&lt;br&gt;&lt;b&gt;BlastP hit with LLPMBPKK_02140&lt;/b&gt;&lt;br&gt;Percentage identity: 96&lt;br&gt;Percentage coverage: 100&lt;br&gt;BLAST bit score: 273&lt;br&gt;E-value: 2.19e-94" locus_tag="SHJG_RS16900" class="clusterblast-orf" id="dummy-11_h11_10_4"  />
</g>
<g id="a11_005"  >
<polygon points="415,90 486,90 491,85 486,80 415,80 415,90 " style="fill:#15d863; stroke-width:1; stroke:black; " description="&lt;b&gt;SHJG_RS16905&lt;/b&gt;&lt;br&gt;ectoine hydroxylase&lt;br&gt;Location: 3887087 - 3887980&lt;br&gt;&lt;br&gt;&lt;b&gt;BlastP hit with LLPMBPKK_02141&lt;/b&gt;&lt;br&gt;Percentage identity: 97&lt;br&gt;Percentage coverage: 100&lt;br&gt;BLAST bit score: 584&lt;br&gt;E-value: 2.56e-212" locus_tag="SHJG_RS16905" class="clusterblast-orf" id="dummy-11_h11_10_5"  />
</g>
<g id="a11_006"  >
<polygon points="497,85 502,80 588,80 588,90 502,90 497,85 " style="fill:#3c15d8; stroke-width:1; stroke:black; " description="&lt;b&gt;SHJG_RS16910&lt;/b&gt;&lt;br&gt;aminotransferase class V-fold PLP-dependent enzyme&lt;br&gt;Location: 3888045 - 3889106&lt;br&gt;&lt;br&gt;&lt;b&gt;BlastP hit with LLPMBPKK_02142&lt;/b&gt;&lt;br&gt;Percentage identity: 91&lt;br&gt;Percentage coverage: 100&lt;br&gt;BLAST bit score: 617&lt;br&gt;E-value: 2.16e-223" locus_tag="SHJG_RS16910" class="clusterblast-orf" id="dummy-11_h11_10_6"  />
</g>
<g id="a11_007"  >
<polygon points="596,85 601,80 658,80 658,90 601,90 596,85 " style="fill:#d8158a; stroke-width:1; stroke:black; " description="&lt;b&gt;SHJG_RS16915&lt;/b&gt;&lt;br&gt;DsbA family oxidoreductase&lt;br&gt;Location: 3889202 - 3889921&lt;br&gt;&lt;br&gt;&lt;b&gt;BlastP hit with LLPMBPKK_02143&lt;/b&gt;&lt;br&gt;Percentage identity: 92&lt;br&gt;Percentage coverage: 100&lt;br&gt;BLAST bit score: 445&lt;br&gt;E-value: 3.39e-159" locus_tag="SHJG_RS16915" class="clusterblast-orf" id="dummy-11_h11_10_7"  />
</g>
<g id="a11_008"  >
<polygon points="664,85 669,80 705,80 705,90 669,90 664,85 " style="fill:#b1d815; stroke-width:1; stroke:black; " description="&lt;b&gt;SHJG_RS16920&lt;/b&gt;&lt;br&gt;GNAT family N-acetyltransferase&lt;br&gt;Location: 3889997 - 3890473&lt;br&gt;&lt;br&gt;&lt;b&gt;BlastP hit with LLPMBPKK_02144&lt;/b&gt;&lt;br&gt;Percentage identity: 85&lt;br&gt;Percentage coverage: 94&lt;br&gt;BLAST bit score: 293&lt;br&gt;E-value: 1.65e-101" locus_tag="SHJG_RS16920" class="clusterblast-orf" id="dummy-11_h11_10_8"  />
</g>
<g id="a11_009"  >
<polygon points="714,85 719,80 766,80 766,90 719,90 714,85 " style="fill:white; stroke-width:1; stroke:black; " description="&lt;b&gt;SHJG_RS16925&lt;/b&gt;&lt;br&gt;DUF1349 domain-containing protein&lt;br&gt;Location: 3890573 - 3891175" locus_tag="SHJG_RS16925" class="clusterblast-orf" id="dummy-11_h11_10_9"  />
</g>
</svg>
