<svg xmlns="http://www.w3.org/2000/svg" xmlns:xlink="http://www.w3.org/1999/xlink" version="1.1" x="0" y="0" height="230" width="800" viewBox="0 0 800 230" preserveAspectRatio="none"  >
<g label="Query sequence" class="clusterblast-cluster"  >
<text x="5" y="20" class="clusterblast-acc"  >
Query sequence</text>
<line x1="10" y1="35" x2="778.0" y2="35" style="stroke-width:1; stroke:grey; "  />
<polygon points="40,35 45,30 45,30 45,40 45,40 40,35 " style="fill:white; stroke-width:1; stroke:black; " description="&lt;b&gt;LLPMBPKK_00521&lt;/b&gt;&lt;br&gt;FMN reductase&lt;br&gt;Location: 626718 - 627333" locus_tag="LLPMBPKK_00521" class="clusterblast-orf" id="dummy-3_q0_0_all"  />
<polygon points="45,35 50,30 52,30 52,40 50,40 45,35 " style="fill:white; stroke-width:1; stroke:black; " description="&lt;b&gt;LLPMBPKK_00522&lt;/b&gt;&lt;br&gt;LLM class flavin-dependent oxidoreductase&lt;br&gt;Location: 627329 - 628415" locus_tag="LLPMBPKK_00522" class="clusterblast-orf" id="dummy-3_q1_0_all"  />
<polygon points="54,35 59,30 59,30 59,40 59,40 54,35 " style="fill:#d81515; stroke-width:1; stroke:black; " description="&lt;b&gt;LLPMBPKK_00523&lt;/b&gt;&lt;br&gt;non-heme bromoperoxidase BPO-A2&lt;br&gt;Location: 628614 - 629451" locus_tag="LLPMBPKK_00523" class="clusterblast-orf" id="dummy-3_q2_0_all"  />
<polygon points="63,40 65,40 70,35 65,30 63,30 63,40 " style="fill:white; stroke-width:1; stroke:black; " description="&lt;b&gt;LLPMBPKK_00524&lt;/b&gt;&lt;br&gt;MerR family DNA-binding transcriptionalregulator&lt;br&gt;Location: 629924 - 630884" locus_tag="LLPMBPKK_00524" class="clusterblast-orf" id="dummy-3_q3_0_all"  />
<polygon points="70,40 70,40 75,35 70,30 70,30 70,40 " style="fill:white; stroke-width:1; stroke:black; " description="&lt;b&gt;LLPMBPKK_00525&lt;/b&gt;&lt;br&gt;transcriptional regulator&lt;br&gt;Location: 630968 - 631613" locus_tag="LLPMBPKK_00525" class="clusterblast-orf" id="dummy-3_q4_0_all"  />
<polygon points="77,40 80,35 77,30 77,40 " style="fill:white; stroke-width:1; stroke:black; " description="&lt;b&gt;LLPMBPKK_00526&lt;/b&gt;&lt;br&gt;hypothetical protein&lt;br&gt;Location: 631916 - 632405" locus_tag="LLPMBPKK_00526" class="clusterblast-orf" id="dummy-3_q5_0_all"  />
<polygon points="81,40 81,40 86,35 81,30 81,30 81,40 " style="fill:white; stroke-width:1; stroke:black; " description="&lt;b&gt;LLPMBPKK_00527&lt;/b&gt;&lt;br&gt;class F sortase&lt;br&gt;Location: 632574 - 633225" locus_tag="LLPMBPKK_00527" class="clusterblast-orf" id="dummy-3_q6_0_all"  />
<polygon points="87,40 110,40 115,35 110,30 87,30 87,40 " style="fill:white; stroke-width:1; stroke:black; " description="&lt;b&gt;LLPMBPKK_00528&lt;/b&gt;&lt;br&gt;hypothetical protein&lt;br&gt;Location: 633383 - 637448" locus_tag="LLPMBPKK_00528" class="clusterblast-orf" id="dummy-3_q7_0_all"  />
<polygon points="116,40 119,35 116,30 116,40 " style="fill:white; stroke-width:1; stroke:black; " description="&lt;b&gt;LLPMBPKK_00529&lt;/b&gt;&lt;br&gt;hypothetical protein&lt;br&gt;Location: 637581 - 637950" locus_tag="LLPMBPKK_00529" class="clusterblast-orf" id="dummy-3_q8_0_all"  />
<polygon points="121,40 121,40 126,35 121,30 121,30 121,40 " style="fill:white; stroke-width:1; stroke:black; " description="&lt;b&gt;LLPMBPKK_00530&lt;/b&gt;&lt;br&gt;hypothetical protein&lt;br&gt;Location: 638304 - 638916" locus_tag="LLPMBPKK_00530" class="clusterblast-orf" id="dummy-3_q9_0_all"  />
<polygon points="127,35 132,30 143,30 143,40 132,40 127,35 " style="fill:#77d815; stroke-width:1; stroke:black; " description="&lt;b&gt;LLPMBPKK_00531&lt;/b&gt;&lt;br&gt;glycoside hydrolase family 65 protein&lt;br&gt;Location: 639041 - 641441" locus_tag="LLPMBPKK_00531" class="clusterblast-orf" id="dummy-3_q10_0_all"  />
<polygon points="143,35 148,30 149,30 149,40 148,40 143,35 " style="fill:#15d8d8; stroke-width:1; stroke:black; " description="&lt;b&gt;LLPMBPKK_00532&lt;/b&gt;&lt;br&gt;hydrolase&lt;br&gt;Location: 641437 - 642181" locus_tag="LLPMBPKK_00532" class="clusterblast-orf" id="dummy-3_q11_0_all"  />
<polygon points="152,35 157,30 158,30 158,40 157,40 152,35 " style="fill:white; stroke-width:1; stroke:black; " description="&lt;b&gt;LLPMBPKK_00533&lt;/b&gt;&lt;br&gt;hypothetical protein&lt;br&gt;Location: 642596 - 643553" locus_tag="LLPMBPKK_00533" class="clusterblast-orf" id="dummy-3_q12_0_all"  />
<polygon points="160,40 160,40 165,35 160,30 160,30 160,40 " style="fill:#7715d8; stroke-width:1; stroke:black; " description="&lt;b&gt;LLPMBPKK_00534&lt;/b&gt;&lt;br&gt;lipoprotein&lt;br&gt;Location: 643768 - 644509" locus_tag="LLPMBPKK_00534" class="clusterblast-orf" id="dummy-3_q13_0_all"  />
<polygon points="166,35 171,30 174,30 174,40 171,40 166,35 " style="fill:#d87715; stroke-width:1; stroke:black; " description="&lt;b&gt;LLPMBPKK_00535&lt;/b&gt;&lt;br&gt;oxidoreductase&lt;br&gt;Location: 644721 - 645858" locus_tag="LLPMBPKK_00535" class="clusterblast-orf" id="dummy-3_q14_0_all"  />
<polygon points="176,40 179,35 176,30 176,40 " style="fill:white; stroke-width:1; stroke:black; " description="&lt;b&gt;LLPMBPKK_00536&lt;/b&gt;&lt;br&gt;hypothetical protein&lt;br&gt;Location: 646074 - 646482" locus_tag="LLPMBPKK_00536" class="clusterblast-orf" id="dummy-3_q15_0_all"  />
<polygon points="180,35 185,30 193,30 193,40 185,40 180,35 " style="fill:#15d815; stroke-width:1; stroke:black; " description="&lt;b&gt;LLPMBPKK_00537&lt;/b&gt;&lt;br&gt;ACP S-malonyltransferase&lt;br&gt;Location: 646632 - 648510" locus_tag="LLPMBPKK_00537" class="clusterblast-orf" id="dummy-3_q16_0_all"  />
<polygon points="193,35 198,30 209,30 209,40 198,40 193,35 " style="fill:#15d815; stroke-width:1; stroke:black; " description="&lt;b&gt;LLPMBPKK_00538&lt;/b&gt;&lt;br&gt;1,4-dihydroxy-2-naphthoyl-CoA synthase&lt;br&gt;Location: 648514 - 650752" locus_tag="LLPMBPKK_00538" class="clusterblast-orf" id="dummy-3_q17_0_all"  />
<polygon points="209,35 214,30 217,30 217,40 214,40 209,35 " style="fill:#1577d8; stroke-width:1; stroke:black; " description="&lt;b&gt;LLPMBPKK_00539&lt;/b&gt;&lt;br&gt;Polyketide biosynthesis3-hydroxy-3-methylglutaryl-ACP synthase PksG&lt;br&gt;Location: 650739 - 652002" locus_tag="LLPMBPKK_00539" class="clusterblast-orf" id="dummy-3_q18_0_all"  />
<polygon points="217,35 222,30 226,30 226,40 222,40 217,35 " style="fill:#15d815; stroke-width:1; stroke:black; " description="&lt;b&gt;LLPMBPKK_00540&lt;/b&gt;&lt;br&gt;3-oxoacyl-ACP synthase&lt;br&gt;Location: 652007 - 653243" locus_tag="LLPMBPKK_00540" class="clusterblast-orf" id="dummy-3_q19_0_all"  />
<polygon points="226,35 228,30 228,40 226,35 " style="fill:#d815d8; stroke-width:1; stroke:black; " description="&lt;b&gt;LLPMBPKK_00541&lt;/b&gt;&lt;br&gt;Polyketide biosynthesis acyl-carrier-proteinAcpK&lt;br&gt;Location: 653244 - 653508" locus_tag="LLPMBPKK_00541" class="clusterblast-orf" id="dummy-3_q20_0_all"  />
<polygon points="228,35 233,30 293,30 293,40 233,40 228,35 " style="fill:#15d815; stroke-width:1; stroke:black; " description="&lt;b&gt;LLPMBPKK_00542&lt;/b&gt;&lt;br&gt;D-alanine--poly(phosphoribitol) ligase subunit 1&lt;br&gt;Location: 653546 - 662720" locus_tag="LLPMBPKK_00542" class="clusterblast-orf" id="dummy-3_q21_0_all"  />
<polygon points="292,35 297,30 346,30 346,40 297,40 292,35 " style="fill:#15d815; stroke-width:1; stroke:black; " description="&lt;b&gt;LLPMBPKK_00543&lt;/b&gt;&lt;br&gt;non-ribosomal peptide synthetase&lt;br&gt;Location: 662716 - 670306" locus_tag="LLPMBPKK_00543" class="clusterblast-orf" id="dummy-3_q22_0_all"  />
<polygon points="346,35 351,30 447,30 447,40 351,40 346,35 " style="fill:#15d815; stroke-width:1; stroke:black; " description="&lt;b&gt;LLPMBPKK_00544&lt;/b&gt;&lt;br&gt;Acyl carrier protein&lt;br&gt;Location: 670302 - 684732" locus_tag="LLPMBPKK_00544" class="clusterblast-orf" id="dummy-3_q23_0_all"  />
<polygon points="447,35 452,30 602,30 602,40 452,40 447,35 " style="fill:#15d815; stroke-width:1; stroke:black; " description="&lt;b&gt;LLPMBPKK_00545&lt;/b&gt;&lt;br&gt;D-alanine--poly(phosphoribitol) ligase subunit 1&lt;br&gt;Location: 684728 - 706898" locus_tag="LLPMBPKK_00545" class="clusterblast-orf" id="dummy-3_q24_0_all"  />
<polygon points="603,35 608,30 642,30 642,40 608,40 603,35 " style="fill:#15d815; stroke-width:1; stroke:black; " description="&lt;b&gt;LLPMBPKK_00546&lt;/b&gt;&lt;br&gt;hypothetical protein&lt;br&gt;Location: 707071 - 712630" locus_tag="LLPMBPKK_00546" class="clusterblast-orf" id="dummy-3_q25_0_all"  />
<polygon points="642,35 647,30 704,30 704,40 647,40 642,35 " style="fill:#15d815; stroke-width:1; stroke:black; " description="&lt;b&gt;LLPMBPKK_00547&lt;/b&gt;&lt;br&gt;hypothetical protein&lt;br&gt;Location: 712613 - 721484" locus_tag="LLPMBPKK_00547" class="clusterblast-orf" id="dummy-3_q26_0_all"  />
<polygon points="706,40 707,40 712,35 707,30 706,30 706,40 " style="fill:#d8d815; stroke-width:1; stroke:black; " description="&lt;b&gt;LLPMBPKK_00548&lt;/b&gt;&lt;br&gt;thioesterase&lt;br&gt;Location: 721801 - 722650" locus_tag="LLPMBPKK_00548" class="clusterblast-orf" id="dummy-3_q27_0_all"  />
<polygon points="713,40 718,40 723,35 718,30 713,30 713,40 " style="fill:#15d877; stroke-width:1; stroke:black; " description="&lt;b&gt;LLPMBPKK_00549&lt;/b&gt;&lt;br&gt;amidase&lt;br&gt;Location: 722786 - 724211" locus_tag="LLPMBPKK_00549" class="clusterblast-orf" id="dummy-3_q28_0_all"  />
<polygon points="725,40 729,40 734,35 729,30 725,30 725,40 " style="fill:#1515d8; stroke-width:1; stroke:black; " description="&lt;b&gt;LLPMBPKK_00550&lt;/b&gt;&lt;br&gt;Pentapeptide repeats (8 copies)&lt;br&gt;Location: 724442 - 725738" locus_tag="LLPMBPKK_00550" class="clusterblast-orf" id="dummy-3_q29_0_all"  />
<polygon points="734,35 739,30 739,30 739,40 739,40 734,35 " style="fill:#d81577; stroke-width:1; stroke:black; " description="&lt;b&gt;LLPMBPKK_00551&lt;/b&gt;&lt;br&gt;4'-phosphopantetheinyl transferase superfamilyprotein&lt;br&gt;Location: 725715 - 726438" locus_tag="LLPMBPKK_00551" class="clusterblast-orf" id="dummy-3_q30_0_all"  />
</g>
<g label="NZ_ML123084" description="NZ_ML123084 (2096066-2208416): Streptomyces sp. ADI93-02 scaffold001, whole g... (29% of genes show similarity), NRPS,PKS-like,T3PKS,transAT-PKS,transAT-PKS-like" class="clusterblast-cluster"  >
<text x="5" y="70" class="clusterblast-acc"  >
<a xlink:href="https://antismash-db.secondarymetabolites.org/area.html?record=NZ_ML123084&amp;start=2096066&amp;end=2208416" target="_blank">NZ_ML123084 (2096066-2208416)</a>: Streptomyces sp. ADI93-02 scaffold001, whole g... (29% of genes show similarity), NRPS,PKS-like,T3PKS,transAT-PKS,transAT-PKS-like</text>
<line x1="10" y1="85" x2="778.0" y2="85" style="stroke-width:1; stroke:grey; "  />
</g>
<g id="a3_000"  >
<polygon points="0,90 3,90 8,85 3,80 0,80 0,90 " style="fill:white; stroke-width:1; stroke:black; " description="&lt;b&gt;EES40_RS09770&lt;/b&gt;&lt;br&gt;MFS transporter&lt;br&gt;Location: 2208245 - 2206971" locus_tag="EES40_RS09770" class="clusterblast-orf" id="dummy-3_h3_2_0"  />
</g>
<g id="a3_001"  >
<polygon points="9,85 13,80 13,90 9,85 " style="fill:white; stroke-width:1; stroke:black; " description="&lt;b&gt;EES40_RS09765&lt;/b&gt;&lt;br&gt;GNAT family N-acetyltransferase&lt;br&gt;Location: 2206899 - 2206264" locus_tag="EES40_RS09765" class="clusterblast-orf" id="dummy-3_h3_2_1"  />
</g>
<g id="a3_002"  >
<polygon points="15,90 16,85 15,80 15,90 " style="fill:white; stroke-width:1; stroke:black; " description="&lt;b&gt;EES40_RS09760&lt;/b&gt;&lt;br&gt;MBL fold metallo-hydrolase&lt;br&gt;Location: 2206052 - 2205848" locus_tag="EES40_RS09760" class="clusterblast-orf" id="dummy-3_h3_2_2"  />
</g>
<g id="a3_003"  >
<polygon points="17,85 22,80 22,80 22,90 22,90 17,85 " style="fill:white; stroke-width:1; stroke:black; " description="&lt;b&gt;EES40_RS09755&lt;/b&gt;&lt;br&gt;TetR/AcrR family transcriptional regulator&lt;br&gt;Location: 2205685 - 2205065" locus_tag="EES40_RS09755" class="clusterblast-orf" id="dummy-3_h3_2_3"  />
</g>
<g id="a3_004"  >
<polygon points="23,90 27,85 23,80 23,90 " style="fill:white; stroke-width:1; stroke:black; " description="&lt;b&gt;EES40_RS09750&lt;/b&gt;&lt;br&gt;AhpC/TSA family protein&lt;br&gt;Location: 2204955 - 2204296" locus_tag="EES40_RS09750" class="clusterblast-orf" id="dummy-3_h3_2_4"  />
</g>
<g id="a3_005"  >
<polygon points="29,90 30,85 29,80 29,90 " style="fill:white; stroke-width:1; stroke:black; " description="&lt;b&gt;EES40_RS09745&lt;/b&gt;&lt;br&gt;two-component sensor histidine kinase&lt;br&gt;Location: 2204020 - 2203844" locus_tag="EES40_RS09745" class="clusterblast-orf" id="dummy-3_h3_2_5"  />
</g>
<g id="a3_006"  >
<polygon points="32,85 35,80 35,90 32,85 " style="fill:white; stroke-width:1; stroke:black; " description="&lt;b&gt;EES40_RS09740&lt;/b&gt;&lt;br&gt;DUF302 domain-containing protein&lt;br&gt;Location: 2203631 - 2203233" locus_tag="EES40_RS09740" class="clusterblast-orf" id="dummy-3_h3_2_6"  />
</g>
<g id="a3_007"  >
<polygon points="36,90 40,90 45,85 40,80 36,80 36,90 " style="fill:white; stroke-width:1; stroke:black; " description="&lt;b&gt;EES40_RS09735&lt;/b&gt;&lt;br&gt;MBL fold metallo-hydrolase&lt;br&gt;Location: 2203069 - 2201705" locus_tag="EES40_RS09735" class="clusterblast-orf" id="dummy-3_h3_2_7"  />
</g>
<g id="a3_008"  >
<polygon points="46,90 48,85 46,80 46,90 " style="fill:white; stroke-width:1; stroke:black; " description="&lt;b&gt;EES40_RS09730&lt;/b&gt;&lt;br&gt;rhodanese-like domain-containing protein&lt;br&gt;Location: 2201659 - 2201294" locus_tag="EES40_RS09730" class="clusterblast-orf" id="dummy-3_h3_2_8"  />
</g>
<g id="a3_009"  >
<polygon points="48,90 48,90 53,85 48,80 48,80 48,90 " style="fill:white; stroke-width:1; stroke:black; " description="&lt;b&gt;EES40_RS09725&lt;/b&gt;&lt;br&gt;sulfite exporter TauE/SafE family protein&lt;br&gt;Location: 2201297 - 2200554" locus_tag="EES40_RS09725" class="clusterblast-orf" id="dummy-3_h3_2_9"  />
</g>
<g id="a3_0010"  >
<polygon points="54,85 55,80 55,90 54,85 " style="fill:white; stroke-width:1; stroke:black; " description="&lt;b&gt;EES40_RS09720&lt;/b&gt;&lt;br&gt;metal-sensitive transcriptional regulator&lt;br&gt;Location: 2200532 - 2200254" locus_tag="EES40_RS09720" class="clusterblast-orf" id="dummy-3_h3_2_10"  />
</g>
<g id="a3_0011"  >
<polygon points="56,90 60,85 56,80 56,90 " style="fill:white; stroke-width:1; stroke:black; " description="&lt;b&gt;EES40_RS09715&lt;/b&gt;&lt;br&gt;rhodanese-like domain-containing protein&lt;br&gt;Location: 2200165 - 2199596" locus_tag="EES40_RS09715" class="clusterblast-orf" id="dummy-3_h3_2_11"  />
</g>
<g id="a3_0012"  >
<polygon points="63,85 65,80 65,90 63,85 " style="fill:white; stroke-width:1; stroke:black; " description="&lt;b&gt;EES40_RS37610&lt;/b&gt;&lt;br&gt;hypothetical protein&lt;br&gt;Location: 2199120 - 2198890" locus_tag="EES40_RS37610" class="clusterblast-orf" id="dummy-3_h3_2_12"  />
</g>
<g id="a3_0013"  >
<polygon points="74,85 79,80 82,80 82,90 79,90 74,85 " style="fill:white; stroke-width:1; stroke:black; " description="&lt;b&gt;EES40_RS09705&lt;/b&gt;&lt;br&gt;MBL fold metallo-hydrolase&lt;br&gt;Location: 2197583 - 2196483" locus_tag="EES40_RS09705" class="clusterblast-orf" id="dummy-3_h3_2_13"  />
</g>
<g id="a3_0014"  >
<polygon points="82,85 87,80 87,80 87,90 87,90 82,85 " style="fill:white; stroke-width:1; stroke:black; " description="&lt;b&gt;EES40_RS09700&lt;/b&gt;&lt;br&gt;response regulator&lt;br&gt;Location: 2196486 - 2195776" locus_tag="EES40_RS09700" class="clusterblast-orf" id="dummy-3_h3_2_14"  />
</g>
<g id="a3_0015"  >
<polygon points="87,85 92,80 103,80 103,90 92,90 87,85 " style="fill:white; stroke-width:1; stroke:black; " description="&lt;b&gt;EES40_RS09695&lt;/b&gt;&lt;br&gt;sensor histidine kinase&lt;br&gt;Location: 2195792 - 2193516" locus_tag="EES40_RS09695" class="clusterblast-orf" id="dummy-3_h3_2_15"  />
</g>
<g id="a3_0016"  >
<polygon points="103,85 107,80 107,90 103,85 " style="fill:white; stroke-width:1; stroke:black; " description="&lt;b&gt;EES40_RS09690&lt;/b&gt;&lt;br&gt;transposase family protein&lt;br&gt;Location: 2193409 - 2192923" locus_tag="EES40_RS09690" class="clusterblast-orf" id="dummy-3_h3_2_16"  />
</g>
<g id="a3_0017"  >
<polygon points="109,85 114,80 114,80 114,90 114,90 109,85 " style="fill:white; stroke-width:1; stroke:black; " description="&lt;b&gt;EES40_RS09685&lt;/b&gt;&lt;br&gt;hypothetical protein&lt;br&gt;Location: 2192661 - 2191876" locus_tag="EES40_RS09685" class="clusterblast-orf" id="dummy-3_h3_2_17"  />
</g>
<g id="a3_0018"  >
<polygon points="115,85 120,80 128,80 128,90 120,90 115,85 " style="fill:white; stroke-width:1; stroke:black; " description="&lt;b&gt;EES40_RS09680&lt;/b&gt;&lt;br&gt;DUF262 domain-containing protein&lt;br&gt;Location: 2191794 - 2189899" locus_tag="EES40_RS09680" class="clusterblast-orf" id="dummy-3_h3_2_18"  />
</g>
<g id="a3_0019"  >
<polygon points="128,90 129,90 134,85 129,80 128,80 128,90 " style="fill:white; stroke-width:1; stroke:black; " description="&lt;b&gt;EES40_RS09675&lt;/b&gt;&lt;br&gt;tyrosine-type recombinase/integrase&lt;br&gt;Location: 2189870 - 2188980" locus_tag="EES40_RS09675" class="clusterblast-orf" id="dummy-3_h3_2_19"  />
</g>
<g id="a3_0020"  >
<polygon points="137,90 138,85 137,80 137,90 " style="fill:white; stroke-width:1; stroke:black; " description="&lt;b&gt;EES40_RS37605&lt;/b&gt;&lt;br&gt;hypothetical protein&lt;br&gt;Location: 2188608 - 2188453" locus_tag="EES40_RS37605" class="clusterblast-orf" id="dummy-3_h3_2_20"  />
</g>
<g id="a3_0021"  >
<polygon points="138,85 143,80 151,80 151,90 143,90 138,85 " style="fill:#15d815; stroke-width:1; stroke:black; " description="&lt;b&gt;EES40_RS09670&lt;/b&gt;&lt;br&gt;ACP S-malonyltransferase&lt;br&gt;Location: 2188416 - 2186560&lt;br&gt;&lt;br&gt;&lt;b&gt;BlastP hit with LLPMBPKK_00537&lt;/b&gt;&lt;br&gt;Percentage identity: 69&lt;br&gt;Percentage coverage: 99&lt;br&gt;BLAST bit score: 853&lt;br&gt;E-value: 5.7e-308" locus_tag="EES40_RS09670" class="clusterblast-orf" id="dummy-3_h3_2_21"  />
</g>
<g id="a3_0022"  >
<polygon points="151,85 156,80 167,80 167,90 156,90 151,85 " style="fill:#15d815; stroke-width:1; stroke:black; " description="&lt;b&gt;EES40_RS09665&lt;/b&gt;&lt;br&gt;enoyl-CoA hydratase/isomerase&lt;br&gt;Location: 2186563 - 2184344&lt;br&gt;&lt;br&gt;&lt;b&gt;BlastP hit with LLPMBPKK_00538&lt;/b&gt;&lt;br&gt;Percentage identity: 74&lt;br&gt;Percentage coverage: 99&lt;br&gt;BLAST bit score: 1052&lt;br&gt;E-value: 0.0" locus_tag="EES40_RS09665" class="clusterblast-orf" id="dummy-3_h3_2_22"  />
</g>
<g id="a3_0023"  >
<polygon points="167,85 172,80 176,80 176,90 172,90 167,85 " style="fill:#1577d8; stroke-width:1; stroke:black; " description="&lt;b&gt;EES40_RS09660&lt;/b&gt;&lt;br&gt;hydroxymethylglutaryl-CoA synthase family protein&lt;br&gt;Location: 2184356 - 2183100&lt;br&gt;&lt;br&gt;&lt;b&gt;BlastP hit with LLPMBPKK_00539&lt;/b&gt;&lt;br&gt;Percentage identity: 83&lt;br&gt;Percentage coverage: 100&lt;br&gt;BLAST bit score: 709&lt;br&gt;E-value: 1.94e-257" locus_tag="EES40_RS09660" class="clusterblast-orf" id="dummy-3_h3_2_23"  />
</g>
<g id="a3_0024"  >
<polygon points="176,85 181,80 184,80 184,90 181,90 176,85 " style="fill:#15d815; stroke-width:1; stroke:black; " description="&lt;b&gt;EES40_RS09655&lt;/b&gt;&lt;br&gt;polyketide beta-ketoacyl:ACP synthase&lt;br&gt;Location: 2183095 - 2181887&lt;br&gt;&lt;br&gt;&lt;b&gt;BlastP hit with LLPMBPKK_00540&lt;/b&gt;&lt;br&gt;Percentage identity: 80&lt;br&gt;Percentage coverage: 98&lt;br&gt;BLAST bit score: 626&lt;br&gt;E-value: 2.89e-225" locus_tag="EES40_RS09655" class="clusterblast-orf" id="dummy-3_h3_2_24"  />
</g>
<g id="a3_0025"  >
<polygon points="184,85 186,80 186,90 184,85 " style="fill:#d815d8; stroke-width:1; stroke:black; " description="&lt;b&gt;EES40_RS09650&lt;/b&gt;&lt;br&gt;acyl carrier protein&lt;br&gt;Location: 2181870 - 2181619&lt;br&gt;&lt;br&gt;&lt;b&gt;BlastP hit with LLPMBPKK_00541&lt;/b&gt;&lt;br&gt;Percentage identity: 75&lt;br&gt;Percentage coverage: 92&lt;br&gt;BLAST bit score: 120&lt;br&gt;E-value: 2.26e-35" locus_tag="EES40_RS09650" class="clusterblast-orf" id="dummy-3_h3_2_25"  />
</g>
<g id="a3_0026"  >
<polygon points="187,85 192,80 251,80 251,90 192,90 187,85 " style="fill:#15d815; stroke-width:1; stroke:black; " description="&lt;b&gt;EES40_RS09645&lt;/b&gt;&lt;br&gt;amino acid adenylation domain-containing protein&lt;br&gt;Location: 2181542 - 2172375&lt;br&gt;&lt;br&gt;&lt;b&gt;BlastP hit with LLPMBPKK_00542&lt;/b&gt;&lt;br&gt;Percentage identity: 78&lt;br&gt;Percentage coverage: 100&lt;br&gt;BLAST bit score: 4673&lt;br&gt;E-value: 0.0&lt;br&gt;&lt;br&gt;&lt;b&gt;BlastP hit with LLPMBPKK_00543&lt;/b&gt;&lt;br&gt;Percentage identity: 43&lt;br&gt;Percentage coverage: 103&lt;br&gt;BLAST bit score: 1756&lt;br&gt;E-value: 0.0&lt;br&gt;&lt;br&gt;&lt;b&gt;BlastP hit with LLPMBPKK_00545&lt;/b&gt;&lt;br&gt;Percentage identity: 37&lt;br&gt;Percentage coverage: 14&lt;br&gt;BLAST bit score: 528&lt;br&gt;E-value: 6.56e-148" locus_tag="EES40_RS09645" class="clusterblast-orf" id="dummy-3_h3_2_26"  />
</g>
<g id="a3_0027"  >
<polygon points="251,85 256,80 304,80 304,90 256,90 251,85 " style="fill:#15d815; stroke-width:1; stroke:black; " description="&lt;b&gt;EES40_RS09640&lt;/b&gt;&lt;br&gt;amino acid adenylation domain-containing protein&lt;br&gt;Location: 2172358 - 2164808&lt;br&gt;&lt;br&gt;&lt;b&gt;BlastP hit with LLPMBPKK_00542&lt;/b&gt;&lt;br&gt;Percentage identity: 49&lt;br&gt;Percentage coverage: 66&lt;br&gt;BLAST bit score: 1746&lt;br&gt;E-value: 0.0&lt;br&gt;&lt;br&gt;&lt;b&gt;BlastP hit with LLPMBPKK_00543&lt;/b&gt;&lt;br&gt;Percentage identity: 78&lt;br&gt;Percentage coverage: 100&lt;br&gt;BLAST bit score: 3867&lt;br&gt;E-value: 0.0&lt;br&gt;&lt;br&gt;&lt;b&gt;BlastP hit with LLPMBPKK_00545&lt;/b&gt;&lt;br&gt;Percentage identity: 42&lt;br&gt;Percentage coverage: 13&lt;br&gt;BLAST bit score: 639&lt;br&gt;E-value: 1.33e-183" locus_tag="EES40_RS09640" class="clusterblast-orf" id="dummy-3_h3_2_27"  />
</g>
<g id="a3_0028"  >
<polygon points="304,85 309,80 400,80 400,90 309,90 304,85 " style="fill:#15d815; stroke-width:1; stroke:black; " description="&lt;b&gt;EES40_RS09635&lt;/b&gt;&lt;br&gt;SDR family NAD(P)-dependent oxidoreductase&lt;br&gt;Location: 2164811 - 2151015&lt;br&gt;&lt;br&gt;&lt;b&gt;BlastP hit with LLPMBPKK_00544&lt;/b&gt;&lt;br&gt;Percentage identity: 66&lt;br&gt;Percentage coverage: 101&lt;br&gt;BLAST bit score: 5854&lt;br&gt;E-value: 0.0&lt;br&gt;&lt;br&gt;&lt;b&gt;BlastP hit with LLPMBPKK_00545&lt;/b&gt;&lt;br&gt;Percentage identity: 33&lt;br&gt;Percentage coverage: 26&lt;br&gt;BLAST bit score: 668&lt;br&gt;E-value: 1.06e-189&lt;br&gt;&lt;br&gt;&lt;b&gt;BlastP hit with LLPMBPKK_00546&lt;/b&gt;&lt;br&gt;Percentage identity: 33&lt;br&gt;Percentage coverage: 100&lt;br&gt;BLAST bit score: 771&lt;br&gt;E-value: 6.31e-233&lt;br&gt;&lt;br&gt;&lt;b&gt;BlastP hit with LLPMBPKK_00547&lt;/b&gt;&lt;br&gt;Percentage identity: 32&lt;br&gt;Percentage coverage: 103&lt;br&gt;BLAST bit score: 1147&lt;br&gt;E-value: 0.0" locus_tag="EES40_RS09635" class="clusterblast-orf" id="dummy-3_h3_2_28"  />
</g>
<g id="a3_0029"  >
<polygon points="400,85 405,80 552,80 552,90 405,90 400,85 " style="fill:#15d815; stroke-width:1; stroke:black; " description="&lt;b&gt;EES40_RS09630&lt;/b&gt;&lt;br&gt;amino acid adenylation domain-containing protein&lt;br&gt;Location: 2151018 - 2129317&lt;br&gt;&lt;br&gt;&lt;b&gt;BlastP hit with LLPMBPKK_00544&lt;/b&gt;&lt;br&gt;Percentage identity: 44&lt;br&gt;Percentage coverage: 16&lt;br&gt;BLAST bit score: 501&lt;br&gt;E-value: 1.7e-139&lt;br&gt;&lt;br&gt;&lt;b&gt;BlastP hit with LLPMBPKK_00545&lt;/b&gt;&lt;br&gt;Percentage identity: 67&lt;br&gt;Percentage coverage: 101&lt;br&gt;BLAST bit score: 9086&lt;br&gt;E-value: 0.0&lt;br&gt;&lt;br&gt;&lt;b&gt;BlastP hit with LLPMBPKK_00546&lt;/b&gt;&lt;br&gt;Percentage identity: 37&lt;br&gt;Percentage coverage: 49&lt;br&gt;BLAST bit score: 460&lt;br&gt;E-value: 9.23e-130&lt;br&gt;&lt;br&gt;&lt;b&gt;BlastP hit with LLPMBPKK_00547&lt;/b&gt;&lt;br&gt;Percentage identity: 31&lt;br&gt;Percentage coverage: 93&lt;br&gt;BLAST bit score: 860&lt;br&gt;E-value: 1.29e-253" locus_tag="EES40_RS09630" class="clusterblast-orf" id="dummy-3_h3_2_29"  />
</g>
<g id="a3_0030"  >
<polygon points="552,85 557,80 645,80 645,90 557,90 552,85 " style="fill:#15d815; stroke-width:1; stroke:black; " description="&lt;b&gt;EES40_RS09625&lt;/b&gt;&lt;br&gt;SDR family NAD(P)-dependent oxidoreductase&lt;br&gt;Location: 2129320 - 2116067&lt;br&gt;&lt;br&gt;&lt;b&gt;BlastP hit with LLPMBPKK_00540&lt;/b&gt;&lt;br&gt;Percentage identity: 31&lt;br&gt;Percentage coverage: 51&lt;br&gt;BLAST bit score: 65&lt;br&gt;E-value: 4.43e-09&lt;br&gt;&lt;br&gt;&lt;b&gt;BlastP hit with LLPMBPKK_00546&lt;/b&gt;&lt;br&gt;Percentage identity: 65&lt;br&gt;Percentage coverage: 101&lt;br&gt;BLAST bit score: 2115&lt;br&gt;E-value: 0.0&lt;br&gt;&lt;br&gt;&lt;b&gt;BlastP hit with LLPMBPKK_00547&lt;/b&gt;&lt;br&gt;Percentage identity: 65&lt;br&gt;Percentage coverage: 93&lt;br&gt;BLAST bit score: 3302&lt;br&gt;E-value: 0.0" locus_tag="EES40_RS09625" class="clusterblast-orf" id="dummy-3_h3_2_30"  />
</g>
<g id="a3_0031"  >
<polygon points="645,90 646,90 651,85 646,80 645,80 645,90 " style="fill:white; stroke-width:1; stroke:black; " description="&lt;b&gt;EES40_RS37600&lt;/b&gt;&lt;br&gt;hypothetical protein&lt;br&gt;Location: 2116030 - 2115278" locus_tag="EES40_RS37600" class="clusterblast-orf" id="dummy-3_h3_2_31"  />
</g>
<g id="a3_0032"  >
<polygon points="657,90 657,90 662,85 657,80 657,80 657,90 " style="fill:#d8d815; stroke-width:1; stroke:black; " description="&lt;b&gt;EES40_RS09620&lt;/b&gt;&lt;br&gt;thioesterase&lt;br&gt;Location: 2114375 - 2113632&lt;br&gt;&lt;br&gt;&lt;b&gt;BlastP hit with LLPMBPKK_00548&lt;/b&gt;&lt;br&gt;Percentage identity: 68&lt;br&gt;Percentage coverage: 88&lt;br&gt;BLAST bit score: 348&lt;br&gt;E-value: 7.59e-120" locus_tag="EES40_RS09620" class="clusterblast-orf" id="dummy-3_h3_2_32"  />
</g>
<g id="a3_0033"  >
<polygon points="663,90 668,90 673,85 668,80 663,80 663,90 " style="fill:#15d877; stroke-width:1; stroke:black; " description="&lt;b&gt;EES40_RS09615&lt;/b&gt;&lt;br&gt;amidase&lt;br&gt;Location: 2113528 - 2112113&lt;br&gt;&lt;br&gt;&lt;b&gt;BlastP hit with LLPMBPKK_00549&lt;/b&gt;&lt;br&gt;Percentage identity: 79&lt;br&gt;Percentage coverage: 99&lt;br&gt;BLAST bit score: 727&lt;br&gt;E-value: 5.73e-263" locus_tag="EES40_RS09615" class="clusterblast-orf" id="dummy-3_h3_2_33"  />
</g>
<g id="a3_0034"  >
<polygon points="674,85 679,80 681,80 681,90 679,90 674,85 " style="fill:#1515d8; stroke-width:1; stroke:black; " description="&lt;b&gt;EES40_RS09610&lt;/b&gt;&lt;br&gt;pentapeptide repeat-containing protein&lt;br&gt;Location: 2111917 - 2110883&lt;br&gt;&lt;br&gt;&lt;b&gt;BlastP hit with LLPMBPKK_00550&lt;/b&gt;&lt;br&gt;Percentage identity: 69&lt;br&gt;Percentage coverage: 61&lt;br&gt;BLAST bit score: 268&lt;br&gt;E-value: 4.93e-85" locus_tag="EES40_RS09610" class="clusterblast-orf" id="dummy-3_h3_2_34"  />
</g>
<g id="a3_0035"  >
<polygon points="684,85 689,80 690,80 690,90 689,90 684,85 " style="fill:#d81577; stroke-width:1; stroke:black; " description="&lt;b&gt;EES40_RS09605&lt;/b&gt;&lt;br&gt;4'-phosphopantetheinyl transferase superfamily protein&lt;br&gt;Location: 2110539 - 2109661&lt;br&gt;&lt;br&gt;&lt;b&gt;BlastP hit with LLPMBPKK_00551&lt;/b&gt;&lt;br&gt;Percentage identity: 65&lt;br&gt;Percentage coverage: 98&lt;br&gt;BLAST bit score: 284&lt;br&gt;E-value: 8.26e-95" locus_tag="EES40_RS09605" class="clusterblast-orf" id="dummy-3_h3_2_35"  />
</g>
<g id="a3_0036"  >
<polygon points="699,90 705,90 710,85 705,80 699,80 699,90 " style="fill:white; stroke-width:1; stroke:black; " description="&lt;b&gt;EES40_RS09600&lt;/b&gt;&lt;br&gt;SpoIIE family protein phosphatase&lt;br&gt;Location: 2108441 - 2106792" locus_tag="EES40_RS09600" class="clusterblast-orf" id="dummy-3_h3_2_36"  />
</g>
<g id="a3_0037"  >
<polygon points="711,90 711,90 716,85 711,80 711,80 711,90 " style="fill:white; stroke-width:1; stroke:black; " description="&lt;b&gt;EES40_RS09595&lt;/b&gt;&lt;br&gt;SAM-dependent methyltransferase&lt;br&gt;Location: 2106702 - 2105893" locus_tag="EES40_RS09595" class="clusterblast-orf" id="dummy-3_h3_2_37"  />
</g>
<g id="a3_0038"  >
<polygon points="717,85 720,80 720,90 717,85 " style="fill:white; stroke-width:1; stroke:black; " description="&lt;b&gt;EES40_RS09590&lt;/b&gt;&lt;br&gt;hypothetical protein&lt;br&gt;Location: 2105812 - 2105444" locus_tag="EES40_RS09590" class="clusterblast-orf" id="dummy-3_h3_2_38"  />
</g>
<g id="a3_0039"  >
<polygon points="720,85 724,80 724,90 720,85 " style="fill:white; stroke-width:1; stroke:black; " description="&lt;b&gt;EES40_RS09585&lt;/b&gt;&lt;br&gt;hypothetical protein&lt;br&gt;Location: 2105347 - 2104805" locus_tag="EES40_RS09585" class="clusterblast-orf" id="dummy-3_h3_2_39"  />
</g>
<g id="a3_0040"  >
<polygon points="724,85 729,80 729,80 729,90 729,90 724,85 " style="fill:white; stroke-width:1; stroke:black; " description="&lt;b&gt;EES40_RS09580&lt;/b&gt;&lt;br&gt;type 1 glutamine amidotransferase&lt;br&gt;Location: 2104800 - 2104129" locus_tag="EES40_RS09580" class="clusterblast-orf" id="dummy-3_h3_2_40"  />
</g>
<g id="a3_0041"  >
<polygon points="731,90 734,85 731,80 731,90 " style="fill:white; stroke-width:1; stroke:black; " description="&lt;b&gt;EES40_RS09570&lt;/b&gt;&lt;br&gt;hypothetical protein&lt;br&gt;Location: 2103780 - 2103340" locus_tag="EES40_RS09570" class="clusterblast-orf" id="dummy-3_h3_2_41"  />
</g>
<g id="a3_0042"  >
<polygon points="736,85 739,80 739,90 736,85 " style="fill:white; stroke-width:1; stroke:black; " description="&lt;b&gt;EES40_RS09565&lt;/b&gt;&lt;br&gt;hypothetical protein&lt;br&gt;Location: 2103067 - 2102702" locus_tag="EES40_RS09565" class="clusterblast-orf" id="dummy-3_h3_2_42"  />
</g>
<g id="a3_0043"  >
<polygon points="740,90 743,90 748,85 743,80 740,80 740,90 " style="fill:white; stroke-width:1; stroke:black; " description="&lt;b&gt;EES40_RS09560&lt;/b&gt;&lt;br&gt;LacI family transcriptional regulator&lt;br&gt;Location: 2102510 - 2101392" locus_tag="EES40_RS09560" class="clusterblast-orf" id="dummy-3_h3_2_43"  />
</g>
<g id="a3_0044"  >
<polygon points="748,90 755,90 760,85 755,80 748,80 748,90 " style="fill:white; stroke-width:1; stroke:black; " description="&lt;b&gt;EES40_RS09555&lt;/b&gt;&lt;br&gt;FAD-dependent oxidoreductase&lt;br&gt;Location: 2101336 - 2099726" locus_tag="EES40_RS09555" class="clusterblast-orf" id="dummy-3_h3_2_44"  />
</g>
<g id="a3_0045"  >
<polygon points="761,90 770,90 775,85 770,80 761,80 761,90 " style="fill:white; stroke-width:1; stroke:black; " description="&lt;b&gt;EES40_RS09550&lt;/b&gt;&lt;br&gt;hydantoinase/oxoprolinase family protein&lt;br&gt;Location: 2099584 - 2097455" locus_tag="EES40_RS09550" class="clusterblast-orf" id="dummy-3_h3_2_45"  />
</g>
<g id="a3_0046"  >
<polygon points="775,90 775,90 780,85 775,80 775,80 775,90 " style="fill:white; stroke-width:1; stroke:black; " description="&lt;b&gt;EES40_RS09545&lt;/b&gt;&lt;br&gt;hypothetical protein&lt;br&gt;Location: 2097458 - 2096883" locus_tag="EES40_RS09545" class="clusterblast-orf" id="dummy-3_h3_2_46"  />
</g>
</svg>
