<svg xmlns="http://www.w3.org/2000/svg" xmlns:xlink="http://www.w3.org/1999/xlink" version="1.1" x="0" y="0" height="230" width="800" viewBox="0 0 800 230" preserveAspectRatio="none"  >
<g label="Query sequence" class="clusterblast-cluster"  >
<text x="5" y="20" class="clusterblast-acc"  >
Query sequence</text>
<line x1="10" y1="35" x2="778.0" y2="35" style="stroke-width:1; stroke:grey; "  />
<polygon points="161,40 165,40 170,35 165,30 161,30 161,40 " style="fill:#d81515; stroke-width:1; stroke:black; " description="&lt;b&gt;LLPMBPKK_00703&lt;/b&gt;&lt;br&gt;hypothetical protein&lt;br&gt;Location: 897958 - 898738" locus_tag="LLPMBPKK_00703" class="clusterblast-orf" id="dummy-6_q0_0_all"  />
<polygon points="170,35 175,30 190,30 190,40 175,40 170,35 " style="fill:white; stroke-width:1; stroke:black; " description="&lt;b&gt;LLPMBPKK_00704&lt;/b&gt;&lt;br&gt;LytR family transcriptional regulator&lt;br&gt;Location: 898753 - 900469" locus_tag="LLPMBPKK_00704" class="clusterblast-orf" id="dummy-6_q1_0_all"  />
<polygon points="192,35 197,30 203,30 203,40 197,40 192,35 " style="fill:#60d815; stroke-width:1; stroke:black; " description="&lt;b&gt;LLPMBPKK_00705&lt;/b&gt;&lt;br&gt;urea transporter&lt;br&gt;Location: 900632 - 901688" locus_tag="LLPMBPKK_00705" class="clusterblast-orf" id="dummy-6_q2_0_all"  />
<polygon points="205,35 210,30 220,30 220,40 210,40 205,35 " style="fill:white; stroke-width:1; stroke:black; " description="&lt;b&gt;LLPMBPKK_00706&lt;/b&gt;&lt;br&gt;hypothetical protein&lt;br&gt;Location: 901826 - 903119" locus_tag="LLPMBPKK_00706" class="clusterblast-orf" id="dummy-6_q3_0_all"  />
<polygon points="222,40 226,35 222,30 222,40 " style="fill:#15abd8; stroke-width:1; stroke:black; " description="&lt;b&gt;LLPMBPKK_00707&lt;/b&gt;&lt;br&gt;anti-sigma factor antagonist&lt;br&gt;Location: 903353 - 903722" locus_tag="LLPMBPKK_00707" class="clusterblast-orf" id="dummy-6_q4_0_all"  />
<polygon points="230,40 230,40 235,35 230,30 230,30 230,40 " style="fill:#8d15d8; stroke-width:1; stroke:black; " description="&lt;b&gt;LLPMBPKK_00708&lt;/b&gt;&lt;br&gt;transcription elongation factor GreA&lt;br&gt;Location: 904045 - 904504" locus_tag="LLPMBPKK_00708" class="clusterblast-orf" id="dummy-6_q5_0_all"  />
<polygon points="236,35 241,30 264,30 264,40 241,40 236,35 " style="fill:#d84215; stroke-width:1; stroke:black; " description="&lt;b&gt;LLPMBPKK_00709&lt;/b&gt;&lt;br&gt;chaperone&lt;br&gt;Location: 904558 - 907072" locus_tag="LLPMBPKK_00709" class="clusterblast-orf" id="dummy-6_q6_0_all"  />
<polygon points="275,35 279,30 279,40 275,35 " style="fill:white; stroke-width:1; stroke:black; " description="&lt;b&gt;LLPMBPKK_00710&lt;/b&gt;&lt;br&gt;hypothetical protein&lt;br&gt;Location: 908016 - 908409" locus_tag="LLPMBPKK_00710" class="clusterblast-orf" id="dummy-6_q7_0_all"  />
<polygon points="280,35 285,30 290,30 290,40 285,40 280,35 " style="fill:#33d815; stroke-width:1; stroke:black; " description="&lt;b&gt;LLPMBPKK_00711&lt;/b&gt;&lt;br&gt;YegS/Rv2252/BmrU family lipid kinase&lt;br&gt;Location: 908465 - 909347" locus_tag="LLPMBPKK_00711" class="clusterblast-orf" id="dummy-6_q8_0_all"  />
<polygon points="290,35 295,30 308,30 308,40 295,40 290,35 " style="fill:#157ed8; stroke-width:1; stroke:black; " description="&lt;b&gt;LLPMBPKK_00712&lt;/b&gt;&lt;br&gt;FAD-binding oxidoreductase&lt;br&gt;Location: 909389 - 910982" locus_tag="LLPMBPKK_00712" class="clusterblast-orf" id="dummy-6_q9_0_all"  />
<polygon points="310,40 312,40 317,35 312,30 310,30 310,40 " style="fill:#ba15d8; stroke-width:1; stroke:black; " description="&lt;b&gt;LLPMBPKK_00713&lt;/b&gt;&lt;br&gt;TetR/AcrR family transcriptional regulator&lt;br&gt;Location: 911123 - 911771" locus_tag="LLPMBPKK_00713" class="clusterblast-orf" id="dummy-6_q10_0_all"  />
<polygon points="317,40 330,40 335,35 330,30 317,30 317,40 " style="fill:#d86f15; stroke-width:1; stroke:black; " description="&lt;b&gt;LLPMBPKK_00714&lt;/b&gt;&lt;br&gt;glycerol-3-phosphate dehydrogenase/oxidase&lt;br&gt;Location: 911767 - 913342" locus_tag="LLPMBPKK_00714" class="clusterblast-orf" id="dummy-6_q11_0_all"  />
<polygon points="339,40 352,40 357,35 352,30 339,30 339,40 " style="fill:#15d824; stroke-width:1; stroke:black; " description="&lt;b&gt;LLPMBPKK_00715&lt;/b&gt;&lt;br&gt;tryptophan 7-halogenase&lt;br&gt;Location: 913711 - 915334" locus_tag="LLPMBPKK_00715" class="clusterblast-orf" id="dummy-6_q12_0_all"  />
<polygon points="357,40 359,40 364,35 359,30 357,30 357,40 " style="fill:#1551d8; stroke-width:1; stroke:black; " description="&lt;b&gt;LLPMBPKK_00716&lt;/b&gt;&lt;br&gt;flavin reductase&lt;br&gt;Location: 915323 - 915887" locus_tag="LLPMBPKK_00716" class="clusterblast-orf" id="dummy-6_q13_0_all"  />
<polygon points="364,40 371,40 376,35 371,30 364,30 364,40 " style="fill:#d815c9; stroke-width:1; stroke:black; " description="&lt;b&gt;LLPMBPKK_00717&lt;/b&gt;&lt;br&gt;hypothetical protein&lt;br&gt;Location: 915883 - 917014" locus_tag="LLPMBPKK_00717" class="clusterblast-orf" id="dummy-6_q14_0_all"  />
<polygon points="378,40 392,40 397,35 392,30 378,30 378,40 " style="fill:#d89c15; stroke-width:1; stroke:black; " description="&lt;b&gt;LLPMBPKK_00718&lt;/b&gt;&lt;br&gt;CDA peptide synthetase III&lt;br&gt;Location: 917154 - 918852" locus_tag="LLPMBPKK_00718" class="clusterblast-orf" id="dummy-6_q15_0_all"  />
<polygon points="397,40 401,40 406,35 401,30 397,30 397,40 " style="fill:#15d851; stroke-width:1; stroke:black; " description="&lt;b&gt;LLPMBPKK_00719&lt;/b&gt;&lt;br&gt;thioesterase&lt;br&gt;Location: 918851 - 919604" locus_tag="LLPMBPKK_00719" class="clusterblast-orf" id="dummy-6_q16_0_all"  />
<polygon points="405,40 414,40 419,35 414,30 405,30 405,40 " style="fill:#1524d8; stroke-width:1; stroke:black; " description="&lt;b&gt;LLPMBPKK_00720&lt;/b&gt;&lt;br&gt;cytochrome P450&lt;br&gt;Location: 919593 - 920790" locus_tag="LLPMBPKK_00720" class="clusterblast-orf" id="dummy-6_q17_0_all"  />
<polygon points="420,40 423,35 420,30 420,40 " style="fill:#d8159c; stroke-width:1; stroke:black; " description="&lt;b&gt;LLPMBPKK_00721&lt;/b&gt;&lt;br&gt;YCII-related domain protein&lt;br&gt;Location: 920854 - 921169" locus_tag="LLPMBPKK_00721" class="clusterblast-orf" id="dummy-6_q18_0_all"  />
<polygon points="423,40 432,40 437,35 432,30 423,30 423,40 " style="fill:#d8c915; stroke-width:1; stroke:black; " description="&lt;b&gt;LLPMBPKK_00722&lt;/b&gt;&lt;br&gt;hydrolase&lt;br&gt;Location: 921165 - 922353" locus_tag="LLPMBPKK_00722" class="clusterblast-orf" id="dummy-6_q19_0_all"  />
<polygon points="436,40 441,40 446,35 441,30 436,30 436,40 " style="fill:#15d87e; stroke-width:1; stroke:black; " description="&lt;b&gt;LLPMBPKK_00723&lt;/b&gt;&lt;br&gt;3-oxoacyl-[acyl-carrier-protein] reductase&lt;br&gt;Location: 922345 - 923146" locus_tag="LLPMBPKK_00723" class="clusterblast-orf" id="dummy-6_q20_0_all"  />
<polygon points="446,40 455,40 460,35 455,30 446,30 446,40 " style="fill:#3315d8; stroke-width:1; stroke:black; " description="&lt;b&gt;LLPMBPKK_00724&lt;/b&gt;&lt;br&gt;ATP-grasp domain protein&lt;br&gt;Location: 923161 - 924427" locus_tag="LLPMBPKK_00724" class="clusterblast-orf" id="dummy-6_q21_0_all"  />
<polygon points="460,40 469,40 474,35 469,30 460,30 460,40 " style="fill:#d8156f; stroke-width:1; stroke:black; " description="&lt;b&gt;LLPMBPKK_00725&lt;/b&gt;&lt;br&gt;pyridoxal-phosphate dependent enzyme&lt;br&gt;Location: 924438 - 925662" locus_tag="LLPMBPKK_00725" class="clusterblast-orf" id="dummy-6_q22_0_all"  />
<polygon points="474,40 484,40 489,35 484,30 474,30 474,40 " style="fill:#bad815; stroke-width:1; stroke:black; " description="&lt;b&gt;LLPMBPKK_00726&lt;/b&gt;&lt;br&gt;MFS transporter&lt;br&gt;Location: 925667 - 927008" locus_tag="LLPMBPKK_00726" class="clusterblast-orf" id="dummy-6_q23_0_all"  />
<polygon points="489,40 499,40 504,35 499,30 489,30 489,40 " style="fill:#15d8ab; stroke-width:1; stroke:black; " description="&lt;b&gt;LLPMBPKK_00727&lt;/b&gt;&lt;br&gt;transporter monovalent cation:proton antiporter-2(CPA2) family protein&lt;br&gt;Location: 927009 - 928332" locus_tag="LLPMBPKK_00727" class="clusterblast-orf" id="dummy-6_q24_0_all"  />
<polygon points="504,35 509,30 521,30 521,40 509,40 504,35 " style="fill:#6015d8; stroke-width:1; stroke:black; " description="&lt;b&gt;LLPMBPKK_00728&lt;/b&gt;&lt;br&gt;Outer membrane protein assembly factor BamB&lt;br&gt;Location: 928352 - 929804" locus_tag="LLPMBPKK_00728" class="clusterblast-orf" id="dummy-6_q25_0_all"  />
<polygon points="523,35 528,30 531,30 531,40 528,40 523,35 " style="fill:white; stroke-width:1; stroke:black; " description="&lt;b&gt;LLPMBPKK_00729&lt;/b&gt;&lt;br&gt;TetR family transcriptional regulator&lt;br&gt;Location: 930052 - 930694" locus_tag="LLPMBPKK_00729" class="clusterblast-orf" id="dummy-6_q26_0_all"  />
<polygon points="532,40 536,40 541,35 536,30 532,30 532,40 " style="fill:#15d87e; stroke-width:1; stroke:black; " description="&lt;b&gt;LLPMBPKK_00730&lt;/b&gt;&lt;br&gt;oxidoreductase&lt;br&gt;Location: 930855 - 931641" locus_tag="LLPMBPKK_00730" class="clusterblast-orf" id="dummy-6_q27_0_all"  />
<polygon points="542,35 547,30 560,30 560,40 547,40 542,35 " style="fill:#d81542; stroke-width:1; stroke:black; " description="&lt;b&gt;LLPMBPKK_00731&lt;/b&gt;&lt;br&gt;ABC-F family ATP-binding cassettedomain-containing protein&lt;br&gt;Location: 931668 - 933291" locus_tag="LLPMBPKK_00731" class="clusterblast-orf" id="dummy-6_q28_0_all"  />
<polygon points="563,35 567,30 567,40 563,35 " style="fill:white; stroke-width:1; stroke:black; " description="&lt;b&gt;LLPMBPKK_00732&lt;/b&gt;&lt;br&gt;hypothetical protein&lt;br&gt;Location: 933575 - 933890" locus_tag="LLPMBPKK_00732" class="clusterblast-orf" id="dummy-6_q29_0_all"  />
<polygon points="570,35 575,30 578,30 578,40 575,40 570,35 " style="fill:#15d87e; stroke-width:1; stroke:black; " description="&lt;b&gt;LLPMBPKK_00733&lt;/b&gt;&lt;br&gt;SDR family NAD(P)-dependent oxidoreductase&lt;br&gt;Location: 934205 - 934910" locus_tag="LLPMBPKK_00733" class="clusterblast-orf" id="dummy-6_q30_0_all"  />
<polygon points="580,40 588,40 593,35 588,30 580,30 580,40 " style="fill:#8dd815; stroke-width:1; stroke:black; " description="&lt;b&gt;LLPMBPKK_00734&lt;/b&gt;&lt;br&gt;4Fe-4S ferredoxin&lt;br&gt;Location: 935072 - 936182" locus_tag="LLPMBPKK_00734" class="clusterblast-orf" id="dummy-6_q31_0_all"  />
<polygon points="597,40 601,40 606,35 601,30 597,30 597,40 " style="fill:#15d8d8; stroke-width:1; stroke:black; " description="&lt;b&gt;LLPMBPKK_00735&lt;/b&gt;&lt;br&gt;SAM-dependent methyltransferase&lt;br&gt;Location: 936572 - 937370" locus_tag="LLPMBPKK_00735" class="clusterblast-orf" id="dummy-6_q32_0_all"  />
<polygon points="607,35 612,30 618,30 618,40 612,40 607,35 " style="fill:white; stroke-width:1; stroke:black; " description="&lt;b&gt;LLPMBPKK_00736&lt;/b&gt;&lt;br&gt;hypothetical protein&lt;br&gt;Location: 937433 - 938423" locus_tag="LLPMBPKK_00736" class="clusterblast-orf" id="dummy-6_q33_0_all"  />
</g>
<g label="NZ_CP020039" description="NZ_CP020039 (1217754-1286897): Streptomyces sp. 3211 isolate 3 chromosome, co... (13% of genes show similarity), NRPS" class="clusterblast-cluster"  >
<text x="5" y="70" class="clusterblast-acc"  >
<a xlink:href="https://antismash-db.secondarymetabolites.org/area.html?record=NZ_CP020039&amp;start=1217754&amp;end=1286897" target="_blank">NZ_CP020039 (1217754-1286897)</a>: Streptomyces sp. 3211 isolate 3 chromosome, co... (13% of genes show similarity), NRPS</text>
<line x1="10" y1="85" x2="778.0" y2="85" style="stroke-width:1; stroke:grey; "  />
</g>
<g id="a6_000"  >
<polygon points="0,85 5,80 5,80 5,90 5,90 0,85 " style="fill:white; stroke-width:1; stroke:black; " description="&lt;b&gt;B4U39_RS06205&lt;/b&gt;&lt;br&gt;hypothetical protein&lt;br&gt;Location: 1286897 - 1286451" locus_tag="B4U39_RS06205" class="clusterblast-orf" id="dummy-6_h6_4_0"  />
</g>
<g id="a6_001"  >
<polygon points="6,85 11,80 19,80 19,90 11,90 6,85 " style="fill:white; stroke-width:1; stroke:black; " description="&lt;b&gt;B4U39_RS06200&lt;/b&gt;&lt;br&gt;NAD(P)/FAD-dependent oxidoreductase&lt;br&gt;Location: 1286307 - 1285207" locus_tag="B4U39_RS06200" class="clusterblast-orf" id="dummy-6_h6_4_1"  />
</g>
<g id="a6_002"  >
<polygon points="19,85 24,80 32,80 32,90 24,90 19,85 " style="fill:white; stroke-width:1; stroke:black; " description="&lt;b&gt;B4U39_RS06195&lt;/b&gt;&lt;br&gt;LLM class flavin-dependent oxidoreductase&lt;br&gt;Location: 1285145 - 1284051" locus_tag="B4U39_RS06195" class="clusterblast-orf" id="dummy-6_h6_4_2"  />
</g>
<g id="a6_003"  >
<polygon points="32,85 37,80 43,80 43,90 37,90 32,85 " style="fill:white; stroke-width:1; stroke:black; " description="&lt;b&gt;B4U39_RS06190&lt;/b&gt;&lt;br&gt;ABC transporter substrate-binding protein&lt;br&gt;Location: 1284051 - 1283017" locus_tag="B4U39_RS06190" class="clusterblast-orf" id="dummy-6_h6_4_3"  />
</g>
<g id="a6_004"  >
<polygon points="44,85 49,80 52,80 52,90 49,90 44,85 " style="fill:#d81542; stroke-width:1; stroke:black; " description="&lt;b&gt;B4U39_RS06185&lt;/b&gt;&lt;br&gt;ABC transporter ATP-binding protein&lt;br&gt;Location: 1282978 - 1282256&lt;br&gt;&lt;br&gt;&lt;b&gt;BlastP hit with LLPMBPKK_00731&lt;/b&gt;&lt;br&gt;Percentage identity: 35&lt;br&gt;Percentage coverage: 35&lt;br&gt;BLAST bit score: 76&lt;br&gt;E-value: 1.48e-13" locus_tag="B4U39_RS06185" class="clusterblast-orf" id="dummy-6_h6_4_4"  />
</g>
<g id="a6_005"  >
<polygon points="52,85 57,80 61,80 61,90 57,90 52,85 " style="fill:white; stroke-width:1; stroke:black; " description="&lt;b&gt;B4U39_RS06180&lt;/b&gt;&lt;br&gt;ABC transporter permease subunit&lt;br&gt;Location: 1282283 - 1281411" locus_tag="B4U39_RS06180" class="clusterblast-orf" id="dummy-6_h6_4_5"  />
</g>
<g id="a6_006"  >
<polygon points="65,85 70,80 81,80 81,90 70,90 65,85 " style="fill:white; stroke-width:1; stroke:black; " description="&lt;b&gt;B4U39_RS06175&lt;/b&gt;&lt;br&gt;cytochrome P450&lt;br&gt;Location: 1281052 - 1279637" locus_tag="B4U39_RS06175" class="clusterblast-orf" id="dummy-6_h6_4_6"  />
</g>
<g id="a6_007"  >
<polygon points="83,90 83,90 88,85 83,80 83,80 83,90 " style="fill:white; stroke-width:1; stroke:black; " description="&lt;b&gt;B4U39_RS06170&lt;/b&gt;&lt;br&gt;polyketide cyclase&lt;br&gt;Location: 1279500 - 1279084" locus_tag="B4U39_RS06170" class="clusterblast-orf" id="dummy-6_h6_4_7"  />
</g>
<g id="a6_008"  >
<polygon points="88,90 92,85 88,80 88,90 " style="fill:white; stroke-width:1; stroke:black; " description="&lt;b&gt;B4U39_RS06165&lt;/b&gt;&lt;br&gt;MarR family transcriptional regulator&lt;br&gt;Location: 1279084 - 1278656" locus_tag="B4U39_RS06165" class="clusterblast-orf" id="dummy-6_h6_4_8"  />
</g>
<g id="a6_009"  >
<polygon points="93,85 98,80 101,80 101,90 98,90 93,85 " style="fill:white; stroke-width:1; stroke:black; " description="&lt;b&gt;B4U39_RS06160&lt;/b&gt;&lt;br&gt;HAD family phosphatase&lt;br&gt;Location: 1278596 - 1277919" locus_tag="B4U39_RS06160" class="clusterblast-orf" id="dummy-6_h6_4_9"  />
</g>
<g id="a6_0010"  >
<polygon points="101,85 106,80 107,80 107,90 106,90 101,85 " style="fill:white; stroke-width:1; stroke:black; " description="&lt;b&gt;B4U39_RS06155&lt;/b&gt;&lt;br&gt;Lrp/AsnC family transcriptional regulator&lt;br&gt;Location: 1277872 - 1277393" locus_tag="B4U39_RS06155" class="clusterblast-orf" id="dummy-6_h6_4_10"  />
</g>
<g id="a6_0011"  >
<polygon points="107,85 112,80 116,80 116,90 112,90 107,85 " style="fill:white; stroke-width:1; stroke:black; " description="&lt;b&gt;B4U39_RS06150&lt;/b&gt;&lt;br&gt;DUF1275 family protein&lt;br&gt;Location: 1277367 - 1276606" locus_tag="B4U39_RS06150" class="clusterblast-orf" id="dummy-6_h6_4_11"  />
</g>
<g id="a6_0012"  >
<polygon points="116,90 118,90 123,85 118,80 116,80 116,90 " style="fill:white; stroke-width:1; stroke:black; " description="&lt;b&gt;B4U39_RS06145&lt;/b&gt;&lt;br&gt;histidine phosphatase family protein&lt;br&gt;Location: 1276535 - 1275942" locus_tag="B4U39_RS06145" class="clusterblast-orf" id="dummy-6_h6_4_12"  />
</g>
<g id="a6_0013"  >
<polygon points="124,90 136,90 141,85 136,80 124,80 124,90 " style="fill:white; stroke-width:1; stroke:black; " description="&lt;b&gt;B4U39_RS06140&lt;/b&gt;&lt;br&gt;APC family permease&lt;br&gt;Location: 1275890 - 1274349" locus_tag="B4U39_RS06140" class="clusterblast-orf" id="dummy-6_h6_4_13"  />
</g>
<g id="a6_0014"  >
<polygon points="141,90 141,90 146,85 141,80 141,80 141,90 " style="fill:white; stroke-width:1; stroke:black; " description="&lt;b&gt;B4U39_RS06135&lt;/b&gt;&lt;br&gt;universal stress protein&lt;br&gt;Location: 1274349 - 1273924" locus_tag="B4U39_RS06135" class="clusterblast-orf" id="dummy-6_h6_4_14"  />
</g>
<g id="a6_0015"  >
<polygon points="147,85 152,80 161,80 161,90 152,90 147,85 " style="fill:#15d8ab; stroke-width:1; stroke:black; " description="&lt;b&gt;B4U39_RS06130&lt;/b&gt;&lt;br&gt;cation/H(+) antiporter&lt;br&gt;Location: 1273853 - 1272573&lt;br&gt;&lt;br&gt;&lt;b&gt;BlastP hit with LLPMBPKK_00727&lt;/b&gt;&lt;br&gt;Percentage identity: 37&lt;br&gt;Percentage coverage: 92&lt;br&gt;BLAST bit score: 221&lt;br&gt;E-value: 1.42e-65" locus_tag="B4U39_RS06130" class="clusterblast-orf" id="dummy-6_h6_4_15"  />
</g>
<g id="a6_0016"  >
<polygon points="161,85 166,80 168,80 168,90 166,90 161,85 " style="fill:#1551d8; stroke-width:1; stroke:black; " description="&lt;b&gt;B4U39_RS06125&lt;/b&gt;&lt;br&gt;flavin reductase family protein&lt;br&gt;Location: 1272586 - 1271966&lt;br&gt;&lt;br&gt;&lt;b&gt;BlastP hit with LLPMBPKK_00716&lt;/b&gt;&lt;br&gt;Percentage identity: 43&lt;br&gt;Percentage coverage: 98&lt;br&gt;BLAST bit score: 126&lt;br&gt;E-value: 1.16e-34" locus_tag="B4U39_RS06125" class="clusterblast-orf" id="dummy-6_h6_4_16"  />
</g>
<g id="a6_0017"  >
<polygon points="169,85 174,80 187,80 187,90 174,90 169,85 " style="fill:#15d824; stroke-width:1; stroke:black; " description="&lt;b&gt;B4U39_RS06120&lt;/b&gt;&lt;br&gt;tryptophan 7-halogenase&lt;br&gt;Location: 1271881 - 1270280&lt;br&gt;&lt;br&gt;&lt;b&gt;BlastP hit with LLPMBPKK_00715&lt;/b&gt;&lt;br&gt;Percentage identity: 67&lt;br&gt;Percentage coverage: 97&lt;br&gt;BLAST bit score: 761&lt;br&gt;E-value: 2.99e-274" locus_tag="B4U39_RS06120" class="clusterblast-orf" id="dummy-6_h6_4_17"  />
</g>
<g id="a6_0018"  >
<polygon points="189,90 195,90 200,85 195,80 189,80 189,90 " style="fill:white; stroke-width:1; stroke:black; " description="&lt;b&gt;B4U39_RS06115&lt;/b&gt;&lt;br&gt;hypothetical protein&lt;br&gt;Location: 1270105 - 1269110" locus_tag="B4U39_RS06115" class="clusterblast-orf" id="dummy-6_h6_4_18"  />
</g>
<g id="a6_0019"  >
<polygon points="202,90 214,90 219,85 214,80 202,80 202,90 " style="fill:white; stroke-width:1; stroke:black; " description="&lt;b&gt;B4U39_RS06110&lt;/b&gt;&lt;br&gt;aldehyde dehydrogenase family protein&lt;br&gt;Location: 1268953 - 1267469" locus_tag="B4U39_RS06110" class="clusterblast-orf" id="dummy-6_h6_4_19"  />
</g>
<g id="a6_0020"  >
<polygon points="219,90 235,90 240,85 235,80 219,80 219,90 " style="fill:#d89c15; stroke-width:1; stroke:black; " description="&lt;b&gt;B4U39_RS06105&lt;/b&gt;&lt;br&gt;non-ribosomal peptide synthetase&lt;br&gt;Location: 1267472 - 1265565&lt;br&gt;&lt;br&gt;&lt;b&gt;BlastP hit with LLPMBPKK_00718&lt;/b&gt;&lt;br&gt;Percentage identity: 53&lt;br&gt;Percentage coverage: 99&lt;br&gt;BLAST bit score: 505&lt;br&gt;E-value: 1.2e-171" locus_tag="B4U39_RS06105" class="clusterblast-orf" id="dummy-6_h6_4_20"  />
</g>
<g id="a6_0021"  >
<polygon points="240,90 244,90 249,85 244,80 240,80 240,90 " style="fill:#15d851; stroke-width:1; stroke:black; " description="&lt;b&gt;B4U39_RS06100&lt;/b&gt;&lt;br&gt;thioesterase&lt;br&gt;Location: 1265561 - 1264782&lt;br&gt;&lt;br&gt;&lt;b&gt;BlastP hit with LLPMBPKK_00719&lt;/b&gt;&lt;br&gt;Percentage identity: 51&lt;br&gt;Percentage coverage: 98&lt;br&gt;BLAST bit score: 221&lt;br&gt;E-value: 2.03e-70" locus_tag="B4U39_RS06100" class="clusterblast-orf" id="dummy-6_h6_4_21"  />
</g>
<g id="a6_0022"  >
<polygon points="250,90 252,85 250,80 250,90 " style="fill:white; stroke-width:1; stroke:black; " description="&lt;b&gt;B4U39_RS06095&lt;/b&gt;&lt;br&gt;MbtH family protein&lt;br&gt;Location: 1264703 - 1264524" locus_tag="B4U39_RS06095" class="clusterblast-orf" id="dummy-6_h6_4_22"  />
</g>
<g id="a6_0023"  >
<polygon points="252,90 261,90 266,85 261,80 252,80 252,90 " style="fill:#1524d8; stroke-width:1; stroke:black; " description="&lt;b&gt;B4U39_RS06090&lt;/b&gt;&lt;br&gt;cytochrome P450&lt;br&gt;Location: 1264522 - 1263308&lt;br&gt;&lt;br&gt;&lt;b&gt;BlastP hit with LLPMBPKK_00720&lt;/b&gt;&lt;br&gt;Percentage identity: 62&lt;br&gt;Percentage coverage: 99&lt;br&gt;BLAST bit score: 500&lt;br&gt;E-value: 1.44e-175" locus_tag="B4U39_RS06090" class="clusterblast-orf" id="dummy-6_h6_4_23"  />
</g>
<g id="a6_0024"  >
<polygon points="266,90 305,90 310,85 305,80 266,80 266,90 " style="fill:white; stroke-width:1; stroke:black; " description="&lt;b&gt;B4U39_RS06085&lt;/b&gt;&lt;br&gt;non-ribosomal peptide synthetase&lt;br&gt;Location: 1263292 - 1259354" locus_tag="B4U39_RS06085" class="clusterblast-orf" id="dummy-6_h6_4_24"  />
</g>
<g id="a6_0025"  >
<polygon points="310,90 313,90 318,85 313,80 310,80 310,90 " style="fill:white; stroke-width:1; stroke:black; " description="&lt;b&gt;B4U39_RS06080&lt;/b&gt;&lt;br&gt;4'-phosphopantetheinyl transferase superfamily protein&lt;br&gt;Location: 1259354 - 1258695" locus_tag="B4U39_RS06080" class="clusterblast-orf" id="dummy-6_h6_4_25"  />
</g>
<g id="a6_0026"  >
<polygon points="318,90 325,90 330,85 325,80 318,80 318,90 " style="fill:white; stroke-width:1; stroke:black; " description="&lt;b&gt;B4U39_RS06075&lt;/b&gt;&lt;br&gt;winged helix DNA-binding domain-containing protein&lt;br&gt;Location: 1258682 - 1257621" locus_tag="B4U39_RS06075" class="clusterblast-orf" id="dummy-6_h6_4_26"  />
</g>
<g id="a6_0027"  >
<polygon points="331,90 340,90 345,85 340,80 331,80 331,90 " style="fill:white; stroke-width:1; stroke:black; " description="&lt;b&gt;B4U39_RS06070&lt;/b&gt;&lt;br&gt;MFS transporter&lt;br&gt;Location: 1257531 - 1256257" locus_tag="B4U39_RS06070" class="clusterblast-orf" id="dummy-6_h6_4_27"  />
</g>
<g id="a6_0028"  >
<polygon points="348,90 389,90 394,85 389,80 348,80 348,90 " style="fill:white; stroke-width:1; stroke:black; " description="&lt;b&gt;B4U39_RS06065&lt;/b&gt;&lt;br&gt;non-ribosomal peptide synthetase&lt;br&gt;Location: 1256028 - 1251892" locus_tag="B4U39_RS06065" class="clusterblast-orf" id="dummy-6_h6_4_28"  />
</g>
<g id="a6_0029"  >
<polygon points="394,90 427,90 432,85 427,80 394,80 394,90 " style="fill:white; stroke-width:1; stroke:black; " description="&lt;b&gt;B4U39_RS06060&lt;/b&gt;&lt;br&gt;non-ribosomal peptide synthetase&lt;br&gt;Location: 1251899 - 1248543" locus_tag="B4U39_RS06060" class="clusterblast-orf" id="dummy-6_h6_4_29"  />
</g>
<g id="a6_0030"  >
<polygon points="432,90 443,90 448,85 443,80 432,80 432,90 " style="fill:white; stroke-width:1; stroke:black; " description="&lt;b&gt;B4U39_RS06055&lt;/b&gt;&lt;br&gt;hypothetical protein&lt;br&gt;Location: 1248543 - 1247137" locus_tag="B4U39_RS06055" class="clusterblast-orf" id="dummy-6_h6_4_30"  />
</g>
<g id="a6_0031"  >
<polygon points="448,90 457,90 462,85 457,80 448,80 448,90 " style="fill:white; stroke-width:1; stroke:black; " description="&lt;b&gt;B4U39_RS06050&lt;/b&gt;&lt;br&gt;hypothetical protein&lt;br&gt;Location: 1247126 - 1245936" locus_tag="B4U39_RS06050" class="clusterblast-orf" id="dummy-6_h6_4_31"  />
</g>
<g id="a6_0032"  >
<polygon points="462,90 470,90 475,85 470,80 462,80 462,90 " style="fill:white; stroke-width:1; stroke:black; " description="&lt;b&gt;B4U39_RS06045&lt;/b&gt;&lt;br&gt;hypothetical protein&lt;br&gt;Location: 1245939 - 1244788" locus_tag="B4U39_RS06045" class="clusterblast-orf" id="dummy-6_h6_4_32"  />
</g>
<g id="a6_0033"  >
<polygon points="475,85 480,80 482,80 482,90 480,90 475,85 " style="fill:white; stroke-width:1; stroke:black; " description="&lt;b&gt;B4U39_RS06040&lt;/b&gt;&lt;br&gt;GNAT family N-acetyltransferase&lt;br&gt;Location: 1244722 - 1244141" locus_tag="B4U39_RS06040" class="clusterblast-orf" id="dummy-6_h6_4_33"  />
</g>
<g id="a6_0034"  >
<polygon points="482,85 487,80 494,80 494,90 487,90 482,85 " style="fill:white; stroke-width:1; stroke:black; " description="&lt;b&gt;B4U39_RS06035&lt;/b&gt;&lt;br&gt;low specificity L-threonine aldolase&lt;br&gt;Location: 1244114 - 1243044" locus_tag="B4U39_RS06035" class="clusterblast-orf" id="dummy-6_h6_4_34"  />
</g>
<g id="a6_0035"  >
<polygon points="494,85 499,80 502,80 502,90 499,90 494,85 " style="fill:white; stroke-width:1; stroke:black; " description="&lt;b&gt;B4U39_RS06030&lt;/b&gt;&lt;br&gt;DUF2461 family protein&lt;br&gt;Location: 1243047 - 1242367" locus_tag="B4U39_RS06030" class="clusterblast-orf" id="dummy-6_h6_4_35"  />
</g>
<g id="a6_0036"  >
<polygon points="502,85 507,80 518,80 518,90 507,90 502,85 " style="fill:white; stroke-width:1; stroke:black; " description="&lt;b&gt;B4U39_RS06025&lt;/b&gt;&lt;br&gt;serine hydroxymethyltransferase&lt;br&gt;Location: 1242370 - 1240970" locus_tag="B4U39_RS06025" class="clusterblast-orf" id="dummy-6_h6_4_36"  />
</g>
<g id="a6_0037"  >
<polygon points="518,85 523,80 555,80 555,90 523,90 518,85 " style="fill:white; stroke-width:1; stroke:black; " description="&lt;b&gt;B4U39_RS06020&lt;/b&gt;&lt;br&gt;non-ribosomal peptide synthetase&lt;br&gt;Location: 1240973 - 1237647" locus_tag="B4U39_RS06020" class="clusterblast-orf" id="dummy-6_h6_4_37"  />
</g>
<g id="a6_0038"  >
<polygon points="556,85 561,80 577,80 577,90 561,90 556,85 " style="fill:white; stroke-width:1; stroke:black; " description="&lt;b&gt;B4U39_RS06015&lt;/b&gt;&lt;br&gt;hypothetical protein&lt;br&gt;Location: 1237555 - 1235684" locus_tag="B4U39_RS06015" class="clusterblast-orf" id="dummy-6_h6_4_38"  />
</g>
<g id="a6_0039"  >
<polygon points="580,90 582,85 580,80 580,90 " style="fill:white; stroke-width:1; stroke:black; " description="&lt;b&gt;B4U39_RS42540&lt;/b&gt;&lt;br&gt;hypothetical protein&lt;br&gt;Location: 1235483 - 1235262" locus_tag="B4U39_RS42540" class="clusterblast-orf" id="dummy-6_h6_4_39"  />
</g>
<g id="a6_0040"  >
<polygon points="585,85 590,80 620,80 620,90 590,90 585,85 " style="fill:white; stroke-width:1; stroke:black; " description="&lt;b&gt;B4U39_RS06005&lt;/b&gt;&lt;br&gt;tetratricopeptide repeat protein&lt;br&gt;Location: 1234995 - 1231925" locus_tag="B4U39_RS06005" class="clusterblast-orf" id="dummy-6_h6_4_40"  />
</g>
<g id="a6_0041"  >
<polygon points="621,85 626,80 627,80 627,90 626,90 621,85 " style="fill:white; stroke-width:1; stroke:black; " description="&lt;b&gt;B4U39_RS06000&lt;/b&gt;&lt;br&gt;MarR family transcriptional regulator&lt;br&gt;Location: 1231785 - 1231315" locus_tag="B4U39_RS06000" class="clusterblast-orf" id="dummy-6_h6_4_41"  />
</g>
<g id="a6_0042"  >
<polygon points="631,90 643,90 648,85 643,80 631,80 631,90 " style="fill:white; stroke-width:1; stroke:black; " description="&lt;b&gt;B4U39_RS05995&lt;/b&gt;&lt;br&gt;FUSC family protein&lt;br&gt;Location: 1230923 - 1229430" locus_tag="B4U39_RS05995" class="clusterblast-orf" id="dummy-6_h6_4_42"  />
</g>
<g id="a6_0043"  >
<polygon points="648,85 653,80 674,80 674,90 653,90 648,85 " style="fill:white; stroke-width:1; stroke:black; " description="&lt;b&gt;B4U39_RS05990&lt;/b&gt;&lt;br&gt;ATP-binding domain-containing protein&lt;br&gt;Location: 1229440 - 1227143" locus_tag="B4U39_RS05990" class="clusterblast-orf" id="dummy-6_h6_4_43"  />
</g>
<g id="a6_0044"  >
<polygon points="675,90 677,90 682,85 677,80 675,80 675,90 " style="fill:white; stroke-width:1; stroke:black; " description="&lt;b&gt;B4U39_RS05985&lt;/b&gt;&lt;br&gt;GNAT family N-acetyltransferase&lt;br&gt;Location: 1227001 - 1226402" locus_tag="B4U39_RS05985" class="clusterblast-orf" id="dummy-6_h6_4_44"  />
</g>
<g id="a6_0045"  >
<polygon points="685,90 693,90 698,85 693,80 685,80 685,90 " style="fill:white; stroke-width:1; stroke:black; " description="&lt;b&gt;B4U39_RS05980&lt;/b&gt;&lt;br&gt;nitric oxide synthase oxygenase&lt;br&gt;Location: 1226150 - 1225014" locus_tag="B4U39_RS05980" class="clusterblast-orf" id="dummy-6_h6_4_45"  />
</g>
<g id="a6_0046"  >
<polygon points="698,90 705,90 710,85 705,80 698,80 698,90 " style="fill:white; stroke-width:1; stroke:black; " description="&lt;b&gt;B4U39_RS05975&lt;/b&gt;&lt;br&gt;lactonase family protein&lt;br&gt;Location: 1224959 - 1223895" locus_tag="B4U39_RS05975" class="clusterblast-orf" id="dummy-6_h6_4_46"  />
</g>
<g id="a6_0047"  >
<polygon points="712,85 717,80 722,80 722,90 717,90 712,85 " style="fill:white; stroke-width:1; stroke:black; " description="&lt;b&gt;B4U39_RS05970&lt;/b&gt;&lt;br&gt;hypothetical protein&lt;br&gt;Location: 1223779 - 1222865" locus_tag="B4U39_RS05970" class="clusterblast-orf" id="dummy-6_h6_4_47"  />
</g>
<g id="a6_0048"  >
<polygon points="723,85 728,80 731,80 731,90 728,90 723,85 " style="fill:white; stroke-width:1; stroke:black; " description="&lt;b&gt;B4U39_RS05965&lt;/b&gt;&lt;br&gt;uracil-DNA glycosylase&lt;br&gt;Location: 1222768 - 1222082" locus_tag="B4U39_RS05965" class="clusterblast-orf" id="dummy-6_h6_4_48"  />
</g>
<g id="a6_0049"  >
<polygon points="731,85 736,80 743,80 743,90 736,90 731,85 " style="fill:white; stroke-width:1; stroke:black; " description="&lt;b&gt;B4U39_RS05960&lt;/b&gt;&lt;br&gt;exo-alpha-sialidase&lt;br&gt;Location: 1222070 - 1220979" locus_tag="B4U39_RS05960" class="clusterblast-orf" id="dummy-6_h6_4_49"  />
</g>
<g id="a6_0050"  >
<polygon points="746,90 756,90 761,85 756,80 746,80 746,90 " style="fill:white; stroke-width:1; stroke:black; " description="&lt;b&gt;B4U39_RS05955&lt;/b&gt;&lt;br&gt;wax ester/triacylglycerol synthase family O-acyltransferase&lt;br&gt;Location: 1220753 - 1219431" locus_tag="B4U39_RS05955" class="clusterblast-orf" id="dummy-6_h6_4_50"  />
</g>
<g id="a6_0051"  >
<polygon points="761,90 769,90 774,85 769,80 761,80 761,90 " style="fill:white; stroke-width:1; stroke:black; " description="&lt;b&gt;B4U39_RS05950&lt;/b&gt;&lt;br&gt;NADH:flavin oxidoreductase/NADH oxidase&lt;br&gt;Location: 1219355 - 1218255" locus_tag="B4U39_RS05950" class="clusterblast-orf" id="dummy-6_h6_4_51"  />
</g>
<g id="a6_0052"  >
<polygon points="776,90 780,85 776,80 776,90 " style="fill:white; stroke-width:1; stroke:black; " description="&lt;b&gt;B4U39_RS05945&lt;/b&gt;&lt;br&gt;helix-turn-helix transcriptional regulator&lt;br&gt;Location: 1218102 - 1217755" locus_tag="B4U39_RS05945" class="clusterblast-orf" id="dummy-6_h6_4_52"  />
</g>
</svg>
