<svg xmlns="http://www.w3.org/2000/svg" xmlns:xlink="http://www.w3.org/1999/xlink" version="1.1" x="0" y="0" height="230" width="800" viewBox="0 0 800 230" preserveAspectRatio="none"  >
<g label="Query sequence" class="clusterblast-cluster"  >
<text x="5" y="20" class="clusterblast-acc"  >
Query sequence</text>
<line x1="10" y1="35" x2="778.0" y2="35" style="stroke-width:1; stroke:grey; "  />
<polygon points="275,35 280,30 280,30 280,40 280,40 275,35 " style="fill:#d81515; stroke-width:1; stroke:black; " description="&lt;b&gt;LLPMBPKK_06036&lt;/b&gt;&lt;br&gt;regulator&lt;br&gt;Location: 6961541 - 6962354" locus_tag="LLPMBPKK_06036" class="clusterblast-orf" id="dummy-24_q0_0_all"  />
<polygon points="280,35 285,30 289,30 289,40 285,40 280,35 " style="fill:#77d815; stroke-width:1; stroke:black; " description="&lt;b&gt;LLPMBPKK_06037&lt;/b&gt;&lt;br&gt;fatty acid-CoA ligase&lt;br&gt;Location: 6962369 - 6963962" locus_tag="LLPMBPKK_06037" class="clusterblast-orf" id="dummy-24_q1_0_all"  />
<polygon points="290,40 292,40 297,35 292,30 290,30 290,40 " style="fill:#15d8d8; stroke-width:1; stroke:black; " description="&lt;b&gt;LLPMBPKK_06038&lt;/b&gt;&lt;br&gt;acyl-CoA dehydrogenase&lt;br&gt;Location: 6964166 - 6965297" locus_tag="LLPMBPKK_06038" class="clusterblast-orf" id="dummy-24_q2_0_all"  />
<polygon points="297,40 299,35 297,30 297,40 " style="fill:#7715d8; stroke-width:1; stroke:black; " description="&lt;b&gt;LLPMBPKK_06039&lt;/b&gt;&lt;br&gt;RidA family protein&lt;br&gt;Location: 6965293 - 6965692" locus_tag="LLPMBPKK_06039" class="clusterblast-orf" id="dummy-24_q3_0_all"  />
<polygon points="300,40 302,35 300,30 300,40 " style="fill:#d84615; stroke-width:1; stroke:black; " description="&lt;b&gt;LLPMBPKK_06040&lt;/b&gt;&lt;br&gt;hypothetical protein&lt;br&gt;Location: 6965837 - 6966263" locus_tag="LLPMBPKK_06040" class="clusterblast-orf" id="dummy-24_q4_0_all"  />
<polygon points="302,35 307,30 307,30 307,40 307,40 302,35 " style="fill:#46d815; stroke-width:1; stroke:black; " description="&lt;b&gt;LLPMBPKK_06041&lt;/b&gt;&lt;br&gt;GntR family transcriptional regulator&lt;br&gt;Location: 6966249 - 6967074" locus_tag="LLPMBPKK_06041" class="clusterblast-orf" id="dummy-24_q5_0_all"  />
<polygon points="308,40 311,40 316,35 311,30 308,30 308,40 " style="fill:#15a7d8; stroke-width:1; stroke:black; " description="&lt;b&gt;LLPMBPKK_06042&lt;/b&gt;&lt;br&gt;extracellular solute-binding protein&lt;br&gt;Location: 6967376 - 6968654" locus_tag="LLPMBPKK_06042" class="clusterblast-orf" id="dummy-24_q6_0_all"  />
<polygon points="316,40 317,40 322,35 317,30 316,30 316,40 " style="fill:#a715d8; stroke-width:1; stroke:black; " description="&lt;b&gt;LLPMBPKK_06043&lt;/b&gt;&lt;br&gt;sugar ABC transporter permease&lt;br&gt;Location: 6968732 - 6969731" locus_tag="LLPMBPKK_06043" class="clusterblast-orf" id="dummy-24_q7_0_all"  />
<polygon points="322,40 326,35 322,30 322,40 " style="fill:#d87715; stroke-width:1; stroke:black; " description="&lt;b&gt;LLPMBPKK_06044&lt;/b&gt;&lt;br&gt;carbohydrate ABC transporter permease&lt;br&gt;Location: 6969727 - 6970558" locus_tag="LLPMBPKK_06044" class="clusterblast-orf" id="dummy-24_q8_0_all"  />
<polygon points="326,40 330,40 335,35 330,30 326,30 326,40 " style="fill:#15d815; stroke-width:1; stroke:black; " description="&lt;b&gt;LLPMBPKK_06045&lt;/b&gt;&lt;br&gt;glycoside hydrolase family 3 protein&lt;br&gt;Location: 6970554 - 6972078" locus_tag="LLPMBPKK_06045" class="clusterblast-orf" id="dummy-24_q9_0_all"  />
<polygon points="335,40 336,40 341,35 336,30 335,30 335,40 " style="fill:#1577d8; stroke-width:1; stroke:black; " description="&lt;b&gt;LLPMBPKK_06046&lt;/b&gt;&lt;br&gt;phytanoyl-CoA dioxygenase&lt;br&gt;Location: 6972182 - 6973214" locus_tag="LLPMBPKK_06046" class="clusterblast-orf" id="dummy-24_q10_0_all"  />
<polygon points="341,40 343,40 348,35 343,30 341,30 341,40 " style="fill:#d815d8; stroke-width:1; stroke:black; " description="&lt;b&gt;LLPMBPKK_06047&lt;/b&gt;&lt;br&gt;hypothetical protein&lt;br&gt;Location: 6973210 - 6974500" locus_tag="LLPMBPKK_06047" class="clusterblast-orf" id="dummy-24_q11_0_all"  />
<polygon points="348,40 350,40 355,35 350,30 348,30 348,40 " style="fill:#d8a715; stroke-width:1; stroke:black; " description="&lt;b&gt;LLPMBPKK_06048&lt;/b&gt;&lt;br&gt;lysine/ornithine decarboxylase&lt;br&gt;Location: 6974496 - 6975660" locus_tag="LLPMBPKK_06048" class="clusterblast-orf" id="dummy-24_q12_0_all"  />
<polygon points="358,40 359,40 364,35 359,30 358,30 358,40 " style="fill:#15d846; stroke-width:1; stroke:black; " description="&lt;b&gt;LLPMBPKK_06049&lt;/b&gt;&lt;br&gt;MFS transporter&lt;br&gt;Location: 6976160 - 6977330" locus_tag="LLPMBPKK_06049" class="clusterblast-orf" id="dummy-24_q13_0_all"  />
<polygon points="365,35 370,30 370,30 370,40 370,40 365,35 " style="fill:#1546d8; stroke-width:1; stroke:black; " description="&lt;b&gt;LLPMBPKK_06050&lt;/b&gt;&lt;br&gt;2,3-diaminopropionate biosynthesis protein SbnA&lt;br&gt;Location: 6977345 - 6978368" locus_tag="LLPMBPKK_06050" class="clusterblast-orf" id="dummy-24_q14_0_all"  />
<polygon points="370,35 375,30 377,30 377,40 375,40 370,35 " style="fill:#d815a7; stroke-width:1; stroke:black; " description="&lt;b&gt;LLPMBPKK_06051&lt;/b&gt;&lt;br&gt;2,3-diaminopropionate biosynthesis protein SbnB&lt;br&gt;Location: 6978404 - 6979475" locus_tag="LLPMBPKK_06051" class="clusterblast-orf" id="dummy-24_q15_0_all"  />
<polygon points="377,35 382,30 382,30 382,40 382,40 377,35 " style="fill:#d8d815; stroke-width:1; stroke:black; " description="&lt;b&gt;LLPMBPKK_06052&lt;/b&gt;&lt;br&gt;TauD/TfdA family dioxygenase&lt;br&gt;Location: 6979471 - 6980476" locus_tag="LLPMBPKK_06052" class="clusterblast-orf" id="dummy-24_q16_0_all"  />
<polygon points="382,35 387,30 401,30 401,40 387,40 382,35 " style="fill:#15d877; stroke-width:1; stroke:black; " description="&lt;b&gt;LLPMBPKK_06053&lt;/b&gt;&lt;br&gt;amino acid adenylation domain-containing protein&lt;br&gt;Location: 6980520 - 6983772" locus_tag="LLPMBPKK_06053" class="clusterblast-orf" id="dummy-24_q17_0_all"  />
<polygon points="401,35 406,30 413,30 413,40 406,40 401,35 " style="fill:#1515d8; stroke-width:1; stroke:black; " description="&lt;b&gt;LLPMBPKK_06054&lt;/b&gt;&lt;br&gt;NRPS protein&lt;br&gt;Location: 6983785 - 6985963" locus_tag="LLPMBPKK_06054" class="clusterblast-orf" id="dummy-24_q18_0_all"  />
<polygon points="416,35 421,30 422,30 422,40 421,40 416,35 " style="fill:white; stroke-width:1; stroke:black; " description="&lt;b&gt;LLPMBPKK_06055&lt;/b&gt;&lt;br&gt;dTDP-glucose 4,6-dehydratase&lt;br&gt;Location: 6986554 - 6987574" locus_tag="LLPMBPKK_06055" class="clusterblast-orf" id="dummy-24_q19_0_all"  />
<polygon points="423,35 428,30 432,30 432,40 428,40 423,35 " style="fill:#d81577; stroke-width:1; stroke:black; " description="&lt;b&gt;LLPMBPKK_06056&lt;/b&gt;&lt;br&gt;UDP-N-acetylglucosamine1-carboxyvinyltransferase&lt;br&gt;Location: 6987749 - 6989279" locus_tag="LLPMBPKK_06056" class="clusterblast-orf" id="dummy-24_q20_0_all"  />
<polygon points="433,40 437,35 433,30 433,40 " style="fill:white; stroke-width:1; stroke:black; " description="&lt;b&gt;LLPMBPKK_06057&lt;/b&gt;&lt;br&gt;hypothetical protein&lt;br&gt;Location: 6989484 - 6990201" locus_tag="LLPMBPKK_06057" class="clusterblast-orf" id="dummy-24_q21_0_all"  />
<polygon points="438,40 449,40 454,35 449,30 438,30 438,40 " style="fill:#a7d815; stroke-width:1; stroke:black; " description="&lt;b&gt;LLPMBPKK_06058&lt;/b&gt;&lt;br&gt;aconitate hydratase AcnA&lt;br&gt;Location: 6990422 - 6993140" locus_tag="LLPMBPKK_06058" class="clusterblast-orf" id="dummy-24_q22_0_all"  />
<polygon points="454,35 459,30 470,30 470,40 459,40 454,35 " style="fill:#15d8a7; stroke-width:1; stroke:black; " description="&lt;b&gt;LLPMBPKK_06059&lt;/b&gt;&lt;br&gt;GAF domain-containing protein&lt;br&gt;Location: 6993277 - 6995971" locus_tag="LLPMBPKK_06059" class="clusterblast-orf" id="dummy-24_q23_0_all"  />
<polygon points="470,35 475,30 481,30 481,40 475,40 470,35 " style="fill:#4615d8; stroke-width:1; stroke:black; " description="&lt;b&gt;LLPMBPKK_06060&lt;/b&gt;&lt;br&gt;molecular chaperone DnaK&lt;br&gt;Location: 6996080 - 6997961" locus_tag="LLPMBPKK_06060" class="clusterblast-orf" id="dummy-24_q24_0_all"  />
<polygon points="485,40 499,40 504,35 499,30 485,30 485,40 " style="fill:#d81546; stroke-width:1; stroke:black; " description="&lt;b&gt;LLPMBPKK_06061&lt;/b&gt;&lt;br&gt;glycoside hydrolase family 92 protein&lt;br&gt;Location: 6998760 - 7002030" locus_tag="LLPMBPKK_06061" class="clusterblast-orf" id="dummy-24_q25_0_all"  />
</g>
<g label="NZ_CP017248" description="NZ_CP017248 (2722891-2862053): Streptomyces fodineus strain TW1S1 chromosome,... (20% of genes show similarity), NRPS,T1PKS,butyrolactone,other" class="clusterblast-cluster"  >
<text x="5" y="70" class="clusterblast-acc"  >
<a xlink:href="https://antismash-db.secondarymetabolites.org/area.html?record=NZ_CP017248&amp;start=2722891&amp;end=2862053" target="_blank">NZ_CP017248 (2722891-2862053)</a>: Streptomyces fodineus strain TW1S1 chromosome,... (20% of genes show similarity), NRPS,T1PKS,butyrolactone,other</text>
<line x1="10" y1="85" x2="778.0" y2="85" style="stroke-width:1; stroke:grey; "  />
</g>
<g id="a24_000"  >
<polygon points="0,90 2,85 0,80 0,90 " style="fill:white; stroke-width:1; stroke:black; " description="&lt;b&gt;BFF78_RS11525&lt;/b&gt;&lt;br&gt;hypothetical protein&lt;br&gt;Location: 2862053 - 2861574" locus_tag="BFF78_RS11525" class="clusterblast-orf" id="dummy-24_h24_10_0"  />
</g>
<g id="a24_001"  >
<polygon points="2,85 7,80 7,80 7,90 7,90 2,85 " style="fill:#d81515; stroke-width:1; stroke:black; " description="&lt;b&gt;BFF78_RS11520&lt;/b&gt;&lt;br&gt;PaaX family transcriptional regulator&lt;br&gt;Location: 2861561 - 2860749&lt;br&gt;&lt;br&gt;&lt;b&gt;BlastP hit with LLPMBPKK_06036&lt;/b&gt;&lt;br&gt;Percentage identity: 92&lt;br&gt;Percentage coverage: 100&lt;br&gt;BLAST bit score: 509&lt;br&gt;E-value: 2.39e-183" locus_tag="BFF78_RS11520" class="clusterblast-orf" id="dummy-24_h24_10_1"  />
</g>
<g id="a24_002"  >
<polygon points="7,85 12,80 16,80 16,90 12,90 7,85 " style="fill:#77d815; stroke-width:1; stroke:black; " description="&lt;b&gt;BFF78_RS11515&lt;/b&gt;&lt;br&gt;AMP-binding protein&lt;br&gt;Location: 2860733 - 2859141&lt;br&gt;&lt;br&gt;&lt;b&gt;BlastP hit with LLPMBPKK_06037&lt;/b&gt;&lt;br&gt;Percentage identity: 87&lt;br&gt;Percentage coverage: 100&lt;br&gt;BLAST bit score: 957&lt;br&gt;E-value: 0.0" locus_tag="BFF78_RS11515" class="clusterblast-orf" id="dummy-24_h24_10_2"  />
</g>
<g id="a24_003"  >
<polygon points="17,90 19,90 24,85 19,80 17,80 17,90 " style="fill:#15d8d8; stroke-width:1; stroke:black; " description="&lt;b&gt;BFF78_RS11510&lt;/b&gt;&lt;br&gt;acyl-CoA dehydrogenase&lt;br&gt;Location: 2858863 - 2857730&lt;br&gt;&lt;br&gt;&lt;b&gt;BlastP hit with LLPMBPKK_06038&lt;/b&gt;&lt;br&gt;Percentage identity: 89&lt;br&gt;Percentage coverage: 100&lt;br&gt;BLAST bit score: 627&lt;br&gt;E-value: 1.44e-226" locus_tag="BFF78_RS11510" class="clusterblast-orf" id="dummy-24_h24_10_3"  />
</g>
<g id="a24_004"  >
<polygon points="24,90 26,85 24,80 24,90 " style="fill:#7715d8; stroke-width:1; stroke:black; " description="&lt;b&gt;BFF78_RS11505&lt;/b&gt;&lt;br&gt;RidA family protein&lt;br&gt;Location: 2857733 - 2857335&lt;br&gt;&lt;br&gt;&lt;b&gt;BlastP hit with LLPMBPKK_06039&lt;/b&gt;&lt;br&gt;Percentage identity: 86&lt;br&gt;Percentage coverage: 100&lt;br&gt;BLAST bit score: 233&lt;br&gt;E-value: 9.68e-79" locus_tag="BFF78_RS11505" class="clusterblast-orf" id="dummy-24_h24_10_4"  />
</g>
<g id="a24_005"  >
<polygon points="27,85 28,80 28,90 27,85 " style="fill:white; stroke-width:1; stroke:black; " description="&lt;b&gt;BFF78_RS11500&lt;/b&gt;&lt;br&gt;hypothetical protein&lt;br&gt;Location: 2857193 - 2856999" locus_tag="BFF78_RS11500" class="clusterblast-orf" id="dummy-24_h24_10_5"  />
</g>
<g id="a24_006"  >
<polygon points="29,90 32,85 29,80 29,90 " style="fill:#d84615; stroke-width:1; stroke:black; " description="&lt;b&gt;BFF78_RS11495&lt;/b&gt;&lt;br&gt;hypothetical protein&lt;br&gt;Location: 2856764 - 2856339&lt;br&gt;&lt;br&gt;&lt;b&gt;BlastP hit with LLPMBPKK_06040&lt;/b&gt;&lt;br&gt;Percentage identity: 68&lt;br&gt;Percentage coverage: 99&lt;br&gt;BLAST bit score: 187&lt;br&gt;E-value: 3.6e-60" locus_tag="BFF78_RS11495" class="clusterblast-orf" id="dummy-24_h24_10_6"  />
</g>
<g id="a24_007"  >
<polygon points="33,85 37,80 37,90 33,85 " style="fill:#46d815; stroke-width:1; stroke:black; " description="&lt;b&gt;BFF78_RS11490&lt;/b&gt;&lt;br&gt;GntR family transcriptional regulator&lt;br&gt;Location: 2856153 - 2855335&lt;br&gt;&lt;br&gt;&lt;b&gt;BlastP hit with LLPMBPKK_06041&lt;/b&gt;&lt;br&gt;Percentage identity: 89&lt;br&gt;Percentage coverage: 98&lt;br&gt;BLAST bit score: 468&lt;br&gt;E-value: 6.12e-167" locus_tag="BFF78_RS11490" class="clusterblast-orf" id="dummy-24_h24_10_7"  />
</g>
<g id="a24_008"  >
<polygon points="39,90 41,90 46,85 41,80 39,80 39,90 " style="fill:#15a7d8; stroke-width:1; stroke:black; " description="&lt;b&gt;BFF78_RS11485&lt;/b&gt;&lt;br&gt;extracellular solute-binding protein&lt;br&gt;Location: 2855010 - 2853730&lt;br&gt;&lt;br&gt;&lt;b&gt;BlastP hit with LLPMBPKK_06042&lt;/b&gt;&lt;br&gt;Percentage identity: 84&lt;br&gt;Percentage coverage: 100&lt;br&gt;BLAST bit score: 709&lt;br&gt;E-value: 3.18e-257" locus_tag="BFF78_RS11485" class="clusterblast-orf" id="dummy-24_h24_10_8"  />
</g>
<g id="a24_009"  >
<polygon points="47,90 48,90 53,85 48,80 47,80 47,90 " style="fill:#a715d8; stroke-width:1; stroke:black; " description="&lt;b&gt;BFF78_RS11480&lt;/b&gt;&lt;br&gt;sugar ABC transporter permease&lt;br&gt;Location: 2853645 - 2852647&lt;br&gt;&lt;br&gt;&lt;b&gt;BlastP hit with LLPMBPKK_06043&lt;/b&gt;&lt;br&gt;Percentage identity: 88&lt;br&gt;Percentage coverage: 100&lt;br&gt;BLAST bit score: 584&lt;br&gt;E-value: 3.83e-211" locus_tag="BFF78_RS11480" class="clusterblast-orf" id="dummy-24_h24_10_9"  />
</g>
<g id="a24_0010"  >
<polygon points="53,90 57,85 53,80 53,90 " style="fill:#d87715; stroke-width:1; stroke:black; " description="&lt;b&gt;BFF78_RS11475&lt;/b&gt;&lt;br&gt;carbohydrate ABC transporter permease&lt;br&gt;Location: 2852650 - 2851820&lt;br&gt;&lt;br&gt;&lt;b&gt;BlastP hit with LLPMBPKK_06044&lt;/b&gt;&lt;br&gt;Percentage identity: 94&lt;br&gt;Percentage coverage: 100&lt;br&gt;BLAST bit score: 508&lt;br&gt;E-value: 5.39e-183" locus_tag="BFF78_RS11475" class="clusterblast-orf" id="dummy-24_h24_10_10"  />
</g>
<g id="a24_0011"  >
<polygon points="57,90 61,90 66,85 61,80 57,80 57,90 " style="fill:#15d815; stroke-width:1; stroke:black; " description="&lt;b&gt;BFF78_RS11470&lt;/b&gt;&lt;br&gt;glycoside hydrolase family 3 protein&lt;br&gt;Location: 2851811 - 2850309&lt;br&gt;&lt;br&gt;&lt;b&gt;BlastP hit with LLPMBPKK_06045&lt;/b&gt;&lt;br&gt;Percentage identity: 88&lt;br&gt;Percentage coverage: 99&lt;br&gt;BLAST bit score: 851&lt;br&gt;E-value: 5.85e-311" locus_tag="BFF78_RS11470" class="clusterblast-orf" id="dummy-24_h24_10_11"  />
</g>
<g id="a24_0012"  >
<polygon points="66,90 67,90 72,85 67,80 66,80 66,90 " style="fill:#1577d8; stroke-width:1; stroke:black; " description="&lt;b&gt;BFF78_RS11465&lt;/b&gt;&lt;br&gt;phytanoyl-CoA dioxygenase&lt;br&gt;Location: 2850195 - 2849155&lt;br&gt;&lt;br&gt;&lt;b&gt;BlastP hit with LLPMBPKK_06046&lt;/b&gt;&lt;br&gt;Percentage identity: 87&lt;br&gt;Percentage coverage: 99&lt;br&gt;BLAST bit score: 627&lt;br&gt;E-value: 1.73e-227" locus_tag="BFF78_RS11465" class="clusterblast-orf" id="dummy-24_h24_10_12"  />
</g>
<g id="a24_0013"  >
<polygon points="72,90 74,90 79,85 74,80 72,80 72,90 " style="fill:#d815d8; stroke-width:1; stroke:black; " description="&lt;b&gt;BFF78_RS11460&lt;/b&gt;&lt;br&gt;hypothetical protein&lt;br&gt;Location: 2849158 - 2847869&lt;br&gt;&lt;br&gt;&lt;b&gt;BlastP hit with LLPMBPKK_06047&lt;/b&gt;&lt;br&gt;Percentage identity: 83&lt;br&gt;Percentage coverage: 100&lt;br&gt;BLAST bit score: 721&lt;br&gt;E-value: 5.58e-262" locus_tag="BFF78_RS11460" class="clusterblast-orf" id="dummy-24_h24_10_13"  />
</g>
<g id="a24_0014"  >
<polygon points="80,90 82,90 87,85 82,80 80,80 80,90 " style="fill:#d8a715; stroke-width:1; stroke:black; " description="&lt;b&gt;BFF78_RS11455&lt;/b&gt;&lt;br&gt;type III PLP-dependent enzyme&lt;br&gt;Location: 2847836 - 2846604&lt;br&gt;&lt;br&gt;&lt;b&gt;BlastP hit with LLPMBPKK_06048&lt;/b&gt;&lt;br&gt;Percentage identity: 85&lt;br&gt;Percentage coverage: 98&lt;br&gt;BLAST bit score: 655&lt;br&gt;E-value: 4.04e-237" locus_tag="BFF78_RS11455" class="clusterblast-orf" id="dummy-24_h24_10_14"  />
</g>
<g id="a24_0015"  >
<polygon points="87,90 89,85 87,80 87,90 " style="fill:white; stroke-width:1; stroke:black; " description="&lt;b&gt;BFF78_RS11450&lt;/b&gt;&lt;br&gt;GNAT family N-acetyltransferase&lt;br&gt;Location: 2846602 - 2846099" locus_tag="BFF78_RS11450" class="clusterblast-orf" id="dummy-24_h24_10_15"  />
</g>
<g id="a24_0016"  >
<polygon points="89,90 91,90 96,85 91,80 89,80 89,90 " style="fill:#15d846; stroke-width:1; stroke:black; " description="&lt;b&gt;BFF78_RS11445&lt;/b&gt;&lt;br&gt;MFS transporter&lt;br&gt;Location: 2846099 - 2844936&lt;br&gt;&lt;br&gt;&lt;b&gt;BlastP hit with LLPMBPKK_06049&lt;/b&gt;&lt;br&gt;Percentage identity: 83&lt;br&gt;Percentage coverage: 100&lt;br&gt;BLAST bit score: 572&lt;br&gt;E-value: 1.43e-204" locus_tag="BFF78_RS11445" class="clusterblast-orf" id="dummy-24_h24_10_16"  />
</g>
<g id="a24_0017"  >
<polygon points="96,85 100,80 100,90 96,85 " style="fill:white; stroke-width:1; stroke:black; " description="&lt;b&gt;BFF78_RS11440&lt;/b&gt;&lt;br&gt;TetR/AcrR family transcriptional regulator&lt;br&gt;Location: 2844917 - 2844288" locus_tag="BFF78_RS11440" class="clusterblast-orf" id="dummy-24_h24_10_17"  />
</g>
<g id="a24_0018"  >
<polygon points="101,85 106,80 123,80 123,90 106,90 101,85 " style="fill:white; stroke-width:1; stroke:black; " description="&lt;b&gt;BFF78_RS11435&lt;/b&gt;&lt;br&gt;type I polyketide synthase&lt;br&gt;Location: 2844141 - 2840113" locus_tag="BFF78_RS11435" class="clusterblast-orf" id="dummy-24_h24_10_18"  />
</g>
<g id="a24_0019"  >
<polygon points="125,90 126,90 131,85 126,80 125,80 125,90 " style="fill:white; stroke-width:1; stroke:black; " description="&lt;b&gt;BFF78_RS11430&lt;/b&gt;&lt;br&gt;hypothetical protein&lt;br&gt;Location: 2839876 - 2838704" locus_tag="BFF78_RS11430" class="clusterblast-orf" id="dummy-24_h24_10_19"  />
</g>
<g id="a24_0020"  >
<polygon points="132,90 132,90 137,85 132,80 132,80 132,90 " style="fill:white; stroke-width:1; stroke:black; " description="&lt;b&gt;BFF78_RS11425&lt;/b&gt;&lt;br&gt;zinc-binding dehydrogenase&lt;br&gt;Location: 2838578 - 2837739" locus_tag="BFF78_RS11425" class="clusterblast-orf" id="dummy-24_h24_10_20"  />
</g>
<g id="a24_0021"  >
<polygon points="137,85 142,80 146,80 146,90 142,90 137,85 " style="fill:white; stroke-width:1; stroke:black; " description="&lt;b&gt;BFF78_RS11420&lt;/b&gt;&lt;br&gt;NAD(P)-binding protein&lt;br&gt;Location: 2837664 - 2836081" locus_tag="BFF78_RS11420" class="clusterblast-orf" id="dummy-24_h24_10_21"  />
</g>
<g id="a24_0022"  >
<polygon points="147,90 150,90 155,85 150,80 147,80 147,90 " style="fill:white; stroke-width:1; stroke:black; " description="&lt;b&gt;BFF78_RS11415&lt;/b&gt;&lt;br&gt;MFS transporter&lt;br&gt;Location: 2835863 - 2834406" locus_tag="BFF78_RS11415" class="clusterblast-orf" id="dummy-24_h24_10_22"  />
</g>
<g id="a24_0023"  >
<polygon points="156,90 157,90 162,85 157,80 156,80 156,90 " style="fill:white; stroke-width:1; stroke:black; " description="&lt;b&gt;BFF78_RS11410&lt;/b&gt;&lt;br&gt;aldo/keto reductase&lt;br&gt;Location: 2834253 - 2833186" locus_tag="BFF78_RS11410" class="clusterblast-orf" id="dummy-24_h24_10_23"  />
</g>
<g id="a24_0024"  >
<polygon points="163,90 164,90 169,85 164,80 163,80 163,90 " style="fill:white; stroke-width:1; stroke:black; " description="&lt;b&gt;BFF78_RS11405&lt;/b&gt;&lt;br&gt;hypothetical protein&lt;br&gt;Location: 2833022 - 2831946" locus_tag="BFF78_RS11405" class="clusterblast-orf" id="dummy-24_h24_10_24"  />
</g>
<g id="a24_0025"  >
<polygon points="170,90 173,85 170,80 170,90 " style="fill:white; stroke-width:1; stroke:black; " description="&lt;b&gt;BFF78_RS11400&lt;/b&gt;&lt;br&gt;HAD-IB family hydrolase&lt;br&gt;Location: 2831844 - 2831227" locus_tag="BFF78_RS11400" class="clusterblast-orf" id="dummy-24_h24_10_25"  />
</g>
<g id="a24_0026"  >
<polygon points="174,90 175,90 180,85 175,80 174,80 174,90 " style="fill:white; stroke-width:1; stroke:black; " description="&lt;b&gt;BFF78_RS11395&lt;/b&gt;&lt;br&gt;ketoacyl-ACP synthase III&lt;br&gt;Location: 2831141 - 2830107" locus_tag="BFF78_RS11395" class="clusterblast-orf" id="dummy-24_h24_10_26"  />
</g>
<g id="a24_0027"  >
<polygon points="181,85 183,80 183,90 181,85 " style="fill:white; stroke-width:1; stroke:black; " description="&lt;b&gt;BFF78_RS11390&lt;/b&gt;&lt;br&gt;antibiotic biosynthesis monooxygenase&lt;br&gt;Location: 2829814 - 2829509" locus_tag="BFF78_RS11390" class="clusterblast-orf" id="dummy-24_h24_10_27"  />
</g>
<g id="a24_0028"  >
<polygon points="184,85 186,80 186,90 184,85 " style="fill:white; stroke-width:1; stroke:black; " description="&lt;b&gt;BFF78_RS11385&lt;/b&gt;&lt;br&gt;MarR family transcriptional regulator&lt;br&gt;Location: 2829380 - 2828913" locus_tag="BFF78_RS11385" class="clusterblast-orf" id="dummy-24_h24_10_28"  />
</g>
<g id="a24_0029"  >
<polygon points="187,85 188,80 188,90 187,85 " style="fill:white; stroke-width:1; stroke:black; " description="&lt;b&gt;BFF78_RS44690&lt;/b&gt;&lt;br&gt;hypothetical protein&lt;br&gt;Location: 2828884 - 2828591" locus_tag="BFF78_RS44690" class="clusterblast-orf" id="dummy-24_h24_10_29"  />
</g>
<g id="a24_0030"  >
<polygon points="189,85 194,80 195,80 195,90 194,90 189,85 " style="fill:white; stroke-width:1; stroke:black; " description="&lt;b&gt;BFF78_RS11375&lt;/b&gt;&lt;br&gt;aldo/keto reductase&lt;br&gt;Location: 2828428 - 2827394" locus_tag="BFF78_RS11375" class="clusterblast-orf" id="dummy-24_h24_10_30"  />
</g>
<g id="a24_0031"  >
<polygon points="196,90 196,90 201,85 196,80 196,80 196,90 " style="fill:white; stroke-width:1; stroke:black; " description="&lt;b&gt;BFF78_RS11370&lt;/b&gt;&lt;br&gt;helix-turn-helix domain-containing protein&lt;br&gt;Location: 2827189 - 2826395" locus_tag="BFF78_RS11370" class="clusterblast-orf" id="dummy-24_h24_10_31"  />
</g>
<g id="a24_0032"  >
<polygon points="201,85 202,80 202,90 201,85 " style="fill:white; stroke-width:1; stroke:black; " description="&lt;b&gt;BFF78_RS46815&lt;/b&gt;&lt;br&gt;hypothetical protein&lt;br&gt;Location: 2826344 - 2826168" locus_tag="BFF78_RS46815" class="clusterblast-orf" id="dummy-24_h24_10_32"  />
</g>
<g id="a24_0033"  >
<polygon points="204,90 205,90 210,85 205,80 204,80 204,90 " style="fill:white; stroke-width:1; stroke:black; " description="&lt;b&gt;BFF78_RS11365&lt;/b&gt;&lt;br&gt;gluconolaconase&lt;br&gt;Location: 2825808 - 2824750" locus_tag="BFF78_RS11365" class="clusterblast-orf" id="dummy-24_h24_10_33"  />
</g>
<g id="a24_0034"  >
<polygon points="210,90 211,90 216,85 211,80 210,80 210,90 " style="fill:white; stroke-width:1; stroke:black; " description="&lt;b&gt;BFF78_RS11360&lt;/b&gt;&lt;br&gt;hypothetical protein&lt;br&gt;Location: 2824741 - 2823608" locus_tag="BFF78_RS11360" class="clusterblast-orf" id="dummy-24_h24_10_34"  />
</g>
<g id="a24_0035"  >
<polygon points="217,85 220,80 220,90 217,85 " style="fill:white; stroke-width:1; stroke:black; " description="&lt;b&gt;BFF78_RS11355&lt;/b&gt;&lt;br&gt;hypothetical protein&lt;br&gt;Location: 2823529 - 2822987" locus_tag="BFF78_RS11355" class="clusterblast-orf" id="dummy-24_h24_10_35"  />
</g>
<g id="a24_0036"  >
<polygon points="221,85 226,80 227,80 227,90 226,90 221,85 " style="fill:white; stroke-width:1; stroke:black; " description="&lt;b&gt;BFF78_RS11350&lt;/b&gt;&lt;br&gt;lytic transglycosylase domain-containing protein&lt;br&gt;Location: 2822740 - 2821779" locus_tag="BFF78_RS11350" class="clusterblast-orf" id="dummy-24_h24_10_36"  />
</g>
<g id="a24_0037"  >
<polygon points="229,90 233,85 229,80 229,90 " style="fill:white; stroke-width:1; stroke:black; " description="&lt;b&gt;BFF78_RS11345&lt;/b&gt;&lt;br&gt;DUF1707 domain-containing protein&lt;br&gt;Location: 2821343 - 2820675" locus_tag="BFF78_RS11345" class="clusterblast-orf" id="dummy-24_h24_10_37"  />
</g>
<g id="a24_0038"  >
<polygon points="233,85 237,80 237,90 233,85 " style="fill:white; stroke-width:1; stroke:black; " description="&lt;b&gt;BFF78_RS11340&lt;/b&gt;&lt;br&gt;hypothetical protein&lt;br&gt;Location: 2820669 - 2819932" locus_tag="BFF78_RS11340" class="clusterblast-orf" id="dummy-24_h24_10_38"  />
</g>
<g id="a24_0039"  >
<polygon points="239,90 240,85 239,80 239,90 " style="fill:white; stroke-width:1; stroke:black; " description="&lt;b&gt;BFF78_RS11335&lt;/b&gt;&lt;br&gt;MbtH family protein&lt;br&gt;Location: 2819569 - 2819354" locus_tag="BFF78_RS11335" class="clusterblast-orf" id="dummy-24_h24_10_39"  />
</g>
<g id="a24_0040"  >
<polygon points="241,90 245,90 250,85 245,80 241,80 241,90 " style="fill:white; stroke-width:1; stroke:black; " description="&lt;b&gt;BFF78_RS11330&lt;/b&gt;&lt;br&gt;amino acid adenylation domain-containing protein&lt;br&gt;Location: 2819198 - 2817612" locus_tag="BFF78_RS11330" class="clusterblast-orf" id="dummy-24_h24_10_40"  />
</g>
<g id="a24_0041"  >
<polygon points="250,90 252,85 250,80 250,90 " style="fill:white; stroke-width:1; stroke:black; " description="&lt;b&gt;BFF78_RS11325&lt;/b&gt;&lt;br&gt;phosphopantetheine-binding protein&lt;br&gt;Location: 2817577 - 2817347" locus_tag="BFF78_RS11325" class="clusterblast-orf" id="dummy-24_h24_10_41"  />
</g>
<g id="a24_0042"  >
<polygon points="252,90 253,90 258,85 253,80 252,80 252,90 " style="fill:white; stroke-width:1; stroke:black; " description="&lt;b&gt;BFF78_RS11320&lt;/b&gt;&lt;br&gt;NAD(P)/FAD-dependent oxidoreductase&lt;br&gt;Location: 2817334 - 2816147" locus_tag="BFF78_RS11320" class="clusterblast-orf" id="dummy-24_h24_10_42"  />
</g>
<g id="a24_0043"  >
<polygon points="259,90 302,90 307,85 302,80 259,80 259,90 " style="fill:white; stroke-width:1; stroke:black; " description="&lt;b&gt;BFF78_RS11315&lt;/b&gt;&lt;br&gt;non-ribosomal peptide synthetase&lt;br&gt;Location: 2816101 - 2807441" locus_tag="BFF78_RS11315" class="clusterblast-orf" id="dummy-24_h24_10_43"  />
</g>
<g id="a24_0044"  >
<polygon points="308,90 346,90 351,85 346,80 308,80 308,90 " style="fill:white; stroke-width:1; stroke:black; " description="&lt;b&gt;BFF78_RS11310&lt;/b&gt;&lt;br&gt;non-ribosomal peptide synthetase&lt;br&gt;Location: 2807435 - 2799657" locus_tag="BFF78_RS11310" class="clusterblast-orf" id="dummy-24_h24_10_44"  />
</g>
<g id="a24_0045"  >
<polygon points="351,90 374,90 379,85 374,80 351,80 351,90 " style="fill:white; stroke-width:1; stroke:black; " description="&lt;b&gt;BFF78_RS11305&lt;/b&gt;&lt;br&gt;non-ribosomal peptide synthetase&lt;br&gt;Location: 2799660 - 2794687" locus_tag="BFF78_RS11305" class="clusterblast-orf" id="dummy-24_h24_10_45"  />
</g>
<g id="a24_0046"  >
<polygon points="379,90 383,85 379,80 379,90 " style="fill:white; stroke-width:1; stroke:black; " description="&lt;b&gt;BFF78_RS11300&lt;/b&gt;&lt;br&gt;thioesterase&lt;br&gt;Location: 2794690 - 2793971" locus_tag="BFF78_RS11300" class="clusterblast-orf" id="dummy-24_h24_10_46"  />
</g>
<g id="a24_0047"  >
<polygon points="384,90 386,90 391,85 386,80 384,80 384,90 " style="fill:white; stroke-width:1; stroke:black; " description="&lt;b&gt;BFF78_RS11295&lt;/b&gt;&lt;br&gt;cytochrome P450&lt;br&gt;Location: 2793935 - 2792652" locus_tag="BFF78_RS11295" class="clusterblast-orf" id="dummy-24_h24_10_47"  />
</g>
<g id="a24_0048"  >
<polygon points="392,85 397,80 397,80 397,90 397,90 392,85 " style="fill:white; stroke-width:1; stroke:black; " description="&lt;b&gt;BFF78_RS11290&lt;/b&gt;&lt;br&gt;phytanoyl-CoA dioxygenase family protein&lt;br&gt;Location: 2792534 - 2791608" locus_tag="BFF78_RS11290" class="clusterblast-orf" id="dummy-24_h24_10_48"  />
</g>
<g id="a24_0049"  >
<polygon points="397,85 402,80 402,80 402,90 402,90 397,85 " style="fill:white; stroke-width:1; stroke:black; " description="&lt;b&gt;BFF78_RS11285&lt;/b&gt;&lt;br&gt;putative nonproteinogenic amino acid hydroxylase&lt;br&gt;Location: 2791545 - 2790709" locus_tag="BFF78_RS11285" class="clusterblast-orf" id="dummy-24_h24_10_49"  />
</g>
<g id="a24_0050"  >
<polygon points="404,90 406,85 404,80 404,90 " style="fill:white; stroke-width:1; stroke:black; " description="&lt;b&gt;BFF78_RS11280&lt;/b&gt;&lt;br&gt;phosphopantetheine-binding protein&lt;br&gt;Location: 2790310 - 2789999" locus_tag="BFF78_RS11280" class="clusterblast-orf" id="dummy-24_h24_10_50"  />
</g>
<g id="a24_0051"  >
<polygon points="406,90 408,90 413,85 408,80 406,80 406,90 " style="fill:white; stroke-width:1; stroke:black; " description="&lt;b&gt;BFF78_RS11275&lt;/b&gt;&lt;br&gt;cytochrome P450&lt;br&gt;Location: 2790002 - 2788752" locus_tag="BFF78_RS11275" class="clusterblast-orf" id="dummy-24_h24_10_51"  />
</g>
<g id="a24_0052"  >
<polygon points="413,90 417,85 413,80 413,90 " style="fill:white; stroke-width:1; stroke:black; " description="&lt;b&gt;BFF78_RS11270&lt;/b&gt;&lt;br&gt;thioesterase&lt;br&gt;Location: 2788755 - 2788018" locus_tag="BFF78_RS11270" class="clusterblast-orf" id="dummy-24_h24_10_52"  />
</g>
<g id="a24_0053"  >
<polygon points="417,90 430,90 435,85 430,80 417,80 417,90 " style="fill:white; stroke-width:1; stroke:black; " description="&lt;b&gt;BFF78_RS11265&lt;/b&gt;&lt;br&gt;type I polyketide synthase&lt;br&gt;Location: 2787965 - 2784870" locus_tag="BFF78_RS11265" class="clusterblast-orf" id="dummy-24_h24_10_53"  />
</g>
<g id="a24_0054"  >
<polygon points="435,90 461,90 466,85 461,80 435,80 435,90 " style="fill:white; stroke-width:1; stroke:black; " description="&lt;b&gt;BFF78_RS11260&lt;/b&gt;&lt;br&gt;type I polyketide synthase&lt;br&gt;Location: 2784832 - 2779241" locus_tag="BFF78_RS11260" class="clusterblast-orf" id="dummy-24_h24_10_54"  />
</g>
<g id="a24_0055"  >
<polygon points="466,90 498,90 503,85 498,80 466,80 466,90 " style="fill:white; stroke-width:1; stroke:black; " description="&lt;b&gt;BFF78_RS11255&lt;/b&gt;&lt;br&gt;type I polyketide synthase&lt;br&gt;Location: 2779244 - 2772714" locus_tag="BFF78_RS11255" class="clusterblast-orf" id="dummy-24_h24_10_55"  />
</g>
<g id="a24_0056"  >
<polygon points="503,90 516,90 521,85 516,80 503,80 503,90 " style="fill:white; stroke-width:1; stroke:black; " description="&lt;b&gt;BFF78_RS11250&lt;/b&gt;&lt;br&gt;type I polyketide synthase&lt;br&gt;Location: 2772712 - 2769596" locus_tag="BFF78_RS11250" class="clusterblast-orf" id="dummy-24_h24_10_56"  />
</g>
<g id="a24_0057"  >
<polygon points="522,90 535,90 540,85 535,80 522,80 522,90 " style="fill:white; stroke-width:1; stroke:black; " description="&lt;b&gt;BFF78_RS11245&lt;/b&gt;&lt;br&gt;non-ribosomal peptide synthetase&lt;br&gt;Location: 2769414 - 2766178" locus_tag="BFF78_RS11245" class="clusterblast-orf" id="dummy-24_h24_10_57"  />
</g>
<g id="a24_0058"  >
<polygon points="541,90 545,85 541,80 541,90 " style="fill:white; stroke-width:1; stroke:black; " description="&lt;b&gt;BFF78_RS11240&lt;/b&gt;&lt;br&gt;AfsR/SARP family transcriptional regulator&lt;br&gt;Location: 2766049 - 2765270" locus_tag="BFF78_RS11240" class="clusterblast-orf" id="dummy-24_h24_10_58"  />
</g>
<g id="a24_0059"  >
<polygon points="546,90 548,90 553,85 548,80 546,80 546,90 " style="fill:white; stroke-width:1; stroke:black; " description="&lt;b&gt;BFF78_RS11235&lt;/b&gt;&lt;br&gt;activator-dependent family glycosyltransferase&lt;br&gt;Location: 2765175 - 2763859" locus_tag="BFF78_RS11235" class="clusterblast-orf" id="dummy-24_h24_10_59"  />
</g>
<g id="a24_0060"  >
<polygon points="554,90 554,90 559,85 554,80 554,80 554,90 " style="fill:white; stroke-width:1; stroke:black; " description="&lt;b&gt;BFF78_RS11230&lt;/b&gt;&lt;br&gt;putative sugar O-methyltransferase&lt;br&gt;Location: 2763755 - 2762823" locus_tag="BFF78_RS11230" class="clusterblast-orf" id="dummy-24_h24_10_60"  />
</g>
<g id="a24_0061"  >
<polygon points="559,90 559,90 564,85 559,80 559,80 559,90 " style="fill:white; stroke-width:1; stroke:black; " description="&lt;b&gt;BFF78_RS11225&lt;/b&gt;&lt;br&gt;NAD(P)-dependent oxidoreductase&lt;br&gt;Location: 2762826 - 2761891" locus_tag="BFF78_RS11225" class="clusterblast-orf" id="dummy-24_h24_10_61"  />
</g>
<g id="a24_0062"  >
<polygon points="565,85 570,80 570,80 570,90 570,90 565,85 " style="fill:white; stroke-width:1; stroke:black; " description="&lt;b&gt;BFF78_RS11220&lt;/b&gt;&lt;br&gt;glucose-1-phosphate thymidylyltransferase RfbA&lt;br&gt;Location: 2761768 - 2760860" locus_tag="BFF78_RS11220" class="clusterblast-orf" id="dummy-24_h24_10_62"  />
</g>
<g id="a24_0063"  >
<polygon points="571,90 572,90 577,85 572,80 571,80 571,90 " style="fill:white; stroke-width:1; stroke:black; " description="&lt;b&gt;BFF78_RS11215&lt;/b&gt;&lt;br&gt;hypothetical protein&lt;br&gt;Location: 2760630 - 2759671" locus_tag="BFF78_RS11215" class="clusterblast-orf" id="dummy-24_h24_10_63"  />
</g>
<g id="a24_0064"  >
<polygon points="577,90 580,85 577,80 577,90 " style="fill:white; stroke-width:1; stroke:black; " description="&lt;b&gt;BFF78_RS11210&lt;/b&gt;&lt;br&gt;dTDP-4-dehydrorhamnose 3,5-epimerase family protein&lt;br&gt;Location: 2759661 - 2759065" locus_tag="BFF78_RS11210" class="clusterblast-orf" id="dummy-24_h24_10_64"  />
</g>
<g id="a24_0065"  >
<polygon points="582,90 585,85 582,80 582,90 " style="fill:white; stroke-width:1; stroke:black; " description="&lt;b&gt;BFF78_RS11205&lt;/b&gt;&lt;br&gt;toxin-antitoxin system HicB family antitoxin&lt;br&gt;Location: 2758819 - 2758292" locus_tag="BFF78_RS11205" class="clusterblast-orf" id="dummy-24_h24_10_65"  />
</g>
<g id="a24_0066"  >
<polygon points="586,90 586,90 591,85 586,80 586,80 586,90 " style="fill:white; stroke-width:1; stroke:black; " description="&lt;b&gt;BFF78_RS11200&lt;/b&gt;&lt;br&gt;DUF4097 family beta strand repeat protein&lt;br&gt;Location: 2758066 - 2757173" locus_tag="BFF78_RS11200" class="clusterblast-orf" id="dummy-24_h24_10_66"  />
</g>
<g id="a24_0067"  >
<polygon points="591,90 592,90 597,85 592,80 591,80 591,90 " style="fill:white; stroke-width:1; stroke:black; " description="&lt;b&gt;BFF78_RS11195&lt;/b&gt;&lt;br&gt;ATP-binding cassette domain-containing protein&lt;br&gt;Location: 2757134 - 2756145" locus_tag="BFF78_RS11195" class="clusterblast-orf" id="dummy-24_h24_10_67"  />
</g>
<g id="a24_0068"  >
<polygon points="597,90 601,85 597,80 597,90 " style="fill:white; stroke-width:1; stroke:black; " description="&lt;b&gt;BFF78_RS11190&lt;/b&gt;&lt;br&gt;ABC transporter permease&lt;br&gt;Location: 2756148 - 2755357" locus_tag="BFF78_RS11190" class="clusterblast-orf" id="dummy-24_h24_10_68"  />
</g>
<g id="a24_0069"  >
<polygon points="603,85 608,80 609,80 609,90 608,90 603,85 " style="fill:white; stroke-width:1; stroke:black; " description="&lt;b&gt;BFF78_RS11185&lt;/b&gt;&lt;br&gt;aldo/keto reductase&lt;br&gt;Location: 2755018 - 2754008" locus_tag="BFF78_RS11185" class="clusterblast-orf" id="dummy-24_h24_10_69"  />
</g>
<g id="a24_0070"  >
<polygon points="609,85 614,80 617,80 617,90 614,90 609,85 " style="fill:white; stroke-width:1; stroke:black; " description="&lt;b&gt;BFF78_RS11180&lt;/b&gt;&lt;br&gt;hypothetical protein&lt;br&gt;Location: 2754011 - 2752575" locus_tag="BFF78_RS11180" class="clusterblast-orf" id="dummy-24_h24_10_70"  />
</g>
<g id="a24_0071"  >
<polygon points="616,90 617,90 622,85 617,80 616,80 616,90 " style="fill:white; stroke-width:1; stroke:black; " description="&lt;b&gt;BFF78_RS11175&lt;/b&gt;&lt;br&gt;4'-phosphopantetheinyl transferase superfamily protein&lt;br&gt;Location: 2752686 - 2751715" locus_tag="BFF78_RS11175" class="clusterblast-orf" id="dummy-24_h24_10_71"  />
</g>
<g id="a24_0072"  >
<polygon points="623,90 625,90 630,85 625,80 623,80 623,90 " style="fill:white; stroke-width:1; stroke:black; " description="&lt;b&gt;BFF78_RS11170&lt;/b&gt;&lt;br&gt;lysine N(6)-hydroxylase/L-ornithine N(5)-oxygenase family protein&lt;br&gt;Location: 2751507 - 2750161" locus_tag="BFF78_RS11170" class="clusterblast-orf" id="dummy-24_h24_10_72"  />
</g>
<g id="a24_0073"  >
<polygon points="631,90 635,85 631,80 631,90 " style="fill:white; stroke-width:1; stroke:black; " description="&lt;b&gt;BFF78_RS11165&lt;/b&gt;&lt;br&gt;thioesterase&lt;br&gt;Location: 2750076 - 2749306" locus_tag="BFF78_RS11165" class="clusterblast-orf" id="dummy-24_h24_10_73"  />
</g>
<g id="a24_0074"  >
<polygon points="636,90 640,90 645,85 640,80 636,80 636,90 " style="fill:white; stroke-width:1; stroke:black; " description="&lt;b&gt;BFF78_RS11160&lt;/b&gt;&lt;br&gt;AMP-binding protein&lt;br&gt;Location: 2749179 - 2747560" locus_tag="BFF78_RS11160" class="clusterblast-orf" id="dummy-24_h24_10_74"  />
</g>
<g id="a24_0075"  >
<polygon points="646,90 647,85 646,80 646,90 " style="fill:white; stroke-width:1; stroke:black; " description="&lt;b&gt;BFF78_RS11155&lt;/b&gt;&lt;br&gt;hypothetical protein&lt;br&gt;Location: 2747453 - 2747193" locus_tag="BFF78_RS11155" class="clusterblast-orf" id="dummy-24_h24_10_75"  />
</g>
<g id="a24_0076"  >
<polygon points="648,90 654,90 659,85 654,80 648,80 648,90 " style="fill:white; stroke-width:1; stroke:black; " description="&lt;b&gt;BFF78_RS11150&lt;/b&gt;&lt;br&gt;radical SAM protein&lt;br&gt;Location: 2747095 - 2745101" locus_tag="BFF78_RS11150" class="clusterblast-orf" id="dummy-24_h24_10_76"  />
</g>
<g id="a24_0077"  >
<polygon points="659,90 663,85 659,80 659,90 " style="fill:white; stroke-width:1; stroke:black; " description="&lt;b&gt;BFF78_RS11145&lt;/b&gt;&lt;br&gt;dTDP-6-deoxy-L-hexose 3-O-methyltransferase&lt;br&gt;Location: 2745104 - 2744331" locus_tag="BFF78_RS11145" class="clusterblast-orf" id="dummy-24_h24_10_77"  />
</g>
<g id="a24_0078"  >
<polygon points="664,90 667,85 664,80 664,90 " style="fill:white; stroke-width:1; stroke:black; " description="&lt;b&gt;BFF78_RS11140&lt;/b&gt;&lt;br&gt;FMN-binding negative transcriptional regulator&lt;br&gt;Location: 2744274 - 2743630" locus_tag="BFF78_RS11140" class="clusterblast-orf" id="dummy-24_h24_10_78"  />
</g>
<g id="a24_0079"  >
<polygon points="668,85 671,80 671,90 668,85 " style="fill:white; stroke-width:1; stroke:black; " description="&lt;b&gt;BFF78_RS11135&lt;/b&gt;&lt;br&gt;LmbU family transcriptional regulator&lt;br&gt;Location: 2743575 - 2742892" locus_tag="BFF78_RS11135" class="clusterblast-orf" id="dummy-24_h24_10_79"  />
</g>
<g id="a24_0080"  >
<polygon points="675,90 676,90 681,85 676,80 675,80 675,90 " style="fill:white; stroke-width:1; stroke:black; " description="&lt;b&gt;BFF78_RS11130&lt;/b&gt;&lt;br&gt;transposase&lt;br&gt;Location: 2742265 - 2741177" locus_tag="BFF78_RS11130" class="clusterblast-orf" id="dummy-24_h24_10_80"  />
</g>
<g id="a24_0081"  >
<polygon points="681,85 686,80 688,80 688,90 686,90 681,85 " style="fill:white; stroke-width:1; stroke:black; " description="&lt;b&gt;BFF78_RS11125&lt;/b&gt;&lt;br&gt;aminotransferase class I/II-fold pyridoxal phosphate-dependent enzyme&lt;br&gt;Location: 2741155 - 2739902" locus_tag="BFF78_RS11125" class="clusterblast-orf" id="dummy-24_h24_10_81"  />
</g>
<g id="a24_0082"  >
<polygon points="690,85 695,80 699,80 699,90 695,90 690,85 " style="fill:white; stroke-width:1; stroke:black; " description="&lt;b&gt;BFF78_RS11120&lt;/b&gt;&lt;br&gt;hypothetical protein&lt;br&gt;Location: 2739562 - 2738034" locus_tag="BFF78_RS11120" class="clusterblast-orf" id="dummy-24_h24_10_82"  />
</g>
<g id="a24_0083"  >
<polygon points="701,90 704,90 709,85 704,80 701,80 701,90 " style="fill:white; stroke-width:1; stroke:black; " description="&lt;b&gt;BFF78_RS11115&lt;/b&gt;&lt;br&gt;crotonyl-CoA carboxylase/reductase&lt;br&gt;Location: 2737631 - 2736291" locus_tag="BFF78_RS11115" class="clusterblast-orf" id="dummy-24_h24_10_83"  />
</g>
<g id="a24_0084"  >
<polygon points="710,85 715,80 718,80 718,90 715,90 710,85 " style="fill:#d81577; stroke-width:1; stroke:black; " description="&lt;b&gt;BFF78_RS11110&lt;/b&gt;&lt;br&gt;UDP-N-acetylglucosamine 1-carboxyvinyltransferase&lt;br&gt;Location: 2736109 - 2734580&lt;br&gt;&lt;br&gt;&lt;b&gt;BlastP hit with LLPMBPKK_06056&lt;/b&gt;&lt;br&gt;Percentage identity: 98&lt;br&gt;Percentage coverage: 100&lt;br&gt;BLAST bit score: 982&lt;br&gt;E-value: 0.0" locus_tag="BFF78_RS11110" class="clusterblast-orf" id="dummy-24_h24_10_84"  />
</g>
<g id="a24_0085"  >
<polygon points="721,90 731,90 736,85 731,80 721,80 721,90 " style="fill:#a7d815; stroke-width:1; stroke:black; " description="&lt;b&gt;BFF78_RS11105&lt;/b&gt;&lt;br&gt;aconitate hydratase AcnA&lt;br&gt;Location: 2734196 - 2731479&lt;br&gt;&lt;br&gt;&lt;b&gt;BlastP hit with LLPMBPKK_06058&lt;/b&gt;&lt;br&gt;Percentage identity: 95&lt;br&gt;Percentage coverage: 100&lt;br&gt;BLAST bit score: 1713&lt;br&gt;E-value: 0.0" locus_tag="BFF78_RS11105" class="clusterblast-orf" id="dummy-24_h24_10_85"  />
</g>
<g id="a24_0086"  >
<polygon points="741,90 743,85 741,80 741,90 " style="fill:white; stroke-width:1; stroke:black; " description="&lt;b&gt;BFF78_RS11100&lt;/b&gt;&lt;br&gt;hypothetical protein&lt;br&gt;Location: 2730570 - 2730259" locus_tag="BFF78_RS11100" class="clusterblast-orf" id="dummy-24_h24_10_86"  />
</g>
<g id="a24_0087"  >
<polygon points="743,85 748,80 758,80 758,90 748,90 743,85 " style="fill:#15d8a7; stroke-width:1; stroke:black; " description="&lt;b&gt;BFF78_RS11095&lt;/b&gt;&lt;br&gt;SpoIIE family protein phosphatase&lt;br&gt;Location: 2730230 - 2727528&lt;br&gt;&lt;br&gt;&lt;b&gt;BlastP hit with LLPMBPKK_06059&lt;/b&gt;&lt;br&gt;Percentage identity: 85&lt;br&gt;Percentage coverage: 99&lt;br&gt;BLAST bit score: 1496&lt;br&gt;E-value: 0.0" locus_tag="BFF78_RS11095" class="clusterblast-orf" id="dummy-24_h24_10_87"  />
</g>
<g id="a24_0088"  >
<polygon points="761,90 775,90 780,85 775,80 761,80 761,90 " style="fill:#d81546; stroke-width:1; stroke:black; " description="&lt;b&gt;BFF78_RS11090&lt;/b&gt;&lt;br&gt;glycoside hydrolase family 92 protein&lt;br&gt;Location: 2727044 - 2723736&lt;br&gt;&lt;br&gt;&lt;b&gt;BlastP hit with LLPMBPKK_06061&lt;/b&gt;&lt;br&gt;Percentage identity: 84&lt;br&gt;Percentage coverage: 101&lt;br&gt;BLAST bit score: 1871&lt;br&gt;E-value: 0.0" locus_tag="BFF78_RS11090" class="clusterblast-orf" id="dummy-24_h24_10_88"  />
</g>
</svg>
