<svg xmlns="http://www.w3.org/2000/svg" xmlns:xlink="http://www.w3.org/1999/xlink" version="1.1" x="0" y="0" height="230" width="800" viewBox="0 0 800 230" preserveAspectRatio="none"  >
<g label="Query sequence" class="clusterblast-cluster"  >
<text x="5" y="20" class="clusterblast-acc"  >
Query sequence</text>
<line x1="10" y1="35" x2="778.0" y2="35" style="stroke-width:1; stroke:grey; "  />
<polygon points="2,35 7,30 32,30 32,40 7,40 2,35 " style="fill:white; stroke-width:1; stroke:black; " description="&lt;b&gt;LLPMBPKK_08068&lt;/b&gt;&lt;br&gt;ACP S-malonyltransferase&lt;br&gt;Location: 9457019 - 9457946" locus_tag="LLPMBPKK_08068" class="clusterblast-orf" id="dummy-39_q0_0_all"  />
<polygon points="41,40 47,40 52,35 47,30 41,30 41,40 " style="fill:white; stroke-width:1; stroke:black; " description="&lt;b&gt;LLPMBPKK_08069&lt;/b&gt;&lt;br&gt;hypothetical protein&lt;br&gt;Location: 9458205 - 9458562" locus_tag="LLPMBPKK_08069" class="clusterblast-orf" id="dummy-39_q1_0_all"  />
<polygon points="60,40 69,40 74,35 69,30 60,30 60,40 " style="fill:white; stroke-width:1; stroke:black; " description="&lt;b&gt;LLPMBPKK_08070&lt;/b&gt;&lt;br&gt;hypothetical protein&lt;br&gt;Location: 9458801 - 9459233" locus_tag="LLPMBPKK_08070" class="clusterblast-orf" id="dummy-39_q2_0_all"  />
<polygon points="97,35 102,30 115,30 115,40 102,40 97,35 " style="fill:#d81515; stroke-width:1; stroke:black; " description="&lt;b&gt;LLPMBPKK_08071&lt;/b&gt;&lt;br&gt;acetyltransferase&lt;br&gt;Location: 9459949 - 9460507" locus_tag="LLPMBPKK_08071" class="clusterblast-orf" id="dummy-39_q3_0_all"  />
<polygon points="115,35 120,30 144,30 144,40 120,40 115,35 " style="fill:#77d815; stroke-width:1; stroke:black; " description="&lt;b&gt;LLPMBPKK_08072&lt;/b&gt;&lt;br&gt;transcriptional regulator&lt;br&gt;Location: 9460503 - 9461412" locus_tag="LLPMBPKK_08072" class="clusterblast-orf" id="dummy-39_q4_0_all"  />
<polygon points="166,40 178,40 183,35 178,30 166,30 166,40 " style="fill:white; stroke-width:1; stroke:black; " description="&lt;b&gt;LLPMBPKK_08073&lt;/b&gt;&lt;br&gt;hypothetical protein&lt;br&gt;Location: 9462062 - 9462605" locus_tag="LLPMBPKK_08073" class="clusterblast-orf" id="dummy-39_q5_0_all"  />
<polygon points="183,40 197,40 202,35 197,30 183,30 183,40 " style="fill:white; stroke-width:1; stroke:black; " description="&lt;b&gt;LLPMBPKK_08074&lt;/b&gt;&lt;br&gt;hypothetical protein&lt;br&gt;Location: 9462601 - 9463198" locus_tag="LLPMBPKK_08074" class="clusterblast-orf" id="dummy-39_q6_0_all"  />
<polygon points="208,40 218,40 223,35 218,30 208,30 208,40 " style="fill:white; stroke-width:1; stroke:black; " description="&lt;b&gt;LLPMBPKK_08075&lt;/b&gt;&lt;br&gt;hypothetical protein&lt;br&gt;Location: 9463384 - 9463831" locus_tag="LLPMBPKK_08075" class="clusterblast-orf" id="dummy-39_q7_0_all"  />
<polygon points="224,40 233,40 238,35 233,30 224,30 224,40 " style="fill:white; stroke-width:1; stroke:black; " description="&lt;b&gt;LLPMBPKK_08076&lt;/b&gt;&lt;br&gt;hypothetical protein&lt;br&gt;Location: 9463874 - 9464306" locus_tag="LLPMBPKK_08076" class="clusterblast-orf" id="dummy-39_q8_0_all"  />
<polygon points="238,40 260,40 265,35 260,30 238,30 238,40 " style="fill:white; stroke-width:1; stroke:black; " description="&lt;b&gt;LLPMBPKK_08077&lt;/b&gt;&lt;br&gt;hypothetical protein&lt;br&gt;Location: 9464308 - 9465136" locus_tag="LLPMBPKK_08077" class="clusterblast-orf" id="dummy-39_q9_0_all"  />
<polygon points="275,40 310,40 315,35 310,30 275,30 275,40 " style="fill:#15d8d8; stroke-width:1; stroke:black; " description="&lt;b&gt;LLPMBPKK_08078&lt;/b&gt;&lt;br&gt;methyltransferase, FxLD system&lt;br&gt;Location: 9465426 - 9466674" locus_tag="LLPMBPKK_08078" class="clusterblast-orf" id="dummy-39_q10_0_all"  />
<polygon points="317,40 318,40 323,35 318,30 317,30 317,40 " style="fill:#7715d8; stroke-width:1; stroke:black; " description="&lt;b&gt;LLPMBPKK_08079&lt;/b&gt;&lt;br&gt;hypothetical protein&lt;br&gt;Location: 9466739 - 9466934" locus_tag="LLPMBPKK_08079" class="clusterblast-orf" id="dummy-39_q11_0_all"  />
<polygon points="326,40 419,40 424,35 419,30 326,30 326,40 " style="fill:#d8a715; stroke-width:1; stroke:black; " description="&lt;b&gt;LLPMBPKK_08080&lt;/b&gt;&lt;br&gt;lantibiotic dehydratase&lt;br&gt;Location: 9467004 - 9470028" locus_tag="LLPMBPKK_08080" class="clusterblast-orf" id="dummy-39_q12_0_all"  />
<polygon points="424,40 456,40 461,35 456,30 424,30 424,40 " style="fill:#15d846; stroke-width:1; stroke:black; " description="&lt;b&gt;LLPMBPKK_08081&lt;/b&gt;&lt;br&gt;lanthionine synthetase&lt;br&gt;Location: 9470024 - 9471173" locus_tag="LLPMBPKK_08081" class="clusterblast-orf" id="dummy-39_q13_0_all"  />
<polygon points="461,40 471,40 476,35 471,30 461,30 461,40 " style="fill:#1546d8; stroke-width:1; stroke:black; " description="&lt;b&gt;LLPMBPKK_08082&lt;/b&gt;&lt;br&gt;hypothetical protein&lt;br&gt;Location: 9471186 - 9471645" locus_tag="LLPMBPKK_08082" class="clusterblast-orf" id="dummy-39_q14_0_all"  />
<polygon points="475,40 487,40 492,35 487,30 475,30 475,40 " style="fill:#1546d8; stroke-width:1; stroke:black; " description="&lt;b&gt;LLPMBPKK_08083&lt;/b&gt;&lt;br&gt;methyltransferase&lt;br&gt;Location: 9471617 - 9472142" locus_tag="LLPMBPKK_08083" class="clusterblast-orf" id="dummy-39_q15_0_all"  />
<polygon points="497,35 502,30 518,30 518,40 502,40 497,35 " style="fill:white; stroke-width:1; stroke:black; " description="&lt;b&gt;LLPMBPKK_08084&lt;/b&gt;&lt;br&gt;hypothetical protein&lt;br&gt;Location: 9472302 - 9472926" locus_tag="LLPMBPKK_08084" class="clusterblast-orf" id="dummy-39_q16_0_all"  />
<polygon points="531,40 543,40 548,35 543,30 531,30 531,40 " style="fill:#d815a7; stroke-width:1; stroke:black; " description="&lt;b&gt;LLPMBPKK_08085&lt;/b&gt;&lt;br&gt;IS5 family transposase&lt;br&gt;Location: 9473333 - 9473852" locus_tag="LLPMBPKK_08085" class="clusterblast-orf" id="dummy-39_q17_0_all"  />
<polygon points="548,40 557,40 562,35 557,30 548,30 548,40 " style="fill:white; stroke-width:1; stroke:black; " description="&lt;b&gt;LLPMBPKK_08086&lt;/b&gt;&lt;br&gt;SMI1/KNR4 family protein&lt;br&gt;Location: 9473862 - 9474300" locus_tag="LLPMBPKK_08086" class="clusterblast-orf" id="dummy-39_q18_0_all"  />
<polygon points="565,40 574,40 579,35 574,30 565,30 565,40 " style="fill:white; stroke-width:1; stroke:black; " description="&lt;b&gt;LLPMBPKK_08087&lt;/b&gt;&lt;br&gt;transposase&lt;br&gt;Location: 9474389 - 9474830" locus_tag="LLPMBPKK_08087" class="clusterblast-orf" id="dummy-39_q19_0_all"  />
<polygon points="586,40 587,40 592,35 587,30 586,30 586,40 " style="fill:#d815a7; stroke-width:1; stroke:black; " description="&lt;b&gt;LLPMBPKK_08088&lt;/b&gt;&lt;br&gt;transposase&lt;br&gt;Location: 9475031 - 9475232" locus_tag="LLPMBPKK_08088" class="clusterblast-orf" id="dummy-39_q20_0_all"  />
<polygon points="595,40 601,40 606,35 601,30 595,30 595,40 " style="fill:white; stroke-width:1; stroke:black; " description="&lt;b&gt;LLPMBPKK_08089&lt;/b&gt;&lt;br&gt;hypothetical protein&lt;br&gt;Location: 9475307 - 9475664" locus_tag="LLPMBPKK_08089" class="clusterblast-orf" id="dummy-39_q21_0_all"  />
<polygon points="623,35 628,30 635,30 635,40 628,40 623,35 " style="fill:white; stroke-width:1; stroke:black; " description="&lt;b&gt;LLPMBPKK_08090&lt;/b&gt;&lt;br&gt;hypothetical protein&lt;br&gt;Location: 9476175 - 9476541" locus_tag="LLPMBPKK_08090" class="clusterblast-orf" id="dummy-39_q22_0_all"  />
<polygon points="638,40 662,40 667,35 662,30 638,30 638,40 " style="fill:white; stroke-width:1; stroke:black; " description="&lt;b&gt;LLPMBPKK_08091&lt;/b&gt;&lt;br&gt;LysR family transcriptional regulator&lt;br&gt;Location: 9476639 - 9477536" locus_tag="LLPMBPKK_08091" class="clusterblast-orf" id="dummy-39_q23_0_all"  />
<polygon points="675,35 680,30 683,30 683,40 680,40 675,35 " style="fill:white; stroke-width:1; stroke:black; " description="&lt;b&gt;LLPMBPKK_08092&lt;/b&gt;&lt;br&gt;hypothetical protein&lt;br&gt;Location: 9477787 - 9478042" locus_tag="LLPMBPKK_08092" class="clusterblast-orf" id="dummy-39_q24_0_all"  />
<polygon points="693,35 698,30 732,30 732,40 698,40 693,35 " style="fill:white; stroke-width:1; stroke:black; " description="&lt;b&gt;LLPMBPKK_08093&lt;/b&gt;&lt;br&gt;acyl-CoA dehydrogenase&lt;br&gt;Location: 9478324 - 9479530" locus_tag="LLPMBPKK_08093" class="clusterblast-orf" id="dummy-39_q25_0_all"  />
<polygon points="761,35 766,30 766,30 766,40 766,40 761,35 " style="fill:white; stroke-width:1; stroke:black; " description="&lt;b&gt;LLPMBPKK_08094&lt;/b&gt;&lt;br&gt;hypothetical protein&lt;br&gt;Location: 9480423 - 9480603" locus_tag="LLPMBPKK_08094" class="clusterblast-orf" id="dummy-39_q26_0_all"  />
<polygon points="770,40 773,40 778,35 773,30 770,30 770,40 " style="fill:white; stroke-width:1; stroke:black; " description="&lt;b&gt;LLPMBPKK_08095&lt;/b&gt;&lt;br&gt;hypothetical protein&lt;br&gt;Location: 9480704 - 9480947" locus_tag="LLPMBPKK_08095" class="clusterblast-orf" id="dummy-39_q27_0_all"  />
</g>
<g label="NZ_LJIW01000002" description="NZ_LJIW01000002 (4833038-4858226): Streptomyces malaysiensis strain F913 SMF9... (23% of genes show similarity), lanthipeptide" class="clusterblast-cluster"  >
<text x="5" y="70" class="clusterblast-acc"  >
<a xlink:href="https://antismash-db.secondarymetabolites.org/area.html?record=NZ_LJIW01000002&amp;start=4833038&amp;end=4858226" target="_blank">NZ_LJIW01000002 (4833038-4858226)</a>: Streptomyces malaysiensis strain F913 SMF9... (23% of genes show similarity), lanthipeptide</text>
<line x1="10" y1="85" x2="778.0" y2="85" style="stroke-width:1; stroke:grey; "  />
</g>
<g id="a39_000"  >
<polygon points="0,90 2,90 7,85 2,80 0,80 0,90 " style="fill:white; stroke-width:1; stroke:black; " description="&lt;b&gt;SMF913_RS45100&lt;/b&gt;&lt;br&gt;hypothetical protein&lt;br&gt;Location: 4833123 - 4833353" locus_tag="SMF913_RS45100" class="clusterblast-orf" id="dummy-39_h39_9_0"  />
</g>
<g id="a39_001"  >
<polygon points="14,90 51,90 56,85 51,80 14,80 14,90 " style="fill:white; stroke-width:1; stroke:black; " description="&lt;b&gt;SMF913_RS45105&lt;/b&gt;&lt;br&gt;DUF3631 domain-containing protein&lt;br&gt;Location: 4833584 - 4834870" locus_tag="SMF913_RS45105" class="clusterblast-orf" id="dummy-39_h39_9_1"  />
</g>
<g id="a39_002"  >
<polygon points="61,90 86,90 91,85 86,80 61,80 61,90 " style="fill:white; stroke-width:1; stroke:black; " description="&lt;b&gt;SMF913_RS45110&lt;/b&gt;&lt;br&gt;DUF2637 domain-containing protein&lt;br&gt;Location: 4835027 - 4835938" locus_tag="SMF913_RS45110" class="clusterblast-orf" id="dummy-39_h39_9_2"  />
</g>
<g id="a39_003"  >
<polygon points="104,90 111,90 116,85 111,80 104,80 104,90 " style="fill:white; stroke-width:1; stroke:black; " description="&lt;b&gt;SMF913_RS45115&lt;/b&gt;&lt;br&gt;plasmid mobilization relaxosome protein MobC&lt;br&gt;Location: 4836348 - 4836719" locus_tag="SMF913_RS45115" class="clusterblast-orf" id="dummy-39_h39_9_3"  />
</g>
<g id="a39_004"  >
<polygon points="116,90 166,90 171,85 166,80 116,80 116,90 " style="fill:white; stroke-width:1; stroke:black; " description="&lt;b&gt;SMF913_RS45120&lt;/b&gt;&lt;br&gt;relaxase/mobilization nuclease domain-containing protein&lt;br&gt;Location: 4836724 - 4838418" locus_tag="SMF913_RS45120" class="clusterblast-orf" id="dummy-39_h39_9_4"  />
</g>
<g id="a39_005"  >
<polygon points="171,85 176,80 177,80 177,90 176,90 171,85 " style="fill:white; stroke-width:1; stroke:black; " description="&lt;b&gt;SMF913_RS45125&lt;/b&gt;&lt;br&gt;DUF397 domain-containing protein&lt;br&gt;Location: 4838419 - 4838598" locus_tag="SMF913_RS45125" class="clusterblast-orf" id="dummy-39_h39_9_5"  />
</g>
<g id="a39_006"  >
<polygon points="177,85 182,80 205,80 205,90 182,90 177,85 " style="fill:white; stroke-width:1; stroke:black; " description="&lt;b&gt;SMF913_RS45130&lt;/b&gt;&lt;br&gt;helix-turn-helix domain-containing protein&lt;br&gt;Location: 4838612 - 4839466" locus_tag="SMF913_RS45130" class="clusterblast-orf" id="dummy-39_h39_9_6"  />
</g>
<g id="a39_007"  >
<polygon points="205,85 210,80 222,80 222,90 210,90 205,85 " style="fill:white; stroke-width:1; stroke:black; " description="&lt;b&gt;SMF913_RS45135&lt;/b&gt;&lt;br&gt;hypothetical protein&lt;br&gt;Location: 4839474 - 4839998" locus_tag="SMF913_RS45135" class="clusterblast-orf" id="dummy-39_h39_9_7"  />
</g>
<g id="a39_008"  >
<polygon points="221,85 226,80 235,80 235,90 226,90 221,85 " style="fill:white; stroke-width:1; stroke:black; " description="&lt;b&gt;SMF913_RS45140&lt;/b&gt;&lt;br&gt;hypothetical protein&lt;br&gt;Location: 4839970 - 4840377" locus_tag="SMF913_RS45140" class="clusterblast-orf" id="dummy-39_h39_9_8"  />
</g>
<g id="a39_009"  >
<polygon points="241,90 248,90 253,85 248,80 241,80 241,90 " style="fill:white; stroke-width:1; stroke:black; " description="&lt;b&gt;SMF913_RS45145&lt;/b&gt;&lt;br&gt;hypothetical protein&lt;br&gt;Location: 4840572 - 4840934" locus_tag="SMF913_RS45145" class="clusterblast-orf" id="dummy-39_h39_9_9"  />
</g>
<g id="a39_0010"  >
<polygon points="260,90 261,90 266,85 261,80 260,80 260,90 " style="fill:white; stroke-width:1; stroke:black; " description="&lt;b&gt;SMF913_RS49240&lt;/b&gt;&lt;br&gt;hypothetical protein&lt;br&gt;Location: 4841162 - 4841332" locus_tag="SMF913_RS49240" class="clusterblast-orf" id="dummy-39_h39_9_10"  />
</g>
<g id="a39_0011"  >
<polygon points="270,90 305,90 310,85 305,80 270,80 270,90 " style="fill:#15d8d8; stroke-width:1; stroke:black; " description="&lt;b&gt;SMF913_RS45150&lt;/b&gt;&lt;br&gt;methyltransferase, FxLD system&lt;br&gt;Location: 4841482 - 4842713&lt;br&gt;&lt;br&gt;&lt;b&gt;BlastP hit with LLPMBPKK_08078&lt;/b&gt;&lt;br&gt;Percentage identity: 75&lt;br&gt;Percentage coverage: 85&lt;br&gt;BLAST bit score: 521&lt;br&gt;E-value: 2.12e-183" locus_tag="SMF913_RS45150" class="clusterblast-orf" id="dummy-39_h39_9_11"  />
</g>
<g id="a39_0012"  >
<polygon points="312,90 314,90 319,85 314,80 312,80 312,90 " style="fill:#7715d8; stroke-width:1; stroke:black; " description="&lt;b&gt;SMF913_RS45155&lt;/b&gt;&lt;br&gt;FxLD family lanthipeptide&lt;br&gt;Location: 4842781 - 4842969&lt;br&gt;&lt;br&gt;&lt;b&gt;BlastP hit with LLPMBPKK_08079&lt;/b&gt;&lt;br&gt;Percentage identity: 59&lt;br&gt;Percentage coverage: 95&lt;br&gt;BLAST bit score: 73&lt;br&gt;E-value: 2.01e-17" locus_tag="SMF913_RS45155" class="clusterblast-orf" id="dummy-39_h39_9_12"  />
</g>
<g id="a39_0013"  >
<polygon points="321,90 414,90 419,85 414,80 321,80 321,90 " style="fill:#d8a715; stroke-width:1; stroke:black; " description="&lt;b&gt;SMF913_RS45160&lt;/b&gt;&lt;br&gt;lantibiotic dehydratase&lt;br&gt;Location: 4843039 - 4846074&lt;br&gt;&lt;br&gt;&lt;b&gt;BlastP hit with LLPMBPKK_08080&lt;/b&gt;&lt;br&gt;Percentage identity: 61&lt;br&gt;Percentage coverage: 100&lt;br&gt;BLAST bit score: 1208&lt;br&gt;E-value: 0.0" locus_tag="SMF913_RS45160" class="clusterblast-orf" id="dummy-39_h39_9_13"  />
</g>
<g id="a39_0014"  >
<polygon points="419,90 451,90 456,85 451,80 419,80 419,90 " style="fill:#15d846; stroke-width:1; stroke:black; " description="&lt;b&gt;SMF913_RS45165&lt;/b&gt;&lt;br&gt;lanthionine synthetase C family protein&lt;br&gt;Location: 4846071 - 4847219&lt;br&gt;&lt;br&gt;&lt;b&gt;BlastP hit with LLPMBPKK_08081&lt;/b&gt;&lt;br&gt;Percentage identity: 69&lt;br&gt;Percentage coverage: 100&lt;br&gt;BLAST bit score: 520&lt;br&gt;E-value: 6.32e-184" locus_tag="SMF913_RS45165" class="clusterblast-orf" id="dummy-39_h39_9_14"  />
</g>
<g id="a39_0015"  >
<polygon points="457,90 484,90 489,85 484,80 457,80 457,90 " style="fill:#1546d8; stroke-width:1; stroke:black; " description="&lt;b&gt;SMF913_RS45170&lt;/b&gt;&lt;br&gt;bacteriocin biosynthesis protein&lt;br&gt;Location: 4847249 - 4848226&lt;br&gt;&lt;br&gt;&lt;b&gt;BlastP hit with LLPMBPKK_08082&lt;/b&gt;&lt;br&gt;Percentage identity: 50&lt;br&gt;Percentage coverage: 91&lt;br&gt;BLAST bit score: 128&lt;br&gt;E-value: 1.05e-34&lt;br&gt;&lt;br&gt;&lt;b&gt;BlastP hit with LLPMBPKK_08083&lt;/b&gt;&lt;br&gt;Percentage identity: 67&lt;br&gt;Percentage coverage: 99&lt;br&gt;BLAST bit score: 234&lt;br&gt;E-value: 9.17e-76" locus_tag="SMF913_RS45170" class="clusterblast-orf" id="dummy-39_h39_9_15"  />
</g>
<g id="a39_0016"  >
<polygon points="490,85 495,80 527,80 527,90 495,90 490,85 " style="fill:white; stroke-width:1; stroke:black; " description="&lt;b&gt;SMF913_RS45175&lt;/b&gt;&lt;br&gt;hypothetical protein&lt;br&gt;Location: 4848251 - 4849393" locus_tag="SMF913_RS45175" class="clusterblast-orf" id="dummy-39_h39_9_16"  />
</g>
<g id="a39_0017"  >
<polygon points="534,85 539,80 571,80 571,90 539,90 534,85 " style="fill:white; stroke-width:1; stroke:black; " description="&lt;b&gt;SMF913_RS45180&lt;/b&gt;&lt;br&gt;ImmA/IrrE family metallo-endopeptidase&lt;br&gt;Location: 4849601 - 4850761" locus_tag="SMF913_RS45180" class="clusterblast-orf" id="dummy-39_h39_9_17"  />
</g>
<g id="a39_0018"  >
<polygon points="571,85 576,80 591,80 591,90 576,90 571,85 " style="fill:white; stroke-width:1; stroke:black; " description="&lt;b&gt;SMF913_RS45185&lt;/b&gt;&lt;br&gt;hypothetical protein&lt;br&gt;Location: 4850769 - 4851365" locus_tag="SMF913_RS45185" class="clusterblast-orf" id="dummy-39_h39_9_18"  />
</g>
<g id="a39_0019"  >
<polygon points="608,90 721,90 726,85 721,80 608,80 608,90 " style="fill:white; stroke-width:1; stroke:black; " description="&lt;b&gt;SMF913_RS45190&lt;/b&gt;&lt;br&gt;AAA family ATPase&lt;br&gt;Location: 4851895 - 4855539" locus_tag="SMF913_RS45190" class="clusterblast-orf" id="dummy-39_h39_9_19"  />
</g>
<g id="a39_0020"  >
<polygon points="726,90 775,90 780,85 775,80 726,80 726,90 " style="fill:white; stroke-width:1; stroke:black; " description="&lt;b&gt;SMF913_RS45195&lt;/b&gt;&lt;br&gt;hypothetical protein&lt;br&gt;Location: 4855536 - 4857191" locus_tag="SMF913_RS45195" class="clusterblast-orf" id="dummy-39_h39_9_20"  />
</g>
</svg>
