<svg xmlns="http://www.w3.org/2000/svg" xmlns:xlink="http://www.w3.org/1999/xlink" version="1.1" x="0" y="0" height="230" width="800" viewBox="0 0 800 230" preserveAspectRatio="none"  >
<g label="Query sequence" class="clusterblast-cluster"  >
<text x="5" y="20" class="clusterblast-acc"  >
Query sequence</text>
<line x1="10" y1="35" x2="778.0" y2="35" style="stroke-width:1; stroke:grey; "  />
<polygon points="249,35 254,30 257,30 257,40 254,40 249,35 " style="fill:#d81515; stroke-width:1; stroke:black; " description="&lt;b&gt;LLPMBPKK_06334&lt;/b&gt;&lt;br&gt;response regulator transcription factor&lt;br&gt;Location: 7316271 - 7316952" locus_tag="LLPMBPKK_06334" class="clusterblast-orf" id="dummy-27_q0_0_all"  />
<polygon points="257,35 262,30 271,30 271,40 262,40 257,35 " style="fill:#4dd815; stroke-width:1; stroke:black; " description="&lt;b&gt;LLPMBPKK_06335&lt;/b&gt;&lt;br&gt;transcriptional regulator&lt;br&gt;Location: 7316957 - 7318205" locus_tag="LLPMBPKK_06335" class="clusterblast-orf" id="dummy-27_q1_0_all"  />
<polygon points="274,35 279,30 288,30 288,40 279,40 274,35 " style="fill:#15bcd8; stroke-width:1; stroke:black; " description="&lt;b&gt;LLPMBPKK_06336&lt;/b&gt;&lt;br&gt;MFS transporter&lt;br&gt;Location: 7318546 - 7319788" locus_tag="LLPMBPKK_06336" class="clusterblast-orf" id="dummy-27_q2_0_all"  />
<polygon points="291,40 324,40 329,35 324,30 291,30 291,40 " style="fill:#8515d8; stroke-width:1; stroke:black; " description="&lt;b&gt;LLPMBPKK_06337&lt;/b&gt;&lt;br&gt;Bacterial transcriptional activator domainprotein&lt;br&gt;Location: 7320077 - 7323497" locus_tag="LLPMBPKK_06337" class="clusterblast-orf" id="dummy-27_q3_0_all"  />
<polygon points="329,35 334,30 334,30 334,40 334,40 329,35 " style="fill:#d84d15; stroke-width:1; stroke:black; " description="&lt;b&gt;LLPMBPKK_06338&lt;/b&gt;&lt;br&gt;MerR family transcriptional regulator&lt;br&gt;Location: 7323558 - 7323954" locus_tag="LLPMBPKK_06338" class="clusterblast-orf" id="dummy-27_q4_0_all"  />
<polygon points="335,40 338,40 343,35 338,30 335,30 335,40 " style="fill:#15d815; stroke-width:1; stroke:black; " description="&lt;b&gt;LLPMBPKK_06339&lt;/b&gt;&lt;br&gt;SDR family oxidoreductase&lt;br&gt;Location: 7324055 - 7324796" locus_tag="LLPMBPKK_06339" class="clusterblast-orf" id="dummy-27_q5_0_all"  />
<polygon points="346,40 353,40 358,35 353,30 346,30 346,40 " style="fill:#1585d8; stroke-width:1; stroke:black; " description="&lt;b&gt;LLPMBPKK_06340&lt;/b&gt;&lt;br&gt;isopropylmalate synthase&lt;br&gt;Location: 7325055 - 7326207" locus_tag="LLPMBPKK_06340" class="clusterblast-orf" id="dummy-27_q6_0_all"  />
<polygon points="359,40 361,35 359,30 359,40 " style="fill:#bc15d8; stroke-width:1; stroke:black; " description="&lt;b&gt;LLPMBPKK_06341&lt;/b&gt;&lt;br&gt;hypothetical protein&lt;br&gt;Location: 7326294 - 7326480" locus_tag="LLPMBPKK_06341" class="clusterblast-orf" id="dummy-27_q7_0_all"  />
<polygon points="361,40 366,40 371,35 366,30 361,30 361,40 " style="fill:#d88515; stroke-width:1; stroke:black; " description="&lt;b&gt;LLPMBPKK_06342&lt;/b&gt;&lt;br&gt;RimK family alpha-L-glutamate ligase&lt;br&gt;Location: 7326481 - 7327330" locus_tag="LLPMBPKK_06342" class="clusterblast-orf" id="dummy-27_q8_0_all"  />
<polygon points="371,40 377,40 382,35 377,30 371,30 371,40 " style="fill:#15d84d; stroke-width:1; stroke:black; " description="&lt;b&gt;LLPMBPKK_06343&lt;/b&gt;&lt;br&gt;N-acetyl-gamma-glutamyl-phosphate reductase&lt;br&gt;Location: 7327326 - 7328385" locus_tag="LLPMBPKK_06343" class="clusterblast-orf" id="dummy-27_q9_0_all"  />
<polygon points="382,40 386,40 391,35 386,30 382,30 382,40 " style="fill:#154dd8; stroke-width:1; stroke:black; " description="&lt;b&gt;LLPMBPKK_06344&lt;/b&gt;&lt;br&gt;acetylglutamate kinase&lt;br&gt;Location: 7328381 - 7329185" locus_tag="LLPMBPKK_06344" class="clusterblast-orf" id="dummy-27_q10_0_all"  />
<polygon points="391,40 392,40 397,35 392,30 391,30 391,40 " style="fill:#d815bc; stroke-width:1; stroke:black; " description="&lt;b&gt;LLPMBPKK_06345&lt;/b&gt;&lt;br&gt;GMP synthase&lt;br&gt;Location: 7329196 - 7329760" locus_tag="LLPMBPKK_06345" class="clusterblast-orf" id="dummy-27_q11_0_all"  />
<polygon points="398,40 405,40 410,35 405,30 398,30 398,40 " style="fill:#d8bc15; stroke-width:1; stroke:black; " description="&lt;b&gt;LLPMBPKK_06346&lt;/b&gt;&lt;br&gt;Glu/Leu/Phe/Val dehydrogenase&lt;br&gt;Location: 7329794 - 7330916" locus_tag="LLPMBPKK_06346" class="clusterblast-orf" id="dummy-27_q12_0_all"  />
<polygon points="410,40 423,40 428,35 423,30 410,30 410,40 " style="fill:#15d885; stroke-width:1; stroke:black; " description="&lt;b&gt;LLPMBPKK_06347&lt;/b&gt;&lt;br&gt;acyl--CoA ligase&lt;br&gt;Location: 7330912 - 7332580" locus_tag="LLPMBPKK_06347" class="clusterblast-orf" id="dummy-27_q13_0_all"  />
<polygon points="429,35 434,30 441,30 441,40 434,40 429,35 " style="fill:#1515d8; stroke-width:1; stroke:black; " description="&lt;b&gt;LLPMBPKK_06348&lt;/b&gt;&lt;br&gt;LLM class flavin-dependent oxidoreductase&lt;br&gt;Location: 7332654 - 7333701" locus_tag="LLPMBPKK_06348" class="clusterblast-orf" id="dummy-27_q14_0_all"  />
<polygon points="442,35 447,30 452,30 452,40 447,40 442,35 " style="fill:#d81585; stroke-width:1; stroke:black; " description="&lt;b&gt;LLPMBPKK_06349&lt;/b&gt;&lt;br&gt;hypothetical protein&lt;br&gt;Location: 7333826 - 7334720" locus_tag="LLPMBPKK_06349" class="clusterblast-orf" id="dummy-27_q15_0_all"  />
<polygon points="452,35 457,30 466,30 466,40 457,40 452,35 " style="fill:#15bcd8; stroke-width:1; stroke:black; " description="&lt;b&gt;LLPMBPKK_06350&lt;/b&gt;&lt;br&gt;MFS transporter&lt;br&gt;Location: 7334736 - 7335975" locus_tag="LLPMBPKK_06350" class="clusterblast-orf" id="dummy-27_q16_0_all"  />
<polygon points="466,35 471,30 480,30 480,40 471,40 466,35 " style="fill:#bcd815; stroke-width:1; stroke:black; " description="&lt;b&gt;LLPMBPKK_06351&lt;/b&gt;&lt;br&gt;pyridoxal phosphate-dependent aminotransferase&lt;br&gt;Location: 7336039 - 7337326" locus_tag="LLPMBPKK_06351" class="clusterblast-orf" id="dummy-27_q17_0_all"  />
<polygon points="481,35 483,30 483,40 481,35 " style="fill:#bc15d8; stroke-width:1; stroke:black; " description="&lt;b&gt;LLPMBPKK_06352&lt;/b&gt;&lt;br&gt;hypothetical protein&lt;br&gt;Location: 7337330 - 7337516" locus_tag="LLPMBPKK_06352" class="clusterblast-orf" id="dummy-27_q18_0_all"  />
<polygon points="485,40 488,40 493,35 488,30 485,30 485,40 " style="fill:#15d8bc; stroke-width:1; stroke:black; " description="&lt;b&gt;LLPMBPKK_06353&lt;/b&gt;&lt;br&gt;decarboxylase&lt;br&gt;Location: 7337719 - 7338475" locus_tag="LLPMBPKK_06353" class="clusterblast-orf" id="dummy-27_q19_0_all"  />
<polygon points="494,40 497,40 502,35 497,30 494,30 494,40 " style="fill:#4d15d8; stroke-width:1; stroke:black; " description="&lt;b&gt;LLPMBPKK_06354&lt;/b&gt;&lt;br&gt;oxidoreductase&lt;br&gt;Location: 7338549 - 7339308" locus_tag="LLPMBPKK_06354" class="clusterblast-orf" id="dummy-27_q20_0_all"  />
<polygon points="503,35 508,30 514,30 514,40 508,40 503,35 " style="fill:#d8154d; stroke-width:1; stroke:black; " description="&lt;b&gt;LLPMBPKK_06355&lt;/b&gt;&lt;br&gt;LuxR family transcriptional regulator&lt;br&gt;Location: 7339388 - 7340411" locus_tag="LLPMBPKK_06355" class="clusterblast-orf" id="dummy-27_q21_0_all"  />
<polygon points="520,40 525,40 530,35 525,30 520,30 520,40 " style="fill:#85d815; stroke-width:1; stroke:black; " description="&lt;b&gt;LLPMBPKK_06356&lt;/b&gt;&lt;br&gt;Tryptophan halogenase&lt;br&gt;Location: 7340901 - 7341819" locus_tag="LLPMBPKK_06356" class="clusterblast-orf" id="dummy-27_q22_0_all"  />
</g>
<g label="NZ_LIVX01000007" description="NZ_LIVX01000007 (280659-353330): Streptomyces sp. CB02261 scaffold7, whole ge... (25% of genes show similarity), NRPS,betalactone" class="clusterblast-cluster"  >
<text x="5" y="70" class="clusterblast-acc"  >
<a xlink:href="https://antismash-db.secondarymetabolites.org/area.html?record=NZ_LIVX01000007&amp;start=280659&amp;end=353330" target="_blank">NZ_LIVX01000007 (280659-353330)</a>: Streptomyces sp. CB02261 scaffold7, whole ge... (25% of genes show similarity), NRPS,betalactone</text>
<line x1="10" y1="85" x2="778.0" y2="85" style="stroke-width:1; stroke:grey; "  />
</g>
<g id="a27_000"  >
<polygon points="0,85 5,80 39,80 39,90 5,90 0,85 " style="fill:#8515d8; stroke-width:1; stroke:black; " description="&lt;b&gt;AMK29_RS24245&lt;/b&gt;&lt;br&gt;AfsR/SARP family transcriptional regulator&lt;br&gt;Location: 352488 - 348874&lt;br&gt;&lt;br&gt;&lt;b&gt;BlastP hit with LLPMBPKK_06337&lt;/b&gt;&lt;br&gt;Percentage identity: 67&lt;br&gt;Percentage coverage: 105&lt;br&gt;BLAST bit score: 1162&lt;br&gt;E-value: 0.0" locus_tag="AMK29_RS24245" class="clusterblast-orf" id="dummy-27_h27_3_0"  />
</g>
<g id="a27_001"  >
<polygon points="41,90 42,90 47,85 42,80 41,80 41,90 " style="fill:white; stroke-width:1; stroke:black; " description="&lt;b&gt;AMK29_RS24240&lt;/b&gt;&lt;br&gt;SDR family oxidoreductase&lt;br&gt;Location: 348687 - 348130" locus_tag="AMK29_RS24240" class="clusterblast-orf" id="dummy-27_h27_3_1"  />
</g>
<g id="a27_002"  >
<polygon points="48,90 57,90 62,85 57,80 48,80 48,90 " style="fill:#15bcd8; stroke-width:1; stroke:black; " description="&lt;b&gt;AMK29_RS24235&lt;/b&gt;&lt;br&gt;MFS transporter&lt;br&gt;Location: 348032 - 346770&lt;br&gt;&lt;br&gt;&lt;b&gt;BlastP hit with LLPMBPKK_06336&lt;/b&gt;&lt;br&gt;Percentage identity: 76&lt;br&gt;Percentage coverage: 99&lt;br&gt;BLAST bit score: 561&lt;br&gt;E-value: 2.18e-199&lt;br&gt;&lt;br&gt;&lt;b&gt;BlastP hit with LLPMBPKK_06350&lt;/b&gt;&lt;br&gt;Percentage identity: 69&lt;br&gt;Percentage coverage: 98&lt;br&gt;BLAST bit score: 498&lt;br&gt;E-value: 2.47e-174" locus_tag="AMK29_RS24235" class="clusterblast-orf" id="dummy-27_h27_3_2"  />
</g>
<g id="a27_003"  >
<polygon points="67,90 75,90 80,85 75,80 67,80 67,90 " style="fill:#4dd815; stroke-width:1; stroke:black; " description="&lt;b&gt;AMK29_RS24230&lt;/b&gt;&lt;br&gt;transcriptional regulator&lt;br&gt;Location: 346308 - 345115&lt;br&gt;&lt;br&gt;&lt;b&gt;BlastP hit with LLPMBPKK_06335&lt;/b&gt;&lt;br&gt;Percentage identity: 58&lt;br&gt;Percentage coverage: 92&lt;br&gt;BLAST bit score: 427&lt;br&gt;E-value: 1.03e-146" locus_tag="AMK29_RS24230" class="clusterblast-orf" id="dummy-27_h27_3_3"  />
</g>
<g id="a27_004"  >
<polygon points="81,90 83,90 88,85 83,80 81,80 81,90 " style="fill:#d81515; stroke-width:1; stroke:black; " description="&lt;b&gt;AMK29_RS24225&lt;/b&gt;&lt;br&gt;response regulator transcription factor&lt;br&gt;Location: 345094 - 344396&lt;br&gt;&lt;br&gt;&lt;b&gt;BlastP hit with LLPMBPKK_06334&lt;/b&gt;&lt;br&gt;Percentage identity: 68&lt;br&gt;Percentage coverage: 100&lt;br&gt;BLAST bit score: 297&lt;br&gt;E-value: 6.26e-101" locus_tag="AMK29_RS24225" class="clusterblast-orf" id="dummy-27_h27_3_4"  />
</g>
<g id="a27_005"  >
<polygon points="89,85 94,80 97,80 97,90 94,90 89,85 " style="fill:#15d8bc; stroke-width:1; stroke:black; " description="&lt;b&gt;AMK29_RS24220&lt;/b&gt;&lt;br&gt;arylmalonate decarboxylase&lt;br&gt;Location: 344334 - 343576&lt;br&gt;&lt;br&gt;&lt;b&gt;BlastP hit with LLPMBPKK_06353&lt;/b&gt;&lt;br&gt;Percentage identity: 67&lt;br&gt;Percentage coverage: 99&lt;br&gt;BLAST bit score: 327&lt;br&gt;E-value: 6.37e-112" locus_tag="AMK29_RS24220" class="clusterblast-orf" id="dummy-27_h27_3_5"  />
</g>
<g id="a27_006"  >
<polygon points="100,90 108,90 113,85 108,80 100,80 100,90 " style="fill:#1585d8; stroke-width:1; stroke:black; " description="&lt;b&gt;AMK29_RS24215&lt;/b&gt;&lt;br&gt;isopropylmalate synthase&lt;br&gt;Location: 343330 - 342176&lt;br&gt;&lt;br&gt;&lt;b&gt;BlastP hit with LLPMBPKK_06340&lt;/b&gt;&lt;br&gt;Percentage identity: 83&lt;br&gt;Percentage coverage: 99&lt;br&gt;BLAST bit score: 623&lt;br&gt;E-value: 8.18e-225" locus_tag="AMK29_RS24215" class="clusterblast-orf" id="dummy-27_h27_3_6"  />
</g>
<g id="a27_007"  >
<polygon points="113,90 115,85 113,80 113,90 " style="fill:#bc15d8; stroke-width:1; stroke:black; " description="&lt;b&gt;AMK29_RS24210&lt;/b&gt;&lt;br&gt;lysine biosynthesis protein LysW&lt;br&gt;Location: 342147 - 341962&lt;br&gt;&lt;br&gt;&lt;b&gt;BlastP hit with LLPMBPKK_06341&lt;/b&gt;&lt;br&gt;Percentage identity: 79&lt;br&gt;Percentage coverage: 100&lt;br&gt;BLAST bit score: 106&lt;br&gt;E-value: 9.18e-31&lt;br&gt;&lt;br&gt;&lt;b&gt;BlastP hit with LLPMBPKK_06352&lt;/b&gt;&lt;br&gt;Percentage identity: 75&lt;br&gt;Percentage coverage: 100&lt;br&gt;BLAST bit score: 93&lt;br&gt;E-value: 2.87e-25" locus_tag="AMK29_RS24210" class="clusterblast-orf" id="dummy-27_h27_3_7"  />
</g>
<g id="a27_008"  >
<polygon points="115,90 119,90 124,85 119,80 115,80 115,90 " style="fill:#d88515; stroke-width:1; stroke:black; " description="&lt;b&gt;AMK29_RS24205&lt;/b&gt;&lt;br&gt;RimK family alpha-L-glutamate ligase&lt;br&gt;Location: 341960 - 341106&lt;br&gt;&lt;br&gt;&lt;b&gt;BlastP hit with LLPMBPKK_06342&lt;/b&gt;&lt;br&gt;Percentage identity: 74&lt;br&gt;Percentage coverage: 98&lt;br&gt;BLAST bit score: 420&lt;br&gt;E-value: 9.9e-148" locus_tag="AMK29_RS24205" class="clusterblast-orf" id="dummy-27_h27_3_8"  />
</g>
<g id="a27_009"  >
<polygon points="124,90 131,90 136,85 131,80 124,80 124,90 " style="fill:#15d84d; stroke-width:1; stroke:black; " description="&lt;b&gt;AMK29_RS24200&lt;/b&gt;&lt;br&gt;N-acetyl-gamma-glutamyl-phosphate reductase&lt;br&gt;Location: 341109 - 340054&lt;br&gt;&lt;br&gt;&lt;b&gt;BlastP hit with LLPMBPKK_06343&lt;/b&gt;&lt;br&gt;Percentage identity: 80&lt;br&gt;Percentage coverage: 100&lt;br&gt;BLAST bit score: 560&lt;br&gt;E-value: 6.71e-201" locus_tag="AMK29_RS24200" class="clusterblast-orf" id="dummy-27_h27_3_9"  />
</g>
<g id="a27_0010"  >
<polygon points="136,90 140,90 145,85 140,80 136,80 136,90 " style="fill:#154dd8; stroke-width:1; stroke:black; " description="&lt;b&gt;AMK29_RS24195&lt;/b&gt;&lt;br&gt;hypothetical protein&lt;br&gt;Location: 340057 - 339233&lt;br&gt;&lt;br&gt;&lt;b&gt;BlastP hit with LLPMBPKK_06344&lt;/b&gt;&lt;br&gt;Percentage identity: 83&lt;br&gt;Percentage coverage: 96&lt;br&gt;BLAST bit score: 419&lt;br&gt;E-value: 5.45e-148" locus_tag="AMK29_RS24195" class="clusterblast-orf" id="dummy-27_h27_3_10"  />
</g>
<g id="a27_0011"  >
<polygon points="145,90 146,90 151,85 146,80 145,80 145,90 " style="fill:#d815bc; stroke-width:1; stroke:black; " description="&lt;b&gt;AMK29_RS24190&lt;/b&gt;&lt;br&gt;GMP synthase&lt;br&gt;Location: 339236 - 338673&lt;br&gt;&lt;br&gt;&lt;b&gt;BlastP hit with LLPMBPKK_06345&lt;/b&gt;&lt;br&gt;Percentage identity: 85&lt;br&gt;Percentage coverage: 100&lt;br&gt;BLAST bit score: 323&lt;br&gt;E-value: 1.25e-112" locus_tag="AMK29_RS24190" class="clusterblast-orf" id="dummy-27_h27_3_11"  />
</g>
<g id="a27_0012"  >
<polygon points="152,90 159,90 164,85 159,80 152,80 152,90 " style="fill:#d8bc15; stroke-width:1; stroke:black; " description="&lt;b&gt;AMK29_RS24185&lt;/b&gt;&lt;br&gt;Glu/Leu/Phe/Val dehydrogenase&lt;br&gt;Location: 338568 - 337453&lt;br&gt;&lt;br&gt;&lt;b&gt;BlastP hit with LLPMBPKK_06346&lt;/b&gt;&lt;br&gt;Percentage identity: 84&lt;br&gt;Percentage coverage: 97&lt;br&gt;BLAST bit score: 608&lt;br&gt;E-value: 4.21e-219" locus_tag="AMK29_RS24185" class="clusterblast-orf" id="dummy-27_h27_3_12"  />
</g>
<g id="a27_0013"  >
<polygon points="164,90 178,90 183,85 178,80 164,80 164,90 " style="fill:#15d885; stroke-width:1; stroke:black; " description="&lt;b&gt;AMK29_RS24180&lt;/b&gt;&lt;br&gt;AMP-binding protein&lt;br&gt;Location: 337453 - 335753&lt;br&gt;&lt;br&gt;&lt;b&gt;BlastP hit with LLPMBPKK_06347&lt;/b&gt;&lt;br&gt;Percentage identity: 64&lt;br&gt;Percentage coverage: 100&lt;br&gt;BLAST bit score: 668&lt;br&gt;E-value: 1.04e-236" locus_tag="AMK29_RS24180" class="clusterblast-orf" id="dummy-27_h27_3_13"  />
</g>
<g id="a27_0014"  >
<polygon points="184,90 193,90 198,85 193,80 184,80 184,90 " style="fill:#bcd815; stroke-width:1; stroke:black; " description="&lt;b&gt;AMK29_RS24175&lt;/b&gt;&lt;br&gt;pyridoxal phosphate-dependent aminotransferase&lt;br&gt;Location: 335698 - 334397&lt;br&gt;&lt;br&gt;&lt;b&gt;BlastP hit with LLPMBPKK_06351&lt;/b&gt;&lt;br&gt;Percentage identity: 78&lt;br&gt;Percentage coverage: 98&lt;br&gt;BLAST bit score: 615&lt;br&gt;E-value: 3.17e-220" locus_tag="AMK29_RS24175" class="clusterblast-orf" id="dummy-27_h27_3_14"  />
</g>
<g id="a27_0015"  >
<polygon points="200,90 205,90 210,85 205,80 200,80 200,90 " style="fill:#d81585; stroke-width:1; stroke:black; " description="&lt;b&gt;AMK29_RS24170&lt;/b&gt;&lt;br&gt;fumarylacetoacetate (FAA) hydrolase&lt;br&gt;Location: 334250 - 333276&lt;br&gt;&lt;br&gt;&lt;b&gt;BlastP hit with LLPMBPKK_06349&lt;/b&gt;&lt;br&gt;Percentage identity: 58&lt;br&gt;Percentage coverage: 101&lt;br&gt;BLAST bit score: 363&lt;br&gt;E-value: 2.28e-124" locus_tag="AMK29_RS24170" class="clusterblast-orf" id="dummy-27_h27_3_15"  />
</g>
<g id="a27_0016"  >
<polygon points="212,90 223,90 228,85 223,80 212,80 212,90 " style="fill:white; stroke-width:1; stroke:black; " description="&lt;b&gt;AMK29_RS24165&lt;/b&gt;&lt;br&gt;NtaA/DmoA family FMN-dependent monooxygenase&lt;br&gt;Location: 333087 - 331672" locus_tag="AMK29_RS24165" class="clusterblast-orf" id="dummy-27_h27_3_16"  />
</g>
<g id="a27_0017"  >
<polygon points="228,90 237,90 242,85 237,80 228,80 228,90 " style="fill:white; stroke-width:1; stroke:black; " description="&lt;b&gt;AMK29_RS24160&lt;/b&gt;&lt;br&gt;LLM class flavin-dependent oxidoreductase&lt;br&gt;Location: 331675 - 330401" locus_tag="AMK29_RS24160" class="clusterblast-orf" id="dummy-27_h27_3_17"  />
</g>
<g id="a27_0018"  >
<polygon points="245,90 249,85 245,80 245,90 " style="fill:white; stroke-width:1; stroke:black; " description="&lt;b&gt;AMK29_RS24155&lt;/b&gt;&lt;br&gt;DUF3052 domain-containing protein&lt;br&gt;Location: 330114 - 329710" locus_tag="AMK29_RS24155" class="clusterblast-orf" id="dummy-27_h27_3_18"  />
</g>
<g id="a27_0019"  >
<polygon points="251,85 256,80 258,80 258,90 256,90 251,85 " style="fill:white; stroke-width:1; stroke:black; " description="&lt;b&gt;AMK29_RS24150&lt;/b&gt;&lt;br&gt;DUF1707 domain-containing protein&lt;br&gt;Location: 329523 - 328906" locus_tag="AMK29_RS24150" class="clusterblast-orf" id="dummy-27_h27_3_19"  />
</g>
<g id="a27_0020"  >
<polygon points="267,85 272,80 276,80 276,90 272,90 267,85 " style="fill:white; stroke-width:1; stroke:black; " description="&lt;b&gt;AMK29_RS35950&lt;/b&gt;&lt;br&gt;protein kinase&lt;br&gt;Location: 328132 - 327323" locus_tag="AMK29_RS35950" class="clusterblast-orf" id="dummy-27_h27_3_20"  />
</g>
<g id="a27_0021"  >
<polygon points="280,90 282,85 280,80 280,90 " style="fill:white; stroke-width:1; stroke:black; " description="&lt;b&gt;AMK29_RS35945&lt;/b&gt;&lt;br&gt;serine/threonine protein kinase&lt;br&gt;Location: 326963 - 326739" locus_tag="AMK29_RS35945" class="clusterblast-orf" id="dummy-27_h27_3_21"  />
</g>
<g id="a27_0022"  >
<polygon points="283,85 288,80 293,80 293,90 288,90 283,85 " style="fill:white; stroke-width:1; stroke:black; " description="&lt;b&gt;AMK29_RS24135&lt;/b&gt;&lt;br&gt;hypothetical protein&lt;br&gt;Location: 326608 - 325736" locus_tag="AMK29_RS24135" class="clusterblast-orf" id="dummy-27_h27_3_22"  />
</g>
<g id="a27_0023"  >
<polygon points="296,90 296,90 301,85 296,80 296,80 296,90 " style="fill:white; stroke-width:1; stroke:black; " description="&lt;b&gt;AMK29_RS24130&lt;/b&gt;&lt;br&gt;hypothetical protein&lt;br&gt;Location: 325436 - 324999" locus_tag="AMK29_RS24130" class="clusterblast-orf" id="dummy-27_h27_3_23"  />
</g>
<g id="a27_0024"  >
<polygon points="304,90 304,90 309,85 304,80 304,80 304,90 " style="fill:white; stroke-width:1; stroke:black; " description="&lt;b&gt;AMK29_RS24125&lt;/b&gt;&lt;br&gt;GNAT family N-acetyltransferase&lt;br&gt;Location: 324772 - 324296" locus_tag="AMK29_RS24125" class="clusterblast-orf" id="dummy-27_h27_3_24"  />
</g>
<g id="a27_0025"  >
<polygon points="310,85 314,80 314,90 310,85 " style="fill:white; stroke-width:1; stroke:black; " description="&lt;b&gt;AMK29_RS24120&lt;/b&gt;&lt;br&gt;hypothetical protein&lt;br&gt;Location: 324171 - 323791" locus_tag="AMK29_RS24120" class="clusterblast-orf" id="dummy-27_h27_3_25"  />
</g>
<g id="a27_0026"  >
<polygon points="314,85 319,80 321,80 321,90 319,90 314,85 " style="fill:white; stroke-width:1; stroke:black; " description="&lt;b&gt;AMK29_RS24115&lt;/b&gt;&lt;br&gt;TetR/AcrR family transcriptional regulator&lt;br&gt;Location: 323794 - 323207" locus_tag="AMK29_RS24115" class="clusterblast-orf" id="dummy-27_h27_3_26"  />
</g>
<g id="a27_0027"  >
<polygon points="322,85 327,80 327,80 327,90 327,90 322,85 " style="fill:white; stroke-width:1; stroke:black; " description="&lt;b&gt;AMK29_RS24110&lt;/b&gt;&lt;br&gt;hypothetical protein&lt;br&gt;Location: 323124 - 322603" locus_tag="AMK29_RS24110" class="clusterblast-orf" id="dummy-27_h27_3_27"  />
</g>
<g id="a27_0028"  >
<polygon points="332,85 337,80 338,80 338,90 337,90 332,85 " style="fill:white; stroke-width:1; stroke:black; " description="&lt;b&gt;AMK29_RS24100&lt;/b&gt;&lt;br&gt;hypothetical protein&lt;br&gt;Location: 322184 - 321663" locus_tag="AMK29_RS24100" class="clusterblast-orf" id="dummy-27_h27_3_28"  />
</g>
<g id="a27_0029"  >
<polygon points="339,90 342,85 339,80 339,90 " style="fill:white; stroke-width:1; stroke:black; " description="&lt;b&gt;AMK29_RS24095&lt;/b&gt;&lt;br&gt;site-specific integrase&lt;br&gt;Location: 321552 - 321311" locus_tag="AMK29_RS24095" class="clusterblast-orf" id="dummy-27_h27_3_29"  />
</g>
<g id="a27_0030"  >
<polygon points="342,85 347,80 352,80 352,90 347,90 342,85 " style="fill:white; stroke-width:1; stroke:black; " description="&lt;b&gt;AMK29_RS24090&lt;/b&gt;&lt;br&gt;helix-turn-helix domain-containing protein&lt;br&gt;Location: 321290 - 320352" locus_tag="AMK29_RS24090" class="clusterblast-orf" id="dummy-27_h27_3_30"  />
</g>
<g id="a27_0031"  >
<polygon points="354,90 358,85 354,80 354,90 " style="fill:white; stroke-width:1; stroke:black; " description="&lt;b&gt;AMK29_RS24085&lt;/b&gt;&lt;br&gt;cupin domain-containing protein&lt;br&gt;Location: 320200 - 319805" locus_tag="AMK29_RS24085" class="clusterblast-orf" id="dummy-27_h27_3_31"  />
</g>
<g id="a27_0032"  >
<polygon points="359,85 364,80 377,80 377,90 364,90 359,85 " style="fill:white; stroke-width:1; stroke:black; " description="&lt;b&gt;AMK29_RS24080&lt;/b&gt;&lt;br&gt;TROVE domain-containing protein&lt;br&gt;Location: 319696 - 318041" locus_tag="AMK29_RS24080" class="clusterblast-orf" id="dummy-27_h27_3_32"  />
</g>
<g id="a27_0033"  >
<polygon points="383,85 385,80 385,90 383,85 " style="fill:white; stroke-width:1; stroke:black; " description="&lt;b&gt;AMK29_RS35940&lt;/b&gt;&lt;br&gt;hypothetical protein&lt;br&gt;Location: 317534 - 317393" locus_tag="AMK29_RS35940" class="clusterblast-orf" id="dummy-27_h27_3_33"  />
</g>
<g id="a27_0034"  >
<polygon points="386,85 391,80 419,80 419,90 391,90 386,85 " style="fill:white; stroke-width:1; stroke:black; " description="&lt;b&gt;AMK29_RS24070&lt;/b&gt;&lt;br&gt;helix-turn-helix transcriptional regulator&lt;br&gt;Location: 317285 - 314271" locus_tag="AMK29_RS24070" class="clusterblast-orf" id="dummy-27_h27_3_34"  />
</g>
<g id="a27_0035"  >
<polygon points="424,90 425,90 430,85 425,80 424,80 424,90 " style="fill:white; stroke-width:1; stroke:black; " description="&lt;b&gt;AMK29_RS24065&lt;/b&gt;&lt;br&gt;hypothetical protein&lt;br&gt;Location: 313802 - 313284" locus_tag="AMK29_RS24065" class="clusterblast-orf" id="dummy-27_h27_3_35"  />
</g>
<g id="a27_0036"  >
<polygon points="430,90 434,90 439,85 434,80 430,80 430,90 " style="fill:white; stroke-width:1; stroke:black; " description="&lt;b&gt;AMK29_RS24060&lt;/b&gt;&lt;br&gt;thioesterase&lt;br&gt;Location: 313287 - 312418" locus_tag="AMK29_RS24060" class="clusterblast-orf" id="dummy-27_h27_3_36"  />
</g>
<g id="a27_0037"  >
<polygon points="439,90 445,90 450,85 445,80 439,80 439,90 " style="fill:white; stroke-width:1; stroke:black; " description="&lt;b&gt;AMK29_RS24055&lt;/b&gt;&lt;br&gt;class I SAM-dependent methyltransferase&lt;br&gt;Location: 312421 - 311387" locus_tag="AMK29_RS24055" class="clusterblast-orf" id="dummy-27_h27_3_37"  />
</g>
<g id="a27_0038"  >
<polygon points="454,90 458,90 463,85 458,80 454,80 454,90 " style="fill:#8515d8; stroke-width:1; stroke:black; " description="&lt;b&gt;AMK29_RS24050&lt;/b&gt;&lt;br&gt;AfsR/SARP family transcriptional regulator&lt;br&gt;Location: 311063 - 310218&lt;br&gt;&lt;br&gt;&lt;b&gt;BlastP hit with LLPMBPKK_06337&lt;/b&gt;&lt;br&gt;Percentage identity: 40&lt;br&gt;Percentage coverage: 25&lt;br&gt;BLAST bit score: 148&lt;br&gt;E-value: 1.24e-37" locus_tag="AMK29_RS24050" class="clusterblast-orf" id="dummy-27_h27_3_38"  />
</g>
<g id="a27_0039"  >
<polygon points="464,90 465,90 470,85 465,80 464,80 464,90 " style="fill:white; stroke-width:1; stroke:black; " description="&lt;b&gt;AMK29_RS24045&lt;/b&gt;&lt;br&gt;oxidoreductase&lt;br&gt;Location: 310116 - 309652" locus_tag="AMK29_RS24045" class="clusterblast-orf" id="dummy-27_h27_3_39"  />
</g>
<g id="a27_0040"  >
<polygon points="474,90 482,90 487,85 482,80 474,80 474,90 " style="fill:white; stroke-width:1; stroke:black; " description="&lt;b&gt;AMK29_RS24040&lt;/b&gt;&lt;br&gt;MFS transporter&lt;br&gt;Location: 309274 - 308021" locus_tag="AMK29_RS24040" class="clusterblast-orf" id="dummy-27_h27_3_40"  />
</g>
<g id="a27_0041"  >
<polygon points="490,90 493,90 498,85 493,80 490,80 490,90 " style="fill:white; stroke-width:1; stroke:black; " description="&lt;b&gt;AMK29_RS24035&lt;/b&gt;&lt;br&gt;methyltransferase&lt;br&gt;Location: 307830 - 307081" locus_tag="AMK29_RS24035" class="clusterblast-orf" id="dummy-27_h27_3_41"  />
</g>
<g id="a27_0042"  >
<polygon points="500,90 511,90 516,85 511,80 500,80 500,90 " style="fill:white; stroke-width:1; stroke:black; " description="&lt;b&gt;AMK29_RS24030&lt;/b&gt;&lt;br&gt;FAD-dependent oxidoreductase&lt;br&gt;Location: 306852 - 305389" locus_tag="AMK29_RS24030" class="clusterblast-orf" id="dummy-27_h27_3_42"  />
</g>
<g id="a27_0043"  >
<polygon points="517,90 521,85 517,80 517,90 " style="fill:white; stroke-width:1; stroke:black; " description="&lt;b&gt;AMK29_RS24025&lt;/b&gt;&lt;br&gt;RidA family protein&lt;br&gt;Location: 305323 - 304916" locus_tag="AMK29_RS24025" class="clusterblast-orf" id="dummy-27_h27_3_43"  />
</g>
<g id="a27_0044"  >
<polygon points="523,85 528,80 529,80 529,90 528,90 523,85 " style="fill:white; stroke-width:1; stroke:black; " description="&lt;b&gt;AMK29_RS24020&lt;/b&gt;&lt;br&gt;flavoprotein&lt;br&gt;Location: 304779 - 304186" locus_tag="AMK29_RS24020" class="clusterblast-orf" id="dummy-27_h27_3_44"  />
</g>
<g id="a27_0045"  >
<polygon points="532,90 563,90 568,85 563,80 532,80 532,90 " style="fill:white; stroke-width:1; stroke:black; " description="&lt;b&gt;AMK29_RS24015&lt;/b&gt;&lt;br&gt;non-ribosomal peptide synthetase&lt;br&gt;Location: 303941 - 300660" locus_tag="AMK29_RS24015" class="clusterblast-orf" id="dummy-27_h27_3_45"  />
</g>
<g id="a27_0046"  >
<polygon points="568,90 582,90 587,85 582,80 568,80 568,90 " style="fill:white; stroke-width:1; stroke:black; " description="&lt;b&gt;AMK29_RS24010&lt;/b&gt;&lt;br&gt;glucose-methanol-choline oxidoreductase&lt;br&gt;Location: 300663 - 298912" locus_tag="AMK29_RS24010" class="clusterblast-orf" id="dummy-27_h27_3_46"  />
</g>
<g id="a27_0047"  >
<polygon points="588,90 591,90 596,85 591,80 588,80 588,90 " style="fill:white; stroke-width:1; stroke:black; " description="&lt;b&gt;AMK29_RS24005&lt;/b&gt;&lt;br&gt;thioesterase&lt;br&gt;Location: 298885 - 298160" locus_tag="AMK29_RS24005" class="clusterblast-orf" id="dummy-27_h27_3_47"  />
</g>
<g id="a27_0048"  >
<polygon points="597,90 604,90 609,85 604,80 597,80 597,90 " style="fill:white; stroke-width:1; stroke:black; " description="&lt;b&gt;AMK29_RS24000&lt;/b&gt;&lt;br&gt;acyl-CoA dehydrogenase&lt;br&gt;Location: 298041 - 296908" locus_tag="AMK29_RS24000" class="clusterblast-orf" id="dummy-27_h27_3_48"  />
</g>
<g id="a27_0049"  >
<polygon points="611,90 613,90 618,85 613,80 611,80 611,90 " style="fill:white; stroke-width:1; stroke:black; " description="&lt;b&gt;AMK29_RS23995&lt;/b&gt;&lt;br&gt;helix-turn-helix transcriptional regulator&lt;br&gt;Location: 296724 - 296122" locus_tag="AMK29_RS23995" class="clusterblast-orf" id="dummy-27_h27_3_49"  />
</g>
<g id="a27_0050"  >
<polygon points="619,85 624,80 632,80 632,90 624,90 619,85 " style="fill:white; stroke-width:1; stroke:black; " description="&lt;b&gt;AMK29_RS23990&lt;/b&gt;&lt;br&gt;NAD(P)/FAD-dependent oxidoreductase&lt;br&gt;Location: 295985 - 294882" locus_tag="AMK29_RS23990" class="clusterblast-orf" id="dummy-27_h27_3_50"  />
</g>
<g id="a27_0051"  >
<polygon points="633,85 638,80 639,80 639,90 638,90 633,85 " style="fill:white; stroke-width:1; stroke:black; " description="&lt;b&gt;AMK29_RS23985&lt;/b&gt;&lt;br&gt;hypothetical protein&lt;br&gt;Location: 294743 - 294210" locus_tag="AMK29_RS23985" class="clusterblast-orf" id="dummy-27_h27_3_51"  />
</g>
<g id="a27_0052"  >
<polygon points="640,90 642,90 647,85 642,80 640,80 640,90 " style="fill:white; stroke-width:1; stroke:black; " description="&lt;b&gt;AMK29_RS23980&lt;/b&gt;&lt;br&gt;hypothetical protein&lt;br&gt;Location: 294088 - 293471" locus_tag="AMK29_RS23980" class="clusterblast-orf" id="dummy-27_h27_3_52"  />
</g>
<g id="a27_0053"  >
<polygon points="648,90 651,85 648,80 648,90 " style="fill:white; stroke-width:1; stroke:black; " description="&lt;b&gt;AMK29_RS36235&lt;/b&gt;&lt;br&gt;hypothetical protein&lt;br&gt;Location: 293356 - 293123" locus_tag="AMK29_RS36235" class="clusterblast-orf" id="dummy-27_h27_3_53"  />
</g>
<g id="a27_0054"  >
<polygon points="653,85 658,80 660,80 660,90 658,90 653,85 " style="fill:white; stroke-width:1; stroke:black; " description="&lt;b&gt;AMK29_RS23970&lt;/b&gt;&lt;br&gt;hypothetical protein&lt;br&gt;Location: 292886 - 292320" locus_tag="AMK29_RS23970" class="clusterblast-orf" id="dummy-27_h27_3_54"  />
</g>
<g id="a27_0055"  >
<polygon points="663,85 668,80 674,80 674,90 668,90 663,85 " style="fill:white; stroke-width:1; stroke:black; " description="&lt;b&gt;AMK29_RS23965&lt;/b&gt;&lt;br&gt;hypothetical protein&lt;br&gt;Location: 291979 - 291056" locus_tag="AMK29_RS23965" class="clusterblast-orf" id="dummy-27_h27_3_55"  />
</g>
<g id="a27_0056"  >
<polygon points="676,90 682,90 687,85 682,80 676,80 676,90 " style="fill:white; stroke-width:1; stroke:black; " description="&lt;b&gt;AMK29_RS23960&lt;/b&gt;&lt;br&gt;helix-turn-helix domain-containing protein&lt;br&gt;Location: 290847 - 289817" locus_tag="AMK29_RS23960" class="clusterblast-orf" id="dummy-27_h27_3_56"  />
</g>
<g id="a27_0057"  >
<polygon points="688,90 688,90 693,85 688,80 688,80 688,90 " style="fill:white; stroke-width:1; stroke:black; " description="&lt;b&gt;AMK29_RS23955&lt;/b&gt;&lt;br&gt;hypothetical protein&lt;br&gt;Location: 289734 - 289297" locus_tag="AMK29_RS23955" class="clusterblast-orf" id="dummy-27_h27_3_57"  />
</g>
<g id="a27_0058"  >
<polygon points="694,90 698,85 694,80 694,90 " style="fill:white; stroke-width:1; stroke:black; " description="&lt;b&gt;AMK29_RS23950&lt;/b&gt;&lt;br&gt;DUF393 domain-containing protein&lt;br&gt;Location: 289192 - 288812" locus_tag="AMK29_RS23950" class="clusterblast-orf" id="dummy-27_h27_3_58"  />
</g>
<g id="a27_0059"  >
<polygon points="700,90 703,85 700,80 700,90 " style="fill:white; stroke-width:1; stroke:black; " description="&lt;b&gt;AMK29_RS23945&lt;/b&gt;&lt;br&gt;pyrimidine/purine nucleoside phosphorylase&lt;br&gt;Location: 288628 - 288344" locus_tag="AMK29_RS23945" class="clusterblast-orf" id="dummy-27_h27_3_59"  />
</g>
<g id="a27_0060"  >
<polygon points="706,85 711,80 713,80 713,90 711,90 706,85 " style="fill:white; stroke-width:1; stroke:black; " description="&lt;b&gt;AMK29_RS23940&lt;/b&gt;&lt;br&gt;hypothetical protein&lt;br&gt;Location: 288061 - 287453" locus_tag="AMK29_RS23940" class="clusterblast-orf" id="dummy-27_h27_3_60"  />
</g>
<g id="a27_0061"  >
<polygon points="715,90 716,90 721,85 716,80 715,80 715,90 " style="fill:white; stroke-width:1; stroke:black; " description="&lt;b&gt;AMK29_RS23935&lt;/b&gt;&lt;br&gt;hypothetical protein&lt;br&gt;Location: 287292 - 286696" locus_tag="AMK29_RS23935" class="clusterblast-orf" id="dummy-27_h27_3_61"  />
</g>
<g id="a27_0062"  >
<polygon points="727,90 737,90 742,85 737,80 727,80 727,90 " style="fill:white; stroke-width:1; stroke:black; " description="&lt;b&gt;AMK29_RS23930&lt;/b&gt;&lt;br&gt;MHS family MFS transporter&lt;br&gt;Location: 286185 - 284818" locus_tag="AMK29_RS23930" class="clusterblast-orf" id="dummy-27_h27_3_62"  />
</g>
<g id="a27_0063"  >
<polygon points="743,85 748,80 764,80 764,90 748,90 743,85 " style="fill:white; stroke-width:1; stroke:black; " description="&lt;b&gt;AMK29_RS23925&lt;/b&gt;&lt;br&gt;GAF domain-containing protein&lt;br&gt;Location: 284737 - 282845" locus_tag="AMK29_RS23925" class="clusterblast-orf" id="dummy-27_h27_3_63"  />
</g>
<g id="a27_0064"  >
<polygon points="765,85 770,80 774,80 774,90 770,90 765,85 " style="fill:#15d815; stroke-width:1; stroke:black; " description="&lt;b&gt;AMK29_RS23920&lt;/b&gt;&lt;br&gt;3-hydroxybutyrate dehydrogenase&lt;br&gt;Location: 282754 - 281939&lt;br&gt;&lt;br&gt;&lt;b&gt;BlastP hit with LLPMBPKK_06339&lt;/b&gt;&lt;br&gt;Percentage identity: 37&lt;br&gt;Percentage coverage: 107&lt;br&gt;BLAST bit score: 97&lt;br&gt;E-value: 6.51e-22" locus_tag="AMK29_RS23920" class="clusterblast-orf" id="dummy-27_h27_3_64"  />
</g>
<g id="a27_0065"  >
<polygon points="774,85 779,80 780,80 780,90 779,90 774,85 " style="fill:white; stroke-width:1; stroke:black; " description="&lt;b&gt;AMK29_RS23915&lt;/b&gt;&lt;br&gt;NUDIX domain-containing protein&lt;br&gt;Location: 281883 - 281401" locus_tag="AMK29_RS23915" class="clusterblast-orf" id="dummy-27_h27_3_65"  />
</g>
</svg>
