<svg xmlns="http://www.w3.org/2000/svg" xmlns:xlink="http://www.w3.org/1999/xlink" version="1.1" x="0" y="0" height="230" width="800" viewBox="0 0 800 230" preserveAspectRatio="none"  >
<g label="Query sequence" class="clusterblast-cluster"  >
<text x="5" y="20" class="clusterblast-acc"  >
Query sequence</text>
<line x1="10" y1="35" x2="778.0" y2="35" style="stroke-width:1; stroke:grey; "  />
<polygon points="22,35 27,30 27,30 27,40 27,40 22,35 " style="fill:white; stroke-width:1; stroke:black; " description="&lt;b&gt;LLPMBPKK_00521&lt;/b&gt;&lt;br&gt;FMN reductase&lt;br&gt;Location: 626718 - 627333" locus_tag="LLPMBPKK_00521" class="clusterblast-orf" id="dummy-3_q0_0_all"  />
<polygon points="27,35 32,30 35,30 35,40 32,40 27,35 " style="fill:white; stroke-width:1; stroke:black; " description="&lt;b&gt;LLPMBPKK_00522&lt;/b&gt;&lt;br&gt;LLM class flavin-dependent oxidoreductase&lt;br&gt;Location: 627329 - 628415" locus_tag="LLPMBPKK_00522" class="clusterblast-orf" id="dummy-3_q1_0_all"  />
<polygon points="36,35 41,30 42,30 42,40 41,40 36,35 " style="fill:#d81515; stroke-width:1; stroke:black; " description="&lt;b&gt;LLPMBPKK_00523&lt;/b&gt;&lt;br&gt;non-heme bromoperoxidase BPO-A2&lt;br&gt;Location: 628614 - 629451" locus_tag="LLPMBPKK_00523" class="clusterblast-orf" id="dummy-3_q2_0_all"  />
<polygon points="46,40 48,40 53,35 48,30 46,30 46,40 " style="fill:white; stroke-width:1; stroke:black; " description="&lt;b&gt;LLPMBPKK_00524&lt;/b&gt;&lt;br&gt;MerR family DNA-binding transcriptionalregulator&lt;br&gt;Location: 629924 - 630884" locus_tag="LLPMBPKK_00524" class="clusterblast-orf" id="dummy-3_q3_0_all"  />
<polygon points="54,40 58,35 54,30 54,40 " style="fill:white; stroke-width:1; stroke:black; " description="&lt;b&gt;LLPMBPKK_00525&lt;/b&gt;&lt;br&gt;transcriptional regulator&lt;br&gt;Location: 630968 - 631613" locus_tag="LLPMBPKK_00525" class="clusterblast-orf" id="dummy-3_q4_0_all"  />
<polygon points="61,40 64,35 61,30 61,40 " style="fill:white; stroke-width:1; stroke:black; " description="&lt;b&gt;LLPMBPKK_00526&lt;/b&gt;&lt;br&gt;hypothetical protein&lt;br&gt;Location: 631916 - 632405" locus_tag="LLPMBPKK_00526" class="clusterblast-orf" id="dummy-3_q5_0_all"  />
<polygon points="65,40 65,40 70,35 65,30 65,30 65,40 " style="fill:white; stroke-width:1; stroke:black; " description="&lt;b&gt;LLPMBPKK_00527&lt;/b&gt;&lt;br&gt;class F sortase&lt;br&gt;Location: 632574 - 633225" locus_tag="LLPMBPKK_00527" class="clusterblast-orf" id="dummy-3_q6_0_all"  />
<polygon points="71,40 96,40 101,35 96,30 71,30 71,40 " style="fill:white; stroke-width:1; stroke:black; " description="&lt;b&gt;LLPMBPKK_00528&lt;/b&gt;&lt;br&gt;hypothetical protein&lt;br&gt;Location: 633383 - 637448" locus_tag="LLPMBPKK_00528" class="clusterblast-orf" id="dummy-3_q7_0_all"  />
<polygon points="102,40 105,35 102,30 102,40 " style="fill:white; stroke-width:1; stroke:black; " description="&lt;b&gt;LLPMBPKK_00529&lt;/b&gt;&lt;br&gt;hypothetical protein&lt;br&gt;Location: 637581 - 637950" locus_tag="LLPMBPKK_00529" class="clusterblast-orf" id="dummy-3_q8_0_all"  />
<polygon points="108,40 112,35 108,30 108,40 " style="fill:white; stroke-width:1; stroke:black; " description="&lt;b&gt;LLPMBPKK_00530&lt;/b&gt;&lt;br&gt;hypothetical protein&lt;br&gt;Location: 638304 - 638916" locus_tag="LLPMBPKK_00530" class="clusterblast-orf" id="dummy-3_q9_0_all"  />
<polygon points="113,35 118,30 131,30 131,40 118,40 113,35 " style="fill:#77d815; stroke-width:1; stroke:black; " description="&lt;b&gt;LLPMBPKK_00531&lt;/b&gt;&lt;br&gt;glycoside hydrolase family 65 protein&lt;br&gt;Location: 639041 - 641441" locus_tag="LLPMBPKK_00531" class="clusterblast-orf" id="dummy-3_q10_0_all"  />
<polygon points="131,35 136,30 136,30 136,40 136,40 131,35 " style="fill:#15d8d8; stroke-width:1; stroke:black; " description="&lt;b&gt;LLPMBPKK_00532&lt;/b&gt;&lt;br&gt;hydrolase&lt;br&gt;Location: 641437 - 642181" locus_tag="LLPMBPKK_00532" class="clusterblast-orf" id="dummy-3_q11_0_all"  />
<polygon points="139,35 144,30 146,30 146,40 144,40 139,35 " style="fill:white; stroke-width:1; stroke:black; " description="&lt;b&gt;LLPMBPKK_00533&lt;/b&gt;&lt;br&gt;hypothetical protein&lt;br&gt;Location: 642596 - 643553" locus_tag="LLPMBPKK_00533" class="clusterblast-orf" id="dummy-3_q12_0_all"  />
<polygon points="148,40 148,40 153,35 148,30 148,30 148,40 " style="fill:#7715d8; stroke-width:1; stroke:black; " description="&lt;b&gt;LLPMBPKK_00534&lt;/b&gt;&lt;br&gt;lipoprotein&lt;br&gt;Location: 643768 - 644509" locus_tag="LLPMBPKK_00534" class="clusterblast-orf" id="dummy-3_q13_0_all"  />
<polygon points="155,35 160,30 163,30 163,40 160,40 155,35 " style="fill:#d87715; stroke-width:1; stroke:black; " description="&lt;b&gt;LLPMBPKK_00535&lt;/b&gt;&lt;br&gt;oxidoreductase&lt;br&gt;Location: 644721 - 645858" locus_tag="LLPMBPKK_00535" class="clusterblast-orf" id="dummy-3_q14_0_all"  />
<polygon points="165,40 168,35 165,30 165,40 " style="fill:white; stroke-width:1; stroke:black; " description="&lt;b&gt;LLPMBPKK_00536&lt;/b&gt;&lt;br&gt;hypothetical protein&lt;br&gt;Location: 646074 - 646482" locus_tag="LLPMBPKK_00536" class="clusterblast-orf" id="dummy-3_q15_0_all"  />
<polygon points="169,35 174,30 183,30 183,40 174,40 169,35 " style="fill:#15d815; stroke-width:1; stroke:black; " description="&lt;b&gt;LLPMBPKK_00537&lt;/b&gt;&lt;br&gt;ACP S-malonyltransferase&lt;br&gt;Location: 646632 - 648510" locus_tag="LLPMBPKK_00537" class="clusterblast-orf" id="dummy-3_q16_0_all"  />
<polygon points="183,35 188,30 199,30 199,40 188,40 183,35 " style="fill:#15d815; stroke-width:1; stroke:black; " description="&lt;b&gt;LLPMBPKK_00538&lt;/b&gt;&lt;br&gt;1,4-dihydroxy-2-naphthoyl-CoA synthase&lt;br&gt;Location: 648514 - 650752" locus_tag="LLPMBPKK_00538" class="clusterblast-orf" id="dummy-3_q17_0_all"  />
<polygon points="199,35 204,30 209,30 209,40 204,40 199,35 " style="fill:#1577d8; stroke-width:1; stroke:black; " description="&lt;b&gt;LLPMBPKK_00539&lt;/b&gt;&lt;br&gt;Polyketide biosynthesis3-hydroxy-3-methylglutaryl-ACP synthase PksG&lt;br&gt;Location: 650739 - 652002" locus_tag="LLPMBPKK_00539" class="clusterblast-orf" id="dummy-3_q18_0_all"  />
<polygon points="209,35 214,30 218,30 218,40 214,40 209,35 " style="fill:#15d815; stroke-width:1; stroke:black; " description="&lt;b&gt;LLPMBPKK_00540&lt;/b&gt;&lt;br&gt;3-oxoacyl-ACP synthase&lt;br&gt;Location: 652007 - 653243" locus_tag="LLPMBPKK_00540" class="clusterblast-orf" id="dummy-3_q19_0_all"  />
<polygon points="218,35 220,30 220,40 218,35 " style="fill:#d815d8; stroke-width:1; stroke:black; " description="&lt;b&gt;LLPMBPKK_00541&lt;/b&gt;&lt;br&gt;Polyketide biosynthesis acyl-carrier-proteinAcpK&lt;br&gt;Location: 653244 - 653508" locus_tag="LLPMBPKK_00541" class="clusterblast-orf" id="dummy-3_q20_0_all"  />
<polygon points="220,35 225,30 288,30 288,40 225,40 220,35 " style="fill:#15d815; stroke-width:1; stroke:black; " description="&lt;b&gt;LLPMBPKK_00542&lt;/b&gt;&lt;br&gt;D-alanine--poly(phosphoribitol) ligase subunit 1&lt;br&gt;Location: 653546 - 662720" locus_tag="LLPMBPKK_00542" class="clusterblast-orf" id="dummy-3_q21_0_all"  />
<polygon points="287,35 292,30 343,30 343,40 292,40 287,35 " style="fill:#15d815; stroke-width:1; stroke:black; " description="&lt;b&gt;LLPMBPKK_00543&lt;/b&gt;&lt;br&gt;non-ribosomal peptide synthetase&lt;br&gt;Location: 662716 - 670306" locus_tag="LLPMBPKK_00543" class="clusterblast-orf" id="dummy-3_q22_0_all"  />
<polygon points="343,35 348,30 450,30 450,40 348,40 343,35 " style="fill:#15d815; stroke-width:1; stroke:black; " description="&lt;b&gt;LLPMBPKK_00544&lt;/b&gt;&lt;br&gt;Acyl carrier protein&lt;br&gt;Location: 670302 - 684732" locus_tag="LLPMBPKK_00544" class="clusterblast-orf" id="dummy-3_q23_0_all"  />
<polygon points="450,35 455,30 613,30 613,40 455,40 450,35 " style="fill:#15d815; stroke-width:1; stroke:black; " description="&lt;b&gt;LLPMBPKK_00545&lt;/b&gt;&lt;br&gt;D-alanine--poly(phosphoribitol) ligase subunit 1&lt;br&gt;Location: 684728 - 706898" locus_tag="LLPMBPKK_00545" class="clusterblast-orf" id="dummy-3_q24_0_all"  />
<polygon points="614,35 619,30 655,30 655,40 619,40 614,35 " style="fill:#15d815; stroke-width:1; stroke:black; " description="&lt;b&gt;LLPMBPKK_00546&lt;/b&gt;&lt;br&gt;hypothetical protein&lt;br&gt;Location: 707071 - 712630" locus_tag="LLPMBPKK_00546" class="clusterblast-orf" id="dummy-3_q25_0_all"  />
<polygon points="655,35 660,30 720,30 720,40 660,40 655,35 " style="fill:#15d815; stroke-width:1; stroke:black; " description="&lt;b&gt;LLPMBPKK_00547&lt;/b&gt;&lt;br&gt;hypothetical protein&lt;br&gt;Location: 712613 - 721484" locus_tag="LLPMBPKK_00547" class="clusterblast-orf" id="dummy-3_q26_0_all"  />
<polygon points="723,40 724,40 729,35 724,30 723,30 723,40 " style="fill:#d8d815; stroke-width:1; stroke:black; " description="&lt;b&gt;LLPMBPKK_00548&lt;/b&gt;&lt;br&gt;thioesterase&lt;br&gt;Location: 721801 - 722650" locus_tag="LLPMBPKK_00548" class="clusterblast-orf" id="dummy-3_q27_0_all"  />
<polygon points="730,40 735,40 740,35 735,30 730,30 730,40 " style="fill:#15d877; stroke-width:1; stroke:black; " description="&lt;b&gt;LLPMBPKK_00549&lt;/b&gt;&lt;br&gt;amidase&lt;br&gt;Location: 722786 - 724211" locus_tag="LLPMBPKK_00549" class="clusterblast-orf" id="dummy-3_q28_0_all"  />
<polygon points="742,40 747,40 752,35 747,30 742,30 742,40 " style="fill:#1515d8; stroke-width:1; stroke:black; " description="&lt;b&gt;LLPMBPKK_00550&lt;/b&gt;&lt;br&gt;Pentapeptide repeats (8 copies)&lt;br&gt;Location: 724442 - 725738" locus_tag="LLPMBPKK_00550" class="clusterblast-orf" id="dummy-3_q29_0_all"  />
<polygon points="751,35 756,30 757,30 757,40 756,40 751,35 " style="fill:#d81577; stroke-width:1; stroke:black; " description="&lt;b&gt;LLPMBPKK_00551&lt;/b&gt;&lt;br&gt;4'-phosphopantetheinyl transferase superfamilyprotein&lt;br&gt;Location: 725715 - 726438" locus_tag="LLPMBPKK_00551" class="clusterblast-orf" id="dummy-3_q30_0_all"  />
</g>
<g label="NZ_CP015515" description="NZ_CP015515 (814068-921609): Rathayibacter tritici strain NCPPB 1953 chromoso... (28% of genes show similarity), NRPS,PKS-like,T3PKS,transAT-PKS,transAT-PKS-like" class="clusterblast-cluster"  >
<text x="5" y="70" class="clusterblast-acc"  >
<a xlink:href="https://antismash-db.secondarymetabolites.org/area.html?record=NZ_CP015515&amp;start=814068&amp;end=921609" target="_blank">NZ_CP015515 (814068-921609)</a>: Rathayibacter tritici strain NCPPB 1953 chromoso... (28% of genes show similarity), NRPS,PKS-like,T3PKS,transAT-PKS,transAT-PKS-like</text>
<line x1="10" y1="85" x2="778.0" y2="85" style="stroke-width:1; stroke:grey; "  />
</g>
<g id="a3_000"  >
<polygon points="0,90 2,90 7,85 2,80 0,80 0,90 " style="fill:white; stroke-width:1; stroke:black; " description="&lt;b&gt;A6122_RS04080&lt;/b&gt;&lt;br&gt;putative sulfate exporter family transporter&lt;br&gt;Location: 920218 - 919217" locus_tag="A6122_RS04080" class="clusterblast-orf" id="dummy-3_h3_1_0"  />
</g>
<g id="a3_001"  >
<polygon points="7,90 12,90 17,85 12,80 7,80 7,90 " style="fill:white; stroke-width:1; stroke:black; " description="&lt;b&gt;A6122_RS04075&lt;/b&gt;&lt;br&gt;O-acetylhomoserine aminocarboxypropyltransferase/cysteine synthase&lt;br&gt;Location: 919148 - 917784" locus_tag="A6122_RS04075" class="clusterblast-orf" id="dummy-3_h3_1_1"  />
</g>
<g id="a3_002"  >
<polygon points="17,90 17,90 22,85 17,80 17,80 17,90 " style="fill:white; stroke-width:1; stroke:black; " description="&lt;b&gt;A6122_RS04070&lt;/b&gt;&lt;br&gt;CoA-binding protein&lt;br&gt;Location: 917781 - 917212" locus_tag="A6122_RS04070" class="clusterblast-orf" id="dummy-3_h3_1_2"  />
</g>
<g id="a3_003"  >
<polygon points="25,90 28,85 25,80 25,90 " style="fill:white; stroke-width:1; stroke:black; " description="&lt;b&gt;A6122_RS16940&lt;/b&gt;&lt;br&gt;peptidoglycan-binding protein&lt;br&gt;Location: 916697 - 916377" locus_tag="A6122_RS16940" class="clusterblast-orf" id="dummy-3_h3_1_3"  />
</g>
<g id="a3_004"  >
<polygon points="29,90 30,85 29,80 29,90 " style="fill:white; stroke-width:1; stroke:black; " description="&lt;b&gt;A6122_RS16935&lt;/b&gt;&lt;br&gt;peptidoglycan-binding protein&lt;br&gt;Location: 916271 - 916125" locus_tag="A6122_RS16935" class="clusterblast-orf" id="dummy-3_h3_1_4"  />
</g>
<g id="a3_005"  >
<polygon points="31,90 33,85 31,80 31,90 " style="fill:white; stroke-width:1; stroke:black; " description="&lt;b&gt;A6122_RS16930&lt;/b&gt;&lt;br&gt;hypothetical protein&lt;br&gt;Location: 916007 - 915702" locus_tag="A6122_RS16930" class="clusterblast-orf" id="dummy-3_h3_1_5"  />
</g>
<g id="a3_006"  >
<polygon points="33,90 36,90 41,85 36,80 33,80 33,90 " style="fill:white; stroke-width:1; stroke:black; " description="&lt;b&gt;A6122_RS04060&lt;/b&gt;&lt;br&gt;peptidoglycan-binding protein&lt;br&gt;Location: 915669 - 914632" locus_tag="A6122_RS04060" class="clusterblast-orf" id="dummy-3_h3_1_6"  />
</g>
<g id="a3_007"  >
<polygon points="41,90 46,90 51,85 46,80 41,80 41,90 " style="fill:white; stroke-width:1; stroke:black; " description="&lt;b&gt;A6122_RS04055&lt;/b&gt;&lt;br&gt;L-serine ammonia-lyase&lt;br&gt;Location: 914549 - 913170" locus_tag="A6122_RS04055" class="clusterblast-orf" id="dummy-3_h3_1_7"  />
</g>
<g id="a3_008"  >
<polygon points="52,90 54,90 59,85 54,80 52,80 52,90 " style="fill:white; stroke-width:1; stroke:black; " description="&lt;b&gt;A6122_RS04050&lt;/b&gt;&lt;br&gt;sulfurtransferase&lt;br&gt;Location: 913069 - 912182" locus_tag="A6122_RS04050" class="clusterblast-orf" id="dummy-3_h3_1_8"  />
</g>
<g id="a3_009"  >
<polygon points="59,85 64,80 72,80 72,90 64,90 59,85 " style="fill:white; stroke-width:1; stroke:black; " description="&lt;b&gt;A6122_RS04045&lt;/b&gt;&lt;br&gt;thioredoxin domain-containing protein&lt;br&gt;Location: 912195 - 910351" locus_tag="A6122_RS04045" class="clusterblast-orf" id="dummy-3_h3_1_9"  />
</g>
<g id="a3_0010"  >
<polygon points="73,85 75,80 75,90 73,85 " style="fill:white; stroke-width:1; stroke:black; " description="&lt;b&gt;A6122_RS16925&lt;/b&gt;&lt;br&gt;hypothetical protein&lt;br&gt;Location: 910273 - 910022" locus_tag="A6122_RS16925" class="clusterblast-orf" id="dummy-3_h3_1_10"  />
</g>
<g id="a3_0011"  >
<polygon points="75,90 99,90 104,85 99,80 75,80 75,90 " style="fill:white; stroke-width:1; stroke:black; " description="&lt;b&gt;A6122_RS04035&lt;/b&gt;&lt;br&gt;ATP-dependent RNA helicase HrpA&lt;br&gt;Location: 909900 - 905986" locus_tag="A6122_RS04035" class="clusterblast-orf" id="dummy-3_h3_1_11"  />
</g>
<g id="a3_0012"  >
<polygon points="107,90 110,85 107,80 107,90 " style="fill:white; stroke-width:1; stroke:black; " description="&lt;b&gt;A6122_RS04030&lt;/b&gt;&lt;br&gt;hypothetical protein&lt;br&gt;Location: 905600 - 905265" locus_tag="A6122_RS04030" class="clusterblast-orf" id="dummy-3_h3_1_12"  />
</g>
<g id="a3_0013"  >
<polygon points="110,85 115,80 120,80 120,90 115,90 110,85 " style="fill:white; stroke-width:1; stroke:black; " description="&lt;b&gt;A6122_RS04025&lt;/b&gt;&lt;br&gt;IS256 family transposase&lt;br&gt;Location: 905268 - 903907" locus_tag="A6122_RS04025" class="clusterblast-orf" id="dummy-3_h3_1_13"  />
</g>
<g id="a3_0014"  >
<polygon points="120,85 121,80 121,90 120,85 " style="fill:white; stroke-width:1; stroke:black; " description="&lt;b&gt;A6122_RS04020&lt;/b&gt;&lt;br&gt;hypothetical protein&lt;br&gt;Location: 903898 - 903698" locus_tag="A6122_RS04020" class="clusterblast-orf" id="dummy-3_h3_1_14"  />
</g>
<g id="a3_0015"  >
<polygon points="123,90 123,90 128,85 123,80 123,80 123,90 " style="fill:white; stroke-width:1; stroke:black; " description="&lt;b&gt;A6122_RS04015&lt;/b&gt;&lt;br&gt;IS3 family transposase&lt;br&gt;Location: 903464 - 902751" locus_tag="A6122_RS04015" class="clusterblast-orf" id="dummy-3_h3_1_15"  />
</g>
<g id="a3_0016"  >
<polygon points="131,90 133,85 131,80 131,90 " style="fill:white; stroke-width:1; stroke:black; " description="&lt;b&gt;A6122_RS04010&lt;/b&gt;&lt;br&gt;LysR family transcriptional regulator&lt;br&gt;Location: 902335 - 902087" locus_tag="A6122_RS04010" class="clusterblast-orf" id="dummy-3_h3_1_16"  />
</g>
<g id="a3_0017"  >
<polygon points="133,85 135,80 135,90 133,85 " style="fill:white; stroke-width:1; stroke:black; " description="&lt;b&gt;A6122_RS04005&lt;/b&gt;&lt;br&gt;hypothetical protein&lt;br&gt;Location: 902026 - 901847" locus_tag="A6122_RS04005" class="clusterblast-orf" id="dummy-3_h3_1_17"  />
</g>
<g id="a3_0018"  >
<polygon points="137,85 142,80 151,80 151,90 142,90 137,85 " style="fill:#15d815; stroke-width:1; stroke:black; " description="&lt;b&gt;A6122_RS04000&lt;/b&gt;&lt;br&gt;ACP S-malonyltransferase&lt;br&gt;Location: 901609 - 899693&lt;br&gt;&lt;br&gt;&lt;b&gt;BlastP hit with LLPMBPKK_00537&lt;/b&gt;&lt;br&gt;Percentage identity: 46&lt;br&gt;Percentage coverage: 103&lt;br&gt;BLAST bit score: 520&lt;br&gt;E-value: 1.39e-176" locus_tag="A6122_RS04000" class="clusterblast-orf" id="dummy-3_h3_1_18"  />
</g>
<g id="a3_0019"  >
<polygon points="151,85 156,80 167,80 167,90 156,90 151,85 " style="fill:#15d815; stroke-width:1; stroke:black; " description="&lt;b&gt;A6122_RS03995&lt;/b&gt;&lt;br&gt;enoyl-CoA hydratase/isomerase&lt;br&gt;Location: 899696 - 897504&lt;br&gt;&lt;br&gt;&lt;b&gt;BlastP hit with LLPMBPKK_00538&lt;/b&gt;&lt;br&gt;Percentage identity: 54&lt;br&gt;Percentage coverage: 97&lt;br&gt;BLAST bit score: 691&lt;br&gt;E-value: 3.61e-240" locus_tag="A6122_RS03995" class="clusterblast-orf" id="dummy-3_h3_1_19"  />
</g>
<g id="a3_0020"  >
<polygon points="167,85 172,80 176,80 176,90 172,90 167,85 " style="fill:#1577d8; stroke-width:1; stroke:black; " description="&lt;b&gt;A6122_RS03990&lt;/b&gt;&lt;br&gt;hydroxymethylglutaryl-CoA synthase family protein&lt;br&gt;Location: 897513 - 896257&lt;br&gt;&lt;br&gt;&lt;b&gt;BlastP hit with LLPMBPKK_00539&lt;/b&gt;&lt;br&gt;Percentage identity: 62&lt;br&gt;Percentage coverage: 100&lt;br&gt;BLAST bit score: 515&lt;br&gt;E-value: 4.56e-181" locus_tag="A6122_RS03990" class="clusterblast-orf" id="dummy-3_h3_1_20"  />
</g>
<g id="a3_0021"  >
<polygon points="176,85 181,80 185,80 185,90 181,90 176,85 " style="fill:#15d815; stroke-width:1; stroke:black; " description="&lt;b&gt;A6122_RS03985&lt;/b&gt;&lt;br&gt;polyketide beta-ketoacyl:ACP synthase&lt;br&gt;Location: 896260 - 894974&lt;br&gt;&lt;br&gt;&lt;b&gt;BlastP hit with LLPMBPKK_00540&lt;/b&gt;&lt;br&gt;Percentage identity: 59&lt;br&gt;Percentage coverage: 99&lt;br&gt;BLAST bit score: 443&lt;br&gt;E-value: 1.57e-152" locus_tag="A6122_RS03985" class="clusterblast-orf" id="dummy-3_h3_1_21"  />
</g>
<g id="a3_0022"  >
<polygon points="185,85 187,80 187,90 185,85 " style="fill:#d815d8; stroke-width:1; stroke:black; " description="&lt;b&gt;A6122_RS03980&lt;/b&gt;&lt;br&gt;hypothetical protein&lt;br&gt;Location: 894981 - 894718&lt;br&gt;&lt;br&gt;&lt;b&gt;BlastP hit with LLPMBPKK_00541&lt;/b&gt;&lt;br&gt;Percentage identity: 55&lt;br&gt;Percentage coverage: 86&lt;br&gt;BLAST bit score: 77&lt;br&gt;E-value: 2.01e-18" locus_tag="A6122_RS03980" class="clusterblast-orf" id="dummy-3_h3_1_22"  />
</g>
<g id="a3_0023"  >
<polygon points="187,85 192,80 255,80 255,90 192,90 187,85 " style="fill:#15d815; stroke-width:1; stroke:black; " description="&lt;b&gt;A6122_RS03975&lt;/b&gt;&lt;br&gt;non-ribosomal peptide synthetase&lt;br&gt;Location: 894721 - 885506&lt;br&gt;&lt;br&gt;&lt;b&gt;BlastP hit with LLPMBPKK_00542&lt;/b&gt;&lt;br&gt;Percentage identity: 49&lt;br&gt;Percentage coverage: 101&lt;br&gt;BLAST bit score: 2552&lt;br&gt;E-value: 0.0&lt;br&gt;&lt;br&gt;&lt;b&gt;BlastP hit with LLPMBPKK_00543&lt;/b&gt;&lt;br&gt;Percentage identity: 37&lt;br&gt;Percentage coverage: 102&lt;br&gt;BLAST bit score: 1314&lt;br&gt;E-value: 0.0" locus_tag="A6122_RS03975" class="clusterblast-orf" id="dummy-3_h3_1_23"  />
</g>
<g id="a3_0024"  >
<polygon points="255,85 260,80 312,80 312,90 260,90 255,85 " style="fill:#15d815; stroke-width:1; stroke:black; " description="&lt;b&gt;A6122_RS03970&lt;/b&gt;&lt;br&gt;non-ribosomal peptide synthetase&lt;br&gt;Location: 885509 - 877836&lt;br&gt;&lt;br&gt;&lt;b&gt;BlastP hit with LLPMBPKK_00542&lt;/b&gt;&lt;br&gt;Percentage identity: 40&lt;br&gt;Percentage coverage: 68&lt;br&gt;BLAST bit score: 1227&lt;br&gt;E-value: 0.0&lt;br&gt;&lt;br&gt;&lt;b&gt;BlastP hit with LLPMBPKK_00543&lt;/b&gt;&lt;br&gt;Percentage identity: 48&lt;br&gt;Percentage coverage: 102&lt;br&gt;BLAST bit score: 2122&lt;br&gt;E-value: 0.0&lt;br&gt;&lt;br&gt;&lt;b&gt;BlastP hit with LLPMBPKK_00545&lt;/b&gt;&lt;br&gt;Percentage identity: 36&lt;br&gt;Percentage coverage: 14&lt;br&gt;BLAST bit score: 506&lt;br&gt;E-value: 1.05e-141" locus_tag="A6122_RS03970" class="clusterblast-orf" id="dummy-3_h3_1_24"  />
</g>
<g id="a3_0025"  >
<polygon points="312,85 317,80 409,80 409,90 317,90 312,85 " style="fill:#15d815; stroke-width:1; stroke:black; " description="&lt;b&gt;A6122_RS16395&lt;/b&gt;&lt;br&gt;SDR family NAD(P)-dependent oxidoreductase&lt;br&gt;Location: 877839 - 864664&lt;br&gt;&lt;br&gt;&lt;b&gt;BlastP hit with LLPMBPKK_00544&lt;/b&gt;&lt;br&gt;Percentage identity: 44&lt;br&gt;Percentage coverage: 100&lt;br&gt;BLAST bit score: 3286&lt;br&gt;E-value: 0.0&lt;br&gt;&lt;br&gt;&lt;b&gt;BlastP hit with LLPMBPKK_00545&lt;/b&gt;&lt;br&gt;Percentage identity: 33&lt;br&gt;Percentage coverage: 26&lt;br&gt;BLAST bit score: 712&lt;br&gt;E-value: 4.4e-203&lt;br&gt;&lt;br&gt;&lt;b&gt;BlastP hit with LLPMBPKK_00546&lt;/b&gt;&lt;br&gt;Percentage identity: 33&lt;br&gt;Percentage coverage: 91&lt;br&gt;BLAST bit score: 643&lt;br&gt;E-value: 5.01e-190&lt;br&gt;&lt;br&gt;&lt;b&gt;BlastP hit with LLPMBPKK_00547&lt;/b&gt;&lt;br&gt;Percentage identity: 34&lt;br&gt;Percentage coverage: 78&lt;br&gt;BLAST bit score: 867&lt;br&gt;E-value: 2.34e-256" locus_tag="A6122_RS16395" class="clusterblast-orf" id="dummy-3_h3_1_25"  />
</g>
<g id="a3_0026"  >
<polygon points="409,85 414,80 552,80 552,90 414,90 409,85 " style="fill:#15d815; stroke-width:1; stroke:black; " description="&lt;b&gt;A6122_RS16390&lt;/b&gt;&lt;br&gt;non-ribosomal peptide synthetase&lt;br&gt;Location: 864550 - 845258&lt;br&gt;&lt;br&gt;&lt;b&gt;BlastP hit with LLPMBPKK_00545&lt;/b&gt;&lt;br&gt;Percentage identity: 39&lt;br&gt;Percentage coverage: 101&lt;br&gt;BLAST bit score: 4150&lt;br&gt;E-value: 0.0&lt;br&gt;&lt;br&gt;&lt;b&gt;BlastP hit with LLPMBPKK_00546&lt;/b&gt;&lt;br&gt;Percentage identity: 34&lt;br&gt;Percentage coverage: 41&lt;br&gt;BLAST bit score: 340&lt;br&gt;E-value: 7.36e-92" locus_tag="A6122_RS16390" class="clusterblast-orf" id="dummy-3_h3_1_26"  />
</g>
<g id="a3_0027"  >
<polygon points="552,85 557,80 634,80 634,90 557,90 552,85 " style="fill:#15d815; stroke-width:1; stroke:black; " description="&lt;b&gt;A6122_RS03955&lt;/b&gt;&lt;br&gt;KR domain-containing protein&lt;br&gt;Location: 845261 - 834069&lt;br&gt;&lt;br&gt;&lt;b&gt;BlastP hit with LLPMBPKK_00544&lt;/b&gt;&lt;br&gt;Percentage identity: 31&lt;br&gt;Percentage coverage: 72&lt;br&gt;BLAST bit score: 1052&lt;br&gt;E-value: 1.91e-312&lt;br&gt;&lt;br&gt;&lt;b&gt;BlastP hit with LLPMBPKK_00546&lt;/b&gt;&lt;br&gt;Percentage identity: 39&lt;br&gt;Percentage coverage: 54&lt;br&gt;BLAST bit score: 514&lt;br&gt;E-value: 1.6e-147&lt;br&gt;&lt;br&gt;&lt;b&gt;BlastP hit with LLPMBPKK_00547&lt;/b&gt;&lt;br&gt;Percentage identity: 44&lt;br&gt;Percentage coverage: 101&lt;br&gt;BLAST bit score: 2046&lt;br&gt;E-value: 0.0" locus_tag="A6122_RS03955" class="clusterblast-orf" id="dummy-3_h3_1_27"  />
</g>
<g id="a3_0028"  >
<polygon points="636,90 636,90 641,85 636,80 636,80 636,90 " style="fill:#d8d815; stroke-width:1; stroke:black; " description="&lt;b&gt;A6122_RS03950&lt;/b&gt;&lt;br&gt;alpha/beta fold hydrolase&lt;br&gt;Location: 833855 - 833097&lt;br&gt;&lt;br&gt;&lt;b&gt;BlastP hit with LLPMBPKK_00548&lt;/b&gt;&lt;br&gt;Percentage identity: 51&lt;br&gt;Percentage coverage: 84&lt;br&gt;BLAST bit score: 241&lt;br&gt;E-value: 9.74e-78" locus_tag="A6122_RS03950" class="clusterblast-orf" id="dummy-3_h3_1_28"  />
</g>
<g id="a3_0029"  >
<polygon points="641,85 646,80 646,80 646,90 646,90 641,85 " style="fill:#d81577; stroke-width:1; stroke:black; " description="&lt;b&gt;A6122_RS03945&lt;/b&gt;&lt;br&gt;4'-phosphopantetheinyl transferase superfamily protein&lt;br&gt;Location: 833110 - 832457&lt;br&gt;&lt;br&gt;&lt;b&gt;BlastP hit with LLPMBPKK_00551&lt;/b&gt;&lt;br&gt;Percentage identity: 54&lt;br&gt;Percentage coverage: 87&lt;br&gt;BLAST bit score: 209&lt;br&gt;E-value: 1.84e-66" locus_tag="A6122_RS03945" class="clusterblast-orf" id="dummy-3_h3_1_29"  />
</g>
<g id="a3_0030"  >
<polygon points="646,85 651,80 652,80 652,90 651,90 646,85 " style="fill:white; stroke-width:1; stroke:black; " description="&lt;b&gt;A6122_RS03940&lt;/b&gt;&lt;br&gt;metallophosphoesterase&lt;br&gt;Location: 832439 - 831597" locus_tag="A6122_RS03940" class="clusterblast-orf" id="dummy-3_h3_1_30"  />
</g>
<g id="a3_0031"  >
<polygon points="653,90 659,90 664,85 659,80 653,80 653,90 " style="fill:#15d877; stroke-width:1; stroke:black; " description="&lt;b&gt;A6122_RS03935&lt;/b&gt;&lt;br&gt;amidase&lt;br&gt;Location: 831545 - 830040&lt;br&gt;&lt;br&gt;&lt;b&gt;BlastP hit with LLPMBPKK_00549&lt;/b&gt;&lt;br&gt;Percentage identity: 62&lt;br&gt;Percentage coverage: 99&lt;br&gt;BLAST bit score: 554&lt;br&gt;E-value: 2.99e-194" locus_tag="A6122_RS03935" class="clusterblast-orf" id="dummy-3_h3_1_31"  />
</g>
<g id="a3_0032"  >
<polygon points="664,85 669,80 670,80 670,90 669,90 664,85 " style="fill:#1515d8; stroke-width:1; stroke:black; " description="&lt;b&gt;A6122_RS03930&lt;/b&gt;&lt;br&gt;pentapeptide repeat-containing protein&lt;br&gt;Location: 830029 - 829169&lt;br&gt;&lt;br&gt;&lt;b&gt;BlastP hit with LLPMBPKK_00550&lt;/b&gt;&lt;br&gt;Percentage identity: 58&lt;br&gt;Percentage coverage: 64&lt;br&gt;BLAST bit score: 210&lt;br&gt;E-value: 4.39e-63" locus_tag="A6122_RS03930" class="clusterblast-orf" id="dummy-3_h3_1_32"  />
</g>
<g id="a3_0033"  >
<polygon points="672,90 676,85 672,80 672,90 " style="fill:white; stroke-width:1; stroke:black; " description="&lt;b&gt;A6122_RS03925&lt;/b&gt;&lt;br&gt;hypothetical protein&lt;br&gt;Location: 828912 - 828421" locus_tag="A6122_RS03925" class="clusterblast-orf" id="dummy-3_h3_1_33"  />
</g>
<g id="a3_0034"  >
<polygon points="679,90 681,85 679,80 679,90 " style="fill:white; stroke-width:1; stroke:black; " description="&lt;b&gt;A6122_RS03920&lt;/b&gt;&lt;br&gt;hypothetical protein&lt;br&gt;Location: 827955 - 827707" locus_tag="A6122_RS03920" class="clusterblast-orf" id="dummy-3_h3_1_34"  />
</g>
<g id="a3_0035"  >
<polygon points="682,90 685,90 690,85 685,80 682,80 682,90 " style="fill:white; stroke-width:1; stroke:black; " description="&lt;b&gt;A6122_RS03915&lt;/b&gt;&lt;br&gt;hypothetical protein&lt;br&gt;Location: 827580 - 826447" locus_tag="A6122_RS03915" class="clusterblast-orf" id="dummy-3_h3_1_35"  />
</g>
<g id="a3_0036"  >
<polygon points="690,85 692,80 692,90 690,85 " style="fill:white; stroke-width:1; stroke:black; " description="&lt;b&gt;A6122_RS15530&lt;/b&gt;&lt;br&gt;hypothetical protein&lt;br&gt;Location: 826443 - 826255" locus_tag="A6122_RS15530" class="clusterblast-orf" id="dummy-3_h3_1_36"  />
</g>
<g id="a3_0037"  >
<polygon points="695,90 699,85 695,80 695,90 " style="fill:white; stroke-width:1; stroke:black; " description="&lt;b&gt;A6122_RS03910&lt;/b&gt;&lt;br&gt;helix-turn-helix transcriptional regulator&lt;br&gt;Location: 825819 - 825244" locus_tag="A6122_RS03910" class="clusterblast-orf" id="dummy-3_h3_1_37"  />
</g>
<g id="a3_0038"  >
<polygon points="700,90 703,85 700,80 700,90 " style="fill:white; stroke-width:1; stroke:black; " description="&lt;b&gt;A6122_RS03905&lt;/b&gt;&lt;br&gt;hypothetical protein&lt;br&gt;Location: 825151 - 824633" locus_tag="A6122_RS03905" class="clusterblast-orf" id="dummy-3_h3_1_38"  />
</g>
<g id="a3_0039"  >
<polygon points="705,85 706,80 706,90 705,85 " style="fill:white; stroke-width:1; stroke:black; " description="&lt;b&gt;A6122_RS16920&lt;/b&gt;&lt;br&gt;hypothetical protein&lt;br&gt;Location: 824444 - 824298" locus_tag="A6122_RS16920" class="clusterblast-orf" id="dummy-3_h3_1_39"  />
</g>
<g id="a3_0040"  >
<polygon points="708,90 709,90 714,85 709,80 708,80 708,90 " style="fill:white; stroke-width:1; stroke:black; " description="&lt;b&gt;A6122_RS03900&lt;/b&gt;&lt;br&gt;hypothetical protein&lt;br&gt;Location: 823978 - 823160" locus_tag="A6122_RS03900" class="clusterblast-orf" id="dummy-3_h3_1_40"  />
</g>
<g id="a3_0041"  >
<polygon points="718,85 723,80 723,80 723,90 723,90 718,85 " style="fill:white; stroke-width:1; stroke:black; " description="&lt;b&gt;A6122_RS03895&lt;/b&gt;&lt;br&gt;transposase&lt;br&gt;Location: 822718 - 821963" locus_tag="A6122_RS03895" class="clusterblast-orf" id="dummy-3_h3_1_41"  />
</g>
<g id="a3_0042"  >
<polygon points="724,85 729,80 729,80 729,90 729,90 724,85 " style="fill:white; stroke-width:1; stroke:black; " description="&lt;b&gt;A6122_RS03890&lt;/b&gt;&lt;br&gt;transposase&lt;br&gt;Location: 821838 - 821146" locus_tag="A6122_RS03890" class="clusterblast-orf" id="dummy-3_h3_1_42"  />
</g>
<g id="a3_0043"  >
<polygon points="734,90 738,85 734,80 734,90 " style="fill:white; stroke-width:1; stroke:black; " description="&lt;b&gt;A6122_RS03885&lt;/b&gt;&lt;br&gt;hypothetical protein&lt;br&gt;Location: 820527 - 819985" locus_tag="A6122_RS03885" class="clusterblast-orf" id="dummy-3_h3_1_43"  />
</g>
<g id="a3_0044"  >
<polygon points="738,90 751,90 756,85 751,80 738,80 738,90 " style="fill:white; stroke-width:1; stroke:black; " description="&lt;b&gt;A6122_RS03880&lt;/b&gt;&lt;br&gt;phosphoketolase family protein&lt;br&gt;Location: 819916 - 817442" locus_tag="A6122_RS03880" class="clusterblast-orf" id="dummy-3_h3_1_44"  />
</g>
<g id="a3_0045"  >
<polygon points="759,85 762,80 762,90 759,85 " style="fill:white; stroke-width:1; stroke:black; " description="&lt;b&gt;A6122_RS03875&lt;/b&gt;&lt;br&gt;HNH endonuclease&lt;br&gt;Location: 817146 - 816649" locus_tag="A6122_RS03875" class="clusterblast-orf" id="dummy-3_h3_1_45"  />
</g>
<g id="a3_0046"  >
<polygon points="762,85 764,80 764,90 762,85 " style="fill:white; stroke-width:1; stroke:black; " description="&lt;b&gt;A6122_RS03870&lt;/b&gt;&lt;br&gt;hypothetical protein&lt;br&gt;Location: 816649 - 816413" locus_tag="A6122_RS03870" class="clusterblast-orf" id="dummy-3_h3_1_46"  />
</g>
<g id="a3_0047"  >
<polygon points="765,85 770,80 771,80 771,90 770,90 765,85 " style="fill:white; stroke-width:1; stroke:black; " description="&lt;b&gt;A6122_RS03865&lt;/b&gt;&lt;br&gt;C40 family peptidase&lt;br&gt;Location: 816231 - 815527" locus_tag="A6122_RS03865" class="clusterblast-orf" id="dummy-3_h3_1_47"  />
</g>
<g id="a3_0048"  >
<polygon points="774,85 779,80 780,80 780,90 779,90 774,85 " style="fill:white; stroke-width:1; stroke:black; " description="&lt;b&gt;A6122_RS03860&lt;/b&gt;&lt;br&gt;metal-dependent transcriptional regulator&lt;br&gt;Location: 815001 - 814309" locus_tag="A6122_RS03860" class="clusterblast-orf" id="dummy-3_h3_1_48"  />
</g>
</svg>
