<svg xmlns="http://www.w3.org/2000/svg" xmlns:xlink="http://www.w3.org/1999/xlink" version="1.1" x="0" y="0" height="230" width="800" viewBox="0 0 800 230" preserveAspectRatio="none"  >
<g label="Query sequence" class="clusterblast-cluster"  >
<text x="5" y="20" class="clusterblast-acc"  >
Query sequence</text>
<line x1="10" y1="35" x2="778.0" y2="35" style="stroke-width:1; stroke:grey; "  />
<polygon points="243,35 247,30 247,40 243,35 " style="fill:#d81515; stroke-width:1; stroke:black; " description="&lt;b&gt;LLPMBPKK_04016&lt;/b&gt;&lt;br&gt;TrmH family RNA methyltransferase&lt;br&gt;Location: 4616085 - 4616826" locus_tag="LLPMBPKK_04016" class="clusterblast-orf" id="dummy-18_q0_0_all"  />
<polygon points="247,35 252,30 255,30 255,40 252,40 247,35 " style="fill:#58d815; stroke-width:1; stroke:black; " description="&lt;b&gt;LLPMBPKK_04017&lt;/b&gt;&lt;br&gt;HTTM domain-containing protein&lt;br&gt;Location: 4616822 - 4618034" locus_tag="LLPMBPKK_04017" class="clusterblast-orf" id="dummy-18_q1_0_all"  />
<polygon points="255,35 260,30 261,30 261,40 260,40 255,35 " style="fill:#15c4d8; stroke-width:1; stroke:black; " description="&lt;b&gt;LLPMBPKK_04018&lt;/b&gt;&lt;br&gt;hypothetical protein&lt;br&gt;Location: 4618030 - 4618855" locus_tag="LLPMBPKK_04018" class="clusterblast-orf" id="dummy-18_q2_0_all"  />
<polygon points="264,40 265,40 270,35 265,30 264,30 264,40 " style="fill:#8115d8; stroke-width:1; stroke:black; " description="&lt;b&gt;LLPMBPKK_04019&lt;/b&gt;&lt;br&gt;1,2-phenylacetyl-CoA epoxidase subunit A&lt;br&gt;Location: 4619266 - 4620283" locus_tag="LLPMBPKK_04019" class="clusterblast-orf" id="dummy-18_q3_0_all"  />
<polygon points="270,40 272,35 270,30 270,40 " style="fill:#d83e15; stroke-width:1; stroke:black; " description="&lt;b&gt;LLPMBPKK_04020&lt;/b&gt;&lt;br&gt;1,2-phenylacetyl-CoA epoxidase subunit B&lt;br&gt;Location: 4620279 - 4620567" locus_tag="LLPMBPKK_04020" class="clusterblast-orf" id="dummy-18_q4_0_all"  />
<polygon points="272,40 272,40 277,35 272,30 272,30 272,40 " style="fill:#30d815; stroke-width:1; stroke:black; " description="&lt;b&gt;LLPMBPKK_04021&lt;/b&gt;&lt;br&gt;phenylacetate-CoA oxygenase subunit PaaI&lt;br&gt;Location: 4620563 - 4621316" locus_tag="LLPMBPKK_04021" class="clusterblast-orf" id="dummy-18_q5_0_all"  />
<polygon points="277,40 281,35 277,30 277,40 " style="fill:#159cd8; stroke-width:1; stroke:black; " description="&lt;b&gt;LLPMBPKK_04022&lt;/b&gt;&lt;br&gt;phenylacetate-CoA oxygenase subunit PaaJ&lt;br&gt;Location: 4621309 - 4621843" locus_tag="LLPMBPKK_04022" class="clusterblast-orf" id="dummy-18_q6_0_all"  />
<polygon points="281,40 283,40 288,35 283,30 281,30 281,40 " style="fill:#a915d8; stroke-width:1; stroke:black; " description="&lt;b&gt;LLPMBPKK_04023&lt;/b&gt;&lt;br&gt;2Fe-2S iron-sulfur cluster bindingdomain-containing protein&lt;br&gt;Location: 4621842 - 4622907" locus_tag="LLPMBPKK_04023" class="clusterblast-orf" id="dummy-18_q7_0_all"  />
<polygon points="289,40 292,40 297,35 292,30 289,30 289,40 " style="fill:#d86615; stroke-width:1; stroke:black; " description="&lt;b&gt;LLPMBPKK_04024&lt;/b&gt;&lt;br&gt;acyl-CoA dehydrogenase&lt;br&gt;Location: 4623126 - 4624269" locus_tag="LLPMBPKK_04024" class="clusterblast-orf" id="dummy-18_q8_0_all"  />
<polygon points="297,35 299,30 299,40 297,35 " style="fill:#15d823; stroke-width:1; stroke:black; " description="&lt;b&gt;LLPMBPKK_04025&lt;/b&gt;&lt;br&gt;rhodanese-like domain-containing protein&lt;br&gt;Location: 4624288 - 4624618" locus_tag="LLPMBPKK_04025" class="clusterblast-orf" id="dummy-18_q9_0_all"  />
<polygon points="299,35 304,30 306,30 306,40 304,40 299,35 " style="fill:#1573d8; stroke-width:1; stroke:black; " description="&lt;b&gt;LLPMBPKK_04026&lt;/b&gt;&lt;br&gt;hypothetical protein&lt;br&gt;Location: 4624666 - 4625623" locus_tag="LLPMBPKK_04026" class="clusterblast-orf" id="dummy-18_q10_0_all"  />
<polygon points="306,35 311,30 315,30 315,40 311,40 306,35 " style="fill:#d215d8; stroke-width:1; stroke:black; " description="&lt;b&gt;LLPMBPKK_04027&lt;/b&gt;&lt;br&gt;hypothetical protein&lt;br&gt;Location: 4625648 - 4627106" locus_tag="LLPMBPKK_04027" class="clusterblast-orf" id="dummy-18_q11_0_all"  />
<polygon points="317,35 321,30 321,40 317,35 " style="fill:#d88e15; stroke-width:1; stroke:black; " description="&lt;b&gt;LLPMBPKK_04028&lt;/b&gt;&lt;br&gt;2-hydroxychromene-2-carboxylate isomerase&lt;br&gt;Location: 4627295 - 4627997" locus_tag="LLPMBPKK_04028" class="clusterblast-orf" id="dummy-18_q12_0_all"  />
<polygon points="322,35 327,30 327,30 327,40 327,40 322,35 " style="fill:#15d84b; stroke-width:1; stroke:black; " description="&lt;b&gt;LLPMBPKK_04029&lt;/b&gt;&lt;br&gt;SDR family oxidoreductase&lt;br&gt;Location: 4628056 - 4628800" locus_tag="LLPMBPKK_04029" class="clusterblast-orf" id="dummy-18_q13_0_all"  />
<polygon points="327,35 332,30 333,30 333,40 332,40 327,35 " style="fill:#154bd8; stroke-width:1; stroke:black; " description="&lt;b&gt;LLPMBPKK_04030&lt;/b&gt;&lt;br&gt;FabA-like domain protein&lt;br&gt;Location: 4628796 - 4629738" locus_tag="LLPMBPKK_04030" class="clusterblast-orf" id="dummy-18_q14_0_all"  />
<polygon points="333,35 335,30 335,40 333,35 " style="fill:#d815b7; stroke-width:1; stroke:black; " description="&lt;b&gt;LLPMBPKK_04031&lt;/b&gt;&lt;br&gt;acyl carrier protein&lt;br&gt;Location: 4629737 - 4629995" locus_tag="LLPMBPKK_04031" class="clusterblast-orf" id="dummy-18_q15_0_all"  />
<polygon points="335,35 340,30 342,30 342,40 340,40 335,35 " style="fill:#d8b715; stroke-width:1; stroke:black; " description="&lt;b&gt;LLPMBPKK_04032&lt;/b&gt;&lt;br&gt;3-oxoacyl-ACP synthase&lt;br&gt;Location: 4630070 - 4631171" locus_tag="LLPMBPKK_04032" class="clusterblast-orf" id="dummy-18_q16_0_all"  />
<polygon points="343,35 345,30 345,40 343,35 " style="fill:#15d873; stroke-width:1; stroke:black; " description="&lt;b&gt;LLPMBPKK_04033&lt;/b&gt;&lt;br&gt;hypothetical protein&lt;br&gt;Location: 4631222 - 4631618" locus_tag="LLPMBPKK_04033" class="clusterblast-orf" id="dummy-18_q17_0_all"  />
<polygon points="345,35 348,30 348,40 345,35 " style="fill:#1523d8; stroke-width:1; stroke:black; " description="&lt;b&gt;LLPMBPKK_04034&lt;/b&gt;&lt;br&gt;hypothetical protein&lt;br&gt;Location: 4631621 - 4632029" locus_tag="LLPMBPKK_04034" class="clusterblast-orf" id="dummy-18_q18_0_all"  />
<polygon points="348,35 350,30 350,40 348,35 " style="fill:#d8158e; stroke-width:1; stroke:black; " description="&lt;b&gt;LLPMBPKK_04035&lt;/b&gt;&lt;br&gt;hypothetical protein&lt;br&gt;Location: 4632028 - 4632352" locus_tag="LLPMBPKK_04035" class="clusterblast-orf" id="dummy-18_q19_0_all"  />
<polygon points="350,35 355,30 357,30 357,40 355,40 350,35 " style="fill:#d2d815; stroke-width:1; stroke:black; " description="&lt;b&gt;LLPMBPKK_04036&lt;/b&gt;&lt;br&gt;hypothetical protein&lt;br&gt;Location: 4632361 - 4633366" locus_tag="LLPMBPKK_04036" class="clusterblast-orf" id="dummy-18_q20_0_all"  />
<polygon points="357,35 362,30 362,30 362,40 362,40 357,35 " style="fill:#15d89c; stroke-width:1; stroke:black; " description="&lt;b&gt;LLPMBPKK_04037&lt;/b&gt;&lt;br&gt;alpha/beta hydrolase&lt;br&gt;Location: 4633362 - 4634178" locus_tag="LLPMBPKK_04037" class="clusterblast-orf" id="dummy-18_q21_0_all"  />
<polygon points="362,35 367,30 369,30 369,40 367,40 362,35 " style="fill:#d8b715; stroke-width:1; stroke:black; " description="&lt;b&gt;LLPMBPKK_04038&lt;/b&gt;&lt;br&gt;3-oxoacyl-ACP synthase I&lt;br&gt;Location: 4634174 - 4635173" locus_tag="LLPMBPKK_04038" class="clusterblast-orf" id="dummy-18_q22_0_all"  />
<polygon points="369,35 374,30 377,30 377,40 374,40 369,35 " style="fill:#3015d8; stroke-width:1; stroke:black; " description="&lt;b&gt;LLPMBPKK_04039&lt;/b&gt;&lt;br&gt;3-oxoacyl-ACP synthase&lt;br&gt;Location: 4635172 - 4636348" locus_tag="LLPMBPKK_04039" class="clusterblast-orf" id="dummy-18_q23_0_all"  />
<polygon points="376,35 381,30 385,30 385,40 381,40 376,35 " style="fill:#3015d8; stroke-width:1; stroke:black; " description="&lt;b&gt;LLPMBPKK_04040&lt;/b&gt;&lt;br&gt;beta-ketoacyl-[acyl-carrier-protein] synthasefamily protein&lt;br&gt;Location: 4636344 - 4637580" locus_tag="LLPMBPKK_04040" class="clusterblast-orf" id="dummy-18_q24_0_all"  />
<polygon points="385,35 387,30 387,40 385,35 " style="fill:#d81566; stroke-width:1; stroke:black; " description="&lt;b&gt;LLPMBPKK_04041&lt;/b&gt;&lt;br&gt;acyl carrier protein&lt;br&gt;Location: 4637613 - 4637859" locus_tag="LLPMBPKK_04041" class="clusterblast-orf" id="dummy-18_q25_0_all"  />
<polygon points="387,35 392,30 393,30 393,40 392,40 387,35 " style="fill:#a9d815; stroke-width:1; stroke:black; " description="&lt;b&gt;LLPMBPKK_04042&lt;/b&gt;&lt;br&gt;LuxR family transcriptional regulator&lt;br&gt;Location: 4637995 - 4638787" locus_tag="LLPMBPKK_04042" class="clusterblast-orf" id="dummy-18_q26_0_all"  />
<polygon points="394,35 399,30 403,30 403,40 399,40 394,35 " style="fill:white; stroke-width:1; stroke:black; " description="&lt;b&gt;LLPMBPKK_04043&lt;/b&gt;&lt;br&gt;hypothetical protein&lt;br&gt;Location: 4638934 - 4640428" locus_tag="LLPMBPKK_04043" class="clusterblast-orf" id="dummy-18_q27_0_all"  />
<polygon points="404,35 409,30 429,30 429,40 409,40 404,35 " style="fill:white; stroke-width:1; stroke:black; " description="&lt;b&gt;LLPMBPKK_04044&lt;/b&gt;&lt;br&gt;[acyl-carrier-protein] S-malonyltransferase&lt;br&gt;Location: 4640501 - 4644239" locus_tag="LLPMBPKK_04044" class="clusterblast-orf" id="dummy-18_q28_0_all"  />
<polygon points="431,35 435,30 435,40 431,35 " style="fill:#15d8c4; stroke-width:1; stroke:black; " description="&lt;b&gt;LLPMBPKK_04045&lt;/b&gt;&lt;br&gt;gamma-butyrolactone binding protein&lt;br&gt;Location: 4644533 - 4645160" locus_tag="LLPMBPKK_04045" class="clusterblast-orf" id="dummy-18_q29_0_all"  />
<polygon points="436,35 441,30 441,30 441,40 441,40 436,35 " style="fill:#5815d8; stroke-width:1; stroke:black; " description="&lt;b&gt;LLPMBPKK_04046&lt;/b&gt;&lt;br&gt;response regulator transcription factor&lt;br&gt;Location: 4645316 - 4646048" locus_tag="LLPMBPKK_04046" class="clusterblast-orf" id="dummy-18_q30_0_all"  />
<polygon points="443,40 445,40 450,35 445,30 443,30 443,40 " style="fill:#d8153e; stroke-width:1; stroke:black; " description="&lt;b&gt;LLPMBPKK_04047&lt;/b&gt;&lt;br&gt;ScbA protein&lt;br&gt;Location: 4646437 - 4647397" locus_tag="LLPMBPKK_04047" class="clusterblast-orf" id="dummy-18_q31_0_all"  />
<polygon points="450,40 451,40 456,35 451,30 450,30 450,40 " style="fill:#81d815; stroke-width:1; stroke:black; " description="&lt;b&gt;LLPMBPKK_04048&lt;/b&gt;&lt;br&gt;2-alkyl-3-oxoalkanoate reductase&lt;br&gt;Location: 4647446 - 4648376" locus_tag="LLPMBPKK_04048" class="clusterblast-orf" id="dummy-18_q32_0_all"  />
<polygon points="456,35 461,30 464,30 464,40 461,40 456,35 " style="fill:white; stroke-width:1; stroke:black; " description="&lt;b&gt;LLPMBPKK_04049&lt;/b&gt;&lt;br&gt;pyrroloquinoline quinone biosynthesis proteinPqqE&lt;br&gt;Location: 4648378 - 4649575" locus_tag="LLPMBPKK_04049" class="clusterblast-orf" id="dummy-18_q33_0_all"  />
<polygon points="464,35 466,30 466,40 464,35 " style="fill:white; stroke-width:1; stroke:black; " description="&lt;b&gt;LLPMBPKK_04050&lt;/b&gt;&lt;br&gt;pyrroloquinoline quinone biosynthesis peptidechaperone PqqD&lt;br&gt;Location: 4649571 - 4649877" locus_tag="LLPMBPKK_04050" class="clusterblast-orf" id="dummy-18_q34_0_all"  />
<polygon points="466,35 471,30 471,30 471,40 471,40 466,35 " style="fill:white; stroke-width:1; stroke:black; " description="&lt;b&gt;LLPMBPKK_04051&lt;/b&gt;&lt;br&gt;pyrroloquinoline quinone biosynthesis proteinPqqC&lt;br&gt;Location: 4649876 - 4650611" locus_tag="LLPMBPKK_04051" class="clusterblast-orf" id="dummy-18_q35_0_all"  />
<polygon points="471,35 476,30 477,30 477,40 476,40 471,35 " style="fill:white; stroke-width:1; stroke:black; " description="&lt;b&gt;LLPMBPKK_04052&lt;/b&gt;&lt;br&gt;pyrroloquinoline quinone biosynthesis proteinPqqB&lt;br&gt;Location: 4650607 - 4651522" locus_tag="LLPMBPKK_04052" class="clusterblast-orf" id="dummy-18_q36_0_all"  />
<polygon points="477,35 478,30 478,40 477,35 " style="fill:white; stroke-width:1; stroke:black; " description="&lt;b&gt;LLPMBPKK_04053&lt;/b&gt;&lt;br&gt;hypothetical protein&lt;br&gt;Location: 4651529 - 4651667" locus_tag="LLPMBPKK_04053" class="clusterblast-orf" id="dummy-18_q37_0_all"  />
<polygon points="478,35 483,30 486,30 486,40 483,40 478,35 " style="fill:white; stroke-width:1; stroke:black; " description="&lt;b&gt;LLPMBPKK_04054&lt;/b&gt;&lt;br&gt;oxidoreductase&lt;br&gt;Location: 4651746 - 4652868" locus_tag="LLPMBPKK_04054" class="clusterblast-orf" id="dummy-18_q38_0_all"  />
<polygon points="486,35 491,30 497,30 497,40 491,40 486,35 " style="fill:white; stroke-width:1; stroke:black; " description="&lt;b&gt;LLPMBPKK_04055&lt;/b&gt;&lt;br&gt;hypothetical protein&lt;br&gt;Location: 4652956 - 4654618" locus_tag="LLPMBPKK_04055" class="clusterblast-orf" id="dummy-18_q39_0_all"  />
<polygon points="498,40 502,35 498,30 498,40 " style="fill:white; stroke-width:1; stroke:black; " description="&lt;b&gt;LLPMBPKK_04056&lt;/b&gt;&lt;br&gt;CDP-alcohol phosphatidyltransferase familyprotein&lt;br&gt;Location: 4654650 - 4655355" locus_tag="LLPMBPKK_04056" class="clusterblast-orf" id="dummy-18_q40_0_all"  />
<polygon points="501,35 505,30 505,40 501,35 " style="fill:white; stroke-width:1; stroke:black; " description="&lt;b&gt;LLPMBPKK_04057&lt;/b&gt;&lt;br&gt;Bifunctional protein HldE&lt;br&gt;Location: 4655244 - 4655793" locus_tag="LLPMBPKK_04057" class="clusterblast-orf" id="dummy-18_q41_0_all"  />
<polygon points="505,35 510,30 515,30 515,40 510,40 505,35 " style="fill:white; stroke-width:1; stroke:black; " description="&lt;b&gt;LLPMBPKK_04058&lt;/b&gt;&lt;br&gt;LamG domain-containing protein&lt;br&gt;Location: 4655789 - 4657256" locus_tag="LLPMBPKK_04058" class="clusterblast-orf" id="dummy-18_q42_0_all"  />
<polygon points="516,35 521,30 526,30 526,40 521,40 516,35 " style="fill:white; stroke-width:1; stroke:black; " description="&lt;b&gt;LLPMBPKK_04059&lt;/b&gt;&lt;br&gt;Polysaccharide biosynthesis protein&lt;br&gt;Location: 4657434 - 4658967" locus_tag="LLPMBPKK_04059" class="clusterblast-orf" id="dummy-18_q43_0_all"  />
<polygon points="526,35 531,30 537,30 537,40 531,40 526,35 " style="fill:white; stroke-width:1; stroke:black; " description="&lt;b&gt;LLPMBPKK_04060&lt;/b&gt;&lt;br&gt;hypothetical protein&lt;br&gt;Location: 4658963 - 4660556" locus_tag="LLPMBPKK_04060" class="clusterblast-orf" id="dummy-18_q44_0_all"  />
</g>
<g label="NZ_DS999641" description="NZ_DS999641 (1555404-1674468): Streptomyces viridosporus ATCC 14672 supercont... (23% of genes show similarity), NRPS,arylpolyene,ladderane" class="clusterblast-cluster"  >
<text x="5" y="70" class="clusterblast-acc"  >
<a xlink:href="https://antismash-db.secondarymetabolites.org/area.html?record=NZ_DS999641&amp;start=1555404&amp;end=1674468" target="_blank">NZ_DS999641 (1555404-1674468)</a>: Streptomyces viridosporus ATCC 14672 supercont... (23% of genes show similarity), NRPS,arylpolyene,ladderane</text>
<line x1="10" y1="85" x2="778.0" y2="85" style="stroke-width:1; stroke:grey; "  />
</g>
<g id="a18_000"  >
<polygon points="0,90 3,85 0,80 0,90 " style="fill:white; stroke-width:1; stroke:black; " description="&lt;b&gt;SSFG_RS07265&lt;/b&gt;&lt;br&gt;(2Fe-2S)-binding protein&lt;br&gt;Location: 1674468 - 1673896" locus_tag="SSFG_RS07265" class="clusterblast-orf" id="dummy-18_h18_3_0"  />
</g>
<g id="a18_001"  >
<polygon points="3,90 14,90 19,85 14,80 3,80 3,90 " style="fill:white; stroke-width:1; stroke:black; " description="&lt;b&gt;SSFG_RS07260&lt;/b&gt;&lt;br&gt;xanthine dehydrogenase subunit D&lt;br&gt;Location: 1673893 - 1671470" locus_tag="SSFG_RS07260" class="clusterblast-orf" id="dummy-18_h18_3_1"  />
</g>
<g id="a18_002"  >
<polygon points="20,90 23,90 28,85 23,80 20,80 20,90 " style="fill:white; stroke-width:1; stroke:black; " description="&lt;b&gt;SSFG_RS07255&lt;/b&gt;&lt;br&gt;XdhC family protein&lt;br&gt;Location: 1671328 - 1670177" locus_tag="SSFG_RS07255" class="clusterblast-orf" id="dummy-18_h18_3_2"  />
</g>
<g id="a18_003"  >
<polygon points="28,85 31,80 31,90 28,85 " style="fill:white; stroke-width:1; stroke:black; " description="&lt;b&gt;SSFG_RS07250&lt;/b&gt;&lt;br&gt;hypothetical protein&lt;br&gt;Location: 1670141 - 1669701" locus_tag="SSFG_RS07250" class="clusterblast-orf" id="dummy-18_h18_3_3"  />
</g>
<g id="a18_004"  >
<polygon points="32,85 37,80 37,80 37,90 37,90 32,85 " style="fill:white; stroke-width:1; stroke:black; " description="&lt;b&gt;SSFG_RS07245&lt;/b&gt;&lt;br&gt;polysaccharide deacetylase family protein&lt;br&gt;Location: 1669609 - 1668851" locus_tag="SSFG_RS07245" class="clusterblast-orf" id="dummy-18_h18_3_4"  />
</g>
<g id="a18_005"  >
<polygon points="46,90 47,85 46,80 46,90 " style="fill:white; stroke-width:1; stroke:black; " description="&lt;b&gt;SSFG_RS40795&lt;/b&gt;&lt;br&gt;transferase&lt;br&gt;Location: 1667478 - 1667314" locus_tag="SSFG_RS40795" class="clusterblast-orf" id="dummy-18_h18_3_5"  />
</g>
<g id="a18_006"  >
<polygon points="47,90 48,85 47,80 47,90 " style="fill:white; stroke-width:1; stroke:black; " description="&lt;b&gt;SSFG_RS07240&lt;/b&gt;&lt;br&gt;haloacid dehalogenase&lt;br&gt;Location: 1667317 - 1667200" locus_tag="SSFG_RS07240" class="clusterblast-orf" id="dummy-18_h18_3_6"  />
</g>
<g id="a18_007"  >
<polygon points="57,90 58,85 57,80 57,90 " style="fill:white; stroke-width:1; stroke:black; " description="&lt;b&gt;SSFG_RS07235&lt;/b&gt;&lt;br&gt;glycosyl transferase&lt;br&gt;Location: 1665791 - 1665597" locus_tag="SSFG_RS07235" class="clusterblast-orf" id="dummy-18_h18_3_7"  />
</g>
<g id="a18_008"  >
<polygon points="58,90 59,90 64,85 59,80 58,80 58,90 " style="fill:white; stroke-width:1; stroke:black; " description="&lt;b&gt;SSFG_RS07230&lt;/b&gt;&lt;br&gt;glycosyltransferase&lt;br&gt;Location: 1665600 - 1664689" locus_tag="SSFG_RS07230" class="clusterblast-orf" id="dummy-18_h18_3_8"  />
</g>
<g id="a18_009"  >
<polygon points="78,90 82,85 78,80 78,90 " style="fill:white; stroke-width:1; stroke:black; " description="&lt;b&gt;SSFG_RS07225&lt;/b&gt;&lt;br&gt;glycosyltransferase family 9 protein&lt;br&gt;Location: 1662581 - 1661952" locus_tag="SSFG_RS07225" class="clusterblast-orf" id="dummy-18_h18_3_9"  />
</g>
<g id="a18_0010"  >
<polygon points="82,90 83,90 88,85 83,80 82,80 82,90 " style="fill:white; stroke-width:1; stroke:black; " description="&lt;b&gt;SSFG_RS07220&lt;/b&gt;&lt;br&gt;glycosyltransferase&lt;br&gt;Location: 1661955 - 1661077" locus_tag="SSFG_RS07220" class="clusterblast-orf" id="dummy-18_h18_3_10"  />
</g>
<g id="a18_0011"  >
<polygon points="108,85 113,80 127,80 127,90 113,90 108,85 " style="fill:white; stroke-width:1; stroke:black; " description="&lt;b&gt;SSFG_RS07215&lt;/b&gt;&lt;br&gt;helix-turn-helix transcriptional regulator&lt;br&gt;Location: 1657994 - 1655184" locus_tag="SSFG_RS07215" class="clusterblast-orf" id="dummy-18_h18_3_11"  />
</g>
<g id="a18_0012"  >
<polygon points="129,90 135,90 140,85 135,80 129,80 129,90 " style="fill:white; stroke-width:1; stroke:black; " description="&lt;b&gt;SSFG_RS07210&lt;/b&gt;&lt;br&gt;AMP-binding protein&lt;br&gt;Location: 1654845 - 1653172" locus_tag="SSFG_RS07210" class="clusterblast-orf" id="dummy-18_h18_3_12"  />
</g>
<g id="a18_0013"  >
<polygon points="140,90 146,90 151,85 146,80 140,80 140,90 " style="fill:white; stroke-width:1; stroke:black; " description="&lt;b&gt;SSFG_RS07205&lt;/b&gt;&lt;br&gt;AMP-binding protein&lt;br&gt;Location: 1653175 - 1651550" locus_tag="SSFG_RS07205" class="clusterblast-orf" id="dummy-18_h18_3_13"  />
</g>
<g id="a18_0014"  >
<polygon points="151,85 154,80 154,90 151,85 " style="fill:white; stroke-width:1; stroke:black; " description="&lt;b&gt;SSFG_RS41150&lt;/b&gt;&lt;br&gt;GNAT family N-acetyltransferase&lt;br&gt;Location: 1651509 - 1651045" locus_tag="SSFG_RS41150" class="clusterblast-orf" id="dummy-18_h18_3_14"  />
</g>
<g id="a18_0015"  >
<polygon points="155,85 158,80 158,90 155,85 " style="fill:white; stroke-width:1; stroke:black; " description="&lt;b&gt;SSFG_RS42290&lt;/b&gt;&lt;br&gt;GNAT family N-acetyltransferase&lt;br&gt;Location: 1651008 - 1650505" locus_tag="SSFG_RS42290" class="clusterblast-orf" id="dummy-18_h18_3_15"  />
</g>
<g id="a18_0016"  >
<polygon points="158,85 163,80 163,80 163,90 163,90 158,85 " style="fill:white; stroke-width:1; stroke:black; " description="&lt;b&gt;SSFG_RS07190&lt;/b&gt;&lt;br&gt;hypothetical protein&lt;br&gt;Location: 1650461 - 1649772" locus_tag="SSFG_RS07190" class="clusterblast-orf" id="dummy-18_h18_3_16"  />
</g>
<g id="a18_0017"  >
<polygon points="166,85 171,80 171,80 171,90 171,90 166,85 " style="fill:white; stroke-width:1; stroke:black; " description="&lt;b&gt;SSFG_RS07185&lt;/b&gt;&lt;br&gt;hypothetical protein&lt;br&gt;Location: 1649305 - 1648604" locus_tag="SSFG_RS07185" class="clusterblast-orf" id="dummy-18_h18_3_17"  />
</g>
<g id="a18_0018"  >
<polygon points="172,85 173,80 173,90 172,85 " style="fill:white; stroke-width:1; stroke:black; " description="&lt;b&gt;SSFG_RS07180&lt;/b&gt;&lt;br&gt;hypothetical protein&lt;br&gt;Location: 1648415 - 1648179" locus_tag="SSFG_RS07180" class="clusterblast-orf" id="dummy-18_h18_3_18"  />
</g>
<g id="a18_0019"  >
<polygon points="174,85 175,80 175,90 174,85 " style="fill:white; stroke-width:1; stroke:black; " description="&lt;b&gt;SSFG_RS38780&lt;/b&gt;&lt;br&gt;hypothetical protein&lt;br&gt;Location: 1648102 - 1647857" locus_tag="SSFG_RS38780" class="clusterblast-orf" id="dummy-18_h18_3_19"  />
</g>
<g id="a18_0020"  >
<polygon points="176,90 179,85 176,80 176,90 " style="fill:white; stroke-width:1; stroke:black; " description="&lt;b&gt;SSFG_RS07175&lt;/b&gt;&lt;br&gt;DinB family protein&lt;br&gt;Location: 1647764 - 1647294" locus_tag="SSFG_RS07175" class="clusterblast-orf" id="dummy-18_h18_3_20"  />
</g>
<g id="a18_0021"  >
<polygon points="181,90 183,85 181,80 181,90 " style="fill:white; stroke-width:1; stroke:black; " description="&lt;b&gt;SSFG_RS07170&lt;/b&gt;&lt;br&gt;hypothetical protein&lt;br&gt;Location: 1647087 - 1646704" locus_tag="SSFG_RS07170" class="clusterblast-orf" id="dummy-18_h18_3_21"  />
</g>
<g id="a18_0022"  >
<polygon points="183,85 188,80 197,80 197,90 188,90 183,85 " style="fill:white; stroke-width:1; stroke:black; " description="&lt;b&gt;SSFG_RS07165&lt;/b&gt;&lt;br&gt;transcriptional regulator&lt;br&gt;Location: 1646693 - 1644657" locus_tag="SSFG_RS07165" class="clusterblast-orf" id="dummy-18_h18_3_22"  />
</g>
<g id="a18_0023"  >
<polygon points="197,85 202,80 204,80 204,90 202,90 197,85 " style="fill:white; stroke-width:1; stroke:black; " description="&lt;b&gt;SSFG_RS07160&lt;/b&gt;&lt;br&gt;polyprenyl synthetase family protein&lt;br&gt;Location: 1644635 - 1643610" locus_tag="SSFG_RS07160" class="clusterblast-orf" id="dummy-18_h18_3_23"  />
</g>
<g id="a18_0024"  >
<polygon points="206,90 215,90 220,85 215,80 206,80 206,90 " style="fill:white; stroke-width:1; stroke:black; " description="&lt;b&gt;SSFG_RS07155&lt;/b&gt;&lt;br&gt;MMPL family transporter&lt;br&gt;Location: 1643219 - 1641069" locus_tag="SSFG_RS07155" class="clusterblast-orf" id="dummy-18_h18_3_24"  />
</g>
<g id="a18_0025"  >
<polygon points="221,90 229,90 234,85 229,80 221,80 221,90 " style="fill:white; stroke-width:1; stroke:black; " description="&lt;b&gt;SSFG_RS07150&lt;/b&gt;&lt;br&gt;AarF/ABC1/UbiB kinase family protein&lt;br&gt;Location: 1641004 - 1639073" locus_tag="SSFG_RS07150" class="clusterblast-orf" id="dummy-18_h18_3_25"  />
</g>
<g id="a18_0026"  >
<polygon points="237,85 242,80 242,80 242,90 242,90 237,85 " style="fill:white; stroke-width:1; stroke:black; " description="&lt;b&gt;SSFG_RS07145&lt;/b&gt;&lt;br&gt;ABC transporter permease&lt;br&gt;Location: 1638521 - 1637733" locus_tag="SSFG_RS07145" class="clusterblast-orf" id="dummy-18_h18_3_26"  />
</g>
<g id="a18_0027"  >
<polygon points="242,85 247,80 249,80 249,90 247,90 242,85 " style="fill:white; stroke-width:1; stroke:black; " description="&lt;b&gt;SSFG_RS41145&lt;/b&gt;&lt;br&gt;daunorubicin resistance protein DrrA family ABC transporter ATP-binding protein&lt;br&gt;Location: 1637736 - 1636780" locus_tag="SSFG_RS41145" class="clusterblast-orf" id="dummy-18_h18_3_27"  />
</g>
<g id="a18_0028"  >
<polygon points="249,85 253,80 253,90 249,85 " style="fill:white; stroke-width:1; stroke:black; " description="&lt;b&gt;SSFG_RS41140&lt;/b&gt;&lt;br&gt;DUF3995 domain-containing protein&lt;br&gt;Location: 1636783 - 1636199" locus_tag="SSFG_RS41140" class="clusterblast-orf" id="dummy-18_h18_3_28"  />
</g>
<g id="a18_0029"  >
<polygon points="253,85 258,80 261,80 261,90 258,90 253,85 " style="fill:white; stroke-width:1; stroke:black; " description="&lt;b&gt;SSFG_RS07130&lt;/b&gt;&lt;br&gt;cytochrome P450&lt;br&gt;Location: 1636150 - 1634882" locus_tag="SSFG_RS07130" class="clusterblast-orf" id="dummy-18_h18_3_29"  />
</g>
<g id="a18_0030"  >
<polygon points="262,85 267,80 288,80 288,90 267,90 262,85 " style="fill:white; stroke-width:1; stroke:black; " description="&lt;b&gt;SSFG_RS07125&lt;/b&gt;&lt;br&gt;non-ribosomal peptide synthetase&lt;br&gt;Location: 1634820 - 1630849" locus_tag="SSFG_RS07125" class="clusterblast-orf" id="dummy-18_h18_3_30"  />
</g>
<g id="a18_0031"  >
<polygon points="288,85 293,80 383,80 383,90 293,90 288,85 " style="fill:white; stroke-width:1; stroke:black; " description="&lt;b&gt;SSFG_RS07120&lt;/b&gt;&lt;br&gt;non-ribosomal peptide synthetase&lt;br&gt;Location: 1630852 - 1616480" locus_tag="SSFG_RS07120" class="clusterblast-orf" id="dummy-18_h18_3_31"  />
</g>
<g id="a18_0032"  >
<polygon points="383,85 388,80 461,80 461,90 388,90 383,85 " style="fill:white; stroke-width:1; stroke:black; " description="&lt;b&gt;SSFG_RS07115&lt;/b&gt;&lt;br&gt;non-ribosomal peptide synthetase&lt;br&gt;Location: 1616483 - 1604610" locus_tag="SSFG_RS07115" class="clusterblast-orf" id="dummy-18_h18_3_32"  />
</g>
<g id="a18_0033"  >
<polygon points="462,85 467,80 487,80 487,90 467,90 462,85 " style="fill:white; stroke-width:1; stroke:black; " description="&lt;b&gt;SSFG_RS07110&lt;/b&gt;&lt;br&gt;AMP-binding protein&lt;br&gt;Location: 1604509 - 1600691" locus_tag="SSFG_RS07110" class="clusterblast-orf" id="dummy-18_h18_3_33"  />
</g>
<g id="a18_0034"  >
<polygon points="573,85 578,80 583,80 583,90 578,90 573,85 " style="fill:white; stroke-width:1; stroke:black; " description="&lt;b&gt;SSFG_RS07105&lt;/b&gt;&lt;br&gt;non-ribosomal peptide synthetase&lt;br&gt;Location: 1587721 - 1586238" locus_tag="SSFG_RS07105" class="clusterblast-orf" id="dummy-18_h18_3_34"  />
</g>
<g id="a18_0035"  >
<polygon points="585,85 587,80 587,90 585,85 " style="fill:white; stroke-width:1; stroke:black; " description="&lt;b&gt;SSFG_RS07100&lt;/b&gt;&lt;br&gt;MbtH family protein&lt;br&gt;Location: 1585853 - 1585641" locus_tag="SSFG_RS07100" class="clusterblast-orf" id="dummy-18_h18_3_35"  />
</g>
<g id="a18_0036"  >
<polygon points="587,85 591,80 591,90 587,85 " style="fill:#d88e15; stroke-width:1; stroke:black; " description="&lt;b&gt;SSFG_RS07095&lt;/b&gt;&lt;br&gt;DsbA family protein&lt;br&gt;Location: 1585573 - 1584953&lt;br&gt;&lt;br&gt;&lt;b&gt;BlastP hit with LLPMBPKK_04028&lt;/b&gt;&lt;br&gt;Percentage identity: 56&lt;br&gt;Percentage coverage: 85&lt;br&gt;BLAST bit score: 242&lt;br&gt;E-value: 1.83e-79" locus_tag="SSFG_RS07095" class="clusterblast-orf" id="dummy-18_h18_3_36"  />
</g>
<g id="a18_0037"  >
<polygon points="592,85 597,80 597,80 597,90 597,90 592,85 " style="fill:#15d84b; stroke-width:1; stroke:black; " description="&lt;b&gt;SSFG_RS07090&lt;/b&gt;&lt;br&gt;3-oxoacyl-[acyl-carrier-protein] reductase&lt;br&gt;Location: 1584852 - 1584106&lt;br&gt;&lt;br&gt;&lt;b&gt;BlastP hit with LLPMBPKK_04029&lt;/b&gt;&lt;br&gt;Percentage identity: 60&lt;br&gt;Percentage coverage: 100&lt;br&gt;BLAST bit score: 286&lt;br&gt;E-value: 6.15e-96" locus_tag="SSFG_RS07090" class="clusterblast-orf" id="dummy-18_h18_3_37"  />
</g>
<g id="a18_0038"  >
<polygon points="597,85 600,80 600,90 597,85 " style="fill:#154bd8; stroke-width:1; stroke:black; " description="&lt;b&gt;SSFG_RS07085&lt;/b&gt;&lt;br&gt;beta-hydroxyacyl-ACP dehydratase&lt;br&gt;Location: 1584096 - 1583617&lt;br&gt;&lt;br&gt;&lt;b&gt;BlastP hit with LLPMBPKK_04030&lt;/b&gt;&lt;br&gt;Percentage identity: 50&lt;br&gt;Percentage coverage: 47&lt;br&gt;BLAST bit score: 148&lt;br&gt;E-value: 3.79e-42" locus_tag="SSFG_RS07085" class="clusterblast-orf" id="dummy-18_h18_3_38"  />
</g>
<g id="a18_0039"  >
<polygon points="600,85 603,80 603,90 600,85 " style="fill:#154bd8; stroke-width:1; stroke:black; " description="&lt;b&gt;SSFG_RS07080&lt;/b&gt;&lt;br&gt;hypothetical protein&lt;br&gt;Location: 1583620 - 1583162&lt;br&gt;&lt;br&gt;&lt;b&gt;BlastP hit with LLPMBPKK_04030&lt;/b&gt;&lt;br&gt;Percentage identity: 42&lt;br&gt;Percentage coverage: 33&lt;br&gt;BLAST bit score: 94&lt;br&gt;E-value: 1.35e-21" locus_tag="SSFG_RS07080" class="clusterblast-orf" id="dummy-18_h18_3_39"  />
</g>
<g id="a18_0040"  >
<polygon points="603,85 605,80 605,90 603,85 " style="fill:#d815b7; stroke-width:1; stroke:black; " description="&lt;b&gt;SSFG_RS07075&lt;/b&gt;&lt;br&gt;acyl carrier protein&lt;br&gt;Location: 1583162 - 1582923&lt;br&gt;&lt;br&gt;&lt;b&gt;BlastP hit with LLPMBPKK_04031&lt;/b&gt;&lt;br&gt;Percentage identity: 53&lt;br&gt;Percentage coverage: 89&lt;br&gt;BLAST bit score: 80&lt;br&gt;E-value: 1.84e-19" locus_tag="SSFG_RS07075" class="clusterblast-orf" id="dummy-18_h18_3_40"  />
</g>
<g id="a18_0041"  >
<polygon points="605,85 607,80 607,90 605,85 " style="fill:white; stroke-width:1; stroke:black; " description="&lt;b&gt;SSFG_RS07070&lt;/b&gt;&lt;br&gt;3-oxoacyl-ACP synthase&lt;br&gt;Location: 1582866 - 1582645" locus_tag="SSFG_RS07070" class="clusterblast-orf" id="dummy-18_h18_3_41"  />
</g>
<g id="a18_0042"  >
<polygon points="607,85 612,80 612,80 612,90 612,90 607,85 " style="fill:#d8b715; stroke-width:1; stroke:black; " description="&lt;b&gt;SSFG_RS07065&lt;/b&gt;&lt;br&gt;3-oxoacyl-ACP synthase&lt;br&gt;Location: 1582527 - 1581782&lt;br&gt;&lt;br&gt;&lt;b&gt;BlastP hit with LLPMBPKK_04032&lt;/b&gt;&lt;br&gt;Percentage identity: 60&lt;br&gt;Percentage coverage: 63&lt;br&gt;BLAST bit score: 259&lt;br&gt;E-value: 1.17e-83" locus_tag="SSFG_RS07065" class="clusterblast-orf" id="dummy-18_h18_3_42"  />
</g>
<g id="a18_0043"  >
<polygon points="612,85 615,80 615,90 612,85 " style="fill:#15d873; stroke-width:1; stroke:black; " description="&lt;b&gt;SSFG_RS07060&lt;/b&gt;&lt;br&gt;hypothetical protein&lt;br&gt;Location: 1581759 - 1581337&lt;br&gt;&lt;br&gt;&lt;b&gt;BlastP hit with LLPMBPKK_04033&lt;/b&gt;&lt;br&gt;Percentage identity: 47&lt;br&gt;Percentage coverage: 96&lt;br&gt;BLAST bit score: 91&lt;br&gt;E-value: 2.88e-22" locus_tag="SSFG_RS07060" class="clusterblast-orf" id="dummy-18_h18_3_43"  />
</g>
<g id="a18_0044"  >
<polygon points="615,85 618,80 618,90 615,85 " style="fill:#1523d8; stroke-width:1; stroke:black; " description="&lt;b&gt;SSFG_RS07055&lt;/b&gt;&lt;br&gt;hypothetical protein&lt;br&gt;Location: 1581337 - 1580930&lt;br&gt;&lt;br&gt;&lt;b&gt;BlastP hit with LLPMBPKK_04034&lt;/b&gt;&lt;br&gt;Percentage identity: 48&lt;br&gt;Percentage coverage: 99&lt;br&gt;BLAST bit score: 135&lt;br&gt;E-value: 8.02e-40" locus_tag="SSFG_RS07055" class="clusterblast-orf" id="dummy-18_h18_3_44"  />
</g>
<g id="a18_0045"  >
<polygon points="618,85 620,80 620,90 618,85 " style="fill:white; stroke-width:1; stroke:black; " description="&lt;b&gt;SSFG_RS07050&lt;/b&gt;&lt;br&gt;hypothetical protein&lt;br&gt;Location: 1580928 - 1580572" locus_tag="SSFG_RS07050" class="clusterblast-orf" id="dummy-18_h18_3_45"  />
</g>
<g id="a18_0046"  >
<polygon points="620,85 625,80 627,80 627,90 625,90 620,85 " style="fill:#d2d815; stroke-width:1; stroke:black; " description="&lt;b&gt;SSFG_RS07045&lt;/b&gt;&lt;br&gt;hypothetical protein&lt;br&gt;Location: 1580575 - 1579604&lt;br&gt;&lt;br&gt;&lt;b&gt;BlastP hit with LLPMBPKK_04036&lt;/b&gt;&lt;br&gt;Percentage identity: 65&lt;br&gt;Percentage coverage: 96&lt;br&gt;BLAST bit score: 407&lt;br&gt;E-value: 2.15e-141" locus_tag="SSFG_RS07045" class="clusterblast-orf" id="dummy-18_h18_3_46"  />
</g>
<g id="a18_0047"  >
<polygon points="627,85 632,80 632,80 632,90 632,90 627,85 " style="fill:#15d89c; stroke-width:1; stroke:black; " description="&lt;b&gt;SSFG_RS07040&lt;/b&gt;&lt;br&gt;alpha/beta hydrolase&lt;br&gt;Location: 1579607 - 1578756&lt;br&gt;&lt;br&gt;&lt;b&gt;BlastP hit with LLPMBPKK_04037&lt;/b&gt;&lt;br&gt;Percentage identity: 41&lt;br&gt;Percentage coverage: 90&lt;br&gt;BLAST bit score: 192&lt;br&gt;E-value: 2.48e-58" locus_tag="SSFG_RS07040" class="clusterblast-orf" id="dummy-18_h18_3_47"  />
</g>
<g id="a18_0048"  >
<polygon points="632,85 637,80 639,80 639,90 637,90 632,85 " style="fill:#d8b715; stroke-width:1; stroke:black; " description="&lt;b&gt;SSFG_RS07035&lt;/b&gt;&lt;br&gt;3-oxoacyl-ACP synthase&lt;br&gt;Location: 1578756 - 1577803&lt;br&gt;&lt;br&gt;&lt;b&gt;BlastP hit with LLPMBPKK_04038&lt;/b&gt;&lt;br&gt;Percentage identity: 48&lt;br&gt;Percentage coverage: 96&lt;br&gt;BLAST bit score: 217&lt;br&gt;E-value: 1.21e-66" locus_tag="SSFG_RS07035" class="clusterblast-orf" id="dummy-18_h18_3_48"  />
</g>
<g id="a18_0049"  >
<polygon points="639,85 644,80 646,80 646,90 644,90 639,85 " style="fill:#3015d8; stroke-width:1; stroke:black; " description="&lt;b&gt;SSFG_RS07030&lt;/b&gt;&lt;br&gt;3-oxoacyl-ACP synthase&lt;br&gt;Location: 1577806 - 1576661&lt;br&gt;&lt;br&gt;&lt;b&gt;BlastP hit with LLPMBPKK_04039&lt;/b&gt;&lt;br&gt;Percentage identity: 60&lt;br&gt;Percentage coverage: 97&lt;br&gt;BLAST bit score: 424&lt;br&gt;E-value: 2.84e-146" locus_tag="SSFG_RS07030" class="clusterblast-orf" id="dummy-18_h18_3_49"  />
</g>
<g id="a18_0050"  >
<polygon points="646,85 651,80 654,80 654,90 651,90 646,85 " style="fill:#3015d8; stroke-width:1; stroke:black; " description="&lt;b&gt;SSFG_RS07025&lt;/b&gt;&lt;br&gt;beta-ketoacyl-[acyl-carrier-protein] synthase family protein&lt;br&gt;Location: 1576667 - 1575405&lt;br&gt;&lt;br&gt;&lt;b&gt;BlastP hit with LLPMBPKK_04040&lt;/b&gt;&lt;br&gt;Percentage identity: 69&lt;br&gt;Percentage coverage: 100&lt;br&gt;BLAST bit score: 559&lt;br&gt;E-value: 1.65e-198" locus_tag="SSFG_RS07025" class="clusterblast-orf" id="dummy-18_h18_3_50"  />
</g>
<g id="a18_0051"  >
<polygon points="655,85 657,80 657,90 655,85 " style="fill:#d81566; stroke-width:1; stroke:black; " description="&lt;b&gt;SSFG_RS07020&lt;/b&gt;&lt;br&gt;acyl carrier protein&lt;br&gt;Location: 1575344 - 1575090&lt;br&gt;&lt;br&gt;&lt;b&gt;BlastP hit with LLPMBPKK_04041&lt;/b&gt;&lt;br&gt;Percentage identity: 66&lt;br&gt;Percentage coverage: 94&lt;br&gt;BLAST bit score: 96&lt;br&gt;E-value: 1.03e-25" locus_tag="SSFG_RS07020" class="clusterblast-orf" id="dummy-18_h18_3_51"  />
</g>
<g id="a18_0052"  >
<polygon points="659,85 664,80 664,80 664,90 664,90 659,85 " style="fill:white; stroke-width:1; stroke:black; " description="&lt;b&gt;SSFG_RS07015&lt;/b&gt;&lt;br&gt;thioesterase&lt;br&gt;Location: 1574767 - 1574000" locus_tag="SSFG_RS07015" class="clusterblast-orf" id="dummy-18_h18_3_52"  />
</g>
<g id="a18_0053"  >
<polygon points="664,85 669,80 670,80 670,90 669,90 664,85 " style="fill:white; stroke-width:1; stroke:black; " description="&lt;b&gt;SSFG_RS07010&lt;/b&gt;&lt;br&gt;ACP S-malonyltransferase&lt;br&gt;Location: 1573950 - 1573015" locus_tag="SSFG_RS07010" class="clusterblast-orf" id="dummy-18_h18_3_53"  />
</g>
<g id="a18_0054"  >
<polygon points="673,85 678,80 678,80 678,90 678,90 673,85 " style="fill:#a9d815; stroke-width:1; stroke:black; " description="&lt;b&gt;SSFG_RS07005&lt;/b&gt;&lt;br&gt;transcriptional regulator&lt;br&gt;Location: 1572565 - 1571870&lt;br&gt;&lt;br&gt;&lt;b&gt;BlastP hit with LLPMBPKK_04042&lt;/b&gt;&lt;br&gt;Percentage identity: 41&lt;br&gt;Percentage coverage: 36&lt;br&gt;BLAST bit score: 57&lt;br&gt;E-value: 8.57e-08" locus_tag="SSFG_RS07005" class="clusterblast-orf" id="dummy-18_h18_3_54"  />
</g>
<g id="a18_0055"  >
<polygon points="679,85 684,80 684,80 684,90 684,90 679,85 " style="fill:#a9d815; stroke-width:1; stroke:black; " description="&lt;b&gt;SSFG_RS07000&lt;/b&gt;&lt;br&gt;helix-turn-helix transcriptional regulator&lt;br&gt;Location: 1571757 - 1570879&lt;br&gt;&lt;br&gt;&lt;b&gt;BlastP hit with LLPMBPKK_04042&lt;/b&gt;&lt;br&gt;Percentage identity: 45&lt;br&gt;Percentage coverage: 43&lt;br&gt;BLAST bit score: 80&lt;br&gt;E-value: 1.55e-15" locus_tag="SSFG_RS07000" class="clusterblast-orf" id="dummy-18_h18_3_55"  />
</g>
<g id="a18_0056"  >
<polygon points="689,90 693,85 689,80 689,90 " style="fill:white; stroke-width:1; stroke:black; " description="&lt;b&gt;SSFG_RS06995&lt;/b&gt;&lt;br&gt;4'-phosphopantetheinyl transferase superfamily protein&lt;br&gt;Location: 1570251 - 1569562" locus_tag="SSFG_RS06995" class="clusterblast-orf" id="dummy-18_h18_3_56"  />
</g>
<g id="a18_0057"  >
<polygon points="707,90 709,85 707,80 707,90 " style="fill:white; stroke-width:1; stroke:black; " description="&lt;b&gt;SSFG_RS06990&lt;/b&gt;&lt;br&gt;thiamine-binding protein&lt;br&gt;Location: 1567393 - 1567142" locus_tag="SSFG_RS06990" class="clusterblast-orf" id="dummy-18_h18_3_57"  />
</g>
<g id="a18_0058"  >
<polygon points="709,90 711,85 709,80 709,90 " style="fill:white; stroke-width:1; stroke:black; " description="&lt;b&gt;SSFG_RS06985&lt;/b&gt;&lt;br&gt;helix-turn-helix domain-containing protein&lt;br&gt;Location: 1567145 - 1566825" locus_tag="SSFG_RS06985" class="clusterblast-orf" id="dummy-18_h18_3_58"  />
</g>
<g id="a18_0059"  >
<polygon points="713,90 714,90 719,85 714,80 713,80 713,90 " style="fill:white; stroke-width:1; stroke:black; " description="&lt;b&gt;SSFG_RS38765&lt;/b&gt;&lt;br&gt;2-oxo-4-hydroxy-4-carboxy-5-ureidoimidazoline decarboxylase&lt;br&gt;Location: 1566543 - 1565623" locus_tag="SSFG_RS38765" class="clusterblast-orf" id="dummy-18_h18_3_59"  />
</g>
<g id="a18_0060"  >
<polygon points="719,90 721,90 726,85 721,80 719,80 719,90 " style="fill:white; stroke-width:1; stroke:black; " description="&lt;b&gt;SSFG_RS06970&lt;/b&gt;&lt;br&gt;urate oxidase&lt;br&gt;Location: 1565618 - 1564653" locus_tag="SSFG_RS06970" class="clusterblast-orf" id="dummy-18_h18_3_60"  />
</g>
<g id="a18_0061"  >
<polygon points="727,90 731,90 736,85 731,80 727,80 727,90 " style="fill:white; stroke-width:1; stroke:black; " description="&lt;b&gt;SSFG_RS06965&lt;/b&gt;&lt;br&gt;8-oxoguanine deaminase&lt;br&gt;Location: 1564496 - 1563117" locus_tag="SSFG_RS06965" class="clusterblast-orf" id="dummy-18_h18_3_61"  />
</g>
<g id="a18_0062"  >
<polygon points="736,85 739,80 739,90 736,85 " style="fill:white; stroke-width:1; stroke:black; " description="&lt;b&gt;SSFG_RS06960&lt;/b&gt;&lt;br&gt;exonuclease&lt;br&gt;Location: 1563000 - 1562644" locus_tag="SSFG_RS06960" class="clusterblast-orf" id="dummy-18_h18_3_62"  />
</g>
<g id="a18_0063"  >
<polygon points="740,85 744,80 744,90 740,85 " style="fill:white; stroke-width:1; stroke:black; " description="&lt;b&gt;SSFG_RS06955&lt;/b&gt;&lt;br&gt;N-acetylmuramoyl-L-alanine amidase&lt;br&gt;Location: 1562514 - 1561855" locus_tag="SSFG_RS06955" class="clusterblast-orf" id="dummy-18_h18_3_63"  />
</g>
<g id="a18_0064"  >
<polygon points="745,85 750,80 751,80 751,90 750,90 745,85 " style="fill:white; stroke-width:1; stroke:black; " description="&lt;b&gt;SSFG_RS06950&lt;/b&gt;&lt;br&gt;lysozyme&lt;br&gt;Location: 1561742 - 1560858" locus_tag="SSFG_RS06950" class="clusterblast-orf" id="dummy-18_h18_3_64"  />
</g>
<g id="a18_0065"  >
<polygon points="756,90 763,90 768,85 763,80 756,80 756,90 " style="fill:white; stroke-width:1; stroke:black; " description="&lt;b&gt;SSFG_RS06945&lt;/b&gt;&lt;br&gt;TerD family protein&lt;br&gt;Location: 1560069 - 1558174" locus_tag="SSFG_RS06945" class="clusterblast-orf" id="dummy-18_h18_3_65"  />
</g>
<g id="a18_0066"  >
<polygon points="772,85 773,80 773,90 772,85 " style="fill:white; stroke-width:1; stroke:black; " description="&lt;b&gt;SSFG_RS06940&lt;/b&gt;&lt;br&gt;hypothetical protein&lt;br&gt;Location: 1557657 - 1557457" locus_tag="SSFG_RS06940" class="clusterblast-orf" id="dummy-18_h18_3_66"  />
</g>
<g id="a18_0067"  >
<polygon points="775,85 780,80 780,80 780,90 780,90 775,85 " style="fill:white; stroke-width:1; stroke:black; " description="&lt;b&gt;SSFG_RS06935&lt;/b&gt;&lt;br&gt;class I SAM-dependent methyltransferase&lt;br&gt;Location: 1557145 - 1556492" locus_tag="SSFG_RS06935" class="clusterblast-orf" id="dummy-18_h18_3_67"  />
</g>
</svg>
