<svg xmlns="http://www.w3.org/2000/svg" xmlns:xlink="http://www.w3.org/1999/xlink" version="1.1" x="0" y="0" height="230" width="800" viewBox="0 0 800 230" preserveAspectRatio="none"  >
<g label="Query sequence" class="clusterblast-cluster"  >
<text x="5" y="20" class="clusterblast-acc"  >
Query sequence</text>
<line x1="10" y1="35" x2="778.0" y2="35" style="stroke-width:1; stroke:grey; "  />
<polygon points="218,40 221,35 218,30 218,40 " style="fill:white; stroke-width:1; stroke:black; " description="&lt;b&gt;LLPMBPKK_00467&lt;/b&gt;&lt;br&gt;pyruvate phosphate dikinase&lt;br&gt;Location: 575108 - 575282" locus_tag="LLPMBPKK_00467" class="clusterblast-orf" id="dummy-2_q0_0_all"  />
<polygon points="223,40 227,40 232,35 227,30 223,30 223,40 " style="fill:white; stroke-width:1; stroke:black; " description="&lt;b&gt;LLPMBPKK_00468&lt;/b&gt;&lt;br&gt;hypothetical protein&lt;br&gt;Location: 575385 - 575844" locus_tag="LLPMBPKK_00468" class="clusterblast-orf" id="dummy-2_q1_0_all"  />
<polygon points="237,40 242,40 247,35 242,30 237,30 237,40 " style="fill:white; stroke-width:1; stroke:black; " description="&lt;b&gt;LLPMBPKK_00469&lt;/b&gt;&lt;br&gt;proline rich protein membrane protein&lt;br&gt;Location: 576091 - 576664" locus_tag="LLPMBPKK_00469" class="clusterblast-orf" id="dummy-2_q2_0_all"  />
<polygon points="249,40 266,40 271,35 266,30 249,30 249,40 " style="fill:white; stroke-width:1; stroke:black; " description="&lt;b&gt;LLPMBPKK_00470&lt;/b&gt;&lt;br&gt;CBS domain-containing protein&lt;br&gt;Location: 576750 - 577917" locus_tag="LLPMBPKK_00470" class="clusterblast-orf" id="dummy-2_q3_0_all"  />
<polygon points="278,35 283,30 294,30 294,40 283,40 278,35 " style="fill:white; stroke-width:1; stroke:black; " description="&lt;b&gt;LLPMBPKK_00471&lt;/b&gt;&lt;br&gt;universal stress protein&lt;br&gt;Location: 578282 - 579188" locus_tag="LLPMBPKK_00471" class="clusterblast-orf" id="dummy-2_q4_0_all"  />
<polygon points="298,40 305,40 310,35 305,30 298,30 298,40 " style="fill:white; stroke-width:1; stroke:black; " description="&lt;b&gt;LLPMBPKK_00472&lt;/b&gt;&lt;br&gt;CBS domain-containing protein&lt;br&gt;Location: 579372 - 580029" locus_tag="LLPMBPKK_00472" class="clusterblast-orf" id="dummy-2_q5_0_all"  />
<polygon points="315,35 320,30 331,30 331,40 320,40 315,35 " style="fill:white; stroke-width:1; stroke:black; " description="&lt;b&gt;LLPMBPKK_00473&lt;/b&gt;&lt;br&gt;alpha/beta fold hydrolase&lt;br&gt;Location: 580275 - 581157" locus_tag="LLPMBPKK_00473" class="clusterblast-orf" id="dummy-2_q6_0_all"  />
<polygon points="332,40 336,40 341,35 336,30 332,30 332,40 " style="fill:white; stroke-width:1; stroke:black; " description="&lt;b&gt;LLPMBPKK_00474&lt;/b&gt;&lt;br&gt;MarR family transcriptional regulator&lt;br&gt;Location: 581209 - 581680" locus_tag="LLPMBPKK_00474" class="clusterblast-orf" id="dummy-2_q7_0_all"  />
<polygon points="342,35 347,30 350,30 350,40 347,40 342,35 " style="fill:white; stroke-width:1; stroke:black; " description="&lt;b&gt;LLPMBPKK_00475&lt;/b&gt;&lt;br&gt;hypothetical protein&lt;br&gt;Location: 581717 - 582158" locus_tag="LLPMBPKK_00475" class="clusterblast-orf" id="dummy-2_q8_0_all"  />
<polygon points="351,40 358,40 363,35 358,30 351,30 351,40 " style="fill:white; stroke-width:1; stroke:black; " description="&lt;b&gt;LLPMBPKK_00476&lt;/b&gt;&lt;br&gt;TetR family transcriptional regulator&lt;br&gt;Location: 582224 - 582851" locus_tag="LLPMBPKK_00476" class="clusterblast-orf" id="dummy-2_q9_0_all"  />
<polygon points="366,35 371,30 381,30 381,40 371,40 366,35 " style="fill:#d81515; stroke-width:1; stroke:black; " description="&lt;b&gt;LLPMBPKK_00477&lt;/b&gt;&lt;br&gt;alpha/beta fold hydrolase&lt;br&gt;Location: 583023 - 583836" locus_tag="LLPMBPKK_00477" class="clusterblast-orf" id="dummy-2_q10_0_all"  />
<polygon points="381,35 386,30 391,30 391,40 386,40 381,35 " style="fill:#15d8d8; stroke-width:1; stroke:black; " description="&lt;b&gt;LLPMBPKK_00478&lt;/b&gt;&lt;br&gt;hypothetical protein&lt;br&gt;Location: 583836 - 584379" locus_tag="LLPMBPKK_00478" class="clusterblast-orf" id="dummy-2_q11_0_all"  />
<polygon points="392,35 397,30 409,30 409,40 397,40 392,35 " style="fill:white; stroke-width:1; stroke:black; " description="&lt;b&gt;LLPMBPKK_00479&lt;/b&gt;&lt;br&gt;hypothetical protein&lt;br&gt;Location: 584434 - 585301" locus_tag="LLPMBPKK_00479" class="clusterblast-orf" id="dummy-2_q12_0_all"  />
<polygon points="410,35 415,30 418,30 418,40 415,40 410,35 " style="fill:white; stroke-width:1; stroke:black; " description="&lt;b&gt;LLPMBPKK_00480&lt;/b&gt;&lt;br&gt;hypothetical protein&lt;br&gt;Location: 585375 - 585789" locus_tag="LLPMBPKK_00480" class="clusterblast-orf" id="dummy-2_q13_0_all"  />
<polygon points="419,40 426,40 431,35 426,30 419,30 419,40 " style="fill:white; stroke-width:1; stroke:black; " description="&lt;b&gt;LLPMBPKK_00481&lt;/b&gt;&lt;br&gt;TetR/AcrR family transcriptional regulator&lt;br&gt;Location: 585881 - 586511" locus_tag="LLPMBPKK_00481" class="clusterblast-orf" id="dummy-2_q14_0_all"  />
<polygon points="437,35 442,30 442,30 442,40 442,40 437,35 " style="fill:white; stroke-width:1; stroke:black; " description="&lt;b&gt;LLPMBPKK_00482&lt;/b&gt;&lt;br&gt;hypothetical protein&lt;br&gt;Location: 586798 - 587071" locus_tag="LLPMBPKK_00482" class="clusterblast-orf" id="dummy-2_q15_0_all"  />
<polygon points="451,35 454,30 454,40 451,35 " style="fill:white; stroke-width:1; stroke:black; " description="&lt;b&gt;LLPMBPKK_00483&lt;/b&gt;&lt;br&gt;hypothetical protein&lt;br&gt;Location: 587549 - 587720" locus_tag="LLPMBPKK_00483" class="clusterblast-orf" id="dummy-2_q16_0_all"  />
<polygon points="455,40 458,35 455,30 455,40 " style="fill:white; stroke-width:1; stroke:black; " description="&lt;b&gt;LLPMBPKK_00484&lt;/b&gt;&lt;br&gt;hypothetical protein&lt;br&gt;Location: 587807 - 587933" locus_tag="LLPMBPKK_00484" class="clusterblast-orf" id="dummy-2_q17_0_all"  />
<polygon points="464,35 469,30 480,30 480,40 469,40 464,35 " style="fill:white; stroke-width:1; stroke:black; " description="&lt;b&gt;LLPMBPKK_00485&lt;/b&gt;&lt;br&gt;RNA polymerase sigma factor sig8&lt;br&gt;Location: 588280 - 589126" locus_tag="LLPMBPKK_00485" class="clusterblast-orf" id="dummy-2_q18_0_all"  />
<polygon points="485,40 486,40 491,35 486,30 485,30 485,40 " style="fill:white; stroke-width:1; stroke:black; " description="&lt;b&gt;LLPMBPKK_00486&lt;/b&gt;&lt;br&gt;hypothetical protein&lt;br&gt;Location: 589413 - 589701" locus_tag="LLPMBPKK_00486" class="clusterblast-orf" id="dummy-2_q19_0_all"  />
<polygon points="493,35 498,30 537,30 537,40 498,40 493,35 " style="fill:white; stroke-width:1; stroke:black; " description="&lt;b&gt;LLPMBPKK_00487&lt;/b&gt;&lt;br&gt;SARP family transcriptional regulator&lt;br&gt;Location: 589823 - 592199" locus_tag="LLPMBPKK_00487" class="clusterblast-orf" id="dummy-2_q20_0_all"  />
<polygon points="544,35 549,30 561,30 561,40 549,40 544,35 " style="fill:white; stroke-width:1; stroke:black; " description="&lt;b&gt;LLPMBPKK_00488&lt;/b&gt;&lt;br&gt;ECF subfamily RNA polymerase sigma-70 factor&lt;br&gt;Location: 592571 - 593468" locus_tag="LLPMBPKK_00488" class="clusterblast-orf" id="dummy-2_q21_0_all"  />
</g>
<g label="NZ_AP022598" description="NZ_AP022598 (5229260-5271762): Mycolicibacterium parafortuitum strain JCM 6367 (5% of genes show similarity), NRPS-like,linaridin" class="clusterblast-cluster"  >
<text x="5" y="70" class="clusterblast-acc"  >
<a xlink:href="https://antismash-db.secondarymetabolites.org/area.html?record=NZ_AP022598&amp;start=5229260&amp;end=5271762" target="_blank">NZ_AP022598 (5229260-5271762)</a>: Mycolicibacterium parafortuitum strain JCM 6367 (5% of genes show similarity), NRPS-like,linaridin</text>
<line x1="10" y1="85" x2="778.0" y2="85" style="stroke-width:1; stroke:grey; "  />
</g>
<g id="a2_000"  >
<polygon points="0,90 0,90 5,85 0,80 0,80 0,90 " style="fill:white; stroke-width:1; stroke:black; " description="&lt;b&gt;NTM_RS24920&lt;/b&gt;&lt;br&gt;DUF2469 domain-containing protein&lt;br&gt;Location: 5271104 - 5270799" locus_tag="NTM_RS24920" class="clusterblast-orf" id="dummy-2_h2_1_0"  />
</g>
<g id="a2_001"  >
<polygon points="5,85 10,80 31,80 31,90 10,90 5,85 " style="fill:white; stroke-width:1; stroke:black; " description="&lt;b&gt;NTM_RS24915&lt;/b&gt;&lt;br&gt;TetR family transcriptional regulator&lt;br&gt;Location: 5270793 - 5269438" locus_tag="NTM_RS24915" class="clusterblast-orf" id="dummy-2_h2_1_1"  />
</g>
<g id="a2_002"  >
<polygon points="31,85 36,80 50,80 50,90 36,90 31,85 " style="fill:white; stroke-width:1; stroke:black; " description="&lt;b&gt;NTM_RS24910&lt;/b&gt;&lt;br&gt;SDR family NAD(P)-dependent oxidoreductase&lt;br&gt;Location: 5269435 - 5268407" locus_tag="NTM_RS24910" class="clusterblast-orf" id="dummy-2_h2_1_2"  />
</g>
<g id="a2_003"  >
<polygon points="53,90 79,90 84,85 79,80 53,80 53,90 " style="fill:white; stroke-width:1; stroke:black; " description="&lt;b&gt;NTM_RS24905&lt;/b&gt;&lt;br&gt;VWA domain-containing protein&lt;br&gt;Location: 5268219 - 5266576" locus_tag="NTM_RS24905" class="clusterblast-orf" id="dummy-2_h2_1_3"  />
</g>
<g id="a2_004"  >
<polygon points="85,90 96,90 101,85 96,80 85,80 85,90 " style="fill:white; stroke-width:1; stroke:black; " description="&lt;b&gt;NTM_RS24900&lt;/b&gt;&lt;br&gt;AAA family ATPase&lt;br&gt;Location: 5266513 - 5265653" locus_tag="NTM_RS24900" class="clusterblast-orf" id="dummy-2_h2_1_4"  />
</g>
<g id="a2_005"  >
<polygon points="103,90 119,90 124,85 119,80 103,80 103,90 " style="fill:white; stroke-width:1; stroke:black; " description="&lt;b&gt;NTM_RS24895&lt;/b&gt;&lt;br&gt;ABC transporter substrate-binding protein&lt;br&gt;Location: 5265560 - 5264445" locus_tag="NTM_RS24895" class="clusterblast-orf" id="dummy-2_h2_1_5"  />
</g>
<g id="a2_006"  >
<polygon points="122,90 140,90 145,85 140,80 122,80 122,90 " style="fill:white; stroke-width:1; stroke:black; " description="&lt;b&gt;NTM_RS24890&lt;/b&gt;&lt;br&gt;spirocyclase AveC family protein&lt;br&gt;Location: 5264532 - 5263312" locus_tag="NTM_RS24890" class="clusterblast-orf" id="dummy-2_h2_1_6"  />
</g>
<g id="a2_007"  >
<polygon points="145,90 159,90 164,85 159,80 145,80 145,90 " style="fill:white; stroke-width:1; stroke:black; " description="&lt;b&gt;NTM_RS24885&lt;/b&gt;&lt;br&gt;SDR family NAD(P)-dependent oxidoreductase&lt;br&gt;Location: 5263315 - 5262299" locus_tag="NTM_RS24885" class="clusterblast-orf" id="dummy-2_h2_1_7"  />
</g>
<g id="a2_008"  >
<polygon points="164,90 186,90 191,85 186,80 164,80 164,90 " style="fill:white; stroke-width:1; stroke:black; " description="&lt;b&gt;NTM_RS24880&lt;/b&gt;&lt;br&gt;aldehyde dehydrogenase family protein&lt;br&gt;Location: 5262306 - 5260831" locus_tag="NTM_RS24880" class="clusterblast-orf" id="dummy-2_h2_1_8"  />
</g>
<g id="a2_009"  >
<polygon points="192,90 210,90 215,85 210,80 192,80 192,90 " style="fill:white; stroke-width:1; stroke:black; " description="&lt;b&gt;NTM_RS24875&lt;/b&gt;&lt;br&gt;cytochrome P450&lt;br&gt;Location: 5260789 - 5259569" locus_tag="NTM_RS24875" class="clusterblast-orf" id="dummy-2_h2_1_9"  />
</g>
<g id="a2_0010"  >
<polygon points="215,90 234,90 239,85 234,80 215,80 215,90 " style="fill:white; stroke-width:1; stroke:black; " description="&lt;b&gt;NTM_RS24870&lt;/b&gt;&lt;br&gt;cytochrome P450&lt;br&gt;Location: 5259565 - 5258282" locus_tag="NTM_RS24870" class="clusterblast-orf" id="dummy-2_h2_1_10"  />
</g>
<g id="a2_0011"  >
<polygon points="239,90 250,90 255,85 250,80 239,80 239,90 " style="fill:white; stroke-width:1; stroke:black; " description="&lt;b&gt;NTM_RS24865&lt;/b&gt;&lt;br&gt;mycofactocin-coupled SDR family oxidoreductase&lt;br&gt;Location: 5258285 - 5257407" locus_tag="NTM_RS24865" class="clusterblast-orf" id="dummy-2_h2_1_11"  />
</g>
<g id="a2_0012"  >
<polygon points="256,85 261,80 268,80 268,90 261,90 256,85 " style="fill:white; stroke-width:1; stroke:black; " description="&lt;b&gt;NTM_RS24860&lt;/b&gt;&lt;br&gt;TetR/AcrR family transcriptional regulator&lt;br&gt;Location: 5257397 - 5256738" locus_tag="NTM_RS24860" class="clusterblast-orf" id="dummy-2_h2_1_12"  />
</g>
<g id="a2_0013"  >
<polygon points="271,90 280,90 285,85 280,80 271,80 271,90 " style="fill:white; stroke-width:1; stroke:black; " description="&lt;b&gt;NTM_RS24855&lt;/b&gt;&lt;br&gt;spirocyclase AveC family protein&lt;br&gt;Location: 5256586 - 5255798" locus_tag="NTM_RS24855" class="clusterblast-orf" id="dummy-2_h2_1_13"  />
</g>
<g id="a2_0014"  >
<polygon points="286,90 303,90 308,85 303,80 286,80 286,90 " style="fill:white; stroke-width:1; stroke:black; " description="&lt;b&gt;NTM_RS24850&lt;/b&gt;&lt;br&gt;cytochrome P450&lt;br&gt;Location: 5255763 - 5254591" locus_tag="NTM_RS24850" class="clusterblast-orf" id="dummy-2_h2_1_14"  />
</g>
<g id="a2_0015"  >
<polygon points="309,90 318,90 323,85 318,80 309,80 309,90 " style="fill:white; stroke-width:1; stroke:black; " description="&lt;b&gt;NTM_RS24845&lt;/b&gt;&lt;br&gt;HAD family hydrolase&lt;br&gt;Location: 5254543 - 5253770" locus_tag="NTM_RS24845" class="clusterblast-orf" id="dummy-2_h2_1_15"  />
</g>
<g id="a2_0016"  >
<polygon points="324,90 341,90 346,85 341,80 324,80 324,90 " style="fill:white; stroke-width:1; stroke:black; " description="&lt;b&gt;NTM_RS24840&lt;/b&gt;&lt;br&gt;CoA transferase&lt;br&gt;Location: 5253746 - 5252538" locus_tag="NTM_RS24840" class="clusterblast-orf" id="dummy-2_h2_1_16"  />
</g>
<g id="a2_0017"  >
<polygon points="346,90 357,90 362,85 357,80 346,80 346,90 " style="fill:white; stroke-width:1; stroke:black; " description="&lt;b&gt;NTM_RS24835&lt;/b&gt;&lt;br&gt;thioesterase family protein&lt;br&gt;Location: 5252529 - 5251717" locus_tag="NTM_RS24835" class="clusterblast-orf" id="dummy-2_h2_1_17"  />
</g>
<g id="a2_0018"  >
<polygon points="361,85 366,80 408,80 408,90 366,90 361,85 " style="fill:white; stroke-width:1; stroke:black; " description="&lt;b&gt;NTM_RS24830&lt;/b&gt;&lt;br&gt;AMP-binding protein&lt;br&gt;Location: 5251762 - 5249261" locus_tag="NTM_RS24830" class="clusterblast-orf" id="dummy-2_h2_1_18"  />
</g>
<g id="a2_0019"  >
<polygon points="408,85 413,80 424,80 424,90 413,90 408,85 " style="fill:white; stroke-width:1; stroke:black; " description="&lt;b&gt;NTM_RS24825&lt;/b&gt;&lt;br&gt;DUF1206 domain-containing protein&lt;br&gt;Location: 5249223 - 5248378" locus_tag="NTM_RS24825" class="clusterblast-orf" id="dummy-2_h2_1_19"  />
</g>
<g id="a2_0020"  >
<polygon points="426,85 431,80 436,80 436,90 431,90 426,85 " style="fill:white; stroke-width:1; stroke:black; " description="&lt;b&gt;NTM_RS24820&lt;/b&gt;&lt;br&gt;hypothetical protein&lt;br&gt;Location: 5248277 - 5247717" locus_tag="NTM_RS24820" class="clusterblast-orf" id="dummy-2_h2_1_20"  />
</g>
<g id="a2_0021"  >
<polygon points="442,85 447,80 457,80 457,90 447,90 442,85 " style="fill:white; stroke-width:1; stroke:black; " description="&lt;b&gt;NTM_RS24815&lt;/b&gt;&lt;br&gt;aquaporin Z&lt;br&gt;Location: 5247401 - 5246625" locus_tag="NTM_RS24815" class="clusterblast-orf" id="dummy-2_h2_1_21"  />
</g>
<g id="a2_0022"  >
<polygon points="459,85 464,80 475,80 475,90 464,90 459,85 " style="fill:#d81515; stroke-width:1; stroke:black; " description="&lt;b&gt;NTM_RS24810&lt;/b&gt;&lt;br&gt;hypothetical protein&lt;br&gt;Location: 5246498 - 5245668&lt;br&gt;&lt;br&gt;&lt;b&gt;BlastP hit with LLPMBPKK_00477&lt;/b&gt;&lt;br&gt;Percentage identity: 46&lt;br&gt;Percentage coverage: 95&lt;br&gt;BLAST bit score: 188&lt;br&gt;E-value: 8.77e-57" locus_tag="NTM_RS24810" class="clusterblast-orf" id="dummy-2_h2_1_22"  />
</g>
<g id="a2_0023"  >
<polygon points="474,85 479,80 485,80 485,90 479,90 474,85 " style="fill:#15d8d8; stroke-width:1; stroke:black; " description="&lt;b&gt;NTM_RS24805&lt;/b&gt;&lt;br&gt;hypothetical protein&lt;br&gt;Location: 5245677 - 5245108&lt;br&gt;&lt;br&gt;&lt;b&gt;BlastP hit with LLPMBPKK_00478&lt;/b&gt;&lt;br&gt;Percentage identity: 40&lt;br&gt;Percentage coverage: 90&lt;br&gt;BLAST bit score: 128&lt;br&gt;E-value: 7.24e-36" locus_tag="NTM_RS24805" class="clusterblast-orf" id="dummy-2_h2_1_23"  />
</g>
<g id="a2_0024"  >
<polygon points="486,85 491,80 491,80 491,90 491,90 486,85 " style="fill:white; stroke-width:1; stroke:black; " description="&lt;b&gt;NTM_RS24800&lt;/b&gt;&lt;br&gt;hypothetical protein&lt;br&gt;Location: 5245082 - 5244786" locus_tag="NTM_RS24800" class="clusterblast-orf" id="dummy-2_h2_1_24"  />
</g>
<g id="a2_0025"  >
<polygon points="495,90 497,90 502,85 497,80 495,80 495,90 " style="fill:white; stroke-width:1; stroke:black; " description="&lt;b&gt;NTM_RS24795&lt;/b&gt;&lt;br&gt;YraN family protein&lt;br&gt;Location: 5244596 - 5244225" locus_tag="NTM_RS24795" class="clusterblast-orf" id="dummy-2_h2_1_25"  />
</g>
<g id="a2_0026"  >
<polygon points="502,90 525,90 530,85 525,80 502,80 502,90 " style="fill:white; stroke-width:1; stroke:black; " description="&lt;b&gt;NTM_RS24790&lt;/b&gt;&lt;br&gt;YifB family Mg chelatase-like AAA ATPase&lt;br&gt;Location: 5244225 - 5242717" locus_tag="NTM_RS24790" class="clusterblast-orf" id="dummy-2_h2_1_26"  />
</g>
<g id="a2_0027"  >
<polygon points="530,90 546,90 551,85 546,80 530,80 530,90 " style="fill:white; stroke-width:1; stroke:black; " description="&lt;b&gt;NTM_RS24785&lt;/b&gt;&lt;br&gt;DNA-protecting protein DprA&lt;br&gt;Location: 5242717 - 5241560" locus_tag="NTM_RS24785" class="clusterblast-orf" id="dummy-2_h2_1_27"  />
</g>
<g id="a2_0028"  >
<polygon points="552,90 563,90 568,85 563,80 552,80 552,90 " style="fill:white; stroke-width:1; stroke:black; " description="&lt;b&gt;NTM_RS24780&lt;/b&gt;&lt;br&gt;siderophore-interacting protein&lt;br&gt;Location: 5241526 - 5240681" locus_tag="NTM_RS24780" class="clusterblast-orf" id="dummy-2_h2_1_28"  />
</g>
<g id="a2_0029"  >
<polygon points="568,90 585,90 590,85 585,80 568,80 568,90 " style="fill:white; stroke-width:1; stroke:black; " description="&lt;b&gt;NTM_RS24775&lt;/b&gt;&lt;br&gt;alpha-hydroxy-acid oxidizing protein&lt;br&gt;Location: 5240644 - 5239484" locus_tag="NTM_RS24775" class="clusterblast-orf" id="dummy-2_h2_1_29"  />
</g>
<g id="a2_0030"  >
<polygon points="591,90 603,90 608,85 603,80 591,80 591,90 " style="fill:white; stroke-width:1; stroke:black; " description="&lt;b&gt;NTM_RS24770&lt;/b&gt;&lt;br&gt;tyrosine recombinase&lt;br&gt;Location: 5239451 - 5238549" locus_tag="NTM_RS24770" class="clusterblast-orf" id="dummy-2_h2_1_30"  />
</g>
<g id="a2_0031"  >
<polygon points="608,90 619,90 624,85 619,80 608,80 608,90 " style="fill:white; stroke-width:1; stroke:black; " description="&lt;b&gt;NTM_RS24765&lt;/b&gt;&lt;br&gt;alpha/beta fold hydrolase&lt;br&gt;Location: 5238552 - 5237674" locus_tag="NTM_RS24765" class="clusterblast-orf" id="dummy-2_h2_1_31"  />
</g>
<g id="a2_0032"  >
<polygon points="624,85 629,80 642,80 642,90 629,90 624,85 " style="fill:white; stroke-width:1; stroke:black; " description="&lt;b&gt;NTM_RS24760&lt;/b&gt;&lt;br&gt;TIGR03621 family F420-dependent LLM class oxidoreductase&lt;br&gt;Location: 5237690 - 5236728" locus_tag="NTM_RS24760" class="clusterblast-orf" id="dummy-2_h2_1_32"  />
</g>
<g id="a2_0033"  >
<polygon points="642,85 647,80 651,80 651,90 647,90 642,85 " style="fill:white; stroke-width:1; stroke:black; " description="&lt;b&gt;NTM_RS24755&lt;/b&gt;&lt;br&gt;peptidoglycan DD-metalloendopeptidase family protein&lt;br&gt;Location: 5236700 - 5236212" locus_tag="NTM_RS24755" class="clusterblast-orf" id="dummy-2_h2_1_33"  />
</g>
<g id="a2_0034"  >
<polygon points="657,90 667,90 672,85 667,80 657,80 657,90 " style="fill:white; stroke-width:1; stroke:black; " description="&lt;b&gt;NTM_RS24750&lt;/b&gt;&lt;br&gt;30S ribosomal protein S2&lt;br&gt;Location: 5235913 - 5235095" locus_tag="NTM_RS24750" class="clusterblast-orf" id="dummy-2_h2_1_34"  />
</g>
<g id="a2_0035"  >
<polygon points="673,90 683,90 688,85 683,80 673,80 673,90 " style="fill:white; stroke-width:1; stroke:black; " description="&lt;b&gt;NTM_RS24745&lt;/b&gt;&lt;br&gt;elongation factor Ts&lt;br&gt;Location: 5235061 - 5234234" locus_tag="NTM_RS24745" class="clusterblast-orf" id="dummy-2_h2_1_35"  />
</g>
<g id="a2_0036"  >
<polygon points="694,90 718,90 723,85 718,80 694,80 694,90 " style="fill:white; stroke-width:1; stroke:black; " description="&lt;b&gt;NTM_RS24740&lt;/b&gt;&lt;br&gt;exopolysaccharide biosynthesis polyprenyl glycosylphosphotransferase&lt;br&gt;Location: 5233936 - 5232362" locus_tag="NTM_RS24740" class="clusterblast-orf" id="dummy-2_h2_1_36"  />
</g>
<g id="a2_0037"  >
<polygon points="724,90 745,90 750,85 745,80 724,80 724,90 " style="fill:white; stroke-width:1; stroke:black; " description="&lt;b&gt;NTM_RS24735&lt;/b&gt;&lt;br&gt;amidase&lt;br&gt;Location: 5232341 - 5230935" locus_tag="NTM_RS24735" class="clusterblast-orf" id="dummy-2_h2_1_37"  />
</g>
<g id="a2_0038"  >
<polygon points="758,90 775,90 780,85 775,80 758,80 758,90 " style="fill:white; stroke-width:1; stroke:black; " description="&lt;b&gt;NTM_RS24730&lt;/b&gt;&lt;br&gt;ABC transporter permease&lt;br&gt;Location: 5230521 - 5229346" locus_tag="NTM_RS24730" class="clusterblast-orf" id="dummy-2_h2_1_38"  />
</g>
</svg>
