<svg xmlns="http://www.w3.org/2000/svg" xmlns:xlink="http://www.w3.org/1999/xlink" version="1.1" x="0" y="0" height="230" width="800" viewBox="0 0 800 230" preserveAspectRatio="none"  >
<g label="Query sequence" class="clusterblast-cluster"  >
<text x="5" y="20" class="clusterblast-acc"  >
Query sequence</text>
<line x1="10" y1="35" x2="778.0" y2="35" style="stroke-width:1; stroke:grey; "  />
<polygon points="262,40 262,40 267,35 262,30 262,30 262,40 " style="fill:#d81515; stroke-width:1; stroke:black; " description="&lt;b&gt;LLPMBPKK_05373&lt;/b&gt;&lt;br&gt;hypothetical protein&lt;br&gt;Location: 6119913 - 6120729" locus_tag="LLPMBPKK_05373" class="clusterblast-orf" id="dummy-20_q0_0_all"  />
<polygon points="269,40 273,40 278,35 273,30 269,30 269,40 " style="fill:#33d815; stroke-width:1; stroke:black; " description="&lt;b&gt;LLPMBPKK_05374&lt;/b&gt;&lt;br&gt;amino acid permease&lt;br&gt;Location: 6121100 - 6122573" locus_tag="LLPMBPKK_05374" class="clusterblast-orf" id="dummy-20_q1_0_all"  />
<polygon points="281,40 282,35 281,30 281,40 " style="fill:white; stroke-width:1; stroke:black; " description="&lt;b&gt;LLPMBPKK_05375&lt;/b&gt;&lt;br&gt;hypothetical protein&lt;br&gt;Location: 6122987 - 6123137" locus_tag="LLPMBPKK_05375" class="clusterblast-orf" id="dummy-20_q2_0_all"  />
<polygon points="283,40 285,35 283,30 283,40 " style="fill:white; stroke-width:1; stroke:black; " description="&lt;b&gt;LLPMBPKK_05376&lt;/b&gt;&lt;br&gt;hypothetical protein&lt;br&gt;Location: 6123339 - 6123723" locus_tag="LLPMBPKK_05376" class="clusterblast-orf" id="dummy-20_q3_0_all"  />
<polygon points="286,40 288,40 293,35 288,30 286,30 286,40 " style="fill:#15abd8; stroke-width:1; stroke:black; " description="&lt;b&gt;LLPMBPKK_05377&lt;/b&gt;&lt;br&gt;cytochrome P450&lt;br&gt;Location: 6123827 - 6125027" locus_tag="LLPMBPKK_05377" class="clusterblast-orf" id="dummy-20_q4_0_all"  />
<polygon points="295,40 300,40 305,35 300,30 295,30 295,40 " style="fill:#8d15d8; stroke-width:1; stroke:black; " description="&lt;b&gt;LLPMBPKK_05378&lt;/b&gt;&lt;br&gt;solute-binding transport lipoprotein&lt;br&gt;Location: 6125331 - 6126897" locus_tag="LLPMBPKK_05378" class="clusterblast-orf" id="dummy-20_q5_0_all"  />
<polygon points="305,35 310,30 322,30 322,40 310,40 305,35 " style="fill:#d86f15; stroke-width:1; stroke:black; " description="&lt;b&gt;LLPMBPKK_05379&lt;/b&gt;&lt;br&gt;non-ribosomal peptide synthetase&lt;br&gt;Location: 6126958 - 6129811" locus_tag="LLPMBPKK_05379" class="clusterblast-orf" id="dummy-20_q6_0_all"  />
<polygon points="324,40 343,40 348,35 343,30 324,30 324,40 " style="fill:#d86f15; stroke-width:1; stroke:black; " description="&lt;b&gt;LLPMBPKK_05380&lt;/b&gt;&lt;br&gt;non-ribosomal peptide synthetase&lt;br&gt;Location: 6130070 - 6134009" locus_tag="LLPMBPKK_05380" class="clusterblast-orf" id="dummy-20_q7_0_all"  />
<polygon points="349,40 403,40 408,35 403,30 349,30 349,40 " style="fill:#d86f15; stroke-width:1; stroke:black; " description="&lt;b&gt;LLPMBPKK_05381&lt;/b&gt;&lt;br&gt;non-ribosomal peptide synthetase/polyketidesynthase&lt;br&gt;Location: 6134151 - 6143928" locus_tag="LLPMBPKK_05381" class="clusterblast-orf" id="dummy-20_q8_0_all"  />
<polygon points="409,40 410,40 415,35 410,30 409,30 409,40 " style="fill:#15d851; stroke-width:1; stroke:black; " description="&lt;b&gt;LLPMBPKK_05382&lt;/b&gt;&lt;br&gt;GSCFA family protein&lt;br&gt;Location: 6143938 - 6145072" locus_tag="LLPMBPKK_05382" class="clusterblast-orf" id="dummy-20_q9_0_all"  />
<polygon points="415,40 415,40 420,35 415,30 415,30 415,40 " style="fill:#1551d8; stroke-width:1; stroke:black; " description="&lt;b&gt;LLPMBPKK_05383&lt;/b&gt;&lt;br&gt;hypothetical protein&lt;br&gt;Location: 6145037 - 6145817" locus_tag="LLPMBPKK_05383" class="clusterblast-orf" id="dummy-20_q10_0_all"  />
<polygon points="420,40 421,40 426,35 421,30 420,30 420,40 " style="fill:#d815c9; stroke-width:1; stroke:black; " description="&lt;b&gt;LLPMBPKK_05384&lt;/b&gt;&lt;br&gt;taurine dioxygenase&lt;br&gt;Location: 6145894 - 6146770" locus_tag="LLPMBPKK_05384" class="clusterblast-orf" id="dummy-20_q11_0_all"  />
<polygon points="426,35 431,30 431,30 431,40 431,40 426,35 " style="fill:#d8c915; stroke-width:1; stroke:black; " description="&lt;b&gt;LLPMBPKK_05385&lt;/b&gt;&lt;br&gt;hypothetical protein&lt;br&gt;Location: 6146782 - 6147661" locus_tag="LLPMBPKK_05385" class="clusterblast-orf" id="dummy-20_q12_0_all"  />
<polygon points="432,40 437,40 442,35 437,30 432,30 432,40 " style="fill:#15d8ab; stroke-width:1; stroke:black; " description="&lt;b&gt;LLPMBPKK_05386&lt;/b&gt;&lt;br&gt;hypothetical protein&lt;br&gt;Location: 6147847 - 6149494" locus_tag="LLPMBPKK_05386" class="clusterblast-orf" id="dummy-20_q13_0_all"  />
<polygon points="444,40 457,40 462,35 457,30 444,30 444,40 " style="fill:#3315d8; stroke-width:1; stroke:black; " description="&lt;b&gt;LLPMBPKK_05387&lt;/b&gt;&lt;br&gt;Alginate lyase&lt;br&gt;Location: 6149718 - 6152715" locus_tag="LLPMBPKK_05387" class="clusterblast-orf" id="dummy-20_q14_0_all"  />
<polygon points="463,35 468,30 475,30 475,40 468,40 463,35 " style="fill:#3315d8; stroke-width:1; stroke:black; " description="&lt;b&gt;LLPMBPKK_05388&lt;/b&gt;&lt;br&gt;Lytic transglycosylase&lt;br&gt;Location: 6152790 - 6154881" locus_tag="LLPMBPKK_05388" class="clusterblast-orf" id="dummy-20_q15_0_all"  />
<polygon points="478,40 489,40 494,35 489,30 478,30 478,40 " style="fill:#d8156f; stroke-width:1; stroke:black; " description="&lt;b&gt;LLPMBPKK_05389&lt;/b&gt;&lt;br&gt;hypothetical protein&lt;br&gt;Location: 6155246 - 6157967" locus_tag="LLPMBPKK_05389" class="clusterblast-orf" id="dummy-20_q16_0_all"  />
<polygon points="501,40 503,35 501,30 501,40 " style="fill:#8dd815; stroke-width:1; stroke:black; " description="&lt;b&gt;LLPMBPKK_05390&lt;/b&gt;&lt;br&gt;D-mannose binding lectin&lt;br&gt;Location: 6159084 - 6159405" locus_tag="LLPMBPKK_05390" class="clusterblast-orf" id="dummy-20_q17_0_all"  />
<polygon points="503,35 508,30 517,30 517,40 508,40 503,35 " style="fill:#15d8ab; stroke-width:1; stroke:black; " description="&lt;b&gt;LLPMBPKK_05391&lt;/b&gt;&lt;br&gt;hypothetical protein&lt;br&gt;Location: 6159385 - 6161743" locus_tag="LLPMBPKK_05391" class="clusterblast-orf" id="dummy-20_q18_0_all"  />
</g>
<g label="NZ_LT607733" description="NZ_LT607733 (2144281-2272137): Micromonospora echinofusca strain DSM 43913 ch... (13% of genes show similarity), NRPS,lanthipeptide" class="clusterblast-cluster"  >
<text x="5" y="70" class="clusterblast-acc"  >
<a xlink:href="https://antismash-db.secondarymetabolites.org/area.html?record=NZ_LT607733&amp;start=2144281&amp;end=2272137" target="_blank">NZ_LT607733 (2144281-2272137)</a>: Micromonospora echinofusca strain DSM 43913 ch... (13% of genes show similarity), NRPS,lanthipeptide</text>
<line x1="10" y1="85" x2="778.0" y2="85" style="stroke-width:1; stroke:grey; "  />
</g>
<g id="a20_000"  >
<polygon points="0,85 3,80 3,90 0,85 " style="fill:white; stroke-width:1; stroke:black; " description="&lt;b&gt;GA0070610_RS10080&lt;/b&gt;&lt;br&gt;TetR family transcriptional regulator&lt;br&gt;Location: 2272137 - 2271517" locus_tag="GA0070610_RS10080" class="clusterblast-orf" id="dummy-20_h20_10_0"  />
</g>
<g id="a20_001"  >
<polygon points="6,90 7,90 12,85 7,80 6,80 6,90 " style="fill:white; stroke-width:1; stroke:black; " description="&lt;b&gt;GA0070610_RS10075&lt;/b&gt;&lt;br&gt;diacylglycerol kinase&lt;br&gt;Location: 2271042 - 2270113" locus_tag="GA0070610_RS10075" class="clusterblast-orf" id="dummy-20_h20_10_1"  />
</g>
<g id="a20_002"  >
<polygon points="12,85 17,80 20,80 20,90 17,90 12,85 " style="fill:white; stroke-width:1; stroke:black; " description="&lt;b&gt;GA0070610_RS10070&lt;/b&gt;&lt;br&gt;PLP-dependent transferase&lt;br&gt;Location: 2270024 - 2268849" locus_tag="GA0070610_RS10070" class="clusterblast-orf" id="dummy-20_h20_10_2"  />
</g>
<g id="a20_003"  >
<polygon points="21,90 26,90 31,85 26,80 21,80 21,90 " style="fill:white; stroke-width:1; stroke:black; " description="&lt;b&gt;GA0070610_RS10065&lt;/b&gt;&lt;br&gt;RICIN domain-containing protein&lt;br&gt;Location: 2268613 - 2267000" locus_tag="GA0070610_RS10065" class="clusterblast-orf" id="dummy-20_h20_10_3"  />
</g>
<g id="a20_004"  >
<polygon points="32,85 37,80 37,80 37,90 37,90 32,85 " style="fill:white; stroke-width:1; stroke:black; " description="&lt;b&gt;GA0070610_RS10060&lt;/b&gt;&lt;br&gt;SGNH/GDSL hydrolase family protein&lt;br&gt;Location: 2266835 - 2266032" locus_tag="GA0070610_RS10060" class="clusterblast-orf" id="dummy-20_h20_10_4"  />
</g>
<g id="a20_005"  >
<polygon points="38,85 40,80 40,90 38,85 " style="fill:white; stroke-width:1; stroke:black; " description="&lt;b&gt;GA0070610_RS10055&lt;/b&gt;&lt;br&gt;class I SAM-dependent methyltransferase&lt;br&gt;Location: 2265808 - 2265452" locus_tag="GA0070610_RS10055" class="clusterblast-orf" id="dummy-20_h20_10_5"  />
</g>
<g id="a20_006"  >
<polygon points="42,85 47,80 53,80 53,90 47,90 42,85 " style="fill:white; stroke-width:1; stroke:black; " description="&lt;b&gt;GA0070610_RS10050&lt;/b&gt;&lt;br&gt;AfsR/SARP family transcriptional regulator&lt;br&gt;Location: 2265132 - 2263315" locus_tag="GA0070610_RS10050" class="clusterblast-orf" id="dummy-20_h20_10_6"  />
</g>
<g id="a20_007"  >
<polygon points="55,90 70,90 75,85 70,80 55,80 55,90 " style="fill:white; stroke-width:1; stroke:black; " description="&lt;b&gt;GA0070610_RS10045&lt;/b&gt;&lt;br&gt;type 2 lantipeptide synthetase LanM&lt;br&gt;Location: 2263063 - 2259764" locus_tag="GA0070610_RS10045" class="clusterblast-orf" id="dummy-20_h20_10_7"  />
</g>
<g id="a20_008"  >
<polygon points="76,90 77,85 76,80 76,90 " style="fill:white; stroke-width:1; stroke:black; " description="&lt;b&gt;GA0070610_RS10040&lt;/b&gt;&lt;br&gt;hypothetical protein&lt;br&gt;Location: 2259677 - 2259438" locus_tag="GA0070610_RS10040" class="clusterblast-orf" id="dummy-20_h20_10_8"  />
</g>
<g id="a20_009"  >
<polygon points="78,90 90,90 95,85 90,80 78,80 78,90 " style="fill:white; stroke-width:1; stroke:black; " description="&lt;b&gt;GA0070610_RS10035&lt;/b&gt;&lt;br&gt;LuxR family transcriptional regulator&lt;br&gt;Location: 2259336 - 2256457" locus_tag="GA0070610_RS10035" class="clusterblast-orf" id="dummy-20_h20_10_9"  />
</g>
<g id="a20_0010"  >
<polygon points="96,90 99,90 104,85 99,80 96,80 96,90 " style="fill:white; stroke-width:1; stroke:black; " description="&lt;b&gt;GA0070610_RS10030&lt;/b&gt;&lt;br&gt;hypothetical protein&lt;br&gt;Location: 2256394 - 2254955" locus_tag="GA0070610_RS10030" class="clusterblast-orf" id="dummy-20_h20_10_10"  />
</g>
<g id="a20_0011"  >
<polygon points="105,90 109,90 114,85 109,80 105,80 105,90 " style="fill:white; stroke-width:1; stroke:black; " description="&lt;b&gt;GA0070610_RS10025&lt;/b&gt;&lt;br&gt;N-acetylmuramoyl-L-alanine amidase&lt;br&gt;Location: 2254763 - 2253372" locus_tag="GA0070610_RS10025" class="clusterblast-orf" id="dummy-20_h20_10_11"  />
</g>
<g id="a20_0012"  >
<polygon points="116,90 124,90 129,85 124,80 116,80 116,90 " style="fill:white; stroke-width:1; stroke:black; " description="&lt;b&gt;GA0070610_RS10020&lt;/b&gt;&lt;br&gt;catalase&lt;br&gt;Location: 2253106 - 2250845" locus_tag="GA0070610_RS10020" class="clusterblast-orf" id="dummy-20_h20_10_12"  />
</g>
<g id="a20_0013"  >
<polygon points="130,85 135,80 135,80 135,90 135,90 130,85 " style="fill:white; stroke-width:1; stroke:black; " description="&lt;b&gt;GA0070610_RS10015&lt;/b&gt;&lt;br&gt;peptidoglycan DD-metalloendopeptidase family protein&lt;br&gt;Location: 2250762 - 2249890" locus_tag="GA0070610_RS10015" class="clusterblast-orf" id="dummy-20_h20_10_13"  />
</g>
<g id="a20_0014"  >
<polygon points="136,85 139,80 139,90 136,85 " style="fill:white; stroke-width:1; stroke:black; " description="&lt;b&gt;GA0070610_RS10010&lt;/b&gt;&lt;br&gt;hypothetical protein&lt;br&gt;Location: 2249769 - 2249347" locus_tag="GA0070610_RS10010" class="clusterblast-orf" id="dummy-20_h20_10_14"  />
</g>
<g id="a20_0015"  >
<polygon points="140,85 145,80 166,80 166,90 145,90 140,85 " style="fill:white; stroke-width:1; stroke:black; " description="&lt;b&gt;GA0070610_RS10005&lt;/b&gt;&lt;br&gt;S8 family serine peptidase&lt;br&gt;Location: 2249180 - 2244837" locus_tag="GA0070610_RS10005" class="clusterblast-orf" id="dummy-20_h20_10_15"  />
</g>
<g id="a20_0016"  >
<polygon points="167,85 172,80 172,80 172,90 172,90 167,85 " style="fill:white; stroke-width:1; stroke:black; " description="&lt;b&gt;GA0070610_RS10000&lt;/b&gt;&lt;br&gt;thioesterase&lt;br&gt;Location: 2244644 - 2243925" locus_tag="GA0070610_RS10000" class="clusterblast-orf" id="dummy-20_h20_10_16"  />
</g>
<g id="a20_0017"  >
<polygon points="172,85 177,80 183,80 183,90 177,90 172,85 " style="fill:white; stroke-width:1; stroke:black; " description="&lt;b&gt;GA0070610_RS09995&lt;/b&gt;&lt;br&gt;asparagine synthase (glutamine-hydrolyzing)&lt;br&gt;Location: 2243914 - 2242076" locus_tag="GA0070610_RS09995" class="clusterblast-orf" id="dummy-20_h20_10_17"  />
</g>
<g id="a20_0018"  >
<polygon points="183,85 188,80 191,80 191,90 188,90 183,85 " style="fill:white; stroke-width:1; stroke:black; " description="&lt;b&gt;GA0070610_RS09990&lt;/b&gt;&lt;br&gt;aminotransferase class III-fold pyridoxal phosphate-dependent enzyme&lt;br&gt;Location: 2242079 - 2240700" locus_tag="GA0070610_RS09990" class="clusterblast-orf" id="dummy-20_h20_10_18"  />
</g>
<g id="a20_0019"  >
<polygon points="191,85 193,80 193,90 191,85 " style="fill:white; stroke-width:1; stroke:black; " description="&lt;b&gt;GA0070610_RS09985&lt;/b&gt;&lt;br&gt;chorismate mutase&lt;br&gt;Location: 2240703 - 2240404" locus_tag="GA0070610_RS09985" class="clusterblast-orf" id="dummy-20_h20_10_19"  />
</g>
<g id="a20_0020"  >
<polygon points="193,85 198,80 198,80 198,90 198,90 193,85 " style="fill:white; stroke-width:1; stroke:black; " description="&lt;b&gt;GA0070610_RS09980&lt;/b&gt;&lt;br&gt;methyltransferase domain-containing protein&lt;br&gt;Location: 2240407 - 2239676" locus_tag="GA0070610_RS09980" class="clusterblast-orf" id="dummy-20_h20_10_20"  />
</g>
<g id="a20_0021"  >
<polygon points="198,85 203,80 203,80 203,90 203,90 198,85 " style="fill:white; stroke-width:1; stroke:black; " description="&lt;b&gt;GA0070610_RS09975&lt;/b&gt;&lt;br&gt;class I SAM-dependent methyltransferase&lt;br&gt;Location: 2239614 - 2238823" locus_tag="GA0070610_RS09975" class="clusterblast-orf" id="dummy-20_h20_10_21"  />
</g>
<g id="a20_0022"  >
<polygon points="203,85 208,80 212,80 212,90 208,90 203,85 " style="fill:white; stroke-width:1; stroke:black; " description="&lt;b&gt;GA0070610_RS09970&lt;/b&gt;&lt;br&gt;aldehyde dehydrogenase family protein&lt;br&gt;Location: 2238791 - 2237355" locus_tag="GA0070610_RS09970" class="clusterblast-orf" id="dummy-20_h20_10_22"  />
</g>
<g id="a20_0023"  >
<polygon points="212,85 217,80 220,80 220,90 217,90 212,85 " style="fill:white; stroke-width:1; stroke:black; " description="&lt;b&gt;GA0070610_RS09965&lt;/b&gt;&lt;br&gt;MFS transporter&lt;br&gt;Location: 2237336 - 2236074" locus_tag="GA0070610_RS09965" class="clusterblast-orf" id="dummy-20_h20_10_23"  />
</g>
<g id="a20_0024"  >
<polygon points="219,85 224,80 236,80 236,90 224,90 219,85 " style="fill:white; stroke-width:1; stroke:black; " description="&lt;b&gt;GA0070610_RS09960&lt;/b&gt;&lt;br&gt;amino acid adenylation domain-containing protein&lt;br&gt;Location: 2236077 - 2233300" locus_tag="GA0070610_RS09960" class="clusterblast-orf" id="dummy-20_h20_10_24"  />
</g>
<g id="a20_0025"  >
<polygon points="236,85 241,80 265,80 265,90 241,90 236,85 " style="fill:#d86f15; stroke-width:1; stroke:black; " description="&lt;b&gt;GA0070610_RS09955&lt;/b&gt;&lt;br&gt;non-ribosomal peptide synthetase&lt;br&gt;Location: 2233303 - 2228678&lt;br&gt;&lt;br&gt;&lt;b&gt;BlastP hit with LLPMBPKK_05380&lt;/b&gt;&lt;br&gt;Percentage identity: 40&lt;br&gt;Percentage coverage: 81&lt;br&gt;BLAST bit score: 651&lt;br&gt;E-value: 4.34e-207" locus_tag="GA0070610_RS09955" class="clusterblast-orf" id="dummy-20_h20_10_25"  />
</g>
<g id="a20_0026"  >
<polygon points="265,85 270,80 285,80 285,90 270,90 265,85 " style="fill:#d86f15; stroke-width:1; stroke:black; " description="&lt;b&gt;GA0070610_RS09950&lt;/b&gt;&lt;br&gt;non-ribosomal peptide synthetase&lt;br&gt;Location: 2228681 - 2225301&lt;br&gt;&lt;br&gt;&lt;b&gt;BlastP hit with LLPMBPKK_05379&lt;/b&gt;&lt;br&gt;Percentage identity: 33&lt;br&gt;Percentage coverage: 102&lt;br&gt;BLAST bit score: 371&lt;br&gt;E-value: 5.96e-110&lt;br&gt;&lt;br&gt;&lt;b&gt;BlastP hit with LLPMBPKK_05380&lt;/b&gt;&lt;br&gt;Percentage identity: 42&lt;br&gt;Percentage coverage: 81&lt;br&gt;BLAST bit score: 680&lt;br&gt;E-value: 8.25e-223" locus_tag="GA0070610_RS09950" class="clusterblast-orf" id="dummy-20_h20_10_26"  />
</g>
<g id="a20_0027"  >
<polygon points="285,85 290,80 308,80 308,90 290,90 285,85 " style="fill:#d86f15; stroke-width:1; stroke:black; " description="&lt;b&gt;GA0070610_RS09945&lt;/b&gt;&lt;br&gt;non-ribosomal peptide synthetase&lt;br&gt;Location: 2225304 - 2221600&lt;br&gt;&lt;br&gt;&lt;b&gt;BlastP hit with LLPMBPKK_05379&lt;/b&gt;&lt;br&gt;Percentage identity: 35&lt;br&gt;Percentage coverage: 103&lt;br&gt;BLAST bit score: 377&lt;br&gt;E-value: 2.58e-111&lt;br&gt;&lt;br&gt;&lt;b&gt;BlastP hit with LLPMBPKK_05380&lt;/b&gt;&lt;br&gt;Percentage identity: 42&lt;br&gt;Percentage coverage: 80&lt;br&gt;BLAST bit score: 621&lt;br&gt;E-value: 5.87e-199" locus_tag="GA0070610_RS09945" class="clusterblast-orf" id="dummy-20_h20_10_27"  />
</g>
<g id="a20_0028"  >
<polygon points="308,85 313,80 319,80 319,90 313,90 308,85 " style="fill:white; stroke-width:1; stroke:black; " description="&lt;b&gt;GA0070610_RS09940&lt;/b&gt;&lt;br&gt;non-ribosomal peptide synthetase&lt;br&gt;Location: 2221574 - 2219775" locus_tag="GA0070610_RS09940" class="clusterblast-orf" id="dummy-20_h20_10_28"  />
</g>
<g id="a20_0029"  >
<polygon points="319,85 324,80 327,80 327,90 324,90 319,85 " style="fill:white; stroke-width:1; stroke:black; " description="&lt;b&gt;GA0070610_RS09935&lt;/b&gt;&lt;br&gt;aminotransferase class V-fold PLP-dependent enzyme&lt;br&gt;Location: 2219723 - 2218479" locus_tag="GA0070610_RS09935" class="clusterblast-orf" id="dummy-20_h20_10_29"  />
</g>
<g id="a20_0030"  >
<polygon points="327,85 332,80 335,80 335,90 332,90 327,85 " style="fill:white; stroke-width:1; stroke:black; " description="&lt;b&gt;GA0070610_RS09930&lt;/b&gt;&lt;br&gt;phenylacetate--CoA ligase family protein&lt;br&gt;Location: 2218486 - 2217146" locus_tag="GA0070610_RS09930" class="clusterblast-orf" id="dummy-20_h20_10_30"  />
</g>
<g id="a20_0031"  >
<polygon points="335,85 337,80 337,90 335,85 " style="fill:white; stroke-width:1; stroke:black; " description="&lt;b&gt;GA0070610_RS09925&lt;/b&gt;&lt;br&gt;MbtH family NRPS accessory protein&lt;br&gt;Location: 2217131 - 2216826" locus_tag="GA0070610_RS09925" class="clusterblast-orf" id="dummy-20_h20_10_31"  />
</g>
<g id="a20_0032"  >
<polygon points="337,85 342,80 342,80 342,90 342,90 337,85 " style="fill:white; stroke-width:1; stroke:black; " description="&lt;b&gt;GA0070610_RS09920&lt;/b&gt;&lt;br&gt;phytanoyl-CoA dioxygenase family protein&lt;br&gt;Location: 2216793 - 2215963" locus_tag="GA0070610_RS09920" class="clusterblast-orf" id="dummy-20_h20_10_32"  />
</g>
<g id="a20_0033"  >
<polygon points="347,85 350,80 350,90 347,85 " style="fill:white; stroke-width:1; stroke:black; " description="&lt;b&gt;GA0070610_RS09915&lt;/b&gt;&lt;br&gt;adenylate kinase&lt;br&gt;Location: 2215162 - 2214632" locus_tag="GA0070610_RS09915" class="clusterblast-orf" id="dummy-20_h20_10_33"  />
</g>
<g id="a20_0034"  >
<polygon points="353,90 354,90 359,85 354,80 353,80 353,90 " style="fill:white; stroke-width:1; stroke:black; " description="&lt;b&gt;GA0070610_RS09910&lt;/b&gt;&lt;br&gt;hypothetical protein&lt;br&gt;Location: 2214188 - 2213235" locus_tag="GA0070610_RS09910" class="clusterblast-orf" id="dummy-20_h20_10_34"  />
</g>
<g id="a20_0035"  >
<polygon points="360,85 365,80 367,80 367,90 365,90 360,85 " style="fill:white; stroke-width:1; stroke:black; " description="&lt;b&gt;GA0070610_RS09905&lt;/b&gt;&lt;br&gt;M20/M25/M40 family metallo-hydrolase&lt;br&gt;Location: 2213113 - 2211968" locus_tag="GA0070610_RS09905" class="clusterblast-orf" id="dummy-20_h20_10_35"  />
</g>
<g id="a20_0036"  >
<polygon points="367,90 371,85 367,80 367,90 " style="fill:white; stroke-width:1; stroke:black; " description="&lt;b&gt;GA0070610_RS09900&lt;/b&gt;&lt;br&gt;GNAT family N-acetyltransferase&lt;br&gt;Location: 2211870 - 2211166" locus_tag="GA0070610_RS09900" class="clusterblast-orf" id="dummy-20_h20_10_36"  />
</g>
<g id="a20_0037"  >
<polygon points="371,90 375,85 371,80 371,90 " style="fill:white; stroke-width:1; stroke:black; " description="&lt;b&gt;GA0070610_RS09895&lt;/b&gt;&lt;br&gt;MurR/RpiR family transcriptional regulator&lt;br&gt;Location: 2211169 - 2210534" locus_tag="GA0070610_RS09895" class="clusterblast-orf" id="dummy-20_h20_10_37"  />
</g>
<g id="a20_0038"  >
<polygon points="376,90 378,90 383,85 378,80 376,80 376,90 " style="fill:white; stroke-width:1; stroke:black; " description="&lt;b&gt;GA0070610_RS09890&lt;/b&gt;&lt;br&gt;o-succinylbenzoate synthase&lt;br&gt;Location: 2210460 - 2209333" locus_tag="GA0070610_RS09890" class="clusterblast-orf" id="dummy-20_h20_10_38"  />
</g>
<g id="a20_0039"  >
<polygon points="383,90 386,90 391,85 386,80 383,80 383,90 " style="fill:white; stroke-width:1; stroke:black; " description="&lt;b&gt;GA0070610_RS09885&lt;/b&gt;&lt;br&gt;MFS transporter&lt;br&gt;Location: 2209304 - 2208009" locus_tag="GA0070610_RS09885" class="clusterblast-orf" id="dummy-20_h20_10_39"  />
</g>
<g id="a20_0040"  >
<polygon points="391,90 393,85 391,80 391,90 " style="fill:white; stroke-width:1; stroke:black; " description="&lt;b&gt;GA0070610_RS09880&lt;/b&gt;&lt;br&gt;MbtH family protein&lt;br&gt;Location: 2207937 - 2207716" locus_tag="GA0070610_RS09880" class="clusterblast-orf" id="dummy-20_h20_10_40"  />
</g>
<g id="a20_0041"  >
<polygon points="393,90 421,90 426,85 421,80 393,80 393,90 " style="fill:white; stroke-width:1; stroke:black; " description="&lt;b&gt;GA0070610_RS30455&lt;/b&gt;&lt;br&gt;amino acid adenylation domain-containing protein&lt;br&gt;Location: 2207694 - 2202217" locus_tag="GA0070610_RS30455" class="clusterblast-orf" id="dummy-20_h20_10_41"  />
</g>
<g id="a20_0042"  >
<polygon points="426,90 441,90 446,85 441,80 426,80 426,90 " style="fill:#d86f15; stroke-width:1; stroke:black; " description="&lt;b&gt;GA0070610_RS09860&lt;/b&gt;&lt;br&gt;non-ribosomal peptide synthetase&lt;br&gt;Location: 2202215 - 2198922&lt;br&gt;&lt;br&gt;&lt;b&gt;BlastP hit with LLPMBPKK_05379&lt;/b&gt;&lt;br&gt;Percentage identity: 34&lt;br&gt;Percentage coverage: 105&lt;br&gt;BLAST bit score: 368&lt;br&gt;E-value: 3.54e-109&lt;br&gt;&lt;br&gt;&lt;b&gt;BlastP hit with LLPMBPKK_05380&lt;/b&gt;&lt;br&gt;Percentage identity: 41&lt;br&gt;Percentage coverage: 80&lt;br&gt;BLAST bit score: 607&lt;br&gt;E-value: 2.01e-195" locus_tag="GA0070610_RS09860" class="clusterblast-orf" id="dummy-20_h20_10_42"  />
</g>
<g id="a20_0043"  >
<polygon points="446,90 450,85 446,80 446,90 " style="fill:white; stroke-width:1; stroke:black; " description="&lt;b&gt;GA0070610_RS09855&lt;/b&gt;&lt;br&gt;SpcZ&lt;br&gt;Location: 2198925 - 2198254" locus_tag="GA0070610_RS09855" class="clusterblast-orf" id="dummy-20_h20_10_43"  />
</g>
<g id="a20_0044"  >
<polygon points="451,90 529,90 534,85 529,80 451,80 451,90 " style="fill:#d86f15; stroke-width:1; stroke:black; " description="&lt;b&gt;GA0070610_RS09850&lt;/b&gt;&lt;br&gt;amino acid adenylation domain-containing protein&lt;br&gt;Location: 2198137 - 2184557&lt;br&gt;&lt;br&gt;&lt;b&gt;BlastP hit with LLPMBPKK_05379&lt;/b&gt;&lt;br&gt;Percentage identity: 42&lt;br&gt;Percentage coverage: 68&lt;br&gt;BLAST bit score: 381&lt;br&gt;E-value: 3.38e-110&lt;br&gt;&lt;br&gt;&lt;b&gt;BlastP hit with LLPMBPKK_05380&lt;/b&gt;&lt;br&gt;Percentage identity: 51&lt;br&gt;Percentage coverage: 81&lt;br&gt;BLAST bit score: 905&lt;br&gt;E-value: 1.67e-285" locus_tag="GA0070610_RS09850" class="clusterblast-orf" id="dummy-20_h20_10_44"  />
</g>
<g id="a20_0045"  >
<polygon points="534,90 554,90 559,85 554,80 534,80 534,90 " style="fill:#d86f15; stroke-width:1; stroke:black; " description="&lt;b&gt;GA0070610_RS09845&lt;/b&gt;&lt;br&gt;non-ribosomal peptide synthetase&lt;br&gt;Location: 2184560 - 2180499&lt;br&gt;&lt;br&gt;&lt;b&gt;BlastP hit with LLPMBPKK_05379&lt;/b&gt;&lt;br&gt;Percentage identity: 35&lt;br&gt;Percentage coverage: 102&lt;br&gt;BLAST bit score: 393&lt;br&gt;E-value: 1.31e-116&lt;br&gt;&lt;br&gt;&lt;b&gt;BlastP hit with LLPMBPKK_05380&lt;/b&gt;&lt;br&gt;Percentage identity: 51&lt;br&gt;Percentage coverage: 99&lt;br&gt;BLAST bit score: 1151&lt;br&gt;E-value: 0.0" locus_tag="GA0070610_RS09845" class="clusterblast-orf" id="dummy-20_h20_10_45"  />
</g>
<g id="a20_0046"  >
<polygon points="559,90 611,90 616,85 611,80 559,80 559,90 " style="fill:#d86f15; stroke-width:1; stroke:black; " description="&lt;b&gt;GA0070610_RS09840&lt;/b&gt;&lt;br&gt;non-ribosomal peptide synthetase&lt;br&gt;Location: 2180499 - 2171128&lt;br&gt;&lt;br&gt;&lt;b&gt;BlastP hit with LLPMBPKK_05381&lt;/b&gt;&lt;br&gt;Percentage identity: 64&lt;br&gt;Percentage coverage: 98&lt;br&gt;BLAST bit score: 3692&lt;br&gt;E-value: 0.0" locus_tag="GA0070610_RS09840" class="clusterblast-orf" id="dummy-20_h20_10_46"  />
</g>
<g id="a20_0047"  >
<polygon points="616,90 617,90 622,85 617,80 616,80 616,90 " style="fill:#15d851; stroke-width:1; stroke:black; " description="&lt;b&gt;GA0070610_RS09835&lt;/b&gt;&lt;br&gt;GSCFA domain-containing protein&lt;br&gt;Location: 2171131 - 2170076&lt;br&gt;&lt;br&gt;&lt;b&gt;BlastP hit with LLPMBPKK_05382&lt;/b&gt;&lt;br&gt;Percentage identity: 67&lt;br&gt;Percentage coverage: 93&lt;br&gt;BLAST bit score: 477&lt;br&gt;E-value: 1.3e-167" locus_tag="GA0070610_RS09835" class="clusterblast-orf" id="dummy-20_h20_10_47"  />
</g>
<g id="a20_0048"  >
<polygon points="622,90 626,85 622,80 622,90 " style="fill:#1551d8; stroke-width:1; stroke:black; " description="&lt;b&gt;GA0070610_RS09830&lt;/b&gt;&lt;br&gt;hypothetical protein&lt;br&gt;Location: 2170113 - 2169418&lt;br&gt;&lt;br&gt;&lt;b&gt;BlastP hit with LLPMBPKK_05383&lt;/b&gt;&lt;br&gt;Percentage identity: 68&lt;br&gt;Percentage coverage: 90&lt;br&gt;BLAST bit score: 306&lt;br&gt;E-value: 6.81e-104" locus_tag="GA0070610_RS09830" class="clusterblast-orf" id="dummy-20_h20_10_48"  />
</g>
<g id="a20_0049"  >
<polygon points="626,90 627,90 632,85 627,80 626,80 626,90 " style="fill:#d815c9; stroke-width:1; stroke:black; " description="&lt;b&gt;GA0070610_RS09825&lt;/b&gt;&lt;br&gt;TauD/TfdA family dioxygenase&lt;br&gt;Location: 2169395 - 2168520&lt;br&gt;&lt;br&gt;&lt;b&gt;BlastP hit with LLPMBPKK_05384&lt;/b&gt;&lt;br&gt;Percentage identity: 69&lt;br&gt;Percentage coverage: 99&lt;br&gt;BLAST bit score: 414&lt;br&gt;E-value: 3.46e-145" locus_tag="GA0070610_RS09825" class="clusterblast-orf" id="dummy-20_h20_10_49"  />
</g>
<g id="a20_0050"  >
<polygon points="632,85 637,80 638,80 638,90 637,90 632,85 " style="fill:white; stroke-width:1; stroke:black; " description="&lt;b&gt;GA0070610_RS09820&lt;/b&gt;&lt;br&gt;FAD-dependent monooxygenase&lt;br&gt;Location: 2168489 - 2167434" locus_tag="GA0070610_RS09820" class="clusterblast-orf" id="dummy-20_h20_10_50"  />
</g>
<g id="a20_0051"  >
<polygon points="640,90 644,85 640,80 640,90 " style="fill:white; stroke-width:1; stroke:black; " description="&lt;b&gt;GA0070610_RS09815&lt;/b&gt;&lt;br&gt;hypothetical protein&lt;br&gt;Location: 2167157 - 2166516" locus_tag="GA0070610_RS09815" class="clusterblast-orf" id="dummy-20_h20_10_51"  />
</g>
<g id="a20_0052"  >
<polygon points="644,90 645,90 650,85 645,80 644,80 644,90 " style="fill:white; stroke-width:1; stroke:black; " description="&lt;b&gt;GA0070610_RS09810&lt;/b&gt;&lt;br&gt;hypothetical protein&lt;br&gt;Location: 2166519 - 2165509" locus_tag="GA0070610_RS09810" class="clusterblast-orf" id="dummy-20_h20_10_52"  />
</g>
<g id="a20_0053"  >
<polygon points="650,90 652,85 650,80 650,90 " style="fill:white; stroke-width:1; stroke:black; " description="&lt;b&gt;GA0070610_RS09805&lt;/b&gt;&lt;br&gt;acetyl xylan esterase&lt;br&gt;Location: 2165512 - 2165240" locus_tag="GA0070610_RS09805" class="clusterblast-orf" id="dummy-20_h20_10_53"  />
</g>
<g id="a20_0054"  >
<polygon points="652,90 653,85 652,80 652,90 " style="fill:white; stroke-width:1; stroke:black; " description="&lt;b&gt;GA0070610_RS09800&lt;/b&gt;&lt;br&gt;acyl carrier protein&lt;br&gt;Location: 2165237 - 2164986" locus_tag="GA0070610_RS09800" class="clusterblast-orf" id="dummy-20_h20_10_54"  />
</g>
<g id="a20_0055"  >
<polygon points="653,90 658,90 663,85 658,80 653,80 653,90 " style="fill:white; stroke-width:1; stroke:black; " description="&lt;b&gt;GA0070610_RS09795&lt;/b&gt;&lt;br&gt;long-chain-fatty-acid--CoA ligase&lt;br&gt;Location: 2164989 - 2163436" locus_tag="GA0070610_RS09795" class="clusterblast-orf" id="dummy-20_h20_10_55"  />
</g>
<g id="a20_0056"  >
<polygon points="663,90 666,90 671,85 666,80 663,80 663,90 " style="fill:white; stroke-width:1; stroke:black; " description="&lt;b&gt;GA0070610_RS09790&lt;/b&gt;&lt;br&gt;SDR family oxidoreductase&lt;br&gt;Location: 2163377 - 2162079" locus_tag="GA0070610_RS09790" class="clusterblast-orf" id="dummy-20_h20_10_56"  />
</g>
<g id="a20_0057"  >
<polygon points="676,90 678,90 683,85 678,80 676,80 676,90 " style="fill:white; stroke-width:1; stroke:black; " description="&lt;b&gt;GA0070610_RS09785&lt;/b&gt;&lt;br&gt;SagB/ThcOx family dehydrogenase&lt;br&gt;Location: 2161223 - 2160072" locus_tag="GA0070610_RS09785" class="clusterblast-orf" id="dummy-20_h20_10_57"  />
</g>
<g id="a20_0058"  >
<polygon points="683,90 686,90 691,85 686,80 683,80 683,90 " style="fill:white; stroke-width:1; stroke:black; " description="&lt;b&gt;GA0070610_RS09780&lt;/b&gt;&lt;br&gt;MFS transporter&lt;br&gt;Location: 2160034 - 2158763" locus_tag="GA0070610_RS09780" class="clusterblast-orf" id="dummy-20_h20_10_58"  />
</g>
<g id="a20_0059"  >
<polygon points="692,85 697,80 704,80 704,90 697,90 692,85 " style="fill:white; stroke-width:1; stroke:black; " description="&lt;b&gt;GA0070610_RS09775&lt;/b&gt;&lt;br&gt;cellulase family glycosylhydrolase&lt;br&gt;Location: 2158684 - 2156585" locus_tag="GA0070610_RS09775" class="clusterblast-orf" id="dummy-20_h20_10_59"  />
</g>
<g id="a20_0060"  >
<polygon points="706,85 710,80 710,90 706,85 " style="fill:white; stroke-width:1; stroke:black; " description="&lt;b&gt;GA0070610_RS09770&lt;/b&gt;&lt;br&gt;carbon-nitrogen hydrolase family protein&lt;br&gt;Location: 2156397 - 2155681" locus_tag="GA0070610_RS09770" class="clusterblast-orf" id="dummy-20_h20_10_60"  />
</g>
<g id="a20_0061"  >
<polygon points="710,85 714,80 714,90 710,85 " style="fill:white; stroke-width:1; stroke:black; " description="&lt;b&gt;GA0070610_RS09765&lt;/b&gt;&lt;br&gt;TetR/AcrR family transcriptional regulator&lt;br&gt;Location: 2155614 - 2154991" locus_tag="GA0070610_RS09765" class="clusterblast-orf" id="dummy-20_h20_10_61"  />
</g>
<g id="a20_0062"  >
<polygon points="715,90 717,85 715,80 715,90 " style="fill:white; stroke-width:1; stroke:black; " description="&lt;b&gt;GA0070610_RS09760&lt;/b&gt;&lt;br&gt;RidA family protein&lt;br&gt;Location: 2154919 - 2154512" locus_tag="GA0070610_RS09760" class="clusterblast-orf" id="dummy-20_h20_10_62"  />
</g>
<g id="a20_0063"  >
<polygon points="718,85 722,80 722,90 718,85 " style="fill:white; stroke-width:1; stroke:black; " description="&lt;b&gt;GA0070610_RS09755&lt;/b&gt;&lt;br&gt;response regulator transcription factor&lt;br&gt;Location: 2154438 - 2153776" locus_tag="GA0070610_RS09755" class="clusterblast-orf" id="dummy-20_h20_10_63"  />
</g>
<g id="a20_0064"  >
<polygon points="722,85 727,80 728,80 728,90 727,90 722,85 " style="fill:white; stroke-width:1; stroke:black; " description="&lt;b&gt;GA0070610_RS09750&lt;/b&gt;&lt;br&gt;two-component sensor histidine kinase&lt;br&gt;Location: 2153779 - 2152655" locus_tag="GA0070610_RS09750" class="clusterblast-orf" id="dummy-20_h20_10_64"  />
</g>
<g id="a20_0065"  >
<polygon points="730,90 733,85 730,80 730,90 " style="fill:white; stroke-width:1; stroke:black; " description="&lt;b&gt;GA0070610_RS09745&lt;/b&gt;&lt;br&gt;hypothetical protein&lt;br&gt;Location: 2152425 - 2151982" locus_tag="GA0070610_RS09745" class="clusterblast-orf" id="dummy-20_h20_10_65"  />
</g>
<g id="a20_0066"  >
<polygon points="733,85 738,80 739,80 739,90 738,90 733,85 " style="fill:white; stroke-width:1; stroke:black; " description="&lt;b&gt;GA0070610_RS09740&lt;/b&gt;&lt;br&gt;acetylxylan esterase&lt;br&gt;Location: 2151892 - 2150924" locus_tag="GA0070610_RS09740" class="clusterblast-orf" id="dummy-20_h20_10_66"  />
</g>
<g id="a20_0067"  >
<polygon points="740,85 744,80 744,90 740,85 " style="fill:white; stroke-width:1; stroke:black; " description="&lt;b&gt;GA0070610_RS09735&lt;/b&gt;&lt;br&gt;N-acetylmannosamine-6-phosphate 2-epimerase&lt;br&gt;Location: 2150828 - 2150148" locus_tag="GA0070610_RS09735" class="clusterblast-orf" id="dummy-20_h20_10_67"  />
</g>
<g id="a20_0068"  >
<polygon points="744,85 749,80 749,80 749,90 749,90 744,85 " style="fill:white; stroke-width:1; stroke:black; " description="&lt;b&gt;GA0070610_RS09730&lt;/b&gt;&lt;br&gt;ROK family protein&lt;br&gt;Location: 2150151 - 2149201" locus_tag="GA0070610_RS09730" class="clusterblast-orf" id="dummy-20_h20_10_68"  />
</g>
<g id="a20_0069"  >
<polygon points="750,85 755,80 755,80 755,90 755,90 750,85 " style="fill:white; stroke-width:1; stroke:black; " description="&lt;b&gt;GA0070610_RS09725&lt;/b&gt;&lt;br&gt;dihydrodipicolinate synthase family protein&lt;br&gt;Location: 2149198 - 2148260" locus_tag="GA0070610_RS09725" class="clusterblast-orf" id="dummy-20_h20_10_69"  />
</g>
<g id="a20_0070"  >
<polygon points="755,85 760,80 762,80 762,90 760,90 755,85 " style="fill:white; stroke-width:1; stroke:black; " description="&lt;b&gt;GA0070610_RS09720&lt;/b&gt;&lt;br&gt;ABC transporter ATP-binding protein&lt;br&gt;Location: 2148263 - 2147193" locus_tag="GA0070610_RS09720" class="clusterblast-orf" id="dummy-20_h20_10_70"  />
</g>
<g id="a20_0071"  >
<polygon points="762,85 767,80 774,80 774,90 767,90 762,85 " style="fill:white; stroke-width:1; stroke:black; " description="&lt;b&gt;GA0070610_RS09715&lt;/b&gt;&lt;br&gt;dipeptide/oligopeptide/nickel ABC transporter permease/ATP-binding protein&lt;br&gt;Location: 2147196 - 2145238" locus_tag="GA0070610_RS09715" class="clusterblast-orf" id="dummy-20_h20_10_71"  />
</g>
<g id="a20_0072"  >
<polygon points="774,85 779,80 780,80 780,90 779,90 774,85 " style="fill:white; stroke-width:1; stroke:black; " description="&lt;b&gt;GA0070610_RS09710&lt;/b&gt;&lt;br&gt;ABC transporter permease&lt;br&gt;Location: 2145238 - 2144282" locus_tag="GA0070610_RS09710" class="clusterblast-orf" id="dummy-20_h20_10_72"  />
</g>
</svg>
