<svg xmlns="http://www.w3.org/2000/svg" xmlns:xlink="http://www.w3.org/1999/xlink" version="1.1" x="0" y="0" height="230" width="800" viewBox="0 0 800 230" preserveAspectRatio="none"  >
<g label="Query sequence" class="clusterblast-cluster"  >
<text x="5" y="20" class="clusterblast-acc"  >
Query sequence</text>
<line x1="10" y1="35" x2="778.0" y2="35" style="stroke-width:1; stroke:grey; "  />
<polygon points="0,35 5,30 52,30 52,40 5,40 0,35 " style="fill:#d81515; stroke-width:1; stroke:black; " description="&lt;b&gt;LLPMBPKK_06266&lt;/b&gt;&lt;br&gt;hypothetical protein&lt;br&gt;Location: 7240601 - 7241402" locus_tag="LLPMBPKK_06266" class="clusterblast-orf" id="dummy-26_q0_0_all"  />
<polygon points="52,35 57,30 133,30 133,40 57,40 52,35 " style="fill:#15d863; stroke-width:1; stroke:black; " description="&lt;b&gt;LLPMBPKK_06267&lt;/b&gt;&lt;br&gt;VWA domain-containing protein&lt;br&gt;Location: 7241401 - 7242664" locus_tag="LLPMBPKK_06267" class="clusterblast-orf" id="dummy-26_q1_0_all"  />
<polygon points="138,35 143,30 185,30 185,40 143,40 138,35 " style="fill:#1563d8; stroke-width:1; stroke:black; " description="&lt;b&gt;LLPMBPKK_06268&lt;/b&gt;&lt;br&gt;hypothetical protein&lt;br&gt;Location: 7242741 - 7243485" locus_tag="LLPMBPKK_06268" class="clusterblast-orf" id="dummy-26_q2_0_all"  />
<polygon points="189,35 194,30 288,30 288,40 194,40 189,35 " style="fill:#b115d8; stroke-width:1; stroke:black; " description="&lt;b&gt;LLPMBPKK_06269&lt;/b&gt;&lt;br&gt;hypothetical protein&lt;br&gt;Location: 7243533 - 7245075" locus_tag="LLPMBPKK_06269" class="clusterblast-orf" id="dummy-26_q3_0_all"  />
<polygon points="294,35 299,30 393,30 393,40 299,40 294,35 " style="fill:#b1d815; stroke-width:1; stroke:black; " description="&lt;b&gt;LLPMBPKK_06270&lt;/b&gt;&lt;br&gt;IucA/IucC family siderophore biosynthesisprotein&lt;br&gt;Location: 7245181 - 7246720" locus_tag="LLPMBPKK_06270" class="clusterblast-orf" id="dummy-26_q4_0_all"  />
<polygon points="402,40 495,40 500,35 495,30 402,30 402,40 " style="fill:#b1d815; stroke-width:1; stroke:black; " description="&lt;b&gt;LLPMBPKK_06271&lt;/b&gt;&lt;br&gt;iron transporter&lt;br&gt;Location: 7246849 - 7248373" locus_tag="LLPMBPKK_06271" class="clusterblast-orf" id="dummy-26_q5_0_all"  />
<polygon points="507,40 564,40 569,35 564,30 507,30 507,40 " style="fill:white; stroke-width:1; stroke:black; " description="&lt;b&gt;LLPMBPKK_06272&lt;/b&gt;&lt;br&gt;luciferase family protein&lt;br&gt;Location: 7248485 - 7249451" locus_tag="LLPMBPKK_06272" class="clusterblast-orf" id="dummy-26_q6_0_all"  />
<polygon points="578,35 583,30 610,30 610,40 583,40 578,35 " style="fill:white; stroke-width:1; stroke:black; " description="&lt;b&gt;LLPMBPKK_06273&lt;/b&gt;&lt;br&gt;MarR family transcriptional regulator&lt;br&gt;Location: 7249598 - 7250096" locus_tag="LLPMBPKK_06273" class="clusterblast-orf" id="dummy-26_q7_0_all"  />
<polygon points="624,35 629,30 701,30 701,40 629,40 624,35 " style="fill:white; stroke-width:1; stroke:black; " description="&lt;b&gt;LLPMBPKK_06274&lt;/b&gt;&lt;br&gt;cytochrome P450&lt;br&gt;Location: 7250305 - 7251508" locus_tag="LLPMBPKK_06274" class="clusterblast-orf" id="dummy-26_q8_0_all"  />
<polygon points="703,35 708,30 780,30 780,40 708,40 703,35 " style="fill:white; stroke-width:1; stroke:black; " description="&lt;b&gt;LLPMBPKK_06275&lt;/b&gt;&lt;br&gt;acyltransferase&lt;br&gt;Location: 7251545 - 7252739" locus_tag="LLPMBPKK_06275" class="clusterblast-orf" id="dummy-26_q9_0_all"  />
</g>
<g label="NZ_CP015849" description="NZ_CP015849 (6064358-6077546): Streptomyces sp. SAT1 chromosome, complete genome (54% of genes show similarity), siderophore" class="clusterblast-cluster"  >
<text x="5" y="70" class="clusterblast-acc"  >
<a xlink:href="https://antismash-db.secondarymetabolites.org/area.html?record=NZ_CP015849&amp;start=6064358&amp;end=6077546" target="_blank">NZ_CP015849 (6064358-6077546)</a>: Streptomyces sp. SAT1 chromosome, complete genome (54% of genes show similarity), siderophore</text>
<line x1="10" y1="85" x2="778.0" y2="85" style="stroke-width:1; stroke:grey; "  />
</g>
<g id="a26_000"  >
<polygon points="17,85 22,80 70,80 70,90 22,90 17,85 " style="fill:#d81515; stroke-width:1; stroke:black; " description="&lt;b&gt;A8713_RS25990&lt;/b&gt;&lt;br&gt;hypothetical protein&lt;br&gt;Location: 6064784 - 6065599&lt;br&gt;&lt;br&gt;&lt;b&gt;BlastP hit with LLPMBPKK_06266&lt;/b&gt;&lt;br&gt;Percentage identity: 77&lt;br&gt;Percentage coverage: 102&lt;br&gt;BLAST bit score: 407&lt;br&gt;E-value: 4.98e-143" locus_tag="A8713_RS25990" class="clusterblast-orf" id="dummy-26_h26_7_0"  />
</g>
<g id="a26_001"  >
<polygon points="70,85 75,80 151,80 151,90 75,90 70,85 " style="fill:#15d863; stroke-width:1; stroke:black; " description="&lt;b&gt;A8713_RS25995&lt;/b&gt;&lt;br&gt;VWA domain-containing protein&lt;br&gt;Location: 6065599 - 6066864&lt;br&gt;&lt;br&gt;&lt;b&gt;BlastP hit with LLPMBPKK_06267&lt;/b&gt;&lt;br&gt;Percentage identity: 90&lt;br&gt;Percentage coverage: 100&lt;br&gt;BLAST bit score: 754&lt;br&gt;E-value: 2.3e-275" locus_tag="A8713_RS25995" class="clusterblast-orf" id="dummy-26_h26_7_1"  />
</g>
<g id="a26_002"  >
<polygon points="154,85 159,80 202,80 202,90 159,90 154,85 " style="fill:#1563d8; stroke-width:1; stroke:black; " description="&lt;b&gt;A8713_RS26000&lt;/b&gt;&lt;br&gt;NUDIX hydrolase&lt;br&gt;Location: 6066917 - 6067660&lt;br&gt;&lt;br&gt;&lt;b&gt;BlastP hit with LLPMBPKK_06268&lt;/b&gt;&lt;br&gt;Percentage identity: 77&lt;br&gt;Percentage coverage: 100&lt;br&gt;BLAST bit score: 365&lt;br&gt;E-value: 1.96e-127" locus_tag="A8713_RS26000" class="clusterblast-orf" id="dummy-26_h26_7_2"  />
</g>
<g id="a26_003"  >
<polygon points="205,85 210,80 304,80 304,90 210,90 205,85 " style="fill:#b115d8; stroke-width:1; stroke:black; " description="&lt;b&gt;A8713_RS26005&lt;/b&gt;&lt;br&gt;hypothetical protein&lt;br&gt;Location: 6067702 - 6069240&lt;br&gt;&lt;br&gt;&lt;b&gt;BlastP hit with LLPMBPKK_06269&lt;/b&gt;&lt;br&gt;Percentage identity: 83&lt;br&gt;Percentage coverage: 100&lt;br&gt;BLAST bit score: 836&lt;br&gt;E-value: 1.01e-304" locus_tag="A8713_RS26005" class="clusterblast-orf" id="dummy-26_h26_7_3"  />
</g>
<g id="a26_004"  >
<polygon points="311,85 316,80 409,80 409,90 316,90 311,85 " style="fill:#b1d815; stroke-width:1; stroke:black; " description="&lt;b&gt;A8713_RS26010&lt;/b&gt;&lt;br&gt;iron transporter&lt;br&gt;Location: 6069359 - 6070882&lt;br&gt;&lt;br&gt;&lt;b&gt;BlastP hit with LLPMBPKK_06270&lt;/b&gt;&lt;br&gt;Percentage identity: 71&lt;br&gt;Percentage coverage: 99&lt;br&gt;BLAST bit score: 670&lt;br&gt;E-value: 4.27e-239" locus_tag="A8713_RS26010" class="clusterblast-orf" id="dummy-26_h26_7_4"  />
</g>
<g id="a26_005"  >
<polygon points="415,90 511,90 516,85 511,80 415,80 415,90 " style="fill:#b1d815; stroke-width:1; stroke:black; " description="&lt;b&gt;A8713_RS26015&lt;/b&gt;&lt;br&gt;iron transporter&lt;br&gt;Location: 6070981 - 6072546&lt;br&gt;&lt;br&gt;&lt;b&gt;BlastP hit with LLPMBPKK_06271&lt;/b&gt;&lt;br&gt;Percentage identity: 75&lt;br&gt;Percentage coverage: 103&lt;br&gt;BLAST bit score: 766&lt;br&gt;E-value: 7.98e-277" locus_tag="A8713_RS26015" class="clusterblast-orf" id="dummy-26_h26_7_5"  />
</g>
<g id="a26_006"  >
<polygon points="518,85 523,80 546,80 546,90 523,90 518,85 " style="fill:white; stroke-width:1; stroke:black; " description="&lt;b&gt;A8713_RS26020&lt;/b&gt;&lt;br&gt;hypothetical protein&lt;br&gt;Location: 6072574 - 6073008" locus_tag="A8713_RS26020" class="clusterblast-orf" id="dummy-26_h26_7_6"  />
</g>
<g id="a26_007"  >
<polygon points="545,85 550,80 570,80 570,90 550,90 545,85 " style="fill:white; stroke-width:1; stroke:black; " description="&lt;b&gt;A8713_RS26025&lt;/b&gt;&lt;br&gt;antibiotic biosynthesis monooxygenase&lt;br&gt;Location: 6073005 - 6073394" locus_tag="A8713_RS26025" class="clusterblast-orf" id="dummy-26_h26_7_7"  />
</g>
<g id="a26_008"  >
<polygon points="581,90 616,90 621,85 616,80 581,80 581,90 " style="fill:white; stroke-width:1; stroke:black; " description="&lt;b&gt;A8713_RS26030&lt;/b&gt;&lt;br&gt;histidine phosphatase family protein&lt;br&gt;Location: 6073552 - 6074175" locus_tag="A8713_RS26030" class="clusterblast-orf" id="dummy-26_h26_7_8"  />
</g>
<g id="a26_009"  >
<polygon points="632,85 637,80 693,80 693,90 637,90 632,85 " style="fill:white; stroke-width:1; stroke:black; " description="&lt;b&gt;A8713_RS26035&lt;/b&gt;&lt;br&gt;redoxin family protein&lt;br&gt;Location: 6074349 - 6075308" locus_tag="A8713_RS26035" class="clusterblast-orf" id="dummy-26_h26_7_9"  />
</g>
<g id="a26_0010"  >
<polygon points="702,90 757,90 762,85 757,80 702,80 702,90 " style="fill:white; stroke-width:1; stroke:black; " description="&lt;b&gt;A8713_RS26040&lt;/b&gt;&lt;br&gt;hypothetical protein&lt;br&gt;Location: 6075448 - 6076371" locus_tag="A8713_RS26040" class="clusterblast-orf" id="dummy-26_h26_7_10"  />
</g>
</svg>
