<svg xmlns="http://www.w3.org/2000/svg" xmlns:xlink="http://www.w3.org/1999/xlink" version="1.1" x="0" y="0" height="230" width="800" viewBox="0 0 800 230" preserveAspectRatio="none"  >
<g label="Query sequence" class="clusterblast-cluster"  >
<text x="5" y="20" class="clusterblast-acc"  >
Query sequence</text>
<line x1="10" y1="35" x2="778.0" y2="35" style="stroke-width:1; stroke:grey; "  />
<polygon points="202,40 223,40 228,35 223,30 202,30 202,40 " style="fill:#d81515; stroke-width:1; stroke:black; " description="&lt;b&gt;LLPMBPKK_00843&lt;/b&gt;&lt;br&gt;hypothetical protein&lt;br&gt;Location: 1055682 - 1056348" locus_tag="LLPMBPKK_00843" class="clusterblast-orf" id="dummy-7_q0_0_all"  />
<polygon points="234,40 245,40 250,35 245,30 234,30 234,40 " style="fill:white; stroke-width:1; stroke:black; " description="&lt;b&gt;LLPMBPKK_00844&lt;/b&gt;&lt;br&gt;VOC family protein&lt;br&gt;Location: 1056519 - 1056945" locus_tag="LLPMBPKK_00844" class="clusterblast-orf" id="dummy-7_q1_0_all"  />
<polygon points="253,35 258,30 273,30 273,40 258,40 253,35 " style="fill:#5cd815; stroke-width:1; stroke:black; " description="&lt;b&gt;LLPMBPKK_00845&lt;/b&gt;&lt;br&gt;integral membrane protein&lt;br&gt;Location: 1057026 - 1057557" locus_tag="LLPMBPKK_00845" class="clusterblast-orf" id="dummy-7_q2_0_all"  />
<polygon points="275,35 280,30 313,30 313,40 280,40 275,35 " style="fill:#15a3d8; stroke-width:1; stroke:black; " description="&lt;b&gt;LLPMBPKK_00846&lt;/b&gt;&lt;br&gt;aldo/keto reductase&lt;br&gt;Location: 1057609 - 1058593" locus_tag="LLPMBPKK_00846" class="clusterblast-orf" id="dummy-7_q3_0_all"  />
<polygon points="322,35 327,30 367,30 367,40 327,40 322,35 " style="fill:#c715d8; stroke-width:1; stroke:black; " description="&lt;b&gt;LLPMBPKK_00847&lt;/b&gt;&lt;br&gt;FAD-binding monooxygenase&lt;br&gt;Location: 1058831 - 1060028" locus_tag="LLPMBPKK_00847" class="clusterblast-orf" id="dummy-7_q4_0_all"  />
<polygon points="380,40 390,40 395,35 390,30 380,30 380,40 " style="fill:#d88015; stroke-width:1; stroke:black; " description="&lt;b&gt;LLPMBPKK_00848&lt;/b&gt;&lt;br&gt;Tyrosinase co-factor MelC1&lt;br&gt;Location: 1060366 - 1060744" locus_tag="LLPMBPKK_00848" class="clusterblast-orf" id="dummy-7_q5_0_all"  />
<polygon points="396,40 422,40 427,35 422,30 396,30 396,40 " style="fill:#15d839; stroke-width:1; stroke:black; " description="&lt;b&gt;LLPMBPKK_00849&lt;/b&gt;&lt;br&gt;tyrosinase family protein&lt;br&gt;Location: 1060778 - 1061600" locus_tag="LLPMBPKK_00849" class="clusterblast-orf" id="dummy-7_q6_0_all"  />
<polygon points="427,35 432,30 454,30 454,40 432,40 427,35 " style="fill:#1539d8; stroke-width:1; stroke:black; " description="&lt;b&gt;LLPMBPKK_00850&lt;/b&gt;&lt;br&gt;ribonuclease HI&lt;br&gt;Location: 1061600 - 1062320" locus_tag="LLPMBPKK_00850" class="clusterblast-orf" id="dummy-7_q7_0_all"  />
<polygon points="456,35 461,30 486,30 486,40 461,40 456,35 " style="fill:#d81580; stroke-width:1; stroke:black; " description="&lt;b&gt;LLPMBPKK_00851&lt;/b&gt;&lt;br&gt;VOC family protein&lt;br&gt;Location: 1062354 - 1063149" locus_tag="LLPMBPKK_00851" class="clusterblast-orf" id="dummy-7_q8_0_all"  />
<polygon points="491,35 496,30 509,30 509,40 496,40 491,35 " style="fill:#c7d815; stroke-width:1; stroke:black; " description="&lt;b&gt;LLPMBPKK_00852&lt;/b&gt;&lt;br&gt;DNA-binding protein&lt;br&gt;Location: 1063287 - 1063770" locus_tag="LLPMBPKK_00852" class="clusterblast-orf" id="dummy-7_q9_0_all"  />
<polygon points="519,35 524,30 534,30 534,40 524,40 519,35 " style="fill:#15d8a3; stroke-width:1; stroke:black; " description="&lt;b&gt;LLPMBPKK_00853&lt;/b&gt;&lt;br&gt;XRE family transcriptional regulator&lt;br&gt;Location: 1064011 - 1064404" locus_tag="LLPMBPKK_00853" class="clusterblast-orf" id="dummy-7_q10_0_all"  />
<polygon points="544,40 573,40 578,35 573,30 544,30 544,40 " style="fill:#5c15d8; stroke-width:1; stroke:black; " description="&lt;b&gt;LLPMBPKK_00854&lt;/b&gt;&lt;br&gt;RNA polymerase sigma factor SigF&lt;br&gt;Location: 1064671 - 1065562" locus_tag="LLPMBPKK_00854" class="clusterblast-orf" id="dummy-7_q11_0_all"  />
</g>
<g label="NC_020504" description="NC_020504 (9217880-9239553): Streptomyces davaonensis JCM 4913, complete genome (40% of genes show similarity), melanin,terpene" class="clusterblast-cluster"  >
<text x="5" y="70" class="clusterblast-acc"  >
<a xlink:href="https://antismash-db.secondarymetabolites.org/area.html?record=NC_020504&amp;start=9217880&amp;end=9239553" target="_blank">NC_020504 (9217880-9239553)</a>: Streptomyces davaonensis JCM 4913, complete genome (40% of genes show similarity), melanin,terpene</text>
<line x1="10" y1="85" x2="778.0" y2="85" style="stroke-width:1; stroke:grey; "  />
</g>
<g id="a7_000"  >
<polygon points="0,90 33,90 38,85 33,80 0,80 0,90 " style="fill:white; stroke-width:1; stroke:black; " description="&lt;b&gt;BN159_RS41010&lt;/b&gt;&lt;br&gt;hypothetical protein&lt;br&gt;Location: 9238676 - 9237651" locus_tag="BN159_RS41010" class="clusterblast-orf" id="dummy-7_h7_3_0"  />
</g>
<g id="a7_001"  >
<polygon points="38,85 43,80 56,80 56,90 43,90 38,85 " style="fill:#5cd815; stroke-width:1; stroke:black; " description="&lt;b&gt;BN159_RS41005&lt;/b&gt;&lt;br&gt;hypothetical protein&lt;br&gt;Location: 9237669 - 9237178&lt;br&gt;&lt;br&gt;&lt;b&gt;BlastP hit with LLPMBPKK_00845&lt;/b&gt;&lt;br&gt;Percentage identity: 77&lt;br&gt;Percentage coverage: 87&lt;br&gt;BLAST bit score: 221&lt;br&gt;E-value: 8.22e-73" locus_tag="BN159_RS41005" class="clusterblast-orf" id="dummy-7_h7_3_1"  />
</g>
<g id="a7_002"  >
<polygon points="58,85 63,80 95,80 95,90 63,90 58,85 " style="fill:#15a3d8; stroke-width:1; stroke:black; " description="&lt;b&gt;BN159_RS41000&lt;/b&gt;&lt;br&gt;aldo/keto reductase&lt;br&gt;Location: 9237140 - 9236157&lt;br&gt;&lt;br&gt;&lt;b&gt;BlastP hit with LLPMBPKK_00846&lt;/b&gt;&lt;br&gt;Percentage identity: 86&lt;br&gt;Percentage coverage: 100&lt;br&gt;BLAST bit score: 562&lt;br&gt;E-value: 1.26e-202" locus_tag="BN159_RS41000" class="clusterblast-orf" id="dummy-7_h7_3_2"  />
</g>
<g id="a7_003"  >
<polygon points="96,85 101,80 143,80 143,90 101,90 96,85 " style="fill:#c715d8; stroke-width:1; stroke:black; " description="&lt;b&gt;BN159_RS40995&lt;/b&gt;&lt;br&gt;FAD-binding monooxygenase&lt;br&gt;Location: 9236143 - 9234893&lt;br&gt;&lt;br&gt;&lt;b&gt;BlastP hit with LLPMBPKK_00847&lt;/b&gt;&lt;br&gt;Percentage identity: 74&lt;br&gt;Percentage coverage: 101&lt;br&gt;BLAST bit score: 576&lt;br&gt;E-value: 2.49e-205" locus_tag="BN159_RS40995" class="clusterblast-orf" id="dummy-7_h7_3_3"  />
</g>
<g id="a7_004"  >
<polygon points="156,90 165,90 170,85 165,80 156,80 156,90 " style="fill:#d88015; stroke-width:1; stroke:black; " description="&lt;b&gt;BN159_RS40990&lt;/b&gt;&lt;br&gt;hypothetical protein&lt;br&gt;Location: 9234553 - 9234179&lt;br&gt;&lt;br&gt;&lt;b&gt;BlastP hit with LLPMBPKK_00848&lt;/b&gt;&lt;br&gt;Percentage identity: 75&lt;br&gt;Percentage coverage: 100&lt;br&gt;BLAST bit score: 144&lt;br&gt;E-value: 1.25e-43" locus_tag="BN159_RS40990" class="clusterblast-orf" id="dummy-7_h7_3_4"  />
</g>
<g id="a7_005"  >
<polygon points="172,90 198,90 203,85 198,80 172,80 172,90 " style="fill:#15d839; stroke-width:1; stroke:black; " description="&lt;b&gt;BN159_RS40985&lt;/b&gt;&lt;br&gt;tyrosinase family protein&lt;br&gt;Location: 9234143 - 9233319&lt;br&gt;&lt;br&gt;&lt;b&gt;BlastP hit with LLPMBPKK_00849&lt;/b&gt;&lt;br&gt;Percentage identity: 88&lt;br&gt;Percentage coverage: 100&lt;br&gt;BLAST bit score: 521&lt;br&gt;E-value: 2.92e-188" locus_tag="BN159_RS40985" class="clusterblast-orf" id="dummy-7_h7_3_5"  />
</g>
<g id="a7_006"  >
<polygon points="202,85 207,80 229,80 229,90 207,90 202,85 " style="fill:#1539d8; stroke-width:1; stroke:black; " description="&lt;b&gt;BN159_RS40980&lt;/b&gt;&lt;br&gt;ribonuclease HI&lt;br&gt;Location: 9233340 - 9232648&lt;br&gt;&lt;br&gt;&lt;b&gt;BlastP hit with LLPMBPKK_00850&lt;/b&gt;&lt;br&gt;Percentage identity: 82&lt;br&gt;Percentage coverage: 97&lt;br&gt;BLAST bit score: 369&lt;br&gt;E-value: 2.36e-129" locus_tag="BN159_RS40980" class="clusterblast-orf" id="dummy-7_h7_3_6"  />
</g>
<g id="a7_007"  >
<polygon points="230,85 235,80 260,80 260,90 235,90 230,85 " style="fill:#d81580; stroke-width:1; stroke:black; " description="&lt;b&gt;BN159_RS40975&lt;/b&gt;&lt;br&gt;VOC family protein&lt;br&gt;Location: 9232613 - 9231813&lt;br&gt;&lt;br&gt;&lt;b&gt;BlastP hit with LLPMBPKK_00851&lt;/b&gt;&lt;br&gt;Percentage identity: 80&lt;br&gt;Percentage coverage: 101&lt;br&gt;BLAST bit score: 451&lt;br&gt;E-value: 1.17e-160" locus_tag="BN159_RS40975" class="clusterblast-orf" id="dummy-7_h7_3_7"  />
</g>
<g id="a7_008"  >
<polygon points="265,90 299,90 304,85 299,80 265,80 265,90 " style="fill:white; stroke-width:1; stroke:black; " description="&lt;b&gt;BN159_RS40970&lt;/b&gt;&lt;br&gt;zinc-binding alcohol dehydrogenase family protein&lt;br&gt;Location: 9231682 - 9230660" locus_tag="BN159_RS40970" class="clusterblast-orf" id="dummy-7_h7_3_8"  />
</g>
<g id="a7_009"  >
<polygon points="315,90 364,90 369,85 364,80 315,80 315,90 " style="fill:white; stroke-width:1; stroke:black; " description="&lt;b&gt;BN159_RS40965&lt;/b&gt;&lt;br&gt;cyclic nucleotide-binding domain-containing protein&lt;br&gt;Location: 9230377 - 9228947" locus_tag="BN159_RS40965" class="clusterblast-orf" id="dummy-7_h7_3_9"  />
</g>
<g id="a7_0010"  >
<polygon points="370,90 405,90 410,85 405,80 370,80 370,90 " style="fill:white; stroke-width:1; stroke:black; " description="&lt;b&gt;BN159_RS40960&lt;/b&gt;&lt;br&gt;2-methylisoborneol synthase&lt;br&gt;Location: 9228924 - 9227881" locus_tag="BN159_RS40960" class="clusterblast-orf" id="dummy-7_h7_3_10"  />
</g>
<g id="a7_0011"  >
<polygon points="408,90 440,90 445,85 440,80 408,80 408,90 " style="fill:white; stroke-width:1; stroke:black; " description="&lt;b&gt;BN159_RS40955&lt;/b&gt;&lt;br&gt;methyltransferase domain-containing protein&lt;br&gt;Location: 9227929 - 9226961" locus_tag="BN159_RS40955" class="clusterblast-orf" id="dummy-7_h7_3_11"  />
</g>
<g id="a7_0012"  >
<polygon points="445,85 450,80 509,80 509,90 450,90 445,85 " style="fill:white; stroke-width:1; stroke:black; " description="&lt;b&gt;BN159_RS43110&lt;/b&gt;&lt;br&gt;caspase family protein&lt;br&gt;Location: 9226954 - 9225260" locus_tag="BN159_RS43110" class="clusterblast-orf" id="dummy-7_h7_3_12"  />
</g>
<g id="a7_0013"  >
<polygon points="509,85 514,80 523,80 523,90 514,90 509,85 " style="fill:white; stroke-width:1; stroke:black; " description="&lt;b&gt;BN159_RS40940&lt;/b&gt;&lt;br&gt;hypothetical protein&lt;br&gt;Location: 9225260 - 9224898" locus_tag="BN159_RS40940" class="clusterblast-orf" id="dummy-7_h7_3_13"  />
</g>
<g id="a7_0014"  >
<polygon points="530,90 559,90 564,85 559,80 530,80 530,90 " style="fill:white; stroke-width:1; stroke:black; " description="&lt;b&gt;BN159_RS40935&lt;/b&gt;&lt;br&gt;hypothetical protein&lt;br&gt;Location: 9224707 - 9223814" locus_tag="BN159_RS40935" class="clusterblast-orf" id="dummy-7_h7_3_14"  />
</g>
<g id="a7_0015"  >
<polygon points="564,85 569,80 583,80 583,90 569,90 564,85 " style="fill:#c7d815; stroke-width:1; stroke:black; " description="&lt;b&gt;BN159_RS40930&lt;/b&gt;&lt;br&gt;VOC family protein&lt;br&gt;Location: 9223809 - 9223327&lt;br&gt;&lt;br&gt;&lt;b&gt;BlastP hit with LLPMBPKK_00852&lt;/b&gt;&lt;br&gt;Percentage identity: 62&lt;br&gt;Percentage coverage: 100&lt;br&gt;BLAST bit score: 209&lt;br&gt;E-value: 1.47e-68" locus_tag="BN159_RS40930" class="clusterblast-orf" id="dummy-7_h7_3_15"  />
</g>
<g id="a7_0016"  >
<polygon points="589,90 608,90 613,85 608,80 589,80 589,90 " style="fill:white; stroke-width:1; stroke:black; " description="&lt;b&gt;BN159_RS40925&lt;/b&gt;&lt;br&gt;ATP-dependent Clp protease proteolytic subunit&lt;br&gt;Location: 9223159 - 9222521" locus_tag="BN159_RS40925" class="clusterblast-orf" id="dummy-7_h7_3_16"  />
</g>
<g id="a7_0017"  >
<polygon points="613,90 631,90 636,85 631,80 613,80 613,90 " style="fill:white; stroke-width:1; stroke:black; " description="&lt;b&gt;BN159_RS40920&lt;/b&gt;&lt;br&gt;ATP-dependent Clp protease proteolytic subunit&lt;br&gt;Location: 9222518 - 9221916" locus_tag="BN159_RS40920" class="clusterblast-orf" id="dummy-7_h7_3_17"  />
</g>
<g id="a7_0018"  >
<polygon points="637,85 642,80 652,80 652,90 642,90 637,85 " style="fill:#15d8a3; stroke-width:1; stroke:black; " description="&lt;b&gt;BN159_RS40915&lt;/b&gt;&lt;br&gt;helix-turn-helix transcriptional regulator&lt;br&gt;Location: 9221897 - 9221496&lt;br&gt;&lt;br&gt;&lt;b&gt;BlastP hit with LLPMBPKK_00853&lt;/b&gt;&lt;br&gt;Percentage identity: 71&lt;br&gt;Percentage coverage: 105&lt;br&gt;BLAST bit score: 164&lt;br&gt;E-value: 2.46e-51" locus_tag="BN159_RS40915" class="clusterblast-orf" id="dummy-7_h7_3_18"  />
</g>
<g id="a7_0019"  >
<polygon points="656,85 661,80 673,80 673,90 661,90 656,85 " style="fill:white; stroke-width:1; stroke:black; " description="&lt;b&gt;BN159_RS40910&lt;/b&gt;&lt;br&gt;ATP-binding protein&lt;br&gt;Location: 9221398 - 9220946" locus_tag="BN159_RS40910" class="clusterblast-orf" id="dummy-7_h7_3_19"  />
</g>
<g id="a7_0020"  >
<polygon points="677,85 682,80 726,80 726,90 682,90 677,85 " style="fill:white; stroke-width:1; stroke:black; " description="&lt;b&gt;BN159_RS40905&lt;/b&gt;&lt;br&gt;hypothetical protein&lt;br&gt;Location: 9220846 - 9219563" locus_tag="BN159_RS40905" class="clusterblast-orf" id="dummy-7_h7_3_20"  />
</g>
<g id="a7_0021"  >
<polygon points="732,90 775,90 780,85 775,80 732,80 732,90 " style="fill:white; stroke-width:1; stroke:black; " description="&lt;b&gt;BN159_RS40900&lt;/b&gt;&lt;br&gt;hypothetical protein&lt;br&gt;Location: 9219403 - 9218144" locus_tag="BN159_RS40900" class="clusterblast-orf" id="dummy-7_h7_3_21"  />
</g>
</svg>
