<svg xmlns="http://www.w3.org/2000/svg" xmlns:xlink="http://www.w3.org/1999/xlink" version="1.1" x="0" y="0" height="230" width="800" viewBox="0 0 800 230" preserveAspectRatio="none"  >
<g label="Query sequence" class="clusterblast-cluster"  >
<text x="5" y="20" class="clusterblast-acc"  >
Query sequence</text>
<line x1="10" y1="35" x2="778.0" y2="35" style="stroke-width:1; stroke:grey; "  />
<polygon points="0,40 29,40 34,35 29,30 0,30 0,40 " style="fill:white; stroke-width:1; stroke:black; " description="&lt;b&gt;LLPMBPKK_01488&lt;/b&gt;&lt;br&gt;AfsR-like regulator&lt;br&gt;Location: 1770624 - 1772943" locus_tag="LLPMBPKK_01488" class="clusterblast-orf" id="dummy-10_q0_0_all"  />
<polygon points="34,40 47,40 52,35 47,30 34,30 34,40 " style="fill:white; stroke-width:1; stroke:black; " description="&lt;b&gt;LLPMBPKK_01489&lt;/b&gt;&lt;br&gt;Radical SAM superfamily protein&lt;br&gt;Location: 1772939 - 1774100" locus_tag="LLPMBPKK_01489" class="clusterblast-orf" id="dummy-10_q1_0_all"  />
<polygon points="51,40 55,35 51,30 51,40 " style="fill:white; stroke-width:1; stroke:black; " description="&lt;b&gt;LLPMBPKK_01490&lt;/b&gt;&lt;br&gt;hypothetical protein&lt;br&gt;Location: 1774053 - 1774317" locus_tag="LLPMBPKK_01490" class="clusterblast-orf" id="dummy-10_q2_0_all"  />
<polygon points="55,35 60,30 64,30 64,40 60,40 55,35 " style="fill:#d81515; stroke-width:1; stroke:black; " description="&lt;b&gt;LLPMBPKK_01491&lt;/b&gt;&lt;br&gt;YigZ family protein&lt;br&gt;Location: 1774301 - 1774928" locus_tag="LLPMBPKK_01491" class="clusterblast-orf" id="dummy-10_q3_0_all"  />
<polygon points="65,35 70,30 73,30 73,40 70,40 65,35 " style="fill:#67d815; stroke-width:1; stroke:black; " description="&lt;b&gt;LLPMBPKK_01492&lt;/b&gt;&lt;br&gt;histidine phosphatase family protein&lt;br&gt;Location: 1774963 - 1775509" locus_tag="LLPMBPKK_01492" class="clusterblast-orf" id="dummy-10_q4_0_all"  />
<polygon points="73,35 78,30 87,30 87,40 78,40 73,35 " style="fill:#15b9d8; stroke-width:1; stroke:black; " description="&lt;b&gt;LLPMBPKK_01493&lt;/b&gt;&lt;br&gt;hypothetical protein&lt;br&gt;Location: 1775505 - 1776423" locus_tag="LLPMBPKK_01493" class="clusterblast-orf" id="dummy-10_q5_0_all"  />
<polygon points="89,40 90,40 95,35 90,30 89,30 89,40 " style="fill:#8615d8; stroke-width:1; stroke:black; " description="&lt;b&gt;LLPMBPKK_01494&lt;/b&gt;&lt;br&gt;CoA-binding domain-containing protein&lt;br&gt;Location: 1776564 - 1776972" locus_tag="LLPMBPKK_01494" class="clusterblast-orf" id="dummy-10_q6_0_all"  />
<polygon points="98,40 118,40 123,35 118,30 98,30 98,40 " style="fill:#d83415; stroke-width:1; stroke:black; " description="&lt;b&gt;LLPMBPKK_01495&lt;/b&gt;&lt;br&gt;APC family permease&lt;br&gt;Location: 1777198 - 1778833" locus_tag="LLPMBPKK_01495" class="clusterblast-orf" id="dummy-10_q7_0_all"  />
<polygon points="124,40 137,40 142,35 137,30 124,30 124,40 " style="fill:#49d815; stroke-width:1; stroke:black; " description="&lt;b&gt;LLPMBPKK_01496&lt;/b&gt;&lt;br&gt;4-hydroxybenzoate 3-monooxygenase&lt;br&gt;Location: 1778898 - 1780119" locus_tag="LLPMBPKK_01496" class="clusterblast-orf" id="dummy-10_q8_0_all"  />
<polygon points="142,35 147,30 147,30 147,40 147,40 142,35 " style="fill:#159bd8; stroke-width:1; stroke:black; " description="&lt;b&gt;LLPMBPKK_01497&lt;/b&gt;&lt;br&gt;regulatory protein&lt;br&gt;Location: 1780124 - 1780472" locus_tag="LLPMBPKK_01497" class="clusterblast-orf" id="dummy-10_q9_0_all"  />
<polygon points="148,40 159,40 164,35 159,30 148,30 148,40 " style="fill:#a515d8; stroke-width:1; stroke:black; " description="&lt;b&gt;LLPMBPKK_01498&lt;/b&gt;&lt;br&gt;cation transporter&lt;br&gt;Location: 1780545 - 1781577" locus_tag="LLPMBPKK_01498" class="clusterblast-orf" id="dummy-10_q10_0_all"  />
<polygon points="165,35 170,30 173,30 173,40 170,40 165,35 " style="fill:#d85315; stroke-width:1; stroke:black; " description="&lt;b&gt;LLPMBPKK_01499&lt;/b&gt;&lt;br&gt;YbaK-like protein&lt;br&gt;Location: 1781647 - 1782208" locus_tag="LLPMBPKK_01499" class="clusterblast-orf" id="dummy-10_q11_0_all"  />
<polygon points="174,35 179,30 182,30 182,40 179,40 174,35 " style="fill:#2ad815; stroke-width:1; stroke:black; " description="&lt;b&gt;LLPMBPKK_01500&lt;/b&gt;&lt;br&gt;XRE family transcriptional regulator&lt;br&gt;Location: 1782251 - 1782824" locus_tag="LLPMBPKK_01500" class="clusterblast-orf" id="dummy-10_q12_0_all"  />
<polygon points="184,40 192,40 197,35 192,30 184,30 184,40 " style="fill:#157cd8; stroke-width:1; stroke:black; " description="&lt;b&gt;LLPMBPKK_01501&lt;/b&gt;&lt;br&gt;DMT family transporter&lt;br&gt;Location: 1782933 - 1783791" locus_tag="LLPMBPKK_01501" class="clusterblast-orf" id="dummy-10_q13_0_all"  />
<polygon points="197,35 202,30 209,30 209,40 202,40 197,35 " style="fill:#c415d8; stroke-width:1; stroke:black; " description="&lt;b&gt;LLPMBPKK_01502&lt;/b&gt;&lt;br&gt;sugar acetyltransferase&lt;br&gt;Location: 1783812 - 1784577" locus_tag="LLPMBPKK_01502" class="clusterblast-orf" id="dummy-10_q14_0_all"  />
<polygon points="210,40 213,40 218,35 213,30 210,30 210,40 " style="fill:#d87215; stroke-width:1; stroke:black; " description="&lt;b&gt;LLPMBPKK_01503&lt;/b&gt;&lt;br&gt;siderophore binding protein&lt;br&gt;Location: 1784686 - 1785214" locus_tag="LLPMBPKK_01503" class="clusterblast-orf" id="dummy-10_q15_0_all"  />
<polygon points="218,35 223,30 228,30 228,40 223,40 218,35 " style="fill:#15d81f; stroke-width:1; stroke:black; " description="&lt;b&gt;LLPMBPKK_01504&lt;/b&gt;&lt;br&gt;DedA family protein&lt;br&gt;Location: 1785231 - 1785876" locus_tag="LLPMBPKK_01504" class="clusterblast-orf" id="dummy-10_q16_0_all"  />
<polygon points="232,40 243,40 248,35 243,30 232,30 232,40 " style="fill:#155dd8; stroke-width:1; stroke:black; " description="&lt;b&gt;LLPMBPKK_01505&lt;/b&gt;&lt;br&gt;flippase-like domain-containing protein&lt;br&gt;Location: 1786135 - 1787215" locus_tag="LLPMBPKK_01505" class="clusterblast-orf" id="dummy-10_q17_0_all"  />
<polygon points="249,35 254,30 265,30 265,40 254,40 249,35 " style="fill:#d815ce; stroke-width:1; stroke:black; " description="&lt;b&gt;LLPMBPKK_01506&lt;/b&gt;&lt;br&gt;class I SAM-dependent methyltransferase&lt;br&gt;Location: 1787237 - 1788320" locus_tag="LLPMBPKK_01506" class="clusterblast-orf" id="dummy-10_q18_0_all"  />
<polygon points="265,35 270,30 282,30 282,40 270,40 265,35 " style="fill:#d89015; stroke-width:1; stroke:black; " description="&lt;b&gt;LLPMBPKK_01507&lt;/b&gt;&lt;br&gt;glycosyltransferase&lt;br&gt;Location: 1788316 - 1789498" locus_tag="LLPMBPKK_01507" class="clusterblast-orf" id="dummy-10_q19_0_all"  />
<polygon points="282,35 287,30 294,30 294,40 287,40 282,35 " style="fill:#15d83e; stroke-width:1; stroke:black; " description="&lt;b&gt;LLPMBPKK_01508&lt;/b&gt;&lt;br&gt;alpha/beta hydrolase&lt;br&gt;Location: 1789494 - 1790295" locus_tag="LLPMBPKK_01508" class="clusterblast-orf" id="dummy-10_q20_0_all"  />
<polygon points="294,35 299,30 299,30 299,40 299,40 294,35 " style="fill:#153ed8; stroke-width:1; stroke:black; " description="&lt;b&gt;LLPMBPKK_01509&lt;/b&gt;&lt;br&gt;acyl carrier protein&lt;br&gt;Location: 1790298 - 1790619" locus_tag="LLPMBPKK_01509" class="clusterblast-orf" id="dummy-10_q21_0_all"  />
<polygon points="299,35 304,30 369,30 369,40 304,40 299,35 " style="fill:#d815af; stroke-width:1; stroke:black; " description="&lt;b&gt;LLPMBPKK_01510&lt;/b&gt;&lt;br&gt;type I polyketide synthase&lt;br&gt;Location: 1790615 - 1795274" locus_tag="LLPMBPKK_01510" class="clusterblast-orf" id="dummy-10_q22_0_all"  />
<polygon points="369,35 374,30 482,30 482,40 374,40 369,35 " style="fill:#d815af; stroke-width:1; stroke:black; " description="&lt;b&gt;LLPMBPKK_01511&lt;/b&gt;&lt;br&gt;hypothetical protein&lt;br&gt;Location: 1795275 - 1802793" locus_tag="LLPMBPKK_01511" class="clusterblast-orf" id="dummy-10_q23_0_all"  />
<polygon points="489,35 494,30 520,30 520,40 494,40 489,35 " style="fill:#d8af15; stroke-width:1; stroke:black; " description="&lt;b&gt;LLPMBPKK_01512&lt;/b&gt;&lt;br&gt;Ricin-type beta-trefoil lectin domain protein&lt;br&gt;Location: 1803271 - 1805356" locus_tag="LLPMBPKK_01512" class="clusterblast-orf" id="dummy-10_q24_0_all"  />
<polygon points="528,35 533,30 537,30 537,40 533,40 528,35 " style="fill:#15d85d; stroke-width:1; stroke:black; " description="&lt;b&gt;LLPMBPKK_01513&lt;/b&gt;&lt;br&gt;MFS transporter&lt;br&gt;Location: 1805884 - 1806463" locus_tag="LLPMBPKK_01513" class="clusterblast-orf" id="dummy-10_q25_0_all"  />
<polygon points="548,40 559,40 564,35 559,30 548,30 548,40 " style="fill:#151fd8; stroke-width:1; stroke:black; " description="&lt;b&gt;LLPMBPKK_01514&lt;/b&gt;&lt;br&gt;helix-turn-helix domain-containing protein&lt;br&gt;Location: 1807237 - 1808275" locus_tag="LLPMBPKK_01514" class="clusterblast-orf" id="dummy-10_q26_0_all"  />
<polygon points="564,35 569,30 578,30 578,40 569,40 564,35 " style="fill:#d81590; stroke-width:1; stroke:black; " description="&lt;b&gt;LLPMBPKK_01515&lt;/b&gt;&lt;br&gt;ectoine hydroxylase&lt;br&gt;Location: 1808329 - 1809220" locus_tag="LLPMBPKK_01515" class="clusterblast-orf" id="dummy-10_q27_0_all"  />
<polygon points="578,35 583,30 586,30 586,40 583,40 578,35 " style="fill:#d8ce15; stroke-width:1; stroke:black; " description="&lt;b&gt;LLPMBPKK_01516&lt;/b&gt;&lt;br&gt;L-2,4-diaminobutyric acid acetyltransferase&lt;br&gt;Location: 1809216 - 1809768" locus_tag="LLPMBPKK_01516" class="clusterblast-orf" id="dummy-10_q28_0_all"  />
<polygon points="586,35 591,30 592,30 592,40 591,40 586,35 " style="fill:#15d87c; stroke-width:1; stroke:black; " description="&lt;b&gt;LLPMBPKK_01517&lt;/b&gt;&lt;br&gt;L-ectoine synthase&lt;br&gt;Location: 1809769 - 1810174" locus_tag="LLPMBPKK_01517" class="clusterblast-orf" id="dummy-10_q29_0_all"  />
<polygon points="594,35 599,30 604,30 604,40 599,40 594,35 " style="fill:#2a15d8; stroke-width:1; stroke:black; " description="&lt;b&gt;LLPMBPKK_01518&lt;/b&gt;&lt;br&gt;diaminobutyrate--2-oxoglutarate transaminase&lt;br&gt;Location: 1810283 - 1810940" locus_tag="LLPMBPKK_01518" class="clusterblast-orf" id="dummy-10_q30_0_all"  />
<polygon points="613,35 617,30 617,40 613,35 " style="fill:#d81572; stroke-width:1; stroke:black; " description="&lt;b&gt;LLPMBPKK_01519&lt;/b&gt;&lt;br&gt;acyl carrier protein&lt;br&gt;Location: 1811552 - 1811816" locus_tag="LLPMBPKK_01519" class="clusterblast-orf" id="dummy-10_q31_0_all"  />
<polygon points="617,35 622,30 640,30 640,40 622,40 617,35 " style="fill:#c4d815; stroke-width:1; stroke:black; " description="&lt;b&gt;LLPMBPKK_01520&lt;/b&gt;&lt;br&gt;AMP-dependent synthetase&lt;br&gt;Location: 1811835 - 1813365" locus_tag="LLPMBPKK_01520" class="clusterblast-orf" id="dummy-10_q32_0_all"  />
<polygon points="640,35 645,30 656,30 656,40 645,40 640,35 " style="fill:#15d89b; stroke-width:1; stroke:black; " description="&lt;b&gt;LLPMBPKK_01521&lt;/b&gt;&lt;br&gt;4'-phosphopantetheinyl transferase superfamilyprotein&lt;br&gt;Location: 1813364 - 1814426" locus_tag="LLPMBPKK_01521" class="clusterblast-orf" id="dummy-10_q33_0_all"  />
<polygon points="656,35 661,30 675,30 675,40 661,40 656,35 " style="fill:#4915d8; stroke-width:1; stroke:black; " description="&lt;b&gt;LLPMBPKK_01522&lt;/b&gt;&lt;br&gt;diaminopimelate decarboxylase&lt;br&gt;Location: 1814422 - 1815715" locus_tag="LLPMBPKK_01522" class="clusterblast-orf" id="dummy-10_q34_0_all"  />
<polygon points="675,35 678,30 678,40 675,35 " style="fill:white; stroke-width:1; stroke:black; " description="&lt;b&gt;LLPMBPKK_01523&lt;/b&gt;&lt;br&gt;hypothetical protein&lt;br&gt;Location: 1815711 - 1815888" locus_tag="LLPMBPKK_01523" class="clusterblast-orf" id="dummy-10_q35_0_all"  />
<polygon points="679,35 684,30 684,30 684,40 684,40 679,35 " style="fill:#d81553; stroke-width:1; stroke:black; " description="&lt;b&gt;LLPMBPKK_01524&lt;/b&gt;&lt;br&gt;hypothetical protein&lt;br&gt;Location: 1815987 - 1816305" locus_tag="LLPMBPKK_01524" class="clusterblast-orf" id="dummy-10_q36_0_all"  />
<polygon points="687,35 692,30 701,30 701,40 692,40 687,35 " style="fill:#a5d815; stroke-width:1; stroke:black; " description="&lt;b&gt;LLPMBPKK_01525&lt;/b&gt;&lt;br&gt;response regulator transcription factor&lt;br&gt;Location: 1816477 - 1817470" locus_tag="LLPMBPKK_01525" class="clusterblast-orf" id="dummy-10_q37_0_all"  />
<polygon points="704,35 709,30 712,30 712,40 709,40 704,35 " style="fill:#15d8b9; stroke-width:1; stroke:black; " description="&lt;b&gt;LLPMBPKK_01526&lt;/b&gt;&lt;br&gt;hypothetical protein&lt;br&gt;Location: 1817672 - 1818152" locus_tag="LLPMBPKK_01526" class="clusterblast-orf" id="dummy-10_q38_0_all"  />
<polygon points="712,40 723,40 728,35 723,30 712,30 712,40 " style="fill:#6715d8; stroke-width:1; stroke:black; " description="&lt;b&gt;LLPMBPKK_01527&lt;/b&gt;&lt;br&gt;membrane protein&lt;br&gt;Location: 1818196 - 1819267" locus_tag="LLPMBPKK_01527" class="clusterblast-orf" id="dummy-10_q39_0_all"  />
<polygon points="729,40 743,40 748,35 743,30 729,30 729,40 " style="fill:#d81534; stroke-width:1; stroke:black; " description="&lt;b&gt;LLPMBPKK_01528&lt;/b&gt;&lt;br&gt;MFS transporter&lt;br&gt;Location: 1819316 - 1820615" locus_tag="LLPMBPKK_01528" class="clusterblast-orf" id="dummy-10_q40_0_all"  />
<polygon points="748,35 753,30 761,30 761,40 753,40 748,35 " style="fill:#86d815; stroke-width:1; stroke:black; " description="&lt;b&gt;LLPMBPKK_01529&lt;/b&gt;&lt;br&gt;spermidine synthase-like protein&lt;br&gt;Location: 1820576 - 1821422" locus_tag="LLPMBPKK_01529" class="clusterblast-orf" id="dummy-10_q41_0_all"  />
<polygon points="762,35 767,30 780,30 780,40 767,40 762,35 " style="fill:#15d8d8; stroke-width:1; stroke:black; " description="&lt;b&gt;LLPMBPKK_01530&lt;/b&gt;&lt;br&gt;elongation factor Tu&lt;br&gt;Location: 1821525 - 1822695" locus_tag="LLPMBPKK_01530" class="clusterblast-orf" id="dummy-10_q42_0_all"  />
</g>
<g label="NZ_CP047020" description="NZ_CP047020 (1952291-2003926): Streptomyces sp. T44 chromosome (66% of genes show similarity), T1PKS,hglE-KS" class="clusterblast-cluster"  >
<text x="5" y="70" class="clusterblast-acc"  >
<a xlink:href="https://antismash-db.secondarymetabolites.org/area.html?record=NZ_CP047020&amp;start=1952291&amp;end=2003926" target="_blank">NZ_CP047020 (1952291-2003926)</a>: Streptomyces sp. T44 chromosome (66% of genes show similarity), T1PKS,hglE-KS</text>
<line x1="10" y1="85" x2="778.0" y2="85" style="stroke-width:1; stroke:grey; "  />
</g>
<g id="a10_000"  >
<polygon points="26,85 31,80 43,80 43,90 31,90 26,85 " style="fill:white; stroke-width:1; stroke:black; " description="&lt;b&gt;GQF42_RS09005&lt;/b&gt;&lt;br&gt;exonuclease subunit SbcD&lt;br&gt;Location: 1954554 - 1955717" locus_tag="GQF42_RS09005" class="clusterblast-orf" id="dummy-10_h10_5_0"  />
</g>
<g id="a10_001"  >
<polygon points="45,85 50,80 54,80 54,90 50,90 45,85 " style="fill:#d81515; stroke-width:1; stroke:black; " description="&lt;b&gt;GQF42_RS09010&lt;/b&gt;&lt;br&gt;YigZ family protein&lt;br&gt;Location: 1955826 - 1956452&lt;br&gt;&lt;br&gt;&lt;b&gt;BlastP hit with LLPMBPKK_01491&lt;/b&gt;&lt;br&gt;Percentage identity: 96&lt;br&gt;Percentage coverage: 100&lt;br&gt;BLAST bit score: 390&lt;br&gt;E-value: 2.61e-138" locus_tag="GQF42_RS09010" class="clusterblast-orf" id="dummy-10_h10_5_1"  />
</g>
<g id="a10_002"  >
<polygon points="57,85 62,80 65,80 65,90 62,90 57,85 " style="fill:#67d815; stroke-width:1; stroke:black; " description="&lt;b&gt;GQF42_RS09015&lt;/b&gt;&lt;br&gt;histidine phosphatase family protein&lt;br&gt;Location: 1956622 - 1957167&lt;br&gt;&lt;br&gt;&lt;b&gt;BlastP hit with LLPMBPKK_01492&lt;/b&gt;&lt;br&gt;Percentage identity: 81&lt;br&gt;Percentage coverage: 98&lt;br&gt;BLAST bit score: 283&lt;br&gt;E-value: 7.98e-97" locus_tag="GQF42_RS09015" class="clusterblast-orf" id="dummy-10_h10_5_2"  />
</g>
<g id="a10_003"  >
<polygon points="65,85 70,80 76,80 76,90 70,90 65,85 " style="fill:#15b9d8; stroke-width:1; stroke:black; " description="&lt;b&gt;GQF42_RS09020&lt;/b&gt;&lt;br&gt;hypothetical protein&lt;br&gt;Location: 1957164 - 1957925&lt;br&gt;&lt;br&gt;&lt;b&gt;BlastP hit with LLPMBPKK_01493&lt;/b&gt;&lt;br&gt;Percentage identity: 61&lt;br&gt;Percentage coverage: 100&lt;br&gt;BLAST bit score: 317&lt;br&gt;E-value: 2.23e-107" locus_tag="GQF42_RS09020" class="clusterblast-orf" id="dummy-10_h10_5_3"  />
</g>
<g id="a10_004"  >
<polygon points="79,90 80,90 85,85 80,80 79,80 79,90 " style="fill:#8615d8; stroke-width:1; stroke:black; " description="&lt;b&gt;GQF42_RS09025&lt;/b&gt;&lt;br&gt;CoA-binding protein&lt;br&gt;Location: 1958101 - 1958517&lt;br&gt;&lt;br&gt;&lt;b&gt;BlastP hit with LLPMBPKK_01494&lt;/b&gt;&lt;br&gt;Percentage identity: 90&lt;br&gt;Percentage coverage: 99&lt;br&gt;BLAST bit score: 240&lt;br&gt;E-value: 1.69e-81" locus_tag="GQF42_RS09025" class="clusterblast-orf" id="dummy-10_h10_5_4"  />
</g>
<g id="a10_005"  >
<polygon points="88,90 108,90 113,85 108,80 88,80 88,90 " style="fill:#d83415; stroke-width:1; stroke:black; " description="&lt;b&gt;GQF42_RS09030&lt;/b&gt;&lt;br&gt;amino acid permease&lt;br&gt;Location: 1958732 - 1960369&lt;br&gt;&lt;br&gt;&lt;b&gt;BlastP hit with LLPMBPKK_01495&lt;/b&gt;&lt;br&gt;Percentage identity: 85&lt;br&gt;Percentage coverage: 100&lt;br&gt;BLAST bit score: 936&lt;br&gt;E-value: 0.0" locus_tag="GQF42_RS09030" class="clusterblast-orf" id="dummy-10_h10_5_5"  />
</g>
<g id="a10_006"  >
<polygon points="114,90 127,90 132,85 127,80 114,80 114,90 " style="fill:#49d815; stroke-width:1; stroke:black; " description="&lt;b&gt;GQF42_RS09035&lt;/b&gt;&lt;br&gt;4-hydroxybenzoate 3-monooxygenase&lt;br&gt;Location: 1960436 - 1961683&lt;br&gt;&lt;br&gt;&lt;b&gt;BlastP hit with LLPMBPKK_01496&lt;/b&gt;&lt;br&gt;Percentage identity: 77&lt;br&gt;Percentage coverage: 97&lt;br&gt;BLAST bit score: 608&lt;br&gt;E-value: 3.83e-218" locus_tag="GQF42_RS09035" class="clusterblast-orf" id="dummy-10_h10_5_6"  />
</g>
<g id="a10_007"  >
<polygon points="132,85 137,80 137,80 137,90 137,90 132,85 " style="fill:#159bd8; stroke-width:1; stroke:black; " description="&lt;b&gt;GQF42_RS09040&lt;/b&gt;&lt;br&gt;metalloregulator ArsR/SmtB family transcription factor&lt;br&gt;Location: 1961677 - 1962018&lt;br&gt;&lt;br&gt;&lt;b&gt;BlastP hit with LLPMBPKK_01497&lt;/b&gt;&lt;br&gt;Percentage identity: 89&lt;br&gt;Percentage coverage: 96&lt;br&gt;BLAST bit score: 189&lt;br&gt;E-value: 4.44e-62" locus_tag="GQF42_RS09040" class="clusterblast-orf" id="dummy-10_h10_5_7"  />
</g>
<g id="a10_008"  >
<polygon points="139,90 151,90 156,85 151,80 139,80 139,90 " style="fill:#a515d8; stroke-width:1; stroke:black; " description="&lt;b&gt;GQF42_RS09045&lt;/b&gt;&lt;br&gt;cation diffusion facilitator family transporter&lt;br&gt;Location: 1962092 - 1963267&lt;br&gt;&lt;br&gt;&lt;b&gt;BlastP hit with LLPMBPKK_01498&lt;/b&gt;&lt;br&gt;Percentage identity: 90&lt;br&gt;Percentage coverage: 95&lt;br&gt;BLAST bit score: 540&lt;br&gt;E-value: 1.17e-192" locus_tag="GQF42_RS09045" class="clusterblast-orf" id="dummy-10_h10_5_8"  />
</g>
<g id="a10_009"  >
<polygon points="156,85 161,80 165,80 165,90 161,90 156,85 " style="fill:#d85315; stroke-width:1; stroke:black; " description="&lt;b&gt;GQF42_RS09050&lt;/b&gt;&lt;br&gt;hypothetical protein&lt;br&gt;Location: 1963276 - 1963833&lt;br&gt;&lt;br&gt;&lt;b&gt;BlastP hit with LLPMBPKK_01499&lt;/b&gt;&lt;br&gt;Percentage identity: 86&lt;br&gt;Percentage coverage: 99&lt;br&gt;BLAST bit score: 327&lt;br&gt;E-value: 4.76e-114" locus_tag="GQF42_RS09050" class="clusterblast-orf" id="dummy-10_h10_5_9"  />
</g>
<g id="a10_0010"  >
<polygon points="165,85 170,80 174,80 174,90 170,90 165,85 " style="fill:#2ad815; stroke-width:1; stroke:black; " description="&lt;b&gt;GQF42_RS09055&lt;/b&gt;&lt;br&gt;cupin domain-containing protein&lt;br&gt;Location: 1963876 - 1964448&lt;br&gt;&lt;br&gt;&lt;b&gt;BlastP hit with LLPMBPKK_01500&lt;/b&gt;&lt;br&gt;Percentage identity: 91&lt;br&gt;Percentage coverage: 99&lt;br&gt;BLAST bit score: 348&lt;br&gt;E-value: 1.37e-122" locus_tag="GQF42_RS09055" class="clusterblast-orf" id="dummy-10_h10_5_10"  />
</g>
<g id="a10_0011"  >
<polygon points="175,90 183,90 188,85 183,80 175,80 175,90 " style="fill:#157cd8; stroke-width:1; stroke:black; " description="&lt;b&gt;GQF42_RS09060&lt;/b&gt;&lt;br&gt;EamA family transporter&lt;br&gt;Location: 1964556 - 1965413&lt;br&gt;&lt;br&gt;&lt;b&gt;BlastP hit with LLPMBPKK_01501&lt;/b&gt;&lt;br&gt;Percentage identity: 89&lt;br&gt;Percentage coverage: 100&lt;br&gt;BLAST bit score: 441&lt;br&gt;E-value: 6.94e-156" locus_tag="GQF42_RS09060" class="clusterblast-orf" id="dummy-10_h10_5_11"  />
</g>
<g id="a10_0012"  >
<polygon points="188,85 193,80 200,80 200,90 193,90 188,85 " style="fill:#c415d8; stroke-width:1; stroke:black; " description="&lt;b&gt;GQF42_RS09065&lt;/b&gt;&lt;br&gt;acyltransferase&lt;br&gt;Location: 1965415 - 1966179&lt;br&gt;&lt;br&gt;&lt;b&gt;BlastP hit with LLPMBPKK_01502&lt;/b&gt;&lt;br&gt;Percentage identity: 88&lt;br&gt;Percentage coverage: 100&lt;br&gt;BLAST bit score: 468&lt;br&gt;E-value: 7.06e-168" locus_tag="GQF42_RS09065" class="clusterblast-orf" id="dummy-10_h10_5_12"  />
</g>
<g id="a10_0013"  >
<polygon points="202,90 204,90 209,85 204,80 202,80 202,90 " style="fill:#d87215; stroke-width:1; stroke:black; " description="&lt;b&gt;GQF42_RS09070&lt;/b&gt;&lt;br&gt;gamma carbonic anhydrase family protein&lt;br&gt;Location: 1966297 - 1966824&lt;br&gt;&lt;br&gt;&lt;b&gt;BlastP hit with LLPMBPKK_01503&lt;/b&gt;&lt;br&gt;Percentage identity: 89&lt;br&gt;Percentage coverage: 100&lt;br&gt;BLAST bit score: 265&lt;br&gt;E-value: 5.21e-90" locus_tag="GQF42_RS09070" class="clusterblast-orf" id="dummy-10_h10_5_13"  />
</g>
<g id="a10_0014"  >
<polygon points="210,85 215,80 220,80 220,90 215,90 210,85 " style="fill:#15d81f; stroke-width:1; stroke:black; " description="&lt;b&gt;GQF42_RS09075&lt;/b&gt;&lt;br&gt;DedA family protein&lt;br&gt;Location: 1966856 - 1967503&lt;br&gt;&lt;br&gt;&lt;b&gt;BlastP hit with LLPMBPKK_01504&lt;/b&gt;&lt;br&gt;Percentage identity: 88&lt;br&gt;Percentage coverage: 100&lt;br&gt;BLAST bit score: 382&lt;br&gt;E-value: 4.78e-135" locus_tag="GQF42_RS09075" class="clusterblast-orf" id="dummy-10_h10_5_14"  />
</g>
<g id="a10_0015"  >
<polygon points="222,90 234,90 239,85 234,80 222,80 222,90 " style="fill:#155dd8; stroke-width:1; stroke:black; " description="&lt;b&gt;GQF42_RS09080&lt;/b&gt;&lt;br&gt;UPF0104 family protein&lt;br&gt;Location: 1967696 - 1968826&lt;br&gt;&lt;br&gt;&lt;b&gt;BlastP hit with LLPMBPKK_01505&lt;/b&gt;&lt;br&gt;Percentage identity: 75&lt;br&gt;Percentage coverage: 96&lt;br&gt;BLAST bit score: 473&lt;br&gt;E-value: 3.7e-166" locus_tag="GQF42_RS09080" class="clusterblast-orf" id="dummy-10_h10_5_15"  />
</g>
<g id="a10_0016"  >
<polygon points="240,85 245,80 256,80 256,90 245,90 240,85 " style="fill:#d815ce; stroke-width:1; stroke:black; " description="&lt;b&gt;GQF42_RS09085&lt;/b&gt;&lt;br&gt;methyltransferase domain-containing protein&lt;br&gt;Location: 1968851 - 1969936&lt;br&gt;&lt;br&gt;&lt;b&gt;BlastP hit with LLPMBPKK_01506&lt;/b&gt;&lt;br&gt;Percentage identity: 87&lt;br&gt;Percentage coverage: 97&lt;br&gt;BLAST bit score: 636&lt;br&gt;E-value: 9.27e-231" locus_tag="GQF42_RS09085" class="clusterblast-orf" id="dummy-10_h10_5_16"  />
</g>
<g id="a10_0017"  >
<polygon points="256,85 261,80 274,80 274,90 261,90 256,85 " style="fill:#d89015; stroke-width:1; stroke:black; " description="&lt;b&gt;GQF42_RS09090&lt;/b&gt;&lt;br&gt;glycosyltransferase&lt;br&gt;Location: 1969933 - 1971123&lt;br&gt;&lt;br&gt;&lt;b&gt;BlastP hit with LLPMBPKK_01507&lt;/b&gt;&lt;br&gt;Percentage identity: 84&lt;br&gt;Percentage coverage: 99&lt;br&gt;BLAST bit score: 626&lt;br&gt;E-value: 1.14e-225" locus_tag="GQF42_RS09090" class="clusterblast-orf" id="dummy-10_h10_5_17"  />
</g>
<g id="a10_0018"  >
<polygon points="274,85 279,80 286,80 286,90 279,90 274,85 " style="fill:#15d83e; stroke-width:1; stroke:black; " description="&lt;b&gt;GQF42_RS09095&lt;/b&gt;&lt;br&gt;alpha/beta fold hydrolase&lt;br&gt;Location: 1971120 - 1971914&lt;br&gt;&lt;br&gt;&lt;b&gt;BlastP hit with LLPMBPKK_01508&lt;/b&gt;&lt;br&gt;Percentage identity: 88&lt;br&gt;Percentage coverage: 99&lt;br&gt;BLAST bit score: 461&lt;br&gt;E-value: 1.84e-164" locus_tag="GQF42_RS09095" class="clusterblast-orf" id="dummy-10_h10_5_18"  />
</g>
<g id="a10_0019"  >
<polygon points="286,85 290,80 290,90 286,85 " style="fill:#153ed8; stroke-width:1; stroke:black; " description="&lt;b&gt;GQF42_RS09100&lt;/b&gt;&lt;br&gt;acyl carrier protein&lt;br&gt;Location: 1971924 - 1972178&lt;br&gt;&lt;br&gt;&lt;b&gt;BlastP hit with LLPMBPKK_01509&lt;/b&gt;&lt;br&gt;Percentage identity: 93&lt;br&gt;Percentage coverage: 79&lt;br&gt;BLAST bit score: 158&lt;br&gt;E-value: 4.01e-50" locus_tag="GQF42_RS09100" class="clusterblast-orf" id="dummy-10_h10_5_19"  />
</g>
<g id="a10_0020"  >
<polygon points="291,85 296,80 359,80 359,90 296,90 291,85 " style="fill:#d815af; stroke-width:1; stroke:black; " description="&lt;b&gt;GQF42_RS09105&lt;/b&gt;&lt;br&gt;acyltransferase domain-containing protein&lt;br&gt;Location: 1972292 - 1976824&lt;br&gt;&lt;br&gt;&lt;b&gt;BlastP hit with LLPMBPKK_01510&lt;/b&gt;&lt;br&gt;Percentage identity: 79&lt;br&gt;Percentage coverage: 100&lt;br&gt;BLAST bit score: 2352&lt;br&gt;E-value: 0.0&lt;br&gt;&lt;br&gt;&lt;b&gt;BlastP hit with LLPMBPKK_01511&lt;/b&gt;&lt;br&gt;Percentage identity: 37&lt;br&gt;Percentage coverage: 42&lt;br&gt;BLAST bit score: 416&lt;br&gt;E-value: 4.07e-117" locus_tag="GQF42_RS09105" class="clusterblast-orf" id="dummy-10_h10_5_20"  />
</g>
<g id="a10_0021"  >
<polygon points="359,85 364,80 466,80 466,90 364,90 359,85 " style="fill:#d815af; stroke-width:1; stroke:black; " description="&lt;b&gt;GQF42_RS09110&lt;/b&gt;&lt;br&gt;SDR family oxidoreductase&lt;br&gt;Location: 1976826 - 1983926&lt;br&gt;&lt;br&gt;&lt;b&gt;BlastP hit with LLPMBPKK_01510&lt;/b&gt;&lt;br&gt;Percentage identity: 38&lt;br&gt;Percentage coverage: 62&lt;br&gt;BLAST bit score: 412&lt;br&gt;E-value: 3.87e-116&lt;br&gt;&lt;br&gt;&lt;b&gt;BlastP hit with LLPMBPKK_01511&lt;/b&gt;&lt;br&gt;Percentage identity: 75&lt;br&gt;Percentage coverage: 101&lt;br&gt;BLAST bit score: 3352&lt;br&gt;E-value: 0.0" locus_tag="GQF42_RS09110" class="clusterblast-orf" id="dummy-10_h10_5_21"  />
</g>
<g id="a10_0022"  >
<polygon points="472,85 477,80 503,80 503,90 477,90 472,85 " style="fill:#d8af15; stroke-width:1; stroke:black; " description="&lt;b&gt;GQF42_RS09115&lt;/b&gt;&lt;br&gt;hydrolase&lt;br&gt;Location: 1984334 - 1986451&lt;br&gt;&lt;br&gt;&lt;b&gt;BlastP hit with LLPMBPKK_01512&lt;/b&gt;&lt;br&gt;Percentage identity: 66&lt;br&gt;Percentage coverage: 82&lt;br&gt;BLAST bit score: 610&lt;br&gt;E-value: 1.38e-209" locus_tag="GQF42_RS09115" class="clusterblast-orf" id="dummy-10_h10_5_22"  />
</g>
<g id="a10_0023"  >
<polygon points="509,90 518,90 523,85 518,80 509,80 509,90 " style="fill:white; stroke-width:1; stroke:black; " description="&lt;b&gt;GQF42_RS09120&lt;/b&gt;&lt;br&gt;UTP--glucose-1-phosphate uridylyltransferase GalU&lt;br&gt;Location: 1986792 - 1987745" locus_tag="GQF42_RS09120" class="clusterblast-orf" id="dummy-10_h10_5_23"  />
</g>
<g id="a10_0024"  >
<polygon points="524,85 529,80 531,80 531,90 529,90 524,85 " style="fill:#15d8b9; stroke-width:1; stroke:black; " description="&lt;b&gt;GQF42_RS09125&lt;/b&gt;&lt;br&gt;DUF4442 domain-containing protein&lt;br&gt;Location: 1987803 - 1988270&lt;br&gt;&lt;br&gt;&lt;b&gt;BlastP hit with LLPMBPKK_01526&lt;/b&gt;&lt;br&gt;Percentage identity: 93&lt;br&gt;Percentage coverage: 97&lt;br&gt;BLAST bit score: 273&lt;br&gt;E-value: 6.16e-94" locus_tag="GQF42_RS09125" class="clusterblast-orf" id="dummy-10_h10_5_24"  />
</g>
<g id="a10_0025"  >
<polygon points="532,90 543,90 548,85 543,80 532,80 532,90 " style="fill:#6715d8; stroke-width:1; stroke:black; " description="&lt;b&gt;GQF42_RS09130&lt;/b&gt;&lt;br&gt;hypothetical protein&lt;br&gt;Location: 1988388 - 1989404&lt;br&gt;&lt;br&gt;&lt;b&gt;BlastP hit with LLPMBPKK_01527&lt;/b&gt;&lt;br&gt;Percentage identity: 49&lt;br&gt;Percentage coverage: 103&lt;br&gt;BLAST bit score: 199&lt;br&gt;E-value: 2.44e-59" locus_tag="GQF42_RS09130" class="clusterblast-orf" id="dummy-10_h10_5_25"  />
</g>
<g id="a10_0026"  >
<polygon points="560,85 565,80 573,80 573,90 565,90 560,85 " style="fill:#86d815; stroke-width:1; stroke:black; " description="&lt;b&gt;GQF42_RS09135&lt;/b&gt;&lt;br&gt;spermidine synthase-like protein&lt;br&gt;Location: 1990259 - 1991104&lt;br&gt;&lt;br&gt;&lt;b&gt;BlastP hit with LLPMBPKK_01529&lt;/b&gt;&lt;br&gt;Percentage identity: 84&lt;br&gt;Percentage coverage: 100&lt;br&gt;BLAST bit score: 466&lt;br&gt;E-value: 3.21e-166" locus_tag="GQF42_RS09135" class="clusterblast-orf" id="dummy-10_h10_5_26"  />
</g>
<g id="a10_0027"  >
<polygon points="573,85 578,80 591,80 591,90 578,90 573,85 " style="fill:#15d8d8; stroke-width:1; stroke:black; " description="&lt;b&gt;GQF42_RS09140&lt;/b&gt;&lt;br&gt;elongation factor Tu&lt;br&gt;Location: 1991105 - 1992283&lt;br&gt;&lt;br&gt;&lt;b&gt;BlastP hit with LLPMBPKK_01530&lt;/b&gt;&lt;br&gt;Percentage identity: 91&lt;br&gt;Percentage coverage: 100&lt;br&gt;BLAST bit score: 693&lt;br&gt;E-value: 3.77e-252" locus_tag="GQF42_RS09140" class="clusterblast-orf" id="dummy-10_h10_5_27"  />
</g>
<g id="a10_0028"  >
<polygon points="596,85 601,80 607,80 607,90 601,90 596,85 " style="fill:white; stroke-width:1; stroke:black; " description="&lt;b&gt;GQF42_RS09145&lt;/b&gt;&lt;br&gt;DNA alkylation repair protein&lt;br&gt;Location: 1992620 - 1993342" locus_tag="GQF42_RS09145" class="clusterblast-orf" id="dummy-10_h10_5_28"  />
</g>
<g id="a10_0029"  >
<polygon points="610,90 612,85 610,80 610,90 " style="fill:white; stroke-width:1; stroke:black; " description="&lt;b&gt;GQF42_RS09150&lt;/b&gt;&lt;br&gt;aldehyde dehydrogenase&lt;br&gt;Location: 1993547 - 1993716" locus_tag="GQF42_RS09150" class="clusterblast-orf" id="dummy-10_h10_5_29"  />
</g>
<g id="a10_0030"  >
<polygon points="615,90 621,90 626,85 621,80 615,80 615,90 " style="fill:white; stroke-width:1; stroke:black; " description="&lt;b&gt;GQF42_RS09155&lt;/b&gt;&lt;br&gt;hypothetical protein&lt;br&gt;Location: 1993907 - 1994623" locus_tag="GQF42_RS09155" class="clusterblast-orf" id="dummy-10_h10_5_30"  />
</g>
<g id="a10_0031"  >
<polygon points="626,85 631,80 644,80 644,90 631,90 626,85 " style="fill:white; stroke-width:1; stroke:black; " description="&lt;b&gt;GQF42_RS09160&lt;/b&gt;&lt;br&gt;acetyl-CoA C-acyltransferase&lt;br&gt;Location: 1994639 - 1995808" locus_tag="GQF42_RS09160" class="clusterblast-orf" id="dummy-10_h10_5_31"  />
</g>
<g id="a10_0032"  >
<polygon points="645,90 648,90 653,85 648,80 645,80 645,90 " style="fill:white; stroke-width:1; stroke:black; " description="&lt;b&gt;GQF42_RS09165&lt;/b&gt;&lt;br&gt;transcriptional regulator&lt;br&gt;Location: 1995936 - 1996406" locus_tag="GQF42_RS09165" class="clusterblast-orf" id="dummy-10_h10_5_32"  />
</g>
<g id="a10_0033"  >
<polygon points="655,90 663,90 668,85 663,80 655,80 655,90 " style="fill:white; stroke-width:1; stroke:black; " description="&lt;b&gt;GQF42_RS09170&lt;/b&gt;&lt;br&gt;undecaprenyl-diphosphate phosphatase&lt;br&gt;Location: 1996591 - 1997466" locus_tag="GQF42_RS09170" class="clusterblast-orf" id="dummy-10_h10_5_33"  />
</g>
<g id="a10_0034"  >
<polygon points="670,90 673,85 670,80 670,90 " style="fill:white; stroke-width:1; stroke:black; " description="&lt;b&gt;GQF42_RS09175&lt;/b&gt;&lt;br&gt;hypothetical protein&lt;br&gt;Location: 1997566 - 1997745" locus_tag="GQF42_RS09175" class="clusterblast-orf" id="dummy-10_h10_5_34"  />
</g>
<g id="a10_0035"  >
<polygon points="676,90 702,90 707,85 702,80 676,80 676,90 " style="fill:white; stroke-width:1; stroke:black; " description="&lt;b&gt;GQF42_RS09180&lt;/b&gt;&lt;br&gt;restriction endonuclease&lt;br&gt;Location: 1997999 - 2000017" locus_tag="GQF42_RS09180" class="clusterblast-orf" id="dummy-10_h10_5_35"  />
</g>
<g id="a10_0036"  >
<polygon points="709,90 711,90 716,85 711,80 709,80 709,90 " style="fill:white; stroke-width:1; stroke:black; " description="&lt;b&gt;GQF42_RS09185&lt;/b&gt;&lt;br&gt;nuclear transport factor 2 family protein&lt;br&gt;Location: 2000178 - 2000654" locus_tag="GQF42_RS09185" class="clusterblast-orf" id="dummy-10_h10_5_36"  />
</g>
<g id="a10_0037"  >
<polygon points="717,90 736,90 741,85 736,80 717,80 717,90 " style="fill:white; stroke-width:1; stroke:black; " description="&lt;b&gt;GQF42_RS09190&lt;/b&gt;&lt;br&gt;apolipoprotein N-acyltransferase&lt;br&gt;Location: 2000736 - 2002310" locus_tag="GQF42_RS09190" class="clusterblast-orf" id="dummy-10_h10_5_37"  />
</g>
<g id="a10_0038"  >
<polygon points="740,85 745,80 753,80 753,90 745,90 740,85 " style="fill:white; stroke-width:1; stroke:black; " description="&lt;b&gt;GQF42_RS09195&lt;/b&gt;&lt;br&gt;Gfo/Idh/MocA family oxidoreductase&lt;br&gt;Location: 2002228 - 2003139" locus_tag="GQF42_RS09195" class="clusterblast-orf" id="dummy-10_h10_5_38"  />
</g>
</svg>
