<svg xmlns="http://www.w3.org/2000/svg" xmlns:xlink="http://www.w3.org/1999/xlink" version="1.1" x="0" y="0" height="230" width="800" viewBox="0 0 800 230" preserveAspectRatio="none"  >
<g label="Query sequence" class="clusterblast-cluster"  >
<text x="5" y="20" class="clusterblast-acc"  >
Query sequence</text>
<line x1="10" y1="35" x2="778.0" y2="35" style="stroke-width:1; stroke:grey; "  />
<polygon points="0,40 4,40 9,35 4,30 0,30 0,40 " style="fill:#d81515; stroke-width:1; stroke:black; " description="&lt;b&gt;LLPMBPKK_07173&lt;/b&gt;&lt;br&gt;Polysaccharide deacetylase&lt;br&gt;Location: 8309065 - 8309899" locus_tag="LLPMBPKK_07173" class="clusterblast-orf" id="dummy-31_q0_0_all"  />
<polygon points="13,35 18,30 24,30 24,40 18,40 13,35 " style="fill:#77d815; stroke-width:1; stroke:black; " description="&lt;b&gt;LLPMBPKK_07174&lt;/b&gt;&lt;br&gt;Processive diacylglycerolbeta-glucosyltransferase&lt;br&gt;Location: 8310344 - 8311391" locus_tag="LLPMBPKK_07174" class="clusterblast-orf" id="dummy-31_q1_0_all"  />
<polygon points="26,40 29,40 34,35 29,30 26,30 26,40 " style="fill:#15d8d8; stroke-width:1; stroke:black; " description="&lt;b&gt;LLPMBPKK_07175&lt;/b&gt;&lt;br&gt;hypothetical protein&lt;br&gt;Location: 8311642 - 8312464" locus_tag="LLPMBPKK_07175" class="clusterblast-orf" id="dummy-31_q2_0_all"  />
<polygon points="34,35 39,30 63,30 63,40 39,40 34,35 " style="fill:#7715d8; stroke-width:1; stroke:black; " description="&lt;b&gt;LLPMBPKK_07176&lt;/b&gt;&lt;br&gt;NHLP bacteriocin export ABC transporterpermease/ATPase subunit&lt;br&gt;Location: 8312460 - 8315277" locus_tag="LLPMBPKK_07176" class="clusterblast-orf" id="dummy-31_q3_0_all"  />
<polygon points="63,35 68,30 85,30 85,40 68,40 63,35 " style="fill:#7715d8; stroke-width:1; stroke:black; " description="&lt;b&gt;LLPMBPKK_07177&lt;/b&gt;&lt;br&gt;NHLP family bacteriocin export ABC transporter peptidase/permease/ATPase subunit&lt;br&gt;Location: 8315278 - 8317501" locus_tag="LLPMBPKK_07177" class="clusterblast-orf" id="dummy-31_q4_0_all"  />
<polygon points="85,35 90,30 93,30 93,40 90,40 85,35 " style="fill:#d83f15; stroke-width:1; stroke:black; " description="&lt;b&gt;LLPMBPKK_07178&lt;/b&gt;&lt;br&gt;HlyD family efflux transporter periplasmicadaptor subunit&lt;br&gt;Location: 8317497 - 8318304" locus_tag="LLPMBPKK_07178" class="clusterblast-orf" id="dummy-31_q5_0_all"  />
<polygon points="94,35 96,30 96,40 94,35 " style="fill:#4dd815; stroke-width:1; stroke:black; " description="&lt;b&gt;LLPMBPKK_07179&lt;/b&gt;&lt;br&gt;hypothetical protein&lt;br&gt;Location: 8318405 - 8318624" locus_tag="LLPMBPKK_07179" class="clusterblast-orf" id="dummy-31_q6_0_all"  />
<polygon points="101,35 103,30 103,40 101,35 " style="fill:#15aed8; stroke-width:1; stroke:black; " description="&lt;b&gt;LLPMBPKK_07180&lt;/b&gt;&lt;br&gt;PaaI family thioesterase&lt;br&gt;Location: 8319076 - 8319319" locus_tag="LLPMBPKK_07180" class="clusterblast-orf" id="dummy-31_q7_0_all"  />
<polygon points="107,40 116,40 121,35 116,30 107,30 107,40 " style="fill:#a115d8; stroke-width:1; stroke:black; " description="&lt;b&gt;LLPMBPKK_07181&lt;/b&gt;&lt;br&gt;S1 family peptidase&lt;br&gt;Location: 8319665 - 8321150" locus_tag="LLPMBPKK_07181" class="clusterblast-orf" id="dummy-31_q8_0_all"  />
<polygon points="123,35 128,30 144,30 144,40 128,40 123,35 " style="fill:#d86915; stroke-width:1; stroke:black; " description="&lt;b&gt;LLPMBPKK_07182&lt;/b&gt;&lt;br&gt;magnesium or manganese-dependent proteinphosphatase&lt;br&gt;Location: 8321293 - 8323417" locus_tag="LLPMBPKK_07182" class="clusterblast-orf" id="dummy-31_q9_0_all"  />
<polygon points="159,40 166,40 171,35 166,30 159,30 159,40 " style="fill:#23d815; stroke-width:1; stroke:black; " description="&lt;b&gt;LLPMBPKK_07183&lt;/b&gt;&lt;br&gt;cytochrome P450&lt;br&gt;Location: 8324921 - 8326130" locus_tag="LLPMBPKK_07183" class="clusterblast-orf" id="dummy-31_q10_0_all"  />
<polygon points="172,40 181,40 186,35 181,30 172,30 172,40 " style="fill:#1585d8; stroke-width:1; stroke:black; " description="&lt;b&gt;LLPMBPKK_07184&lt;/b&gt;&lt;br&gt;alpha/beta hydrolase MppK&lt;br&gt;Location: 8326230 - 8327592" locus_tag="LLPMBPKK_07184" class="clusterblast-orf" id="dummy-31_q11_0_all"  />
<polygon points="191,40 373,40 378,35 373,30 191,30 191,40 " style="fill:#ca15d8; stroke-width:1; stroke:black; " description="&lt;b&gt;LLPMBPKK_07185&lt;/b&gt;&lt;br&gt;non-ribosomal peptide synthetase&lt;br&gt;Location: 8328105 - 8346762" locus_tag="LLPMBPKK_07185" class="clusterblast-orf" id="dummy-31_q12_0_all"  />
<polygon points="378,40 575,40 580,35 575,30 378,30 378,40 " style="fill:#ca15d8; stroke-width:1; stroke:black; " description="&lt;b&gt;LLPMBPKK_07186&lt;/b&gt;&lt;br&gt;D-alanine--poly(phosphoribitol) ligase subunit 1&lt;br&gt;Location: 8346775 - 8366839" locus_tag="LLPMBPKK_07186" class="clusterblast-orf" id="dummy-31_q13_0_all"  />
<polygon points="581,40 583,35 581,30 581,40 " style="fill:#d89315; stroke-width:1; stroke:black; " description="&lt;b&gt;LLPMBPKK_07187&lt;/b&gt;&lt;br&gt;MbtH family NRPS accessory protein&lt;br&gt;Location: 8366970 - 8367174" locus_tag="LLPMBPKK_07187" class="clusterblast-orf" id="dummy-31_q14_0_all"  />
<polygon points="586,40 587,40 592,35 587,30 586,30 586,40 " style="fill:#15d831; stroke-width:1; stroke:black; " description="&lt;b&gt;LLPMBPKK_07188&lt;/b&gt;&lt;br&gt;N-acetyltransferase&lt;br&gt;Location: 8367504 - 8368035" locus_tag="LLPMBPKK_07188" class="clusterblast-orf" id="dummy-31_q15_0_all"  />
<polygon points="592,40 599,40 604,35 599,30 592,30 592,40 " style="fill:#155bd8; stroke-width:1; stroke:black; " description="&lt;b&gt;LLPMBPKK_07189&lt;/b&gt;&lt;br&gt;major facilitator superfamily transporter&lt;br&gt;Location: 8368031 - 8369297" locus_tag="LLPMBPKK_07189" class="clusterblast-orf" id="dummy-31_q16_0_all"  />
<polygon points="607,40 626,40 631,35 626,30 607,30 607,40 " style="fill:#d86915; stroke-width:1; stroke:black; " description="&lt;b&gt;LLPMBPKK_07190&lt;/b&gt;&lt;br&gt;signal transduction histidine kinase&lt;br&gt;Location: 8369574 - 8371950" locus_tag="LLPMBPKK_07190" class="clusterblast-orf" id="dummy-31_q17_0_all"  />
<polygon points="632,40 635,35 632,30 632,40 " style="fill:#d815bc; stroke-width:1; stroke:black; " description="&lt;b&gt;LLPMBPKK_07191&lt;/b&gt;&lt;br&gt;hypothetical protein&lt;br&gt;Location: 8372031 - 8372304" locus_tag="LLPMBPKK_07191" class="clusterblast-orf" id="dummy-31_q18_0_all"  />
<polygon points="637,40 641,35 637,30 637,40 " style="fill:#d8bc15; stroke-width:1; stroke:black; " description="&lt;b&gt;LLPMBPKK_07192&lt;/b&gt;&lt;br&gt;hypothetical protein&lt;br&gt;Location: 8372511 - 8372928" locus_tag="LLPMBPKK_07192" class="clusterblast-orf" id="dummy-31_q19_0_all"  />
<polygon points="642,40 644,35 642,30 642,40 " style="fill:#15d85b; stroke-width:1; stroke:black; " description="&lt;b&gt;LLPMBPKK_07193&lt;/b&gt;&lt;br&gt;hypothetical protein&lt;br&gt;Location: 8373070 - 8373256" locus_tag="LLPMBPKK_07193" class="clusterblast-orf" id="dummy-31_q20_0_all"  />
<polygon points="644,35 649,30 650,30 650,40 649,40 644,35 " style="fill:#1531d8; stroke-width:1; stroke:black; " description="&lt;b&gt;LLPMBPKK_07194&lt;/b&gt;&lt;br&gt;hydrolase&lt;br&gt;Location: 8373290 - 8373875" locus_tag="LLPMBPKK_07194" class="clusterblast-orf" id="dummy-31_q21_0_all"  />
<polygon points="652,35 656,30 656,40 652,35 " style="fill:#d81593; stroke-width:1; stroke:black; " description="&lt;b&gt;LLPMBPKK_07195&lt;/b&gt;&lt;br&gt;MarR family transcriptional regulator&lt;br&gt;Location: 8374017 - 8374455" locus_tag="LLPMBPKK_07195" class="clusterblast-orf" id="dummy-31_q22_0_all"  />
<polygon points="658,40 683,40 688,35 683,30 658,30 658,40 " style="fill:#cad815; stroke-width:1; stroke:black; " description="&lt;b&gt;LLPMBPKK_07196&lt;/b&gt;&lt;br&gt;FAD-binding oxidoreductase&lt;br&gt;Location: 8374640 - 8377685" locus_tag="LLPMBPKK_07196" class="clusterblast-orf" id="dummy-31_q23_0_all"  />
<polygon points="688,40 695,40 700,35 695,30 688,30 688,40 " style="fill:#15d885; stroke-width:1; stroke:black; " description="&lt;b&gt;LLPMBPKK_07197&lt;/b&gt;&lt;br&gt;mandelate racemase&lt;br&gt;Location: 8377687 - 8378797" locus_tag="LLPMBPKK_07197" class="clusterblast-orf" id="dummy-31_q24_0_all"  />
<polygon points="700,40 705,40 710,35 705,30 700,30 700,40 " style="fill:#2315d8; stroke-width:1; stroke:black; " description="&lt;b&gt;LLPMBPKK_07198&lt;/b&gt;&lt;br&gt;SDR family NAD(P)-dependent oxidoreductase&lt;br&gt;Location: 8378830 - 8379838" locus_tag="LLPMBPKK_07198" class="clusterblast-orf" id="dummy-31_q25_0_all"  />
<polygon points="710,40 710,40 715,35 710,30 710,30 710,40 " style="fill:#d81569; stroke-width:1; stroke:black; " description="&lt;b&gt;LLPMBPKK_07199&lt;/b&gt;&lt;br&gt;metallophosphoesterase&lt;br&gt;Location: 8379862 - 8380348" locus_tag="LLPMBPKK_07199" class="clusterblast-orf" id="dummy-31_q26_0_all"  />
<polygon points="715,40 716,40 721,35 716,30 715,30 715,40 " style="fill:#a1d815; stroke-width:1; stroke:black; " description="&lt;b&gt;LLPMBPKK_07200&lt;/b&gt;&lt;br&gt;N-acetyltransferase&lt;br&gt;Location: 8380373 - 8380964" locus_tag="LLPMBPKK_07200" class="clusterblast-orf" id="dummy-31_q27_0_all"  />
<polygon points="727,35 732,30 738,30 738,40 732,40 727,35 " style="fill:#15d8ae; stroke-width:1; stroke:black; " description="&lt;b&gt;LLPMBPKK_07201&lt;/b&gt;&lt;br&gt;xanthine dehydrogenase&lt;br&gt;Location: 8381495 - 8382602" locus_tag="LLPMBPKK_07201" class="clusterblast-orf" id="dummy-31_q28_0_all"  />
<polygon points="740,40 755,40 760,35 755,30 740,30 740,40 " style="fill:#4d15d8; stroke-width:1; stroke:black; " description="&lt;b&gt;LLPMBPKK_07202&lt;/b&gt;&lt;br&gt;GTP-binding protein&lt;br&gt;Location: 8382788 - 8384783" locus_tag="LLPMBPKK_07202" class="clusterblast-orf" id="dummy-31_q29_0_all"  />
<polygon points="760,40 774,40 779,35 774,30 760,30 760,40 " style="fill:#d8153f; stroke-width:1; stroke:black; " description="&lt;b&gt;LLPMBPKK_07203&lt;/b&gt;&lt;br&gt;endoglycosylceramidase&lt;br&gt;Location: 8384852 - 8386706" locus_tag="LLPMBPKK_07203" class="clusterblast-orf" id="dummy-31_q30_0_all"  />
</g>
<g label="NZ_JACHJK010000006" description="NZ_JACHJK010000006 (451974-530906): Streptomyces echinatus strain CECT 3313 G... (85% of genes show similarity), NRPS,bacteriocin" class="clusterblast-cluster"  >
<text x="5" y="70" class="clusterblast-acc"  >
<a xlink:href="https://antismash-db.secondarymetabolites.org/area.html?record=NZ_JACHJK010000006&amp;start=451974&amp;end=530906" target="_blank">NZ_JACHJK010000006 (451974-530906)</a>: Streptomyces echinatus strain CECT 3313 G... (85% of genes show similarity), NRPS,bacteriocin</text>
<line x1="10" y1="85" x2="778.0" y2="85" style="stroke-width:1; stroke:grey; "  />
</g>
<g id="a31_000"  >
<polygon points="0,90 4,90 9,85 4,80 0,80 0,90 " style="fill:white; stroke-width:1; stroke:black; " description="&lt;b&gt;FHS34_RS19655&lt;/b&gt;&lt;br&gt;DMT family transporter&lt;br&gt;Location: 452465 - 453388" locus_tag="FHS34_RS19655" class="clusterblast-orf" id="dummy-31_h31_1_0"  />
</g>
<g id="a31_001"  >
<polygon points="9,90 12,90 17,85 12,80 9,80 9,90 " style="fill:#d81515; stroke-width:1; stroke:black; " description="&lt;b&gt;FHS34_RS19660&lt;/b&gt;&lt;br&gt;polysaccharide deacetylase family protein&lt;br&gt;Location: 453396 - 454169&lt;br&gt;&lt;br&gt;&lt;b&gt;BlastP hit with LLPMBPKK_07173&lt;/b&gt;&lt;br&gt;Percentage identity: 82&lt;br&gt;Percentage coverage: 88&lt;br&gt;BLAST bit score: 428&lt;br&gt;E-value: 1.38e-151" locus_tag="FHS34_RS19660" class="clusterblast-orf" id="dummy-31_h31_1_1"  />
</g>
<g id="a31_002"  >
<polygon points="17,85 22,80 28,80 28,90 22,90 17,85 " style="fill:#77d815; stroke-width:1; stroke:black; " description="&lt;b&gt;FHS34_RS19665&lt;/b&gt;&lt;br&gt;galactosyldiacylglycerol synthase&lt;br&gt;Location: 454251 - 455297&lt;br&gt;&lt;br&gt;&lt;b&gt;BlastP hit with LLPMBPKK_07174&lt;/b&gt;&lt;br&gt;Percentage identity: 83&lt;br&gt;Percentage coverage: 99&lt;br&gt;BLAST bit score: 565&lt;br&gt;E-value: 5.38e-203" locus_tag="FHS34_RS19665" class="clusterblast-orf" id="dummy-31_h31_1_2"  />
</g>
<g id="a31_003"  >
<polygon points="31,90 34,90 39,85 34,80 31,80 31,90 " style="fill:#15d8d8; stroke-width:1; stroke:black; " description="&lt;b&gt;FHS34_RS19670&lt;/b&gt;&lt;br&gt;ribonuclease BN&lt;br&gt;Location: 455558 - 456397&lt;br&gt;&lt;br&gt;&lt;b&gt;BlastP hit with LLPMBPKK_07175&lt;/b&gt;&lt;br&gt;Percentage identity: 92&lt;br&gt;Percentage coverage: 96&lt;br&gt;BLAST bit score: 500&lt;br&gt;E-value: 8.46e-180" locus_tag="FHS34_RS19670" class="clusterblast-orf" id="dummy-31_h31_1_3"  />
</g>
<g id="a31_004"  >
<polygon points="39,85 44,80 67,80 67,90 44,90 39,85 " style="fill:#7715d8; stroke-width:1; stroke:black; " description="&lt;b&gt;FHS34_RS19675&lt;/b&gt;&lt;br&gt;NHLP bacteriocin export ABC transporter permease/ATPase subunit&lt;br&gt;Location: 456413 - 459238&lt;br&gt;&lt;br&gt;&lt;b&gt;BlastP hit with LLPMBPKK_07176&lt;/b&gt;&lt;br&gt;Percentage identity: 93&lt;br&gt;Percentage coverage: 100&lt;br&gt;BLAST bit score: 1690&lt;br&gt;E-value: 0.0&lt;br&gt;&lt;br&gt;&lt;b&gt;BlastP hit with LLPMBPKK_07177&lt;/b&gt;&lt;br&gt;Percentage identity: 31&lt;br&gt;Percentage coverage: 91&lt;br&gt;BLAST bit score: 202&lt;br&gt;E-value: 1.93e-52" locus_tag="FHS34_RS19675" class="clusterblast-orf" id="dummy-31_h31_1_4"  />
</g>
<g id="a31_005"  >
<polygon points="67,85 72,80 90,80 90,90 72,90 67,85 " style="fill:#7715d8; stroke-width:1; stroke:black; " description="&lt;b&gt;FHS34_RS19680&lt;/b&gt;&lt;br&gt;NHLP family bacteriocin export ABC transporter peptidase/permease/ATPase subunit&lt;br&gt;Location: 459240 - 461462&lt;br&gt;&lt;br&gt;&lt;b&gt;BlastP hit with LLPMBPKK_07176&lt;/b&gt;&lt;br&gt;Percentage identity: 32&lt;br&gt;Percentage coverage: 62&lt;br&gt;BLAST bit score: 201&lt;br&gt;E-value: 4.39e-52&lt;br&gt;&lt;br&gt;&lt;b&gt;BlastP hit with LLPMBPKK_07177&lt;/b&gt;&lt;br&gt;Percentage identity: 97&lt;br&gt;Percentage coverage: 100&lt;br&gt;BLAST bit score: 1364&lt;br&gt;E-value: 0.0" locus_tag="FHS34_RS19680" class="clusterblast-orf" id="dummy-31_h31_1_5"  />
</g>
<g id="a31_006"  >
<polygon points="90,85 95,80 98,80 98,90 95,90 90,85 " style="fill:#d83f15; stroke-width:1; stroke:black; " description="&lt;b&gt;FHS34_RS19685&lt;/b&gt;&lt;br&gt;HlyD family efflux transporter periplasmic adaptor subunit&lt;br&gt;Location: 461459 - 462265&lt;br&gt;&lt;br&gt;&lt;b&gt;BlastP hit with LLPMBPKK_07178&lt;/b&gt;&lt;br&gt;Percentage identity: 91&lt;br&gt;Percentage coverage: 100&lt;br&gt;BLAST bit score: 457&lt;br&gt;E-value: 7.68e-163" locus_tag="FHS34_RS19685" class="clusterblast-orf" id="dummy-31_h31_1_6"  />
</g>
<g id="a31_007"  >
<polygon points="99,85 101,80 101,90 99,85 " style="fill:#4dd815; stroke-width:1; stroke:black; " description="&lt;b&gt;FHS34_RS19690&lt;/b&gt;&lt;br&gt;type A2 lantipeptide&lt;br&gt;Location: 462401 - 462619&lt;br&gt;&lt;br&gt;&lt;b&gt;BlastP hit with LLPMBPKK_07179&lt;/b&gt;&lt;br&gt;Percentage identity: 92&lt;br&gt;Percentage coverage: 100&lt;br&gt;BLAST bit score: 125&lt;br&gt;E-value: 9.25e-38" locus_tag="FHS34_RS19690" class="clusterblast-orf" id="dummy-31_h31_1_7"  />
</g>
<g id="a31_008"  >
<polygon points="106,85 110,80 110,90 106,85 " style="fill:#15aed8; stroke-width:1; stroke:black; " description="&lt;b&gt;FHS34_RS19695&lt;/b&gt;&lt;br&gt;PaaI family thioesterase&lt;br&gt;Location: 463076 - 463489&lt;br&gt;&lt;br&gt;&lt;b&gt;BlastP hit with LLPMBPKK_07180&lt;/b&gt;&lt;br&gt;Percentage identity: 95&lt;br&gt;Percentage coverage: 100&lt;br&gt;BLAST bit score: 132&lt;br&gt;E-value: 1.12e-39" locus_tag="FHS34_RS19695" class="clusterblast-orf" id="dummy-31_h31_1_8"  />
</g>
<g id="a31_009"  >
<polygon points="112,90 122,90 127,85 122,80 112,80 112,90 " style="fill:#a115d8; stroke-width:1; stroke:black; " description="&lt;b&gt;FHS34_RS19700&lt;/b&gt;&lt;br&gt;S1 family peptidase&lt;br&gt;Location: 463704 - 465191&lt;br&gt;&lt;br&gt;&lt;b&gt;BlastP hit with LLPMBPKK_07181&lt;/b&gt;&lt;br&gt;Percentage identity: 91&lt;br&gt;Percentage coverage: 78&lt;br&gt;BLAST bit score: 664&lt;br&gt;E-value: 2.65e-237" locus_tag="FHS34_RS19700" class="clusterblast-orf" id="dummy-31_h31_1_9"  />
</g>
<g id="a31_0010"  >
<polygon points="128,85 133,80 150,80 150,90 133,90 128,85 " style="fill:#d86915; stroke-width:1; stroke:black; " description="&lt;b&gt;FHS34_RS19705&lt;/b&gt;&lt;br&gt;SpoIIE family protein phosphatase&lt;br&gt;Location: 465317 - 467467&lt;br&gt;&lt;br&gt;&lt;b&gt;BlastP hit with LLPMBPKK_07182&lt;/b&gt;&lt;br&gt;Percentage identity: 82&lt;br&gt;Percentage coverage: 101&lt;br&gt;BLAST bit score: 1145&lt;br&gt;E-value: 0.0&lt;br&gt;&lt;br&gt;&lt;b&gt;BlastP hit with LLPMBPKK_07190&lt;/b&gt;&lt;br&gt;Percentage identity: 32&lt;br&gt;Percentage coverage: 87&lt;br&gt;BLAST bit score: 238&lt;br&gt;E-value: 6.83e-66" locus_tag="FHS34_RS19705" class="clusterblast-orf" id="dummy-31_h31_1_10"  />
</g>
<g id="a31_0011"  >
<polygon points="162,90 169,90 174,85 169,80 162,80 162,90 " style="fill:#23d815; stroke-width:1; stroke:black; " description="&lt;b&gt;FHS34_RS19710&lt;/b&gt;&lt;br&gt;cytochrome P450&lt;br&gt;Location: 468690 - 469898&lt;br&gt;&lt;br&gt;&lt;b&gt;BlastP hit with LLPMBPKK_07183&lt;/b&gt;&lt;br&gt;Percentage identity: 93&lt;br&gt;Percentage coverage: 100&lt;br&gt;BLAST bit score: 748&lt;br&gt;E-value: 2.13e-273" locus_tag="FHS34_RS19710" class="clusterblast-orf" id="dummy-31_h31_1_11"  />
</g>
<g id="a31_0012"  >
<polygon points="175,90 184,90 189,85 184,80 175,80 175,90 " style="fill:#1585d8; stroke-width:1; stroke:black; " description="&lt;b&gt;FHS34_RS19715&lt;/b&gt;&lt;br&gt;beta-lactamase family protein&lt;br&gt;Location: 470001 - 471353&lt;br&gt;&lt;br&gt;&lt;b&gt;BlastP hit with LLPMBPKK_07184&lt;/b&gt;&lt;br&gt;Percentage identity: 84&lt;br&gt;Percentage coverage: 100&lt;br&gt;BLAST bit score: 737&lt;br&gt;E-value: 1.8e-267" locus_tag="FHS34_RS19715" class="clusterblast-orf" id="dummy-31_h31_1_12"  />
</g>
<g id="a31_0013"  >
<polygon points="195,90 380,90 385,85 380,80 195,80 195,90 " style="fill:#ca15d8; stroke-width:1; stroke:black; " description="&lt;b&gt;FHS34_RS19720&lt;/b&gt;&lt;br&gt;non-ribosomal peptide synthase/polyketide synthase&lt;br&gt;Location: 471975 - 490922&lt;br&gt;&lt;br&gt;&lt;b&gt;BlastP hit with LLPMBPKK_07185&lt;/b&gt;&lt;br&gt;Percentage identity: 85&lt;br&gt;Percentage coverage: 102&lt;br&gt;BLAST bit score: 10529&lt;br&gt;E-value: 0.0&lt;br&gt;&lt;br&gt;&lt;b&gt;BlastP hit with LLPMBPKK_07186&lt;/b&gt;&lt;br&gt;Percentage identity: 42&lt;br&gt;Percentage coverage: 80&lt;br&gt;BLAST bit score: 3229&lt;br&gt;E-value: 0.0" locus_tag="FHS34_RS19720" class="clusterblast-orf" id="dummy-31_h31_1_13"  />
</g>
<g id="a31_0014"  >
<polygon points="385,90 581,90 586,85 581,80 385,80 385,90 " style="fill:#ca15d8; stroke-width:1; stroke:black; " description="&lt;b&gt;FHS34_RS19725&lt;/b&gt;&lt;br&gt;non-ribosomal peptide synthase/polyketide synthase&lt;br&gt;Location: 490936 - 510906&lt;br&gt;&lt;br&gt;&lt;b&gt;BlastP hit with LLPMBPKK_07185&lt;/b&gt;&lt;br&gt;Percentage identity: 42&lt;br&gt;Percentage coverage: 92&lt;br&gt;BLAST bit score: 3499&lt;br&gt;E-value: 0.0&lt;br&gt;&lt;br&gt;&lt;b&gt;BlastP hit with LLPMBPKK_07186&lt;/b&gt;&lt;br&gt;Percentage identity: 87&lt;br&gt;Percentage coverage: 100&lt;br&gt;BLAST bit score: 11461&lt;br&gt;E-value: 0.0" locus_tag="FHS34_RS19725" class="clusterblast-orf" id="dummy-31_h31_1_14"  />
</g>
<g id="a31_0015"  >
<polygon points="587,90 589,85 587,80 587,90 " style="fill:#d89315; stroke-width:1; stroke:black; " description="&lt;b&gt;FHS34_RS19730&lt;/b&gt;&lt;br&gt;MbtH family NRPS accessory protein&lt;br&gt;Location: 511032 - 511235&lt;br&gt;&lt;br&gt;&lt;b&gt;BlastP hit with LLPMBPKK_07187&lt;/b&gt;&lt;br&gt;Percentage identity: 94&lt;br&gt;Percentage coverage: 100&lt;br&gt;BLAST bit score: 142&lt;br&gt;E-value: 1.25e-44" locus_tag="FHS34_RS19730" class="clusterblast-orf" id="dummy-31_h31_1_15"  />
</g>
<g id="a31_0016"  >
<polygon points="590,90 590,90 595,85 590,80 590,80 590,90 " style="fill:#15d831; stroke-width:1; stroke:black; " description="&lt;b&gt;FHS34_RS19735&lt;/b&gt;&lt;br&gt;GNAT family N-acetyltransferase&lt;br&gt;Location: 511373 - 511870&lt;br&gt;&lt;br&gt;&lt;b&gt;BlastP hit with LLPMBPKK_07188&lt;/b&gt;&lt;br&gt;Percentage identity: 88&lt;br&gt;Percentage coverage: 93&lt;br&gt;BLAST bit score: 302&lt;br&gt;E-value: 6.59e-105" locus_tag="FHS34_RS19735" class="clusterblast-orf" id="dummy-31_h31_1_16"  />
</g>
<g id="a31_0017"  >
<polygon points="598,90 605,90 610,85 605,80 598,80 598,90 " style="fill:#155bd8; stroke-width:1; stroke:black; " description="&lt;b&gt;FHS34_RS19740&lt;/b&gt;&lt;br&gt;MFS transporter&lt;br&gt;Location: 512128 - 513381&lt;br&gt;&lt;br&gt;&lt;b&gt;BlastP hit with LLPMBPKK_07189&lt;/b&gt;&lt;br&gt;Percentage identity: 82&lt;br&gt;Percentage coverage: 98&lt;br&gt;BLAST bit score: 605&lt;br&gt;E-value: 1.73e-216" locus_tag="FHS34_RS19740" class="clusterblast-orf" id="dummy-31_h31_1_17"  />
</g>
<g id="a31_0018"  >
<polygon points="611,90 631,90 636,85 631,80 611,80 611,90 " style="fill:#d86915; stroke-width:1; stroke:black; " description="&lt;b&gt;FHS34_RS19745&lt;/b&gt;&lt;br&gt;SpoIIE family protein phosphatase&lt;br&gt;Location: 513473 - 515914&lt;br&gt;&lt;br&gt;&lt;b&gt;BlastP hit with LLPMBPKK_07182&lt;/b&gt;&lt;br&gt;Percentage identity: 34&lt;br&gt;Percentage coverage: 99&lt;br&gt;BLAST bit score: 268&lt;br&gt;E-value: 8.39e-77&lt;br&gt;&lt;br&gt;&lt;b&gt;BlastP hit with LLPMBPKK_07190&lt;/b&gt;&lt;br&gt;Percentage identity: 90&lt;br&gt;Percentage coverage: 100&lt;br&gt;BLAST bit score: 1377&lt;br&gt;E-value: 0.0" locus_tag="FHS34_RS19745" class="clusterblast-orf" id="dummy-31_h31_1_18"  />
</g>
<g id="a31_0019"  >
<polygon points="637,90 639,85 637,80 637,90 " style="fill:#d815bc; stroke-width:1; stroke:black; " description="&lt;b&gt;FHS34_RS19750&lt;/b&gt;&lt;br&gt;hypothetical protein&lt;br&gt;Location: 515996 - 516268&lt;br&gt;&lt;br&gt;&lt;b&gt;BlastP hit with LLPMBPKK_07191&lt;/b&gt;&lt;br&gt;Percentage identity: 93&lt;br&gt;Percentage coverage: 96&lt;br&gt;BLAST bit score: 155&lt;br&gt;E-value: 4.15e-49" locus_tag="FHS34_RS19750" class="clusterblast-orf" id="dummy-31_h31_1_19"  />
</g>
<g id="a31_0020"  >
<polygon points="639,90 649,90 654,85 649,80 639,80 639,90 " style="fill:white; stroke-width:1; stroke:black; " description="&lt;b&gt;FHS34_RS19755&lt;/b&gt;&lt;br&gt;ubiquinol-cytochrome c reductase cytochrome b subunit&lt;br&gt;Location: 516265 - 517758" locus_tag="FHS34_RS19755" class="clusterblast-orf" id="dummy-31_h31_1_20"  />
</g>
<g id="a31_0021"  >
<polygon points="654,85 658,80 658,90 654,85 " style="fill:white; stroke-width:1; stroke:black; " description="&lt;b&gt;FHS34_RS19760&lt;/b&gt;&lt;br&gt;cytochrome c oxidase subunit 4&lt;br&gt;Location: 517694 - 518077" locus_tag="FHS34_RS19760" class="clusterblast-orf" id="dummy-31_h31_1_21"  />
</g>
<g id="a31_0022"  >
<polygon points="658,85 663,80 674,80 674,90 663,90 658,85 " style="fill:white; stroke-width:1; stroke:black; " description="&lt;b&gt;FHS34_RS19765&lt;/b&gt;&lt;br&gt;cytochrome c oxidase subunit I&lt;br&gt;Location: 518074 - 519738" locus_tag="FHS34_RS19765" class="clusterblast-orf" id="dummy-31_h31_1_22"  />
</g>
<g id="a31_0023"  >
<polygon points="676,90 680,85 676,80 676,90 " style="fill:#d8bc15; stroke-width:1; stroke:black; " description="&lt;b&gt;FHS34_RS19770&lt;/b&gt;&lt;br&gt;hypothetical protein&lt;br&gt;Location: 519913 - 520269&lt;br&gt;&lt;br&gt;&lt;b&gt;BlastP hit with LLPMBPKK_07192&lt;/b&gt;&lt;br&gt;Percentage identity: 83&lt;br&gt;Percentage coverage: 86&lt;br&gt;BLAST bit score: 192&lt;br&gt;E-value: 1.6e-62" locus_tag="FHS34_RS19770" class="clusterblast-orf" id="dummy-31_h31_1_23"  />
</g>
<g id="a31_0024"  >
<polygon points="680,90 682,85 680,80 680,90 " style="fill:#15d85b; stroke-width:1; stroke:black; " description="&lt;b&gt;FHS34_RS19775&lt;/b&gt;&lt;br&gt;hypothetical protein&lt;br&gt;Location: 520344 - 520529&lt;br&gt;&lt;br&gt;&lt;b&gt;BlastP hit with LLPMBPKK_07193&lt;/b&gt;&lt;br&gt;Percentage identity: 64&lt;br&gt;Percentage coverage: 100&lt;br&gt;BLAST bit score: 81&lt;br&gt;E-value: 2.19e-20" locus_tag="FHS34_RS19775" class="clusterblast-orf" id="dummy-31_h31_1_24"  />
</g>
<g id="a31_0025"  >
<polygon points="684,85 689,80 690,80 690,90 689,90 684,85 " style="fill:#1531d8; stroke-width:1; stroke:black; " description="&lt;b&gt;FHS34_RS19780&lt;/b&gt;&lt;br&gt;hydrolase&lt;br&gt;Location: 520690 - 521274&lt;br&gt;&lt;br&gt;&lt;b&gt;BlastP hit with LLPMBPKK_07194&lt;/b&gt;&lt;br&gt;Percentage identity: 89&lt;br&gt;Percentage coverage: 99&lt;br&gt;BLAST bit score: 343&lt;br&gt;E-value: 2.52e-120" locus_tag="FHS34_RS19780" class="clusterblast-orf" id="dummy-31_h31_1_25"  />
</g>
<g id="a31_0026"  >
<polygon points="691,85 695,80 695,90 691,85 " style="fill:#d81593; stroke-width:1; stroke:black; " description="&lt;b&gt;FHS34_RS19785&lt;/b&gt;&lt;br&gt;MarR family transcriptional regulator&lt;br&gt;Location: 521414 - 521851&lt;br&gt;&lt;br&gt;&lt;b&gt;BlastP hit with LLPMBPKK_07195&lt;/b&gt;&lt;br&gt;Percentage identity: 95&lt;br&gt;Percentage coverage: 100&lt;br&gt;BLAST bit score: 254&lt;br&gt;E-value: 1.48e-86" locus_tag="FHS34_RS19785" class="clusterblast-orf" id="dummy-31_h31_1_26"  />
</g>
<g id="a31_0027"  >
<polygon points="697,90 722,90 727,85 722,80 697,80 697,90 " style="fill:#cad815; stroke-width:1; stroke:black; " description="&lt;b&gt;FHS34_RS19790&lt;/b&gt;&lt;br&gt;FAD-binding protein&lt;br&gt;Location: 521977 - 525030&lt;br&gt;&lt;br&gt;&lt;b&gt;BlastP hit with LLPMBPKK_07196&lt;/b&gt;&lt;br&gt;Percentage identity: 94&lt;br&gt;Percentage coverage: 97&lt;br&gt;BLAST bit score: 1902&lt;br&gt;E-value: 0.0" locus_tag="FHS34_RS19790" class="clusterblast-orf" id="dummy-31_h31_1_27"  />
</g>
<g id="a31_0028"  >
<polygon points="727,90 733,90 738,85 733,80 727,80 727,90 " style="fill:#15d885; stroke-width:1; stroke:black; " description="&lt;b&gt;FHS34_RS19795&lt;/b&gt;&lt;br&gt;mandelate racemase&lt;br&gt;Location: 525033 - 526142&lt;br&gt;&lt;br&gt;&lt;b&gt;BlastP hit with LLPMBPKK_07197&lt;/b&gt;&lt;br&gt;Percentage identity: 85&lt;br&gt;Percentage coverage: 100&lt;br&gt;BLAST bit score: 622&lt;br&gt;E-value: 1.1e-224" locus_tag="FHS34_RS19795" class="clusterblast-orf" id="dummy-31_h31_1_28"  />
</g>
<g id="a31_0029"  >
<polygon points="739,90 744,90 749,85 744,80 739,80 739,90 " style="fill:#2315d8; stroke-width:1; stroke:black; " description="&lt;b&gt;FHS34_RS19800&lt;/b&gt;&lt;br&gt;SDR family oxidoreductase&lt;br&gt;Location: 526197 - 527207&lt;br&gt;&lt;br&gt;&lt;b&gt;BlastP hit with LLPMBPKK_07198&lt;/b&gt;&lt;br&gt;Percentage identity: 89&lt;br&gt;Percentage coverage: 99&lt;br&gt;BLAST bit score: 586&lt;br&gt;E-value: 8.66e-212" locus_tag="FHS34_RS19800" class="clusterblast-orf" id="dummy-31_h31_1_29"  />
</g>
<g id="a31_0030"  >
<polygon points="749,90 749,90 754,85 749,80 749,80 749,90 " style="fill:#d81569; stroke-width:1; stroke:black; " description="&lt;b&gt;FHS34_RS19805&lt;/b&gt;&lt;br&gt;metallophosphoesterase&lt;br&gt;Location: 527217 - 527717&lt;br&gt;&lt;br&gt;&lt;b&gt;BlastP hit with LLPMBPKK_07199&lt;/b&gt;&lt;br&gt;Percentage identity: 94&lt;br&gt;Percentage coverage: 99&lt;br&gt;BLAST bit score: 318&lt;br&gt;E-value: 1.41e-111" locus_tag="FHS34_RS19805" class="clusterblast-orf" id="dummy-31_h31_1_30"  />
</g>
<g id="a31_0031"  >
<polygon points="754,90 755,90 760,85 755,80 754,80 754,90 " style="fill:#a1d815; stroke-width:1; stroke:black; " description="&lt;b&gt;FHS34_RS19810&lt;/b&gt;&lt;br&gt;GNAT family N-acetyltransferase&lt;br&gt;Location: 527740 - 528336&lt;br&gt;&lt;br&gt;&lt;b&gt;BlastP hit with LLPMBPKK_07200&lt;/b&gt;&lt;br&gt;Percentage identity: 76&lt;br&gt;Percentage coverage: 101&lt;br&gt;BLAST bit score: 306&lt;br&gt;E-value: 1.89e-105" locus_tag="FHS34_RS19810" class="clusterblast-orf" id="dummy-31_h31_1_31"  />
</g>
<g id="a31_0032"  >
<polygon points="762,85 767,80 768,80 768,90 767,90 762,85 " style="fill:white; stroke-width:1; stroke:black; " description="&lt;b&gt;FHS34_RS19815&lt;/b&gt;&lt;br&gt;SRPBCC family protein&lt;br&gt;Location: 528444 - 529103" locus_tag="FHS34_RS19815" class="clusterblast-orf" id="dummy-31_h31_1_32"  />
</g>
<g id="a31_0033"  >
<polygon points="768,85 773,80 780,80 780,90 773,90 768,85 " style="fill:#15d8ae; stroke-width:1; stroke:black; " description="&lt;b&gt;FHS34_RS19820&lt;/b&gt;&lt;br&gt;XdhC family protein&lt;br&gt;Location: 529127 - 530233&lt;br&gt;&lt;br&gt;&lt;b&gt;BlastP hit with LLPMBPKK_07201&lt;/b&gt;&lt;br&gt;Percentage identity: 82&lt;br&gt;Percentage coverage: 99&lt;br&gt;BLAST bit score: 586&lt;br&gt;E-value: 1.04e-210" locus_tag="FHS34_RS19820" class="clusterblast-orf" id="dummy-31_h31_1_33"  />
</g>
</svg>
