<svg xmlns="http://www.w3.org/2000/svg" xmlns:xlink="http://www.w3.org/1999/xlink" version="1.1" x="0" y="0" height="230" width="800" viewBox="0 0 800 230" preserveAspectRatio="none"  >
<g label="Query sequence" class="clusterblast-cluster"  >
<text x="5" y="20" class="clusterblast-acc"  >
Query sequence</text>
<line x1="10" y1="35" x2="778.0" y2="35" style="stroke-width:1; stroke:grey; "  />
<polygon points="129,40 134,40 139,35 134,30 129,30 129,40 " style="fill:#d81515; stroke-width:1; stroke:black; " description="&lt;b&gt;LLPMBPKK_05373&lt;/b&gt;&lt;br&gt;hypothetical protein&lt;br&gt;Location: 6119913 - 6120729" locus_tag="LLPMBPKK_05373" class="clusterblast-orf" id="dummy-20_q0_0_all"  />
<polygon points="144,40 157,40 162,35 157,30 144,30 144,40 " style="fill:#33d815; stroke-width:1; stroke:black; " description="&lt;b&gt;LLPMBPKK_05374&lt;/b&gt;&lt;br&gt;amino acid permease&lt;br&gt;Location: 6121100 - 6122573" locus_tag="LLPMBPKK_05374" class="clusterblast-orf" id="dummy-20_q1_0_all"  />
<polygon points="167,40 169,35 167,30 167,40 " style="fill:white; stroke-width:1; stroke:black; " description="&lt;b&gt;LLPMBPKK_05375&lt;/b&gt;&lt;br&gt;hypothetical protein&lt;br&gt;Location: 6122987 - 6123137" locus_tag="LLPMBPKK_05375" class="clusterblast-orf" id="dummy-20_q2_0_all"  />
<polygon points="171,40 171,40 176,35 171,30 171,30 171,40 " style="fill:white; stroke-width:1; stroke:black; " description="&lt;b&gt;LLPMBPKK_05376&lt;/b&gt;&lt;br&gt;hypothetical protein&lt;br&gt;Location: 6123339 - 6123723" locus_tag="LLPMBPKK_05376" class="clusterblast-orf" id="dummy-20_q3_0_all"  />
<polygon points="178,40 188,40 193,35 188,30 178,30 178,40 " style="fill:#15abd8; stroke-width:1; stroke:black; " description="&lt;b&gt;LLPMBPKK_05377&lt;/b&gt;&lt;br&gt;cytochrome P450&lt;br&gt;Location: 6123827 - 6125027" locus_tag="LLPMBPKK_05377" class="clusterblast-orf" id="dummy-20_q4_0_all"  />
<polygon points="196,40 211,40 216,35 211,30 196,30 196,40 " style="fill:#8d15d8; stroke-width:1; stroke:black; " description="&lt;b&gt;LLPMBPKK_05378&lt;/b&gt;&lt;br&gt;solute-binding transport lipoprotein&lt;br&gt;Location: 6125331 - 6126897" locus_tag="LLPMBPKK_05378" class="clusterblast-orf" id="dummy-20_q5_0_all"  />
<polygon points="217,35 222,30 252,30 252,40 222,40 217,35 " style="fill:#d86f15; stroke-width:1; stroke:black; " description="&lt;b&gt;LLPMBPKK_05379&lt;/b&gt;&lt;br&gt;non-ribosomal peptide synthetase&lt;br&gt;Location: 6126958 - 6129811" locus_tag="LLPMBPKK_05379" class="clusterblast-orf" id="dummy-20_q6_0_all"  />
<polygon points="255,40 300,40 305,35 300,30 255,30 255,40 " style="fill:#d86f15; stroke-width:1; stroke:black; " description="&lt;b&gt;LLPMBPKK_05380&lt;/b&gt;&lt;br&gt;non-ribosomal peptide synthetase&lt;br&gt;Location: 6130070 - 6134009" locus_tag="LLPMBPKK_05380" class="clusterblast-orf" id="dummy-20_q7_0_all"  />
<polygon points="306,40 423,40 428,35 423,30 306,30 306,40 " style="fill:#d86f15; stroke-width:1; stroke:black; " description="&lt;b&gt;LLPMBPKK_05381&lt;/b&gt;&lt;br&gt;non-ribosomal peptide synthetase/polyketidesynthase&lt;br&gt;Location: 6134151 - 6143928" locus_tag="LLPMBPKK_05381" class="clusterblast-orf" id="dummy-20_q8_0_all"  />
<polygon points="428,40 438,40 443,35 438,30 428,30 428,40 " style="fill:#15d851; stroke-width:1; stroke:black; " description="&lt;b&gt;LLPMBPKK_05382&lt;/b&gt;&lt;br&gt;GSCFA family protein&lt;br&gt;Location: 6143938 - 6145072" locus_tag="LLPMBPKK_05382" class="clusterblast-orf" id="dummy-20_q9_0_all"  />
<polygon points="442,40 447,40 452,35 447,30 442,30 442,40 " style="fill:#1551d8; stroke-width:1; stroke:black; " description="&lt;b&gt;LLPMBPKK_05383&lt;/b&gt;&lt;br&gt;hypothetical protein&lt;br&gt;Location: 6145037 - 6145817" locus_tag="LLPMBPKK_05383" class="clusterblast-orf" id="dummy-20_q10_0_all"  />
<polygon points="453,40 459,40 464,35 459,30 453,30 453,40 " style="fill:#d815c9; stroke-width:1; stroke:black; " description="&lt;b&gt;LLPMBPKK_05384&lt;/b&gt;&lt;br&gt;taurine dioxygenase&lt;br&gt;Location: 6145894 - 6146770" locus_tag="LLPMBPKK_05384" class="clusterblast-orf" id="dummy-20_q11_0_all"  />
<polygon points="464,35 469,30 475,30 475,40 469,40 464,35 " style="fill:#d8c915; stroke-width:1; stroke:black; " description="&lt;b&gt;LLPMBPKK_05385&lt;/b&gt;&lt;br&gt;hypothetical protein&lt;br&gt;Location: 6146782 - 6147661" locus_tag="LLPMBPKK_05385" class="clusterblast-orf" id="dummy-20_q12_0_all"  />
<polygon points="477,40 493,40 498,35 493,30 477,30 477,40 " style="fill:#15d8ab; stroke-width:1; stroke:black; " description="&lt;b&gt;LLPMBPKK_05386&lt;/b&gt;&lt;br&gt;hypothetical protein&lt;br&gt;Location: 6147847 - 6149494" locus_tag="LLPMBPKK_05386" class="clusterblast-orf" id="dummy-20_q13_0_all"  />
<polygon points="501,40 533,40 538,35 533,30 501,30 501,40 " style="fill:#3315d8; stroke-width:1; stroke:black; " description="&lt;b&gt;LLPMBPKK_05387&lt;/b&gt;&lt;br&gt;Alginate lyase&lt;br&gt;Location: 6149718 - 6152715" locus_tag="LLPMBPKK_05387" class="clusterblast-orf" id="dummy-20_q14_0_all"  />
<polygon points="539,35 544,30 565,30 565,40 544,40 539,35 " style="fill:#3315d8; stroke-width:1; stroke:black; " description="&lt;b&gt;LLPMBPKK_05388&lt;/b&gt;&lt;br&gt;Lytic transglycosylase&lt;br&gt;Location: 6152790 - 6154881" locus_tag="LLPMBPKK_05388" class="clusterblast-orf" id="dummy-20_q15_0_all"  />
<polygon points="569,40 598,40 603,35 598,30 569,30 569,40 " style="fill:#d8156f; stroke-width:1; stroke:black; " description="&lt;b&gt;LLPMBPKK_05389&lt;/b&gt;&lt;br&gt;hypothetical protein&lt;br&gt;Location: 6155246 - 6157967" locus_tag="LLPMBPKK_05389" class="clusterblast-orf" id="dummy-20_q16_0_all"  />
<polygon points="617,40 621,35 617,30 617,40 " style="fill:#8dd815; stroke-width:1; stroke:black; " description="&lt;b&gt;LLPMBPKK_05390&lt;/b&gt;&lt;br&gt;D-mannose binding lectin&lt;br&gt;Location: 6159084 - 6159405" locus_tag="LLPMBPKK_05390" class="clusterblast-orf" id="dummy-20_q17_0_all"  />
<polygon points="621,35 626,30 650,30 650,40 626,40 621,35 " style="fill:#15d8ab; stroke-width:1; stroke:black; " description="&lt;b&gt;LLPMBPKK_05391&lt;/b&gt;&lt;br&gt;hypothetical protein&lt;br&gt;Location: 6159385 - 6161743" locus_tag="LLPMBPKK_05391" class="clusterblast-orf" id="dummy-20_q18_0_all"  />
</g>
<g label="NZ_CP040916" description="NZ_CP040916 (8153133-8215800): Streptomyces spectabilis strain NRRL 2792 chro... (12% of genes show similarity), NRPS,amglyccycl" class="clusterblast-cluster"  >
<text x="5" y="70" class="clusterblast-acc"  >
<a xlink:href="https://antismash-db.secondarymetabolites.org/area.html?record=NZ_CP040916&amp;start=8153133&amp;end=8215800" target="_blank">NZ_CP040916 (8153133-8215800)</a>: Streptomyces spectabilis strain NRRL 2792 chro... (12% of genes show similarity), NRPS,amglyccycl</text>
<line x1="10" y1="85" x2="778.0" y2="85" style="stroke-width:1; stroke:grey; "  />
</g>
<g id="a20_000"  >
<polygon points="0,85 5,80 15,80 15,90 5,90 0,85 " style="fill:white; stroke-width:1; stroke:black; " description="&lt;b&gt;FH965_RS35110&lt;/b&gt;&lt;br&gt;TrpB-like pyridoxal phosphate-dependent enzyme&lt;br&gt;Location: 8215800 - 8214529" locus_tag="FH965_RS35110" class="clusterblast-orf" id="dummy-20_h20_5_0"  />
</g>
<g id="a20_001"  >
<polygon points="25,85 30,80 42,80 42,90 30,90 25,85 " style="fill:white; stroke-width:1; stroke:black; " description="&lt;b&gt;FH965_RS35105&lt;/b&gt;&lt;br&gt;hypothetical protein&lt;br&gt;Location: 8213732 - 8212431" locus_tag="FH965_RS35105" class="clusterblast-orf" id="dummy-20_h20_5_1"  />
</g>
<g id="a20_002"  >
<polygon points="43,85 48,80 51,80 51,90 48,90 43,85 " style="fill:white; stroke-width:1; stroke:black; " description="&lt;b&gt;FH965_RS35100&lt;/b&gt;&lt;br&gt;methyltransferase domain-containing protein&lt;br&gt;Location: 8212278 - 8211644" locus_tag="FH965_RS35100" class="clusterblast-orf" id="dummy-20_h20_5_2"  />
</g>
<g id="a20_003"  >
<polygon points="52,90 56,85 52,80 52,90 " style="fill:white; stroke-width:1; stroke:black; " description="&lt;b&gt;FH965_RS35095&lt;/b&gt;&lt;br&gt;MerR family DNA-binding protein&lt;br&gt;Location: 8211580 - 8211263" locus_tag="FH965_RS35095" class="clusterblast-orf" id="dummy-20_h20_5_3"  />
</g>
<g id="a20_004"  >
<polygon points="56,85 61,80 64,80 64,90 61,90 56,85 " style="fill:white; stroke-width:1; stroke:black; " description="&lt;b&gt;FH965_RS35090&lt;/b&gt;&lt;br&gt;ATP-dependent endonuclease&lt;br&gt;Location: 8211276 - 8210659" locus_tag="FH965_RS35090" class="clusterblast-orf" id="dummy-20_h20_5_4"  />
</g>
<g id="a20_005"  >
<polygon points="64,85 69,80 78,80 78,90 69,90 64,85 " style="fill:white; stroke-width:1; stroke:black; " description="&lt;b&gt;FH965_RS35085&lt;/b&gt;&lt;br&gt;hypothetical protein&lt;br&gt;Location: 8210600 - 8209485" locus_tag="FH965_RS35085" class="clusterblast-orf" id="dummy-20_h20_5_5"  />
</g>
<g id="a20_006"  >
<polygon points="81,90 95,90 100,85 95,80 81,80 81,90 " style="fill:white; stroke-width:1; stroke:black; " description="&lt;b&gt;FH965_RS35080&lt;/b&gt;&lt;br&gt;dioxygenase&lt;br&gt;Location: 8209242 - 8207740" locus_tag="FH965_RS35080" class="clusterblast-orf" id="dummy-20_h20_5_6"  />
</g>
<g id="a20_007"  >
<polygon points="101,85 106,80 107,80 107,90 106,90 101,85 " style="fill:white; stroke-width:1; stroke:black; " description="&lt;b&gt;FH965_RS35075&lt;/b&gt;&lt;br&gt;hypothetical protein&lt;br&gt;Location: 8207701 - 8207171" locus_tag="FH965_RS35075" class="clusterblast-orf" id="dummy-20_h20_5_7"  />
</g>
<g id="a20_008"  >
<polygon points="110,85 115,80 124,80 124,90 115,90 110,85 " style="fill:white; stroke-width:1; stroke:black; " description="&lt;b&gt;FH965_RS35070&lt;/b&gt;&lt;br&gt;hypothetical protein&lt;br&gt;Location: 8206948 - 8205821" locus_tag="FH965_RS35070" class="clusterblast-orf" id="dummy-20_h20_5_8"  />
</g>
<g id="a20_009"  >
<polygon points="124,85 129,80 138,80 138,90 129,90 124,85 " style="fill:white; stroke-width:1; stroke:black; " description="&lt;b&gt;FH965_RS35065&lt;/b&gt;&lt;br&gt;hypothetical protein&lt;br&gt;Location: 8205788 - 8204730" locus_tag="FH965_RS35065" class="clusterblast-orf" id="dummy-20_h20_5_9"  />
</g>
<g id="a20_0010"  >
<polygon points="138,85 143,80 165,80 165,90 143,90 138,85 " style="fill:white; stroke-width:1; stroke:black; " description="&lt;b&gt;FH965_RS35060&lt;/b&gt;&lt;br&gt;hypothetical protein&lt;br&gt;Location: 8204730 - 8202496" locus_tag="FH965_RS35060" class="clusterblast-orf" id="dummy-20_h20_5_10"  />
</g>
<g id="a20_0011"  >
<polygon points="166,85 169,80 169,90 166,85 " style="fill:white; stroke-width:1; stroke:black; " description="&lt;b&gt;FH965_RS35055&lt;/b&gt;&lt;br&gt;hypothetical protein&lt;br&gt;Location: 8202430 - 8202197" locus_tag="FH965_RS35055" class="clusterblast-orf" id="dummy-20_h20_5_11"  />
</g>
<g id="a20_0012"  >
<polygon points="176,90 185,90 190,85 185,80 176,80 176,90 " style="fill:white; stroke-width:1; stroke:black; " description="&lt;b&gt;FH965_RS35050&lt;/b&gt;&lt;br&gt;polyprenyl synthetase family protein&lt;br&gt;Location: 8201611 - 8200550" locus_tag="FH965_RS35050" class="clusterblast-orf" id="dummy-20_h20_5_12"  />
</g>
<g id="a20_0013"  >
<polygon points="191,90 194,90 199,85 194,80 191,80 191,90 " style="fill:white; stroke-width:1; stroke:black; " description="&lt;b&gt;FH965_RS35045&lt;/b&gt;&lt;br&gt;ATP-binding cassette domain-containing protein&lt;br&gt;Location: 8200466 - 8199813" locus_tag="FH965_RS35045" class="clusterblast-orf" id="dummy-20_h20_5_13"  />
</g>
<g id="a20_0014"  >
<polygon points="199,90 204,90 209,85 204,80 199,80 199,90 " style="fill:white; stroke-width:1; stroke:black; " description="&lt;b&gt;FH965_RS35040&lt;/b&gt;&lt;br&gt;ABC transporter permease&lt;br&gt;Location: 8199816 - 8199016" locus_tag="FH965_RS35040" class="clusterblast-orf" id="dummy-20_h20_5_14"  />
</g>
<g id="a20_0015"  >
<polygon points="209,90 211,90 216,85 211,80 209,80 209,90 " style="fill:white; stroke-width:1; stroke:black; " description="&lt;b&gt;FH965_RS35035&lt;/b&gt;&lt;br&gt;polyketide cyclase&lt;br&gt;Location: 8199019 - 8198474" locus_tag="FH965_RS35035" class="clusterblast-orf" id="dummy-20_h20_5_15"  />
</g>
<g id="a20_0016"  >
<polygon points="215,85 220,80 225,80 225,90 220,90 215,85 " style="fill:white; stroke-width:1; stroke:black; " description="&lt;b&gt;FH965_RS35030&lt;/b&gt;&lt;br&gt;TSUP family transporter&lt;br&gt;Location: 8198514 - 8197747" locus_tag="FH965_RS35030" class="clusterblast-orf" id="dummy-20_h20_5_16"  />
</g>
<g id="a20_0017"  >
<polygon points="226,90 232,90 237,85 232,80 226,80 226,90 " style="fill:white; stroke-width:1; stroke:black; " description="&lt;b&gt;FH965_RS35025&lt;/b&gt;&lt;br&gt;LysR family transcriptional regulator&lt;br&gt;Location: 8197663 - 8196740" locus_tag="FH965_RS35025" class="clusterblast-orf" id="dummy-20_h20_5_17"  />
</g>
<g id="a20_0018"  >
<polygon points="245,90 288,90 293,85 288,80 245,80 245,90 " style="fill:#d86f15; stroke-width:1; stroke:black; " description="&lt;b&gt;FH965_RS35020&lt;/b&gt;&lt;br&gt;amino acid adenylation domain-containing protein&lt;br&gt;Location: 8196153 - 8192302&lt;br&gt;&lt;br&gt;&lt;b&gt;BlastP hit with LLPMBPKK_05380&lt;/b&gt;&lt;br&gt;Percentage identity: 58&lt;br&gt;Percentage coverage: 99&lt;br&gt;BLAST bit score: 1355&lt;br&gt;E-value: 0.0" locus_tag="FH965_RS35020" class="clusterblast-orf" id="dummy-20_h20_5_18"  />
</g>
<g id="a20_0019"  >
<polygon points="293,90 401,90 406,85 401,80 293,80 293,90 " style="fill:#d86f15; stroke-width:1; stroke:black; " description="&lt;b&gt;FH965_RS35015&lt;/b&gt;&lt;br&gt;amino acid adenylation domain-containing protein&lt;br&gt;Location: 8192305 - 8183171&lt;br&gt;&lt;br&gt;&lt;b&gt;BlastP hit with LLPMBPKK_05381&lt;/b&gt;&lt;br&gt;Percentage identity: 66&lt;br&gt;Percentage coverage: 96&lt;br&gt;BLAST bit score: 3803&lt;br&gt;E-value: 0.0" locus_tag="FH965_RS35015" class="clusterblast-orf" id="dummy-20_h20_5_19"  />
</g>
<g id="a20_0020"  >
<polygon points="407,90 415,90 420,85 415,80 407,80 407,90 " style="fill:#15d851; stroke-width:1; stroke:black; " description="&lt;b&gt;FH965_RS35010&lt;/b&gt;&lt;br&gt;GSCFA domain-containing protein&lt;br&gt;Location: 8183140 - 8182085&lt;br&gt;&lt;br&gt;&lt;b&gt;BlastP hit with LLPMBPKK_05382&lt;/b&gt;&lt;br&gt;Percentage identity: 71&lt;br&gt;Percentage coverage: 93&lt;br&gt;BLAST bit score: 499&lt;br&gt;E-value: 1.39e-176" locus_tag="FH965_RS35010" class="clusterblast-orf" id="dummy-20_h20_5_20"  />
</g>
<g id="a20_0021"  >
<polygon points="421,90 423,90 428,85 423,80 421,80 421,90 " style="fill:#1551d8; stroke-width:1; stroke:black; " description="&lt;b&gt;FH965_RS35005&lt;/b&gt;&lt;br&gt;hypothetical protein&lt;br&gt;Location: 8181987 - 8181415&lt;br&gt;&lt;br&gt;&lt;b&gt;BlastP hit with LLPMBPKK_05383&lt;/b&gt;&lt;br&gt;Percentage identity: 63&lt;br&gt;Percentage coverage: 77&lt;br&gt;BLAST bit score: 251&lt;br&gt;E-value: 4.46e-83" locus_tag="FH965_RS35005" class="clusterblast-orf" id="dummy-20_h20_5_21"  />
</g>
<g id="a20_0022"  >
<polygon points="430,90 435,90 440,85 435,80 430,80 430,90 " style="fill:#d815c9; stroke-width:1; stroke:black; " description="&lt;b&gt;FH965_RS35000&lt;/b&gt;&lt;br&gt;taurine dioxygenase&lt;br&gt;Location: 8181322 - 8180450&lt;br&gt;&lt;br&gt;&lt;b&gt;BlastP hit with LLPMBPKK_05384&lt;/b&gt;&lt;br&gt;Percentage identity: 64&lt;br&gt;Percentage coverage: 100&lt;br&gt;BLAST bit score: 395&lt;br&gt;E-value: 9.52e-138" locus_tag="FH965_RS35000" class="clusterblast-orf" id="dummy-20_h20_5_22"  />
</g>
<g id="a20_0023"  >
<polygon points="441,85 446,80 451,80 451,90 446,90 441,85 " style="fill:#d8c915; stroke-width:1; stroke:black; " description="&lt;b&gt;FH965_RS34995&lt;/b&gt;&lt;br&gt;SpcZ&lt;br&gt;Location: 8180391 - 8179579&lt;br&gt;&lt;br&gt;&lt;b&gt;BlastP hit with LLPMBPKK_05385&lt;/b&gt;&lt;br&gt;Percentage identity: 58&lt;br&gt;Percentage coverage: 34&lt;br&gt;BLAST bit score: 114&lt;br&gt;E-value: 3.03e-28" locus_tag="FH965_RS34995" class="clusterblast-orf" id="dummy-20_h20_5_23"  />
</g>
<g id="a20_0024"  >
<polygon points="453,85 458,80 465,80 465,90 458,90 453,85 " style="fill:white; stroke-width:1; stroke:black; " description="&lt;b&gt;FH965_RS34990&lt;/b&gt;&lt;br&gt;phosphotransferase&lt;br&gt;Location: 8179440 - 8178493" locus_tag="FH965_RS34990" class="clusterblast-orf" id="dummy-20_h20_5_24"  />
</g>
<g id="a20_0025"  >
<polygon points="466,85 471,80 482,80 482,90 471,90 466,85 " style="fill:white; stroke-width:1; stroke:black; " description="&lt;b&gt;FH965_RS34985&lt;/b&gt;&lt;br&gt;MFS transporter&lt;br&gt;Location: 8178435 - 8177137" locus_tag="FH965_RS34985" class="clusterblast-orf" id="dummy-20_h20_5_25"  />
</g>
<g id="a20_0026"  >
<polygon points="482,85 487,80 492,80 492,90 487,90 482,85 " style="fill:white; stroke-width:1; stroke:black; " description="&lt;b&gt;FH965_RS34980&lt;/b&gt;&lt;br&gt;inositol monophosphatase&lt;br&gt;Location: 8177144 - 8176347" locus_tag="FH965_RS34980" class="clusterblast-orf" id="dummy-20_h20_5_26"  />
</g>
<g id="a20_0027"  >
<polygon points="496,90 505,90 510,85 505,80 496,80 496,90 " style="fill:white; stroke-width:1; stroke:black; " description="&lt;b&gt;FH965_RS34975&lt;/b&gt;&lt;br&gt;Gfo/Idh/MocA family oxidoreductase&lt;br&gt;Location: 8175973 - 8174849" locus_tag="FH965_RS34975" class="clusterblast-orf" id="dummy-20_h20_5_27"  />
</g>
<g id="a20_0028"  >
<polygon points="512,90 523,90 528,85 523,80 512,80 512,90 " style="fill:white; stroke-width:1; stroke:black; " description="&lt;b&gt;FH965_RS34970&lt;/b&gt;&lt;br&gt;aspartate aminotransferase family protein&lt;br&gt;Location: 8174743 - 8173415" locus_tag="FH965_RS34970" class="clusterblast-orf" id="dummy-20_h20_5_28"  />
</g>
<g id="a20_0029"  >
<polygon points="529,90 534,90 539,85 534,80 529,80 529,90 " style="fill:white; stroke-width:1; stroke:black; " description="&lt;b&gt;FH965_RS34965&lt;/b&gt;&lt;br&gt;sugar phosphate isomerase/epimerase&lt;br&gt;Location: 8173373 - 8172573" locus_tag="FH965_RS34965" class="clusterblast-orf" id="dummy-20_h20_5_29"  />
</g>
<g id="a20_0030"  >
<polygon points="539,90 549,90 554,85 549,80 539,80 539,90 " style="fill:white; stroke-width:1; stroke:black; " description="&lt;b&gt;FH965_RS34960&lt;/b&gt;&lt;br&gt;extracellular solute-binding protein&lt;br&gt;Location: 8172561 - 8171371" locus_tag="FH965_RS34960" class="clusterblast-orf" id="dummy-20_h20_5_30"  />
</g>
<g id="a20_0031"  >
<polygon points="554,90 566,90 571,85 566,80 554,80 554,90 " style="fill:white; stroke-width:1; stroke:black; " description="&lt;b&gt;FH965_RS34955&lt;/b&gt;&lt;br&gt;DegT/DnrJ/EryC1/StrS family aminotransferase&lt;br&gt;Location: 8171304 - 8169985" locus_tag="FH965_RS34955" class="clusterblast-orf" id="dummy-20_h20_5_31"  />
</g>
<g id="a20_0032"  >
<polygon points="571,90 577,90 582,85 577,80 571,80 571,90 " style="fill:white; stroke-width:1; stroke:black; " description="&lt;b&gt;FH965_RS34950&lt;/b&gt;&lt;br&gt;4Fe-4S cluster-binding domain-containing protein&lt;br&gt;Location: 8169988 - 8169080" locus_tag="FH965_RS34950" class="clusterblast-orf" id="dummy-20_h20_5_32"  />
</g>
<g id="a20_0033"  >
<polygon points="582,90 588,90 593,85 588,80 582,80 582,90 " style="fill:white; stroke-width:1; stroke:black; " description="&lt;b&gt;FH965_RS34945&lt;/b&gt;&lt;br&gt;glycosyltransferase&lt;br&gt;Location: 8169078 - 8168251" locus_tag="FH965_RS34945" class="clusterblast-orf" id="dummy-20_h20_5_33"  />
</g>
<g id="a20_0034"  >
<polygon points="593,90 598,90 603,85 598,80 593,80 593,90 " style="fill:white; stroke-width:1; stroke:black; " description="&lt;b&gt;FH965_RS34940&lt;/b&gt;&lt;br&gt;site-specific DNA-methyltransferase&lt;br&gt;Location: 8168192 - 8167389" locus_tag="FH965_RS34940" class="clusterblast-orf" id="dummy-20_h20_5_34"  />
</g>
<g id="a20_0035"  >
<polygon points="604,85 609,80 617,80 617,90 609,90 604,85 " style="fill:white; stroke-width:1; stroke:black; " description="&lt;b&gt;FH965_RS34935&lt;/b&gt;&lt;br&gt;Gfo/Idh/MocA family oxidoreductase&lt;br&gt;Location: 8167321 - 8166281" locus_tag="FH965_RS34935" class="clusterblast-orf" id="dummy-20_h20_5_35"  />
</g>
<g id="a20_0036"  >
<polygon points="620,90 626,90 631,85 626,80 620,80 620,90 " style="fill:white; stroke-width:1; stroke:black; " description="&lt;b&gt;FH965_RS34930&lt;/b&gt;&lt;br&gt;NAD-dependent epimerase/dehydratase family protein&lt;br&gt;Location: 8166059 - 8165130" locus_tag="FH965_RS34930" class="clusterblast-orf" id="dummy-20_h20_5_36"  />
</g>
<g id="a20_0037"  >
<polygon points="632,85 637,80 644,80 644,90 637,90 632,85 " style="fill:white; stroke-width:1; stroke:black; " description="&lt;b&gt;FH965_RS34925&lt;/b&gt;&lt;br&gt;dTDP-glucose 4,6-dehydratase&lt;br&gt;Location: 8165100 - 8164108" locus_tag="FH965_RS34925" class="clusterblast-orf" id="dummy-20_h20_5_37"  />
</g>
<g id="a20_0038"  >
<polygon points="645,90 651,90 656,85 651,80 645,80 645,90 " style="fill:white; stroke-width:1; stroke:black; " description="&lt;b&gt;FH965_RS34920&lt;/b&gt;&lt;br&gt;glucose-1-phosphate thymidylyltransferase RfbA&lt;br&gt;Location: 8164009 - 8163134" locus_tag="FH965_RS34920" class="clusterblast-orf" id="dummy-20_h20_5_38"  />
</g>
<g id="a20_0039"  >
<polygon points="658,85 663,80 664,80 664,90 663,90 658,85 " style="fill:white; stroke-width:1; stroke:black; " description="&lt;b&gt;FH965_RS34915&lt;/b&gt;&lt;br&gt;DUF4430 domain-containing protein&lt;br&gt;Location: 8163043 - 8162537" locus_tag="FH965_RS34915" class="clusterblast-orf" id="dummy-20_h20_5_39"  />
</g>
<g id="a20_0040"  >
<polygon points="665,85 670,80 683,80 683,90 670,90 665,85 " style="fill:white; stroke-width:1; stroke:black; " description="&lt;b&gt;FH965_RS34910&lt;/b&gt;&lt;br&gt;LPXTG cell wall anchor domain-containing protein&lt;br&gt;Location: 8162472 - 8160994" locus_tag="FH965_RS34910" class="clusterblast-orf" id="dummy-20_h20_5_40"  />
</g>
<g id="a20_0041"  >
<polygon points="682,85 687,80 695,80 695,90 687,90 682,85 " style="fill:white; stroke-width:1; stroke:black; " description="&lt;b&gt;FH965_RS34905&lt;/b&gt;&lt;br&gt;ECF transporter S component&lt;br&gt;Location: 8161082 - 8160054" locus_tag="FH965_RS34905" class="clusterblast-orf" id="dummy-20_h20_5_41"  />
</g>
<g id="a20_0042"  >
<polygon points="695,85 700,80 715,80 715,90 700,90 695,85 " style="fill:white; stroke-width:1; stroke:black; " description="&lt;b&gt;FH965_RS34900&lt;/b&gt;&lt;br&gt;ATP-binding cassette domain-containing protein&lt;br&gt;Location: 8160057 - 8158453" locus_tag="FH965_RS34900" class="clusterblast-orf" id="dummy-20_h20_5_42"  />
</g>
<g id="a20_0043"  >
<polygon points="715,85 720,80 729,80 729,90 720,90 715,85 " style="fill:white; stroke-width:1; stroke:black; " description="&lt;b&gt;FH965_RS34895&lt;/b&gt;&lt;br&gt;energy-coupling factor transporter transmembrane protein EcfT&lt;br&gt;Location: 8158456 - 8157344" locus_tag="FH965_RS34895" class="clusterblast-orf" id="dummy-20_h20_5_43"  />
</g>
<g id="a20_0044"  >
<polygon points="729,85 734,80 741,80 741,90 734,90 729,85 " style="fill:white; stroke-width:1; stroke:black; " description="&lt;b&gt;FH965_RS34890&lt;/b&gt;&lt;br&gt;hypothetical protein&lt;br&gt;Location: 8157347 - 8156322" locus_tag="FH965_RS34890" class="clusterblast-orf" id="dummy-20_h20_5_44"  />
</g>
<g id="a20_0045"  >
<polygon points="749,90 753,85 749,80 749,90 " style="fill:white; stroke-width:1; stroke:black; " description="&lt;b&gt;FH965_RS34885&lt;/b&gt;&lt;br&gt;hypothetical protein&lt;br&gt;Location: 8155695 - 8155405" locus_tag="FH965_RS34885" class="clusterblast-orf" id="dummy-20_h20_5_45"  />
</g>
<g id="a20_0046"  >
<polygon points="753,85 758,80 758,80 758,90 758,90 753,85 " style="fill:white; stroke-width:1; stroke:black; " description="&lt;b&gt;FH965_RS34880&lt;/b&gt;&lt;br&gt;fluoride efflux transporter CrcB&lt;br&gt;Location: 8155350 - 8154976" locus_tag="FH965_RS34880" class="clusterblast-orf" id="dummy-20_h20_5_46"  />
</g>
<g id="a20_0047"  >
<polygon points="758,85 763,80 764,80 764,90 763,90 758,85 " style="fill:white; stroke-width:1; stroke:black; " description="&lt;b&gt;FH965_RS34875&lt;/b&gt;&lt;br&gt;CrcB family protein&lt;br&gt;Location: 8154979 - 8154491" locus_tag="FH965_RS34875" class="clusterblast-orf" id="dummy-20_h20_5_47"  />
</g>
<g id="a20_0048"  >
<polygon points="767,85 770,80 770,90 767,85 " style="fill:white; stroke-width:1; stroke:black; " description="&lt;b&gt;FH965_RS34870&lt;/b&gt;&lt;br&gt;GlsB/YeaQ/YmgE family stress response membrane protein&lt;br&gt;Location: 8154261 - 8153998" locus_tag="FH965_RS34870" class="clusterblast-orf" id="dummy-20_h20_5_48"  />
</g>
<g id="a20_0049"  >
<polygon points="775,90 775,90 780,85 775,80 775,80 775,90 " style="fill:white; stroke-width:1; stroke:black; " description="&lt;b&gt;FH965_RS34865&lt;/b&gt;&lt;br&gt;VOC family protein&lt;br&gt;Location: 8153637 - 8153263" locus_tag="FH965_RS34865" class="clusterblast-orf" id="dummy-20_h20_5_49"  />
</g>
</svg>
