<svg xmlns="http://www.w3.org/2000/svg" xmlns:xlink="http://www.w3.org/1999/xlink" version="1.1" x="0" y="0" height="230" width="800" viewBox="0 0 800 230" preserveAspectRatio="none"  >
<g label="Query sequence" class="clusterblast-cluster"  >
<text x="5" y="20" class="clusterblast-acc"  >
Query sequence</text>
<line x1="10" y1="35" x2="778.0" y2="35" style="stroke-width:1; stroke:grey; "  />
<polygon points="233,35 238,30 239,30 239,40 238,40 233,35 " style="fill:#d81515; stroke-width:1; stroke:black; " description="&lt;b&gt;LLPMBPKK_04016&lt;/b&gt;&lt;br&gt;TrmH family RNA methyltransferase&lt;br&gt;Location: 4616085 - 4616826" locus_tag="LLPMBPKK_04016" class="clusterblast-orf" id="dummy-18_q0_0_all"  />
<polygon points="239,35 244,30 247,30 247,40 244,40 239,35 " style="fill:#58d815; stroke-width:1; stroke:black; " description="&lt;b&gt;LLPMBPKK_04017&lt;/b&gt;&lt;br&gt;HTTM domain-containing protein&lt;br&gt;Location: 4616822 - 4618034" locus_tag="LLPMBPKK_04017" class="clusterblast-orf" id="dummy-18_q1_0_all"  />
<polygon points="247,35 252,30 253,30 253,40 252,40 247,35 " style="fill:#15c4d8; stroke-width:1; stroke:black; " description="&lt;b&gt;LLPMBPKK_04018&lt;/b&gt;&lt;br&gt;hypothetical protein&lt;br&gt;Location: 4618030 - 4618855" locus_tag="LLPMBPKK_04018" class="clusterblast-orf" id="dummy-18_q2_0_all"  />
<polygon points="256,40 258,40 263,35 258,30 256,30 256,40 " style="fill:#8115d8; stroke-width:1; stroke:black; " description="&lt;b&gt;LLPMBPKK_04019&lt;/b&gt;&lt;br&gt;1,2-phenylacetyl-CoA epoxidase subunit A&lt;br&gt;Location: 4619266 - 4620283" locus_tag="LLPMBPKK_04019" class="clusterblast-orf" id="dummy-18_q3_0_all"  />
<polygon points="263,40 265,35 263,30 263,40 " style="fill:#d83e15; stroke-width:1; stroke:black; " description="&lt;b&gt;LLPMBPKK_04020&lt;/b&gt;&lt;br&gt;1,2-phenylacetyl-CoA epoxidase subunit B&lt;br&gt;Location: 4620279 - 4620567" locus_tag="LLPMBPKK_04020" class="clusterblast-orf" id="dummy-18_q4_0_all"  />
<polygon points="265,40 265,40 270,35 265,30 265,30 265,40 " style="fill:#30d815; stroke-width:1; stroke:black; " description="&lt;b&gt;LLPMBPKK_04021&lt;/b&gt;&lt;br&gt;phenylacetate-CoA oxygenase subunit PaaI&lt;br&gt;Location: 4620563 - 4621316" locus_tag="LLPMBPKK_04021" class="clusterblast-orf" id="dummy-18_q5_0_all"  />
<polygon points="270,40 274,35 270,30 270,40 " style="fill:#159cd8; stroke-width:1; stroke:black; " description="&lt;b&gt;LLPMBPKK_04022&lt;/b&gt;&lt;br&gt;phenylacetate-CoA oxygenase subunit PaaJ&lt;br&gt;Location: 4621309 - 4621843" locus_tag="LLPMBPKK_04022" class="clusterblast-orf" id="dummy-18_q6_0_all"  />
<polygon points="274,40 276,40 281,35 276,30 274,30 274,40 " style="fill:#a915d8; stroke-width:1; stroke:black; " description="&lt;b&gt;LLPMBPKK_04023&lt;/b&gt;&lt;br&gt;2Fe-2S iron-sulfur cluster bindingdomain-containing protein&lt;br&gt;Location: 4621842 - 4622907" locus_tag="LLPMBPKK_04023" class="clusterblast-orf" id="dummy-18_q7_0_all"  />
<polygon points="283,40 286,40 291,35 286,30 283,30 283,40 " style="fill:#d86615; stroke-width:1; stroke:black; " description="&lt;b&gt;LLPMBPKK_04024&lt;/b&gt;&lt;br&gt;acyl-CoA dehydrogenase&lt;br&gt;Location: 4623126 - 4624269" locus_tag="LLPMBPKK_04024" class="clusterblast-orf" id="dummy-18_q8_0_all"  />
<polygon points="291,35 293,30 293,40 291,35 " style="fill:#15d823; stroke-width:1; stroke:black; " description="&lt;b&gt;LLPMBPKK_04025&lt;/b&gt;&lt;br&gt;rhodanese-like domain-containing protein&lt;br&gt;Location: 4624288 - 4624618" locus_tag="LLPMBPKK_04025" class="clusterblast-orf" id="dummy-18_q9_0_all"  />
<polygon points="294,35 299,30 300,30 300,40 299,40 294,35 " style="fill:#1573d8; stroke-width:1; stroke:black; " description="&lt;b&gt;LLPMBPKK_04026&lt;/b&gt;&lt;br&gt;hypothetical protein&lt;br&gt;Location: 4624666 - 4625623" locus_tag="LLPMBPKK_04026" class="clusterblast-orf" id="dummy-18_q10_0_all"  />
<polygon points="301,35 306,30 311,30 311,40 306,40 301,35 " style="fill:#d215d8; stroke-width:1; stroke:black; " description="&lt;b&gt;LLPMBPKK_04027&lt;/b&gt;&lt;br&gt;hypothetical protein&lt;br&gt;Location: 4625648 - 4627106" locus_tag="LLPMBPKK_04027" class="clusterblast-orf" id="dummy-18_q11_0_all"  />
<polygon points="312,35 317,30 317,30 317,40 317,40 312,35 " style="fill:#d88e15; stroke-width:1; stroke:black; " description="&lt;b&gt;LLPMBPKK_04028&lt;/b&gt;&lt;br&gt;2-hydroxychromene-2-carboxylate isomerase&lt;br&gt;Location: 4627295 - 4627997" locus_tag="LLPMBPKK_04028" class="clusterblast-orf" id="dummy-18_q12_0_all"  />
<polygon points="317,35 322,30 323,30 323,40 322,40 317,35 " style="fill:#15d84b; stroke-width:1; stroke:black; " description="&lt;b&gt;LLPMBPKK_04029&lt;/b&gt;&lt;br&gt;SDR family oxidoreductase&lt;br&gt;Location: 4628056 - 4628800" locus_tag="LLPMBPKK_04029" class="clusterblast-orf" id="dummy-18_q13_0_all"  />
<polygon points="323,35 328,30 329,30 329,40 328,40 323,35 " style="fill:#154bd8; stroke-width:1; stroke:black; " description="&lt;b&gt;LLPMBPKK_04030&lt;/b&gt;&lt;br&gt;FabA-like domain protein&lt;br&gt;Location: 4628796 - 4629738" locus_tag="LLPMBPKK_04030" class="clusterblast-orf" id="dummy-18_q14_0_all"  />
<polygon points="329,35 331,30 331,40 329,35 " style="fill:#d815b7; stroke-width:1; stroke:black; " description="&lt;b&gt;LLPMBPKK_04031&lt;/b&gt;&lt;br&gt;acyl carrier protein&lt;br&gt;Location: 4629737 - 4629995" locus_tag="LLPMBPKK_04031" class="clusterblast-orf" id="dummy-18_q15_0_all"  />
<polygon points="332,35 337,30 339,30 339,40 337,40 332,35 " style="fill:#d8b715; stroke-width:1; stroke:black; " description="&lt;b&gt;LLPMBPKK_04032&lt;/b&gt;&lt;br&gt;3-oxoacyl-ACP synthase&lt;br&gt;Location: 4630070 - 4631171" locus_tag="LLPMBPKK_04032" class="clusterblast-orf" id="dummy-18_q16_0_all"  />
<polygon points="340,35 343,30 343,40 340,35 " style="fill:#15d873; stroke-width:1; stroke:black; " description="&lt;b&gt;LLPMBPKK_04033&lt;/b&gt;&lt;br&gt;hypothetical protein&lt;br&gt;Location: 4631222 - 4631618" locus_tag="LLPMBPKK_04033" class="clusterblast-orf" id="dummy-18_q17_0_all"  />
<polygon points="343,35 345,30 345,40 343,35 " style="fill:#1523d8; stroke-width:1; stroke:black; " description="&lt;b&gt;LLPMBPKK_04034&lt;/b&gt;&lt;br&gt;hypothetical protein&lt;br&gt;Location: 4631621 - 4632029" locus_tag="LLPMBPKK_04034" class="clusterblast-orf" id="dummy-18_q18_0_all"  />
<polygon points="345,35 348,30 348,40 345,35 " style="fill:#d8158e; stroke-width:1; stroke:black; " description="&lt;b&gt;LLPMBPKK_04035&lt;/b&gt;&lt;br&gt;hypothetical protein&lt;br&gt;Location: 4632028 - 4632352" locus_tag="LLPMBPKK_04035" class="clusterblast-orf" id="dummy-18_q19_0_all"  />
<polygon points="348,35 353,30 355,30 355,40 353,40 348,35 " style="fill:#d2d815; stroke-width:1; stroke:black; " description="&lt;b&gt;LLPMBPKK_04036&lt;/b&gt;&lt;br&gt;hypothetical protein&lt;br&gt;Location: 4632361 - 4633366" locus_tag="LLPMBPKK_04036" class="clusterblast-orf" id="dummy-18_q20_0_all"  />
<polygon points="355,35 360,30 360,30 360,40 360,40 355,35 " style="fill:#15d89c; stroke-width:1; stroke:black; " description="&lt;b&gt;LLPMBPKK_04037&lt;/b&gt;&lt;br&gt;alpha/beta hydrolase&lt;br&gt;Location: 4633362 - 4634178" locus_tag="LLPMBPKK_04037" class="clusterblast-orf" id="dummy-18_q21_0_all"  />
<polygon points="360,35 365,30 367,30 367,40 365,40 360,35 " style="fill:#d8b715; stroke-width:1; stroke:black; " description="&lt;b&gt;LLPMBPKK_04038&lt;/b&gt;&lt;br&gt;3-oxoacyl-ACP synthase I&lt;br&gt;Location: 4634174 - 4635173" locus_tag="LLPMBPKK_04038" class="clusterblast-orf" id="dummy-18_q22_0_all"  />
<polygon points="367,35 372,30 376,30 376,40 372,40 367,35 " style="fill:#3015d8; stroke-width:1; stroke:black; " description="&lt;b&gt;LLPMBPKK_04039&lt;/b&gt;&lt;br&gt;3-oxoacyl-ACP synthase&lt;br&gt;Location: 4635172 - 4636348" locus_tag="LLPMBPKK_04039" class="clusterblast-orf" id="dummy-18_q23_0_all"  />
<polygon points="376,35 381,30 384,30 384,40 381,40 376,35 " style="fill:#3015d8; stroke-width:1; stroke:black; " description="&lt;b&gt;LLPMBPKK_04040&lt;/b&gt;&lt;br&gt;beta-ketoacyl-[acyl-carrier-protein] synthasefamily protein&lt;br&gt;Location: 4636344 - 4637580" locus_tag="LLPMBPKK_04040" class="clusterblast-orf" id="dummy-18_q24_0_all"  />
<polygon points="385,35 386,30 386,40 385,35 " style="fill:#d81566; stroke-width:1; stroke:black; " description="&lt;b&gt;LLPMBPKK_04041&lt;/b&gt;&lt;br&gt;acyl carrier protein&lt;br&gt;Location: 4637613 - 4637859" locus_tag="LLPMBPKK_04041" class="clusterblast-orf" id="dummy-18_q25_0_all"  />
<polygon points="387,35 392,30 393,30 393,40 392,40 387,35 " style="fill:#a9d815; stroke-width:1; stroke:black; " description="&lt;b&gt;LLPMBPKK_04042&lt;/b&gt;&lt;br&gt;LuxR family transcriptional regulator&lt;br&gt;Location: 4637995 - 4638787" locus_tag="LLPMBPKK_04042" class="clusterblast-orf" id="dummy-18_q26_0_all"  />
<polygon points="394,35 399,30 404,30 404,40 399,40 394,35 " style="fill:white; stroke-width:1; stroke:black; " description="&lt;b&gt;LLPMBPKK_04043&lt;/b&gt;&lt;br&gt;hypothetical protein&lt;br&gt;Location: 4638934 - 4640428" locus_tag="LLPMBPKK_04043" class="clusterblast-orf" id="dummy-18_q27_0_all"  />
<polygon points="405,35 410,30 431,30 431,40 410,40 405,35 " style="fill:white; stroke-width:1; stroke:black; " description="&lt;b&gt;LLPMBPKK_04044&lt;/b&gt;&lt;br&gt;[acyl-carrier-protein] S-malonyltransferase&lt;br&gt;Location: 4640501 - 4644239" locus_tag="LLPMBPKK_04044" class="clusterblast-orf" id="dummy-18_q28_0_all"  />
<polygon points="433,35 438,30 438,30 438,40 438,40 433,35 " style="fill:#15d8c4; stroke-width:1; stroke:black; " description="&lt;b&gt;LLPMBPKK_04045&lt;/b&gt;&lt;br&gt;gamma-butyrolactone binding protein&lt;br&gt;Location: 4644533 - 4645160" locus_tag="LLPMBPKK_04045" class="clusterblast-orf" id="dummy-18_q29_0_all"  />
<polygon points="439,35 444,30 444,30 444,40 444,40 439,35 " style="fill:#5815d8; stroke-width:1; stroke:black; " description="&lt;b&gt;LLPMBPKK_04046&lt;/b&gt;&lt;br&gt;response regulator transcription factor&lt;br&gt;Location: 4645316 - 4646048" locus_tag="LLPMBPKK_04046" class="clusterblast-orf" id="dummy-18_q30_0_all"  />
<polygon points="447,40 448,40 453,35 448,30 447,30 447,40 " style="fill:#d8153e; stroke-width:1; stroke:black; " description="&lt;b&gt;LLPMBPKK_04047&lt;/b&gt;&lt;br&gt;ScbA protein&lt;br&gt;Location: 4646437 - 4647397" locus_tag="LLPMBPKK_04047" class="clusterblast-orf" id="dummy-18_q31_0_all"  />
<polygon points="454,40 455,40 460,35 455,30 454,30 454,40 " style="fill:#81d815; stroke-width:1; stroke:black; " description="&lt;b&gt;LLPMBPKK_04048&lt;/b&gt;&lt;br&gt;2-alkyl-3-oxoalkanoate reductase&lt;br&gt;Location: 4647446 - 4648376" locus_tag="LLPMBPKK_04048" class="clusterblast-orf" id="dummy-18_q32_0_all"  />
<polygon points="460,35 465,30 469,30 469,40 465,40 460,35 " style="fill:white; stroke-width:1; stroke:black; " description="&lt;b&gt;LLPMBPKK_04049&lt;/b&gt;&lt;br&gt;pyrroloquinoline quinone biosynthesis proteinPqqE&lt;br&gt;Location: 4648378 - 4649575" locus_tag="LLPMBPKK_04049" class="clusterblast-orf" id="dummy-18_q33_0_all"  />
<polygon points="469,35 471,30 471,40 469,35 " style="fill:white; stroke-width:1; stroke:black; " description="&lt;b&gt;LLPMBPKK_04050&lt;/b&gt;&lt;br&gt;pyrroloquinoline quinone biosynthesis peptidechaperone PqqD&lt;br&gt;Location: 4649571 - 4649877" locus_tag="LLPMBPKK_04050" class="clusterblast-orf" id="dummy-18_q34_0_all"  />
<polygon points="471,35 476,30 476,30 476,40 476,40 471,35 " style="fill:white; stroke-width:1; stroke:black; " description="&lt;b&gt;LLPMBPKK_04051&lt;/b&gt;&lt;br&gt;pyrroloquinoline quinone biosynthesis proteinPqqC&lt;br&gt;Location: 4649876 - 4650611" locus_tag="LLPMBPKK_04051" class="clusterblast-orf" id="dummy-18_q35_0_all"  />
<polygon points="476,35 481,30 482,30 482,40 481,40 476,35 " style="fill:white; stroke-width:1; stroke:black; " description="&lt;b&gt;LLPMBPKK_04052&lt;/b&gt;&lt;br&gt;pyrroloquinoline quinone biosynthesis proteinPqqB&lt;br&gt;Location: 4650607 - 4651522" locus_tag="LLPMBPKK_04052" class="clusterblast-orf" id="dummy-18_q36_0_all"  />
<polygon points="482,35 483,30 483,40 482,35 " style="fill:white; stroke-width:1; stroke:black; " description="&lt;b&gt;LLPMBPKK_04053&lt;/b&gt;&lt;br&gt;hypothetical protein&lt;br&gt;Location: 4651529 - 4651667" locus_tag="LLPMBPKK_04053" class="clusterblast-orf" id="dummy-18_q37_0_all"  />
<polygon points="484,35 489,30 492,30 492,40 489,40 484,35 " style="fill:white; stroke-width:1; stroke:black; " description="&lt;b&gt;LLPMBPKK_04054&lt;/b&gt;&lt;br&gt;oxidoreductase&lt;br&gt;Location: 4651746 - 4652868" locus_tag="LLPMBPKK_04054" class="clusterblast-orf" id="dummy-18_q38_0_all"  />
<polygon points="492,35 497,30 504,30 504,40 497,40 492,35 " style="fill:white; stroke-width:1; stroke:black; " description="&lt;b&gt;LLPMBPKK_04055&lt;/b&gt;&lt;br&gt;hypothetical protein&lt;br&gt;Location: 4652956 - 4654618" locus_tag="LLPMBPKK_04055" class="clusterblast-orf" id="dummy-18_q39_0_all"  />
<polygon points="504,40 504,40 509,35 504,30 504,30 504,40 " style="fill:white; stroke-width:1; stroke:black; " description="&lt;b&gt;LLPMBPKK_04056&lt;/b&gt;&lt;br&gt;CDP-alcohol phosphatidyltransferase familyprotein&lt;br&gt;Location: 4654650 - 4655355" locus_tag="LLPMBPKK_04056" class="clusterblast-orf" id="dummy-18_q40_0_all"  />
<polygon points="508,35 512,30 512,40 508,35 " style="fill:white; stroke-width:1; stroke:black; " description="&lt;b&gt;LLPMBPKK_04057&lt;/b&gt;&lt;br&gt;Bifunctional protein HldE&lt;br&gt;Location: 4655244 - 4655793" locus_tag="LLPMBPKK_04057" class="clusterblast-orf" id="dummy-18_q41_0_all"  />
<polygon points="512,35 517,30 523,30 523,40 517,40 512,35 " style="fill:white; stroke-width:1; stroke:black; " description="&lt;b&gt;LLPMBPKK_04058&lt;/b&gt;&lt;br&gt;LamG domain-containing protein&lt;br&gt;Location: 4655789 - 4657256" locus_tag="LLPMBPKK_04058" class="clusterblast-orf" id="dummy-18_q42_0_all"  />
<polygon points="524,35 529,30 535,30 535,40 529,40 524,35 " style="fill:white; stroke-width:1; stroke:black; " description="&lt;b&gt;LLPMBPKK_04059&lt;/b&gt;&lt;br&gt;Polysaccharide biosynthesis protein&lt;br&gt;Location: 4657434 - 4658967" locus_tag="LLPMBPKK_04059" class="clusterblast-orf" id="dummy-18_q43_0_all"  />
<polygon points="535,35 540,30 546,30 546,40 540,40 535,35 " style="fill:white; stroke-width:1; stroke:black; " description="&lt;b&gt;LLPMBPKK_04060&lt;/b&gt;&lt;br&gt;hypothetical protein&lt;br&gt;Location: 4658963 - 4660556" locus_tag="LLPMBPKK_04060" class="clusterblast-orf" id="dummy-18_q44_0_all"  />
</g>
<g label="NZ_CP054919" description="NZ_CP054919 (6259071-6370769): Kitasatospora sp. NA04385 chromosome, complete... (22% of genes show similarity), NRPS,NRPS-like,ladderane" class="clusterblast-cluster"  >
<text x="5" y="70" class="clusterblast-acc"  >
<a xlink:href="https://antismash-db.secondarymetabolites.org/area.html?record=NZ_CP054919&amp;start=6259071&amp;end=6370769" target="_blank">NZ_CP054919 (6259071-6370769)</a>: Kitasatospora sp. NA04385 chromosome, complete... (22% of genes show similarity), NRPS,NRPS-like,ladderane</text>
<line x1="10" y1="85" x2="778.0" y2="85" style="stroke-width:1; stroke:grey; "  />
</g>
<g id="a18_000"  >
<polygon points="0,85 5,80 5,80 5,90 5,90 0,85 " style="fill:white; stroke-width:1; stroke:black; " description="&lt;b&gt;HUT16_RS28220&lt;/b&gt;&lt;br&gt;HEAT repeat domain-containing protein&lt;br&gt;Location: 6370769 - 6369966" locus_tag="HUT16_RS28220" class="clusterblast-orf" id="dummy-18_h18_8_0"  />
</g>
<g id="a18_001"  >
<polygon points="6,90 8,90 13,85 8,80 6,80 6,90 " style="fill:white; stroke-width:1; stroke:black; " description="&lt;b&gt;HUT16_RS28215&lt;/b&gt;&lt;br&gt;alpha/beta fold hydrolase&lt;br&gt;Location: 6369858 - 6368809" locus_tag="HUT16_RS28215" class="clusterblast-orf" id="dummy-18_h18_8_1"  />
</g>
<g id="a18_002"  >
<polygon points="16,85 17,80 17,90 16,85 " style="fill:white; stroke-width:1; stroke:black; " description="&lt;b&gt;HUT16_RS28210&lt;/b&gt;&lt;br&gt;hypothetical protein&lt;br&gt;Location: 6368408 - 6368214" locus_tag="HUT16_RS28210" class="clusterblast-orf" id="dummy-18_h18_8_2"  />
</g>
<g id="a18_003"  >
<polygon points="19,85 24,80 30,80 30,90 24,90 19,85 " style="fill:white; stroke-width:1; stroke:black; " description="&lt;b&gt;HUT16_RS28205&lt;/b&gt;&lt;br&gt;MFS transporter&lt;br&gt;Location: 6368012 - 6366477" locus_tag="HUT16_RS28205" class="clusterblast-orf" id="dummy-18_h18_8_3"  />
</g>
<g id="a18_004"  >
<polygon points="32,90 34,90 39,85 34,80 32,80 32,90 " style="fill:white; stroke-width:1; stroke:black; " description="&lt;b&gt;HUT16_RS28200&lt;/b&gt;&lt;br&gt;Lrp/AsnC family transcriptional regulator&lt;br&gt;Location: 6366177 - 6365185" locus_tag="HUT16_RS28200" class="clusterblast-orf" id="dummy-18_h18_8_4"  />
</g>
<g id="a18_005"  >
<polygon points="40,90 46,90 51,85 46,80 40,80 40,90 " style="fill:white; stroke-width:1; stroke:black; " description="&lt;b&gt;HUT16_RS28195&lt;/b&gt;&lt;br&gt;Re/Si-specific NAD(P)(+) transhydrogenase subunit alpha&lt;br&gt;Location: 6365005 - 6363452" locus_tag="HUT16_RS28195" class="clusterblast-orf" id="dummy-18_h18_8_5"  />
</g>
<g id="a18_006"  >
<polygon points="51,90 56,90 61,85 56,80 51,80 51,90 " style="fill:white; stroke-width:1; stroke:black; " description="&lt;b&gt;HUT16_RS28190&lt;/b&gt;&lt;br&gt;Re/Si-specific NAD(P)(+) transhydrogenase subunit beta&lt;br&gt;Location: 6363445 - 6362015" locus_tag="HUT16_RS28190" class="clusterblast-orf" id="dummy-18_h18_8_6"  />
</g>
<g id="a18_007"  >
<polygon points="62,90 65,85 62,80 62,90 " style="fill:white; stroke-width:1; stroke:black; " description="&lt;b&gt;HUT16_RS28185&lt;/b&gt;&lt;br&gt;hypothetical protein&lt;br&gt;Location: 6361849 - 6361499" locus_tag="HUT16_RS28185" class="clusterblast-orf" id="dummy-18_h18_8_7"  />
</g>
<g id="a18_008"  >
<polygon points="66,85 67,80 67,90 66,85 " style="fill:white; stroke-width:1; stroke:black; " description="&lt;b&gt;HUT16_RS28180&lt;/b&gt;&lt;br&gt;DUF397 domain-containing protein&lt;br&gt;Location: 6361338 - 6361117" locus_tag="HUT16_RS28180" class="clusterblast-orf" id="dummy-18_h18_8_8"  />
</g>
<g id="a18_009"  >
<polygon points="69,85 70,80 70,90 69,85 " style="fill:white; stroke-width:1; stroke:black; " description="&lt;b&gt;HUT16_RS28175&lt;/b&gt;&lt;br&gt;DUF397 domain-containing protein&lt;br&gt;Location: 6360937 - 6360716" locus_tag="HUT16_RS28175" class="clusterblast-orf" id="dummy-18_h18_8_9"  />
</g>
<g id="a18_0010"  >
<polygon points="71,85 73,80 73,90 71,85 " style="fill:white; stroke-width:1; stroke:black; " description="&lt;b&gt;HUT16_RS28170&lt;/b&gt;&lt;br&gt;DUF397 domain-containing protein&lt;br&gt;Location: 6360536 - 6360315" locus_tag="HUT16_RS28170" class="clusterblast-orf" id="dummy-18_h18_8_10"  />
</g>
<g id="a18_0011"  >
<polygon points="73,85 78,80 79,80 79,90 78,90 73,85 " style="fill:white; stroke-width:1; stroke:black; " description="&lt;b&gt;HUT16_RS28165&lt;/b&gt;&lt;br&gt;helix-turn-helix transcriptional regulator&lt;br&gt;Location: 6360325 - 6359492" locus_tag="HUT16_RS28165" class="clusterblast-orf" id="dummy-18_h18_8_11"  />
</g>
<g id="a18_0012"  >
<polygon points="80,90 83,85 80,80 80,90 " style="fill:white; stroke-width:1; stroke:black; " description="&lt;b&gt;HUT16_RS28160&lt;/b&gt;&lt;br&gt;hypothetical protein&lt;br&gt;Location: 6359362 - 6358880" locus_tag="HUT16_RS28160" class="clusterblast-orf" id="dummy-18_h18_8_12"  />
</g>
<g id="a18_0013"  >
<polygon points="83,90 86,85 83,80 83,90 " style="fill:white; stroke-width:1; stroke:black; " description="&lt;b&gt;HUT16_RS28155&lt;/b&gt;&lt;br&gt;hypothetical protein&lt;br&gt;Location: 6358816 - 6358448" locus_tag="HUT16_RS28155" class="clusterblast-orf" id="dummy-18_h18_8_13"  />
</g>
<g id="a18_0014"  >
<polygon points="86,90 88,85 86,80 86,90 " style="fill:white; stroke-width:1; stroke:black; " description="&lt;b&gt;HUT16_RS28150&lt;/b&gt;&lt;br&gt;hypothetical protein&lt;br&gt;Location: 6358451 - 6358170" locus_tag="HUT16_RS28150" class="clusterblast-orf" id="dummy-18_h18_8_14"  />
</g>
<g id="a18_0015"  >
<polygon points="89,85 94,80 95,80 95,90 94,90 89,85 " style="fill:white; stroke-width:1; stroke:black; " description="&lt;b&gt;HUT16_RS28145&lt;/b&gt;&lt;br&gt;LysR family transcriptional regulator&lt;br&gt;Location: 6358075 - 6357212" locus_tag="HUT16_RS28145" class="clusterblast-orf" id="dummy-18_h18_8_15"  />
</g>
<g id="a18_0016"  >
<polygon points="95,90 96,90 101,85 96,80 95,80 95,90 " style="fill:white; stroke-width:1; stroke:black; " description="&lt;b&gt;HUT16_RS28140&lt;/b&gt;&lt;br&gt;SDR family oxidoreductase&lt;br&gt;Location: 6357118 - 6356381" locus_tag="HUT16_RS28140" class="clusterblast-orf" id="dummy-18_h18_8_16"  />
</g>
<g id="a18_0017"  >
<polygon points="102,90 104,85 102,80 102,90 " style="fill:white; stroke-width:1; stroke:black; " description="&lt;b&gt;HUT16_RS28135&lt;/b&gt;&lt;br&gt;DUF1330 domain-containing protein&lt;br&gt;Location: 6356197 - 6355871" locus_tag="HUT16_RS28135" class="clusterblast-orf" id="dummy-18_h18_8_17"  />
</g>
<g id="a18_0018"  >
<polygon points="105,90 110,90 115,85 110,80 105,80 105,90 " style="fill:white; stroke-width:1; stroke:black; " description="&lt;b&gt;HUT16_RS28130&lt;/b&gt;&lt;br&gt;sensor histidine kinase&lt;br&gt;Location: 6355677 - 6354313" locus_tag="HUT16_RS28130" class="clusterblast-orf" id="dummy-18_h18_8_18"  />
</g>
<g id="a18_0019"  >
<polygon points="115,90 115,90 120,85 115,80 115,80 115,90 " style="fill:white; stroke-width:1; stroke:black; " description="&lt;b&gt;HUT16_RS28125&lt;/b&gt;&lt;br&gt;response regulator transcription factor&lt;br&gt;Location: 6354328 - 6353660" locus_tag="HUT16_RS28125" class="clusterblast-orf" id="dummy-18_h18_8_19"  />
</g>
<g id="a18_0020"  >
<polygon points="121,90 123,85 121,80 121,90 " style="fill:white; stroke-width:1; stroke:black; " description="&lt;b&gt;HUT16_RS28120&lt;/b&gt;&lt;br&gt;hypothetical protein&lt;br&gt;Location: 6353447 - 6353166" locus_tag="HUT16_RS28120" class="clusterblast-orf" id="dummy-18_h18_8_20"  />
</g>
<g id="a18_0021"  >
<polygon points="123,85 128,80 129,80 129,90 128,90 123,85 " style="fill:#a9d815; stroke-width:1; stroke:black; " description="&lt;b&gt;HUT16_RS28115&lt;/b&gt;&lt;br&gt;LuxR family transcriptional regulator&lt;br&gt;Location: 6353148 - 6352375&lt;br&gt;&lt;br&gt;&lt;b&gt;BlastP hit with LLPMBPKK_04042&lt;/b&gt;&lt;br&gt;Percentage identity: 34&lt;br&gt;Percentage coverage: 52&lt;br&gt;BLAST bit score: 58&lt;br&gt;E-value: 7.9e-08" locus_tag="HUT16_RS28115" class="clusterblast-orf" id="dummy-18_h18_8_21"  />
</g>
<g id="a18_0022"  >
<polygon points="129,85 134,80 135,80 135,90 134,90 129,85 " style="fill:#a9d815; stroke-width:1; stroke:black; " description="&lt;b&gt;HUT16_RS28110&lt;/b&gt;&lt;br&gt;helix-turn-helix transcriptional regulator&lt;br&gt;Location: 6352279 - 6351488&lt;br&gt;&lt;br&gt;&lt;b&gt;BlastP hit with LLPMBPKK_04042&lt;/b&gt;&lt;br&gt;Percentage identity: 41&lt;br&gt;Percentage coverage: 44&lt;br&gt;BLAST bit score: 78&lt;br&gt;E-value: 7.25e-15" locus_tag="HUT16_RS28110" class="clusterblast-orf" id="dummy-18_h18_8_22"  />
</g>
<g id="a18_0023"  >
<polygon points="139,90 154,90 159,85 154,80 139,80 139,90 " style="fill:white; stroke-width:1; stroke:black; " description="&lt;b&gt;HUT16_RS28105&lt;/b&gt;&lt;br&gt;non-ribosomal peptide synthetase&lt;br&gt;Location: 6350960 - 6348111" locus_tag="HUT16_RS28105" class="clusterblast-orf" id="dummy-18_h18_8_23"  />
</g>
<g id="a18_0024"  >
<polygon points="159,90 161,90 166,85 161,80 159,80 159,90 " style="fill:white; stroke-width:1; stroke:black; " description="&lt;b&gt;HUT16_RS28100&lt;/b&gt;&lt;br&gt;NAD(P)-dependent oxidoreductase&lt;br&gt;Location: 6348114 - 6347119" locus_tag="HUT16_RS28100" class="clusterblast-orf" id="dummy-18_h18_8_24"  />
</g>
<g id="a18_0025"  >
<polygon points="166,90 169,85 166,80 166,90 " style="fill:white; stroke-width:1; stroke:black; " description="&lt;b&gt;HUT16_RS28095&lt;/b&gt;&lt;br&gt;nuclear transport factor 2 family protein&lt;br&gt;Location: 6347105 - 6346677" locus_tag="HUT16_RS28095" class="clusterblast-orf" id="dummy-18_h18_8_25"  />
</g>
<g id="a18_0026"  >
<polygon points="169,90 170,85 169,80 169,90 " style="fill:white; stroke-width:1; stroke:black; " description="&lt;b&gt;HUT16_RS28090&lt;/b&gt;&lt;br&gt;hypothetical protein&lt;br&gt;Location: 6346587 - 6346438" locus_tag="HUT16_RS28090" class="clusterblast-orf" id="dummy-18_h18_8_26"  />
</g>
<g id="a18_0027"  >
<polygon points="171,85 176,80 184,80 184,90 176,90 171,85 " style="fill:white; stroke-width:1; stroke:black; " description="&lt;b&gt;HUT16_RS28085&lt;/b&gt;&lt;br&gt;AfsR family transcriptional regulator&lt;br&gt;Location: 6346402 - 6344537" locus_tag="HUT16_RS28085" class="clusterblast-orf" id="dummy-18_h18_8_27"  />
</g>
<g id="a18_0028"  >
<polygon points="185,85 186,80 186,90 185,85 " style="fill:white; stroke-width:1; stroke:black; " description="&lt;b&gt;HUT16_RS28080&lt;/b&gt;&lt;br&gt;acyl-CoA carboxylase subunit epsilon&lt;br&gt;Location: 6344381 - 6344148" locus_tag="HUT16_RS28080" class="clusterblast-orf" id="dummy-18_h18_8_28"  />
</g>
<g id="a18_0029"  >
<polygon points="186,85 191,80 197,80 197,90 191,90 186,85 " style="fill:white; stroke-width:1; stroke:black; " description="&lt;b&gt;HUT16_RS28075&lt;/b&gt;&lt;br&gt;acyl-CoA carboxylase subunit beta&lt;br&gt;Location: 6344151 - 6342610" locus_tag="HUT16_RS28075" class="clusterblast-orf" id="dummy-18_h18_8_29"  />
</g>
<g id="a18_0030"  >
<polygon points="199,90 210,90 215,85 210,80 199,80 199,90 " style="fill:white; stroke-width:1; stroke:black; " description="&lt;b&gt;HUT16_RS28070&lt;/b&gt;&lt;br&gt;MMPL family transporter&lt;br&gt;Location: 6342291 - 6340138" locus_tag="HUT16_RS28070" class="clusterblast-orf" id="dummy-18_h18_8_30"  />
</g>
<g id="a18_0031"  >
<polygon points="215,85 220,80 223,80 223,90 220,90 215,85 " style="fill:white; stroke-width:1; stroke:black; " description="&lt;b&gt;HUT16_RS28065&lt;/b&gt;&lt;br&gt;polyprenyl synthetase family protein&lt;br&gt;Location: 6340037 - 6338994" locus_tag="HUT16_RS28065" class="clusterblast-orf" id="dummy-18_h18_8_31"  />
</g>
<g id="a18_0032"  >
<polygon points="224,85 226,80 226,90 224,85 " style="fill:white; stroke-width:1; stroke:black; " description="&lt;b&gt;HUT16_RS28060&lt;/b&gt;&lt;br&gt;MbtH family protein&lt;br&gt;Location: 6338793 - 6338581" locus_tag="HUT16_RS28060" class="clusterblast-orf" id="dummy-18_h18_8_32"  />
</g>
<g id="a18_0033"  >
<polygon points="226,85 230,80 230,90 226,85 " style="fill:#d88e15; stroke-width:1; stroke:black; " description="&lt;b&gt;HUT16_RS28055&lt;/b&gt;&lt;br&gt;DsbA family protein&lt;br&gt;Location: 6338518 - 6337877&lt;br&gt;&lt;br&gt;&lt;b&gt;BlastP hit with LLPMBPKK_04028&lt;/b&gt;&lt;br&gt;Percentage identity: 50&lt;br&gt;Percentage coverage: 88&lt;br&gt;BLAST bit score: 219&lt;br&gt;E-value: 2.06e-70" locus_tag="HUT16_RS28055" class="clusterblast-orf" id="dummy-18_h18_8_33"  />
</g>
<g id="a18_0034"  >
<polygon points="231,85 236,80 236,80 236,90 236,90 231,85 " style="fill:white; stroke-width:1; stroke:black; " description="&lt;b&gt;HUT16_RS28050&lt;/b&gt;&lt;br&gt;helix-turn-helix domain-containing protein&lt;br&gt;Location: 6337741 - 6337031" locus_tag="HUT16_RS28050" class="clusterblast-orf" id="dummy-18_h18_8_34"  />
</g>
<g id="a18_0035"  >
<polygon points="237,85 242,80 242,80 242,90 242,90 237,85 " style="fill:white; stroke-width:1; stroke:black; " description="&lt;b&gt;HUT16_RS28045&lt;/b&gt;&lt;br&gt;thioesterase&lt;br&gt;Location: 6336957 - 6336208" locus_tag="HUT16_RS28045" class="clusterblast-orf" id="dummy-18_h18_8_35"  />
</g>
<g id="a18_0036"  >
<polygon points="244,85 249,80 250,80 250,90 249,90 244,85 " style="fill:#a9d815; stroke-width:1; stroke:black; " description="&lt;b&gt;HUT16_RS28040&lt;/b&gt;&lt;br&gt;LuxR family transcriptional regulator&lt;br&gt;Location: 6335954 - 6335136&lt;br&gt;&lt;br&gt;&lt;b&gt;BlastP hit with LLPMBPKK_04042&lt;/b&gt;&lt;br&gt;Percentage identity: 40&lt;br&gt;Percentage coverage: 37&lt;br&gt;BLAST bit score: 63&lt;br&gt;E-value: 1.23e-09" locus_tag="HUT16_RS28040" class="clusterblast-orf" id="dummy-18_h18_8_36"  />
</g>
<g id="a18_0037"  >
<polygon points="259,90 262,85 259,80 259,90 " style="fill:white; stroke-width:1; stroke:black; " description="&lt;b&gt;HUT16_RS28035&lt;/b&gt;&lt;br&gt;YbaK/prolyl-tRNA synthetase associated domain-containing protein&lt;br&gt;Location: 6333852 - 6333373" locus_tag="HUT16_RS28035" class="clusterblast-orf" id="dummy-18_h18_8_37"  />
</g>
<g id="a18_0038"  >
<polygon points="263,85 268,80 271,80 271,90 268,90 263,85 " style="fill:white; stroke-width:1; stroke:black; " description="&lt;b&gt;HUT16_RS28030&lt;/b&gt;&lt;br&gt;glycosyl transferase&lt;br&gt;Location: 6333257 - 6332067" locus_tag="HUT16_RS28030" class="clusterblast-orf" id="dummy-18_h18_8_38"  />
</g>
<g id="a18_0039"  >
<polygon points="272,85 277,80 280,80 280,90 277,90 272,85 " style="fill:white; stroke-width:1; stroke:black; " description="&lt;b&gt;HUT16_RS28025&lt;/b&gt;&lt;br&gt;cytochrome P450&lt;br&gt;Location: 6332026 - 6330806" locus_tag="HUT16_RS28025" class="clusterblast-orf" id="dummy-18_h18_8_39"  />
</g>
<g id="a18_0040"  >
<polygon points="281,85 286,80 286,80 286,90 286,90 281,85 " style="fill:white; stroke-width:1; stroke:black; " description="&lt;b&gt;HUT16_RS28020&lt;/b&gt;&lt;br&gt;ABC transporter permease&lt;br&gt;Location: 6330725 - 6329937" locus_tag="HUT16_RS28020" class="clusterblast-orf" id="dummy-18_h18_8_40"  />
</g>
<g id="a18_0041"  >
<polygon points="286,85 291,80 294,80 294,90 291,90 286,85 " style="fill:white; stroke-width:1; stroke:black; " description="&lt;b&gt;HUT16_RS28015&lt;/b&gt;&lt;br&gt;ATP-binding cassette domain-containing protein&lt;br&gt;Location: 6329940 - 6328810" locus_tag="HUT16_RS28015" class="clusterblast-orf" id="dummy-18_h18_8_41"  />
</g>
<g id="a18_0042"  >
<polygon points="294,85 299,80 301,80 301,90 299,90 294,85 " style="fill:white; stroke-width:1; stroke:black; " description="&lt;b&gt;HUT16_RS28010&lt;/b&gt;&lt;br&gt;hypothetical protein&lt;br&gt;Location: 6328820 - 6327822" locus_tag="HUT16_RS28010" class="clusterblast-orf" id="dummy-18_h18_8_42"  />
</g>
<g id="a18_0043"  >
<polygon points="301,85 306,80 307,80 307,90 306,90 301,85 " style="fill:white; stroke-width:1; stroke:black; " description="&lt;b&gt;HUT16_RS28005&lt;/b&gt;&lt;br&gt;alpha/beta fold hydrolase&lt;br&gt;Location: 6327820 - 6326942" locus_tag="HUT16_RS28005" class="clusterblast-orf" id="dummy-18_h18_8_43"  />
</g>
<g id="a18_0044"  >
<polygon points="309,85 314,80 320,80 320,90 314,90 309,85 " style="fill:white; stroke-width:1; stroke:black; " description="&lt;b&gt;HUT16_RS28000&lt;/b&gt;&lt;br&gt;amino acid adenylation domain-containing protein&lt;br&gt;Location: 6326728 - 6325127" locus_tag="HUT16_RS28000" class="clusterblast-orf" id="dummy-18_h18_8_44"  />
</g>
<g id="a18_0045"  >
<polygon points="329,85 334,80 339,80 339,90 334,90 329,85 " style="fill:white; stroke-width:1; stroke:black; " description="&lt;b&gt;HUT16_RS27995&lt;/b&gt;&lt;br&gt;non-ribosomal peptide synthetase&lt;br&gt;Location: 6323887 - 6322493" locus_tag="HUT16_RS27995" class="clusterblast-orf" id="dummy-18_h18_8_45"  />
</g>
<g id="a18_0046"  >
<polygon points="339,85 342,80 342,90 339,85 " style="fill:white; stroke-width:1; stroke:black; " description="&lt;b&gt;HUT16_RS27990&lt;/b&gt;&lt;br&gt;hypothetical protein&lt;br&gt;Location: 6322366 - 6322049" locus_tag="HUT16_RS27990" class="clusterblast-orf" id="dummy-18_h18_8_46"  />
</g>
<g id="a18_0047"  >
<polygon points="352,85 357,80 362,80 362,90 357,90 352,85 " style="fill:white; stroke-width:1; stroke:black; " description="&lt;b&gt;HUT16_RS27985&lt;/b&gt;&lt;br&gt;non-ribosomal peptide synthetase&lt;br&gt;Location: 6320605 - 6319121" locus_tag="HUT16_RS27985" class="clusterblast-orf" id="dummy-18_h18_8_47"  />
</g>
<g id="a18_0048"  >
<polygon points="363,85 368,80 375,80 375,90 368,90 363,85 " style="fill:white; stroke-width:1; stroke:black; " description="&lt;b&gt;HUT16_RS27980&lt;/b&gt;&lt;br&gt;amino acid adenylation domain-containing protein&lt;br&gt;Location: 6318949 - 6317321" locus_tag="HUT16_RS27980" class="clusterblast-orf" id="dummy-18_h18_8_48"  />
</g>
<g id="a18_0049"  >
<polygon points="384,85 386,80 386,90 384,85 " style="fill:white; stroke-width:1; stroke:black; " description="&lt;b&gt;HUT16_RS27975&lt;/b&gt;&lt;br&gt;hypothetical protein&lt;br&gt;Location: 6316024 - 6315698" locus_tag="HUT16_RS27975" class="clusterblast-orf" id="dummy-18_h18_8_49"  />
</g>
<g id="a18_0050"  >
<polygon points="396,85 401,80 407,80 407,90 401,90 396,85 " style="fill:white; stroke-width:1; stroke:black; " description="&lt;b&gt;HUT16_RS27970&lt;/b&gt;&lt;br&gt;non-ribosomal peptide synthetase&lt;br&gt;Location: 6314257 - 6312749" locus_tag="HUT16_RS27970" class="clusterblast-orf" id="dummy-18_h18_8_50"  />
</g>
<g id="a18_0051"  >
<polygon points="406,85 411,80 428,80 428,90 411,90 406,85 " style="fill:white; stroke-width:1; stroke:black; " description="&lt;b&gt;HUT16_RS27965&lt;/b&gt;&lt;br&gt;amino acid adenylation domain-containing protein&lt;br&gt;Location: 6312861 - 6309739" locus_tag="HUT16_RS27965" class="clusterblast-orf" id="dummy-18_h18_8_51"  />
</g>
<g id="a18_0052"  >
<polygon points="428,85 433,80 547,80 547,90 433,90 428,85 " style="fill:white; stroke-width:1; stroke:black; " description="&lt;b&gt;HUT16_RS27960&lt;/b&gt;&lt;br&gt;amino acid adenylation domain-containing protein&lt;br&gt;Location: 6309742 - 6292757" locus_tag="HUT16_RS27960" class="clusterblast-orf" id="dummy-18_h18_8_52"  />
</g>
<g id="a18_0053"  >
<polygon points="550,85 553,80 553,90 550,85 " style="fill:white; stroke-width:1; stroke:black; " description="&lt;b&gt;HUT16_RS27955&lt;/b&gt;&lt;br&gt;hypothetical protein&lt;br&gt;Location: 6292432 - 6291914" locus_tag="HUT16_RS27955" class="clusterblast-orf" id="dummy-18_h18_8_53"  />
</g>
<g id="a18_0054"  >
<polygon points="555,90 557,85 555,80 555,90 " style="fill:#d8158e; stroke-width:1; stroke:black; " description="&lt;b&gt;HUT16_RS27950&lt;/b&gt;&lt;br&gt;DsrE family protein&lt;br&gt;Location: 6291700 - 6291362&lt;br&gt;&lt;br&gt;&lt;b&gt;BlastP hit with LLPMBPKK_04035&lt;/b&gt;&lt;br&gt;Percentage identity: 41&lt;br&gt;Percentage coverage: 97&lt;br&gt;BLAST bit score: 69&lt;br&gt;E-value: 1.19e-14" locus_tag="HUT16_RS27950" class="clusterblast-orf" id="dummy-18_h18_8_54"  />
</g>
<g id="a18_0055"  >
<polygon points="557,90 560,85 557,80 557,90 " style="fill:#1523d8; stroke-width:1; stroke:black; " description="&lt;b&gt;HUT16_RS27945&lt;/b&gt;&lt;br&gt;hypothetical protein&lt;br&gt;Location: 6291362 - 6290955&lt;br&gt;&lt;br&gt;&lt;b&gt;BlastP hit with LLPMBPKK_04034&lt;/b&gt;&lt;br&gt;Percentage identity: 51&lt;br&gt;Percentage coverage: 96&lt;br&gt;BLAST bit score: 132&lt;br&gt;E-value: 9.26e-39" locus_tag="HUT16_RS27945" class="clusterblast-orf" id="dummy-18_h18_8_55"  />
</g>
<g id="a18_0056"  >
<polygon points="560,90 563,85 560,80 560,90 " style="fill:#15d873; stroke-width:1; stroke:black; " description="&lt;b&gt;HUT16_RS27940&lt;/b&gt;&lt;br&gt;hypothetical protein&lt;br&gt;Location: 6290953 - 6290558&lt;br&gt;&lt;br&gt;&lt;b&gt;BlastP hit with LLPMBPKK_04033&lt;/b&gt;&lt;br&gt;Percentage identity: 45&lt;br&gt;Percentage coverage: 100&lt;br&gt;BLAST bit score: 96&lt;br&gt;E-value: 1.24e-24" locus_tag="HUT16_RS27940" class="clusterblast-orf" id="dummy-18_h18_8_56"  />
</g>
<g id="a18_0057"  >
<polygon points="563,85 568,80 578,80 578,90 568,90 563,85 " style="fill:white; stroke-width:1; stroke:black; " description="&lt;b&gt;HUT16_RS27935&lt;/b&gt;&lt;br&gt;AarF/ABC1/UbiB kinase family protein&lt;br&gt;Location: 6290478 - 6288418" locus_tag="HUT16_RS27935" class="clusterblast-orf" id="dummy-18_h18_8_57"  />
</g>
<g id="a18_0058"  >
<polygon points="579,85 584,80 584,80 584,90 584,90 579,85 " style="fill:#d88e15; stroke-width:1; stroke:black; " description="&lt;b&gt;HUT16_RS27930&lt;/b&gt;&lt;br&gt;DsbA family protein&lt;br&gt;Location: 6288181 - 6287555&lt;br&gt;&lt;br&gt;&lt;b&gt;BlastP hit with LLPMBPKK_04028&lt;/b&gt;&lt;br&gt;Percentage identity: 51&lt;br&gt;Percentage coverage: 84&lt;br&gt;BLAST bit score: 215&lt;br&gt;E-value: 5.74e-69" locus_tag="HUT16_RS27930" class="clusterblast-orf" id="dummy-18_h18_8_58"  />
</g>
<g id="a18_0059"  >
<polygon points="584,85 589,80 589,80 589,90 589,90 584,85 " style="fill:#15d84b; stroke-width:1; stroke:black; " description="&lt;b&gt;HUT16_RS27925&lt;/b&gt;&lt;br&gt;3-oxoacyl-[acyl-carrier-protein] reductase&lt;br&gt;Location: 6287537 - 6286791&lt;br&gt;&lt;br&gt;&lt;b&gt;BlastP hit with LLPMBPKK_04029&lt;/b&gt;&lt;br&gt;Percentage identity: 62&lt;br&gt;Percentage coverage: 101&lt;br&gt;BLAST bit score: 292&lt;br&gt;E-value: 1.61e-98" locus_tag="HUT16_RS27925" class="clusterblast-orf" id="dummy-18_h18_8_59"  />
</g>
<g id="a18_0060"  >
<polygon points="589,85 593,80 593,90 589,85 " style="fill:#154bd8; stroke-width:1; stroke:black; " description="&lt;b&gt;HUT16_RS27920&lt;/b&gt;&lt;br&gt;beta-hydroxyacyl-ACP dehydratase&lt;br&gt;Location: 6286798 - 6286283&lt;br&gt;&lt;br&gt;&lt;b&gt;BlastP hit with LLPMBPKK_04030&lt;/b&gt;&lt;br&gt;Percentage identity: 47&lt;br&gt;Percentage coverage: 49&lt;br&gt;BLAST bit score: 137&lt;br&gt;E-value: 5.73e-38" locus_tag="HUT16_RS27920" class="clusterblast-orf" id="dummy-18_h18_8_60"  />
</g>
<g id="a18_0061"  >
<polygon points="593,85 596,80 596,90 593,85 " style="fill:#154bd8; stroke-width:1; stroke:black; " description="&lt;b&gt;HUT16_RS27915&lt;/b&gt;&lt;br&gt;hypothetical protein&lt;br&gt;Location: 6286283 - 6285843&lt;br&gt;&lt;br&gt;&lt;b&gt;BlastP hit with LLPMBPKK_04030&lt;/b&gt;&lt;br&gt;Percentage identity: 47&lt;br&gt;Percentage coverage: 31&lt;br&gt;BLAST bit score: 102&lt;br&gt;E-value: 1.44e-24" locus_tag="HUT16_RS27915" class="clusterblast-orf" id="dummy-18_h18_8_61"  />
</g>
<g id="a18_0062"  >
<polygon points="596,85 598,80 598,90 596,85 " style="fill:#d815b7; stroke-width:1; stroke:black; " description="&lt;b&gt;HUT16_RS27910&lt;/b&gt;&lt;br&gt;acyl carrier protein&lt;br&gt;Location: 6285846 - 6285568&lt;br&gt;&lt;br&gt;&lt;b&gt;BlastP hit with LLPMBPKK_04031&lt;/b&gt;&lt;br&gt;Percentage identity: 53&lt;br&gt;Percentage coverage: 91&lt;br&gt;BLAST bit score: 76&lt;br&gt;E-value: 8.61e-18" locus_tag="HUT16_RS27910" class="clusterblast-orf" id="dummy-18_h18_8_62"  />
</g>
<g id="a18_0063"  >
<polygon points="598,85 603,80 606,80 606,90 603,90 598,85 " style="fill:#d8b715; stroke-width:1; stroke:black; " description="&lt;b&gt;HUT16_RS27905&lt;/b&gt;&lt;br&gt;3-oxoacyl-ACP synthase&lt;br&gt;Location: 6285512 - 6284403&lt;br&gt;&lt;br&gt;&lt;b&gt;BlastP hit with LLPMBPKK_04032&lt;/b&gt;&lt;br&gt;Percentage identity: 54&lt;br&gt;Percentage coverage: 98&lt;br&gt;BLAST bit score: 323&lt;br&gt;E-value: 7.31e-107" locus_tag="HUT16_RS27905" class="clusterblast-orf" id="dummy-18_h18_8_63"  />
</g>
<g id="a18_0064"  >
<polygon points="606,85 611,80 614,80 614,90 611,90 606,85 " style="fill:#d2d815; stroke-width:1; stroke:black; " description="&lt;b&gt;HUT16_RS27900&lt;/b&gt;&lt;br&gt;hypothetical protein&lt;br&gt;Location: 6284352 - 6283333&lt;br&gt;&lt;br&gt;&lt;b&gt;BlastP hit with LLPMBPKK_04036&lt;/b&gt;&lt;br&gt;Percentage identity: 60&lt;br&gt;Percentage coverage: 99&lt;br&gt;BLAST bit score: 399&lt;br&gt;E-value: 8.24e-138" locus_tag="HUT16_RS27900" class="clusterblast-orf" id="dummy-18_h18_8_64"  />
</g>
<g id="a18_0065"  >
<polygon points="614,85 619,80 620,80 620,90 619,90 614,85 " style="fill:#15d89c; stroke-width:1; stroke:black; " description="&lt;b&gt;HUT16_RS27895&lt;/b&gt;&lt;br&gt;alpha/beta hydrolase&lt;br&gt;Location: 6283289 - 6282417&lt;br&gt;&lt;br&gt;&lt;b&gt;BlastP hit with LLPMBPKK_04037&lt;/b&gt;&lt;br&gt;Percentage identity: 39&lt;br&gt;Percentage coverage: 97&lt;br&gt;BLAST bit score: 188&lt;br&gt;E-value: 9.6e-57" locus_tag="HUT16_RS27895" class="clusterblast-orf" id="dummy-18_h18_8_65"  />
</g>
<g id="a18_0066"  >
<polygon points="620,85 625,80 627,80 627,90 625,90 620,85 " style="fill:#d8b715; stroke-width:1; stroke:black; " description="&lt;b&gt;HUT16_RS27890&lt;/b&gt;&lt;br&gt;3-oxoacyl-ACP synthase&lt;br&gt;Location: 6282387 - 6281446&lt;br&gt;&lt;br&gt;&lt;b&gt;BlastP hit with LLPMBPKK_04038&lt;/b&gt;&lt;br&gt;Percentage identity: 52&lt;br&gt;Percentage coverage: 98&lt;br&gt;BLAST bit score: 239&lt;br&gt;E-value: 2.08e-75" locus_tag="HUT16_RS27890" class="clusterblast-orf" id="dummy-18_h18_8_66"  />
</g>
<g id="a18_0067"  >
<polygon points="627,85 632,80 635,80 635,90 632,90 627,85 " style="fill:#3015d8; stroke-width:1; stroke:black; " description="&lt;b&gt;HUT16_RS27885&lt;/b&gt;&lt;br&gt;3-oxoacyl-ACP synthase&lt;br&gt;Location: 6281449 - 6280310&lt;br&gt;&lt;br&gt;&lt;b&gt;BlastP hit with LLPMBPKK_04039&lt;/b&gt;&lt;br&gt;Percentage identity: 61&lt;br&gt;Percentage coverage: 97&lt;br&gt;BLAST bit score: 413&lt;br&gt;E-value: 9.39e-142&lt;br&gt;&lt;br&gt;&lt;b&gt;BlastP hit with LLPMBPKK_04040&lt;/b&gt;&lt;br&gt;Percentage identity: 36&lt;br&gt;Percentage coverage: 97&lt;br&gt;BLAST bit score: 202&lt;br&gt;E-value: 4.54e-59" locus_tag="HUT16_RS27885" class="clusterblast-orf" id="dummy-18_h18_8_67"  />
</g>
<g id="a18_0068"  >
<polygon points="635,85 640,80 643,80 643,90 640,90 635,85 " style="fill:#3015d8; stroke-width:1; stroke:black; " description="&lt;b&gt;HUT16_RS27880&lt;/b&gt;&lt;br&gt;beta-ketoacyl-[acyl-carrier-protein] synthase family protein&lt;br&gt;Location: 6280313 - 6279072&lt;br&gt;&lt;br&gt;&lt;b&gt;BlastP hit with LLPMBPKK_04039&lt;/b&gt;&lt;br&gt;Percentage identity: 33&lt;br&gt;Percentage coverage: 105&lt;br&gt;BLAST bit score: 176&lt;br&gt;E-value: 3.01e-49&lt;br&gt;&lt;br&gt;&lt;b&gt;BlastP hit with LLPMBPKK_04040&lt;/b&gt;&lt;br&gt;Percentage identity: 70&lt;br&gt;Percentage coverage: 98&lt;br&gt;BLAST bit score: 555&lt;br&gt;E-value: 6.02e-197" locus_tag="HUT16_RS27880" class="clusterblast-orf" id="dummy-18_h18_8_68"  />
</g>
<g id="a18_0069"  >
<polygon points="644,85 646,80 646,90 644,85 " style="fill:#d81566; stroke-width:1; stroke:black; " description="&lt;b&gt;HUT16_RS27875&lt;/b&gt;&lt;br&gt;acyl carrier protein&lt;br&gt;Location: 6279019 - 6278771&lt;br&gt;&lt;br&gt;&lt;b&gt;BlastP hit with LLPMBPKK_04041&lt;/b&gt;&lt;br&gt;Percentage identity: 66&lt;br&gt;Percentage coverage: 99&lt;br&gt;BLAST bit score: 102&lt;br&gt;E-value: 1.25e-28" locus_tag="HUT16_RS27875" class="clusterblast-orf" id="dummy-18_h18_8_69"  />
</g>
<g id="a18_0070"  >
<polygon points="647,85 652,80 652,80 652,90 652,90 647,85 " style="fill:white; stroke-width:1; stroke:black; " description="&lt;b&gt;HUT16_RS27870&lt;/b&gt;&lt;br&gt;response regulator transcription factor&lt;br&gt;Location: 6278565 - 6277894" locus_tag="HUT16_RS27870" class="clusterblast-orf" id="dummy-18_h18_8_70"  />
</g>
<g id="a18_0071"  >
<polygon points="652,85 657,80 661,80 661,90 657,90 652,85 " style="fill:white; stroke-width:1; stroke:black; " description="&lt;b&gt;HUT16_RS27865&lt;/b&gt;&lt;br&gt;sensor histidine kinase&lt;br&gt;Location: 6277823 - 6276588" locus_tag="HUT16_RS27865" class="clusterblast-orf" id="dummy-18_h18_8_71"  />
</g>
<g id="a18_0072"  >
<polygon points="661,85 666,80 677,80 677,90 666,90 661,85 " style="fill:white; stroke-width:1; stroke:black; " description="&lt;b&gt;HUT16_RS27860&lt;/b&gt;&lt;br&gt;MMPL family transporter&lt;br&gt;Location: 6276520 - 6274304" locus_tag="HUT16_RS27860" class="clusterblast-orf" id="dummy-18_h18_8_72"  />
</g>
<g id="a18_0073"  >
<polygon points="680,90 682,90 687,85 682,80 680,80 680,90 " style="fill:white; stroke-width:1; stroke:black; " description="&lt;b&gt;HUT16_RS27855&lt;/b&gt;&lt;br&gt;hypothetical protein&lt;br&gt;Location: 6273808 - 6272810" locus_tag="HUT16_RS27855" class="clusterblast-orf" id="dummy-18_h18_8_73"  />
</g>
<g id="a18_0074"  >
<polygon points="689,90 692,90 697,85 692,80 689,80 689,90 " style="fill:white; stroke-width:1; stroke:black; " description="&lt;b&gt;HUT16_RS27850&lt;/b&gt;&lt;br&gt;endo-1,4-beta-xylanase&lt;br&gt;Location: 6272532 - 6271381" locus_tag="HUT16_RS27850" class="clusterblast-orf" id="dummy-18_h18_8_74"  />
</g>
<g id="a18_0075"  >
<polygon points="698,85 703,80 715,80 715,90 703,90 698,85 " style="fill:white; stroke-width:1; stroke:black; " description="&lt;b&gt;HUT16_RS27845&lt;/b&gt;&lt;br&gt;glycoside hydrolase family 3 C-terminal domain-containing protein&lt;br&gt;Location: 6271242 - 6268816" locus_tag="HUT16_RS27845" class="clusterblast-orf" id="dummy-18_h18_8_75"  />
</g>
<g id="a18_0076"  >
<polygon points="716,85 721,80 721,80 721,90 721,90 716,85 " style="fill:white; stroke-width:1; stroke:black; " description="&lt;b&gt;HUT16_RS27840&lt;/b&gt;&lt;br&gt;carbohydrate ABC transporter permease&lt;br&gt;Location: 6268807 - 6267989" locus_tag="HUT16_RS27840" class="clusterblast-orf" id="dummy-18_h18_8_76"  />
</g>
<g id="a18_0077"  >
<polygon points="721,85 726,80 727,80 727,90 726,90 721,85 " style="fill:white; stroke-width:1; stroke:black; " description="&lt;b&gt;HUT16_RS27835&lt;/b&gt;&lt;br&gt;sugar ABC transporter permease&lt;br&gt;Location: 6267989 - 6267123" locus_tag="HUT16_RS27835" class="clusterblast-orf" id="dummy-18_h18_8_77"  />
</g>
<g id="a18_0078"  >
<polygon points="728,85 733,80 737,80 737,90 733,90 728,85 " style="fill:white; stroke-width:1; stroke:black; " description="&lt;b&gt;HUT16_RS27830&lt;/b&gt;&lt;br&gt;extracellular solute-binding protein&lt;br&gt;Location: 6267036 - 6265747" locus_tag="HUT16_RS27830" class="clusterblast-orf" id="dummy-18_h18_8_78"  />
</g>
<g id="a18_0079"  >
<polygon points="738,90 740,90 745,85 740,80 738,80 738,90 " style="fill:white; stroke-width:1; stroke:black; " description="&lt;b&gt;HUT16_RS27825&lt;/b&gt;&lt;br&gt;LacI family DNA-binding transcriptional regulator&lt;br&gt;Location: 6265581 - 6264556" locus_tag="HUT16_RS27825" class="clusterblast-orf" id="dummy-18_h18_8_79"  />
</g>
<g id="a18_0080"  >
<polygon points="746,90 750,90 755,85 750,80 746,80 746,90 " style="fill:white; stroke-width:1; stroke:black; " description="&lt;b&gt;HUT16_RS27820&lt;/b&gt;&lt;br&gt;FAD-binding protein&lt;br&gt;Location: 6264405 - 6263170" locus_tag="HUT16_RS27820" class="clusterblast-orf" id="dummy-18_h18_8_80"  />
</g>
<g id="a18_0081"  >
<polygon points="758,90 761,90 766,85 761,80 758,80 758,90 " style="fill:white; stroke-width:1; stroke:black; " description="&lt;b&gt;HUT16_RS27815&lt;/b&gt;&lt;br&gt;polysaccharide deacetylase family protein&lt;br&gt;Location: 6262687 - 6261647" locus_tag="HUT16_RS27815" class="clusterblast-orf" id="dummy-18_h18_8_81"  />
</g>
<g id="a18_0082"  >
<polygon points="769,90 771,90 776,85 771,80 769,80 769,90 " style="fill:white; stroke-width:1; stroke:black; " description="&lt;b&gt;HUT16_RS27810&lt;/b&gt;&lt;br&gt;glycoside hydrolase family 11 protein&lt;br&gt;Location: 6261189 - 6260242" locus_tag="HUT16_RS27810" class="clusterblast-orf" id="dummy-18_h18_8_82"  />
</g>
<g id="a18_0083"  >
<polygon points="776,90 780,85 776,80 776,90 " style="fill:white; stroke-width:1; stroke:black; " description="&lt;b&gt;HUT16_RS27805&lt;/b&gt;&lt;br&gt;hypothetical protein&lt;br&gt;Location: 6260152 - 6259694" locus_tag="HUT16_RS27805" class="clusterblast-orf" id="dummy-18_h18_8_83"  />
</g>
</svg>
