<svg xmlns="http://www.w3.org/2000/svg" xmlns:xlink="http://www.w3.org/1999/xlink" version="1.1" x="0" y="0" height="230" width="800" viewBox="0 0 800 230" preserveAspectRatio="none"  >
<g label="Query sequence" class="clusterblast-cluster"  >
<text x="5" y="20" class="clusterblast-acc"  >
Query sequence</text>
<line x1="10" y1="35" x2="778.0" y2="35" style="stroke-width:1; stroke:grey; "  />
<polygon points="17,35 22,30 31,30 31,40 22,40 17,35 " style="fill:white; stroke-width:1; stroke:black; " description="&lt;b&gt;LLPMBPKK_03735&lt;/b&gt;&lt;br&gt;cold-shock protein&lt;br&gt;Location: 4311672 - 4312056" locus_tag="LLPMBPKK_03735" class="clusterblast-orf" id="dummy-17_q0_0_all"  />
<polygon points="37,40 42,40 47,35 42,30 37,30 37,40 " style="fill:white; stroke-width:1; stroke:black; " description="&lt;b&gt;LLPMBPKK_03736&lt;/b&gt;&lt;br&gt;hypothetical protein&lt;br&gt;Location: 4312231 - 4312495" locus_tag="LLPMBPKK_03736" class="clusterblast-orf" id="dummy-17_q1_0_all"  />
<polygon points="45,35 50,30 68,30 68,40 50,40 45,35 " style="fill:white; stroke-width:1; stroke:black; " description="&lt;b&gt;LLPMBPKK_03737&lt;/b&gt;&lt;br&gt;HAD family hydrolase&lt;br&gt;Location: 4312458 - 4313106" locus_tag="LLPMBPKK_03737" class="clusterblast-orf" id="dummy-17_q2_0_all"  />
<polygon points="67,35 72,30 110,30 110,40 72,40 67,35 " style="fill:white; stroke-width:1; stroke:black; " description="&lt;b&gt;LLPMBPKK_03738&lt;/b&gt;&lt;br&gt;hypothetical protein&lt;br&gt;Location: 4313054 - 4314281" locus_tag="LLPMBPKK_03738" class="clusterblast-orf" id="dummy-17_q3_0_all"  />
<polygon points="114,40 203,40 208,35 203,30 114,30 114,40 " style="fill:white; stroke-width:1; stroke:black; " description="&lt;b&gt;LLPMBPKK_03739&lt;/b&gt;&lt;br&gt;hypothetical protein&lt;br&gt;Location: 4314382 - 4317019" locus_tag="LLPMBPKK_03739" class="clusterblast-orf" id="dummy-17_q4_0_all"  />
<polygon points="211,40 265,40 270,35 265,30 211,30 211,40 " style="fill:white; stroke-width:1; stroke:black; " description="&lt;b&gt;LLPMBPKK_03740&lt;/b&gt;&lt;br&gt;DEAD/DEAH box helicase&lt;br&gt;Location: 4317106 - 4318759" locus_tag="LLPMBPKK_03740" class="clusterblast-orf" id="dummy-17_q5_0_all"  />
<polygon points="271,35 276,30 282,30 282,40 276,40 271,35 " style="fill:white; stroke-width:1; stroke:black; " description="&lt;b&gt;LLPMBPKK_03741&lt;/b&gt;&lt;br&gt;hypothetical protein&lt;br&gt;Location: 4318771 - 4319101" locus_tag="LLPMBPKK_03741" class="clusterblast-orf" id="dummy-17_q6_0_all"  />
<polygon points="281,35 286,30 323,30 323,40 286,40 281,35 " style="fill:white; stroke-width:1; stroke:black; " description="&lt;b&gt;LLPMBPKK_03742&lt;/b&gt;&lt;br&gt;hypothetical protein&lt;br&gt;Location: 4319064 - 4320234" locus_tag="LLPMBPKK_03742" class="clusterblast-orf" id="dummy-17_q7_0_all"  />
<polygon points="324,35 329,30 330,30 330,40 329,40 324,35 " style="fill:white; stroke-width:1; stroke:black; " description="&lt;b&gt;LLPMBPKK_03743&lt;/b&gt;&lt;br&gt;hypothetical protein&lt;br&gt;Location: 4320252 - 4320435" locus_tag="LLPMBPKK_03743" class="clusterblast-orf" id="dummy-17_q8_0_all"  />
<polygon points="339,40 343,35 339,30 339,40 " style="fill:#d81515; stroke-width:1; stroke:black; " description="&lt;b&gt;LLPMBPKK_03744&lt;/b&gt;&lt;br&gt;lasso RiPP family leader peptide-containingprotein&lt;br&gt;Location: 4320687 - 4320798" locus_tag="LLPMBPKK_03744" class="clusterblast-orf" id="dummy-17_q9_0_all"  />
<polygon points="344,40 405,40 410,35 405,30 344,30 344,40 " style="fill:#15d863; stroke-width:1; stroke:black; " description="&lt;b&gt;LLPMBPKK_03745&lt;/b&gt;&lt;br&gt;asparagine synthetase B family protein&lt;br&gt;Location: 4320833 - 4322681" locus_tag="LLPMBPKK_03745" class="clusterblast-orf" id="dummy-17_q10_0_all"  />
<polygon points="412,40 416,40 421,35 416,30 412,30 412,40 " style="fill:#1563d8; stroke-width:1; stroke:black; " description="&lt;b&gt;LLPMBPKK_03746&lt;/b&gt;&lt;br&gt;lasso peptide biosynthesis PqqD family chaperone&lt;br&gt;Location: 4322732 - 4322987" locus_tag="LLPMBPKK_03746" class="clusterblast-orf" id="dummy-17_q11_0_all"  />
<polygon points="421,40 431,40 436,35 431,30 421,30 421,40 " style="fill:#b115d8; stroke-width:1; stroke:black; " description="&lt;b&gt;LLPMBPKK_03747&lt;/b&gt;&lt;br&gt;lasso peptide biosynthesis B2 protein&lt;br&gt;Location: 4322983 - 4323409" locus_tag="LLPMBPKK_03747" class="clusterblast-orf" id="dummy-17_q12_0_all"  />
<polygon points="436,40 500,40 505,35 500,30 436,30 436,40 " style="fill:#b1d815; stroke-width:1; stroke:black; " description="&lt;b&gt;LLPMBPKK_03748&lt;/b&gt;&lt;br&gt;ABC transporter ATP-binding protein&lt;br&gt;Location: 4323405 - 4325331" locus_tag="LLPMBPKK_03748" class="clusterblast-orf" id="dummy-17_q13_0_all"  />
<polygon points="509,40 577,40 582,35 577,30 509,30 509,40 " style="fill:white; stroke-width:1; stroke:black; " description="&lt;b&gt;LLPMBPKK_03749&lt;/b&gt;&lt;br&gt;ATP-dependent DNA helicase&lt;br&gt;Location: 4325446 - 4327501" locus_tag="LLPMBPKK_03749" class="clusterblast-orf" id="dummy-17_q14_0_all"  />
<polygon points="584,40 605,40 610,35 605,30 584,30 584,40 " style="fill:white; stroke-width:1; stroke:black; " description="&lt;b&gt;LLPMBPKK_03750&lt;/b&gt;&lt;br&gt;hypothetical protein&lt;br&gt;Location: 4327543 - 4328269" locus_tag="LLPMBPKK_03750" class="clusterblast-orf" id="dummy-17_q15_0_all"  />
<polygon points="610,35 615,30 635,30 635,40 615,40 610,35 " style="fill:white; stroke-width:1; stroke:black; " description="&lt;b&gt;LLPMBPKK_03751&lt;/b&gt;&lt;br&gt;homeostasis protein&lt;br&gt;Location: 4328265 - 4328964" locus_tag="LLPMBPKK_03751" class="clusterblast-orf" id="dummy-17_q16_0_all"  />
<polygon points="642,40 660,40 665,35 660,30 642,30 642,40 " style="fill:white; stroke-width:1; stroke:black; " description="&lt;b&gt;LLPMBPKK_03752&lt;/b&gt;&lt;br&gt;hypothetical protein&lt;br&gt;Location: 4329164 - 4329809" locus_tag="LLPMBPKK_03752" class="clusterblast-orf" id="dummy-17_q17_0_all"  />
<polygon points="666,40 700,40 705,35 700,30 666,30 666,40 " style="fill:white; stroke-width:1; stroke:black; " description="&lt;b&gt;LLPMBPKK_03753&lt;/b&gt;&lt;br&gt;N-acetyltransferase&lt;br&gt;Location: 4329835 - 4330933" locus_tag="LLPMBPKK_03753" class="clusterblast-orf" id="dummy-17_q18_0_all"  />
<polygon points="704,35 709,30 714,30 714,40 709,40 704,35 " style="fill:white; stroke-width:1; stroke:black; " description="&lt;b&gt;LLPMBPKK_03754&lt;/b&gt;&lt;br&gt;hypothetical protein&lt;br&gt;Location: 4330917 - 4331193" locus_tag="LLPMBPKK_03754" class="clusterblast-orf" id="dummy-17_q19_0_all"  />
<polygon points="714,35 719,30 728,30 728,40 719,40 714,35 " style="fill:white; stroke-width:1; stroke:black; " description="&lt;b&gt;LLPMBPKK_03755&lt;/b&gt;&lt;br&gt;hypothetical protein&lt;br&gt;Location: 4331200 - 4331593" locus_tag="LLPMBPKK_03755" class="clusterblast-orf" id="dummy-17_q20_0_all"  />
<polygon points="730,40 757,40 762,35 757,30 730,30 730,40 " style="fill:white; stroke-width:1; stroke:black; " description="&lt;b&gt;LLPMBPKK_03756&lt;/b&gt;&lt;br&gt;MurR/RpiR family transcriptional regulator&lt;br&gt;Location: 4331640 - 4332546" locus_tag="LLPMBPKK_03756" class="clusterblast-orf" id="dummy-17_q21_0_all"  />
</g>
<g label="NZ_LIYH01000005" description="NZ_LIYH01000005 (571882-594447): Streptomyces sp. CB03234 scaffold5, whole ge... (20% of genes show similarity), lassopeptide" class="clusterblast-cluster"  >
<text x="5" y="70" class="clusterblast-acc"  >
<a xlink:href="https://antismash-db.secondarymetabolites.org/area.html?record=NZ_LIYH01000005&amp;start=571882&amp;end=594447" target="_blank">NZ_LIYH01000005 (571882-594447)</a>: Streptomyces sp. CB03234 scaffold5, whole ge... (20% of genes show similarity), lassopeptide</text>
<line x1="10" y1="85" x2="778.0" y2="85" style="stroke-width:1; stroke:grey; "  />
</g>
<g id="a17_000"  >
<polygon points="0,90 51,90 56,85 51,80 0,80 0,90 " style="fill:white; stroke-width:1; stroke:black; " description="&lt;b&gt;AMK26_RS24105&lt;/b&gt;&lt;br&gt;mobilization protein&lt;br&gt;Location: 594292 - 592700" locus_tag="AMK26_RS24105" class="clusterblast-orf" id="dummy-17_h17_6_0"  />
</g>
<g id="a17_001"  >
<polygon points="79,85 84,80 92,80 92,90 84,90 79,85 " style="fill:white; stroke-width:1; stroke:black; " description="&lt;b&gt;AMK26_RS36775&lt;/b&gt;&lt;br&gt;hypothetical protein&lt;br&gt;Location: 592053 - 591712" locus_tag="AMK26_RS36775" class="clusterblast-orf" id="dummy-17_h17_6_1"  />
</g>
<g id="a17_002"  >
<polygon points="97,85 102,80 109,80 109,90 102,90 97,85 " style="fill:white; stroke-width:1; stroke:black; " description="&lt;b&gt;AMK26_RS24095&lt;/b&gt;&lt;br&gt;ATP-binding protein&lt;br&gt;Location: 591567 - 591229" locus_tag="AMK26_RS24095" class="clusterblast-orf" id="dummy-17_h17_6_2"  />
</g>
<g id="a17_003"  >
<polygon points="119,85 124,80 137,80 137,90 124,90 119,85 " style="fill:white; stroke-width:1; stroke:black; " description="&lt;b&gt;AMK26_RS37085&lt;/b&gt;&lt;br&gt;hypothetical protein&lt;br&gt;Location: 590947 - 590444" locus_tag="AMK26_RS37085" class="clusterblast-orf" id="dummy-17_h17_6_3"  />
</g>
<g id="a17_004"  >
<polygon points="154,90 178,90 183,85 178,80 154,80 154,90 " style="fill:white; stroke-width:1; stroke:black; " description="&lt;b&gt;AMK26_RS36380&lt;/b&gt;&lt;br&gt;IS5 family transposase&lt;br&gt;Location: 589965 - 589163" locus_tag="AMK26_RS36380" class="clusterblast-orf" id="dummy-17_h17_6_4"  />
</g>
<g id="a17_005"  >
<polygon points="184,90 191,90 196,85 191,80 184,80 184,90 " style="fill:white; stroke-width:1; stroke:black; " description="&lt;b&gt;AMK26_RS24075&lt;/b&gt;&lt;br&gt;hypothetical protein&lt;br&gt;Location: 589132 - 588797" locus_tag="AMK26_RS24075" class="clusterblast-orf" id="dummy-17_h17_6_5"  />
</g>
<g id="a17_006"  >
<polygon points="196,90 223,90 228,85 223,80 196,80 196,90 " style="fill:white; stroke-width:1; stroke:black; " description="&lt;b&gt;AMK26_RS24070&lt;/b&gt;&lt;br&gt;SigB/SigF/SigG family RNA polymerase sigma factor&lt;br&gt;Location: 588800 - 587904" locus_tag="AMK26_RS24070" class="clusterblast-orf" id="dummy-17_h17_6_6"  />
</g>
<g id="a17_007"  >
<polygon points="229,85 234,80 245,80 245,90 234,90 229,85 " style="fill:white; stroke-width:1; stroke:black; " description="&lt;b&gt;AMK26_RS24065&lt;/b&gt;&lt;br&gt;DUF3662 domain-containing protein&lt;br&gt;Location: 587874 - 587416" locus_tag="AMK26_RS24065" class="clusterblast-orf" id="dummy-17_h17_6_7"  />
</g>
<g id="a17_008"  >
<polygon points="249,90 260,90 265,85 260,80 249,80 249,90 " style="fill:white; stroke-width:1; stroke:black; " description="&lt;b&gt;AMK26_RS24060&lt;/b&gt;&lt;br&gt;hypothetical protein&lt;br&gt;Location: 587294 - 586869" locus_tag="AMK26_RS24060" class="clusterblast-orf" id="dummy-17_h17_6_8"  />
</g>
<g id="a17_009"  >
<polygon points="267,85 272,80 281,80 281,90 272,90 267,85 " style="fill:white; stroke-width:1; stroke:black; " description="&lt;b&gt;AMK26_RS24055&lt;/b&gt;&lt;br&gt;DUF2267 domain-containing protein&lt;br&gt;Location: 586793 - 586401" locus_tag="AMK26_RS24055" class="clusterblast-orf" id="dummy-17_h17_6_9"  />
</g>
<g id="a17_0010"  >
<polygon points="292,90 302,90 307,85 302,80 292,80 292,90 " style="fill:white; stroke-width:1; stroke:black; " description="&lt;b&gt;AMK26_RS24050&lt;/b&gt;&lt;br&gt;hypothetical protein&lt;br&gt;Location: 586104 - 585667" locus_tag="AMK26_RS24050" class="clusterblast-orf" id="dummy-17_h17_6_10"  />
</g>
<g id="a17_0011"  >
<polygon points="312,85 317,80 319,80 319,90 317,90 312,85 " style="fill:white; stroke-width:1; stroke:black; " description="&lt;b&gt;AMK26_RS36375&lt;/b&gt;&lt;br&gt;cold shock domain-containing protein&lt;br&gt;Location: 585552 - 585337" locus_tag="AMK26_RS36375" class="clusterblast-orf" id="dummy-17_h17_6_11"  />
</g>
<g id="a17_0012"  >
<polygon points="346,90 350,85 346,80 346,90 " style="fill:#d81515; stroke-width:1; stroke:black; " description="&lt;b&gt;AMK26_RS36370&lt;/b&gt;&lt;br&gt;lasso RiPP family leader peptide-containing protein&lt;br&gt;Location: 584584 - 584474&lt;br&gt;&lt;br&gt;&lt;b&gt;BlastP hit with LLPMBPKK_03744&lt;/b&gt;&lt;br&gt;Percentage identity: 92&lt;br&gt;Percentage coverage: 100&lt;br&gt;BLAST bit score: 68&lt;br&gt;E-value: 3.33e-16" locus_tag="AMK26_RS36370" class="clusterblast-orf" id="dummy-17_h17_6_12"  />
</g>
<g id="a17_0013"  >
<polygon points="351,90 412,90 417,85 412,80 351,80 351,90 " style="fill:#15d863; stroke-width:1; stroke:black; " description="&lt;b&gt;AMK26_RS24040&lt;/b&gt;&lt;br&gt;asparagine synthetase B family protein&lt;br&gt;Location: 584447 - 582609&lt;br&gt;&lt;br&gt;&lt;b&gt;BlastP hit with LLPMBPKK_03745&lt;/b&gt;&lt;br&gt;Percentage identity: 76&lt;br&gt;Percentage coverage: 99&lt;br&gt;BLAST bit score: 942&lt;br&gt;E-value: 0.0" locus_tag="AMK26_RS24040" class="clusterblast-orf" id="dummy-17_h17_6_13"  />
</g>
<g id="a17_0014"  >
<polygon points="418,90 422,90 427,85 422,80 418,80 418,90 " style="fill:#1563d8; stroke-width:1; stroke:black; " description="&lt;b&gt;AMK26_RS24035&lt;/b&gt;&lt;br&gt;lasso peptide biosynthesis PqqD family chaperone&lt;br&gt;Location: 582577 - 582323&lt;br&gt;&lt;br&gt;&lt;b&gt;BlastP hit with LLPMBPKK_03746&lt;/b&gt;&lt;br&gt;Percentage identity: 66&lt;br&gt;Percentage coverage: 99&lt;br&gt;BLAST bit score: 106&lt;br&gt;E-value: 6.32e-30" locus_tag="AMK26_RS24035" class="clusterblast-orf" id="dummy-17_h17_6_14"  />
</g>
<g id="a17_0015"  >
<polygon points="427,90 438,90 443,85 438,80 427,80 427,90 " style="fill:#b115d8; stroke-width:1; stroke:black; " description="&lt;b&gt;AMK26_RS24030&lt;/b&gt;&lt;br&gt;lasso peptide biosynthesis B2 protein&lt;br&gt;Location: 582326 - 581883&lt;br&gt;&lt;br&gt;&lt;b&gt;BlastP hit with LLPMBPKK_03747&lt;/b&gt;&lt;br&gt;Percentage identity: 80&lt;br&gt;Percentage coverage: 98&lt;br&gt;BLAST bit score: 224&lt;br&gt;E-value: 7.36e-75" locus_tag="AMK26_RS24030" class="clusterblast-orf" id="dummy-17_h17_6_15"  />
</g>
<g id="a17_0016"  >
<polygon points="442,90 503,90 508,85 503,80 442,80 442,90 " style="fill:#b1d815; stroke-width:1; stroke:black; " description="&lt;b&gt;AMK26_RS24025&lt;/b&gt;&lt;br&gt;ABC transporter ATP-binding protein&lt;br&gt;Location: 581886 - 580042&lt;br&gt;&lt;br&gt;&lt;b&gt;BlastP hit with LLPMBPKK_03748&lt;/b&gt;&lt;br&gt;Percentage identity: 68&lt;br&gt;Percentage coverage: 92&lt;br&gt;BLAST bit score: 685&lt;br&gt;E-value: 2.89e-241" locus_tag="AMK26_RS24025" class="clusterblast-orf" id="dummy-17_h17_6_16"  />
</g>
<g id="a17_0017"  >
<polygon points="523,90 531,90 536,85 531,80 523,80 523,90 " style="fill:white; stroke-width:1; stroke:black; " description="&lt;b&gt;AMK26_RS37080&lt;/b&gt;&lt;br&gt;hypothetical protein&lt;br&gt;Location: 579629 - 579270" locus_tag="AMK26_RS37080" class="clusterblast-orf" id="dummy-17_h17_6_17"  />
</g>
<g id="a17_0018"  >
<polygon points="538,90 581,90 586,85 581,80 538,80 538,90 " style="fill:white; stroke-width:1; stroke:black; " description="&lt;b&gt;AMK26_RS36365&lt;/b&gt;&lt;br&gt;hypothetical protein&lt;br&gt;Location: 579216 - 577864" locus_tag="AMK26_RS36365" class="clusterblast-orf" id="dummy-17_h17_6_18"  />
</g>
<g id="a17_0019"  >
<polygon points="594,90 604,90 609,85 604,80 594,80 594,90 " style="fill:white; stroke-width:1; stroke:black; " description="&lt;b&gt;AMK26_RS24010&lt;/b&gt;&lt;br&gt;ATP-binding protein&lt;br&gt;Location: 577631 - 577233" locus_tag="AMK26_RS24010" class="clusterblast-orf" id="dummy-17_h17_6_19"  />
</g>
<g id="a17_0020"  >
<polygon points="623,85 628,80 648,80 648,90 628,90 623,85 " style="fill:white; stroke-width:1; stroke:black; " description="&lt;b&gt;AMK26_RS24005&lt;/b&gt;&lt;br&gt;pyridine nucleotide-disulfide oxidoreductase&lt;br&gt;Location: 576824 - 576137" locus_tag="AMK26_RS24005" class="clusterblast-orf" id="dummy-17_h17_6_20"  />
</g>
<g id="a17_0021"  >
<polygon points="648,90 655,90 660,85 655,80 648,80 648,90 " style="fill:white; stroke-width:1; stroke:black; " description="&lt;b&gt;AMK26_RS35830&lt;/b&gt;&lt;br&gt;phosphoribosyltransferase&lt;br&gt;Location: 576137 - 575805" locus_tag="AMK26_RS35830" class="clusterblast-orf" id="dummy-17_h17_6_21"  />
</g>
<g id="a17_0022"  >
<polygon points="675,85 680,80 735,80 735,90 680,90 675,85 " style="fill:white; stroke-width:1; stroke:black; " description="&lt;b&gt;AMK26_RS23995&lt;/b&gt;&lt;br&gt;alpha/beta hydrolase&lt;br&gt;Location: 575378 - 573705" locus_tag="AMK26_RS23995" class="clusterblast-orf" id="dummy-17_h17_6_22"  />
</g>
<g id="a17_0023"  >
<polygon points="760,85 765,80 780,80 780,90 765,90 760,85 " style="fill:white; stroke-width:1; stroke:black; " description="&lt;b&gt;AMK26_RS23990&lt;/b&gt;&lt;br&gt;flavoprotein&lt;br&gt;Location: 572981 - 572445" locus_tag="AMK26_RS23990" class="clusterblast-orf" id="dummy-17_h17_6_23"  />
</g>
</svg>
