<svg xmlns="http://www.w3.org/2000/svg" xmlns:xlink="http://www.w3.org/1999/xlink" version="1.1" x="0" y="0" height="230" width="800" viewBox="0 0 800 230" preserveAspectRatio="none"  >
<g label="Query sequence" class="clusterblast-cluster"  >
<text x="5" y="20" class="clusterblast-acc"  >
Query sequence</text>
<line x1="10" y1="35" x2="778.0" y2="35" style="stroke-width:1; stroke:grey; "  />
<polygon points="39,40 61,40 66,35 61,30 39,30 39,40 " style="fill:white; stroke-width:1; stroke:black; " description="&lt;b&gt;LLPMBPKK_01395&lt;/b&gt;&lt;br&gt;Alpha-L-arabinofuranosidase B (ABFB) domainprotein&lt;br&gt;Location: 1683263 - 1684649" locus_tag="LLPMBPKK_01395" class="clusterblast-orf" id="dummy-9_q0_0_all"  />
<polygon points="70,40 77,40 82,35 77,30 70,30 70,40 " style="fill:#d81515; stroke-width:1; stroke:black; " description="&lt;b&gt;LLPMBPKK_01396&lt;/b&gt;&lt;br&gt;DedA family protein&lt;br&gt;Location: 1684847 - 1685486" locus_tag="LLPMBPKK_01396" class="clusterblast-orf" id="dummy-9_q1_0_all"  />
<polygon points="83,35 88,30 98,30 98,40 88,40 83,35 " style="fill:#67d815; stroke-width:1; stroke:black; " description="&lt;b&gt;LLPMBPKK_01397&lt;/b&gt;&lt;br&gt;hypothetical protein&lt;br&gt;Location: 1685545 - 1686277" locus_tag="LLPMBPKK_01397" class="clusterblast-orf" id="dummy-9_q2_0_all"  />
<polygon points="98,35 103,30 108,30 108,40 103,40 98,35 " style="fill:#15b9d8; stroke-width:1; stroke:black; " description="&lt;b&gt;LLPMBPKK_01398&lt;/b&gt;&lt;br&gt;hypothetical protein&lt;br&gt;Location: 1686310 - 1686811" locus_tag="LLPMBPKK_01398" class="clusterblast-orf" id="dummy-9_q3_0_all"  />
<polygon points="112,40 114,40 119,35 114,30 112,30 112,40 " style="fill:#8615d8; stroke-width:1; stroke:black; " description="&lt;b&gt;LLPMBPKK_01399&lt;/b&gt;&lt;br&gt;hypothetical protein&lt;br&gt;Location: 1687013 - 1687373" locus_tag="LLPMBPKK_01399" class="clusterblast-orf" id="dummy-9_q4_0_all"  />
<polygon points="121,40 140,40 145,35 140,30 121,30 121,40 " style="fill:#d83415; stroke-width:1; stroke:black; " description="&lt;b&gt;LLPMBPKK_01400&lt;/b&gt;&lt;br&gt;phosphodiester glycosidase family protein&lt;br&gt;Location: 1687448 - 1688687" locus_tag="LLPMBPKK_01400" class="clusterblast-orf" id="dummy-9_q5_0_all"  />
<polygon points="145,35 149,30 149,40 145,35 " style="fill:#49d815; stroke-width:1; stroke:black; " description="&lt;b&gt;LLPMBPKK_01401&lt;/b&gt;&lt;br&gt;small membrane protein&lt;br&gt;Location: 1688700 - 1688895" locus_tag="LLPMBPKK_01401" class="clusterblast-orf" id="dummy-9_q6_0_all"  />
<polygon points="151,35 156,30 168,30 168,40 156,40 151,35 " style="fill:#159bd8; stroke-width:1; stroke:black; " description="&lt;b&gt;LLPMBPKK_01402&lt;/b&gt;&lt;br&gt;Glycerophosphoryl diester phosphodiesterasefamily protein&lt;br&gt;Location: 1688998 - 1689886" locus_tag="LLPMBPKK_01402" class="clusterblast-orf" id="dummy-9_q7_0_all"  />
<polygon points="173,35 178,30 194,30 194,40 178,40 173,35 " style="fill:#a515d8; stroke-width:1; stroke:black; " description="&lt;b&gt;LLPMBPKK_01403&lt;/b&gt;&lt;br&gt;acyl-CoA dehydrogenase&lt;br&gt;Location: 1690115 - 1691189" locus_tag="LLPMBPKK_01403" class="clusterblast-orf" id="dummy-9_q8_0_all"  />
<polygon points="194,35 199,30 217,30 217,40 199,40 194,35 " style="fill:#d85315; stroke-width:1; stroke:black; " description="&lt;b&gt;LLPMBPKK_01404&lt;/b&gt;&lt;br&gt;acyl-CoA dehydrogenase&lt;br&gt;Location: 1691185 - 1692367" locus_tag="LLPMBPKK_01404" class="clusterblast-orf" id="dummy-9_q9_0_all"  />
<polygon points="217,35 222,30 236,30 236,40 222,40 217,35 " style="fill:#2ad815; stroke-width:1; stroke:black; " description="&lt;b&gt;LLPMBPKK_01405&lt;/b&gt;&lt;br&gt;oxidoreductase&lt;br&gt;Location: 1692363 - 1693329" locus_tag="LLPMBPKK_01405" class="clusterblast-orf" id="dummy-9_q10_0_all"  />
<polygon points="237,35 242,30 249,30 249,40 242,40 237,35 " style="fill:#157cd8; stroke-width:1; stroke:black; " description="&lt;b&gt;LLPMBPKK_01406&lt;/b&gt;&lt;br&gt;regulatory protein&lt;br&gt;Location: 1693415 - 1693988" locus_tag="LLPMBPKK_01406" class="clusterblast-orf" id="dummy-9_q11_0_all"  />
<polygon points="250,40 264,40 269,35 264,30 250,30 250,40 " style="fill:#c415d8; stroke-width:1; stroke:black; " description="&lt;b&gt;LLPMBPKK_01407&lt;/b&gt;&lt;br&gt;NAD(P)/FAD-dependent oxidoreductase&lt;br&gt;Location: 1694053 - 1695022" locus_tag="LLPMBPKK_01407" class="clusterblast-orf" id="dummy-9_q12_0_all"  />
<polygon points="270,40 296,40 301,35 296,30 270,30 270,40 " style="fill:#d87215; stroke-width:1; stroke:black; " description="&lt;b&gt;LLPMBPKK_01408&lt;/b&gt;&lt;br&gt;ATP-dependent DNA ligase&lt;br&gt;Location: 1695101 - 1696649" locus_tag="LLPMBPKK_01408" class="clusterblast-orf" id="dummy-9_q13_0_all"  />
<polygon points="301,40 305,40 310,35 305,30 301,30 301,40 " style="fill:#15d81f; stroke-width:1; stroke:black; " description="&lt;b&gt;LLPMBPKK_01409&lt;/b&gt;&lt;br&gt;NUDIX domain-containing protein&lt;br&gt;Location: 1696645 - 1697119" locus_tag="LLPMBPKK_01409" class="clusterblast-orf" id="dummy-9_q14_0_all"  />
<polygon points="311,40 334,40 339,35 334,30 311,30 311,40 " style="fill:#155dd8; stroke-width:1; stroke:black; " description="&lt;b&gt;LLPMBPKK_01410&lt;/b&gt;&lt;br&gt;NADP-dependent succinic semialdehydedehydrogenase&lt;br&gt;Location: 1697200 - 1698586" locus_tag="LLPMBPKK_01410" class="clusterblast-orf" id="dummy-9_q15_0_all"  />
<polygon points="339,40 339,40 344,35 339,30 339,30 339,40 " style="fill:#d815ce; stroke-width:1; stroke:black; " description="&lt;b&gt;LLPMBPKK_01411&lt;/b&gt;&lt;br&gt;hypothetical protein&lt;br&gt;Location: 1698582 - 1698846" locus_tag="LLPMBPKK_01411" class="clusterblast-orf" id="dummy-9_q16_0_all"  />
<polygon points="347,40 363,40 368,35 363,30 347,30 347,40 " style="fill:#d89015; stroke-width:1; stroke:black; " description="&lt;b&gt;LLPMBPKK_01412&lt;/b&gt;&lt;br&gt;type III polyketide synthase&lt;br&gt;Location: 1699021 - 1700086" locus_tag="LLPMBPKK_01412" class="clusterblast-orf" id="dummy-9_q17_0_all"  />
<polygon points="368,40 387,40 392,35 387,30 368,30 368,40 " style="fill:#15d83e; stroke-width:1; stroke:black; " description="&lt;b&gt;LLPMBPKK_01413&lt;/b&gt;&lt;br&gt;cytochrome P450&lt;br&gt;Location: 1700082 - 1701300" locus_tag="LLPMBPKK_01413" class="clusterblast-orf" id="dummy-9_q18_0_all"  />
<polygon points="392,40 397,40 402,35 397,30 392,30 392,40 " style="fill:#153ed8; stroke-width:1; stroke:black; " description="&lt;b&gt;LLPMBPKK_01414&lt;/b&gt;&lt;br&gt;cupin domain-containing protein&lt;br&gt;Location: 1701307 - 1701829" locus_tag="LLPMBPKK_01414" class="clusterblast-orf" id="dummy-9_q19_0_all"  />
<polygon points="403,35 408,30 427,30 427,40 408,40 403,35 " style="fill:#d815af; stroke-width:1; stroke:black; " description="&lt;b&gt;LLPMBPKK_01415&lt;/b&gt;&lt;br&gt;acyl-CoA dehydrogenase&lt;br&gt;Location: 1701869 - 1703096" locus_tag="LLPMBPKK_01415" class="clusterblast-orf" id="dummy-9_q20_0_all"  />
<polygon points="430,40 438,40 443,35 438,30 430,30 430,40 " style="fill:#d8af15; stroke-width:1; stroke:black; " description="&lt;b&gt;LLPMBPKK_01416&lt;/b&gt;&lt;br&gt;TetR/AcrR family transcriptional regulator&lt;br&gt;Location: 1703266 - 1703911" locus_tag="LLPMBPKK_01416" class="clusterblast-orf" id="dummy-9_q21_0_all"  />
<polygon points="444,35 449,30 455,30 455,40 449,40 444,35 " style="fill:#15d85d; stroke-width:1; stroke:black; " description="&lt;b&gt;LLPMBPKK_01417&lt;/b&gt;&lt;br&gt;peptide deformylase&lt;br&gt;Location: 1703981 - 1704551" locus_tag="LLPMBPKK_01417" class="clusterblast-orf" id="dummy-9_q22_0_all"  />
<polygon points="458,40 477,40 482,35 477,30 458,30 458,40 " style="fill:#151fd8; stroke-width:1; stroke:black; " description="&lt;b&gt;LLPMBPKK_01418&lt;/b&gt;&lt;br&gt;hypothetical protein&lt;br&gt;Location: 1704674 - 1705913" locus_tag="LLPMBPKK_01418" class="clusterblast-orf" id="dummy-9_q23_0_all"  />
<polygon points="482,40 492,40 497,35 492,30 482,30 482,40 " style="fill:#d81590; stroke-width:1; stroke:black; " description="&lt;b&gt;LLPMBPKK_01419&lt;/b&gt;&lt;br&gt;glutamine amidotransferase&lt;br&gt;Location: 1705933 - 1706662" locus_tag="LLPMBPKK_01419" class="clusterblast-orf" id="dummy-9_q24_0_all"  />
<polygon points="501,40 516,40 521,35 516,30 501,30 501,40 " style="fill:#d8ce15; stroke-width:1; stroke:black; " description="&lt;b&gt;LLPMBPKK_01420&lt;/b&gt;&lt;br&gt;ATP-dependent 6-phosphofructokinase&lt;br&gt;Location: 1706888 - 1707914" locus_tag="LLPMBPKK_01420" class="clusterblast-orf" id="dummy-9_q25_0_all"  />
<polygon points="523,40 537,40 542,35 537,30 523,30 523,40 " style="fill:#15d87c; stroke-width:1; stroke:black; " description="&lt;b&gt;LLPMBPKK_01421&lt;/b&gt;&lt;br&gt;cytochrome c oxidase assembly protein&lt;br&gt;Location: 1708030 - 1708981" locus_tag="LLPMBPKK_01421" class="clusterblast-orf" id="dummy-9_q26_0_all"  />
<polygon points="543,40 547,35 543,30 543,40 " style="fill:#2a15d8; stroke-width:1; stroke:black; " description="&lt;b&gt;LLPMBPKK_01422&lt;/b&gt;&lt;br&gt;hypothetical protein&lt;br&gt;Location: 1709051 - 1709219" locus_tag="LLPMBPKK_01422" class="clusterblast-orf" id="dummy-9_q27_0_all"  />
<polygon points="547,40 552,40 557,35 552,30 547,30 547,40 " style="fill:#d81572; stroke-width:1; stroke:black; " description="&lt;b&gt;LLPMBPKK_01423&lt;/b&gt;&lt;br&gt;Lrp/AsnC family transcriptional regulator&lt;br&gt;Location: 1709255 - 1709741" locus_tag="LLPMBPKK_01423" class="clusterblast-orf" id="dummy-9_q28_0_all"  />
<polygon points="560,40 571,40 576,35 571,30 560,30 560,40 " style="fill:#c4d815; stroke-width:1; stroke:black; " description="&lt;b&gt;LLPMBPKK_01424&lt;/b&gt;&lt;br&gt;amidinotransferase&lt;br&gt;Location: 1709894 - 1710704" locus_tag="LLPMBPKK_01424" class="clusterblast-orf" id="dummy-9_q29_0_all"  />
<polygon points="576,40 594,40 599,35 594,30 576,30 576,40 " style="fill:#15d89b; stroke-width:1; stroke:black; " description="&lt;b&gt;LLPMBPKK_01425&lt;/b&gt;&lt;br&gt;ornithine--oxo-acid transaminase&lt;br&gt;Location: 1710703 - 1711921" locus_tag="LLPMBPKK_01425" class="clusterblast-orf" id="dummy-9_q30_0_all"  />
<polygon points="601,35 606,30 613,30 613,40 606,40 601,35 " style="fill:#4915d8; stroke-width:1; stroke:black; " description="&lt;b&gt;LLPMBPKK_01426&lt;/b&gt;&lt;br&gt;hypothetical protein&lt;br&gt;Location: 1711975 - 1712614" locus_tag="LLPMBPKK_01426" class="clusterblast-orf" id="dummy-9_q31_0_all"  />
<polygon points="615,35 620,30 623,30 623,40 620,40 615,35 " style="fill:#d81553; stroke-width:1; stroke:black; " description="&lt;b&gt;LLPMBPKK_01427&lt;/b&gt;&lt;br&gt;hypothetical protein&lt;br&gt;Location: 1712720 - 1713131" locus_tag="LLPMBPKK_01427" class="clusterblast-orf" id="dummy-9_q32_0_all"  />
<polygon points="626,40 635,40 640,35 635,30 626,30 626,40 " style="fill:#a5d815; stroke-width:1; stroke:black; " description="&lt;b&gt;LLPMBPKK_01428&lt;/b&gt;&lt;br&gt;acyltransferase&lt;br&gt;Location: 1713279 - 1714005" locus_tag="LLPMBPKK_01428" class="clusterblast-orf" id="dummy-9_q33_0_all"  />
<polygon points="641,40 656,40 661,35 656,30 641,30 641,40 " style="fill:#15d8b9; stroke-width:1; stroke:black; " description="&lt;b&gt;LLPMBPKK_01429&lt;/b&gt;&lt;br&gt;NAD-dependent epimerase/dehydratase familyprotein&lt;br&gt;Location: 1714063 - 1715086" locus_tag="LLPMBPKK_01429" class="clusterblast-orf" id="dummy-9_q34_0_all"  />
<polygon points="663,35 668,30 694,30 694,40 668,40 663,35 " style="fill:#6715d8; stroke-width:1; stroke:black; " description="&lt;b&gt;LLPMBPKK_01430&lt;/b&gt;&lt;br&gt;alpha/beta hydrolase&lt;br&gt;Location: 1715165 - 1716761" locus_tag="LLPMBPKK_01430" class="clusterblast-orf" id="dummy-9_q35_0_all"  />
<polygon points="697,35 702,30 712,30 712,40 702,40 697,35 " style="fill:#d81534; stroke-width:1; stroke:black; " description="&lt;b&gt;LLPMBPKK_01431&lt;/b&gt;&lt;br&gt;urease accessory protein UreD&lt;br&gt;Location: 1716905 - 1717664" locus_tag="LLPMBPKK_01431" class="clusterblast-orf" id="dummy-9_q36_0_all"  />
<polygon points="712,35 717,30 725,30 725,40 717,40 712,35 " style="fill:#86d815; stroke-width:1; stroke:black; " description="&lt;b&gt;LLPMBPKK_01432&lt;/b&gt;&lt;br&gt;urease accessory protein UreG&lt;br&gt;Location: 1717660 - 1718338" locus_tag="LLPMBPKK_01432" class="clusterblast-orf" id="dummy-9_q37_0_all"  />
<polygon points="727,35 732,30 741,30 741,40 732,40 727,35 " style="fill:#15d8d8; stroke-width:1; stroke:black; " description="&lt;b&gt;LLPMBPKK_01433&lt;/b&gt;&lt;br&gt;urease accessory protein UreF&lt;br&gt;Location: 1718460 - 1719135" locus_tag="LLPMBPKK_01433" class="clusterblast-orf" id="dummy-9_q38_0_all"  />
</g>
<g label="NZ_CP053189" description="NZ_CP053189 (6690441-6731506): Streptomyces sp. jing01 chromosome, complete g... (86% of genes show similarity), T3PKS" class="clusterblast-cluster"  >
<text x="5" y="70" class="clusterblast-acc"  >
<a xlink:href="https://antismash-db.secondarymetabolites.org/area.html?record=NZ_CP053189&amp;start=6690441&amp;end=6731506" target="_blank">NZ_CP053189 (6690441-6731506)</a>: Streptomyces sp. jing01 chromosome, complete g... (86% of genes show similarity), T3PKS</text>
<line x1="10" y1="85" x2="778.0" y2="85" style="stroke-width:1; stroke:grey; "  />
</g>
<g id="a9_000"  >
<polygon points="0,90 11,90 16,85 11,80 0,80 0,90 " style="fill:white; stroke-width:1; stroke:black; " description="&lt;b&gt;HKX69_RS29920&lt;/b&gt;&lt;br&gt;LysR family transcriptional regulator&lt;br&gt;Location: 6730631 - 6729780" locus_tag="HKX69_RS29920" class="clusterblast-orf" id="dummy-9_h9_1_0"  />
</g>
<g id="a9_001"  >
<polygon points="19,90 30,90 35,85 30,80 19,80 19,90 " style="fill:white; stroke-width:1; stroke:black; " description="&lt;b&gt;HKX69_RS29915&lt;/b&gt;&lt;br&gt;MBL fold metallo-hydrolase&lt;br&gt;Location: 6729640 - 6728837" locus_tag="HKX69_RS29915" class="clusterblast-orf" id="dummy-9_h9_1_1"  />
</g>
<g id="a9_002"  >
<polygon points="37,85 42,80 59,80 59,90 42,90 37,85 " style="fill:white; stroke-width:1; stroke:black; " description="&lt;b&gt;HKX69_RS29910&lt;/b&gt;&lt;br&gt;HAMP domain-containing histidine kinase&lt;br&gt;Location: 6728724 - 6727606" locus_tag="HKX69_RS29910" class="clusterblast-orf" id="dummy-9_h9_1_2"  />
</g>
<g id="a9_003"  >
<polygon points="59,85 64,80 72,80 72,90 64,90 59,85 " style="fill:white; stroke-width:1; stroke:black; " description="&lt;b&gt;HKX69_RS29905&lt;/b&gt;&lt;br&gt;response regulator transcription factor&lt;br&gt;Location: 6727613 - 6726918" locus_tag="HKX69_RS29905" class="clusterblast-orf" id="dummy-9_h9_1_3"  />
</g>
<g id="a9_004"  >
<polygon points="76,90 92,90 97,85 92,80 76,80 76,90 " style="fill:white; stroke-width:1; stroke:black; " description="&lt;b&gt;HKX69_RS29900&lt;/b&gt;&lt;br&gt;endonuclease/exonuclease/phosphatase family protein&lt;br&gt;Location: 6726732 - 6725656" locus_tag="HKX69_RS29900" class="clusterblast-orf" id="dummy-9_h9_1_4"  />
</g>
<g id="a9_005"  >
<polygon points="101,90 108,90 113,85 108,80 101,80 101,90 " style="fill:#d81515; stroke-width:1; stroke:black; " description="&lt;b&gt;HKX69_RS29895&lt;/b&gt;&lt;br&gt;DedA family protein&lt;br&gt;Location: 6725466 - 6724828&lt;br&gt;&lt;br&gt;&lt;b&gt;BlastP hit with LLPMBPKK_01396&lt;/b&gt;&lt;br&gt;Percentage identity: 88&lt;br&gt;Percentage coverage: 100&lt;br&gt;BLAST bit score: 337&lt;br&gt;E-value: 2.67e-117" locus_tag="HKX69_RS29895" class="clusterblast-orf" id="dummy-9_h9_1_5"  />
</g>
<g id="a9_006"  >
<polygon points="123,85 128,80 133,80 133,90 128,90 123,85 " style="fill:#15b9d8; stroke-width:1; stroke:black; " description="&lt;b&gt;HKX69_RS29890&lt;/b&gt;&lt;br&gt;hypothetical protein&lt;br&gt;Location: 6724297 - 6723797&lt;br&gt;&lt;br&gt;&lt;b&gt;BlastP hit with LLPMBPKK_01398&lt;/b&gt;&lt;br&gt;Percentage identity: 73&lt;br&gt;Percentage coverage: 90&lt;br&gt;BLAST bit score: 227&lt;br&gt;E-value: 2.26e-75" locus_tag="HKX69_RS29890" class="clusterblast-orf" id="dummy-9_h9_1_6"  />
</g>
<g id="a9_007"  >
<polygon points="135,90 138,90 143,85 138,80 135,80 135,90 " style="fill:#8615d8; stroke-width:1; stroke:black; " description="&lt;b&gt;HKX69_RS29885&lt;/b&gt;&lt;br&gt;DUF779 domain-containing protein&lt;br&gt;Location: 6723679 - 6723320&lt;br&gt;&lt;br&gt;&lt;b&gt;BlastP hit with LLPMBPKK_01399&lt;/b&gt;&lt;br&gt;Percentage identity: 97&lt;br&gt;Percentage coverage: 100&lt;br&gt;BLAST bit score: 236&lt;br&gt;E-value: 2.23e-80" locus_tag="HKX69_RS29885" class="clusterblast-orf" id="dummy-9_h9_1_7"  />
</g>
<g id="a9_008"  >
<polygon points="145,90 163,90 168,85 163,80 145,80 145,90 " style="fill:#d83415; stroke-width:1; stroke:black; " description="&lt;b&gt;HKX69_RS29880&lt;/b&gt;&lt;br&gt;phosphodiester glycosidase family protein&lt;br&gt;Location: 6723178 - 6722009&lt;br&gt;&lt;br&gt;&lt;b&gt;BlastP hit with LLPMBPKK_01400&lt;/b&gt;&lt;br&gt;Percentage identity: 85&lt;br&gt;Percentage coverage: 90&lt;br&gt;BLAST bit score: 581&lt;br&gt;E-value: 1.19e-207" locus_tag="HKX69_RS29880" class="clusterblast-orf" id="dummy-9_h9_1_8"  />
</g>
<g id="a9_009"  >
<polygon points="169,85 173,80 173,90 169,85 " style="fill:#49d815; stroke-width:1; stroke:black; " description="&lt;b&gt;HKX69_RS29875&lt;/b&gt;&lt;br&gt;hypothetical protein&lt;br&gt;Location: 6721976 - 6721782&lt;br&gt;&lt;br&gt;&lt;b&gt;BlastP hit with LLPMBPKK_01401&lt;/b&gt;&lt;br&gt;Percentage identity: 98&lt;br&gt;Percentage coverage: 100&lt;br&gt;BLAST bit score: 108&lt;br&gt;E-value: 2.76e-31" locus_tag="HKX69_RS29875" class="clusterblast-orf" id="dummy-9_h9_1_9"  />
</g>
<g id="a9_0010"  >
<polygon points="175,85 180,80 192,80 192,90 180,90 175,85 " style="fill:#159bd8; stroke-width:1; stroke:black; " description="&lt;b&gt;HKX69_RS29870&lt;/b&gt;&lt;br&gt;hypothetical protein&lt;br&gt;Location: 6721678 - 6720815&lt;br&gt;&lt;br&gt;&lt;b&gt;BlastP hit with LLPMBPKK_01402&lt;/b&gt;&lt;br&gt;Percentage identity: 77&lt;br&gt;Percentage coverage: 100&lt;br&gt;BLAST bit score: 441&lt;br&gt;E-value: 1.1e-155" locus_tag="HKX69_RS29870" class="clusterblast-orf" id="dummy-9_h9_1_10"  />
</g>
<g id="a9_0011"  >
<polygon points="195,85 200,80 216,80 216,90 200,90 195,85 " style="fill:#a515d8; stroke-width:1; stroke:black; " description="&lt;b&gt;HKX69_RS29865&lt;/b&gt;&lt;br&gt;acyl-CoA/acyl-ACP dehydrogenase&lt;br&gt;Location: 6720655 - 6719558&lt;br&gt;&lt;br&gt;&lt;b&gt;BlastP hit with LLPMBPKK_01403&lt;/b&gt;&lt;br&gt;Percentage identity: 86&lt;br&gt;Percentage coverage: 100&lt;br&gt;BLAST bit score: 580&lt;br&gt;E-value: 2.34e-208" locus_tag="HKX69_RS29865" class="clusterblast-orf" id="dummy-9_h9_1_11"  />
</g>
<g id="a9_0012"  >
<polygon points="216,85 221,80 239,80 239,90 221,90 216,85 " style="fill:#d85315; stroke-width:1; stroke:black; " description="&lt;b&gt;HKX69_RS29860&lt;/b&gt;&lt;br&gt;acyl-CoA dehydrogenase family protein&lt;br&gt;Location: 6719561 - 6718380&lt;br&gt;&lt;br&gt;&lt;b&gt;BlastP hit with LLPMBPKK_01404&lt;/b&gt;&lt;br&gt;Percentage identity: 92&lt;br&gt;Percentage coverage: 100&lt;br&gt;BLAST bit score: 743&lt;br&gt;E-value: 5.02e-272" locus_tag="HKX69_RS29860" class="clusterblast-orf" id="dummy-9_h9_1_12"  />
</g>
<g id="a9_0013"  >
<polygon points="239,85 244,80 258,80 258,90 244,90 239,85 " style="fill:#2ad815; stroke-width:1; stroke:black; " description="&lt;b&gt;HKX69_RS29855&lt;/b&gt;&lt;br&gt;NADPH:quinone oxidoreductase family protein&lt;br&gt;Location: 6718383 - 6717412&lt;br&gt;&lt;br&gt;&lt;b&gt;BlastP hit with LLPMBPKK_01405&lt;/b&gt;&lt;br&gt;Percentage identity: 92&lt;br&gt;Percentage coverage: 100&lt;br&gt;BLAST bit score: 580&lt;br&gt;E-value: 1.19e-209" locus_tag="HKX69_RS29855" class="clusterblast-orf" id="dummy-9_h9_1_13"  />
</g>
<g id="a9_0014"  >
<polygon points="260,85 265,80 271,80 271,90 265,90 260,85 " style="fill:#157cd8; stroke-width:1; stroke:black; " description="&lt;b&gt;HKX69_RS29850&lt;/b&gt;&lt;br&gt;helix-turn-helix transcriptional regulator&lt;br&gt;Location: 6717325 - 6716753&lt;br&gt;&lt;br&gt;&lt;b&gt;BlastP hit with LLPMBPKK_01406&lt;/b&gt;&lt;br&gt;Percentage identity: 94&lt;br&gt;Percentage coverage: 100&lt;br&gt;BLAST bit score: 363&lt;br&gt;E-value: 3.12e-128" locus_tag="HKX69_RS29850" class="clusterblast-orf" id="dummy-9_h9_1_14"  />
</g>
<g id="a9_0015"  >
<polygon points="272,90 285,90 290,85 285,80 272,80 272,90 " style="fill:#c415d8; stroke-width:1; stroke:black; " description="&lt;b&gt;HKX69_RS29845&lt;/b&gt;&lt;br&gt;NAD(P)/FAD-dependent oxidoreductase&lt;br&gt;Location: 6716687 - 6715758&lt;br&gt;&lt;br&gt;&lt;b&gt;BlastP hit with LLPMBPKK_01407&lt;/b&gt;&lt;br&gt;Percentage identity: 85&lt;br&gt;Percentage coverage: 99&lt;br&gt;BLAST bit score: 517&lt;br&gt;E-value: 3.54e-185" locus_tag="HKX69_RS29845" class="clusterblast-orf" id="dummy-9_h9_1_15"  />
</g>
<g id="a9_0016"  >
<polygon points="293,90 318,90 323,85 318,80 293,80 293,90 " style="fill:#d87215; stroke-width:1; stroke:black; " description="&lt;b&gt;HKX69_RS29840&lt;/b&gt;&lt;br&gt;ATP-dependent DNA ligase&lt;br&gt;Location: 6715640 - 6714102&lt;br&gt;&lt;br&gt;&lt;b&gt;BlastP hit with LLPMBPKK_01408&lt;/b&gt;&lt;br&gt;Percentage identity: 92&lt;br&gt;Percentage coverage: 99&lt;br&gt;BLAST bit score: 903&lt;br&gt;E-value: 0.0" locus_tag="HKX69_RS29840" class="clusterblast-orf" id="dummy-9_h9_1_16"  />
</g>
<g id="a9_0017"  >
<polygon points="323,90 327,90 332,85 327,80 323,80 323,90 " style="fill:#15d81f; stroke-width:1; stroke:black; " description="&lt;b&gt;HKX69_RS29835&lt;/b&gt;&lt;br&gt;NUDIX domain-containing protein&lt;br&gt;Location: 6714105 - 6713632&lt;br&gt;&lt;br&gt;&lt;b&gt;BlastP hit with LLPMBPKK_01409&lt;/b&gt;&lt;br&gt;Percentage identity: 96&lt;br&gt;Percentage coverage: 99&lt;br&gt;BLAST bit score: 310&lt;br&gt;E-value: 1.99e-108" locus_tag="HKX69_RS29835" class="clusterblast-orf" id="dummy-9_h9_1_17"  />
</g>
<g id="a9_0018"  >
<polygon points="334,90 356,90 361,85 356,80 334,80 334,90 " style="fill:#155dd8; stroke-width:1; stroke:black; " description="&lt;b&gt;HKX69_RS29830&lt;/b&gt;&lt;br&gt;NADP-dependent succinic semialdehyde dehydrogenase&lt;br&gt;Location: 6713522 - 6712137&lt;br&gt;&lt;br&gt;&lt;b&gt;BlastP hit with LLPMBPKK_01410&lt;/b&gt;&lt;br&gt;Percentage identity: 96&lt;br&gt;Percentage coverage: 100&lt;br&gt;BLAST bit score: 885&lt;br&gt;E-value: 0.0" locus_tag="HKX69_RS29830" class="clusterblast-orf" id="dummy-9_h9_1_18"  />
</g>
<g id="a9_0019"  >
<polygon points="362,90 366,85 362,80 362,90 " style="fill:#d815ce; stroke-width:1; stroke:black; " description="&lt;b&gt;HKX69_RS29825&lt;/b&gt;&lt;br&gt;hypothetical protein&lt;br&gt;Location: 6712111 - 6711878&lt;br&gt;&lt;br&gt;&lt;b&gt;BlastP hit with LLPMBPKK_01411&lt;/b&gt;&lt;br&gt;Percentage identity: 94&lt;br&gt;Percentage coverage: 89&lt;br&gt;BLAST bit score: 140&lt;br&gt;E-value: 1.1e-43" locus_tag="HKX69_RS29825" class="clusterblast-orf" id="dummy-9_h9_1_19"  />
</g>
<g id="a9_0020"  >
<polygon points="374,90 389,90 394,85 389,80 374,80 374,90 " style="fill:#d89015; stroke-width:1; stroke:black; " description="&lt;b&gt;HKX69_RS29820&lt;/b&gt;&lt;br&gt;type III polyketide synthase&lt;br&gt;Location: 6711506 - 6710442&lt;br&gt;&lt;br&gt;&lt;b&gt;BlastP hit with LLPMBPKK_01412&lt;/b&gt;&lt;br&gt;Percentage identity: 94&lt;br&gt;Percentage coverage: 100&lt;br&gt;BLAST bit score: 675&lt;br&gt;E-value: 3.24e-246" locus_tag="HKX69_RS29820" class="clusterblast-orf" id="dummy-9_h9_1_20"  />
</g>
<g id="a9_0021"  >
<polygon points="394,90 413,90 418,85 413,80 394,80 394,90 " style="fill:#15d83e; stroke-width:1; stroke:black; " description="&lt;b&gt;HKX69_RS29815&lt;/b&gt;&lt;br&gt;cytochrome P450&lt;br&gt;Location: 6710445 - 6709222&lt;br&gt;&lt;br&gt;&lt;b&gt;BlastP hit with LLPMBPKK_01413&lt;/b&gt;&lt;br&gt;Percentage identity: 85&lt;br&gt;Percentage coverage: 100&lt;br&gt;BLAST bit score: 698&lt;br&gt;E-value: 9.19e-254" locus_tag="HKX69_RS29815" class="clusterblast-orf" id="dummy-9_h9_1_21"  />
</g>
<g id="a9_0022"  >
<polygon points="418,90 424,90 429,85 424,80 418,80 418,90 " style="fill:#153ed8; stroke-width:1; stroke:black; " description="&lt;b&gt;HKX69_RS29810&lt;/b&gt;&lt;br&gt;cupin domain-containing protein&lt;br&gt;Location: 6709214 - 6708693&lt;br&gt;&lt;br&gt;&lt;b&gt;BlastP hit with LLPMBPKK_01414&lt;/b&gt;&lt;br&gt;Percentage identity: 93&lt;br&gt;Percentage coverage: 100&lt;br&gt;BLAST bit score: 337&lt;br&gt;E-value: 9.93e-119" locus_tag="HKX69_RS29810" class="clusterblast-orf" id="dummy-9_h9_1_22"  />
</g>
<g id="a9_0023"  >
<polygon points="429,85 434,80 453,80 453,90 434,90 429,85 " style="fill:#d815af; stroke-width:1; stroke:black; " description="&lt;b&gt;HKX69_RS29805&lt;/b&gt;&lt;br&gt;acyl-CoA dehydrogenase family protein&lt;br&gt;Location: 6708678 - 6707428&lt;br&gt;&lt;br&gt;&lt;b&gt;BlastP hit with LLPMBPKK_01415&lt;/b&gt;&lt;br&gt;Percentage identity: 96&lt;br&gt;Percentage coverage: 102&lt;br&gt;BLAST bit score: 775&lt;br&gt;E-value: 4.9e-284" locus_tag="HKX69_RS29805" class="clusterblast-orf" id="dummy-9_h9_1_23"  />
</g>
<g id="a9_0024"  >
<polygon points="457,90 464,90 469,85 464,80 457,80 457,90 " style="fill:#d8af15; stroke-width:1; stroke:black; " description="&lt;b&gt;HKX69_RS29800&lt;/b&gt;&lt;br&gt;TetR/AcrR family transcriptional regulator&lt;br&gt;Location: 6707260 - 6706616&lt;br&gt;&lt;br&gt;&lt;b&gt;BlastP hit with LLPMBPKK_01416&lt;/b&gt;&lt;br&gt;Percentage identity: 99&lt;br&gt;Percentage coverage: 100&lt;br&gt;BLAST bit score: 418&lt;br&gt;E-value: 2.16e-149" locus_tag="HKX69_RS29800" class="clusterblast-orf" id="dummy-9_h9_1_24"  />
</g>
<g id="a9_0025"  >
<polygon points="470,85 475,80 480,80 480,90 475,90 470,85 " style="fill:#15d85d; stroke-width:1; stroke:black; " description="&lt;b&gt;HKX69_RS29795&lt;/b&gt;&lt;br&gt;peptide deformylase&lt;br&gt;Location: 6706600 - 6706046&lt;br&gt;&lt;br&gt;&lt;b&gt;BlastP hit with LLPMBPKK_01417&lt;/b&gt;&lt;br&gt;Percentage identity: 91&lt;br&gt;Percentage coverage: 95&lt;br&gt;BLAST bit score: 347&lt;br&gt;E-value: 6.14e-122" locus_tag="HKX69_RS29795" class="clusterblast-orf" id="dummy-9_h9_1_25"  />
</g>
<g id="a9_0026"  >
<polygon points="483,90 503,90 508,85 503,80 483,80 483,90 " style="fill:#151fd8; stroke-width:1; stroke:black; " description="&lt;b&gt;HKX69_RS29790&lt;/b&gt;&lt;br&gt;DUF1727 domain-containing protein&lt;br&gt;Location: 6705893 - 6704655&lt;br&gt;&lt;br&gt;&lt;b&gt;BlastP hit with LLPMBPKK_01418&lt;/b&gt;&lt;br&gt;Percentage identity: 98&lt;br&gt;Percentage coverage: 100&lt;br&gt;BLAST bit score: 803&lt;br&gt;E-value: 5.26e-295" locus_tag="HKX69_RS29790" class="clusterblast-orf" id="dummy-9_h9_1_26"  />
</g>
<g id="a9_0027"  >
<polygon points="508,90 517,90 522,85 517,80 508,80 508,90 " style="fill:#d81590; stroke-width:1; stroke:black; " description="&lt;b&gt;HKX69_RS29785&lt;/b&gt;&lt;br&gt;glutamine amidotransferase&lt;br&gt;Location: 6704625 - 6703897&lt;br&gt;&lt;br&gt;&lt;b&gt;BlastP hit with LLPMBPKK_01419&lt;/b&gt;&lt;br&gt;Percentage identity: 96&lt;br&gt;Percentage coverage: 100&lt;br&gt;BLAST bit score: 475&lt;br&gt;E-value: 7.19e-171" locus_tag="HKX69_RS29785" class="clusterblast-orf" id="dummy-9_h9_1_27"  />
</g>
<g id="a9_0028"  >
<polygon points="526,90 541,90 546,85 541,80 526,80 526,90 " style="fill:#d8ce15; stroke-width:1; stroke:black; " description="&lt;b&gt;HKX69_RS29780&lt;/b&gt;&lt;br&gt;6-phosphofructokinase&lt;br&gt;Location: 6703695 - 6702670&lt;br&gt;&lt;br&gt;&lt;b&gt;BlastP hit with LLPMBPKK_01420&lt;/b&gt;&lt;br&gt;Percentage identity: 97&lt;br&gt;Percentage coverage: 100&lt;br&gt;BLAST bit score: 656&lt;br&gt;E-value: 3.47e-239" locus_tag="HKX69_RS29780" class="clusterblast-orf" id="dummy-9_h9_1_28"  />
</g>
<g id="a9_0029"  >
<polygon points="549,90 563,90 568,85 563,80 549,80 549,90 " style="fill:#15d87c; stroke-width:1; stroke:black; " description="&lt;b&gt;HKX69_RS29775&lt;/b&gt;&lt;br&gt;cytochrome c oxidase assembly protein&lt;br&gt;Location: 6702541 - 6701591&lt;br&gt;&lt;br&gt;&lt;b&gt;BlastP hit with LLPMBPKK_01421&lt;/b&gt;&lt;br&gt;Percentage identity: 94&lt;br&gt;Percentage coverage: 100&lt;br&gt;BLAST bit score: 605&lt;br&gt;E-value: 9.32e-220" locus_tag="HKX69_RS29775" class="clusterblast-orf" id="dummy-9_h9_1_29"  />
</g>
<g id="a9_0030"  >
<polygon points="569,90 572,85 569,80 569,90 " style="fill:#2a15d8; stroke-width:1; stroke:black; " description="&lt;b&gt;HKX69_RS29770&lt;/b&gt;&lt;br&gt;hypothetical protein&lt;br&gt;Location: 6701509 - 6701342&lt;br&gt;&lt;br&gt;&lt;b&gt;BlastP hit with LLPMBPKK_01422&lt;/b&gt;&lt;br&gt;Percentage identity: 95&lt;br&gt;Percentage coverage: 100&lt;br&gt;BLAST bit score: 102&lt;br&gt;E-value: 2.06e-29" locus_tag="HKX69_RS29770" class="clusterblast-orf" id="dummy-9_h9_1_30"  />
</g>
<g id="a9_0031"  >
<polygon points="573,90 578,90 583,85 578,80 573,80 573,90 " style="fill:#d81572; stroke-width:1; stroke:black; " description="&lt;b&gt;HKX69_RS29765&lt;/b&gt;&lt;br&gt;Lrp/AsnC family transcriptional regulator&lt;br&gt;Location: 6701305 - 6700820&lt;br&gt;&lt;br&gt;&lt;b&gt;BlastP hit with LLPMBPKK_01423&lt;/b&gt;&lt;br&gt;Percentage identity: 94&lt;br&gt;Percentage coverage: 100&lt;br&gt;BLAST bit score: 293&lt;br&gt;E-value: 9.69e-102" locus_tag="HKX69_RS29765" class="clusterblast-orf" id="dummy-9_h9_1_31"  />
</g>
<g id="a9_0032"  >
<polygon points="586,90 597,90 602,85 597,80 586,80 586,90 " style="fill:#c4d815; stroke-width:1; stroke:black; " description="&lt;b&gt;HKX69_RS29760&lt;/b&gt;&lt;br&gt;amidinotransferase&lt;br&gt;Location: 6700666 - 6699857&lt;br&gt;&lt;br&gt;&lt;b&gt;BlastP hit with LLPMBPKK_01424&lt;/b&gt;&lt;br&gt;Percentage identity: 96&lt;br&gt;Percentage coverage: 100&lt;br&gt;BLAST bit score: 542&lt;br&gt;E-value: 1.72e-196" locus_tag="HKX69_RS29760" class="clusterblast-orf" id="dummy-9_h9_1_32"  />
</g>
<g id="a9_0033"  >
<polygon points="602,90 620,90 625,85 620,80 602,80 602,90 " style="fill:#15d89b; stroke-width:1; stroke:black; " description="&lt;b&gt;HKX69_RS29755&lt;/b&gt;&lt;br&gt;ornithine--oxo-acid transaminase&lt;br&gt;Location: 6699857 - 6698640&lt;br&gt;&lt;br&gt;&lt;b&gt;BlastP hit with LLPMBPKK_01425&lt;/b&gt;&lt;br&gt;Percentage identity: 95&lt;br&gt;Percentage coverage: 100&lt;br&gt;BLAST bit score: 759&lt;br&gt;E-value: 1.02e-277" locus_tag="HKX69_RS29755" class="clusterblast-orf" id="dummy-9_h9_1_33"  />
</g>
<g id="a9_0034"  >
<polygon points="626,85 631,80 639,80 639,90 631,90 626,85 " style="fill:#4915d8; stroke-width:1; stroke:black; " description="&lt;b&gt;HKX69_RS29750&lt;/b&gt;&lt;br&gt;DUF305 domain-containing protein&lt;br&gt;Location: 6698591 - 6697947&lt;br&gt;&lt;br&gt;&lt;b&gt;BlastP hit with LLPMBPKK_01426&lt;/b&gt;&lt;br&gt;Percentage identity: 72&lt;br&gt;Percentage coverage: 101&lt;br&gt;BLAST bit score: 259&lt;br&gt;E-value: 2.24e-86" locus_tag="HKX69_RS29750" class="clusterblast-orf" id="dummy-9_h9_1_34"  />
</g>
<g id="a9_0035"  >
<polygon points="641,85 646,80 648,80 648,90 646,90 641,85 " style="fill:#d81553; stroke-width:1; stroke:black; " description="&lt;b&gt;HKX69_RS29745&lt;/b&gt;&lt;br&gt;hypothetical protein&lt;br&gt;Location: 6697854 - 6697504&lt;br&gt;&lt;br&gt;&lt;b&gt;BlastP hit with LLPMBPKK_01427&lt;/b&gt;&lt;br&gt;Percentage identity: 53&lt;br&gt;Percentage coverage: 85&lt;br&gt;BLAST bit score: 108&lt;br&gt;E-value: 1.39e-29" locus_tag="HKX69_RS29745" class="clusterblast-orf" id="dummy-9_h9_1_35"  />
</g>
<g id="a9_0036"  >
<polygon points="651,85 656,80 660,80 660,90 656,90 651,85 " style="fill:white; stroke-width:1; stroke:black; " description="&lt;b&gt;HKX69_RS29740&lt;/b&gt;&lt;br&gt;cupin domain-containing protein&lt;br&gt;Location: 6697310 - 6696873" locus_tag="HKX69_RS29740" class="clusterblast-orf" id="dummy-9_h9_1_36"  />
</g>
<g id="a9_0037"  >
<polygon points="665,90 675,90 680,85 675,80 665,80 665,90 " style="fill:#a5d815; stroke-width:1; stroke:black; " description="&lt;b&gt;HKX69_RS29735&lt;/b&gt;&lt;br&gt;1-acyl-sn-glycerol-3-phosphate acyltransferase&lt;br&gt;Location: 6696588 - 6695866&lt;br&gt;&lt;br&gt;&lt;b&gt;BlastP hit with LLPMBPKK_01428&lt;/b&gt;&lt;br&gt;Percentage identity: 93&lt;br&gt;Percentage coverage: 100&lt;br&gt;BLAST bit score: 440&lt;br&gt;E-value: 4.78e-157" locus_tag="HKX69_RS29735" class="clusterblast-orf" id="dummy-9_h9_1_37"  />
</g>
<g id="a9_0038"  >
<polygon points="681,90 696,90 701,85 696,80 681,80 681,90 " style="fill:#15d8b9; stroke-width:1; stroke:black; " description="&lt;b&gt;HKX69_RS29730&lt;/b&gt;&lt;br&gt;NAD(P)-dependent oxidoreductase&lt;br&gt;Location: 6695795 - 6694785&lt;br&gt;&lt;br&gt;&lt;b&gt;BlastP hit with LLPMBPKK_01429&lt;/b&gt;&lt;br&gt;Percentage identity: 89&lt;br&gt;Percentage coverage: 99&lt;br&gt;BLAST bit score: 585&lt;br&gt;E-value: 2.13e-211" locus_tag="HKX69_RS29730" class="clusterblast-orf" id="dummy-9_h9_1_38"  />
</g>
<g id="a9_0039"  >
<polygon points="703,85 708,80 733,80 733,90 708,90 703,85 " style="fill:#6715d8; stroke-width:1; stroke:black; " description="&lt;b&gt;HKX69_RS29725&lt;/b&gt;&lt;br&gt;alpha/beta fold hydrolase&lt;br&gt;Location: 6694689 - 6693124&lt;br&gt;&lt;br&gt;&lt;b&gt;BlastP hit with LLPMBPKK_01430&lt;/b&gt;&lt;br&gt;Percentage identity: 92&lt;br&gt;Percentage coverage: 98&lt;br&gt;BLAST bit score: 996&lt;br&gt;E-value: 0.0" locus_tag="HKX69_RS29725" class="clusterblast-orf" id="dummy-9_h9_1_39"  />
</g>
<g id="a9_0040"  >
<polygon points="737,85 742,80 752,80 752,90 742,90 737,85 " style="fill:#d81534; stroke-width:1; stroke:black; " description="&lt;b&gt;HKX69_RS29720&lt;/b&gt;&lt;br&gt;urease accessory protein UreD&lt;br&gt;Location: 6692927 - 6692169&lt;br&gt;&lt;br&gt;&lt;b&gt;BlastP hit with LLPMBPKK_01431&lt;/b&gt;&lt;br&gt;Percentage identity: 86&lt;br&gt;Percentage coverage: 100&lt;br&gt;BLAST bit score: 401&lt;br&gt;E-value: 2.8e-141" locus_tag="HKX69_RS29720" class="clusterblast-orf" id="dummy-9_h9_1_40"  />
</g>
<g id="a9_0041"  >
<polygon points="752,85 757,80 765,80 765,90 757,90 752,85 " style="fill:#86d815; stroke-width:1; stroke:black; " description="&lt;b&gt;HKX69_RS29715&lt;/b&gt;&lt;br&gt;urease accessory protein UreG&lt;br&gt;Location: 6692172 - 6691495&lt;br&gt;&lt;br&gt;&lt;b&gt;BlastP hit with LLPMBPKK_01432&lt;/b&gt;&lt;br&gt;Percentage identity: 94&lt;br&gt;Percentage coverage: 100&lt;br&gt;BLAST bit score: 411&lt;br&gt;E-value: 2.78e-146" locus_tag="HKX69_RS29715" class="clusterblast-orf" id="dummy-9_h9_1_41"  />
</g>
<g id="a9_0042"  >
<polygon points="766,85 771,80 780,80 780,90 771,90 766,85 " style="fill:#15d8d8; stroke-width:1; stroke:black; " description="&lt;b&gt;HKX69_RS29710&lt;/b&gt;&lt;br&gt;urease accessory protein UreF&lt;br&gt;Location: 6691433 - 6690759&lt;br&gt;&lt;br&gt;&lt;b&gt;BlastP hit with LLPMBPKK_01433&lt;/b&gt;&lt;br&gt;Percentage identity: 90&lt;br&gt;Percentage coverage: 100&lt;br&gt;BLAST bit score: 366&lt;br&gt;E-value: 1.74e-128" locus_tag="HKX69_RS29710" class="clusterblast-orf" id="dummy-9_h9_1_42"  />
</g>
</svg>
