<svg xmlns="http://www.w3.org/2000/svg" xmlns:xlink="http://www.w3.org/1999/xlink" version="1.1" x="0" y="0" height="230" width="800" viewBox="0 0 800 230" preserveAspectRatio="none"  >
<g label="Query sequence" class="clusterblast-cluster"  >
<text x="5" y="20" class="clusterblast-acc"  >
Query sequence</text>
<line x1="10" y1="35" x2="778.0" y2="35" style="stroke-width:1; stroke:grey; "  />
<polygon points="26,40 28,40 33,35 28,30 26,30 26,40 " style="fill:white; stroke-width:1; stroke:black; " description="&lt;b&gt;LLPMBPKK_00467&lt;/b&gt;&lt;br&gt;pyruvate phosphate dikinase&lt;br&gt;Location: 575108 - 575282" locus_tag="LLPMBPKK_00467" class="clusterblast-orf" id="dummy-2_q0_0_all"  />
<polygon points="37,40 50,40 55,35 50,30 37,30 37,40 " style="fill:white; stroke-width:1; stroke:black; " description="&lt;b&gt;LLPMBPKK_00468&lt;/b&gt;&lt;br&gt;hypothetical protein&lt;br&gt;Location: 575385 - 575844" locus_tag="LLPMBPKK_00468" class="clusterblast-orf" id="dummy-2_q1_0_all"  />
<polygon points="65,40 83,40 88,35 83,30 65,30 65,40 " style="fill:white; stroke-width:1; stroke:black; " description="&lt;b&gt;LLPMBPKK_00469&lt;/b&gt;&lt;br&gt;proline rich protein membrane protein&lt;br&gt;Location: 576091 - 576664" locus_tag="LLPMBPKK_00469" class="clusterblast-orf" id="dummy-2_q2_0_all"  />
<polygon points="91,40 132,40 137,35 132,30 91,30 91,40 " style="fill:white; stroke-width:1; stroke:black; " description="&lt;b&gt;LLPMBPKK_00470&lt;/b&gt;&lt;br&gt;CBS domain-containing protein&lt;br&gt;Location: 576750 - 577917" locus_tag="LLPMBPKK_00470" class="clusterblast-orf" id="dummy-2_q3_0_all"  />
<polygon points="152,35 157,30 188,30 188,40 157,40 152,35 " style="fill:white; stroke-width:1; stroke:black; " description="&lt;b&gt;LLPMBPKK_00471&lt;/b&gt;&lt;br&gt;universal stress protein&lt;br&gt;Location: 578282 - 579188" locus_tag="LLPMBPKK_00471" class="clusterblast-orf" id="dummy-2_q4_0_all"  />
<polygon points="195,40 216,40 221,35 216,30 195,30 195,40 " style="fill:white; stroke-width:1; stroke:black; " description="&lt;b&gt;LLPMBPKK_00472&lt;/b&gt;&lt;br&gt;CBS domain-containing protein&lt;br&gt;Location: 579372 - 580029" locus_tag="LLPMBPKK_00472" class="clusterblast-orf" id="dummy-2_q5_0_all"  />
<polygon points="231,35 236,30 266,30 266,40 236,40 231,35 " style="fill:white; stroke-width:1; stroke:black; " description="&lt;b&gt;LLPMBPKK_00473&lt;/b&gt;&lt;br&gt;alpha/beta fold hydrolase&lt;br&gt;Location: 580275 - 581157" locus_tag="LLPMBPKK_00473" class="clusterblast-orf" id="dummy-2_q6_0_all"  />
<polygon points="268,40 282,40 287,35 282,30 268,30 268,40 " style="fill:white; stroke-width:1; stroke:black; " description="&lt;b&gt;LLPMBPKK_00474&lt;/b&gt;&lt;br&gt;MarR family transcriptional regulator&lt;br&gt;Location: 581209 - 581680" locus_tag="LLPMBPKK_00474" class="clusterblast-orf" id="dummy-2_q7_0_all"  />
<polygon points="288,35 293,30 305,30 305,40 293,40 288,35 " style="fill:white; stroke-width:1; stroke:black; " description="&lt;b&gt;LLPMBPKK_00475&lt;/b&gt;&lt;br&gt;hypothetical protein&lt;br&gt;Location: 581717 - 582158" locus_tag="LLPMBPKK_00475" class="clusterblast-orf" id="dummy-2_q8_0_all"  />
<polygon points="308,40 328,40 333,35 328,30 308,30 308,40 " style="fill:white; stroke-width:1; stroke:black; " description="&lt;b&gt;LLPMBPKK_00476&lt;/b&gt;&lt;br&gt;TetR family transcriptional regulator&lt;br&gt;Location: 582224 - 582851" locus_tag="LLPMBPKK_00476" class="clusterblast-orf" id="dummy-2_q9_0_all"  />
<polygon points="340,35 345,30 372,30 372,40 345,40 340,35 " style="fill:#d81515; stroke-width:1; stroke:black; " description="&lt;b&gt;LLPMBPKK_00477&lt;/b&gt;&lt;br&gt;alpha/beta fold hydrolase&lt;br&gt;Location: 583023 - 583836" locus_tag="LLPMBPKK_00477" class="clusterblast-orf" id="dummy-2_q10_0_all"  />
<polygon points="372,35 377,30 394,30 394,40 377,40 372,35 " style="fill:#15d8d8; stroke-width:1; stroke:black; " description="&lt;b&gt;LLPMBPKK_00478&lt;/b&gt;&lt;br&gt;hypothetical protein&lt;br&gt;Location: 583836 - 584379" locus_tag="LLPMBPKK_00478" class="clusterblast-orf" id="dummy-2_q11_0_all"  />
<polygon points="396,35 401,30 430,30 430,40 401,40 396,35 " style="fill:white; stroke-width:1; stroke:black; " description="&lt;b&gt;LLPMBPKK_00479&lt;/b&gt;&lt;br&gt;hypothetical protein&lt;br&gt;Location: 584434 - 585301" locus_tag="LLPMBPKK_00479" class="clusterblast-orf" id="dummy-2_q12_0_all"  />
<polygon points="433,35 438,30 449,30 449,40 438,40 433,35 " style="fill:white; stroke-width:1; stroke:black; " description="&lt;b&gt;LLPMBPKK_00480&lt;/b&gt;&lt;br&gt;hypothetical protein&lt;br&gt;Location: 585375 - 585789" locus_tag="LLPMBPKK_00480" class="clusterblast-orf" id="dummy-2_q13_0_all"  />
<polygon points="453,40 473,40 478,35 473,30 453,30 453,40 " style="fill:white; stroke-width:1; stroke:black; " description="&lt;b&gt;LLPMBPKK_00481&lt;/b&gt;&lt;br&gt;TetR/AcrR family transcriptional regulator&lt;br&gt;Location: 585881 - 586511" locus_tag="LLPMBPKK_00481" class="clusterblast-orf" id="dummy-2_q14_0_all"  />
<polygon points="489,35 494,30 500,30 500,40 494,40 489,35 " style="fill:white; stroke-width:1; stroke:black; " description="&lt;b&gt;LLPMBPKK_00482&lt;/b&gt;&lt;br&gt;hypothetical protein&lt;br&gt;Location: 586798 - 587071" locus_tag="LLPMBPKK_00482" class="clusterblast-orf" id="dummy-2_q15_0_all"  />
<polygon points="519,35 524,30 526,30 526,40 524,40 519,35 " style="fill:white; stroke-width:1; stroke:black; " description="&lt;b&gt;LLPMBPKK_00483&lt;/b&gt;&lt;br&gt;hypothetical protein&lt;br&gt;Location: 587549 - 587720" locus_tag="LLPMBPKK_00483" class="clusterblast-orf" id="dummy-2_q16_0_all"  />
<polygon points="529,40 529,40 534,35 529,30 529,30 529,40 " style="fill:white; stroke-width:1; stroke:black; " description="&lt;b&gt;LLPMBPKK_00484&lt;/b&gt;&lt;br&gt;hypothetical protein&lt;br&gt;Location: 587807 - 587933" locus_tag="LLPMBPKK_00484" class="clusterblast-orf" id="dummy-2_q17_0_all"  />
<polygon points="548,35 553,30 582,30 582,40 553,40 548,35 " style="fill:white; stroke-width:1; stroke:black; " description="&lt;b&gt;LLPMBPKK_00485&lt;/b&gt;&lt;br&gt;RNA polymerase sigma factor sig8&lt;br&gt;Location: 588280 - 589126" locus_tag="LLPMBPKK_00485" class="clusterblast-orf" id="dummy-2_q18_0_all"  />
<polygon points="593,40 599,40 604,35 599,30 593,30 593,40 " style="fill:white; stroke-width:1; stroke:black; " description="&lt;b&gt;LLPMBPKK_00486&lt;/b&gt;&lt;br&gt;hypothetical protein&lt;br&gt;Location: 589413 - 589701" locus_tag="LLPMBPKK_00486" class="clusterblast-orf" id="dummy-2_q19_0_all"  />
<polygon points="609,35 614,30 704,30 704,40 614,40 609,35 " style="fill:white; stroke-width:1; stroke:black; " description="&lt;b&gt;LLPMBPKK_00487&lt;/b&gt;&lt;br&gt;SARP family transcriptional regulator&lt;br&gt;Location: 589823 - 592199" locus_tag="LLPMBPKK_00487" class="clusterblast-orf" id="dummy-2_q20_0_all"  />
<polygon points="718,35 723,30 754,30 754,40 723,40 718,35 " style="fill:white; stroke-width:1; stroke:black; " description="&lt;b&gt;LLPMBPKK_00488&lt;/b&gt;&lt;br&gt;ECF subfamily RNA polymerase sigma-70 factor&lt;br&gt;Location: 592571 - 593468" locus_tag="LLPMBPKK_00488" class="clusterblast-orf" id="dummy-2_q21_0_all"  />
</g>
<g label="NZ_FOJM01000011" description="NZ_FOJM01000011 (67629-88181): Pedobacter suwonensis strain DSM 18130, whole ... (11% of genes show similarity), linaridin" class="clusterblast-cluster"  >
<text x="5" y="70" class="clusterblast-acc"  >
<a xlink:href="https://antismash-db.secondarymetabolites.org/area.html?record=NZ_FOJM01000011&amp;start=67629&amp;end=88181" target="_blank">NZ_FOJM01000011 (67629-88181)</a>: Pedobacter suwonensis strain DSM 18130, whole ... (11% of genes show similarity), linaridin</text>
<line x1="10" y1="85" x2="778.0" y2="85" style="stroke-width:1; stroke:grey; "  />
</g>
<g id="a2_000"  >
<polygon points="0,90 68,90 73,85 68,80 0,80 0,90 " style="fill:white; stroke-width:1; stroke:black; " description="&lt;b&gt;BM107_RS15155&lt;/b&gt;&lt;br&gt;malto-oligosyltrehalose trehalohydrolase&lt;br&gt;Location: 87542 - 85683" locus_tag="BM107_RS15155" class="clusterblast-orf" id="dummy-2_h2_8_0"  />
</g>
<g id="a2_001"  >
<polygon points="73,90 229,90 234,85 229,80 73,80 73,90 " style="fill:white; stroke-width:1; stroke:black; " description="&lt;b&gt;BM107_RS15150&lt;/b&gt;&lt;br&gt;malto-oligosyltrehalose synthase&lt;br&gt;Location: 85690 - 81638" locus_tag="BM107_RS15150" class="clusterblast-orf" id="dummy-2_h2_8_1"  />
</g>
<g id="a2_002"  >
<polygon points="249,90 267,90 272,85 267,80 249,80 249,90 " style="fill:white; stroke-width:1; stroke:black; " description="&lt;b&gt;BM107_RS15145&lt;/b&gt;&lt;br&gt;adenylate kinase&lt;br&gt;Location: 81247 - 80672" locus_tag="BM107_RS15145" class="clusterblast-orf" id="dummy-2_h2_8_2"  />
</g>
<g id="a2_003"  >
<polygon points="279,90 314,90 319,85 314,80 279,80 279,90 " style="fill:white; stroke-width:1; stroke:black; " description="&lt;b&gt;BM107_RS15140&lt;/b&gt;&lt;br&gt;GTPase ObgE&lt;br&gt;Location: 80483 - 79488" locus_tag="BM107_RS15140" class="clusterblast-orf" id="dummy-2_h2_8_3"  />
</g>
<g id="a2_004"  >
<polygon points="322,85 327,80 338,80 338,90 327,90 322,85 " style="fill:white; stroke-width:1; stroke:black; " description="&lt;b&gt;BM107_RS15135&lt;/b&gt;&lt;br&gt;DUF393 domain-containing protein&lt;br&gt;Location: 79414 - 78995" locus_tag="BM107_RS15135" class="clusterblast-orf" id="dummy-2_h2_8_4"  />
</g>
<g id="a2_005"  >
<polygon points="338,85 343,80 370,80 370,90 343,90 338,85 " style="fill:#d81515; stroke-width:1; stroke:black; " description="&lt;b&gt;BM107_RS15130&lt;/b&gt;&lt;br&gt;hypothetical protein&lt;br&gt;Location: 79010 - 78189&lt;br&gt;&lt;br&gt;&lt;b&gt;BlastP hit with LLPMBPKK_00477&lt;/b&gt;&lt;br&gt;Percentage identity: 44&lt;br&gt;Percentage coverage: 65&lt;br&gt;BLAST bit score: 129&lt;br&gt;E-value: 3.62e-34" locus_tag="BM107_RS15130" class="clusterblast-orf" id="dummy-2_h2_8_5"  />
</g>
<g id="a2_006"  >
<polygon points="371,85 376,80 392,80 392,90 376,90 371,85 " style="fill:#15d8d8; stroke-width:1; stroke:black; " description="&lt;b&gt;BM107_RS15125&lt;/b&gt;&lt;br&gt;hypothetical protein&lt;br&gt;Location: 78181 - 77630&lt;br&gt;&lt;br&gt;&lt;b&gt;BlastP hit with LLPMBPKK_00478&lt;/b&gt;&lt;br&gt;Percentage identity: 33&lt;br&gt;Percentage coverage: 93&lt;br&gt;BLAST bit score: 109&lt;br&gt;E-value: 1.4e-28" locus_tag="BM107_RS15125" class="clusterblast-orf" id="dummy-2_h2_8_6"  />
</g>
<g id="a2_007"  >
<polygon points="395,85 400,80 407,80 407,90 400,90 395,85 " style="fill:white; stroke-width:1; stroke:black; " description="&lt;b&gt;BM107_RS15120&lt;/b&gt;&lt;br&gt;hypothetical protein&lt;br&gt;Location: 77574 - 77269" locus_tag="BM107_RS15120" class="clusterblast-orf" id="dummy-2_h2_8_7"  />
</g>
<g id="a2_008"  >
<polygon points="417,85 422,80 443,80 443,90 422,90 417,85 " style="fill:white; stroke-width:1; stroke:black; " description="&lt;b&gt;BM107_RS15115&lt;/b&gt;&lt;br&gt;response regulator transcription factor&lt;br&gt;Location: 77012 - 76359" locus_tag="BM107_RS15115" class="clusterblast-orf" id="dummy-2_h2_8_8"  />
</g>
<g id="a2_009"  >
<polygon points="447,85 452,80 479,80 479,90 452,90 447,85 " style="fill:white; stroke-width:1; stroke:black; " description="&lt;b&gt;BM107_RS15110&lt;/b&gt;&lt;br&gt;hypothetical protein&lt;br&gt;Location: 76249 - 75437" locus_tag="BM107_RS15110" class="clusterblast-orf" id="dummy-2_h2_8_9"  />
</g>
<g id="a2_0010"  >
<polygon points="479,85 484,80 505,80 505,90 484,90 479,85 " style="fill:white; stroke-width:1; stroke:black; " description="&lt;b&gt;BM107_RS15105&lt;/b&gt;&lt;br&gt;hypothetical protein&lt;br&gt;Location: 75456 - 74791" locus_tag="BM107_RS15105" class="clusterblast-orf" id="dummy-2_h2_8_10"  />
</g>
<g id="a2_0011"  >
<polygon points="505,85 510,80 525,80 525,90 510,90 505,85 " style="fill:white; stroke-width:1; stroke:black; " description="&lt;b&gt;BM107_RS15100&lt;/b&gt;&lt;br&gt;hypothetical protein&lt;br&gt;Location: 74779 - 74285" locus_tag="BM107_RS15100" class="clusterblast-orf" id="dummy-2_h2_8_11"  />
</g>
<g id="a2_0012"  >
<polygon points="544,85 549,80 558,80 558,90 549,90 544,85 " style="fill:white; stroke-width:1; stroke:black; " description="&lt;b&gt;BM107_RS15095&lt;/b&gt;&lt;br&gt;YtxH domain-containing protein&lt;br&gt;Location: 73808 - 73443" locus_tag="BM107_RS15095" class="clusterblast-orf" id="dummy-2_h2_8_12"  />
</g>
<g id="a2_0013"  >
<polygon points="576,90 586,90 591,85 586,80 576,80 576,90 " style="fill:white; stroke-width:1; stroke:black; " description="&lt;b&gt;BM107_RS15090&lt;/b&gt;&lt;br&gt;OsmC family protein&lt;br&gt;Location: 73000 - 72620" locus_tag="BM107_RS15090" class="clusterblast-orf" id="dummy-2_h2_8_13"  />
</g>
<g id="a2_0014"  >
<polygon points="595,90 639,90 644,85 639,80 595,80 595,90 " style="fill:white; stroke-width:1; stroke:black; " description="&lt;b&gt;BM107_RS15085&lt;/b&gt;&lt;br&gt;DUF2130 domain-containing protein&lt;br&gt;Location: 72527 - 71277" locus_tag="BM107_RS15085" class="clusterblast-orf" id="dummy-2_h2_8_14"  />
</g>
<g id="a2_0015"  >
<polygon points="649,90 730,90 735,85 730,80 649,80 649,90 " style="fill:white; stroke-width:1; stroke:black; " description="&lt;b&gt;BM107_RS15080&lt;/b&gt;&lt;br&gt;glycoside hydrolase family 97 protein&lt;br&gt;Location: 71150 - 68994" locus_tag="BM107_RS15080" class="clusterblast-orf" id="dummy-2_h2_8_15"  />
</g>
<g id="a2_0016"  >
<polygon points="761,90 775,90 780,85 775,80 761,80 761,90 " style="fill:white; stroke-width:1; stroke:black; " description="&lt;b&gt;BM107_RS15075&lt;/b&gt;&lt;br&gt;acyl-CoA thioesterase&lt;br&gt;Location: 68333 - 67866" locus_tag="BM107_RS15075" class="clusterblast-orf" id="dummy-2_h2_8_16"  />
</g>
</svg>
