<svg xmlns="http://www.w3.org/2000/svg" xmlns:xlink="http://www.w3.org/1999/xlink" version="1.1" x="0" y="0" height="230" width="800" viewBox="0 0 800 230" preserveAspectRatio="none"  >
<g label="Query sequence" class="clusterblast-cluster"  >
<text x="5" y="20" class="clusterblast-acc"  >
Query sequence</text>
<line x1="10" y1="35" x2="778.0" y2="35" style="stroke-width:1; stroke:grey; "  />
<polygon points="0,35 5,30 7,30 7,40 5,40 0,35 " style="fill:white; stroke-width:1; stroke:black; " description="&lt;b&gt;LLPMBPKK_02177&lt;/b&gt;&lt;br&gt;5-dehydro-4-deoxyglucarate dehydratase&lt;br&gt;Location: 2510113 - 2511055" locus_tag="LLPMBPKK_02177" class="clusterblast-orf" id="dummy-12_q0_0_all"  />
<polygon points="9,40 11,40 16,35 11,30 9,30 9,40 " style="fill:white; stroke-width:1; stroke:black; " description="&lt;b&gt;LLPMBPKK_02178&lt;/b&gt;&lt;br&gt;NAD(P)-dependent oxidoreductase&lt;br&gt;Location: 2511287 - 2512097" locus_tag="LLPMBPKK_02178" class="clusterblast-orf" id="dummy-12_q1_0_all"  />
<polygon points="18,40 20,40 25,35 20,30 18,30 18,40 " style="fill:white; stroke-width:1; stroke:black; " description="&lt;b&gt;LLPMBPKK_02179&lt;/b&gt;&lt;br&gt;DeoR/GlpR transcriptional regulator&lt;br&gt;Location: 2512373 - 2513186" locus_tag="LLPMBPKK_02179" class="clusterblast-orf" id="dummy-12_q2_0_all"  />
<polygon points="25,40 32,40 37,35 32,30 25,30 25,40 " style="fill:white; stroke-width:1; stroke:black; " description="&lt;b&gt;LLPMBPKK_02180&lt;/b&gt;&lt;br&gt;sugar ABC transporter substrate-binding protein&lt;br&gt;Location: 2513275 - 2514646" locus_tag="LLPMBPKK_02180" class="clusterblast-orf" id="dummy-12_q3_0_all"  />
<polygon points="36,40 39,40 44,35 39,30 36,30 36,40 " style="fill:white; stroke-width:1; stroke:black; " description="&lt;b&gt;LLPMBPKK_02181&lt;/b&gt;&lt;br&gt;sugar ABC transporter permease&lt;br&gt;Location: 2514642 - 2515581" locus_tag="LLPMBPKK_02181" class="clusterblast-orf" id="dummy-12_q4_0_all"  />
<polygon points="44,40 46,40 51,35 46,30 44,30 44,40 " style="fill:white; stroke-width:1; stroke:black; " description="&lt;b&gt;LLPMBPKK_02182&lt;/b&gt;&lt;br&gt;integral membrane sugar transport protein&lt;br&gt;Location: 2515577 - 2516405" locus_tag="LLPMBPKK_02182" class="clusterblast-orf" id="dummy-12_q5_0_all"  />
<polygon points="51,40 54,40 59,35 54,30 51,30 51,40 " style="fill:white; stroke-width:1; stroke:black; " description="&lt;b&gt;LLPMBPKK_02183&lt;/b&gt;&lt;br&gt;alcohol dehydrogenase&lt;br&gt;Location: 2516401 - 2517391" locus_tag="LLPMBPKK_02183" class="clusterblast-orf" id="dummy-12_q6_0_all"  />
<polygon points="59,40 64,40 69,35 64,30 59,30 59,40 " style="fill:white; stroke-width:1; stroke:black; " description="&lt;b&gt;LLPMBPKK_02184&lt;/b&gt;&lt;br&gt;transport-associated protein&lt;br&gt;Location: 2517461 - 2518685" locus_tag="LLPMBPKK_02184" class="clusterblast-orf" id="dummy-12_q7_0_all"  />
<polygon points="70,35 74,30 74,40 70,35 " style="fill:white; stroke-width:1; stroke:black; " description="&lt;b&gt;LLPMBPKK_02185&lt;/b&gt;&lt;br&gt;TetR/AcrR family transcriptional regulator&lt;br&gt;Location: 2518732 - 2519305" locus_tag="LLPMBPKK_02185" class="clusterblast-orf" id="dummy-12_q8_0_all"  />
<polygon points="75,35 80,30 87,30 87,40 80,40 75,35 " style="fill:white; stroke-width:1; stroke:black; " description="&lt;b&gt;LLPMBPKK_02186&lt;/b&gt;&lt;br&gt;hypothetical protein&lt;br&gt;Location: 2519411 - 2520863" locus_tag="LLPMBPKK_02186" class="clusterblast-orf" id="dummy-12_q9_0_all"  />
<polygon points="89,35 94,30 101,30 101,40 94,40 89,35 " style="fill:white; stroke-width:1; stroke:black; " description="&lt;b&gt;LLPMBPKK_02187&lt;/b&gt;&lt;br&gt;plasmid pRiA4b ORF-3 family protein&lt;br&gt;Location: 2521087 - 2522512" locus_tag="LLPMBPKK_02187" class="clusterblast-orf" id="dummy-12_q10_0_all"  />
<polygon points="103,40 113,40 118,35 113,30 103,30 103,40 " style="fill:white; stroke-width:1; stroke:black; " description="&lt;b&gt;LLPMBPKK_02188&lt;/b&gt;&lt;br&gt;large secreted protein&lt;br&gt;Location: 2522777 - 2524604" locus_tag="LLPMBPKK_02188" class="clusterblast-orf" id="dummy-12_q11_0_all"  />
<polygon points="118,35 123,30 123,30 123,40 123,40 118,35 " style="fill:white; stroke-width:1; stroke:black; " description="&lt;b&gt;LLPMBPKK_02189&lt;/b&gt;&lt;br&gt;hypothetical protein&lt;br&gt;Location: 2524691 - 2525225" locus_tag="LLPMBPKK_02189" class="clusterblast-orf" id="dummy-12_q12_0_all"  />
<polygon points="124,40 126,40 131,35 126,30 124,30 124,40 " style="fill:white; stroke-width:1; stroke:black; " description="&lt;b&gt;LLPMBPKK_02190&lt;/b&gt;&lt;br&gt;4-hydroxy-tetrahydrodipicolinate synthase&lt;br&gt;Location: 2525357 - 2526257" locus_tag="LLPMBPKK_02190" class="clusterblast-orf" id="dummy-12_q13_0_all"  />
<polygon points="131,35 136,30 143,30 143,40 136,40 131,35 " style="fill:#d81515; stroke-width:1; stroke:black; " description="&lt;b&gt;LLPMBPKK_02191&lt;/b&gt;&lt;br&gt;FAD-dependent oxidoreductase&lt;br&gt;Location: 2526267 - 2527743" locus_tag="LLPMBPKK_02191" class="clusterblast-orf" id="dummy-12_q14_0_all"  />
<polygon points="143,35 148,30 152,30 152,40 148,40 143,35 " style="fill:#60d815; stroke-width:1; stroke:black; " description="&lt;b&gt;LLPMBPKK_02192&lt;/b&gt;&lt;br&gt;O-methyltransferase&lt;br&gt;Location: 2527739 - 2528768" locus_tag="LLPMBPKK_02192" class="clusterblast-orf" id="dummy-12_q15_0_all"  />
<polygon points="152,35 157,30 159,30 159,40 157,40 152,35 " style="fill:#15abd8; stroke-width:1; stroke:black; " description="&lt;b&gt;LLPMBPKK_02193&lt;/b&gt;&lt;br&gt;NAD(P)-dependent oxidoreductase&lt;br&gt;Location: 2528764 - 2529733" locus_tag="LLPMBPKK_02193" class="clusterblast-orf" id="dummy-12_q16_0_all"  />
<polygon points="159,35 164,30 183,30 183,40 164,40 159,35 " style="fill:#8d15d8; stroke-width:1; stroke:black; " description="&lt;b&gt;LLPMBPKK_02194&lt;/b&gt;&lt;br&gt;alpha/beta fold hydrolase&lt;br&gt;Location: 2529725 - 2532581" locus_tag="LLPMBPKK_02194" class="clusterblast-orf" id="dummy-12_q17_0_all"  />
<polygon points="183,35 188,30 193,30 193,40 188,40 183,35 " style="fill:#d84215; stroke-width:1; stroke:black; " description="&lt;b&gt;LLPMBPKK_02195&lt;/b&gt;&lt;br&gt;FAD-dependent oxidoreductase&lt;br&gt;Location: 2532577 - 2533861" locus_tag="LLPMBPKK_02195" class="clusterblast-orf" id="dummy-12_q18_0_all"  />
<polygon points="193,35 195,30 195,40 193,35 " style="fill:#33d815; stroke-width:1; stroke:black; " description="&lt;b&gt;LLPMBPKK_02196&lt;/b&gt;&lt;br&gt;ferredoxin&lt;br&gt;Location: 2533875 - 2534070" locus_tag="LLPMBPKK_02196" class="clusterblast-orf" id="dummy-12_q19_0_all"  />
<polygon points="195,35 200,30 202,30 202,40 200,40 195,35 " style="fill:#157ed8; stroke-width:1; stroke:black; " description="&lt;b&gt;LLPMBPKK_02197&lt;/b&gt;&lt;br&gt;regulatory protein&lt;br&gt;Location: 2534081 - 2534903" locus_tag="LLPMBPKK_02197" class="clusterblast-orf" id="dummy-12_q20_0_all"  />
<polygon points="202,35 207,30 215,30 215,40 207,40 202,35 " style="fill:#d81515; stroke-width:1; stroke:black; " description="&lt;b&gt;LLPMBPKK_02198&lt;/b&gt;&lt;br&gt;3-(3-hydroxy-phenyl)propionate/3-hydroxycinnamica cid hydroxylase&lt;br&gt;Location: 2534968 - 2536612" locus_tag="LLPMBPKK_02198" class="clusterblast-orf" id="dummy-12_q21_0_all"  />
<polygon points="216,35 221,30 224,30 224,40 221,40 216,35 " style="fill:#8d15d8; stroke-width:1; stroke:black; " description="&lt;b&gt;LLPMBPKK_02199&lt;/b&gt;&lt;br&gt;oxidoreductase&lt;br&gt;Location: 2536626 - 2537607" locus_tag="LLPMBPKK_02199" class="clusterblast-orf" id="dummy-12_q22_0_all"  />
<polygon points="226,40 226,40 231,35 226,30 226,30 226,40 " style="fill:#ba15d8; stroke-width:1; stroke:black; " description="&lt;b&gt;LLPMBPKK_02200&lt;/b&gt;&lt;br&gt;hypothetical protein&lt;br&gt;Location: 2537952 - 2538570" locus_tag="LLPMBPKK_02200" class="clusterblast-orf" id="dummy-12_q23_0_all"  />
<polygon points="233,40 295,40 300,35 295,30 233,30 233,40 " style="fill:#8d15d8; stroke-width:1; stroke:black; " description="&lt;b&gt;LLPMBPKK_02201&lt;/b&gt;&lt;br&gt;hypothetical protein&lt;br&gt;Location: 2538786 - 2547030" locus_tag="LLPMBPKK_02201" class="clusterblast-orf" id="dummy-12_q24_0_all"  />
<polygon points="301,40 396,40 401,35 396,30 301,30 301,40 " style="fill:#8d15d8; stroke-width:1; stroke:black; " description="&lt;b&gt;LLPMBPKK_02202&lt;/b&gt;&lt;br&gt;type I polyketide synthase&lt;br&gt;Location: 2547086 - 2559347" locus_tag="LLPMBPKK_02202" class="clusterblast-orf" id="dummy-12_q25_0_all"  />
<polygon points="401,40 436,40 441,35 436,30 401,30 401,40 " style="fill:#8d15d8; stroke-width:1; stroke:black; " description="&lt;b&gt;LLPMBPKK_02203&lt;/b&gt;&lt;br&gt;type I polyketide synthase&lt;br&gt;Location: 2559378 - 2564334" locus_tag="LLPMBPKK_02203" class="clusterblast-orf" id="dummy-12_q26_0_all"  />
<polygon points="441,40 484,40 489,35 484,30 441,30 441,40 " style="fill:#8d15d8; stroke-width:1; stroke:black; " description="&lt;b&gt;LLPMBPKK_02204&lt;/b&gt;&lt;br&gt;type I polyketide synthase&lt;br&gt;Location: 2564330 - 2570150" locus_tag="LLPMBPKK_02204" class="clusterblast-orf" id="dummy-12_q27_0_all"  />
<polygon points="489,40 535,40 540,35 535,30 489,30 489,40 " style="fill:#8d15d8; stroke-width:1; stroke:black; " description="&lt;b&gt;LLPMBPKK_02205&lt;/b&gt;&lt;br&gt;type I polyketide synthase&lt;br&gt;Location: 2570188 - 2576428" locus_tag="LLPMBPKK_02205" class="clusterblast-orf" id="dummy-12_q28_0_all"  />
<polygon points="540,40 545,40 550,35 545,30 540,30 540,40 " style="fill:#d86f15; stroke-width:1; stroke:black; " description="&lt;b&gt;LLPMBPKK_02206&lt;/b&gt;&lt;br&gt;cytochrome P450&lt;br&gt;Location: 2576482 - 2577718" locus_tag="LLPMBPKK_02206" class="clusterblast-orf" id="dummy-12_q29_0_all"  />
<polygon points="551,40 554,35 551,30 551,40 " style="fill:white; stroke-width:1; stroke:black; " description="&lt;b&gt;LLPMBPKK_02207&lt;/b&gt;&lt;br&gt;SnoaL-like domain protein&lt;br&gt;Location: 2577757 - 2578228" locus_tag="LLPMBPKK_02207" class="clusterblast-orf" id="dummy-12_q30_0_all"  />
<polygon points="555,40 557,40 562,35 557,30 555,30 555,40 " style="fill:#15d824; stroke-width:1; stroke:black; " description="&lt;b&gt;LLPMBPKK_02208&lt;/b&gt;&lt;br&gt;SDR family oxidoreductase&lt;br&gt;Location: 2578309 - 2579110" locus_tag="LLPMBPKK_02208" class="clusterblast-orf" id="dummy-12_q31_0_all"  />
<polygon points="562,35 567,30 573,30 573,40 567,40 562,35 " style="fill:#1551d8; stroke-width:1; stroke:black; " description="&lt;b&gt;LLPMBPKK_02209&lt;/b&gt;&lt;br&gt;Bacterial regulatory proteins, luxR family&lt;br&gt;Location: 2579160 - 2580513" locus_tag="LLPMBPKK_02209" class="clusterblast-orf" id="dummy-12_q32_0_all"  />
<polygon points="577,40 582,40 587,35 582,30 577,30 577,40 " style="fill:#d815c9; stroke-width:1; stroke:black; " description="&lt;b&gt;LLPMBPKK_02210&lt;/b&gt;&lt;br&gt;transcriptional regulator&lt;br&gt;Location: 2581050 - 2582205" locus_tag="LLPMBPKK_02210" class="clusterblast-orf" id="dummy-12_q33_0_all"  />
<polygon points="587,40 589,40 594,35 589,30 587,30 587,40 " style="fill:#15d824; stroke-width:1; stroke:black; " description="&lt;b&gt;LLPMBPKK_02211&lt;/b&gt;&lt;br&gt;3-oxoacyl-ACP reductase&lt;br&gt;Location: 2582238 - 2583024" locus_tag="LLPMBPKK_02211" class="clusterblast-orf" id="dummy-12_q34_0_all"  />
<polygon points="594,35 599,30 608,30 608,40 599,40 594,35 " style="fill:white; stroke-width:1; stroke:black; " description="&lt;b&gt;LLPMBPKK_02212&lt;/b&gt;&lt;br&gt;biotin/lipoyl-binding protein&lt;br&gt;Location: 2583043 - 2584816" locus_tag="LLPMBPKK_02212" class="clusterblast-orf" id="dummy-12_q35_0_all"  />
<polygon points="608,35 613,30 614,30 614,40 613,40 608,35 " style="fill:#d89c15; stroke-width:1; stroke:black; " description="&lt;b&gt;LLPMBPKK_02213&lt;/b&gt;&lt;br&gt;4'-phosphopantetheinyl transferase superfamilyprotein&lt;br&gt;Location: 2584821 - 2585505" locus_tag="LLPMBPKK_02213" class="clusterblast-orf" id="dummy-12_q36_0_all"  />
<polygon points="614,35 619,30 622,30 622,40 619,40 614,35 " style="fill:#15d851; stroke-width:1; stroke:black; " description="&lt;b&gt;LLPMBPKK_02214&lt;/b&gt;&lt;br&gt;3-oxoacyl-ACP synthase&lt;br&gt;Location: 2585497 - 2586580" locus_tag="LLPMBPKK_02214" class="clusterblast-orf" id="dummy-12_q37_0_all"  />
<polygon points="624,40 627,35 624,30 624,40 " style="fill:#1524d8; stroke-width:1; stroke:black; " description="&lt;b&gt;LLPMBPKK_02215&lt;/b&gt;&lt;br&gt;acyl carrier protein&lt;br&gt;Location: 2586825 - 2587098" locus_tag="LLPMBPKK_02215" class="clusterblast-orf" id="dummy-12_q38_0_all"  />
<polygon points="627,40 632,40 637,35 632,30 627,30 627,40 " style="fill:#d8159c; stroke-width:1; stroke:black; " description="&lt;b&gt;LLPMBPKK_02216&lt;/b&gt;&lt;br&gt;beta-ketoacyl-[acyl-carrier-protein] synthasefamily protein&lt;br&gt;Location: 2587090 - 2588317" locus_tag="LLPMBPKK_02216" class="clusterblast-orf" id="dummy-12_q39_0_all"  />
<polygon points="637,40 642,40 647,35 642,30 637,30 637,40 " style="fill:#d8c915; stroke-width:1; stroke:black; " description="&lt;b&gt;LLPMBPKK_02217&lt;/b&gt;&lt;br&gt;hypothetical protein&lt;br&gt;Location: 2588313 - 2589528" locus_tag="LLPMBPKK_02217" class="clusterblast-orf" id="dummy-12_q40_0_all"  />
<polygon points="648,40 649,40 654,35 649,30 648,30 648,40 " style="fill:#15d87e; stroke-width:1; stroke:black; " description="&lt;b&gt;LLPMBPKK_02218&lt;/b&gt;&lt;br&gt;transcriptional regulator&lt;br&gt;Location: 2589718 - 2590441" locus_tag="LLPMBPKK_02218" class="clusterblast-orf" id="dummy-12_q41_0_all"  />
<polygon points="653,35 658,30 660,30 660,40 658,40 653,35 " style="fill:#15d824; stroke-width:1; stroke:black; " description="&lt;b&gt;LLPMBPKK_02219&lt;/b&gt;&lt;br&gt;short-chain dehydrogenase/reductase SDR&lt;br&gt;Location: 2590380 - 2591151" locus_tag="LLPMBPKK_02219" class="clusterblast-orf" id="dummy-12_q42_0_all"  />
<polygon points="660,35 665,30 667,30 667,40 665,40 660,35 " style="fill:#3315d8; stroke-width:1; stroke:black; " description="&lt;b&gt;LLPMBPKK_02220&lt;/b&gt;&lt;br&gt;butenolide phosphate reductase BprA&lt;br&gt;Location: 2591216 - 2592101" locus_tag="LLPMBPKK_02220" class="clusterblast-orf" id="dummy-12_q43_0_all"  />
<polygon points="667,35 672,30 673,30 673,40 672,40 667,35 " style="fill:#15d87e; stroke-width:1; stroke:black; " description="&lt;b&gt;LLPMBPKK_02221&lt;/b&gt;&lt;br&gt;TetR/AcrR family transcriptional regulator&lt;br&gt;Location: 2592097 - 2592727" locus_tag="LLPMBPKK_02221" class="clusterblast-orf" id="dummy-12_q44_0_all"  />
<polygon points="674,40 676,40 681,35 676,30 674,30 674,40 " style="fill:#d8156f; stroke-width:1; stroke:black; " description="&lt;b&gt;LLPMBPKK_02222&lt;/b&gt;&lt;br&gt;ScbA protein&lt;br&gt;Location: 2592851 - 2593775" locus_tag="LLPMBPKK_02222" class="clusterblast-orf" id="dummy-12_q45_0_all"  />
<polygon points="682,35 687,30 689,30 689,40 687,40 682,35 " style="fill:#bad815; stroke-width:1; stroke:black; " description="&lt;b&gt;LLPMBPKK_02223&lt;/b&gt;&lt;br&gt;type 11 methyltransferase&lt;br&gt;Location: 2593908 - 2594754" locus_tag="LLPMBPKK_02223" class="clusterblast-orf" id="dummy-12_q46_0_all"  />
<polygon points="690,35 695,30 703,30 703,40 695,40 690,35 " style="fill:#15d8ab; stroke-width:1; stroke:black; " description="&lt;b&gt;LLPMBPKK_02224&lt;/b&gt;&lt;br&gt;DHA2 family efflux MFS transporter permeasesubunit&lt;br&gt;Location: 2594904 - 2596410" locus_tag="LLPMBPKK_02224" class="clusterblast-orf" id="dummy-12_q47_0_all"  />
<polygon points="704,40 704,40 709,35 704,30 704,30 704,40 " style="fill:#6015d8; stroke-width:1; stroke:black; " description="&lt;b&gt;LLPMBPKK_02225&lt;/b&gt;&lt;br&gt;TetR family transcriptional regulator&lt;br&gt;Location: 2596528 - 2597149" locus_tag="LLPMBPKK_02225" class="clusterblast-orf" id="dummy-12_q48_0_all"  />
<polygon points="710,40 713,40 718,35 713,30 710,30 710,40 " style="fill:#d8156f; stroke-width:1; stroke:black; " description="&lt;b&gt;LLPMBPKK_02226&lt;/b&gt;&lt;br&gt;gamma-butyrolactone biosynthesis protein&lt;br&gt;Location: 2597336 - 2598362" locus_tag="LLPMBPKK_02226" class="clusterblast-orf" id="dummy-12_q49_0_all"  />
<polygon points="719,40 720,40 725,35 720,30 719,30 719,40 " style="fill:#15d824; stroke-width:1; stroke:black; " description="&lt;b&gt;LLPMBPKK_02227&lt;/b&gt;&lt;br&gt;3-oxoacyl-[acyl-carrier-protein] reductase&lt;br&gt;Location: 2598410 - 2599115" locus_tag="LLPMBPKK_02227" class="clusterblast-orf" id="dummy-12_q50_0_all"  />
<polygon points="725,40 725,40 730,35 725,30 725,30 725,40 " style="fill:#d81542; stroke-width:1; stroke:black; " description="&lt;b&gt;LLPMBPKK_02228&lt;/b&gt;&lt;br&gt;HAD family phosphatase&lt;br&gt;Location: 2599150 - 2599816" locus_tag="LLPMBPKK_02228" class="clusterblast-orf" id="dummy-12_q51_0_all"  />
<polygon points="731,40 734,40 739,35 734,30 731,30 731,40 " style="fill:#8dd815; stroke-width:1; stroke:black; " description="&lt;b&gt;LLPMBPKK_02229&lt;/b&gt;&lt;br&gt;hypothetical protein&lt;br&gt;Location: 2599848 - 2600850" locus_tag="LLPMBPKK_02229" class="clusterblast-orf" id="dummy-12_q52_0_all"  />
<polygon points="740,35 745,30 748,30 748,40 745,40 740,35 " style="fill:white; stroke-width:1; stroke:black; " description="&lt;b&gt;LLPMBPKK_02230&lt;/b&gt;&lt;br&gt;2,3,4,5-tetrahydropyridine-2,6-dicarboxylate N-succinyltransferase&lt;br&gt;Location: 2600980 - 2601967" locus_tag="LLPMBPKK_02230" class="clusterblast-orf" id="dummy-12_q53_0_all"  />
<polygon points="748,35 753,30 753,30 753,40 753,40 748,35 " style="fill:white; stroke-width:1; stroke:black; " description="&lt;b&gt;LLPMBPKK_02231&lt;/b&gt;&lt;br&gt;TetR family transcriptional regulator&lt;br&gt;Location: 2602031 - 2602568" locus_tag="LLPMBPKK_02231" class="clusterblast-orf" id="dummy-12_q54_0_all"  />
<polygon points="753,35 755,30 755,40 753,35 " style="fill:white; stroke-width:1; stroke:black; " description="&lt;b&gt;LLPMBPKK_02232&lt;/b&gt;&lt;br&gt;multidrug efflux SMR transporter&lt;br&gt;Location: 2602567 - 2602891" locus_tag="LLPMBPKK_02232" class="clusterblast-orf" id="dummy-12_q55_0_all"  />
<polygon points="756,40 757,40 762,35 757,30 756,30 756,40 " style="fill:#15d8d8; stroke-width:1; stroke:black; " description="&lt;b&gt;LLPMBPKK_02233&lt;/b&gt;&lt;br&gt;alpha-L-arabinofuranosidase&lt;br&gt;Location: 2602997 - 2603738" locus_tag="LLPMBPKK_02233" class="clusterblast-orf" id="dummy-12_q56_0_all"  />
<polygon points="763,35 765,30 765,40 763,35 " style="fill:white; stroke-width:1; stroke:black; " description="&lt;b&gt;LLPMBPKK_02234&lt;/b&gt;&lt;br&gt;metal-sulfur cluster assembly factor&lt;br&gt;Location: 2603794 - 2604127" locus_tag="LLPMBPKK_02234" class="clusterblast-orf" id="dummy-12_q57_0_all"  />
<polygon points="765,35 769,30 769,40 765,35 " style="fill:white; stroke-width:1; stroke:black; " description="&lt;b&gt;LLPMBPKK_02235&lt;/b&gt;&lt;br&gt;SUF system NifU family Fe-S cluster assemblyprotein&lt;br&gt;Location: 2604123 - 2604576" locus_tag="LLPMBPKK_02235" class="clusterblast-orf" id="dummy-12_q58_0_all"  />
<polygon points="769,35 774,30 780,30 780,40 774,40 769,35 " style="fill:white; stroke-width:1; stroke:black; " description="&lt;b&gt;LLPMBPKK_02236&lt;/b&gt;&lt;br&gt;cysteine desulfurase&lt;br&gt;Location: 2604607 - 2605864" locus_tag="LLPMBPKK_02236" class="clusterblast-orf" id="dummy-12_q59_0_all"  />
</g>
<g label="NZ_CP021748" description="NZ_CP021748 (4454934-4495987): Streptomyces alboflavus strain MDJK44 chromoso... (41% of genes show similarity), PKS-like,butyrolactone" class="clusterblast-cluster"  >
<text x="5" y="70" class="clusterblast-acc"  >
<a xlink:href="https://antismash-db.secondarymetabolites.org/area.html?record=NZ_CP021748&amp;start=4454934&amp;end=4495987" target="_blank">NZ_CP021748 (4454934-4495987)</a>: Streptomyces alboflavus strain MDJK44 chromoso... (41% of genes show similarity), PKS-like,butyrolactone</text>
<line x1="10" y1="85" x2="778.0" y2="85" style="stroke-width:1; stroke:grey; "  />
</g>
<g id="a12_000"  >
<polygon points="224,85 227,80 227,90 224,85 " style="fill:white; stroke-width:1; stroke:black; " description="&lt;b&gt;SMD44_RS19740&lt;/b&gt;&lt;br&gt;metallopeptidase family protein&lt;br&gt;Location: 4455049 - 4455390" locus_tag="SMD44_RS19740" class="clusterblast-orf" id="dummy-12_h12_9_0"  />
</g>
<g id="a12_001"  >
<polygon points="228,90 236,90 241,85 236,80 228,80 228,90 " style="fill:white; stroke-width:1; stroke:black; " description="&lt;b&gt;SMD44_RS19745&lt;/b&gt;&lt;br&gt;hypothetical protein&lt;br&gt;Location: 4455543 - 4457102" locus_tag="SMD44_RS19745" class="clusterblast-orf" id="dummy-12_h12_9_1"  />
</g>
<g id="a12_002"  >
<polygon points="244,85 249,80 252,80 252,90 249,90 244,85 " style="fill:#60d815; stroke-width:1; stroke:black; " description="&lt;b&gt;SMD44_RS19755&lt;/b&gt;&lt;br&gt;methyltransferase&lt;br&gt;Location: 4457479 - 4458489&lt;br&gt;&lt;br&gt;&lt;b&gt;BlastP hit with LLPMBPKK_02192&lt;/b&gt;&lt;br&gt;Percentage identity: 33&lt;br&gt;Percentage coverage: 99&lt;br&gt;BLAST bit score: 120&lt;br&gt;E-value: 1.73e-29" locus_tag="SMD44_RS19755" class="clusterblast-orf" id="dummy-12_h12_9_2"  />
</g>
<g id="a12_003"  >
<polygon points="253,85 258,80 268,80 268,90 258,90 253,85 " style="fill:white; stroke-width:1; stroke:black; " description="&lt;b&gt;SMD44_RS19760&lt;/b&gt;&lt;br&gt;tetratricopeptide repeat protein&lt;br&gt;Location: 4458557 - 4460461" locus_tag="SMD44_RS19760" class="clusterblast-orf" id="dummy-12_h12_9_3"  />
</g>
<g id="a12_004"  >
<polygon points="270,90 274,85 270,80 270,90 " style="fill:white; stroke-width:1; stroke:black; " description="&lt;b&gt;SMD44_RS19765&lt;/b&gt;&lt;br&gt;winged helix-turn-helix transcriptional regulator&lt;br&gt;Location: 4460656 - 4461123" locus_tag="SMD44_RS19765" class="clusterblast-orf" id="dummy-12_h12_9_4"  />
</g>
<g id="a12_005"  >
<polygon points="274,85 279,80 286,80 286,90 279,90 274,85 " style="fill:#d81515; stroke-width:1; stroke:black; " description="&lt;b&gt;SMD44_RS19770&lt;/b&gt;&lt;br&gt;NAD(P)-binding protein&lt;br&gt;Location: 4461131 - 4462624&lt;br&gt;&lt;br&gt;&lt;b&gt;BlastP hit with LLPMBPKK_02191&lt;/b&gt;&lt;br&gt;Percentage identity: 76&lt;br&gt;Percentage coverage: 97&lt;br&gt;BLAST bit score: 711&lt;br&gt;E-value: 1.01e-255&lt;br&gt;&lt;br&gt;&lt;b&gt;BlastP hit with LLPMBPKK_02198&lt;/b&gt;&lt;br&gt;Percentage identity: 32&lt;br&gt;Percentage coverage: 80&lt;br&gt;BLAST bit score: 142&lt;br&gt;E-value: 7.93e-35" locus_tag="SMD44_RS19770" class="clusterblast-orf" id="dummy-12_h12_9_5"  />
</g>
<g id="a12_006"  >
<polygon points="286,85 291,80 294,80 294,90 291,90 286,85 " style="fill:#60d815; stroke-width:1; stroke:black; " description="&lt;b&gt;SMD44_RS19775&lt;/b&gt;&lt;br&gt;methyltransferase&lt;br&gt;Location: 4462630 - 4463652&lt;br&gt;&lt;br&gt;&lt;b&gt;BlastP hit with LLPMBPKK_02192&lt;/b&gt;&lt;br&gt;Percentage identity: 81&lt;br&gt;Percentage coverage: 99&lt;br&gt;BLAST bit score: 539&lt;br&gt;E-value: 5.05e-193" locus_tag="SMD44_RS19775" class="clusterblast-orf" id="dummy-12_h12_9_6"  />
</g>
<g id="a12_007"  >
<polygon points="295,85 300,80 303,80 303,90 300,90 295,85 " style="fill:#15abd8; stroke-width:1; stroke:black; " description="&lt;b&gt;SMD44_RS19780&lt;/b&gt;&lt;br&gt;NAD(P)-dependent oxidoreductase&lt;br&gt;Location: 4463741 - 4464700&lt;br&gt;&lt;br&gt;&lt;b&gt;BlastP hit with LLPMBPKK_02193&lt;/b&gt;&lt;br&gt;Percentage identity: 78&lt;br&gt;Percentage coverage: 98&lt;br&gt;BLAST bit score: 509&lt;br&gt;E-value: 1.14e-181" locus_tag="SMD44_RS19780" class="clusterblast-orf" id="dummy-12_h12_9_7"  />
</g>
<g id="a12_008"  >
<polygon points="303,85 308,80 326,80 326,90 308,90 303,85 " style="fill:#8d15d8; stroke-width:1; stroke:black; " description="&lt;b&gt;SMD44_RS19785&lt;/b&gt;&lt;br&gt;AMP-binding protein&lt;br&gt;Location: 4464733 - 4467566&lt;br&gt;&lt;br&gt;&lt;b&gt;BlastP hit with LLPMBPKK_02194&lt;/b&gt;&lt;br&gt;Percentage identity: 57&lt;br&gt;Percentage coverage: 13&lt;br&gt;BLAST bit score: 132&lt;br&gt;E-value: 5.52e-34" locus_tag="SMD44_RS19785" class="clusterblast-orf" id="dummy-12_h12_9_8"  />
</g>
<g id="a12_009"  >
<polygon points="326,85 331,80 331,80 331,90 331,90 326,85 " style="fill:white; stroke-width:1; stroke:black; " description="&lt;b&gt;SMD44_RS19790&lt;/b&gt;&lt;br&gt;HAD-IB family hydrolase&lt;br&gt;Location: 4467602 - 4468210" locus_tag="SMD44_RS19790" class="clusterblast-orf" id="dummy-12_h12_9_9"  />
</g>
<g id="a12_0010"  >
<polygon points="333,85 338,80 341,80 341,90 338,90 333,85 " style="fill:#d8156f; stroke-width:1; stroke:black; " description="&lt;b&gt;SMD44_RS19795&lt;/b&gt;&lt;br&gt;hypothetical protein&lt;br&gt;Location: 4468383 - 4469369&lt;br&gt;&lt;br&gt;&lt;b&gt;BlastP hit with LLPMBPKK_02226&lt;/b&gt;&lt;br&gt;Percentage identity: 42&lt;br&gt;Percentage coverage: 95&lt;br&gt;BLAST bit score: 203&lt;br&gt;E-value: 5.35e-61" locus_tag="SMD44_RS19795" class="clusterblast-orf" id="dummy-12_h12_9_10"  />
</g>
<g id="a12_0011"  >
<polygon points="341,85 346,80 351,80 351,90 346,90 341,85 " style="fill:white; stroke-width:1; stroke:black; " description="&lt;b&gt;SMD44_RS19800&lt;/b&gt;&lt;br&gt;MFS transporter&lt;br&gt;Location: 4469412 - 4470611" locus_tag="SMD44_RS19800" class="clusterblast-orf" id="dummy-12_h12_9_11"  />
</g>
<g id="a12_0012"  >
<polygon points="352,85 357,80 360,80 360,90 357,90 352,85 " style="fill:white; stroke-width:1; stroke:black; " description="&lt;b&gt;SMD44_RS19805&lt;/b&gt;&lt;br&gt;aldo/keto reductase&lt;br&gt;Location: 4470692 - 4471759" locus_tag="SMD44_RS19805" class="clusterblast-orf" id="dummy-12_h12_9_12"  />
</g>
<g id="a12_0013"  >
<polygon points="361,85 366,80 371,80 371,90 366,90 361,85 " style="fill:#d8c915; stroke-width:1; stroke:black; " description="&lt;b&gt;SMD44_RS19810&lt;/b&gt;&lt;br&gt;hypothetical protein&lt;br&gt;Location: 4471876 - 4473033&lt;br&gt;&lt;br&gt;&lt;b&gt;BlastP hit with LLPMBPKK_02217&lt;/b&gt;&lt;br&gt;Percentage identity: 59&lt;br&gt;Percentage coverage: 97&lt;br&gt;BLAST bit score: 377&lt;br&gt;E-value: 3.21e-127" locus_tag="SMD44_RS19810" class="clusterblast-orf" id="dummy-12_h12_9_13"  />
</g>
<g id="a12_0014"  >
<polygon points="371,85 376,80 381,80 381,90 376,90 371,85 " style="fill:#d8159c; stroke-width:1; stroke:black; " description="&lt;b&gt;SMD44_RS19815&lt;/b&gt;&lt;br&gt;beta-ketoacyl-[acyl-carrier-protein] synthase family protein&lt;br&gt;Location: 4473030 - 4474268&lt;br&gt;&lt;br&gt;&lt;b&gt;BlastP hit with LLPMBPKK_02216&lt;/b&gt;&lt;br&gt;Percentage identity: 76&lt;br&gt;Percentage coverage: 98&lt;br&gt;BLAST bit score: 590&lt;br&gt;E-value: 7.47e-211" locus_tag="SMD44_RS19815" class="clusterblast-orf" id="dummy-12_h12_9_14"  />
</g>
<g id="a12_0015"  >
<polygon points="381,85 383,80 383,90 381,85 " style="fill:#1524d8; stroke-width:1; stroke:black; " description="&lt;b&gt;SMD44_RS19820&lt;/b&gt;&lt;br&gt;polyketide-8 synthase acyl carrier protein&lt;br&gt;Location: 4474261 - 4474533&lt;br&gt;&lt;br&gt;&lt;b&gt;BlastP hit with LLPMBPKK_02215&lt;/b&gt;&lt;br&gt;Percentage identity: 59&lt;br&gt;Percentage coverage: 98&lt;br&gt;BLAST bit score: 104&lt;br&gt;E-value: 5.5e-29" locus_tag="SMD44_RS19820" class="clusterblast-orf" id="dummy-12_h12_9_15"  />
</g>
<g id="a12_0016"  >
<polygon points="386,90 390,90 395,85 390,80 386,80 386,90 " style="fill:#15d851; stroke-width:1; stroke:black; " description="&lt;b&gt;SMD44_RS19825&lt;/b&gt;&lt;br&gt;3-oxoacyl-ACP synthase&lt;br&gt;Location: 4474935 - 4475987&lt;br&gt;&lt;br&gt;&lt;b&gt;BlastP hit with LLPMBPKK_02214&lt;/b&gt;&lt;br&gt;Percentage identity: 58&lt;br&gt;Percentage coverage: 98&lt;br&gt;BLAST bit score: 388&lt;br&gt;E-value: 8.01e-133" locus_tag="SMD44_RS19825" class="clusterblast-orf" id="dummy-12_h12_9_16"  />
</g>
<g id="a12_0017"  >
<polygon points="395,90 396,90 401,85 396,80 395,80 395,90 " style="fill:#15d824; stroke-width:1; stroke:black; " description="&lt;b&gt;SMD44_RS19830&lt;/b&gt;&lt;br&gt;SDR family oxidoreductase&lt;br&gt;Location: 4476057 - 4476761&lt;br&gt;&lt;br&gt;&lt;b&gt;BlastP hit with LLPMBPKK_02208&lt;/b&gt;&lt;br&gt;Percentage identity: 32&lt;br&gt;Percentage coverage: 93&lt;br&gt;BLAST bit score: 89&lt;br&gt;E-value: 2.73e-19&lt;br&gt;&lt;br&gt;&lt;b&gt;BlastP hit with LLPMBPKK_02211&lt;/b&gt;&lt;br&gt;Percentage identity: 35&lt;br&gt;Percentage coverage: 97&lt;br&gt;BLAST bit score: 98&lt;br&gt;E-value: 1.65e-22&lt;br&gt;&lt;br&gt;&lt;b&gt;BlastP hit with LLPMBPKK_02227&lt;/b&gt;&lt;br&gt;Percentage identity: 59&lt;br&gt;Percentage coverage: 100&lt;br&gt;BLAST bit score: 268&lt;br&gt;E-value: 2.28e-89" locus_tag="SMD44_RS19830" class="clusterblast-orf" id="dummy-12_h12_9_17"  />
</g>
<g id="a12_0018"  >
<polygon points="401,85 406,80 407,80 407,90 406,90 401,85 " style="fill:#1551d8; stroke-width:1; stroke:black; " description="&lt;b&gt;SMD44_RS19835&lt;/b&gt;&lt;br&gt;response regulator transcription factor&lt;br&gt;Location: 4476707 - 4477480&lt;br&gt;&lt;br&gt;&lt;b&gt;BlastP hit with LLPMBPKK_02209&lt;/b&gt;&lt;br&gt;Percentage identity: 45&lt;br&gt;Percentage coverage: 21&lt;br&gt;BLAST bit score: 67&lt;br&gt;E-value: 2.63e-10" locus_tag="SMD44_RS19835" class="clusterblast-orf" id="dummy-12_h12_9_18"  />
</g>
<g id="a12_0019"  >
<polygon points="407,85 412,80 416,80 416,90 412,90 407,85 " style="fill:white; stroke-width:1; stroke:black; " description="&lt;b&gt;SMD44_RS19840&lt;/b&gt;&lt;br&gt;hypothetical protein&lt;br&gt;Location: 4477459 - 4478628" locus_tag="SMD44_RS19840" class="clusterblast-orf" id="dummy-12_h12_9_19"  />
</g>
<g id="a12_0020"  >
<polygon points="418,90 421,85 418,80 418,90 " style="fill:white; stroke-width:1; stroke:black; " description="&lt;b&gt;SMD44_RS19845&lt;/b&gt;&lt;br&gt;XRE family transcriptional regulator&lt;br&gt;Location: 4478819 - 4479217" locus_tag="SMD44_RS19845" class="clusterblast-orf" id="dummy-12_h12_9_20"  />
</g>
<g id="a12_0021"  >
<polygon points="422,90 426,85 422,80 422,90 " style="fill:white; stroke-width:1; stroke:black; " description="&lt;b&gt;SMD44_RS19850&lt;/b&gt;&lt;br&gt;toxin&lt;br&gt;Location: 4479355 - 4479879" locus_tag="SMD44_RS19850" class="clusterblast-orf" id="dummy-12_h12_9_21"  />
</g>
<g id="a12_0022"  >
<polygon points="426,90 432,90 437,85 432,80 426,80 426,90 " style="fill:white; stroke-width:1; stroke:black; " description="&lt;b&gt;SMD44_RS19855&lt;/b&gt;&lt;br&gt;hypothetical protein&lt;br&gt;Location: 4479876 - 4481186" locus_tag="SMD44_RS19855" class="clusterblast-orf" id="dummy-12_h12_9_22"  />
</g>
<g id="a12_0023"  >
<polygon points="437,85 442,80 444,80 444,90 442,90 437,85 " style="fill:white; stroke-width:1; stroke:black; " description="&lt;b&gt;SMD44_RS19860&lt;/b&gt;&lt;br&gt;SMP-30/gluconolactonase/LRE family protein&lt;br&gt;Location: 4481197 - 4482045" locus_tag="SMD44_RS19860" class="clusterblast-orf" id="dummy-12_h12_9_23"  />
</g>
<g id="a12_0024"  >
<polygon points="444,85 449,80 452,80 452,90 449,90 444,85 " style="fill:white; stroke-width:1; stroke:black; " description="&lt;b&gt;SMD44_RS19865&lt;/b&gt;&lt;br&gt;DUF1611 domain-containing protein&lt;br&gt;Location: 4482042 - 4483016" locus_tag="SMD44_RS19865" class="clusterblast-orf" id="dummy-12_h12_9_24"  />
</g>
<g id="a12_0025"  >
<polygon points="453,85 458,80 466,80 466,90 458,90 453,85 " style="fill:#d81515; stroke-width:1; stroke:black; " description="&lt;b&gt;SMD44_RS19870&lt;/b&gt;&lt;br&gt;oxygenase&lt;br&gt;Location: 4483144 - 4484688&lt;br&gt;&lt;br&gt;&lt;b&gt;BlastP hit with LLPMBPKK_02191&lt;/b&gt;&lt;br&gt;Percentage identity: 34&lt;br&gt;Percentage coverage: 89&lt;br&gt;BLAST bit score: 159&lt;br&gt;E-value: 5.12e-41&lt;br&gt;&lt;br&gt;&lt;b&gt;BlastP hit with LLPMBPKK_02198&lt;/b&gt;&lt;br&gt;Percentage identity: 49&lt;br&gt;Percentage coverage: 93&lt;br&gt;BLAST bit score: 459&lt;br&gt;E-value: 2.24e-155" locus_tag="SMD44_RS19870" class="clusterblast-orf" id="dummy-12_h12_9_25"  />
</g>
<g id="a12_0026"  >
<polygon points="466,90 468,90 473,85 468,80 466,80 466,90 " style="fill:#157ed8; stroke-width:1; stroke:black; " description="&lt;b&gt;SMD44_RS19875&lt;/b&gt;&lt;br&gt;AfsR/SARP family transcriptional regulator&lt;br&gt;Location: 4484790 - 4485542&lt;br&gt;&lt;br&gt;&lt;b&gt;BlastP hit with LLPMBPKK_02197&lt;/b&gt;&lt;br&gt;Percentage identity: 43&lt;br&gt;Percentage coverage: 79&lt;br&gt;BLAST bit score: 158&lt;br&gt;E-value: 1.59e-45" locus_tag="SMD44_RS19875" class="clusterblast-orf" id="dummy-12_h12_9_26"  />
</g>
<g id="a12_0027"  >
<polygon points="480,85 485,80 487,80 487,90 485,90 480,85 " style="fill:white; stroke-width:1; stroke:black; " description="&lt;b&gt;SMD44_RS19890&lt;/b&gt;&lt;br&gt;cytochrome c biogenesis protein CcdA&lt;br&gt;Location: 4486496 - 4487338" locus_tag="SMD44_RS19890" class="clusterblast-orf" id="dummy-12_h12_9_27"  />
</g>
<g id="a12_0028"  >
<polygon points="487,85 492,80 494,80 494,90 492,90 487,85 " style="fill:white; stroke-width:1; stroke:black; " description="&lt;b&gt;SMD44_RS19895&lt;/b&gt;&lt;br&gt;thioredoxin domain-containing protein&lt;br&gt;Location: 4487335 - 4488213" locus_tag="SMD44_RS19895" class="clusterblast-orf" id="dummy-12_h12_9_28"  />
</g>
<g id="a12_0029"  >
<polygon points="495,85 498,80 498,90 495,85 " style="fill:white; stroke-width:1; stroke:black; " description="&lt;b&gt;SMD44_RS19900&lt;/b&gt;&lt;br&gt;hypothetical protein&lt;br&gt;Location: 4488291 - 4488710" locus_tag="SMD44_RS19900" class="clusterblast-orf" id="dummy-12_h12_9_29"  />
</g>
<g id="a12_0030"  >
<polygon points="499,90 526,90 531,85 526,80 499,80 499,90 " style="fill:white; stroke-width:1; stroke:black; " description="&lt;b&gt;SMD44_RS19905&lt;/b&gt;&lt;br&gt;ATP-dependent RNA helicase HrpA&lt;br&gt;Location: 4488794 - 4492753" locus_tag="SMD44_RS19905" class="clusterblast-orf" id="dummy-12_h12_9_30"  />
</g>
<g id="a12_0031"  >
<polygon points="534,90 536,85 534,80 534,90 " style="fill:white; stroke-width:1; stroke:black; " description="&lt;b&gt;SMD44_RS19915&lt;/b&gt;&lt;br&gt;hypothetical protein&lt;br&gt;Location: 4493116 - 4493367" locus_tag="SMD44_RS19915" class="clusterblast-orf" id="dummy-12_h12_9_31"  />
</g>
<g id="a12_0032"  >
<polygon points="541,85 543,80 543,90 541,85 " style="fill:white; stroke-width:1; stroke:black; " description="&lt;b&gt;SMD44_RS19920&lt;/b&gt;&lt;br&gt;developmental transcriptional regulator BldC&lt;br&gt;Location: 4493950 - 4494156" locus_tag="SMD44_RS19920" class="clusterblast-orf" id="dummy-12_h12_9_32"  />
</g>
<g id="a12_0033"  >
<polygon points="547,85 552,80 555,80 555,90 552,90 547,85 " style="fill:white; stroke-width:1; stroke:black; " description="&lt;b&gt;SMD44_RS19925&lt;/b&gt;&lt;br&gt;hypothetical protein&lt;br&gt;Location: 4494715 - 4495635" locus_tag="SMD44_RS19925" class="clusterblast-orf" id="dummy-12_h12_9_33"  />
</g>
</svg>
