<svg xmlns="http://www.w3.org/2000/svg" xmlns:xlink="http://www.w3.org/1999/xlink" version="1.1" x="0" y="0" height="230" width="800" viewBox="0 0 800 230" preserveAspectRatio="none"  >
<g label="Query sequence" class="clusterblast-cluster"  >
<text x="5" y="20" class="clusterblast-acc"  >
Query sequence</text>
<line x1="10" y1="35" x2="778.0" y2="35" style="stroke-width:1; stroke:grey; "  />
<polygon points="241,35 246,30 262,30 262,40 246,40 241,35 " style="fill:white; stroke-width:1; stroke:black; " description="&lt;b&gt;LLPMBPKK_05989&lt;/b&gt;&lt;br&gt;ATP-dependent RNA helicase RhlB&lt;br&gt;Location: 6863825 - 6869177" locus_tag="LLPMBPKK_05989" class="clusterblast-orf" id="dummy-22_q0_0_all"  />
<polygon points="262,35 265,30 265,40 262,35 " style="fill:white; stroke-width:1; stroke:black; " description="&lt;b&gt;LLPMBPKK_05990&lt;/b&gt;&lt;br&gt;serine/threonine protein kinase&lt;br&gt;Location: 6869173 - 6870160" locus_tag="LLPMBPKK_05990" class="clusterblast-orf" id="dummy-22_q1_0_all"  />
<polygon points="267,40 267,40 272,35 267,30 267,30 267,40 " style="fill:white; stroke-width:1; stroke:black; " description="&lt;b&gt;LLPMBPKK_05991&lt;/b&gt;&lt;br&gt;transmembrane transport protein&lt;br&gt;Location: 6870631 - 6871927" locus_tag="LLPMBPKK_05991" class="clusterblast-orf" id="dummy-22_q2_0_all"  />
<polygon points="273,40 276,35 273,30 273,40 " style="fill:#d81515; stroke-width:1; stroke:black; " description="&lt;b&gt;LLPMBPKK_05992&lt;/b&gt;&lt;br&gt;Bacterial regulatory proteins, luxR family&lt;br&gt;Location: 6872042 - 6872930" locus_tag="LLPMBPKK_05992" class="clusterblast-orf" id="dummy-22_q3_0_all"  />
<polygon points="277,40 280,35 277,30 277,40 " style="fill:white; stroke-width:1; stroke:black; " description="&lt;b&gt;LLPMBPKK_05993&lt;/b&gt;&lt;br&gt;hypothetical protein&lt;br&gt;Location: 6873290 - 6874082" locus_tag="LLPMBPKK_05993" class="clusterblast-orf" id="dummy-22_q4_0_all"  />
<polygon points="280,40 282,40 287,35 282,30 280,30 280,40 " style="fill:white; stroke-width:1; stroke:black; " description="&lt;b&gt;LLPMBPKK_05994&lt;/b&gt;&lt;br&gt;asparagine synthase (glutamine-hydrolyzing)&lt;br&gt;Location: 6874081 - 6875923" locus_tag="LLPMBPKK_05994" class="clusterblast-orf" id="dummy-22_q5_0_all"  />
<polygon points="287,40 290,35 287,30 287,40 " style="fill:white; stroke-width:1; stroke:black; " description="&lt;b&gt;LLPMBPKK_05995&lt;/b&gt;&lt;br&gt;flavin reductase&lt;br&gt;Location: 6875919 - 6876489" locus_tag="LLPMBPKK_05995" class="clusterblast-orf" id="dummy-22_q6_0_all"  />
<polygon points="290,40 290,40 295,35 290,30 290,30 290,40 " style="fill:white; stroke-width:1; stroke:black; " description="&lt;b&gt;LLPMBPKK_05996&lt;/b&gt;&lt;br&gt;Anthranilate 3-monooxygenase oxygenase component&lt;br&gt;Location: 6876485 - 6877997" locus_tag="LLPMBPKK_05996" class="clusterblast-orf" id="dummy-22_q7_0_all"  />
<polygon points="295,40 299,35 295,30 295,40 " style="fill:white; stroke-width:1; stroke:black; " description="&lt;b&gt;LLPMBPKK_05997&lt;/b&gt;&lt;br&gt;hypothetical protein&lt;br&gt;Location: 6877993 - 6878839" locus_tag="LLPMBPKK_05997" class="clusterblast-orf" id="dummy-22_q8_0_all"  />
<polygon points="299,40 302,35 299,30 299,40 " style="fill:white; stroke-width:1; stroke:black; " description="&lt;b&gt;LLPMBPKK_05998&lt;/b&gt;&lt;br&gt;DNA-binding protein, mmyb&lt;br&gt;Location: 6878957 - 6879821" locus_tag="LLPMBPKK_05998" class="clusterblast-orf" id="dummy-22_q9_0_all"  />
<polygon points="303,35 307,30 307,40 303,35 " style="fill:#3cd815; stroke-width:1; stroke:black; " description="&lt;b&gt;LLPMBPKK_05999&lt;/b&gt;&lt;br&gt;Purine efflux pump PbuE&lt;br&gt;Location: 6879898 - 6881158" locus_tag="LLPMBPKK_05999" class="clusterblast-orf" id="dummy-22_q10_0_all"  />
<polygon points="308,40 312,35 308,30 308,40 " style="fill:white; stroke-width:1; stroke:black; " description="&lt;b&gt;LLPMBPKK_06000&lt;/b&gt;&lt;br&gt;luciferase family protein&lt;br&gt;Location: 6881385 - 6882399" locus_tag="LLPMBPKK_06000" class="clusterblast-orf" id="dummy-22_q11_0_all"  />
<polygon points="312,40 313,35 312,30 312,40 " style="fill:white; stroke-width:1; stroke:black; " description="&lt;b&gt;LLPMBPKK_06001&lt;/b&gt;&lt;br&gt;Class-II DAHP synthetase family protein&lt;br&gt;Location: 6882429 - 6882633" locus_tag="LLPMBPKK_06001" class="clusterblast-orf" id="dummy-22_q12_0_all"  />
<polygon points="313,40 316,35 313,30 313,40 " style="fill:white; stroke-width:1; stroke:black; " description="&lt;b&gt;LLPMBPKK_06002&lt;/b&gt;&lt;br&gt;methylenetetrahydrofolate reductase [NAD(P)H]&lt;br&gt;Location: 6882629 - 6883403" locus_tag="LLPMBPKK_06002" class="clusterblast-orf" id="dummy-22_q13_0_all"  />
<polygon points="316,40 375,40 380,35 375,30 316,30 316,40 " style="fill:#1563d8; stroke-width:1; stroke:black; " description="&lt;b&gt;LLPMBPKK_06003&lt;/b&gt;&lt;br&gt;3-ketoacyl-CoA thiolase&lt;br&gt;Location: 6883432 - 6900247" locus_tag="LLPMBPKK_06003" class="clusterblast-orf" id="dummy-22_q14_0_all"  />
<polygon points="381,40 413,40 418,35 413,30 381,30 381,40 " style="fill:#1563d8; stroke-width:1; stroke:black; " description="&lt;b&gt;LLPMBPKK_06004&lt;/b&gt;&lt;br&gt;3-ketoacyl-CoA thiolase&lt;br&gt;Location: 6900327 - 6910182" locus_tag="LLPMBPKK_06004" class="clusterblast-orf" id="dummy-22_q15_0_all"  />
<polygon points="418,40 459,40 464,35 459,30 418,30 418,40 " style="fill:#1563d8; stroke-width:1; stroke:black; " description="&lt;b&gt;LLPMBPKK_06005&lt;/b&gt;&lt;br&gt;hypothetical protein&lt;br&gt;Location: 6910181 - 6922112" locus_tag="LLPMBPKK_06005" class="clusterblast-orf" id="dummy-22_q16_0_all"  />
<polygon points="464,40 466,35 464,30 464,40 " style="fill:white; stroke-width:1; stroke:black; " description="&lt;b&gt;LLPMBPKK_06006&lt;/b&gt;&lt;br&gt;SnoaL-like domain protein&lt;br&gt;Location: 6922113 - 6922569" locus_tag="LLPMBPKK_06006" class="clusterblast-orf" id="dummy-22_q17_0_all"  />
<polygon points="466,35 471,30 483,30 483,40 471,40 466,35 " style="fill:white; stroke-width:1; stroke:black; " description="&lt;b&gt;LLPMBPKK_06007&lt;/b&gt;&lt;br&gt;Chaperone protein HtpG&lt;br&gt;Location: 6922635 - 6926934" locus_tag="LLPMBPKK_06007" class="clusterblast-orf" id="dummy-22_q18_0_all"  />
<polygon points="483,35 484,30 484,40 483,35 " style="fill:white; stroke-width:1; stroke:black; " description="&lt;b&gt;LLPMBPKK_06008&lt;/b&gt;&lt;br&gt;hypothetical protein&lt;br&gt;Location: 6926930 - 6927302" locus_tag="LLPMBPKK_06008" class="clusterblast-orf" id="dummy-22_q19_0_all"  />
<polygon points="485,35 488,30 488,40 485,35 " style="fill:white; stroke-width:1; stroke:black; " description="&lt;b&gt;LLPMBPKK_06009&lt;/b&gt;&lt;br&gt;methylmalonyl Co-A mutase-associated GTPase MeaB&lt;br&gt;Location: 6927450 - 6928455" locus_tag="LLPMBPKK_06009" class="clusterblast-orf" id="dummy-22_q20_0_all"  />
<polygon points="488,35 493,30 497,30 497,40 493,40 488,35 " style="fill:white; stroke-width:1; stroke:black; " description="&lt;b&gt;LLPMBPKK_06010&lt;/b&gt;&lt;br&gt;methylmalonyl-CoA mutase&lt;br&gt;Location: 6928462 - 6930637" locus_tag="LLPMBPKK_06010" class="clusterblast-orf" id="dummy-22_q21_0_all"  />
<polygon points="497,35 502,30 504,30 504,40 502,40 497,35 " style="fill:white; stroke-width:1; stroke:black; " description="&lt;b&gt;LLPMBPKK_06011&lt;/b&gt;&lt;br&gt;methylmalonyl-CoA mutase subunit beta&lt;br&gt;Location: 6930636 - 6932445" locus_tag="LLPMBPKK_06011" class="clusterblast-orf" id="dummy-22_q22_0_all"  />
<polygon points="506,35 511,30 512,30 512,40 511,40 506,35 " style="fill:#b115d8; stroke-width:1; stroke:black; " description="&lt;b&gt;LLPMBPKK_06012&lt;/b&gt;&lt;br&gt;membrane protein&lt;br&gt;Location: 6933033 - 6934752" locus_tag="LLPMBPKK_06012" class="clusterblast-orf" id="dummy-22_q23_0_all"  />
<polygon points="514,40 515,35 514,30 514,40 " style="fill:#d88a15; stroke-width:1; stroke:black; " description="&lt;b&gt;LLPMBPKK_06013&lt;/b&gt;&lt;br&gt;cell division protein SepF&lt;br&gt;Location: 6935033 - 6935423" locus_tag="LLPMBPKK_06013" class="clusterblast-orf" id="dummy-22_q24_0_all"  />
<polygon points="516,40 520,35 516,30 516,40 " style="fill:#15d863; stroke-width:1; stroke:black; " description="&lt;b&gt;LLPMBPKK_06014&lt;/b&gt;&lt;br&gt;bldA-regulated nucleotide-binding protein&lt;br&gt;Location: 6935571 - 6936765" locus_tag="LLPMBPKK_06014" class="clusterblast-orf" id="dummy-22_q25_0_all"  />
<polygon points="520,40 522,35 520,30 520,40 " style="fill:#3c15d8; stroke-width:1; stroke:black; " description="&lt;b&gt;LLPMBPKK_06015&lt;/b&gt;&lt;br&gt;nucleotide pyrophosphohydrolase&lt;br&gt;Location: 6936761 - 6937127" locus_tag="LLPMBPKK_06015" class="clusterblast-orf" id="dummy-22_q26_0_all"  />
<polygon points="522,40 524,35 522,30 522,40 " style="fill:#d8158a; stroke-width:1; stroke:black; " description="&lt;b&gt;LLPMBPKK_06016&lt;/b&gt;&lt;br&gt;hypothetical protein&lt;br&gt;Location: 6937300 - 6937786" locus_tag="LLPMBPKK_06016" class="clusterblast-orf" id="dummy-22_q27_0_all"  />
<polygon points="524,35 525,30 525,40 524,35 " style="fill:#b1d815; stroke-width:1; stroke:black; " description="&lt;b&gt;LLPMBPKK_06017&lt;/b&gt;&lt;br&gt;hypothetical protein&lt;br&gt;Location: 6937822 - 6938002" locus_tag="LLPMBPKK_06017" class="clusterblast-orf" id="dummy-22_q28_0_all"  />
<polygon points="526,40 529,35 526,30 526,40 " style="fill:#15d8d8; stroke-width:1; stroke:black; " description="&lt;b&gt;LLPMBPKK_06018&lt;/b&gt;&lt;br&gt;LLM class F420-dependent oxidoreductase&lt;br&gt;Location: 6938239 - 6939163" locus_tag="LLPMBPKK_06018" class="clusterblast-orf" id="dummy-22_q29_0_all"  />
<polygon points="530,35 534,30 534,40 530,35 " style="fill:white; stroke-width:1; stroke:black; " description="&lt;b&gt;LLPMBPKK_06019&lt;/b&gt;&lt;br&gt;D-alanyl-D-alanine carboxypeptidase&lt;br&gt;Location: 6939363 - 6940320" locus_tag="LLPMBPKK_06019" class="clusterblast-orf" id="dummy-22_q30_0_all"  />
<polygon points="534,40 538,35 534,30 534,40 " style="fill:white; stroke-width:1; stroke:black; " description="&lt;b&gt;LLPMBPKK_06020&lt;/b&gt;&lt;br&gt;hypothetical protein&lt;br&gt;Location: 6940433 - 6941423" locus_tag="LLPMBPKK_06020" class="clusterblast-orf" id="dummy-22_q31_0_all"  />
</g>
<g label="NZ_CP021744" description="NZ_CP021744 (1819585-2023440): Streptomyces albireticuli strain MDJK11 chromo... (17% of genes show similarity), NRPS,T1PKS" class="clusterblast-cluster"  >
<text x="5" y="70" class="clusterblast-acc"  >
<a xlink:href="https://antismash-db.secondarymetabolites.org/area.html?record=NZ_CP021744&amp;start=1819585&amp;end=2023440" target="_blank">NZ_CP021744 (1819585-2023440)</a>: Streptomyces albireticuli strain MDJK11 chromo... (17% of genes show similarity), NRPS,T1PKS</text>
<line x1="10" y1="85" x2="778.0" y2="85" style="stroke-width:1; stroke:grey; "  />
</g>
<g id="a22_000"  >
<polygon points="0,90 3,85 0,80 0,90 " style="fill:white; stroke-width:1; stroke:black; " description="&lt;b&gt;SMD11_RS08360&lt;/b&gt;&lt;br&gt;ATP-binding protein&lt;br&gt;Location: 2023440 - 2022454" locus_tag="SMD11_RS08360" class="clusterblast-orf" id="dummy-22_h22_3_0"  />
</g>
<g id="a22_001"  >
<polygon points="6,90 8,85 6,80 6,90 " style="fill:white; stroke-width:1; stroke:black; " description="&lt;b&gt;SMD11_RS08355&lt;/b&gt;&lt;br&gt;roadblock/LC7 domain-containing protein&lt;br&gt;Location: 2021677 - 2021246" locus_tag="SMD11_RS08355" class="clusterblast-orf" id="dummy-22_h22_3_1"  />
</g>
<g id="a22_002"  >
<polygon points="8,90 9,85 8,80 8,90 " style="fill:white; stroke-width:1; stroke:black; " description="&lt;b&gt;SMD11_RS08350&lt;/b&gt;&lt;br&gt;DUF742 domain-containing protein&lt;br&gt;Location: 2021249 - 2020887" locus_tag="SMD11_RS08350" class="clusterblast-orf" id="dummy-22_h22_3_2"  />
</g>
<g id="a22_003"  >
<polygon points="9,90 12,85 9,80 9,90 " style="fill:white; stroke-width:1; stroke:black; " description="&lt;b&gt;SMD11_RS08345&lt;/b&gt;&lt;br&gt;ATP/GTP-binding protein&lt;br&gt;Location: 2020909 - 2020253" locus_tag="SMD11_RS08345" class="clusterblast-orf" id="dummy-22_h22_3_3"  />
</g>
<g id="a22_004"  >
<polygon points="12,90 16,85 12,80 12,90 " style="fill:white; stroke-width:1; stroke:black; " description="&lt;b&gt;SMD11_RS08340&lt;/b&gt;&lt;br&gt;cytochrome P450&lt;br&gt;Location: 2020169 - 2019015" locus_tag="SMD11_RS08340" class="clusterblast-orf" id="dummy-22_h22_3_4"  />
</g>
<g id="a22_005"  >
<polygon points="17,90 17,90 22,85 17,80 17,80 17,90 " style="fill:white; stroke-width:1; stroke:black; " description="&lt;b&gt;SMD11_RS08335&lt;/b&gt;&lt;br&gt;cytochrome P450&lt;br&gt;Location: 2018883 - 2017639" locus_tag="SMD11_RS08335" class="clusterblast-orf" id="dummy-22_h22_3_5"  />
</g>
<g id="a22_006"  >
<polygon points="23,90 25,90 30,85 25,80 23,80 23,90 " style="fill:white; stroke-width:1; stroke:black; " description="&lt;b&gt;SMD11_RS08330&lt;/b&gt;&lt;br&gt;APC family permease&lt;br&gt;Location: 2017410 - 2015359" locus_tag="SMD11_RS08330" class="clusterblast-orf" id="dummy-22_h22_3_6"  />
</g>
<g id="a22_007"  >
<polygon points="31,90 31,90 36,85 31,80 31,80 31,90 " style="fill:white; stroke-width:1; stroke:black; " description="&lt;b&gt;SMD11_RS08325&lt;/b&gt;&lt;br&gt;class I SAM-dependent RNA methyltransferase&lt;br&gt;Location: 2015226 - 2013889" locus_tag="SMD11_RS08325" class="clusterblast-orf" id="dummy-22_h22_3_7"  />
</g>
<g id="a22_008"  >
<polygon points="38,85 39,80 39,90 38,85 " style="fill:white; stroke-width:1; stroke:black; " description="&lt;b&gt;SMD11_RS08320&lt;/b&gt;&lt;br&gt;hypothetical protein&lt;br&gt;Location: 2013469 - 2013215" locus_tag="SMD11_RS08320" class="clusterblast-orf" id="dummy-22_h22_3_8"  />
</g>
<g id="a22_009"  >
<polygon points="40,90 43,85 40,80 40,90 " style="fill:white; stroke-width:1; stroke:black; " description="&lt;b&gt;SMD11_RS35395&lt;/b&gt;&lt;br&gt;helix-turn-helix domain-containing protein&lt;br&gt;Location: 2012761 - 2012084" locus_tag="SMD11_RS35395" class="clusterblast-orf" id="dummy-22_h22_3_9"  />
</g>
<g id="a22_0010"  >
<polygon points="44,90 44,85 44,80 44,90 " style="fill:white; stroke-width:1; stroke:black; " description="&lt;b&gt;SMD11_RS08310&lt;/b&gt;&lt;br&gt;DUF397 domain-containing protein&lt;br&gt;Location: 2011918 - 2011706" locus_tag="SMD11_RS08310" class="clusterblast-orf" id="dummy-22_h22_3_10"  />
</g>
<g id="a22_0011"  >
<polygon points="45,90 49,85 45,80 45,90 " style="fill:white; stroke-width:1; stroke:black; " description="&lt;b&gt;SMD11_RS08305&lt;/b&gt;&lt;br&gt;ABC transporter ATP-binding protein&lt;br&gt;Location: 2011478 - 2010624" locus_tag="SMD11_RS08305" class="clusterblast-orf" id="dummy-22_h22_3_11"  />
</g>
<g id="a22_0012"  >
<polygon points="49,90 52,85 49,80 49,90 " style="fill:white; stroke-width:1; stroke:black; " description="&lt;b&gt;SMD11_RS08300&lt;/b&gt;&lt;br&gt;ABC transporter permease&lt;br&gt;Location: 2010627 - 2009767" locus_tag="SMD11_RS08300" class="clusterblast-orf" id="dummy-22_h22_3_12"  />
</g>
<g id="a22_0013"  >
<polygon points="52,90 52,90 57,85 52,80 52,80 52,90 " style="fill:white; stroke-width:1; stroke:black; " description="&lt;b&gt;SMD11_RS08295&lt;/b&gt;&lt;br&gt;sensor histidine kinase&lt;br&gt;Location: 2009770 - 2008502" locus_tag="SMD11_RS08295" class="clusterblast-orf" id="dummy-22_h22_3_13"  />
</g>
<g id="a22_0014"  >
<polygon points="57,90 59,85 57,80 57,90 " style="fill:white; stroke-width:1; stroke:black; " description="&lt;b&gt;SMD11_RS08290&lt;/b&gt;&lt;br&gt;response regulator transcription factor&lt;br&gt;Location: 2008505 - 2007873" locus_tag="SMD11_RS08290" class="clusterblast-orf" id="dummy-22_h22_3_14"  />
</g>
<g id="a22_0015"  >
<polygon points="59,85 64,80 70,80 70,90 64,90 59,85 " style="fill:white; stroke-width:1; stroke:black; " description="&lt;b&gt;SMD11_RS08285&lt;/b&gt;&lt;br&gt;AAA family ATPase&lt;br&gt;Location: 2007830 - 2004996" locus_tag="SMD11_RS08285" class="clusterblast-orf" id="dummy-22_h22_3_15"  />
</g>
<g id="a22_0016"  >
<polygon points="72,85 77,80 84,80 84,90 77,90 72,85 " style="fill:white; stroke-width:1; stroke:black; " description="&lt;b&gt;SMD11_RS08280&lt;/b&gt;&lt;br&gt;amino acid adenylation domain-containing protein&lt;br&gt;Location: 2004606 - 2001415" locus_tag="SMD11_RS08280" class="clusterblast-orf" id="dummy-22_h22_3_16"  />
</g>
<g id="a22_0017"  >
<polygon points="84,85 87,80 87,90 84,85 " style="fill:white; stroke-width:1; stroke:black; " description="&lt;b&gt;SMD11_RS08275&lt;/b&gt;&lt;br&gt;hypothetical protein&lt;br&gt;Location: 2001350 - 2000514" locus_tag="SMD11_RS08275" class="clusterblast-orf" id="dummy-22_h22_3_17"  />
</g>
<g id="a22_0018"  >
<polygon points="89,90 105,90 110,85 105,80 89,80 89,90 " style="fill:#1563d8; stroke-width:1; stroke:black; " description="&lt;b&gt;SMD11_RS08270&lt;/b&gt;&lt;br&gt;type I polyketide synthase&lt;br&gt;Location: 2000097 - 1994587&lt;br&gt;&lt;br&gt;&lt;b&gt;BlastP hit with LLPMBPKK_06003&lt;/b&gt;&lt;br&gt;Percentage identity: 56&lt;br&gt;Percentage coverage: 33&lt;br&gt;BLAST bit score: 1655&lt;br&gt;E-value: 0.0&lt;br&gt;&lt;br&gt;&lt;b&gt;BlastP hit with LLPMBPKK_06004&lt;/b&gt;&lt;br&gt;Percentage identity: 52&lt;br&gt;Percentage coverage: 56&lt;br&gt;BLAST bit score: 1509&lt;br&gt;E-value: 0.0&lt;br&gt;&lt;br&gt;&lt;b&gt;BlastP hit with LLPMBPKK_06005&lt;/b&gt;&lt;br&gt;Percentage identity: 50&lt;br&gt;Percentage coverage: 51&lt;br&gt;BLAST bit score: 1622&lt;br&gt;E-value: 0.0" locus_tag="SMD11_RS08270" class="clusterblast-orf" id="dummy-22_h22_3_18"  />
</g>
<g id="a22_0019"  >
<polygon points="110,90 162,90 167,85 162,80 110,80 110,90 " style="fill:#1563d8; stroke-width:1; stroke:black; " description="&lt;b&gt;SMD11_RS08265&lt;/b&gt;&lt;br&gt;type I polyketide synthase&lt;br&gt;Location: 1994432 - 1979712&lt;br&gt;&lt;br&gt;&lt;b&gt;BlastP hit with LLPMBPKK_06003&lt;/b&gt;&lt;br&gt;Percentage identity: 42&lt;br&gt;Percentage coverage: 94&lt;br&gt;BLAST bit score: 2961&lt;br&gt;E-value: 0.0&lt;br&gt;&lt;br&gt;&lt;b&gt;BlastP hit with LLPMBPKK_06004&lt;/b&gt;&lt;br&gt;Percentage identity: 44&lt;br&gt;Percentage coverage: 110&lt;br&gt;BLAST bit score: 2170&lt;br&gt;E-value: 0.0&lt;br&gt;&lt;br&gt;&lt;b&gt;BlastP hit with LLPMBPKK_06005&lt;/b&gt;&lt;br&gt;Percentage identity: 51&lt;br&gt;Percentage coverage: 94&lt;br&gt;BLAST bit score: 3004&lt;br&gt;E-value: 0.0" locus_tag="SMD11_RS08265" class="clusterblast-orf" id="dummy-22_h22_3_19"  />
</g>
<g id="a22_0020"  >
<polygon points="167,90 280,90 285,85 280,80 167,80 167,90 " style="fill:#1563d8; stroke-width:1; stroke:black; " description="&lt;b&gt;SMD11_RS08260&lt;/b&gt;&lt;br&gt;SDR family NAD(P)-dependent oxidoreductase&lt;br&gt;Location: 1979673 - 1948889&lt;br&gt;&lt;br&gt;&lt;b&gt;BlastP hit with LLPMBPKK_06003&lt;/b&gt;&lt;br&gt;Percentage identity: 46&lt;br&gt;Percentage coverage: 95&lt;br&gt;BLAST bit score: 3618&lt;br&gt;E-value: 0.0&lt;br&gt;&lt;br&gt;&lt;b&gt;BlastP hit with LLPMBPKK_06004&lt;/b&gt;&lt;br&gt;Percentage identity: 44&lt;br&gt;Percentage coverage: 109&lt;br&gt;BLAST bit score: 2191&lt;br&gt;E-value: 0.0&lt;br&gt;&lt;br&gt;&lt;b&gt;BlastP hit with LLPMBPKK_06005&lt;/b&gt;&lt;br&gt;Percentage identity: 51&lt;br&gt;Percentage coverage: 93&lt;br&gt;BLAST bit score: 3099&lt;br&gt;E-value: 0.0" locus_tag="SMD11_RS08260" class="clusterblast-orf" id="dummy-22_h22_3_20"  />
</g>
<g id="a22_0021"  >
<polygon points="285,90 336,90 341,85 336,80 285,80 285,90 " style="fill:#1563d8; stroke-width:1; stroke:black; " description="&lt;b&gt;SMD11_RS08255&lt;/b&gt;&lt;br&gt;type I polyketide synthase&lt;br&gt;Location: 1948757 - 1934103&lt;br&gt;&lt;br&gt;&lt;b&gt;BlastP hit with LLPMBPKK_06003&lt;/b&gt;&lt;br&gt;Percentage identity: 43&lt;br&gt;Percentage coverage: 85&lt;br&gt;BLAST bit score: 2866&lt;br&gt;E-value: 0.0&lt;br&gt;&lt;br&gt;&lt;b&gt;BlastP hit with LLPMBPKK_06004&lt;/b&gt;&lt;br&gt;Percentage identity: 40&lt;br&gt;Percentage coverage: 122&lt;br&gt;BLAST bit score: 2068&lt;br&gt;E-value: 0.0&lt;br&gt;&lt;br&gt;&lt;b&gt;BlastP hit with LLPMBPKK_06005&lt;/b&gt;&lt;br&gt;Percentage identity: 47&lt;br&gt;Percentage coverage: 102&lt;br&gt;BLAST bit score: 3001&lt;br&gt;E-value: 0.0" locus_tag="SMD11_RS08255" class="clusterblast-orf" id="dummy-22_h22_3_21"  />
</g>
<g id="a22_0022"  >
<polygon points="342,85 346,80 346,90 342,85 " style="fill:white; stroke-width:1; stroke:black; " description="&lt;b&gt;SMD11_RS08250&lt;/b&gt;&lt;br&gt;proline iminopeptidase-family hydrolase&lt;br&gt;Location: 1934033 - 1932999" locus_tag="SMD11_RS08250" class="clusterblast-orf" id="dummy-22_h22_3_22"  />
</g>
<g id="a22_0023"  >
<polygon points="346,90 349,85 346,80 346,90 " style="fill:white; stroke-width:1; stroke:black; " description="&lt;b&gt;SMD11_RS08245&lt;/b&gt;&lt;br&gt;ACP S-malonyltransferase&lt;br&gt;Location: 1932930 - 1932016" locus_tag="SMD11_RS08245" class="clusterblast-orf" id="dummy-22_h22_3_23"  />
</g>
<g id="a22_0024"  >
<polygon points="350,90 351,85 350,80 350,90 " style="fill:white; stroke-width:1; stroke:black; " description="&lt;b&gt;SMD11_RS08240&lt;/b&gt;&lt;br&gt;acyl carrier protein&lt;br&gt;Location: 1931965 - 1931705" locus_tag="SMD11_RS08240" class="clusterblast-orf" id="dummy-22_h22_3_24"  />
</g>
<g id="a22_0025"  >
<polygon points="351,90 351,90 356,85 351,80 351,80 351,90 " style="fill:white; stroke-width:1; stroke:black; " description="&lt;b&gt;SMD11_RS35390&lt;/b&gt;&lt;br&gt;AMP-binding protein&lt;br&gt;Location: 1931660 - 1930152" locus_tag="SMD11_RS35390" class="clusterblast-orf" id="dummy-22_h22_3_25"  />
</g>
<g id="a22_0026"  >
<polygon points="357,90 358,90 363,85 358,80 357,80 357,90 " style="fill:white; stroke-width:1; stroke:black; " description="&lt;b&gt;SMD11_RS08230&lt;/b&gt;&lt;br&gt;AMP-binding protein&lt;br&gt;Location: 1930058 - 1928529" locus_tag="SMD11_RS08230" class="clusterblast-orf" id="dummy-22_h22_3_26"  />
</g>
<g id="a22_0027"  >
<polygon points="363,90 367,85 363,80 363,90 " style="fill:white; stroke-width:1; stroke:black; " description="&lt;b&gt;SMD11_RS08225&lt;/b&gt;&lt;br&gt;decarboxylase&lt;br&gt;Location: 1928532 - 1927291" locus_tag="SMD11_RS08225" class="clusterblast-orf" id="dummy-22_h22_3_27"  />
</g>
<g id="a22_0028"  >
<polygon points="368,90 405,90 410,85 405,80 368,80 368,90 " style="fill:#1563d8; stroke-width:1; stroke:black; " description="&lt;b&gt;SMD11_RS08220&lt;/b&gt;&lt;br&gt;type I polyketide synthase&lt;br&gt;Location: 1927043 - 1916130&lt;br&gt;&lt;br&gt;&lt;b&gt;BlastP hit with LLPMBPKK_06003&lt;/b&gt;&lt;br&gt;Percentage identity: 50&lt;br&gt;Percentage coverage: 67&lt;br&gt;BLAST bit score: 2823&lt;br&gt;E-value: 0.0&lt;br&gt;&lt;br&gt;&lt;b&gt;BlastP hit with LLPMBPKK_06004&lt;/b&gt;&lt;br&gt;Percentage identity: 44&lt;br&gt;Percentage coverage: 114&lt;br&gt;BLAST bit score: 2169&lt;br&gt;E-value: 0.0&lt;br&gt;&lt;br&gt;&lt;b&gt;BlastP hit with LLPMBPKK_06005&lt;/b&gt;&lt;br&gt;Percentage identity: 52&lt;br&gt;Percentage coverage: 95&lt;br&gt;BLAST bit score: 3059&lt;br&gt;E-value: 0.0" locus_tag="SMD11_RS08220" class="clusterblast-orf" id="dummy-22_h22_3_28"  />
</g>
<g id="a22_0029"  >
<polygon points="410,85 414,80 414,90 410,85 " style="fill:white; stroke-width:1; stroke:black; " description="&lt;b&gt;SMD11_RS08215&lt;/b&gt;&lt;br&gt;sulfotransferase&lt;br&gt;Location: 1916065 - 1915022" locus_tag="SMD11_RS08215" class="clusterblast-orf" id="dummy-22_h22_3_29"  />
</g>
<g id="a22_0030"  >
<polygon points="414,85 417,80 417,90 414,85 " style="fill:white; stroke-width:1; stroke:black; " description="&lt;b&gt;SMD11_RS08210&lt;/b&gt;&lt;br&gt;thioesterase&lt;br&gt;Location: 1915014 - 1914223" locus_tag="SMD11_RS08210" class="clusterblast-orf" id="dummy-22_h22_3_30"  />
</g>
<g id="a22_0031"  >
<polygon points="419,90 422,85 419,80 419,90 " style="fill:white; stroke-width:1; stroke:black; " description="&lt;b&gt;SMD11_RS08205&lt;/b&gt;&lt;br&gt;3'(2'),5'-bisphosphate nucleotidase CysQ&lt;br&gt;Location: 1913868 - 1913077" locus_tag="SMD11_RS08205" class="clusterblast-orf" id="dummy-22_h22_3_31"  />
</g>
<g id="a22_0032"  >
<polygon points="422,90 425,85 422,80 422,90 " style="fill:white; stroke-width:1; stroke:black; " description="&lt;b&gt;SMD11_RS08200&lt;/b&gt;&lt;br&gt;sulfate adenylyltransferase subunit CysD&lt;br&gt;Location: 1913068 - 1912145" locus_tag="SMD11_RS08200" class="clusterblast-orf" id="dummy-22_h22_3_32"  />
</g>
<g id="a22_0033"  >
<polygon points="425,90 428,90 433,85 428,80 425,80 425,90 " style="fill:white; stroke-width:1; stroke:black; " description="&lt;b&gt;SMD11_RS08195&lt;/b&gt;&lt;br&gt;sulfate adenylyltransferase subunit CysN&lt;br&gt;Location: 1912145 - 1910238" locus_tag="SMD11_RS08195" class="clusterblast-orf" id="dummy-22_h22_3_33"  />
</g>
<g id="a22_0034"  >
<polygon points="433,85 435,80 435,90 433,85 " style="fill:white; stroke-width:1; stroke:black; " description="&lt;b&gt;SMD11_RS08190&lt;/b&gt;&lt;br&gt;Rrf2 family transcriptional regulator&lt;br&gt;Location: 1910103 - 1909636" locus_tag="SMD11_RS08190" class="clusterblast-orf" id="dummy-22_h22_3_34"  />
</g>
<g id="a22_0035"  >
<polygon points="436,90 441,90 446,85 441,80 436,80 436,90 " style="fill:white; stroke-width:1; stroke:black; " description="&lt;b&gt;SMD11_RS08185&lt;/b&gt;&lt;br&gt;lycopene cyclase&lt;br&gt;Location: 1909454 - 1906815" locus_tag="SMD11_RS08185" class="clusterblast-orf" id="dummy-22_h22_3_35"  />
</g>
<g id="a22_0036"  >
<polygon points="446,85 447,80 447,90 446,85 " style="fill:white; stroke-width:1; stroke:black; " description="&lt;b&gt;SMD11_RS35385&lt;/b&gt;&lt;br&gt;hypothetical protein&lt;br&gt;Location: 1906732 - 1906568" locus_tag="SMD11_RS35385" class="clusterblast-orf" id="dummy-22_h22_3_36"  />
</g>
<g id="a22_0037"  >
<polygon points="447,90 450,85 447,80 447,90 " style="fill:white; stroke-width:1; stroke:black; " description="&lt;b&gt;SMD11_RS08175&lt;/b&gt;&lt;br&gt;helix-turn-helix transcriptional regulator&lt;br&gt;Location: 1906444 - 1905629" locus_tag="SMD11_RS08175" class="clusterblast-orf" id="dummy-22_h22_3_37"  />
</g>
<g id="a22_0038"  >
<polygon points="450,85 452,80 452,90 450,85 " style="fill:white; stroke-width:1; stroke:black; " description="&lt;b&gt;SMD11_RS08170&lt;/b&gt;&lt;br&gt;nuclear transport factor 2 family protein&lt;br&gt;Location: 1905639 - 1905271" locus_tag="SMD11_RS08170" class="clusterblast-orf" id="dummy-22_h22_3_38"  />
</g>
<g id="a22_0039"  >
<polygon points="453,90 453,90 458,85 453,80 453,80 453,90 " style="fill:white; stroke-width:1; stroke:black; " description="&lt;b&gt;SMD11_RS08165&lt;/b&gt;&lt;br&gt;NAD-dependent epimerase/dehydratase family protein&lt;br&gt;Location: 1904788 - 1903724" locus_tag="SMD11_RS08165" class="clusterblast-orf" id="dummy-22_h22_3_39"  />
</g>
<g id="a22_0040"  >
<polygon points="458,90 461,85 458,80 458,90 " style="fill:white; stroke-width:1; stroke:black; " description="&lt;b&gt;SMD11_RS08160&lt;/b&gt;&lt;br&gt;aldo/keto reductase&lt;br&gt;Location: 1903727 - 1902729" locus_tag="SMD11_RS08160" class="clusterblast-orf" id="dummy-22_h22_3_40"  />
</g>
<g id="a22_0041"  >
<polygon points="462,85 467,80 467,80 467,90 467,90 462,85 " style="fill:white; stroke-width:1; stroke:black; " description="&lt;b&gt;SMD11_RS08155&lt;/b&gt;&lt;br&gt;class I SAM-dependent methyltransferase&lt;br&gt;Location: 1902611 - 1901379" locus_tag="SMD11_RS08155" class="clusterblast-orf" id="dummy-22_h22_3_41"  />
</g>
<g id="a22_0042"  >
<polygon points="467,85 471,80 471,90 467,85 " style="fill:white; stroke-width:1; stroke:black; " description="&lt;b&gt;SMD11_RS08150&lt;/b&gt;&lt;br&gt;HAD-IIIC family phosphatase&lt;br&gt;Location: 1901382 - 1900207" locus_tag="SMD11_RS08150" class="clusterblast-orf" id="dummy-22_h22_3_42"  />
</g>
<g id="a22_0043"  >
<polygon points="471,85 475,80 475,90 471,85 " style="fill:white; stroke-width:1; stroke:black; " description="&lt;b&gt;SMD11_RS08145&lt;/b&gt;&lt;br&gt;acyl-CoA dehydrogenase family protein&lt;br&gt;Location: 1900210 - 1899116" locus_tag="SMD11_RS08145" class="clusterblast-orf" id="dummy-22_h22_3_43"  />
</g>
<g id="a22_0044"  >
<polygon points="475,85 477,80 477,90 475,85 " style="fill:white; stroke-width:1; stroke:black; " description="&lt;b&gt;SMD11_RS08140&lt;/b&gt;&lt;br&gt;acyl carrier protein&lt;br&gt;Location: 1899093 - 1898764" locus_tag="SMD11_RS08140" class="clusterblast-orf" id="dummy-22_h22_3_44"  />
</g>
<g id="a22_0045"  >
<polygon points="477,85 480,80 480,90 477,85 " style="fill:white; stroke-width:1; stroke:black; " description="&lt;b&gt;SMD11_RS08135&lt;/b&gt;&lt;br&gt;3-hydroxyacyl-CoA dehydrogenase family protein&lt;br&gt;Location: 1898767 - 1897952" locus_tag="SMD11_RS08135" class="clusterblast-orf" id="dummy-22_h22_3_45"  />
</g>
<g id="a22_0046"  >
<polygon points="481,90 481,90 486,85 481,80 481,80 481,90 " style="fill:white; stroke-width:1; stroke:black; " description="&lt;b&gt;SMD11_RS08130&lt;/b&gt;&lt;br&gt;glycosyltransferase&lt;br&gt;Location: 1897549 - 1896335" locus_tag="SMD11_RS08130" class="clusterblast-orf" id="dummy-22_h22_3_46"  />
</g>
<g id="a22_0047"  >
<polygon points="486,90 489,85 486,80 486,90 " style="fill:white; stroke-width:1; stroke:black; " description="&lt;b&gt;SMD11_RS08125&lt;/b&gt;&lt;br&gt;dTDP-4-dehydrorhamnose 3,5-epimerase family protein&lt;br&gt;Location: 1896225 - 1895614" locus_tag="SMD11_RS08125" class="clusterblast-orf" id="dummy-22_h22_3_47"  />
</g>
<g id="a22_0048"  >
<polygon points="489,90 493,85 489,80 489,90 " style="fill:white; stroke-width:1; stroke:black; " description="&lt;b&gt;SMD11_RS08120&lt;/b&gt;&lt;br&gt;hypothetical protein&lt;br&gt;Location: 1895561 - 1894479" locus_tag="SMD11_RS08120" class="clusterblast-orf" id="dummy-22_h22_3_48"  />
</g>
<g id="a22_0049"  >
<polygon points="494,90 496,90 501,85 496,80 494,80 494,90 " style="fill:white; stroke-width:1; stroke:black; " description="&lt;b&gt;SMD11_RS08115&lt;/b&gt;&lt;br&gt;GAF domain-containing protein&lt;br&gt;Location: 1894307 - 1892355" locus_tag="SMD11_RS08115" class="clusterblast-orf" id="dummy-22_h22_3_49"  />
</g>
<g id="a22_0050"  >
<polygon points="501,85 506,80 506,80 506,90 506,90 501,85 " style="fill:white; stroke-width:1; stroke:black; " description="&lt;b&gt;SMD11_RS08110&lt;/b&gt;&lt;br&gt;transposase&lt;br&gt;Location: 1892301 - 1891147" locus_tag="SMD11_RS08110" class="clusterblast-orf" id="dummy-22_h22_3_50"  />
</g>
<g id="a22_0051"  >
<polygon points="507,90 507,90 512,85 507,80 507,80 507,90 " style="fill:white; stroke-width:1; stroke:black; " description="&lt;b&gt;SMD11_RS08105&lt;/b&gt;&lt;br&gt;acyltransferase family protein&lt;br&gt;Location: 1890735 - 1889602" locus_tag="SMD11_RS08105" class="clusterblast-orf" id="dummy-22_h22_3_51"  />
</g>
<g id="a22_0052"  >
<polygon points="512,85 514,80 514,90 512,85 " style="fill:white; stroke-width:1; stroke:black; " description="&lt;b&gt;SMD11_RS08100&lt;/b&gt;&lt;br&gt;SgcJ/EcaC family oxidoreductase&lt;br&gt;Location: 1889511 - 1889092" locus_tag="SMD11_RS08100" class="clusterblast-orf" id="dummy-22_h22_3_52"  />
</g>
<g id="a22_0053"  >
<polygon points="514,85 519,80 520,80 520,90 519,90 514,85 " style="fill:white; stroke-width:1; stroke:black; " description="&lt;b&gt;SMD11_RS08095&lt;/b&gt;&lt;br&gt;NDP-hexose 2,3-dehydratase&lt;br&gt;Location: 1888963 - 1887533" locus_tag="SMD11_RS08095" class="clusterblast-orf" id="dummy-22_h22_3_53"  />
</g>
<g id="a22_0054"  >
<polygon points="520,85 524,80 524,90 520,85 " style="fill:white; stroke-width:1; stroke:black; " description="&lt;b&gt;SMD11_RS08090&lt;/b&gt;&lt;br&gt;dTDP-glucose 4,6-dehydratase&lt;br&gt;Location: 1887451 - 1886420" locus_tag="SMD11_RS08090" class="clusterblast-orf" id="dummy-22_h22_3_54"  />
</g>
<g id="a22_0055"  >
<polygon points="524,85 527,80 527,90 524,85 " style="fill:white; stroke-width:1; stroke:black; " description="&lt;b&gt;SMD11_RS08085&lt;/b&gt;&lt;br&gt;glucose-1-phosphate thymidylyltransferase RfbA&lt;br&gt;Location: 1886436 - 1885558" locus_tag="SMD11_RS08085" class="clusterblast-orf" id="dummy-22_h22_3_55"  />
</g>
<g id="a22_0056"  >
<polygon points="527,85 532,80 532,80 532,90 532,90 527,85 " style="fill:white; stroke-width:1; stroke:black; " description="&lt;b&gt;SMD11_RS08080&lt;/b&gt;&lt;br&gt;DegT/DnrJ/EryC1/StrS family aminotransferase&lt;br&gt;Location: 1885531 - 1884371" locus_tag="SMD11_RS08080" class="clusterblast-orf" id="dummy-22_h22_3_56"  />
</g>
<g id="a22_0057"  >
<polygon points="532,85 534,80 534,90 532,85 " style="fill:white; stroke-width:1; stroke:black; " description="&lt;b&gt;SMD11_RS08075&lt;/b&gt;&lt;br&gt;WxcM-like domain-containing protein&lt;br&gt;Location: 1884374 - 1883859" locus_tag="SMD11_RS08075" class="clusterblast-orf" id="dummy-22_h22_3_57"  />
</g>
<g id="a22_0058"  >
<polygon points="534,85 538,80 538,90 534,85 " style="fill:white; stroke-width:1; stroke:black; " description="&lt;b&gt;SMD11_RS08070&lt;/b&gt;&lt;br&gt;cytochrome P450&lt;br&gt;Location: 1883784 - 1882576" locus_tag="SMD11_RS08070" class="clusterblast-orf" id="dummy-22_h22_3_58"  />
</g>
<g id="a22_0059"  >
<polygon points="540,90 544,85 540,80 540,90 " style="fill:white; stroke-width:1; stroke:black; " description="&lt;b&gt;SMD11_RS08065&lt;/b&gt;&lt;br&gt;NAD-dependent epimerase&lt;br&gt;Location: 1882154 - 1881093" locus_tag="SMD11_RS08065" class="clusterblast-orf" id="dummy-22_h22_3_59"  />
</g>
<g id="a22_0060"  >
<polygon points="545,90 590,90 595,85 590,80 545,80 545,90 " style="fill:#1563d8; stroke-width:1; stroke:black; " description="&lt;b&gt;SMD11_RS08060&lt;/b&gt;&lt;br&gt;SDR family NAD(P)-dependent oxidoreductase&lt;br&gt;Location: 1880928 - 1867774&lt;br&gt;&lt;br&gt;&lt;b&gt;BlastP hit with LLPMBPKK_06003&lt;/b&gt;&lt;br&gt;Percentage identity: 46&lt;br&gt;Percentage coverage: 78&lt;br&gt;BLAST bit score: 2886&lt;br&gt;E-value: 0.0&lt;br&gt;&lt;br&gt;&lt;b&gt;BlastP hit with LLPMBPKK_06004&lt;/b&gt;&lt;br&gt;Percentage identity: 44&lt;br&gt;Percentage coverage: 108&lt;br&gt;BLAST bit score: 2142&lt;br&gt;E-value: 0.0&lt;br&gt;&lt;br&gt;&lt;b&gt;BlastP hit with LLPMBPKK_06005&lt;/b&gt;&lt;br&gt;Percentage identity: 45&lt;br&gt;Percentage coverage: 96&lt;br&gt;BLAST bit score: 2473&lt;br&gt;E-value: 0.0" locus_tag="SMD11_RS08060" class="clusterblast-orf" id="dummy-22_h22_3_60"  />
</g>
<g id="a22_0061"  >
<polygon points="595,90 597,90 602,85 597,80 595,80 595,90 " style="fill:#1563d8; stroke-width:1; stroke:black; " description="&lt;b&gt;SMD11_RS08055&lt;/b&gt;&lt;br&gt;hypothetical protein&lt;br&gt;Location: 1867724 - 1865880&lt;br&gt;&lt;br&gt;&lt;b&gt;BlastP hit with LLPMBPKK_06004&lt;/b&gt;&lt;br&gt;Percentage identity: 60&lt;br&gt;Percentage coverage: 17&lt;br&gt;BLAST bit score: 627&lt;br&gt;E-value: 7.09e-199&lt;br&gt;&lt;br&gt;&lt;b&gt;BlastP hit with LLPMBPKK_06005&lt;/b&gt;&lt;br&gt;Percentage identity: 65&lt;br&gt;Percentage coverage: 14&lt;br&gt;BLAST bit score: 653&lt;br&gt;E-value: 1.12e-207" locus_tag="SMD11_RS08055" class="clusterblast-orf" id="dummy-22_h22_3_61"  />
</g>
<g id="a22_0062"  >
<polygon points="602,90 605,85 602,80 602,90 " style="fill:white; stroke-width:1; stroke:black; " description="&lt;b&gt;SMD11_RS35380&lt;/b&gt;&lt;br&gt;acyltransferase domain-containing protein&lt;br&gt;Location: 1865982 - 1865080" locus_tag="SMD11_RS35380" class="clusterblast-orf" id="dummy-22_h22_3_62"  />
</g>
<g id="a22_0063"  >
<polygon points="609,90 659,90 664,85 659,80 609,80 609,90 " style="fill:white; stroke-width:1; stroke:black; " description="&lt;b&gt;SMD11_RS08045&lt;/b&gt;&lt;br&gt;SDR family NAD(P)-dependent oxidoreductase&lt;br&gt;Location: 1864101 - 1849669" locus_tag="SMD11_RS08045" class="clusterblast-orf" id="dummy-22_h22_3_63"  />
</g>
<g id="a22_0064"  >
<polygon points="665,90 677,90 682,85 677,80 665,80 665,90 " style="fill:#1563d8; stroke-width:1; stroke:black; " description="&lt;b&gt;SMD11_RS08040&lt;/b&gt;&lt;br&gt;type I polyketide synthase&lt;br&gt;Location: 1849610 - 1844958&lt;br&gt;&lt;br&gt;&lt;b&gt;BlastP hit with LLPMBPKK_06003&lt;/b&gt;&lt;br&gt;Percentage identity: 46&lt;br&gt;Percentage coverage: 27&lt;br&gt;BLAST bit score: 962&lt;br&gt;E-value: 2.54e-301&lt;br&gt;&lt;br&gt;&lt;b&gt;BlastP hit with LLPMBPKK_06004&lt;/b&gt;&lt;br&gt;Percentage identity: 38&lt;br&gt;Percentage coverage: 57&lt;br&gt;BLAST bit score: 891&lt;br&gt;E-value: 1.39e-280&lt;br&gt;&lt;br&gt;&lt;b&gt;BlastP hit with LLPMBPKK_06005&lt;/b&gt;&lt;br&gt;Percentage identity: 41&lt;br&gt;Percentage coverage: 44&lt;br&gt;BLAST bit score: 916&lt;br&gt;E-value: 6.68e-287" locus_tag="SMD11_RS08040" class="clusterblast-orf" id="dummy-22_h22_3_64"  />
</g>
<g id="a22_0065"  >
<polygon points="683,90 700,90 705,85 700,80 683,80 683,90 " style="fill:#1563d8; stroke-width:1; stroke:black; " description="&lt;b&gt;SMD11_RS08035&lt;/b&gt;&lt;br&gt;type I polyketide synthase&lt;br&gt;Location: 1844907 - 1839073&lt;br&gt;&lt;br&gt;&lt;b&gt;BlastP hit with LLPMBPKK_06003&lt;/b&gt;&lt;br&gt;Percentage identity: 44&lt;br&gt;Percentage coverage: 34&lt;br&gt;BLAST bit score: 1113&lt;br&gt;E-value: 0.0&lt;br&gt;&lt;br&gt;&lt;b&gt;BlastP hit with LLPMBPKK_06004&lt;/b&gt;&lt;br&gt;Percentage identity: 45&lt;br&gt;Percentage coverage: 56&lt;br&gt;BLAST bit score: 1083&lt;br&gt;E-value: 0.0&lt;br&gt;&lt;br&gt;&lt;b&gt;BlastP hit with LLPMBPKK_06005&lt;/b&gt;&lt;br&gt;Percentage identity: 44&lt;br&gt;Percentage coverage: 54&lt;br&gt;BLAST bit score: 1221&lt;br&gt;E-value: 0.0" locus_tag="SMD11_RS08035" class="clusterblast-orf" id="dummy-22_h22_3_65"  />
</g>
<g id="a22_0066"  >
<polygon points="705,90 708,85 705,80 705,90 " style="fill:white; stroke-width:1; stroke:black; " description="&lt;b&gt;SMD11_RS08030&lt;/b&gt;&lt;br&gt;class I SAM-dependent methyltransferase&lt;br&gt;Location: 1839073 - 1838360" locus_tag="SMD11_RS08030" class="clusterblast-orf" id="dummy-22_h22_3_66"  />
</g>
<g id="a22_0067"  >
<polygon points="708,90 708,90 713,85 708,80 708,80 708,90 " style="fill:white; stroke-width:1; stroke:black; " description="&lt;b&gt;SMD11_RS08025&lt;/b&gt;&lt;br&gt;P450-derived glycosyltransferase activator&lt;br&gt;Location: 1838195 - 1836972" locus_tag="SMD11_RS08025" class="clusterblast-orf" id="dummy-22_h22_3_67"  />
</g>
<g id="a22_0068"  >
<polygon points="713,90 713,90 718,85 713,80 713,80 713,90 " style="fill:white; stroke-width:1; stroke:black; " description="&lt;b&gt;SMD11_RS08020&lt;/b&gt;&lt;br&gt;activator-dependent family glycosyltransferase&lt;br&gt;Location: 1836893 - 1835619" locus_tag="SMD11_RS08020" class="clusterblast-orf" id="dummy-22_h22_3_68"  />
</g>
<g id="a22_0069"  >
<polygon points="718,85 721,80 721,90 718,85 " style="fill:white; stroke-width:1; stroke:black; " description="&lt;b&gt;SMD11_RS08015&lt;/b&gt;&lt;br&gt;SAM-dependent methyltransferase&lt;br&gt;Location: 1835546 - 1834881" locus_tag="SMD11_RS08015" class="clusterblast-orf" id="dummy-22_h22_3_69"  />
</g>
<g id="a22_0070"  >
<polygon points="721,85 726,80 726,80 726,90 726,90 721,85 " style="fill:white; stroke-width:1; stroke:black; " description="&lt;b&gt;SMD11_RS08010&lt;/b&gt;&lt;br&gt;acyltransferase&lt;br&gt;Location: 1834837 - 1833626" locus_tag="SMD11_RS08010" class="clusterblast-orf" id="dummy-22_h22_3_70"  />
</g>
<g id="a22_0071"  >
<polygon points="726,85 731,80 733,80 733,90 731,90 726,85 " style="fill:white; stroke-width:1; stroke:black; " description="&lt;b&gt;SMD11_RS08005&lt;/b&gt;&lt;br&gt;ABC-F type ribosomal protection protein Car(A)&lt;br&gt;Location: 1833450 - 1831792" locus_tag="SMD11_RS08005" class="clusterblast-orf" id="dummy-22_h22_3_71"  />
</g>
<g id="a22_0072"  >
<polygon points="735,90 738,85 735,80 735,90 " style="fill:white; stroke-width:1; stroke:black; " description="&lt;b&gt;SMD11_RS08000&lt;/b&gt;&lt;br&gt;23S ribosomal RNA methyltransferase Erm&lt;br&gt;Location: 1831309 - 1830380" locus_tag="SMD11_RS08000" class="clusterblast-orf" id="dummy-22_h22_3_72"  />
</g>
<g id="a22_0073"  >
<polygon points="738,85 739,80 739,90 738,85 " style="fill:white; stroke-width:1; stroke:black; " description="&lt;b&gt;SMD11_RS07995&lt;/b&gt;&lt;br&gt;hypothetical protein&lt;br&gt;Location: 1830311 - 1830126" locus_tag="SMD11_RS07995" class="clusterblast-orf" id="dummy-22_h22_3_73"  />
</g>
<g id="a22_0074"  >
<polygon points="740,90 742,85 740,80 740,90 " style="fill:white; stroke-width:1; stroke:black; " description="&lt;b&gt;SMD11_RS07990&lt;/b&gt;&lt;br&gt;TetR/AcrR family transcriptional regulator&lt;br&gt;Location: 1830003 - 1829395" locus_tag="SMD11_RS07990" class="clusterblast-orf" id="dummy-22_h22_3_74"  />
</g>
<g id="a22_0075"  >
<polygon points="743,90 744,85 743,80 743,90 " style="fill:#d88a15; stroke-width:1; stroke:black; " description="&lt;b&gt;SMD11_RS07985&lt;/b&gt;&lt;br&gt;cell division protein SepF&lt;br&gt;Location: 1829207 - 1828803&lt;br&gt;&lt;br&gt;&lt;b&gt;BlastP hit with LLPMBPKK_06013&lt;/b&gt;&lt;br&gt;Percentage identity: 74&lt;br&gt;Percentage coverage: 92&lt;br&gt;BLAST bit score: 170&lt;br&gt;E-value: 8.96e-54" locus_tag="SMD11_RS07985" class="clusterblast-orf" id="dummy-22_h22_3_75"  />
</g>
<g id="a22_0076"  >
<polygon points="744,90 744,90 749,85 744,80 744,80 744,90 " style="fill:#15d863; stroke-width:1; stroke:black; " description="&lt;b&gt;SMD11_RS07980&lt;/b&gt;&lt;br&gt;biotin transporter BioY&lt;br&gt;Location: 1828778 - 1827555&lt;br&gt;&lt;br&gt;&lt;b&gt;BlastP hit with LLPMBPKK_06014&lt;/b&gt;&lt;br&gt;Percentage identity: 63&lt;br&gt;Percentage coverage: 99&lt;br&gt;BLAST bit score: 432&lt;br&gt;E-value: 5.65e-149" locus_tag="SMD11_RS07980" class="clusterblast-orf" id="dummy-22_h22_3_76"  />
</g>
<g id="a22_0077"  >
<polygon points="750,90 751,85 750,80 750,90 " style="fill:#3c15d8; stroke-width:1; stroke:black; " description="&lt;b&gt;SMD11_RS07975&lt;/b&gt;&lt;br&gt;nucleotide pyrophosphohydrolase&lt;br&gt;Location: 1827355 - 1826982&lt;br&gt;&lt;br&gt;&lt;b&gt;BlastP hit with LLPMBPKK_06015&lt;/b&gt;&lt;br&gt;Percentage identity: 82&lt;br&gt;Percentage coverage: 69&lt;br&gt;BLAST bit score: 139&lt;br&gt;E-value: 5.04e-42" locus_tag="SMD11_RS07975" class="clusterblast-orf" id="dummy-22_h22_3_77"  />
</g>
<g id="a22_0078"  >
<polygon points="752,90 754,85 752,80 752,90 " style="fill:#d8158a; stroke-width:1; stroke:black; " description="&lt;b&gt;SMD11_RS07970&lt;/b&gt;&lt;br&gt;hypothetical protein&lt;br&gt;Location: 1826776 - 1826318&lt;br&gt;&lt;br&gt;&lt;b&gt;BlastP hit with LLPMBPKK_06016&lt;/b&gt;&lt;br&gt;Percentage identity: 48&lt;br&gt;Percentage coverage: 92&lt;br&gt;BLAST bit score: 105&lt;br&gt;E-value: 1.04e-27" locus_tag="SMD11_RS07970" class="clusterblast-orf" id="dummy-22_h22_3_78"  />
</g>
<g id="a22_0079"  >
<polygon points="754,85 755,80 755,90 754,85 " style="fill:#b1d815; stroke-width:1; stroke:black; " description="&lt;b&gt;SMD11_RS07965&lt;/b&gt;&lt;br&gt;hypothetical protein&lt;br&gt;Location: 1826306 - 1826112&lt;br&gt;&lt;br&gt;&lt;b&gt;BlastP hit with LLPMBPKK_06017&lt;/b&gt;&lt;br&gt;Percentage identity: 59&lt;br&gt;Percentage coverage: 83&lt;br&gt;BLAST bit score: 46&lt;br&gt;E-value: 1.12e-06" locus_tag="SMD11_RS07965" class="clusterblast-orf" id="dummy-22_h22_3_79"  />
</g>
<g id="a22_0080"  >
<polygon points="755,90 759,85 755,80 755,90 " style="fill:#15d8d8; stroke-width:1; stroke:black; " description="&lt;b&gt;SMD11_RS07960&lt;/b&gt;&lt;br&gt;LLM class F420-dependent oxidoreductase&lt;br&gt;Location: 1825864 - 1824941&lt;br&gt;&lt;br&gt;&lt;b&gt;BlastP hit with LLPMBPKK_06018&lt;/b&gt;&lt;br&gt;Percentage identity: 89&lt;br&gt;Percentage coverage: 100&lt;br&gt;BLAST bit score: 539&lt;br&gt;E-value: 3.76e-194" locus_tag="SMD11_RS07960" class="clusterblast-orf" id="dummy-22_h22_3_80"  />
</g>
<g id="a22_0081"  >
<polygon points="759,90 763,85 759,80 759,90 " style="fill:white; stroke-width:1; stroke:black; " description="&lt;b&gt;SMD11_RS07955&lt;/b&gt;&lt;br&gt;homocysteine S-methyltransferase&lt;br&gt;Location: 1824880 - 1823972" locus_tag="SMD11_RS07955" class="clusterblast-orf" id="dummy-22_h22_3_81"  />
</g>
<g id="a22_0082"  >
<polygon points="763,90 764,90 769,85 764,80 763,80 763,90 " style="fill:white; stroke-width:1; stroke:black; " description="&lt;b&gt;SMD11_RS07950&lt;/b&gt;&lt;br&gt;3' terminal RNA ribose 2'-O-methyltransferase Hen1&lt;br&gt;Location: 1823820 - 1822330" locus_tag="SMD11_RS07950" class="clusterblast-orf" id="dummy-22_h22_3_82"  />
</g>
<g id="a22_0083"  >
<polygon points="769,90 775,90 780,85 775,80 769,80 769,90 " style="fill:white; stroke-width:1; stroke:black; " description="&lt;b&gt;SMD11_RS07945&lt;/b&gt;&lt;br&gt;polynucleotide kinase-phosphatase&lt;br&gt;Location: 1822333 - 1819586" locus_tag="SMD11_RS07945" class="clusterblast-orf" id="dummy-22_h22_3_83"  />
</g>
</svg>
