<svg xmlns="http://www.w3.org/2000/svg" xmlns:xlink="http://www.w3.org/1999/xlink" version="1.1" x="0" y="0" height="230" width="800" viewBox="0 0 800 230" preserveAspectRatio="none"  >
<g label="Query sequence" class="clusterblast-cluster"  >
<text x="5" y="20" class="clusterblast-acc"  >
Query sequence</text>
<line x1="10" y1="35" x2="778.0" y2="35" style="stroke-width:1; stroke:grey; "  />
<polygon points="202,40 222,40 227,35 222,30 202,30 202,40 " style="fill:#d81515; stroke-width:1; stroke:black; " description="&lt;b&gt;LLPMBPKK_00843&lt;/b&gt;&lt;br&gt;hypothetical protein&lt;br&gt;Location: 1055682 - 1056348" locus_tag="LLPMBPKK_00843" class="clusterblast-orf" id="dummy-7_q0_0_all"  />
<polygon points="233,40 245,40 250,35 245,30 233,30 233,40 " style="fill:white; stroke-width:1; stroke:black; " description="&lt;b&gt;LLPMBPKK_00844&lt;/b&gt;&lt;br&gt;VOC family protein&lt;br&gt;Location: 1056519 - 1056945" locus_tag="LLPMBPKK_00844" class="clusterblast-orf" id="dummy-7_q1_0_all"  />
<polygon points="253,35 258,30 273,30 273,40 258,40 253,35 " style="fill:#5cd815; stroke-width:1; stroke:black; " description="&lt;b&gt;LLPMBPKK_00845&lt;/b&gt;&lt;br&gt;integral membrane protein&lt;br&gt;Location: 1057026 - 1057557" locus_tag="LLPMBPKK_00845" class="clusterblast-orf" id="dummy-7_q2_0_all"  />
<polygon points="275,35 280,30 313,30 313,40 280,40 275,35 " style="fill:#15a3d8; stroke-width:1; stroke:black; " description="&lt;b&gt;LLPMBPKK_00846&lt;/b&gt;&lt;br&gt;aldo/keto reductase&lt;br&gt;Location: 1057609 - 1058593" locus_tag="LLPMBPKK_00846" class="clusterblast-orf" id="dummy-7_q3_0_all"  />
<polygon points="322,35 327,30 367,30 367,40 327,40 322,35 " style="fill:#c715d8; stroke-width:1; stroke:black; " description="&lt;b&gt;LLPMBPKK_00847&lt;/b&gt;&lt;br&gt;FAD-binding monooxygenase&lt;br&gt;Location: 1058831 - 1060028" locus_tag="LLPMBPKK_00847" class="clusterblast-orf" id="dummy-7_q4_0_all"  />
<polygon points="380,40 390,40 395,35 390,30 380,30 380,40 " style="fill:#d88015; stroke-width:1; stroke:black; " description="&lt;b&gt;LLPMBPKK_00848&lt;/b&gt;&lt;br&gt;Tyrosinase co-factor MelC1&lt;br&gt;Location: 1060366 - 1060744" locus_tag="LLPMBPKK_00848" class="clusterblast-orf" id="dummy-7_q5_0_all"  />
<polygon points="396,40 422,40 427,35 422,30 396,30 396,40 " style="fill:#15d839; stroke-width:1; stroke:black; " description="&lt;b&gt;LLPMBPKK_00849&lt;/b&gt;&lt;br&gt;tyrosinase family protein&lt;br&gt;Location: 1060778 - 1061600" locus_tag="LLPMBPKK_00849" class="clusterblast-orf" id="dummy-7_q6_0_all"  />
<polygon points="427,35 432,30 455,30 455,40 432,40 427,35 " style="fill:#1539d8; stroke-width:1; stroke:black; " description="&lt;b&gt;LLPMBPKK_00850&lt;/b&gt;&lt;br&gt;ribonuclease HI&lt;br&gt;Location: 1061600 - 1062320" locus_tag="LLPMBPKK_00850" class="clusterblast-orf" id="dummy-7_q7_0_all"  />
<polygon points="456,35 461,30 486,30 486,40 461,40 456,35 " style="fill:#d81580; stroke-width:1; stroke:black; " description="&lt;b&gt;LLPMBPKK_00851&lt;/b&gt;&lt;br&gt;VOC family protein&lt;br&gt;Location: 1062354 - 1063149" locus_tag="LLPMBPKK_00851" class="clusterblast-orf" id="dummy-7_q8_0_all"  />
<polygon points="491,35 496,30 510,30 510,40 496,40 491,35 " style="fill:#c7d815; stroke-width:1; stroke:black; " description="&lt;b&gt;LLPMBPKK_00852&lt;/b&gt;&lt;br&gt;DNA-binding protein&lt;br&gt;Location: 1063287 - 1063770" locus_tag="LLPMBPKK_00852" class="clusterblast-orf" id="dummy-7_q9_0_all"  />
<polygon points="519,35 524,30 534,30 534,40 524,40 519,35 " style="fill:#15d8a3; stroke-width:1; stroke:black; " description="&lt;b&gt;LLPMBPKK_00853&lt;/b&gt;&lt;br&gt;XRE family transcriptional regulator&lt;br&gt;Location: 1064011 - 1064404" locus_tag="LLPMBPKK_00853" class="clusterblast-orf" id="dummy-7_q10_0_all"  />
<polygon points="544,40 573,40 578,35 573,30 544,30 544,40 " style="fill:#5c15d8; stroke-width:1; stroke:black; " description="&lt;b&gt;LLPMBPKK_00854&lt;/b&gt;&lt;br&gt;RNA polymerase sigma factor SigF&lt;br&gt;Location: 1064671 - 1065562" locus_tag="LLPMBPKK_00854" class="clusterblast-orf" id="dummy-7_q11_0_all"  />
</g>
<g label="NZ_CP050692" description="NZ_CP050692 (686665-707133): Streptomyces antibioticus strain DSM 41481 chrom... (42% of genes show similarity), melanin,terpene" class="clusterblast-cluster"  >
<text x="5" y="70" class="clusterblast-acc"  >
<a xlink:href="https://antismash-db.secondarymetabolites.org/area.html?record=NZ_CP050692&amp;start=686665&amp;end=707133" target="_blank">NZ_CP050692 (686665-707133)</a>: Streptomyces antibioticus strain DSM 41481 chrom... (42% of genes show similarity), melanin,terpene</text>
<line x1="10" y1="85" x2="778.0" y2="85" style="stroke-width:1; stroke:grey; "  />
</g>
<g id="a7_000"  >
<polygon points="0,85 5,80 37,80 37,90 5,90 0,85 " style="fill:#15a3d8; stroke-width:1; stroke:black; " description="&lt;b&gt;HCX60_RS03080&lt;/b&gt;&lt;br&gt;aldo/keto reductase&lt;br&gt;Location: 686666 - 687649&lt;br&gt;&lt;br&gt;&lt;b&gt;BlastP hit with LLPMBPKK_00846&lt;/b&gt;&lt;br&gt;Percentage identity: 87&lt;br&gt;Percentage coverage: 100&lt;br&gt;BLAST bit score: 568&lt;br&gt;E-value: 9.28e-205" locus_tag="HCX60_RS03080" class="clusterblast-orf" id="dummy-7_h7_9_0"  />
</g>
<g id="a7_001"  >
<polygon points="39,85 44,80 62,80 62,90 44,90 39,85 " style="fill:white; stroke-width:1; stroke:black; " description="&lt;b&gt;HCX60_RS03085&lt;/b&gt;&lt;br&gt;TetR/AcrR family transcriptional regulator&lt;br&gt;Location: 687700 - 688314" locus_tag="HCX60_RS03085" class="clusterblast-orf" id="dummy-7_h7_9_1"  />
</g>
<g id="a7_002"  >
<polygon points="62,85 67,80 120,80 120,90 67,90 62,85 " style="fill:white; stroke-width:1; stroke:black; " description="&lt;b&gt;HCX60_RS03090&lt;/b&gt;&lt;br&gt;MFS transporter&lt;br&gt;Location: 688311 - 689831" locus_tag="HCX60_RS03090" class="clusterblast-orf" id="dummy-7_h7_9_2"  />
</g>
<g id="a7_003"  >
<polygon points="124,85 129,80 170,80 170,90 129,90 124,85 " style="fill:#c715d8; stroke-width:1; stroke:black; " description="&lt;b&gt;HCX60_RS03095&lt;/b&gt;&lt;br&gt;FAD-binding monooxygenase&lt;br&gt;Location: 689924 - 691147&lt;br&gt;&lt;br&gt;&lt;b&gt;BlastP hit with LLPMBPKK_00847&lt;/b&gt;&lt;br&gt;Percentage identity: 71&lt;br&gt;Percentage coverage: 100&lt;br&gt;BLAST bit score: 555&lt;br&gt;E-value: 2.07e-197" locus_tag="HCX60_RS03095" class="clusterblast-orf" id="dummy-7_h7_9_3"  />
</g>
<g id="a7_004"  >
<polygon points="184,90 195,90 200,85 195,80 184,80 184,90 " style="fill:#d88015; stroke-width:1; stroke:black; " description="&lt;b&gt;HCX60_RS03100&lt;/b&gt;&lt;br&gt;tyrosinase&lt;br&gt;Location: 691496 - 691936&lt;br&gt;&lt;br&gt;&lt;b&gt;BlastP hit with LLPMBPKK_00848&lt;/b&gt;&lt;br&gt;Percentage identity: 59&lt;br&gt;Percentage coverage: 117&lt;br&gt;BLAST bit score: 132&lt;br&gt;E-value: 6.22e-39" locus_tag="HCX60_RS03100" class="clusterblast-orf" id="dummy-7_h7_9_4"  />
</g>
<g id="a7_005"  >
<polygon points="202,90 228,90 233,85 228,80 202,80 202,90 " style="fill:#15d839; stroke-width:1; stroke:black; " description="&lt;b&gt;HCX60_RS03105&lt;/b&gt;&lt;br&gt;tyrosinase family protein&lt;br&gt;Location: 691969 - 692790&lt;br&gt;&lt;br&gt;&lt;b&gt;BlastP hit with LLPMBPKK_00849&lt;/b&gt;&lt;br&gt;Percentage identity: 85&lt;br&gt;Percentage coverage: 100&lt;br&gt;BLAST bit score: 512&lt;br&gt;E-value: 1.28e-184" locus_tag="HCX60_RS03105" class="clusterblast-orf" id="dummy-7_h7_9_5"  />
</g>
<g id="a7_006"  >
<polygon points="233,85 238,80 259,80 259,90 238,90 233,85 " style="fill:#1539d8; stroke-width:1; stroke:black; " description="&lt;b&gt;HCX60_RS03110&lt;/b&gt;&lt;br&gt;ribonuclease HI&lt;br&gt;Location: 692791 - 693486&lt;br&gt;&lt;br&gt;&lt;b&gt;BlastP hit with LLPMBPKK_00850&lt;/b&gt;&lt;br&gt;Percentage identity: 79&lt;br&gt;Percentage coverage: 101&lt;br&gt;BLAST bit score: 367&lt;br&gt;E-value: 1.41e-128" locus_tag="HCX60_RS03110" class="clusterblast-orf" id="dummy-7_h7_9_6"  />
</g>
<g id="a7_007"  >
<polygon points="263,85 268,80 293,80 293,90 268,90 263,85 " style="fill:#d81580; stroke-width:1; stroke:black; " description="&lt;b&gt;HCX60_RS03115&lt;/b&gt;&lt;br&gt;VOC family protein&lt;br&gt;Location: 693572 - 694366&lt;br&gt;&lt;br&gt;&lt;b&gt;BlastP hit with LLPMBPKK_00851&lt;/b&gt;&lt;br&gt;Percentage identity: 82&lt;br&gt;Percentage coverage: 100&lt;br&gt;BLAST bit score: 468&lt;br&gt;E-value: 2.16e-167" locus_tag="HCX60_RS03115" class="clusterblast-orf" id="dummy-7_h7_9_7"  />
</g>
<g id="a7_008"  >
<polygon points="307,90 357,90 362,85 357,80 307,80 307,90 " style="fill:white; stroke-width:1; stroke:black; " description="&lt;b&gt;HCX60_RS03120&lt;/b&gt;&lt;br&gt;cyclic nucleotide-binding domain-containing protein&lt;br&gt;Location: 694737 - 696179" locus_tag="HCX60_RS03120" class="clusterblast-orf" id="dummy-7_h7_9_8"  />
</g>
<g id="a7_009"  >
<polygon points="365,90 399,90 404,85 399,80 365,80 365,90 " style="fill:white; stroke-width:1; stroke:black; " description="&lt;b&gt;HCX60_RS03125&lt;/b&gt;&lt;br&gt;cyclase&lt;br&gt;Location: 696248 - 697282" locus_tag="HCX60_RS03125" class="clusterblast-orf" id="dummy-7_h7_9_9"  />
</g>
<g id="a7_0010"  >
<polygon points="406,90 435,90 440,85 435,80 406,80 406,90 " style="fill:white; stroke-width:1; stroke:black; " description="&lt;b&gt;HCX60_RS03130&lt;/b&gt;&lt;br&gt;methyltransferase domain-containing protein&lt;br&gt;Location: 697343 - 698221" locus_tag="HCX60_RS03130" class="clusterblast-orf" id="dummy-7_h7_9_10"  />
</g>
<g id="a7_0011"  >
<polygon points="440,85 445,80 459,80 459,90 445,90 440,85 " style="fill:#c7d815; stroke-width:1; stroke:black; " description="&lt;b&gt;HCX60_RS03135&lt;/b&gt;&lt;br&gt;VOC family protein&lt;br&gt;Location: 698231 - 698713&lt;br&gt;&lt;br&gt;&lt;b&gt;BlastP hit with LLPMBPKK_00852&lt;/b&gt;&lt;br&gt;Percentage identity: 72&lt;br&gt;Percentage coverage: 99&lt;br&gt;BLAST bit score: 243&lt;br&gt;E-value: 8.31e-82" locus_tag="HCX60_RS03135" class="clusterblast-orf" id="dummy-7_h7_9_11"  />
</g>
<g id="a7_0012"  >
<polygon points="466,90 485,90 490,85 485,80 466,80 466,90 " style="fill:white; stroke-width:1; stroke:black; " description="&lt;b&gt;HCX60_RS03140&lt;/b&gt;&lt;br&gt;ATP-dependent Clp protease proteolytic subunit&lt;br&gt;Location: 698904 - 699542" locus_tag="HCX60_RS03140" class="clusterblast-orf" id="dummy-7_h7_9_12"  />
</g>
<g id="a7_0013"  >
<polygon points="490,90 508,90 513,85 508,80 490,80 490,90 " style="fill:white; stroke-width:1; stroke:black; " description="&lt;b&gt;HCX60_RS03145&lt;/b&gt;&lt;br&gt;ATP-dependent Clp protease proteolytic subunit&lt;br&gt;Location: 699544 - 700146" locus_tag="HCX60_RS03145" class="clusterblast-orf" id="dummy-7_h7_9_13"  />
</g>
<g id="a7_0014"  >
<polygon points="517,85 522,80 531,80 531,90 522,90 517,85 " style="fill:#15d8a3; stroke-width:1; stroke:black; " description="&lt;b&gt;HCX60_RS03150&lt;/b&gt;&lt;br&gt;helix-turn-helix transcriptional regulator&lt;br&gt;Location: 700233 - 700622&lt;br&gt;&lt;br&gt;&lt;b&gt;BlastP hit with LLPMBPKK_00853&lt;/b&gt;&lt;br&gt;Percentage identity: 68&lt;br&gt;Percentage coverage: 97&lt;br&gt;BLAST bit score: 144&lt;br&gt;E-value: 8.77e-44" locus_tag="HCX60_RS03150" class="clusterblast-orf" id="dummy-7_h7_9_14"  />
</g>
<g id="a7_0015"  >
<polygon points="537,90 565,90 570,85 565,80 537,80 537,90 " style="fill:#5c15d8; stroke-width:1; stroke:black; " description="&lt;b&gt;HCX60_RS03155&lt;/b&gt;&lt;br&gt;RNA polymerase sigma factor SigF&lt;br&gt;Location: 700778 - 701644&lt;br&gt;&lt;br&gt;&lt;b&gt;BlastP hit with LLPMBPKK_00854&lt;/b&gt;&lt;br&gt;Percentage identity: 84&lt;br&gt;Percentage coverage: 99&lt;br&gt;BLAST bit score: 477&lt;br&gt;E-value: 4.08e-170" locus_tag="HCX60_RS03155" class="clusterblast-orf" id="dummy-7_h7_9_15"  />
</g>
<g id="a7_0016"  >
<polygon points="571,85 576,80 588,80 588,90 576,90 571,85 " style="fill:white; stroke-width:1; stroke:black; " description="&lt;b&gt;HCX60_RS03160&lt;/b&gt;&lt;br&gt;ATP-binding protein&lt;br&gt;Location: 701663 - 702115" locus_tag="HCX60_RS03160" class="clusterblast-orf" id="dummy-7_h7_9_16"  />
</g>
<g id="a7_0017"  >
<polygon points="596,90 640,90 645,85 640,80 596,80 596,90 " style="fill:white; stroke-width:1; stroke:black; " description="&lt;b&gt;HCX60_RS03165&lt;/b&gt;&lt;br&gt;hypothetical protein&lt;br&gt;Location: 702310 - 703596" locus_tag="HCX60_RS03165" class="clusterblast-orf" id="dummy-7_h7_9_17"  />
</g>
<g id="a7_0018"  >
<polygon points="646,85 651,80 735,80 735,90 651,90 646,85 " style="fill:white; stroke-width:1; stroke:black; " description="&lt;b&gt;HCX60_RS03170&lt;/b&gt;&lt;br&gt;ATP transporter ATP-binding protein/permease&lt;br&gt;Location: 703617 - 705962" locus_tag="HCX60_RS03170" class="clusterblast-orf" id="dummy-7_h7_9_18"  />
</g>
<g id="a7_0019"  >
<polygon points="737,85 742,80 753,80 753,90 742,90 737,85 " style="fill:white; stroke-width:1; stroke:black; " description="&lt;b&gt;HCX60_RS03175&lt;/b&gt;&lt;br&gt;hypothetical protein&lt;br&gt;Location: 706029 - 706439" locus_tag="HCX60_RS03175" class="clusterblast-orf" id="dummy-7_h7_9_19"  />
</g>
<g id="a7_0020"  >
<polygon points="765,90 775,90 780,85 775,80 765,80 765,90 " style="fill:white; stroke-width:1; stroke:black; " description="&lt;b&gt;HCX60_RS03180&lt;/b&gt;&lt;br&gt;nuclear transport factor 2 family protein&lt;br&gt;Location: 706750 - 707133" locus_tag="HCX60_RS03180" class="clusterblast-orf" id="dummy-7_h7_9_20"  />
</g>
</svg>
