<svg xmlns="http://www.w3.org/2000/svg" xmlns:xlink="http://www.w3.org/1999/xlink" version="1.1" x="0" y="0" height="230" width="800" viewBox="0 0 800 230" preserveAspectRatio="none"  >
<g label="Query sequence" class="clusterblast-cluster"  >
<text x="5" y="20" class="clusterblast-acc"  >
Query sequence</text>
<line x1="10" y1="35" x2="778.0" y2="35" style="stroke-width:1; stroke:grey; "  />
<polygon points="0,40 3,40 8,35 3,30 0,30 0,40 " style="fill:#d81515; stroke-width:1; stroke:black; " description="&lt;b&gt;LLPMBPKK_07173&lt;/b&gt;&lt;br&gt;Polysaccharide deacetylase&lt;br&gt;Location: 8309065 - 8309899" locus_tag="LLPMBPKK_07173" class="clusterblast-orf" id="dummy-31_q0_0_all"  />
<polygon points="12,35 17,30 23,30 23,40 17,40 12,35 " style="fill:#77d815; stroke-width:1; stroke:black; " description="&lt;b&gt;LLPMBPKK_07174&lt;/b&gt;&lt;br&gt;Processive diacylglycerolbeta-glucosyltransferase&lt;br&gt;Location: 8310344 - 8311391" locus_tag="LLPMBPKK_07174" class="clusterblast-orf" id="dummy-31_q1_0_all"  />
<polygon points="25,40 29,40 34,35 29,30 25,30 25,40 " style="fill:#15d8d8; stroke-width:1; stroke:black; " description="&lt;b&gt;LLPMBPKK_07175&lt;/b&gt;&lt;br&gt;hypothetical protein&lt;br&gt;Location: 8311642 - 8312464" locus_tag="LLPMBPKK_07175" class="clusterblast-orf" id="dummy-31_q2_0_all"  />
<polygon points="34,35 39,30 62,30 62,40 39,40 34,35 " style="fill:#7715d8; stroke-width:1; stroke:black; " description="&lt;b&gt;LLPMBPKK_07176&lt;/b&gt;&lt;br&gt;NHLP bacteriocin export ABC transporterpermease/ATPase subunit&lt;br&gt;Location: 8312460 - 8315277" locus_tag="LLPMBPKK_07176" class="clusterblast-orf" id="dummy-31_q3_0_all"  />
<polygon points="62,35 67,30 84,30 84,40 67,40 62,35 " style="fill:#7715d8; stroke-width:1; stroke:black; " description="&lt;b&gt;LLPMBPKK_07177&lt;/b&gt;&lt;br&gt;NHLP family bacteriocin export ABC transporter peptidase/permease/ATPase subunit&lt;br&gt;Location: 8315278 - 8317501" locus_tag="LLPMBPKK_07177" class="clusterblast-orf" id="dummy-31_q4_0_all"  />
<polygon points="84,35 89,30 92,30 92,40 89,40 84,35 " style="fill:#d83f15; stroke-width:1; stroke:black; " description="&lt;b&gt;LLPMBPKK_07178&lt;/b&gt;&lt;br&gt;HlyD family efflux transporter periplasmicadaptor subunit&lt;br&gt;Location: 8317497 - 8318304" locus_tag="LLPMBPKK_07178" class="clusterblast-orf" id="dummy-31_q5_0_all"  />
<polygon points="93,35 96,30 96,40 93,35 " style="fill:#4dd815; stroke-width:1; stroke:black; " description="&lt;b&gt;LLPMBPKK_07179&lt;/b&gt;&lt;br&gt;hypothetical protein&lt;br&gt;Location: 8318405 - 8318624" locus_tag="LLPMBPKK_07179" class="clusterblast-orf" id="dummy-31_q6_0_all"  />
<polygon points="100,35 103,30 103,40 100,35 " style="fill:#15aed8; stroke-width:1; stroke:black; " description="&lt;b&gt;LLPMBPKK_07180&lt;/b&gt;&lt;br&gt;PaaI family thioesterase&lt;br&gt;Location: 8319076 - 8319319" locus_tag="LLPMBPKK_07180" class="clusterblast-orf" id="dummy-31_q7_0_all"  />
<polygon points="106,40 116,40 121,35 116,30 106,30 106,40 " style="fill:#a115d8; stroke-width:1; stroke:black; " description="&lt;b&gt;LLPMBPKK_07181&lt;/b&gt;&lt;br&gt;S1 family peptidase&lt;br&gt;Location: 8319665 - 8321150" locus_tag="LLPMBPKK_07181" class="clusterblast-orf" id="dummy-31_q8_0_all"  />
<polygon points="122,35 127,30 144,30 144,40 127,40 122,35 " style="fill:#d86915; stroke-width:1; stroke:black; " description="&lt;b&gt;LLPMBPKK_07182&lt;/b&gt;&lt;br&gt;magnesium or manganese-dependent proteinphosphatase&lt;br&gt;Location: 8321293 - 8323417" locus_tag="LLPMBPKK_07182" class="clusterblast-orf" id="dummy-31_q9_0_all"  />
<polygon points="159,40 166,40 171,35 166,30 159,30 159,40 " style="fill:#23d815; stroke-width:1; stroke:black; " description="&lt;b&gt;LLPMBPKK_07183&lt;/b&gt;&lt;br&gt;cytochrome P450&lt;br&gt;Location: 8324921 - 8326130" locus_tag="LLPMBPKK_07183" class="clusterblast-orf" id="dummy-31_q10_0_all"  />
<polygon points="172,40 181,40 186,35 181,30 172,30 172,40 " style="fill:#1585d8; stroke-width:1; stroke:black; " description="&lt;b&gt;LLPMBPKK_07184&lt;/b&gt;&lt;br&gt;alpha/beta hydrolase MppK&lt;br&gt;Location: 8326230 - 8327592" locus_tag="LLPMBPKK_07184" class="clusterblast-orf" id="dummy-31_q11_0_all"  />
<polygon points="191,40 373,40 378,35 373,30 191,30 191,40 " style="fill:#ca15d8; stroke-width:1; stroke:black; " description="&lt;b&gt;LLPMBPKK_07185&lt;/b&gt;&lt;br&gt;non-ribosomal peptide synthetase&lt;br&gt;Location: 8328105 - 8346762" locus_tag="LLPMBPKK_07185" class="clusterblast-orf" id="dummy-31_q12_0_all"  />
<polygon points="378,40 575,40 580,35 575,30 378,30 378,40 " style="fill:#ca15d8; stroke-width:1; stroke:black; " description="&lt;b&gt;LLPMBPKK_07186&lt;/b&gt;&lt;br&gt;D-alanine--poly(phosphoribitol) ligase subunit 1&lt;br&gt;Location: 8346775 - 8366839" locus_tag="LLPMBPKK_07186" class="clusterblast-orf" id="dummy-31_q13_0_all"  />
<polygon points="581,40 583,35 581,30 581,40 " style="fill:#d89315; stroke-width:1; stroke:black; " description="&lt;b&gt;LLPMBPKK_07187&lt;/b&gt;&lt;br&gt;MbtH family NRPS accessory protein&lt;br&gt;Location: 8366970 - 8367174" locus_tag="LLPMBPKK_07187" class="clusterblast-orf" id="dummy-31_q14_0_all"  />
<polygon points="587,40 587,40 592,35 587,30 587,30 587,40 " style="fill:#15d831; stroke-width:1; stroke:black; " description="&lt;b&gt;LLPMBPKK_07188&lt;/b&gt;&lt;br&gt;N-acetyltransferase&lt;br&gt;Location: 8367504 - 8368035" locus_tag="LLPMBPKK_07188" class="clusterblast-orf" id="dummy-31_q15_0_all"  />
<polygon points="592,40 600,40 605,35 600,30 592,30 592,40 " style="fill:#155bd8; stroke-width:1; stroke:black; " description="&lt;b&gt;LLPMBPKK_07189&lt;/b&gt;&lt;br&gt;major facilitator superfamily transporter&lt;br&gt;Location: 8368031 - 8369297" locus_tag="LLPMBPKK_07189" class="clusterblast-orf" id="dummy-31_q16_0_all"  />
<polygon points="607,40 626,40 631,35 626,30 607,30 607,40 " style="fill:#d86915; stroke-width:1; stroke:black; " description="&lt;b&gt;LLPMBPKK_07190&lt;/b&gt;&lt;br&gt;signal transduction histidine kinase&lt;br&gt;Location: 8369574 - 8371950" locus_tag="LLPMBPKK_07190" class="clusterblast-orf" id="dummy-31_q17_0_all"  />
<polygon points="632,40 635,35 632,30 632,40 " style="fill:#d815bc; stroke-width:1; stroke:black; " description="&lt;b&gt;LLPMBPKK_07191&lt;/b&gt;&lt;br&gt;hypothetical protein&lt;br&gt;Location: 8372031 - 8372304" locus_tag="LLPMBPKK_07191" class="clusterblast-orf" id="dummy-31_q18_0_all"  />
<polygon points="637,40 641,35 637,30 637,40 " style="fill:#d8bc15; stroke-width:1; stroke:black; " description="&lt;b&gt;LLPMBPKK_07192&lt;/b&gt;&lt;br&gt;hypothetical protein&lt;br&gt;Location: 8372511 - 8372928" locus_tag="LLPMBPKK_07192" class="clusterblast-orf" id="dummy-31_q19_0_all"  />
<polygon points="643,40 644,35 643,30 643,40 " style="fill:#15d85b; stroke-width:1; stroke:black; " description="&lt;b&gt;LLPMBPKK_07193&lt;/b&gt;&lt;br&gt;hypothetical protein&lt;br&gt;Location: 8373070 - 8373256" locus_tag="LLPMBPKK_07193" class="clusterblast-orf" id="dummy-31_q20_0_all"  />
<polygon points="645,35 650,30 651,30 651,40 650,40 645,35 " style="fill:#1531d8; stroke-width:1; stroke:black; " description="&lt;b&gt;LLPMBPKK_07194&lt;/b&gt;&lt;br&gt;hydrolase&lt;br&gt;Location: 8373290 - 8373875" locus_tag="LLPMBPKK_07194" class="clusterblast-orf" id="dummy-31_q21_0_all"  />
<polygon points="652,35 657,30 657,30 657,40 657,40 652,35 " style="fill:#d81593; stroke-width:1; stroke:black; " description="&lt;b&gt;LLPMBPKK_07195&lt;/b&gt;&lt;br&gt;MarR family transcriptional regulator&lt;br&gt;Location: 8374017 - 8374455" locus_tag="LLPMBPKK_07195" class="clusterblast-orf" id="dummy-31_q22_0_all"  />
<polygon points="658,40 684,40 689,35 684,30 658,30 658,40 " style="fill:#cad815; stroke-width:1; stroke:black; " description="&lt;b&gt;LLPMBPKK_07196&lt;/b&gt;&lt;br&gt;FAD-binding oxidoreductase&lt;br&gt;Location: 8374640 - 8377685" locus_tag="LLPMBPKK_07196" class="clusterblast-orf" id="dummy-31_q23_0_all"  />
<polygon points="689,40 695,40 700,35 695,30 689,30 689,40 " style="fill:#15d885; stroke-width:1; stroke:black; " description="&lt;b&gt;LLPMBPKK_07197&lt;/b&gt;&lt;br&gt;mandelate racemase&lt;br&gt;Location: 8377687 - 8378797" locus_tag="LLPMBPKK_07197" class="clusterblast-orf" id="dummy-31_q24_0_all"  />
<polygon points="700,40 706,40 711,35 706,30 700,30 700,40 " style="fill:#2315d8; stroke-width:1; stroke:black; " description="&lt;b&gt;LLPMBPKK_07198&lt;/b&gt;&lt;br&gt;SDR family NAD(P)-dependent oxidoreductase&lt;br&gt;Location: 8378830 - 8379838" locus_tag="LLPMBPKK_07198" class="clusterblast-orf" id="dummy-31_q25_0_all"  />
<polygon points="711,40 711,40 716,35 711,30 711,30 711,40 " style="fill:#d81569; stroke-width:1; stroke:black; " description="&lt;b&gt;LLPMBPKK_07199&lt;/b&gt;&lt;br&gt;metallophosphoesterase&lt;br&gt;Location: 8379862 - 8380348" locus_tag="LLPMBPKK_07199" class="clusterblast-orf" id="dummy-31_q26_0_all"  />
<polygon points="716,40 717,40 722,35 717,30 716,30 716,40 " style="fill:#a1d815; stroke-width:1; stroke:black; " description="&lt;b&gt;LLPMBPKK_07200&lt;/b&gt;&lt;br&gt;N-acetyltransferase&lt;br&gt;Location: 8380373 - 8380964" locus_tag="LLPMBPKK_07200" class="clusterblast-orf" id="dummy-31_q27_0_all"  />
<polygon points="727,35 732,30 738,30 738,40 732,40 727,35 " style="fill:#15d8ae; stroke-width:1; stroke:black; " description="&lt;b&gt;LLPMBPKK_07201&lt;/b&gt;&lt;br&gt;xanthine dehydrogenase&lt;br&gt;Location: 8381495 - 8382602" locus_tag="LLPMBPKK_07201" class="clusterblast-orf" id="dummy-31_q28_0_all"  />
<polygon points="740,40 755,40 760,35 755,30 740,30 740,40 " style="fill:#4d15d8; stroke-width:1; stroke:black; " description="&lt;b&gt;LLPMBPKK_07202&lt;/b&gt;&lt;br&gt;GTP-binding protein&lt;br&gt;Location: 8382788 - 8384783" locus_tag="LLPMBPKK_07202" class="clusterblast-orf" id="dummy-31_q29_0_all"  />
<polygon points="761,40 775,40 780,35 775,30 761,30 761,40 " style="fill:#d8153f; stroke-width:1; stroke:black; " description="&lt;b&gt;LLPMBPKK_07203&lt;/b&gt;&lt;br&gt;endoglycosylceramidase&lt;br&gt;Location: 8384852 - 8386706" locus_tag="LLPMBPKK_07203" class="clusterblast-orf" id="dummy-31_q30_0_all"  />
</g>
<g label="NC_017765" description="NC_017765 (9261963-9340733): Streptomyces hygroscopicus subsp. jinggangensis ... (81% of genes show similarity), NRPS,bacteriocin" class="clusterblast-cluster"  >
<text x="5" y="70" class="clusterblast-acc"  >
<a xlink:href="https://antismash-db.secondarymetabolites.org/area.html?record=NC_017765&amp;start=9261963&amp;end=9340733" target="_blank">NC_017765 (9261963-9340733)</a>: Streptomyces hygroscopicus subsp. jinggangensis ... (81% of genes show similarity), NRPS,bacteriocin</text>
<line x1="10" y1="85" x2="778.0" y2="85" style="stroke-width:1; stroke:grey; "  />
</g>
<g id="a31_000"  >
<polygon points="2,90 5,90 10,85 5,80 2,80 2,90 " style="fill:#d81515; stroke-width:1; stroke:black; " description="&lt;b&gt;SHJG_RS40665&lt;/b&gt;&lt;br&gt;polysaccharide deacetylase family protein&lt;br&gt;Location: 9262611 - 9263384&lt;br&gt;&lt;br&gt;&lt;b&gt;BlastP hit with LLPMBPKK_07173&lt;/b&gt;&lt;br&gt;Percentage identity: 85&lt;br&gt;Percentage coverage: 89&lt;br&gt;BLAST bit score: 444&lt;br&gt;E-value: 7.86e-158" locus_tag="SHJG_RS40665" class="clusterblast-orf" id="dummy-31_h31_7_0"  />
</g>
<g id="a31_001"  >
<polygon points="11,85 16,80 22,80 22,90 16,90 11,85 " style="fill:#77d815; stroke-width:1; stroke:black; " description="&lt;b&gt;SHJG_RS40670&lt;/b&gt;&lt;br&gt;glycosyl transferase&lt;br&gt;Location: 9263544 - 9264662&lt;br&gt;&lt;br&gt;&lt;b&gt;BlastP hit with LLPMBPKK_07174&lt;/b&gt;&lt;br&gt;Percentage identity: 85&lt;br&gt;Percentage coverage: 100&lt;br&gt;BLAST bit score: 583&lt;br&gt;E-value: 1.28e-209" locus_tag="SHJG_RS40670" class="clusterblast-orf" id="dummy-31_h31_7_1"  />
</g>
<g id="a31_002"  >
<polygon points="24,90 28,90 33,85 28,80 24,80 24,90 " style="fill:#15d8d8; stroke-width:1; stroke:black; " description="&lt;b&gt;SHJG_RS40675&lt;/b&gt;&lt;br&gt;hypothetical protein&lt;br&gt;Location: 9264865 - 9265680&lt;br&gt;&lt;br&gt;&lt;b&gt;BlastP hit with LLPMBPKK_07175&lt;/b&gt;&lt;br&gt;Percentage identity: 91&lt;br&gt;Percentage coverage: 98&lt;br&gt;BLAST bit score: 501&lt;br&gt;E-value: 4.45e-180" locus_tag="SHJG_RS40675" class="clusterblast-orf" id="dummy-31_h31_7_2"  />
</g>
<g id="a31_003"  >
<polygon points="33,85 38,80 42,80 42,90 38,90 33,85 " style="fill:white; stroke-width:1; stroke:black; " description="&lt;b&gt;SHJG_RS40680&lt;/b&gt;&lt;br&gt;IS982 family transposase&lt;br&gt;Location: 9265703 - 9266596" locus_tag="SHJG_RS40680" class="clusterblast-orf" id="dummy-31_h31_7_3"  />
</g>
<g id="a31_004"  >
<polygon points="42,85 47,80 71,80 71,90 47,90 42,85 " style="fill:#7715d8; stroke-width:1; stroke:black; " description="&lt;b&gt;SHJG_RS40685&lt;/b&gt;&lt;br&gt;NHLP bacteriocin export ABC transporter permease/ATPase subunit&lt;br&gt;Location: 9266652 - 9269468&lt;br&gt;&lt;br&gt;&lt;b&gt;BlastP hit with LLPMBPKK_07176&lt;/b&gt;&lt;br&gt;Percentage identity: 95&lt;br&gt;Percentage coverage: 100&lt;br&gt;BLAST bit score: 1722&lt;br&gt;E-value: 0.0&lt;br&gt;&lt;br&gt;&lt;b&gt;BlastP hit with LLPMBPKK_07177&lt;/b&gt;&lt;br&gt;Percentage identity: 31&lt;br&gt;Percentage coverage: 91&lt;br&gt;BLAST bit score: 211&lt;br&gt;E-value: 1.35e-55" locus_tag="SHJG_RS40685" class="clusterblast-orf" id="dummy-31_h31_7_4"  />
</g>
<g id="a31_005"  >
<polygon points="71,85 76,80 93,80 93,90 76,90 71,85 " style="fill:#7715d8; stroke-width:1; stroke:black; " description="&lt;b&gt;SHJG_RS40690&lt;/b&gt;&lt;br&gt;NHLP family bacteriocin export ABC transporter peptidase/permease/ATPase subunit&lt;br&gt;Location: 9269470 - 9271692&lt;br&gt;&lt;br&gt;&lt;b&gt;BlastP hit with LLPMBPKK_07176&lt;/b&gt;&lt;br&gt;Percentage identity: 32&lt;br&gt;Percentage coverage: 62&lt;br&gt;BLAST bit score: 204&lt;br&gt;E-value: 5.35e-53&lt;br&gt;&lt;br&gt;&lt;b&gt;BlastP hit with LLPMBPKK_07177&lt;/b&gt;&lt;br&gt;Percentage identity: 97&lt;br&gt;Percentage coverage: 100&lt;br&gt;BLAST bit score: 1373&lt;br&gt;E-value: 0.0" locus_tag="SHJG_RS40690" class="clusterblast-orf" id="dummy-31_h31_7_5"  />
</g>
<g id="a31_006"  >
<polygon points="93,85 98,80 101,80 101,90 98,90 93,85 " style="fill:#d83f15; stroke-width:1; stroke:black; " description="&lt;b&gt;SHJG_RS40695&lt;/b&gt;&lt;br&gt;HlyD family efflux transporter periplasmic adaptor subunit&lt;br&gt;Location: 9271689 - 9272495&lt;br&gt;&lt;br&gt;&lt;b&gt;BlastP hit with LLPMBPKK_07178&lt;/b&gt;&lt;br&gt;Percentage identity: 94&lt;br&gt;Percentage coverage: 100&lt;br&gt;BLAST bit score: 471&lt;br&gt;E-value: 2.51e-168" locus_tag="SHJG_RS40695" class="clusterblast-orf" id="dummy-31_h31_7_6"  />
</g>
<g id="a31_007"  >
<polygon points="102,85 104,80 104,90 102,85 " style="fill:#4dd815; stroke-width:1; stroke:black; " description="&lt;b&gt;SHJG_RS40700&lt;/b&gt;&lt;br&gt;hypothetical protein&lt;br&gt;Location: 9272598 - 9272816&lt;br&gt;&lt;br&gt;&lt;b&gt;BlastP hit with LLPMBPKK_07179&lt;/b&gt;&lt;br&gt;Percentage identity: 93&lt;br&gt;Percentage coverage: 100&lt;br&gt;BLAST bit score: 125&lt;br&gt;E-value: 6.51e-38" locus_tag="SHJG_RS40700" class="clusterblast-orf" id="dummy-31_h31_7_7"  />
</g>
<g id="a31_008"  >
<polygon points="110,85 114,80 114,90 110,85 " style="fill:#15aed8; stroke-width:1; stroke:black; " description="&lt;b&gt;SHJG_RS40705&lt;/b&gt;&lt;br&gt;PaaI family thioesterase&lt;br&gt;Location: 9273376 - 9273789&lt;br&gt;&lt;br&gt;&lt;b&gt;BlastP hit with LLPMBPKK_07180&lt;/b&gt;&lt;br&gt;Percentage identity: 95&lt;br&gt;Percentage coverage: 100&lt;br&gt;BLAST bit score: 134&lt;br&gt;E-value: 2.77e-40" locus_tag="SHJG_RS40705" class="clusterblast-orf" id="dummy-31_h31_7_8"  />
</g>
<g id="a31_009"  >
<polygon points="116,90 125,90 130,85 125,80 116,80 116,90 " style="fill:#a115d8; stroke-width:1; stroke:black; " description="&lt;b&gt;SHJG_RS40710&lt;/b&gt;&lt;br&gt;S1 family peptidase&lt;br&gt;Location: 9273994 - 9275400&lt;br&gt;&lt;br&gt;&lt;b&gt;BlastP hit with LLPMBPKK_07181&lt;/b&gt;&lt;br&gt;Percentage identity: 90&lt;br&gt;Percentage coverage: 77&lt;br&gt;BLAST bit score: 653&lt;br&gt;E-value: 2.55e-233" locus_tag="SHJG_RS40710" class="clusterblast-orf" id="dummy-31_h31_7_9"  />
</g>
<g id="a31_0010"  >
<polygon points="131,85 136,80 153,80 153,90 136,90 131,85 " style="fill:#d86915; stroke-width:1; stroke:black; " description="&lt;b&gt;SHJG_RS40715&lt;/b&gt;&lt;br&gt;SpoIIE family protein phosphatase&lt;br&gt;Location: 9275478 - 9277619&lt;br&gt;&lt;br&gt;&lt;b&gt;BlastP hit with LLPMBPKK_07182&lt;/b&gt;&lt;br&gt;Percentage identity: 86&lt;br&gt;Percentage coverage: 101&lt;br&gt;BLAST bit score: 1216&lt;br&gt;E-value: 0.0&lt;br&gt;&lt;br&gt;&lt;b&gt;BlastP hit with LLPMBPKK_07190&lt;/b&gt;&lt;br&gt;Percentage identity: 34&lt;br&gt;Percentage coverage: 89&lt;br&gt;BLAST bit score: 254&lt;br&gt;E-value: 6.32e-72" locus_tag="SHJG_RS40715" class="clusterblast-orf" id="dummy-31_h31_7_10"  />
</g>
<g id="a31_0011"  >
<polygon points="154,90 156,85 154,80 154,90 " style="fill:white; stroke-width:1; stroke:black; " description="&lt;b&gt;SHJG_RS48325&lt;/b&gt;&lt;br&gt;hypothetical protein&lt;br&gt;Location: 9277728 - 9277994" locus_tag="SHJG_RS48325" class="clusterblast-orf" id="dummy-31_h31_7_11"  />
</g>
<g id="a31_0012"  >
<polygon points="166,90 173,90 178,85 173,80 166,80 166,90 " style="fill:#23d815; stroke-width:1; stroke:black; " description="&lt;b&gt;SHJG_RS40720&lt;/b&gt;&lt;br&gt;cytochrome P450&lt;br&gt;Location: 9278925 - 9280133&lt;br&gt;&lt;br&gt;&lt;b&gt;BlastP hit with LLPMBPKK_07183&lt;/b&gt;&lt;br&gt;Percentage identity: 94&lt;br&gt;Percentage coverage: 100&lt;br&gt;BLAST bit score: 755&lt;br&gt;E-value: 1.91e-276" locus_tag="SHJG_RS40720" class="clusterblast-orf" id="dummy-31_h31_7_12"  />
</g>
<g id="a31_0013"  >
<polygon points="179,90 187,90 192,85 187,80 179,80 179,90 " style="fill:#1585d8; stroke-width:1; stroke:black; " description="&lt;b&gt;SHJG_RS40725&lt;/b&gt;&lt;br&gt;serine hydrolase&lt;br&gt;Location: 9280235 - 9281587&lt;br&gt;&lt;br&gt;&lt;b&gt;BlastP hit with LLPMBPKK_07184&lt;/b&gt;&lt;br&gt;Percentage identity: 83&lt;br&gt;Percentage coverage: 99&lt;br&gt;BLAST bit score: 731&lt;br&gt;E-value: 4.91e-265" locus_tag="SHJG_RS40725" class="clusterblast-orf" id="dummy-31_h31_7_13"  />
</g>
<g id="a31_0014"  >
<polygon points="196,90 379,90 384,85 379,80 196,80 196,90 " style="fill:#ca15d8; stroke-width:1; stroke:black; " description="&lt;b&gt;SHJG_RS40730&lt;/b&gt;&lt;br&gt;non-ribosomal peptide synthase/polyketide synthase&lt;br&gt;Location: 9281964 - 9300692&lt;br&gt;&lt;br&gt;&lt;b&gt;BlastP hit with LLPMBPKK_07185&lt;/b&gt;&lt;br&gt;Percentage identity: 88&lt;br&gt;Percentage coverage: 101&lt;br&gt;BLAST bit score: 10776&lt;br&gt;E-value: 0.0&lt;br&gt;&lt;br&gt;&lt;b&gt;BlastP hit with LLPMBPKK_07186&lt;/b&gt;&lt;br&gt;Percentage identity: 42&lt;br&gt;Percentage coverage: 86&lt;br&gt;BLAST bit score: 3506&lt;br&gt;E-value: 0.0" locus_tag="SHJG_RS40730" class="clusterblast-orf" id="dummy-31_h31_7_14"  />
</g>
<g id="a31_0015"  >
<polygon points="385,90 581,90 586,85 581,80 385,80 385,90 " style="fill:#ca15d8; stroke-width:1; stroke:black; " description="&lt;b&gt;SHJG_RS40735&lt;/b&gt;&lt;br&gt;non-ribosomal peptide synthetase&lt;br&gt;Location: 9300706 - 9320733&lt;br&gt;&lt;br&gt;&lt;b&gt;BlastP hit with LLPMBPKK_07185&lt;/b&gt;&lt;br&gt;Percentage identity: 42&lt;br&gt;Percentage coverage: 85&lt;br&gt;BLAST bit score: 3276&lt;br&gt;E-value: 0.0&lt;br&gt;&lt;br&gt;&lt;b&gt;BlastP hit with LLPMBPKK_07186&lt;/b&gt;&lt;br&gt;Percentage identity: 88&lt;br&gt;Percentage coverage: 101&lt;br&gt;BLAST bit score: 11658&lt;br&gt;E-value: 0.0" locus_tag="SHJG_RS40735" class="clusterblast-orf" id="dummy-31_h31_7_15"  />
</g>
<g id="a31_0016"  >
<polygon points="587,90 589,85 587,80 587,90 " style="fill:#d89315; stroke-width:1; stroke:black; " description="&lt;b&gt;SHJG_RS40740&lt;/b&gt;&lt;br&gt;MbtH family NRPS accessory protein&lt;br&gt;Location: 9320862 - 9321065&lt;br&gt;&lt;br&gt;&lt;b&gt;BlastP hit with LLPMBPKK_07187&lt;/b&gt;&lt;br&gt;Percentage identity: 100&lt;br&gt;Percentage coverage: 100&lt;br&gt;BLAST bit score: 147&lt;br&gt;E-value: 1.3e-46" locus_tag="SHJG_RS40740" class="clusterblast-orf" id="dummy-31_h31_7_16"  />
</g>
<g id="a31_0017"  >
<polygon points="590,90 591,90 596,85 591,80 590,80 590,90 " style="fill:#15d831; stroke-width:1; stroke:black; " description="&lt;b&gt;SHJG_RS40745&lt;/b&gt;&lt;br&gt;GNAT family N-acetyltransferase&lt;br&gt;Location: 9321204 - 9321800&lt;br&gt;&lt;br&gt;&lt;b&gt;BlastP hit with LLPMBPKK_07188&lt;/b&gt;&lt;br&gt;Percentage identity: 85&lt;br&gt;Percentage coverage: 99&lt;br&gt;BLAST bit score: 313&lt;br&gt;E-value: 7.6e-109" locus_tag="SHJG_RS40745" class="clusterblast-orf" id="dummy-31_h31_7_17"  />
</g>
<g id="a31_0018"  >
<polygon points="603,90 622,90 627,85 622,80 603,80 603,90 " style="fill:#d86915; stroke-width:1; stroke:black; " description="&lt;b&gt;SHJG_RS40750&lt;/b&gt;&lt;br&gt;SpoIIE family protein phosphatase&lt;br&gt;Location: 9322442 - 9324889&lt;br&gt;&lt;br&gt;&lt;b&gt;BlastP hit with LLPMBPKK_07182&lt;/b&gt;&lt;br&gt;Percentage identity: 34&lt;br&gt;Percentage coverage: 100&lt;br&gt;BLAST bit score: 278&lt;br&gt;E-value: 1.28e-80&lt;br&gt;&lt;br&gt;&lt;b&gt;BlastP hit with LLPMBPKK_07190&lt;/b&gt;&lt;br&gt;Percentage identity: 92&lt;br&gt;Percentage coverage: 100&lt;br&gt;BLAST bit score: 1408&lt;br&gt;E-value: 0.0" locus_tag="SHJG_RS40750" class="clusterblast-orf" id="dummy-31_h31_7_18"  />
</g>
<g id="a31_0019"  >
<polygon points="628,90 631,85 628,80 628,90 " style="fill:#d815bc; stroke-width:1; stroke:black; " description="&lt;b&gt;SHJG_RS40755&lt;/b&gt;&lt;br&gt;hypothetical protein&lt;br&gt;Location: 9324971 - 9325243&lt;br&gt;&lt;br&gt;&lt;b&gt;BlastP hit with LLPMBPKK_07191&lt;/b&gt;&lt;br&gt;Percentage identity: 82&lt;br&gt;Percentage coverage: 100&lt;br&gt;BLAST bit score: 144&lt;br&gt;E-value: 7.74e-45" locus_tag="SHJG_RS40755" class="clusterblast-orf" id="dummy-31_h31_7_19"  />
</g>
<g id="a31_0020"  >
<polygon points="635,90 638,85 635,80 635,90 " style="fill:#d8bc15; stroke-width:1; stroke:black; " description="&lt;b&gt;SHJG_RS40760&lt;/b&gt;&lt;br&gt;hypothetical protein&lt;br&gt;Location: 9325601 - 9325957&lt;br&gt;&lt;br&gt;&lt;b&gt;BlastP hit with LLPMBPKK_07192&lt;/b&gt;&lt;br&gt;Percentage identity: 92&lt;br&gt;Percentage coverage: 86&lt;br&gt;BLAST bit score: 216&lt;br&gt;E-value: 2.8e-72" locus_tag="SHJG_RS40760" class="clusterblast-orf" id="dummy-31_h31_7_20"  />
</g>
<g id="a31_0021"  >
<polygon points="640,90 641,85 640,80 640,90 " style="fill:#15d85b; stroke-width:1; stroke:black; " description="&lt;b&gt;SHJG_RS51405&lt;/b&gt;&lt;br&gt;hypothetical protein&lt;br&gt;Location: 9326089 - 9326265&lt;br&gt;&lt;br&gt;&lt;b&gt;BlastP hit with LLPMBPKK_07193&lt;/b&gt;&lt;br&gt;Percentage identity: 78&lt;br&gt;Percentage coverage: 95&lt;br&gt;BLAST bit score: 94&lt;br&gt;E-value: 6.52e-26" locus_tag="SHJG_RS51405" class="clusterblast-orf" id="dummy-31_h31_7_21"  />
</g>
<g id="a31_0022"  >
<polygon points="642,90 647,90 652,85 647,80 642,80 642,90 " style="fill:white; stroke-width:1; stroke:black; " description="&lt;b&gt;SHJG_RS40770&lt;/b&gt;&lt;br&gt;dTDP-glucose 4,6-dehydratase&lt;br&gt;Location: 9326316 - 9327287" locus_tag="SHJG_RS40770" class="clusterblast-orf" id="dummy-31_h31_7_22"  />
</g>
<g id="a31_0023"  >
<polygon points="652,85 657,80 658,80 658,90 657,90 652,85 " style="fill:#1531d8; stroke-width:1; stroke:black; " description="&lt;b&gt;SHJG_RS40775&lt;/b&gt;&lt;br&gt;isochorismatase family protein&lt;br&gt;Location: 9327296 - 9327880&lt;br&gt;&lt;br&gt;&lt;b&gt;BlastP hit with LLPMBPKK_07194&lt;/b&gt;&lt;br&gt;Percentage identity: 92&lt;br&gt;Percentage coverage: 99&lt;br&gt;BLAST bit score: 357&lt;br&gt;E-value: 8.19e-126" locus_tag="SHJG_RS40775" class="clusterblast-orf" id="dummy-31_h31_7_23"  />
</g>
<g id="a31_0024"  >
<polygon points="658,85 663,80 672,80 672,90 663,90 658,85 " style="fill:white; stroke-width:1; stroke:black; " description="&lt;b&gt;SHJG_RS40780&lt;/b&gt;&lt;br&gt;MFS transporter&lt;br&gt;Location: 9327888 - 9329282" locus_tag="SHJG_RS40780" class="clusterblast-orf" id="dummy-31_h31_7_24"  />
</g>
<g id="a31_0025"  >
<polygon points="672,85 676,80 676,90 672,85 " style="fill:#d81593; stroke-width:1; stroke:black; " description="&lt;b&gt;SHJG_RS40785&lt;/b&gt;&lt;br&gt;MarR family transcriptional regulator&lt;br&gt;Location: 9329279 - 9329716&lt;br&gt;&lt;br&gt;&lt;b&gt;BlastP hit with LLPMBPKK_07195&lt;/b&gt;&lt;br&gt;Percentage identity: 97&lt;br&gt;Percentage coverage: 99&lt;br&gt;BLAST bit score: 253&lt;br&gt;E-value: 4.25e-86" locus_tag="SHJG_RS40785" class="clusterblast-orf" id="dummy-31_h31_7_25"  />
</g>
<g id="a31_0026"  >
<polygon points="677,90 703,90 708,85 703,80 677,80 677,90 " style="fill:#cad815; stroke-width:1; stroke:black; " description="&lt;b&gt;SHJG_RS40790&lt;/b&gt;&lt;br&gt;FAD-binding oxidoreductase&lt;br&gt;Location: 9329861 - 9332896&lt;br&gt;&lt;br&gt;&lt;b&gt;BlastP hit with LLPMBPKK_07196&lt;/b&gt;&lt;br&gt;Percentage identity: 95&lt;br&gt;Percentage coverage: 97&lt;br&gt;BLAST bit score: 1930&lt;br&gt;E-value: 0.0" locus_tag="SHJG_RS40790" class="clusterblast-orf" id="dummy-31_h31_7_26"  />
</g>
<g id="a31_0027"  >
<polygon points="708,90 714,90 719,85 714,80 708,80 708,90 " style="fill:#2315d8; stroke-width:1; stroke:black; " description="&lt;b&gt;SHJG_RS40795&lt;/b&gt;&lt;br&gt;SDR family oxidoreductase&lt;br&gt;Location: 9332899 - 9333969&lt;br&gt;&lt;br&gt;&lt;b&gt;BlastP hit with LLPMBPKK_07198&lt;/b&gt;&lt;br&gt;Percentage identity: 89&lt;br&gt;Percentage coverage: 100&lt;br&gt;BLAST bit score: 587&lt;br&gt;E-value: 6.32e-212" locus_tag="SHJG_RS40795" class="clusterblast-orf" id="dummy-31_h31_7_27"  />
</g>
<g id="a31_0028"  >
<polygon points="719,90 719,90 724,85 719,80 719,80 719,90 " style="fill:#d81569; stroke-width:1; stroke:black; " description="&lt;b&gt;SHJG_RS40800&lt;/b&gt;&lt;br&gt;metallophosphoesterase&lt;br&gt;Location: 9333979 - 9334479&lt;br&gt;&lt;br&gt;&lt;b&gt;BlastP hit with LLPMBPKK_07199&lt;/b&gt;&lt;br&gt;Percentage identity: 94&lt;br&gt;Percentage coverage: 99&lt;br&gt;BLAST bit score: 313&lt;br&gt;E-value: 1.36e-109" locus_tag="SHJG_RS40800" class="clusterblast-orf" id="dummy-31_h31_7_28"  />
</g>
<g id="a31_0029"  >
<polygon points="724,90 725,90 730,85 725,80 724,80 724,90 " style="fill:#a1d815; stroke-width:1; stroke:black; " description="&lt;b&gt;SHJG_RS40805&lt;/b&gt;&lt;br&gt;GNAT family N-acetyltransferase&lt;br&gt;Location: 9334539 - 9335135&lt;br&gt;&lt;br&gt;&lt;b&gt;BlastP hit with LLPMBPKK_07200&lt;/b&gt;&lt;br&gt;Percentage identity: 73&lt;br&gt;Percentage coverage: 101&lt;br&gt;BLAST bit score: 293&lt;br&gt;E-value: 2.85e-100" locus_tag="SHJG_RS40805" class="clusterblast-orf" id="dummy-31_h31_7_29"  />
</g>
<g id="a31_0030"  >
<polygon points="730,85 735,80 759,80 759,90 735,90 730,85 " style="fill:white; stroke-width:1; stroke:black; " description="&lt;b&gt;SHJG_RS40810&lt;/b&gt;&lt;br&gt;LuxR family transcriptional regulator&lt;br&gt;Location: 9335132 - 9337933" locus_tag="SHJG_RS40810" class="clusterblast-orf" id="dummy-31_h31_7_30"  />
</g>
<g id="a31_0031"  >
<polygon points="767,90 772,90 777,85 772,80 767,80 767,90 " style="fill:white; stroke-width:1; stroke:black; " description="&lt;b&gt;SHJG_RS40815&lt;/b&gt;&lt;br&gt;alpha/beta hydrolase&lt;br&gt;Location: 9338818 - 9339789" locus_tag="SHJG_RS40815" class="clusterblast-orf" id="dummy-31_h31_7_31"  />
</g>
</svg>
