<svg xmlns="http://www.w3.org/2000/svg" xmlns:xlink="http://www.w3.org/1999/xlink" version="1.1" x="0" y="0" height="230" width="800" viewBox="0 0 800 230" preserveAspectRatio="none"  >
<g label="Query sequence" class="clusterblast-cluster"  >
<text x="5" y="20" class="clusterblast-acc"  >
Query sequence</text>
<line x1="10" y1="35" x2="778.0" y2="35" style="stroke-width:1; stroke:grey; "  />
<polygon points="201,40 221,40 226,35 221,30 201,30 201,40 " style="fill:#d81515; stroke-width:1; stroke:black; " description="&lt;b&gt;LLPMBPKK_00843&lt;/b&gt;&lt;br&gt;hypothetical protein&lt;br&gt;Location: 1055682 - 1056348" locus_tag="LLPMBPKK_00843" class="clusterblast-orf" id="dummy-7_q0_0_all"  />
<polygon points="233,40 244,40 249,35 244,30 233,30 233,40 " style="fill:white; stroke-width:1; stroke:black; " description="&lt;b&gt;LLPMBPKK_00844&lt;/b&gt;&lt;br&gt;VOC family protein&lt;br&gt;Location: 1056519 - 1056945" locus_tag="LLPMBPKK_00844" class="clusterblast-orf" id="dummy-7_q1_0_all"  />
<polygon points="252,35 257,30 272,30 272,40 257,40 252,35 " style="fill:#5cd815; stroke-width:1; stroke:black; " description="&lt;b&gt;LLPMBPKK_00845&lt;/b&gt;&lt;br&gt;integral membrane protein&lt;br&gt;Location: 1057026 - 1057557" locus_tag="LLPMBPKK_00845" class="clusterblast-orf" id="dummy-7_q2_0_all"  />
<polygon points="274,35 279,30 312,30 312,40 279,40 274,35 " style="fill:#15a3d8; stroke-width:1; stroke:black; " description="&lt;b&gt;LLPMBPKK_00846&lt;/b&gt;&lt;br&gt;aldo/keto reductase&lt;br&gt;Location: 1057609 - 1058593" locus_tag="LLPMBPKK_00846" class="clusterblast-orf" id="dummy-7_q3_0_all"  />
<polygon points="321,35 326,30 367,30 367,40 326,40 321,35 " style="fill:#c715d8; stroke-width:1; stroke:black; " description="&lt;b&gt;LLPMBPKK_00847&lt;/b&gt;&lt;br&gt;FAD-binding monooxygenase&lt;br&gt;Location: 1058831 - 1060028" locus_tag="LLPMBPKK_00847" class="clusterblast-orf" id="dummy-7_q4_0_all"  />
<polygon points="380,40 390,40 395,35 390,30 380,30 380,40 " style="fill:#d88015; stroke-width:1; stroke:black; " description="&lt;b&gt;LLPMBPKK_00848&lt;/b&gt;&lt;br&gt;Tyrosinase co-factor MelC1&lt;br&gt;Location: 1060366 - 1060744" locus_tag="LLPMBPKK_00848" class="clusterblast-orf" id="dummy-7_q5_0_all"  />
<polygon points="396,40 422,40 427,35 422,30 396,30 396,40 " style="fill:#15d839; stroke-width:1; stroke:black; " description="&lt;b&gt;LLPMBPKK_00849&lt;/b&gt;&lt;br&gt;tyrosinase family protein&lt;br&gt;Location: 1060778 - 1061600" locus_tag="LLPMBPKK_00849" class="clusterblast-orf" id="dummy-7_q6_0_all"  />
<polygon points="427,35 432,30 455,30 455,40 432,40 427,35 " style="fill:#1539d8; stroke-width:1; stroke:black; " description="&lt;b&gt;LLPMBPKK_00850&lt;/b&gt;&lt;br&gt;ribonuclease HI&lt;br&gt;Location: 1061600 - 1062320" locus_tag="LLPMBPKK_00850" class="clusterblast-orf" id="dummy-7_q7_0_all"  />
<polygon points="456,35 461,30 487,30 487,40 461,40 456,35 " style="fill:#d81580; stroke-width:1; stroke:black; " description="&lt;b&gt;LLPMBPKK_00851&lt;/b&gt;&lt;br&gt;VOC family protein&lt;br&gt;Location: 1062354 - 1063149" locus_tag="LLPMBPKK_00851" class="clusterblast-orf" id="dummy-7_q8_0_all"  />
<polygon points="492,35 497,30 510,30 510,40 497,40 492,35 " style="fill:#c7d815; stroke-width:1; stroke:black; " description="&lt;b&gt;LLPMBPKK_00852&lt;/b&gt;&lt;br&gt;DNA-binding protein&lt;br&gt;Location: 1063287 - 1063770" locus_tag="LLPMBPKK_00852" class="clusterblast-orf" id="dummy-7_q9_0_all"  />
<polygon points="520,35 525,30 535,30 535,40 525,40 520,35 " style="fill:#15d8a3; stroke-width:1; stroke:black; " description="&lt;b&gt;LLPMBPKK_00853&lt;/b&gt;&lt;br&gt;XRE family transcriptional regulator&lt;br&gt;Location: 1064011 - 1064404" locus_tag="LLPMBPKK_00853" class="clusterblast-orf" id="dummy-7_q10_0_all"  />
<polygon points="545,40 574,40 579,35 574,30 545,30 545,40 " style="fill:#5c15d8; stroke-width:1; stroke:black; " description="&lt;b&gt;LLPMBPKK_00854&lt;/b&gt;&lt;br&gt;RNA polymerase sigma factor SigF&lt;br&gt;Location: 1064671 - 1065562" locus_tag="LLPMBPKK_00854" class="clusterblast-orf" id="dummy-7_q11_0_all"  />
</g>
<g label="NC_021985" description="NC_021985 (1073219-1093583): Streptomyces collinus Tu 365, complete sequence (45% of genes show similarity), melanin,terpene" class="clusterblast-cluster"  >
<text x="5" y="70" class="clusterblast-acc"  >
<a xlink:href="https://antismash-db.secondarymetabolites.org/area.html?record=NC_021985&amp;start=1073219&amp;end=1093583" target="_blank">NC_021985 (1073219-1093583)</a>: Streptomyces collinus Tu 365, complete sequence (45% of genes show similarity), melanin,terpene</text>
<line x1="10" y1="85" x2="778.0" y2="85" style="stroke-width:1; stroke:grey; "  />
</g>
<g id="a7_000"  >
<polygon points="0,85 5,80 37,80 37,90 5,90 0,85 " style="fill:#15a3d8; stroke-width:1; stroke:black; " description="&lt;b&gt;B446_RS04310&lt;/b&gt;&lt;br&gt;aldo/keto reductase&lt;br&gt;Location: 1073220 - 1074203&lt;br&gt;&lt;br&gt;&lt;b&gt;BlastP hit with LLPMBPKK_00846&lt;/b&gt;&lt;br&gt;Percentage identity: 91&lt;br&gt;Percentage coverage: 100&lt;br&gt;BLAST bit score: 593&lt;br&gt;E-value: 5.74e-215" locus_tag="B446_RS04310" class="clusterblast-orf" id="dummy-7_h7_7_0"  />
</g>
<g id="a7_001"  >
<polygon points="42,85 47,80 66,80 66,90 47,90 42,85 " style="fill:white; stroke-width:1; stroke:black; " description="&lt;b&gt;B446_RS04315&lt;/b&gt;&lt;br&gt;TetR/AcrR family transcriptional regulator&lt;br&gt;Location: 1074333 - 1074965" locus_tag="B446_RS04315" class="clusterblast-orf" id="dummy-7_h7_7_1"  />
</g>
<g id="a7_002"  >
<polygon points="66,85 71,80 124,80 124,90 71,90 66,85 " style="fill:white; stroke-width:1; stroke:black; " description="&lt;b&gt;B446_RS04320&lt;/b&gt;&lt;br&gt;MFS transporter&lt;br&gt;Location: 1074962 - 1076458" locus_tag="B446_RS04320" class="clusterblast-orf" id="dummy-7_h7_7_2"  />
</g>
<g id="a7_003"  >
<polygon points="128,85 133,80 182,80 182,90 133,90 128,85 " style="fill:#c715d8; stroke-width:1; stroke:black; " description="&lt;b&gt;B446_RS04325&lt;/b&gt;&lt;br&gt;FAD-binding monooxygenase&lt;br&gt;Location: 1076562 - 1077989&lt;br&gt;&lt;br&gt;&lt;b&gt;BlastP hit with LLPMBPKK_00847&lt;/b&gt;&lt;br&gt;Percentage identity: 72&lt;br&gt;Percentage coverage: 101&lt;br&gt;BLAST bit score: 562&lt;br&gt;E-value: 4.3e-199" locus_tag="B446_RS04325" class="clusterblast-orf" id="dummy-7_h7_7_3"  />
</g>
<g id="a7_004"  >
<polygon points="187,90 197,90 202,85 197,80 187,80 187,90 " style="fill:#d88015; stroke-width:1; stroke:black; " description="&lt;b&gt;B446_RS04330&lt;/b&gt;&lt;br&gt;tyrosinase co-factor&lt;br&gt;Location: 1078125 - 1078508&lt;br&gt;&lt;br&gt;&lt;b&gt;BlastP hit with LLPMBPKK_00848&lt;/b&gt;&lt;br&gt;Percentage identity: 63&lt;br&gt;Percentage coverage: 102&lt;br&gt;BLAST bit score: 147&lt;br&gt;E-value: 4.13e-45" locus_tag="B446_RS04330" class="clusterblast-orf" id="dummy-7_h7_7_4"  />
</g>
<g id="a7_005"  >
<polygon points="203,90 230,90 235,85 230,80 203,80 203,90 " style="fill:#15d839; stroke-width:1; stroke:black; " description="&lt;b&gt;B446_RS04335&lt;/b&gt;&lt;br&gt;tyrosinase family protein&lt;br&gt;Location: 1078544 - 1079365&lt;br&gt;&lt;br&gt;&lt;b&gt;BlastP hit with LLPMBPKK_00849&lt;/b&gt;&lt;br&gt;Percentage identity: 89&lt;br&gt;Percentage coverage: 100&lt;br&gt;BLAST bit score: 531&lt;br&gt;E-value: 4.35e-192" locus_tag="B446_RS04335" class="clusterblast-orf" id="dummy-7_h7_7_5"  />
</g>
<g id="a7_006"  >
<polygon points="236,85 241,80 262,80 262,90 241,90 236,85 " style="fill:#1539d8; stroke-width:1; stroke:black; " description="&lt;b&gt;B446_RS04340&lt;/b&gt;&lt;br&gt;ribonuclease HI&lt;br&gt;Location: 1079388 - 1080080&lt;br&gt;&lt;br&gt;&lt;b&gt;BlastP hit with LLPMBPKK_00850&lt;/b&gt;&lt;br&gt;Percentage identity: 85&lt;br&gt;Percentage coverage: 100&lt;br&gt;BLAST bit score: 398&lt;br&gt;E-value: 1.26e-140" locus_tag="B446_RS04340" class="clusterblast-orf" id="dummy-7_h7_7_6"  />
</g>
<g id="a7_007"  >
<polygon points="265,85 270,80 296,80 296,90 270,90 265,85 " style="fill:#d81580; stroke-width:1; stroke:black; " description="&lt;b&gt;B446_RS04345&lt;/b&gt;&lt;br&gt;VOC family protein&lt;br&gt;Location: 1080162 - 1080956&lt;br&gt;&lt;br&gt;&lt;b&gt;BlastP hit with LLPMBPKK_00851&lt;/b&gt;&lt;br&gt;Percentage identity: 86&lt;br&gt;Percentage coverage: 100&lt;br&gt;BLAST bit score: 485&lt;br&gt;E-value: 4.25e-174" locus_tag="B446_RS04345" class="clusterblast-orf" id="dummy-7_h7_7_7"  />
</g>
<g id="a7_008"  >
<polygon points="308,90 358,90 363,85 358,80 308,80 308,90 " style="fill:white; stroke-width:1; stroke:black; " description="&lt;b&gt;B446_RS04350&lt;/b&gt;&lt;br&gt;cyclic nucleotide-binding domain-containing protein&lt;br&gt;Location: 1081272 - 1082714" locus_tag="B446_RS04350" class="clusterblast-orf" id="dummy-7_h7_7_8"  />
</g>
<g id="a7_009"  >
<polygon points="364,90 399,90 404,85 399,80 364,80 364,90 " style="fill:white; stroke-width:1; stroke:black; " description="&lt;b&gt;B446_RS04355&lt;/b&gt;&lt;br&gt;hypothetical protein&lt;br&gt;Location: 1082731 - 1083783" locus_tag="B446_RS04355" class="clusterblast-orf" id="dummy-7_h7_7_9"  />
</g>
<g id="a7_0010"  >
<polygon points="406,90 435,90 440,85 435,80 406,80 406,90 " style="fill:white; stroke-width:1; stroke:black; " description="&lt;b&gt;B446_RS04360&lt;/b&gt;&lt;br&gt;methyltransferase domain-containing protein&lt;br&gt;Location: 1083828 - 1084727" locus_tag="B446_RS04360" class="clusterblast-orf" id="dummy-7_h7_7_10"  />
</g>
<g id="a7_0011"  >
<polygon points="445,85 450,80 463,80 463,90 450,90 445,85 " style="fill:#c7d815; stroke-width:1; stroke:black; " description="&lt;b&gt;B446_RS04365&lt;/b&gt;&lt;br&gt;VOC family protein&lt;br&gt;Location: 1084839 - 1085321&lt;br&gt;&lt;br&gt;&lt;b&gt;BlastP hit with LLPMBPKK_00852&lt;/b&gt;&lt;br&gt;Percentage identity: 71&lt;br&gt;Percentage coverage: 100&lt;br&gt;BLAST bit score: 231&lt;br&gt;E-value: 3.09e-77" locus_tag="B446_RS04365" class="clusterblast-orf" id="dummy-7_h7_7_11"  />
</g>
<g id="a7_0012"  >
<polygon points="468,90 509,90 514,85 509,80 468,80 468,90 " style="fill:white; stroke-width:1; stroke:black; " description="&lt;b&gt;B446_RS04370&lt;/b&gt;&lt;br&gt;epoxide hydrolase&lt;br&gt;Location: 1085444 - 1086661" locus_tag="B446_RS04370" class="clusterblast-orf" id="dummy-7_h7_7_12"  />
</g>
<g id="a7_0013"  >
<polygon points="517,85 522,80 532,80 532,90 522,90 517,85 " style="fill:#15d8a3; stroke-width:1; stroke:black; " description="&lt;b&gt;B446_RS04375&lt;/b&gt;&lt;br&gt;helix-turn-helix transcriptional regulator&lt;br&gt;Location: 1086729 - 1087124&lt;br&gt;&lt;br&gt;&lt;b&gt;BlastP hit with LLPMBPKK_00853&lt;/b&gt;&lt;br&gt;Percentage identity: 77&lt;br&gt;Percentage coverage: 102&lt;br&gt;BLAST bit score: 185&lt;br&gt;E-value: 9.74e-60" locus_tag="B446_RS04375" class="clusterblast-orf" id="dummy-7_h7_7_13"  />
</g>
<g id="a7_0014"  >
<polygon points="541,90 570,90 575,85 570,80 541,80 541,90 " style="fill:#5c15d8; stroke-width:1; stroke:black; " description="&lt;b&gt;B446_RS04380&lt;/b&gt;&lt;br&gt;RNA polymerase sigma factor SigF&lt;br&gt;Location: 1087362 - 1088249&lt;br&gt;&lt;br&gt;&lt;b&gt;BlastP hit with LLPMBPKK_00854&lt;/b&gt;&lt;br&gt;Percentage identity: 92&lt;br&gt;Percentage coverage: 100&lt;br&gt;BLAST bit score: 525&lt;br&gt;E-value: 6.77e-189" locus_tag="B446_RS04380" class="clusterblast-orf" id="dummy-7_h7_7_14"  />
</g>
<g id="a7_0015"  >
<polygon points="578,85 583,80 595,80 595,90 583,90 578,85 " style="fill:white; stroke-width:1; stroke:black; " description="&lt;b&gt;B446_RS04385&lt;/b&gt;&lt;br&gt;ATP-binding protein&lt;br&gt;Location: 1088316 - 1088765" locus_tag="B446_RS04385" class="clusterblast-orf" id="dummy-7_h7_7_15"  />
</g>
<g id="a7_0016"  >
<polygon points="606,85 611,80 658,80 658,90 611,90 606,85 " style="fill:white; stroke-width:1; stroke:black; " description="&lt;b&gt;B446_RS04390&lt;/b&gt;&lt;br&gt;hypothetical protein&lt;br&gt;Location: 1089044 - 1090414" locus_tag="B446_RS04390" class="clusterblast-orf" id="dummy-7_h7_7_16"  />
</g>
<g id="a7_0017"  >
<polygon points="665,90 709,90 714,85 709,80 665,80 665,90 " style="fill:white; stroke-width:1; stroke:black; " description="&lt;b&gt;B446_RS04395&lt;/b&gt;&lt;br&gt;hypothetical protein&lt;br&gt;Location: 1090583 - 1091863" locus_tag="B446_RS04395" class="clusterblast-orf" id="dummy-7_h7_7_17"  />
</g>
<g id="a7_0018"  >
<polygon points="716,85 721,80 756,80 756,90 721,90 716,85 " style="fill:white; stroke-width:1; stroke:black; " description="&lt;b&gt;B446_RS04400&lt;/b&gt;&lt;br&gt;serine/threonine protein kinase&lt;br&gt;Location: 1091935 - 1092969" locus_tag="B446_RS04400" class="clusterblast-orf" id="dummy-7_h7_7_18"  />
</g>
<g id="a7_0019"  >
<polygon points="761,85 766,80 780,80 780,90 766,90 761,85 " style="fill:white; stroke-width:1; stroke:black; " description="&lt;b&gt;B446_RS04405&lt;/b&gt;&lt;br&gt;hypothetical protein&lt;br&gt;Location: 1093095 - 1093583" locus_tag="B446_RS04405" class="clusterblast-orf" id="dummy-7_h7_7_19"  />
</g>
</svg>
