<svg xmlns="http://www.w3.org/2000/svg" xmlns:xlink="http://www.w3.org/1999/xlink" version="1.1" x="0" y="0" height="230" width="800" viewBox="0 0 800 230" preserveAspectRatio="none"  >
<g label="Query sequence" class="clusterblast-cluster"  >
<text x="5" y="20" class="clusterblast-acc"  >
Query sequence</text>
<line x1="10" y1="35" x2="778.0" y2="35" style="stroke-width:1; stroke:grey; "  />
<polygon points="11,35 16,30 39,30 39,40 16,40 11,35 " style="fill:#d81515; stroke-width:1; stroke:black; " description="&lt;b&gt;LLPMBPKK_06758&lt;/b&gt;&lt;br&gt;cation transporter&lt;br&gt;Location: 7791080 - 7792022" locus_tag="LLPMBPKK_06758" class="clusterblast-orf" id="dummy-29_q0_0_all"  />
<polygon points="45,35 50,30 74,30 74,40 50,40 45,35 " style="fill:#6ad815; stroke-width:1; stroke:black; " description="&lt;b&gt;LLPMBPKK_06759&lt;/b&gt;&lt;br&gt;UDP-glucose 4-epimerase GalE&lt;br&gt;Location: 7792229 - 7793201" locus_tag="LLPMBPKK_06759" class="clusterblast-orf" id="dummy-29_q1_0_all"  />
<polygon points="82,40 131,40 136,35 131,30 82,30 82,40 " style="fill:#15bfd8; stroke-width:1; stroke:black; " description="&lt;b&gt;LLPMBPKK_06760&lt;/b&gt;&lt;br&gt;CDP-alcohol phosphatidyltransferase familyprotein&lt;br&gt;Location: 7793467 - 7795288" locus_tag="LLPMBPKK_06760" class="clusterblast-orf" id="dummy-29_q2_0_all"  />
<polygon points="135,40 153,40 158,35 153,30 135,30 135,40 " style="fill:#9d15d8; stroke-width:1; stroke:black; " description="&lt;b&gt;LLPMBPKK_06761&lt;/b&gt;&lt;br&gt;phosphocholine cytidylyltransferase familyprotein&lt;br&gt;Location: 7795284 - 7796037" locus_tag="LLPMBPKK_06761" class="clusterblast-orf" id="dummy-29_q3_0_all"  />
<polygon points="157,40 184,40 189,35 184,30 157,30 157,40 " style="fill:#d84815; stroke-width:1; stroke:black; " description="&lt;b&gt;LLPMBPKK_06762&lt;/b&gt;&lt;br&gt;iron-containing alcohol dehydrogenase familyprotein&lt;br&gt;Location: 7796024 - 7797086" locus_tag="LLPMBPKK_06762" class="clusterblast-orf" id="dummy-29_q4_0_all"  />
<polygon points="191,40 206,40 211,35 206,30 191,30 191,40 " style="fill:#37d815; stroke-width:1; stroke:black; " description="&lt;b&gt;LLPMBPKK_06763&lt;/b&gt;&lt;br&gt;transferase&lt;br&gt;Location: 7797159 - 7797843" locus_tag="LLPMBPKK_06763" class="clusterblast-orf" id="dummy-29_q5_0_all"  />
<polygon points="212,40 233,40 238,35 233,30 212,30 212,40 " style="fill:#158cd8; stroke-width:1; stroke:black; " description="&lt;b&gt;LLPMBPKK_06764&lt;/b&gt;&lt;br&gt;glycosyltransferase family 2 protein&lt;br&gt;Location: 7797851 - 7798724" locus_tag="LLPMBPKK_06764" class="clusterblast-orf" id="dummy-29_q6_0_all"  />
<polygon points="240,40 263,40 268,35 263,30 240,30 240,40 " style="fill:#d015d8; stroke-width:1; stroke:black; " description="&lt;b&gt;LLPMBPKK_06765&lt;/b&gt;&lt;br&gt;ABC transporter&lt;br&gt;Location: 7798813 - 7799743" locus_tag="LLPMBPKK_06765" class="clusterblast-orf" id="dummy-29_q7_0_all"  />
<polygon points="268,40 286,40 291,35 286,30 268,30 268,40 " style="fill:#d87b15; stroke-width:1; stroke:black; " description="&lt;b&gt;LLPMBPKK_06766&lt;/b&gt;&lt;br&gt;ABC transporter ATP-binding protein&lt;br&gt;Location: 7799735 - 7800524" locus_tag="LLPMBPKK_06766" class="clusterblast-orf" id="dummy-29_q8_0_all"  />
<polygon points="302,40 323,40 328,35 323,30 302,30 302,40 " style="fill:#15d826; stroke-width:1; stroke:black; " description="&lt;b&gt;LLPMBPKK_06767&lt;/b&gt;&lt;br&gt;squalene synthase HpnC&lt;br&gt;Location: 7800884 - 7801781" locus_tag="LLPMBPKK_06767" class="clusterblast-orf" id="dummy-29_q9_0_all"  />
<polygon points="328,40 352,40 357,35 352,30 328,30 328,40 " style="fill:#15d826; stroke-width:1; stroke:black; " description="&lt;b&gt;LLPMBPKK_06768&lt;/b&gt;&lt;br&gt;presqualene diphosphate synthase HpnD&lt;br&gt;Location: 7801777 - 7802740" locus_tag="LLPMBPKK_06768" class="clusterblast-orf" id="dummy-29_q10_0_all"  />
<polygon points="364,40 401,40 406,35 401,30 364,30 364,40 " style="fill:#1559d8; stroke-width:1; stroke:black; " description="&lt;b&gt;LLPMBPKK_06769&lt;/b&gt;&lt;br&gt;FAD-dependent oxidoreductase&lt;br&gt;Location: 7802978 - 7804406" locus_tag="LLPMBPKK_06769" class="clusterblast-orf" id="dummy-29_q11_0_all"  />
<polygon points="406,40 435,40 440,35 435,30 406,30 406,40 " style="fill:#d815ae; stroke-width:1; stroke:black; " description="&lt;b&gt;LLPMBPKK_06770&lt;/b&gt;&lt;br&gt;polyprenyl synthetase family protein&lt;br&gt;Location: 7804405 - 7805539" locus_tag="LLPMBPKK_06770" class="clusterblast-orf" id="dummy-29_q12_0_all"  />
<polygon points="443,40 499,40 504,35 499,30 443,30 443,40 " style="fill:#d8ae15; stroke-width:1; stroke:black; " description="&lt;b&gt;LLPMBPKK_06771&lt;/b&gt;&lt;br&gt;squalene--hopene cyclase&lt;br&gt;Location: 7805655 - 7807686" locus_tag="LLPMBPKK_06771" class="clusterblast-orf" id="dummy-29_q13_0_all"  />
<polygon points="504,40 518,40 523,35 518,30 504,30 504,40 " style="fill:#15d859; stroke-width:1; stroke:black; " description="&lt;b&gt;LLPMBPKK_06772&lt;/b&gt;&lt;br&gt;lipoprotein&lt;br&gt;Location: 7807682 - 7808324" locus_tag="LLPMBPKK_06772" class="clusterblast-orf" id="dummy-29_q14_0_all"  />
<polygon points="523,40 548,40 553,35 548,30 523,30 523,40 " style="fill:#1526d8; stroke-width:1; stroke:black; " description="&lt;b&gt;LLPMBPKK_06773&lt;/b&gt;&lt;br&gt;adenosyl-hopene transferase HpnH&lt;br&gt;Location: 7808329 - 7809352" locus_tag="LLPMBPKK_06773" class="clusterblast-orf" id="dummy-29_q15_0_all"  />
<polygon points="553,40 582,40 587,35 582,30 553,30 553,40 " style="fill:#d8157b; stroke-width:1; stroke:black; " description="&lt;b&gt;LLPMBPKK_06774&lt;/b&gt;&lt;br&gt;flavodoxin-dependent (E)-4-hydroxy-3-methylbut-2-enyl-diphosphate synthase&lt;br&gt;Location: 7809356 - 7810484" locus_tag="LLPMBPKK_06774" class="clusterblast-orf" id="dummy-29_q16_0_all"  />
<polygon points="588,40 639,40 644,35 639,30 588,30 588,40 " style="fill:#d0d815; stroke-width:1; stroke:black; " description="&lt;b&gt;LLPMBPKK_06775&lt;/b&gt;&lt;br&gt;1-deoxy-D-xylulose-5-phosphate synthase&lt;br&gt;Location: 7810521 - 7812420" locus_tag="LLPMBPKK_06775" class="clusterblast-orf" id="dummy-29_q17_0_all"  />
<polygon points="644,40 680,40 685,35 680,30 644,30 644,40 " style="fill:#15d88c; stroke-width:1; stroke:black; " description="&lt;b&gt;LLPMBPKK_06776&lt;/b&gt;&lt;br&gt;aspartate aminotransferase family protein&lt;br&gt;Location: 7812416 - 7813802" locus_tag="LLPMBPKK_06776" class="clusterblast-orf" id="dummy-29_q18_0_all"  />
<polygon points="686,35 691,30 694,30 694,40 691,40 686,35 " style="fill:#3715d8; stroke-width:1; stroke:black; " description="&lt;b&gt;LLPMBPKK_06777&lt;/b&gt;&lt;br&gt;hypothetical protein&lt;br&gt;Location: 7813812 - 7814088" locus_tag="LLPMBPKK_06777" class="clusterblast-orf" id="dummy-29_q19_0_all"  />
<polygon points="698,40 712,40 717,35 712,30 698,30 698,40 " style="fill:#d81548; stroke-width:1; stroke:black; " description="&lt;b&gt;LLPMBPKK_06778&lt;/b&gt;&lt;br&gt;XRE family transcriptional regulator&lt;br&gt;Location: 7814226 - 7814856" locus_tag="LLPMBPKK_06778" class="clusterblast-orf" id="dummy-29_q20_0_all"  />
<polygon points="717,40 720,35 717,30 717,40 " style="fill:#9dd815; stroke-width:1; stroke:black; " description="&lt;b&gt;LLPMBPKK_06779&lt;/b&gt;&lt;br&gt;small hydrophobic hypothetical protein&lt;br&gt;Location: 7814852 - 7814975" locus_tag="LLPMBPKK_06779" class="clusterblast-orf" id="dummy-29_q21_0_all"  />
<polygon points="721,40 740,40 745,35 740,30 721,30 721,40 " style="fill:#15d8bf; stroke-width:1; stroke:black; " description="&lt;b&gt;LLPMBPKK_06780&lt;/b&gt;&lt;br&gt;hypothetical protein&lt;br&gt;Location: 7815004 - 7815805" locus_tag="LLPMBPKK_06780" class="clusterblast-orf" id="dummy-29_q22_0_all"  />
<polygon points="745,35 750,30 769,30 769,40 750,40 745,35 " style="fill:#6a15d8; stroke-width:1; stroke:black; " description="&lt;b&gt;LLPMBPKK_06781&lt;/b&gt;&lt;br&gt;tyrosine-protein phosphatase&lt;br&gt;Location: 7815818 - 7816616" locus_tag="LLPMBPKK_06781" class="clusterblast-orf" id="dummy-29_q23_0_all"  />
</g>
<g label="NZ_RDBM01000022" description="NZ_RDBM01000022 (26909-53484): Streptomyces sp. gb1(2016) Scaffold 22, whole ... (95% of genes show similarity), terpene" class="clusterblast-cluster"  >
<text x="5" y="70" class="clusterblast-acc"  >
<a xlink:href="https://antismash-db.secondarymetabolites.org/area.html?record=NZ_RDBM01000022&amp;start=26909&amp;end=53484" target="_blank">NZ_RDBM01000022 (26909-53484)</a>: Streptomyces sp. gb1(2016) Scaffold 22, whole ... (95% of genes show similarity), terpene</text>
<line x1="10" y1="85" x2="778.0" y2="85" style="stroke-width:1; stroke:grey; "  />
</g>
<g id="a29_000"  >
<polygon points="0,85 5,80 27,80 27,90 5,90 0,85 " style="fill:#d81515; stroke-width:1; stroke:black; " description="&lt;b&gt;EAO74_RS05870&lt;/b&gt;&lt;br&gt;cation transporter&lt;br&gt;Location: 53348 - 52407&lt;br&gt;&lt;br&gt;&lt;b&gt;BlastP hit with LLPMBPKK_06758&lt;/b&gt;&lt;br&gt;Percentage identity: 79&lt;br&gt;Percentage coverage: 100&lt;br&gt;BLAST bit score: 436&lt;br&gt;E-value: 3.78e-153" locus_tag="EAO74_RS05870" class="clusterblast-orf" id="dummy-29_h29_9_0"  />
</g>
<g id="a29_001"  >
<polygon points="34,85 39,80 63,80 63,90 39,90 34,85 " style="fill:#6ad815; stroke-width:1; stroke:black; " description="&lt;b&gt;EAO74_RS05865&lt;/b&gt;&lt;br&gt;UDP-glucose 4-epimerase GalE&lt;br&gt;Location: 52188 - 51202&lt;br&gt;&lt;br&gt;&lt;b&gt;BlastP hit with LLPMBPKK_06759&lt;/b&gt;&lt;br&gt;Percentage identity: 77&lt;br&gt;Percentage coverage: 99&lt;br&gt;BLAST bit score: 488&lt;br&gt;E-value: 1.93e-173" locus_tag="EAO74_RS05865" class="clusterblast-orf" id="dummy-29_h29_9_1"  />
</g>
<g id="a29_002"  >
<polygon points="72,90 119,90 124,85 119,80 72,80 72,90 " style="fill:#15bfd8; stroke-width:1; stroke:black; " description="&lt;b&gt;EAO74_RS05860&lt;/b&gt;&lt;br&gt;CDP-alcohol phosphatidyltransferase family protein&lt;br&gt;Location: 50915 - 49140&lt;br&gt;&lt;br&gt;&lt;b&gt;BlastP hit with LLPMBPKK_06760&lt;/b&gt;&lt;br&gt;Percentage identity: 75&lt;br&gt;Percentage coverage: 98&lt;br&gt;BLAST bit score: 810&lt;br&gt;E-value: 1.09e-291" locus_tag="EAO74_RS05860" class="clusterblast-orf" id="dummy-29_h29_9_2"  />
</g>
<g id="a29_003"  >
<polygon points="124,90 141,90 146,85 141,80 124,80 124,90 " style="fill:#9d15d8; stroke-width:1; stroke:black; " description="&lt;b&gt;EAO74_RS05855&lt;/b&gt;&lt;br&gt;phosphocholine cytidylyltransferase family protein&lt;br&gt;Location: 49143 - 48406&lt;br&gt;&lt;br&gt;&lt;b&gt;BlastP hit with LLPMBPKK_06761&lt;/b&gt;&lt;br&gt;Percentage identity: 79&lt;br&gt;Percentage coverage: 100&lt;br&gt;BLAST bit score: 396&lt;br&gt;E-value: 1.35e-139" locus_tag="EAO74_RS05855" class="clusterblast-orf" id="dummy-29_h29_9_3"  />
</g>
<g id="a29_004"  >
<polygon points="146,90 172,90 177,85 172,80 146,80 146,90 " style="fill:#d84815; stroke-width:1; stroke:black; " description="&lt;b&gt;EAO74_RS05850&lt;/b&gt;&lt;br&gt;iron-containing alcohol dehydrogenase family protein&lt;br&gt;Location: 48418 - 47357&lt;br&gt;&lt;br&gt;&lt;b&gt;BlastP hit with LLPMBPKK_06762&lt;/b&gt;&lt;br&gt;Percentage identity: 80&lt;br&gt;Percentage coverage: 100&lt;br&gt;BLAST bit score: 573&lt;br&gt;E-value: 5e-206" locus_tag="EAO74_RS05850" class="clusterblast-orf" id="dummy-29_h29_9_4"  />
</g>
<g id="a29_005"  >
<polygon points="177,90 195,90 200,85 195,80 177,80 177,90 " style="fill:#37d815; stroke-width:1; stroke:black; " description="&lt;b&gt;EAO74_RS05845&lt;/b&gt;&lt;br&gt;CDP-alcohol phosphatidyltransferase family protein&lt;br&gt;Location: 47379 - 46600&lt;br&gt;&lt;br&gt;&lt;b&gt;BlastP hit with LLPMBPKK_06763&lt;/b&gt;&lt;br&gt;Percentage identity: 83&lt;br&gt;Percentage coverage: 100&lt;br&gt;BLAST bit score: 356&lt;br&gt;E-value: 6.12e-124" locus_tag="EAO74_RS05845" class="clusterblast-orf" id="dummy-29_h29_9_5"  />
</g>
<g id="a29_006"  >
<polygon points="200,90 221,90 226,85 221,80 200,80 200,90 " style="fill:#158cd8; stroke-width:1; stroke:black; " description="&lt;b&gt;EAO74_RS05840&lt;/b&gt;&lt;br&gt;glycosyltransferase family 2 protein&lt;br&gt;Location: 46591 - 45719&lt;br&gt;&lt;br&gt;&lt;b&gt;BlastP hit with LLPMBPKK_06764&lt;/b&gt;&lt;br&gt;Percentage identity: 88&lt;br&gt;Percentage coverage: 100&lt;br&gt;BLAST bit score: 522&lt;br&gt;E-value: 5.16e-188" locus_tag="EAO74_RS05840" class="clusterblast-orf" id="dummy-29_h29_9_6"  />
</g>
<g id="a29_007"  >
<polygon points="229,90 252,90 257,85 252,80 229,80 229,90 " style="fill:#d015d8; stroke-width:1; stroke:black; " description="&lt;b&gt;EAO74_RS05835&lt;/b&gt;&lt;br&gt;ABC transporter permease&lt;br&gt;Location: 45610 - 44681&lt;br&gt;&lt;br&gt;&lt;b&gt;BlastP hit with LLPMBPKK_06765&lt;/b&gt;&lt;br&gt;Percentage identity: 82&lt;br&gt;Percentage coverage: 100&lt;br&gt;BLAST bit score: 512&lt;br&gt;E-value: 2.87e-183" locus_tag="EAO74_RS05835" class="clusterblast-orf" id="dummy-29_h29_9_7"  />
</g>
<g id="a29_008"  >
<polygon points="257,90 275,90 280,85 275,80 257,80 257,90 " style="fill:#d87b15; stroke-width:1; stroke:black; " description="&lt;b&gt;EAO74_RS05830&lt;/b&gt;&lt;br&gt;ABC transporter ATP-binding protein&lt;br&gt;Location: 44688 - 43903&lt;br&gt;&lt;br&gt;&lt;b&gt;BlastP hit with LLPMBPKK_06766&lt;/b&gt;&lt;br&gt;Percentage identity: 86&lt;br&gt;Percentage coverage: 100&lt;br&gt;BLAST bit score: 433&lt;br&gt;E-value: 1.31e-153" locus_tag="EAO74_RS05830" class="clusterblast-orf" id="dummy-29_h29_9_8"  />
</g>
<g id="a29_009"  >
<polygon points="292,90 315,90 320,85 315,80 292,80 292,90 " style="fill:#15d826; stroke-width:1; stroke:black; " description="&lt;b&gt;EAO74_RS05825&lt;/b&gt;&lt;br&gt;squalene synthase HpnC&lt;br&gt;Location: 43484 - 42548&lt;br&gt;&lt;br&gt;&lt;b&gt;BlastP hit with LLPMBPKK_06767&lt;/b&gt;&lt;br&gt;Percentage identity: 72&lt;br&gt;Percentage coverage: 36&lt;br&gt;BLAST bit score: 150&lt;br&gt;E-value: 1.78e-42" locus_tag="EAO74_RS05825" class="clusterblast-orf" id="dummy-29_h29_9_9"  />
</g>
<g id="a29_0010"  >
<polygon points="321,90 343,90 348,85 343,80 321,80 321,90 " style="fill:#15d826; stroke-width:1; stroke:black; " description="&lt;b&gt;EAO74_RS05820&lt;/b&gt;&lt;br&gt;presqualene diphosphate synthase HpnD&lt;br&gt;Location: 42518 - 41598&lt;br&gt;&lt;br&gt;&lt;b&gt;BlastP hit with LLPMBPKK_06767&lt;/b&gt;&lt;br&gt;Percentage identity: 35&lt;br&gt;Percentage coverage: 77&lt;br&gt;BLAST bit score: 96&lt;br&gt;E-value: 4.99e-21&lt;br&gt;&lt;br&gt;&lt;b&gt;BlastP hit with LLPMBPKK_06768&lt;/b&gt;&lt;br&gt;Percentage identity: 86&lt;br&gt;Percentage coverage: 95&lt;br&gt;BLAST bit score: 513&lt;br&gt;E-value: 9.78e-184" locus_tag="EAO74_RS05820" class="clusterblast-orf" id="dummy-29_h29_9_10"  />
</g>
<g id="a29_0011"  >
<polygon points="351,90 387,90 392,85 387,80 351,80 351,90 " style="fill:#1559d8; stroke-width:1; stroke:black; " description="&lt;b&gt;EAO74_RS05815&lt;/b&gt;&lt;br&gt;FAD-dependent oxidoreductase&lt;br&gt;Location: 41509 - 40121&lt;br&gt;&lt;br&gt;&lt;b&gt;BlastP hit with LLPMBPKK_06769&lt;/b&gt;&lt;br&gt;Percentage identity: 75&lt;br&gt;Percentage coverage: 96&lt;br&gt;BLAST bit score: 661&lt;br&gt;E-value: 6.32e-237" locus_tag="EAO74_RS05815" class="clusterblast-orf" id="dummy-29_h29_9_11"  />
</g>
<g id="a29_0012"  >
<polygon points="392,90 420,90 425,85 420,80 392,80 392,90 " style="fill:#d815ae; stroke-width:1; stroke:black; " description="&lt;b&gt;EAO74_RS05810&lt;/b&gt;&lt;br&gt;polyprenyl synthetase family protein&lt;br&gt;Location: 40124 - 39021&lt;br&gt;&lt;br&gt;&lt;b&gt;BlastP hit with LLPMBPKK_06770&lt;/b&gt;&lt;br&gt;Percentage identity: 86&lt;br&gt;Percentage coverage: 97&lt;br&gt;BLAST bit score: 593&lt;br&gt;E-value: 1.83e-213" locus_tag="EAO74_RS05810" class="clusterblast-orf" id="dummy-29_h29_9_12"  />
</g>
<g id="a29_0013"  >
<polygon points="428,90 483,90 488,85 483,80 428,80 428,90 " style="fill:#d8ae15; stroke-width:1; stroke:black; " description="&lt;b&gt;EAO74_RS05805&lt;/b&gt;&lt;br&gt;squalene--hopene cyclase&lt;br&gt;Location: 38916 - 36910&lt;br&gt;&lt;br&gt;&lt;b&gt;BlastP hit with LLPMBPKK_06771&lt;/b&gt;&lt;br&gt;Percentage identity: 78&lt;br&gt;Percentage coverage: 97&lt;br&gt;BLAST bit score: 1013&lt;br&gt;E-value: 0.0" locus_tag="EAO74_RS05805" class="clusterblast-orf" id="dummy-29_h29_9_13"  />
</g>
<g id="a29_0014"  >
<polygon points="488,90 502,90 507,85 502,80 488,80 488,90 " style="fill:#15d859; stroke-width:1; stroke:black; " description="&lt;b&gt;EAO74_RS05800&lt;/b&gt;&lt;br&gt;1-hydroxy-2-methyl-2-butenyl 4-diphosphate reductase&lt;br&gt;Location: 36905 - 36246&lt;br&gt;&lt;br&gt;&lt;b&gt;BlastP hit with LLPMBPKK_06772&lt;/b&gt;&lt;br&gt;Percentage identity: 74&lt;br&gt;Percentage coverage: 100&lt;br&gt;BLAST bit score: 293&lt;br&gt;E-value: 8.04e-100" locus_tag="EAO74_RS05800" class="clusterblast-orf" id="dummy-29_h29_9_14"  />
</g>
<g id="a29_0015"  >
<polygon points="508,90 533,90 538,85 533,80 508,80 508,90 " style="fill:#1526d8; stroke-width:1; stroke:black; " description="&lt;b&gt;EAO74_RS05795&lt;/b&gt;&lt;br&gt;adenosyl-hopene transferase HpnH&lt;br&gt;Location: 36239 - 35220&lt;br&gt;&lt;br&gt;&lt;b&gt;BlastP hit with LLPMBPKK_06773&lt;/b&gt;&lt;br&gt;Percentage identity: 94&lt;br&gt;Percentage coverage: 100&lt;br&gt;BLAST bit score: 676&lt;br&gt;E-value: 5.2e-247" locus_tag="EAO74_RS05795" class="clusterblast-orf" id="dummy-29_h29_9_15"  />
</g>
<g id="a29_0016"  >
<polygon points="538,90 561,90 566,85 561,80 538,80 538,90 " style="fill:#d8157b; stroke-width:1; stroke:black; " description="&lt;b&gt;EAO74_RS05790&lt;/b&gt;&lt;br&gt;flavodoxin-dependent (E)-4-hydroxy-3-methylbut-2-enyl-diphosphate synthase&lt;br&gt;Location: 35215 - 34263&lt;br&gt;&lt;br&gt;&lt;b&gt;BlastP hit with LLPMBPKK_06774&lt;/b&gt;&lt;br&gt;Percentage identity: 89&lt;br&gt;Percentage coverage: 83&lt;br&gt;BLAST bit score: 540&lt;br&gt;E-value: 2.87e-193" locus_tag="EAO74_RS05790" class="clusterblast-orf" id="dummy-29_h29_9_16"  />
</g>
<g id="a29_0017"  >
<polygon points="569,90 575,90 580,85 575,80 569,80 569,90 " style="fill:#d8157b; stroke-width:1; stroke:black; " description="&lt;b&gt;EAO74_RS05785&lt;/b&gt;&lt;br&gt;flavodoxin-dependent (E)-4-hydroxy-3-methylbut-2-enyl-diphosphate synthase&lt;br&gt;Location: 34162 - 33797&lt;br&gt;&lt;br&gt;&lt;b&gt;BlastP hit with LLPMBPKK_06774&lt;/b&gt;&lt;br&gt;Percentage identity: 91&lt;br&gt;Percentage coverage: 28&lt;br&gt;BLAST bit score: 189&lt;br&gt;E-value: 6.02e-58" locus_tag="EAO74_RS05785" class="clusterblast-orf" id="dummy-29_h29_9_17"  />
</g>
<g id="a29_0018"  >
<polygon points="581,90 633,90 638,85 633,80 581,80 581,90 " style="fill:#d0d815; stroke-width:1; stroke:black; " description="&lt;b&gt;EAO74_RS05780&lt;/b&gt;&lt;br&gt;1-deoxy-D-xylulose-5-phosphate synthase&lt;br&gt;Location: 33763 - 31853&lt;br&gt;&lt;br&gt;&lt;b&gt;BlastP hit with LLPMBPKK_06775&lt;/b&gt;&lt;br&gt;Percentage identity: 82&lt;br&gt;Percentage coverage: 99&lt;br&gt;BLAST bit score: 1030&lt;br&gt;E-value: 0.0" locus_tag="EAO74_RS05780" class="clusterblast-orf" id="dummy-29_h29_9_18"  />
</g>
<g id="a29_0019"  >
<polygon points="638,90 674,90 679,85 674,80 638,80 638,90 " style="fill:#15d88c; stroke-width:1; stroke:black; " description="&lt;b&gt;EAO74_RS05775&lt;/b&gt;&lt;br&gt;aspartate aminotransferase family protein&lt;br&gt;Location: 31856 - 30462&lt;br&gt;&lt;br&gt;&lt;b&gt;BlastP hit with LLPMBPKK_06776&lt;/b&gt;&lt;br&gt;Percentage identity: 89&lt;br&gt;Percentage coverage: 99&lt;br&gt;BLAST bit score: 837&lt;br&gt;E-value: 1.05e-306" locus_tag="EAO74_RS05775" class="clusterblast-orf" id="dummy-29_h29_9_19"  />
</g>
<g id="a29_0020"  >
<polygon points="681,90 694,90 699,85 694,80 681,80 681,90 " style="fill:#d81548; stroke-width:1; stroke:black; " description="&lt;b&gt;EAO74_RS05770&lt;/b&gt;&lt;br&gt;helix-turn-helix domain-containing protein&lt;br&gt;Location: 30395 - 29775&lt;br&gt;&lt;br&gt;&lt;b&gt;BlastP hit with LLPMBPKK_06778&lt;/b&gt;&lt;br&gt;Percentage identity: 71&lt;br&gt;Percentage coverage: 98&lt;br&gt;BLAST bit score: 268&lt;br&gt;E-value: 4.86e-90" locus_tag="EAO74_RS05770" class="clusterblast-orf" id="dummy-29_h29_9_20"  />
</g>
<g id="a29_0021"  >
<polygon points="705,90 705,90 710,85 705,80 705,80 705,90 " style="fill:#9dd815; stroke-width:1; stroke:black; " description="&lt;b&gt;EAO74_RS37355&lt;/b&gt;&lt;br&gt;hypothetical protein&lt;br&gt;Location: 29580 - 29407&lt;br&gt;&lt;br&gt;&lt;b&gt;BlastP hit with LLPMBPKK_06779&lt;/b&gt;&lt;br&gt;Percentage identity: 53&lt;br&gt;Percentage coverage: 90&lt;br&gt;BLAST bit score: 44&lt;br&gt;E-value: 3.6e-06" locus_tag="EAO74_RS37355" class="clusterblast-orf" id="dummy-29_h29_9_21"  />
</g>
<g id="a29_0022"  >
<polygon points="711,85 716,80 735,80 735,90 716,90 711,85 " style="fill:#6a15d8; stroke-width:1; stroke:black; " description="&lt;b&gt;EAO74_RS05765&lt;/b&gt;&lt;br&gt;tyrosine-protein phosphatase&lt;br&gt;Location: 29395 - 28571&lt;br&gt;&lt;br&gt;&lt;b&gt;BlastP hit with LLPMBPKK_06781&lt;/b&gt;&lt;br&gt;Percentage identity: 70&lt;br&gt;Percentage coverage: 103&lt;br&gt;BLAST bit score: 375&lt;br&gt;E-value: 2.28e-130" locus_tag="EAO74_RS05765" class="clusterblast-orf" id="dummy-29_h29_9_22"  />
</g>
<g id="a29_0023"  >
<polygon points="752,90 775,90 780,85 775,80 752,80 752,90 " style="fill:white; stroke-width:1; stroke:black; " description="&lt;b&gt;EAO74_RS05760&lt;/b&gt;&lt;br&gt;peptidoglycan DD-metalloendopeptidase family protein&lt;br&gt;Location: 27991 - 27080" locus_tag="EAO74_RS05760" class="clusterblast-orf" id="dummy-29_h29_9_23"  />
</g>
</svg>
