<svg xmlns="http://www.w3.org/2000/svg" xmlns:xlink="http://www.w3.org/1999/xlink" version="1.1" x="0" y="0" height="230" width="800" viewBox="0 0 800 230" preserveAspectRatio="none"  >
<g label="Query sequence" class="clusterblast-cluster"  >
<text x="5" y="20" class="clusterblast-acc"  >
Query sequence</text>
<line x1="10" y1="35" x2="778.0" y2="35" style="stroke-width:1; stroke:grey; "  />
<polygon points="42,40 64,40 69,35 64,30 42,30 42,40 " style="fill:white; stroke-width:1; stroke:black; " description="&lt;b&gt;LLPMBPKK_01395&lt;/b&gt;&lt;br&gt;Alpha-L-arabinofuranosidase B (ABFB) domainprotein&lt;br&gt;Location: 1683263 - 1684649" locus_tag="LLPMBPKK_01395" class="clusterblast-orf" id="dummy-9_q0_0_all"  />
<polygon points="73,40 80,40 85,35 80,30 73,30 73,40 " style="fill:#d81515; stroke-width:1; stroke:black; " description="&lt;b&gt;LLPMBPKK_01396&lt;/b&gt;&lt;br&gt;DedA family protein&lt;br&gt;Location: 1684847 - 1685486" locus_tag="LLPMBPKK_01396" class="clusterblast-orf" id="dummy-9_q1_0_all"  />
<polygon points="86,35 91,30 100,30 100,40 91,40 86,35 " style="fill:#67d815; stroke-width:1; stroke:black; " description="&lt;b&gt;LLPMBPKK_01397&lt;/b&gt;&lt;br&gt;hypothetical protein&lt;br&gt;Location: 1685545 - 1686277" locus_tag="LLPMBPKK_01397" class="clusterblast-orf" id="dummy-9_q2_0_all"  />
<polygon points="101,35 106,30 111,30 111,40 106,40 101,35 " style="fill:#15b9d8; stroke-width:1; stroke:black; " description="&lt;b&gt;LLPMBPKK_01398&lt;/b&gt;&lt;br&gt;hypothetical protein&lt;br&gt;Location: 1686310 - 1686811" locus_tag="LLPMBPKK_01398" class="clusterblast-orf" id="dummy-9_q3_0_all"  />
<polygon points="115,40 117,40 122,35 117,30 115,30 115,40 " style="fill:#8615d8; stroke-width:1; stroke:black; " description="&lt;b&gt;LLPMBPKK_01399&lt;/b&gt;&lt;br&gt;hypothetical protein&lt;br&gt;Location: 1687013 - 1687373" locus_tag="LLPMBPKK_01399" class="clusterblast-orf" id="dummy-9_q4_0_all"  />
<polygon points="123,40 142,40 147,35 142,30 123,30 123,40 " style="fill:#d83415; stroke-width:1; stroke:black; " description="&lt;b&gt;LLPMBPKK_01400&lt;/b&gt;&lt;br&gt;phosphodiester glycosidase family protein&lt;br&gt;Location: 1687448 - 1688687" locus_tag="LLPMBPKK_01400" class="clusterblast-orf" id="dummy-9_q5_0_all"  />
<polygon points="147,35 151,30 151,40 147,35 " style="fill:#49d815; stroke-width:1; stroke:black; " description="&lt;b&gt;LLPMBPKK_01401&lt;/b&gt;&lt;br&gt;small membrane protein&lt;br&gt;Location: 1688700 - 1688895" locus_tag="LLPMBPKK_01401" class="clusterblast-orf" id="dummy-9_q6_0_all"  />
<polygon points="153,35 158,30 170,30 170,40 158,40 153,35 " style="fill:#159bd8; stroke-width:1; stroke:black; " description="&lt;b&gt;LLPMBPKK_01402&lt;/b&gt;&lt;br&gt;Glycerophosphoryl diester phosphodiesterasefamily protein&lt;br&gt;Location: 1688998 - 1689886" locus_tag="LLPMBPKK_01402" class="clusterblast-orf" id="dummy-9_q7_0_all"  />
<polygon points="175,35 180,30 196,30 196,40 180,40 175,35 " style="fill:#a515d8; stroke-width:1; stroke:black; " description="&lt;b&gt;LLPMBPKK_01403&lt;/b&gt;&lt;br&gt;acyl-CoA dehydrogenase&lt;br&gt;Location: 1690115 - 1691189" locus_tag="LLPMBPKK_01403" class="clusterblast-orf" id="dummy-9_q8_0_all"  />
<polygon points="196,35 201,30 219,30 219,40 201,40 196,35 " style="fill:#d85315; stroke-width:1; stroke:black; " description="&lt;b&gt;LLPMBPKK_01404&lt;/b&gt;&lt;br&gt;acyl-CoA dehydrogenase&lt;br&gt;Location: 1691185 - 1692367" locus_tag="LLPMBPKK_01404" class="clusterblast-orf" id="dummy-9_q9_0_all"  />
<polygon points="218,35 223,30 237,30 237,40 223,40 218,35 " style="fill:#2ad815; stroke-width:1; stroke:black; " description="&lt;b&gt;LLPMBPKK_01405&lt;/b&gt;&lt;br&gt;oxidoreductase&lt;br&gt;Location: 1692363 - 1693329" locus_tag="LLPMBPKK_01405" class="clusterblast-orf" id="dummy-9_q10_0_all"  />
<polygon points="239,35 244,30 250,30 250,40 244,40 239,35 " style="fill:#157cd8; stroke-width:1; stroke:black; " description="&lt;b&gt;LLPMBPKK_01406&lt;/b&gt;&lt;br&gt;regulatory protein&lt;br&gt;Location: 1693415 - 1693988" locus_tag="LLPMBPKK_01406" class="clusterblast-orf" id="dummy-9_q11_0_all"  />
<polygon points="251,40 265,40 270,35 265,30 251,30 251,40 " style="fill:#c415d8; stroke-width:1; stroke:black; " description="&lt;b&gt;LLPMBPKK_01407&lt;/b&gt;&lt;br&gt;NAD(P)/FAD-dependent oxidoreductase&lt;br&gt;Location: 1694053 - 1695022" locus_tag="LLPMBPKK_01407" class="clusterblast-orf" id="dummy-9_q12_0_all"  />
<polygon points="271,40 297,40 302,35 297,30 271,30 271,40 " style="fill:#d87215; stroke-width:1; stroke:black; " description="&lt;b&gt;LLPMBPKK_01408&lt;/b&gt;&lt;br&gt;ATP-dependent DNA ligase&lt;br&gt;Location: 1695101 - 1696649" locus_tag="LLPMBPKK_01408" class="clusterblast-orf" id="dummy-9_q13_0_all"  />
<polygon points="301,40 306,40 311,35 306,30 301,30 301,40 " style="fill:#15d81f; stroke-width:1; stroke:black; " description="&lt;b&gt;LLPMBPKK_01409&lt;/b&gt;&lt;br&gt;NUDIX domain-containing protein&lt;br&gt;Location: 1696645 - 1697119" locus_tag="LLPMBPKK_01409" class="clusterblast-orf" id="dummy-9_q14_0_all"  />
<polygon points="312,40 334,40 339,35 334,30 312,30 312,40 " style="fill:#155dd8; stroke-width:1; stroke:black; " description="&lt;b&gt;LLPMBPKK_01410&lt;/b&gt;&lt;br&gt;NADP-dependent succinic semialdehydedehydrogenase&lt;br&gt;Location: 1697200 - 1698586" locus_tag="LLPMBPKK_01410" class="clusterblast-orf" id="dummy-9_q15_0_all"  />
<polygon points="339,40 339,40 344,35 339,30 339,30 339,40 " style="fill:#d815ce; stroke-width:1; stroke:black; " description="&lt;b&gt;LLPMBPKK_01411&lt;/b&gt;&lt;br&gt;hypothetical protein&lt;br&gt;Location: 1698582 - 1698846" locus_tag="LLPMBPKK_01411" class="clusterblast-orf" id="dummy-9_q16_0_all"  />
<polygon points="347,40 363,40 368,35 363,30 347,30 347,40 " style="fill:#d89015; stroke-width:1; stroke:black; " description="&lt;b&gt;LLPMBPKK_01412&lt;/b&gt;&lt;br&gt;type III polyketide synthase&lt;br&gt;Location: 1699021 - 1700086" locus_tag="LLPMBPKK_01412" class="clusterblast-orf" id="dummy-9_q17_0_all"  />
<polygon points="368,40 387,40 392,35 387,30 368,30 368,40 " style="fill:#15d83e; stroke-width:1; stroke:black; " description="&lt;b&gt;LLPMBPKK_01413&lt;/b&gt;&lt;br&gt;cytochrome P450&lt;br&gt;Location: 1700082 - 1701300" locus_tag="LLPMBPKK_01413" class="clusterblast-orf" id="dummy-9_q18_0_all"  />
<polygon points="392,40 397,40 402,35 397,30 392,30 392,40 " style="fill:#153ed8; stroke-width:1; stroke:black; " description="&lt;b&gt;LLPMBPKK_01414&lt;/b&gt;&lt;br&gt;cupin domain-containing protein&lt;br&gt;Location: 1701307 - 1701829" locus_tag="LLPMBPKK_01414" class="clusterblast-orf" id="dummy-9_q19_0_all"  />
<polygon points="403,35 408,30 426,30 426,40 408,40 403,35 " style="fill:#d815af; stroke-width:1; stroke:black; " description="&lt;b&gt;LLPMBPKK_01415&lt;/b&gt;&lt;br&gt;acyl-CoA dehydrogenase&lt;br&gt;Location: 1701869 - 1703096" locus_tag="LLPMBPKK_01415" class="clusterblast-orf" id="dummy-9_q20_0_all"  />
<polygon points="430,40 437,40 442,35 437,30 430,30 430,40 " style="fill:#d8af15; stroke-width:1; stroke:black; " description="&lt;b&gt;LLPMBPKK_01416&lt;/b&gt;&lt;br&gt;TetR/AcrR family transcriptional regulator&lt;br&gt;Location: 1703266 - 1703911" locus_tag="LLPMBPKK_01416" class="clusterblast-orf" id="dummy-9_q21_0_all"  />
<polygon points="444,35 449,30 455,30 455,40 449,40 444,35 " style="fill:#15d85d; stroke-width:1; stroke:black; " description="&lt;b&gt;LLPMBPKK_01417&lt;/b&gt;&lt;br&gt;peptide deformylase&lt;br&gt;Location: 1703981 - 1704551" locus_tag="LLPMBPKK_01417" class="clusterblast-orf" id="dummy-9_q22_0_all"  />
<polygon points="457,40 476,40 481,35 476,30 457,30 457,40 " style="fill:#151fd8; stroke-width:1; stroke:black; " description="&lt;b&gt;LLPMBPKK_01418&lt;/b&gt;&lt;br&gt;hypothetical protein&lt;br&gt;Location: 1704674 - 1705913" locus_tag="LLPMBPKK_01418" class="clusterblast-orf" id="dummy-9_q23_0_all"  />
<polygon points="481,40 491,40 496,35 491,30 481,30 481,40 " style="fill:#d81590; stroke-width:1; stroke:black; " description="&lt;b&gt;LLPMBPKK_01419&lt;/b&gt;&lt;br&gt;glutamine amidotransferase&lt;br&gt;Location: 1705933 - 1706662" locus_tag="LLPMBPKK_01419" class="clusterblast-orf" id="dummy-9_q24_0_all"  />
<polygon points="500,40 515,40 520,35 515,30 500,30 500,40 " style="fill:#d8ce15; stroke-width:1; stroke:black; " description="&lt;b&gt;LLPMBPKK_01420&lt;/b&gt;&lt;br&gt;ATP-dependent 6-phosphofructokinase&lt;br&gt;Location: 1706888 - 1707914" locus_tag="LLPMBPKK_01420" class="clusterblast-orf" id="dummy-9_q25_0_all"  />
<polygon points="522,40 536,40 541,35 536,30 522,30 522,40 " style="fill:#15d87c; stroke-width:1; stroke:black; " description="&lt;b&gt;LLPMBPKK_01421&lt;/b&gt;&lt;br&gt;cytochrome c oxidase assembly protein&lt;br&gt;Location: 1708030 - 1708981" locus_tag="LLPMBPKK_01421" class="clusterblast-orf" id="dummy-9_q26_0_all"  />
<polygon points="542,40 545,35 542,30 542,40 " style="fill:#2a15d8; stroke-width:1; stroke:black; " description="&lt;b&gt;LLPMBPKK_01422&lt;/b&gt;&lt;br&gt;hypothetical protein&lt;br&gt;Location: 1709051 - 1709219" locus_tag="LLPMBPKK_01422" class="clusterblast-orf" id="dummy-9_q27_0_all"  />
<polygon points="546,40 550,40 555,35 550,30 546,30 546,40 " style="fill:#d81572; stroke-width:1; stroke:black; " description="&lt;b&gt;LLPMBPKK_01423&lt;/b&gt;&lt;br&gt;Lrp/AsnC family transcriptional regulator&lt;br&gt;Location: 1709255 - 1709741" locus_tag="LLPMBPKK_01423" class="clusterblast-orf" id="dummy-9_q28_0_all"  />
<polygon points="558,40 569,40 574,35 569,30 558,30 558,40 " style="fill:#c4d815; stroke-width:1; stroke:black; " description="&lt;b&gt;LLPMBPKK_01424&lt;/b&gt;&lt;br&gt;amidinotransferase&lt;br&gt;Location: 1709894 - 1710704" locus_tag="LLPMBPKK_01424" class="clusterblast-orf" id="dummy-9_q29_0_all"  />
<polygon points="574,40 593,40 598,35 593,30 574,30 574,40 " style="fill:#15d89b; stroke-width:1; stroke:black; " description="&lt;b&gt;LLPMBPKK_01425&lt;/b&gt;&lt;br&gt;ornithine--oxo-acid transaminase&lt;br&gt;Location: 1710703 - 1711921" locus_tag="LLPMBPKK_01425" class="clusterblast-orf" id="dummy-9_q30_0_all"  />
<polygon points="599,35 604,30 611,30 611,40 604,40 599,35 " style="fill:#4915d8; stroke-width:1; stroke:black; " description="&lt;b&gt;LLPMBPKK_01426&lt;/b&gt;&lt;br&gt;hypothetical protein&lt;br&gt;Location: 1711975 - 1712614" locus_tag="LLPMBPKK_01426" class="clusterblast-orf" id="dummy-9_q31_0_all"  />
<polygon points="613,35 618,30 621,30 621,40 618,40 613,35 " style="fill:#d81553; stroke-width:1; stroke:black; " description="&lt;b&gt;LLPMBPKK_01427&lt;/b&gt;&lt;br&gt;hypothetical protein&lt;br&gt;Location: 1712720 - 1713131" locus_tag="LLPMBPKK_01427" class="clusterblast-orf" id="dummy-9_q32_0_all"  />
<polygon points="624,40 633,40 638,35 633,30 624,30 624,40 " style="fill:#a5d815; stroke-width:1; stroke:black; " description="&lt;b&gt;LLPMBPKK_01428&lt;/b&gt;&lt;br&gt;acyltransferase&lt;br&gt;Location: 1713279 - 1714005" locus_tag="LLPMBPKK_01428" class="clusterblast-orf" id="dummy-9_q33_0_all"  />
<polygon points="639,40 654,40 659,35 654,30 639,30 639,40 " style="fill:#15d8b9; stroke-width:1; stroke:black; " description="&lt;b&gt;LLPMBPKK_01429&lt;/b&gt;&lt;br&gt;NAD-dependent epimerase/dehydratase familyprotein&lt;br&gt;Location: 1714063 - 1715086" locus_tag="LLPMBPKK_01429" class="clusterblast-orf" id="dummy-9_q34_0_all"  />
<polygon points="660,35 665,30 691,30 691,40 665,40 660,35 " style="fill:#6715d8; stroke-width:1; stroke:black; " description="&lt;b&gt;LLPMBPKK_01430&lt;/b&gt;&lt;br&gt;alpha/beta hydrolase&lt;br&gt;Location: 1715165 - 1716761" locus_tag="LLPMBPKK_01430" class="clusterblast-orf" id="dummy-9_q35_0_all"  />
<polygon points="694,35 699,30 709,30 709,40 699,40 694,35 " style="fill:#d81534; stroke-width:1; stroke:black; " description="&lt;b&gt;LLPMBPKK_01431&lt;/b&gt;&lt;br&gt;urease accessory protein UreD&lt;br&gt;Location: 1716905 - 1717664" locus_tag="LLPMBPKK_01431" class="clusterblast-orf" id="dummy-9_q36_0_all"  />
<polygon points="709,35 714,30 722,30 722,40 714,40 709,35 " style="fill:#86d815; stroke-width:1; stroke:black; " description="&lt;b&gt;LLPMBPKK_01432&lt;/b&gt;&lt;br&gt;urease accessory protein UreG&lt;br&gt;Location: 1717660 - 1718338" locus_tag="LLPMBPKK_01432" class="clusterblast-orf" id="dummy-9_q37_0_all"  />
<polygon points="724,35 729,30 737,30 737,40 729,40 724,35 " style="fill:#15d8d8; stroke-width:1; stroke:black; " description="&lt;b&gt;LLPMBPKK_01433&lt;/b&gt;&lt;br&gt;urease accessory protein UreF&lt;br&gt;Location: 1718460 - 1719135" locus_tag="LLPMBPKK_01433" class="clusterblast-orf" id="dummy-9_q38_0_all"  />
</g>
<g label="NC_017765" description="NC_017765 (3139057-3179300): Streptomyces hygroscopicus subsp. jinggangensis ... (81% of genes show similarity), T3PKS" class="clusterblast-cluster"  >
<text x="5" y="70" class="clusterblast-acc"  >
<a xlink:href="https://antismash-db.secondarymetabolites.org/area.html?record=NC_017765&amp;start=3139057&amp;end=3179300" target="_blank">NC_017765 (3139057-3179300)</a>: Streptomyces hygroscopicus subsp. jinggangensis ... (81% of genes show similarity), T3PKS</text>
<line x1="10" y1="85" x2="778.0" y2="85" style="stroke-width:1; stroke:grey; "  />
</g>
<g id="a9_000"  >
<polygon points="0,90 6,90 11,85 6,80 0,80 0,90 " style="fill:white; stroke-width:1; stroke:black; " description="&lt;b&gt;SHJG_RS13380&lt;/b&gt;&lt;br&gt;N-acetylmuramoyl-L-alanine amidase&lt;br&gt;Location: 3139058 - 3139663" locus_tag="SHJG_RS13380" class="clusterblast-orf" id="dummy-9_h9_3_0"  />
</g>
<g id="a9_001"  >
<polygon points="15,90 35,90 40,85 35,80 15,80 15,90 " style="fill:white; stroke-width:1; stroke:black; " description="&lt;b&gt;SHJG_RS13385&lt;/b&gt;&lt;br&gt;GAF domain-containing protein&lt;br&gt;Location: 3139850 - 3141157" locus_tag="SHJG_RS13385" class="clusterblast-orf" id="dummy-9_h9_3_1"  />
</g>
<g id="a9_002"  >
<polygon points="41,90 66,90 71,85 66,80 41,80 41,90 " style="fill:white; stroke-width:1; stroke:black; " description="&lt;b&gt;SHJG_RS13390&lt;/b&gt;&lt;br&gt;aldehyde dehydrogenase&lt;br&gt;Location: 3141213 - 3142736" locus_tag="SHJG_RS13390" class="clusterblast-orf" id="dummy-9_h9_3_2"  />
</g>
<g id="a9_003"  >
<polygon points="77,90 88,90 93,85 88,80 77,80 77,90 " style="fill:white; stroke-width:1; stroke:black; " description="&lt;b&gt;SHJG_RS13395&lt;/b&gt;&lt;br&gt;hypothetical protein&lt;br&gt;Location: 3143062 - 3143865" locus_tag="SHJG_RS13395" class="clusterblast-orf" id="dummy-9_h9_3_3"  />
</g>
<g id="a9_004"  >
<polygon points="94,90 97,85 94,80 94,90 " style="fill:white; stroke-width:1; stroke:black; " description="&lt;b&gt;SHJG_RS13400&lt;/b&gt;&lt;br&gt;4-oxalocrotonate tautomerase&lt;br&gt;Location: 3143912 - 3144103" locus_tag="SHJG_RS13400" class="clusterblast-orf" id="dummy-9_h9_3_4"  />
</g>
<g id="a9_005"  >
<polygon points="100,90 107,90 112,85 107,80 100,80 100,90 " style="fill:#d81515; stroke-width:1; stroke:black; " description="&lt;b&gt;SHJG_RS13405&lt;/b&gt;&lt;br&gt;DedA family protein&lt;br&gt;Location: 3144221 - 3144868&lt;br&gt;&lt;br&gt;&lt;b&gt;BlastP hit with LLPMBPKK_01396&lt;/b&gt;&lt;br&gt;Percentage identity: 90&lt;br&gt;Percentage coverage: 91&lt;br&gt;BLAST bit score: 329&lt;br&gt;E-value: 3.3e-114" locus_tag="SHJG_RS13405" class="clusterblast-orf" id="dummy-9_h9_3_5"  />
</g>
<g id="a9_006"  >
<polygon points="114,85 119,80 128,80 128,90 119,90 114,85 " style="fill:#67d815; stroke-width:1; stroke:black; " description="&lt;b&gt;SHJG_RS13410&lt;/b&gt;&lt;br&gt;DUF2625 domain-containing protein&lt;br&gt;Location: 3144972 - 3145694&lt;br&gt;&lt;br&gt;&lt;b&gt;BlastP hit with LLPMBPKK_01397&lt;/b&gt;&lt;br&gt;Percentage identity: 86&lt;br&gt;Percentage coverage: 99&lt;br&gt;BLAST bit score: 435&lt;br&gt;E-value: 4.97e-155" locus_tag="SHJG_RS13410" class="clusterblast-orf" id="dummy-9_h9_3_6"  />
</g>
<g id="a9_007"  >
<polygon points="133,85 138,80 143,80 143,90 138,90 133,85 " style="fill:#15b9d8; stroke-width:1; stroke:black; " description="&lt;b&gt;SHJG_RS13415&lt;/b&gt;&lt;br&gt;hypothetical protein&lt;br&gt;Location: 3145966 - 3146466&lt;br&gt;&lt;br&gt;&lt;b&gt;BlastP hit with LLPMBPKK_01398&lt;/b&gt;&lt;br&gt;Percentage identity: 73&lt;br&gt;Percentage coverage: 90&lt;br&gt;BLAST bit score: 223&lt;br&gt;E-value: 1.51e-73" locus_tag="SHJG_RS13415" class="clusterblast-orf" id="dummy-9_h9_3_7"  />
</g>
<g id="a9_008"  >
<polygon points="145,90 147,90 152,85 147,80 145,80 145,90 " style="fill:#8615d8; stroke-width:1; stroke:black; " description="&lt;b&gt;SHJG_RS13420&lt;/b&gt;&lt;br&gt;DUF779 domain-containing protein&lt;br&gt;Location: 3146585 - 3146944&lt;br&gt;&lt;br&gt;&lt;b&gt;BlastP hit with LLPMBPKK_01399&lt;/b&gt;&lt;br&gt;Percentage identity: 96&lt;br&gt;Percentage coverage: 100&lt;br&gt;BLAST bit score: 233&lt;br&gt;E-value: 3.7e-79" locus_tag="SHJG_RS13420" class="clusterblast-orf" id="dummy-9_h9_3_8"  />
</g>
<g id="a9_009"  >
<polygon points="155,90 173,90 178,85 173,80 155,80 155,90 " style="fill:#d83415; stroke-width:1; stroke:black; " description="&lt;b&gt;SHJG_RS13425&lt;/b&gt;&lt;br&gt;phosphodiester glycosidase family protein&lt;br&gt;Location: 3147085 - 3148254&lt;br&gt;&lt;br&gt;&lt;b&gt;BlastP hit with LLPMBPKK_01400&lt;/b&gt;&lt;br&gt;Percentage identity: 83&lt;br&gt;Percentage coverage: 94&lt;br&gt;BLAST bit score: 593&lt;br&gt;E-value: 1.61e-212" locus_tag="SHJG_RS13425" class="clusterblast-orf" id="dummy-9_h9_3_9"  />
</g>
<g id="a9_0010"  >
<polygon points="178,85 182,80 182,90 178,85 " style="fill:#49d815; stroke-width:1; stroke:black; " description="&lt;b&gt;SHJG_RS13430&lt;/b&gt;&lt;br&gt;hypothetical protein&lt;br&gt;Location: 3148266 - 3148460&lt;br&gt;&lt;br&gt;&lt;b&gt;BlastP hit with LLPMBPKK_01401&lt;/b&gt;&lt;br&gt;Percentage identity: 98&lt;br&gt;Percentage coverage: 100&lt;br&gt;BLAST bit score: 108&lt;br&gt;E-value: 2.76e-31" locus_tag="SHJG_RS13430" class="clusterblast-orf" id="dummy-9_h9_3_10"  />
</g>
<g id="a9_0011"  >
<polygon points="184,85 189,80 200,80 200,90 189,90 184,85 " style="fill:#159bd8; stroke-width:1; stroke:black; " description="&lt;b&gt;SHJG_RS13435&lt;/b&gt;&lt;br&gt;hypothetical protein&lt;br&gt;Location: 3148564 - 3149427&lt;br&gt;&lt;br&gt;&lt;b&gt;BlastP hit with LLPMBPKK_01402&lt;/b&gt;&lt;br&gt;Percentage identity: 80&lt;br&gt;Percentage coverage: 100&lt;br&gt;BLAST bit score: 476&lt;br&gt;E-value: 1.08e-169" locus_tag="SHJG_RS13435" class="clusterblast-orf" id="dummy-9_h9_3_11"  />
</g>
<g id="a9_0012"  >
<polygon points="204,85 209,80 225,80 225,90 209,90 204,85 " style="fill:#a515d8; stroke-width:1; stroke:black; " description="&lt;b&gt;SHJG_RS13440&lt;/b&gt;&lt;br&gt;acyl-CoA/acyl-ACP dehydrogenase&lt;br&gt;Location: 3149585 - 3150670&lt;br&gt;&lt;br&gt;&lt;b&gt;BlastP hit with LLPMBPKK_01403&lt;/b&gt;&lt;br&gt;Percentage identity: 87&lt;br&gt;Percentage coverage: 100&lt;br&gt;BLAST bit score: 584&lt;br&gt;E-value: 4.28e-210" locus_tag="SHJG_RS13440" class="clusterblast-orf" id="dummy-9_h9_3_12"  />
</g>
<g id="a9_0013"  >
<polygon points="225,85 230,80 247,80 247,90 230,90 225,85 " style="fill:#d85315; stroke-width:1; stroke:black; " description="&lt;b&gt;SHJG_RS13445&lt;/b&gt;&lt;br&gt;acyl-CoA dehydrogenase&lt;br&gt;Location: 3150667 - 3151848&lt;br&gt;&lt;br&gt;&lt;b&gt;BlastP hit with LLPMBPKK_01404&lt;/b&gt;&lt;br&gt;Percentage identity: 92&lt;br&gt;Percentage coverage: 100&lt;br&gt;BLAST bit score: 739&lt;br&gt;E-value: 2.38e-270" locus_tag="SHJG_RS13445" class="clusterblast-orf" id="dummy-9_h9_3_13"  />
</g>
<g id="a9_0014"  >
<polygon points="247,85 252,80 266,80 266,90 252,90 247,85 " style="fill:#2ad815; stroke-width:1; stroke:black; " description="&lt;b&gt;SHJG_RS13450&lt;/b&gt;&lt;br&gt;NADPH:quinone oxidoreductase family protein&lt;br&gt;Location: 3151845 - 3152816&lt;br&gt;&lt;br&gt;&lt;b&gt;BlastP hit with LLPMBPKK_01405&lt;/b&gt;&lt;br&gt;Percentage identity: 91&lt;br&gt;Percentage coverage: 100&lt;br&gt;BLAST bit score: 578&lt;br&gt;E-value: 6.88e-209" locus_tag="SHJG_RS13450" class="clusterblast-orf" id="dummy-9_h9_3_14"  />
</g>
<g id="a9_0015"  >
<polygon points="268,85 273,80 279,80 279,90 273,90 268,85 " style="fill:#157cd8; stroke-width:1; stroke:black; " description="&lt;b&gt;SHJG_RS13455&lt;/b&gt;&lt;br&gt;helix-turn-helix transcriptional regulator&lt;br&gt;Location: 3152903 - 3153475&lt;br&gt;&lt;br&gt;&lt;b&gt;BlastP hit with LLPMBPKK_01406&lt;/b&gt;&lt;br&gt;Percentage identity: 95&lt;br&gt;Percentage coverage: 100&lt;br&gt;BLAST bit score: 365&lt;br&gt;E-value: 2.67e-129" locus_tag="SHJG_RS13455" class="clusterblast-orf" id="dummy-9_h9_3_15"  />
</g>
<g id="a9_0016"  >
<polygon points="280,90 293,90 298,85 293,80 280,80 280,90 " style="fill:#c415d8; stroke-width:1; stroke:black; " description="&lt;b&gt;SHJG_RS13460&lt;/b&gt;&lt;br&gt;NAD(P)/FAD-dependent oxidoreductase&lt;br&gt;Location: 3153541 - 3154473&lt;br&gt;&lt;br&gt;&lt;b&gt;BlastP hit with LLPMBPKK_01407&lt;/b&gt;&lt;br&gt;Percentage identity: 85&lt;br&gt;Percentage coverage: 100&lt;br&gt;BLAST bit score: 533&lt;br&gt;E-value: 2.97e-191" locus_tag="SHJG_RS13460" class="clusterblast-orf" id="dummy-9_h9_3_16"  />
</g>
<g id="a9_0017"  >
<polygon points="300,90 325,90 330,85 325,80 300,80 300,90 " style="fill:#d87215; stroke-width:1; stroke:black; " description="&lt;b&gt;SHJG_RS13465&lt;/b&gt;&lt;br&gt;ATP-dependent DNA ligase&lt;br&gt;Location: 3154582 - 3156120&lt;br&gt;&lt;br&gt;&lt;b&gt;BlastP hit with LLPMBPKK_01408&lt;/b&gt;&lt;br&gt;Percentage identity: 93&lt;br&gt;Percentage coverage: 99&lt;br&gt;BLAST bit score: 910&lt;br&gt;E-value: 0.0" locus_tag="SHJG_RS13465" class="clusterblast-orf" id="dummy-9_h9_3_17"  />
</g>
<g id="a9_0018"  >
<polygon points="330,90 334,90 339,85 334,80 330,80 330,90 " style="fill:#15d81f; stroke-width:1; stroke:black; " description="&lt;b&gt;SHJG_RS13470&lt;/b&gt;&lt;br&gt;NUDIX domain-containing protein&lt;br&gt;Location: 3156117 - 3156590&lt;br&gt;&lt;br&gt;&lt;b&gt;BlastP hit with LLPMBPKK_01409&lt;/b&gt;&lt;br&gt;Percentage identity: 94&lt;br&gt;Percentage coverage: 99&lt;br&gt;BLAST bit score: 304&lt;br&gt;E-value: 3.85e-106" locus_tag="SHJG_RS13470" class="clusterblast-orf" id="dummy-9_h9_3_18"  />
</g>
<g id="a9_0019"  >
<polygon points="341,90 363,90 368,85 363,80 341,80 341,90 " style="fill:#155dd8; stroke-width:1; stroke:black; " description="&lt;b&gt;SHJG_RS13475&lt;/b&gt;&lt;br&gt;NADP-dependent succinic semialdehyde dehydrogenase&lt;br&gt;Location: 3156701 - 3158086&lt;br&gt;&lt;br&gt;&lt;b&gt;BlastP hit with LLPMBPKK_01410&lt;/b&gt;&lt;br&gt;Percentage identity: 97&lt;br&gt;Percentage coverage: 100&lt;br&gt;BLAST bit score: 891&lt;br&gt;E-value: 0.0" locus_tag="SHJG_RS13475" class="clusterblast-orf" id="dummy-9_h9_3_19"  />
</g>
<g id="a9_0020"  >
<polygon points="369,90 373,85 369,80 369,90 " style="fill:#d815ce; stroke-width:1; stroke:black; " description="&lt;b&gt;SHJG_RS13480&lt;/b&gt;&lt;br&gt;hypothetical protein&lt;br&gt;Location: 3158124 - 3158345&lt;br&gt;&lt;br&gt;&lt;b&gt;BlastP hit with LLPMBPKK_01411&lt;/b&gt;&lt;br&gt;Percentage identity: 93&lt;br&gt;Percentage coverage: 84&lt;br&gt;BLAST bit score: 133&lt;br&gt;E-value: 1.11e-40" locus_tag="SHJG_RS13480" class="clusterblast-orf" id="dummy-9_h9_3_20"  />
</g>
<g id="a9_0021"  >
<polygon points="380,90 395,90 400,85 395,80 380,80 380,90 " style="fill:#d89015; stroke-width:1; stroke:black; " description="&lt;b&gt;SHJG_RS13485&lt;/b&gt;&lt;br&gt;type III polyketide synthase&lt;br&gt;Location: 3158676 - 3159740&lt;br&gt;&lt;br&gt;&lt;b&gt;BlastP hit with LLPMBPKK_01412&lt;/b&gt;&lt;br&gt;Percentage identity: 94&lt;br&gt;Percentage coverage: 100&lt;br&gt;BLAST bit score: 673&lt;br&gt;E-value: 1.32e-245" locus_tag="SHJG_RS13485" class="clusterblast-orf" id="dummy-9_h9_3_21"  />
</g>
<g id="a9_0022"  >
<polygon points="401,90 419,90 424,85 419,80 401,80 401,90 " style="fill:#15d83e; stroke-width:1; stroke:black; " description="&lt;b&gt;SHJG_RS13490&lt;/b&gt;&lt;br&gt;cytochrome P450&lt;br&gt;Location: 3159773 - 3160960&lt;br&gt;&lt;br&gt;&lt;b&gt;BlastP hit with LLPMBPKK_01413&lt;/b&gt;&lt;br&gt;Percentage identity: 86&lt;br&gt;Percentage coverage: 98&lt;br&gt;BLAST bit score: 690&lt;br&gt;E-value: 9.28e-251" locus_tag="SHJG_RS13490" class="clusterblast-orf" id="dummy-9_h9_3_22"  />
</g>
<g id="a9_0023"  >
<polygon points="424,90 429,90 434,85 429,80 424,80 424,90 " style="fill:#153ed8; stroke-width:1; stroke:black; " description="&lt;b&gt;SHJG_RS13495&lt;/b&gt;&lt;br&gt;cupin domain-containing protein&lt;br&gt;Location: 3160968 - 3161489&lt;br&gt;&lt;br&gt;&lt;b&gt;BlastP hit with LLPMBPKK_01414&lt;/b&gt;&lt;br&gt;Percentage identity: 94&lt;br&gt;Percentage coverage: 100&lt;br&gt;BLAST bit score: 338&lt;br&gt;E-value: 6.99e-119" locus_tag="SHJG_RS13495" class="clusterblast-orf" id="dummy-9_h9_3_23"  />
</g>
<g id="a9_0024"  >
<polygon points="435,85 440,80 458,80 458,90 440,90 435,85 " style="fill:#d815af; stroke-width:1; stroke:black; " description="&lt;b&gt;SHJG_RS13500&lt;/b&gt;&lt;br&gt;acyl-CoA dehydrogenase&lt;br&gt;Location: 3161504 - 3162730&lt;br&gt;&lt;br&gt;&lt;b&gt;BlastP hit with LLPMBPKK_01415&lt;/b&gt;&lt;br&gt;Percentage identity: 99&lt;br&gt;Percentage coverage: 100&lt;br&gt;BLAST bit score: 794&lt;br&gt;E-value: 1.23e-291" locus_tag="SHJG_RS13500" class="clusterblast-orf" id="dummy-9_h9_3_24"  />
</g>
<g id="a9_0025"  >
<polygon points="462,90 469,90 474,85 469,80 462,80 462,90 " style="fill:#d8af15; stroke-width:1; stroke:black; " description="&lt;b&gt;SHJG_RS13505&lt;/b&gt;&lt;br&gt;TetR/AcrR family transcriptional regulator&lt;br&gt;Location: 3162901 - 3163545&lt;br&gt;&lt;br&gt;&lt;b&gt;BlastP hit with LLPMBPKK_01416&lt;/b&gt;&lt;br&gt;Percentage identity: 98&lt;br&gt;Percentage coverage: 100&lt;br&gt;BLAST bit score: 418&lt;br&gt;E-value: 3.07e-149" locus_tag="SHJG_RS13505" class="clusterblast-orf" id="dummy-9_h9_3_25"  />
</g>
<g id="a9_0026"  >
<polygon points="474,85 479,80 486,80 486,90 479,90 474,85 " style="fill:#15d85d; stroke-width:1; stroke:black; " description="&lt;b&gt;SHJG_RS13510&lt;/b&gt;&lt;br&gt;peptide deformylase&lt;br&gt;Location: 3163562 - 3164146&lt;br&gt;&lt;br&gt;&lt;b&gt;BlastP hit with LLPMBPKK_01417&lt;/b&gt;&lt;br&gt;Percentage identity: 92&lt;br&gt;Percentage coverage: 100&lt;br&gt;BLAST bit score: 366&lt;br&gt;E-value: 1.46e-129" locus_tag="SHJG_RS13510" class="clusterblast-orf" id="dummy-9_h9_3_26"  />
</g>
<g id="a9_0027"  >
<polygon points="488,90 507,90 512,85 507,80 488,80 488,90 " style="fill:#151fd8; stroke-width:1; stroke:black; " description="&lt;b&gt;SHJG_RS13515&lt;/b&gt;&lt;br&gt;DUF1727 domain-containing protein&lt;br&gt;Location: 3164269 - 3165507&lt;br&gt;&lt;br&gt;&lt;b&gt;BlastP hit with LLPMBPKK_01418&lt;/b&gt;&lt;br&gt;Percentage identity: 97&lt;br&gt;Percentage coverage: 100&lt;br&gt;BLAST bit score: 803&lt;br&gt;E-value: 7.47e-295" locus_tag="SHJG_RS13515" class="clusterblast-orf" id="dummy-9_h9_3_27"  />
</g>
<g id="a9_0028"  >
<polygon points="513,90 522,90 527,85 522,80 513,80 513,90 " style="fill:#d81590; stroke-width:1; stroke:black; " description="&lt;b&gt;SHJG_RS13520&lt;/b&gt;&lt;br&gt;glutamine amidotransferase&lt;br&gt;Location: 3165537 - 3166265&lt;br&gt;&lt;br&gt;&lt;b&gt;BlastP hit with LLPMBPKK_01419&lt;/b&gt;&lt;br&gt;Percentage identity: 97&lt;br&gt;Percentage coverage: 100&lt;br&gt;BLAST bit score: 479&lt;br&gt;E-value: 2.15e-172" locus_tag="SHJG_RS13520" class="clusterblast-orf" id="dummy-9_h9_3_28"  />
</g>
<g id="a9_0029"  >
<polygon points="531,90 546,90 551,85 546,80 531,80 531,90 " style="fill:#d8ce15; stroke-width:1; stroke:black; " description="&lt;b&gt;SHJG_RS13525&lt;/b&gt;&lt;br&gt;6-phosphofructokinase&lt;br&gt;Location: 3166492 - 3167517&lt;br&gt;&lt;br&gt;&lt;b&gt;BlastP hit with LLPMBPKK_01420&lt;/b&gt;&lt;br&gt;Percentage identity: 97&lt;br&gt;Percentage coverage: 100&lt;br&gt;BLAST bit score: 656&lt;br&gt;E-value: 3.47e-239" locus_tag="SHJG_RS13525" class="clusterblast-orf" id="dummy-9_h9_3_29"  />
</g>
<g id="a9_0030"  >
<polygon points="553,90 566,90 571,85 566,80 553,80 553,90 " style="fill:#15d87c; stroke-width:1; stroke:black; " description="&lt;b&gt;SHJG_RS13530&lt;/b&gt;&lt;br&gt;cytochrome c oxidase assembly protein&lt;br&gt;Location: 3167617 - 3168567&lt;br&gt;&lt;br&gt;&lt;b&gt;BlastP hit with LLPMBPKK_01421&lt;/b&gt;&lt;br&gt;Percentage identity: 95&lt;br&gt;Percentage coverage: 100&lt;br&gt;BLAST bit score: 606&lt;br&gt;E-value: 2.29e-220" locus_tag="SHJG_RS13530" class="clusterblast-orf" id="dummy-9_h9_3_30"  />
</g>
<g id="a9_0031"  >
<polygon points="576,90 579,85 576,80 576,90 " style="fill:#2a15d8; stroke-width:1; stroke:black; " description="&lt;b&gt;SHJG_RS51110&lt;/b&gt;&lt;br&gt;hypothetical protein&lt;br&gt;Location: 3168809 - 3168976&lt;br&gt;&lt;br&gt;&lt;b&gt;BlastP hit with LLPMBPKK_01422&lt;/b&gt;&lt;br&gt;Percentage identity: 96&lt;br&gt;Percentage coverage: 100&lt;br&gt;BLAST bit score: 103&lt;br&gt;E-value: 7.16e-30" locus_tag="SHJG_RS51110" class="clusterblast-orf" id="dummy-9_h9_3_31"  />
</g>
<g id="a9_0032"  >
<polygon points="580,90 585,90 590,85 585,80 580,80 580,90 " style="fill:#d81572; stroke-width:1; stroke:black; " description="&lt;b&gt;SHJG_RS13540&lt;/b&gt;&lt;br&gt;Lrp/AsnC family transcriptional regulator&lt;br&gt;Location: 3169014 - 3169499&lt;br&gt;&lt;br&gt;&lt;b&gt;BlastP hit with LLPMBPKK_01423&lt;/b&gt;&lt;br&gt;Percentage identity: 94&lt;br&gt;Percentage coverage: 100&lt;br&gt;BLAST bit score: 295&lt;br&gt;E-value: 2.38e-102" locus_tag="SHJG_RS13540" class="clusterblast-orf" id="dummy-9_h9_3_32"  />
</g>
<g id="a9_0033"  >
<polygon points="593,90 603,90 608,85 603,80 593,80 593,90 " style="fill:#c4d815; stroke-width:1; stroke:black; " description="&lt;b&gt;SHJG_RS13545&lt;/b&gt;&lt;br&gt;amidinotransferase&lt;br&gt;Location: 3169653 - 3170462&lt;br&gt;&lt;br&gt;&lt;b&gt;BlastP hit with LLPMBPKK_01424&lt;/b&gt;&lt;br&gt;Percentage identity: 95&lt;br&gt;Percentage coverage: 100&lt;br&gt;BLAST bit score: 540&lt;br&gt;E-value: 1.41e-195" locus_tag="SHJG_RS13545" class="clusterblast-orf" id="dummy-9_h9_3_33"  />
</g>
<g id="a9_0034"  >
<polygon points="608,90 627,90 632,85 627,80 608,80 608,90 " style="fill:#15d89b; stroke-width:1; stroke:black; " description="&lt;b&gt;SHJG_RS13550&lt;/b&gt;&lt;br&gt;ornithine--oxo-acid transaminase&lt;br&gt;Location: 3170462 - 3171679&lt;br&gt;&lt;br&gt;&lt;b&gt;BlastP hit with LLPMBPKK_01425&lt;/b&gt;&lt;br&gt;Percentage identity: 95&lt;br&gt;Percentage coverage: 100&lt;br&gt;BLAST bit score: 762&lt;br&gt;E-value: 6.18e-279" locus_tag="SHJG_RS13550" class="clusterblast-orf" id="dummy-9_h9_3_34"  />
</g>
<g id="a9_0035"  >
<polygon points="633,85 638,80 645,80 645,90 638,90 633,85 " style="fill:#4915d8; stroke-width:1; stroke:black; " description="&lt;b&gt;SHJG_RS13555&lt;/b&gt;&lt;br&gt;DUF305 domain-containing protein&lt;br&gt;Location: 3171728 - 3172372&lt;br&gt;&lt;br&gt;&lt;b&gt;BlastP hit with LLPMBPKK_01426&lt;/b&gt;&lt;br&gt;Percentage identity: 74&lt;br&gt;Percentage coverage: 101&lt;br&gt;BLAST bit score: 268&lt;br&gt;E-value: 7.14e-90" locus_tag="SHJG_RS13555" class="clusterblast-orf" id="dummy-9_h9_3_35"  />
</g>
<g id="a9_0036"  >
<polygon points="647,85 652,80 654,80 654,90 652,90 647,85 " style="fill:#d81553; stroke-width:1; stroke:black; " description="&lt;b&gt;SHJG_RS13560&lt;/b&gt;&lt;br&gt;hypothetical protein&lt;br&gt;Location: 3172467 - 3172826&lt;br&gt;&lt;br&gt;&lt;b&gt;BlastP hit with LLPMBPKK_01427&lt;/b&gt;&lt;br&gt;Percentage identity: 60&lt;br&gt;Percentage coverage: 88&lt;br&gt;BLAST bit score: 130&lt;br&gt;E-value: 2.41e-38" locus_tag="SHJG_RS13560" class="clusterblast-orf" id="dummy-9_h9_3_36"  />
</g>
<g id="a9_0037"  >
<polygon points="659,85 664,80 676,80 676,90 664,90 659,85 " style="fill:white; stroke-width:1; stroke:black; " description="&lt;b&gt;SHJG_RS13565&lt;/b&gt;&lt;br&gt;hypothetical protein&lt;br&gt;Location: 3173065 - 3173958" locus_tag="SHJG_RS13565" class="clusterblast-orf" id="dummy-9_h9_3_37"  />
</g>
<g id="a9_0038"  >
<polygon points="683,90 685,85 683,80 683,90 " style="fill:white; stroke-width:1; stroke:black; " description="&lt;b&gt;SHJG_RS50665&lt;/b&gt;&lt;br&gt;hypothetical protein&lt;br&gt;Location: 3174302 - 3174439" locus_tag="SHJG_RS50665" class="clusterblast-orf" id="dummy-9_h9_3_38"  />
</g>
<g id="a9_0039"  >
<polygon points="685,90 689,90 694,85 689,80 685,80 685,90 " style="fill:white; stroke-width:1; stroke:black; " description="&lt;b&gt;SHJG_RS47145&lt;/b&gt;&lt;br&gt;DUF4304 domain-containing protein&lt;br&gt;Location: 3174439 - 3174903" locus_tag="SHJG_RS47145" class="clusterblast-orf" id="dummy-9_h9_3_39"  />
</g>
<g id="a9_0040"  >
<polygon points="713,90 722,90 727,85 722,80 713,80 713,90 " style="fill:#a5d815; stroke-width:1; stroke:black; " description="&lt;b&gt;SHJG_RS13570&lt;/b&gt;&lt;br&gt;1-acyl-sn-glycerol-3-phosphate acyltransferase&lt;br&gt;Location: 3175868 - 3176590&lt;br&gt;&lt;br&gt;&lt;b&gt;BlastP hit with LLPMBPKK_01428&lt;/b&gt;&lt;br&gt;Percentage identity: 93&lt;br&gt;Percentage coverage: 100&lt;br&gt;BLAST bit score: 438&lt;br&gt;E-value: 2.77e-156" locus_tag="SHJG_RS13570" class="clusterblast-orf" id="dummy-9_h9_3_40"  />
</g>
<g id="a9_0041"  >
<polygon points="728,90 743,90 748,85 743,80 728,80 728,90 " style="fill:#15d8b9; stroke-width:1; stroke:black; " description="&lt;b&gt;SHJG_RS13575&lt;/b&gt;&lt;br&gt;NAD-dependent epimerase/dehydratase family protein&lt;br&gt;Location: 3176661 - 3177671&lt;br&gt;&lt;br&gt;&lt;b&gt;BlastP hit with LLPMBPKK_01429&lt;/b&gt;&lt;br&gt;Percentage identity: 89&lt;br&gt;Percentage coverage: 99&lt;br&gt;BLAST bit score: 585&lt;br&gt;E-value: 3.03e-211" locus_tag="SHJG_RS13575" class="clusterblast-orf" id="dummy-9_h9_3_41"  />
</g>
<g id="a9_0042"  >
<polygon points="749,85 754,80 780,80 780,90 754,90 749,85 " style="fill:#6715d8; stroke-width:1; stroke:black; " description="&lt;b&gt;SHJG_RS13580&lt;/b&gt;&lt;br&gt;alpha/beta hydrolase&lt;br&gt;Location: 3177735 - 3179300&lt;br&gt;&lt;br&gt;&lt;b&gt;BlastP hit with LLPMBPKK_01430&lt;/b&gt;&lt;br&gt;Percentage identity: 93&lt;br&gt;Percentage coverage: 98&lt;br&gt;BLAST bit score: 1006&lt;br&gt;E-value: 0.0" locus_tag="SHJG_RS13580" class="clusterblast-orf" id="dummy-9_h9_3_42"  />
</g>
</svg>
