<svg xmlns="http://www.w3.org/2000/svg" xmlns:xlink="http://www.w3.org/1999/xlink" version="1.1" x="0" y="0" height="230" width="800" viewBox="0 0 800 230" preserveAspectRatio="none"  >
<g label="Query sequence" class="clusterblast-cluster"  >
<text x="5" y="20" class="clusterblast-acc"  >
Query sequence</text>
<line x1="10" y1="35" x2="778.0" y2="35" style="stroke-width:1; stroke:grey; "  />
<polygon points="0,40 86,40 91,35 86,30 0,30 0,40 " style="fill:white; stroke-width:1; stroke:black; " description="&lt;b&gt;LLPMBPKK_07646&lt;/b&gt;&lt;br&gt;CHAT domain protein&lt;br&gt;Location: 8902584 - 8907312" locus_tag="LLPMBPKK_07646" class="clusterblast-orf" id="dummy-35_q0_0_all"  />
<polygon points="96,40 106,40 111,35 106,30 96,30 96,40 " style="fill:white; stroke-width:1; stroke:black; " description="&lt;b&gt;LLPMBPKK_07647&lt;/b&gt;&lt;br&gt;trypsin-like serine protease&lt;br&gt;Location: 8907570 - 8908341" locus_tag="LLPMBPKK_07647" class="clusterblast-orf" id="dummy-35_q1_0_all"  />
<polygon points="113,35 118,30 119,30 119,40 118,40 113,35 " style="fill:white; stroke-width:1; stroke:black; " description="&lt;b&gt;LLPMBPKK_07648&lt;/b&gt;&lt;br&gt;hypothetical protein&lt;br&gt;Location: 8908431 - 8908731" locus_tag="LLPMBPKK_07648" class="clusterblast-orf" id="dummy-35_q2_0_all"  />
<polygon points="119,35 124,30 136,30 136,40 124,40 119,35 " style="fill:#d81515; stroke-width:1; stroke:black; " description="&lt;b&gt;LLPMBPKK_07649&lt;/b&gt;&lt;br&gt;nucleoside-diphosphate sugar epimerase&lt;br&gt;Location: 8908760 - 8909630" locus_tag="LLPMBPKK_07649" class="clusterblast-orf" id="dummy-35_q3_0_all"  />
<polygon points="141,35 146,30 154,30 154,40 146,40 141,35 " style="fill:white; stroke-width:1; stroke:black; " description="&lt;b&gt;LLPMBPKK_07650&lt;/b&gt;&lt;br&gt;NAD-dependent epimerase/dehydratase&lt;br&gt;Location: 8909896 - 8910538" locus_tag="LLPMBPKK_07650" class="clusterblast-orf" id="dummy-35_q4_0_all"  />
<polygon points="157,40 170,40 175,35 170,30 157,30 157,40 " style="fill:white; stroke-width:1; stroke:black; " description="&lt;b&gt;LLPMBPKK_07651&lt;/b&gt;&lt;br&gt;AraC family transcriptional regulator&lt;br&gt;Location: 8910722 - 8911637" locus_tag="LLPMBPKK_07651" class="clusterblast-orf" id="dummy-35_q5_0_all"  />
<polygon points="175,40 178,35 175,30 175,40 " style="fill:white; stroke-width:1; stroke:black; " description="&lt;b&gt;LLPMBPKK_07652&lt;/b&gt;&lt;br&gt;hypothetical protein&lt;br&gt;Location: 8911633 - 8911795" locus_tag="LLPMBPKK_07652" class="clusterblast-orf" id="dummy-35_q6_0_all"  />
<polygon points="180,40 184,40 189,35 184,30 180,30 180,40 " style="fill:white; stroke-width:1; stroke:black; " description="&lt;b&gt;LLPMBPKK_07653&lt;/b&gt;&lt;br&gt;acetyltransferase&lt;br&gt;Location: 8911878 - 8912385" locus_tag="LLPMBPKK_07653" class="clusterblast-orf" id="dummy-35_q7_0_all"  />
<polygon points="191,35 196,30 197,30 197,40 196,40 191,35 " style="fill:white; stroke-width:1; stroke:black; " description="&lt;b&gt;LLPMBPKK_07654&lt;/b&gt;&lt;br&gt;hypothetical protein&lt;br&gt;Location: 8912474 - 8912750" locus_tag="LLPMBPKK_07654" class="clusterblast-orf" id="dummy-35_q8_0_all"  />
<polygon points="197,40 201,35 197,30 197,40 " style="fill:white; stroke-width:1; stroke:black; " description="&lt;b&gt;LLPMBPKK_07655&lt;/b&gt;&lt;br&gt;hypothetical protein&lt;br&gt;Location: 8912769 - 8912967" locus_tag="LLPMBPKK_07655" class="clusterblast-orf" id="dummy-35_q9_0_all"  />
<polygon points="202,35 207,30 214,30 214,40 207,40 202,35 " style="fill:white; stroke-width:1; stroke:black; " description="&lt;b&gt;LLPMBPKK_07656&lt;/b&gt;&lt;br&gt;SUKH-4 immunity protein&lt;br&gt;Location: 8913045 - 8913663" locus_tag="LLPMBPKK_07656" class="clusterblast-orf" id="dummy-35_q10_0_all"  />
<polygon points="219,35 224,30 238,30 238,40 224,40 219,35 " style="fill:#15d815; stroke-width:1; stroke:black; " description="&lt;b&gt;LLPMBPKK_07657&lt;/b&gt;&lt;br&gt;type I glyceraldehyde-3-phosphate dehydrogenase&lt;br&gt;Location: 8913910 - 8914909" locus_tag="LLPMBPKK_07657" class="clusterblast-orf" id="dummy-35_q11_0_all"  />
<polygon points="241,35 246,30 260,30 260,40 246,40 241,35 " style="fill:#1597d8; stroke-width:1; stroke:black; " description="&lt;b&gt;LLPMBPKK_07658&lt;/b&gt;&lt;br&gt;helix-turn-helix domain-containing protein&lt;br&gt;Location: 8915051 - 8916008" locus_tag="LLPMBPKK_07658" class="clusterblast-orf" id="dummy-35_q12_0_all"  />
<polygon points="262,40 268,40 273,35 268,30 262,30 262,40 " style="fill:white; stroke-width:1; stroke:black; " description="&lt;b&gt;LLPMBPKK_07659&lt;/b&gt;&lt;br&gt;hypothetical protein&lt;br&gt;Location: 8916122 - 8916722" locus_tag="LLPMBPKK_07659" class="clusterblast-orf" id="dummy-35_q13_0_all"  />
<polygon points="276,35 281,30 281,30 281,40 281,40 276,35 " style="fill:white; stroke-width:1; stroke:black; " description="&lt;b&gt;LLPMBPKK_07660&lt;/b&gt;&lt;br&gt;hypothetical protein&lt;br&gt;Location: 8916870 - 8917101" locus_tag="LLPMBPKK_07660" class="clusterblast-orf" id="dummy-35_q14_0_all"  />
<polygon points="288,35 292,30 292,40 288,35 " style="fill:white; stroke-width:1; stroke:black; " description="&lt;b&gt;LLPMBPKK_07661&lt;/b&gt;&lt;br&gt;hypothetical protein&lt;br&gt;Location: 8917453 - 8917699" locus_tag="LLPMBPKK_07661" class="clusterblast-orf" id="dummy-35_q15_0_all"  />
<polygon points="299,40 318,40 323,35 318,30 299,30 299,40 " style="fill:#9715d8; stroke-width:1; stroke:black; " description="&lt;b&gt;LLPMBPKK_07662&lt;/b&gt;&lt;br&gt;PAS domain-containing protein&lt;br&gt;Location: 8918036 - 8919302" locus_tag="LLPMBPKK_07662" class="clusterblast-orf" id="dummy-35_q16_0_all"  />
<polygon points="329,40 366,40 371,35 366,30 329,30 329,40 " style="fill:#9715d8; stroke-width:1; stroke:black; " description="&lt;b&gt;LLPMBPKK_07663&lt;/b&gt;&lt;br&gt;GAF domain-containing protein&lt;br&gt;Location: 8919599 - 8921762" locus_tag="LLPMBPKK_07663" class="clusterblast-orf" id="dummy-35_q17_0_all"  />
<polygon points="374,35 379,30 397,30 397,40 379,40 374,35 " style="fill:#d89715; stroke-width:1; stroke:black; " description="&lt;b&gt;LLPMBPKK_07664&lt;/b&gt;&lt;br&gt;polyketide synthase&lt;br&gt;Location: 8921899 - 8923087" locus_tag="LLPMBPKK_07664" class="clusterblast-orf" id="dummy-35_q18_0_all"  />
<polygon points="404,35 409,30 411,30 411,40 409,40 404,35 " style="fill:white; stroke-width:1; stroke:black; " description="&lt;b&gt;LLPMBPKK_07665&lt;/b&gt;&lt;br&gt;antibiotic biosynthesis monooxygenase&lt;br&gt;Location: 8923483 - 8923816" locus_tag="LLPMBPKK_07665" class="clusterblast-orf" id="dummy-35_q19_0_all"  />
<polygon points="414,35 419,30 467,30 467,40 419,40 414,35 " style="fill:#9715d8; stroke-width:1; stroke:black; " description="&lt;b&gt;LLPMBPKK_07666&lt;/b&gt;&lt;br&gt;GAF domain-containing protein&lt;br&gt;Location: 8924003 - 8926706" locus_tag="LLPMBPKK_07666" class="clusterblast-orf" id="dummy-35_q20_0_all"  />
<polygon points="474,40 490,40 495,35 490,30 474,30 474,40 " style="fill:#15d897; stroke-width:1; stroke:black; " description="&lt;b&gt;LLPMBPKK_07667&lt;/b&gt;&lt;br&gt;serine/threonine-protein phosphatase&lt;br&gt;Location: 8927096 - 8928152" locus_tag="LLPMBPKK_07667" class="clusterblast-orf" id="dummy-35_q21_0_all"  />
<polygon points="496,35 501,30 519,30 519,40 501,40 496,35 " style="fill:#9715d8; stroke-width:1; stroke:black; " description="&lt;b&gt;LLPMBPKK_07668&lt;/b&gt;&lt;br&gt;PAS domain-containing protein&lt;br&gt;Location: 8928234 - 8929401" locus_tag="LLPMBPKK_07668" class="clusterblast-orf" id="dummy-35_q22_0_all"  />
<polygon points="547,40 554,40 559,35 554,30 547,30 547,40 " style="fill:#1515d8; stroke-width:1; stroke:black; " description="&lt;b&gt;LLPMBPKK_07669&lt;/b&gt;&lt;br&gt;PadR family transcriptional regulator&lt;br&gt;Location: 8930863 - 8931451" locus_tag="LLPMBPKK_07669" class="clusterblast-orf" id="dummy-35_q23_0_all"  />
<polygon points="562,40 590,40 595,35 590,30 562,30 562,40 " style="fill:#d81597; stroke-width:1; stroke:black; " description="&lt;b&gt;LLPMBPKK_07670&lt;/b&gt;&lt;br&gt;acyl-CoA dehydrogenase&lt;br&gt;Location: 8931616 - 8933341" locus_tag="LLPMBPKK_07670" class="clusterblast-orf" id="dummy-35_q24_0_all"  />
<polygon points="602,40 613,40 618,35 613,30 602,30 602,40 " style="fill:white; stroke-width:1; stroke:black; " description="&lt;b&gt;LLPMBPKK_07671&lt;/b&gt;&lt;br&gt;hypothetical protein&lt;br&gt;Location: 8933684 - 8934527" locus_tag="LLPMBPKK_07671" class="clusterblast-orf" id="dummy-35_q25_0_all"  />
<polygon points="619,40 623,35 619,30 619,40 " style="fill:white; stroke-width:1; stroke:black; " description="&lt;b&gt;LLPMBPKK_07672&lt;/b&gt;&lt;br&gt;hypothetical protein&lt;br&gt;Location: 8934573 - 8934774" locus_tag="LLPMBPKK_07672" class="clusterblast-orf" id="dummy-35_q26_0_all"  />
<polygon points="626,40 646,40 651,35 646,30 626,30 626,40 " style="fill:white; stroke-width:1; stroke:black; " description="&lt;b&gt;LLPMBPKK_07673&lt;/b&gt;&lt;br&gt;oxidoreductase&lt;br&gt;Location: 8934937 - 8936233" locus_tag="LLPMBPKK_07673" class="clusterblast-orf" id="dummy-35_q27_0_all"  />
<polygon points="651,40 665,40 670,35 665,30 651,30 651,40 " style="fill:#97d815; stroke-width:1; stroke:black; " description="&lt;b&gt;LLPMBPKK_07674&lt;/b&gt;&lt;br&gt;sigma-70 family RNA polymerase sigma factor&lt;br&gt;Location: 8936251 - 8937205" locus_tag="LLPMBPKK_07674" class="clusterblast-orf" id="dummy-35_q28_0_all"  />
<polygon points="673,35 678,30 697,30 697,40 678,40 673,35 " style="fill:white; stroke-width:1; stroke:black; " description="&lt;b&gt;LLPMBPKK_07675&lt;/b&gt;&lt;br&gt;glycosyl transferase family protein&lt;br&gt;Location: 8937383 - 8938619" locus_tag="LLPMBPKK_07675" class="clusterblast-orf" id="dummy-35_q29_0_all"  />
<polygon points="710,40 727,40 732,35 727,30 710,30 710,40 " style="fill:white; stroke-width:1; stroke:black; " description="&lt;b&gt;LLPMBPKK_07676&lt;/b&gt;&lt;br&gt;hypothetical protein&lt;br&gt;Location: 8939287 - 8940421" locus_tag="LLPMBPKK_07676" class="clusterblast-orf" id="dummy-35_q30_0_all"  />
<polygon points="739,40 745,40 750,35 745,30 739,30 739,40 " style="fill:white; stroke-width:1; stroke:black; " description="&lt;b&gt;LLPMBPKK_07677&lt;/b&gt;&lt;br&gt;hypothetical protein&lt;br&gt;Location: 8940785 - 8941319" locus_tag="LLPMBPKK_07677" class="clusterblast-orf" id="dummy-35_q31_0_all"  />
<polygon points="753,40 775,40 780,35 775,30 753,30 753,40 " style="fill:white; stroke-width:1; stroke:black; " description="&lt;b&gt;LLPMBPKK_07678&lt;/b&gt;&lt;br&gt;hypothetical protein&lt;br&gt;Location: 8941473 - 8942874" locus_tag="LLPMBPKK_07678" class="clusterblast-orf" id="dummy-35_q32_0_all"  />
</g>
<g label="NZ_CP017248" description="NZ_CP017248 (348799-388053): Streptomyces fodineus strain TW1S1 chromosome, c... (7% of genes show similarity), T3PKS" class="clusterblast-cluster"  >
<text x="5" y="70" class="clusterblast-acc"  >
<a xlink:href="https://antismash-db.secondarymetabolites.org/area.html?record=NZ_CP017248&amp;start=348799&amp;end=388053" target="_blank">NZ_CP017248 (348799-388053)</a>: Streptomyces fodineus strain TW1S1 chromosome, c... (7% of genes show similarity), T3PKS</text>
<line x1="10" y1="85" x2="778.0" y2="85" style="stroke-width:1; stroke:grey; "  />
</g>
<g id="a35_000"  >
<polygon points="10,85 15,80 29,80 29,90 15,90 10,85 " style="fill:white; stroke-width:1; stroke:black; " description="&lt;b&gt;BFF78_RS01520&lt;/b&gt;&lt;br&gt;helix-turn-helix domain-containing protein&lt;br&gt;Location: 348800 - 349780" locus_tag="BFF78_RS01520" class="clusterblast-orf" id="dummy-35_h35_5_0"  />
</g>
<g id="a35_001"  >
<polygon points="34,90 37,90 42,85 37,80 34,80 34,90 " style="fill:white; stroke-width:1; stroke:black; " description="&lt;b&gt;BFF78_RS01525&lt;/b&gt;&lt;br&gt;hypothetical protein&lt;br&gt;Location: 350041 - 350493" locus_tag="BFF78_RS01525" class="clusterblast-orf" id="dummy-35_h35_5_1"  />
</g>
<g id="a35_002"  >
<polygon points="46,90 60,90 65,85 60,80 46,80 46,90 " style="fill:white; stroke-width:1; stroke:black; " description="&lt;b&gt;BFF78_RS01530&lt;/b&gt;&lt;br&gt;hypothetical protein&lt;br&gt;Location: 350707 - 351645" locus_tag="BFF78_RS01530" class="clusterblast-orf" id="dummy-35_h35_5_2"  />
</g>
<g id="a35_003"  >
<polygon points="70,90 76,90 81,85 76,80 70,80 70,90 " style="fill:white; stroke-width:1; stroke:black; " description="&lt;b&gt;BFF78_RS01535&lt;/b&gt;&lt;br&gt;hypothetical protein&lt;br&gt;Location: 351941 - 352495" locus_tag="BFF78_RS01535" class="clusterblast-orf" id="dummy-35_h35_5_3"  />
</g>
<g id="a35_004"  >
<polygon points="117,90 127,90 132,85 127,80 117,80 117,90 " style="fill:white; stroke-width:1; stroke:black; " description="&lt;b&gt;BFF78_RS01540&lt;/b&gt;&lt;br&gt;SDR family oxidoreductase&lt;br&gt;Location: 354360 - 355136" locus_tag="BFF78_RS01540" class="clusterblast-orf" id="dummy-35_h35_5_4"  />
</g>
<g id="a35_005"  >
<polygon points="134,85 138,80 138,90 134,85 " style="fill:white; stroke-width:1; stroke:black; " description="&lt;b&gt;BFF78_RS42445&lt;/b&gt;&lt;br&gt;transposase family protein&lt;br&gt;Location: 355250 - 355458" locus_tag="BFF78_RS42445" class="clusterblast-orf" id="dummy-35_h35_5_5"  />
</g>
<g id="a35_006"  >
<polygon points="139,90 144,90 149,85 144,80 139,80 139,90 " style="fill:white; stroke-width:1; stroke:black; " description="&lt;b&gt;BFF78_RS01545&lt;/b&gt;&lt;br&gt;hypothetical protein&lt;br&gt;Location: 355485 - 356009" locus_tag="BFF78_RS01545" class="clusterblast-orf" id="dummy-35_h35_5_6"  />
</g>
<g id="a35_007"  >
<polygon points="151,85 156,80 166,80 166,90 156,90 151,85 " style="fill:white; stroke-width:1; stroke:black; " description="&lt;b&gt;BFF78_RS01550&lt;/b&gt;&lt;br&gt;class I SAM-dependent methyltransferase&lt;br&gt;Location: 356090 - 356905" locus_tag="BFF78_RS01550" class="clusterblast-orf" id="dummy-35_h35_5_7"  />
</g>
<g id="a35_008"  >
<polygon points="168,85 172,80 172,90 168,85 " style="fill:white; stroke-width:1; stroke:black; " description="&lt;b&gt;BFF78_RS42450&lt;/b&gt;&lt;br&gt;transposase family protein&lt;br&gt;Location: 356971 - 357180" locus_tag="BFF78_RS42450" class="clusterblast-orf" id="dummy-35_h35_5_8"  />
</g>
<g id="a35_009"  >
<polygon points="172,85 177,80 191,80 191,90 177,90 172,85 " style="fill:white; stroke-width:1; stroke:black; " description="&lt;b&gt;BFF78_RS01555&lt;/b&gt;&lt;br&gt;ornithine carbamoyltransferase&lt;br&gt;Location: 357192 - 358157" locus_tag="BFF78_RS01555" class="clusterblast-orf" id="dummy-35_h35_5_9"  />
</g>
<g id="a35_0010"  >
<polygon points="194,85 199,80 199,80 199,90 199,90 194,85 " style="fill:white; stroke-width:1; stroke:black; " description="&lt;b&gt;BFF78_RS01560&lt;/b&gt;&lt;br&gt;hypothetical protein&lt;br&gt;Location: 358306 - 358599" locus_tag="BFF78_RS01560" class="clusterblast-orf" id="dummy-35_h35_5_10"  />
</g>
<g id="a35_0011"  >
<polygon points="201,90 201,90 206,85 201,80 201,80 201,90 " style="fill:white; stroke-width:1; stroke:black; " description="&lt;b&gt;BFF78_RS01565&lt;/b&gt;&lt;br&gt;hypothetical protein&lt;br&gt;Location: 358670 - 358927" locus_tag="BFF78_RS01565" class="clusterblast-orf" id="dummy-35_h35_5_11"  />
</g>
<g id="a35_0012"  >
<polygon points="210,90 224,90 229,85 224,80 210,80 210,90 " style="fill:#1597d8; stroke-width:1; stroke:black; " description="&lt;b&gt;BFF78_RS01570&lt;/b&gt;&lt;br&gt;GlxA family transcriptional regulator&lt;br&gt;Location: 359142 - 360137&lt;br&gt;&lt;br&gt;&lt;b&gt;BlastP hit with LLPMBPKK_07658&lt;/b&gt;&lt;br&gt;Percentage identity: 38&lt;br&gt;Percentage coverage: 98&lt;br&gt;BLAST bit score: 167&lt;br&gt;E-value: 1.96e-47" locus_tag="BFF78_RS01570" class="clusterblast-orf" id="dummy-35_h35_5_12"  />
</g>
<g id="a35_0013"  >
<polygon points="229,90 258,90 263,85 258,80 229,80 229,90 " style="fill:white; stroke-width:1; stroke:black; " description="&lt;b&gt;BFF78_RS01575&lt;/b&gt;&lt;br&gt;thiamine pyrophosphate-binding protein&lt;br&gt;Location: 360134 - 361885" locus_tag="BFF78_RS01575" class="clusterblast-orf" id="dummy-35_h35_5_13"  />
</g>
<g id="a35_0014"  >
<polygon points="262,90 270,90 275,85 270,80 262,80 262,90 " style="fill:white; stroke-width:1; stroke:black; " description="&lt;b&gt;BFF78_RS01580&lt;/b&gt;&lt;br&gt;SRPBCC family protein&lt;br&gt;Location: 361857 - 362510" locus_tag="BFF78_RS01580" class="clusterblast-orf" id="dummy-35_h35_5_14"  />
</g>
<g id="a35_0015"  >
<polygon points="275,90 290,90 295,85 290,80 275,80 275,90 " style="fill:white; stroke-width:1; stroke:black; " description="&lt;b&gt;BFF78_RS01585&lt;/b&gt;&lt;br&gt;3-oxoacyl-ACP synthase&lt;br&gt;Location: 362507 - 363526" locus_tag="BFF78_RS01585" class="clusterblast-orf" id="dummy-35_h35_5_15"  />
</g>
<g id="a35_0016"  >
<polygon points="295,90 309,90 314,85 309,80 295,80 295,90 " style="fill:white; stroke-width:1; stroke:black; " description="&lt;b&gt;BFF78_RS01590&lt;/b&gt;&lt;br&gt;histidinol-phosphate transaminase&lt;br&gt;Location: 363530 - 364549" locus_tag="BFF78_RS01590" class="clusterblast-orf" id="dummy-35_h35_5_16"  />
</g>
<g id="a35_0017"  >
<polygon points="323,90 360,90 365,85 360,80 323,80 323,90 " style="fill:#9715d8; stroke-width:1; stroke:black; " description="&lt;b&gt;BFF78_RS01600&lt;/b&gt;&lt;br&gt;SpoIIE family protein phosphatase&lt;br&gt;Location: 364996 - 367158&lt;br&gt;&lt;br&gt;&lt;b&gt;BlastP hit with LLPMBPKK_07662&lt;/b&gt;&lt;br&gt;Percentage identity: 36&lt;br&gt;Percentage coverage: 62&lt;br&gt;BLAST bit score: 100&lt;br&gt;E-value: 2.06e-20&lt;br&gt;&lt;br&gt;&lt;b&gt;BlastP hit with LLPMBPKK_07663&lt;/b&gt;&lt;br&gt;Percentage identity: 90&lt;br&gt;Percentage coverage: 100&lt;br&gt;BLAST bit score: 1271&lt;br&gt;E-value: 0.0&lt;br&gt;&lt;br&gt;&lt;b&gt;BlastP hit with LLPMBPKK_07666&lt;/b&gt;&lt;br&gt;Percentage identity: 39&lt;br&gt;Percentage coverage: 64&lt;br&gt;BLAST bit score: 299&lt;br&gt;E-value: 2.77e-87&lt;br&gt;&lt;br&gt;&lt;b&gt;BlastP hit with LLPMBPKK_07668&lt;/b&gt;&lt;br&gt;Percentage identity: 40&lt;br&gt;Percentage coverage: 102&lt;br&gt;BLAST bit score: 242&lt;br&gt;E-value: 1.55e-71" locus_tag="BFF78_RS01600" class="clusterblast-orf" id="dummy-35_h35_5_17"  />
</g>
<g id="a35_0018"  >
<polygon points="368,85 373,80 391,80 391,90 373,90 368,85 " style="fill:#d89715; stroke-width:1; stroke:black; " description="&lt;b&gt;BFF78_RS01605&lt;/b&gt;&lt;br&gt;polyketide synthase&lt;br&gt;Location: 367330 - 368514&lt;br&gt;&lt;br&gt;&lt;b&gt;BlastP hit with LLPMBPKK_07664&lt;/b&gt;&lt;br&gt;Percentage identity: 91&lt;br&gt;Percentage coverage: 100&lt;br&gt;BLAST bit score: 711&lt;br&gt;E-value: 5.06e-259" locus_tag="BFF78_RS01605" class="clusterblast-orf" id="dummy-35_h35_5_18"  />
</g>
<g id="a35_0019"  >
<polygon points="398,90 398,90 403,85 398,80 398,80 398,90 " style="fill:white; stroke-width:1; stroke:black; " description="&lt;b&gt;BFF78_RS01610&lt;/b&gt;&lt;br&gt;hypothetical protein&lt;br&gt;Location: 368862 - 369119" locus_tag="BFF78_RS01610" class="clusterblast-orf" id="dummy-35_h35_5_19"  />
</g>
<g id="a35_0020"  >
<polygon points="408,85 413,80 434,80 434,90 413,90 408,85 " style="fill:white; stroke-width:1; stroke:black; " description="&lt;b&gt;BFF78_RS01615&lt;/b&gt;&lt;br&gt;IS630 family transposase&lt;br&gt;Location: 369389 - 370735" locus_tag="BFF78_RS01615" class="clusterblast-orf" id="dummy-35_h35_5_20"  />
</g>
<g id="a35_0021"  >
<polygon points="437,85 440,80 440,90 437,85 " style="fill:white; stroke-width:1; stroke:black; " description="&lt;b&gt;BFF78_RS45945&lt;/b&gt;&lt;br&gt;hypothetical protein&lt;br&gt;Location: 370863 - 371039" locus_tag="BFF78_RS45945" class="clusterblast-orf" id="dummy-35_h35_5_21"  />
</g>
<g id="a35_0022"  >
<polygon points="445,85 450,80 463,80 463,90 450,90 445,85 " style="fill:white; stroke-width:1; stroke:black; " description="&lt;b&gt;BFF78_RS01620&lt;/b&gt;&lt;br&gt;universal stress protein&lt;br&gt;Location: 371307 - 372212" locus_tag="BFF78_RS01620" class="clusterblast-orf" id="dummy-35_h35_5_22"  />
</g>
<g id="a35_0023"  >
<polygon points="467,90 475,90 480,85 475,80 467,80 467,90 " style="fill:white; stroke-width:1; stroke:black; " description="&lt;b&gt;BFF78_RS01625&lt;/b&gt;&lt;br&gt;CBS domain-containing protein&lt;br&gt;Location: 372454 - 373110" locus_tag="BFF78_RS01625" class="clusterblast-orf" id="dummy-35_h35_5_23"  />
</g>
<g id="a35_0024"  >
<polygon points="485,85 490,80 493,80 493,90 490,90 485,85 " style="fill:white; stroke-width:1; stroke:black; " description="&lt;b&gt;BFF78_RS01630&lt;/b&gt;&lt;br&gt;Hsp20/alpha crystallin family protein&lt;br&gt;Location: 373384 - 373788" locus_tag="BFF78_RS01630" class="clusterblast-orf" id="dummy-35_h35_5_24"  />
</g>
<g id="a35_0025"  >
<polygon points="497,90 497,90 502,85 497,80 497,80 497,90 " style="fill:white; stroke-width:1; stroke:black; " description="&lt;b&gt;BFF78_RS42455&lt;/b&gt;&lt;br&gt;nicotinate phosphoribosyltransferase&lt;br&gt;Location: 373964 - 374245" locus_tag="BFF78_RS42455" class="clusterblast-orf" id="dummy-35_h35_5_25"  />
</g>
<g id="a35_0026"  >
<polygon points="506,90 506,90 511,85 506,80 506,80 506,90 " style="fill:white; stroke-width:1; stroke:black; " description="&lt;b&gt;BFF78_RS01635&lt;/b&gt;&lt;br&gt;DUF1918 domain-containing protein&lt;br&gt;Location: 374430 - 374726" locus_tag="BFF78_RS01635" class="clusterblast-orf" id="dummy-35_h35_5_26"  />
</g>
<g id="a35_0027"  >
<polygon points="510,90 523,90 528,85 523,80 510,80 510,90 " style="fill:white; stroke-width:1; stroke:black; " description="&lt;b&gt;BFF78_RS42460&lt;/b&gt;&lt;br&gt;universal stress protein&lt;br&gt;Location: 374674 - 375588" locus_tag="BFF78_RS42460" class="clusterblast-orf" id="dummy-35_h35_5_27"  />
</g>
<g id="a35_0028"  >
<polygon points="529,90 543,90 548,85 543,80 529,80 529,90 " style="fill:white; stroke-width:1; stroke:black; " description="&lt;b&gt;BFF78_RS01645&lt;/b&gt;&lt;br&gt;nitroreductase&lt;br&gt;Location: 375619 - 376608" locus_tag="BFF78_RS01645" class="clusterblast-orf" id="dummy-35_h35_5_28"  />
</g>
<g id="a35_0029"  >
<polygon points="549,90 550,90 555,85 550,80 549,80 549,90 " style="fill:white; stroke-width:1; stroke:black; " description="&lt;b&gt;BFF78_RS01650&lt;/b&gt;&lt;br&gt;CBS domain-containing protein&lt;br&gt;Location: 376657 - 376981" locus_tag="BFF78_RS01650" class="clusterblast-orf" id="dummy-35_h35_5_29"  />
</g>
<g id="a35_0030"  >
<polygon points="556,90 559,85 556,80 556,90 " style="fill:white; stroke-width:1; stroke:black; " description="&lt;b&gt;BFF78_RS42465&lt;/b&gt;&lt;br&gt;hypothetical protein&lt;br&gt;Location: 377014 - 377199" locus_tag="BFF78_RS42465" class="clusterblast-orf" id="dummy-35_h35_5_30"  />
</g>
<g id="a35_0031"  >
<polygon points="567,90 586,90 591,85 586,80 567,80 567,90 " style="fill:white; stroke-width:1; stroke:black; " description="&lt;b&gt;BFF78_RS01655&lt;/b&gt;&lt;br&gt;vanadium-dependent haloperoxidase&lt;br&gt;Location: 377581 - 378858" locus_tag="BFF78_RS01655" class="clusterblast-orf" id="dummy-35_h35_5_31"  />
</g>
<g id="a35_0032"  >
<polygon points="595,90 660,90 665,85 660,80 595,80 595,90 " style="fill:white; stroke-width:1; stroke:black; " description="&lt;b&gt;BFF78_RS01660&lt;/b&gt;&lt;br&gt;5-oxoprolinase&lt;br&gt;Location: 379042 - 382677" locus_tag="BFF78_RS01660" class="clusterblast-orf" id="dummy-35_h35_5_32"  />
</g>
<g id="a35_0033"  >
<polygon points="670,85 675,80 680,80 680,90 675,90 670,85 " style="fill:white; stroke-width:1; stroke:black; " description="&lt;b&gt;BFF78_RS01665&lt;/b&gt;&lt;br&gt;winged helix-turn-helix transcriptional regulator&lt;br&gt;Location: 382913 - 383422" locus_tag="BFF78_RS01665" class="clusterblast-orf" id="dummy-35_h35_5_33"  />
</g>
<g id="a35_0034"  >
<polygon points="682,85 687,80 705,80 705,90 687,90 682,85 " style="fill:white; stroke-width:1; stroke:black; " description="&lt;b&gt;BFF78_RS01670&lt;/b&gt;&lt;br&gt;hypothetical protein&lt;br&gt;Location: 383552 - 384733" locus_tag="BFF78_RS01670" class="clusterblast-orf" id="dummy-35_h35_5_34"  />
</g>
<g id="a35_0035"  >
<polygon points="717,85 722,80 728,80 728,90 722,90 717,85 " style="fill:white; stroke-width:1; stroke:black; " description="&lt;b&gt;BFF78_RS01675&lt;/b&gt;&lt;br&gt;DUF4232 domain-containing protein&lt;br&gt;Location: 385349 - 385909" locus_tag="BFF78_RS01675" class="clusterblast-orf" id="dummy-35_h35_5_35"  />
</g>
<g id="a35_0036"  >
<polygon points="743,85 748,80 760,80 760,90 748,90 743,85 " style="fill:white; stroke-width:1; stroke:black; " description="&lt;b&gt;BFF78_RS01680&lt;/b&gt;&lt;br&gt;LysR family transcriptional regulator&lt;br&gt;Location: 386669 - 387571" locus_tag="BFF78_RS01680" class="clusterblast-orf" id="dummy-35_h35_5_36"  />
</g>
<g id="a35_0037"  >
<polygon points="764,90 764,90 769,85 764,80 764,80 764,90 " style="fill:white; stroke-width:1; stroke:black; " description="&lt;b&gt;BFF78_RS01685&lt;/b&gt;&lt;br&gt;DUF1330 domain-containing protein&lt;br&gt;Location: 387760 - 388053" locus_tag="BFF78_RS01685" class="clusterblast-orf" id="dummy-35_h35_5_37"  />
</g>
</svg>
