<svg xmlns="http://www.w3.org/2000/svg" xmlns:xlink="http://www.w3.org/1999/xlink" version="1.1" x="0" y="0" height="230" width="800" viewBox="0 0 800 230" preserveAspectRatio="none"  >
<g label="Query sequence" class="clusterblast-cluster"  >
<text x="5" y="20" class="clusterblast-acc"  >
Query sequence</text>
<line x1="10" y1="35" x2="778.0" y2="35" style="stroke-width:1; stroke:grey; "  />
<polygon points="14,35 19,30 32,30 32,40 19,40 14,35 " style="fill:#d81515; stroke-width:1; stroke:black; " description="&lt;b&gt;LLPMBPKK_00577&lt;/b&gt;&lt;br&gt;LysR family transcriptional regulator&lt;br&gt;Location: 754811 - 755753" locus_tag="LLPMBPKK_00577" class="clusterblast-orf" id="dummy-4_q0_0_all"  />
<polygon points="35,40 54,40 59,35 54,30 35,30 35,40 " style="fill:#4dd815; stroke-width:1; stroke:black; " description="&lt;b&gt;LLPMBPKK_00578&lt;/b&gt;&lt;br&gt;MFS transporter multidrug efflux transporter&lt;br&gt;Location: 755886 - 757161" locus_tag="LLPMBPKK_00578" class="clusterblast-orf" id="dummy-4_q1_0_all"  />
<polygon points="63,40 78,40 83,35 78,30 63,30 63,40 " style="fill:white; stroke-width:1; stroke:black; " description="&lt;b&gt;LLPMBPKK_00579&lt;/b&gt;&lt;br&gt;VWA domain-containing protein&lt;br&gt;Location: 757388 - 758429" locus_tag="LLPMBPKK_00579" class="clusterblast-orf" id="dummy-4_q2_0_all"  />
<polygon points="86,35 91,30 94,30 94,40 91,40 86,35 " style="fill:white; stroke-width:1; stroke:black; " description="&lt;b&gt;LLPMBPKK_00580&lt;/b&gt;&lt;br&gt;hypothetical protein&lt;br&gt;Location: 758543 - 758969" locus_tag="LLPMBPKK_00580" class="clusterblast-orf" id="dummy-4_q3_0_all"  />
<polygon points="100,35 105,30 118,30 118,40 105,40 100,35 " style="fill:white; stroke-width:1; stroke:black; " description="&lt;b&gt;LLPMBPKK_00581&lt;/b&gt;&lt;br&gt;Ribosomal protein S6--L-glutamate ligase&lt;br&gt;Location: 759296 - 760241" locus_tag="LLPMBPKK_00581" class="clusterblast-orf" id="dummy-4_q4_0_all"  />
<polygon points="123,35 128,30 137,30 137,40 128,40 123,35 " style="fill:white; stroke-width:1; stroke:black; " description="&lt;b&gt;LLPMBPKK_00582&lt;/b&gt;&lt;br&gt;Ubiquinone biosynthesis O-methyltransferase&lt;br&gt;Location: 760461 - 761205" locus_tag="LLPMBPKK_00582" class="clusterblast-orf" id="dummy-4_q5_0_all"  />
<polygon points="144,35 149,30 197,30 197,40 149,40 144,35 " style="fill:white; stroke-width:1; stroke:black; " description="&lt;b&gt;LLPMBPKK_00583&lt;/b&gt;&lt;br&gt;Phosphoesterase family protein&lt;br&gt;Location: 761589 - 764340" locus_tag="LLPMBPKK_00583" class="clusterblast-orf" id="dummy-4_q6_0_all"  />
<polygon points="198,35 203,30 225,30 225,40 203,40 198,35 " style="fill:white; stroke-width:1; stroke:black; " description="&lt;b&gt;LLPMBPKK_00584&lt;/b&gt;&lt;br&gt;ABC transporter permease&lt;br&gt;Location: 764404 - 765772" locus_tag="LLPMBPKK_00584" class="clusterblast-orf" id="dummy-4_q7_0_all"  />
<polygon points="225,35 230,30 246,30 246,40 230,40 225,35 " style="fill:#1585d8; stroke-width:1; stroke:black; " description="&lt;b&gt;LLPMBPKK_00585&lt;/b&gt;&lt;br&gt;ABC transporter ATP-binding protein&lt;br&gt;Location: 765768 - 766875" locus_tag="LLPMBPKK_00585" class="clusterblast-orf" id="dummy-4_q8_0_all"  />
<polygon points="255,35 260,30 267,30 267,40 260,40 255,35 " style="fill:#a115d8; stroke-width:1; stroke:black; " description="&lt;b&gt;LLPMBPKK_00586&lt;/b&gt;&lt;br&gt;two component system DNA binding responseregulator&lt;br&gt;Location: 767325 - 767961" locus_tag="LLPMBPKK_00586" class="clusterblast-orf" id="dummy-4_q9_0_all"  />
<polygon points="267,35 272,30 291,30 291,40 272,40 267,35 " style="fill:#d86915; stroke-width:1; stroke:black; " description="&lt;b&gt;LLPMBPKK_00587&lt;/b&gt;&lt;br&gt;two component system histidine kinase&lt;br&gt;Location: 767957 - 769229" locus_tag="LLPMBPKK_00587" class="clusterblast-orf" id="dummy-4_q10_0_all"  />
<polygon points="296,40 312,40 317,35 312,30 296,30 296,40 " style="fill:white; stroke-width:1; stroke:black; " description="&lt;b&gt;LLPMBPKK_00588&lt;/b&gt;&lt;br&gt;ABC transporter&lt;br&gt;Location: 769497 - 770595" locus_tag="LLPMBPKK_00588" class="clusterblast-orf" id="dummy-4_q11_0_all"  />
<polygon points="317,40 326,40 331,35 326,30 317,30 317,40 " style="fill:#15d831; stroke-width:1; stroke:black; " description="&lt;b&gt;LLPMBPKK_00589&lt;/b&gt;&lt;br&gt;ABC transporter ATP-binding protein&lt;br&gt;Location: 770591 - 771275" locus_tag="LLPMBPKK_00589" class="clusterblast-orf" id="dummy-4_q12_0_all"  />
<polygon points="333,40 341,40 346,35 341,30 333,30 333,40 " style="fill:white; stroke-width:1; stroke:black; " description="&lt;b&gt;LLPMBPKK_00590&lt;/b&gt;&lt;br&gt;hypothetical protein&lt;br&gt;Location: 771430 - 772081" locus_tag="LLPMBPKK_00590" class="clusterblast-orf" id="dummy-4_q13_0_all"  />
<polygon points="347,40 375,40 380,35 375,30 347,30 347,40 " style="fill:white; stroke-width:1; stroke:black; " description="&lt;b&gt;LLPMBPKK_00591&lt;/b&gt;&lt;br&gt;Serine/threonine-protein kinase PknD&lt;br&gt;Location: 772151 - 773846" locus_tag="LLPMBPKK_00591" class="clusterblast-orf" id="dummy-4_q14_0_all"  />
<polygon points="381,35 386,30 393,30 393,40 386,40 381,35 " style="fill:white; stroke-width:1; stroke:black; " description="&lt;b&gt;LLPMBPKK_00592&lt;/b&gt;&lt;br&gt;hypothetical protein&lt;br&gt;Location: 773882 - 774539" locus_tag="LLPMBPKK_00592" class="clusterblast-orf" id="dummy-4_q15_0_all"  />
<polygon points="396,35 401,30 417,30 417,40 401,40 396,35 " style="fill:#1531d8; stroke-width:1; stroke:black; " description="&lt;b&gt;LLPMBPKK_00593&lt;/b&gt;&lt;br&gt;1,3,6,8-tetrahydroxynaphthalene synthase&lt;br&gt;Location: 774701 - 775748" locus_tag="LLPMBPKK_00593" class="clusterblast-orf" id="dummy-4_q16_0_all"  />
<polygon points="419,35 424,30 438,30 438,40 424,40 419,35 " style="fill:#d815bc; stroke-width:1; stroke:black; " description="&lt;b&gt;LLPMBPKK_00594&lt;/b&gt;&lt;br&gt;MmyB-like transcription regulator ligand bindingdomain protein&lt;br&gt;Location: 775864 - 776848" locus_tag="LLPMBPKK_00594" class="clusterblast-orf" id="dummy-4_q17_0_all"  />
<polygon points="443,35 448,30 459,30 459,40 448,40 443,35 " style="fill:white; stroke-width:1; stroke:black; " description="&lt;b&gt;LLPMBPKK_00595&lt;/b&gt;&lt;br&gt;aminoglycoside phosphotransferase&lt;br&gt;Location: 777119 - 777935" locus_tag="LLPMBPKK_00595" class="clusterblast-orf" id="dummy-4_q18_0_all"  />
<polygon points="466,40 475,40 480,35 475,30 466,30 466,40 " style="fill:white; stroke-width:1; stroke:black; " description="&lt;b&gt;LLPMBPKK_00596&lt;/b&gt;&lt;br&gt;hypothetical protein&lt;br&gt;Location: 778299 - 779046" locus_tag="LLPMBPKK_00596" class="clusterblast-orf" id="dummy-4_q19_0_all"  />
<polygon points="488,35 493,30 512,30 512,40 493,40 488,35 " style="fill:#d8bc15; stroke-width:1; stroke:black; " description="&lt;b&gt;LLPMBPKK_00597&lt;/b&gt;&lt;br&gt;cytochrome P450 hydroxylase&lt;br&gt;Location: 779472 - 780702" locus_tag="LLPMBPKK_00597" class="clusterblast-orf" id="dummy-4_q20_0_all"  />
<polygon points="514,35 519,30 521,30 521,40 519,40 514,35 " style="fill:white; stroke-width:1; stroke:black; " description="&lt;b&gt;LLPMBPKK_00598&lt;/b&gt;&lt;br&gt;hypothetical protein&lt;br&gt;Location: 780838 - 781204" locus_tag="LLPMBPKK_00598" class="clusterblast-orf" id="dummy-4_q21_0_all"  />
<polygon points="527,40 539,40 544,35 539,30 527,30 527,40 " style="fill:white; stroke-width:1; stroke:black; " description="&lt;b&gt;LLPMBPKK_00599&lt;/b&gt;&lt;br&gt;helix-turn-helix domain-containing protein&lt;br&gt;Location: 781514 - 782399" locus_tag="LLPMBPKK_00599" class="clusterblast-orf" id="dummy-4_q22_0_all"  />
<polygon points="545,35 550,30 571,30 571,40 550,40 545,35 " style="fill:#15d885; stroke-width:1; stroke:black; " description="&lt;b&gt;LLPMBPKK_00600&lt;/b&gt;&lt;br&gt;beta-glucosidase&lt;br&gt;Location: 782423 - 783803" locus_tag="LLPMBPKK_00600" class="clusterblast-orf" id="dummy-4_q23_0_all"  />
<polygon points="572,35 577,30 588,30 588,40 577,40 572,35 " style="fill:#4d15d8; stroke-width:1; stroke:black; " description="&lt;b&gt;LLPMBPKK_00601&lt;/b&gt;&lt;br&gt;sugar transport integral membrane protein&lt;br&gt;Location: 783820 - 784654" locus_tag="LLPMBPKK_00601" class="clusterblast-orf" id="dummy-4_q24_0_all"  />
<polygon points="588,35 593,30 606,30 606,40 593,40 588,35 " style="fill:#d81569; stroke-width:1; stroke:black; " description="&lt;b&gt;LLPMBPKK_00602&lt;/b&gt;&lt;br&gt;sugar transport integral membrane protein&lt;br&gt;Location: 784660 - 785605" locus_tag="LLPMBPKK_00602" class="clusterblast-orf" id="dummy-4_q25_0_all"  />
<polygon points="606,35 611,30 630,30 630,40 611,40 606,35 " style="fill:#a1d815; stroke-width:1; stroke:black; " description="&lt;b&gt;LLPMBPKK_00603&lt;/b&gt;&lt;br&gt;sugar transport sugar binding protein&lt;br&gt;Location: 785616 - 786855" locus_tag="LLPMBPKK_00603" class="clusterblast-orf" id="dummy-4_q26_0_all"  />
<polygon points="636,40 674,40 679,35 674,30 636,30 636,40 " style="fill:#15d8d8; stroke-width:1; stroke:black; " description="&lt;b&gt;LLPMBPKK_00604&lt;/b&gt;&lt;br&gt;alpha-xylosidase&lt;br&gt;Location: 787137 - 789408" locus_tag="LLPMBPKK_00604" class="clusterblast-orf" id="dummy-4_q27_0_all"  />
<polygon points="683,35 688,30 704,30 704,40 688,40 683,35 " style="fill:white; stroke-width:1; stroke:black; " description="&lt;b&gt;LLPMBPKK_00605&lt;/b&gt;&lt;br&gt;oxidoreductase&lt;br&gt;Location: 789603 - 790680" locus_tag="LLPMBPKK_00605" class="clusterblast-orf" id="dummy-4_q28_0_all"  />
<polygon points="706,40 712,40 717,35 712,30 706,30 706,40 " style="fill:white; stroke-width:1; stroke:black; " description="&lt;b&gt;LLPMBPKK_00606&lt;/b&gt;&lt;br&gt;transcriptional regulator&lt;br&gt;Location: 790784 - 791372" locus_tag="LLPMBPKK_00606" class="clusterblast-orf" id="dummy-4_q29_0_all"  />
<polygon points="718,40 724,40 729,35 724,30 718,30 718,40 " style="fill:white; stroke-width:1; stroke:black; " description="&lt;b&gt;LLPMBPKK_00607&lt;/b&gt;&lt;br&gt;N-acetyltransferase&lt;br&gt;Location: 791433 - 792000" locus_tag="LLPMBPKK_00607" class="clusterblast-orf" id="dummy-4_q30_0_all"  />
<polygon points="730,40 742,40 747,35 742,30 730,30 730,40 " style="fill:white; stroke-width:1; stroke:black; " description="&lt;b&gt;LLPMBPKK_00608&lt;/b&gt;&lt;br&gt;hypothetical protein&lt;br&gt;Location: 792060 - 792918" locus_tag="LLPMBPKK_00608" class="clusterblast-orf" id="dummy-4_q31_0_all"  />
<polygon points="747,35 752,30 766,30 766,40 752,40 747,35 " style="fill:white; stroke-width:1; stroke:black; " description="&lt;b&gt;LLPMBPKK_00609&lt;/b&gt;&lt;br&gt;transcriptional regulator&lt;br&gt;Location: 792948 - 793893" locus_tag="LLPMBPKK_00609" class="clusterblast-orf" id="dummy-4_q32_0_all"  />
</g>
<g label="NZ_KQ948371" description="NZ_KQ948371 (5763-46810): Streptomyces corchorusii strain DSM 40340 PRJNA2992... (10% of genes show similarity), T3PKS" class="clusterblast-cluster"  >
<text x="5" y="70" class="clusterblast-acc"  >
<a xlink:href="https://antismash-db.secondarymetabolites.org/area.html?record=NZ_KQ948371&amp;start=5763&amp;end=46810" target="_blank">NZ_KQ948371 (5763-46810)</a>: Streptomyces corchorusii strain DSM 40340 PRJNA2992... (10% of genes show similarity), T3PKS</text>
<line x1="10" y1="85" x2="778.0" y2="85" style="stroke-width:1; stroke:grey; "  />
</g>
<g id="a4_000"  >
<polygon points="0,85 4,80 4,90 0,85 " style="fill:white; stroke-width:1; stroke:black; " description="&lt;b&gt;AQJ11_RS38420&lt;/b&gt;&lt;br&gt;hypothetical protein&lt;br&gt;Location: 46547 - 46329" locus_tag="AQJ11_RS38420" class="clusterblast-orf" id="dummy-4_h4_2_0"  />
</g>
<g id="a4_001"  >
<polygon points="7,90 39,90 44,85 39,80 7,80 7,90 " style="fill:white; stroke-width:1; stroke:black; " description="&lt;b&gt;AQJ11_RS38415&lt;/b&gt;&lt;br&gt;ABC transporter ATP-binding protein&lt;br&gt;Location: 46145 - 44226" locus_tag="AQJ11_RS38415" class="clusterblast-orf" id="dummy-4_h4_2_1"  />
</g>
<g id="a4_002"  >
<polygon points="52,85 57,80 57,80 57,90 57,90 52,85 " style="fill:white; stroke-width:1; stroke:black; " description="&lt;b&gt;AQJ11_RS38410&lt;/b&gt;&lt;br&gt;metal-sensitive transcriptional regulator&lt;br&gt;Location: 43820 - 43539" locus_tag="AQJ11_RS38410" class="clusterblast-orf" id="dummy-4_h4_2_2"  />
</g>
<g id="a4_003"  >
<polygon points="60,90 81,90 86,85 81,80 60,80 60,90 " style="fill:white; stroke-width:1; stroke:black; " description="&lt;b&gt;AQJ11_RS38405&lt;/b&gt;&lt;br&gt;MBL fold metallo-hydrolase&lt;br&gt;Location: 43420 - 42062" locus_tag="AQJ11_RS38405" class="clusterblast-orf" id="dummy-4_h4_2_3"  />
</g>
<g id="a4_004"  >
<polygon points="87,90 88,90 93,85 88,80 87,80 87,90 " style="fill:white; stroke-width:1; stroke:black; " description="&lt;b&gt;AQJ11_RS38400&lt;/b&gt;&lt;br&gt;rhodanese-like domain-containing protein&lt;br&gt;Location: 42013 - 41696" locus_tag="AQJ11_RS38400" class="clusterblast-orf" id="dummy-4_h4_2_4"  />
</g>
<g id="a4_005"  >
<polygon points="93,90 102,90 107,85 102,80 93,80 93,90 " style="fill:white; stroke-width:1; stroke:black; " description="&lt;b&gt;AQJ11_RS38395&lt;/b&gt;&lt;br&gt;sulfite exporter TauE/SafE family protein&lt;br&gt;Location: 41699 - 40956" locus_tag="AQJ11_RS38395" class="clusterblast-orf" id="dummy-4_h4_2_5"  />
</g>
<g id="a4_006"  >
<polygon points="111,90 117,90 122,85 117,80 111,80 111,90 " style="fill:white; stroke-width:1; stroke:black; " description="&lt;b&gt;AQJ11_RS38390&lt;/b&gt;&lt;br&gt;rhodanese-like domain-containing protein&lt;br&gt;Location: 40754 - 40170" locus_tag="AQJ11_RS38390" class="clusterblast-orf" id="dummy-4_h4_2_6"  />
</g>
<g id="a4_007"  >
<polygon points="125,90 128,90 133,85 128,80 125,80 125,90 " style="fill:white; stroke-width:1; stroke:black; " description="&lt;b&gt;AQJ11_RS38385&lt;/b&gt;&lt;br&gt;hypothetical protein&lt;br&gt;Location: 39996 - 39625" locus_tag="AQJ11_RS38385" class="clusterblast-orf" id="dummy-4_h4_2_7"  />
</g>
<g id="a4_008"  >
<polygon points="135,90 135,90 140,85 135,80 135,80 135,90 " style="fill:white; stroke-width:1; stroke:black; " description="&lt;b&gt;AQJ11_RS38380&lt;/b&gt;&lt;br&gt;DUF2630 family protein&lt;br&gt;Location: 39506 - 39240" locus_tag="AQJ11_RS38380" class="clusterblast-orf" id="dummy-4_h4_2_8"  />
</g>
<g id="a4_009"  >
<polygon points="142,90 174,90 179,85 174,80 142,80 142,90 " style="fill:white; stroke-width:1; stroke:black; " description="&lt;b&gt;AQJ11_RS38375&lt;/b&gt;&lt;br&gt;Na+/H+ antiporter NhaA&lt;br&gt;Location: 39119 - 37224" locus_tag="AQJ11_RS38375" class="clusterblast-orf" id="dummy-4_h4_2_9"  />
</g>
<g id="a4_0010"  >
<polygon points="181,90 184,85 181,80 181,90 " style="fill:white; stroke-width:1; stroke:black; " description="&lt;b&gt;AQJ11_RS38370&lt;/b&gt;&lt;br&gt;50S ribosomal protein L33&lt;br&gt;Location: 37130 - 36966" locus_tag="AQJ11_RS38370" class="clusterblast-orf" id="dummy-4_h4_2_10"  />
</g>
<g id="a4_0011"  >
<polygon points="185,90 185,90 190,85 185,80 185,80 185,90 " style="fill:white; stroke-width:1; stroke:black; " description="&lt;b&gt;AQJ11_RS38365&lt;/b&gt;&lt;br&gt;type B 50S ribosomal protein L31&lt;br&gt;Location: 36911 - 36651" locus_tag="AQJ11_RS38365" class="clusterblast-orf" id="dummy-4_h4_2_11"  />
</g>
<g id="a4_0012"  >
<polygon points="191,90 193,85 191,80 191,90 " style="fill:white; stroke-width:1; stroke:black; " description="&lt;b&gt;AQJ11_RS38360&lt;/b&gt;&lt;br&gt;50S ribosomal protein L36&lt;br&gt;Location: 36613 - 36491" locus_tag="AQJ11_RS38360" class="clusterblast-orf" id="dummy-4_h4_2_12"  />
</g>
<g id="a4_0013"  >
<polygon points="195,90 199,90 204,85 199,80 195,80 195,90 " style="fill:white; stroke-width:1; stroke:black; " description="&lt;b&gt;AQJ11_RS38355&lt;/b&gt;&lt;br&gt;GNAT family N-acetyltransferase&lt;br&gt;Location: 36382 - 35924" locus_tag="AQJ11_RS38355" class="clusterblast-orf" id="dummy-4_h4_2_13"  />
</g>
<g id="a4_0014"  >
<polygon points="207,90 210,90 215,85 210,80 207,80 207,90 " style="fill:white; stroke-width:1; stroke:black; " description="&lt;b&gt;AQJ11_RS38345&lt;/b&gt;&lt;br&gt;helix-turn-helix transcriptional regulator&lt;br&gt;Location: 35749 - 35357" locus_tag="AQJ11_RS38345" class="clusterblast-orf" id="dummy-4_h4_2_14"  />
</g>
<g id="a4_0015"  >
<polygon points="215,85 220,80 233,80 233,90 220,90 215,85 " style="fill:#d81515; stroke-width:1; stroke:black; " description="&lt;b&gt;AQJ11_RS38340&lt;/b&gt;&lt;br&gt;LysR family transcriptional regulator&lt;br&gt;Location: 35348 - 34413&lt;br&gt;&lt;br&gt;&lt;b&gt;BlastP hit with LLPMBPKK_00577&lt;/b&gt;&lt;br&gt;Percentage identity: 91&lt;br&gt;Percentage coverage: 99&lt;br&gt;BLAST bit score: 560&lt;br&gt;E-value: 3.28e-202" locus_tag="AQJ11_RS38340" class="clusterblast-orf" id="dummy-4_h4_2_15"  />
</g>
<g id="a4_0016"  >
<polygon points="235,90 255,90 260,85 255,80 235,80 235,90 " style="fill:#4dd815; stroke-width:1; stroke:black; " description="&lt;b&gt;AQJ11_RS38335&lt;/b&gt;&lt;br&gt;MFS transporter&lt;br&gt;Location: 34279 - 33011&lt;br&gt;&lt;br&gt;&lt;b&gt;BlastP hit with LLPMBPKK_00578&lt;/b&gt;&lt;br&gt;Percentage identity: 86&lt;br&gt;Percentage coverage: 99&lt;br&gt;BLAST bit score: 645&lt;br&gt;E-value: 3.49e-232" locus_tag="AQJ11_RS38335" class="clusterblast-orf" id="dummy-4_h4_2_16"  />
</g>
<g id="a4_0017"  >
<polygon points="263,85 268,80 295,80 295,90 268,90 263,85 " style="fill:white; stroke-width:1; stroke:black; " description="&lt;b&gt;AQJ11_RS38330&lt;/b&gt;&lt;br&gt;hypothetical protein&lt;br&gt;Location: 32870 - 31173" locus_tag="AQJ11_RS38330" class="clusterblast-orf" id="dummy-4_h4_2_17"  />
</g>
<g id="a4_0018"  >
<polygon points="298,90 301,90 306,85 301,80 298,80 298,90 " style="fill:white; stroke-width:1; stroke:black; " description="&lt;b&gt;AQJ11_RS38325&lt;/b&gt;&lt;br&gt;hypothetical protein&lt;br&gt;Location: 31047 - 30634" locus_tag="AQJ11_RS38325" class="clusterblast-orf" id="dummy-4_h4_2_18"  />
</g>
<g id="a4_0019"  >
<polygon points="306,90 323,90 328,85 323,80 306,80 306,90 " style="fill:white; stroke-width:1; stroke:black; " description="&lt;b&gt;AQJ11_RS38320&lt;/b&gt;&lt;br&gt;RNA polymerase subunit sigma-24&lt;br&gt;Location: 30634 - 29489" locus_tag="AQJ11_RS38320" class="clusterblast-orf" id="dummy-4_h4_2_19"  />
</g>
<g id="a4_0020"  >
<polygon points="329,85 334,80 349,80 349,90 334,90 329,85 " style="fill:white; stroke-width:1; stroke:black; " description="&lt;b&gt;AQJ11_RS38315&lt;/b&gt;&lt;br&gt;hypothetical protein&lt;br&gt;Location: 29440 - 28394" locus_tag="AQJ11_RS38315" class="clusterblast-orf" id="dummy-4_h4_2_20"  />
</g>
<g id="a4_0021"  >
<polygon points="361,90 372,90 377,85 372,80 361,80 361,90 " style="fill:#d815bc; stroke-width:1; stroke:black; " description="&lt;b&gt;AQJ11_RS38310&lt;/b&gt;&lt;br&gt;helix-turn-helix domain-containing protein&lt;br&gt;Location: 27761 - 26928&lt;br&gt;&lt;br&gt;&lt;b&gt;BlastP hit with LLPMBPKK_00594&lt;/b&gt;&lt;br&gt;Percentage identity: 89&lt;br&gt;Percentage coverage: 85&lt;br&gt;BLAST bit score: 518&lt;br&gt;E-value: 4.66e-186" locus_tag="AQJ11_RS38310" class="clusterblast-orf" id="dummy-4_h4_2_21"  />
</g>
<g id="a4_0022"  >
<polygon points="379,90 394,90 399,85 394,80 379,80 379,90 " style="fill:#1531d8; stroke-width:1; stroke:black; " description="&lt;b&gt;AQJ11_RS38305&lt;/b&gt;&lt;br&gt;polyketide synthase&lt;br&gt;Location: 26810 - 25764&lt;br&gt;&lt;br&gt;&lt;b&gt;BlastP hit with LLPMBPKK_00593&lt;/b&gt;&lt;br&gt;Percentage identity: 88&lt;br&gt;Percentage coverage: 100&lt;br&gt;BLAST bit score: 624&lt;br&gt;E-value: 1.87e-226" locus_tag="AQJ11_RS38305" class="clusterblast-orf" id="dummy-4_h4_2_22"  />
</g>
<g id="a4_0023"  >
<polygon points="401,85 406,80 422,80 422,90 406,90 401,85 " style="fill:white; stroke-width:1; stroke:black; " description="&lt;b&gt;AQJ11_RS38300&lt;/b&gt;&lt;br&gt;sugar phosphate isomerase/epimerase&lt;br&gt;Location: 25698 - 24559" locus_tag="AQJ11_RS38300" class="clusterblast-orf" id="dummy-4_h4_2_23"  />
</g>
<g id="a4_0024"  >
<polygon points="423,85 428,80 450,80 450,90 428,90 423,85 " style="fill:white; stroke-width:1; stroke:black; " description="&lt;b&gt;AQJ11_RS38295&lt;/b&gt;&lt;br&gt;alkaline phosphatase family protein&lt;br&gt;Location: 24547 - 23148" locus_tag="AQJ11_RS38295" class="clusterblast-orf" id="dummy-4_h4_2_24"  />
</g>
<g id="a4_0025"  >
<polygon points="449,85 454,80 472,80 472,90 454,90 449,85 " style="fill:white; stroke-width:1; stroke:black; " description="&lt;b&gt;AQJ11_RS38290&lt;/b&gt;&lt;br&gt;metabolite traffic protein EboE&lt;br&gt;Location: 23151 - 21982" locus_tag="AQJ11_RS38290" class="clusterblast-orf" id="dummy-4_h4_2_25"  />
</g>
<g id="a4_0026"  >
<polygon points="472,85 477,80 488,80 488,90 477,90 472,85 " style="fill:white; stroke-width:1; stroke:black; " description="&lt;b&gt;AQJ11_RS38285&lt;/b&gt;&lt;br&gt;TatD family hydrolase&lt;br&gt;Location: 21978 - 21130" locus_tag="AQJ11_RS38285" class="clusterblast-orf" id="dummy-4_h4_2_26"  />
</g>
<g id="a4_0027"  >
<polygon points="488,85 493,80 501,80 501,90 493,90 488,85 " style="fill:white; stroke-width:1; stroke:black; " description="&lt;b&gt;AQJ11_RS38280&lt;/b&gt;&lt;br&gt;EboA domain-containing protein&lt;br&gt;Location: 21130 - 20489" locus_tag="AQJ11_RS38280" class="clusterblast-orf" id="dummy-4_h4_2_27"  />
</g>
<g id="a4_0028"  >
<polygon points="501,85 506,80 518,80 518,90 506,90 501,85 " style="fill:white; stroke-width:1; stroke:black; " description="&lt;b&gt;AQJ11_RS38275&lt;/b&gt;&lt;br&gt;sugar phosphate isomerase/epimerase&lt;br&gt;Location: 20492 - 19611" locus_tag="AQJ11_RS38275" class="clusterblast-orf" id="dummy-4_h4_2_28"  />
</g>
<g id="a4_0029"  >
<polygon points="519,85 524,80 537,80 537,90 524,90 519,85 " style="fill:white; stroke-width:1; stroke:black; " description="&lt;b&gt;AQJ11_RS38270&lt;/b&gt;&lt;br&gt;UbiA family prenyltransferase&lt;br&gt;Location: 19528 - 18599" locus_tag="AQJ11_RS38270" class="clusterblast-orf" id="dummy-4_h4_2_29"  />
</g>
<g id="a4_0030"  >
<polygon points="537,85 542,80 559,80 559,90 542,90 537,85 " style="fill:white; stroke-width:1; stroke:black; " description="&lt;b&gt;AQJ11_RS38265&lt;/b&gt;&lt;br&gt;inositol-3-phosphate synthase&lt;br&gt;Location: 18602 - 17478" locus_tag="AQJ11_RS38265" class="clusterblast-orf" id="dummy-4_h4_2_30"  />
</g>
<g id="a4_0031"  >
<polygon points="561,85 566,80 586,80 586,90 566,90 561,85 " style="fill:white; stroke-width:1; stroke:black; " description="&lt;b&gt;AQJ11_RS38260&lt;/b&gt;&lt;br&gt;ThuA domain-containing protein&lt;br&gt;Location: 17354 - 16035" locus_tag="AQJ11_RS38260" class="clusterblast-orf" id="dummy-4_h4_2_31"  />
</g>
<g id="a4_0032"  >
<polygon points="587,85 592,80 634,80 634,90 592,90 587,85 " style="fill:white; stroke-width:1; stroke:black; " description="&lt;b&gt;AQJ11_RS38255&lt;/b&gt;&lt;br&gt;PQQ-dependent sugar dehydrogenase&lt;br&gt;Location: 16022 - 13536" locus_tag="AQJ11_RS38255" class="clusterblast-orf" id="dummy-4_h4_2_32"  />
</g>
<g id="a4_0033"  >
<polygon points="636,85 641,80 655,80 655,90 641,90 636,85 " style="fill:white; stroke-width:1; stroke:black; " description="&lt;b&gt;AQJ11_RS38250&lt;/b&gt;&lt;br&gt;sugar phosphate isomerase/epimerase&lt;br&gt;Location: 13440 - 12442" locus_tag="AQJ11_RS38250" class="clusterblast-orf" id="dummy-4_h4_2_33"  />
</g>
<g id="a4_0034"  >
<polygon points="656,85 661,80 680,80 680,90 661,90 656,85 " style="fill:white; stroke-width:1; stroke:black; " description="&lt;b&gt;AQJ11_RS38245&lt;/b&gt;&lt;br&gt;Gfo/Idh/MocA family oxidoreductase&lt;br&gt;Location: 12426 - 11143" locus_tag="AQJ11_RS38245" class="clusterblast-orf" id="dummy-4_h4_2_34"  />
</g>
<g id="a4_0035"  >
<polygon points="682,85 687,80 702,80 702,90 687,90 682,85 " style="fill:white; stroke-width:1; stroke:black; " description="&lt;b&gt;AQJ11_RS38240&lt;/b&gt;&lt;br&gt;substrate-binding domain-containing protein&lt;br&gt;Location: 11076 - 10036" locus_tag="AQJ11_RS38240" class="clusterblast-orf" id="dummy-4_h4_2_35"  />
</g>
<g id="a4_0036"  >
<polygon points="702,85 707,80 722,80 722,90 707,90 702,85 " style="fill:white; stroke-width:1; stroke:black; " description="&lt;b&gt;AQJ11_RS38235&lt;/b&gt;&lt;br&gt;ABC transporter permease&lt;br&gt;Location: 10018 - 9002" locus_tag="AQJ11_RS38235" class="clusterblast-orf" id="dummy-4_h4_2_36"  />
</g>
<g id="a4_0037"  >
<polygon points="722,85 727,80 751,80 751,90 727,90 722,85 " style="fill:white; stroke-width:1; stroke:black; " description="&lt;b&gt;AQJ11_RS38230&lt;/b&gt;&lt;br&gt;sugar ABC transporter ATP-binding protein&lt;br&gt;Location: 9005 - 7488" locus_tag="AQJ11_RS38230" class="clusterblast-orf" id="dummy-4_h4_2_37"  />
</g>
<g id="a4_0038"  >
<polygon points="757,85 762,80 780,80 780,90 762,90 757,85 " style="fill:white; stroke-width:1; stroke:black; " description="&lt;b&gt;AQJ11_RS38225&lt;/b&gt;&lt;br&gt;ROK family transcriptional regulator&lt;br&gt;Location: 7174 - 5993" locus_tag="AQJ11_RS38225" class="clusterblast-orf" id="dummy-4_h4_2_38"  />
</g>
</svg>
