<svg xmlns="http://www.w3.org/2000/svg" xmlns:xlink="http://www.w3.org/1999/xlink" version="1.1" x="0" y="0" height="230" width="800" viewBox="0 0 800 230" preserveAspectRatio="none"  >
<g label="Query sequence" class="clusterblast-cluster"  >
<text x="5" y="20" class="clusterblast-acc"  >
Query sequence</text>
<line x1="10" y1="35" x2="778.0" y2="35" style="stroke-width:1; stroke:grey; "  />
<polygon points="47,35 52,30 133,30 133,40 52,40 47,35 " style="fill:#d81515; stroke-width:1; stroke:black; " description="&lt;b&gt;LLPMBPKK_05897&lt;/b&gt;&lt;br&gt;hypothetical protein&lt;br&gt;Location: 6739336 - 6740563" locus_tag="LLPMBPKK_05897" class="clusterblast-orf" id="dummy-21_q0_0_all"  />
<polygon points="157,40 255,40 260,35 255,30 157,30 157,40 " style="fill:#15d815; stroke-width:1; stroke:black; " description="&lt;b&gt;LLPMBPKK_05898&lt;/b&gt;&lt;br&gt;aminotransferase class III-fold pyridoxal phosphate-dependent enzyme&lt;br&gt;Location: 6740899 - 6742372" locus_tag="LLPMBPKK_05898" class="clusterblast-orf" id="dummy-21_q1_0_all"  />
<polygon points="326,40 423,40 428,35 423,30 326,30 326,40 " style="fill:#1515d8; stroke-width:1; stroke:black; " description="&lt;b&gt;LLPMBPKK_05899&lt;/b&gt;&lt;br&gt;iron transporter&lt;br&gt;Location: 6743320 - 6744781" locus_tag="LLPMBPKK_05899" class="clusterblast-orf" id="dummy-21_q2_0_all"  />
<polygon points="437,40 486,40 491,35 486,30 437,30 437,40 " style="fill:#d815d8; stroke-width:1; stroke:black; " description="&lt;b&gt;LLPMBPKK_05900&lt;/b&gt;&lt;br&gt;GNAT family N-acetyltransferase&lt;br&gt;Location: 6744903 - 6745674" locus_tag="LLPMBPKK_05900" class="clusterblast-orf" id="dummy-21_q3_0_all"  />
<polygon points="526,40 661,40 666,35 661,30 526,30 526,40 " style="fill:#d8d815; stroke-width:1; stroke:black; " description="&lt;b&gt;LLPMBPKK_05901&lt;/b&gt;&lt;br&gt;ATP-dependent DNA helicase&lt;br&gt;Location: 6746176 - 6748168" locus_tag="LLPMBPKK_05901" class="clusterblast-orf" id="dummy-21_q4_0_all"  />
<polygon points="679,35 684,30 733,30 733,40 684,40 679,35 " style="fill:#15d8d8; stroke-width:1; stroke:black; " description="&lt;b&gt;LLPMBPKK_05902&lt;/b&gt;&lt;br&gt;transcriptional repressor LexA&lt;br&gt;Location: 6748352 - 6749132" locus_tag="LLPMBPKK_05902" class="clusterblast-orf" id="dummy-21_q5_0_all"  />
</g>
<g label="NZ_KQ948222" description="NZ_KQ948222 (91916-103926): Streptomyces yokosukanensis strain DSM 40224 PRJN... (85% of genes show similarity), siderophore" class="clusterblast-cluster"  >
<text x="5" y="70" class="clusterblast-acc"  >
<a xlink:href="https://antismash-db.secondarymetabolites.org/area.html?record=NZ_KQ948222&amp;start=91916&amp;end=103926" target="_blank">NZ_KQ948222 (91916-103926)</a>: Streptomyces yokosukanensis strain DSM 40224 PRJN... (85% of genes show similarity), siderophore</text>
<line x1="10" y1="85" x2="778.0" y2="85" style="stroke-width:1; stroke:grey; "  />
</g>
<g id="a21_000"  >
<polygon points="0,90 99,90 104,85 99,80 0,80 0,90 " style="fill:white; stroke-width:1; stroke:black; " description="&lt;b&gt;AQI95_RS34150&lt;/b&gt;&lt;br&gt;GTPase HflX&lt;br&gt;Location: 103891 - 102398" locus_tag="AQI95_RS34150" class="clusterblast-orf" id="dummy-21_h21_6_0"  />
</g>
<g id="a21_001"  >
<polygon points="109,85 114,80 188,80 188,90 114,90 109,85 " style="fill:#d81515; stroke-width:1; stroke:black; " description="&lt;b&gt;AQI95_RS34145&lt;/b&gt;&lt;br&gt;hypothetical protein&lt;br&gt;Location: 102323 - 101199&lt;br&gt;&lt;br&gt;&lt;b&gt;BlastP hit with LLPMBPKK_05897&lt;/b&gt;&lt;br&gt;Percentage identity: 83&lt;br&gt;Percentage coverage: 85&lt;br&gt;BLAST bit score: 626&lt;br&gt;E-value: 9.15e-226" locus_tag="AQI95_RS34145" class="clusterblast-orf" id="dummy-21_h21_6_1"  />
</g>
<g id="a21_002"  >
<polygon points="227,90 323,90 328,85 323,80 227,80 227,90 " style="fill:#15d815; stroke-width:1; stroke:black; " description="&lt;b&gt;AQI95_RS34140&lt;/b&gt;&lt;br&gt;diaminobutyrate--2-oxoglutarate transaminase family protein&lt;br&gt;Location: 100643 - 99207&lt;br&gt;&lt;br&gt;&lt;b&gt;BlastP hit with LLPMBPKK_05898&lt;/b&gt;&lt;br&gt;Percentage identity: 87&lt;br&gt;Percentage coverage: 99&lt;br&gt;BLAST bit score: 796&lt;br&gt;E-value: 5.51e-290" locus_tag="AQI95_RS34140" class="clusterblast-orf" id="dummy-21_h21_6_2"  />
</g>
<g id="a21_003"  >
<polygon points="347,90 483,90 488,85 483,80 347,80 347,90 " style="fill:#1515d8; stroke-width:1; stroke:black; " description="&lt;b&gt;AQI95_RS34135&lt;/b&gt;&lt;br&gt;iron transporter&lt;br&gt;Location: 98926 - 96917&lt;br&gt;&lt;br&gt;&lt;b&gt;BlastP hit with LLPMBPKK_05899&lt;/b&gt;&lt;br&gt;Percentage identity: 83&lt;br&gt;Percentage coverage: 100&lt;br&gt;BLAST bit score: 803&lt;br&gt;E-value: 1.92e-289" locus_tag="AQI95_RS34135" class="clusterblast-orf" id="dummy-21_h21_6_3"  />
</g>
<g id="a21_004"  >
<polygon points="501,90 544,90 549,85 544,80 501,80 501,90 " style="fill:#d815d8; stroke-width:1; stroke:black; " description="&lt;b&gt;AQI95_RS34130&lt;/b&gt;&lt;br&gt;acetyltransferase&lt;br&gt;Location: 96728 - 96042&lt;br&gt;&lt;br&gt;&lt;b&gt;BlastP hit with LLPMBPKK_05900&lt;/b&gt;&lt;br&gt;Percentage identity: 81&lt;br&gt;Percentage coverage: 89&lt;br&gt;BLAST bit score: 382&lt;br&gt;E-value: 4.04e-134" locus_tag="AQI95_RS34130" class="clusterblast-orf" id="dummy-21_h21_6_4"  />
</g>
<g id="a21_005"  >
<polygon points="573,90 708,90 713,85 708,80 573,80 573,90 " style="fill:#d8d815; stroke-width:1; stroke:black; " description="&lt;b&gt;AQI95_RS34125&lt;/b&gt;&lt;br&gt;ATP-dependent DNA helicase&lt;br&gt;Location: 95703 - 93712&lt;br&gt;&lt;br&gt;&lt;b&gt;BlastP hit with LLPMBPKK_05901&lt;/b&gt;&lt;br&gt;Percentage identity: 96&lt;br&gt;Percentage coverage: 100&lt;br&gt;BLAST bit score: 1233&lt;br&gt;E-value: 0.0" locus_tag="AQI95_RS34125" class="clusterblast-orf" id="dummy-21_h21_6_5"  />
</g>
<g id="a21_006"  >
<polygon points="725,85 730,80 779,80 779,90 730,90 725,85 " style="fill:#15d8d8; stroke-width:1; stroke:black; " description="&lt;b&gt;AQI95_RS34120&lt;/b&gt;&lt;br&gt;transcriptional repressor LexA&lt;br&gt;Location: 93537 - 92758&lt;br&gt;&lt;br&gt;&lt;b&gt;BlastP hit with LLPMBPKK_05902&lt;/b&gt;&lt;br&gt;Percentage identity: 99&lt;br&gt;Percentage coverage: 100&lt;br&gt;BLAST bit score: 509&lt;br&gt;E-value: 7.21e-184" locus_tag="AQI95_RS34120" class="clusterblast-orf" id="dummy-21_h21_6_6"  />
</g>
</svg>
