<svg xmlns="http://www.w3.org/2000/svg" xmlns:xlink="http://www.w3.org/1999/xlink" version="1.1" x="0" y="0" height="230" width="800" viewBox="0 0 800 230" preserveAspectRatio="none"  >
<g label="Query sequence" class="clusterblast-cluster"  >
<text x="5" y="20" class="clusterblast-acc"  >
Query sequence</text>
<line x1="10" y1="35" x2="778.0" y2="35" style="stroke-width:1; stroke:grey; "  />
<polygon points="235,40 236,40 241,35 236,30 235,30 235,40 " style="fill:#d81515; stroke-width:1; stroke:black; " description="&lt;b&gt;LLPMBPKK_00703&lt;/b&gt;&lt;br&gt;hypothetical protein&lt;br&gt;Location: 897958 - 898738" locus_tag="LLPMBPKK_00703" class="clusterblast-orf" id="dummy-6_q0_0_all"  />
<polygon points="241,35 246,30 254,30 254,40 246,40 241,35 " style="fill:white; stroke-width:1; stroke:black; " description="&lt;b&gt;LLPMBPKK_00704&lt;/b&gt;&lt;br&gt;LytR family transcriptional regulator&lt;br&gt;Location: 898753 - 900469" locus_tag="LLPMBPKK_00704" class="clusterblast-orf" id="dummy-6_q1_0_all"  />
<polygon points="255,35 260,30 263,30 263,40 260,40 255,35 " style="fill:#60d815; stroke-width:1; stroke:black; " description="&lt;b&gt;LLPMBPKK_00705&lt;/b&gt;&lt;br&gt;urea transporter&lt;br&gt;Location: 900632 - 901688" locus_tag="LLPMBPKK_00705" class="clusterblast-orf" id="dummy-6_q2_0_all"  />
<polygon points="264,35 269,30 274,30 274,40 269,40 264,35 " style="fill:white; stroke-width:1; stroke:black; " description="&lt;b&gt;LLPMBPKK_00706&lt;/b&gt;&lt;br&gt;hypothetical protein&lt;br&gt;Location: 901826 - 903119" locus_tag="LLPMBPKK_00706" class="clusterblast-orf" id="dummy-6_q3_0_all"  />
<polygon points="276,40 279,35 276,30 276,40 " style="fill:#15abd8; stroke-width:1; stroke:black; " description="&lt;b&gt;LLPMBPKK_00707&lt;/b&gt;&lt;br&gt;anti-sigma factor antagonist&lt;br&gt;Location: 903353 - 903722" locus_tag="LLPMBPKK_00707" class="clusterblast-orf" id="dummy-6_q4_0_all"  />
<polygon points="281,40 285,35 281,30 281,40 " style="fill:#8d15d8; stroke-width:1; stroke:black; " description="&lt;b&gt;LLPMBPKK_00708&lt;/b&gt;&lt;br&gt;transcription elongation factor GreA&lt;br&gt;Location: 904045 - 904504" locus_tag="LLPMBPKK_00708" class="clusterblast-orf" id="dummy-6_q5_0_all"  />
<polygon points="285,35 290,30 304,30 304,40 290,40 285,35 " style="fill:#d84215; stroke-width:1; stroke:black; " description="&lt;b&gt;LLPMBPKK_00709&lt;/b&gt;&lt;br&gt;chaperone&lt;br&gt;Location: 904558 - 907072" locus_tag="LLPMBPKK_00709" class="clusterblast-orf" id="dummy-6_q6_0_all"  />
<polygon points="312,35 315,30 315,40 312,35 " style="fill:white; stroke-width:1; stroke:black; " description="&lt;b&gt;LLPMBPKK_00710&lt;/b&gt;&lt;br&gt;hypothetical protein&lt;br&gt;Location: 908016 - 908409" locus_tag="LLPMBPKK_00710" class="clusterblast-orf" id="dummy-6_q7_0_all"  />
<polygon points="315,35 320,30 322,30 322,40 320,40 315,35 " style="fill:#33d815; stroke-width:1; stroke:black; " description="&lt;b&gt;LLPMBPKK_00711&lt;/b&gt;&lt;br&gt;YegS/Rv2252/BmrU family lipid kinase&lt;br&gt;Location: 908465 - 909347" locus_tag="LLPMBPKK_00711" class="clusterblast-orf" id="dummy-6_q8_0_all"  />
<polygon points="322,35 327,30 334,30 334,40 327,40 322,35 " style="fill:#157ed8; stroke-width:1; stroke:black; " description="&lt;b&gt;LLPMBPKK_00712&lt;/b&gt;&lt;br&gt;FAD-binding oxidoreductase&lt;br&gt;Location: 909389 - 910982" locus_tag="LLPMBPKK_00712" class="clusterblast-orf" id="dummy-6_q9_0_all"  />
<polygon points="335,40 335,40 340,35 335,30 335,30 335,40 " style="fill:#ba15d8; stroke-width:1; stroke:black; " description="&lt;b&gt;LLPMBPKK_00713&lt;/b&gt;&lt;br&gt;TetR/AcrR family transcriptional regulator&lt;br&gt;Location: 911123 - 911771" locus_tag="LLPMBPKK_00713" class="clusterblast-orf" id="dummy-6_q10_0_all"  />
<polygon points="340,40 347,40 352,35 347,30 340,30 340,40 " style="fill:#d86f15; stroke-width:1; stroke:black; " description="&lt;b&gt;LLPMBPKK_00714&lt;/b&gt;&lt;br&gt;glycerol-3-phosphate dehydrogenase/oxidase&lt;br&gt;Location: 911767 - 913342" locus_tag="LLPMBPKK_00714" class="clusterblast-orf" id="dummy-6_q11_0_all"  />
<polygon points="355,40 363,40 368,35 363,30 355,30 355,40 " style="fill:#15d824; stroke-width:1; stroke:black; " description="&lt;b&gt;LLPMBPKK_00715&lt;/b&gt;&lt;br&gt;tryptophan 7-halogenase&lt;br&gt;Location: 913711 - 915334" locus_tag="LLPMBPKK_00715" class="clusterblast-orf" id="dummy-6_q12_0_all"  />
<polygon points="368,40 372,35 368,30 368,40 " style="fill:#1551d8; stroke-width:1; stroke:black; " description="&lt;b&gt;LLPMBPKK_00716&lt;/b&gt;&lt;br&gt;flavin reductase&lt;br&gt;Location: 915323 - 915887" locus_tag="LLPMBPKK_00716" class="clusterblast-orf" id="dummy-6_q13_0_all"  />
<polygon points="372,40 376,40 381,35 376,30 372,30 372,40 " style="fill:#d815c9; stroke-width:1; stroke:black; " description="&lt;b&gt;LLPMBPKK_00717&lt;/b&gt;&lt;br&gt;hypothetical protein&lt;br&gt;Location: 915883 - 917014" locus_tag="LLPMBPKK_00717" class="clusterblast-orf" id="dummy-6_q14_0_all"  />
<polygon points="382,40 390,40 395,35 390,30 382,30 382,40 " style="fill:#d89c15; stroke-width:1; stroke:black; " description="&lt;b&gt;LLPMBPKK_00718&lt;/b&gt;&lt;br&gt;CDA peptide synthetase III&lt;br&gt;Location: 917154 - 918852" locus_tag="LLPMBPKK_00718" class="clusterblast-orf" id="dummy-6_q15_0_all"  />
<polygon points="395,40 395,40 400,35 395,30 395,30 395,40 " style="fill:#15d851; stroke-width:1; stroke:black; " description="&lt;b&gt;LLPMBPKK_00719&lt;/b&gt;&lt;br&gt;thioesterase&lt;br&gt;Location: 918851 - 919604" locus_tag="LLPMBPKK_00719" class="clusterblast-orf" id="dummy-6_q16_0_all"  />
<polygon points="400,40 404,40 409,35 404,30 400,30 400,40 " style="fill:#1524d8; stroke-width:1; stroke:black; " description="&lt;b&gt;LLPMBPKK_00720&lt;/b&gt;&lt;br&gt;cytochrome P450&lt;br&gt;Location: 919593 - 920790" locus_tag="LLPMBPKK_00720" class="clusterblast-orf" id="dummy-6_q17_0_all"  />
<polygon points="410,40 412,35 410,30 410,40 " style="fill:#d8159c; stroke-width:1; stroke:black; " description="&lt;b&gt;LLPMBPKK_00721&lt;/b&gt;&lt;br&gt;YCII-related domain protein&lt;br&gt;Location: 920854 - 921169" locus_tag="LLPMBPKK_00721" class="clusterblast-orf" id="dummy-6_q18_0_all"  />
<polygon points="412,40 416,40 421,35 416,30 412,30 412,40 " style="fill:#d8c915; stroke-width:1; stroke:black; " description="&lt;b&gt;LLPMBPKK_00722&lt;/b&gt;&lt;br&gt;hydrolase&lt;br&gt;Location: 921165 - 922353" locus_tag="LLPMBPKK_00722" class="clusterblast-orf" id="dummy-6_q19_0_all"  />
<polygon points="421,40 423,40 428,35 423,30 421,30 421,40 " style="fill:#15d87e; stroke-width:1; stroke:black; " description="&lt;b&gt;LLPMBPKK_00723&lt;/b&gt;&lt;br&gt;3-oxoacyl-[acyl-carrier-protein] reductase&lt;br&gt;Location: 922345 - 923146" locus_tag="LLPMBPKK_00723" class="clusterblast-orf" id="dummy-6_q20_0_all"  />
<polygon points="428,40 432,40 437,35 432,30 428,30 428,40 " style="fill:#3315d8; stroke-width:1; stroke:black; " description="&lt;b&gt;LLPMBPKK_00724&lt;/b&gt;&lt;br&gt;ATP-grasp domain protein&lt;br&gt;Location: 923161 - 924427" locus_tag="LLPMBPKK_00724" class="clusterblast-orf" id="dummy-6_q21_0_all"  />
<polygon points="437,40 442,40 447,35 442,30 437,30 437,40 " style="fill:#d8156f; stroke-width:1; stroke:black; " description="&lt;b&gt;LLPMBPKK_00725&lt;/b&gt;&lt;br&gt;pyridoxal-phosphate dependent enzyme&lt;br&gt;Location: 924438 - 925662" locus_tag="LLPMBPKK_00725" class="clusterblast-orf" id="dummy-6_q22_0_all"  />
<polygon points="447,40 452,40 457,35 452,30 447,30 447,40 " style="fill:#bad815; stroke-width:1; stroke:black; " description="&lt;b&gt;LLPMBPKK_00726&lt;/b&gt;&lt;br&gt;MFS transporter&lt;br&gt;Location: 925667 - 927008" locus_tag="LLPMBPKK_00726" class="clusterblast-orf" id="dummy-6_q23_0_all"  />
<polygon points="457,40 462,40 467,35 462,30 457,30 457,40 " style="fill:#15d8ab; stroke-width:1; stroke:black; " description="&lt;b&gt;LLPMBPKK_00727&lt;/b&gt;&lt;br&gt;transporter monovalent cation:proton antiporter-2(CPA2) family protein&lt;br&gt;Location: 927009 - 928332" locus_tag="LLPMBPKK_00727" class="clusterblast-orf" id="dummy-6_q24_0_all"  />
<polygon points="467,35 472,30 479,30 479,40 472,40 467,35 " style="fill:#6015d8; stroke-width:1; stroke:black; " description="&lt;b&gt;LLPMBPKK_00728&lt;/b&gt;&lt;br&gt;Outer membrane protein assembly factor BamB&lt;br&gt;Location: 928352 - 929804" locus_tag="LLPMBPKK_00728" class="clusterblast-orf" id="dummy-6_q25_0_all"  />
<polygon points="480,35 485,30 485,30 485,40 485,40 480,35 " style="fill:white; stroke-width:1; stroke:black; " description="&lt;b&gt;LLPMBPKK_00729&lt;/b&gt;&lt;br&gt;TetR family transcriptional regulator&lt;br&gt;Location: 930052 - 930694" locus_tag="LLPMBPKK_00729" class="clusterblast-orf" id="dummy-6_q26_0_all"  />
<polygon points="487,40 488,40 493,35 488,30 487,30 487,40 " style="fill:#15d87e; stroke-width:1; stroke:black; " description="&lt;b&gt;LLPMBPKK_00730&lt;/b&gt;&lt;br&gt;oxidoreductase&lt;br&gt;Location: 930855 - 931641" locus_tag="LLPMBPKK_00730" class="clusterblast-orf" id="dummy-6_q27_0_all"  />
<polygon points="493,35 498,30 505,30 505,40 498,40 493,35 " style="fill:#d81542; stroke-width:1; stroke:black; " description="&lt;b&gt;LLPMBPKK_00731&lt;/b&gt;&lt;br&gt;ABC-F family ATP-binding cassettedomain-containing protein&lt;br&gt;Location: 931668 - 933291" locus_tag="LLPMBPKK_00731" class="clusterblast-orf" id="dummy-6_q28_0_all"  />
<polygon points="507,35 510,30 510,40 507,35 " style="fill:white; stroke-width:1; stroke:black; " description="&lt;b&gt;LLPMBPKK_00732&lt;/b&gt;&lt;br&gt;hypothetical protein&lt;br&gt;Location: 933575 - 933890" locus_tag="LLPMBPKK_00732" class="clusterblast-orf" id="dummy-6_q29_0_all"  />
<polygon points="512,35 517,30 518,30 518,40 517,40 512,35 " style="fill:#15d87e; stroke-width:1; stroke:black; " description="&lt;b&gt;LLPMBPKK_00733&lt;/b&gt;&lt;br&gt;SDR family NAD(P)-dependent oxidoreductase&lt;br&gt;Location: 934205 - 934910" locus_tag="LLPMBPKK_00733" class="clusterblast-orf" id="dummy-6_q30_0_all"  />
<polygon points="519,40 522,40 527,35 522,30 519,30 519,40 " style="fill:#8dd815; stroke-width:1; stroke:black; " description="&lt;b&gt;LLPMBPKK_00734&lt;/b&gt;&lt;br&gt;4Fe-4S ferredoxin&lt;br&gt;Location: 935072 - 936182" locus_tag="LLPMBPKK_00734" class="clusterblast-orf" id="dummy-6_q31_0_all"  />
<polygon points="530,40 531,40 536,35 531,30 530,30 530,40 " style="fill:#15d8d8; stroke-width:1; stroke:black; " description="&lt;b&gt;LLPMBPKK_00735&lt;/b&gt;&lt;br&gt;SAM-dependent methyltransferase&lt;br&gt;Location: 936572 - 937370" locus_tag="LLPMBPKK_00735" class="clusterblast-orf" id="dummy-6_q32_0_all"  />
<polygon points="537,35 542,30 545,30 545,40 542,40 537,35 " style="fill:white; stroke-width:1; stroke:black; " description="&lt;b&gt;LLPMBPKK_00736&lt;/b&gt;&lt;br&gt;hypothetical protein&lt;br&gt;Location: 937433 - 938423" locus_tag="LLPMBPKK_00736" class="clusterblast-orf" id="dummy-6_q33_0_all"  />
</g>
<g label="NZ_CP030771" description="NZ_CP030771 (8466519-8568365): Streptomyces sp. YIM 121038 chromosome, comple... (11% of genes show similarity), NRPS,bacteriocin,other" class="clusterblast-cluster"  >
<text x="5" y="70" class="clusterblast-acc"  >
<a xlink:href="https://antismash-db.secondarymetabolites.org/area.html?record=NZ_CP030771&amp;start=8466519&amp;end=8568365" target="_blank">NZ_CP030771 (8466519-8568365)</a>: Streptomyces sp. YIM 121038 chromosome, comple... (11% of genes show similarity), NRPS,bacteriocin,other</text>
<line x1="10" y1="85" x2="778.0" y2="85" style="stroke-width:1; stroke:grey; "  />
</g>
<g id="a6_000"  >
<polygon points="0,85 5,80 6,80 6,90 5,90 0,85 " style="fill:white; stroke-width:1; stroke:black; " description="&lt;b&gt;C9F11_RS35405&lt;/b&gt;&lt;br&gt;ABC transporter permease subunit&lt;br&gt;Location: 8466520 - 8467425" locus_tag="C9F11_RS35405" class="clusterblast-orf" id="dummy-6_h6_8_0"  />
</g>
<g id="a6_001"  >
<polygon points="6,85 11,80 14,80 14,90 11,90 6,85 " style="fill:white; stroke-width:1; stroke:black; " description="&lt;b&gt;C9F11_RS35410&lt;/b&gt;&lt;br&gt;ABC transporter permease subunit&lt;br&gt;Location: 8467427 - 8468395" locus_tag="C9F11_RS35410" class="clusterblast-orf" id="dummy-6_h6_8_1"  />
</g>
<g id="a6_002"  >
<polygon points="17,90 19,90 24,85 19,80 17,80 17,90 " style="fill:white; stroke-width:1; stroke:black; " description="&lt;b&gt;C9F11_RS35420&lt;/b&gt;&lt;br&gt;LysR family transcriptional regulator&lt;br&gt;Location: 8468820 - 8469737" locus_tag="C9F11_RS35420" class="clusterblast-orf" id="dummy-6_h6_8_2"  />
</g>
<g id="a6_003"  >
<polygon points="26,90 30,90 35,85 30,80 26,80 26,90 " style="fill:white; stroke-width:1; stroke:black; " description="&lt;b&gt;C9F11_RS35425&lt;/b&gt;&lt;br&gt;hypothetical protein&lt;br&gt;Location: 8469923 - 8471176" locus_tag="C9F11_RS35425" class="clusterblast-orf" id="dummy-6_h6_8_3"  />
</g>
<g id="a6_004"  >
<polygon points="35,90 37,90 42,85 37,80 35,80 35,90 " style="fill:white; stroke-width:1; stroke:black; " description="&lt;b&gt;C9F11_RS35430&lt;/b&gt;&lt;br&gt;C40 family peptidase&lt;br&gt;Location: 8471189 - 8472088" locus_tag="C9F11_RS35430" class="clusterblast-orf" id="dummy-6_h6_8_4"  />
</g>
<g id="a6_005"  >
<polygon points="43,90 43,90 48,85 43,80 43,80 43,90 " style="fill:white; stroke-width:1; stroke:black; " description="&lt;b&gt;C9F11_RS35435&lt;/b&gt;&lt;br&gt;DUF664 domain-containing protein&lt;br&gt;Location: 8472251 - 8472856" locus_tag="C9F11_RS35435" class="clusterblast-orf" id="dummy-6_h6_8_5"  />
</g>
<g id="a6_006"  >
<polygon points="49,90 54,90 59,85 54,80 49,80 49,90 " style="fill:white; stroke-width:1; stroke:black; " description="&lt;b&gt;C9F11_RS35440&lt;/b&gt;&lt;br&gt;tetratricopeptide repeat protein&lt;br&gt;Location: 8473029 - 8474345" locus_tag="C9F11_RS35440" class="clusterblast-orf" id="dummy-6_h6_8_6"  />
</g>
<g id="a6_007"  >
<polygon points="64,90 65,90 70,85 65,80 64,80 64,90 " style="fill:white; stroke-width:1; stroke:black; " description="&lt;b&gt;C9F11_RS35450&lt;/b&gt;&lt;br&gt;aldo/keto reductase&lt;br&gt;Location: 8474880 - 8475776" locus_tag="C9F11_RS35450" class="clusterblast-orf" id="dummy-6_h6_8_7"  />
</g>
<g id="a6_008"  >
<polygon points="74,90 79,90 84,85 79,80 74,80 74,90 " style="fill:white; stroke-width:1; stroke:black; " description="&lt;b&gt;C9F11_RS35455&lt;/b&gt;&lt;br&gt;amidohydrolase/deacetylase family metallohydrolase&lt;br&gt;Location: 8476247 - 8477566" locus_tag="C9F11_RS35455" class="clusterblast-orf" id="dummy-6_h6_8_8"  />
</g>
<g id="a6_009"  >
<polygon points="88,90 94,90 99,85 94,80 88,80 88,90 " style="fill:white; stroke-width:1; stroke:black; " description="&lt;b&gt;C9F11_RS35460&lt;/b&gt;&lt;br&gt;DEAD/DEAH box helicase&lt;br&gt;Location: 8478113 - 8479519" locus_tag="C9F11_RS35460" class="clusterblast-orf" id="dummy-6_h6_8_9"  />
</g>
<g id="a6_0010"  >
<polygon points="100,90 103,90 108,85 103,80 100,80 100,90 " style="fill:white; stroke-width:1; stroke:black; " description="&lt;b&gt;C9F11_RS35465&lt;/b&gt;&lt;br&gt;hypothetical protein&lt;br&gt;Location: 8479665 - 8480744" locus_tag="C9F11_RS35465" class="clusterblast-orf" id="dummy-6_h6_8_10"  />
</g>
<g id="a6_0011"  >
<polygon points="109,90 110,90 115,85 110,80 109,80 109,90 " style="fill:white; stroke-width:1; stroke:black; " description="&lt;b&gt;C9F11_RS35470&lt;/b&gt;&lt;br&gt;DUF3592 domain-containing protein&lt;br&gt;Location: 8480769 - 8481632" locus_tag="C9F11_RS35470" class="clusterblast-orf" id="dummy-6_h6_8_11"  />
</g>
<g id="a6_0012"  >
<polygon points="116,85 121,80 131,80 131,90 121,90 116,85 " style="fill:white; stroke-width:1; stroke:black; " description="&lt;b&gt;C9F11_RS35475&lt;/b&gt;&lt;br&gt;RiPP maturation radical SAM protein 1&lt;br&gt;Location: 8481715 - 8483631" locus_tag="C9F11_RS35475" class="clusterblast-orf" id="dummy-6_h6_8_12"  />
</g>
<g id="a6_0013"  >
<polygon points="133,85 135,80 135,90 133,85 " style="fill:white; stroke-width:1; stroke:black; " description="&lt;b&gt;C9F11_RS35480&lt;/b&gt;&lt;br&gt;ferredoxin&lt;br&gt;Location: 8483978 - 8484220" locus_tag="C9F11_RS35480" class="clusterblast-orf" id="dummy-6_h6_8_13"  />
</g>
<g id="a6_0014"  >
<polygon points="138,90 182,90 187,85 182,80 138,80 138,90 " style="fill:white; stroke-width:1; stroke:black; " description="&lt;b&gt;C9F11_RS35485&lt;/b&gt;&lt;br&gt;AMP-binding protein&lt;br&gt;Location: 8484626 - 8491051" locus_tag="C9F11_RS35485" class="clusterblast-orf" id="dummy-6_h6_8_14"  />
</g>
<g id="a6_0015"  >
<polygon points="187,90 188,90 193,85 188,80 187,80 187,90 " style="fill:white; stroke-width:1; stroke:black; " description="&lt;b&gt;C9F11_RS35490&lt;/b&gt;&lt;br&gt;alpha/beta fold hydrolase&lt;br&gt;Location: 8491058 - 8491840" locus_tag="C9F11_RS35490" class="clusterblast-orf" id="dummy-6_h6_8_15"  />
</g>
<g id="a6_0016"  >
<polygon points="193,90 219,90 224,85 219,80 193,80 193,90 " style="fill:white; stroke-width:1; stroke:black; " description="&lt;b&gt;C9F11_RS35495&lt;/b&gt;&lt;br&gt;SDR family NAD(P)-dependent oxidoreductase&lt;br&gt;Location: 8491837 - 8495796" locus_tag="C9F11_RS35495" class="clusterblast-orf" id="dummy-6_h6_8_16"  />
</g>
<g id="a6_0017"  >
<polygon points="224,90 339,90 344,85 339,80 224,80 224,90 " style="fill:#d89c15; stroke-width:1; stroke:black; " description="&lt;b&gt;C9F11_RS47650&lt;/b&gt;&lt;br&gt;amino acid adenylation domain-containing protein&lt;br&gt;Location: 8495858 - 8511508&lt;br&gt;&lt;br&gt;&lt;b&gt;BlastP hit with LLPMBPKK_00718&lt;/b&gt;&lt;br&gt;Percentage identity: 39&lt;br&gt;Percentage coverage: 98&lt;br&gt;BLAST bit score: 290&lt;br&gt;E-value: 1.71e-83" locus_tag="C9F11_RS47650" class="clusterblast-orf" id="dummy-6_h6_8_17"  />
</g>
<g id="a6_0018"  >
<polygon points="345,90 350,90 355,85 350,80 345,80 345,90 " style="fill:white; stroke-width:1; stroke:black; " description="&lt;b&gt;C9F11_RS35510&lt;/b&gt;&lt;br&gt;SidA/IucD/PvdA family monooxygenase&lt;br&gt;Location: 8511600 - 8512907" locus_tag="C9F11_RS35510" class="clusterblast-orf" id="dummy-6_h6_8_18"  />
</g>
<g id="a6_0019"  >
<polygon points="355,90 357,85 355,80 355,90 " style="fill:white; stroke-width:1; stroke:black; " description="&lt;b&gt;C9F11_RS35515&lt;/b&gt;&lt;br&gt;MbtH family NRPS accessory protein&lt;br&gt;Location: 8512904 - 8513149" locus_tag="C9F11_RS35515" class="clusterblast-orf" id="dummy-6_h6_8_19"  />
</g>
<g id="a6_0020"  >
<polygon points="357,90 361,90 366,85 361,80 357,80 357,90 " style="fill:white; stroke-width:1; stroke:black; " description="&lt;b&gt;C9F11_RS35520&lt;/b&gt;&lt;br&gt;cytochrome P450&lt;br&gt;Location: 8513146 - 8514348" locus_tag="C9F11_RS35520" class="clusterblast-orf" id="dummy-6_h6_8_20"  />
</g>
<g id="a6_0021"  >
<polygon points="367,85 371,80 371,90 367,85 " style="fill:white; stroke-width:1; stroke:black; " description="&lt;b&gt;C9F11_RS35525&lt;/b&gt;&lt;br&gt;LmbU family transcriptional regulator&lt;br&gt;Location: 8514457 - 8515032" locus_tag="C9F11_RS35525" class="clusterblast-orf" id="dummy-6_h6_8_21"  />
</g>
<g id="a6_0022"  >
<polygon points="374,90 376,85 374,80 374,90 " style="fill:white; stroke-width:1; stroke:black; " description="&lt;b&gt;C9F11_RS35530&lt;/b&gt;&lt;br&gt;hypothetical protein&lt;br&gt;Location: 8515441 - 8515680" locus_tag="C9F11_RS35530" class="clusterblast-orf" id="dummy-6_h6_8_22"  />
</g>
<g id="a6_0023"  >
<polygon points="376,90 380,85 376,80 376,90 " style="fill:white; stroke-width:1; stroke:black; " description="&lt;b&gt;C9F11_RS35535&lt;/b&gt;&lt;br&gt;Clp protease&lt;br&gt;Location: 8515716 - 8516165" locus_tag="C9F11_RS35535" class="clusterblast-orf" id="dummy-6_h6_8_23"  />
</g>
<g id="a6_0024"  >
<polygon points="384,90 386,90 391,85 386,80 384,80 384,90 " style="fill:#d81542; stroke-width:1; stroke:black; " description="&lt;b&gt;C9F11_RS35540&lt;/b&gt;&lt;br&gt;ATP-binding cassette domain-containing protein&lt;br&gt;Location: 8516666 - 8517595&lt;br&gt;&lt;br&gt;&lt;b&gt;BlastP hit with LLPMBPKK_00731&lt;/b&gt;&lt;br&gt;Percentage identity: 35&lt;br&gt;Percentage coverage: 40&lt;br&gt;BLAST bit score: 80&lt;br&gt;E-value: 2.02e-14" locus_tag="C9F11_RS35540" class="clusterblast-orf" id="dummy-6_h6_8_24"  />
</g>
<g id="a6_0025"  >
<polygon points="391,90 392,90 397,85 392,80 391,80 391,90 " style="fill:white; stroke-width:1; stroke:black; " description="&lt;b&gt;C9F11_RS35545&lt;/b&gt;&lt;br&gt;ABC transporter permease&lt;br&gt;Location: 8517592 - 8518437" locus_tag="C9F11_RS35545" class="clusterblast-orf" id="dummy-6_h6_8_25"  />
</g>
<g id="a6_0026"  >
<polygon points="404,90 404,90 409,85 404,80 404,80 404,90 " style="fill:white; stroke-width:1; stroke:black; " description="&lt;b&gt;C9F11_RS35550&lt;/b&gt;&lt;br&gt;response regulator&lt;br&gt;Location: 8519337 - 8519951" locus_tag="C9F11_RS35550" class="clusterblast-orf" id="dummy-6_h6_8_26"  />
</g>
<g id="a6_0027"  >
<polygon points="411,90 411,90 416,85 411,80 411,80 411,90 " style="fill:white; stroke-width:1; stroke:black; " description="&lt;b&gt;C9F11_RS35555&lt;/b&gt;&lt;br&gt;FMN-binding negative transcriptional regulator&lt;br&gt;Location: 8520222 - 8520929" locus_tag="C9F11_RS35555" class="clusterblast-orf" id="dummy-6_h6_8_27"  />
</g>
<g id="a6_0028"  >
<polygon points="416,90 417,90 422,85 417,80 416,80 416,90 " style="fill:#15d851; stroke-width:1; stroke:black; " description="&lt;b&gt;C9F11_RS35560&lt;/b&gt;&lt;br&gt;alpha/beta fold hydrolase&lt;br&gt;Location: 8520939 - 8521637&lt;br&gt;&lt;br&gt;&lt;b&gt;BlastP hit with LLPMBPKK_00719&lt;/b&gt;&lt;br&gt;Percentage identity: 35&lt;br&gt;Percentage coverage: 93&lt;br&gt;BLAST bit score: 113&lt;br&gt;E-value: 1.22e-28" locus_tag="C9F11_RS35560" class="clusterblast-orf" id="dummy-6_h6_8_28"  />
</g>
<g id="a6_0029"  >
<polygon points="422,90 423,90 428,85 423,80 422,80 422,90 " style="fill:#15d87e; stroke-width:1; stroke:black; " description="&lt;b&gt;C9F11_RS35565&lt;/b&gt;&lt;br&gt;SDR family oxidoreductase&lt;br&gt;Location: 8521651 - 8522481&lt;br&gt;&lt;br&gt;&lt;b&gt;BlastP hit with LLPMBPKK_00723&lt;/b&gt;&lt;br&gt;Percentage identity: 39&lt;br&gt;Percentage coverage: 77&lt;br&gt;BLAST bit score: 101&lt;br&gt;E-value: 1.54e-23" locus_tag="C9F11_RS35565" class="clusterblast-orf" id="dummy-6_h6_8_29"  />
</g>
<g id="a6_0030"  >
<polygon points="428,90 446,90 451,85 446,80 428,80 428,90 " style="fill:white; stroke-width:1; stroke:black; " description="&lt;b&gt;C9F11_RS35570&lt;/b&gt;&lt;br&gt;amino acid adenylation domain-containing protein&lt;br&gt;Location: 8522519 - 8525485" locus_tag="C9F11_RS35570" class="clusterblast-orf" id="dummy-6_h6_8_30"  />
</g>
<g id="a6_0031"  >
<polygon points="452,90 456,90 461,85 456,80 452,80 452,90 " style="fill:white; stroke-width:1; stroke:black; " description="&lt;b&gt;C9F11_RS35575&lt;/b&gt;&lt;br&gt;cytochrome P450&lt;br&gt;Location: 8525571 - 8526758" locus_tag="C9F11_RS35575" class="clusterblast-orf" id="dummy-6_h6_8_31"  />
</g>
<g id="a6_0032"  >
<polygon points="461,90 465,90 470,85 465,80 461,80 461,90 " style="fill:white; stroke-width:1; stroke:black; " description="&lt;b&gt;C9F11_RS35580&lt;/b&gt;&lt;br&gt;cytochrome P450&lt;br&gt;Location: 8526785 - 8527975" locus_tag="C9F11_RS35580" class="clusterblast-orf" id="dummy-6_h6_8_32"  />
</g>
<g id="a6_0033"  >
<polygon points="470,90 473,90 478,85 473,80 470,80 470,90 " style="fill:white; stroke-width:1; stroke:black; " description="&lt;b&gt;C9F11_RS35585&lt;/b&gt;&lt;br&gt;helix-turn-helix domain-containing protein&lt;br&gt;Location: 8527992 - 8529047" locus_tag="C9F11_RS35585" class="clusterblast-orf" id="dummy-6_h6_8_33"  />
</g>
<g id="a6_0034"  >
<polygon points="479,85 483,80 483,90 479,85 " style="fill:#1551d8; stroke-width:1; stroke:black; " description="&lt;b&gt;C9F11_RS35590&lt;/b&gt;&lt;br&gt;flavin reductase&lt;br&gt;Location: 8529078 - 8529596&lt;br&gt;&lt;br&gt;&lt;b&gt;BlastP hit with LLPMBPKK_00716&lt;/b&gt;&lt;br&gt;Percentage identity: 50&lt;br&gt;Percentage coverage: 83&lt;br&gt;BLAST bit score: 134&lt;br&gt;E-value: 4.39e-38" locus_tag="C9F11_RS35590" class="clusterblast-orf" id="dummy-6_h6_8_34"  />
</g>
<g id="a6_0035"  >
<polygon points="485,90 492,90 497,85 492,80 485,80 485,90 " style="fill:#15d824; stroke-width:1; stroke:black; " description="&lt;b&gt;C9F11_RS35595&lt;/b&gt;&lt;br&gt;tryptophan 7-halogenase&lt;br&gt;Location: 8529856 - 8531454&lt;br&gt;&lt;br&gt;&lt;b&gt;BlastP hit with LLPMBPKK_00715&lt;/b&gt;&lt;br&gt;Percentage identity: 60&lt;br&gt;Percentage coverage: 98&lt;br&gt;BLAST bit score: 689&lt;br&gt;E-value: 5.44e-246" locus_tag="C9F11_RS35595" class="clusterblast-orf" id="dummy-6_h6_8_35"  />
</g>
<g id="a6_0036"  >
<polygon points="497,90 502,90 507,85 502,80 497,80 497,90 " style="fill:#15d8ab; stroke-width:1; stroke:black; " description="&lt;b&gt;C9F11_RS35600&lt;/b&gt;&lt;br&gt;cation:proton antiporter&lt;br&gt;Location: 8531488 - 8532819&lt;br&gt;&lt;br&gt;&lt;b&gt;BlastP hit with LLPMBPKK_00727&lt;/b&gt;&lt;br&gt;Percentage identity: 37&lt;br&gt;Percentage coverage: 96&lt;br&gt;BLAST bit score: 202&lt;br&gt;E-value: 2.48e-58" locus_tag="C9F11_RS35600" class="clusterblast-orf" id="dummy-6_h6_8_36"  />
</g>
<g id="a6_0037"  >
<polygon points="508,85 513,80 515,80 515,90 513,90 508,85 " style="fill:#15d87e; stroke-width:1; stroke:black; " description="&lt;b&gt;C9F11_RS35605&lt;/b&gt;&lt;br&gt;SDR family NAD(P)-dependent oxidoreductase&lt;br&gt;Location: 8532918 - 8533796&lt;br&gt;&lt;br&gt;&lt;b&gt;BlastP hit with LLPMBPKK_00723&lt;/b&gt;&lt;br&gt;Percentage identity: 34&lt;br&gt;Percentage coverage: 82&lt;br&gt;BLAST bit score: 93&lt;br&gt;E-value: 3.91e-20&lt;br&gt;&lt;br&gt;&lt;b&gt;BlastP hit with LLPMBPKK_00733&lt;/b&gt;&lt;br&gt;Percentage identity: 36&lt;br&gt;Percentage coverage: 79&lt;br&gt;BLAST bit score: 75&lt;br&gt;E-value: 7.67e-14" locus_tag="C9F11_RS35605" class="clusterblast-orf" id="dummy-6_h6_8_37"  />
</g>
<g id="a6_0038"  >
<polygon points="517,90 520,85 517,80 517,90 " style="fill:white; stroke-width:1; stroke:black; " description="&lt;b&gt;C9F11_RS35615&lt;/b&gt;&lt;br&gt;VOC family protein&lt;br&gt;Location: 8534077 - 8534511" locus_tag="C9F11_RS35615" class="clusterblast-orf" id="dummy-6_h6_8_38"  />
</g>
<g id="a6_0039"  >
<polygon points="521,90 523,90 528,85 523,80 521,80 521,90 " style="fill:white; stroke-width:1; stroke:black; " description="&lt;b&gt;C9F11_RS35620&lt;/b&gt;&lt;br&gt;RNA polymerase sigma factor SigF&lt;br&gt;Location: 8534654 - 8535511" locus_tag="C9F11_RS35620" class="clusterblast-orf" id="dummy-6_h6_8_39"  />
</g>
<g id="a6_0040"  >
<polygon points="531,90 533,90 538,85 533,80 531,80 531,90 " style="fill:white; stroke-width:1; stroke:black; " description="&lt;b&gt;C9F11_RS35625&lt;/b&gt;&lt;br&gt;RsbRD N-terminal domain-containing protein&lt;br&gt;Location: 8535903 - 8536775" locus_tag="C9F11_RS35625" class="clusterblast-orf" id="dummy-6_h6_8_40"  />
</g>
<g id="a6_0041"  >
<polygon points="538,90 541,85 538,80 538,90 " style="fill:white; stroke-width:1; stroke:black; " description="&lt;b&gt;C9F11_RS35630&lt;/b&gt;&lt;br&gt;STAS domain-containing protein&lt;br&gt;Location: 8536772 - 8537170" locus_tag="C9F11_RS35630" class="clusterblast-orf" id="dummy-6_h6_8_41"  />
</g>
<g id="a6_0042"  >
<polygon points="541,90 544,85 541,80 541,90 " style="fill:white; stroke-width:1; stroke:black; " description="&lt;b&gt;C9F11_RS35635&lt;/b&gt;&lt;br&gt;ATP-binding protein&lt;br&gt;Location: 8537167 - 8537643" locus_tag="C9F11_RS35635" class="clusterblast-orf" id="dummy-6_h6_8_42"  />
</g>
<g id="a6_0043"  >
<polygon points="544,90 548,90 553,85 548,80 544,80 544,90 " style="fill:white; stroke-width:1; stroke:black; " description="&lt;b&gt;C9F11_RS35640&lt;/b&gt;&lt;br&gt;SpoIIE family protein phosphatase&lt;br&gt;Location: 8537640 - 8538731" locus_tag="C9F11_RS35640" class="clusterblast-orf" id="dummy-6_h6_8_43"  />
</g>
<g id="a6_0044"  >
<polygon points="553,90 557,90 562,85 557,80 553,80 553,90 " style="fill:white; stroke-width:1; stroke:black; " description="&lt;b&gt;C9F11_RS35645&lt;/b&gt;&lt;br&gt;SpoIIE family protein phosphatase&lt;br&gt;Location: 8538728 - 8539999" locus_tag="C9F11_RS35645" class="clusterblast-orf" id="dummy-6_h6_8_44"  />
</g>
<g id="a6_0045"  >
<polygon points="562,85 566,80 566,90 562,85 " style="fill:white; stroke-width:1; stroke:black; " description="&lt;b&gt;C9F11_RS35650&lt;/b&gt;&lt;br&gt;anti-sigma factor antagonist&lt;br&gt;Location: 8540007 - 8540438" locus_tag="C9F11_RS35650" class="clusterblast-orf" id="dummy-6_h6_8_45"  />
</g>
<g id="a6_0046"  >
<polygon points="567,85 570,80 570,90 567,85 " style="fill:white; stroke-width:1; stroke:black; " description="&lt;b&gt;C9F11_RS35655&lt;/b&gt;&lt;br&gt;ATP-binding protein&lt;br&gt;Location: 8540625 - 8541020" locus_tag="C9F11_RS35655" class="clusterblast-orf" id="dummy-6_h6_8_46"  />
</g>
<g id="a6_0047"  >
<polygon points="576,90 581,90 586,85 581,80 576,80 576,90 " style="fill:white; stroke-width:1; stroke:black; " description="&lt;b&gt;C9F11_RS35660&lt;/b&gt;&lt;br&gt;MFS transporter&lt;br&gt;Location: 8541767 - 8543044" locus_tag="C9F11_RS35660" class="clusterblast-orf" id="dummy-6_h6_8_47"  />
</g>
<g id="a6_0048"  >
<polygon points="586,90 587,90 592,85 587,80 586,80 586,90 " style="fill:white; stroke-width:1; stroke:black; " description="&lt;b&gt;C9F11_RS35665&lt;/b&gt;&lt;br&gt;phytanoyl-CoA dioxygenase family protein&lt;br&gt;Location: 8543130 - 8543930" locus_tag="C9F11_RS35665" class="clusterblast-orf" id="dummy-6_h6_8_48"  />
</g>
<g id="a6_0049"  >
<polygon points="592,90 592,90 597,85 592,80 592,80 592,90 " style="fill:white; stroke-width:1; stroke:black; " description="&lt;b&gt;C9F11_RS35670&lt;/b&gt;&lt;br&gt;hypothetical protein&lt;br&gt;Location: 8543947 - 8544531" locus_tag="C9F11_RS35670" class="clusterblast-orf" id="dummy-6_h6_8_49"  />
</g>
<g id="a6_0050"  >
<polygon points="597,90 624,90 629,85 624,80 597,80 597,90 " style="fill:white; stroke-width:1; stroke:black; " description="&lt;b&gt;C9F11_RS35675&lt;/b&gt;&lt;br&gt;amino acid adenylation domain-containing protein&lt;br&gt;Location: 8544528 - 8548754" locus_tag="C9F11_RS35675" class="clusterblast-orf" id="dummy-6_h6_8_50"  />
</g>
<g id="a6_0051"  >
<polygon points="630,90 635,90 640,85 635,80 630,80 630,90 " style="fill:white; stroke-width:1; stroke:black; " description="&lt;b&gt;C9F11_RS35680&lt;/b&gt;&lt;br&gt;aminotransferase class III-fold pyridoxal phosphate-dependent enzyme&lt;br&gt;Location: 8548838 - 8550094" locus_tag="C9F11_RS35680" class="clusterblast-orf" id="dummy-6_h6_8_51"  />
</g>
<g id="a6_0052"  >
<polygon points="640,90 641,90 646,85 641,80 640,80 640,90 " style="fill:white; stroke-width:1; stroke:black; " description="&lt;b&gt;C9F11_RS35685&lt;/b&gt;&lt;br&gt;TauD/TfdA family dioxygenase&lt;br&gt;Location: 8550152 - 8550991" locus_tag="C9F11_RS35685" class="clusterblast-orf" id="dummy-6_h6_8_52"  />
</g>
<g id="a6_0053"  >
<polygon points="646,90 647,90 652,85 647,80 646,80 646,90 " style="fill:white; stroke-width:1; stroke:black; " description="&lt;b&gt;C9F11_RS35690&lt;/b&gt;&lt;br&gt;SDR family NAD(P)-dependent oxidoreductase&lt;br&gt;Location: 8550988 - 8551743" locus_tag="C9F11_RS35690" class="clusterblast-orf" id="dummy-6_h6_8_53"  />
</g>
<g id="a6_0054"  >
<polygon points="652,90 653,90 658,85 653,80 652,80 652,90 " style="fill:white; stroke-width:1; stroke:black; " description="&lt;b&gt;C9F11_RS35695&lt;/b&gt;&lt;br&gt;methyltransferase domain-containing protein&lt;br&gt;Location: 8551748 - 8552518" locus_tag="C9F11_RS35695" class="clusterblast-orf" id="dummy-6_h6_8_54"  />
</g>
<g id="a6_0055"  >
<polygon points="659,85 664,80 664,80 664,90 664,90 659,85 " style="fill:white; stroke-width:1; stroke:black; " description="&lt;b&gt;C9F11_RS35700&lt;/b&gt;&lt;br&gt;hypothetical protein&lt;br&gt;Location: 8552639 - 8553235" locus_tag="C9F11_RS35700" class="clusterblast-orf" id="dummy-6_h6_8_55"  />
</g>
<g id="a6_0056"  >
<polygon points="668,90 669,90 674,85 669,80 668,80 668,90 " style="fill:white; stroke-width:1; stroke:black; " description="&lt;b&gt;C9F11_RS35705&lt;/b&gt;&lt;br&gt;chitinase&lt;br&gt;Location: 8553791 - 8554621" locus_tag="C9F11_RS35705" class="clusterblast-orf" id="dummy-6_h6_8_56"  />
</g>
<g id="a6_0057"  >
<polygon points="675,85 680,80 697,80 697,90 680,90 675,85 " style="fill:white; stroke-width:1; stroke:black; " description="&lt;b&gt;C9F11_RS35710&lt;/b&gt;&lt;br&gt;AAA family ATPase&lt;br&gt;Location: 8554687 - 8557578" locus_tag="C9F11_RS35710" class="clusterblast-orf" id="dummy-6_h6_8_57"  />
</g>
<g id="a6_0058"  >
<polygon points="701,90 706,90 711,85 706,80 701,80 701,90 " style="fill:white; stroke-width:1; stroke:black; " description="&lt;b&gt;C9F11_RS35715&lt;/b&gt;&lt;br&gt;MFS transporter&lt;br&gt;Location: 8558069 - 8559391" locus_tag="C9F11_RS35715" class="clusterblast-orf" id="dummy-6_h6_8_58"  />
</g>
<g id="a6_0059"  >
<polygon points="712,85 715,80 715,90 712,85 " style="fill:white; stroke-width:1; stroke:black; " description="&lt;b&gt;C9F11_RS35720&lt;/b&gt;&lt;br&gt;TIGR03618 family F420-dependent PPOX class oxidoreductase&lt;br&gt;Location: 8559522 - 8559953" locus_tag="C9F11_RS35720" class="clusterblast-orf" id="dummy-6_h6_8_59"  />
</g>
<g id="a6_0060"  >
<polygon points="717,90 722,90 727,85 722,80 717,80 717,90 " style="fill:white; stroke-width:1; stroke:black; " description="&lt;b&gt;C9F11_RS35725&lt;/b&gt;&lt;br&gt;monooxygenase&lt;br&gt;Location: 8560152 - 8561531" locus_tag="C9F11_RS35725" class="clusterblast-orf" id="dummy-6_h6_8_60"  />
</g>
<g id="a6_0061"  >
<polygon points="727,85 728,80 728,90 727,85 " style="fill:white; stroke-width:1; stroke:black; " description="&lt;b&gt;C9F11_RS47655&lt;/b&gt;&lt;br&gt;hypothetical protein&lt;br&gt;Location: 8561528 - 8561695" locus_tag="C9F11_RS47655" class="clusterblast-orf" id="dummy-6_h6_8_61"  />
</g>
<g id="a6_0062"  >
<polygon points="728,85 733,80 737,80 737,90 733,90 728,85 " style="fill:white; stroke-width:1; stroke:black; " description="&lt;b&gt;C9F11_RS47660&lt;/b&gt;&lt;br&gt;hypothetical protein&lt;br&gt;Location: 8561695 - 8562804" locus_tag="C9F11_RS47660" class="clusterblast-orf" id="dummy-6_h6_8_62"  />
</g>
<g id="a6_0063"  >
<polygon points="737,85 742,80 745,80 745,90 742,90 737,85 " style="fill:white; stroke-width:1; stroke:black; " description="&lt;b&gt;C9F11_RS35735&lt;/b&gt;&lt;br&gt;hypothetical protein&lt;br&gt;Location: 8562810 - 8563844" locus_tag="C9F11_RS35735" class="clusterblast-orf" id="dummy-6_h6_8_63"  />
</g>
<g id="a6_0064"  >
<polygon points="745,85 750,80 753,80 753,90 750,90 745,85 " style="fill:white; stroke-width:1; stroke:black; " description="&lt;b&gt;C9F11_RS35740&lt;/b&gt;&lt;br&gt;phage tail family protein&lt;br&gt;Location: 8563894 - 8564868" locus_tag="C9F11_RS35740" class="clusterblast-orf" id="dummy-6_h6_8_64"  />
</g>
<g id="a6_0065"  >
<polygon points="753,85 758,80 762,80 762,90 758,90 753,85 " style="fill:white; stroke-width:1; stroke:black; " description="&lt;b&gt;C9F11_RS35745&lt;/b&gt;&lt;br&gt;hypothetical protein&lt;br&gt;Location: 8564878 - 8566053" locus_tag="C9F11_RS35745" class="clusterblast-orf" id="dummy-6_h6_8_65"  />
</g>
<g id="a6_0066"  >
<polygon points="762,85 766,80 766,90 762,85 " style="fill:white; stroke-width:1; stroke:black; " description="&lt;b&gt;C9F11_RS35750&lt;/b&gt;&lt;br&gt;hypothetical protein&lt;br&gt;Location: 8566087 - 8566578" locus_tag="C9F11_RS35750" class="clusterblast-orf" id="dummy-6_h6_8_66"  />
</g>
<g id="a6_0067"  >
<polygon points="766,85 769,80 769,90 766,85 " style="fill:white; stroke-width:1; stroke:black; " description="&lt;b&gt;C9F11_RS35755&lt;/b&gt;&lt;br&gt;hypothetical protein&lt;br&gt;Location: 8566609 - 8566935" locus_tag="C9F11_RS35755" class="clusterblast-orf" id="dummy-6_h6_8_67"  />
</g>
<g id="a6_0068"  >
<polygon points="769,85 771,80 771,90 769,85 " style="fill:white; stroke-width:1; stroke:black; " description="&lt;b&gt;C9F11_RS35760&lt;/b&gt;&lt;br&gt;hypothetical protein&lt;br&gt;Location: 8567001 - 8567288" locus_tag="C9F11_RS35760" class="clusterblast-orf" id="dummy-6_h6_8_68"  />
</g>
<g id="a6_0069"  >
<polygon points="772,85 776,80 776,90 772,85 " style="fill:white; stroke-width:1; stroke:black; " description="&lt;b&gt;C9F11_RS35765&lt;/b&gt;&lt;br&gt;phage tail protein&lt;br&gt;Location: 8567334 - 8567906" locus_tag="C9F11_RS35765" class="clusterblast-orf" id="dummy-6_h6_8_69"  />
</g>
<g id="a6_0070"  >
<polygon points="776,85 780,80 780,90 776,85 " style="fill:white; stroke-width:1; stroke:black; " description="&lt;b&gt;C9F11_RS35770&lt;/b&gt;&lt;br&gt;hypothetical protein&lt;br&gt;Location: 8567958 - 8568365" locus_tag="C9F11_RS35770" class="clusterblast-orf" id="dummy-6_h6_8_70"  />
</g>
</svg>
