<svg xmlns="http://www.w3.org/2000/svg" xmlns:xlink="http://www.w3.org/1999/xlink" version="1.1" x="0" y="0" height="230" width="800" viewBox="0 0 800 230" preserveAspectRatio="none"  >
<g label="Query sequence" class="clusterblast-cluster"  >
<text x="5" y="20" class="clusterblast-acc"  >
Query sequence</text>
<line x1="10" y1="35" x2="778.0" y2="35" style="stroke-width:1; stroke:grey; "  />
<polygon points="11,35 16,30 28,30 28,40 16,40 11,35 " style="fill:#d81515; stroke-width:1; stroke:black; " description="&lt;b&gt;LLPMBPKK_06120&lt;/b&gt;&lt;br&gt;TerB family tellurite resistance protein&lt;br&gt;Location: 7067757 - 7068213" locus_tag="LLPMBPKK_06120" class="clusterblast-orf" id="dummy-25_q0_0_all"  />
<polygon points="36,35 41,30 53,30 53,40 41,40 36,35 " style="fill:#67d815; stroke-width:1; stroke:black; " description="&lt;b&gt;LLPMBPKK_06121&lt;/b&gt;&lt;br&gt;hypothetical protein&lt;br&gt;Location: 7068443 - 7068896" locus_tag="LLPMBPKK_06121" class="clusterblast-orf" id="dummy-25_q1_0_all"  />
<polygon points="53,35 58,30 78,30 78,40 58,40 53,35 " style="fill:#15b9d8; stroke-width:1; stroke:black; " description="&lt;b&gt;LLPMBPKK_06122&lt;/b&gt;&lt;br&gt;cholesterol esterase&lt;br&gt;Location: 7068901 - 7069600" locus_tag="LLPMBPKK_06122" class="clusterblast-orf" id="dummy-25_q2_0_all"  />
<polygon points="102,40 120,40 125,35 120,30 102,30 102,40 " style="fill:#a515d8; stroke-width:1; stroke:black; " description="&lt;b&gt;LLPMBPKK_06123&lt;/b&gt;&lt;br&gt;hypothetical protein&lt;br&gt;Location: 7070241 - 7070892" locus_tag="LLPMBPKK_06123" class="clusterblast-orf" id="dummy-25_q3_0_all"  />
<polygon points="126,35 131,30 160,30 160,40 131,40 126,35 " style="fill:#d85315; stroke-width:1; stroke:black; " description="&lt;b&gt;LLPMBPKK_06124&lt;/b&gt;&lt;br&gt;chitin-binding protein&lt;br&gt;Location: 7070910 - 7071852" locus_tag="LLPMBPKK_06124" class="clusterblast-orf" id="dummy-25_q4_0_all"  />
<polygon points="176,40 195,40 200,35 195,30 176,30 176,40 " style="fill:#2ad815; stroke-width:1; stroke:black; " description="&lt;b&gt;LLPMBPKK_06125&lt;/b&gt;&lt;br&gt;TetR family transcriptional regulator&lt;br&gt;Location: 7072281 - 7072929" locus_tag="LLPMBPKK_06125" class="clusterblast-orf" id="dummy-25_q5_0_all"  />
<polygon points="201,40 239,40 244,35 239,30 201,30 201,40 " style="fill:#157cd8; stroke-width:1; stroke:black; " description="&lt;b&gt;LLPMBPKK_06126&lt;/b&gt;&lt;br&gt;protein-glutamate O-methyltransferase familyprotein&lt;br&gt;Location: 7072951 - 7074151" locus_tag="LLPMBPKK_06126" class="clusterblast-orf" id="dummy-25_q6_0_all"  />
<polygon points="245,35 250,30 291,30 291,40 250,40 245,35 " style="fill:#d815ce; stroke-width:1; stroke:black; " description="&lt;b&gt;LLPMBPKK_06127&lt;/b&gt;&lt;br&gt;cytochrome P450&lt;br&gt;Location: 7074170 - 7075436" locus_tag="LLPMBPKK_06127" class="clusterblast-orf" id="dummy-25_q7_0_all"  />
<polygon points="291,35 296,30 322,30 322,40 296,40 291,35 " style="fill:#d89015; stroke-width:1; stroke:black; " description="&lt;b&gt;LLPMBPKK_06128&lt;/b&gt;&lt;br&gt;alpha/beta fold hydrolase&lt;br&gt;Location: 7075432 - 7076287" locus_tag="LLPMBPKK_06128" class="clusterblast-orf" id="dummy-25_q8_0_all"  />
<polygon points="328,40 402,40 407,35 402,30 328,30 328,40 " style="fill:#15d83e; stroke-width:1; stroke:black; " description="&lt;b&gt;LLPMBPKK_06129&lt;/b&gt;&lt;br&gt;germacradienol/geosmin synthase&lt;br&gt;Location: 7076439 - 7078602" locus_tag="LLPMBPKK_06129" class="clusterblast-orf" id="dummy-25_q9_0_all"  />
<polygon points="411,40 474,40 479,35 474,30 411,30 411,40 " style="fill:#153ed8; stroke-width:1; stroke:black; " description="&lt;b&gt;LLPMBPKK_06130&lt;/b&gt;&lt;br&gt;laccase&lt;br&gt;Location: 7078716 - 7080591" locus_tag="LLPMBPKK_06130" class="clusterblast-orf" id="dummy-25_q10_0_all"  />
<polygon points="481,35 486,30 490,30 490,40 486,40 481,35 " style="fill:#d81590; stroke-width:1; stroke:black; " description="&lt;b&gt;LLPMBPKK_06131&lt;/b&gt;&lt;br&gt;CTP synthase&lt;br&gt;Location: 7080630 - 7080876" locus_tag="LLPMBPKK_06131" class="clusterblast-orf" id="dummy-25_q11_0_all"  />
<polygon points="515,40 517,40 522,35 517,30 515,30 515,40 " style="fill:#d8ce15; stroke-width:1; stroke:black; " description="&lt;b&gt;LLPMBPKK_06132&lt;/b&gt;&lt;br&gt;PDZ domain-containing protein&lt;br&gt;Location: 7081561 - 7081774" locus_tag="LLPMBPKK_06132" class="clusterblast-orf" id="dummy-25_q12_0_all"  />
<polygon points="533,40 570,40 575,35 570,30 533,30 533,40 " style="fill:#15d87c; stroke-width:1; stroke:black; " description="&lt;b&gt;LLPMBPKK_06133&lt;/b&gt;&lt;br&gt;aminopeptidase P family protein&lt;br&gt;Location: 7082075 - 7083203" locus_tag="LLPMBPKK_06133" class="clusterblast-orf" id="dummy-25_q13_0_all"  />
<polygon points="577,40 606,40 611,35 606,30 577,30 577,40 " style="fill:#2a15d8; stroke-width:1; stroke:black; " description="&lt;b&gt;LLPMBPKK_06134&lt;/b&gt;&lt;br&gt;aminoglycoside phosphotransferase family protein&lt;br&gt;Location: 7083255 - 7084191" locus_tag="LLPMBPKK_06134" class="clusterblast-orf" id="dummy-25_q14_0_all"  />
<polygon points="612,35 617,30 676,30 676,40 617,40 612,35 " style="fill:#d81553; stroke-width:1; stroke:black; " description="&lt;b&gt;LLPMBPKK_06135&lt;/b&gt;&lt;br&gt;malto-oligosyltrehalose trehalohydrolase&lt;br&gt;Location: 7084236 - 7085982" locus_tag="LLPMBPKK_06135" class="clusterblast-orf" id="dummy-25_q15_0_all"  />
<polygon points="680,40 698,40 703,35 698,30 680,30 680,40 " style="fill:#a5d815; stroke-width:1; stroke:black; " description="&lt;b&gt;LLPMBPKK_06136&lt;/b&gt;&lt;br&gt;FHA domain-containing protein&lt;br&gt;Location: 7086090 - 7086711" locus_tag="LLPMBPKK_06136" class="clusterblast-orf" id="dummy-25_q16_0_all"  />
<polygon points="707,40 717,40 722,35 717,30 707,30 707,40 " style="fill:#15d8b9; stroke-width:1; stroke:black; " description="&lt;b&gt;LLPMBPKK_06137&lt;/b&gt;&lt;br&gt;serine protease&lt;br&gt;Location: 7086831 - 7087245" locus_tag="LLPMBPKK_06137" class="clusterblast-orf" id="dummy-25_q17_0_all"  />
<polygon points="723,35 728,30 769,30 769,40 728,40 723,35 " style="fill:#6715d8; stroke-width:1; stroke:black; " description="&lt;b&gt;LLPMBPKK_06138&lt;/b&gt;&lt;br&gt;3-hydroxyacyl-CoA dehydrogenase&lt;br&gt;Location: 7087271 - 7088522" locus_tag="LLPMBPKK_06138" class="clusterblast-orf" id="dummy-25_q18_0_all"  />
</g>
<g label="NC_017765" description="NC_017765 (8147722-8169099): Streptomyces hygroscopicus subsp. jinggangensis ... (89% of genes show similarity), terpene" class="clusterblast-cluster"  >
<text x="5" y="70" class="clusterblast-acc"  >
<a xlink:href="https://antismash-db.secondarymetabolites.org/area.html?record=NC_017765&amp;start=8147722&amp;end=8169099" target="_blank">NC_017765 (8147722-8169099)</a>: Streptomyces hygroscopicus subsp. jinggangensis ... (89% of genes show similarity), terpene</text>
<line x1="10" y1="85" x2="778.0" y2="85" style="stroke-width:1; stroke:grey; "  />
</g>
<g id="a25_000"  >
<polygon points="0,90 1,90 6,85 1,80 0,80 0,90 " style="fill:white; stroke-width:1; stroke:black; " description="&lt;b&gt;SHJG_RS35825&lt;/b&gt;&lt;br&gt;Sec-independent protein translocase subunit TatA&lt;br&gt;Location: 8147723 - 8147902" locus_tag="SHJG_RS35825" class="clusterblast-orf" id="dummy-25_h25_5_0"  />
</g>
<g id="a25_001"  >
<polygon points="7,85 12,80 43,80 43,90 12,90 7,85 " style="fill:white; stroke-width:1; stroke:black; " description="&lt;b&gt;SHJG_RS35830&lt;/b&gt;&lt;br&gt;sporulation protein&lt;br&gt;Location: 8147929 - 8148921" locus_tag="SHJG_RS35830" class="clusterblast-orf" id="dummy-25_h25_5_1"  />
</g>
<g id="a25_002"  >
<polygon points="59,85 64,80 76,80 76,90 64,90 59,85 " style="fill:#67d815; stroke-width:1; stroke:black; " description="&lt;b&gt;SHJG_RS35835&lt;/b&gt;&lt;br&gt;hypothetical protein&lt;br&gt;Location: 8149359 - 8149820&lt;br&gt;&lt;br&gt;&lt;b&gt;BlastP hit with LLPMBPKK_06121&lt;/b&gt;&lt;br&gt;Percentage identity: 90&lt;br&gt;Percentage coverage: 96&lt;br&gt;BLAST bit score: 256&lt;br&gt;E-value: 2.04e-87" locus_tag="SHJG_RS35835" class="clusterblast-orf" id="dummy-25_h25_5_2"  />
</g>
<g id="a25_003"  >
<polygon points="76,85 81,80 102,80 102,90 81,90 76,85 " style="fill:#15b9d8; stroke-width:1; stroke:black; " description="&lt;b&gt;SHJG_RS35840&lt;/b&gt;&lt;br&gt;hypothetical protein&lt;br&gt;Location: 8149814 - 8150524&lt;br&gt;&lt;br&gt;&lt;b&gt;BlastP hit with LLPMBPKK_06122&lt;/b&gt;&lt;br&gt;Percentage identity: 91&lt;br&gt;Percentage coverage: 102&lt;br&gt;BLAST bit score: 382&lt;br&gt;E-value: 2.95e-134" locus_tag="SHJG_RS35840" class="clusterblast-orf" id="dummy-25_h25_5_3"  />
</g>
<g id="a25_004"  >
<polygon points="126,90 145,90 150,85 145,80 126,80 126,90 " style="fill:#a515d8; stroke-width:1; stroke:black; " description="&lt;b&gt;SHJG_RS35845&lt;/b&gt;&lt;br&gt;hypothetical protein&lt;br&gt;Location: 8151194 - 8151844&lt;br&gt;&lt;br&gt;&lt;b&gt;BlastP hit with LLPMBPKK_06123&lt;/b&gt;&lt;br&gt;Percentage identity: 87&lt;br&gt;Percentage coverage: 100&lt;br&gt;BLAST bit score: 337&lt;br&gt;E-value: 3.6e-117" locus_tag="SHJG_RS35845" class="clusterblast-orf" id="dummy-25_h25_5_4"  />
</g>
<g id="a25_005"  >
<polygon points="151,85 156,80 186,80 186,90 156,90 151,85 " style="fill:#d85315; stroke-width:1; stroke:black; " description="&lt;b&gt;SHJG_RS35850&lt;/b&gt;&lt;br&gt;lytic polysaccharide monooxygenase&lt;br&gt;Location: 8151863 - 8152840&lt;br&gt;&lt;br&gt;&lt;b&gt;BlastP hit with LLPMBPKK_06124&lt;/b&gt;&lt;br&gt;Percentage identity: 70&lt;br&gt;Percentage coverage: 106&lt;br&gt;BLAST bit score: 407&lt;br&gt;E-value: 1.47e-141" locus_tag="SHJG_RS35850" class="clusterblast-orf" id="dummy-25_h25_5_5"  />
</g>
<g id="a25_006"  >
<polygon points="202,90 221,90 226,85 221,80 202,80 202,90 " style="fill:#2ad815; stroke-width:1; stroke:black; " description="&lt;b&gt;SHJG_RS35855&lt;/b&gt;&lt;br&gt;TetR/AcrR family transcriptional regulator&lt;br&gt;Location: 8153272 - 8153919&lt;br&gt;&lt;br&gt;&lt;b&gt;BlastP hit with LLPMBPKK_06125&lt;/b&gt;&lt;br&gt;Percentage identity: 93&lt;br&gt;Percentage coverage: 100&lt;br&gt;BLAST bit score: 393&lt;br&gt;E-value: 2.69e-139" locus_tag="SHJG_RS35855" class="clusterblast-orf" id="dummy-25_h25_5_6"  />
</g>
<g id="a25_007"  >
<polygon points="226,90 266,90 271,85 266,80 226,80 226,90 " style="fill:#157cd8; stroke-width:1; stroke:black; " description="&lt;b&gt;SHJG_RS35860&lt;/b&gt;&lt;br&gt;protein-glutamate O-methyltransferase family protein&lt;br&gt;Location: 8153942 - 8155162&lt;br&gt;&lt;br&gt;&lt;b&gt;BlastP hit with LLPMBPKK_06126&lt;/b&gt;&lt;br&gt;Percentage identity: 90&lt;br&gt;Percentage coverage: 99&lt;br&gt;BLAST bit score: 735&lt;br&gt;E-value: 2.34e-268" locus_tag="SHJG_RS35860" class="clusterblast-orf" id="dummy-25_h25_5_7"  />
</g>
<g id="a25_008"  >
<polygon points="270,85 275,80 316,80 316,90 275,90 270,85 " style="fill:#d815ce; stroke-width:1; stroke:black; " description="&lt;b&gt;SHJG_RS35865&lt;/b&gt;&lt;br&gt;cytochrome P450&lt;br&gt;Location: 8155139 - 8156404&lt;br&gt;&lt;br&gt;&lt;b&gt;BlastP hit with LLPMBPKK_06127&lt;/b&gt;&lt;br&gt;Percentage identity: 91&lt;br&gt;Percentage coverage: 100&lt;br&gt;BLAST bit score: 769&lt;br&gt;E-value: 2.73e-281" locus_tag="SHJG_RS35865" class="clusterblast-orf" id="dummy-25_h25_5_8"  />
</g>
<g id="a25_009"  >
<polygon points="316,85 321,80 345,80 345,90 321,90 316,85 " style="fill:#d89015; stroke-width:1; stroke:black; " description="&lt;b&gt;SHJG_RS35870&lt;/b&gt;&lt;br&gt;alpha/beta hydrolase&lt;br&gt;Location: 8156401 - 8157201&lt;br&gt;&lt;br&gt;&lt;b&gt;BlastP hit with LLPMBPKK_06128&lt;/b&gt;&lt;br&gt;Percentage identity: 91&lt;br&gt;Percentage coverage: 90&lt;br&gt;BLAST bit score: 472&lt;br&gt;E-value: 1.09e-168" locus_tag="SHJG_RS35870" class="clusterblast-orf" id="dummy-25_h25_5_9"  />
</g>
<g id="a25_0010"  >
<polygon points="351,90 424,90 429,85 424,80 351,80 351,90 " style="fill:#15d83e; stroke-width:1; stroke:black; " description="&lt;b&gt;SHJG_RS35875&lt;/b&gt;&lt;br&gt;terpene synthase family protein&lt;br&gt;Location: 8157354 - 8159507&lt;br&gt;&lt;br&gt;&lt;b&gt;BlastP hit with LLPMBPKK_06129&lt;/b&gt;&lt;br&gt;Percentage identity: 93&lt;br&gt;Percentage coverage: 99&lt;br&gt;BLAST bit score: 1381&lt;br&gt;E-value: 0.0" locus_tag="SHJG_RS35875" class="clusterblast-orf" id="dummy-25_h25_5_10"  />
</g>
<g id="a25_0011"  >
<polygon points="434,90 497,90 502,85 497,80 434,80 434,90 " style="fill:#153ed8; stroke-width:1; stroke:black; " description="&lt;b&gt;SHJG_RS35880&lt;/b&gt;&lt;br&gt;multicopper oxidase domain-containing protein&lt;br&gt;Location: 8159622 - 8161496&lt;br&gt;&lt;br&gt;&lt;b&gt;BlastP hit with LLPMBPKK_06130&lt;/b&gt;&lt;br&gt;Percentage identity: 93&lt;br&gt;Percentage coverage: 100&lt;br&gt;BLAST bit score: 1217&lt;br&gt;E-value: 0.0" locus_tag="SHJG_RS35880" class="clusterblast-orf" id="dummy-25_h25_5_11"  />
</g>
<g id="a25_0012"  >
<polygon points="507,90 523,90 528,85 523,80 507,80 507,90 " style="fill:#d8ce15; stroke-width:1; stroke:black; " description="&lt;b&gt;SHJG_RS35885&lt;/b&gt;&lt;br&gt;PDZ domain-containing protein&lt;br&gt;Location: 8161639 - 8162202&lt;br&gt;&lt;br&gt;&lt;b&gt;BlastP hit with LLPMBPKK_06132&lt;/b&gt;&lt;br&gt;Percentage identity: 81&lt;br&gt;Percentage coverage: 99&lt;br&gt;BLAST bit score: 110&lt;br&gt;E-value: 1.36e-30" locus_tag="SHJG_RS35885" class="clusterblast-orf" id="dummy-25_h25_5_12"  />
</g>
<g id="a25_0013"  >
<polygon points="536,90 572,90 577,85 572,80 536,80 536,90 " style="fill:#15d87c; stroke-width:1; stroke:black; " description="&lt;b&gt;SHJG_RS35890&lt;/b&gt;&lt;br&gt;aminopeptidase P family protein&lt;br&gt;Location: 8162419 - 8163546&lt;br&gt;&lt;br&gt;&lt;b&gt;BlastP hit with LLPMBPKK_06133&lt;/b&gt;&lt;br&gt;Percentage identity: 94&lt;br&gt;Percentage coverage: 100&lt;br&gt;BLAST bit score: 698&lt;br&gt;E-value: 1.19e-254" locus_tag="SHJG_RS35890" class="clusterblast-orf" id="dummy-25_h25_5_13"  />
</g>
<g id="a25_0014"  >
<polygon points="579,90 608,90 613,85 608,80 579,80 579,90 " style="fill:#2a15d8; stroke-width:1; stroke:black; " description="&lt;b&gt;SHJG_RS35895&lt;/b&gt;&lt;br&gt;phosphotransferase&lt;br&gt;Location: 8163600 - 8164535&lt;br&gt;&lt;br&gt;&lt;b&gt;BlastP hit with LLPMBPKK_06134&lt;/b&gt;&lt;br&gt;Percentage identity: 93&lt;br&gt;Percentage coverage: 100&lt;br&gt;BLAST bit score: 569&lt;br&gt;E-value: 6.66e-206" locus_tag="SHJG_RS35895" class="clusterblast-orf" id="dummy-25_h25_5_14"  />
</g>
<g id="a25_0015"  >
<polygon points="615,85 620,80 678,80 678,90 620,90 615,85 " style="fill:#d81553; stroke-width:1; stroke:black; " description="&lt;b&gt;SHJG_RS35900&lt;/b&gt;&lt;br&gt;malto-oligosyltrehalose trehalohydrolase&lt;br&gt;Location: 8164578 - 8166323&lt;br&gt;&lt;br&gt;&lt;b&gt;BlastP hit with LLPMBPKK_06135&lt;/b&gt;&lt;br&gt;Percentage identity: 94&lt;br&gt;Percentage coverage: 100&lt;br&gt;BLAST bit score: 1150&lt;br&gt;E-value: 0.0" locus_tag="SHJG_RS35900" class="clusterblast-orf" id="dummy-25_h25_5_15"  />
</g>
<g id="a25_0016"  >
<polygon points="685,90 700,90 705,85 700,80 685,80 685,90 " style="fill:#a5d815; stroke-width:1; stroke:black; " description="&lt;b&gt;SHJG_RS35905&lt;/b&gt;&lt;br&gt;FHA domain-containing protein&lt;br&gt;Location: 8166501 - 8167052&lt;br&gt;&lt;br&gt;&lt;b&gt;BlastP hit with LLPMBPKK_06136&lt;/b&gt;&lt;br&gt;Percentage identity: 90&lt;br&gt;Percentage coverage: 88&lt;br&gt;BLAST bit score: 328&lt;br&gt;E-value: 2.43e-114" locus_tag="SHJG_RS35905" class="clusterblast-orf" id="dummy-25_h25_5_16"  />
</g>
<g id="a25_0017"  >
<polygon points="708,90 719,90 724,85 719,80 708,80 708,90 " style="fill:#15d8b9; stroke-width:1; stroke:black; " description="&lt;b&gt;SHJG_RS35910&lt;/b&gt;&lt;br&gt;serine protease&lt;br&gt;Location: 8167147 - 8167578&lt;br&gt;&lt;br&gt;&lt;b&gt;BlastP hit with LLPMBPKK_06137&lt;/b&gt;&lt;br&gt;Percentage identity: 75&lt;br&gt;Percentage coverage: 100&lt;br&gt;BLAST bit score: 199&lt;br&gt;E-value: 3.09e-65" locus_tag="SHJG_RS35910" class="clusterblast-orf" id="dummy-25_h25_5_17"  />
</g>
<g id="a25_0018"  >
<polygon points="734,85 739,80 780,80 780,90 739,90 734,85 " style="fill:#6715d8; stroke-width:1; stroke:black; " description="&lt;b&gt;SHJG_RS35915&lt;/b&gt;&lt;br&gt;3-hydroxyacyl-CoA dehydrogenase&lt;br&gt;Location: 8167849 - 8169099&lt;br&gt;&lt;br&gt;&lt;b&gt;BlastP hit with LLPMBPKK_06138&lt;/b&gt;&lt;br&gt;Percentage identity: 95&lt;br&gt;Percentage coverage: 100&lt;br&gt;BLAST bit score: 797&lt;br&gt;E-value: 1.39e-292" locus_tag="SHJG_RS35915" class="clusterblast-orf" id="dummy-25_h25_5_18"  />
</g>
</svg>
