<svg xmlns="http://www.w3.org/2000/svg" xmlns:xlink="http://www.w3.org/1999/xlink" version="1.1" x="0" y="0" height="230" width="800" viewBox="0 0 800 230" preserveAspectRatio="none"  >
<g label="Query sequence" class="clusterblast-cluster"  >
<text x="5" y="20" class="clusterblast-acc"  >
Query sequence</text>
<line x1="10" y1="35" x2="778.0" y2="35" style="stroke-width:1; stroke:grey; "  />
<polygon points="322,40 335,40 340,35 335,30 322,30 322,40 " style="fill:#d81515; stroke-width:1; stroke:black; " description="&lt;b&gt;LLPMBPKK_06021&lt;/b&gt;&lt;br&gt;3' terminal RNA ribose 2'-O-methyltransferaseHen1&lt;br&gt;Location: 6941527 - 6942991" locus_tag="LLPMBPKK_06021" class="clusterblast-orf" id="dummy-23_q0_0_all"  />
<polygon points="340,40 368,40 373,35 368,30 340,30 340,40 " style="fill:#77d815; stroke-width:1; stroke:black; " description="&lt;b&gt;LLPMBPKK_06022&lt;/b&gt;&lt;br&gt;phosphatase&lt;br&gt;Location: 6942987 - 6945534" locus_tag="LLPMBPKK_06022" class="clusterblast-orf" id="dummy-23_q1_0_all"  />
<polygon points="375,40 394,40 399,35 394,30 375,30 375,40 " style="fill:#15d8d8; stroke-width:1; stroke:black; " description="&lt;b&gt;LLPMBPKK_06023&lt;/b&gt;&lt;br&gt;RiPP maturation radical SAM protein 1&lt;br&gt;Location: 6945736 - 6947584" locus_tag="LLPMBPKK_06023" class="clusterblast-orf" id="dummy-23_q2_0_all"  />
<polygon points="399,40 401,40 406,35 401,30 399,30 399,40 " style="fill:#7715d8; stroke-width:1; stroke:black; " description="&lt;b&gt;LLPMBPKK_06024&lt;/b&gt;&lt;br&gt;hypothetical protein&lt;br&gt;Location: 6947580 - 6948120" locus_tag="LLPMBPKK_06024" class="clusterblast-orf" id="dummy-23_q3_0_all"  />
<polygon points="408,40 410,40 415,35 410,30 408,30 408,40 " style="fill:#d8a715; stroke-width:1; stroke:black; " description="&lt;b&gt;LLPMBPKK_06025&lt;/b&gt;&lt;br&gt;hypothetical protein&lt;br&gt;Location: 6948274 - 6948883" locus_tag="LLPMBPKK_06025" class="clusterblast-orf" id="dummy-23_q4_0_all"  />
<polygon points="416,40 430,40 435,35 430,30 416,30 416,40 " style="fill:#15d846; stroke-width:1; stroke:black; " description="&lt;b&gt;LLPMBPKK_06026&lt;/b&gt;&lt;br&gt;large membrane protein&lt;br&gt;Location: 6948902 - 6950441" locus_tag="LLPMBPKK_06026" class="clusterblast-orf" id="dummy-23_q5_0_all"  />
<polygon points="435,40 440,40 445,35 440,30 435,30 435,40 " style="fill:#1546d8; stroke-width:1; stroke:black; " description="&lt;b&gt;LLPMBPKK_06027&lt;/b&gt;&lt;br&gt;putative nucleotide-binding protein containingTIR-like domain protein&lt;br&gt;Location: 6950437 - 6951190" locus_tag="LLPMBPKK_06027" class="clusterblast-orf" id="dummy-23_q6_0_all"  />
<polygon points="446,35 451,30 457,30 457,40 451,40 446,35 " style="fill:#d815a7; stroke-width:1; stroke:black; " description="&lt;b&gt;LLPMBPKK_06028&lt;/b&gt;&lt;br&gt;hypothetical protein&lt;br&gt;Location: 6951282 - 6952197" locus_tag="LLPMBPKK_06028" class="clusterblast-orf" id="dummy-23_q7_0_all"  />
</g>
<g label="NC_017765" description="NC_017765 (8012613-8073934): Streptomyces hygroscopicus subsp. jinggangensis ... (18% of genes show similarity), NRPS,bacteriocin" class="clusterblast-cluster"  >
<text x="5" y="70" class="clusterblast-acc"  >
<a xlink:href="https://antismash-db.secondarymetabolites.org/area.html?record=NC_017765&amp;start=8012613&amp;end=8073934" target="_blank">NC_017765 (8012613-8073934)</a>: Streptomyces hygroscopicus subsp. jinggangensis ... (18% of genes show similarity), NRPS,bacteriocin</text>
<line x1="10" y1="85" x2="778.0" y2="85" style="stroke-width:1; stroke:grey; "  />
</g>
<g id="a23_000"  >
<polygon points="0,90 13,90 18,85 13,80 0,80 0,90 " style="fill:#d81515; stroke-width:1; stroke:black; " description="&lt;b&gt;SHJG_RS35295&lt;/b&gt;&lt;br&gt;3' terminal RNA ribose 2'-O-methyltransferase Hen1&lt;br&gt;Location: 8012614 - 8014080&lt;br&gt;&lt;br&gt;&lt;b&gt;BlastP hit with LLPMBPKK_06021&lt;/b&gt;&lt;br&gt;Percentage identity: 88&lt;br&gt;Percentage coverage: 100&lt;br&gt;BLAST bit score: 840&lt;br&gt;E-value: 3.1e-307" locus_tag="SHJG_RS35295" class="clusterblast-orf" id="dummy-23_h23_2_0"  />
</g>
<g id="a23_001"  >
<polygon points="18,90 46,90 51,85 46,80 18,80 18,90 " style="fill:#77d815; stroke-width:1; stroke:black; " description="&lt;b&gt;SHJG_RS35300&lt;/b&gt;&lt;br&gt;polynucleotide kinase-phosphatase&lt;br&gt;Location: 8014077 - 8016644&lt;br&gt;&lt;br&gt;&lt;b&gt;BlastP hit with LLPMBPKK_06022&lt;/b&gt;&lt;br&gt;Percentage identity: 93&lt;br&gt;Percentage coverage: 101&lt;br&gt;BLAST bit score: 1581&lt;br&gt;E-value: 0.0" locus_tag="SHJG_RS35300" class="clusterblast-orf" id="dummy-23_h23_2_1"  />
</g>
<g id="a23_002"  >
<polygon points="54,90 72,90 77,85 72,80 54,80 54,90 " style="fill:#15d8d8; stroke-width:1; stroke:black; " description="&lt;b&gt;SHJG_RS35305&lt;/b&gt;&lt;br&gt;RiPP maturation radical SAM protein 1&lt;br&gt;Location: 8016885 - 8018732&lt;br&gt;&lt;br&gt;&lt;b&gt;BlastP hit with LLPMBPKK_06023&lt;/b&gt;&lt;br&gt;Percentage identity: 89&lt;br&gt;Percentage coverage: 100&lt;br&gt;BLAST bit score: 1143&lt;br&gt;E-value: 0.0" locus_tag="SHJG_RS35305" class="clusterblast-orf" id="dummy-23_h23_2_2"  />
</g>
<g id="a23_003"  >
<polygon points="77,90 79,90 84,85 79,80 77,80 77,90 " style="fill:#7715d8; stroke-width:1; stroke:black; " description="&lt;b&gt;SHJG_RS35310&lt;/b&gt;&lt;br&gt;hypothetical protein&lt;br&gt;Location: 8018729 - 8019286&lt;br&gt;&lt;br&gt;&lt;b&gt;BlastP hit with LLPMBPKK_06024&lt;/b&gt;&lt;br&gt;Percentage identity: 79&lt;br&gt;Percentage coverage: 103&lt;br&gt;BLAST bit score: 289&lt;br&gt;E-value: 3.09e-99" locus_tag="SHJG_RS35310" class="clusterblast-orf" id="dummy-23_h23_2_3"  />
</g>
<g id="a23_004"  >
<polygon points="86,90 90,90 95,85 90,80 86,80 86,90 " style="fill:#d8a715; stroke-width:1; stroke:black; " description="&lt;b&gt;SHJG_RS35315&lt;/b&gt;&lt;br&gt;integral membrane protein&lt;br&gt;Location: 8019441 - 8020091&lt;br&gt;&lt;br&gt;&lt;b&gt;BlastP hit with LLPMBPKK_06025&lt;/b&gt;&lt;br&gt;Percentage identity: 48&lt;br&gt;Percentage coverage: 113&lt;br&gt;BLAST bit score: 174&lt;br&gt;E-value: 2.7e-53" locus_tag="SHJG_RS35315" class="clusterblast-orf" id="dummy-23_h23_2_4"  />
</g>
<g id="a23_005"  >
<polygon points="95,90 110,90 115,85 110,80 95,80 95,90 " style="fill:#15d846; stroke-width:1; stroke:black; " description="&lt;b&gt;SHJG_RS35320&lt;/b&gt;&lt;br&gt;hypothetical protein&lt;br&gt;Location: 8020113 - 8021675&lt;br&gt;&lt;br&gt;&lt;b&gt;BlastP hit with LLPMBPKK_06026&lt;/b&gt;&lt;br&gt;Percentage identity: 75&lt;br&gt;Percentage coverage: 103&lt;br&gt;BLAST bit score: 739&lt;br&gt;E-value: 2.93e-266" locus_tag="SHJG_RS35320" class="clusterblast-orf" id="dummy-23_h23_2_5"  />
</g>
<g id="a23_006"  >
<polygon points="115,90 119,90 124,85 119,80 115,80 115,90 " style="fill:#1546d8; stroke-width:1; stroke:black; " description="&lt;b&gt;SHJG_RS35325&lt;/b&gt;&lt;br&gt;nucleotide-binding protein&lt;br&gt;Location: 8021672 - 8022412&lt;br&gt;&lt;br&gt;&lt;b&gt;BlastP hit with LLPMBPKK_06027&lt;/b&gt;&lt;br&gt;Percentage identity: 79&lt;br&gt;Percentage coverage: 100&lt;br&gt;BLAST bit score: 375&lt;br&gt;E-value: 4.73e-131" locus_tag="SHJG_RS35325" class="clusterblast-orf" id="dummy-23_h23_2_6"  />
</g>
<g id="a23_007"  >
<polygon points="125,85 130,80 136,80 136,90 130,90 125,85 " style="fill:#d815a7; stroke-width:1; stroke:black; " description="&lt;b&gt;SHJG_RS35330&lt;/b&gt;&lt;br&gt;hypothetical protein&lt;br&gt;Location: 8022480 - 8023319&lt;br&gt;&lt;br&gt;&lt;b&gt;BlastP hit with LLPMBPKK_06028&lt;/b&gt;&lt;br&gt;Percentage identity: 92&lt;br&gt;Percentage coverage: 91&lt;br&gt;BLAST bit score: 501&lt;br&gt;E-value: 1.45e-179" locus_tag="SHJG_RS35330" class="clusterblast-orf" id="dummy-23_h23_2_7"  />
</g>
<g id="a23_008"  >
<polygon points="138,90 150,90 155,85 150,80 138,80 138,90 " style="fill:#d815a7; stroke-width:1; stroke:black; " description="&lt;b&gt;SHJG_RS35335&lt;/b&gt;&lt;br&gt;hypothetical protein&lt;br&gt;Location: 8023526 - 8024857&lt;br&gt;&lt;br&gt;&lt;b&gt;BlastP hit with LLPMBPKK_06028&lt;/b&gt;&lt;br&gt;Percentage identity: 52&lt;br&gt;Percentage coverage: 67&lt;br&gt;BLAST bit score: 169&lt;br&gt;E-value: 2.15e-47" locus_tag="SHJG_RS35335" class="clusterblast-orf" id="dummy-23_h23_2_8"  />
</g>
<g id="a23_009"  >
<polygon points="157,90 168,90 173,85 168,80 157,80 157,90 " style="fill:white; stroke-width:1; stroke:black; " description="&lt;b&gt;SHJG_RS35340&lt;/b&gt;&lt;br&gt;arginine deiminase&lt;br&gt;Location: 8025025 - 8026248" locus_tag="SHJG_RS35340" class="clusterblast-orf" id="dummy-23_h23_2_9"  />
</g>
<g id="a23_0010"  >
<polygon points="174,90 182,90 187,85 182,80 174,80 174,90 " style="fill:white; stroke-width:1; stroke:black; " description="&lt;b&gt;SHJG_RS35345&lt;/b&gt;&lt;br&gt;ornithine carbamoyltransferase&lt;br&gt;Location: 8026338 - 8027360" locus_tag="SHJG_RS35345" class="clusterblast-orf" id="dummy-23_h23_2_10"  />
</g>
<g id="a23_0011"  >
<polygon points="188,90 202,90 207,85 202,80 188,80 188,90 " style="fill:white; stroke-width:1; stroke:black; " description="&lt;b&gt;SHJG_RS35350&lt;/b&gt;&lt;br&gt;amino acid permease&lt;br&gt;Location: 8027471 - 8028916" locus_tag="SHJG_RS35350" class="clusterblast-orf" id="dummy-23_h23_2_11"  />
</g>
<g id="a23_0012"  >
<polygon points="206,85 211,80 212,80 212,90 211,90 206,85 " style="fill:white; stroke-width:1; stroke:black; " description="&lt;b&gt;SHJG_RS35355&lt;/b&gt;&lt;br&gt;ATP-binding protein&lt;br&gt;Location: 8028876 - 8029328" locus_tag="SHJG_RS35355" class="clusterblast-orf" id="dummy-23_h23_2_12"  />
</g>
<g id="a23_0013"  >
<polygon points="216,90 222,90 227,85 222,80 216,80 216,90 " style="fill:white; stroke-width:1; stroke:black; " description="&lt;b&gt;SHJG_RS35360&lt;/b&gt;&lt;br&gt;enoyl-CoA hydratase family protein&lt;br&gt;Location: 8029650 - 8030477" locus_tag="SHJG_RS35360" class="clusterblast-orf" id="dummy-23_h23_2_13"  />
</g>
<g id="a23_0014"  >
<polygon points="227,90 251,90 256,85 251,80 227,80 227,90 " style="fill:white; stroke-width:1; stroke:black; " description="&lt;b&gt;SHJG_RS35365&lt;/b&gt;&lt;br&gt;bifunctional salicylyl-CoA 5-hydroxylase/oxidoreductase&lt;br&gt;Location: 8030484 - 8032757" locus_tag="SHJG_RS35365" class="clusterblast-orf" id="dummy-23_h23_2_14"  />
</g>
<g id="a23_0015"  >
<polygon points="256,85 261,80 266,80 266,90 261,90 256,85 " style="fill:white; stroke-width:1; stroke:black; " description="&lt;b&gt;SHJG_RS35370&lt;/b&gt;&lt;br&gt;PaaX family transcriptional regulator&lt;br&gt;Location: 8032771 - 8033583" locus_tag="SHJG_RS35370" class="clusterblast-orf" id="dummy-23_h23_2_15"  />
</g>
<g id="a23_0016"  >
<polygon points="266,85 271,80 287,80 287,90 271,90 266,85 " style="fill:white; stroke-width:1; stroke:black; " description="&lt;b&gt;SHJG_RS35375&lt;/b&gt;&lt;br&gt;AMP-binding protein&lt;br&gt;Location: 8033599 - 8035191" locus_tag="SHJG_RS35375" class="clusterblast-orf" id="dummy-23_h23_2_16"  />
</g>
<g id="a23_0017"  >
<polygon points="289,90 299,90 304,85 299,80 289,80 289,90 " style="fill:white; stroke-width:1; stroke:black; " description="&lt;b&gt;SHJG_RS35380&lt;/b&gt;&lt;br&gt;acyl-CoA dehydrogenase&lt;br&gt;Location: 8035400 - 8036530" locus_tag="SHJG_RS35380" class="clusterblast-orf" id="dummy-23_h23_2_17"  />
</g>
<g id="a23_0018"  >
<polygon points="304,90 304,90 309,85 304,80 304,80 304,90 " style="fill:white; stroke-width:1; stroke:black; " description="&lt;b&gt;SHJG_RS35385&lt;/b&gt;&lt;br&gt;RidA family protein&lt;br&gt;Location: 8036527 - 8036925" locus_tag="SHJG_RS35385" class="clusterblast-orf" id="dummy-23_h23_2_18"  />
</g>
<g id="a23_0019"  >
<polygon points="311,90 311,90 316,85 311,80 311,80 311,90 " style="fill:white; stroke-width:1; stroke:black; " description="&lt;b&gt;SHJG_RS35390&lt;/b&gt;&lt;br&gt;hypothetical protein&lt;br&gt;Location: 8037070 - 8037498" locus_tag="SHJG_RS35390" class="clusterblast-orf" id="dummy-23_h23_2_19"  />
</g>
<g id="a23_0020"  >
<polygon points="316,85 321,80 327,80 327,90 321,90 316,85 " style="fill:white; stroke-width:1; stroke:black; " description="&lt;b&gt;SHJG_RS35395&lt;/b&gt;&lt;br&gt;GntR family transcriptional regulator&lt;br&gt;Location: 8037518 - 8038336" locus_tag="SHJG_RS35395" class="clusterblast-orf" id="dummy-23_h23_2_20"  />
</g>
<g id="a23_0021"  >
<polygon points="331,90 342,90 347,85 342,80 331,80 331,90 " style="fill:white; stroke-width:1; stroke:black; " description="&lt;b&gt;SHJG_RS35400&lt;/b&gt;&lt;br&gt;extracellular solute-binding protein&lt;br&gt;Location: 8038639 - 8039919" locus_tag="SHJG_RS35400" class="clusterblast-orf" id="dummy-23_h23_2_21"  />
</g>
<g id="a23_0022"  >
<polygon points="348,90 356,90 361,85 356,80 348,80 348,90 " style="fill:white; stroke-width:1; stroke:black; " description="&lt;b&gt;SHJG_RS35405&lt;/b&gt;&lt;br&gt;sugar ABC transporter permease&lt;br&gt;Location: 8039998 - 8040996" locus_tag="SHJG_RS35405" class="clusterblast-orf" id="dummy-23_h23_2_22"  />
</g>
<g id="a23_0023"  >
<polygon points="360,90 366,90 371,85 366,80 360,80 360,90 " style="fill:white; stroke-width:1; stroke:black; " description="&lt;b&gt;SHJG_RS35410&lt;/b&gt;&lt;br&gt;carbohydrate ABC transporter permease&lt;br&gt;Location: 8040993 - 8041823" locus_tag="SHJG_RS35410" class="clusterblast-orf" id="dummy-23_h23_2_23"  />
</g>
<g id="a23_0024"  >
<polygon points="371,90 385,90 390,85 385,80 371,80 371,90 " style="fill:white; stroke-width:1; stroke:black; " description="&lt;b&gt;SHJG_RS35415&lt;/b&gt;&lt;br&gt;glycoside hydrolase family 3 protein&lt;br&gt;Location: 8041832 - 8043343" locus_tag="SHJG_RS35415" class="clusterblast-orf" id="dummy-23_h23_2_24"  />
</g>
<g id="a23_0025"  >
<polygon points="392,90 400,90 405,85 400,80 392,80 392,90 " style="fill:white; stroke-width:1; stroke:black; " description="&lt;b&gt;SHJG_RS35420&lt;/b&gt;&lt;br&gt;DUF1479 family protein&lt;br&gt;Location: 8043449 - 8044480" locus_tag="SHJG_RS35420" class="clusterblast-orf" id="dummy-23_h23_2_25"  />
</g>
<g id="a23_0026"  >
<polygon points="405,90 416,90 421,85 416,80 405,80 405,90 " style="fill:white; stroke-width:1; stroke:black; " description="&lt;b&gt;SHJG_RS35425&lt;/b&gt;&lt;br&gt;hypothetical protein&lt;br&gt;Location: 8044477 - 8045766" locus_tag="SHJG_RS35425" class="clusterblast-orf" id="dummy-23_h23_2_26"  />
</g>
<g id="a23_0027"  >
<polygon points="421,90 432,90 437,85 432,80 421,80 421,90 " style="fill:white; stroke-width:1; stroke:black; " description="&lt;b&gt;SHJG_RS35430&lt;/b&gt;&lt;br&gt;type III PLP-dependent enzyme&lt;br&gt;Location: 8045763 - 8046977" locus_tag="SHJG_RS35430" class="clusterblast-orf" id="dummy-23_h23_2_27"  />
</g>
<g id="a23_0028"  >
<polygon points="437,90 438,90 443,85 438,80 437,80 437,90 " style="fill:white; stroke-width:1; stroke:black; " description="&lt;b&gt;SHJG_RS35435&lt;/b&gt;&lt;br&gt;GNAT family N-acetyltransferase&lt;br&gt;Location: 8046979 - 8047482" locus_tag="SHJG_RS35435" class="clusterblast-orf" id="dummy-23_h23_2_28"  />
</g>
<g id="a23_0029"  >
<polygon points="443,90 453,90 458,85 453,80 443,80 443,90 " style="fill:white; stroke-width:1; stroke:black; " description="&lt;b&gt;SHJG_RS35440&lt;/b&gt;&lt;br&gt;MFS transporter&lt;br&gt;Location: 8047482 - 8048669" locus_tag="SHJG_RS35440" class="clusterblast-orf" id="dummy-23_h23_2_29"  />
</g>
<g id="a23_0030"  >
<polygon points="459,85 464,80 472,80 472,90 464,90 459,85 " style="fill:white; stroke-width:1; stroke:black; " description="&lt;b&gt;SHJG_RS35445&lt;/b&gt;&lt;br&gt;2,3-diaminopropionate biosynthesis protein SbnA&lt;br&gt;Location: 8048745 - 8049767" locus_tag="SHJG_RS35445" class="clusterblast-orf" id="dummy-23_h23_2_30"  />
</g>
<g id="a23_0031"  >
<polygon points="473,85 478,80 486,80 486,90 478,90 473,85 " style="fill:white; stroke-width:1; stroke:black; " description="&lt;b&gt;SHJG_RS35450&lt;/b&gt;&lt;br&gt;2,3-diaminopropionate biosynthesis protein SbnB&lt;br&gt;Location: 8049805 - 8050875" locus_tag="SHJG_RS35450" class="clusterblast-orf" id="dummy-23_h23_2_31"  />
</g>
<g id="a23_0032"  >
<polygon points="486,85 491,80 499,80 499,90 491,90 486,85 " style="fill:white; stroke-width:1; stroke:black; " description="&lt;b&gt;SHJG_RS35455&lt;/b&gt;&lt;br&gt;TauD/TfdA family dioxygenase&lt;br&gt;Location: 8050872 - 8051876" locus_tag="SHJG_RS35455" class="clusterblast-orf" id="dummy-23_h23_2_32"  />
</g>
<g id="a23_0033"  >
<polygon points="499,85 504,80 541,80 541,90 504,90 499,85 " style="fill:white; stroke-width:1; stroke:black; " description="&lt;b&gt;SHJG_RS35460&lt;/b&gt;&lt;br&gt;non-ribosomal peptide synthetase&lt;br&gt;Location: 8051917 - 8055186" locus_tag="SHJG_RS35460" class="clusterblast-orf" id="dummy-23_h23_2_33"  />
</g>
<g id="a23_0034"  >
<polygon points="541,85 546,80 574,80 574,90 546,90 541,85 " style="fill:white; stroke-width:1; stroke:black; " description="&lt;b&gt;SHJG_RS35465&lt;/b&gt;&lt;br&gt;peptide synthetase&lt;br&gt;Location: 8055200 - 8057776" locus_tag="SHJG_RS35465" class="clusterblast-orf" id="dummy-23_h23_2_34"  />
</g>
<g id="a23_0035"  >
<polygon points="578,90 588,90 593,85 588,80 578,80 578,90 " style="fill:white; stroke-width:1; stroke:black; " description="&lt;b&gt;SHJG_RS35470&lt;/b&gt;&lt;br&gt;FAD-dependent oxidoreductase&lt;br&gt;Location: 8058115 - 8059305" locus_tag="SHJG_RS35470" class="clusterblast-orf" id="dummy-23_h23_2_35"  />
</g>
<g id="a23_0036"  >
<polygon points="594,90 600,90 605,85 600,80 594,80 594,90 " style="fill:white; stroke-width:1; stroke:black; " description="&lt;b&gt;SHJG_RS35475&lt;/b&gt;&lt;br&gt;sigma-70 family RNA polymerase sigma factor&lt;br&gt;Location: 8059316 - 8060254" locus_tag="SHJG_RS35475" class="clusterblast-orf" id="dummy-23_h23_2_36"  />
</g>
<g id="a23_0037"  >
<polygon points="608,85 613,80 617,80 617,90 613,90 608,85 " style="fill:white; stroke-width:1; stroke:black; " description="&lt;b&gt;SHJG_RS35480&lt;/b&gt;&lt;br&gt;AhpC/TSA family protein&lt;br&gt;Location: 8060471 - 8061121" locus_tag="SHJG_RS35480" class="clusterblast-orf" id="dummy-23_h23_2_37"  />
</g>
<g id="a23_0038"  >
<polygon points="618,90 621,90 626,85 621,80 618,80 618,90 " style="fill:white; stroke-width:1; stroke:black; " description="&lt;b&gt;SHJG_RS35485&lt;/b&gt;&lt;br&gt;TetR/AcrR family transcriptional regulator&lt;br&gt;Location: 8061273 - 8061872" locus_tag="SHJG_RS35485" class="clusterblast-orf" id="dummy-23_h23_2_38"  />
</g>
<g id="a23_0039"  >
<polygon points="627,85 631,80 631,90 627,85 " style="fill:white; stroke-width:1; stroke:black; " description="&lt;b&gt;SHJG_RS50895&lt;/b&gt;&lt;br&gt;hypothetical protein&lt;br&gt;Location: 8061959 - 8062247" locus_tag="SHJG_RS50895" class="clusterblast-orf" id="dummy-23_h23_2_39"  />
</g>
<g id="a23_0040"  >
<polygon points="631,90 632,85 631,80 631,90 " style="fill:white; stroke-width:1; stroke:black; " description="&lt;b&gt;SHJG_RS48075&lt;/b&gt;&lt;br&gt;integrase&lt;br&gt;Location: 8062256 - 8062336" locus_tag="SHJG_RS48075" class="clusterblast-orf" id="dummy-23_h23_2_40"  />
</g>
<g id="a23_0041"  >
<polygon points="635,85 640,80 655,80 655,90 640,90 635,85 " style="fill:white; stroke-width:1; stroke:black; " description="&lt;b&gt;SHJG_RS35490&lt;/b&gt;&lt;br&gt;UDP-N-acetylglucosamine 1-carboxyvinyltransferase&lt;br&gt;Location: 8062602 - 8064131" locus_tag="SHJG_RS35490" class="clusterblast-orf" id="dummy-23_h23_2_41"  />
</g>
<g id="a23_0042"  >
<polygon points="660,90 690,90 695,85 690,80 660,80 660,90 " style="fill:white; stroke-width:1; stroke:black; " description="&lt;b&gt;SHJG_RS35495&lt;/b&gt;&lt;br&gt;aconitate hydratase AcnA&lt;br&gt;Location: 8064577 - 8067294" locus_tag="SHJG_RS35495" class="clusterblast-orf" id="dummy-23_h23_2_42"  />
</g>
<g id="a23_0043"  >
<polygon points="697,85 702,80 731,80 731,90 702,90 697,85 " style="fill:white; stroke-width:1; stroke:black; " description="&lt;b&gt;SHJG_RS35500&lt;/b&gt;&lt;br&gt;SpoIIE family protein phosphatase&lt;br&gt;Location: 8067451 - 8070144" locus_tag="SHJG_RS35500" class="clusterblast-orf" id="dummy-23_h23_2_43"  />
</g>
<g id="a23_0044"  >
<polygon points="738,85 743,80 744,80 744,90 743,90 738,85 " style="fill:white; stroke-width:1; stroke:black; " description="&lt;b&gt;SHJG_RS35505&lt;/b&gt;&lt;br&gt;nucleotide exchange factor GrpE&lt;br&gt;Location: 8070699 - 8071148" locus_tag="SHJG_RS35505" class="clusterblast-orf" id="dummy-23_h23_2_44"  />
</g>
<g id="a23_0045"  >
<polygon points="744,85 749,80 768,80 768,90 749,90 744,85 " style="fill:white; stroke-width:1; stroke:black; " description="&lt;b&gt;SHJG_RS35510&lt;/b&gt;&lt;br&gt;molecular chaperone DnaK&lt;br&gt;Location: 8071151 - 8073043" locus_tag="SHJG_RS35510" class="clusterblast-orf" id="dummy-23_h23_2_45"  />
</g>
<g id="a23_0046"  >
<polygon points="769,85 774,80 774,80 774,90 774,90 769,85 " style="fill:white; stroke-width:1; stroke:black; " description="&lt;b&gt;SHJG_RS35515&lt;/b&gt;&lt;br&gt;J domain-containing protein&lt;br&gt;Location: 8073079 - 8073474" locus_tag="SHJG_RS35515" class="clusterblast-orf" id="dummy-23_h23_2_46"  />
</g>
<g id="a23_0047"  >
<polygon points="775,85 780,80 780,80 780,90 780,90 775,85 " style="fill:white; stroke-width:1; stroke:black; " description="&lt;b&gt;SHJG_RS35520&lt;/b&gt;&lt;br&gt;hypothetical protein&lt;br&gt;Location: 8073548 - 8073934" locus_tag="SHJG_RS35520" class="clusterblast-orf" id="dummy-23_h23_2_47"  />
</g>
</svg>
