<svg xmlns="http://www.w3.org/2000/svg" xmlns:xlink="http://www.w3.org/1999/xlink" version="1.1" x="0" y="0" height="230" width="800" viewBox="0 0 800 230" preserveAspectRatio="none"  >
<g label="Query sequence" class="clusterblast-cluster"  >
<text x="5" y="20" class="clusterblast-acc"  >
Query sequence</text>
<line x1="10" y1="35" x2="778.0" y2="35" style="stroke-width:1; stroke:grey; "  />
<polygon points="226,40 228,40 233,35 228,30 226,30 226,40 " style="fill:#d81515; stroke-width:1; stroke:black; " description="&lt;b&gt;LLPMBPKK_00703&lt;/b&gt;&lt;br&gt;hypothetical protein&lt;br&gt;Location: 897958 - 898738" locus_tag="LLPMBPKK_00703" class="clusterblast-orf" id="dummy-6_q0_0_all"  />
<polygon points="233,35 238,30 247,30 247,40 238,40 233,35 " style="fill:white; stroke-width:1; stroke:black; " description="&lt;b&gt;LLPMBPKK_00704&lt;/b&gt;&lt;br&gt;LytR family transcriptional regulator&lt;br&gt;Location: 898753 - 900469" locus_tag="LLPMBPKK_00704" class="clusterblast-orf" id="dummy-6_q1_0_all"  />
<polygon points="248,35 253,30 256,30 256,40 253,40 248,35 " style="fill:#60d815; stroke-width:1; stroke:black; " description="&lt;b&gt;LLPMBPKK_00705&lt;/b&gt;&lt;br&gt;urea transporter&lt;br&gt;Location: 900632 - 901688" locus_tag="LLPMBPKK_00705" class="clusterblast-orf" id="dummy-6_q2_0_all"  />
<polygon points="258,35 263,30 268,30 268,40 263,40 258,35 " style="fill:white; stroke-width:1; stroke:black; " description="&lt;b&gt;LLPMBPKK_00706&lt;/b&gt;&lt;br&gt;hypothetical protein&lt;br&gt;Location: 901826 - 903119" locus_tag="LLPMBPKK_00706" class="clusterblast-orf" id="dummy-6_q3_0_all"  />
<polygon points="270,40 273,35 270,30 270,40 " style="fill:#15abd8; stroke-width:1; stroke:black; " description="&lt;b&gt;LLPMBPKK_00707&lt;/b&gt;&lt;br&gt;anti-sigma factor antagonist&lt;br&gt;Location: 903353 - 903722" locus_tag="LLPMBPKK_00707" class="clusterblast-orf" id="dummy-6_q4_0_all"  />
<polygon points="276,40 279,35 276,30 276,40 " style="fill:#8d15d8; stroke-width:1; stroke:black; " description="&lt;b&gt;LLPMBPKK_00708&lt;/b&gt;&lt;br&gt;transcription elongation factor GreA&lt;br&gt;Location: 904045 - 904504" locus_tag="LLPMBPKK_00708" class="clusterblast-orf" id="dummy-6_q5_0_all"  />
<polygon points="280,35 285,30 300,30 300,40 285,40 280,35 " style="fill:#d84215; stroke-width:1; stroke:black; " description="&lt;b&gt;LLPMBPKK_00709&lt;/b&gt;&lt;br&gt;chaperone&lt;br&gt;Location: 904558 - 907072" locus_tag="LLPMBPKK_00709" class="clusterblast-orf" id="dummy-6_q6_0_all"  />
<polygon points="308,35 311,30 311,40 308,35 " style="fill:white; stroke-width:1; stroke:black; " description="&lt;b&gt;LLPMBPKK_00710&lt;/b&gt;&lt;br&gt;hypothetical protein&lt;br&gt;Location: 908016 - 908409" locus_tag="LLPMBPKK_00710" class="clusterblast-orf" id="dummy-6_q7_0_all"  />
<polygon points="311,35 316,30 318,30 318,40 316,40 311,35 " style="fill:#33d815; stroke-width:1; stroke:black; " description="&lt;b&gt;LLPMBPKK_00711&lt;/b&gt;&lt;br&gt;YegS/Rv2252/BmrU family lipid kinase&lt;br&gt;Location: 908465 - 909347" locus_tag="LLPMBPKK_00711" class="clusterblast-orf" id="dummy-6_q8_0_all"  />
<polygon points="319,35 324,30 331,30 331,40 324,40 319,35 " style="fill:#157ed8; stroke-width:1; stroke:black; " description="&lt;b&gt;LLPMBPKK_00712&lt;/b&gt;&lt;br&gt;FAD-binding oxidoreductase&lt;br&gt;Location: 909389 - 910982" locus_tag="LLPMBPKK_00712" class="clusterblast-orf" id="dummy-6_q9_0_all"  />
<polygon points="333,40 333,40 338,35 333,30 333,30 333,40 " style="fill:#ba15d8; stroke-width:1; stroke:black; " description="&lt;b&gt;LLPMBPKK_00713&lt;/b&gt;&lt;br&gt;TetR/AcrR family transcriptional regulator&lt;br&gt;Location: 911123 - 911771" locus_tag="LLPMBPKK_00713" class="clusterblast-orf" id="dummy-6_q10_0_all"  />
<polygon points="338,40 345,40 350,35 345,30 338,30 338,40 " style="fill:#d86f15; stroke-width:1; stroke:black; " description="&lt;b&gt;LLPMBPKK_00714&lt;/b&gt;&lt;br&gt;glycerol-3-phosphate dehydrogenase/oxidase&lt;br&gt;Location: 911767 - 913342" locus_tag="LLPMBPKK_00714" class="clusterblast-orf" id="dummy-6_q11_0_all"  />
<polygon points="353,40 362,40 367,35 362,30 353,30 353,40 " style="fill:#15d824; stroke-width:1; stroke:black; " description="&lt;b&gt;LLPMBPKK_00715&lt;/b&gt;&lt;br&gt;tryptophan 7-halogenase&lt;br&gt;Location: 913711 - 915334" locus_tag="LLPMBPKK_00715" class="clusterblast-orf" id="dummy-6_q12_0_all"  />
<polygon points="366,40 366,40 371,35 366,30 366,30 366,40 " style="fill:#1551d8; stroke-width:1; stroke:black; " description="&lt;b&gt;LLPMBPKK_00716&lt;/b&gt;&lt;br&gt;flavin reductase&lt;br&gt;Location: 915323 - 915887" locus_tag="LLPMBPKK_00716" class="clusterblast-orf" id="dummy-6_q13_0_all"  />
<polygon points="371,40 375,40 380,35 375,30 371,30 371,40 " style="fill:#d815c9; stroke-width:1; stroke:black; " description="&lt;b&gt;LLPMBPKK_00717&lt;/b&gt;&lt;br&gt;hypothetical protein&lt;br&gt;Location: 915883 - 917014" locus_tag="LLPMBPKK_00717" class="clusterblast-orf" id="dummy-6_q14_0_all"  />
<polygon points="381,40 390,40 395,35 390,30 381,30 381,40 " style="fill:#d89c15; stroke-width:1; stroke:black; " description="&lt;b&gt;LLPMBPKK_00718&lt;/b&gt;&lt;br&gt;CDA peptide synthetase III&lt;br&gt;Location: 917154 - 918852" locus_tag="LLPMBPKK_00718" class="clusterblast-orf" id="dummy-6_q15_0_all"  />
<polygon points="395,40 396,40 401,35 396,30 395,30 395,40 " style="fill:#15d851; stroke-width:1; stroke:black; " description="&lt;b&gt;LLPMBPKK_00719&lt;/b&gt;&lt;br&gt;thioesterase&lt;br&gt;Location: 918851 - 919604" locus_tag="LLPMBPKK_00719" class="clusterblast-orf" id="dummy-6_q16_0_all"  />
<polygon points="401,40 406,40 411,35 406,30 401,30 401,40 " style="fill:#1524d8; stroke-width:1; stroke:black; " description="&lt;b&gt;LLPMBPKK_00720&lt;/b&gt;&lt;br&gt;cytochrome P450&lt;br&gt;Location: 919593 - 920790" locus_tag="LLPMBPKK_00720" class="clusterblast-orf" id="dummy-6_q17_0_all"  />
<polygon points="411,40 414,35 411,30 411,40 " style="fill:#d8159c; stroke-width:1; stroke:black; " description="&lt;b&gt;LLPMBPKK_00721&lt;/b&gt;&lt;br&gt;YCII-related domain protein&lt;br&gt;Location: 920854 - 921169" locus_tag="LLPMBPKK_00721" class="clusterblast-orf" id="dummy-6_q18_0_all"  />
<polygon points="414,40 418,40 423,35 418,30 414,30 414,40 " style="fill:#d8c915; stroke-width:1; stroke:black; " description="&lt;b&gt;LLPMBPKK_00722&lt;/b&gt;&lt;br&gt;hydrolase&lt;br&gt;Location: 921165 - 922353" locus_tag="LLPMBPKK_00722" class="clusterblast-orf" id="dummy-6_q19_0_all"  />
<polygon points="423,40 425,40 430,35 425,30 423,30 423,40 " style="fill:#15d87e; stroke-width:1; stroke:black; " description="&lt;b&gt;LLPMBPKK_00723&lt;/b&gt;&lt;br&gt;3-oxoacyl-[acyl-carrier-protein] reductase&lt;br&gt;Location: 922345 - 923146" locus_tag="LLPMBPKK_00723" class="clusterblast-orf" id="dummy-6_q20_0_all"  />
<polygon points="430,40 435,40 440,35 435,30 430,30 430,40 " style="fill:#3315d8; stroke-width:1; stroke:black; " description="&lt;b&gt;LLPMBPKK_00724&lt;/b&gt;&lt;br&gt;ATP-grasp domain protein&lt;br&gt;Location: 923161 - 924427" locus_tag="LLPMBPKK_00724" class="clusterblast-orf" id="dummy-6_q21_0_all"  />
<polygon points="440,40 445,40 450,35 445,30 440,30 440,40 " style="fill:#d8156f; stroke-width:1; stroke:black; " description="&lt;b&gt;LLPMBPKK_00725&lt;/b&gt;&lt;br&gt;pyridoxal-phosphate dependent enzyme&lt;br&gt;Location: 924438 - 925662" locus_tag="LLPMBPKK_00725" class="clusterblast-orf" id="dummy-6_q22_0_all"  />
<polygon points="450,40 456,40 461,35 456,30 450,30 450,40 " style="fill:#bad815; stroke-width:1; stroke:black; " description="&lt;b&gt;LLPMBPKK_00726&lt;/b&gt;&lt;br&gt;MFS transporter&lt;br&gt;Location: 925667 - 927008" locus_tag="LLPMBPKK_00726" class="clusterblast-orf" id="dummy-6_q23_0_all"  />
<polygon points="461,40 466,40 471,35 466,30 461,30 461,40 " style="fill:#15d8ab; stroke-width:1; stroke:black; " description="&lt;b&gt;LLPMBPKK_00727&lt;/b&gt;&lt;br&gt;transporter monovalent cation:proton antiporter-2(CPA2) family protein&lt;br&gt;Location: 927009 - 928332" locus_tag="LLPMBPKK_00727" class="clusterblast-orf" id="dummy-6_q24_0_all"  />
<polygon points="472,35 477,30 483,30 483,40 477,40 472,35 " style="fill:#6015d8; stroke-width:1; stroke:black; " description="&lt;b&gt;LLPMBPKK_00728&lt;/b&gt;&lt;br&gt;Outer membrane protein assembly factor BamB&lt;br&gt;Location: 928352 - 929804" locus_tag="LLPMBPKK_00728" class="clusterblast-orf" id="dummy-6_q25_0_all"  />
<polygon points="485,35 490,30 490,30 490,40 490,40 485,35 " style="fill:white; stroke-width:1; stroke:black; " description="&lt;b&gt;LLPMBPKK_00729&lt;/b&gt;&lt;br&gt;TetR family transcriptional regulator&lt;br&gt;Location: 930052 - 930694" locus_tag="LLPMBPKK_00729" class="clusterblast-orf" id="dummy-6_q26_0_all"  />
<polygon points="492,40 493,40 498,35 493,30 492,30 492,40 " style="fill:#15d87e; stroke-width:1; stroke:black; " description="&lt;b&gt;LLPMBPKK_00730&lt;/b&gt;&lt;br&gt;oxidoreductase&lt;br&gt;Location: 930855 - 931641" locus_tag="LLPMBPKK_00730" class="clusterblast-orf" id="dummy-6_q27_0_all"  />
<polygon points="498,35 503,30 511,30 511,40 503,40 498,35 " style="fill:#d81542; stroke-width:1; stroke:black; " description="&lt;b&gt;LLPMBPKK_00731&lt;/b&gt;&lt;br&gt;ABC-F family ATP-binding cassettedomain-containing protein&lt;br&gt;Location: 931668 - 933291" locus_tag="LLPMBPKK_00731" class="clusterblast-orf" id="dummy-6_q28_0_all"  />
<polygon points="514,35 516,30 516,40 514,35 " style="fill:white; stroke-width:1; stroke:black; " description="&lt;b&gt;LLPMBPKK_00732&lt;/b&gt;&lt;br&gt;hypothetical protein&lt;br&gt;Location: 933575 - 933890" locus_tag="LLPMBPKK_00732" class="clusterblast-orf" id="dummy-6_q29_0_all"  />
<polygon points="519,35 524,30 524,30 524,40 524,40 519,35 " style="fill:#15d87e; stroke-width:1; stroke:black; " description="&lt;b&gt;LLPMBPKK_00733&lt;/b&gt;&lt;br&gt;SDR family NAD(P)-dependent oxidoreductase&lt;br&gt;Location: 934205 - 934910" locus_tag="LLPMBPKK_00733" class="clusterblast-orf" id="dummy-6_q30_0_all"  />
<polygon points="526,40 530,40 535,35 530,30 526,30 526,40 " style="fill:#8dd815; stroke-width:1; stroke:black; " description="&lt;b&gt;LLPMBPKK_00734&lt;/b&gt;&lt;br&gt;4Fe-4S ferredoxin&lt;br&gt;Location: 935072 - 936182" locus_tag="LLPMBPKK_00734" class="clusterblast-orf" id="dummy-6_q31_0_all"  />
<polygon points="538,40 539,40 544,35 539,30 538,30 538,40 " style="fill:#15d8d8; stroke-width:1; stroke:black; " description="&lt;b&gt;LLPMBPKK_00735&lt;/b&gt;&lt;br&gt;SAM-dependent methyltransferase&lt;br&gt;Location: 936572 - 937370" locus_tag="LLPMBPKK_00735" class="clusterblast-orf" id="dummy-6_q32_0_all"  />
<polygon points="545,35 550,30 553,30 553,40 550,40 545,35 " style="fill:white; stroke-width:1; stroke:black; " description="&lt;b&gt;LLPMBPKK_00736&lt;/b&gt;&lt;br&gt;hypothetical protein&lt;br&gt;Location: 937433 - 938423" locus_tag="LLPMBPKK_00736" class="clusterblast-orf" id="dummy-6_q33_0_all"  />
</g>
<g label="NZ_NNBN01000002" description="NZ_NNBN01000002 (486326-584750): Streptomyces sp. CB02613 scaffold2, whole ge... (10% of genes show similarity), NRPS,ladderane" class="clusterblast-cluster"  >
<text x="5" y="70" class="clusterblast-acc"  >
<a xlink:href="https://antismash-db.secondarymetabolites.org/area.html?record=NZ_NNBN01000002&amp;start=486326&amp;end=584750" target="_blank">NZ_NNBN01000002 (486326-584750)</a>: Streptomyces sp. CB02613 scaffold2, whole ge... (10% of genes show similarity), NRPS,ladderane</text>
<line x1="10" y1="85" x2="778.0" y2="85" style="stroke-width:1; stroke:grey; "  />
</g>
<g id="a6_000"  >
<polygon points="0,90 0,90 5,85 0,80 0,80 0,90 " style="fill:white; stroke-width:1; stroke:black; " description="&lt;b&gt;CG717_RS06390&lt;/b&gt;&lt;br&gt;thioesterase&lt;br&gt;Location: 487337 - 488080" locus_tag="CG717_RS06390" class="clusterblast-orf" id="dummy-6_h6_9_0"  />
</g>
<g id="a6_001"  >
<polygon points="6,90 13,90 18,85 13,80 6,80 6,90 " style="fill:#15d8ab; stroke-width:1; stroke:black; " description="&lt;b&gt;CG717_RS06395&lt;/b&gt;&lt;br&gt;hypothetical protein&lt;br&gt;Location: 488124 - 489596&lt;br&gt;&lt;br&gt;&lt;b&gt;BlastP hit with LLPMBPKK_00727&lt;/b&gt;&lt;br&gt;Percentage identity: 34&lt;br&gt;Percentage coverage: 95&lt;br&gt;BLAST bit score: 172&lt;br&gt;E-value: 1.34e-46" locus_tag="CG717_RS06395" class="clusterblast-orf" id="dummy-6_h6_9_1"  />
</g>
<g id="a6_002"  >
<polygon points="18,90 18,90 23,85 18,80 18,80 18,90 " style="fill:white; stroke-width:1; stroke:black; " description="&lt;b&gt;CG717_RS06400&lt;/b&gt;&lt;br&gt;4'-phosphopantetheinyl transferase superfamily protein&lt;br&gt;Location: 489642 - 490301" locus_tag="CG717_RS06400" class="clusterblast-orf" id="dummy-6_h6_9_2"  />
</g>
<g id="a6_003"  >
<polygon points="24,90 27,85 24,80 24,90 " style="fill:white; stroke-width:1; stroke:black; " description="&lt;b&gt;CG717_RS06405&lt;/b&gt;&lt;br&gt;winged helix-turn-helix transcriptional regulator&lt;br&gt;Location: 490368 - 490703" locus_tag="CG717_RS06405" class="clusterblast-orf" id="dummy-6_h6_9_3"  />
</g>
<g id="a6_004"  >
<polygon points="27,90 29,85 27,80 27,90 " style="fill:white; stroke-width:1; stroke:black; " description="&lt;b&gt;CG717_RS06410&lt;/b&gt;&lt;br&gt;hypothetical protein&lt;br&gt;Location: 490727 - 490960" locus_tag="CG717_RS06410" class="clusterblast-orf" id="dummy-6_h6_9_4"  />
</g>
<g id="a6_005"  >
<polygon points="29,90 30,90 35,85 30,80 29,80 29,90 " style="fill:white; stroke-width:1; stroke:black; " description="&lt;b&gt;CG717_RS06415&lt;/b&gt;&lt;br&gt;hypothetical protein&lt;br&gt;Location: 490981 - 491742" locus_tag="CG717_RS06415" class="clusterblast-orf" id="dummy-6_h6_9_5"  />
</g>
<g id="a6_006"  >
<polygon points="35,90 36,90 41,85 36,80 35,80 35,90 " style="fill:white; stroke-width:1; stroke:black; " description="&lt;b&gt;CG717_RS06420&lt;/b&gt;&lt;br&gt;ABC transporter ATP-binding protein&lt;br&gt;Location: 491714 - 492508" locus_tag="CG717_RS06420" class="clusterblast-orf" id="dummy-6_h6_9_6"  />
</g>
<g id="a6_007"  >
<polygon points="41,90 57,90 62,85 57,80 41,80 41,90 " style="fill:white; stroke-width:1; stroke:black; " description="&lt;b&gt;CG717_RS06425&lt;/b&gt;&lt;br&gt;FtsX-like permease family protein&lt;br&gt;Location: 492505 - 495045" locus_tag="CG717_RS06425" class="clusterblast-orf" id="dummy-6_h6_9_7"  />
</g>
<g id="a6_008"  >
<polygon points="63,90 70,90 75,85 70,80 63,80 63,90 " style="fill:#15d824; stroke-width:1; stroke:black; " description="&lt;b&gt;CG717_RS06430&lt;/b&gt;&lt;br&gt;tryptophan 7-halogenase&lt;br&gt;Location: 495194 - 496747&lt;br&gt;&lt;br&gt;&lt;b&gt;BlastP hit with LLPMBPKK_00715&lt;/b&gt;&lt;br&gt;Percentage identity: 40&lt;br&gt;Percentage coverage: 101&lt;br&gt;BLAST bit score: 389&lt;br&gt;E-value: 3.58e-128" locus_tag="CG717_RS06430" class="clusterblast-orf" id="dummy-6_h6_9_8"  />
</g>
<g id="a6_009"  >
<polygon points="76,90 80,85 76,80 76,90 " style="fill:#1551d8; stroke-width:1; stroke:black; " description="&lt;b&gt;CG717_RS06435&lt;/b&gt;&lt;br&gt;flavin reductase family protein&lt;br&gt;Location: 496820 - 497377&lt;br&gt;&lt;br&gt;&lt;b&gt;BlastP hit with LLPMBPKK_00716&lt;/b&gt;&lt;br&gt;Percentage identity: 47&lt;br&gt;Percentage coverage: 86&lt;br&gt;BLAST bit score: 129&lt;br&gt;E-value: 4.1e-36" locus_tag="CG717_RS06435" class="clusterblast-orf" id="dummy-6_h6_9_9"  />
</g>
<g id="a6_0010"  >
<polygon points="82,85 87,80 88,80 88,90 87,90 82,85 " style="fill:white; stroke-width:1; stroke:black; " description="&lt;b&gt;CG717_RS06440&lt;/b&gt;&lt;br&gt;winged helix-turn-helix transcriptional regulator&lt;br&gt;Location: 497521 - 498354" locus_tag="CG717_RS06440" class="clusterblast-orf" id="dummy-6_h6_9_10"  />
</g>
<g id="a6_0011"  >
<polygon points="89,85 94,80 96,80 96,90 94,90 89,85 " style="fill:#d81542; stroke-width:1; stroke:black; " description="&lt;b&gt;CG717_RS06445&lt;/b&gt;&lt;br&gt;ATP-binding cassette domain-containing protein&lt;br&gt;Location: 498394 - 499335&lt;br&gt;&lt;br&gt;&lt;b&gt;BlastP hit with LLPMBPKK_00731&lt;/b&gt;&lt;br&gt;Percentage identity: 38&lt;br&gt;Percentage coverage: 35&lt;br&gt;BLAST bit score: 89&lt;br&gt;E-value: 3.01e-17" locus_tag="CG717_RS06445" class="clusterblast-orf" id="dummy-6_h6_9_11"  />
</g>
<g id="a6_0012"  >
<polygon points="97,85 98,80 98,90 97,85 " style="fill:white; stroke-width:1; stroke:black; " description="&lt;b&gt;CG717_RS06450&lt;/b&gt;&lt;br&gt;MbtH family protein&lt;br&gt;Location: 499367 - 499585" locus_tag="CG717_RS06450" class="clusterblast-orf" id="dummy-6_h6_9_12"  />
</g>
<g id="a6_0013"  >
<polygon points="99,85 101,80 101,90 99,85 " style="fill:white; stroke-width:1; stroke:black; " description="&lt;b&gt;CG717_RS06455&lt;/b&gt;&lt;br&gt;acyl carrier protein&lt;br&gt;Location: 499691 - 499942" locus_tag="CG717_RS06455" class="clusterblast-orf" id="dummy-6_h6_9_13"  />
</g>
<g id="a6_0014"  >
<polygon points="101,85 106,80 108,80 108,90 106,90 101,85 " style="fill:white; stroke-width:1; stroke:black; " description="&lt;b&gt;CG717_RS06460&lt;/b&gt;&lt;br&gt;3-hydroxyacyl-CoA dehydrogenase family protein&lt;br&gt;Location: 499942 - 500838" locus_tag="CG717_RS06460" class="clusterblast-orf" id="dummy-6_h6_9_14"  />
</g>
<g id="a6_0015"  >
<polygon points="108,85 113,80 118,80 118,90 113,90 108,85 " style="fill:white; stroke-width:1; stroke:black; " description="&lt;b&gt;CG717_RS06465&lt;/b&gt;&lt;br&gt;hypothetical protein&lt;br&gt;Location: 500838 - 502058" locus_tag="CG717_RS06465" class="clusterblast-orf" id="dummy-6_h6_9_15"  />
</g>
<g id="a6_0016"  >
<polygon points="118,85 123,80 128,80 128,90 123,90 118,85 " style="fill:white; stroke-width:1; stroke:black; " description="&lt;b&gt;CG717_RS06470&lt;/b&gt;&lt;br&gt;acyl-CoA dehydrogenase&lt;br&gt;Location: 502075 - 503232" locus_tag="CG717_RS06470" class="clusterblast-orf" id="dummy-6_h6_9_16"  />
</g>
<g id="a6_0017"  >
<polygon points="128,85 133,80 136,80 136,90 133,90 128,85 " style="fill:white; stroke-width:1; stroke:black; " description="&lt;b&gt;CG717_RS06475&lt;/b&gt;&lt;br&gt;3-oxoacyl-ACP synthase&lt;br&gt;Location: 503279 - 504241" locus_tag="CG717_RS06475" class="clusterblast-orf" id="dummy-6_h6_9_17"  />
</g>
<g id="a6_0018"  >
<polygon points="136,85 141,80 146,80 146,90 141,90 136,85 " style="fill:#1524d8; stroke-width:1; stroke:black; " description="&lt;b&gt;CG717_RS06480&lt;/b&gt;&lt;br&gt;cytochrome P450&lt;br&gt;Location: 504238 - 505488&lt;br&gt;&lt;br&gt;&lt;b&gt;BlastP hit with LLPMBPKK_00720&lt;/b&gt;&lt;br&gt;Percentage identity: 38&lt;br&gt;Percentage coverage: 101&lt;br&gt;BLAST bit score: 270&lt;br&gt;E-value: 2.71e-85" locus_tag="CG717_RS06480" class="clusterblast-orf" id="dummy-6_h6_9_18"  />
</g>
<g id="a6_0019"  >
<polygon points="146,85 151,80 153,80 153,90 151,90 146,85 " style="fill:white; stroke-width:1; stroke:black; " description="&lt;b&gt;CG717_RS06485&lt;/b&gt;&lt;br&gt;ABC transporter permease&lt;br&gt;Location: 505515 - 506327" locus_tag="CG717_RS06485" class="clusterblast-orf" id="dummy-6_h6_9_19"  />
</g>
<g id="a6_0020"  >
<polygon points="153,85 158,80 248,80 248,90 158,90 153,85 " style="fill:#d89c15; stroke-width:1; stroke:black; " description="&lt;b&gt;CG717_RS06490&lt;/b&gt;&lt;br&gt;non-ribosomal peptide synthetase&lt;br&gt;Location: 506327 - 518131&lt;br&gt;&lt;br&gt;&lt;b&gt;BlastP hit with LLPMBPKK_00718&lt;/b&gt;&lt;br&gt;Percentage identity: 38&lt;br&gt;Percentage coverage: 99&lt;br&gt;BLAST bit score: 288&lt;br&gt;E-value: 1.4e-82" locus_tag="CG717_RS06490" class="clusterblast-orf" id="dummy-6_h6_9_20"  />
</g>
<g id="a6_0021"  >
<polygon points="249,85 254,80 255,80 255,90 254,90 249,85 " style="fill:white; stroke-width:1; stroke:black; " description="&lt;b&gt;CG717_RS06495&lt;/b&gt;&lt;br&gt;2-hydroxychromene-2-carboxylate isomerase&lt;br&gt;Location: 518335 - 519042" locus_tag="CG717_RS06495" class="clusterblast-orf" id="dummy-6_h6_9_21"  />
</g>
<g id="a6_0022"  >
<polygon points="256,85 261,80 262,80 262,90 261,90 256,85 " style="fill:#15d87e; stroke-width:1; stroke:black; " description="&lt;b&gt;CG717_RS06500&lt;/b&gt;&lt;br&gt;3-oxoacyl-[acyl-carrier-protein] reductase&lt;br&gt;Location: 519128 - 519874&lt;br&gt;&lt;br&gt;&lt;b&gt;BlastP hit with LLPMBPKK_00723&lt;/b&gt;&lt;br&gt;Percentage identity: 35&lt;br&gt;Percentage coverage: 88&lt;br&gt;BLAST bit score: 110&lt;br&gt;E-value: 2.84e-27&lt;br&gt;&lt;br&gt;&lt;b&gt;BlastP hit with LLPMBPKK_00730&lt;/b&gt;&lt;br&gt;Percentage identity: 32&lt;br&gt;Percentage coverage: 99&lt;br&gt;BLAST bit score: 97&lt;br&gt;E-value: 5.98e-22" locus_tag="CG717_RS06500" class="clusterblast-orf" id="dummy-6_h6_9_22"  />
</g>
<g id="a6_0023"  >
<polygon points="262,85 267,80 271,80 271,90 267,90 262,85 " style="fill:white; stroke-width:1; stroke:black; " description="&lt;b&gt;CG717_RS06505&lt;/b&gt;&lt;br&gt;3-oxoacyl-ACP synthase&lt;br&gt;Location: 519877 - 520995" locus_tag="CG717_RS06505" class="clusterblast-orf" id="dummy-6_h6_9_23"  />
</g>
<g id="a6_0024"  >
<polygon points="271,85 276,80 281,80 281,90 276,90 271,85 " style="fill:white; stroke-width:1; stroke:black; " description="&lt;b&gt;CG717_RS06510&lt;/b&gt;&lt;br&gt;beta-ketoacyl-[acyl-carrier-protein] synthase family protein&lt;br&gt;Location: 520995 - 522227" locus_tag="CG717_RS06510" class="clusterblast-orf" id="dummy-6_h6_9_24"  />
</g>
<g id="a6_0025"  >
<polygon points="281,85 283,80 283,90 281,85 " style="fill:white; stroke-width:1; stroke:black; " description="&lt;b&gt;CG717_RS06515&lt;/b&gt;&lt;br&gt;acyl carrier protein&lt;br&gt;Location: 522284 - 522544" locus_tag="CG717_RS06515" class="clusterblast-orf" id="dummy-6_h6_9_25"  />
</g>
<g id="a6_0026"  >
<polygon points="284,85 289,80 292,80 292,90 289,90 284,85 " style="fill:white; stroke-width:1; stroke:black; " description="&lt;b&gt;CG717_RS06520&lt;/b&gt;&lt;br&gt;LysR family transcriptional regulator&lt;br&gt;Location: 522610 - 523596" locus_tag="CG717_RS06520" class="clusterblast-orf" id="dummy-6_h6_9_26"  />
</g>
<g id="a6_0027"  >
<polygon points="293,85 298,80 299,80 299,90 298,90 293,85 " style="fill:white; stroke-width:1; stroke:black; " description="&lt;b&gt;CG717_RS06525&lt;/b&gt;&lt;br&gt;AfsR/SARP family transcriptional regulator&lt;br&gt;Location: 523725 - 524513" locus_tag="CG717_RS06525" class="clusterblast-orf" id="dummy-6_h6_9_27"  />
</g>
<g id="a6_0028"  >
<polygon points="301,85 306,80 319,80 319,90 306,90 301,85 " style="fill:white; stroke-width:1; stroke:black; " description="&lt;b&gt;CG717_RS06530&lt;/b&gt;&lt;br&gt;MMPL family transporter&lt;br&gt;Location: 524735 - 526933" locus_tag="CG717_RS06530" class="clusterblast-orf" id="dummy-6_h6_9_28"  />
</g>
<g id="a6_0029"  >
<polygon points="321,85 326,80 339,80 339,90 326,90 321,85 " style="fill:white; stroke-width:1; stroke:black; " description="&lt;b&gt;CG717_RS06535&lt;/b&gt;&lt;br&gt;pyridoxal-phosphate dependent enzyme&lt;br&gt;Location: 527154 - 529406" locus_tag="CG717_RS06535" class="clusterblast-orf" id="dummy-6_h6_9_29"  />
</g>
<g id="a6_0030"  >
<polygon points="339,85 344,80 346,80 346,90 344,90 339,85 " style="fill:white; stroke-width:1; stroke:black; " description="&lt;b&gt;CG717_RS06540&lt;/b&gt;&lt;br&gt;kinase&lt;br&gt;Location: 529428 - 530285" locus_tag="CG717_RS06540" class="clusterblast-orf" id="dummy-6_h6_9_30"  />
</g>
<g id="a6_0031"  >
<polygon points="346,85 351,80 385,80 385,90 351,90 346,85 " style="fill:white; stroke-width:1; stroke:black; " description="&lt;b&gt;CG717_RS06545&lt;/b&gt;&lt;br&gt;amino acid adenylation domain-containing protein&lt;br&gt;Location: 530357 - 535183" locus_tag="CG717_RS06545" class="clusterblast-orf" id="dummy-6_h6_9_31"  />
</g>
<g id="a6_0032"  >
<polygon points="386,85 391,80 424,80 424,90 391,90 386,85 " style="fill:white; stroke-width:1; stroke:black; " description="&lt;b&gt;CG717_RS06550&lt;/b&gt;&lt;br&gt;non-ribosomal peptide synthetase&lt;br&gt;Location: 535325 - 539971" locus_tag="CG717_RS06550" class="clusterblast-orf" id="dummy-6_h6_9_32"  />
</g>
<g id="a6_0033"  >
<polygon points="424,85 429,80 458,80 458,90 429,90 424,85 " style="fill:white; stroke-width:1; stroke:black; " description="&lt;b&gt;CG717_RS06555&lt;/b&gt;&lt;br&gt;amino acid adenylation domain-containing protein&lt;br&gt;Location: 540013 - 544146" locus_tag="CG717_RS06555" class="clusterblast-orf" id="dummy-6_h6_9_33"  />
</g>
<g id="a6_0034"  >
<polygon points="458,85 463,80 465,80 465,90 463,90 458,85 " style="fill:white; stroke-width:1; stroke:black; " description="&lt;b&gt;CG717_RS06560&lt;/b&gt;&lt;br&gt;3-hydroxyacyl-CoA dehydrogenase family protein&lt;br&gt;Location: 544139 - 545008" locus_tag="CG717_RS06560" class="clusterblast-orf" id="dummy-6_h6_9_34"  />
</g>
<g id="a6_0035"  >
<polygon points="466,85 471,80 504,80 504,90 471,90 466,85 " style="fill:white; stroke-width:1; stroke:black; " description="&lt;b&gt;CG717_RS06565&lt;/b&gt;&lt;br&gt;polyketide synthase&lt;br&gt;Location: 545130 - 549896" locus_tag="CG717_RS06565" class="clusterblast-orf" id="dummy-6_h6_9_35"  />
</g>
<g id="a6_0036"  >
<polygon points="504,85 509,80 519,80 519,90 509,90 504,85 " style="fill:white; stroke-width:1; stroke:black; " description="&lt;b&gt;CG717_RS06570&lt;/b&gt;&lt;br&gt;amino acid adenylation domain-containing protein&lt;br&gt;Location: 549898 - 551769" locus_tag="CG717_RS06570" class="clusterblast-orf" id="dummy-6_h6_9_36"  />
</g>
<g id="a6_0037"  >
<polygon points="519,85 524,80 528,80 528,90 524,90 519,85 " style="fill:white; stroke-width:1; stroke:black; " description="&lt;b&gt;CG717_RS06575&lt;/b&gt;&lt;br&gt;HAD-IIIC family phosphatase&lt;br&gt;Location: 551805 - 552854" locus_tag="CG717_RS06575" class="clusterblast-orf" id="dummy-6_h6_9_37"  />
</g>
<g id="a6_0038"  >
<polygon points="528,85 533,80 538,80 538,90 533,90 528,85 " style="fill:white; stroke-width:1; stroke:black; " description="&lt;b&gt;CG717_RS06580&lt;/b&gt;&lt;br&gt;acyl-CoA/acyl-ACP dehydrogenase&lt;br&gt;Location: 552851 - 554080" locus_tag="CG717_RS06580" class="clusterblast-orf" id="dummy-6_h6_9_38"  />
</g>
<g id="a6_0039"  >
<polygon points="538,85 540,80 540,90 538,85 " style="fill:white; stroke-width:1; stroke:black; " description="&lt;b&gt;CG717_RS06585&lt;/b&gt;&lt;br&gt;acyl carrier protein&lt;br&gt;Location: 554064 - 554336" locus_tag="CG717_RS06585" class="clusterblast-orf" id="dummy-6_h6_9_39"  />
</g>
<g id="a6_0040"  >
<polygon points="540,85 545,80 549,80 549,90 545,90 540,85 " style="fill:white; stroke-width:1; stroke:black; " description="&lt;b&gt;CG717_RS06590&lt;/b&gt;&lt;br&gt;3-oxoacyl-ACP synthase&lt;br&gt;Location: 554333 - 555415" locus_tag="CG717_RS06590" class="clusterblast-orf" id="dummy-6_h6_9_40"  />
</g>
<g id="a6_0041"  >
<polygon points="549,85 554,80 560,80 560,90 554,90 549,85 " style="fill:white; stroke-width:1; stroke:black; " description="&lt;b&gt;CG717_RS06595&lt;/b&gt;&lt;br&gt;3-deoxy-7-phosphoheptulonate synthase class II&lt;br&gt;Location: 555466 - 556842" locus_tag="CG717_RS06595" class="clusterblast-orf" id="dummy-6_h6_9_41"  />
</g>
<g id="a6_0042"  >
<polygon points="562,90 569,90 574,85 569,80 562,80 562,90 " style="fill:white; stroke-width:1; stroke:black; " description="&lt;b&gt;CG717_RS06600&lt;/b&gt;&lt;br&gt;anthranilate synthase component I family protein&lt;br&gt;Location: 557047 - 558537" locus_tag="CG717_RS06600" class="clusterblast-orf" id="dummy-6_h6_9_42"  />
</g>
<g id="a6_0043"  >
<polygon points="574,90 574,90 579,85 574,80 574,80 574,90 " style="fill:white; stroke-width:1; stroke:black; " description="&lt;b&gt;CG717_RS06605&lt;/b&gt;&lt;br&gt;aminodeoxychorismate/anthranilate synthase component II&lt;br&gt;Location: 558567 - 559163" locus_tag="CG717_RS06605" class="clusterblast-orf" id="dummy-6_h6_9_43"  />
</g>
<g id="a6_0044"  >
<polygon points="579,85 584,80 590,80 590,90 584,90 579,85 " style="fill:white; stroke-width:1; stroke:black; " description="&lt;b&gt;CG717_RS06610&lt;/b&gt;&lt;br&gt;PLP-dependent aminotransferase family protein&lt;br&gt;Location: 559137 - 560540" locus_tag="CG717_RS06610" class="clusterblast-orf" id="dummy-6_h6_9_44"  />
</g>
<g id="a6_0045"  >
<polygon points="591,90 594,90 599,85 594,80 591,80 591,90 " style="fill:white; stroke-width:1; stroke:black; " description="&lt;b&gt;CG717_RS06615&lt;/b&gt;&lt;br&gt;anthranilate phosphoribosyltransferase&lt;br&gt;Location: 560662 - 561720" locus_tag="CG717_RS06615" class="clusterblast-orf" id="dummy-6_h6_9_45"  />
</g>
<g id="a6_0046"  >
<polygon points="599,85 604,80 606,80 606,90 604,90 599,85 " style="fill:white; stroke-width:1; stroke:black; " description="&lt;b&gt;CG717_RS06620&lt;/b&gt;&lt;br&gt;indole-3-glycerol phosphate synthase TrpC&lt;br&gt;Location: 561692 - 562504" locus_tag="CG717_RS06620" class="clusterblast-orf" id="dummy-6_h6_9_46"  />
</g>
<g id="a6_0047"  >
<polygon points="607,85 609,80 609,90 607,85 " style="fill:white; stroke-width:1; stroke:black; " description="&lt;b&gt;CG717_RS06625&lt;/b&gt;&lt;br&gt;acyl carrier protein&lt;br&gt;Location: 562669 - 562962" locus_tag="CG717_RS06625" class="clusterblast-orf" id="dummy-6_h6_9_47"  />
</g>
<g id="a6_0048"  >
<polygon points="610,85 615,80 624,80 624,90 615,90 610,85 " style="fill:white; stroke-width:1; stroke:black; " description="&lt;b&gt;CG717_RS06630&lt;/b&gt;&lt;br&gt;fatty acyl-AMP ligase&lt;br&gt;Location: 562984 - 564750" locus_tag="CG717_RS06630" class="clusterblast-orf" id="dummy-6_h6_9_48"  />
</g>
<g id="a6_0049"  >
<polygon points="624,85 628,80 628,90 624,85 " style="fill:white; stroke-width:1; stroke:black; " description="&lt;b&gt;CG717_RS06635&lt;/b&gt;&lt;br&gt;hypothetical protein&lt;br&gt;Location: 564764 - 565288" locus_tag="CG717_RS06635" class="clusterblast-orf" id="dummy-6_h6_9_49"  />
</g>
<g id="a6_0050"  >
<polygon points="628,85 633,80 635,80 635,90 633,90 628,85 " style="fill:white; stroke-width:1; stroke:black; " description="&lt;b&gt;CG717_RS06640&lt;/b&gt;&lt;br&gt;hypothetical protein&lt;br&gt;Location: 565285 - 566133" locus_tag="CG717_RS06640" class="clusterblast-orf" id="dummy-6_h6_9_50"  />
</g>
<g id="a6_0051"  >
<polygon points="643,90 645,85 643,80 643,90 " style="fill:white; stroke-width:1; stroke:black; " description="&lt;b&gt;CG717_RS06660&lt;/b&gt;&lt;br&gt;hypothetical protein&lt;br&gt;Location: 567073 - 567378" locus_tag="CG717_RS06660" class="clusterblast-orf" id="dummy-6_h6_9_51"  />
</g>
<g id="a6_0052"  >
<polygon points="646,90 652,90 657,85 652,80 646,80 646,90 " style="fill:white; stroke-width:1; stroke:black; " description="&lt;b&gt;CG717_RS06665&lt;/b&gt;&lt;br&gt;sugar kinase&lt;br&gt;Location: 567447 - 568898" locus_tag="CG717_RS06665" class="clusterblast-orf" id="dummy-6_h6_9_52"  />
</g>
<g id="a6_0053"  >
<polygon points="659,90 667,90 672,85 667,80 659,80 659,90 " style="fill:white; stroke-width:1; stroke:black; " description="&lt;b&gt;CG717_RS06670&lt;/b&gt;&lt;br&gt;ABC transporter ATP-binding protein&lt;br&gt;Location: 569054 - 570787" locus_tag="CG717_RS06670" class="clusterblast-orf" id="dummy-6_h6_9_53"  />
</g>
<g id="a6_0054"  >
<polygon points="672,90 683,90 688,85 683,80 672,80 672,90 " style="fill:white; stroke-width:1; stroke:black; " description="&lt;b&gt;CG717_RS06675&lt;/b&gt;&lt;br&gt;ABC transporter ATP-binding protein&lt;br&gt;Location: 570787 - 572715" locus_tag="CG717_RS06675" class="clusterblast-orf" id="dummy-6_h6_9_54"  />
</g>
<g id="a6_0055"  >
<polygon points="688,85 693,80 697,80 697,90 693,90 688,85 " style="fill:white; stroke-width:1; stroke:black; " description="&lt;b&gt;CG717_RS06680&lt;/b&gt;&lt;br&gt;RNA polymerase sigma factor&lt;br&gt;Location: 572731 - 573822" locus_tag="CG717_RS06680" class="clusterblast-orf" id="dummy-6_h6_9_55"  />
</g>
<g id="a6_0056"  >
<polygon points="699,85 704,80 714,80 714,90 704,90 699,85 " style="fill:white; stroke-width:1; stroke:black; " description="&lt;b&gt;CG717_RS06685&lt;/b&gt;&lt;br&gt;DNA primase&lt;br&gt;Location: 574030 - 575961" locus_tag="CG717_RS06685" class="clusterblast-orf" id="dummy-6_h6_9_56"  />
</g>
<g id="a6_0057"  >
<polygon points="715,85 720,80 725,80 725,90 720,90 715,85 " style="fill:white; stroke-width:1; stroke:black; " description="&lt;b&gt;CG717_RS06690&lt;/b&gt;&lt;br&gt;FAD-dependent oxidoreductase&lt;br&gt;Location: 576056 - 577315" locus_tag="CG717_RS06690" class="clusterblast-orf" id="dummy-6_h6_9_57"  />
</g>
<g id="a6_0058"  >
<polygon points="726,85 731,80 737,80 737,90 731,90 726,85 " style="fill:white; stroke-width:1; stroke:black; " description="&lt;b&gt;CG717_RS06695&lt;/b&gt;&lt;br&gt;deoxyguanosinetriphosphate triphosphohydrolase&lt;br&gt;Location: 577461 - 578819" locus_tag="CG717_RS06695" class="clusterblast-orf" id="dummy-6_h6_9_58"  />
</g>
<g id="a6_0059"  >
<polygon points="738,85 743,80 745,80 745,90 743,90 738,85 " style="fill:white; stroke-width:1; stroke:black; " description="&lt;b&gt;CG717_RS06700&lt;/b&gt;&lt;br&gt;sirohydrochlorin chelatase&lt;br&gt;Location: 578872 - 579792" locus_tag="CG717_RS06700" class="clusterblast-orf" id="dummy-6_h6_9_59"  />
</g>
<g id="a6_0060"  >
<polygon points="747,90 754,90 759,85 754,80 747,80 747,90 " style="fill:white; stroke-width:1; stroke:black; " description="&lt;b&gt;CG717_RS06705&lt;/b&gt;&lt;br&gt;hypothetical protein&lt;br&gt;Location: 580011 - 581528" locus_tag="CG717_RS06705" class="clusterblast-orf" id="dummy-6_h6_9_60"  />
</g>
<g id="a6_0061"  >
<polygon points="760,90 762,90 767,85 762,80 760,80 760,90 " style="fill:white; stroke-width:1; stroke:black; " description="&lt;b&gt;CG717_RS06710&lt;/b&gt;&lt;br&gt;hypothetical protein&lt;br&gt;Location: 581667 - 582449" locus_tag="CG717_RS06710" class="clusterblast-orf" id="dummy-6_h6_9_61"  />
</g>
<g id="a6_0062"  >
<polygon points="767,85 771,80 771,90 767,85 " style="fill:white; stroke-width:1; stroke:black; " description="&lt;b&gt;CG717_RS06715&lt;/b&gt;&lt;br&gt;gamma-glutamylcyclotransferase&lt;br&gt;Location: 582519 - 582986" locus_tag="CG717_RS06715" class="clusterblast-orf" id="dummy-6_h6_9_62"  />
</g>
<g id="a6_0063"  >
<polygon points="771,85 774,80 774,90 771,85 " style="fill:white; stroke-width:1; stroke:black; " description="&lt;b&gt;CG717_RS06720&lt;/b&gt;&lt;br&gt;divalent-cation tolerance protein CutA&lt;br&gt;Location: 582998 - 583339" locus_tag="CG717_RS06720" class="clusterblast-orf" id="dummy-6_h6_9_63"  />
</g>
<g id="a6_0064"  >
<polygon points="774,85 779,80 780,80 780,90 779,90 774,85 " style="fill:white; stroke-width:1; stroke:black; " description="&lt;b&gt;CG717_RS06725&lt;/b&gt;&lt;br&gt;NAD(P)H-dependent oxidoreductase&lt;br&gt;Location: 583432 - 584058" locus_tag="CG717_RS06725" class="clusterblast-orf" id="dummy-6_h6_9_64"  />
</g>
</svg>
