<svg xmlns="http://www.w3.org/2000/svg" xmlns:xlink="http://www.w3.org/1999/xlink" version="1.1" x="0" y="0" height="230" width="800" viewBox="0 0 800 230" preserveAspectRatio="none"  >
<g label="Query sequence" class="clusterblast-cluster"  >
<text x="5" y="20" class="clusterblast-acc"  >
Query sequence</text>
<line x1="10" y1="35" x2="778.0" y2="35" style="stroke-width:1; stroke:grey; "  />
<polygon points="207,35 209,30 209,40 207,35 " style="fill:white; stroke-width:1; stroke:black; " description="&lt;b&gt;LLPMBPKK_00521&lt;/b&gt;&lt;br&gt;FMN reductase&lt;br&gt;Location: 626718 - 627333" locus_tag="LLPMBPKK_00521" class="clusterblast-orf" id="dummy-3_q0_0_all"  />
<polygon points="209,35 213,30 213,40 209,35 " style="fill:white; stroke-width:1; stroke:black; " description="&lt;b&gt;LLPMBPKK_00522&lt;/b&gt;&lt;br&gt;LLM class flavin-dependent oxidoreductase&lt;br&gt;Location: 627329 - 628415" locus_tag="LLPMBPKK_00522" class="clusterblast-orf" id="dummy-3_q1_0_all"  />
<polygon points="214,35 217,30 217,40 214,35 " style="fill:#d81515; stroke-width:1; stroke:black; " description="&lt;b&gt;LLPMBPKK_00523&lt;/b&gt;&lt;br&gt;non-heme bromoperoxidase BPO-A2&lt;br&gt;Location: 628614 - 629451" locus_tag="LLPMBPKK_00523" class="clusterblast-orf" id="dummy-3_q2_0_all"  />
<polygon points="218,40 222,35 218,30 218,40 " style="fill:white; stroke-width:1; stroke:black; " description="&lt;b&gt;LLPMBPKK_00524&lt;/b&gt;&lt;br&gt;MerR family DNA-binding transcriptionalregulator&lt;br&gt;Location: 629924 - 630884" locus_tag="LLPMBPKK_00524" class="clusterblast-orf" id="dummy-3_q3_0_all"  />
<polygon points="222,40 225,35 222,30 222,40 " style="fill:white; stroke-width:1; stroke:black; " description="&lt;b&gt;LLPMBPKK_00525&lt;/b&gt;&lt;br&gt;transcriptional regulator&lt;br&gt;Location: 630968 - 631613" locus_tag="LLPMBPKK_00525" class="clusterblast-orf" id="dummy-3_q4_0_all"  />
<polygon points="226,40 228,35 226,30 226,40 " style="fill:white; stroke-width:1; stroke:black; " description="&lt;b&gt;LLPMBPKK_00526&lt;/b&gt;&lt;br&gt;hypothetical protein&lt;br&gt;Location: 631916 - 632405" locus_tag="LLPMBPKK_00526" class="clusterblast-orf" id="dummy-3_q5_0_all"  />
<polygon points="228,40 231,35 228,30 228,40 " style="fill:white; stroke-width:1; stroke:black; " description="&lt;b&gt;LLPMBPKK_00527&lt;/b&gt;&lt;br&gt;class F sortase&lt;br&gt;Location: 632574 - 633225" locus_tag="LLPMBPKK_00527" class="clusterblast-orf" id="dummy-3_q6_0_all"  />
<polygon points="231,40 241,40 246,35 241,30 231,30 231,40 " style="fill:white; stroke-width:1; stroke:black; " description="&lt;b&gt;LLPMBPKK_00528&lt;/b&gt;&lt;br&gt;hypothetical protein&lt;br&gt;Location: 633383 - 637448" locus_tag="LLPMBPKK_00528" class="clusterblast-orf" id="dummy-3_q7_0_all"  />
<polygon points="247,40 248,35 247,30 247,40 " style="fill:white; stroke-width:1; stroke:black; " description="&lt;b&gt;LLPMBPKK_00529&lt;/b&gt;&lt;br&gt;hypothetical protein&lt;br&gt;Location: 637581 - 637950" locus_tag="LLPMBPKK_00529" class="clusterblast-orf" id="dummy-3_q8_0_all"  />
<polygon points="249,40 251,35 249,30 249,40 " style="fill:white; stroke-width:1; stroke:black; " description="&lt;b&gt;LLPMBPKK_00530&lt;/b&gt;&lt;br&gt;hypothetical protein&lt;br&gt;Location: 638304 - 638916" locus_tag="LLPMBPKK_00530" class="clusterblast-orf" id="dummy-3_q9_0_all"  />
<polygon points="252,35 257,30 261,30 261,40 257,40 252,35 " style="fill:#77d815; stroke-width:1; stroke:black; " description="&lt;b&gt;LLPMBPKK_00531&lt;/b&gt;&lt;br&gt;glycoside hydrolase family 65 protein&lt;br&gt;Location: 639041 - 641441" locus_tag="LLPMBPKK_00531" class="clusterblast-orf" id="dummy-3_q10_0_all"  />
<polygon points="261,35 263,30 263,40 261,35 " style="fill:#15d8d8; stroke-width:1; stroke:black; " description="&lt;b&gt;LLPMBPKK_00532&lt;/b&gt;&lt;br&gt;hydrolase&lt;br&gt;Location: 641437 - 642181" locus_tag="LLPMBPKK_00532" class="clusterblast-orf" id="dummy-3_q11_0_all"  />
<polygon points="265,35 268,30 268,40 265,35 " style="fill:white; stroke-width:1; stroke:black; " description="&lt;b&gt;LLPMBPKK_00533&lt;/b&gt;&lt;br&gt;hypothetical protein&lt;br&gt;Location: 642596 - 643553" locus_tag="LLPMBPKK_00533" class="clusterblast-orf" id="dummy-3_q12_0_all"  />
<polygon points="269,40 272,35 269,30 269,40 " style="fill:#7715d8; stroke-width:1; stroke:black; " description="&lt;b&gt;LLPMBPKK_00534&lt;/b&gt;&lt;br&gt;lipoprotein&lt;br&gt;Location: 643768 - 644509" locus_tag="LLPMBPKK_00534" class="clusterblast-orf" id="dummy-3_q13_0_all"  />
<polygon points="273,35 277,30 277,40 273,35 " style="fill:#d87715; stroke-width:1; stroke:black; " description="&lt;b&gt;LLPMBPKK_00535&lt;/b&gt;&lt;br&gt;oxidoreductase&lt;br&gt;Location: 644721 - 645858" locus_tag="LLPMBPKK_00535" class="clusterblast-orf" id="dummy-3_q14_0_all"  />
<polygon points="278,40 279,35 278,30 278,40 " style="fill:white; stroke-width:1; stroke:black; " description="&lt;b&gt;LLPMBPKK_00536&lt;/b&gt;&lt;br&gt;hypothetical protein&lt;br&gt;Location: 646074 - 646482" locus_tag="LLPMBPKK_00536" class="clusterblast-orf" id="dummy-3_q15_0_all"  />
<polygon points="280,35 285,30 287,30 287,40 285,40 280,35 " style="fill:#15d815; stroke-width:1; stroke:black; " description="&lt;b&gt;LLPMBPKK_00537&lt;/b&gt;&lt;br&gt;ACP S-malonyltransferase&lt;br&gt;Location: 646632 - 648510" locus_tag="LLPMBPKK_00537" class="clusterblast-orf" id="dummy-3_q16_0_all"  />
<polygon points="287,35 292,30 295,30 295,40 292,40 287,35 " style="fill:#15d815; stroke-width:1; stroke:black; " description="&lt;b&gt;LLPMBPKK_00538&lt;/b&gt;&lt;br&gt;1,4-dihydroxy-2-naphthoyl-CoA synthase&lt;br&gt;Location: 648514 - 650752" locus_tag="LLPMBPKK_00538" class="clusterblast-orf" id="dummy-3_q17_0_all"  />
<polygon points="295,35 299,30 299,40 295,35 " style="fill:#1577d8; stroke-width:1; stroke:black; " description="&lt;b&gt;LLPMBPKK_00539&lt;/b&gt;&lt;br&gt;Polyketide biosynthesis3-hydroxy-3-methylglutaryl-ACP synthase PksG&lt;br&gt;Location: 650739 - 652002" locus_tag="LLPMBPKK_00539" class="clusterblast-orf" id="dummy-3_q18_0_all"  />
<polygon points="299,35 304,30 304,30 304,40 304,40 299,35 " style="fill:#15d815; stroke-width:1; stroke:black; " description="&lt;b&gt;LLPMBPKK_00540&lt;/b&gt;&lt;br&gt;3-oxoacyl-ACP synthase&lt;br&gt;Location: 652007 - 653243" locus_tag="LLPMBPKK_00540" class="clusterblast-orf" id="dummy-3_q19_0_all"  />
<polygon points="304,35 305,30 305,40 304,35 " style="fill:#d815d8; stroke-width:1; stroke:black; " description="&lt;b&gt;LLPMBPKK_00541&lt;/b&gt;&lt;br&gt;Polyketide biosynthesis acyl-carrier-proteinAcpK&lt;br&gt;Location: 653244 - 653508" locus_tag="LLPMBPKK_00541" class="clusterblast-orf" id="dummy-3_q20_0_all"  />
<polygon points="305,35 310,30 339,30 339,40 310,40 305,35 " style="fill:#15d815; stroke-width:1; stroke:black; " description="&lt;b&gt;LLPMBPKK_00542&lt;/b&gt;&lt;br&gt;D-alanine--poly(phosphoribitol) ligase subunit 1&lt;br&gt;Location: 653546 - 662720" locus_tag="LLPMBPKK_00542" class="clusterblast-orf" id="dummy-3_q21_0_all"  />
<polygon points="339,35 344,30 367,30 367,40 344,40 339,35 " style="fill:#15d815; stroke-width:1; stroke:black; " description="&lt;b&gt;LLPMBPKK_00543&lt;/b&gt;&lt;br&gt;non-ribosomal peptide synthetase&lt;br&gt;Location: 662716 - 670306" locus_tag="LLPMBPKK_00543" class="clusterblast-orf" id="dummy-3_q22_0_all"  />
<polygon points="367,35 372,30 419,30 419,40 372,40 367,35 " style="fill:#15d815; stroke-width:1; stroke:black; " description="&lt;b&gt;LLPMBPKK_00544&lt;/b&gt;&lt;br&gt;Acyl carrier protein&lt;br&gt;Location: 670302 - 684732" locus_tag="LLPMBPKK_00544" class="clusterblast-orf" id="dummy-3_q23_0_all"  />
<polygon points="419,35 424,30 501,30 501,40 424,40 419,35 " style="fill:#15d815; stroke-width:1; stroke:black; " description="&lt;b&gt;LLPMBPKK_00545&lt;/b&gt;&lt;br&gt;D-alanine--poly(phosphoribitol) ligase subunit 1&lt;br&gt;Location: 684728 - 706898" locus_tag="LLPMBPKK_00545" class="clusterblast-orf" id="dummy-3_q24_0_all"  />
<polygon points="501,35 506,30 522,30 522,40 506,40 501,35 " style="fill:#15d815; stroke-width:1; stroke:black; " description="&lt;b&gt;LLPMBPKK_00546&lt;/b&gt;&lt;br&gt;hypothetical protein&lt;br&gt;Location: 707071 - 712630" locus_tag="LLPMBPKK_00546" class="clusterblast-orf" id="dummy-3_q25_0_all"  />
<polygon points="522,35 527,30 554,30 554,40 527,40 522,35 " style="fill:#15d815; stroke-width:1; stroke:black; " description="&lt;b&gt;LLPMBPKK_00547&lt;/b&gt;&lt;br&gt;hypothetical protein&lt;br&gt;Location: 712613 - 721484" locus_tag="LLPMBPKK_00547" class="clusterblast-orf" id="dummy-3_q26_0_all"  />
<polygon points="555,40 558,35 555,30 555,40 " style="fill:#d8d815; stroke-width:1; stroke:black; " description="&lt;b&gt;LLPMBPKK_00548&lt;/b&gt;&lt;br&gt;thioesterase&lt;br&gt;Location: 721801 - 722650" locus_tag="LLPMBPKK_00548" class="clusterblast-orf" id="dummy-3_q27_0_all"  />
<polygon points="559,40 559,40 564,35 559,30 559,30 559,40 " style="fill:#15d877; stroke-width:1; stroke:black; " description="&lt;b&gt;LLPMBPKK_00549&lt;/b&gt;&lt;br&gt;amidase&lt;br&gt;Location: 722786 - 724211" locus_tag="LLPMBPKK_00549" class="clusterblast-orf" id="dummy-3_q28_0_all"  />
<polygon points="565,40 565,40 570,35 565,30 565,30 565,40 " style="fill:#1515d8; stroke-width:1; stroke:black; " description="&lt;b&gt;LLPMBPKK_00550&lt;/b&gt;&lt;br&gt;Pentapeptide repeats (8 copies)&lt;br&gt;Location: 724442 - 725738" locus_tag="LLPMBPKK_00550" class="clusterblast-orf" id="dummy-3_q29_0_all"  />
<polygon points="570,35 572,30 572,40 570,35 " style="fill:#d81577; stroke-width:1; stroke:black; " description="&lt;b&gt;LLPMBPKK_00551&lt;/b&gt;&lt;br&gt;4'-phosphopantetheinyl transferase superfamilyprotein&lt;br&gt;Location: 725715 - 726438" locus_tag="LLPMBPKK_00551" class="clusterblast-orf" id="dummy-3_q30_0_all"  />
</g>
<g label="NZ_CP017705" description="NZ_CP017705 (5032270-5245872): Brevibacillus laterosporus DSM 25, complete ge... (14% of genes show similarity), NRPS,PKS-like,T3PKS,bacteriocin,transAT-PKS,transAT-PKS-like" class="clusterblast-cluster"  >
<text x="5" y="70" class="clusterblast-acc"  >
<a xlink:href="https://antismash-db.secondarymetabolites.org/area.html?record=NZ_CP017705&amp;start=5032270&amp;end=5245872" target="_blank">NZ_CP017705 (5032270-5245872)</a>: Brevibacillus laterosporus DSM 25, complete ge... (14% of genes show similarity), NRPS,PKS-like,T3PKS,bacteriocin,transAT-PKS,transAT-PKS-like</text>
<line x1="10" y1="85" x2="778.0" y2="85" style="stroke-width:1; stroke:grey; "  />
</g>
<g id="a3_000"  >
<polygon points="0,85 2,80 2,90 0,85 " style="fill:white; stroke-width:1; stroke:black; " description="&lt;b&gt;BrL25_RS23345&lt;/b&gt;&lt;br&gt;purine-nucleoside phosphorylase&lt;br&gt;Location: 5032271 - 5033089" locus_tag="BrL25_RS23345" class="clusterblast-orf" id="dummy-3_h3_6_0"  />
</g>
<g id="a3_001"  >
<polygon points="4,90 4,90 9,85 4,80 4,80 4,90 " style="fill:white; stroke-width:1; stroke:black; " description="&lt;b&gt;BrL25_RS23350&lt;/b&gt;&lt;br&gt;hypothetical protein&lt;br&gt;Location: 5033482 - 5034873" locus_tag="BrL25_RS23350" class="clusterblast-orf" id="dummy-3_h3_6_1"  />
</g>
<g id="a3_002"  >
<polygon points="10,90 13,85 10,80 10,90 " style="fill:white; stroke-width:1; stroke:black; " description="&lt;b&gt;BrL25_RS23355&lt;/b&gt;&lt;br&gt;polysaccharide deacetylase family protein&lt;br&gt;Location: 5035034 - 5035894" locus_tag="BrL25_RS23355" class="clusterblast-orf" id="dummy-3_h3_6_2"  />
</g>
<g id="a3_003"  >
<polygon points="14,85 18,80 18,90 14,85 " style="fill:white; stroke-width:1; stroke:black; " description="&lt;b&gt;BrL25_RS23360&lt;/b&gt;&lt;br&gt;ABC transporter substrate-binding protein&lt;br&gt;Location: 5036345 - 5037370" locus_tag="BrL25_RS23360" class="clusterblast-orf" id="dummy-3_h3_6_3"  />
</g>
<g id="a3_004"  >
<polygon points="18,85 21,80 21,90 18,85 " style="fill:white; stroke-width:1; stroke:black; " description="&lt;b&gt;BrL25_RS23365&lt;/b&gt;&lt;br&gt;ABC transporter ATP-binding protein&lt;br&gt;Location: 5037396 - 5038199" locus_tag="BrL25_RS23365" class="clusterblast-orf" id="dummy-3_h3_6_4"  />
</g>
<g id="a3_005"  >
<polygon points="21,85 25,80 25,90 21,85 " style="fill:white; stroke-width:1; stroke:black; " description="&lt;b&gt;BrL25_RS23370&lt;/b&gt;&lt;br&gt;iron chelate uptake ABC transporter family permease subunit&lt;br&gt;Location: 5038201 - 5039298" locus_tag="BrL25_RS23370" class="clusterblast-orf" id="dummy-3_h3_6_5"  />
</g>
<g id="a3_006"  >
<polygon points="28,85 32,80 32,90 28,85 " style="fill:white; stroke-width:1; stroke:black; " description="&lt;b&gt;BrL25_RS23375&lt;/b&gt;&lt;br&gt;DUF421 domain-containing protein&lt;br&gt;Location: 5040171 - 5041031" locus_tag="BrL25_RS23375" class="clusterblast-orf" id="dummy-3_h3_6_6"  />
</g>
<g id="a3_007"  >
<polygon points="32,90 34,85 32,80 32,90 " style="fill:white; stroke-width:1; stroke:black; " description="&lt;b&gt;BrL25_RS23380&lt;/b&gt;&lt;br&gt;stage V sporulation protein AC&lt;br&gt;Location: 5041174 - 5041659" locus_tag="BrL25_RS23380" class="clusterblast-orf" id="dummy-3_h3_6_7"  />
</g>
<g id="a3_008"  >
<polygon points="34,90 38,85 34,80 34,90 " style="fill:white; stroke-width:1; stroke:black; " description="&lt;b&gt;BrL25_RS23385&lt;/b&gt;&lt;br&gt;stage V sporulation protein AD&lt;br&gt;Location: 5041661 - 5042674" locus_tag="BrL25_RS23385" class="clusterblast-orf" id="dummy-3_h3_6_8"  />
</g>
<g id="a3_009"  >
<polygon points="38,90 39,85 38,80 38,90 " style="fill:white; stroke-width:1; stroke:black; " description="&lt;b&gt;BrL25_RS23390&lt;/b&gt;&lt;br&gt;stage V sporulation protein AE&lt;br&gt;Location: 5042671 - 5043024" locus_tag="BrL25_RS23390" class="clusterblast-orf" id="dummy-3_h3_6_9"  />
</g>
<g id="a3_0010"  >
<polygon points="39,90 40,85 39,80 39,90 " style="fill:white; stroke-width:1; stroke:black; " description="&lt;b&gt;BrL25_RS23395&lt;/b&gt;&lt;br&gt;DUF1657 domain-containing protein&lt;br&gt;Location: 5043053 - 5043259" locus_tag="BrL25_RS23395" class="clusterblast-orf" id="dummy-3_h3_6_10"  />
</g>
<g id="a3_0011"  >
<polygon points="40,85 43,80 43,90 40,85 " style="fill:white; stroke-width:1; stroke:black; " description="&lt;b&gt;BrL25_RS23400&lt;/b&gt;&lt;br&gt;ATP-binding cassette domain-containing protein&lt;br&gt;Location: 5043403 - 5044080" locus_tag="BrL25_RS23400" class="clusterblast-orf" id="dummy-3_h3_6_11"  />
</g>
<g id="a3_0012"  >
<polygon points="44,85 44,80 44,90 44,85 " style="fill:white; stroke-width:1; stroke:black; " description="&lt;b&gt;BrL25_RS23405&lt;/b&gt;&lt;br&gt;hypothetical protein&lt;br&gt;Location: 5044289 - 5044543" locus_tag="BrL25_RS23405" class="clusterblast-orf" id="dummy-3_h3_6_12"  />
</g>
<g id="a3_0013"  >
<polygon points="46,85 47,80 47,90 46,85 " style="fill:white; stroke-width:1; stroke:black; " description="&lt;b&gt;BrL25_RS23410&lt;/b&gt;&lt;br&gt;DUF4870 domain-containing protein&lt;br&gt;Location: 5044905 - 5045222" locus_tag="BrL25_RS23410" class="clusterblast-orf" id="dummy-3_h3_6_13"  />
</g>
<g id="a3_0014"  >
<polygon points="48,90 49,85 48,80 48,90 " style="fill:white; stroke-width:1; stroke:black; " description="&lt;b&gt;BrL25_RS23415&lt;/b&gt;&lt;br&gt;hypothetical protein&lt;br&gt;Location: 5045528 - 5045788" locus_tag="BrL25_RS23415" class="clusterblast-orf" id="dummy-3_h3_6_14"  />
</g>
<g id="a3_0015"  >
<polygon points="52,90 53,85 52,80 52,90 " style="fill:white; stroke-width:1; stroke:black; " description="&lt;b&gt;BrL25_RS23425&lt;/b&gt;&lt;br&gt;hypothetical protein&lt;br&gt;Location: 5046481 - 5046729" locus_tag="BrL25_RS23425" class="clusterblast-orf" id="dummy-3_h3_6_15"  />
</g>
<g id="a3_0016"  >
<polygon points="55,90 57,85 55,80 55,90 " style="fill:white; stroke-width:1; stroke:black; " description="&lt;b&gt;BrL25_RS23430&lt;/b&gt;&lt;br&gt;hypothetical protein&lt;br&gt;Location: 5047530 - 5047988" locus_tag="BrL25_RS23430" class="clusterblast-orf" id="dummy-3_h3_6_16"  />
</g>
<g id="a3_0017"  >
<polygon points="60,85 62,80 62,90 60,85 " style="fill:white; stroke-width:1; stroke:black; " description="&lt;b&gt;BrL25_RS23435&lt;/b&gt;&lt;br&gt;hypothetical protein&lt;br&gt;Location: 5048640 - 5049285" locus_tag="BrL25_RS23435" class="clusterblast-orf" id="dummy-3_h3_6_17"  />
</g>
<g id="a3_0018"  >
<polygon points="62,85 67,80 68,80 68,90 67,90 62,85 " style="fill:white; stroke-width:1; stroke:black; " description="&lt;b&gt;BrL25_RS23440&lt;/b&gt;&lt;br&gt;hypothetical protein&lt;br&gt;Location: 5049394 - 5050956" locus_tag="BrL25_RS23440" class="clusterblast-orf" id="dummy-3_h3_6_18"  />
</g>
<g id="a3_0019"  >
<polygon points="71,85 76,80 99,80 99,90 76,90 71,85 " style="fill:#15d815; stroke-width:1; stroke:black; " description="&lt;b&gt;BrL25_RS23445&lt;/b&gt;&lt;br&gt;non-ribosomal peptide synthetase&lt;br&gt;Location: 5051885 - 5059450&lt;br&gt;&lt;br&gt;&lt;b&gt;BlastP hit with LLPMBPKK_00542&lt;/b&gt;&lt;br&gt;Percentage identity: 37&lt;br&gt;Percentage coverage: 85&lt;br&gt;BLAST bit score: 1576&lt;br&gt;E-value: 0.0&lt;br&gt;&lt;br&gt;&lt;b&gt;BlastP hit with LLPMBPKK_00543&lt;/b&gt;&lt;br&gt;Percentage identity: 41&lt;br&gt;Percentage coverage: 101&lt;br&gt;BLAST bit score: 1939&lt;br&gt;E-value: 0.0" locus_tag="BrL25_RS23445" class="clusterblast-orf" id="dummy-3_h3_6_19"  />
</g>
<g id="a3_0020"  >
<polygon points="99,85 104,80 144,80 144,90 104,90 99,85 " style="fill:#15d815; stroke-width:1; stroke:black; " description="&lt;b&gt;BrL25_RS23450&lt;/b&gt;&lt;br&gt;SDR family NAD(P)-dependent oxidoreductase&lt;br&gt;Location: 5059466 - 5071612&lt;br&gt;&lt;br&gt;&lt;b&gt;BlastP hit with LLPMBPKK_00544&lt;/b&gt;&lt;br&gt;Percentage identity: 33&lt;br&gt;Percentage coverage: 106&lt;br&gt;BLAST bit score: 2410&lt;br&gt;E-value: 0.0&lt;br&gt;&lt;br&gt;&lt;b&gt;BlastP hit with LLPMBPKK_00546&lt;/b&gt;&lt;br&gt;Percentage identity: 35&lt;br&gt;Percentage coverage: 41&lt;br&gt;BLAST bit score: 420&lt;br&gt;E-value: 4.61e-117&lt;br&gt;&lt;br&gt;&lt;b&gt;BlastP hit with LLPMBPKK_00547&lt;/b&gt;&lt;br&gt;Percentage identity: 35&lt;br&gt;Percentage coverage: 75&lt;br&gt;BLAST bit score: 1066&lt;br&gt;E-value: 0.0" locus_tag="BrL25_RS23450" class="clusterblast-orf" id="dummy-3_h3_6_20"  />
</g>
<g id="a3_0021"  >
<polygon points="144,85 149,80 226,80 226,90 149,90 144,85 " style="fill:#15d815; stroke-width:1; stroke:black; " description="&lt;b&gt;BrL25_RS23455&lt;/b&gt;&lt;br&gt;non-ribosomal peptide synthetase&lt;br&gt;Location: 5071637 - 5093950&lt;br&gt;&lt;br&gt;&lt;b&gt;BlastP hit with LLPMBPKK_00545&lt;/b&gt;&lt;br&gt;Percentage identity: 41&lt;br&gt;Percentage coverage: 103&lt;br&gt;BLAST bit score: 5349&lt;br&gt;E-value: 0.0&lt;br&gt;&lt;br&gt;&lt;b&gt;BlastP hit with LLPMBPKK_00546&lt;/b&gt;&lt;br&gt;Percentage identity: 32&lt;br&gt;Percentage coverage: 48&lt;br&gt;BLAST bit score: 428&lt;br&gt;E-value: 2.14e-119&lt;br&gt;&lt;br&gt;&lt;b&gt;BlastP hit with LLPMBPKK_00547&lt;/b&gt;&lt;br&gt;Percentage identity: 34&lt;br&gt;Percentage coverage: 25&lt;br&gt;BLAST bit score: 396&lt;br&gt;E-value: 3.79e-108" locus_tag="BrL25_RS23455" class="clusterblast-orf" id="dummy-3_h3_6_21"  />
</g>
<g id="a3_0022"  >
<polygon points="226,85 231,80 292,80 292,90 231,90 226,85 " style="fill:#15d815; stroke-width:1; stroke:black; " description="&lt;b&gt;BrL25_RS23460&lt;/b&gt;&lt;br&gt;KR domain-containing protein&lt;br&gt;Location: 5093970 - 5111966&lt;br&gt;&lt;br&gt;&lt;b&gt;BlastP hit with LLPMBPKK_00546&lt;/b&gt;&lt;br&gt;Percentage identity: 42&lt;br&gt;Percentage coverage: 102&lt;br&gt;BLAST bit score: 1348&lt;br&gt;E-value: 0.0&lt;br&gt;&lt;br&gt;&lt;b&gt;BlastP hit with LLPMBPKK_00547&lt;/b&gt;&lt;br&gt;Percentage identity: 31&lt;br&gt;Percentage coverage: 125&lt;br&gt;BLAST bit score: 1346&lt;br&gt;E-value: 0.0" locus_tag="BrL25_RS23460" class="clusterblast-orf" id="dummy-3_h3_6_22"  />
</g>
<g id="a3_0023"  >
<polygon points="292,85 295,80 295,90 292,85 " style="fill:#1515d8; stroke-width:1; stroke:black; " description="&lt;b&gt;BrL25_RS23465&lt;/b&gt;&lt;br&gt;pentapeptide repeat-containing protein&lt;br&gt;Location: 5111996 - 5112880&lt;br&gt;&lt;br&gt;&lt;b&gt;BlastP hit with LLPMBPKK_00550&lt;/b&gt;&lt;br&gt;Percentage identity: 59&lt;br&gt;Percentage coverage: 64&lt;br&gt;BLAST bit score: 231&lt;br&gt;E-value: 3.51e-71" locus_tag="BrL25_RS23465" class="clusterblast-orf" id="dummy-3_h3_6_23"  />
</g>
<g id="a3_0024"  >
<polygon points="295,85 300,80 329,80 329,90 300,90 295,85 " style="fill:#15d815; stroke-width:1; stroke:black; " description="&lt;b&gt;BrL25_RS23470&lt;/b&gt;&lt;br&gt;non-ribosomal peptide synthetase&lt;br&gt;Location: 5112951 - 5122103&lt;br&gt;&lt;br&gt;&lt;b&gt;BlastP hit with LLPMBPKK_00542&lt;/b&gt;&lt;br&gt;Percentage identity: 49&lt;br&gt;Percentage coverage: 100&lt;br&gt;BLAST bit score: 2851&lt;br&gt;E-value: 0.0&lt;br&gt;&lt;br&gt;&lt;b&gt;BlastP hit with LLPMBPKK_00543&lt;/b&gt;&lt;br&gt;Percentage identity: 39&lt;br&gt;Percentage coverage: 80&lt;br&gt;BLAST bit score: 1337&lt;br&gt;E-value: 0.0" locus_tag="BrL25_RS23470" class="clusterblast-orf" id="dummy-3_h3_6_24"  />
</g>
<g id="a3_0025"  >
<polygon points="329,85 332,80 332,90 329,85 " style="fill:#15d815; stroke-width:1; stroke:black; " description="&lt;b&gt;BrL25_RS23475&lt;/b&gt;&lt;br&gt;enoyl-CoA hydratase/isomerase&lt;br&gt;Location: 5122181 - 5122957&lt;br&gt;&lt;br&gt;&lt;b&gt;BlastP hit with LLPMBPKK_00538&lt;/b&gt;&lt;br&gt;Percentage identity: 48&lt;br&gt;Percentage coverage: 34&lt;br&gt;BLAST bit score: 230&lt;br&gt;E-value: 3.82e-68" locus_tag="BrL25_RS23475" class="clusterblast-orf" id="dummy-3_h3_6_25"  />
</g>
<g id="a3_0026"  >
<polygon points="332,85 337,80 337,80 337,90 337,90 332,85 " style="fill:#1577d8; stroke-width:1; stroke:black; " description="&lt;b&gt;BrL25_RS23480&lt;/b&gt;&lt;br&gt;hydroxymethylglutaryl-CoA synthase family protein&lt;br&gt;Location: 5122957 - 5124213&lt;br&gt;&lt;br&gt;&lt;b&gt;BlastP hit with LLPMBPKK_00539&lt;/b&gt;&lt;br&gt;Percentage identity: 63&lt;br&gt;Percentage coverage: 100&lt;br&gt;BLAST bit score: 551&lt;br&gt;E-value: 4.78e-195" locus_tag="BrL25_RS23480" class="clusterblast-orf" id="dummy-3_h3_6_26"  />
</g>
<g id="a3_0027"  >
<polygon points="337,85 341,80 341,90 337,85 " style="fill:#15d815; stroke-width:1; stroke:black; " description="&lt;b&gt;BrL25_RS23485&lt;/b&gt;&lt;br&gt;polyketide beta-ketoacyl:ACP synthase&lt;br&gt;Location: 5124233 - 5125462&lt;br&gt;&lt;br&gt;&lt;b&gt;BlastP hit with LLPMBPKK_00540&lt;/b&gt;&lt;br&gt;Percentage identity: 54&lt;br&gt;Percentage coverage: 97&lt;br&gt;BLAST bit score: 452&lt;br&gt;E-value: 1.32e-156" locus_tag="BrL25_RS23485" class="clusterblast-orf" id="dummy-3_h3_6_27"  />
</g>
<g id="a3_0028"  >
<polygon points="341,85 342,80 342,90 341,85 " style="fill:#d815d8; stroke-width:1; stroke:black; " description="&lt;b&gt;BrL25_RS23490&lt;/b&gt;&lt;br&gt;acyl carrier protein&lt;br&gt;Location: 5125440 - 5125688&lt;br&gt;&lt;br&gt;&lt;b&gt;BlastP hit with LLPMBPKK_00541&lt;/b&gt;&lt;br&gt;Percentage identity: 54&lt;br&gt;Percentage coverage: 90&lt;br&gt;BLAST bit score: 81&lt;br&gt;E-value: 5.31e-20" locus_tag="BrL25_RS23490" class="clusterblast-orf" id="dummy-3_h3_6_28"  />
</g>
<g id="a3_0029"  >
<polygon points="342,85 347,80 355,80 355,90 347,90 342,85 " style="fill:#15d815; stroke-width:1; stroke:black; " description="&lt;b&gt;BrL25_RS23495&lt;/b&gt;&lt;br&gt;ACP S-malonyltransferase&lt;br&gt;Location: 5125681 - 5129118&lt;br&gt;&lt;br&gt;&lt;b&gt;BlastP hit with LLPMBPKK_00537&lt;/b&gt;&lt;br&gt;Percentage identity: 48&lt;br&gt;Percentage coverage: 46&lt;br&gt;BLAST bit score: 268&lt;br&gt;E-value: 5.06e-76&lt;br&gt;&lt;br&gt;&lt;b&gt;BlastP hit with LLPMBPKK_00538&lt;/b&gt;&lt;br&gt;Percentage identity: 49&lt;br&gt;Percentage coverage: 68&lt;br&gt;BLAST bit score: 451&lt;br&gt;E-value: 4.02e-142" locus_tag="BrL25_RS23495" class="clusterblast-orf" id="dummy-3_h3_6_29"  />
</g>
<g id="a3_0030"  >
<polygon points="355,85 357,80 357,90 355,85 " style="fill:white; stroke-width:1; stroke:black; " description="&lt;b&gt;BrL25_RS23500&lt;/b&gt;&lt;br&gt;MBL fold metallo-hydrolase&lt;br&gt;Location: 5129139 - 5129807" locus_tag="BrL25_RS23500" class="clusterblast-orf" id="dummy-3_h3_6_30"  />
</g>
<g id="a3_0031"  >
<polygon points="358,85 360,80 360,90 358,85 " style="fill:white; stroke-width:1; stroke:black; " description="&lt;b&gt;BrL25_RS23505&lt;/b&gt;&lt;br&gt;4-phosphopantetheinyl transferase family protein&lt;br&gt;Location: 5129941 - 5130687" locus_tag="BrL25_RS23505" class="clusterblast-orf" id="dummy-3_h3_6_31"  />
</g>
<g id="a3_0032"  >
<polygon points="361,85 363,80 363,90 361,85 " style="fill:white; stroke-width:1; stroke:black; " description="&lt;b&gt;BrL25_RS23510&lt;/b&gt;&lt;br&gt;antiterminator LoaP&lt;br&gt;Location: 5130887 - 5131477" locus_tag="BrL25_RS23510" class="clusterblast-orf" id="dummy-3_h3_6_32"  />
</g>
<g id="a3_0033"  >
<polygon points="369,85 371,80 371,90 369,85 " style="fill:white; stroke-width:1; stroke:black; " description="&lt;b&gt;BrL25_RS23525&lt;/b&gt;&lt;br&gt;ABC transporter ATP-binding protein&lt;br&gt;Location: 5133023 - 5133664" locus_tag="BrL25_RS23525" class="clusterblast-orf" id="dummy-3_h3_6_33"  />
</g>
<g id="a3_0034"  >
<polygon points="371,85 376,80 380,80 380,90 376,90 371,85 " style="fill:white; stroke-width:1; stroke:black; " description="&lt;b&gt;BrL25_RS23530&lt;/b&gt;&lt;br&gt;DUF1430 domain-containing protein&lt;br&gt;Location: 5133670 - 5135961" locus_tag="BrL25_RS23530" class="clusterblast-orf" id="dummy-3_h3_6_34"  />
</g>
<g id="a3_0035"  >
<polygon points="380,85 381,80 381,90 380,85 " style="fill:white; stroke-width:1; stroke:black; " description="&lt;b&gt;BrL25_RS23535&lt;/b&gt;&lt;br&gt;hypothetical protein&lt;br&gt;Location: 5136064 - 5136417" locus_tag="BrL25_RS23535" class="clusterblast-orf" id="dummy-3_h3_6_35"  />
</g>
<g id="a3_0036"  >
<polygon points="386,85 388,80 388,90 386,85 " style="fill:white; stroke-width:1; stroke:black; " description="&lt;b&gt;BrL25_RS23540&lt;/b&gt;&lt;br&gt;hypothetical protein&lt;br&gt;Location: 5137816 - 5138118" locus_tag="BrL25_RS23540" class="clusterblast-orf" id="dummy-3_h3_6_36"  />
</g>
<g id="a3_0037"  >
<polygon points="389,85 394,80 394,80 394,90 394,90 389,85 " style="fill:white; stroke-width:1; stroke:black; " description="&lt;b&gt;BrL25_RS23545&lt;/b&gt;&lt;br&gt;IS4 family transposase&lt;br&gt;Location: 5138436 - 5139860" locus_tag="BrL25_RS23545" class="clusterblast-orf" id="dummy-3_h3_6_37"  />
</g>
<g id="a3_0038"  >
<polygon points="395,85 399,80 399,90 395,85 " style="fill:white; stroke-width:1; stroke:black; " description="&lt;b&gt;BrL25_RS23550&lt;/b&gt;&lt;br&gt;IS3 family transposase&lt;br&gt;Location: 5140154 - 5141300" locus_tag="BrL25_RS23550" class="clusterblast-orf" id="dummy-3_h3_6_38"  />
</g>
<g id="a3_0039"  >
<polygon points="400,85 401,80 401,90 400,85 " style="fill:white; stroke-width:1; stroke:black; " description="&lt;b&gt;BrL25_RS23555&lt;/b&gt;&lt;br&gt;FAD-binding protein&lt;br&gt;Location: 5141378 - 5141725" locus_tag="BrL25_RS23555" class="clusterblast-orf" id="dummy-3_h3_6_39"  />
</g>
<g id="a3_0040"  >
<polygon points="402,90 405,85 402,80 402,90 " style="fill:white; stroke-width:1; stroke:black; " description="&lt;b&gt;BrL25_RS23560&lt;/b&gt;&lt;br&gt;aminoglycoside 6-adenylyltransferase&lt;br&gt;Location: 5142059 - 5142931" locus_tag="BrL25_RS23560" class="clusterblast-orf" id="dummy-3_h3_6_40"  />
</g>
<g id="a3_0041"  >
<polygon points="406,85 407,80 407,90 406,85 " style="fill:white; stroke-width:1; stroke:black; " description="&lt;b&gt;BrL25_RS23565&lt;/b&gt;&lt;br&gt;GNAT family N-acetyltransferase&lt;br&gt;Location: 5143108 - 5143353" locus_tag="BrL25_RS23565" class="clusterblast-orf" id="dummy-3_h3_6_41"  />
</g>
<g id="a3_0042"  >
<polygon points="407,85 408,80 408,90 407,85 " style="fill:white; stroke-width:1; stroke:black; " description="&lt;b&gt;BrL25_RS23570&lt;/b&gt;&lt;br&gt;hypothetical protein&lt;br&gt;Location: 5143424 - 5143735" locus_tag="BrL25_RS23570" class="clusterblast-orf" id="dummy-3_h3_6_42"  />
</g>
<g id="a3_0043"  >
<polygon points="409,85 414,80 421,80 421,90 414,90 409,85 " style="fill:white; stroke-width:1; stroke:black; " description="&lt;b&gt;BrL25_RS23575&lt;/b&gt;&lt;br&gt;DEAD/DEAH box helicase family protein&lt;br&gt;Location: 5143965 - 5147255" locus_tag="BrL25_RS23575" class="clusterblast-orf" id="dummy-3_h3_6_43"  />
</g>
<g id="a3_0044"  >
<polygon points="422,90 425,85 422,80 422,90 " style="fill:white; stroke-width:1; stroke:black; " description="&lt;b&gt;BrL25_RS23580&lt;/b&gt;&lt;br&gt;MurR/RpiR family transcriptional regulator&lt;br&gt;Location: 5147489 - 5148301" locus_tag="BrL25_RS23580" class="clusterblast-orf" id="dummy-3_h3_6_44"  />
</g>
<g id="a3_0045"  >
<polygon points="425,85 428,80 428,90 425,85 " style="fill:white; stroke-width:1; stroke:black; " description="&lt;b&gt;BrL25_RS23585&lt;/b&gt;&lt;br&gt;N-acetylmannosamine-6-phosphate 2-epimerase&lt;br&gt;Location: 5148404 - 5149117" locus_tag="BrL25_RS23585" class="clusterblast-orf" id="dummy-3_h3_6_45"  />
</g>
<g id="a3_0046"  >
<polygon points="428,85 433,80 434,80 434,90 433,90 428,85 " style="fill:white; stroke-width:1; stroke:black; " description="&lt;b&gt;BrL25_RS23590&lt;/b&gt;&lt;br&gt;PTS transporter subunit EIIC&lt;br&gt;Location: 5149123 - 5150664" locus_tag="BrL25_RS23590" class="clusterblast-orf" id="dummy-3_h3_6_46"  />
</g>
<g id="a3_0047"  >
<polygon points="436,85 439,80 439,90 436,85 " style="fill:white; stroke-width:1; stroke:black; " description="&lt;b&gt;BrL25_RS23600&lt;/b&gt;&lt;br&gt;2,3-diphosphoglycerate-dependent phosphoglycerate mutase&lt;br&gt;Location: 5151284 - 5152027" locus_tag="BrL25_RS23600" class="clusterblast-orf" id="dummy-3_h3_6_47"  />
</g>
<g id="a3_0048"  >
<polygon points="440,85 441,80 441,90 440,85 " style="fill:white; stroke-width:1; stroke:black; " description="&lt;b&gt;BrL25_RS23605&lt;/b&gt;&lt;br&gt;ketosteroid isomerase&lt;br&gt;Location: 5152300 - 5152704" locus_tag="BrL25_RS23605" class="clusterblast-orf" id="dummy-3_h3_6_48"  />
</g>
<g id="a3_0049"  >
<polygon points="441,85 444,80 444,90 441,85 " style="fill:white; stroke-width:1; stroke:black; " description="&lt;b&gt;BrL25_RS23610&lt;/b&gt;&lt;br&gt;DsbA family oxidoreductase&lt;br&gt;Location: 5152751 - 5153401" locus_tag="BrL25_RS23610" class="clusterblast-orf" id="dummy-3_h3_6_49"  />
</g>
<g id="a3_0050"  >
<polygon points="445,85 450,80 451,80 451,90 450,90 445,85 " style="fill:white; stroke-width:1; stroke:black; " description="&lt;b&gt;BrL25_RS23615&lt;/b&gt;&lt;br&gt;acyl-CoA synthetase&lt;br&gt;Location: 5153710 - 5155293" locus_tag="BrL25_RS23615" class="clusterblast-orf" id="dummy-3_h3_6_50"  />
</g>
<g id="a3_0051"  >
<polygon points="451,85 453,80 453,90 451,85 " style="fill:white; stroke-width:1; stroke:black; " description="&lt;b&gt;BrL25_RS23620&lt;/b&gt;&lt;br&gt;hemerythrin&lt;br&gt;Location: 5155447 - 5155962" locus_tag="BrL25_RS23620" class="clusterblast-orf" id="dummy-3_h3_6_51"  />
</g>
<g id="a3_0052"  >
<polygon points="454,85 456,80 456,90 454,85 " style="fill:white; stroke-width:1; stroke:black; " description="&lt;b&gt;BrL25_RS23625&lt;/b&gt;&lt;br&gt;hypothetical protein&lt;br&gt;Location: 5156103 - 5156699" locus_tag="BrL25_RS23625" class="clusterblast-orf" id="dummy-3_h3_6_52"  />
</g>
<g id="a3_0053"  >
<polygon points="456,85 460,80 460,90 456,85 " style="fill:white; stroke-width:1; stroke:black; " description="&lt;b&gt;BrL25_RS23630&lt;/b&gt;&lt;br&gt;Ger(x)C family spore germination protein&lt;br&gt;Location: 5156781 - 5157902" locus_tag="BrL25_RS23630" class="clusterblast-orf" id="dummy-3_h3_6_53"  />
</g>
<g id="a3_0054"  >
<polygon points="460,85 464,80 464,90 460,85 " style="fill:white; stroke-width:1; stroke:black; " description="&lt;b&gt;BrL25_RS23635&lt;/b&gt;&lt;br&gt;endospore germination permease&lt;br&gt;Location: 5157899 - 5159002" locus_tag="BrL25_RS23635" class="clusterblast-orf" id="dummy-3_h3_6_54"  />
</g>
<g id="a3_0055"  >
<polygon points="464,85 469,80 470,80 470,90 469,90 464,85 " style="fill:white; stroke-width:1; stroke:black; " description="&lt;b&gt;BrL25_RS23640&lt;/b&gt;&lt;br&gt;spore germination protein&lt;br&gt;Location: 5159009 - 5160538" locus_tag="BrL25_RS23640" class="clusterblast-orf" id="dummy-3_h3_6_55"  />
</g>
<g id="a3_0056"  >
<polygon points="471,85 476,80 485,80 485,90 476,90 471,85 " style="fill:white; stroke-width:1; stroke:black; " description="&lt;b&gt;BrL25_RS23645&lt;/b&gt;&lt;br&gt;non-ribosomal peptide synthetase&lt;br&gt;Location: 5160743 - 5164699" locus_tag="BrL25_RS23645" class="clusterblast-orf" id="dummy-3_h3_6_56"  />
</g>
<g id="a3_0057"  >
<polygon points="485,85 490,80 491,80 491,90 490,90 485,85 " style="fill:white; stroke-width:1; stroke:black; " description="&lt;b&gt;BrL25_RS23650&lt;/b&gt;&lt;br&gt;serine hydrolase&lt;br&gt;Location: 5164756 - 5166363" locus_tag="BrL25_RS23650" class="clusterblast-orf" id="dummy-3_h3_6_57"  />
</g>
<g id="a3_0058"  >
<polygon points="491,85 496,80 512,80 512,90 496,90 491,85 " style="fill:white; stroke-width:1; stroke:black; " description="&lt;b&gt;BrL25_RS23655&lt;/b&gt;&lt;br&gt;LLM class flavin-dependent oxidoreductase&lt;br&gt;Location: 5166385 - 5172072" locus_tag="BrL25_RS23655" class="clusterblast-orf" id="dummy-3_h3_6_58"  />
</g>
<g id="a3_0059"  >
<polygon points="512,85 517,80 527,80 527,90 517,90 512,85 " style="fill:white; stroke-width:1; stroke:black; " description="&lt;b&gt;BrL25_RS23660&lt;/b&gt;&lt;br&gt;non-ribosomal peptide synthetase&lt;br&gt;Location: 5172100 - 5176110" locus_tag="BrL25_RS23660" class="clusterblast-orf" id="dummy-3_h3_6_59"  />
</g>
<g id="a3_0060"  >
<polygon points="527,85 532,80 575,80 575,90 532,90 527,85 " style="fill:#15d815; stroke-width:1; stroke:black; " description="&lt;b&gt;BrL25_RS23665&lt;/b&gt;&lt;br&gt;non-ribosomal peptide synthetase&lt;br&gt;Location: 5176249 - 5189115&lt;br&gt;&lt;br&gt;&lt;b&gt;BlastP hit with LLPMBPKK_00546&lt;/b&gt;&lt;br&gt;Percentage identity: 35&lt;br&gt;Percentage coverage: 35&lt;br&gt;BLAST bit score: 345&lt;br&gt;E-value: 1.34e-93" locus_tag="BrL25_RS23665" class="clusterblast-orf" id="dummy-3_h3_6_60"  />
</g>
<g id="a3_0061"  >
<polygon points="575,85 580,80 603,80 603,90 580,90 575,85 " style="fill:white; stroke-width:1; stroke:black; " description="&lt;b&gt;BrL25_RS23670&lt;/b&gt;&lt;br&gt;non-ribosomal peptide synthetase&lt;br&gt;Location: 5189227 - 5196996" locus_tag="BrL25_RS23670" class="clusterblast-orf" id="dummy-3_h3_6_61"  />
</g>
<g id="a3_0062"  >
<polygon points="604,85 609,80 633,80 633,90 609,90 604,85 " style="fill:white; stroke-width:1; stroke:black; " description="&lt;b&gt;BrL25_RS23675&lt;/b&gt;&lt;br&gt;non-ribosomal peptide synthetase&lt;br&gt;Location: 5197252 - 5205015" locus_tag="BrL25_RS23675" class="clusterblast-orf" id="dummy-3_h3_6_62"  />
</g>
<g id="a3_0063"  >
<polygon points="633,85 637,80 637,90 633,85 " style="fill:white; stroke-width:1; stroke:black; " description="&lt;b&gt;BrL25_RS23680&lt;/b&gt;&lt;br&gt;ornithine cyclodeaminase&lt;br&gt;Location: 5205044 - 5206012" locus_tag="BrL25_RS23680" class="clusterblast-orf" id="dummy-3_h3_6_63"  />
</g>
<g id="a3_0064"  >
<polygon points="637,85 641,80 641,90 637,85 " style="fill:white; stroke-width:1; stroke:black; " description="&lt;b&gt;BrL25_RS23685&lt;/b&gt;&lt;br&gt;diaminobutyrate--2-oxoglutarate transaminase&lt;br&gt;Location: 5206053 - 5207327" locus_tag="BrL25_RS23685" class="clusterblast-orf" id="dummy-3_h3_6_64"  />
</g>
<g id="a3_0065"  >
<polygon points="641,85 646,80 664,80 664,90 646,90 641,85 " style="fill:#15d815; stroke-width:1; stroke:black; " description="&lt;b&gt;BrL25_RS23690&lt;/b&gt;&lt;br&gt;SDR family NAD(P)-dependent oxidoreductase&lt;br&gt;Location: 5207357 - 5213431&lt;br&gt;&lt;br&gt;&lt;b&gt;BlastP hit with LLPMBPKK_00546&lt;/b&gt;&lt;br&gt;Percentage identity: 34&lt;br&gt;Percentage coverage: 34&lt;br&gt;BLAST bit score: 357&lt;br&gt;E-value: 1.29e-97" locus_tag="BrL25_RS23690" class="clusterblast-orf" id="dummy-3_h3_6_65"  />
</g>
<g id="a3_0066"  >
<polygon points="664,85 669,80 678,80 678,90 669,90 664,85 " style="fill:white; stroke-width:1; stroke:black; " description="&lt;b&gt;BrL25_RS23695&lt;/b&gt;&lt;br&gt;non-ribosomal peptide synthetase&lt;br&gt;Location: 5213457 - 5217197" locus_tag="BrL25_RS23695" class="clusterblast-orf" id="dummy-3_h3_6_66"  />
</g>
<g id="a3_0067"  >
<polygon points="678,85 682,80 682,90 678,85 " style="fill:white; stroke-width:1; stroke:black; " description="&lt;b&gt;BrL25_RS23700&lt;/b&gt;&lt;br&gt;ACP S-malonyltransferase&lt;br&gt;Location: 5217243 - 5218511" locus_tag="BrL25_RS23700" class="clusterblast-orf" id="dummy-3_h3_6_67"  />
</g>
<g id="a3_0068"  >
<polygon points="683,85 686,80 686,90 683,85 " style="fill:white; stroke-width:1; stroke:black; " description="&lt;b&gt;BrL25_RS23705&lt;/b&gt;&lt;br&gt;2,3-diaminopropionate biosynthesis protein SbnA&lt;br&gt;Location: 5218602 - 5219564" locus_tag="BrL25_RS23705" class="clusterblast-orf" id="dummy-3_h3_6_68"  />
</g>
<g id="a3_0069"  >
<polygon points="688,85 691,80 691,90 688,85 " style="fill:white; stroke-width:1; stroke:black; " description="&lt;b&gt;BrL25_RS23710&lt;/b&gt;&lt;br&gt;3-oxoacyl-ACP reductase FabG&lt;br&gt;Location: 5220091 - 5220852" locus_tag="BrL25_RS23710" class="clusterblast-orf" id="dummy-3_h3_6_69"  />
</g>
<g id="a3_0070"  >
<polygon points="691,85 696,80 698,80 698,90 696,90 691,85 " style="fill:white; stroke-width:1; stroke:black; " description="&lt;b&gt;BrL25_RS23715&lt;/b&gt;&lt;br&gt;cell surface protein&lt;br&gt;Location: 5220936 - 5222837" locus_tag="BrL25_RS23715" class="clusterblast-orf" id="dummy-3_h3_6_70"  />
</g>
<g id="a3_0071"  >
<polygon points="698,85 702,80 702,90 698,85 " style="fill:white; stroke-width:1; stroke:black; " description="&lt;b&gt;BrL25_RS23720&lt;/b&gt;&lt;br&gt;3-oxoacyl-ACP synthase&lt;br&gt;Location: 5222839 - 5223882" locus_tag="BrL25_RS23720" class="clusterblast-orf" id="dummy-3_h3_6_71"  />
</g>
<g id="a3_0072"  >
<polygon points="702,85 704,80 704,90 702,85 " style="fill:white; stroke-width:1; stroke:black; " description="&lt;b&gt;BrL25_RS23725&lt;/b&gt;&lt;br&gt;MaoC family dehydratase&lt;br&gt;Location: 5223879 - 5224292" locus_tag="BrL25_RS23725" class="clusterblast-orf" id="dummy-3_h3_6_72"  />
</g>
<g id="a3_0073"  >
<polygon points="704,85 709,80 709,80 709,90 709,90 704,85 " style="fill:white; stroke-width:1; stroke:black; " description="&lt;b&gt;BrL25_RS23730&lt;/b&gt;&lt;br&gt;o-succinylbenzoate--CoA ligase&lt;br&gt;Location: 5224310 - 5225872" locus_tag="BrL25_RS23730" class="clusterblast-orf" id="dummy-3_h3_6_73"  />
</g>
<g id="a3_0074"  >
<polygon points="709,85 712,80 712,90 709,85 " style="fill:white; stroke-width:1; stroke:black; " description="&lt;b&gt;BrL25_RS23735&lt;/b&gt;&lt;br&gt;TetR/AcrR family transcriptional regulator&lt;br&gt;Location: 5225892 - 5226512" locus_tag="BrL25_RS23735" class="clusterblast-orf" id="dummy-3_h3_6_74"  />
</g>
<g id="a3_0075"  >
<polygon points="712,85 714,80 714,90 712,85 " style="fill:white; stroke-width:1; stroke:black; " description="&lt;b&gt;BrL25_RS23740&lt;/b&gt;&lt;br&gt;hypothetical protein&lt;br&gt;Location: 5226640 - 5227086" locus_tag="BrL25_RS23740" class="clusterblast-orf" id="dummy-3_h3_6_75"  />
</g>
<g id="a3_0076"  >
<polygon points="715,85 717,80 717,90 715,85 " style="fill:white; stroke-width:1; stroke:black; " description="&lt;b&gt;BrL25_RS23745&lt;/b&gt;&lt;br&gt;aminodeoxychorismate/anthranilate synthase component II&lt;br&gt;Location: 5227342 - 5227992" locus_tag="BrL25_RS23745" class="clusterblast-orf" id="dummy-3_h3_6_76"  />
</g>
<g id="a3_0077"  >
<polygon points="718,90 719,90 724,85 719,80 718,80 718,90 " style="fill:white; stroke-width:1; stroke:black; " description="&lt;b&gt;BrL25_RS23750&lt;/b&gt;&lt;br&gt;aminodeoxychorismate synthase component I&lt;br&gt;Location: 5228285 - 5229814" locus_tag="BrL25_RS23750" class="clusterblast-orf" id="dummy-3_h3_6_77"  />
</g>
<g id="a3_0078"  >
<polygon points="725,85 726,80 726,90 725,85 " style="fill:white; stroke-width:1; stroke:black; " description="&lt;b&gt;BrL25_RS23755&lt;/b&gt;&lt;br&gt;hypothetical protein&lt;br&gt;Location: 5230039 - 5230312" locus_tag="BrL25_RS23755" class="clusterblast-orf" id="dummy-3_h3_6_78"  />
</g>
<g id="a3_0079"  >
<polygon points="732,90 736,85 732,80 732,90 " style="fill:white; stroke-width:1; stroke:black; " description="&lt;b&gt;BrL25_RS23770&lt;/b&gt;&lt;br&gt;glycosyltransferase&lt;br&gt;Location: 5232174 - 5233163" locus_tag="BrL25_RS23770" class="clusterblast-orf" id="dummy-3_h3_6_79"  />
</g>
<g id="a3_0080"  >
<polygon points="738,90 740,85 738,80 738,90 " style="fill:white; stroke-width:1; stroke:black; " description="&lt;b&gt;BrL25_RS23780&lt;/b&gt;&lt;br&gt;hypothetical protein&lt;br&gt;Location: 5233803 - 5234363" locus_tag="BrL25_RS23780" class="clusterblast-orf" id="dummy-3_h3_6_80"  />
</g>
<g id="a3_0081"  >
<polygon points="741,90 743,85 741,80 741,90 " style="fill:white; stroke-width:1; stroke:black; " description="&lt;b&gt;BrL25_RS23785&lt;/b&gt;&lt;br&gt;DNRLRE domain-containing protein&lt;br&gt;Location: 5234521 - 5235057" locus_tag="BrL25_RS23785" class="clusterblast-orf" id="dummy-3_h3_6_81"  />
</g>
<g id="a3_0082"  >
<polygon points="744,90 744,85 744,80 744,90 " style="fill:white; stroke-width:1; stroke:black; " description="&lt;b&gt;BrL25_RS24985&lt;/b&gt;&lt;br&gt;hypothetical protein&lt;br&gt;Location: 5235249 - 5235419" locus_tag="BrL25_RS24985" class="clusterblast-orf" id="dummy-3_h3_6_82"  />
</g>
<g id="a3_0083"  >
<polygon points="747,85 750,80 750,90 747,85 " style="fill:white; stroke-width:1; stroke:black; " description="&lt;b&gt;BrL25_RS23795&lt;/b&gt;&lt;br&gt;hypothetical protein&lt;br&gt;Location: 5236138 - 5237025" locus_tag="BrL25_RS23795" class="clusterblast-orf" id="dummy-3_h3_6_83"  />
</g>
<g id="a3_0084"  >
<polygon points="751,85 751,80 751,90 751,85 " style="fill:white; stroke-width:1; stroke:black; " description="&lt;b&gt;BrL25_RS23800&lt;/b&gt;&lt;br&gt;aspartyl-phosphate phosphatase Spo0E family protein&lt;br&gt;Location: 5237108 - 5237308" locus_tag="BrL25_RS23800" class="clusterblast-orf" id="dummy-3_h3_6_84"  />
</g>
<g id="a3_0085"  >
<polygon points="753,85 758,80 758,80 758,90 758,90 753,85 " style="fill:white; stroke-width:1; stroke:black; " description="&lt;b&gt;BrL25_RS23805&lt;/b&gt;&lt;br&gt;helix-turn-helix transcriptional regulator&lt;br&gt;Location: 5237718 - 5239004" locus_tag="BrL25_RS23805" class="clusterblast-orf" id="dummy-3_h3_6_85"  />
</g>
<g id="a3_0086"  >
<polygon points="758,90 760,85 758,80 758,90 " style="fill:white; stroke-width:1; stroke:black; " description="&lt;b&gt;BrL25_RS23810&lt;/b&gt;&lt;br&gt;hypothetical protein&lt;br&gt;Location: 5239265 - 5239651" locus_tag="BrL25_RS23810" class="clusterblast-orf" id="dummy-3_h3_6_86"  />
</g>
<g id="a3_0087"  >
<polygon points="760,90 763,85 760,80 760,90 " style="fill:white; stroke-width:1; stroke:black; " description="&lt;b&gt;BrL25_RS23815&lt;/b&gt;&lt;br&gt;N-acetylmuramoyl-L-alanine amidase&lt;br&gt;Location: 5239674 - 5240444" locus_tag="BrL25_RS23815" class="clusterblast-orf" id="dummy-3_h3_6_87"  />
</g>
<g id="a3_0088"  >
<polygon points="764,90 766,85 764,80 764,90 " style="fill:white; stroke-width:1; stroke:black; " description="&lt;b&gt;BrL25_RS23820&lt;/b&gt;&lt;br&gt;M24 family metallopeptidase&lt;br&gt;Location: 5240840 - 5241355" locus_tag="BrL25_RS23820" class="clusterblast-orf" id="dummy-3_h3_6_88"  />
</g>
<g id="a3_0089"  >
<polygon points="767,85 770,80 770,90 767,85 " style="fill:white; stroke-width:1; stroke:black; " description="&lt;b&gt;BrL25_RS23825&lt;/b&gt;&lt;br&gt;succinate--CoA ligase subunit alpha&lt;br&gt;Location: 5241536 - 5242438" locus_tag="BrL25_RS23825" class="clusterblast-orf" id="dummy-3_h3_6_89"  />
</g>
<g id="a3_0090"  >
<polygon points="770,85 774,80 774,90 770,85 " style="fill:white; stroke-width:1; stroke:black; " description="&lt;b&gt;BrL25_RS23830&lt;/b&gt;&lt;br&gt;ADP-forming succinate--CoA ligase subunit beta&lt;br&gt;Location: 5242459 - 5243619" locus_tag="BrL25_RS23830" class="clusterblast-orf" id="dummy-3_h3_6_90"  />
</g>
<g id="a3_0091"  >
<polygon points="775,85 780,80 780,80 780,90 780,90 775,85 " style="fill:white; stroke-width:1; stroke:black; " description="&lt;b&gt;BrL25_RS23835&lt;/b&gt;&lt;br&gt;2-oxoglutarate dehydrogenase complex dihydrolipoyllysine-residue succinyltransferase&lt;br&gt;Location: 5243760 - 5245001" locus_tag="BrL25_RS23835" class="clusterblast-orf" id="dummy-3_h3_6_91"  />
</g>
</svg>
