<svg xmlns="http://www.w3.org/2000/svg" xmlns:xlink="http://www.w3.org/1999/xlink" version="1.1" x="0" y="0" height="230" width="800" viewBox="0 0 800 230" preserveAspectRatio="none"  >
<g label="Query sequence" class="clusterblast-cluster"  >
<text x="5" y="20" class="clusterblast-acc"  >
Query sequence</text>
<line x1="10" y1="35" x2="778.0" y2="35" style="stroke-width:1; stroke:grey; "  />
<polygon points="0,35 5,30 19,30 19,40 5,40 0,35 " style="fill:#d81515; stroke-width:1; stroke:black; " description="&lt;b&gt;LLPMBPKK_00577&lt;/b&gt;&lt;br&gt;LysR family transcriptional regulator&lt;br&gt;Location: 754811 - 755753" locus_tag="LLPMBPKK_00577" class="clusterblast-orf" id="dummy-4_q0_0_all"  />
<polygon points="21,40 42,40 47,35 42,30 21,30 21,40 " style="fill:#4dd815; stroke-width:1; stroke:black; " description="&lt;b&gt;LLPMBPKK_00578&lt;/b&gt;&lt;br&gt;MFS transporter multidrug efflux transporter&lt;br&gt;Location: 755886 - 757161" locus_tag="LLPMBPKK_00578" class="clusterblast-orf" id="dummy-4_q1_0_all"  />
<polygon points="51,40 67,40 72,35 67,30 51,30 51,40 " style="fill:white; stroke-width:1; stroke:black; " description="&lt;b&gt;LLPMBPKK_00579&lt;/b&gt;&lt;br&gt;VWA domain-containing protein&lt;br&gt;Location: 757388 - 758429" locus_tag="LLPMBPKK_00579" class="clusterblast-orf" id="dummy-4_q2_0_all"  />
<polygon points="74,35 79,30 83,30 83,40 79,40 74,35 " style="fill:white; stroke-width:1; stroke:black; " description="&lt;b&gt;LLPMBPKK_00580&lt;/b&gt;&lt;br&gt;hypothetical protein&lt;br&gt;Location: 758543 - 758969" locus_tag="LLPMBPKK_00580" class="clusterblast-orf" id="dummy-4_q3_0_all"  />
<polygon points="89,35 94,30 108,30 108,40 94,40 89,35 " style="fill:white; stroke-width:1; stroke:black; " description="&lt;b&gt;LLPMBPKK_00581&lt;/b&gt;&lt;br&gt;Ribosomal protein S6--L-glutamate ligase&lt;br&gt;Location: 759296 - 760241" locus_tag="LLPMBPKK_00581" class="clusterblast-orf" id="dummy-4_q4_0_all"  />
<polygon points="112,35 117,30 127,30 127,40 117,40 112,35 " style="fill:white; stroke-width:1; stroke:black; " description="&lt;b&gt;LLPMBPKK_00582&lt;/b&gt;&lt;br&gt;Ubiquinone biosynthesis O-methyltransferase&lt;br&gt;Location: 760461 - 761205" locus_tag="LLPMBPKK_00582" class="clusterblast-orf" id="dummy-4_q5_0_all"  />
<polygon points="135,35 140,30 190,30 190,40 140,40 135,35 " style="fill:white; stroke-width:1; stroke:black; " description="&lt;b&gt;LLPMBPKK_00583&lt;/b&gt;&lt;br&gt;Phosphoesterase family protein&lt;br&gt;Location: 761589 - 764340" locus_tag="LLPMBPKK_00583" class="clusterblast-orf" id="dummy-4_q6_0_all"  />
<polygon points="191,35 196,30 218,30 218,40 196,40 191,35 " style="fill:white; stroke-width:1; stroke:black; " description="&lt;b&gt;LLPMBPKK_00584&lt;/b&gt;&lt;br&gt;ABC transporter permease&lt;br&gt;Location: 764404 - 765772" locus_tag="LLPMBPKK_00584" class="clusterblast-orf" id="dummy-4_q7_0_all"  />
<polygon points="218,35 223,30 240,30 240,40 223,40 218,35 " style="fill:#1585d8; stroke-width:1; stroke:black; " description="&lt;b&gt;LLPMBPKK_00585&lt;/b&gt;&lt;br&gt;ABC transporter ATP-binding protein&lt;br&gt;Location: 765768 - 766875" locus_tag="LLPMBPKK_00585" class="clusterblast-orf" id="dummy-4_q8_0_all"  />
<polygon points="249,35 254,30 262,30 262,40 254,40 249,35 " style="fill:#a115d8; stroke-width:1; stroke:black; " description="&lt;b&gt;LLPMBPKK_00586&lt;/b&gt;&lt;br&gt;two component system DNA binding responseregulator&lt;br&gt;Location: 767325 - 767961" locus_tag="LLPMBPKK_00586" class="clusterblast-orf" id="dummy-4_q9_0_all"  />
<polygon points="262,35 267,30 287,30 287,40 267,40 262,35 " style="fill:#d86915; stroke-width:1; stroke:black; " description="&lt;b&gt;LLPMBPKK_00587&lt;/b&gt;&lt;br&gt;two component system histidine kinase&lt;br&gt;Location: 767957 - 769229" locus_tag="LLPMBPKK_00587" class="clusterblast-orf" id="dummy-4_q10_0_all"  />
<polygon points="293,40 310,40 315,35 310,30 293,30 293,40 " style="fill:white; stroke-width:1; stroke:black; " description="&lt;b&gt;LLPMBPKK_00588&lt;/b&gt;&lt;br&gt;ABC transporter&lt;br&gt;Location: 769497 - 770595" locus_tag="LLPMBPKK_00588" class="clusterblast-orf" id="dummy-4_q11_0_all"  />
<polygon points="315,40 323,40 328,35 323,30 315,30 315,40 " style="fill:#15d831; stroke-width:1; stroke:black; " description="&lt;b&gt;LLPMBPKK_00589&lt;/b&gt;&lt;br&gt;ABC transporter ATP-binding protein&lt;br&gt;Location: 770591 - 771275" locus_tag="LLPMBPKK_00589" class="clusterblast-orf" id="dummy-4_q12_0_all"  />
<polygon points="331,40 339,40 344,35 339,30 331,30 331,40 " style="fill:white; stroke-width:1; stroke:black; " description="&lt;b&gt;LLPMBPKK_00590&lt;/b&gt;&lt;br&gt;hypothetical protein&lt;br&gt;Location: 771430 - 772081" locus_tag="LLPMBPKK_00590" class="clusterblast-orf" id="dummy-4_q13_0_all"  />
<polygon points="346,40 375,40 380,35 375,30 346,30 346,40 " style="fill:white; stroke-width:1; stroke:black; " description="&lt;b&gt;LLPMBPKK_00591&lt;/b&gt;&lt;br&gt;Serine/threonine-protein kinase PknD&lt;br&gt;Location: 772151 - 773846" locus_tag="LLPMBPKK_00591" class="clusterblast-orf" id="dummy-4_q14_0_all"  />
<polygon points="380,35 385,30 393,30 393,40 385,40 380,35 " style="fill:white; stroke-width:1; stroke:black; " description="&lt;b&gt;LLPMBPKK_00592&lt;/b&gt;&lt;br&gt;hypothetical protein&lt;br&gt;Location: 773882 - 774539" locus_tag="LLPMBPKK_00592" class="clusterblast-orf" id="dummy-4_q15_0_all"  />
<polygon points="397,35 402,30 418,30 418,40 402,40 397,35 " style="fill:#1531d8; stroke-width:1; stroke:black; " description="&lt;b&gt;LLPMBPKK_00593&lt;/b&gt;&lt;br&gt;1,3,6,8-tetrahydroxynaphthalene synthase&lt;br&gt;Location: 774701 - 775748" locus_tag="LLPMBPKK_00593" class="clusterblast-orf" id="dummy-4_q16_0_all"  />
<polygon points="420,35 425,30 440,30 440,40 425,40 420,35 " style="fill:#d815bc; stroke-width:1; stroke:black; " description="&lt;b&gt;LLPMBPKK_00594&lt;/b&gt;&lt;br&gt;MmyB-like transcription regulator ligand bindingdomain protein&lt;br&gt;Location: 775864 - 776848" locus_tag="LLPMBPKK_00594" class="clusterblast-orf" id="dummy-4_q17_0_all"  />
<polygon points="445,35 450,30 461,30 461,40 450,40 445,35 " style="fill:white; stroke-width:1; stroke:black; " description="&lt;b&gt;LLPMBPKK_00595&lt;/b&gt;&lt;br&gt;aminoglycoside phosphotransferase&lt;br&gt;Location: 777119 - 777935" locus_tag="LLPMBPKK_00595" class="clusterblast-orf" id="dummy-4_q18_0_all"  />
<polygon points="468,40 478,40 483,35 478,30 468,30 468,40 " style="fill:white; stroke-width:1; stroke:black; " description="&lt;b&gt;LLPMBPKK_00596&lt;/b&gt;&lt;br&gt;hypothetical protein&lt;br&gt;Location: 778299 - 779046" locus_tag="LLPMBPKK_00596" class="clusterblast-orf" id="dummy-4_q19_0_all"  />
<polygon points="492,35 497,30 516,30 516,40 497,40 492,35 " style="fill:#d8bc15; stroke-width:1; stroke:black; " description="&lt;b&gt;LLPMBPKK_00597&lt;/b&gt;&lt;br&gt;cytochrome P450 hydroxylase&lt;br&gt;Location: 779472 - 780702" locus_tag="LLPMBPKK_00597" class="clusterblast-orf" id="dummy-4_q20_0_all"  />
<polygon points="519,35 524,30 526,30 526,40 524,40 519,35 " style="fill:white; stroke-width:1; stroke:black; " description="&lt;b&gt;LLPMBPKK_00598&lt;/b&gt;&lt;br&gt;hypothetical protein&lt;br&gt;Location: 780838 - 781204" locus_tag="LLPMBPKK_00598" class="clusterblast-orf" id="dummy-4_q21_0_all"  />
<polygon points="533,40 545,40 550,35 545,30 533,30 533,40 " style="fill:white; stroke-width:1; stroke:black; " description="&lt;b&gt;LLPMBPKK_00599&lt;/b&gt;&lt;br&gt;helix-turn-helix domain-containing protein&lt;br&gt;Location: 781514 - 782399" locus_tag="LLPMBPKK_00599" class="clusterblast-orf" id="dummy-4_q22_0_all"  />
<polygon points="551,35 556,30 578,30 578,40 556,40 551,35 " style="fill:#15d885; stroke-width:1; stroke:black; " description="&lt;b&gt;LLPMBPKK_00600&lt;/b&gt;&lt;br&gt;beta-glucosidase&lt;br&gt;Location: 782423 - 783803" locus_tag="LLPMBPKK_00600" class="clusterblast-orf" id="dummy-4_q23_0_all"  />
<polygon points="579,35 584,30 595,30 595,40 584,40 579,35 " style="fill:#4d15d8; stroke-width:1; stroke:black; " description="&lt;b&gt;LLPMBPKK_00601&lt;/b&gt;&lt;br&gt;sugar transport integral membrane protein&lt;br&gt;Location: 783820 - 784654" locus_tag="LLPMBPKK_00601" class="clusterblast-orf" id="dummy-4_q24_0_all"  />
<polygon points="595,35 600,30 614,30 614,40 600,40 595,35 " style="fill:#d81569; stroke-width:1; stroke:black; " description="&lt;b&gt;LLPMBPKK_00602&lt;/b&gt;&lt;br&gt;sugar transport integral membrane protein&lt;br&gt;Location: 784660 - 785605" locus_tag="LLPMBPKK_00602" class="clusterblast-orf" id="dummy-4_q25_0_all"  />
<polygon points="615,35 620,30 639,30 639,40 620,40 615,35 " style="fill:#a1d815; stroke-width:1; stroke:black; " description="&lt;b&gt;LLPMBPKK_00603&lt;/b&gt;&lt;br&gt;sugar transport sugar binding protein&lt;br&gt;Location: 785616 - 786855" locus_tag="LLPMBPKK_00603" class="clusterblast-orf" id="dummy-4_q26_0_all"  />
<polygon points="645,40 685,40 690,35 685,30 645,30 645,40 " style="fill:#15d8d8; stroke-width:1; stroke:black; " description="&lt;b&gt;LLPMBPKK_00604&lt;/b&gt;&lt;br&gt;alpha-xylosidase&lt;br&gt;Location: 787137 - 789408" locus_tag="LLPMBPKK_00604" class="clusterblast-orf" id="dummy-4_q27_0_all"  />
<polygon points="694,35 699,30 716,30 716,40 699,40 694,35 " style="fill:white; stroke-width:1; stroke:black; " description="&lt;b&gt;LLPMBPKK_00605&lt;/b&gt;&lt;br&gt;oxidoreductase&lt;br&gt;Location: 789603 - 790680" locus_tag="LLPMBPKK_00605" class="clusterblast-orf" id="dummy-4_q28_0_all"  />
<polygon points="718,40 724,40 729,35 724,30 718,30 718,40 " style="fill:white; stroke-width:1; stroke:black; " description="&lt;b&gt;LLPMBPKK_00606&lt;/b&gt;&lt;br&gt;transcriptional regulator&lt;br&gt;Location: 790784 - 791372" locus_tag="LLPMBPKK_00606" class="clusterblast-orf" id="dummy-4_q29_0_all"  />
<polygon points="731,40 737,40 742,35 737,30 731,30 731,40 " style="fill:white; stroke-width:1; stroke:black; " description="&lt;b&gt;LLPMBPKK_00607&lt;/b&gt;&lt;br&gt;N-acetyltransferase&lt;br&gt;Location: 791433 - 792000" locus_tag="LLPMBPKK_00607" class="clusterblast-orf" id="dummy-4_q30_0_all"  />
<polygon points="743,40 755,40 760,35 755,30 743,30 743,40 " style="fill:white; stroke-width:1; stroke:black; " description="&lt;b&gt;LLPMBPKK_00608&lt;/b&gt;&lt;br&gt;hypothetical protein&lt;br&gt;Location: 792060 - 792918" locus_tag="LLPMBPKK_00608" class="clusterblast-orf" id="dummy-4_q31_0_all"  />
<polygon points="761,35 766,30 780,30 780,40 766,40 761,35 " style="fill:white; stroke-width:1; stroke:black; " description="&lt;b&gt;LLPMBPKK_00609&lt;/b&gt;&lt;br&gt;transcriptional regulator&lt;br&gt;Location: 792948 - 793893" locus_tag="LLPMBPKK_00609" class="clusterblast-orf" id="dummy-4_q32_0_all"  />
</g>
<g label="NZ_CP013220" description="NZ_CP013220 (1102528-1143575): Streptomyces hygroscopicus subsp. limoneus str... (10% of genes show similarity), T3PKS" class="clusterblast-cluster"  >
<text x="5" y="70" class="clusterblast-acc"  >
<a xlink:href="https://antismash-db.secondarymetabolites.org/area.html?record=NZ_CP013220&amp;start=1102528&amp;end=1143575" target="_blank">NZ_CP013220 (1102528-1143575)</a>: Streptomyces hygroscopicus subsp. limoneus str... (10% of genes show similarity), T3PKS</text>
<line x1="10" y1="85" x2="778.0" y2="85" style="stroke-width:1; stroke:grey; "  />
</g>
<g id="a4_000"  >
<polygon points="0,85 5,80 6,80 6,90 5,90 0,85 " style="fill:white; stroke-width:1; stroke:black; " description="&lt;b&gt;SHL15_RS42250&lt;/b&gt;&lt;br&gt;metal-sensitive transcriptional regulator&lt;br&gt;Location: 1104390 - 1104671" locus_tag="SHL15_RS42250" class="clusterblast-orf" id="dummy-4_h4_5_0"  />
</g>
<g id="a4_001"  >
<polygon points="8,90 30,90 35,85 30,80 8,80 8,90 " style="fill:white; stroke-width:1; stroke:black; " description="&lt;b&gt;SHL15_RS42255&lt;/b&gt;&lt;br&gt;MBL fold metallo-hydrolase&lt;br&gt;Location: 1104790 - 1106148" locus_tag="SHL15_RS42255" class="clusterblast-orf" id="dummy-4_h4_5_1"  />
</g>
<g id="a4_002"  >
<polygon points="36,90 38,90 43,85 38,80 36,80 36,90 " style="fill:white; stroke-width:1; stroke:black; " description="&lt;b&gt;SHL15_RS42260&lt;/b&gt;&lt;br&gt;rhodanese-like domain-containing protein&lt;br&gt;Location: 1106197 - 1106514" locus_tag="SHL15_RS42260" class="clusterblast-orf" id="dummy-4_h4_5_2"  />
</g>
<g id="a4_003"  >
<polygon points="42,90 52,90 57,85 52,80 42,80 42,90 " style="fill:white; stroke-width:1; stroke:black; " description="&lt;b&gt;SHL15_RS42265&lt;/b&gt;&lt;br&gt;sulfite exporter TauE/SafE family protein&lt;br&gt;Location: 1106511 - 1107254" locus_tag="SHL15_RS42265" class="clusterblast-orf" id="dummy-4_h4_5_3"  />
</g>
<g id="a4_004"  >
<polygon points="60,90 67,90 72,85 67,80 60,80 60,90 " style="fill:white; stroke-width:1; stroke:black; " description="&lt;b&gt;SHL15_RS42270&lt;/b&gt;&lt;br&gt;rhodanese-like domain-containing protein&lt;br&gt;Location: 1107406 - 1107990" locus_tag="SHL15_RS42270" class="clusterblast-orf" id="dummy-4_h4_5_4"  />
</g>
<g id="a4_005"  >
<polygon points="75,90 78,90 83,85 78,80 75,80 75,90 " style="fill:white; stroke-width:1; stroke:black; " description="&lt;b&gt;SHL15_RS42275&lt;/b&gt;&lt;br&gt;hypothetical protein&lt;br&gt;Location: 1108163 - 1108534" locus_tag="SHL15_RS42275" class="clusterblast-orf" id="dummy-4_h4_5_5"  />
</g>
<g id="a4_006"  >
<polygon points="85,90 86,90 91,85 86,80 85,80 85,90 " style="fill:white; stroke-width:1; stroke:black; " description="&lt;b&gt;SHL15_RS42280&lt;/b&gt;&lt;br&gt;DUF2630 family protein&lt;br&gt;Location: 1108653 - 1108919" locus_tag="SHL15_RS42280" class="clusterblast-orf" id="dummy-4_h4_5_6"  />
</g>
<g id="a4_007"  >
<polygon points="93,90 126,90 131,85 126,80 93,80 93,90 " style="fill:white; stroke-width:1; stroke:black; " description="&lt;b&gt;SHL15_RS42285&lt;/b&gt;&lt;br&gt;Na+/H+ antiporter NhaA&lt;br&gt;Location: 1109040 - 1110935" locus_tag="SHL15_RS42285" class="clusterblast-orf" id="dummy-4_h4_5_7"  />
</g>
<g id="a4_008"  >
<polygon points="133,90 136,85 133,80 133,90 " style="fill:white; stroke-width:1; stroke:black; " description="&lt;b&gt;SHL15_RS42290&lt;/b&gt;&lt;br&gt;50S ribosomal protein L33&lt;br&gt;Location: 1111029 - 1111193" locus_tag="SHL15_RS42290" class="clusterblast-orf" id="dummy-4_h4_5_8"  />
</g>
<g id="a4_009"  >
<polygon points="137,90 137,90 142,85 137,80 137,80 137,90 " style="fill:white; stroke-width:1; stroke:black; " description="&lt;b&gt;SHL15_RS42295&lt;/b&gt;&lt;br&gt;type B 50S ribosomal protein L31&lt;br&gt;Location: 1111262 - 1111522" locus_tag="SHL15_RS42295" class="clusterblast-orf" id="dummy-4_h4_5_9"  />
</g>
<g id="a4_0010"  >
<polygon points="143,90 146,85 143,80 143,90 " style="fill:white; stroke-width:1; stroke:black; " description="&lt;b&gt;SHL15_RS42300&lt;/b&gt;&lt;br&gt;50S ribosomal protein L36&lt;br&gt;Location: 1111560 - 1111682" locus_tag="SHL15_RS42300" class="clusterblast-orf" id="dummy-4_h4_5_10"  />
</g>
<g id="a4_0011"  >
<polygon points="148,90 152,90 157,85 152,80 148,80 148,90 " style="fill:white; stroke-width:1; stroke:black; " description="&lt;b&gt;SHL15_RS42305&lt;/b&gt;&lt;br&gt;GNAT family N-acetyltransferase&lt;br&gt;Location: 1111797 - 1112255" locus_tag="SHL15_RS42305" class="clusterblast-orf" id="dummy-4_h4_5_11"  />
</g>
<g id="a4_0012"  >
<polygon points="159,85 164,80 164,80 164,90 164,90 159,85 " style="fill:white; stroke-width:1; stroke:black; " description="&lt;b&gt;SHL15_RS42310&lt;/b&gt;&lt;br&gt;hypothetical protein&lt;br&gt;Location: 1112330 - 1112583" locus_tag="SHL15_RS42310" class="clusterblast-orf" id="dummy-4_h4_5_12"  />
</g>
<g id="a4_0013"  >
<polygon points="164,90 168,85 164,80 164,90 " style="fill:white; stroke-width:1; stroke:black; " description="&lt;b&gt;SHL15_RS48385&lt;/b&gt;&lt;br&gt;transcriptional regulator&lt;br&gt;Location: 1112619 - 1112815" locus_tag="SHL15_RS48385" class="clusterblast-orf" id="dummy-4_h4_5_13"  />
</g>
<g id="a4_0014"  >
<polygon points="169,85 174,80 188,80 188,90 174,90 169,85 " style="fill:#d81515; stroke-width:1; stroke:black; " description="&lt;b&gt;SHL15_RS42315&lt;/b&gt;&lt;br&gt;LysR family transcriptional regulator&lt;br&gt;Location: 1112865 - 1113800&lt;br&gt;&lt;br&gt;&lt;b&gt;BlastP hit with LLPMBPKK_00577&lt;/b&gt;&lt;br&gt;Percentage identity: 90&lt;br&gt;Percentage coverage: 99&lt;br&gt;BLAST bit score: 559&lt;br&gt;E-value: 9.39e-202" locus_tag="SHL15_RS42315" class="clusterblast-orf" id="dummy-4_h4_5_14"  />
</g>
<g id="a4_0015"  >
<polygon points="191,90 205,90 210,85 205,80 191,80 191,90 " style="fill:white; stroke-width:1; stroke:black; " description="&lt;b&gt;SHL15_RS42320&lt;/b&gt;&lt;br&gt;IS481 family transposase&lt;br&gt;Location: 1113935 - 1114888" locus_tag="SHL15_RS42320" class="clusterblast-orf" id="dummy-4_h4_5_15"  />
</g>
<g id="a4_0016"  >
<polygon points="212,90 232,90 237,85 232,80 212,80 212,90 " style="fill:#4dd815; stroke-width:1; stroke:black; " description="&lt;b&gt;SHL15_RS42325&lt;/b&gt;&lt;br&gt;MFS transporter&lt;br&gt;Location: 1115009 - 1116277&lt;br&gt;&lt;br&gt;&lt;b&gt;BlastP hit with LLPMBPKK_00578&lt;/b&gt;&lt;br&gt;Percentage identity: 87&lt;br&gt;Percentage coverage: 99&lt;br&gt;BLAST bit score: 647&lt;br&gt;E-value: 8.59e-233" locus_tag="SHL15_RS42325" class="clusterblast-orf" id="dummy-4_h4_5_16"  />
</g>
<g id="a4_0017"  >
<polygon points="240,85 245,80 274,80 274,90 245,90 240,85 " style="fill:white; stroke-width:1; stroke:black; " description="&lt;b&gt;SHL15_RS42330&lt;/b&gt;&lt;br&gt;hypothetical protein&lt;br&gt;Location: 1116418 - 1118115" locus_tag="SHL15_RS42330" class="clusterblast-orf" id="dummy-4_h4_5_17"  />
</g>
<g id="a4_0018"  >
<polygon points="277,90 280,90 285,85 280,80 277,80 277,90 " style="fill:white; stroke-width:1; stroke:black; " description="&lt;b&gt;SHL15_RS42335&lt;/b&gt;&lt;br&gt;hypothetical protein&lt;br&gt;Location: 1118241 - 1118654" locus_tag="SHL15_RS42335" class="clusterblast-orf" id="dummy-4_h4_5_18"  />
</g>
<g id="a4_0019"  >
<polygon points="285,90 303,90 308,85 303,80 285,80 285,90 " style="fill:white; stroke-width:1; stroke:black; " description="&lt;b&gt;SHL15_RS42340&lt;/b&gt;&lt;br&gt;RNA polymerase subunit sigma-24&lt;br&gt;Location: 1118654 - 1119799" locus_tag="SHL15_RS42340" class="clusterblast-orf" id="dummy-4_h4_5_19"  />
</g>
<g id="a4_0020"  >
<polygon points="309,85 314,80 326,80 326,90 314,90 309,85 " style="fill:white; stroke-width:1; stroke:black; " description="&lt;b&gt;SHL15_RS42345&lt;/b&gt;&lt;br&gt;hypothetical protein&lt;br&gt;Location: 1119848 - 1120702" locus_tag="SHL15_RS42345" class="clusterblast-orf" id="dummy-4_h4_5_20"  />
</g>
<g id="a4_0021"  >
<polygon points="343,90 355,90 360,85 355,80 343,80 343,90 " style="fill:#d815bc; stroke-width:1; stroke:black; " description="&lt;b&gt;SHL15_RS42350&lt;/b&gt;&lt;br&gt;helix-turn-helix transcriptional regulator&lt;br&gt;Location: 1121578 - 1122411&lt;br&gt;&lt;br&gt;&lt;b&gt;BlastP hit with LLPMBPKK_00594&lt;/b&gt;&lt;br&gt;Percentage identity: 89&lt;br&gt;Percentage coverage: 85&lt;br&gt;BLAST bit score: 520&lt;br&gt;E-value: 1.15e-186" locus_tag="SHL15_RS42350" class="clusterblast-orf" id="dummy-4_h4_5_21"  />
</g>
<g id="a4_0022"  >
<polygon points="362,90 378,90 383,85 378,80 362,80 362,90 " style="fill:#1531d8; stroke-width:1; stroke:black; " description="&lt;b&gt;SHL15_RS42355&lt;/b&gt;&lt;br&gt;PhlD&lt;br&gt;Location: 1122529 - 1123575&lt;br&gt;&lt;br&gt;&lt;b&gt;BlastP hit with LLPMBPKK_00593&lt;/b&gt;&lt;br&gt;Percentage identity: 88&lt;br&gt;Percentage coverage: 100&lt;br&gt;BLAST bit score: 626&lt;br&gt;E-value: 4.6e-227" locus_tag="SHL15_RS42355" class="clusterblast-orf" id="dummy-4_h4_5_22"  />
</g>
<g id="a4_0023"  >
<polygon points="384,85 389,80 407,80 407,90 389,90 384,85 " style="fill:white; stroke-width:1; stroke:black; " description="&lt;b&gt;SHL15_RS42360&lt;/b&gt;&lt;br&gt;sugar phosphate isomerase/epimerase&lt;br&gt;Location: 1123641 - 1124780" locus_tag="SHL15_RS42360" class="clusterblast-orf" id="dummy-4_h4_5_23"  />
</g>
<g id="a4_0024"  >
<polygon points="407,85 412,80 435,80 435,90 412,90 407,85 " style="fill:white; stroke-width:1; stroke:black; " description="&lt;b&gt;SHL15_RS42365&lt;/b&gt;&lt;br&gt;alkaline phosphatase family protein&lt;br&gt;Location: 1124792 - 1126192" locus_tag="SHL15_RS42365" class="clusterblast-orf" id="dummy-4_h4_5_24"  />
</g>
<g id="a4_0025"  >
<polygon points="435,85 440,80 459,80 459,90 440,90 435,85 " style="fill:white; stroke-width:1; stroke:black; " description="&lt;b&gt;SHL15_RS42370&lt;/b&gt;&lt;br&gt;metabolite traffic protein EboE&lt;br&gt;Location: 1126189 - 1127358" locus_tag="SHL15_RS42370" class="clusterblast-orf" id="dummy-4_h4_5_25"  />
</g>
<g id="a4_0026"  >
<polygon points="459,85 464,80 476,80 476,90 464,90 459,85 " style="fill:white; stroke-width:1; stroke:black; " description="&lt;b&gt;SHL15_RS42375&lt;/b&gt;&lt;br&gt;hydrolase TatD&lt;br&gt;Location: 1127362 - 1128210" locus_tag="SHL15_RS42375" class="clusterblast-orf" id="dummy-4_h4_5_26"  />
</g>
<g id="a4_0027"  >
<polygon points="476,85 481,80 488,80 488,90 481,90 476,85 " style="fill:white; stroke-width:1; stroke:black; " description="&lt;b&gt;SHL15_RS42380&lt;/b&gt;&lt;br&gt;hypothetical protein&lt;br&gt;Location: 1128210 - 1128851" locus_tag="SHL15_RS42380" class="clusterblast-orf" id="dummy-4_h4_5_27"  />
</g>
<g id="a4_0028"  >
<polygon points="488,85 493,80 506,80 506,90 493,90 488,85 " style="fill:white; stroke-width:1; stroke:black; " description="&lt;b&gt;SHL15_RS42385&lt;/b&gt;&lt;br&gt;sugar phosphate isomerase/epimerase&lt;br&gt;Location: 1128848 - 1129729" locus_tag="SHL15_RS42385" class="clusterblast-orf" id="dummy-4_h4_5_28"  />
</g>
<g id="a4_0029"  >
<polygon points="508,85 513,80 526,80 526,90 513,90 508,85 " style="fill:white; stroke-width:1; stroke:black; " description="&lt;b&gt;SHL15_RS42390&lt;/b&gt;&lt;br&gt;UbiA family prenyltransferase&lt;br&gt;Location: 1129812 - 1130741" locus_tag="SHL15_RS42390" class="clusterblast-orf" id="dummy-4_h4_5_29"  />
</g>
<g id="a4_0030"  >
<polygon points="526,85 531,80 548,80 548,90 531,90 526,85 " style="fill:white; stroke-width:1; stroke:black; " description="&lt;b&gt;SHL15_RS42395&lt;/b&gt;&lt;br&gt;myo-inositol-1-phosphate synthase&lt;br&gt;Location: 1130738 - 1131862" locus_tag="SHL15_RS42395" class="clusterblast-orf" id="dummy-4_h4_5_30"  />
</g>
<g id="a4_0031"  >
<polygon points="551,85 556,80 577,80 577,90 556,90 551,85 " style="fill:white; stroke-width:1; stroke:black; " description="&lt;b&gt;SHL15_RS42400&lt;/b&gt;&lt;br&gt;DUF1080 domain-containing protein&lt;br&gt;Location: 1131986 - 1133305" locus_tag="SHL15_RS42400" class="clusterblast-orf" id="dummy-4_h4_5_31"  />
</g>
<g id="a4_0032"  >
<polygon points="577,85 582,80 627,80 627,90 582,90 577,85 " style="fill:white; stroke-width:1; stroke:black; " description="&lt;b&gt;SHL15_RS42405&lt;/b&gt;&lt;br&gt;carbohydrate-binding protein&lt;br&gt;Location: 1133318 - 1135804" locus_tag="SHL15_RS42405" class="clusterblast-orf" id="dummy-4_h4_5_32"  />
</g>
<g id="a4_0033"  >
<polygon points="629,85 634,80 649,80 649,90 634,90 629,85 " style="fill:white; stroke-width:1; stroke:black; " description="&lt;b&gt;SHL15_RS42410&lt;/b&gt;&lt;br&gt;sugar phosphate isomerase/epimerase&lt;br&gt;Location: 1135900 - 1136898" locus_tag="SHL15_RS42410" class="clusterblast-orf" id="dummy-4_h4_5_33"  />
</g>
<g id="a4_0034"  >
<polygon points="649,85 654,80 675,80 675,90 654,90 649,85 " style="fill:white; stroke-width:1; stroke:black; " description="&lt;b&gt;SHL15_RS42415&lt;/b&gt;&lt;br&gt;Gfo/Idh/MocA family oxidoreductase&lt;br&gt;Location: 1136914 - 1138209" locus_tag="SHL15_RS42415" class="clusterblast-orf" id="dummy-4_h4_5_34"  />
</g>
<g id="a4_0035"  >
<polygon points="676,85 681,80 697,80 697,90 681,90 676,85 " style="fill:white; stroke-width:1; stroke:black; " description="&lt;b&gt;SHL15_RS42420&lt;/b&gt;&lt;br&gt;ABC transporter substrate-binding protein&lt;br&gt;Location: 1138276 - 1139316" locus_tag="SHL15_RS42420" class="clusterblast-orf" id="dummy-4_h4_5_35"  />
</g>
<g id="a4_0036"  >
<polygon points="698,85 703,80 718,80 718,90 703,90 698,85 " style="fill:white; stroke-width:1; stroke:black; " description="&lt;b&gt;SHL15_RS42425&lt;/b&gt;&lt;br&gt;ABC transporter permease&lt;br&gt;Location: 1139334 - 1140350" locus_tag="SHL15_RS42425" class="clusterblast-orf" id="dummy-4_h4_5_36"  />
</g>
<g id="a4_0037"  >
<polygon points="718,85 723,80 748,80 748,90 723,90 718,85 " style="fill:white; stroke-width:1; stroke:black; " description="&lt;b&gt;SHL15_RS42430&lt;/b&gt;&lt;br&gt;sugar ABC transporter ATP-binding protein&lt;br&gt;Location: 1140347 - 1141864" locus_tag="SHL15_RS42430" class="clusterblast-orf" id="dummy-4_h4_5_37"  />
</g>
<g id="a4_0038"  >
<polygon points="755,85 760,80 779,80 779,90 760,90 755,85 " style="fill:white; stroke-width:1; stroke:black; " description="&lt;b&gt;SHL15_RS42435&lt;/b&gt;&lt;br&gt;ROK family transcriptional regulator&lt;br&gt;Location: 1142226 - 1143407" locus_tag="SHL15_RS42435" class="clusterblast-orf" id="dummy-4_h4_5_38"  />
</g>
</svg>
