<svg xmlns="http://www.w3.org/2000/svg" xmlns:xlink="http://www.w3.org/1999/xlink" version="1.1" x="0" y="0" height="230" width="800" viewBox="0 0 800 230" preserveAspectRatio="none"  >
<g label="Query sequence" class="clusterblast-cluster"  >
<text x="5" y="20" class="clusterblast-acc"  >
Query sequence</text>
<line x1="10" y1="35" x2="778.0" y2="35" style="stroke-width:1; stroke:grey; "  />
<polygon points="72,40 79,40 84,35 79,30 72,30 72,40 " style="fill:#d81515; stroke-width:1; stroke:black; " description="&lt;b&gt;LLPMBPKK_05373&lt;/b&gt;&lt;br&gt;hypothetical protein&lt;br&gt;Location: 6119913 - 6120729" locus_tag="LLPMBPKK_05373" class="clusterblast-orf" id="dummy-20_q0_0_all"  />
<polygon points="90,40 107,40 112,35 107,30 90,30 90,40 " style="fill:#33d815; stroke-width:1; stroke:black; " description="&lt;b&gt;LLPMBPKK_05374&lt;/b&gt;&lt;br&gt;amino acid permease&lt;br&gt;Location: 6121100 - 6122573" locus_tag="LLPMBPKK_05374" class="clusterblast-orf" id="dummy-20_q1_0_all"  />
<polygon points="119,40 121,35 119,30 119,40 " style="fill:white; stroke-width:1; stroke:black; " description="&lt;b&gt;LLPMBPKK_05375&lt;/b&gt;&lt;br&gt;hypothetical protein&lt;br&gt;Location: 6122987 - 6123137" locus_tag="LLPMBPKK_05375" class="clusterblast-orf" id="dummy-20_q2_0_all"  />
<polygon points="124,40 125,40 130,35 125,30 124,30 124,40 " style="fill:white; stroke-width:1; stroke:black; " description="&lt;b&gt;LLPMBPKK_05376&lt;/b&gt;&lt;br&gt;hypothetical protein&lt;br&gt;Location: 6123339 - 6123723" locus_tag="LLPMBPKK_05376" class="clusterblast-orf" id="dummy-20_q3_0_all"  />
<polygon points="131,40 145,40 150,35 145,30 131,30 131,40 " style="fill:#15abd8; stroke-width:1; stroke:black; " description="&lt;b&gt;LLPMBPKK_05377&lt;/b&gt;&lt;br&gt;cytochrome P450&lt;br&gt;Location: 6123827 - 6125027" locus_tag="LLPMBPKK_05377" class="clusterblast-orf" id="dummy-20_q4_0_all"  />
<polygon points="154,40 173,40 178,35 173,30 154,30 154,40 " style="fill:#8d15d8; stroke-width:1; stroke:black; " description="&lt;b&gt;LLPMBPKK_05378&lt;/b&gt;&lt;br&gt;solute-binding transport lipoprotein&lt;br&gt;Location: 6125331 - 6126897" locus_tag="LLPMBPKK_05378" class="clusterblast-orf" id="dummy-20_q5_0_all"  />
<polygon points="179,35 184,30 222,30 222,40 184,40 179,35 " style="fill:#d86f15; stroke-width:1; stroke:black; " description="&lt;b&gt;LLPMBPKK_05379&lt;/b&gt;&lt;br&gt;non-ribosomal peptide synthetase&lt;br&gt;Location: 6126958 - 6129811" locus_tag="LLPMBPKK_05379" class="clusterblast-orf" id="dummy-20_q6_0_all"  />
<polygon points="226,40 281,40 286,35 281,30 226,30 226,40 " style="fill:#d86f15; stroke-width:1; stroke:black; " description="&lt;b&gt;LLPMBPKK_05380&lt;/b&gt;&lt;br&gt;non-ribosomal peptide synthetase&lt;br&gt;Location: 6130070 - 6134009" locus_tag="LLPMBPKK_05380" class="clusterblast-orf" id="dummy-20_q7_0_all"  />
<polygon points="288,40 432,40 437,35 432,30 288,30 288,40 " style="fill:#d86f15; stroke-width:1; stroke:black; " description="&lt;b&gt;LLPMBPKK_05381&lt;/b&gt;&lt;br&gt;non-ribosomal peptide synthetase/polyketidesynthase&lt;br&gt;Location: 6134151 - 6143928" locus_tag="LLPMBPKK_05381" class="clusterblast-orf" id="dummy-20_q8_0_all"  />
<polygon points="437,40 449,40 454,35 449,30 437,30 437,40 " style="fill:#15d851; stroke-width:1; stroke:black; " description="&lt;b&gt;LLPMBPKK_05382&lt;/b&gt;&lt;br&gt;GSCFA family protein&lt;br&gt;Location: 6143938 - 6145072" locus_tag="LLPMBPKK_05382" class="clusterblast-orf" id="dummy-20_q9_0_all"  />
<polygon points="454,40 460,40 465,35 460,30 454,30 454,40 " style="fill:#1551d8; stroke-width:1; stroke:black; " description="&lt;b&gt;LLPMBPKK_05383&lt;/b&gt;&lt;br&gt;hypothetical protein&lt;br&gt;Location: 6145037 - 6145817" locus_tag="LLPMBPKK_05383" class="clusterblast-orf" id="dummy-20_q10_0_all"  />
<polygon points="467,40 475,40 480,35 475,30 467,30 467,40 " style="fill:#d815c9; stroke-width:1; stroke:black; " description="&lt;b&gt;LLPMBPKK_05384&lt;/b&gt;&lt;br&gt;taurine dioxygenase&lt;br&gt;Location: 6145894 - 6146770" locus_tag="LLPMBPKK_05384" class="clusterblast-orf" id="dummy-20_q11_0_all"  />
<polygon points="480,35 485,30 493,30 493,40 485,40 480,35 " style="fill:#d8c915; stroke-width:1; stroke:black; " description="&lt;b&gt;LLPMBPKK_05385&lt;/b&gt;&lt;br&gt;hypothetical protein&lt;br&gt;Location: 6146782 - 6147661" locus_tag="LLPMBPKK_05385" class="clusterblast-orf" id="dummy-20_q12_0_all"  />
<polygon points="496,40 516,40 521,35 516,30 496,30 496,40 " style="fill:#15d8ab; stroke-width:1; stroke:black; " description="&lt;b&gt;LLPMBPKK_05386&lt;/b&gt;&lt;br&gt;hypothetical protein&lt;br&gt;Location: 6147847 - 6149494" locus_tag="LLPMBPKK_05386" class="clusterblast-orf" id="dummy-20_q13_0_all"  />
<polygon points="525,40 565,40 570,35 565,30 525,30 525,40 " style="fill:#3315d8; stroke-width:1; stroke:black; " description="&lt;b&gt;LLPMBPKK_05387&lt;/b&gt;&lt;br&gt;Alginate lyase&lt;br&gt;Location: 6149718 - 6152715" locus_tag="LLPMBPKK_05387" class="clusterblast-orf" id="dummy-20_q14_0_all"  />
<polygon points="571,35 576,30 603,30 603,40 576,40 571,35 " style="fill:#3315d8; stroke-width:1; stroke:black; " description="&lt;b&gt;LLPMBPKK_05388&lt;/b&gt;&lt;br&gt;Lytic transglycosylase&lt;br&gt;Location: 6152790 - 6154881" locus_tag="LLPMBPKK_05388" class="clusterblast-orf" id="dummy-20_q15_0_all"  />
<polygon points="609,40 645,40 650,35 645,30 609,30 609,40 " style="fill:#d8156f; stroke-width:1; stroke:black; " description="&lt;b&gt;LLPMBPKK_05389&lt;/b&gt;&lt;br&gt;hypothetical protein&lt;br&gt;Location: 6155246 - 6157967" locus_tag="LLPMBPKK_05389" class="clusterblast-orf" id="dummy-20_q16_0_all"  />
<polygon points="667,40 667,40 672,35 667,30 667,30 667,40 " style="fill:#8dd815; stroke-width:1; stroke:black; " description="&lt;b&gt;LLPMBPKK_05390&lt;/b&gt;&lt;br&gt;D-mannose binding lectin&lt;br&gt;Location: 6159084 - 6159405" locus_tag="LLPMBPKK_05390" class="clusterblast-orf" id="dummy-20_q17_0_all"  />
<polygon points="672,35 677,30 707,30 707,40 677,40 672,35 " style="fill:#15d8ab; stroke-width:1; stroke:black; " description="&lt;b&gt;LLPMBPKK_05391&lt;/b&gt;&lt;br&gt;hypothetical protein&lt;br&gt;Location: 6159385 - 6161743" locus_tag="LLPMBPKK_05391" class="clusterblast-orf" id="dummy-20_q18_0_all"  />
</g>
<g label="NZ_CP045803" description="NZ_CP045803 (4611629-4662977): Streptomyces rimosus R6-500 chromosome (17% of genes show similarity), NRPS" class="clusterblast-cluster"  >
<text x="5" y="70" class="clusterblast-acc"  >
<a xlink:href="https://antismash-db.secondarymetabolites.org/area.html?record=NZ_CP045803&amp;start=4611629&amp;end=4662977" target="_blank">NZ_CP045803 (4611629-4662977)</a>: Streptomyces rimosus R6-500 chromosome (17% of genes show similarity), NRPS</text>
<line x1="10" y1="85" x2="778.0" y2="85" style="stroke-width:1; stroke:grey; "  />
</g>
<g id="a20_000"  >
<polygon points="0,90 24,90 29,85 24,80 0,80 0,90 " style="fill:white; stroke-width:1; stroke:black; " description="&lt;b&gt;V519_RS20400&lt;/b&gt;&lt;br&gt;1-deoxy-D-xylulose-5-phosphate synthase&lt;br&gt;Location: 4611630 - 4613600" locus_tag="V519_RS20400" class="clusterblast-orf" id="dummy-20_h20_2_0"  />
</g>
<g id="a20_001"  >
<polygon points="34,90 54,90 59,85 54,80 34,80 34,90 " style="fill:white; stroke-width:1; stroke:black; " description="&lt;b&gt;V519_RS20405&lt;/b&gt;&lt;br&gt;amino acid permease&lt;br&gt;Location: 4613926 - 4615515" locus_tag="V519_RS20405" class="clusterblast-orf" id="dummy-20_h20_2_1"  />
</g>
<g id="a20_002"  >
<polygon points="59,85 64,80 65,80 65,90 64,90 59,85 " style="fill:white; stroke-width:1; stroke:black; " description="&lt;b&gt;V519_RS20410&lt;/b&gt;&lt;br&gt;hypothetical protein&lt;br&gt;Location: 4615534 - 4615926" locus_tag="V519_RS20410" class="clusterblast-orf" id="dummy-20_h20_2_2"  />
</g>
<g id="a20_003"  >
<polygon points="66,90 69,90 74,85 69,80 66,80 66,90 " style="fill:white; stroke-width:1; stroke:black; " description="&lt;b&gt;V519_RS20415&lt;/b&gt;&lt;br&gt;NUDIX domain-containing protein&lt;br&gt;Location: 4615991 - 4616506" locus_tag="V519_RS20415" class="clusterblast-orf" id="dummy-20_h20_2_3"  />
</g>
<g id="a20_004"  >
<polygon points="74,85 79,80 107,80 107,90 79,90 74,85 " style="fill:white; stroke-width:1; stroke:black; " description="&lt;b&gt;V519_RS20420&lt;/b&gt;&lt;br&gt;fatty acid oxidation complex alpha-subunit&lt;br&gt;Location: 4616548 - 4618674" locus_tag="V519_RS20420" class="clusterblast-orf" id="dummy-20_h20_2_4"  />
</g>
<g id="a20_005"  >
<polygon points="106,85 111,80 125,80 125,90 111,90 106,85 " style="fill:white; stroke-width:1; stroke:black; " description="&lt;b&gt;V519_RS20425&lt;/b&gt;&lt;br&gt;acetyl-CoA C-acyltransferase&lt;br&gt;Location: 4618671 - 4619891" locus_tag="V519_RS20425" class="clusterblast-orf" id="dummy-20_h20_2_5"  />
</g>
<g id="a20_006"  >
<polygon points="132,90 136,90 141,85 136,80 132,80 132,90 " style="fill:white; stroke-width:1; stroke:black; " description="&lt;b&gt;V519_RS20430&lt;/b&gt;&lt;br&gt;peptidase M4&lt;br&gt;Location: 4620341 - 4620976" locus_tag="V519_RS20430" class="clusterblast-orf" id="dummy-20_h20_2_6"  />
</g>
<g id="a20_007"  >
<polygon points="142,85 147,80 161,80 161,90 147,90 142,85 " style="fill:white; stroke-width:1; stroke:black; " description="&lt;b&gt;V519_RS20435&lt;/b&gt;&lt;br&gt;ribonuclease D&lt;br&gt;Location: 4621020 - 4622294" locus_tag="V519_RS20435" class="clusterblast-orf" id="dummy-20_h20_2_7"  />
</g>
<g id="a20_008"  >
<polygon points="163,85 168,80 173,80 173,90 168,90 163,85 " style="fill:white; stroke-width:1; stroke:black; " description="&lt;b&gt;V519_RS20440&lt;/b&gt;&lt;br&gt;response regulator transcription factor&lt;br&gt;Location: 4622380 - 4623042" locus_tag="V519_RS20440" class="clusterblast-orf" id="dummy-20_h20_2_8"  />
</g>
<g id="a20_009"  >
<polygon points="179,85 184,80 189,80 189,90 184,90 179,85 " style="fill:white; stroke-width:1; stroke:black; " description="&lt;b&gt;V519_RS20445&lt;/b&gt;&lt;br&gt;DUF3000 domain-containing protein&lt;br&gt;Location: 4623432 - 4624088" locus_tag="V519_RS20445" class="clusterblast-orf" id="dummy-20_h20_2_9"  />
</g>
<g id="a20_0010"  >
<polygon points="190,90 202,90 207,85 202,80 190,80 190,90 " style="fill:white; stroke-width:1; stroke:black; " description="&lt;b&gt;V519_RS20450&lt;/b&gt;&lt;br&gt;uroporphyrinogen decarboxylase&lt;br&gt;Location: 4624191 - 4625258" locus_tag="V519_RS20450" class="clusterblast-orf" id="dummy-20_h20_2_10"  />
</g>
<g id="a20_0011"  >
<polygon points="207,85 212,80 228,80 228,90 212,90 207,85 " style="fill:white; stroke-width:1; stroke:black; " description="&lt;b&gt;V519_RS20455&lt;/b&gt;&lt;br&gt;flavoprotein oxidoreductase&lt;br&gt;Location: 4625302 - 4626684" locus_tag="V519_RS20455" class="clusterblast-orf" id="dummy-20_h20_2_11"  />
</g>
<g id="a20_0012"  >
<polygon points="229,85 234,80 251,80 251,90 234,90 229,85 " style="fill:white; stroke-width:1; stroke:black; " description="&lt;b&gt;V519_RS20460&lt;/b&gt;&lt;br&gt;aldehyde dehydrogenase family protein&lt;br&gt;Location: 4626770 - 4628200" locus_tag="V519_RS20460" class="clusterblast-orf" id="dummy-20_h20_2_12"  />
</g>
<g id="a20_0013"  >
<polygon points="254,90 256,90 261,85 256,80 254,80 254,90 " style="fill:white; stroke-width:1; stroke:black; " description="&lt;b&gt;V519_RS20465&lt;/b&gt;&lt;br&gt;hypothetical protein&lt;br&gt;Location: 4628356 - 4628865" locus_tag="V519_RS20465" class="clusterblast-orf" id="dummy-20_h20_2_13"  />
</g>
<g id="a20_0014"  >
<polygon points="262,85 266,80 266,90 262,85 " style="fill:white; stroke-width:1; stroke:black; " description="&lt;b&gt;V519_RS20470&lt;/b&gt;&lt;br&gt;3-oxoadipyl-CoA thiolase&lt;br&gt;Location: 4628879 - 4629160" locus_tag="V519_RS20470" class="clusterblast-orf" id="dummy-20_h20_2_14"  />
</g>
<g id="a20_0015"  >
<polygon points="273,90 332,90 337,85 332,80 273,80 273,90 " style="fill:#d86f15; stroke-width:1; stroke:black; " description="&lt;b&gt;V519_RS20475&lt;/b&gt;&lt;br&gt;non-ribosomal peptide synthetase&lt;br&gt;Location: 4629640 - 4633824&lt;br&gt;&lt;br&gt;&lt;b&gt;BlastP hit with LLPMBPKK_05379&lt;/b&gt;&lt;br&gt;Percentage identity: 34&lt;br&gt;Percentage coverage: 104&lt;br&gt;BLAST bit score: 379&lt;br&gt;E-value: 4.37e-111&lt;br&gt;&lt;br&gt;&lt;b&gt;BlastP hit with LLPMBPKK_05380&lt;/b&gt;&lt;br&gt;Percentage identity: 58&lt;br&gt;Percentage coverage: 99&lt;br&gt;BLAST bit score: 1389&lt;br&gt;E-value: 0.0" locus_tag="V519_RS20475" class="clusterblast-orf" id="dummy-20_h20_2_15"  />
</g>
<g id="a20_0016"  >
<polygon points="337,90 473,90 478,85 473,80 337,80 337,90 " style="fill:#d86f15; stroke-width:1; stroke:black; " description="&lt;b&gt;V519_RS20480&lt;/b&gt;&lt;br&gt;non-ribosomal peptide synthase&lt;br&gt;Location: 4633824 - 4643123&lt;br&gt;&lt;br&gt;&lt;b&gt;BlastP hit with LLPMBPKK_05381&lt;/b&gt;&lt;br&gt;Percentage identity: 69&lt;br&gt;Percentage coverage: 97&lt;br&gt;BLAST bit score: 4071&lt;br&gt;E-value: 0.0" locus_tag="V519_RS20480" class="clusterblast-orf" id="dummy-20_h20_2_16"  />
</g>
<g id="a20_0017"  >
<polygon points="479,90 490,90 495,85 490,80 479,80 479,90 " style="fill:#15d851; stroke-width:1; stroke:black; " description="&lt;b&gt;V519_RS20485&lt;/b&gt;&lt;br&gt;GSCFA domain-containing protein&lt;br&gt;Location: 4643201 - 4644256&lt;br&gt;&lt;br&gt;&lt;b&gt;BlastP hit with LLPMBPKK_05382&lt;/b&gt;&lt;br&gt;Percentage identity: 71&lt;br&gt;Percentage coverage: 93&lt;br&gt;BLAST bit score: 502&lt;br&gt;E-value: 1.7e-177" locus_tag="V519_RS20485" class="clusterblast-orf" id="dummy-20_h20_2_17"  />
</g>
<g id="a20_0018"  >
<polygon points="497,90 501,90 506,85 501,80 497,80 497,90 " style="fill:#1551d8; stroke-width:1; stroke:black; " description="&lt;b&gt;V519_RS20490&lt;/b&gt;&lt;br&gt;hypothetical protein&lt;br&gt;Location: 4644378 - 4644953&lt;br&gt;&lt;br&gt;&lt;b&gt;BlastP hit with LLPMBPKK_05383&lt;/b&gt;&lt;br&gt;Percentage identity: 69&lt;br&gt;Percentage coverage: 77&lt;br&gt;BLAST bit score: 275&lt;br&gt;E-value: 2.5e-92" locus_tag="V519_RS20490" class="clusterblast-orf" id="dummy-20_h20_2_18"  />
</g>
<g id="a20_0019"  >
<polygon points="507,90 515,90 520,85 515,80 507,80 507,90 " style="fill:#d815c9; stroke-width:1; stroke:black; " description="&lt;b&gt;V519_RS20495&lt;/b&gt;&lt;br&gt;taurine dioxygenase&lt;br&gt;Location: 4645009 - 4645881&lt;br&gt;&lt;br&gt;&lt;b&gt;BlastP hit with LLPMBPKK_05384&lt;/b&gt;&lt;br&gt;Percentage identity: 70&lt;br&gt;Percentage coverage: 100&lt;br&gt;BLAST bit score: 420&lt;br&gt;E-value: 1.23e-147" locus_tag="V519_RS20495" class="clusterblast-orf" id="dummy-20_h20_2_19"  />
</g>
<g id="a20_0020"  >
<polygon points="521,85 526,80 533,80 533,90 526,90 521,85 " style="fill:#d8c915; stroke-width:1; stroke:black; " description="&lt;b&gt;V519_RS20500&lt;/b&gt;&lt;br&gt;hypothetical protein&lt;br&gt;Location: 4645949 - 4646749&lt;br&gt;&lt;br&gt;&lt;b&gt;BlastP hit with LLPMBPKK_05385&lt;/b&gt;&lt;br&gt;Percentage identity: 49&lt;br&gt;Percentage coverage: 49&lt;br&gt;BLAST bit score: 122&lt;br&gt;E-value: 4.72e-31" locus_tag="V519_RS20500" class="clusterblast-orf" id="dummy-20_h20_2_20"  />
</g>
<g id="a20_0021"  >
<polygon points="537,90 565,90 570,85 565,80 537,80 537,90 " style="fill:white; stroke-width:1; stroke:black; " description="&lt;b&gt;V519_RS20505&lt;/b&gt;&lt;br&gt;FUSC family protein&lt;br&gt;Location: 4647016 - 4649214" locus_tag="V519_RS20505" class="clusterblast-orf" id="dummy-20_h20_2_21"  />
</g>
<g id="a20_0022"  >
<polygon points="579,85 583,80 583,90 579,85 " style="fill:white; stroke-width:1; stroke:black; " description="&lt;b&gt;V519_RS20510&lt;/b&gt;&lt;br&gt;hypothetical protein&lt;br&gt;Location: 4649802 - 4650017" locus_tag="V519_RS20510" class="clusterblast-orf" id="dummy-20_h20_2_22"  />
</g>
<g id="a20_0023"  >
<polygon points="587,90 594,90 599,85 594,80 587,80 587,90 " style="fill:white; stroke-width:1; stroke:black; " description="&lt;b&gt;V519_RS20515&lt;/b&gt;&lt;br&gt;transposase&lt;br&gt;Location: 4650323 - 4651093" locus_tag="V519_RS20515" class="clusterblast-orf" id="dummy-20_h20_2_23"  />
</g>
<g id="a20_0024"  >
<polygon points="602,90 618,90 623,85 618,80 602,80 602,90 " style="fill:white; stroke-width:1; stroke:black; " description="&lt;b&gt;V519_RS20520&lt;/b&gt;&lt;br&gt;hypothetical protein&lt;br&gt;Location: 4651268 - 4652674" locus_tag="V519_RS20520" class="clusterblast-orf" id="dummy-20_h20_2_24"  />
</g>
<g id="a20_0025"  >
<polygon points="628,90 630,90 635,85 630,80 628,80 628,90 " style="fill:white; stroke-width:1; stroke:black; " description="&lt;b&gt;V519_RS20525&lt;/b&gt;&lt;br&gt;hypothetical protein&lt;br&gt;Location: 4653028 - 4653444" locus_tag="V519_RS20525" class="clusterblast-orf" id="dummy-20_h20_2_25"  />
</g>
<g id="a20_0026"  >
<polygon points="635,90 687,90 692,85 687,80 635,80 635,90 " style="fill:white; stroke-width:1; stroke:black; " description="&lt;b&gt;V519_RS20530&lt;/b&gt;&lt;br&gt;AAA family ATPase&lt;br&gt;Location: 4653441 - 4657235" locus_tag="V519_RS20530" class="clusterblast-orf" id="dummy-20_h20_2_26"  />
</g>
<g id="a20_0027"  >
<polygon points="694,90 699,90 704,85 699,80 694,80 694,90 " style="fill:white; stroke-width:1; stroke:black; " description="&lt;b&gt;V519_RS20535&lt;/b&gt;&lt;br&gt;hypothetical protein&lt;br&gt;Location: 4657336 - 4658025" locus_tag="V519_RS20535" class="clusterblast-orf" id="dummy-20_h20_2_27"  />
</g>
<g id="a20_0028"  >
<polygon points="705,85 710,80 710,80 710,90 710,90 705,85 " style="fill:white; stroke-width:1; stroke:black; " description="&lt;b&gt;V519_RS20540&lt;/b&gt;&lt;br&gt;ISAzo13 family transposase&lt;br&gt;Location: 4658101 - 4658378" locus_tag="V519_RS20540" class="clusterblast-orf" id="dummy-20_h20_2_28"  />
</g>
<g id="a20_0029"  >
<polygon points="712,85 717,80 717,80 717,90 717,90 712,85 " style="fill:white; stroke-width:1; stroke:black; " description="&lt;b&gt;V519_RS20545&lt;/b&gt;&lt;br&gt;hypothetical protein&lt;br&gt;Location: 4658502 - 4658837" locus_tag="V519_RS20545" class="clusterblast-orf" id="dummy-20_h20_2_29"  />
</g>
<g id="a20_0030"  >
<polygon points="717,85 720,80 720,90 717,85 " style="fill:white; stroke-width:1; stroke:black; " description="&lt;b&gt;V519_RS20550&lt;/b&gt;&lt;br&gt;hypothetical protein&lt;br&gt;Location: 4658834 - 4659052" locus_tag="V519_RS20550" class="clusterblast-orf" id="dummy-20_h20_2_30"  />
</g>
<g id="a20_0031"  >
<polygon points="724,85 729,80 730,80 730,90 729,90 724,85 " style="fill:white; stroke-width:1; stroke:black; " description="&lt;b&gt;V519_RS20555&lt;/b&gt;&lt;br&gt;hypothetical protein&lt;br&gt;Location: 4659294 - 4659716" locus_tag="V519_RS20555" class="clusterblast-orf" id="dummy-20_h20_2_31"  />
</g>
<g id="a20_0032"  >
<polygon points="737,90 744,90 749,85 744,80 737,80 737,90 " style="fill:white; stroke-width:1; stroke:black; " description="&lt;b&gt;V519_RS20560&lt;/b&gt;&lt;br&gt;ABC transporter permease&lt;br&gt;Location: 4660148 - 4660993" locus_tag="V519_RS20560" class="clusterblast-orf" id="dummy-20_h20_2_32"  />
</g>
<g id="a20_0033"  >
<polygon points="749,90 756,90 761,85 756,80 749,80 749,90 " style="fill:white; stroke-width:1; stroke:black; " description="&lt;b&gt;V519_RS20565&lt;/b&gt;&lt;br&gt;ABC transporter ATP-binding protein&lt;br&gt;Location: 4660966 - 4661790" locus_tag="V519_RS20565" class="clusterblast-orf" id="dummy-20_h20_2_33"  />
</g>
<g id="a20_0034"  >
<polygon points="763,90 775,90 780,85 775,80 763,80 763,90 " style="fill:white; stroke-width:1; stroke:black; " description="&lt;b&gt;V519_RS20570&lt;/b&gt;&lt;br&gt;ABC transporter substrate-binding protein&lt;br&gt;Location: 4661904 - 4662977" locus_tag="V519_RS20570" class="clusterblast-orf" id="dummy-20_h20_2_34"  />
</g>
</svg>
