<svg xmlns="http://www.w3.org/2000/svg" xmlns:xlink="http://www.w3.org/1999/xlink" version="1.1" x="0" y="0" height="230" width="800" viewBox="0 0 800 230" preserveAspectRatio="none"  >
<g label="Query sequence" class="clusterblast-cluster"  >
<text x="5" y="20" class="clusterblast-acc"  >
Query sequence</text>
<line x1="10" y1="35" x2="778.0" y2="35" style="stroke-width:1; stroke:grey; "  />
<polygon points="6,35 11,30 47,30 47,40 11,40 6,35 " style="fill:#d81515; stroke-width:1; stroke:black; " description="&lt;b&gt;LLPMBPKK_01150&lt;/b&gt;&lt;br&gt;two-component regulator&lt;br&gt;Location: 1403914 - 1404556" locus_tag="LLPMBPKK_01150" class="clusterblast-orf" id="dummy-8_q0_0_all"  />
<polygon points="58,35 63,30 111,30 111,40 63,40 58,35 " style="fill:#d81515; stroke-width:1; stroke:black; " description="&lt;b&gt;LLPMBPKK_01151&lt;/b&gt;&lt;br&gt;response regulator transcription factor&lt;br&gt;Location: 1404722 - 1405544" locus_tag="LLPMBPKK_01151" class="clusterblast-orf" id="dummy-8_q1_0_all"  />
<polygon points="121,35 126,30 217,30 217,40 126,40 121,35 " style="fill:#15d863; stroke-width:1; stroke:black; " description="&lt;b&gt;LLPMBPKK_01152&lt;/b&gt;&lt;br&gt;HAMP domain-containing protein&lt;br&gt;Location: 1405698 - 1407189" locus_tag="LLPMBPKK_01152" class="clusterblast-orf" id="dummy-8_q2_0_all"  />
<polygon points="217,35 222,30 266,30 266,40 222,40 217,35 " style="fill:#d81515; stroke-width:1; stroke:black; " description="&lt;b&gt;LLPMBPKK_01153&lt;/b&gt;&lt;br&gt;response regulator transcription factor&lt;br&gt;Location: 1407185 - 1407944" locus_tag="LLPMBPKK_01153" class="clusterblast-orf" id="dummy-8_q3_0_all"  />
<polygon points="298,40 396,40 401,35 396,30 298,30 298,40 " style="fill:#1563d8; stroke-width:1; stroke:black; " description="&lt;b&gt;LLPMBPKK_01154&lt;/b&gt;&lt;br&gt;IucA/IucC family siderophore biosynthesisprotein&lt;br&gt;Location: 1408441 - 1410028" locus_tag="LLPMBPKK_01154" class="clusterblast-orf" id="dummy-8_q4_0_all"  />
<polygon points="405,40 510,40 515,35 510,30 405,30 405,40 " style="fill:#b115d8; stroke-width:1; stroke:black; " description="&lt;b&gt;LLPMBPKK_01155&lt;/b&gt;&lt;br&gt;iron transporter&lt;br&gt;Location: 1410100 - 1411795" locus_tag="LLPMBPKK_01155" class="clusterblast-orf" id="dummy-8_q5_0_all"  />
<polygon points="592,40 680,40 685,35 680,30 592,30 592,40 " style="fill:#b1d815; stroke-width:1; stroke:black; " description="&lt;b&gt;LLPMBPKK_01157&lt;/b&gt;&lt;br&gt;MFS transporter&lt;br&gt;Location: 1412994 - 1414431" locus_tag="LLPMBPKK_01157" class="clusterblast-orf" id="dummy-8_q6_0_all"  />
<polygon points="699,35 704,30 774,30 774,40 704,40 699,35 " style="fill:white; stroke-width:1; stroke:black; " description="&lt;b&gt;LLPMBPKK_01158&lt;/b&gt;&lt;br&gt;LLM class flavin-dependent oxidoreductase&lt;br&gt;Location: 1414648 - 1415818" locus_tag="LLPMBPKK_01158" class="clusterblast-orf" id="dummy-8_q7_0_all"  />
</g>
<g label="NZ_JH725387" description="NZ_JH725387 (772778-784862): Streptomyces auratus AGR0001 Scaffold1, whole ge... (60% of genes show similarity), siderophore" class="clusterblast-cluster"  >
<text x="5" y="70" class="clusterblast-acc"  >
<a xlink:href="https://antismash-db.secondarymetabolites.org/area.html?record=NZ_JH725387&amp;start=772778&amp;end=784862" target="_blank">NZ_JH725387 (772778-784862)</a>: Streptomyces auratus AGR0001 Scaffold1, whole ge... (60% of genes show similarity), siderophore</text>
<line x1="10" y1="85" x2="778.0" y2="85" style="stroke-width:1; stroke:grey; "  />
</g>
<g id="a8_000"  >
<polygon points="0,90 49,90 54,85 49,80 0,80 0,90 " style="fill:white; stroke-width:1; stroke:black; " description="&lt;b&gt;SU9_RS03415&lt;/b&gt;&lt;br&gt;(2Fe-2S)-binding protein&lt;br&gt;Location: 772779 - 773618" locus_tag="SU9_RS03415" class="clusterblast-orf" id="dummy-8_h8_3_0"  />
</g>
<g id="a8_001"  >
<polygon points="56,85 61,80 104,80 104,90 61,90 56,85 " style="fill:#d81515; stroke-width:1; stroke:black; " description="&lt;b&gt;SU9_RS03420&lt;/b&gt;&lt;br&gt;response regulator transcription factor&lt;br&gt;Location: 773660 - 774394&lt;br&gt;&lt;br&gt;&lt;b&gt;BlastP hit with LLPMBPKK_01150&lt;/b&gt;&lt;br&gt;Percentage identity: 35&lt;br&gt;Percentage coverage: 111&lt;br&gt;BLAST bit score: 115&lt;br&gt;E-value: 1.46e-29&lt;br&gt;&lt;br&gt;&lt;b&gt;BlastP hit with LLPMBPKK_01151&lt;/b&gt;&lt;br&gt;Percentage identity: 87&lt;br&gt;Percentage coverage: 90&lt;br&gt;BLAST bit score: 426&lt;br&gt;E-value: 6.06e-151&lt;br&gt;&lt;br&gt;&lt;b&gt;BlastP hit with LLPMBPKK_01153&lt;/b&gt;&lt;br&gt;Percentage identity: 66&lt;br&gt;Percentage coverage: 97&lt;br&gt;BLAST bit score: 315&lt;br&gt;E-value: 2.6e-107" locus_tag="SU9_RS03420" class="clusterblast-orf" id="dummy-8_h8_3_1"  />
</g>
<g id="a8_002"  >
<polygon points="108,85 113,80 207,80 207,90 113,90 108,85 " style="fill:#15d863; stroke-width:1; stroke:black; " description="&lt;b&gt;SU9_RS03425&lt;/b&gt;&lt;br&gt;HAMP domain-containing histidine kinase&lt;br&gt;Location: 774456 - 776000&lt;br&gt;&lt;br&gt;&lt;b&gt;BlastP hit with LLPMBPKK_01152&lt;/b&gt;&lt;br&gt;Percentage identity: 87&lt;br&gt;Percentage coverage: 98&lt;br&gt;BLAST bit score: 800&lt;br&gt;E-value: 8.03e-291" locus_tag="SU9_RS03425" class="clusterblast-orf" id="dummy-8_h8_3_2"  />
</g>
<g id="a8_003"  >
<polygon points="207,85 212,80 256,80 256,90 212,90 207,85 " style="fill:#d81515; stroke-width:1; stroke:black; " description="&lt;b&gt;SU9_RS03430&lt;/b&gt;&lt;br&gt;response regulator transcription factor&lt;br&gt;Location: 775997 - 776755&lt;br&gt;&lt;br&gt;&lt;b&gt;BlastP hit with LLPMBPKK_01150&lt;/b&gt;&lt;br&gt;Percentage identity: 36&lt;br&gt;Percentage coverage: 110&lt;br&gt;BLAST bit score: 108&lt;br&gt;E-value: 7.91e-27&lt;br&gt;&lt;br&gt;&lt;b&gt;BlastP hit with LLPMBPKK_01151&lt;/b&gt;&lt;br&gt;Percentage identity: 63&lt;br&gt;Percentage coverage: 90&lt;br&gt;BLAST bit score: 306&lt;br&gt;E-value: 1.67e-103&lt;br&gt;&lt;br&gt;&lt;b&gt;BlastP hit with LLPMBPKK_01153&lt;/b&gt;&lt;br&gt;Percentage identity: 85&lt;br&gt;Percentage coverage: 100&lt;br&gt;BLAST bit score: 413&lt;br&gt;E-value: 3.74e-146" locus_tag="SU9_RS03430" class="clusterblast-orf" id="dummy-8_h8_3_3"  />
</g>
<g id="a8_004"  >
<polygon points="288,90 386,90 391,85 386,80 288,80 288,90 " style="fill:#1563d8; stroke-width:1; stroke:black; " description="&lt;b&gt;SU9_RS03435&lt;/b&gt;&lt;br&gt;iron transporter&lt;br&gt;Location: 777253 - 778839&lt;br&gt;&lt;br&gt;&lt;b&gt;BlastP hit with LLPMBPKK_01154&lt;/b&gt;&lt;br&gt;Percentage identity: 89&lt;br&gt;Percentage coverage: 100&lt;br&gt;BLAST bit score: 931&lt;br&gt;E-value: 0.0" locus_tag="SU9_RS03435" class="clusterblast-orf" id="dummy-8_h8_3_4"  />
</g>
<g id="a8_005"  >
<polygon points="395,90 500,90 505,85 500,80 395,80 395,90 " style="fill:#b115d8; stroke-width:1; stroke:black; " description="&lt;b&gt;SU9_RS03440&lt;/b&gt;&lt;br&gt;iron transporter&lt;br&gt;Location: 778912 - 780606&lt;br&gt;&lt;br&gt;&lt;b&gt;BlastP hit with LLPMBPKK_01155&lt;/b&gt;&lt;br&gt;Percentage identity: 88&lt;br&gt;Percentage coverage: 100&lt;br&gt;BLAST bit score: 1020&lt;br&gt;E-value: 0.0" locus_tag="SU9_RS03440" class="clusterblast-orf" id="dummy-8_h8_3_5"  />
</g>
<g id="a8_006"  >
<polygon points="505,90 577,90 582,85 577,80 505,80 505,90 " style="fill:white; stroke-width:1; stroke:black; " description="&lt;b&gt;SU9_RS03445&lt;/b&gt;&lt;br&gt;type III PLP-dependent enzyme&lt;br&gt;Location: 780603 - 781799" locus_tag="SU9_RS03445" class="clusterblast-orf" id="dummy-8_h8_3_6"  />
</g>
<g id="a8_007"  >
<polygon points="585,90 670,90 675,85 670,80 585,80 585,90 " style="fill:#b1d815; stroke-width:1; stroke:black; " description="&lt;b&gt;SU9_RS03450&lt;/b&gt;&lt;br&gt;MFS transporter&lt;br&gt;Location: 781842 - 783242&lt;br&gt;&lt;br&gt;&lt;b&gt;BlastP hit with LLPMBPKK_01157&lt;/b&gt;&lt;br&gt;Percentage identity: 88&lt;br&gt;Percentage coverage: 97&lt;br&gt;BLAST bit score: 741&lt;br&gt;E-value: 2.62e-268" locus_tag="SU9_RS03450" class="clusterblast-orf" id="dummy-8_h8_3_7"  />
</g>
<g id="a8_008"  >
<polygon points="684,85 689,80 734,80 734,90 689,90 684,85 " style="fill:white; stroke-width:1; stroke:black; " description="&lt;b&gt;SU9_RS03455&lt;/b&gt;&lt;br&gt;hypothetical protein&lt;br&gt;Location: 783386 - 784150" locus_tag="SU9_RS03455" class="clusterblast-orf" id="dummy-8_h8_3_8"  />
</g>
<g id="a8_009"  >
<polygon points="746,85 751,80 779,80 779,90 751,90 746,85 " style="fill:white; stroke-width:1; stroke:black; " description="&lt;b&gt;SU9_RS03460&lt;/b&gt;&lt;br&gt;hypothetical protein&lt;br&gt;Location: 784344 - 784862" locus_tag="SU9_RS03460" class="clusterblast-orf" id="dummy-8_h8_3_9"  />
</g>
</svg>
