<svg xmlns="http://www.w3.org/2000/svg" xmlns:xlink="http://www.w3.org/1999/xlink" version="1.1" x="0" y="0" height="230" width="800" viewBox="0 0 800 230" preserveAspectRatio="none"  >
<g label="Query sequence" class="clusterblast-cluster"  >
<text x="5" y="20" class="clusterblast-acc"  >
Query sequence</text>
<line x1="10" y1="35" x2="778.0" y2="35" style="stroke-width:1; stroke:grey; "  />
<polygon points="146,35 151,30 155,30 155,40 151,40 146,35 " style="fill:#d81515; stroke-width:1; stroke:black; " description="&lt;b&gt;LLPMBPKK_04016&lt;/b&gt;&lt;br&gt;TrmH family RNA methyltransferase&lt;br&gt;Location: 4616085 - 4616826" locus_tag="LLPMBPKK_04016" class="clusterblast-orf" id="dummy-18_q0_0_all"  />
<polygon points="154,35 159,30 168,30 168,40 159,40 154,35 " style="fill:#58d815; stroke-width:1; stroke:black; " description="&lt;b&gt;LLPMBPKK_04017&lt;/b&gt;&lt;br&gt;HTTM domain-containing protein&lt;br&gt;Location: 4616822 - 4618034" locus_tag="LLPMBPKK_04017" class="clusterblast-orf" id="dummy-18_q1_0_all"  />
<polygon points="168,35 173,30 177,30 177,40 173,40 168,35 " style="fill:#15c4d8; stroke-width:1; stroke:black; " description="&lt;b&gt;LLPMBPKK_04018&lt;/b&gt;&lt;br&gt;hypothetical protein&lt;br&gt;Location: 4618030 - 4618855" locus_tag="LLPMBPKK_04018" class="clusterblast-orf" id="dummy-18_q2_0_all"  />
<polygon points="181,40 187,40 192,35 187,30 181,30 181,40 " style="fill:#8115d8; stroke-width:1; stroke:black; " description="&lt;b&gt;LLPMBPKK_04019&lt;/b&gt;&lt;br&gt;1,2-phenylacetyl-CoA epoxidase subunit A&lt;br&gt;Location: 4619266 - 4620283" locus_tag="LLPMBPKK_04019" class="clusterblast-orf" id="dummy-18_q3_0_all"  />
<polygon points="192,40 195,35 192,30 192,40 " style="fill:#d83e15; stroke-width:1; stroke:black; " description="&lt;b&gt;LLPMBPKK_04020&lt;/b&gt;&lt;br&gt;1,2-phenylacetyl-CoA epoxidase subunit B&lt;br&gt;Location: 4620279 - 4620567" locus_tag="LLPMBPKK_04020" class="clusterblast-orf" id="dummy-18_q4_0_all"  />
<polygon points="195,40 199,40 204,35 199,30 195,30 195,40 " style="fill:#30d815; stroke-width:1; stroke:black; " description="&lt;b&gt;LLPMBPKK_04021&lt;/b&gt;&lt;br&gt;phenylacetate-CoA oxygenase subunit PaaI&lt;br&gt;Location: 4620563 - 4621316" locus_tag="LLPMBPKK_04021" class="clusterblast-orf" id="dummy-18_q5_0_all"  />
<polygon points="204,40 204,40 209,35 204,30 204,30 204,40 " style="fill:#159cd8; stroke-width:1; stroke:black; " description="&lt;b&gt;LLPMBPKK_04022&lt;/b&gt;&lt;br&gt;phenylacetate-CoA oxygenase subunit PaaJ&lt;br&gt;Location: 4621309 - 4621843" locus_tag="LLPMBPKK_04022" class="clusterblast-orf" id="dummy-18_q6_0_all"  />
<polygon points="209,40 216,40 221,35 216,30 209,30 209,40 " style="fill:#a915d8; stroke-width:1; stroke:black; " description="&lt;b&gt;LLPMBPKK_04023&lt;/b&gt;&lt;br&gt;2Fe-2S iron-sulfur cluster bindingdomain-containing protein&lt;br&gt;Location: 4621842 - 4622907" locus_tag="LLPMBPKK_04023" class="clusterblast-orf" id="dummy-18_q7_0_all"  />
<polygon points="223,40 231,40 236,35 231,30 223,30 223,40 " style="fill:#d86615; stroke-width:1; stroke:black; " description="&lt;b&gt;LLPMBPKK_04024&lt;/b&gt;&lt;br&gt;acyl-CoA dehydrogenase&lt;br&gt;Location: 4623126 - 4624269" locus_tag="LLPMBPKK_04024" class="clusterblast-orf" id="dummy-18_q8_0_all"  />
<polygon points="236,35 240,30 240,40 236,35 " style="fill:#15d823; stroke-width:1; stroke:black; " description="&lt;b&gt;LLPMBPKK_04025&lt;/b&gt;&lt;br&gt;rhodanese-like domain-containing protein&lt;br&gt;Location: 4624288 - 4624618" locus_tag="LLPMBPKK_04025" class="clusterblast-orf" id="dummy-18_q9_0_all"  />
<polygon points="240,35 245,30 251,30 251,40 245,40 240,35 " style="fill:#1573d8; stroke-width:1; stroke:black; " description="&lt;b&gt;LLPMBPKK_04026&lt;/b&gt;&lt;br&gt;hypothetical protein&lt;br&gt;Location: 4624666 - 4625623" locus_tag="LLPMBPKK_04026" class="clusterblast-orf" id="dummy-18_q10_0_all"  />
<polygon points="251,35 256,30 267,30 267,40 256,40 251,35 " style="fill:#d215d8; stroke-width:1; stroke:black; " description="&lt;b&gt;LLPMBPKK_04027&lt;/b&gt;&lt;br&gt;hypothetical protein&lt;br&gt;Location: 4625648 - 4627106" locus_tag="LLPMBPKK_04027" class="clusterblast-orf" id="dummy-18_q11_0_all"  />
<polygon points="269,35 274,30 277,30 277,40 274,40 269,35 " style="fill:#d88e15; stroke-width:1; stroke:black; " description="&lt;b&gt;LLPMBPKK_04028&lt;/b&gt;&lt;br&gt;2-hydroxychromene-2-carboxylate isomerase&lt;br&gt;Location: 4627295 - 4627997" locus_tag="LLPMBPKK_04028" class="clusterblast-orf" id="dummy-18_q12_0_all"  />
<polygon points="277,35 282,30 285,30 285,40 282,40 277,35 " style="fill:#15d84b; stroke-width:1; stroke:black; " description="&lt;b&gt;LLPMBPKK_04029&lt;/b&gt;&lt;br&gt;SDR family oxidoreductase&lt;br&gt;Location: 4628056 - 4628800" locus_tag="LLPMBPKK_04029" class="clusterblast-orf" id="dummy-18_q13_0_all"  />
<polygon points="285,35 290,30 296,30 296,40 290,40 285,35 " style="fill:#154bd8; stroke-width:1; stroke:black; " description="&lt;b&gt;LLPMBPKK_04030&lt;/b&gt;&lt;br&gt;FabA-like domain protein&lt;br&gt;Location: 4628796 - 4629738" locus_tag="LLPMBPKK_04030" class="clusterblast-orf" id="dummy-18_q14_0_all"  />
<polygon points="296,35 299,30 299,40 296,35 " style="fill:#d815b7; stroke-width:1; stroke:black; " description="&lt;b&gt;LLPMBPKK_04031&lt;/b&gt;&lt;br&gt;acyl carrier protein&lt;br&gt;Location: 4629737 - 4629995" locus_tag="LLPMBPKK_04031" class="clusterblast-orf" id="dummy-18_q15_0_all"  />
<polygon points="299,35 304,30 311,30 311,40 304,40 299,35 " style="fill:#d8b715; stroke-width:1; stroke:black; " description="&lt;b&gt;LLPMBPKK_04032&lt;/b&gt;&lt;br&gt;3-oxoacyl-ACP synthase&lt;br&gt;Location: 4630070 - 4631171" locus_tag="LLPMBPKK_04032" class="clusterblast-orf" id="dummy-18_q16_0_all"  />
<polygon points="312,35 316,30 316,40 312,35 " style="fill:#15d873; stroke-width:1; stroke:black; " description="&lt;b&gt;LLPMBPKK_04033&lt;/b&gt;&lt;br&gt;hypothetical protein&lt;br&gt;Location: 4631222 - 4631618" locus_tag="LLPMBPKK_04033" class="clusterblast-orf" id="dummy-18_q17_0_all"  />
<polygon points="316,35 321,30 321,30 321,40 321,40 316,35 " style="fill:#1523d8; stroke-width:1; stroke:black; " description="&lt;b&gt;LLPMBPKK_04034&lt;/b&gt;&lt;br&gt;hypothetical protein&lt;br&gt;Location: 4631621 - 4632029" locus_tag="LLPMBPKK_04034" class="clusterblast-orf" id="dummy-18_q18_0_all"  />
<polygon points="321,35 324,30 324,40 321,35 " style="fill:#d8158e; stroke-width:1; stroke:black; " description="&lt;b&gt;LLPMBPKK_04035&lt;/b&gt;&lt;br&gt;hypothetical protein&lt;br&gt;Location: 4632028 - 4632352" locus_tag="LLPMBPKK_04035" class="clusterblast-orf" id="dummy-18_q19_0_all"  />
<polygon points="324,35 329,30 335,30 335,40 329,40 324,35 " style="fill:#d2d815; stroke-width:1; stroke:black; " description="&lt;b&gt;LLPMBPKK_04036&lt;/b&gt;&lt;br&gt;hypothetical protein&lt;br&gt;Location: 4632361 - 4633366" locus_tag="LLPMBPKK_04036" class="clusterblast-orf" id="dummy-18_q20_0_all"  />
<polygon points="335,35 340,30 344,30 344,40 340,40 335,35 " style="fill:#15d89c; stroke-width:1; stroke:black; " description="&lt;b&gt;LLPMBPKK_04037&lt;/b&gt;&lt;br&gt;alpha/beta hydrolase&lt;br&gt;Location: 4633362 - 4634178" locus_tag="LLPMBPKK_04037" class="clusterblast-orf" id="dummy-18_q21_0_all"  />
<polygon points="344,35 349,30 355,30 355,40 349,40 344,35 " style="fill:#d8b715; stroke-width:1; stroke:black; " description="&lt;b&gt;LLPMBPKK_04038&lt;/b&gt;&lt;br&gt;3-oxoacyl-ACP synthase I&lt;br&gt;Location: 4634174 - 4635173" locus_tag="LLPMBPKK_04038" class="clusterblast-orf" id="dummy-18_q22_0_all"  />
<polygon points="355,35 360,30 368,30 368,40 360,40 355,35 " style="fill:#3015d8; stroke-width:1; stroke:black; " description="&lt;b&gt;LLPMBPKK_04039&lt;/b&gt;&lt;br&gt;3-oxoacyl-ACP synthase&lt;br&gt;Location: 4635172 - 4636348" locus_tag="LLPMBPKK_04039" class="clusterblast-orf" id="dummy-18_q23_0_all"  />
<polygon points="368,35 373,30 382,30 382,40 373,40 368,35 " style="fill:#3015d8; stroke-width:1; stroke:black; " description="&lt;b&gt;LLPMBPKK_04040&lt;/b&gt;&lt;br&gt;beta-ketoacyl-[acyl-carrier-protein] synthasefamily protein&lt;br&gt;Location: 4636344 - 4637580" locus_tag="LLPMBPKK_04040" class="clusterblast-orf" id="dummy-18_q24_0_all"  />
<polygon points="382,35 385,30 385,40 382,35 " style="fill:#d81566; stroke-width:1; stroke:black; " description="&lt;b&gt;LLPMBPKK_04041&lt;/b&gt;&lt;br&gt;acyl carrier protein&lt;br&gt;Location: 4637613 - 4637859" locus_tag="LLPMBPKK_04041" class="clusterblast-orf" id="dummy-18_q25_0_all"  />
<polygon points="386,35 391,30 395,30 395,40 391,40 386,35 " style="fill:#a9d815; stroke-width:1; stroke:black; " description="&lt;b&gt;LLPMBPKK_04042&lt;/b&gt;&lt;br&gt;LuxR family transcriptional regulator&lt;br&gt;Location: 4637995 - 4638787" locus_tag="LLPMBPKK_04042" class="clusterblast-orf" id="dummy-18_q26_0_all"  />
<polygon points="396,35 401,30 413,30 413,40 401,40 396,35 " style="fill:white; stroke-width:1; stroke:black; " description="&lt;b&gt;LLPMBPKK_04043&lt;/b&gt;&lt;br&gt;hypothetical protein&lt;br&gt;Location: 4638934 - 4640428" locus_tag="LLPMBPKK_04043" class="clusterblast-orf" id="dummy-18_q27_0_all"  />
<polygon points="413,35 418,30 454,30 454,40 418,40 413,35 " style="fill:white; stroke-width:1; stroke:black; " description="&lt;b&gt;LLPMBPKK_04044&lt;/b&gt;&lt;br&gt;[acyl-carrier-protein] S-malonyltransferase&lt;br&gt;Location: 4640501 - 4644239" locus_tag="LLPMBPKK_04044" class="clusterblast-orf" id="dummy-18_q28_0_all"  />
<polygon points="458,35 463,30 464,30 464,40 463,40 458,35 " style="fill:#15d8c4; stroke-width:1; stroke:black; " description="&lt;b&gt;LLPMBPKK_04045&lt;/b&gt;&lt;br&gt;gamma-butyrolactone binding protein&lt;br&gt;Location: 4644533 - 4645160" locus_tag="LLPMBPKK_04045" class="clusterblast-orf" id="dummy-18_q29_0_all"  />
<polygon points="466,35 471,30 474,30 474,40 471,40 466,35 " style="fill:#5815d8; stroke-width:1; stroke:black; " description="&lt;b&gt;LLPMBPKK_04046&lt;/b&gt;&lt;br&gt;response regulator transcription factor&lt;br&gt;Location: 4645316 - 4646048" locus_tag="LLPMBPKK_04046" class="clusterblast-orf" id="dummy-18_q30_0_all"  />
<polygon points="478,40 484,40 489,35 484,30 478,30 478,40 " style="fill:#d8153e; stroke-width:1; stroke:black; " description="&lt;b&gt;LLPMBPKK_04047&lt;/b&gt;&lt;br&gt;ScbA protein&lt;br&gt;Location: 4646437 - 4647397" locus_tag="LLPMBPKK_04047" class="clusterblast-orf" id="dummy-18_q31_0_all"  />
<polygon points="489,40 495,40 500,35 495,30 489,30 489,40 " style="fill:#81d815; stroke-width:1; stroke:black; " description="&lt;b&gt;LLPMBPKK_04048&lt;/b&gt;&lt;br&gt;2-alkyl-3-oxoalkanoate reductase&lt;br&gt;Location: 4647446 - 4648376" locus_tag="LLPMBPKK_04048" class="clusterblast-orf" id="dummy-18_q32_0_all"  />
<polygon points="500,35 505,30 513,30 513,40 505,40 500,35 " style="fill:white; stroke-width:1; stroke:black; " description="&lt;b&gt;LLPMBPKK_04049&lt;/b&gt;&lt;br&gt;pyrroloquinoline quinone biosynthesis proteinPqqE&lt;br&gt;Location: 4648378 - 4649575" locus_tag="LLPMBPKK_04049" class="clusterblast-orf" id="dummy-18_q33_0_all"  />
<polygon points="513,35 516,30 516,40 513,35 " style="fill:white; stroke-width:1; stroke:black; " description="&lt;b&gt;LLPMBPKK_04050&lt;/b&gt;&lt;br&gt;pyrroloquinoline quinone biosynthesis peptidechaperone PqqD&lt;br&gt;Location: 4649571 - 4649877" locus_tag="LLPMBPKK_04050" class="clusterblast-orf" id="dummy-18_q34_0_all"  />
<polygon points="516,35 521,30 524,30 524,40 521,40 516,35 " style="fill:white; stroke-width:1; stroke:black; " description="&lt;b&gt;LLPMBPKK_04051&lt;/b&gt;&lt;br&gt;pyrroloquinoline quinone biosynthesis proteinPqqC&lt;br&gt;Location: 4649876 - 4650611" locus_tag="LLPMBPKK_04051" class="clusterblast-orf" id="dummy-18_q35_0_all"  />
<polygon points="524,35 529,30 534,30 534,40 529,40 524,35 " style="fill:white; stroke-width:1; stroke:black; " description="&lt;b&gt;LLPMBPKK_04052&lt;/b&gt;&lt;br&gt;pyrroloquinoline quinone biosynthesis proteinPqqB&lt;br&gt;Location: 4650607 - 4651522" locus_tag="LLPMBPKK_04052" class="clusterblast-orf" id="dummy-18_q36_0_all"  />
<polygon points="534,35 536,30 536,40 534,35 " style="fill:white; stroke-width:1; stroke:black; " description="&lt;b&gt;LLPMBPKK_04053&lt;/b&gt;&lt;br&gt;hypothetical protein&lt;br&gt;Location: 4651529 - 4651667" locus_tag="LLPMBPKK_04053" class="clusterblast-orf" id="dummy-18_q37_0_all"  />
<polygon points="536,35 541,30 549,30 549,40 541,40 536,35 " style="fill:white; stroke-width:1; stroke:black; " description="&lt;b&gt;LLPMBPKK_04054&lt;/b&gt;&lt;br&gt;oxidoreductase&lt;br&gt;Location: 4651746 - 4652868" locus_tag="LLPMBPKK_04054" class="clusterblast-orf" id="dummy-18_q38_0_all"  />
<polygon points="550,35 555,30 568,30 568,40 555,40 550,35 " style="fill:white; stroke-width:1; stroke:black; " description="&lt;b&gt;LLPMBPKK_04055&lt;/b&gt;&lt;br&gt;hypothetical protein&lt;br&gt;Location: 4652956 - 4654618" locus_tag="LLPMBPKK_04055" class="clusterblast-orf" id="dummy-18_q39_0_all"  />
<polygon points="568,40 571,40 576,35 571,30 568,30 568,40 " style="fill:white; stroke-width:1; stroke:black; " description="&lt;b&gt;LLPMBPKK_04056&lt;/b&gt;&lt;br&gt;CDP-alcohol phosphatidyltransferase familyprotein&lt;br&gt;Location: 4654650 - 4655355" locus_tag="LLPMBPKK_04056" class="clusterblast-orf" id="dummy-18_q40_0_all"  />
<polygon points="575,35 580,30 581,30 581,40 580,40 575,35 " style="fill:white; stroke-width:1; stroke:black; " description="&lt;b&gt;LLPMBPKK_04057&lt;/b&gt;&lt;br&gt;Bifunctional protein HldE&lt;br&gt;Location: 4655244 - 4655793" locus_tag="LLPMBPKK_04057" class="clusterblast-orf" id="dummy-18_q41_0_all"  />
<polygon points="581,35 586,30 597,30 597,40 586,40 581,35 " style="fill:white; stroke-width:1; stroke:black; " description="&lt;b&gt;LLPMBPKK_04058&lt;/b&gt;&lt;br&gt;LamG domain-containing protein&lt;br&gt;Location: 4655789 - 4657256" locus_tag="LLPMBPKK_04058" class="clusterblast-orf" id="dummy-18_q42_0_all"  />
<polygon points="599,35 604,30 615,30 615,40 604,40 599,35 " style="fill:white; stroke-width:1; stroke:black; " description="&lt;b&gt;LLPMBPKK_04059&lt;/b&gt;&lt;br&gt;Polysaccharide biosynthesis protein&lt;br&gt;Location: 4657434 - 4658967" locus_tag="LLPMBPKK_04059" class="clusterblast-orf" id="dummy-18_q43_0_all"  />
<polygon points="615,35 620,30 633,30 633,40 620,40 615,35 " style="fill:white; stroke-width:1; stroke:black; " description="&lt;b&gt;LLPMBPKK_04060&lt;/b&gt;&lt;br&gt;hypothetical protein&lt;br&gt;Location: 4658963 - 4660556" locus_tag="LLPMBPKK_04060" class="clusterblast-orf" id="dummy-18_q44_0_all"  />
</g>
<g label="NZ_CP050975" description="NZ_CP050975 (4755473-4826792): Streptomyces sp. RPA4-2 chromosome, complete g... (23% of genes show similarity), T2PKS,butyrolactone" class="clusterblast-cluster"  >
<text x="5" y="70" class="clusterblast-acc"  >
<a xlink:href="https://antismash-db.secondarymetabolites.org/area.html?record=NZ_CP050975&amp;start=4755473&amp;end=4826792" target="_blank">NZ_CP050975 (4755473-4826792)</a>: Streptomyces sp. RPA4-2 chromosome, complete g... (23% of genes show similarity), T2PKS,butyrolactone</text>
<line x1="10" y1="85" x2="778.0" y2="85" style="stroke-width:1; stroke:grey; "  />
</g>
<g id="a18_000"  >
<polygon points="0,90 3,85 0,80 0,90 " style="fill:#d83e15; stroke-width:1; stroke:black; " description="&lt;b&gt;HEP85_RS21305&lt;/b&gt;&lt;br&gt;1,2-phenylacetyl-CoA epoxidase subunit B&lt;br&gt;Location: 4826792 - 4826505&lt;br&gt;&lt;br&gt;&lt;b&gt;BlastP hit with LLPMBPKK_04020&lt;/b&gt;&lt;br&gt;Percentage identity: 95&lt;br&gt;Percentage coverage: 100&lt;br&gt;BLAST bit score: 197&lt;br&gt;E-value: 6.88e-66" locus_tag="HEP85_RS21305" class="clusterblast-orf" id="dummy-18_h18_6_0"  />
</g>
<g id="a18_001"  >
<polygon points="4,90 6,90 11,85 6,80 4,80 4,90 " style="fill:#30d815; stroke-width:1; stroke:black; " description="&lt;b&gt;HEP85_RS21300&lt;/b&gt;&lt;br&gt;phenylacetate-CoA oxygenase subunit PaaC&lt;br&gt;Location: 4826424 - 4825720&lt;br&gt;&lt;br&gt;&lt;b&gt;BlastP hit with LLPMBPKK_04021&lt;/b&gt;&lt;br&gt;Percentage identity: 84&lt;br&gt;Percentage coverage: 92&lt;br&gt;BLAST bit score: 406&lt;br&gt;E-value: 1e-143" locus_tag="HEP85_RS21300" class="clusterblast-orf" id="dummy-18_h18_6_1"  />
</g>
<g id="a18_002"  >
<polygon points="11,90 12,90 17,85 12,80 11,80 11,90 " style="fill:#159cd8; stroke-width:1; stroke:black; " description="&lt;b&gt;HEP85_RS21295&lt;/b&gt;&lt;br&gt;phenylacetate-CoA oxygenase subunit PaaJ&lt;br&gt;Location: 4825726 - 4825181&lt;br&gt;&lt;br&gt;&lt;b&gt;BlastP hit with LLPMBPKK_04022&lt;/b&gt;&lt;br&gt;Percentage identity: 74&lt;br&gt;Percentage coverage: 102&lt;br&gt;BLAST bit score: 265&lt;br&gt;E-value: 9.82e-90" locus_tag="HEP85_RS21295" class="clusterblast-orf" id="dummy-18_h18_6_2"  />
</g>
<g id="a18_003"  >
<polygon points="17,90 24,90 29,85 24,80 17,80 17,90 " style="fill:#a915d8; stroke-width:1; stroke:black; " description="&lt;b&gt;HEP85_RS21290&lt;/b&gt;&lt;br&gt;2Fe-2S iron-sulfur cluster binding domain-containing protein&lt;br&gt;Location: 4825181 - 4824117&lt;br&gt;&lt;br&gt;&lt;b&gt;BlastP hit with LLPMBPKK_04023&lt;/b&gt;&lt;br&gt;Percentage identity: 85&lt;br&gt;Percentage coverage: 100&lt;br&gt;BLAST bit score: 608&lt;br&gt;E-value: 1.06e-219" locus_tag="HEP85_RS21290" class="clusterblast-orf" id="dummy-18_h18_6_3"  />
</g>
<g id="a18_004"  >
<polygon points="30,90 38,90 43,85 38,80 30,80 30,90 " style="fill:#d86615; stroke-width:1; stroke:black; " description="&lt;b&gt;HEP85_RS21285&lt;/b&gt;&lt;br&gt;acyl-CoA/acyl-ACP dehydrogenase&lt;br&gt;Location: 4823989 - 4822811&lt;br&gt;&lt;br&gt;&lt;b&gt;BlastP hit with LLPMBPKK_04024&lt;/b&gt;&lt;br&gt;Percentage identity: 75&lt;br&gt;Percentage coverage: 104&lt;br&gt;BLAST bit score: 552&lt;br&gt;E-value: 9.89e-197" locus_tag="HEP85_RS21285" class="clusterblast-orf" id="dummy-18_h18_6_4"  />
</g>
<g id="a18_005"  >
<polygon points="44,85 48,80 48,90 44,85 " style="fill:#15d823; stroke-width:1; stroke:black; " description="&lt;b&gt;HEP85_RS21280&lt;/b&gt;&lt;br&gt;rhodanese-like domain-containing protein&lt;br&gt;Location: 4822695 - 4822366&lt;br&gt;&lt;br&gt;&lt;b&gt;BlastP hit with LLPMBPKK_04025&lt;/b&gt;&lt;br&gt;Percentage identity: 86&lt;br&gt;Percentage coverage: 100&lt;br&gt;BLAST bit score: 194&lt;br&gt;E-value: 4.52e-64" locus_tag="HEP85_RS21280" class="clusterblast-orf" id="dummy-18_h18_6_5"  />
</g>
<g id="a18_006"  >
<polygon points="49,85 54,80 58,80 58,90 54,90 49,85 " style="fill:#1573d8; stroke-width:1; stroke:black; " description="&lt;b&gt;HEP85_RS21275&lt;/b&gt;&lt;br&gt;hypothetical protein&lt;br&gt;Location: 4822292 - 4821456&lt;br&gt;&lt;br&gt;&lt;b&gt;BlastP hit with LLPMBPKK_04026&lt;/b&gt;&lt;br&gt;Percentage identity: 79&lt;br&gt;Percentage coverage: 83&lt;br&gt;BLAST bit score: 405&lt;br&gt;E-value: 1.37e-141" locus_tag="HEP85_RS21275" class="clusterblast-orf" id="dummy-18_h18_6_6"  />
</g>
<g id="a18_007"  >
<polygon points="62,85 67,80 78,80 78,90 67,90 62,85 " style="fill:#d215d8; stroke-width:1; stroke:black; " description="&lt;b&gt;HEP85_RS21270&lt;/b&gt;&lt;br&gt;DUF2252 family protein&lt;br&gt;Location: 4821073 - 4819613&lt;br&gt;&lt;br&gt;&lt;b&gt;BlastP hit with LLPMBPKK_04027&lt;/b&gt;&lt;br&gt;Percentage identity: 85&lt;br&gt;Percentage coverage: 94&lt;br&gt;BLAST bit score: 753&lt;br&gt;E-value: 6.86e-273" locus_tag="HEP85_RS21270" class="clusterblast-orf" id="dummy-18_h18_6_7"  />
</g>
<g id="a18_008"  >
<polygon points="80,85 84,80 84,90 80,85 " style="fill:white; stroke-width:1; stroke:black; " description="&lt;b&gt;HEP85_RS21265&lt;/b&gt;&lt;br&gt;helix-turn-helix transcriptional regulator&lt;br&gt;Location: 4819454 - 4819083" locus_tag="HEP85_RS21265" class="clusterblast-orf" id="dummy-18_h18_6_8"  />
</g>
<g id="a18_009"  >
<polygon points="85,90 87,90 92,85 87,80 85,80 85,90 " style="fill:white; stroke-width:1; stroke:black; " description="&lt;b&gt;HEP85_RS21260&lt;/b&gt;&lt;br&gt;FMN-dependent NADH-azoreductase&lt;br&gt;Location: 4818947 - 4818294" locus_tag="HEP85_RS21260" class="clusterblast-orf" id="dummy-18_h18_6_9"  />
</g>
<g id="a18_0010"  >
<polygon points="96,85 101,80 106,80 106,90 101,90 96,85 " style="fill:white; stroke-width:1; stroke:black; " description="&lt;b&gt;HEP85_RS21255&lt;/b&gt;&lt;br&gt;NAD(P)H-binding protein&lt;br&gt;Location: 4817935 - 4817093" locus_tag="HEP85_RS21255" class="clusterblast-orf" id="dummy-18_h18_6_10"  />
</g>
<g id="a18_0011"  >
<polygon points="108,85 113,80 121,80 121,90 113,90 108,85 " style="fill:white; stroke-width:1; stroke:black; " description="&lt;b&gt;HEP85_RS21250&lt;/b&gt;&lt;br&gt;WYL domain-containing protein&lt;br&gt;Location: 4816880 - 4815675" locus_tag="HEP85_RS21250" class="clusterblast-orf" id="dummy-18_h18_6_11"  />
</g>
<g id="a18_0012"  >
<polygon points="123,90 125,90 130,85 125,80 123,80 123,90 " style="fill:white; stroke-width:1; stroke:black; " description="&lt;b&gt;HEP85_RS21245&lt;/b&gt;&lt;br&gt;TIGR03086 family protein&lt;br&gt;Location: 4815537 - 4814902" locus_tag="HEP85_RS21245" class="clusterblast-orf" id="dummy-18_h18_6_12"  />
</g>
<g id="a18_0013"  >
<polygon points="131,85 136,80 148,80 148,90 136,90 131,85 " style="fill:white; stroke-width:1; stroke:black; " description="&lt;b&gt;HEP85_RS21240&lt;/b&gt;&lt;br&gt;FAD-binding protein&lt;br&gt;Location: 4814762 - 4813248" locus_tag="HEP85_RS21240" class="clusterblast-orf" id="dummy-18_h18_6_13"  />
</g>
<g id="a18_0014"  >
<polygon points="149,85 154,80 168,80 168,90 154,90 149,85 " style="fill:white; stroke-width:1; stroke:black; " description="&lt;b&gt;HEP85_RS21235&lt;/b&gt;&lt;br&gt;FAD-dependent oxidoreductase&lt;br&gt;Location: 4813086 - 4811386" locus_tag="HEP85_RS21235" class="clusterblast-orf" id="dummy-18_h18_6_14"  />
</g>
<g id="a18_0015"  >
<polygon points="169,85 174,80 185,80 185,90 174,90 169,85 " style="fill:white; stroke-width:1; stroke:black; " description="&lt;b&gt;HEP85_RS21230&lt;/b&gt;&lt;br&gt;monooxygenase&lt;br&gt;Location: 4811266 - 4809791" locus_tag="HEP85_RS21230" class="clusterblast-orf" id="dummy-18_h18_6_15"  />
</g>
<g id="a18_0016"  >
<polygon points="188,85 192,80 192,90 188,85 " style="fill:white; stroke-width:1; stroke:black; " description="&lt;b&gt;HEP85_RS21225&lt;/b&gt;&lt;br&gt;pyridoxamine 5'-phosphate oxidase&lt;br&gt;Location: 4809581 - 4809186" locus_tag="HEP85_RS21225" class="clusterblast-orf" id="dummy-18_h18_6_16"  />
</g>
<g id="a18_0017"  >
<polygon points="192,85 197,80 209,80 209,90 197,90 192,85 " style="fill:white; stroke-width:1; stroke:black; " description="&lt;b&gt;HEP85_RS21220&lt;/b&gt;&lt;br&gt;DHA2 family efflux MFS transporter permease subunit&lt;br&gt;Location: 4809166 - 4807676" locus_tag="HEP85_RS21220" class="clusterblast-orf" id="dummy-18_h18_6_17"  />
</g>
<g id="a18_0018"  >
<polygon points="210,90 211,90 216,85 211,80 210,80 210,90 " style="fill:white; stroke-width:1; stroke:black; " description="&lt;b&gt;HEP85_RS21215&lt;/b&gt;&lt;br&gt;helix-turn-helix transcriptional regulator&lt;br&gt;Location: 4807538 - 4807041" locus_tag="HEP85_RS21215" class="clusterblast-orf" id="dummy-18_h18_6_18"  />
</g>
<g id="a18_0019"  >
<polygon points="216,85 221,80 221,80 221,90 221,90 216,85 " style="fill:white; stroke-width:1; stroke:black; " description="&lt;b&gt;HEP85_RS21210&lt;/b&gt;&lt;br&gt;flavin reductase&lt;br&gt;Location: 4806997 - 4806527" locus_tag="HEP85_RS21210" class="clusterblast-orf" id="dummy-18_h18_6_19"  />
</g>
<g id="a18_0020"  >
<polygon points="223,85 228,80 238,80 238,90 228,90 223,85 " style="fill:white; stroke-width:1; stroke:black; " description="&lt;b&gt;HEP85_RS21205&lt;/b&gt;&lt;br&gt;cation/H(+) antiporter&lt;br&gt;Location: 4806378 - 4805008" locus_tag="HEP85_RS21205" class="clusterblast-orf" id="dummy-18_h18_6_20"  />
</g>
<g id="a18_0021"  >
<polygon points="238,85 243,80 243,80 243,90 243,90 238,85 " style="fill:white; stroke-width:1; stroke:black; " description="&lt;b&gt;HEP85_RS21200&lt;/b&gt;&lt;br&gt;SnoaL-like domain-containing protein&lt;br&gt;Location: 4805011 - 4804565" locus_tag="HEP85_RS21200" class="clusterblast-orf" id="dummy-18_h18_6_21"  />
</g>
<g id="a18_0022"  >
<polygon points="245,90 248,90 253,85 248,80 245,80 245,90 " style="fill:white; stroke-width:1; stroke:black; " description="&lt;b&gt;HEP85_RS21195&lt;/b&gt;&lt;br&gt;antibiotic biosynthesis monooxygenase&lt;br&gt;Location: 4804351 - 4803656" locus_tag="HEP85_RS21195" class="clusterblast-orf" id="dummy-18_h18_6_22"  />
</g>
<g id="a18_0023"  >
<polygon points="256,90 262,90 267,85 262,80 256,80 256,90 " style="fill:white; stroke-width:1; stroke:black; " description="&lt;b&gt;HEP85_RS21190&lt;/b&gt;&lt;br&gt;cyclase&lt;br&gt;Location: 4803355 - 4802366" locus_tag="HEP85_RS21190" class="clusterblast-orf" id="dummy-18_h18_6_23"  />
</g>
<g id="a18_0024"  >
<polygon points="267,90 270,90 275,85 270,80 267,80 267,90 " style="fill:white; stroke-width:1; stroke:black; " description="&lt;b&gt;HEP85_RS21185&lt;/b&gt;&lt;br&gt;4'-phosphopantetheinyl transferase superfamily protein&lt;br&gt;Location: 4802357 - 4801563" locus_tag="HEP85_RS21185" class="clusterblast-orf" id="dummy-18_h18_6_24"  />
</g>
<g id="a18_0025"  >
<polygon points="277,85 280,80 280,90 277,85 " style="fill:white; stroke-width:1; stroke:black; " description="&lt;b&gt;HEP85_RS21180&lt;/b&gt;&lt;br&gt;acyl-CoA carboxylase subunit epsilon&lt;br&gt;Location: 4801413 - 4801177" locus_tag="HEP85_RS21180" class="clusterblast-orf" id="dummy-18_h18_6_25"  />
</g>
<g id="a18_0026"  >
<polygon points="280,85 285,80 297,80 297,90 285,90 280,85 " style="fill:white; stroke-width:1; stroke:black; " description="&lt;b&gt;HEP85_RS21175&lt;/b&gt;&lt;br&gt;acyl-CoA carboxylase subunit beta&lt;br&gt;Location: 4801145 - 4799577" locus_tag="HEP85_RS21175" class="clusterblast-orf" id="dummy-18_h18_6_26"  />
</g>
<g id="a18_0027"  >
<polygon points="298,85 301,80 301,90 298,85 " style="fill:white; stroke-width:1; stroke:black; " description="&lt;b&gt;HEP85_RS21170&lt;/b&gt;&lt;br&gt;hypothetical protein&lt;br&gt;Location: 4799518 - 4799213" locus_tag="HEP85_RS21170" class="clusterblast-orf" id="dummy-18_h18_6_27"  />
</g>
<g id="a18_0028"  >
<polygon points="302,85 306,80 306,90 302,85 " style="fill:white; stroke-width:1; stroke:black; " description="&lt;b&gt;HEP85_RS21165&lt;/b&gt;&lt;br&gt;hypothetical protein&lt;br&gt;Location: 4799151 - 4798792" locus_tag="HEP85_RS21165" class="clusterblast-orf" id="dummy-18_h18_6_28"  />
</g>
<g id="a18_0029"  >
<polygon points="307,85 312,80 317,80 317,90 312,90 307,85 " style="fill:white; stroke-width:1; stroke:black; " description="&lt;b&gt;HEP85_RS21160&lt;/b&gt;&lt;br&gt;alpha/beta hydrolase&lt;br&gt;Location: 4798670 - 4797790" locus_tag="HEP85_RS21160" class="clusterblast-orf" id="dummy-18_h18_6_29"  />
</g>
<g id="a18_0030"  >
<polygon points="319,85 324,80 334,80 334,90 324,90 319,85 " style="fill:white; stroke-width:1; stroke:black; " description="&lt;b&gt;HEP85_RS21155&lt;/b&gt;&lt;br&gt;monooxygenase&lt;br&gt;Location: 4797590 - 4796172" locus_tag="HEP85_RS21155" class="clusterblast-orf" id="dummy-18_h18_6_30"  />
</g>
<g id="a18_0031"  >
<polygon points="336,85 341,80 355,80 355,90 341,90 336,85 " style="fill:white; stroke-width:1; stroke:black; " description="&lt;b&gt;HEP85_RS21150&lt;/b&gt;&lt;br&gt;FAD-binding protein&lt;br&gt;Location: 4795981 - 4794305" locus_tag="HEP85_RS21150" class="clusterblast-orf" id="dummy-18_h18_6_31"  />
</g>
<g id="a18_0032"  >
<polygon points="355,85 360,80 365,80 365,90 360,90 355,85 " style="fill:white; stroke-width:1; stroke:black; " description="&lt;b&gt;HEP85_RS21145&lt;/b&gt;&lt;br&gt;cyclase&lt;br&gt;Location: 4794302 - 4793367" locus_tag="HEP85_RS21145" class="clusterblast-orf" id="dummy-18_h18_6_32"  />
</g>
<g id="a18_0033"  >
<polygon points="366,85 371,80 375,80 375,90 371,90 366,85 " style="fill:#15d84b; stroke-width:1; stroke:black; " description="&lt;b&gt;HEP85_RS21140&lt;/b&gt;&lt;br&gt;3-oxoacyl-ACP reductase FabG&lt;br&gt;Location: 4793270 - 4792485&lt;br&gt;&lt;br&gt;&lt;b&gt;BlastP hit with LLPMBPKK_04029&lt;/b&gt;&lt;br&gt;Percentage identity: 40&lt;br&gt;Percentage coverage: 102&lt;br&gt;BLAST bit score: 141&lt;br&gt;E-value: 3.52e-39" locus_tag="HEP85_RS21140" class="clusterblast-orf" id="dummy-18_h18_6_33"  />
</g>
<g id="a18_0034"  >
<polygon points="376,85 379,80 379,90 376,85 " style="fill:white; stroke-width:1; stroke:black; " description="&lt;b&gt;HEP85_RS21135&lt;/b&gt;&lt;br&gt;acyl carrier protein&lt;br&gt;Location: 4792353 - 4792078" locus_tag="HEP85_RS21135" class="clusterblast-orf" id="dummy-18_h18_6_34"  />
</g>
<g id="a18_0035"  >
<polygon points="381,85 386,80 394,80 394,90 386,90 381,85 " style="fill:#3015d8; stroke-width:1; stroke:black; " description="&lt;b&gt;HEP85_RS21130&lt;/b&gt;&lt;br&gt;ketosynthase chain-length factor&lt;br&gt;Location: 4791946 - 4790735&lt;br&gt;&lt;br&gt;&lt;b&gt;BlastP hit with LLPMBPKK_04040&lt;/b&gt;&lt;br&gt;Percentage identity: 32&lt;br&gt;Percentage coverage: 98&lt;br&gt;BLAST bit score: 159&lt;br&gt;E-value: 1.33e-42" locus_tag="HEP85_RS21130" class="clusterblast-orf" id="dummy-18_h18_6_35"  />
</g>
<g id="a18_0036"  >
<polygon points="394,85 399,80 408,80 408,90 399,90 394,85 " style="fill:#3015d8; stroke-width:1; stroke:black; " description="&lt;b&gt;HEP85_RS21125&lt;/b&gt;&lt;br&gt;beta-ketoacyl-ACP synthase II&lt;br&gt;Location: 4790738 - 4789467&lt;br&gt;&lt;br&gt;&lt;b&gt;BlastP hit with LLPMBPKK_04040&lt;/b&gt;&lt;br&gt;Percentage identity: 35&lt;br&gt;Percentage coverage: 103&lt;br&gt;BLAST bit score: 197&lt;br&gt;E-value: 5.73e-57" locus_tag="HEP85_RS21125" class="clusterblast-orf" id="dummy-18_h18_6_36"  />
</g>
<g id="a18_0037"  >
<polygon points="408,85 411,80 411,90 408,85 " style="fill:white; stroke-width:1; stroke:black; " description="&lt;b&gt;HEP85_RS21120&lt;/b&gt;&lt;br&gt;TcmI family type II polyketide cyclase&lt;br&gt;Location: 4789470 - 4789141" locus_tag="HEP85_RS21120" class="clusterblast-orf" id="dummy-18_h18_6_37"  />
</g>
<g id="a18_0038"  >
<polygon points="413,85 418,80 433,80 433,90 418,90 413,85 " style="fill:white; stroke-width:1; stroke:black; " description="&lt;b&gt;HEP85_RS21115&lt;/b&gt;&lt;br&gt;biotin/lipoyl-binding protein&lt;br&gt;Location: 4788954 - 4787173" locus_tag="HEP85_RS21115" class="clusterblast-orf" id="dummy-18_h18_6_38"  />
</g>
<g id="a18_0039"  >
<polygon points="437,85 442,80 447,80 447,90 442,90 437,85 " style="fill:#81d815; stroke-width:1; stroke:black; " description="&lt;b&gt;HEP85_RS21110&lt;/b&gt;&lt;br&gt;NAD-dependent epimerase/dehydratase family protein&lt;br&gt;Location: 4786785 - 4785862&lt;br&gt;&lt;br&gt;&lt;b&gt;BlastP hit with LLPMBPKK_04048&lt;/b&gt;&lt;br&gt;Percentage identity: 62&lt;br&gt;Percentage coverage: 99&lt;br&gt;BLAST bit score: 365&lt;br&gt;E-value: 3.49e-125" locus_tag="HEP85_RS21110" class="clusterblast-orf" id="dummy-18_h18_6_39"  />
</g>
<g id="a18_0040"  >
<polygon points="448,85 453,80 459,80 459,90 453,90 448,85 " style="fill:#d8153e; stroke-width:1; stroke:black; " description="&lt;b&gt;HEP85_RS21105&lt;/b&gt;&lt;br&gt;gamma-butyrolactone biosynthesis enzyme&lt;br&gt;Location: 4785806 - 4784785&lt;br&gt;&lt;br&gt;&lt;b&gt;BlastP hit with LLPMBPKK_04047&lt;/b&gt;&lt;br&gt;Percentage identity: 57&lt;br&gt;Percentage coverage: 69&lt;br&gt;BLAST bit score: 248&lt;br&gt;E-value: 1.25e-78" locus_tag="HEP85_RS21105" class="clusterblast-orf" id="dummy-18_h18_6_40"  />
</g>
<g id="a18_0041"  >
<polygon points="466,90 468,90 473,85 468,80 466,80 466,90 " style="fill:#5815d8; stroke-width:1; stroke:black; " description="&lt;b&gt;HEP85_RS21100&lt;/b&gt;&lt;br&gt;response regulator&lt;br&gt;Location: 4784165 - 4783521&lt;br&gt;&lt;br&gt;&lt;b&gt;BlastP hit with LLPMBPKK_04046&lt;/b&gt;&lt;br&gt;Percentage identity: 70&lt;br&gt;Percentage coverage: 88&lt;br&gt;BLAST bit score: 301&lt;br&gt;E-value: 1.96e-102" locus_tag="HEP85_RS21100" class="clusterblast-orf" id="dummy-18_h18_6_41"  />
</g>
<g id="a18_0042"  >
<polygon points="475,90 477,90 482,85 477,80 475,80 475,90 " style="fill:#15d8c4; stroke-width:1; stroke:black; " description="&lt;b&gt;HEP85_RS21095&lt;/b&gt;&lt;br&gt;TetR family transcriptional regulator&lt;br&gt;Location: 4783292 - 4782666&lt;br&gt;&lt;br&gt;&lt;b&gt;BlastP hit with LLPMBPKK_04045&lt;/b&gt;&lt;br&gt;Percentage identity: 70&lt;br&gt;Percentage coverage: 100&lt;br&gt;BLAST bit score: 267&lt;br&gt;E-value: 7.1e-90" locus_tag="HEP85_RS21095" class="clusterblast-orf" id="dummy-18_h18_6_42"  />
</g>
<g id="a18_0043"  >
<polygon points="489,85 494,80 495,80 495,90 494,90 489,85 " style="fill:#15d8c4; stroke-width:1; stroke:black; " description="&lt;b&gt;HEP85_RS21090&lt;/b&gt;&lt;br&gt;TetR/AcrR family transcriptional regulator&lt;br&gt;Location: 4782064 - 4781522&lt;br&gt;&lt;br&gt;&lt;b&gt;BlastP hit with LLPMBPKK_04045&lt;/b&gt;&lt;br&gt;Percentage identity: 32&lt;br&gt;Percentage coverage: 91&lt;br&gt;BLAST bit score: 57&lt;br&gt;E-value: 2.99e-08" locus_tag="HEP85_RS21090" class="clusterblast-orf" id="dummy-18_h18_6_43"  />
</g>
<g id="a18_0044"  >
<polygon points="502,90 507,90 512,85 507,80 502,80 502,90 " style="fill:white; stroke-width:1; stroke:black; " description="&lt;b&gt;HEP85_RS21085&lt;/b&gt;&lt;br&gt;hypothetical protein&lt;br&gt;Location: 4780849 - 4779956" locus_tag="HEP85_RS21085" class="clusterblast-orf" id="dummy-18_h18_6_44"  />
</g>
<g id="a18_0045"  >
<polygon points="518,90 520,85 518,80 518,90 " style="fill:white; stroke-width:1; stroke:black; " description="&lt;b&gt;HEP85_RS21075&lt;/b&gt;&lt;br&gt;hypothetical protein&lt;br&gt;Location: 4779345 - 4779202" locus_tag="HEP85_RS21075" class="clusterblast-orf" id="dummy-18_h18_6_45"  />
</g>
<g id="a18_0046"  >
<polygon points="520,90 524,90 529,85 524,80 520,80 520,90 " style="fill:white; stroke-width:1; stroke:black; " description="&lt;b&gt;HEP85_RS21070&lt;/b&gt;&lt;br&gt;DUF3662 domain-containing protein&lt;br&gt;Location: 4779214 - 4778353" locus_tag="HEP85_RS21070" class="clusterblast-orf" id="dummy-18_h18_6_46"  />
</g>
<g id="a18_0047"  >
<polygon points="529,90 530,90 535,85 530,80 529,80 529,90 " style="fill:white; stroke-width:1; stroke:black; " description="&lt;b&gt;HEP85_RS21065&lt;/b&gt;&lt;br&gt;FHA domain-containing protein&lt;br&gt;Location: 4778342 - 4777815" locus_tag="HEP85_RS21065" class="clusterblast-orf" id="dummy-18_h18_6_47"  />
</g>
<g id="a18_0048"  >
<polygon points="536,90 548,90 553,85 548,80 536,80 536,90 " style="fill:white; stroke-width:1; stroke:black; " description="&lt;b&gt;HEP85_RS21060&lt;/b&gt;&lt;br&gt;Stp1/IreP family PP2C-type Ser/Thr phosphatase&lt;br&gt;Location: 4777731 - 4776142" locus_tag="HEP85_RS21060" class="clusterblast-orf" id="dummy-18_h18_6_48"  />
</g>
<g id="a18_0049"  >
<polygon points="554,90 565,90 570,85 565,80 554,80 554,90 " style="fill:white; stroke-width:1; stroke:black; " description="&lt;b&gt;HEP85_RS21055&lt;/b&gt;&lt;br&gt;FtsW/RodA/SpoVE family cell cycle protein&lt;br&gt;Location: 4776115 - 4774667" locus_tag="HEP85_RS21055" class="clusterblast-orf" id="dummy-18_h18_6_49"  />
</g>
<g id="a18_0050"  >
<polygon points="570,90 581,90 586,85 581,80 570,80 570,90 " style="fill:white; stroke-width:1; stroke:black; " description="&lt;b&gt;HEP85_RS21050&lt;/b&gt;&lt;br&gt;penicillin-binding protein 2&lt;br&gt;Location: 4774670 - 4773180" locus_tag="HEP85_RS21050" class="clusterblast-orf" id="dummy-18_h18_6_50"  />
</g>
<g id="a18_0051"  >
<polygon points="588,90 604,90 609,85 604,80 588,80 588,90 " style="fill:white; stroke-width:1; stroke:black; " description="&lt;b&gt;HEP85_RS21045&lt;/b&gt;&lt;br&gt;Stk1 family PASTA domain-containing Ser/Thr kinase&lt;br&gt;Location: 4773009 - 4771030" locus_tag="HEP85_RS21045" class="clusterblast-orf" id="dummy-18_h18_6_51"  />
</g>
<g id="a18_0052"  >
<polygon points="612,85 617,80 621,80 621,90 617,90 612,85 " style="fill:white; stroke-width:1; stroke:black; " description="&lt;b&gt;HEP85_RS21040&lt;/b&gt;&lt;br&gt;class E sortase&lt;br&gt;Location: 4770751 - 4770005" locus_tag="HEP85_RS21040" class="clusterblast-orf" id="dummy-18_h18_6_52"  />
</g>
<g id="a18_0053"  >
<polygon points="621,85 626,80 637,80 637,90 626,90 621,85 " style="fill:white; stroke-width:1; stroke:black; " description="&lt;b&gt;HEP85_RS21035&lt;/b&gt;&lt;br&gt;class E sortase&lt;br&gt;Location: 4769921 - 4768465" locus_tag="HEP85_RS21035" class="clusterblast-orf" id="dummy-18_h18_6_53"  />
</g>
<g id="a18_0054"  >
<polygon points="637,85 642,80 644,80 644,90 642,90 637,85 " style="fill:white; stroke-width:1; stroke:black; " description="&lt;b&gt;HEP85_RS21030&lt;/b&gt;&lt;br&gt;aminodeoxychorismate/anthranilate synthase component II&lt;br&gt;Location: 4768459 - 4767821" locus_tag="HEP85_RS21030" class="clusterblast-orf" id="dummy-18_h18_6_54"  />
</g>
<g id="a18_0055"  >
<polygon points="644,85 647,80 647,90 644,85 " style="fill:white; stroke-width:1; stroke:black; " description="&lt;b&gt;HEP85_RS21025&lt;/b&gt;&lt;br&gt;hypothetical protein&lt;br&gt;Location: 4767824 - 4767627" locus_tag="HEP85_RS21025" class="clusterblast-orf" id="dummy-18_h18_6_55"  />
</g>
<g id="a18_0056"  >
<polygon points="647,85 652,80 655,80 655,90 652,90 647,85 " style="fill:white; stroke-width:1; stroke:black; " description="&lt;b&gt;HEP85_RS21020&lt;/b&gt;&lt;br&gt;class E sortase&lt;br&gt;Location: 4767589 - 4766891" locus_tag="HEP85_RS21020" class="clusterblast-orf" id="dummy-18_h18_6_56"  />
</g>
<g id="a18_0057"  >
<polygon points="655,85 660,80 664,80 664,90 660,90 655,85 " style="fill:white; stroke-width:1; stroke:black; " description="&lt;b&gt;HEP85_RS21015&lt;/b&gt;&lt;br&gt;DUF881 domain-containing protein&lt;br&gt;Location: 4766858 - 4766079" locus_tag="HEP85_RS21015" class="clusterblast-orf" id="dummy-18_h18_6_57"  />
</g>
<g id="a18_0058"  >
<polygon points="665,90 668,85 665,80 665,90 " style="fill:white; stroke-width:1; stroke:black; " description="&lt;b&gt;HEP85_RS21010&lt;/b&gt;&lt;br&gt;cell division protein CrgA&lt;br&gt;Location: 4765936 - 4765682" locus_tag="HEP85_RS21010" class="clusterblast-orf" id="dummy-18_h18_6_58"  />
</g>
<g id="a18_0059"  >
<polygon points="671,85 676,80 681,80 681,90 676,90 671,85 " style="fill:white; stroke-width:1; stroke:black; " description="&lt;b&gt;HEP85_RS21005&lt;/b&gt;&lt;br&gt;rhomboid family intramembrane serine protease&lt;br&gt;Location: 4765401 - 4764487" locus_tag="HEP85_RS21005" class="clusterblast-orf" id="dummy-18_h18_6_59"  />
</g>
<g id="a18_0060"  >
<polygon points="682,85 687,80 688,80 688,90 687,90 682,85 " style="fill:white; stroke-width:1; stroke:black; " description="&lt;b&gt;HEP85_RS21000&lt;/b&gt;&lt;br&gt;peptidylprolyl isomerase&lt;br&gt;Location: 4764377 - 4763844" locus_tag="HEP85_RS21000" class="clusterblast-orf" id="dummy-18_h18_6_60"  />
</g>
<g id="a18_0061"  >
<polygon points="691,90 694,90 699,85 694,80 691,80 691,90 " style="fill:white; stroke-width:1; stroke:black; " description="&lt;b&gt;HEP85_RS20995&lt;/b&gt;&lt;br&gt;DUF5324 family protein&lt;br&gt;Location: 4763531 - 4762830" locus_tag="HEP85_RS20995" class="clusterblast-orf" id="dummy-18_h18_6_61"  />
</g>
<g id="a18_0062"  >
<polygon points="707,90 708,90 713,85 708,80 707,80 707,90 " style="fill:white; stroke-width:1; stroke:black; " description="&lt;b&gt;HEP85_RS20985&lt;/b&gt;&lt;br&gt;DNA-binding protein&lt;br&gt;Location: 4762093 - 4761545" locus_tag="HEP85_RS20985" class="clusterblast-orf" id="dummy-18_h18_6_62"  />
</g>
<g id="a18_0063"  >
<polygon points="715,90 729,90 734,85 729,80 715,80 715,90 " style="fill:white; stroke-width:1; stroke:black; " description="&lt;b&gt;HEP85_RS20980&lt;/b&gt;&lt;br&gt;protein kinase&lt;br&gt;Location: 4761415 - 4759673" locus_tag="HEP85_RS20980" class="clusterblast-orf" id="dummy-18_h18_6_63"  />
</g>
<g id="a18_0064"  >
<polygon points="735,85 740,80 750,80 750,90 740,90 735,85 " style="fill:white; stroke-width:1; stroke:black; " description="&lt;b&gt;HEP85_RS20975&lt;/b&gt;&lt;br&gt;hypothetical protein&lt;br&gt;Location: 4759550 - 4758144" locus_tag="HEP85_RS20975" class="clusterblast-orf" id="dummy-18_h18_6_64"  />
</g>
<g id="a18_0065"  >
<polygon points="752,85 755,80 755,90 752,85 " style="fill:white; stroke-width:1; stroke:black; " description="&lt;b&gt;HEP85_RS20970&lt;/b&gt;&lt;br&gt;hypothetical protein&lt;br&gt;Location: 4757951 - 4757731" locus_tag="HEP85_RS20970" class="clusterblast-orf" id="dummy-18_h18_6_65"  />
</g>
<g id="a18_0066"  >
<polygon points="758,90 762,85 758,80 758,90 " style="fill:white; stroke-width:1; stroke:black; " description="&lt;b&gt;HEP85_RS20965&lt;/b&gt;&lt;br&gt;hypothetical protein&lt;br&gt;Location: 4757484 - 4757119" locus_tag="HEP85_RS20965" class="clusterblast-orf" id="dummy-18_h18_6_66"  />
</g>
<g id="a18_0067"  >
<polygon points="763,85 767,80 767,90 763,85 " style="fill:white; stroke-width:1; stroke:black; " description="&lt;b&gt;HEP85_RS20960&lt;/b&gt;&lt;br&gt;VOC family protein&lt;br&gt;Location: 4756955 - 4756602" locus_tag="HEP85_RS20960" class="clusterblast-orf" id="dummy-18_h18_6_67"  />
</g>
<g id="a18_0068"  >
<polygon points="771,85 776,80 780,80 780,90 776,90 771,85 " style="fill:white; stroke-width:1; stroke:black; " description="&lt;b&gt;HEP85_RS20950&lt;/b&gt;&lt;br&gt;DUF3566 domain-containing protein&lt;br&gt;Location: 4756253 - 4755474" locus_tag="HEP85_RS20950" class="clusterblast-orf" id="dummy-18_h18_6_68"  />
</g>
</svg>
