<svg xmlns="http://www.w3.org/2000/svg" xmlns:xlink="http://www.w3.org/1999/xlink" version="1.1" x="0" y="0" height="230" width="800" viewBox="0 0 800 230" preserveAspectRatio="none"  >
<g label="Query sequence" class="clusterblast-cluster"  >
<text x="5" y="20" class="clusterblast-acc"  >
Query sequence</text>
<line x1="10" y1="35" x2="778.0" y2="35" style="stroke-width:1; stroke:grey; "  />
<polygon points="0,35 5,30 30,30 30,40 5,40 0,35 " style="fill:white; stroke-width:1; stroke:black; " description="&lt;b&gt;LLPMBPKK_08068&lt;/b&gt;&lt;br&gt;ACP S-malonyltransferase&lt;br&gt;Location: 9457019 - 9457946" locus_tag="LLPMBPKK_08068" class="clusterblast-orf" id="dummy-39_q0_0_all"  />
<polygon points="38,40 45,40 50,35 45,30 38,30 38,40 " style="fill:white; stroke-width:1; stroke:black; " description="&lt;b&gt;LLPMBPKK_08069&lt;/b&gt;&lt;br&gt;hypothetical protein&lt;br&gt;Location: 9458205 - 9458562" locus_tag="LLPMBPKK_08069" class="clusterblast-orf" id="dummy-39_q1_0_all"  />
<polygon points="58,40 67,40 72,35 67,30 58,30 58,40 " style="fill:white; stroke-width:1; stroke:black; " description="&lt;b&gt;LLPMBPKK_08070&lt;/b&gt;&lt;br&gt;hypothetical protein&lt;br&gt;Location: 9458801 - 9459233" locus_tag="LLPMBPKK_08070" class="clusterblast-orf" id="dummy-39_q2_0_all"  />
<polygon points="95,35 100,30 114,30 114,40 100,40 95,35 " style="fill:#d81515; stroke-width:1; stroke:black; " description="&lt;b&gt;LLPMBPKK_08071&lt;/b&gt;&lt;br&gt;acetyltransferase&lt;br&gt;Location: 9459949 - 9460507" locus_tag="LLPMBPKK_08071" class="clusterblast-orf" id="dummy-39_q3_0_all"  />
<polygon points="113,35 118,30 143,30 143,40 118,40 113,35 " style="fill:#77d815; stroke-width:1; stroke:black; " description="&lt;b&gt;LLPMBPKK_08072&lt;/b&gt;&lt;br&gt;transcriptional regulator&lt;br&gt;Location: 9460503 - 9461412" locus_tag="LLPMBPKK_08072" class="clusterblast-orf" id="dummy-39_q4_0_all"  />
<polygon points="164,40 177,40 182,35 177,30 164,30 164,40 " style="fill:white; stroke-width:1; stroke:black; " description="&lt;b&gt;LLPMBPKK_08073&lt;/b&gt;&lt;br&gt;hypothetical protein&lt;br&gt;Location: 9462062 - 9462605" locus_tag="LLPMBPKK_08073" class="clusterblast-orf" id="dummy-39_q5_0_all"  />
<polygon points="182,40 196,40 201,35 196,30 182,30 182,40 " style="fill:white; stroke-width:1; stroke:black; " description="&lt;b&gt;LLPMBPKK_08074&lt;/b&gt;&lt;br&gt;hypothetical protein&lt;br&gt;Location: 9462601 - 9463198" locus_tag="LLPMBPKK_08074" class="clusterblast-orf" id="dummy-39_q6_0_all"  />
<polygon points="207,40 217,40 222,35 217,30 207,30 207,40 " style="fill:white; stroke-width:1; stroke:black; " description="&lt;b&gt;LLPMBPKK_08075&lt;/b&gt;&lt;br&gt;hypothetical protein&lt;br&gt;Location: 9463384 - 9463831" locus_tag="LLPMBPKK_08075" class="clusterblast-orf" id="dummy-39_q7_0_all"  />
<polygon points="223,40 232,40 237,35 232,30 223,30 223,40 " style="fill:white; stroke-width:1; stroke:black; " description="&lt;b&gt;LLPMBPKK_08076&lt;/b&gt;&lt;br&gt;hypothetical protein&lt;br&gt;Location: 9463874 - 9464306" locus_tag="LLPMBPKK_08076" class="clusterblast-orf" id="dummy-39_q8_0_all"  />
<polygon points="237,40 259,40 264,35 259,30 237,30 237,40 " style="fill:white; stroke-width:1; stroke:black; " description="&lt;b&gt;LLPMBPKK_08077&lt;/b&gt;&lt;br&gt;hypothetical protein&lt;br&gt;Location: 9464308 - 9465136" locus_tag="LLPMBPKK_08077" class="clusterblast-orf" id="dummy-39_q9_0_all"  />
<polygon points="274,40 310,40 315,35 310,30 274,30 274,40 " style="fill:#15d8d8; stroke-width:1; stroke:black; " description="&lt;b&gt;LLPMBPKK_08078&lt;/b&gt;&lt;br&gt;methyltransferase, FxLD system&lt;br&gt;Location: 9465426 - 9466674" locus_tag="LLPMBPKK_08078" class="clusterblast-orf" id="dummy-39_q10_0_all"  />
<polygon points="317,40 318,40 323,35 318,30 317,30 317,40 " style="fill:#7715d8; stroke-width:1; stroke:black; " description="&lt;b&gt;LLPMBPKK_08079&lt;/b&gt;&lt;br&gt;hypothetical protein&lt;br&gt;Location: 9466739 - 9466934" locus_tag="LLPMBPKK_08079" class="clusterblast-orf" id="dummy-39_q11_0_all"  />
<polygon points="325,40 419,40 424,35 419,30 325,30 325,40 " style="fill:#d8a715; stroke-width:1; stroke:black; " description="&lt;b&gt;LLPMBPKK_08080&lt;/b&gt;&lt;br&gt;lantibiotic dehydratase&lt;br&gt;Location: 9467004 - 9470028" locus_tag="LLPMBPKK_08080" class="clusterblast-orf" id="dummy-39_q12_0_all"  />
<polygon points="424,40 456,40 461,35 456,30 424,30 424,40 " style="fill:#15d846; stroke-width:1; stroke:black; " description="&lt;b&gt;LLPMBPKK_08081&lt;/b&gt;&lt;br&gt;lanthionine synthetase&lt;br&gt;Location: 9470024 - 9471173" locus_tag="LLPMBPKK_08081" class="clusterblast-orf" id="dummy-39_q13_0_all"  />
<polygon points="462,40 472,40 477,35 472,30 462,30 462,40 " style="fill:#1546d8; stroke-width:1; stroke:black; " description="&lt;b&gt;LLPMBPKK_08082&lt;/b&gt;&lt;br&gt;hypothetical protein&lt;br&gt;Location: 9471186 - 9471645" locus_tag="LLPMBPKK_08082" class="clusterblast-orf" id="dummy-39_q14_0_all"  />
<polygon points="476,40 488,40 493,35 488,30 476,30 476,40 " style="fill:#1546d8; stroke-width:1; stroke:black; " description="&lt;b&gt;LLPMBPKK_08083&lt;/b&gt;&lt;br&gt;methyltransferase&lt;br&gt;Location: 9471617 - 9472142" locus_tag="LLPMBPKK_08083" class="clusterblast-orf" id="dummy-39_q15_0_all"  />
<polygon points="498,35 503,30 518,30 518,40 503,40 498,35 " style="fill:white; stroke-width:1; stroke:black; " description="&lt;b&gt;LLPMBPKK_08084&lt;/b&gt;&lt;br&gt;hypothetical protein&lt;br&gt;Location: 9472302 - 9472926" locus_tag="LLPMBPKK_08084" class="clusterblast-orf" id="dummy-39_q16_0_all"  />
<polygon points="532,40 544,40 549,35 544,30 532,30 532,40 " style="fill:#d815a7; stroke-width:1; stroke:black; " description="&lt;b&gt;LLPMBPKK_08085&lt;/b&gt;&lt;br&gt;IS5 family transposase&lt;br&gt;Location: 9473333 - 9473852" locus_tag="LLPMBPKK_08085" class="clusterblast-orf" id="dummy-39_q17_0_all"  />
<polygon points="549,40 558,40 563,35 558,30 549,30 549,40 " style="fill:white; stroke-width:1; stroke:black; " description="&lt;b&gt;LLPMBPKK_08086&lt;/b&gt;&lt;br&gt;SMI1/KNR4 family protein&lt;br&gt;Location: 9473862 - 9474300" locus_tag="LLPMBPKK_08086" class="clusterblast-orf" id="dummy-39_q18_0_all"  />
<polygon points="566,40 575,40 580,35 575,30 566,30 566,40 " style="fill:white; stroke-width:1; stroke:black; " description="&lt;b&gt;LLPMBPKK_08087&lt;/b&gt;&lt;br&gt;transposase&lt;br&gt;Location: 9474389 - 9474830" locus_tag="LLPMBPKK_08087" class="clusterblast-orf" id="dummy-39_q19_0_all"  />
<polygon points="587,40 589,40 594,35 589,30 587,30 587,40 " style="fill:#d815a7; stroke-width:1; stroke:black; " description="&lt;b&gt;LLPMBPKK_08088&lt;/b&gt;&lt;br&gt;transposase&lt;br&gt;Location: 9475031 - 9475232" locus_tag="LLPMBPKK_08088" class="clusterblast-orf" id="dummy-39_q20_0_all"  />
<polygon points="596,40 603,40 608,35 603,30 596,30 596,40 " style="fill:white; stroke-width:1; stroke:black; " description="&lt;b&gt;LLPMBPKK_08089&lt;/b&gt;&lt;br&gt;hypothetical protein&lt;br&gt;Location: 9475307 - 9475664" locus_tag="LLPMBPKK_08089" class="clusterblast-orf" id="dummy-39_q21_0_all"  />
<polygon points="624,35 629,30 636,30 636,40 629,40 624,35 " style="fill:white; stroke-width:1; stroke:black; " description="&lt;b&gt;LLPMBPKK_08090&lt;/b&gt;&lt;br&gt;hypothetical protein&lt;br&gt;Location: 9476175 - 9476541" locus_tag="LLPMBPKK_08090" class="clusterblast-orf" id="dummy-39_q22_0_all"  />
<polygon points="639,40 664,40 669,35 664,30 639,30 639,40 " style="fill:white; stroke-width:1; stroke:black; " description="&lt;b&gt;LLPMBPKK_08091&lt;/b&gt;&lt;br&gt;LysR family transcriptional regulator&lt;br&gt;Location: 9476639 - 9477536" locus_tag="LLPMBPKK_08091" class="clusterblast-orf" id="dummy-39_q23_0_all"  />
<polygon points="677,35 682,30 685,30 685,40 682,40 677,35 " style="fill:white; stroke-width:1; stroke:black; " description="&lt;b&gt;LLPMBPKK_08092&lt;/b&gt;&lt;br&gt;hypothetical protein&lt;br&gt;Location: 9477787 - 9478042" locus_tag="LLPMBPKK_08092" class="clusterblast-orf" id="dummy-39_q24_0_all"  />
<polygon points="694,35 699,30 734,30 734,40 699,40 694,35 " style="fill:white; stroke-width:1; stroke:black; " description="&lt;b&gt;LLPMBPKK_08093&lt;/b&gt;&lt;br&gt;acyl-CoA dehydrogenase&lt;br&gt;Location: 9478324 - 9479530" locus_tag="LLPMBPKK_08093" class="clusterblast-orf" id="dummy-39_q25_0_all"  />
<polygon points="763,35 768,30 769,30 769,40 768,40 763,35 " style="fill:white; stroke-width:1; stroke:black; " description="&lt;b&gt;LLPMBPKK_08094&lt;/b&gt;&lt;br&gt;hypothetical protein&lt;br&gt;Location: 9480423 - 9480603" locus_tag="LLPMBPKK_08094" class="clusterblast-orf" id="dummy-39_q26_0_all"  />
<polygon points="772,40 775,40 780,35 775,30 772,30 772,40 " style="fill:white; stroke-width:1; stroke:black; " description="&lt;b&gt;LLPMBPKK_08095&lt;/b&gt;&lt;br&gt;hypothetical protein&lt;br&gt;Location: 9480704 - 9480947" locus_tag="LLPMBPKK_08095" class="clusterblast-orf" id="dummy-39_q27_0_all"  />
</g>
<g label="NZ_CP030864" description="NZ_CP030864 (326801-349775): Streptomyces globosus strain LZH-48 plasmid unna... (41% of genes show similarity), lanthipeptide" class="clusterblast-cluster"  >
<text x="5" y="70" class="clusterblast-acc"  >
<a xlink:href="https://antismash-db.secondarymetabolites.org/area.html?record=NZ_CP030864&amp;start=326801&amp;end=349775" target="_blank">NZ_CP030864 (326801-349775)</a>: Streptomyces globosus strain LZH-48 plasmid unna... (41% of genes show similarity), lanthipeptide</text>
<line x1="10" y1="85" x2="778.0" y2="85" style="stroke-width:1; stroke:grey; "  />
</g>
<g id="a39_000"  >
<polygon points="15,85 20,80 23,80 23,90 20,90 15,85 " style="fill:white; stroke-width:1; stroke:black; " description="&lt;b&gt;C0216_RS33740&lt;/b&gt;&lt;br&gt;hypothetical protein&lt;br&gt;Location: 349775 - 349533" locus_tag="C0216_RS33740" class="clusterblast-orf" id="dummy-39_h39_2_0"  />
</g>
<g id="a39_001"  >
<polygon points="55,90 70,90 75,85 70,80 55,80 55,90 " style="fill:white; stroke-width:1; stroke:black; " description="&lt;b&gt;C0216_RS32355&lt;/b&gt;&lt;br&gt;HAD family phosphatase&lt;br&gt;Location: 348553 - 347933" locus_tag="C0216_RS32355" class="clusterblast-orf" id="dummy-39_h39_2_1"  />
</g>
<g id="a39_002"  >
<polygon points="78,85 83,80 100,80 100,90 83,90 78,85 " style="fill:white; stroke-width:1; stroke:black; " description="&lt;b&gt;C0216_RS32350&lt;/b&gt;&lt;br&gt;DUF4097 family beta strand repeat protein&lt;br&gt;Location: 347845 - 347177" locus_tag="C0216_RS32350" class="clusterblast-orf" id="dummy-39_h39_2_2"  />
</g>
<g id="a39_003"  >
<polygon points="108,90 127,90 132,85 127,80 108,80 108,90 " style="fill:white; stroke-width:1; stroke:black; " description="&lt;b&gt;C0216_RS32345&lt;/b&gt;&lt;br&gt;helix-turn-helix domain-containing protein&lt;br&gt;Location: 346935 - 346189" locus_tag="C0216_RS32345" class="clusterblast-orf" id="dummy-39_h39_2_3"  />
</g>
<g id="a39_004"  >
<polygon points="132,85 137,80 139,80 139,90 137,90 132,85 " style="fill:white; stroke-width:1; stroke:black; " description="&lt;b&gt;C0216_RS32340&lt;/b&gt;&lt;br&gt;hypothetical protein&lt;br&gt;Location: 346181 - 345981" locus_tag="C0216_RS32340" class="clusterblast-orf" id="dummy-39_h39_2_4"  />
</g>
<g id="a39_005"  >
<polygon points="151,85 156,80 168,80 168,90 156,90 151,85 " style="fill:#d81515; stroke-width:1; stroke:black; " description="&lt;b&gt;C0216_RS32335&lt;/b&gt;&lt;br&gt;GNAT family N-acetyltransferase&lt;br&gt;Location: 345615 - 345070&lt;br&gt;&lt;br&gt;&lt;b&gt;BlastP hit with LLPMBPKK_08071&lt;/b&gt;&lt;br&gt;Percentage identity: 37&lt;br&gt;Percentage coverage: 92&lt;br&gt;BLAST bit score: 113&lt;br&gt;E-value: 6.99e-30" locus_tag="C0216_RS32335" class="clusterblast-orf" id="dummy-39_h39_2_5"  />
</g>
<g id="a39_006"  >
<polygon points="168,85 173,80 210,80 210,90 173,90 168,85 " style="fill:#77d815; stroke-width:1; stroke:black; " description="&lt;b&gt;C0216_RS32330&lt;/b&gt;&lt;br&gt;XRE family transcriptional regulator&lt;br&gt;Location: 345073 - 343793&lt;br&gt;&lt;br&gt;&lt;b&gt;BlastP hit with LLPMBPKK_08072&lt;/b&gt;&lt;br&gt;Percentage identity: 38&lt;br&gt;Percentage coverage: 98&lt;br&gt;BLAST bit score: 175&lt;br&gt;E-value: 1.26e-49" locus_tag="C0216_RS32330" class="clusterblast-orf" id="dummy-39_h39_2_6"  />
</g>
<g id="a39_007"  >
<polygon points="219,90 229,90 234,85 229,80 219,80 219,90 " style="fill:white; stroke-width:1; stroke:black; " description="&lt;b&gt;C0216_RS32325&lt;/b&gt;&lt;br&gt;hypothetical protein&lt;br&gt;Location: 343531 - 343061" locus_tag="C0216_RS32325" class="clusterblast-orf" id="dummy-39_h39_2_7"  />
</g>
<g id="a39_008"  >
<polygon points="242,90 277,90 282,85 277,80 242,80 242,90 " style="fill:#15d8d8; stroke-width:1; stroke:black; " description="&lt;b&gt;C0216_RS32320&lt;/b&gt;&lt;br&gt;methyltransferase, FxLD system&lt;br&gt;Location: 342823 - 341573&lt;br&gt;&lt;br&gt;&lt;b&gt;BlastP hit with LLPMBPKK_08078&lt;/b&gt;&lt;br&gt;Percentage identity: 68&lt;br&gt;Percentage coverage: 100&lt;br&gt;BLAST bit score: 561&lt;br&gt;E-value: 2.03e-199" locus_tag="C0216_RS32320" class="clusterblast-orf" id="dummy-39_h39_2_8"  />
</g>
<g id="a39_009"  >
<polygon points="284,90 286,90 291,85 286,80 284,80 284,90 " style="fill:#7715d8; stroke-width:1; stroke:black; " description="&lt;b&gt;C0216_RS32315&lt;/b&gt;&lt;br&gt;FxLD family lantipeptide&lt;br&gt;Location: 341514 - 341323&lt;br&gt;&lt;br&gt;&lt;b&gt;BlastP hit with LLPMBPKK_08079&lt;/b&gt;&lt;br&gt;Percentage identity: 70&lt;br&gt;Percentage coverage: 92&lt;br&gt;BLAST bit score: 85&lt;br&gt;E-value: 5.48e-22" locus_tag="C0216_RS32315" class="clusterblast-orf" id="dummy-39_h39_2_9"  />
</g>
<g id="a39_0010"  >
<polygon points="294,90 387,90 392,85 387,80 294,80 294,90 " style="fill:#d8a715; stroke-width:1; stroke:black; " description="&lt;b&gt;C0216_RS32310&lt;/b&gt;&lt;br&gt;lantibiotic dehydratase&lt;br&gt;Location: 341231 - 338208&lt;br&gt;&lt;br&gt;&lt;b&gt;BlastP hit with LLPMBPKK_08080&lt;/b&gt;&lt;br&gt;Percentage identity: 59&lt;br&gt;Percentage coverage: 101&lt;br&gt;BLAST bit score: 1125&lt;br&gt;E-value: 0.0" locus_tag="C0216_RS32310" class="clusterblast-orf" id="dummy-39_h39_2_10"  />
</g>
<g id="a39_0011"  >
<polygon points="392,90 424,90 429,85 424,80 392,80 392,90 " style="fill:#15d846; stroke-width:1; stroke:black; " description="&lt;b&gt;C0216_RS32305&lt;/b&gt;&lt;br&gt;lanthionine synthetase C family protein&lt;br&gt;Location: 338211 - 337084&lt;br&gt;&lt;br&gt;&lt;b&gt;BlastP hit with LLPMBPKK_08081&lt;/b&gt;&lt;br&gt;Percentage identity: 61&lt;br&gt;Percentage coverage: 97&lt;br&gt;BLAST bit score: 438&lt;br&gt;E-value: 8.05e-152" locus_tag="C0216_RS32305" class="clusterblast-orf" id="dummy-39_h39_2_11"  />
</g>
<g id="a39_0012"  >
<polygon points="429,90 456,90 461,85 456,80 429,80 429,90 " style="fill:#1546d8; stroke-width:1; stroke:black; " description="&lt;b&gt;C0216_RS32300&lt;/b&gt;&lt;br&gt;bacteriocin biosynthesis protein&lt;br&gt;Location: 337072 - 336107&lt;br&gt;&lt;br&gt;&lt;b&gt;BlastP hit with LLPMBPKK_08082&lt;/b&gt;&lt;br&gt;Percentage identity: 52&lt;br&gt;Percentage coverage: 88&lt;br&gt;BLAST bit score: 118&lt;br&gt;E-value: 6.66e-31&lt;br&gt;&lt;br&gt;&lt;b&gt;BlastP hit with LLPMBPKK_08083&lt;/b&gt;&lt;br&gt;Percentage identity: 57&lt;br&gt;Percentage coverage: 99&lt;br&gt;BLAST bit score: 190&lt;br&gt;E-value: 1.31e-58" locus_tag="C0216_RS32300" class="clusterblast-orf" id="dummy-39_h39_2_12"  />
</g>
<g id="a39_0013"  >
<polygon points="534,90 627,90 632,85 627,80 534,80 534,90 " style="fill:white; stroke-width:1; stroke:black; " description="&lt;b&gt;C0216_RS32295&lt;/b&gt;&lt;br&gt;CRISPR-associated helicase Cas3'&lt;br&gt;Location: 333844 - 330845" locus_tag="C0216_RS32295" class="clusterblast-orf" id="dummy-39_h39_2_13"  />
</g>
<g id="a39_0014"  >
<polygon points="641,90 692,90 697,85 692,80 641,80 641,90 " style="fill:white; stroke-width:1; stroke:black; " description="&lt;b&gt;C0216_RS32290&lt;/b&gt;&lt;br&gt;type I-E CRISPR-associated protein Cse1/CasA&lt;br&gt;Location: 330562 - 328856" locus_tag="C0216_RS32290" class="clusterblast-orf" id="dummy-39_h39_2_14"  />
</g>
<g id="a39_0015"  >
<polygon points="703,90 717,90 722,85 717,80 703,80 703,90 " style="fill:white; stroke-width:1; stroke:black; " description="&lt;b&gt;C0216_RS32285&lt;/b&gt;&lt;br&gt;type I-E CRISPR-associated protein Cse2/CasB&lt;br&gt;Location: 328672 - 328085" locus_tag="C0216_RS32285" class="clusterblast-orf" id="dummy-39_h39_2_15"  />
</g>
<g id="a39_0016"  >
<polygon points="726,90 759,90 764,85 759,80 726,80 726,90 " style="fill:white; stroke-width:1; stroke:black; " description="&lt;b&gt;C0216_RS32280&lt;/b&gt;&lt;br&gt;type I-E CRISPR-associated protein Cas7/Cse4/CasC&lt;br&gt;Location: 327956 - 326802" locus_tag="C0216_RS32280" class="clusterblast-orf" id="dummy-39_h39_2_16"  />
</g>
</svg>
