<svg xmlns="http://www.w3.org/2000/svg" xmlns:xlink="http://www.w3.org/1999/xlink" version="1.1" x="0" y="0" height="230" width="800" viewBox="0 0 800 230" preserveAspectRatio="none"  >
<g label="Query sequence" class="clusterblast-cluster"  >
<text x="5" y="20" class="clusterblast-acc"  >
Query sequence</text>
<line x1="10" y1="35" x2="778.0" y2="35" style="stroke-width:1; stroke:grey; "  />
<polygon points="66,35 71,30 71,30 71,40 71,40 66,35 " style="fill:#d81515; stroke-width:1; stroke:black; " description="&lt;b&gt;LLPMBPKK_00290&lt;/b&gt;&lt;br&gt;ABC transporter ATP-binding protein&lt;br&gt;Location: 323315 - 324008" locus_tag="LLPMBPKK_00290" class="clusterblast-orf" id="dummy-1_q0_0_all"  />
<polygon points="72,40 73,40 78,35 73,30 72,30 72,40 " style="fill:#77d815; stroke-width:1; stroke:black; " description="&lt;b&gt;LLPMBPKK_00291&lt;/b&gt;&lt;br&gt;sensor histidine kinase&lt;br&gt;Location: 324191 - 325082" locus_tag="LLPMBPKK_00291" class="clusterblast-orf" id="dummy-1_q1_0_all"  />
<polygon points="78,40 78,40 83,35 78,30 78,30 78,40 " style="fill:#15d8d8; stroke-width:1; stroke:black; " description="&lt;b&gt;LLPMBPKK_00292&lt;/b&gt;&lt;br&gt;two-component system response regulator&lt;br&gt;Location: 325078 - 325891" locus_tag="LLPMBPKK_00292" class="clusterblast-orf" id="dummy-1_q2_0_all"  />
<polygon points="85,35 88,30 88,40 85,35 " style="fill:white; stroke-width:1; stroke:black; " description="&lt;b&gt;LLPMBPKK_00293&lt;/b&gt;&lt;br&gt;MarR family transcriptional regulator&lt;br&gt;Location: 326166 - 326706" locus_tag="LLPMBPKK_00293" class="clusterblast-orf" id="dummy-1_q3_0_all"  />
<polygon points="89,40 92,40 97,35 92,30 89,30 89,40 " style="fill:white; stroke-width:1; stroke:black; " description="&lt;b&gt;LLPMBPKK_00294&lt;/b&gt;&lt;br&gt;membrane spanning protein&lt;br&gt;Location: 326774 - 328067" locus_tag="LLPMBPKK_00294" class="clusterblast-orf" id="dummy-1_q4_0_all"  />
<polygon points="100,40 101,40 106,35 101,30 100,30 100,40 " style="fill:#7715d8; stroke-width:1; stroke:black; " description="&lt;b&gt;LLPMBPKK_00295&lt;/b&gt;&lt;br&gt;membrane protein&lt;br&gt;Location: 328560 - 329451" locus_tag="LLPMBPKK_00295" class="clusterblast-orf" id="dummy-1_q5_0_all"  />
<polygon points="106,35 111,30 115,30 115,40 111,40 106,35 " style="fill:white; stroke-width:1; stroke:black; " description="&lt;b&gt;LLPMBPKK_00296&lt;/b&gt;&lt;br&gt;hypothetical protein&lt;br&gt;Location: 329495 - 330821" locus_tag="LLPMBPKK_00296" class="clusterblast-orf" id="dummy-1_q6_0_all"  />
<polygon points="115,35 119,30 119,40 115,35 " style="fill:#d84615; stroke-width:1; stroke:black; " description="&lt;b&gt;LLPMBPKK_00297&lt;/b&gt;&lt;br&gt;response regulator transcription factor&lt;br&gt;Location: 330817 - 331480" locus_tag="LLPMBPKK_00297" class="clusterblast-orf" id="dummy-1_q7_0_all"  />
<polygon points="125,35 129,30 129,40 125,35 " style="fill:white; stroke-width:1; stroke:black; " description="&lt;b&gt;LLPMBPKK_00298&lt;/b&gt;&lt;br&gt;hydrolase&lt;br&gt;Location: 332293 - 333001" locus_tag="LLPMBPKK_00298" class="clusterblast-orf" id="dummy-1_q8_0_all"  />
<polygon points="139,35 144,30 144,30 144,40 144,40 139,35 " style="fill:white; stroke-width:1; stroke:black; " description="&lt;b&gt;LLPMBPKK_00299&lt;/b&gt;&lt;br&gt;hypothetical protein&lt;br&gt;Location: 334507 - 335224" locus_tag="LLPMBPKK_00299" class="clusterblast-orf" id="dummy-1_q9_0_all"  />
<polygon points="147,40 151,40 156,35 151,30 147,30 147,40 " style="fill:#46d815; stroke-width:1; stroke:black; " description="&lt;b&gt;LLPMBPKK_00300&lt;/b&gt;&lt;br&gt;nucleotide-binding protein&lt;br&gt;Location: 335785 - 337201" locus_tag="LLPMBPKK_00300" class="clusterblast-orf" id="dummy-1_q10_0_all"  />
<polygon points="159,40 161,40 166,35 161,30 159,30 159,40 " style="fill:#15a7d8; stroke-width:1; stroke:black; " description="&lt;b&gt;LLPMBPKK_00301&lt;/b&gt;&lt;br&gt;cyclase&lt;br&gt;Location: 337536 - 338730" locus_tag="LLPMBPKK_00301" class="clusterblast-orf" id="dummy-1_q11_0_all"  />
<polygon points="166,40 167,40 172,35 167,30 166,30 166,40 " style="fill:#a715d8; stroke-width:1; stroke:black; " description="&lt;b&gt;LLPMBPKK_00302&lt;/b&gt;&lt;br&gt;methyltransferase&lt;br&gt;Location: 338745 - 339621" locus_tag="LLPMBPKK_00302" class="clusterblast-orf" id="dummy-1_q12_0_all"  />
<polygon points="173,40 174,35 173,30 173,40 " style="fill:white; stroke-width:1; stroke:black; " description="&lt;b&gt;LLPMBPKK_00303&lt;/b&gt;&lt;br&gt;hypothetical protein&lt;br&gt;Location: 339752 - 339935" locus_tag="LLPMBPKK_00303" class="clusterblast-orf" id="dummy-1_q13_0_all"  />
<polygon points="174,35 179,30 180,30 180,40 179,40 174,35 " style="fill:white; stroke-width:1; stroke:black; " description="&lt;b&gt;LLPMBPKK_00304&lt;/b&gt;&lt;br&gt;PhzF family phenazine biosynthesis isomerase&lt;br&gt;Location: 339927 - 340803" locus_tag="LLPMBPKK_00304" class="clusterblast-orf" id="dummy-1_q14_0_all"  />
<polygon points="181,35 186,30 190,30 190,40 186,40 181,35 " style="fill:#d87715; stroke-width:1; stroke:black; " description="&lt;b&gt;LLPMBPKK_00305&lt;/b&gt;&lt;br&gt;Tryptophan halogenase&lt;br&gt;Location: 340940 - 342413" locus_tag="LLPMBPKK_00305" class="clusterblast-orf" id="dummy-1_q15_0_all"  />
<polygon points="190,35 195,30 241,30 241,40 195,40 190,35 " style="fill:#15d815; stroke-width:1; stroke:black; " description="&lt;b&gt;LLPMBPKK_00306&lt;/b&gt;&lt;br&gt;polyketide synthase&lt;br&gt;Location: 342409 - 350239" locus_tag="LLPMBPKK_00306" class="clusterblast-orf" id="dummy-1_q16_0_all"  />
<polygon points="242,35 247,30 248,30 248,40 247,40 242,35 " style="fill:#1577d8; stroke-width:1; stroke:black; " description="&lt;b&gt;LLPMBPKK_00307&lt;/b&gt;&lt;br&gt;class I SAM-dependent methyltransferase&lt;br&gt;Location: 350335 - 351286" locus_tag="LLPMBPKK_00307" class="clusterblast-orf" id="dummy-1_q17_0_all"  />
<polygon points="248,35 253,30 259,30 259,40 253,40 248,35 " style="fill:#d815d8; stroke-width:1; stroke:black; " description="&lt;b&gt;LLPMBPKK_00308&lt;/b&gt;&lt;br&gt;3-(3-hydroxyphenyl)propionate hydroxylase&lt;br&gt;Location: 351361 - 352990" locus_tag="LLPMBPKK_00308" class="clusterblast-orf" id="dummy-1_q18_0_all"  />
<polygon points="259,35 264,30 264,30 264,40 264,40 259,35 " style="fill:#d8a715; stroke-width:1; stroke:black; " description="&lt;b&gt;LLPMBPKK_00309&lt;/b&gt;&lt;br&gt;N-acetyltransferase/amide synthase&lt;br&gt;Location: 353013 - 353796" locus_tag="LLPMBPKK_00309" class="clusterblast-orf" id="dummy-1_q19_0_all"  />
<polygon points="264,35 269,30 328,30 328,40 269,40 264,35 " style="fill:#15d815; stroke-width:1; stroke:black; " description="&lt;b&gt;LLPMBPKK_00310&lt;/b&gt;&lt;br&gt;hypothetical protein&lt;br&gt;Location: 353800 - 363724" locus_tag="LLPMBPKK_00310" class="clusterblast-orf" id="dummy-1_q20_0_all"  />
<polygon points="329,35 334,30 396,30 396,40 334,40 329,35 " style="fill:#15d815; stroke-width:1; stroke:black; " description="&lt;b&gt;LLPMBPKK_00311&lt;/b&gt;&lt;br&gt;type I polyketide synthase&lt;br&gt;Location: 363754 - 374203" locus_tag="LLPMBPKK_00311" class="clusterblast-orf" id="dummy-1_q21_0_all"  />
<polygon points="397,35 402,30 448,30 448,40 402,40 397,35 " style="fill:#15d815; stroke-width:1; stroke:black; " description="&lt;b&gt;LLPMBPKK_00312&lt;/b&gt;&lt;br&gt;type I polyketide synthase&lt;br&gt;Location: 374249 - 382115" locus_tag="LLPMBPKK_00312" class="clusterblast-orf" id="dummy-1_q22_0_all"  />
<polygon points="448,35 453,30 462,30 462,40 453,40 448,35 " style="fill:#15d815; stroke-width:1; stroke:black; " description="&lt;b&gt;LLPMBPKK_00313&lt;/b&gt;&lt;br&gt;type I polyketide synthase&lt;br&gt;Location: 382111 - 384328" locus_tag="LLPMBPKK_00313" class="clusterblast-orf" id="dummy-1_q23_0_all"  />
<polygon points="463,35 468,30 499,30 499,40 468,40 463,35 " style="fill:#15d815; stroke-width:1; stroke:black; " description="&lt;b&gt;LLPMBPKK_00314&lt;/b&gt;&lt;br&gt;type I polyketide synthase&lt;br&gt;Location: 384422 - 390035" locus_tag="LLPMBPKK_00314" class="clusterblast-orf" id="dummy-1_q24_0_all"  />
<polygon points="499,35 504,30 561,30 561,40 504,40 499,35 " style="fill:#15d815; stroke-width:1; stroke:black; " description="&lt;b&gt;LLPMBPKK_00315&lt;/b&gt;&lt;br&gt;2-succinylbenzoate--CoA ligase&lt;br&gt;Location: 390069 - 399576" locus_tag="LLPMBPKK_00315" class="clusterblast-orf" id="dummy-1_q25_0_all"  />
<polygon points="562,35 567,30 568,30 568,40 567,40 562,35 " style="fill:white; stroke-width:1; stroke:black; " description="&lt;b&gt;LLPMBPKK_00316&lt;/b&gt;&lt;br&gt;hypothetical protein&lt;br&gt;Location: 399691 - 400606" locus_tag="LLPMBPKK_00316" class="clusterblast-orf" id="dummy-1_q26_0_all"  />
<polygon points="571,35 576,30 588,30 588,40 576,40 571,35 " style="fill:#15d846; stroke-width:1; stroke:black; " description="&lt;b&gt;LLPMBPKK_00317&lt;/b&gt;&lt;br&gt;non-ribosomal peptide synthetase&lt;br&gt;Location: 401116 - 403651" locus_tag="LLPMBPKK_00317" class="clusterblast-orf" id="dummy-1_q27_0_all"  />
<polygon points="588,35 593,30 594,30 594,40 593,40 588,35 " style="fill:#1546d8; stroke-width:1; stroke:black; " description="&lt;b&gt;LLPMBPKK_00318&lt;/b&gt;&lt;br&gt;Acetyltransferase (GNAT) family protein&lt;br&gt;Location: 403696 - 404623" locus_tag="LLPMBPKK_00318" class="clusterblast-orf" id="dummy-1_q28_0_all"  />
<polygon points="595,35 598,30 598,40 595,35 " style="fill:#d815a7; stroke-width:1; stroke:black; " description="&lt;b&gt;LLPMBPKK_00319&lt;/b&gt;&lt;br&gt;3-dehydroquinate dehydratase&lt;br&gt;Location: 404785 - 405202" locus_tag="LLPMBPKK_00319" class="clusterblast-orf" id="dummy-1_q29_0_all"  />
<polygon points="599,40 602,40 607,35 602,30 599,30 599,40 " style="fill:#d8d815; stroke-width:1; stroke:black; " description="&lt;b&gt;LLPMBPKK_00320&lt;/b&gt;&lt;br&gt;3-amino-5-hydroxybenzoate synthase&lt;br&gt;Location: 405450 - 406614" locus_tag="LLPMBPKK_00320" class="clusterblast-orf" id="dummy-1_q30_0_all"  />
<polygon points="607,40 609,40 614,35 609,30 607,30 607,40 " style="fill:#15d877; stroke-width:1; stroke:black; " description="&lt;b&gt;LLPMBPKK_00321&lt;/b&gt;&lt;br&gt;oxidoreductase RifL&lt;br&gt;Location: 406610 - 407741" locus_tag="LLPMBPKK_00321" class="clusterblast-orf" id="dummy-1_q31_0_all"  />
<polygon points="615,40 619,35 615,30 615,40 " style="fill:#1515d8; stroke-width:1; stroke:black; " description="&lt;b&gt;LLPMBPKK_00322&lt;/b&gt;&lt;br&gt;phosphoglycolate phosphatase&lt;br&gt;Location: 407845 - 408544" locus_tag="LLPMBPKK_00322" class="clusterblast-orf" id="dummy-1_q32_0_all"  />
<polygon points="621,40 625,40 630,35 625,30 621,30 621,40 " style="fill:#d81577; stroke-width:1; stroke:black; " description="&lt;b&gt;LLPMBPKK_00323&lt;/b&gt;&lt;br&gt;3-deoxy-7-phosphoheptulonate synthase&lt;br&gt;Location: 408817 - 410152" locus_tag="LLPMBPKK_00323" class="clusterblast-orf" id="dummy-1_q33_0_all"  />
<polygon points="631,40 645,40 650,35 645,30 631,30 631,40 " style="fill:#15d815; stroke-width:1; stroke:black; " description="&lt;b&gt;LLPMBPKK_00324&lt;/b&gt;&lt;br&gt;3-phosphoshikimate 1-carboxyvinyltransferase&lt;br&gt;Location: 410297 - 413303" locus_tag="LLPMBPKK_00324" class="clusterblast-orf" id="dummy-1_q34_0_all"  />
<polygon points="651,40 653,40 658,35 653,30 651,30 651,40 " style="fill:#a7d815; stroke-width:1; stroke:black; " description="&lt;b&gt;LLPMBPKK_00325&lt;/b&gt;&lt;br&gt;acyl-CoA dehydrogenase&lt;br&gt;Location: 413383 - 414553" locus_tag="LLPMBPKK_00325" class="clusterblast-orf" id="dummy-1_q35_0_all"  />
<polygon points="658,40 659,40 664,35 659,30 658,30 658,40 " style="fill:#15d8a7; stroke-width:1; stroke:black; " description="&lt;b&gt;LLPMBPKK_00326&lt;/b&gt;&lt;br&gt;SDR family oxidoreductase&lt;br&gt;Location: 414549 - 415392" locus_tag="LLPMBPKK_00326" class="clusterblast-orf" id="dummy-1_q36_0_all"  />
<polygon points="664,40 673,40 678,35 673,30 664,30 664,40 " style="fill:#4615d8; stroke-width:1; stroke:black; " description="&lt;b&gt;LLPMBPKK_00327&lt;/b&gt;&lt;br&gt;NADPH-dependent 2,4-dienoyl-CoA reductase&lt;br&gt;Location: 415436 - 417518" locus_tag="LLPMBPKK_00327" class="clusterblast-orf" id="dummy-1_q37_0_all"  />
<polygon points="678,35 683,30 697,30 697,40 683,40 678,35 " style="fill:#d81546; stroke-width:1; stroke:black; " description="&lt;b&gt;LLPMBPKK_00328&lt;/b&gt;&lt;br&gt;LuxR family transcriptional regulator&lt;br&gt;Location: 417593 - 420452" locus_tag="LLPMBPKK_00328" class="clusterblast-orf" id="dummy-1_q38_0_all"  />
<polygon points="703,40 708,40 713,35 708,30 703,30 703,40 " style="fill:white; stroke-width:1; stroke:black; " description="&lt;b&gt;LLPMBPKK_00329&lt;/b&gt;&lt;br&gt;hypothetical protein&lt;br&gt;Location: 421519 - 422968" locus_tag="LLPMBPKK_00329" class="clusterblast-orf" id="dummy-1_q39_0_all"  />
</g>
<g label="NZ_GG753626" description="NZ_GG753626 (4822665-4942879): Streptomyces sp. e14 supercont1.1, whole genom... (17% of genes show similarity), NRPS,T1PKS,butyrolactone" class="clusterblast-cluster"  >
<text x="5" y="70" class="clusterblast-acc"  >
<a xlink:href="https://antismash-db.secondarymetabolites.org/area.html?record=NZ_GG753626&amp;start=4822665&amp;end=4942879" target="_blank">NZ_GG753626 (4822665-4942879)</a>: Streptomyces sp. e14 supercont1.1, whole genom... (17% of genes show similarity), NRPS,T1PKS,butyrolactone</text>
<line x1="10" y1="85" x2="778.0" y2="85" style="stroke-width:1; stroke:grey; "  />
</g>
<g id="a1_000"  >
<polygon points="0,90 4,85 0,80 0,90 " style="fill:white; stroke-width:1; stroke:black; " description="&lt;b&gt;SSTG_RS20130&lt;/b&gt;&lt;br&gt;response regulator&lt;br&gt;Location: 4822666 - 4823352" locus_tag="SSTG_RS20130" class="clusterblast-orf" id="dummy-1_h1_7_0"  />
</g>
<g id="a1_001"  >
<polygon points="4,90 7,85 4,80 4,90 " style="fill:white; stroke-width:1; stroke:black; " description="&lt;b&gt;SSTG_RS20135&lt;/b&gt;&lt;br&gt;OB-fold nucleic acid binding domain-containing protein&lt;br&gt;Location: 4823396 - 4823794" locus_tag="SSTG_RS20135" class="clusterblast-orf" id="dummy-1_h1_7_1"  />
</g>
<g id="a1_002"  >
<polygon points="7,90 11,85 7,80 7,90 " style="fill:white; stroke-width:1; stroke:black; " description="&lt;b&gt;SSTG_RS20140&lt;/b&gt;&lt;br&gt;DUF3159 domain-containing protein&lt;br&gt;Location: 4823798 - 4824490" locus_tag="SSTG_RS20140" class="clusterblast-orf" id="dummy-1_h1_7_2"  />
</g>
<g id="a1_003"  >
<polygon points="14,85 18,80 18,90 14,85 " style="fill:white; stroke-width:1; stroke:black; " description="&lt;b&gt;SSTG_RS20145&lt;/b&gt;&lt;br&gt;TrkA family potassium uptake protein&lt;br&gt;Location: 4824826 - 4825503" locus_tag="SSTG_RS20145" class="clusterblast-orf" id="dummy-1_h1_7_3"  />
</g>
<g id="a1_004"  >
<polygon points="18,85 22,80 22,90 18,85 " style="fill:white; stroke-width:1; stroke:black; " description="&lt;b&gt;SSTG_RS20150&lt;/b&gt;&lt;br&gt;TrkA family potassium uptake protein&lt;br&gt;Location: 4825503 - 4826174" locus_tag="SSTG_RS20150" class="clusterblast-orf" id="dummy-1_h1_7_4"  />
</g>
<g id="a1_005"  >
<polygon points="27,90 36,90 41,85 36,80 27,80 27,90 " style="fill:white; stroke-width:1; stroke:black; " description="&lt;b&gt;SSTG_RS20155&lt;/b&gt;&lt;br&gt;APC family permease&lt;br&gt;Location: 4826981 - 4829029" locus_tag="SSTG_RS20155" class="clusterblast-orf" id="dummy-1_h1_7_5"  />
</g>
<g id="a1_006"  >
<polygon points="42,90 46,90 51,85 46,80 42,80 42,90 " style="fill:white; stroke-width:1; stroke:black; " description="&lt;b&gt;SSTG_RS20160&lt;/b&gt;&lt;br&gt;class I SAM-dependent RNA methyltransferase&lt;br&gt;Location: 4829259 - 4830614" locus_tag="SSTG_RS20160" class="clusterblast-orf" id="dummy-1_h1_7_6"  />
</g>
<g id="a1_007"  >
<polygon points="52,85 55,80 55,90 52,85 " style="fill:white; stroke-width:1; stroke:black; " description="&lt;b&gt;SSTG_RS20165&lt;/b&gt;&lt;br&gt;hypothetical protein&lt;br&gt;Location: 4830803 - 4831246" locus_tag="SSTG_RS20165" class="clusterblast-orf" id="dummy-1_h1_7_7"  />
</g>
<g id="a1_008"  >
<polygon points="56,85 60,80 60,90 56,85 " style="fill:white; stroke-width:1; stroke:black; " description="&lt;b&gt;SSTG_RS20170&lt;/b&gt;&lt;br&gt;hypothetical protein&lt;br&gt;Location: 4831346 - 4831948" locus_tag="SSTG_RS20170" class="clusterblast-orf" id="dummy-1_h1_7_8"  />
</g>
<g id="a1_009"  >
<polygon points="62,85 66,80 66,90 62,85 " style="fill:white; stroke-width:1; stroke:black; " description="&lt;b&gt;SSTG_RS20175&lt;/b&gt;&lt;br&gt;response regulator transcription factor&lt;br&gt;Location: 4832284 - 4832895" locus_tag="SSTG_RS20175" class="clusterblast-orf" id="dummy-1_h1_7_9"  />
</g>
<g id="a1_0010"  >
<polygon points="66,85 71,80 73,80 73,90 71,90 66,85 " style="fill:white; stroke-width:1; stroke:black; " description="&lt;b&gt;SSTG_RS20180&lt;/b&gt;&lt;br&gt;two-component sensor histidine kinase&lt;br&gt;Location: 4832967 - 4834043" locus_tag="SSTG_RS20180" class="clusterblast-orf" id="dummy-1_h1_7_10"  />
</g>
<g id="a1_0011"  >
<polygon points="75,85 80,80 90,80 90,90 80,90 75,85 " style="fill:white; stroke-width:1; stroke:black; " description="&lt;b&gt;SSTG_RS20185&lt;/b&gt;&lt;br&gt;TOMM precursor leader peptide-binding protein&lt;br&gt;Location: 4834290 - 4836561" locus_tag="SSTG_RS20185" class="clusterblast-orf" id="dummy-1_h1_7_11"  />
</g>
<g id="a1_0012"  >
<polygon points="90,85 91,80 91,90 90,85 " style="fill:white; stroke-width:1; stroke:black; " description="&lt;b&gt;SSTG_RS35290&lt;/b&gt;&lt;br&gt;hypothetical protein&lt;br&gt;Location: 4836558 - 4836728" locus_tag="SSTG_RS35290" class="clusterblast-orf" id="dummy-1_h1_7_12"  />
</g>
<g id="a1_0013"  >
<polygon points="93,90 93,90 98,85 93,80 93,80 93,90 " style="fill:white; stroke-width:1; stroke:black; " description="&lt;b&gt;SSTG_RS20190&lt;/b&gt;&lt;br&gt;AfsR/SARP family transcriptional regulator&lt;br&gt;Location: 4837123 - 4837812" locus_tag="SSTG_RS20190" class="clusterblast-orf" id="dummy-1_h1_7_13"  />
</g>
<g id="a1_0014"  >
<polygon points="100,85 105,80 105,80 105,90 105,90 100,85 " style="fill:white; stroke-width:1; stroke:black; " description="&lt;b&gt;SSTG_RS20195&lt;/b&gt;&lt;br&gt;4'-phosphopantetheinyl transferase superfamily protein&lt;br&gt;Location: 4838134 - 4838979" locus_tag="SSTG_RS20195" class="clusterblast-orf" id="dummy-1_h1_7_14"  />
</g>
<g id="a1_0015"  >
<polygon points="108,85 113,80 116,80 116,90 113,90 108,85 " style="fill:#d87715; stroke-width:1; stroke:black; " description="&lt;b&gt;SSTG_RS20200&lt;/b&gt;&lt;br&gt;NAD(P)/FAD-dependent oxidoreductase&lt;br&gt;Location: 4839331 - 4840659&lt;br&gt;&lt;br&gt;&lt;b&gt;BlastP hit with LLPMBPKK_00305&lt;/b&gt;&lt;br&gt;Percentage identity: 31&lt;br&gt;Percentage coverage: 80&lt;br&gt;BLAST bit score: 156&lt;br&gt;E-value: 1.43e-40" locus_tag="SSTG_RS20200" class="clusterblast-orf" id="dummy-1_h1_7_15"  />
</g>
<g id="a1_0016"  >
<polygon points="116,85 118,80 118,90 116,85 " style="fill:white; stroke-width:1; stroke:black; " description="&lt;b&gt;SSTG_RS20205&lt;/b&gt;&lt;br&gt;hypothetical protein&lt;br&gt;Location: 4840656 - 4840922" locus_tag="SSTG_RS20205" class="clusterblast-orf" id="dummy-1_h1_7_16"  />
</g>
<g id="a1_0017"  >
<polygon points="118,85 123,80 128,80 128,90 123,90 118,85 " style="fill:white; stroke-width:1; stroke:black; " description="&lt;b&gt;SSTG_RS20210&lt;/b&gt;&lt;br&gt;amino acid adenylation domain-containing protein&lt;br&gt;Location: 4840919 - 4842406" locus_tag="SSTG_RS20210" class="clusterblast-orf" id="dummy-1_h1_7_17"  />
</g>
<g id="a1_0018"  >
<polygon points="128,85 133,80 135,80 135,90 133,90 128,85 " style="fill:white; stroke-width:1; stroke:black; " description="&lt;b&gt;SSTG_RS20215&lt;/b&gt;&lt;br&gt;acyl-CoA dehydrogenase&lt;br&gt;Location: 4842403 - 4843545" locus_tag="SSTG_RS20215" class="clusterblast-orf" id="dummy-1_h1_7_18"  />
</g>
<g id="a1_0019"  >
<polygon points="135,85 140,80 167,80 167,90 140,90 135,85 " style="fill:white; stroke-width:1; stroke:black; " description="&lt;b&gt;SSTG_RS20220&lt;/b&gt;&lt;br&gt;non-ribosomal peptide synthetase&lt;br&gt;Location: 4843505 - 4848478" locus_tag="SSTG_RS20220" class="clusterblast-orf" id="dummy-1_h1_7_19"  />
</g>
<g id="a1_0020"  >
<polygon points="167,85 172,80 174,80 174,90 172,90 167,85 " style="fill:white; stroke-width:1; stroke:black; " description="&lt;b&gt;SSTG_RS33270&lt;/b&gt;&lt;br&gt;asparaginase&lt;br&gt;Location: 4848523 - 4849596" locus_tag="SSTG_RS33270" class="clusterblast-orf" id="dummy-1_h1_7_20"  />
</g>
<g id="a1_0021"  >
<polygon points="174,85 179,80 181,80 181,90 179,90 174,85 " style="fill:white; stroke-width:1; stroke:black; " description="&lt;b&gt;SSTG_RS20230&lt;/b&gt;&lt;br&gt;clavaminate synthase&lt;br&gt;Location: 4849593 - 4850564" locus_tag="SSTG_RS20230" class="clusterblast-orf" id="dummy-1_h1_7_21"  />
</g>
<g id="a1_0022"  >
<polygon points="180,85 185,80 208,80 208,90 185,90 180,85 " style="fill:white; stroke-width:1; stroke:black; " description="&lt;b&gt;SSTG_RS20235&lt;/b&gt;&lt;br&gt;non-ribosomal peptide synthetase&lt;br&gt;Location: 4850561 - 4854730" locus_tag="SSTG_RS20235" class="clusterblast-orf" id="dummy-1_h1_7_22"  />
</g>
<g id="a1_0023"  >
<polygon points="209,85 214,80 218,80 218,90 214,90 209,85 " style="fill:white; stroke-width:1; stroke:black; " description="&lt;b&gt;SSTG_RS20240&lt;/b&gt;&lt;br&gt;non-ribosomal peptide synthetase&lt;br&gt;Location: 4855000 - 4856375" locus_tag="SSTG_RS20240" class="clusterblast-orf" id="dummy-1_h1_7_23"  />
</g>
<g id="a1_0024"  >
<polygon points="219,90 223,90 228,85 223,80 219,80 219,90 " style="fill:white; stroke-width:1; stroke:black; " description="&lt;b&gt;SSTG_RS20245&lt;/b&gt;&lt;br&gt;sodium:proton exchanger&lt;br&gt;Location: 4856497 - 4857840" locus_tag="SSTG_RS20245" class="clusterblast-orf" id="dummy-1_h1_7_24"  />
</g>
<g id="a1_0025"  >
<polygon points="228,90 229,90 234,85 229,80 228,80 228,90 " style="fill:white; stroke-width:1; stroke:black; " description="&lt;b&gt;SSTG_RS20250&lt;/b&gt;&lt;br&gt;TauD/TfdA family dioxygenase&lt;br&gt;Location: 4857837 - 4858781" locus_tag="SSTG_RS20250" class="clusterblast-orf" id="dummy-1_h1_7_25"  />
</g>
<g id="a1_0026"  >
<polygon points="232,90 233,90 238,85 233,80 232,80 232,90 " style="fill:white; stroke-width:1; stroke:black; " description="&lt;b&gt;SSTG_RS20255&lt;/b&gt;&lt;br&gt;alpha/beta fold hydrolase&lt;br&gt;Location: 4858469 - 4859500" locus_tag="SSTG_RS20255" class="clusterblast-orf" id="dummy-1_h1_7_26"  />
</g>
<g id="a1_0027"  >
<polygon points="239,85 244,80 255,80 255,90 244,90 239,85 " style="fill:white; stroke-width:1; stroke:black; " description="&lt;b&gt;SSTG_RS20260&lt;/b&gt;&lt;br&gt;ABC transporter permease&lt;br&gt;Location: 4859578 - 4862052" locus_tag="SSTG_RS20260" class="clusterblast-orf" id="dummy-1_h1_7_27"  />
</g>
<g id="a1_0028"  >
<polygon points="255,85 260,80 260,80 260,90 260,90 255,85 " style="fill:#d81515; stroke-width:1; stroke:black; " description="&lt;b&gt;SSTG_RS20265&lt;/b&gt;&lt;br&gt;ABC transporter ATP-binding protein&lt;br&gt;Location: 4862046 - 4862768&lt;br&gt;&lt;br&gt;&lt;b&gt;BlastP hit with LLPMBPKK_00290&lt;/b&gt;&lt;br&gt;Percentage identity: 48&lt;br&gt;Percentage coverage: 88&lt;br&gt;BLAST bit score: 170&lt;br&gt;E-value: 9.42e-51" locus_tag="SSTG_RS20265" class="clusterblast-orf" id="dummy-1_h1_7_28"  />
</g>
<g id="a1_0029"  >
<polygon points="261,90 262,85 261,80 261,90 " style="fill:white; stroke-width:1; stroke:black; " description="&lt;b&gt;SSTG_RS20270&lt;/b&gt;&lt;br&gt;MbtH family protein&lt;br&gt;Location: 4862959 - 4863171" locus_tag="SSTG_RS20270" class="clusterblast-orf" id="dummy-1_h1_7_29"  />
</g>
<g id="a1_0030"  >
<polygon points="262,90 264,90 269,85 264,80 262,80 262,90 " style="fill:white; stroke-width:1; stroke:black; " description="&lt;b&gt;SSTG_RS20275&lt;/b&gt;&lt;br&gt;ornithine carbamoyltransferase&lt;br&gt;Location: 4863168 - 4864136" locus_tag="SSTG_RS20275" class="clusterblast-orf" id="dummy-1_h1_7_30"  />
</g>
<g id="a1_0031"  >
<polygon points="290,85 295,80 298,80 298,90 295,90 290,85 " style="fill:white; stroke-width:1; stroke:black; " description="&lt;b&gt;SSTG_RS35295&lt;/b&gt;&lt;br&gt;non-ribosomal peptide synthetase&lt;br&gt;Location: 4867497 - 4868702" locus_tag="SSTG_RS35295" class="clusterblast-orf" id="dummy-1_h1_7_31"  />
</g>
<g id="a1_0032"  >
<polygon points="299,85 301,80 301,90 299,85 " style="fill:white; stroke-width:1; stroke:black; " description="&lt;b&gt;SSTG_RS35300&lt;/b&gt;&lt;br&gt;hypothetical protein&lt;br&gt;Location: 4868835 - 4869164" locus_tag="SSTG_RS35300" class="clusterblast-orf" id="dummy-1_h1_7_32"  />
</g>
<g id="a1_0033"  >
<polygon points="302,85 307,80 340,80 340,90 307,90 302,85 " style="fill:white; stroke-width:1; stroke:black; " description="&lt;b&gt;SSTG_RS20280&lt;/b&gt;&lt;br&gt;non-ribosomal peptide synthetase&lt;br&gt;Location: 4869348 - 4875191" locus_tag="SSTG_RS20280" class="clusterblast-orf" id="dummy-1_h1_7_33"  />
</g>
<g id="a1_0034"  >
<polygon points="341,85 346,80 348,80 348,90 346,90 341,85 " style="fill:white; stroke-width:1; stroke:black; " description="&lt;b&gt;SSTG_RS20285&lt;/b&gt;&lt;br&gt;2,3-diaminopropionate biosynthesis protein SbnA&lt;br&gt;Location: 4875356 - 4876351" locus_tag="SSTG_RS20285" class="clusterblast-orf" id="dummy-1_h1_7_34"  />
</g>
<g id="a1_0035"  >
<polygon points="349,85 354,80 355,80 355,90 354,90 349,85 " style="fill:white; stroke-width:1; stroke:black; " description="&lt;b&gt;SSTG_RS20290&lt;/b&gt;&lt;br&gt;hypothetical protein&lt;br&gt;Location: 4876500 - 4877417" locus_tag="SSTG_RS20290" class="clusterblast-orf" id="dummy-1_h1_7_35"  />
</g>
<g id="a1_0036"  >
<polygon points="358,90 360,90 365,85 360,80 358,80 358,90 " style="fill:white; stroke-width:1; stroke:black; " description="&lt;b&gt;SSTG_RS20295&lt;/b&gt;&lt;br&gt;2,3-diaminopropionate biosynthesis protein SbnB&lt;br&gt;Location: 4877946 - 4878983" locus_tag="SSTG_RS20295" class="clusterblast-orf" id="dummy-1_h1_7_36"  />
</g>
<g id="a1_0037"  >
<polygon points="365,90 369,85 365,80 365,90 " style="fill:white; stroke-width:1; stroke:black; " description="&lt;b&gt;SSTG_RS20300&lt;/b&gt;&lt;br&gt;hypothetical protein&lt;br&gt;Location: 4878998 - 4879537" locus_tag="SSTG_RS20300" class="clusterblast-orf" id="dummy-1_h1_7_37"  />
</g>
<g id="a1_0038"  >
<polygon points="372,90 376,85 372,80 372,90 " style="fill:white; stroke-width:1; stroke:black; " description="&lt;b&gt;SSTG_RS20305&lt;/b&gt;&lt;br&gt;hypothetical protein&lt;br&gt;Location: 4880012 - 4880665" locus_tag="SSTG_RS20305" class="clusterblast-orf" id="dummy-1_h1_7_38"  />
</g>
<g id="a1_0039"  >
<polygon points="377,90 381,85 377,80 377,90 " style="fill:white; stroke-width:1; stroke:black; " description="&lt;b&gt;SSTG_RS20310&lt;/b&gt;&lt;br&gt;DedA family protein&lt;br&gt;Location: 4880801 - 4881463" locus_tag="SSTG_RS20310" class="clusterblast-orf" id="dummy-1_h1_7_39"  />
</g>
<g id="a1_0040"  >
<polygon points="382,85 387,80 390,80 390,90 387,90 382,85 " style="fill:white; stroke-width:1; stroke:black; " description="&lt;b&gt;SSTG_RS20315&lt;/b&gt;&lt;br&gt;NAD(P)/FAD-dependent oxidoreductase&lt;br&gt;Location: 4881572 - 4882793" locus_tag="SSTG_RS20315" class="clusterblast-orf" id="dummy-1_h1_7_40"  />
</g>
<g id="a1_0041"  >
<polygon points="391,90 396,90 401,85 396,80 391,80 391,90 " style="fill:white; stroke-width:1; stroke:black; " description="&lt;b&gt;SSTG_RS20320&lt;/b&gt;&lt;br&gt;methylmalonyl-CoA mutase&lt;br&gt;Location: 4882998 - 4884578" locus_tag="SSTG_RS20320" class="clusterblast-orf" id="dummy-1_h1_7_41"  />
</g>
<g id="a1_0042"  >
<polygon points="402,90 404,85 402,80 402,90 " style="fill:white; stroke-width:1; stroke:black; " description="&lt;b&gt;SSTG_RS20325&lt;/b&gt;&lt;br&gt;cobalamin B12-binding domain-containing protein&lt;br&gt;Location: 4884631 - 4885041" locus_tag="SSTG_RS20325" class="clusterblast-orf" id="dummy-1_h1_7_42"  />
</g>
<g id="a1_0043"  >
<polygon points="405,90 409,85 405,80 405,90 " style="fill:white; stroke-width:1; stroke:black; " description="&lt;b&gt;SSTG_RS20330&lt;/b&gt;&lt;br&gt;TetR/AcrR family transcriptional regulator&lt;br&gt;Location: 4885184 - 4885816" locus_tag="SSTG_RS20330" class="clusterblast-orf" id="dummy-1_h1_7_43"  />
</g>
<g id="a1_0044"  >
<polygon points="409,85 414,80 414,80 414,90 414,90 409,85 " style="fill:white; stroke-width:1; stroke:black; " description="&lt;b&gt;SSTG_RS20335&lt;/b&gt;&lt;br&gt;TetR/AcrR family transcriptional regulator&lt;br&gt;Location: 4885839 - 4886486" locus_tag="SSTG_RS20335" class="clusterblast-orf" id="dummy-1_h1_7_44"  />
</g>
<g id="a1_0045"  >
<polygon points="415,90 416,90 421,85 416,80 415,80 415,90 " style="fill:white; stroke-width:1; stroke:black; " description="&lt;b&gt;SSTG_RS20340&lt;/b&gt;&lt;br&gt;gamma-butyrolactone biosynthesis protein&lt;br&gt;Location: 4886688 - 4887629" locus_tag="SSTG_RS20340" class="clusterblast-orf" id="dummy-1_h1_7_45"  />
</g>
<g id="a1_0046"  >
<polygon points="421,90 422,90 427,85 422,80 421,80 421,90 " style="fill:white; stroke-width:1; stroke:black; " description="&lt;b&gt;SSTG_RS33275&lt;/b&gt;&lt;br&gt;NAD-dependent epimerase/dehydratase family protein&lt;br&gt;Location: 4887634 - 4888572" locus_tag="SSTG_RS33275" class="clusterblast-orf" id="dummy-1_h1_7_46"  />
</g>
<g id="a1_0047"  >
<polygon points="428,85 433,80 446,80 446,90 433,90 428,85 " style="fill:#d81546; stroke-width:1; stroke:black; " description="&lt;b&gt;SSTG_RS20345&lt;/b&gt;&lt;br&gt;LuxR family transcriptional regulator&lt;br&gt;Location: 4888651 - 4891404&lt;br&gt;&lt;br&gt;&lt;b&gt;BlastP hit with LLPMBPKK_00328&lt;/b&gt;&lt;br&gt;Percentage identity: 42&lt;br&gt;Percentage coverage: 100&lt;br&gt;BLAST bit score: 561&lt;br&gt;E-value: 2.39e-184" locus_tag="SSTG_RS20345" class="clusterblast-orf" id="dummy-1_h1_7_47"  />
</g>
<g id="a1_0048"  >
<polygon points="449,90 451,85 449,80 449,90 " style="fill:white; stroke-width:1; stroke:black; " description="&lt;b&gt;SSTG_RS35305&lt;/b&gt;&lt;br&gt;SARP family transcriptional regulator&lt;br&gt;Location: 4891934 - 4892282" locus_tag="SSTG_RS35305" class="clusterblast-orf" id="dummy-1_h1_7_48"  />
</g>
<g id="a1_0049"  >
<polygon points="462,85 467,80 467,80 467,90 467,90 462,85 " style="fill:white; stroke-width:1; stroke:black; " description="&lt;b&gt;SSTG_RS20355&lt;/b&gt;&lt;br&gt;thioesterase&lt;br&gt;Location: 4894019 - 4894783" locus_tag="SSTG_RS20355" class="clusterblast-orf" id="dummy-1_h1_7_49"  />
</g>
<g id="a1_0050"  >
<polygon points="468,85 471,80 471,90 468,85 " style="fill:#d815a7; stroke-width:1; stroke:black; " description="&lt;b&gt;SSTG_RS20360&lt;/b&gt;&lt;br&gt;3-dehydroquinate dehydratase&lt;br&gt;Location: 4894856 - 4895326&lt;br&gt;&lt;br&gt;&lt;b&gt;BlastP hit with LLPMBPKK_00319&lt;/b&gt;&lt;br&gt;Percentage identity: 49&lt;br&gt;Percentage coverage: 61&lt;br&gt;BLAST bit score: 91&lt;br&gt;E-value: 5.52e-22" locus_tag="SSTG_RS20360" class="clusterblast-orf" id="dummy-1_h1_7_50"  />
</g>
<g id="a1_0051"  >
<polygon points="473,90 475,90 480,85 475,80 473,80 473,90 " style="fill:#d8d815; stroke-width:1; stroke:black; " description="&lt;b&gt;SSTG_RS20365&lt;/b&gt;&lt;br&gt;DegT/DnrJ/EryC1/StrS family aminotransferase&lt;br&gt;Location: 4895615 - 4896781&lt;br&gt;&lt;br&gt;&lt;b&gt;BlastP hit with LLPMBPKK_00320&lt;/b&gt;&lt;br&gt;Percentage identity: 72&lt;br&gt;Percentage coverage: 99&lt;br&gt;BLAST bit score: 560&lt;br&gt;E-value: 7.17e-200" locus_tag="SSTG_RS20365" class="clusterblast-orf" id="dummy-1_h1_7_51"  />
</g>
<g id="a1_0052"  >
<polygon points="481,90 483,90 488,85 483,80 481,80 481,90 " style="fill:#15d877; stroke-width:1; stroke:black; " description="&lt;b&gt;SSTG_RS20370&lt;/b&gt;&lt;br&gt;Gfo/Idh/MocA family oxidoreductase&lt;br&gt;Location: 4896835 - 4897935&lt;br&gt;&lt;br&gt;&lt;b&gt;BlastP hit with LLPMBPKK_00321&lt;/b&gt;&lt;br&gt;Percentage identity: 58&lt;br&gt;Percentage coverage: 94&lt;br&gt;BLAST bit score: 379&lt;br&gt;E-value: 5.38e-129" locus_tag="SSTG_RS20370" class="clusterblast-orf" id="dummy-1_h1_7_52"  />
</g>
<g id="a1_0053"  >
<polygon points="488,90 488,90 493,85 488,80 488,80 488,90 " style="fill:#1515d8; stroke-width:1; stroke:black; " description="&lt;b&gt;SSTG_RS20375&lt;/b&gt;&lt;br&gt;HAD-IA family hydrolase&lt;br&gt;Location: 4898027 - 4898656&lt;br&gt;&lt;br&gt;&lt;b&gt;BlastP hit with LLPMBPKK_00322&lt;/b&gt;&lt;br&gt;Percentage identity: 71&lt;br&gt;Percentage coverage: 88&lt;br&gt;BLAST bit score: 273&lt;br&gt;E-value: 1.41e-91" locus_tag="SSTG_RS20375" class="clusterblast-orf" id="dummy-1_h1_7_53"  />
</g>
<g id="a1_0054"  >
<polygon points="496,85 501,80 503,80 503,90 501,90 496,85 " style="fill:white; stroke-width:1; stroke:black; " description="&lt;b&gt;SSTG_RS20380&lt;/b&gt;&lt;br&gt;3-dehydroquinate synthase&lt;br&gt;Location: 4899249 - 4900244" locus_tag="SSTG_RS20380" class="clusterblast-orf" id="dummy-1_h1_7_54"  />
</g>
<g id="a1_0055"  >
<polygon points="503,85 506,80 506,90 503,85 " style="fill:white; stroke-width:1; stroke:black; " description="&lt;b&gt;SSTG_RS20385&lt;/b&gt;&lt;br&gt;hypothetical protein&lt;br&gt;Location: 4900258 - 4900797" locus_tag="SSTG_RS20385" class="clusterblast-orf" id="dummy-1_h1_7_55"  />
</g>
<g id="a1_0056"  >
<polygon points="510,90 519,90 524,85 519,80 510,80 510,90 " style="fill:#15d815; stroke-width:1; stroke:black; " description="&lt;b&gt;SSTG_RS20390&lt;/b&gt;&lt;br&gt;AMP-binding protein&lt;br&gt;Location: 4901384 - 4903547&lt;br&gt;&lt;br&gt;&lt;b&gt;BlastP hit with LLPMBPKK_00315&lt;/b&gt;&lt;br&gt;Percentage identity: 60&lt;br&gt;Percentage coverage: 23&lt;br&gt;BLAST bit score: 834&lt;br&gt;E-value: 1.12e-271&lt;br&gt;&lt;br&gt;&lt;b&gt;BlastP hit with LLPMBPKK_00324&lt;/b&gt;&lt;br&gt;Percentage identity: 34&lt;br&gt;Percentage coverage: 53&lt;br&gt;BLAST bit score: 215&lt;br&gt;E-value: 7.24e-57" locus_tag="SSTG_RS20390" class="clusterblast-orf" id="dummy-1_h1_7_56"  />
</g>
<g id="a1_0057"  >
<polygon points="532,90 545,90 550,85 545,80 532,80 532,90 " style="fill:#15d815; stroke-width:1; stroke:black; " description="&lt;b&gt;SSTG_RS20395&lt;/b&gt;&lt;br&gt;type I polyketide synthase&lt;br&gt;Location: 4904658 - 4907573&lt;br&gt;&lt;br&gt;&lt;b&gt;BlastP hit with LLPMBPKK_00306&lt;/b&gt;&lt;br&gt;Percentage identity: 48&lt;br&gt;Percentage coverage: 38&lt;br&gt;BLAST bit score: 775&lt;br&gt;E-value: 4.48e-249&lt;br&gt;&lt;br&gt;&lt;b&gt;BlastP hit with LLPMBPKK_00310&lt;/b&gt;&lt;br&gt;Percentage identity: 52&lt;br&gt;Percentage coverage: 30&lt;br&gt;BLAST bit score: 861&lt;br&gt;E-value: 2.75e-277&lt;br&gt;&lt;br&gt;&lt;b&gt;BlastP hit with LLPMBPKK_00311&lt;/b&gt;&lt;br&gt;Percentage identity: 52&lt;br&gt;Percentage coverage: 28&lt;br&gt;BLAST bit score: 851&lt;br&gt;E-value: 8.84e-273&lt;br&gt;&lt;br&gt;&lt;b&gt;BlastP hit with LLPMBPKK_00312&lt;/b&gt;&lt;br&gt;Percentage identity: 52&lt;br&gt;Percentage coverage: 38&lt;br&gt;BLAST bit score: 852&lt;br&gt;E-value: 8.16e-278&lt;br&gt;&lt;br&gt;&lt;b&gt;BlastP hit with LLPMBPKK_00313&lt;/b&gt;&lt;br&gt;Percentage identity: 62&lt;br&gt;Percentage coverage: 92&lt;br&gt;BLAST bit score: 754&lt;br&gt;E-value: 7.23e-262&lt;br&gt;&lt;br&gt;&lt;b&gt;BlastP hit with LLPMBPKK_00314&lt;/b&gt;&lt;br&gt;Percentage identity: 58&lt;br&gt;Percentage coverage: 53&lt;br&gt;BLAST bit score: 1002&lt;br&gt;E-value: 0.0&lt;br&gt;&lt;br&gt;&lt;b&gt;BlastP hit with LLPMBPKK_00315&lt;/b&gt;&lt;br&gt;Percentage identity: 54&lt;br&gt;Percentage coverage: 31&lt;br&gt;BLAST bit score: 903&lt;br&gt;E-value: 1.74e-293" locus_tag="SSTG_RS20395" class="clusterblast-orf" id="dummy-1_h1_7_57"  />
</g>
<g id="a1_0058"  >
<polygon points="567,90 583,90 588,85 583,80 567,80 567,90 " style="fill:white; stroke-width:1; stroke:black; " description="&lt;b&gt;SSTG_RS33285&lt;/b&gt;&lt;br&gt;acyltransferase domain-containing protein&lt;br&gt;Location: 4910104 - 4913428" locus_tag="SSTG_RS33285" class="clusterblast-orf" id="dummy-1_h1_7_58"  />
</g>
<g id="a1_0059"  >
<polygon points="586,90 594,90 599,85 594,80 586,80 586,90 " style="fill:white; stroke-width:1; stroke:black; " description="&lt;b&gt;SSTG_RS20420&lt;/b&gt;&lt;br&gt;SDR family NAD(P)-dependent oxidoreductase&lt;br&gt;Location: 4913130 - 4915034" locus_tag="SSTG_RS20420" class="clusterblast-orf" id="dummy-1_h1_7_59"  />
</g>
<g id="a1_0060"  >
<polygon points="599,90 623,90 628,85 623,80 599,80 599,90 " style="fill:#15d815; stroke-width:1; stroke:black; " description="&lt;b&gt;SSTG_RS20425&lt;/b&gt;&lt;br&gt;type I polyketide synthase&lt;br&gt;Location: 4915034 - 4919604&lt;br&gt;&lt;br&gt;&lt;b&gt;BlastP hit with LLPMBPKK_00306&lt;/b&gt;&lt;br&gt;Percentage identity: 45&lt;br&gt;Percentage coverage: 57&lt;br&gt;BLAST bit score: 1019&lt;br&gt;E-value: 0.0&lt;br&gt;&lt;br&gt;&lt;b&gt;BlastP hit with LLPMBPKK_00310&lt;/b&gt;&lt;br&gt;Percentage identity: 51&lt;br&gt;Percentage coverage: 46&lt;br&gt;BLAST bit score: 1281&lt;br&gt;E-value: 0.0&lt;br&gt;&lt;br&gt;&lt;b&gt;BlastP hit with LLPMBPKK_00311&lt;/b&gt;&lt;br&gt;Percentage identity: 52&lt;br&gt;Percentage coverage: 44&lt;br&gt;BLAST bit score: 1327&lt;br&gt;E-value: 0.0&lt;br&gt;&lt;br&gt;&lt;b&gt;BlastP hit with LLPMBPKK_00312&lt;/b&gt;&lt;br&gt;Percentage identity: 51&lt;br&gt;Percentage coverage: 57&lt;br&gt;BLAST bit score: 1258&lt;br&gt;E-value: 0.0&lt;br&gt;&lt;br&gt;&lt;b&gt;BlastP hit with LLPMBPKK_00313&lt;/b&gt;&lt;br&gt;Percentage identity: 61&lt;br&gt;Percentage coverage: 98&lt;br&gt;BLAST bit score: 802&lt;br&gt;E-value: 2.15e-273&lt;br&gt;&lt;br&gt;&lt;b&gt;BlastP hit with LLPMBPKK_00314&lt;/b&gt;&lt;br&gt;Percentage identity: 50&lt;br&gt;Percentage coverage: 85&lt;br&gt;BLAST bit score: 1259&lt;br&gt;E-value: 0.0&lt;br&gt;&lt;br&gt;&lt;b&gt;BlastP hit with LLPMBPKK_00315&lt;/b&gt;&lt;br&gt;Percentage identity: 44&lt;br&gt;Percentage coverage: 57&lt;br&gt;BLAST bit score: 1212&lt;br&gt;E-value: 0.0" locus_tag="SSTG_RS20425" class="clusterblast-orf" id="dummy-1_h1_7_60"  />
</g>
<g id="a1_0061"  >
<polygon points="637,90 649,90 654,85 649,80 637,80 637,90 " style="fill:#15d815; stroke-width:1; stroke:black; " description="&lt;b&gt;SSTG_RS20430&lt;/b&gt;&lt;br&gt;acyltransferase domain-containing protein&lt;br&gt;Location: 4920926 - 4923595&lt;br&gt;&lt;br&gt;&lt;b&gt;BlastP hit with LLPMBPKK_00306&lt;/b&gt;&lt;br&gt;Percentage identity: 46&lt;br&gt;Percentage coverage: 30&lt;br&gt;BLAST bit score: 559&lt;br&gt;E-value: 6.99e-172&lt;br&gt;&lt;br&gt;&lt;b&gt;BlastP hit with LLPMBPKK_00310&lt;/b&gt;&lt;br&gt;Percentage identity: 50&lt;br&gt;Percentage coverage: 24&lt;br&gt;BLAST bit score: 621&lt;br&gt;E-value: 1.17e-192&lt;br&gt;&lt;br&gt;&lt;b&gt;BlastP hit with LLPMBPKK_00311&lt;/b&gt;&lt;br&gt;Percentage identity: 49&lt;br&gt;Percentage coverage: 22&lt;br&gt;BLAST bit score: 593&lt;br&gt;E-value: 5.31e-183&lt;br&gt;&lt;br&gt;&lt;b&gt;BlastP hit with LLPMBPKK_00312&lt;/b&gt;&lt;br&gt;Percentage identity: 50&lt;br&gt;Percentage coverage: 30&lt;br&gt;BLAST bit score: 596&lt;br&gt;E-value: 5.43e-185&lt;br&gt;&lt;br&gt;&lt;b&gt;BlastP hit with LLPMBPKK_00313&lt;/b&gt;&lt;br&gt;Percentage identity: 61&lt;br&gt;Percentage coverage: 77&lt;br&gt;BLAST bit score: 597&lt;br&gt;E-value: 2.01e-201&lt;br&gt;&lt;br&gt;&lt;b&gt;BlastP hit with LLPMBPKK_00314&lt;/b&gt;&lt;br&gt;Percentage identity: 58&lt;br&gt;Percentage coverage: 42&lt;br&gt;BLAST bit score: 765&lt;br&gt;E-value: 1.28e-252&lt;br&gt;&lt;br&gt;&lt;b&gt;BlastP hit with LLPMBPKK_00315&lt;/b&gt;&lt;br&gt;Percentage identity: 53&lt;br&gt;Percentage coverage: 25&lt;br&gt;BLAST bit score: 680&lt;br&gt;E-value: 1.76e-213" locus_tag="SSTG_RS20430" class="clusterblast-orf" id="dummy-1_h1_7_61"  />
</g>
<g id="a1_0062"  >
<polygon points="655,90 655,90 660,85 655,80 655,80 655,90 " style="fill:#d8a715; stroke-width:1; stroke:black; " description="&lt;b&gt;SSTG_RS20435&lt;/b&gt;&lt;br&gt;3-amino-5-hydroxybenzoic acid synthase&lt;br&gt;Location: 4923644 - 4924438&lt;br&gt;&lt;br&gt;&lt;b&gt;BlastP hit with LLPMBPKK_00309&lt;/b&gt;&lt;br&gt;Percentage identity: 49&lt;br&gt;Percentage coverage: 100&lt;br&gt;BLAST bit score: 248&lt;br&gt;E-value: 8.71e-81" locus_tag="SSTG_RS20435" class="clusterblast-orf" id="dummy-1_h1_7_62"  />
</g>
<g id="a1_0063"  >
<polygon points="660,90 666,90 671,85 666,80 660,80 660,90 " style="fill:#d815d8; stroke-width:1; stroke:black; " description="&lt;b&gt;SSTG_RS20440&lt;/b&gt;&lt;br&gt;bifunctional 3-(3-hydroxy-phenyl)propionate/3-hydroxycinnamic acid hydroxylase&lt;br&gt;Location: 4924455 - 4926106&lt;br&gt;&lt;br&gt;&lt;b&gt;BlastP hit with LLPMBPKK_00308&lt;/b&gt;&lt;br&gt;Percentage identity: 58&lt;br&gt;Percentage coverage: 82&lt;br&gt;BLAST bit score: 479&lt;br&gt;E-value: 2.56e-163" locus_tag="SSTG_RS20440" class="clusterblast-orf" id="dummy-1_h1_7_63"  />
</g>
<g id="a1_0064"  >
<polygon points="672,90 676,90 681,85 676,80 672,80 672,90 " style="fill:white; stroke-width:1; stroke:black; " description="&lt;b&gt;SSTG_RS20445&lt;/b&gt;&lt;br&gt;MFS transporter&lt;br&gt;Location: 4926319 - 4927728" locus_tag="SSTG_RS20445" class="clusterblast-orf" id="dummy-1_h1_7_64"  />
</g>
<g id="a1_0065"  >
<polygon points="682,90 684,90 689,85 684,80 682,80 682,90 " style="fill:white; stroke-width:1; stroke:black; " description="&lt;b&gt;SSTG_RS20450&lt;/b&gt;&lt;br&gt;Gfo/Idh/MocA family oxidoreductase&lt;br&gt;Location: 4927858 - 4928940" locus_tag="SSTG_RS20450" class="clusterblast-orf" id="dummy-1_h1_7_65"  />
</g>
<g id="a1_0066"  >
<polygon points="691,85 695,80 695,90 691,85 " style="fill:white; stroke-width:1; stroke:black; " description="&lt;b&gt;SSTG_RS33290&lt;/b&gt;&lt;br&gt;DUF2306 domain-containing protein&lt;br&gt;Location: 4929199 - 4929804" locus_tag="SSTG_RS33290" class="clusterblast-orf" id="dummy-1_h1_7_66"  />
</g>
<g id="a1_0067"  >
<polygon points="696,85 697,80 697,90 696,85 " style="fill:white; stroke-width:1; stroke:black; " description="&lt;b&gt;SSTG_RS20460&lt;/b&gt;&lt;br&gt;ferredoxin&lt;br&gt;Location: 4929992 - 4930213" locus_tag="SSTG_RS20460" class="clusterblast-orf" id="dummy-1_h1_7_67"  />
</g>
<g id="a1_0068"  >
<polygon points="697,85 702,80 706,80 706,90 702,90 697,85 " style="fill:white; stroke-width:1; stroke:black; " description="&lt;b&gt;SSTG_RS20465&lt;/b&gt;&lt;br&gt;cytochrome P450&lt;br&gt;Location: 4930219 - 4931481" locus_tag="SSTG_RS20465" class="clusterblast-orf" id="dummy-1_h1_7_68"  />
</g>
<g id="a1_0069"  >
<polygon points="706,85 711,80 715,80 715,90 711,90 706,85 " style="fill:white; stroke-width:1; stroke:black; " description="&lt;b&gt;SSTG_RS20470&lt;/b&gt;&lt;br&gt;FAD-binding oxidoreductase&lt;br&gt;Location: 4931522 - 4933015" locus_tag="SSTG_RS20470" class="clusterblast-orf" id="dummy-1_h1_7_69"  />
</g>
<g id="a1_0070"  >
<polygon points="717,90 721,90 726,85 721,80 717,80 717,90 " style="fill:white; stroke-width:1; stroke:black; " description="&lt;b&gt;SSTG_RS20475&lt;/b&gt;&lt;br&gt;acyltransferase&lt;br&gt;Location: 4933293 - 4934663" locus_tag="SSTG_RS20475" class="clusterblast-orf" id="dummy-1_h1_7_70"  />
</g>
<g id="a1_0071"  >
<polygon points="727,85 732,80 736,80 736,90 732,90 727,85 " style="fill:#d81577; stroke-width:1; stroke:black; " description="&lt;b&gt;SSTG_RS20480&lt;/b&gt;&lt;br&gt;3-deoxy-7-phosphoheptulonate synthase class II&lt;br&gt;Location: 4934780 - 4936168&lt;br&gt;&lt;br&gt;&lt;b&gt;BlastP hit with LLPMBPKK_00323&lt;/b&gt;&lt;br&gt;Percentage identity: 41&lt;br&gt;Percentage coverage: 98&lt;br&gt;BLAST bit score: 285&lt;br&gt;E-value: 1.29e-89" locus_tag="SSTG_RS20480" class="clusterblast-orf" id="dummy-1_h1_7_71"  />
</g>
<g id="a1_0072"  >
<polygon points="736,85 741,80 742,80 742,90 741,90 736,85 " style="fill:white; stroke-width:1; stroke:black; " description="&lt;b&gt;SSTG_RS20485&lt;/b&gt;&lt;br&gt;shikimate dehydrogenase&lt;br&gt;Location: 4936251 - 4937042" locus_tag="SSTG_RS20485" class="clusterblast-orf" id="dummy-1_h1_7_72"  />
</g>
<g id="a1_0073"  >
<polygon points="744,85 749,80 753,80 753,90 749,90 744,85 " style="fill:white; stroke-width:1; stroke:black; " description="&lt;b&gt;SSTG_RS20490&lt;/b&gt;&lt;br&gt;proline--tRNA ligase&lt;br&gt;Location: 4937451 - 4938863" locus_tag="SSTG_RS20490" class="clusterblast-orf" id="dummy-1_h1_7_73"  />
</g>
<g id="a1_0074"  >
<polygon points="755,90 757,90 762,85 757,80 755,80 755,90 " style="fill:white; stroke-width:1; stroke:black; " description="&lt;b&gt;SSTG_RS20495&lt;/b&gt;&lt;br&gt;hypothetical protein&lt;br&gt;Location: 4939072 - 4940211" locus_tag="SSTG_RS20495" class="clusterblast-orf" id="dummy-1_h1_7_74"  />
</g>
<g id="a1_0075"  >
<polygon points="762,90 764,90 769,85 764,80 762,80 762,90 " style="fill:white; stroke-width:1; stroke:black; " description="&lt;b&gt;SSTG_RS20500&lt;/b&gt;&lt;br&gt;MerR family transcriptional regulator&lt;br&gt;Location: 4940205 - 4941254" locus_tag="SSTG_RS20500" class="clusterblast-orf" id="dummy-1_h1_7_75"  />
</g>
<g id="a1_0076"  >
<polygon points="771,90 773,85 771,80 771,90 " style="fill:white; stroke-width:1; stroke:black; " description="&lt;b&gt;SSTG_RS20505&lt;/b&gt;&lt;br&gt;response regulator transcription factor&lt;br&gt;Location: 4941512 - 4941895" locus_tag="SSTG_RS20505" class="clusterblast-orf" id="dummy-1_h1_7_76"  />
</g>
<g id="a1_0077"  >
<polygon points="775,90 775,90 780,85 775,80 775,80 775,90 " style="fill:white; stroke-width:1; stroke:black; " description="&lt;b&gt;SSTG_RS20510&lt;/b&gt;&lt;br&gt;chitinase&lt;br&gt;Location: 4942130 - 4942879" locus_tag="SSTG_RS20510" class="clusterblast-orf" id="dummy-1_h1_7_77"  />
</g>
</svg>
