<svg xmlns="http://www.w3.org/2000/svg" xmlns:xlink="http://www.w3.org/1999/xlink" version="1.1" x="0" y="0" height="230" width="800" viewBox="0 0 800 230" preserveAspectRatio="none"  >
<g label="Query sequence" class="clusterblast-cluster"  >
<text x="5" y="20" class="clusterblast-acc"  >
Query sequence</text>
<line x1="10" y1="35" x2="778.0" y2="35" style="stroke-width:1; stroke:grey; "  />
<polygon points="115,35 119,30 119,40 115,35 " style="fill:white; stroke-width:1; stroke:black; " description="&lt;b&gt;LLPMBPKK_00521&lt;/b&gt;&lt;br&gt;FMN reductase&lt;br&gt;Location: 626718 - 627333" locus_tag="LLPMBPKK_00521" class="clusterblast-orf" id="dummy-3_q0_0_all"  />
<polygon points="119,35 124,30 125,30 125,40 124,40 119,35 " style="fill:white; stroke-width:1; stroke:black; " description="&lt;b&gt;LLPMBPKK_00522&lt;/b&gt;&lt;br&gt;LLM class flavin-dependent oxidoreductase&lt;br&gt;Location: 627329 - 628415" locus_tag="LLPMBPKK_00522" class="clusterblast-orf" id="dummy-3_q1_0_all"  />
<polygon points="126,35 130,30 130,40 126,35 " style="fill:#d81515; stroke-width:1; stroke:black; " description="&lt;b&gt;LLPMBPKK_00523&lt;/b&gt;&lt;br&gt;non-heme bromoperoxidase BPO-A2&lt;br&gt;Location: 628614 - 629451" locus_tag="LLPMBPKK_00523" class="clusterblast-orf" id="dummy-3_q2_0_all"  />
<polygon points="133,40 133,40 138,35 133,30 133,30 133,40 " style="fill:white; stroke-width:1; stroke:black; " description="&lt;b&gt;LLPMBPKK_00524&lt;/b&gt;&lt;br&gt;MerR family DNA-binding transcriptionalregulator&lt;br&gt;Location: 629924 - 630884" locus_tag="LLPMBPKK_00524" class="clusterblast-orf" id="dummy-3_q3_0_all"  />
<polygon points="139,40 142,35 139,30 139,40 " style="fill:white; stroke-width:1; stroke:black; " description="&lt;b&gt;LLPMBPKK_00525&lt;/b&gt;&lt;br&gt;transcriptional regulator&lt;br&gt;Location: 630968 - 631613" locus_tag="LLPMBPKK_00525" class="clusterblast-orf" id="dummy-3_q4_0_all"  />
<polygon points="144,40 146,35 144,30 144,40 " style="fill:white; stroke-width:1; stroke:black; " description="&lt;b&gt;LLPMBPKK_00526&lt;/b&gt;&lt;br&gt;hypothetical protein&lt;br&gt;Location: 631916 - 632405" locus_tag="LLPMBPKK_00526" class="clusterblast-orf" id="dummy-3_q5_0_all"  />
<polygon points="147,40 151,35 147,30 147,40 " style="fill:white; stroke-width:1; stroke:black; " description="&lt;b&gt;LLPMBPKK_00527&lt;/b&gt;&lt;br&gt;class F sortase&lt;br&gt;Location: 632574 - 633225" locus_tag="LLPMBPKK_00527" class="clusterblast-orf" id="dummy-3_q6_0_all"  />
<polygon points="152,40 169,40 174,35 169,30 152,30 152,40 " style="fill:white; stroke-width:1; stroke:black; " description="&lt;b&gt;LLPMBPKK_00528&lt;/b&gt;&lt;br&gt;hypothetical protein&lt;br&gt;Location: 633383 - 637448" locus_tag="LLPMBPKK_00528" class="clusterblast-orf" id="dummy-3_q7_0_all"  />
<polygon points="175,40 177,35 175,30 175,40 " style="fill:white; stroke-width:1; stroke:black; " description="&lt;b&gt;LLPMBPKK_00529&lt;/b&gt;&lt;br&gt;hypothetical protein&lt;br&gt;Location: 637581 - 637950" locus_tag="LLPMBPKK_00529" class="clusterblast-orf" id="dummy-3_q8_0_all"  />
<polygon points="179,40 182,35 179,30 179,40 " style="fill:white; stroke-width:1; stroke:black; " description="&lt;b&gt;LLPMBPKK_00530&lt;/b&gt;&lt;br&gt;hypothetical protein&lt;br&gt;Location: 638304 - 638916" locus_tag="LLPMBPKK_00530" class="clusterblast-orf" id="dummy-3_q9_0_all"  />
<polygon points="183,35 188,30 196,30 196,40 188,40 183,35 " style="fill:#77d815; stroke-width:1; stroke:black; " description="&lt;b&gt;LLPMBPKK_00531&lt;/b&gt;&lt;br&gt;glycoside hydrolase family 65 protein&lt;br&gt;Location: 639041 - 641441" locus_tag="LLPMBPKK_00531" class="clusterblast-orf" id="dummy-3_q10_0_all"  />
<polygon points="196,35 200,30 200,40 196,35 " style="fill:#15d8d8; stroke-width:1; stroke:black; " description="&lt;b&gt;LLPMBPKK_00532&lt;/b&gt;&lt;br&gt;hydrolase&lt;br&gt;Location: 641437 - 642181" locus_tag="LLPMBPKK_00532" class="clusterblast-orf" id="dummy-3_q11_0_all"  />
<polygon points="203,35 208,30 208,30 208,40 208,40 203,35 " style="fill:white; stroke-width:1; stroke:black; " description="&lt;b&gt;LLPMBPKK_00533&lt;/b&gt;&lt;br&gt;hypothetical protein&lt;br&gt;Location: 642596 - 643553" locus_tag="LLPMBPKK_00533" class="clusterblast-orf" id="dummy-3_q12_0_all"  />
<polygon points="209,40 213,35 209,30 209,40 " style="fill:#7715d8; stroke-width:1; stroke:black; " description="&lt;b&gt;LLPMBPKK_00534&lt;/b&gt;&lt;br&gt;lipoprotein&lt;br&gt;Location: 643768 - 644509" locus_tag="LLPMBPKK_00534" class="clusterblast-orf" id="dummy-3_q13_0_all"  />
<polygon points="214,35 219,30 221,30 221,40 219,40 214,35 " style="fill:#d87715; stroke-width:1; stroke:black; " description="&lt;b&gt;LLPMBPKK_00535&lt;/b&gt;&lt;br&gt;oxidoreductase&lt;br&gt;Location: 644721 - 645858" locus_tag="LLPMBPKK_00535" class="clusterblast-orf" id="dummy-3_q14_0_all"  />
<polygon points="222,40 224,35 222,30 222,40 " style="fill:white; stroke-width:1; stroke:black; " description="&lt;b&gt;LLPMBPKK_00536&lt;/b&gt;&lt;br&gt;hypothetical protein&lt;br&gt;Location: 646074 - 646482" locus_tag="LLPMBPKK_00536" class="clusterblast-orf" id="dummy-3_q15_0_all"  />
<polygon points="225,35 230,30 235,30 235,40 230,40 225,35 " style="fill:#15d815; stroke-width:1; stroke:black; " description="&lt;b&gt;LLPMBPKK_00537&lt;/b&gt;&lt;br&gt;ACP S-malonyltransferase&lt;br&gt;Location: 646632 - 648510" locus_tag="LLPMBPKK_00537" class="clusterblast-orf" id="dummy-3_q16_0_all"  />
<polygon points="235,35 240,30 247,30 247,40 240,40 235,35 " style="fill:#15d815; stroke-width:1; stroke:black; " description="&lt;b&gt;LLPMBPKK_00538&lt;/b&gt;&lt;br&gt;1,4-dihydroxy-2-naphthoyl-CoA synthase&lt;br&gt;Location: 648514 - 650752" locus_tag="LLPMBPKK_00538" class="clusterblast-orf" id="dummy-3_q17_0_all"  />
<polygon points="247,35 252,30 254,30 254,40 252,40 247,35 " style="fill:#1577d8; stroke-width:1; stroke:black; " description="&lt;b&gt;LLPMBPKK_00539&lt;/b&gt;&lt;br&gt;Polyketide biosynthesis3-hydroxy-3-methylglutaryl-ACP synthase PksG&lt;br&gt;Location: 650739 - 652002" locus_tag="LLPMBPKK_00539" class="clusterblast-orf" id="dummy-3_q18_0_all"  />
<polygon points="254,35 259,30 261,30 261,40 259,40 254,35 " style="fill:#15d815; stroke-width:1; stroke:black; " description="&lt;b&gt;LLPMBPKK_00540&lt;/b&gt;&lt;br&gt;3-oxoacyl-ACP synthase&lt;br&gt;Location: 652007 - 653243" locus_tag="LLPMBPKK_00540" class="clusterblast-orf" id="dummy-3_q19_0_all"  />
<polygon points="261,35 263,30 263,40 261,35 " style="fill:#d815d8; stroke-width:1; stroke:black; " description="&lt;b&gt;LLPMBPKK_00541&lt;/b&gt;&lt;br&gt;Polyketide biosynthesis acyl-carrier-proteinAcpK&lt;br&gt;Location: 653244 - 653508" locus_tag="LLPMBPKK_00541" class="clusterblast-orf" id="dummy-3_q20_0_all"  />
<polygon points="263,35 268,30 313,30 313,40 268,40 263,35 " style="fill:#15d815; stroke-width:1; stroke:black; " description="&lt;b&gt;LLPMBPKK_00542&lt;/b&gt;&lt;br&gt;D-alanine--poly(phosphoribitol) ligase subunit 1&lt;br&gt;Location: 653546 - 662720" locus_tag="LLPMBPKK_00542" class="clusterblast-orf" id="dummy-3_q21_0_all"  />
<polygon points="313,35 318,30 355,30 355,40 318,40 313,35 " style="fill:#15d815; stroke-width:1; stroke:black; " description="&lt;b&gt;LLPMBPKK_00543&lt;/b&gt;&lt;br&gt;non-ribosomal peptide synthetase&lt;br&gt;Location: 662716 - 670306" locus_tag="LLPMBPKK_00543" class="clusterblast-orf" id="dummy-3_q22_0_all"  />
<polygon points="355,35 360,30 434,30 434,40 360,40 355,35 " style="fill:#15d815; stroke-width:1; stroke:black; " description="&lt;b&gt;LLPMBPKK_00544&lt;/b&gt;&lt;br&gt;Acyl carrier protein&lt;br&gt;Location: 670302 - 684732" locus_tag="LLPMBPKK_00544" class="clusterblast-orf" id="dummy-3_q23_0_all"  />
<polygon points="434,35 439,30 556,30 556,40 439,40 434,35 " style="fill:#15d815; stroke-width:1; stroke:black; " description="&lt;b&gt;LLPMBPKK_00545&lt;/b&gt;&lt;br&gt;D-alanine--poly(phosphoribitol) ligase subunit 1&lt;br&gt;Location: 684728 - 706898" locus_tag="LLPMBPKK_00545" class="clusterblast-orf" id="dummy-3_q24_0_all"  />
<polygon points="557,35 562,30 588,30 588,40 562,40 557,35 " style="fill:#15d815; stroke-width:1; stroke:black; " description="&lt;b&gt;LLPMBPKK_00546&lt;/b&gt;&lt;br&gt;hypothetical protein&lt;br&gt;Location: 707071 - 712630" locus_tag="LLPMBPKK_00546" class="clusterblast-orf" id="dummy-3_q25_0_all"  />
<polygon points="588,35 593,30 637,30 637,40 593,40 588,35 " style="fill:#15d815; stroke-width:1; stroke:black; " description="&lt;b&gt;LLPMBPKK_00547&lt;/b&gt;&lt;br&gt;hypothetical protein&lt;br&gt;Location: 712613 - 721484" locus_tag="LLPMBPKK_00547" class="clusterblast-orf" id="dummy-3_q26_0_all"  />
<polygon points="638,40 638,40 643,35 638,30 638,30 638,40 " style="fill:#d8d815; stroke-width:1; stroke:black; " description="&lt;b&gt;LLPMBPKK_00548&lt;/b&gt;&lt;br&gt;thioesterase&lt;br&gt;Location: 721801 - 722650" locus_tag="LLPMBPKK_00548" class="clusterblast-orf" id="dummy-3_q27_0_all"  />
<polygon points="644,40 647,40 652,35 647,30 644,30 644,40 " style="fill:#15d877; stroke-width:1; stroke:black; " description="&lt;b&gt;LLPMBPKK_00549&lt;/b&gt;&lt;br&gt;amidase&lt;br&gt;Location: 722786 - 724211" locus_tag="LLPMBPKK_00549" class="clusterblast-orf" id="dummy-3_q28_0_all"  />
<polygon points="653,40 655,40 660,35 655,30 653,30 653,40 " style="fill:#1515d8; stroke-width:1; stroke:black; " description="&lt;b&gt;LLPMBPKK_00550&lt;/b&gt;&lt;br&gt;Pentapeptide repeats (8 copies)&lt;br&gt;Location: 724442 - 725738" locus_tag="LLPMBPKK_00550" class="clusterblast-orf" id="dummy-3_q29_0_all"  />
<polygon points="660,35 664,30 664,40 660,35 " style="fill:#d81577; stroke-width:1; stroke:black; " description="&lt;b&gt;LLPMBPKK_00551&lt;/b&gt;&lt;br&gt;4'-phosphopantetheinyl transferase superfamilyprotein&lt;br&gt;Location: 725715 - 726438" locus_tag="LLPMBPKK_00551" class="clusterblast-orf" id="dummy-3_q30_0_all"  />
</g>
<g label="NZ_CP048799" description="NZ_CP048799 (270283-412034): Brevibacillus sp. 7WMA2 chromosome, complete genome (16% of genes show similarity), NRPS,NRPS-like,PKS-like,T3PKS,bacteriocin,transAT-PKS,transAT-PKS-like" class="clusterblast-cluster"  >
<text x="5" y="70" class="clusterblast-acc"  >
<a xlink:href="https://antismash-db.secondarymetabolites.org/area.html?record=NZ_CP048799&amp;start=270283&amp;end=412034" target="_blank">NZ_CP048799 (270283-412034)</a>: Brevibacillus sp. 7WMA2 chromosome, complete genome (16% of genes show similarity), NRPS,NRPS-like,PKS-like,T3PKS,bacteriocin,transAT-PKS,transAT-PKS-like</text>
<line x1="10" y1="85" x2="778.0" y2="85" style="stroke-width:1; stroke:grey; "  />
</g>
<g id="a3_000"  >
<polygon points="0,90 1,85 0,80 0,90 " style="fill:white; stroke-width:1; stroke:black; " description="&lt;b&gt;GOP56_RS01700&lt;/b&gt;&lt;br&gt;DUF2627 domain-containing protein&lt;br&gt;Location: 412034 - 411726" locus_tag="GOP56_RS01700" class="clusterblast-orf" id="dummy-3_h3_7_0"  />
</g>
<g id="a3_001"  >
<polygon points="1,85 6,80 6,80 6,90 6,90 1,85 " style="fill:white; stroke-width:1; stroke:black; " description="&lt;b&gt;GOP56_RS01695&lt;/b&gt;&lt;br&gt;hypothetical protein&lt;br&gt;Location: 411771 - 410836" locus_tag="GOP56_RS01695" class="clusterblast-orf" id="dummy-3_h3_7_1"  />
</g>
<g id="a3_002"  >
<polygon points="6,85 10,80 10,90 6,85 " style="fill:white; stroke-width:1; stroke:black; " description="&lt;b&gt;GOP56_RS01690&lt;/b&gt;&lt;br&gt;glycosyltransferase&lt;br&gt;Location: 410839 - 410162" locus_tag="GOP56_RS01690" class="clusterblast-orf" id="dummy-3_h3_7_2"  />
</g>
<g id="a3_003"  >
<polygon points="10,85 15,80 16,80 16,90 15,90 10,85 " style="fill:white; stroke-width:1; stroke:black; " description="&lt;b&gt;GOP56_RS01685&lt;/b&gt;&lt;br&gt;hypothetical protein&lt;br&gt;Location: 410165 - 408993" locus_tag="GOP56_RS01685" class="clusterblast-orf" id="dummy-3_h3_7_3"  />
</g>
<g id="a3_004"  >
<polygon points="17,85 18,80 18,90 17,85 " style="fill:white; stroke-width:1; stroke:black; " description="&lt;b&gt;GOP56_RS01680&lt;/b&gt;&lt;br&gt;DUF2759 family protein&lt;br&gt;Location: 408826 - 408656" locus_tag="GOP56_RS01680" class="clusterblast-orf" id="dummy-3_h3_7_4"  />
</g>
<g id="a3_005"  >
<polygon points="20,90 21,85 20,80 20,90 " style="fill:white; stroke-width:1; stroke:black; " description="&lt;b&gt;GOP56_RS01675&lt;/b&gt;&lt;br&gt;transcriptional regulator&lt;br&gt;Location: 408382 - 408158" locus_tag="GOP56_RS01675" class="clusterblast-orf" id="dummy-3_h3_7_5"  />
</g>
<g id="a3_006"  >
<polygon points="22,90 24,85 22,80 22,90 " style="fill:white; stroke-width:1; stroke:black; " description="&lt;b&gt;GOP56_RS01670&lt;/b&gt;&lt;br&gt;hypothetical protein&lt;br&gt;Location: 407890 - 407537" locus_tag="GOP56_RS01670" class="clusterblast-orf" id="dummy-3_h3_7_6"  />
</g>
<g id="a3_007"  >
<polygon points="26,90 29,85 26,80 26,90 " style="fill:white; stroke-width:1; stroke:black; " description="&lt;b&gt;GOP56_RS01665&lt;/b&gt;&lt;br&gt;sigma-70 family RNA polymerase sigma factor&lt;br&gt;Location: 407272 - 406739" locus_tag="GOP56_RS01665" class="clusterblast-orf" id="dummy-3_h3_7_7"  />
</g>
<g id="a3_008"  >
<polygon points="29,90 29,90 34,85 29,80 29,80 29,90 " style="fill:white; stroke-width:1; stroke:black; " description="&lt;b&gt;GOP56_RS01660&lt;/b&gt;&lt;br&gt;hypothetical protein&lt;br&gt;Location: 406758 - 405802" locus_tag="GOP56_RS01660" class="clusterblast-orf" id="dummy-3_h3_7_8"  />
</g>
<g id="a3_009"  >
<polygon points="34,85 39,80 41,80 41,90 39,90 34,85 " style="fill:white; stroke-width:1; stroke:black; " description="&lt;b&gt;GOP56_RS01655&lt;/b&gt;&lt;br&gt;ABC transporter permease&lt;br&gt;Location: 405681 - 404491" locus_tag="GOP56_RS01655" class="clusterblast-orf" id="dummy-3_h3_7_9"  />
</g>
<g id="a3_0010"  >
<polygon points="41,85 45,80 45,90 41,85 " style="fill:white; stroke-width:1; stroke:black; " description="&lt;b&gt;GOP56_RS01650&lt;/b&gt;&lt;br&gt;ABC transporter ATP-binding protein&lt;br&gt;Location: 404494 - 403772" locus_tag="GOP56_RS01650" class="clusterblast-orf" id="dummy-3_h3_7_10"  />
</g>
<g id="a3_0011"  >
<polygon points="45,85 50,80 52,80 52,90 50,90 45,85 " style="fill:white; stroke-width:1; stroke:black; " description="&lt;b&gt;GOP56_RS01645&lt;/b&gt;&lt;br&gt;efflux RND transporter periplasmic adaptor subunit&lt;br&gt;Location: 403757 - 402492" locus_tag="GOP56_RS01645" class="clusterblast-orf" id="dummy-3_h3_7_11"  />
</g>
<g id="a3_0012"  >
<polygon points="56,85 61,80 67,80 67,90 61,90 56,85 " style="fill:white; stroke-width:1; stroke:black; " description="&lt;b&gt;GOP56_RS01640&lt;/b&gt;&lt;br&gt;acyltransferase family protein&lt;br&gt;Location: 401721 - 399850" locus_tag="GOP56_RS01640" class="clusterblast-orf" id="dummy-3_h3_7_12"  />
</g>
<g id="a3_0013"  >
<polygon points="68,85 72,80 72,90 68,85 " style="fill:white; stroke-width:1; stroke:black; " description="&lt;b&gt;GOP56_RS01635&lt;/b&gt;&lt;br&gt;hypothetical protein&lt;br&gt;Location: 399672 - 398932" locus_tag="GOP56_RS01635" class="clusterblast-orf" id="dummy-3_h3_7_13"  />
</g>
<g id="a3_0014"  >
<polygon points="72,85 77,80 79,80 79,90 77,90 72,85 " style="fill:white; stroke-width:1; stroke:black; " description="&lt;b&gt;GOP56_RS01630&lt;/b&gt;&lt;br&gt;HAMP domain-containing histidine kinase&lt;br&gt;Location: 398935 - 397496" locus_tag="GOP56_RS01630" class="clusterblast-orf" id="dummy-3_h3_7_14"  />
</g>
<g id="a3_0015"  >
<polygon points="80,85 83,80 83,90 80,85 " style="fill:white; stroke-width:1; stroke:black; " description="&lt;b&gt;GOP56_RS01625&lt;/b&gt;&lt;br&gt;response regulator transcription factor&lt;br&gt;Location: 397492 - 396836" locus_tag="GOP56_RS01625" class="clusterblast-orf" id="dummy-3_h3_7_15"  />
</g>
<g id="a3_0016"  >
<polygon points="85,90 85,90 90,85 85,80 85,80 85,90 " style="fill:white; stroke-width:1; stroke:black; " description="&lt;b&gt;GOP56_RS01620&lt;/b&gt;&lt;br&gt;LCP family protein&lt;br&gt;Location: 396494 - 395508" locus_tag="GOP56_RS01620" class="clusterblast-orf" id="dummy-3_h3_7_16"  />
</g>
<g id="a3_0017"  >
<polygon points="92,90 95,85 92,80 92,90 " style="fill:white; stroke-width:1; stroke:black; " description="&lt;b&gt;GOP56_RS01615&lt;/b&gt;&lt;br&gt;copper amine oxidase N-terminal domain-containing protein&lt;br&gt;Location: 395262 - 394627" locus_tag="GOP56_RS01615" class="clusterblast-orf" id="dummy-3_h3_7_17"  />
</g>
<g id="a3_0018"  >
<polygon points="97,85 102,80 102,80 102,90 102,90 97,85 " style="fill:white; stroke-width:1; stroke:black; " description="&lt;b&gt;GOP56_RS01610&lt;/b&gt;&lt;br&gt;tryptophan--tRNA ligase&lt;br&gt;Location: 394392 - 393397" locus_tag="GOP56_RS01610" class="clusterblast-orf" id="dummy-3_h3_7_18"  />
</g>
<g id="a3_0019"  >
<polygon points="105,85 109,80 109,90 105,85 " style="fill:white; stroke-width:1; stroke:black; " description="&lt;b&gt;GOP56_RS01605&lt;/b&gt;&lt;br&gt;MgtC/SapB family protein&lt;br&gt;Location: 392858 - 392181" locus_tag="GOP56_RS01605" class="clusterblast-orf" id="dummy-3_h3_7_19"  />
</g>
<g id="a3_0020"  >
<polygon points="109,85 114,80 130,80 130,90 114,90 109,85 " style="fill:white; stroke-width:1; stroke:black; " description="&lt;b&gt;GOP56_RS01600&lt;/b&gt;&lt;br&gt;amino acid adenylation domain-containing protein&lt;br&gt;Location: 392058 - 388321" locus_tag="GOP56_RS01600" class="clusterblast-orf" id="dummy-3_h3_7_20"  />
</g>
<g id="a3_0021"  >
<polygon points="130,85 135,80 140,80 140,90 135,90 130,85 " style="fill:white; stroke-width:1; stroke:black; " description="&lt;b&gt;GOP56_RS01595&lt;/b&gt;&lt;br&gt;HAMP domain-containing protein&lt;br&gt;Location: 388249 - 386498" locus_tag="GOP56_RS01595" class="clusterblast-orf" id="dummy-3_h3_7_21"  />
</g>
<g id="a3_0022"  >
<polygon points="142,85 147,80 148,80 148,90 147,90 142,85 " style="fill:white; stroke-width:1; stroke:black; " description="&lt;b&gt;GOP56_RS01590&lt;/b&gt;&lt;br&gt;P1 family peptidase&lt;br&gt;Location: 386065 - 385076" locus_tag="GOP56_RS01590" class="clusterblast-orf" id="dummy-3_h3_7_22"  />
</g>
<g id="a3_0023"  >
<polygon points="149,90 162,90 167,85 162,80 149,80 149,90 " style="fill:white; stroke-width:1; stroke:black; " description="&lt;b&gt;GOP56_RS01585&lt;/b&gt;&lt;br&gt;cytochrome P450&lt;br&gt;Location: 384857 - 381669" locus_tag="GOP56_RS01585" class="clusterblast-orf" id="dummy-3_h3_7_23"  />
</g>
<g id="a3_0024"  >
<polygon points="172,85 177,80 177,80 177,90 177,90 172,85 " style="fill:white; stroke-width:1; stroke:black; " description="&lt;b&gt;GOP56_RS01580&lt;/b&gt;&lt;br&gt;HRDC domain-containing protein&lt;br&gt;Location: 380754 - 379774" locus_tag="GOP56_RS01580" class="clusterblast-orf" id="dummy-3_h3_7_24"  />
</g>
<g id="a3_0025"  >
<polygon points="182,85 186,80 186,90 182,85 " style="fill:white; stroke-width:1; stroke:black; " description="&lt;b&gt;GOP56_RS01575&lt;/b&gt;&lt;br&gt;sporulation transcription factor Spo0A&lt;br&gt;Location: 378913 - 378131" locus_tag="GOP56_RS01575" class="clusterblast-orf" id="dummy-3_h3_7_25"  />
</g>
<g id="a3_0026"  >
<polygon points="188,85 193,80 195,80 195,90 193,90 188,85 " style="fill:white; stroke-width:1; stroke:black; " description="&lt;b&gt;GOP56_RS01570&lt;/b&gt;&lt;br&gt;SpoIVB peptidase&lt;br&gt;Location: 377841 - 376516" locus_tag="GOP56_RS01570" class="clusterblast-orf" id="dummy-3_h3_7_26"  />
</g>
<g id="a3_0027"  >
<polygon points="197,85 202,80 202,80 202,90 202,90 197,85 " style="fill:white; stroke-width:1; stroke:black; " description="&lt;b&gt;GOP56_RS01565&lt;/b&gt;&lt;br&gt;ABC transporter substrate-binding protein&lt;br&gt;Location: 376092 - 375157" locus_tag="GOP56_RS01565" class="clusterblast-orf" id="dummy-3_h3_7_27"  />
</g>
<g id="a3_0028"  >
<polygon points="203,85 208,80 211,80 211,90 208,90 203,85 " style="fill:white; stroke-width:1; stroke:black; " description="&lt;b&gt;GOP56_RS01560&lt;/b&gt;&lt;br&gt;IS1182 family transposase&lt;br&gt;Location: 374994 - 373633" locus_tag="GOP56_RS01560" class="clusterblast-orf" id="dummy-3_h3_7_28"  />
</g>
<g id="a3_0029"  >
<polygon points="212,85 216,80 216,90 212,85 " style="fill:white; stroke-width:1; stroke:black; " description="&lt;b&gt;GOP56_RS01555&lt;/b&gt;&lt;br&gt;hypothetical protein&lt;br&gt;Location: 373358 - 372612" locus_tag="GOP56_RS01555" class="clusterblast-orf" id="dummy-3_h3_7_29"  />
</g>
<g id="a3_0030"  >
<polygon points="218,85 220,80 220,90 218,85 " style="fill:white; stroke-width:1; stroke:black; " description="&lt;b&gt;GOP56_RS01550&lt;/b&gt;&lt;br&gt;cytidine deaminase&lt;br&gt;Location: 372412 - 372014" locus_tag="GOP56_RS01550" class="clusterblast-orf" id="dummy-3_h3_7_30"  />
</g>
<g id="a3_0031"  >
<polygon points="226,85 229,80 229,90 226,85 " style="fill:white; stroke-width:1; stroke:black; " description="&lt;b&gt;GOP56_RS01545&lt;/b&gt;&lt;br&gt;hypothetical protein&lt;br&gt;Location: 370796 - 370341" locus_tag="GOP56_RS01545" class="clusterblast-orf" id="dummy-3_h3_7_31"  />
</g>
<g id="a3_0032"  >
<polygon points="230,85 231,80 231,90 230,85 " style="fill:white; stroke-width:1; stroke:black; " description="&lt;b&gt;GOP56_RS01540&lt;/b&gt;&lt;br&gt;Tn3 family transposase&lt;br&gt;Location: 370171 - 370004" locus_tag="GOP56_RS01540" class="clusterblast-orf" id="dummy-3_h3_7_32"  />
</g>
<g id="a3_0033"  >
<polygon points="232,85 237,80 237,80 237,90 237,90 232,85 " style="fill:white; stroke-width:1; stroke:black; " description="&lt;b&gt;GOP56_RS01535&lt;/b&gt;&lt;br&gt;arylamine N-acetyltransferase&lt;br&gt;Location: 369766 - 368945" locus_tag="GOP56_RS01535" class="clusterblast-orf" id="dummy-3_h3_7_33"  />
</g>
<g id="a3_0034"  >
<polygon points="245,85 250,80 286,80 286,90 250,90 245,85 " style="fill:#15d815; stroke-width:1; stroke:black; " description="&lt;b&gt;GOP56_RS01530&lt;/b&gt;&lt;br&gt;amino acid adenylation domain-containing protein&lt;br&gt;Location: 367458 - 359893&lt;br&gt;&lt;br&gt;&lt;b&gt;BlastP hit with LLPMBPKK_00542&lt;/b&gt;&lt;br&gt;Percentage identity: 37&lt;br&gt;Percentage coverage: 84&lt;br&gt;BLAST bit score: 1586&lt;br&gt;E-value: 0.0&lt;br&gt;&lt;br&gt;&lt;b&gt;BlastP hit with LLPMBPKK_00543&lt;/b&gt;&lt;br&gt;Percentage identity: 42&lt;br&gt;Percentage coverage: 101&lt;br&gt;BLAST bit score: 1949&lt;br&gt;E-value: 0.0" locus_tag="GOP56_RS01530" class="clusterblast-orf" id="dummy-3_h3_7_34"  />
</g>
<g id="a3_0035"  >
<polygon points="287,85 292,80 353,80 353,90 292,90 287,85 " style="fill:#15d815; stroke-width:1; stroke:black; " description="&lt;b&gt;GOP56_RS01525&lt;/b&gt;&lt;br&gt;SDR family NAD(P)-dependent oxidoreductase&lt;br&gt;Location: 359877 - 347731&lt;br&gt;&lt;br&gt;&lt;b&gt;BlastP hit with LLPMBPKK_00544&lt;/b&gt;&lt;br&gt;Percentage identity: 33&lt;br&gt;Percentage coverage: 106&lt;br&gt;BLAST bit score: 2412&lt;br&gt;E-value: 0.0&lt;br&gt;&lt;br&gt;&lt;b&gt;BlastP hit with LLPMBPKK_00546&lt;/b&gt;&lt;br&gt;Percentage identity: 35&lt;br&gt;Percentage coverage: 41&lt;br&gt;BLAST bit score: 420&lt;br&gt;E-value: 4.61e-117&lt;br&gt;&lt;br&gt;&lt;b&gt;BlastP hit with LLPMBPKK_00547&lt;/b&gt;&lt;br&gt;Percentage identity: 35&lt;br&gt;Percentage coverage: 75&lt;br&gt;BLAST bit score: 1073&lt;br&gt;E-value: 0.0" locus_tag="GOP56_RS01525" class="clusterblast-orf" id="dummy-3_h3_7_35"  />
</g>
<g id="a3_0036"  >
<polygon points="353,85 358,80 476,80 476,90 358,90 353,85 " style="fill:#15d815; stroke-width:1; stroke:black; " description="&lt;b&gt;GOP56_RS01520&lt;/b&gt;&lt;br&gt;amino acid adenylation domain-containing protein&lt;br&gt;Location: 347709 - 325396&lt;br&gt;&lt;br&gt;&lt;b&gt;BlastP hit with LLPMBPKK_00545&lt;/b&gt;&lt;br&gt;Percentage identity: 41&lt;br&gt;Percentage coverage: 103&lt;br&gt;BLAST bit score: 5344&lt;br&gt;E-value: 0.0&lt;br&gt;&lt;br&gt;&lt;b&gt;BlastP hit with LLPMBPKK_00546&lt;/b&gt;&lt;br&gt;Percentage identity: 32&lt;br&gt;Percentage coverage: 48&lt;br&gt;BLAST bit score: 427&lt;br&gt;E-value: 2.84e-119&lt;br&gt;&lt;br&gt;&lt;b&gt;BlastP hit with LLPMBPKK_00547&lt;/b&gt;&lt;br&gt;Percentage identity: 34&lt;br&gt;Percentage coverage: 25&lt;br&gt;BLAST bit score: 396&lt;br&gt;E-value: 4.96e-108" locus_tag="GOP56_RS01520" class="clusterblast-orf" id="dummy-3_h3_7_36"  />
</g>
<g id="a3_0037"  >
<polygon points="476,85 481,80 575,80 575,90 481,90 476,85 " style="fill:#15d815; stroke-width:1; stroke:black; " description="&lt;b&gt;GOP56_RS01515&lt;/b&gt;&lt;br&gt;KR domain-containing protein&lt;br&gt;Location: 325376 - 307404&lt;br&gt;&lt;br&gt;&lt;b&gt;BlastP hit with LLPMBPKK_00546&lt;/b&gt;&lt;br&gt;Percentage identity: 42&lt;br&gt;Percentage coverage: 102&lt;br&gt;BLAST bit score: 1340&lt;br&gt;E-value: 0.0&lt;br&gt;&lt;br&gt;&lt;b&gt;BlastP hit with LLPMBPKK_00547&lt;/b&gt;&lt;br&gt;Percentage identity: 31&lt;br&gt;Percentage coverage: 125&lt;br&gt;BLAST bit score: 1338&lt;br&gt;E-value: 0.0" locus_tag="GOP56_RS01515" class="clusterblast-orf" id="dummy-3_h3_7_37"  />
</g>
<g id="a3_0038"  >
<polygon points="575,85 580,80 580,80 580,90 580,90 575,85 " style="fill:#1515d8; stroke-width:1; stroke:black; " description="&lt;b&gt;GOP56_RS01510&lt;/b&gt;&lt;br&gt;pentapeptide repeat-containing protein&lt;br&gt;Location: 307374 - 306490&lt;br&gt;&lt;br&gt;&lt;b&gt;BlastP hit with LLPMBPKK_00550&lt;/b&gt;&lt;br&gt;Percentage identity: 59&lt;br&gt;Percentage coverage: 64&lt;br&gt;BLAST bit score: 231&lt;br&gt;E-value: 3.51e-71" locus_tag="GOP56_RS01510" class="clusterblast-orf" id="dummy-3_h3_7_38"  />
</g>
<g id="a3_0039"  >
<polygon points="581,85 586,80 631,80 631,90 586,90 581,85 " style="fill:#15d815; stroke-width:1; stroke:black; " description="&lt;b&gt;GOP56_RS01505&lt;/b&gt;&lt;br&gt;amino acid adenylation domain-containing protein&lt;br&gt;Location: 306419 - 297276&lt;br&gt;&lt;br&gt;&lt;b&gt;BlastP hit with LLPMBPKK_00542&lt;/b&gt;&lt;br&gt;Percentage identity: 49&lt;br&gt;Percentage coverage: 100&lt;br&gt;BLAST bit score: 2840&lt;br&gt;E-value: 0.0&lt;br&gt;&lt;br&gt;&lt;b&gt;BlastP hit with LLPMBPKK_00543&lt;/b&gt;&lt;br&gt;Percentage identity: 39&lt;br&gt;Percentage coverage: 80&lt;br&gt;BLAST bit score: 1339&lt;br&gt;E-value: 0.0" locus_tag="GOP56_RS01505" class="clusterblast-orf" id="dummy-3_h3_7_39"  />
</g>
<g id="a3_0040"  >
<polygon points="631,85 636,80 636,80 636,90 636,90 631,85 " style="fill:#15d815; stroke-width:1; stroke:black; " description="&lt;b&gt;GOP56_RS01500&lt;/b&gt;&lt;br&gt;enoyl-CoA hydratase/isomerase&lt;br&gt;Location: 297198 - 296422&lt;br&gt;&lt;br&gt;&lt;b&gt;BlastP hit with LLPMBPKK_00538&lt;/b&gt;&lt;br&gt;Percentage identity: 47&lt;br&gt;Percentage coverage: 34&lt;br&gt;BLAST bit score: 229&lt;br&gt;E-value: 5.33e-68" locus_tag="GOP56_RS01500" class="clusterblast-orf" id="dummy-3_h3_7_40"  />
</g>
<g id="a3_0041"  >
<polygon points="636,85 641,80 643,80 643,90 641,90 636,85 " style="fill:#1577d8; stroke-width:1; stroke:black; " description="&lt;b&gt;GOP56_RS01495&lt;/b&gt;&lt;br&gt;hydroxymethylglutaryl-CoA synthase family protein&lt;br&gt;Location: 296422 - 295166&lt;br&gt;&lt;br&gt;&lt;b&gt;BlastP hit with LLPMBPKK_00539&lt;/b&gt;&lt;br&gt;Percentage identity: 63&lt;br&gt;Percentage coverage: 100&lt;br&gt;BLAST bit score: 550&lt;br&gt;E-value: 9.63e-195" locus_tag="GOP56_RS01495" class="clusterblast-orf" id="dummy-3_h3_7_41"  />
</g>
<g id="a3_0042"  >
<polygon points="643,85 648,80 649,80 649,90 648,90 643,85 " style="fill:#15d815; stroke-width:1; stroke:black; " description="&lt;b&gt;GOP56_RS01490&lt;/b&gt;&lt;br&gt;polyketide beta-ketoacyl:ACP synthase&lt;br&gt;Location: 295146 - 293917&lt;br&gt;&lt;br&gt;&lt;b&gt;BlastP hit with LLPMBPKK_00540&lt;/b&gt;&lt;br&gt;Percentage identity: 54&lt;br&gt;Percentage coverage: 97&lt;br&gt;BLAST bit score: 449&lt;br&gt;E-value: 4.33e-155" locus_tag="GOP56_RS01490" class="clusterblast-orf" id="dummy-3_h3_7_42"  />
</g>
<g id="a3_0043"  >
<polygon points="649,85 651,80 651,90 649,85 " style="fill:#d815d8; stroke-width:1; stroke:black; " description="&lt;b&gt;GOP56_RS01485&lt;/b&gt;&lt;br&gt;acyl carrier protein&lt;br&gt;Location: 293939 - 293691&lt;br&gt;&lt;br&gt;&lt;b&gt;BlastP hit with LLPMBPKK_00541&lt;/b&gt;&lt;br&gt;Percentage identity: 53&lt;br&gt;Percentage coverage: 90&lt;br&gt;BLAST bit score: 80&lt;br&gt;E-value: 1.52e-19" locus_tag="GOP56_RS01485" class="clusterblast-orf" id="dummy-3_h3_7_43"  />
</g>
<g id="a3_0044"  >
<polygon points="651,85 656,80 670,80 670,90 656,90 651,85 " style="fill:#15d815; stroke-width:1; stroke:black; " description="&lt;b&gt;GOP56_RS01480&lt;/b&gt;&lt;br&gt;ACP S-malonyltransferase&lt;br&gt;Location: 293698 - 290258&lt;br&gt;&lt;br&gt;&lt;b&gt;BlastP hit with LLPMBPKK_00537&lt;/b&gt;&lt;br&gt;Percentage identity: 48&lt;br&gt;Percentage coverage: 46&lt;br&gt;BLAST bit score: 265&lt;br&gt;E-value: 6.32e-75&lt;br&gt;&lt;br&gt;&lt;b&gt;BlastP hit with LLPMBPKK_00538&lt;/b&gt;&lt;br&gt;Percentage identity: 52&lt;br&gt;Percentage coverage: 59&lt;br&gt;BLAST bit score: 446&lt;br&gt;E-value: 3.26e-140" locus_tag="GOP56_RS01480" class="clusterblast-orf" id="dummy-3_h3_7_44"  />
</g>
<g id="a3_0045"  >
<polygon points="670,85 673,80 673,90 670,85 " style="fill:white; stroke-width:1; stroke:black; " description="&lt;b&gt;GOP56_RS01475&lt;/b&gt;&lt;br&gt;MBL fold metallo-hydrolase&lt;br&gt;Location: 290237 - 289569" locus_tag="GOP56_RS01475" class="clusterblast-orf" id="dummy-3_h3_7_45"  />
</g>
<g id="a3_0046"  >
<polygon points="674,85 678,80 678,90 674,85 " style="fill:white; stroke-width:1; stroke:black; " description="&lt;b&gt;GOP56_RS01470&lt;/b&gt;&lt;br&gt;4'-phosphopantetheinyl transferase superfamily protein&lt;br&gt;Location: 289435 - 288689" locus_tag="GOP56_RS01470" class="clusterblast-orf" id="dummy-3_h3_7_46"  />
</g>
<g id="a3_0047"  >
<polygon points="679,85 683,80 683,90 679,85 " style="fill:white; stroke-width:1; stroke:black; " description="&lt;b&gt;GOP56_RS01465&lt;/b&gt;&lt;br&gt;antiterminator LoaP&lt;br&gt;Location: 288489 - 287899" locus_tag="GOP56_RS01465" class="clusterblast-orf" id="dummy-3_h3_7_47"  />
</g>
<g id="a3_0048"  >
<polygon points="685,90 686,85 685,80 685,90 " style="fill:white; stroke-width:1; stroke:black; " description="&lt;b&gt;GOP56_RS01460&lt;/b&gt;&lt;br&gt;hypothetical protein&lt;br&gt;Location: 287445 - 287239" locus_tag="GOP56_RS01460" class="clusterblast-orf" id="dummy-3_h3_7_48"  />
</g>
<g id="a3_0049"  >
<polygon points="690,85 693,80 693,90 690,85 " style="fill:white; stroke-width:1; stroke:black; " description="&lt;b&gt;GOP56_RS01455&lt;/b&gt;&lt;br&gt;putative bacteriocin export ABC transporter&lt;br&gt;Location: 286578 - 285937" locus_tag="GOP56_RS01455" class="clusterblast-orf" id="dummy-3_h3_7_49"  />
</g>
<g id="a3_0050"  >
<polygon points="693,85 698,80 706,80 706,90 698,90 693,85 " style="fill:white; stroke-width:1; stroke:black; " description="&lt;b&gt;GOP56_RS01450&lt;/b&gt;&lt;br&gt;DUF1430 domain-containing protein&lt;br&gt;Location: 285931 - 283622" locus_tag="GOP56_RS01450" class="clusterblast-orf" id="dummy-3_h3_7_50"  />
</g>
<g id="a3_0051"  >
<polygon points="707,85 709,80 709,90 707,85 " style="fill:white; stroke-width:1; stroke:black; " description="&lt;b&gt;GOP56_RS01445&lt;/b&gt;&lt;br&gt;bacteriocin&lt;br&gt;Location: 283532 - 283167" locus_tag="GOP56_RS01445" class="clusterblast-orf" id="dummy-3_h3_7_51"  />
</g>
<g id="a3_0052"  >
<polygon points="709,85 711,80 711,90 709,85 " style="fill:white; stroke-width:1; stroke:black; " description="&lt;b&gt;GOP56_RS01440&lt;/b&gt;&lt;br&gt;winged helix-turn-helix domain-containing protein&lt;br&gt;Location: 283052 - 282702" locus_tag="GOP56_RS01440" class="clusterblast-orf" id="dummy-3_h3_7_52"  />
</g>
<g id="a3_0053"  >
<polygon points="715,90 715,85 715,80 715,90 " style="fill:white; stroke-width:1; stroke:black; " description="&lt;b&gt;GOP56_RS01435&lt;/b&gt;&lt;br&gt;hypothetical protein&lt;br&gt;Location: 282095 - 281958" locus_tag="GOP56_RS01435" class="clusterblast-orf" id="dummy-3_h3_7_53"  />
</g>
<g id="a3_0054"  >
<polygon points="721,85 722,80 722,90 721,85 " style="fill:white; stroke-width:1; stroke:black; " description="&lt;b&gt;GOP56_RS01430&lt;/b&gt;&lt;br&gt;hypothetical protein&lt;br&gt;Location: 280972 - 280736" locus_tag="GOP56_RS01430" class="clusterblast-orf" id="dummy-3_h3_7_54"  />
</g>
<g id="a3_0055"  >
<polygon points="727,90 729,85 727,80 727,90 " style="fill:white; stroke-width:1; stroke:black; " description="&lt;b&gt;GOP56_RS01425&lt;/b&gt;&lt;br&gt;hypothetical protein&lt;br&gt;Location: 279844 - 279380" locus_tag="GOP56_RS01425" class="clusterblast-orf" id="dummy-3_h3_7_55"  />
</g>
<g id="a3_0056"  >
<polygon points="730,85 732,80 732,90 730,85 " style="fill:white; stroke-width:1; stroke:black; " description="&lt;b&gt;GOP56_RS01420&lt;/b&gt;&lt;br&gt;hypothetical protein&lt;br&gt;Location: 279318 - 278881" locus_tag="GOP56_RS01420" class="clusterblast-orf" id="dummy-3_h3_7_56"  />
</g>
<g id="a3_0057"  >
<polygon points="733,85 737,80 737,90 733,85 " style="fill:white; stroke-width:1; stroke:black; " description="&lt;b&gt;GOP56_RS01415&lt;/b&gt;&lt;br&gt;YdcF family protein&lt;br&gt;Location: 278660 - 278097" locus_tag="GOP56_RS01415" class="clusterblast-orf" id="dummy-3_h3_7_57"  />
</g>
<g id="a3_0058"  >
<polygon points="739,90 742,90 747,85 742,80 739,80 739,90 " style="fill:white; stroke-width:1; stroke:black; " description="&lt;b&gt;GOP56_RS01410&lt;/b&gt;&lt;br&gt;hypothetical protein&lt;br&gt;Location: 277706 - 276264" locus_tag="GOP56_RS01410" class="clusterblast-orf" id="dummy-3_h3_7_58"  />
</g>
<g id="a3_0059"  >
<polygon points="752,90 753,90 758,85 753,80 752,80 752,90 " style="fill:white; stroke-width:1; stroke:black; " description="&lt;b&gt;GOP56_RS01405&lt;/b&gt;&lt;br&gt;winged helix-turn-helix domain-containing protein&lt;br&gt;Location: 275357 - 274134" locus_tag="GOP56_RS01405" class="clusterblast-orf" id="dummy-3_h3_7_59"  />
</g>
<g id="a3_0060"  >
<polygon points="762,90 766,85 762,80 762,90 " style="fill:white; stroke-width:1; stroke:black; " description="&lt;b&gt;GOP56_RS01400&lt;/b&gt;&lt;br&gt;hypothetical protein&lt;br&gt;Location: 273463 - 272661" locus_tag="GOP56_RS01400" class="clusterblast-orf" id="dummy-3_h3_7_60"  />
</g>
<g id="a3_0061"  >
<polygon points="767,90 769,85 767,80 767,90 " style="fill:white; stroke-width:1; stroke:black; " description="&lt;b&gt;GOP56_RS01395&lt;/b&gt;&lt;br&gt;hypothetical protein&lt;br&gt;Location: 272636 - 272253" locus_tag="GOP56_RS01395" class="clusterblast-orf" id="dummy-3_h3_7_61"  />
</g>
<g id="a3_0062"  >
<polygon points="773,85 774,80 774,90 773,85 " style="fill:white; stroke-width:1; stroke:black; " description="&lt;b&gt;GOP56_RS01390&lt;/b&gt;&lt;br&gt;hypothetical protein&lt;br&gt;Location: 271532 - 271314" locus_tag="GOP56_RS01390" class="clusterblast-orf" id="dummy-3_h3_7_62"  />
</g>
<g id="a3_0063"  >
<polygon points="774,85 778,80 778,90 774,85 " style="fill:white; stroke-width:1; stroke:black; " description="&lt;b&gt;GOP56_RS01385&lt;/b&gt;&lt;br&gt;hypothetical protein&lt;br&gt;Location: 271215 - 270583" locus_tag="GOP56_RS01385" class="clusterblast-orf" id="dummy-3_h3_7_63"  />
</g>
<g id="a3_0064"  >
<polygon points="778,85 780,80 780,90 778,85 " style="fill:white; stroke-width:1; stroke:black; " description="&lt;b&gt;GOP56_RS01380&lt;/b&gt;&lt;br&gt;hypothetical protein&lt;br&gt;Location: 270586 - 270284" locus_tag="GOP56_RS01380" class="clusterblast-orf" id="dummy-3_h3_7_64"  />
</g>
</svg>
