<svg xmlns="http://www.w3.org/2000/svg" xmlns:xlink="http://www.w3.org/1999/xlink" version="1.1" x="0" y="0" height="230" width="800" viewBox="0 0 800 230" preserveAspectRatio="none"  >
<g label="Query sequence" class="clusterblast-cluster"  >
<text x="5" y="20" class="clusterblast-acc"  >
Query sequence</text>
<line x1="10" y1="35" x2="778.0" y2="35" style="stroke-width:1; stroke:grey; "  />
<polygon points="0,40 29,40 34,35 29,30 0,30 0,40 " style="fill:white; stroke-width:1; stroke:black; " description="&lt;b&gt;LLPMBPKK_01488&lt;/b&gt;&lt;br&gt;AfsR-like regulator&lt;br&gt;Location: 1770624 - 1772943" locus_tag="LLPMBPKK_01488" class="clusterblast-orf" id="dummy-10_q0_0_all"  />
<polygon points="34,40 47,40 52,35 47,30 34,30 34,40 " style="fill:white; stroke-width:1; stroke:black; " description="&lt;b&gt;LLPMBPKK_01489&lt;/b&gt;&lt;br&gt;Radical SAM superfamily protein&lt;br&gt;Location: 1772939 - 1774100" locus_tag="LLPMBPKK_01489" class="clusterblast-orf" id="dummy-10_q1_0_all"  />
<polygon points="51,40 55,35 51,30 51,40 " style="fill:white; stroke-width:1; stroke:black; " description="&lt;b&gt;LLPMBPKK_01490&lt;/b&gt;&lt;br&gt;hypothetical protein&lt;br&gt;Location: 1774053 - 1774317" locus_tag="LLPMBPKK_01490" class="clusterblast-orf" id="dummy-10_q2_0_all"  />
<polygon points="55,35 60,30 64,30 64,40 60,40 55,35 " style="fill:#d81515; stroke-width:1; stroke:black; " description="&lt;b&gt;LLPMBPKK_01491&lt;/b&gt;&lt;br&gt;YigZ family protein&lt;br&gt;Location: 1774301 - 1774928" locus_tag="LLPMBPKK_01491" class="clusterblast-orf" id="dummy-10_q3_0_all"  />
<polygon points="65,35 70,30 73,30 73,40 70,40 65,35 " style="fill:#67d815; stroke-width:1; stroke:black; " description="&lt;b&gt;LLPMBPKK_01492&lt;/b&gt;&lt;br&gt;histidine phosphatase family protein&lt;br&gt;Location: 1774963 - 1775509" locus_tag="LLPMBPKK_01492" class="clusterblast-orf" id="dummy-10_q4_0_all"  />
<polygon points="73,35 78,30 87,30 87,40 78,40 73,35 " style="fill:#15b9d8; stroke-width:1; stroke:black; " description="&lt;b&gt;LLPMBPKK_01493&lt;/b&gt;&lt;br&gt;hypothetical protein&lt;br&gt;Location: 1775505 - 1776423" locus_tag="LLPMBPKK_01493" class="clusterblast-orf" id="dummy-10_q5_0_all"  />
<polygon points="89,40 90,40 95,35 90,30 89,30 89,40 " style="fill:#8615d8; stroke-width:1; stroke:black; " description="&lt;b&gt;LLPMBPKK_01494&lt;/b&gt;&lt;br&gt;CoA-binding domain-containing protein&lt;br&gt;Location: 1776564 - 1776972" locus_tag="LLPMBPKK_01494" class="clusterblast-orf" id="dummy-10_q6_0_all"  />
<polygon points="98,40 118,40 123,35 118,30 98,30 98,40 " style="fill:#d83415; stroke-width:1; stroke:black; " description="&lt;b&gt;LLPMBPKK_01495&lt;/b&gt;&lt;br&gt;APC family permease&lt;br&gt;Location: 1777198 - 1778833" locus_tag="LLPMBPKK_01495" class="clusterblast-orf" id="dummy-10_q7_0_all"  />
<polygon points="124,40 137,40 142,35 137,30 124,30 124,40 " style="fill:#49d815; stroke-width:1; stroke:black; " description="&lt;b&gt;LLPMBPKK_01496&lt;/b&gt;&lt;br&gt;4-hydroxybenzoate 3-monooxygenase&lt;br&gt;Location: 1778898 - 1780119" locus_tag="LLPMBPKK_01496" class="clusterblast-orf" id="dummy-10_q8_0_all"  />
<polygon points="142,35 147,30 147,30 147,40 147,40 142,35 " style="fill:#159bd8; stroke-width:1; stroke:black; " description="&lt;b&gt;LLPMBPKK_01497&lt;/b&gt;&lt;br&gt;regulatory protein&lt;br&gt;Location: 1780124 - 1780472" locus_tag="LLPMBPKK_01497" class="clusterblast-orf" id="dummy-10_q9_0_all"  />
<polygon points="148,40 159,40 164,35 159,30 148,30 148,40 " style="fill:#a515d8; stroke-width:1; stroke:black; " description="&lt;b&gt;LLPMBPKK_01498&lt;/b&gt;&lt;br&gt;cation transporter&lt;br&gt;Location: 1780545 - 1781577" locus_tag="LLPMBPKK_01498" class="clusterblast-orf" id="dummy-10_q10_0_all"  />
<polygon points="165,35 170,30 173,30 173,40 170,40 165,35 " style="fill:#d85315; stroke-width:1; stroke:black; " description="&lt;b&gt;LLPMBPKK_01499&lt;/b&gt;&lt;br&gt;YbaK-like protein&lt;br&gt;Location: 1781647 - 1782208" locus_tag="LLPMBPKK_01499" class="clusterblast-orf" id="dummy-10_q11_0_all"  />
<polygon points="174,35 179,30 182,30 182,40 179,40 174,35 " style="fill:#2ad815; stroke-width:1; stroke:black; " description="&lt;b&gt;LLPMBPKK_01500&lt;/b&gt;&lt;br&gt;XRE family transcriptional regulator&lt;br&gt;Location: 1782251 - 1782824" locus_tag="LLPMBPKK_01500" class="clusterblast-orf" id="dummy-10_q12_0_all"  />
<polygon points="184,40 192,40 197,35 192,30 184,30 184,40 " style="fill:#157cd8; stroke-width:1; stroke:black; " description="&lt;b&gt;LLPMBPKK_01501&lt;/b&gt;&lt;br&gt;DMT family transporter&lt;br&gt;Location: 1782933 - 1783791" locus_tag="LLPMBPKK_01501" class="clusterblast-orf" id="dummy-10_q13_0_all"  />
<polygon points="197,35 202,30 209,30 209,40 202,40 197,35 " style="fill:#c415d8; stroke-width:1; stroke:black; " description="&lt;b&gt;LLPMBPKK_01502&lt;/b&gt;&lt;br&gt;sugar acetyltransferase&lt;br&gt;Location: 1783812 - 1784577" locus_tag="LLPMBPKK_01502" class="clusterblast-orf" id="dummy-10_q14_0_all"  />
<polygon points="210,40 213,40 218,35 213,30 210,30 210,40 " style="fill:#d87215; stroke-width:1; stroke:black; " description="&lt;b&gt;LLPMBPKK_01503&lt;/b&gt;&lt;br&gt;siderophore binding protein&lt;br&gt;Location: 1784686 - 1785214" locus_tag="LLPMBPKK_01503" class="clusterblast-orf" id="dummy-10_q15_0_all"  />
<polygon points="218,35 223,30 228,30 228,40 223,40 218,35 " style="fill:#15d81f; stroke-width:1; stroke:black; " description="&lt;b&gt;LLPMBPKK_01504&lt;/b&gt;&lt;br&gt;DedA family protein&lt;br&gt;Location: 1785231 - 1785876" locus_tag="LLPMBPKK_01504" class="clusterblast-orf" id="dummy-10_q16_0_all"  />
<polygon points="232,40 243,40 248,35 243,30 232,30 232,40 " style="fill:#155dd8; stroke-width:1; stroke:black; " description="&lt;b&gt;LLPMBPKK_01505&lt;/b&gt;&lt;br&gt;flippase-like domain-containing protein&lt;br&gt;Location: 1786135 - 1787215" locus_tag="LLPMBPKK_01505" class="clusterblast-orf" id="dummy-10_q17_0_all"  />
<polygon points="249,35 254,30 265,30 265,40 254,40 249,35 " style="fill:#d815ce; stroke-width:1; stroke:black; " description="&lt;b&gt;LLPMBPKK_01506&lt;/b&gt;&lt;br&gt;class I SAM-dependent methyltransferase&lt;br&gt;Location: 1787237 - 1788320" locus_tag="LLPMBPKK_01506" class="clusterblast-orf" id="dummy-10_q18_0_all"  />
<polygon points="265,35 270,30 282,30 282,40 270,40 265,35 " style="fill:#d89015; stroke-width:1; stroke:black; " description="&lt;b&gt;LLPMBPKK_01507&lt;/b&gt;&lt;br&gt;glycosyltransferase&lt;br&gt;Location: 1788316 - 1789498" locus_tag="LLPMBPKK_01507" class="clusterblast-orf" id="dummy-10_q19_0_all"  />
<polygon points="282,35 287,30 294,30 294,40 287,40 282,35 " style="fill:#15d83e; stroke-width:1; stroke:black; " description="&lt;b&gt;LLPMBPKK_01508&lt;/b&gt;&lt;br&gt;alpha/beta hydrolase&lt;br&gt;Location: 1789494 - 1790295" locus_tag="LLPMBPKK_01508" class="clusterblast-orf" id="dummy-10_q20_0_all"  />
<polygon points="294,35 299,30 299,30 299,40 299,40 294,35 " style="fill:#153ed8; stroke-width:1; stroke:black; " description="&lt;b&gt;LLPMBPKK_01509&lt;/b&gt;&lt;br&gt;acyl carrier protein&lt;br&gt;Location: 1790298 - 1790619" locus_tag="LLPMBPKK_01509" class="clusterblast-orf" id="dummy-10_q21_0_all"  />
<polygon points="299,35 304,30 369,30 369,40 304,40 299,35 " style="fill:#d815af; stroke-width:1; stroke:black; " description="&lt;b&gt;LLPMBPKK_01510&lt;/b&gt;&lt;br&gt;type I polyketide synthase&lt;br&gt;Location: 1790615 - 1795274" locus_tag="LLPMBPKK_01510" class="clusterblast-orf" id="dummy-10_q22_0_all"  />
<polygon points="369,35 374,30 482,30 482,40 374,40 369,35 " style="fill:#d815af; stroke-width:1; stroke:black; " description="&lt;b&gt;LLPMBPKK_01511&lt;/b&gt;&lt;br&gt;hypothetical protein&lt;br&gt;Location: 1795275 - 1802793" locus_tag="LLPMBPKK_01511" class="clusterblast-orf" id="dummy-10_q23_0_all"  />
<polygon points="489,35 494,30 520,30 520,40 494,40 489,35 " style="fill:#d8af15; stroke-width:1; stroke:black; " description="&lt;b&gt;LLPMBPKK_01512&lt;/b&gt;&lt;br&gt;Ricin-type beta-trefoil lectin domain protein&lt;br&gt;Location: 1803271 - 1805356" locus_tag="LLPMBPKK_01512" class="clusterblast-orf" id="dummy-10_q24_0_all"  />
<polygon points="528,35 533,30 537,30 537,40 533,40 528,35 " style="fill:#15d85d; stroke-width:1; stroke:black; " description="&lt;b&gt;LLPMBPKK_01513&lt;/b&gt;&lt;br&gt;MFS transporter&lt;br&gt;Location: 1805884 - 1806463" locus_tag="LLPMBPKK_01513" class="clusterblast-orf" id="dummy-10_q25_0_all"  />
<polygon points="548,40 559,40 564,35 559,30 548,30 548,40 " style="fill:#151fd8; stroke-width:1; stroke:black; " description="&lt;b&gt;LLPMBPKK_01514&lt;/b&gt;&lt;br&gt;helix-turn-helix domain-containing protein&lt;br&gt;Location: 1807237 - 1808275" locus_tag="LLPMBPKK_01514" class="clusterblast-orf" id="dummy-10_q26_0_all"  />
<polygon points="564,35 569,30 578,30 578,40 569,40 564,35 " style="fill:#d81590; stroke-width:1; stroke:black; " description="&lt;b&gt;LLPMBPKK_01515&lt;/b&gt;&lt;br&gt;ectoine hydroxylase&lt;br&gt;Location: 1808329 - 1809220" locus_tag="LLPMBPKK_01515" class="clusterblast-orf" id="dummy-10_q27_0_all"  />
<polygon points="578,35 583,30 586,30 586,40 583,40 578,35 " style="fill:#d8ce15; stroke-width:1; stroke:black; " description="&lt;b&gt;LLPMBPKK_01516&lt;/b&gt;&lt;br&gt;L-2,4-diaminobutyric acid acetyltransferase&lt;br&gt;Location: 1809216 - 1809768" locus_tag="LLPMBPKK_01516" class="clusterblast-orf" id="dummy-10_q28_0_all"  />
<polygon points="586,35 591,30 592,30 592,40 591,40 586,35 " style="fill:#15d87c; stroke-width:1; stroke:black; " description="&lt;b&gt;LLPMBPKK_01517&lt;/b&gt;&lt;br&gt;L-ectoine synthase&lt;br&gt;Location: 1809769 - 1810174" locus_tag="LLPMBPKK_01517" class="clusterblast-orf" id="dummy-10_q29_0_all"  />
<polygon points="594,35 599,30 604,30 604,40 599,40 594,35 " style="fill:#2a15d8; stroke-width:1; stroke:black; " description="&lt;b&gt;LLPMBPKK_01518&lt;/b&gt;&lt;br&gt;diaminobutyrate--2-oxoglutarate transaminase&lt;br&gt;Location: 1810283 - 1810940" locus_tag="LLPMBPKK_01518" class="clusterblast-orf" id="dummy-10_q30_0_all"  />
<polygon points="613,35 617,30 617,40 613,35 " style="fill:#d81572; stroke-width:1; stroke:black; " description="&lt;b&gt;LLPMBPKK_01519&lt;/b&gt;&lt;br&gt;acyl carrier protein&lt;br&gt;Location: 1811552 - 1811816" locus_tag="LLPMBPKK_01519" class="clusterblast-orf" id="dummy-10_q31_0_all"  />
<polygon points="617,35 622,30 640,30 640,40 622,40 617,35 " style="fill:#c4d815; stroke-width:1; stroke:black; " description="&lt;b&gt;LLPMBPKK_01520&lt;/b&gt;&lt;br&gt;AMP-dependent synthetase&lt;br&gt;Location: 1811835 - 1813365" locus_tag="LLPMBPKK_01520" class="clusterblast-orf" id="dummy-10_q32_0_all"  />
<polygon points="640,35 645,30 656,30 656,40 645,40 640,35 " style="fill:#15d89b; stroke-width:1; stroke:black; " description="&lt;b&gt;LLPMBPKK_01521&lt;/b&gt;&lt;br&gt;4'-phosphopantetheinyl transferase superfamilyprotein&lt;br&gt;Location: 1813364 - 1814426" locus_tag="LLPMBPKK_01521" class="clusterblast-orf" id="dummy-10_q33_0_all"  />
<polygon points="656,35 661,30 675,30 675,40 661,40 656,35 " style="fill:#4915d8; stroke-width:1; stroke:black; " description="&lt;b&gt;LLPMBPKK_01522&lt;/b&gt;&lt;br&gt;diaminopimelate decarboxylase&lt;br&gt;Location: 1814422 - 1815715" locus_tag="LLPMBPKK_01522" class="clusterblast-orf" id="dummy-10_q34_0_all"  />
<polygon points="675,35 678,30 678,40 675,35 " style="fill:white; stroke-width:1; stroke:black; " description="&lt;b&gt;LLPMBPKK_01523&lt;/b&gt;&lt;br&gt;hypothetical protein&lt;br&gt;Location: 1815711 - 1815888" locus_tag="LLPMBPKK_01523" class="clusterblast-orf" id="dummy-10_q35_0_all"  />
<polygon points="679,35 684,30 684,30 684,40 684,40 679,35 " style="fill:#d81553; stroke-width:1; stroke:black; " description="&lt;b&gt;LLPMBPKK_01524&lt;/b&gt;&lt;br&gt;hypothetical protein&lt;br&gt;Location: 1815987 - 1816305" locus_tag="LLPMBPKK_01524" class="clusterblast-orf" id="dummy-10_q36_0_all"  />
<polygon points="687,35 692,30 701,30 701,40 692,40 687,35 " style="fill:#a5d815; stroke-width:1; stroke:black; " description="&lt;b&gt;LLPMBPKK_01525&lt;/b&gt;&lt;br&gt;response regulator transcription factor&lt;br&gt;Location: 1816477 - 1817470" locus_tag="LLPMBPKK_01525" class="clusterblast-orf" id="dummy-10_q37_0_all"  />
<polygon points="704,35 709,30 712,30 712,40 709,40 704,35 " style="fill:#15d8b9; stroke-width:1; stroke:black; " description="&lt;b&gt;LLPMBPKK_01526&lt;/b&gt;&lt;br&gt;hypothetical protein&lt;br&gt;Location: 1817672 - 1818152" locus_tag="LLPMBPKK_01526" class="clusterblast-orf" id="dummy-10_q38_0_all"  />
<polygon points="712,40 723,40 728,35 723,30 712,30 712,40 " style="fill:#6715d8; stroke-width:1; stroke:black; " description="&lt;b&gt;LLPMBPKK_01527&lt;/b&gt;&lt;br&gt;membrane protein&lt;br&gt;Location: 1818196 - 1819267" locus_tag="LLPMBPKK_01527" class="clusterblast-orf" id="dummy-10_q39_0_all"  />
<polygon points="729,40 743,40 748,35 743,30 729,30 729,40 " style="fill:#d81534; stroke-width:1; stroke:black; " description="&lt;b&gt;LLPMBPKK_01528&lt;/b&gt;&lt;br&gt;MFS transporter&lt;br&gt;Location: 1819316 - 1820615" locus_tag="LLPMBPKK_01528" class="clusterblast-orf" id="dummy-10_q40_0_all"  />
<polygon points="748,35 753,30 761,30 761,40 753,40 748,35 " style="fill:#86d815; stroke-width:1; stroke:black; " description="&lt;b&gt;LLPMBPKK_01529&lt;/b&gt;&lt;br&gt;spermidine synthase-like protein&lt;br&gt;Location: 1820576 - 1821422" locus_tag="LLPMBPKK_01529" class="clusterblast-orf" id="dummy-10_q41_0_all"  />
<polygon points="762,35 767,30 780,30 780,40 767,40 762,35 " style="fill:#15d8d8; stroke-width:1; stroke:black; " description="&lt;b&gt;LLPMBPKK_01530&lt;/b&gt;&lt;br&gt;elongation factor Tu&lt;br&gt;Location: 1821525 - 1822695" locus_tag="LLPMBPKK_01530" class="clusterblast-orf" id="dummy-10_q42_0_all"  />
</g>
<g label="NZ_MQUS01000004" description="NZ_MQUS01000004 (278363-330274): Streptomyces sp. IMTB 2501 IMTB 2501 contig ... (68% of genes show similarity), T1PKS,hglE-KS" class="clusterblast-cluster"  >
<text x="5" y="70" class="clusterblast-acc"  >
<a xlink:href="https://antismash-db.secondarymetabolites.org/area.html?record=NZ_MQUS01000004&amp;start=278363&amp;end=330274" target="_blank">NZ_MQUS01000004 (278363-330274)</a>: Streptomyces sp. IMTB 2501 IMTB 2501 contig ... (68% of genes show similarity), T1PKS,hglE-KS</text>
<line x1="10" y1="85" x2="778.0" y2="85" style="stroke-width:1; stroke:grey; "  />
</g>
<g id="a10_000"  >
<polygon points="28,85 33,80 46,80 46,90 33,90 28,85 " style="fill:white; stroke-width:1; stroke:black; " description="&lt;b&gt;AV521_RS09775&lt;/b&gt;&lt;br&gt;exonuclease SbcCD subunit D&lt;br&gt;Location: 280479 - 281642" locus_tag="AV521_RS09775" class="clusterblast-orf" id="dummy-10_h10_3_0"  />
</g>
<g id="a10_001"  >
<polygon points="47,85 52,80 57,80 57,90 52,90 47,85 " style="fill:#d81515; stroke-width:1; stroke:black; " description="&lt;b&gt;AV521_RS09780&lt;/b&gt;&lt;br&gt;YigZ family protein&lt;br&gt;Location: 281750 - 282379&lt;br&gt;&lt;br&gt;&lt;b&gt;BlastP hit with LLPMBPKK_01491&lt;/b&gt;&lt;br&gt;Percentage identity: 95&lt;br&gt;Percentage coverage: 100&lt;br&gt;BLAST bit score: 385&lt;br&gt;E-value: 2.6e-136" locus_tag="AV521_RS09780" class="clusterblast-orf" id="dummy-10_h10_3_1"  />
</g>
<g id="a10_002"  >
<polygon points="58,85 63,80 66,80 66,90 63,90 58,85 " style="fill:#67d815; stroke-width:1; stroke:black; " description="&lt;b&gt;AV521_RS09785&lt;/b&gt;&lt;br&gt;histidine phosphatase family protein&lt;br&gt;Location: 282425 - 282967&lt;br&gt;&lt;br&gt;&lt;b&gt;BlastP hit with LLPMBPKK_01492&lt;/b&gt;&lt;br&gt;Percentage identity: 84&lt;br&gt;Percentage coverage: 97&lt;br&gt;BLAST bit score: 291&lt;br&gt;E-value: 4.87e-100" locus_tag="AV521_RS09785" class="clusterblast-orf" id="dummy-10_h10_3_2"  />
</g>
<g id="a10_003"  >
<polygon points="66,85 71,80 71,80 71,90 71,90 66,85 " style="fill:#15b9d8; stroke-width:1; stroke:black; " description="&lt;b&gt;AV521_RS09790&lt;/b&gt;&lt;br&gt;hypothetical protein&lt;br&gt;Location: 282964 - 283326&lt;br&gt;&lt;br&gt;&lt;b&gt;BlastP hit with LLPMBPKK_01493&lt;/b&gt;&lt;br&gt;Percentage identity: 75&lt;br&gt;Percentage coverage: 39&lt;br&gt;BLAST bit score: 165&lt;br&gt;E-value: 2.28e-49" locus_tag="AV521_RS09790" class="clusterblast-orf" id="dummy-10_h10_3_3"  />
</g>
<g id="a10_004"  >
<polygon points="75,85 80,80 80,80 80,90 80,90 75,85 " style="fill:#15b9d8; stroke-width:1; stroke:black; " description="&lt;b&gt;AV521_RS09795&lt;/b&gt;&lt;br&gt;hypothetical protein&lt;br&gt;Location: 283621 - 283920&lt;br&gt;&lt;br&gt;&lt;b&gt;BlastP hit with LLPMBPKK_01493&lt;/b&gt;&lt;br&gt;Percentage identity: 82&lt;br&gt;Percentage coverage: 33&lt;br&gt;BLAST bit score: 165&lt;br&gt;E-value: 8.65e-50" locus_tag="AV521_RS09795" class="clusterblast-orf" id="dummy-10_h10_3_4"  />
</g>
<g id="a10_005"  >
<polygon points="82,90 83,90 88,85 83,80 82,80 82,90 " style="fill:#8615d8; stroke-width:1; stroke:black; " description="&lt;b&gt;AV521_RS09800&lt;/b&gt;&lt;br&gt;CoA-binding protein&lt;br&gt;Location: 284067 - 284474&lt;br&gt;&lt;br&gt;&lt;b&gt;BlastP hit with LLPMBPKK_01494&lt;/b&gt;&lt;br&gt;Percentage identity: 87&lt;br&gt;Percentage coverage: 100&lt;br&gt;BLAST bit score: 236&lt;br&gt;E-value: 7.29e-80" locus_tag="AV521_RS09800" class="clusterblast-orf" id="dummy-10_h10_3_5"  />
</g>
<g id="a10_006"  >
<polygon points="92,90 111,90 116,85 111,80 92,80 92,90 " style="fill:#d83415; stroke-width:1; stroke:black; " description="&lt;b&gt;AV521_RS09805&lt;/b&gt;&lt;br&gt;APC family permease&lt;br&gt;Location: 284702 - 286342&lt;br&gt;&lt;br&gt;&lt;b&gt;BlastP hit with LLPMBPKK_01495&lt;/b&gt;&lt;br&gt;Percentage identity: 84&lt;br&gt;Percentage coverage: 100&lt;br&gt;BLAST bit score: 927&lt;br&gt;E-value: 0.0" locus_tag="AV521_RS09805" class="clusterblast-orf" id="dummy-10_h10_3_6"  />
</g>
<g id="a10_007"  >
<polygon points="117,90 131,90 136,85 131,80 117,80 117,90 " style="fill:#49d815; stroke-width:1; stroke:black; " description="&lt;b&gt;AV521_RS09810&lt;/b&gt;&lt;br&gt;4-hydroxybenzoate 3-monooxygenase&lt;br&gt;Location: 286420 - 287649&lt;br&gt;&lt;br&gt;&lt;b&gt;BlastP hit with LLPMBPKK_01496&lt;/b&gt;&lt;br&gt;Percentage identity: 77&lt;br&gt;Percentage coverage: 100&lt;br&gt;BLAST bit score: 625&lt;br&gt;E-value: 6.19e-225" locus_tag="AV521_RS09810" class="clusterblast-orf" id="dummy-10_h10_3_7"  />
</g>
<g id="a10_008"  >
<polygon points="136,85 141,80 141,80 141,90 141,90 136,85 " style="fill:#159bd8; stroke-width:1; stroke:black; " description="&lt;b&gt;AV521_RS09815&lt;/b&gt;&lt;br&gt;helix-turn-helix transcriptional regulator&lt;br&gt;Location: 287643 - 287993&lt;br&gt;&lt;br&gt;&lt;b&gt;BlastP hit with LLPMBPKK_01497&lt;/b&gt;&lt;br&gt;Percentage identity: 86&lt;br&gt;Percentage coverage: 96&lt;br&gt;BLAST bit score: 186&lt;br&gt;E-value: 8.1e-61" locus_tag="AV521_RS09815" class="clusterblast-orf" id="dummy-10_h10_3_8"  />
</g>
<g id="a10_009"  >
<polygon points="142,90 155,90 160,85 155,80 142,80 142,90 " style="fill:#a515d8; stroke-width:1; stroke:black; " description="&lt;b&gt;AV521_RS09820&lt;/b&gt;&lt;br&gt;cation transporter&lt;br&gt;Location: 288068 - 289237&lt;br&gt;&lt;br&gt;&lt;b&gt;BlastP hit with LLPMBPKK_01498&lt;/b&gt;&lt;br&gt;Percentage identity: 88&lt;br&gt;Percentage coverage: 94&lt;br&gt;BLAST bit score: 529&lt;br&gt;E-value: 2.81e-188" locus_tag="AV521_RS09820" class="clusterblast-orf" id="dummy-10_h10_3_9"  />
</g>
<g id="a10_0010"  >
<polygon points="160,85 165,80 168,80 168,90 165,90 160,85 " style="fill:#d85315; stroke-width:1; stroke:black; " description="&lt;b&gt;AV521_RS09825&lt;/b&gt;&lt;br&gt;YbaK/EbsC family protein&lt;br&gt;Location: 289240 - 289797&lt;br&gt;&lt;br&gt;&lt;b&gt;BlastP hit with LLPMBPKK_01499&lt;/b&gt;&lt;br&gt;Percentage identity: 85&lt;br&gt;Percentage coverage: 98&lt;br&gt;BLAST bit score: 322&lt;br&gt;E-value: 3.21e-112" locus_tag="AV521_RS09825" class="clusterblast-orf" id="dummy-10_h10_3_10"  />
</g>
<g id="a10_0011"  >
<polygon points="168,85 173,80 177,80 177,90 173,90 168,85 " style="fill:#2ad815; stroke-width:1; stroke:black; " description="&lt;b&gt;AV521_RS09830&lt;/b&gt;&lt;br&gt;helix-turn-helix transcriptional regulator&lt;br&gt;Location: 289830 - 290402&lt;br&gt;&lt;br&gt;&lt;b&gt;BlastP hit with LLPMBPKK_01500&lt;/b&gt;&lt;br&gt;Percentage identity: 87&lt;br&gt;Percentage coverage: 99&lt;br&gt;BLAST bit score: 337&lt;br&gt;E-value: 5.11e-118" locus_tag="AV521_RS09830" class="clusterblast-orf" id="dummy-10_h10_3_11"  />
</g>
<g id="a10_0012"  >
<polygon points="179,90 186,90 191,85 186,80 179,80 179,90 " style="fill:#157cd8; stroke-width:1; stroke:black; " description="&lt;b&gt;AV521_RS09835&lt;/b&gt;&lt;br&gt;DMT family transporter&lt;br&gt;Location: 290510 - 291367&lt;br&gt;&lt;br&gt;&lt;b&gt;BlastP hit with LLPMBPKK_01501&lt;/b&gt;&lt;br&gt;Percentage identity: 92&lt;br&gt;Percentage coverage: 100&lt;br&gt;BLAST bit score: 457&lt;br&gt;E-value: 1.97e-162" locus_tag="AV521_RS09835" class="clusterblast-orf" id="dummy-10_h10_3_12"  />
</g>
<g id="a10_0013"  >
<polygon points="193,85 198,80 205,80 205,90 198,90 193,85 " style="fill:#c415d8; stroke-width:1; stroke:black; " description="&lt;b&gt;AV521_RS09840&lt;/b&gt;&lt;br&gt;acyltransferase&lt;br&gt;Location: 291495 - 292259&lt;br&gt;&lt;br&gt;&lt;b&gt;BlastP hit with LLPMBPKK_01502&lt;/b&gt;&lt;br&gt;Percentage identity: 89&lt;br&gt;Percentage coverage: 100&lt;br&gt;BLAST bit score: 470&lt;br&gt;E-value: 1.22e-168" locus_tag="AV521_RS09840" class="clusterblast-orf" id="dummy-10_h10_3_13"  />
</g>
<g id="a10_0014"  >
<polygon points="206,90 209,90 214,85 209,80 206,80 206,90 " style="fill:#d87215; stroke-width:1; stroke:black; " description="&lt;b&gt;AV521_RS09845&lt;/b&gt;&lt;br&gt;gamma carbonic anhydrase family protein&lt;br&gt;Location: 292369 - 292899&lt;br&gt;&lt;br&gt;&lt;b&gt;BlastP hit with LLPMBPKK_01503&lt;/b&gt;&lt;br&gt;Percentage identity: 90&lt;br&gt;Percentage coverage: 100&lt;br&gt;BLAST bit score: 273&lt;br&gt;E-value: 2.4e-93" locus_tag="AV521_RS09845" class="clusterblast-orf" id="dummy-10_h10_3_14"  />
</g>
<g id="a10_0015"  >
<polygon points="215,85 220,80 224,80 224,90 220,90 215,85 " style="fill:#15d81f; stroke-width:1; stroke:black; " description="&lt;b&gt;AV521_RS09850&lt;/b&gt;&lt;br&gt;DedA family protein&lt;br&gt;Location: 292906 - 293553&lt;br&gt;&lt;br&gt;&lt;b&gt;BlastP hit with LLPMBPKK_01504&lt;/b&gt;&lt;br&gt;Percentage identity: 89&lt;br&gt;Percentage coverage: 100&lt;br&gt;BLAST bit score: 386&lt;br&gt;E-value: 1.43e-136" locus_tag="AV521_RS09850" class="clusterblast-orf" id="dummy-10_h10_3_15"  />
</g>
<g id="a10_0016"  >
<polygon points="229,90 238,90 243,85 238,80 229,80 229,90 " style="fill:#155dd8; stroke-width:1; stroke:black; " description="&lt;b&gt;AV521_RS09855&lt;/b&gt;&lt;br&gt;flippase-like domain-containing protein&lt;br&gt;Location: 293900 - 294832&lt;br&gt;&lt;br&gt;&lt;b&gt;BlastP hit with LLPMBPKK_01505&lt;/b&gt;&lt;br&gt;Percentage identity: 80&lt;br&gt;Percentage coverage: 86&lt;br&gt;BLAST bit score: 466&lt;br&gt;E-value: 2.72e-164" locus_tag="AV521_RS09855" class="clusterblast-orf" id="dummy-10_h10_3_16"  />
</g>
<g id="a10_0017"  >
<polygon points="245,85 250,80 262,80 262,90 250,90 245,85 " style="fill:#d815ce; stroke-width:1; stroke:black; " description="&lt;b&gt;AV521_RS09860&lt;/b&gt;&lt;br&gt;class I SAM-dependent methyltransferase&lt;br&gt;Location: 294965 - 296059&lt;br&gt;&lt;br&gt;&lt;b&gt;BlastP hit with LLPMBPKK_01506&lt;/b&gt;&lt;br&gt;Percentage identity: 88&lt;br&gt;Percentage coverage: 97&lt;br&gt;BLAST bit score: 646&lt;br&gt;E-value: 1.13e-234" locus_tag="AV521_RS09860" class="clusterblast-orf" id="dummy-10_h10_3_17"  />
</g>
<g id="a10_0018"  >
<polygon points="262,85 267,80 280,80 280,90 267,90 262,85 " style="fill:#d89015; stroke-width:1; stroke:black; " description="&lt;b&gt;AV521_RS09865&lt;/b&gt;&lt;br&gt;glycosyltransferase family 1 protein&lt;br&gt;Location: 296056 - 297246&lt;br&gt;&lt;br&gt;&lt;b&gt;BlastP hit with LLPMBPKK_01507&lt;/b&gt;&lt;br&gt;Percentage identity: 86&lt;br&gt;Percentage coverage: 99&lt;br&gt;BLAST bit score: 644&lt;br&gt;E-value: 1.13e-232" locus_tag="AV521_RS09865" class="clusterblast-orf" id="dummy-10_h10_3_18"  />
</g>
<g id="a10_0019"  >
<polygon points="279,85 284,80 291,80 291,90 284,90 279,85 " style="fill:#15d83e; stroke-width:1; stroke:black; " description="&lt;b&gt;AV521_RS09870&lt;/b&gt;&lt;br&gt;alpha/beta hydrolase&lt;br&gt;Location: 297243 - 298043&lt;br&gt;&lt;br&gt;&lt;b&gt;BlastP hit with LLPMBPKK_01508&lt;/b&gt;&lt;br&gt;Percentage identity: 89&lt;br&gt;Percentage coverage: 100&lt;br&gt;BLAST bit score: 464&lt;br&gt;E-value: 5.91e-166" locus_tag="AV521_RS09870" class="clusterblast-orf" id="dummy-10_h10_3_19"  />
</g>
<g id="a10_0020"  >
<polygon points="292,85 296,80 296,90 292,85 " style="fill:#153ed8; stroke-width:1; stroke:black; " description="&lt;b&gt;AV521_RS09875&lt;/b&gt;&lt;br&gt;acyl carrier protein&lt;br&gt;Location: 298047 - 298367&lt;br&gt;&lt;br&gt;&lt;b&gt;BlastP hit with LLPMBPKK_01509&lt;/b&gt;&lt;br&gt;Percentage identity: 92&lt;br&gt;Percentage coverage: 100&lt;br&gt;BLAST bit score: 192&lt;br&gt;E-value: 1.48e-63" locus_tag="AV521_RS09875" class="clusterblast-orf" id="dummy-10_h10_3_20"  />
</g>
<g id="a10_0021"  >
<polygon points="296,85 301,80 368,80 368,90 301,90 296,85 " style="fill:#d815af; stroke-width:1; stroke:black; " description="&lt;b&gt;AV521_RS09880&lt;/b&gt;&lt;br&gt;type I polyketide synthase&lt;br&gt;Location: 298364 - 303139&lt;br&gt;&lt;br&gt;&lt;b&gt;BlastP hit with LLPMBPKK_01510&lt;/b&gt;&lt;br&gt;Percentage identity: 80&lt;br&gt;Percentage coverage: 100&lt;br&gt;BLAST bit score: 2353&lt;br&gt;E-value: 0.0&lt;br&gt;&lt;br&gt;&lt;b&gt;BlastP hit with LLPMBPKK_01511&lt;/b&gt;&lt;br&gt;Percentage identity: 37&lt;br&gt;Percentage coverage: 40&lt;br&gt;BLAST bit score: 414&lt;br&gt;E-value: 3.36e-116" locus_tag="AV521_RS09880" class="clusterblast-orf" id="dummy-10_h10_3_21"  />
</g>
<g id="a10_0022"  >
<polygon points="368,85 373,80 475,80 475,90 373,90 368,85 " style="fill:#d815af; stroke-width:1; stroke:black; " description="&lt;b&gt;AV521_RS09885&lt;/b&gt;&lt;br&gt;type I polyketide synthase&lt;br&gt;Location: 303141 - 310274&lt;br&gt;&lt;br&gt;&lt;b&gt;BlastP hit with LLPMBPKK_01510&lt;/b&gt;&lt;br&gt;Percentage identity: 38&lt;br&gt;Percentage coverage: 60&lt;br&gt;BLAST bit score: 421&lt;br&gt;E-value: 4.99e-119&lt;br&gt;&lt;br&gt;&lt;b&gt;BlastP hit with LLPMBPKK_01511&lt;/b&gt;&lt;br&gt;Percentage identity: 75&lt;br&gt;Percentage coverage: 101&lt;br&gt;BLAST bit score: 3343&lt;br&gt;E-value: 0.0" locus_tag="AV521_RS09885" class="clusterblast-orf" id="dummy-10_h10_3_22"  />
</g>
<g id="a10_0023"  >
<polygon points="481,85 486,80 512,80 512,90 486,90 481,85 " style="fill:#d8af15; stroke-width:1; stroke:black; " description="&lt;b&gt;AV521_RS46470&lt;/b&gt;&lt;br&gt;ricin-type beta-trefoil lectin domain protein&lt;br&gt;Location: 310664 - 312739&lt;br&gt;&lt;br&gt;&lt;b&gt;BlastP hit with LLPMBPKK_01512&lt;/b&gt;&lt;br&gt;Percentage identity: 66&lt;br&gt;Percentage coverage: 79&lt;br&gt;BLAST bit score: 631&lt;br&gt;E-value: 4.26e-218" locus_tag="AV521_RS46470" class="clusterblast-orf" id="dummy-10_h10_3_23"  />
</g>
<g id="a10_0024"  >
<polygon points="515,90 524,90 529,85 524,80 515,80 515,90 " style="fill:white; stroke-width:1; stroke:black; " description="&lt;b&gt;AV521_RS09900&lt;/b&gt;&lt;br&gt;UTP--glucose-1-phosphate uridylyltransferase GalU&lt;br&gt;Location: 312952 - 313905" locus_tag="AV521_RS09900" class="clusterblast-orf" id="dummy-10_h10_3_24"  />
</g>
<g id="a10_0025"  >
<polygon points="533,85 538,80 545,80 545,90 538,90 533,85 " style="fill:white; stroke-width:1; stroke:black; " description="&lt;b&gt;AV521_RS09905&lt;/b&gt;&lt;br&gt;type I methionyl aminopeptidase&lt;br&gt;Location: 314176 - 314994" locus_tag="AV521_RS09905" class="clusterblast-orf" id="dummy-10_h10_3_25"  />
</g>
<g id="a10_0026"  >
<polygon points="547,90 551,85 547,80 547,90 " style="fill:white; stroke-width:1; stroke:black; " description="&lt;b&gt;AV521_RS09910&lt;/b&gt;&lt;br&gt;helix-turn-helix transcriptional regulator&lt;br&gt;Location: 315088 - 315384" locus_tag="AV521_RS09910" class="clusterblast-orf" id="dummy-10_h10_3_26"  />
</g>
<g id="a10_0027"  >
<polygon points="557,85 562,80 564,80 564,90 562,90 557,85 " style="fill:#15d8b9; stroke-width:1; stroke:black; " description="&lt;b&gt;AV521_RS09915&lt;/b&gt;&lt;br&gt;DUF4442 domain-containing protein&lt;br&gt;Location: 315768 - 316220&lt;br&gt;&lt;br&gt;&lt;b&gt;BlastP hit with LLPMBPKK_01526&lt;/b&gt;&lt;br&gt;Percentage identity: 80&lt;br&gt;Percentage coverage: 92&lt;br&gt;BLAST bit score: 228&lt;br&gt;E-value: 3.51e-76" locus_tag="AV521_RS09915" class="clusterblast-orf" id="dummy-10_h10_3_27"  />
</g>
<g id="a10_0028"  >
<polygon points="566,90 578,90 583,85 578,80 566,80 566,90 " style="fill:#6715d8; stroke-width:1; stroke:black; " description="&lt;b&gt;AV521_RS09920&lt;/b&gt;&lt;br&gt;hypothetical protein&lt;br&gt;Location: 316382 - 317476&lt;br&gt;&lt;br&gt;&lt;b&gt;BlastP hit with LLPMBPKK_01527&lt;/b&gt;&lt;br&gt;Percentage identity: 42&lt;br&gt;Percentage coverage: 106&lt;br&gt;BLAST bit score: 192&lt;br&gt;E-value: 4.57e-56" locus_tag="AV521_RS09920" class="clusterblast-orf" id="dummy-10_h10_3_28"  />
</g>
<g id="a10_0029"  >
<polygon points="584,90 599,90 604,85 599,80 584,80 584,90 " style="fill:#d81534; stroke-width:1; stroke:black; " description="&lt;b&gt;AV521_RS09925&lt;/b&gt;&lt;br&gt;MFS transporter&lt;br&gt;Location: 317582 - 318877&lt;br&gt;&lt;br&gt;&lt;b&gt;BlastP hit with LLPMBPKK_01528&lt;/b&gt;&lt;br&gt;Percentage identity: 86&lt;br&gt;Percentage coverage: 100&lt;br&gt;BLAST bit score: 674&lt;br&gt;E-value: 3.62e-243" locus_tag="AV521_RS09925" class="clusterblast-orf" id="dummy-10_h10_3_29"  />
</g>
<g id="a10_0030"  >
<polygon points="603,85 608,80 616,80 616,90 608,90 603,85 " style="fill:#86d815; stroke-width:1; stroke:black; " description="&lt;b&gt;AV521_RS09930&lt;/b&gt;&lt;br&gt;fused MFS/spermidine synthase&lt;br&gt;Location: 318839 - 319684&lt;br&gt;&lt;br&gt;&lt;b&gt;BlastP hit with LLPMBPKK_01529&lt;/b&gt;&lt;br&gt;Percentage identity: 85&lt;br&gt;Percentage coverage: 100&lt;br&gt;BLAST bit score: 468&lt;br&gt;E-value: 5.55e-167" locus_tag="AV521_RS09930" class="clusterblast-orf" id="dummy-10_h10_3_30"  />
</g>
<g id="a10_0031"  >
<polygon points="618,85 623,80 635,80 635,90 623,90 618,85 " style="fill:#15d8d8; stroke-width:1; stroke:black; " description="&lt;b&gt;AV521_RS09935&lt;/b&gt;&lt;br&gt;elongation factor Tu&lt;br&gt;Location: 319825 - 321000&lt;br&gt;&lt;br&gt;&lt;b&gt;BlastP hit with LLPMBPKK_01530&lt;/b&gt;&lt;br&gt;Percentage identity: 92&lt;br&gt;Percentage coverage: 100&lt;br&gt;BLAST bit score: 699&lt;br&gt;E-value: 1.32e-254" locus_tag="AV521_RS09935" class="clusterblast-orf" id="dummy-10_h10_3_31"  />
</g>
<g id="a10_0032"  >
<polygon points="640,85 645,80 651,80 651,90 645,90 640,85 " style="fill:white; stroke-width:1; stroke:black; " description="&lt;b&gt;AV521_RS09940&lt;/b&gt;&lt;br&gt;DNA alkylation repair protein&lt;br&gt;Location: 321290 - 322012" locus_tag="AV521_RS09940" class="clusterblast-orf" id="dummy-10_h10_3_32"  />
</g>
<g id="a10_0033"  >
<polygon points="654,90 666,90 671,85 666,80 654,80 654,90 " style="fill:white; stroke-width:1; stroke:black; " description="&lt;b&gt;AV521_RS09945&lt;/b&gt;&lt;br&gt;glutathione-independent formaldehyde dehydrogenase&lt;br&gt;Location: 322249 - 323397" locus_tag="AV521_RS09945" class="clusterblast-orf" id="dummy-10_h10_3_33"  />
</g>
<g id="a10_0034"  >
<polygon points="672,90 679,90 684,85 679,80 672,80 672,90 " style="fill:white; stroke-width:1; stroke:black; " description="&lt;b&gt;AV521_RS09950&lt;/b&gt;&lt;br&gt;TVP38/TMEM64 family protein&lt;br&gt;Location: 323448 - 324221" locus_tag="AV521_RS09950" class="clusterblast-orf" id="dummy-10_h10_3_34"  />
</g>
<g id="a10_0035"  >
<polygon points="684,85 689,80 701,80 701,90 689,90 684,85 " style="fill:white; stroke-width:1; stroke:black; " description="&lt;b&gt;AV521_RS09955&lt;/b&gt;&lt;br&gt;thiolase family protein&lt;br&gt;Location: 324235 - 325404" locus_tag="AV521_RS09955" class="clusterblast-orf" id="dummy-10_h10_3_35"  />
</g>
<g id="a10_0036"  >
<polygon points="703,90 705,90 710,85 705,80 703,80 703,90 " style="fill:white; stroke-width:1; stroke:black; " description="&lt;b&gt;AV521_RS09960&lt;/b&gt;&lt;br&gt;helix-turn-helix transcriptional regulator&lt;br&gt;Location: 325530 - 326006" locus_tag="AV521_RS09960" class="clusterblast-orf" id="dummy-10_h10_3_36"  />
</g>
<g id="a10_0037"  >
<polygon points="712,90 721,90 726,85 721,80 712,80 712,90 " style="fill:white; stroke-width:1; stroke:black; " description="&lt;b&gt;AV521_RS09965&lt;/b&gt;&lt;br&gt;undecaprenyl-diphosphate phosphatase&lt;br&gt;Location: 326146 - 327021" locus_tag="AV521_RS09965" class="clusterblast-orf" id="dummy-10_h10_3_37"  />
</g>
<g id="a10_0038"  >
<polygon points="729,90 732,85 729,80 729,90 " style="fill:white; stroke-width:1; stroke:black; " description="&lt;b&gt;AV521_RS09970&lt;/b&gt;&lt;br&gt;hypothetical protein&lt;br&gt;Location: 327257 - 327436" locus_tag="AV521_RS09970" class="clusterblast-orf" id="dummy-10_h10_3_38"  />
</g>
<g id="a10_0039"  >
<polygon points="732,85 737,80 742,80 742,90 737,90 732,85 " style="fill:white; stroke-width:1; stroke:black; " description="&lt;b&gt;AV521_RS09975&lt;/b&gt;&lt;br&gt;DUF4291 domain-containing protein&lt;br&gt;Location: 327481 - 328107" locus_tag="AV521_RS09975" class="clusterblast-orf" id="dummy-10_h10_3_39"  />
</g>
<g id="a10_0040"  >
<polygon points="743,90 746,90 751,85 746,80 743,80 743,90 " style="fill:white; stroke-width:1; stroke:black; " description="&lt;b&gt;AV521_RS09980&lt;/b&gt;&lt;br&gt;nuclear transport factor 2 family protein&lt;br&gt;Location: 328218 - 328694" locus_tag="AV521_RS09980" class="clusterblast-orf" id="dummy-10_h10_3_40"  />
</g>
</svg>
