<svg xmlns="http://www.w3.org/2000/svg" xmlns:xlink="http://www.w3.org/1999/xlink" version="1.1" x="0" y="0" height="230" width="800" viewBox="0 0 800 230" preserveAspectRatio="none"  >
<g label="Query sequence" class="clusterblast-cluster"  >
<text x="5" y="20" class="clusterblast-acc"  >
Query sequence</text>
<line x1="10" y1="35" x2="778.0" y2="35" style="stroke-width:1; stroke:grey; "  />
<polygon points="0,40 34,40 39,35 34,30 0,30 0,40 " style="fill:white; stroke-width:1; stroke:black; " description="&lt;b&gt;LLPMBPKK_07373&lt;/b&gt;&lt;br&gt;aldo/keto reductase&lt;br&gt;Location: 8589498 - 8590485" locus_tag="LLPMBPKK_07373" class="clusterblast-orf" id="dummy-32_q0_0_all"  />
<polygon points="52,40 62,40 67,35 62,30 52,30 52,40 " style="fill:white; stroke-width:1; stroke:black; " description="&lt;b&gt;LLPMBPKK_07374&lt;/b&gt;&lt;br&gt;hypothetical protein&lt;br&gt;Location: 8590807 - 8591173" locus_tag="LLPMBPKK_07374" class="clusterblast-orf" id="dummy-32_q1_0_all"  />
<polygon points="68,35 73,30 87,30 87,40 73,40 68,35 " style="fill:#d81515; stroke-width:1; stroke:black; " description="&lt;b&gt;LLPMBPKK_07375&lt;/b&gt;&lt;br&gt;hypothetical protein&lt;br&gt;Location: 8591212 - 8591680" locus_tag="LLPMBPKK_07375" class="clusterblast-orf" id="dummy-32_q2_0_all"  />
<polygon points="101,40 150,40 155,35 150,30 101,30 101,40 " style="fill:#56d815; stroke-width:1; stroke:black; " description="&lt;b&gt;LLPMBPKK_07376&lt;/b&gt;&lt;br&gt;aminotransferase class III-fold pyridoxal phosphate-dependent enzyme&lt;br&gt;Location: 8592020 - 8593370" locus_tag="LLPMBPKK_07376" class="clusterblast-orf" id="dummy-32_q3_0_all"  />
<polygon points="158,40 171,40 176,35 171,30 158,30 158,40 " style="fill:#1597d8; stroke-width:1; stroke:black; " description="&lt;b&gt;LLPMBPKK_07377&lt;/b&gt;&lt;br&gt;Lrp/AsnC family transcriptional regulator&lt;br&gt;Location: 8593445 - 8593895" locus_tag="LLPMBPKK_07377" class="clusterblast-orf" id="dummy-32_q4_0_all"  />
<polygon points="177,35 182,30 219,30 219,40 182,40 177,35 " style="fill:#9715d8; stroke-width:1; stroke:black; " description="&lt;b&gt;LLPMBPKK_07378&lt;/b&gt;&lt;br&gt;serine/threonine-protein phosphatase&lt;br&gt;Location: 8593917 - 8594991" locus_tag="LLPMBPKK_07378" class="clusterblast-orf" id="dummy-32_q5_0_all"  />
<polygon points="260,35 265,30 295,30 295,40 265,40 260,35 " style="fill:#d85615; stroke-width:1; stroke:black; " description="&lt;b&gt;LLPMBPKK_07379&lt;/b&gt;&lt;br&gt;Gfo/Idh/MocA family oxidoreductase&lt;br&gt;Location: 8595996 - 8596884" locus_tag="LLPMBPKK_07379" class="clusterblast-orf" id="dummy-32_q6_0_all"  />
<polygon points="297,35 302,30 333,30 333,40 302,40 297,35 " style="fill:#15d815; stroke-width:1; stroke:black; " description="&lt;b&gt;LLPMBPKK_07380&lt;/b&gt;&lt;br&gt;ATP-grasp ribosomal peptide maturase&lt;br&gt;Location: 8596919 - 8597828" locus_tag="LLPMBPKK_07380" class="clusterblast-orf" id="dummy-32_q7_0_all"  />
<polygon points="337,35 342,30 344,30 344,40 342,40 337,35 " style="fill:#1556d8; stroke-width:1; stroke:black; " description="&lt;b&gt;LLPMBPKK_07381&lt;/b&gt;&lt;br&gt;putative ATP-grasp-modified RiPP&lt;br&gt;Location: 8597921 - 8598113" locus_tag="LLPMBPKK_07381" class="clusterblast-orf" id="dummy-32_q8_0_all"  />
<polygon points="348,35 353,30 382,30 382,40 353,40 348,35 " style="fill:#d815d8; stroke-width:1; stroke:black; " description="&lt;b&gt;LLPMBPKK_07382&lt;/b&gt;&lt;br&gt;fructosamine kinase&lt;br&gt;Location: 8598212 - 8599049" locus_tag="LLPMBPKK_07382" class="clusterblast-orf" id="dummy-32_q9_0_all"  />
<polygon points="390,40 414,40 419,35 414,30 390,30 390,40 " style="fill:#d89715; stroke-width:1; stroke:black; " description="&lt;b&gt;LLPMBPKK_07383&lt;/b&gt;&lt;br&gt;Cyclo(L-tyrosyl-L-tyrosyl) synthase&lt;br&gt;Location: 8599267 - 8599978" locus_tag="LLPMBPKK_07383" class="clusterblast-orf" id="dummy-32_q10_0_all"  />
<polygon points="419,40 462,40 467,35 462,30 419,30 419,40 " style="fill:#15d856; stroke-width:1; stroke:black; " description="&lt;b&gt;LLPMBPKK_07384&lt;/b&gt;&lt;br&gt;cytochrome P450&lt;br&gt;Location: 8599974 - 8601186" locus_tag="LLPMBPKK_07384" class="clusterblast-orf" id="dummy-32_q11_0_all"  />
<polygon points="476,35 481,30 511,30 511,40 481,40 476,35 " style="fill:#1515d8; stroke-width:1; stroke:black; " description="&lt;b&gt;LLPMBPKK_07385&lt;/b&gt;&lt;br&gt;hypothetical protein&lt;br&gt;Location: 8601404 - 8602283" locus_tag="LLPMBPKK_07385" class="clusterblast-orf" id="dummy-32_q12_0_all"  />
<polygon points="525,40 545,40 550,35 545,30 525,30 525,40 " style="fill:#d81597; stroke-width:1; stroke:black; " description="&lt;b&gt;LLPMBPKK_07386&lt;/b&gt;&lt;br&gt;hypothetical protein&lt;br&gt;Location: 8602637 - 8603255" locus_tag="LLPMBPKK_07386" class="clusterblast-orf" id="dummy-32_q13_0_all"  />
<polygon points="556,40 578,40 583,35 578,30 556,30 556,40 " style="fill:#d8d815; stroke-width:1; stroke:black; " description="&lt;b&gt;LLPMBPKK_07387&lt;/b&gt;&lt;br&gt;class F sortase&lt;br&gt;Location: 8603413 - 8604085" locus_tag="LLPMBPKK_07387" class="clusterblast-orf" id="dummy-32_q14_0_all"  />
<polygon points="582,35 587,30 630,30 630,40 587,40 582,35 " style="fill:#15d897; stroke-width:1; stroke:black; " description="&lt;b&gt;LLPMBPKK_07388&lt;/b&gt;&lt;br&gt;lipase&lt;br&gt;Location: 8604072 - 8605269" locus_tag="LLPMBPKK_07388" class="clusterblast-orf" id="dummy-32_q15_0_all"  />
<polygon points="631,35 636,30 654,30 654,40 636,40 631,35 " style="fill:#5615d8; stroke-width:1; stroke:black; " description="&lt;b&gt;LLPMBPKK_07389&lt;/b&gt;&lt;br&gt;TetR family transcriptional regulator&lt;br&gt;Location: 8605286 - 8605868" locus_tag="LLPMBPKK_07389" class="clusterblast-orf" id="dummy-32_q16_0_all"  />
<polygon points="659,35 664,30 711,30 711,40 664,40 659,35 " style="fill:#d81556; stroke-width:1; stroke:black; " description="&lt;b&gt;LLPMBPKK_07390&lt;/b&gt;&lt;br&gt;carbohydrate-binding protein&lt;br&gt;Location: 8605994 - 8607296" locus_tag="LLPMBPKK_07390" class="clusterblast-orf" id="dummy-32_q17_0_all"  />
<polygon points="728,35 733,30 742,30 742,40 733,40 728,35 " style="fill:#97d815; stroke-width:1; stroke:black; " description="&lt;b&gt;LLPMBPKK_07391&lt;/b&gt;&lt;br&gt;transcriptional regulator&lt;br&gt;Location: 8607707 - 8608058" locus_tag="LLPMBPKK_07391" class="clusterblast-orf" id="dummy-32_q18_0_all"  />
<polygon points="744,40 775,40 780,35 775,30 744,30 744,40 " style="fill:#15d8d8; stroke-width:1; stroke:black; " description="&lt;b&gt;LLPMBPKK_07392&lt;/b&gt;&lt;br&gt;NAD(P)-dependent oxidoreductase&lt;br&gt;Location: 8608125 - 8609013" locus_tag="LLPMBPKK_07392" class="clusterblast-orf" id="dummy-32_q19_0_all"  />
</g>
<g label="NZ_WEGL01000005" description="NZ_WEGL01000005 (50883-71573): Streptomyces sp. RB17 SRB17 5, whole genome sh... (80% of genes show similarity), CDPS" class="clusterblast-cluster"  >
<text x="5" y="70" class="clusterblast-acc"  >
<a xlink:href="https://antismash-db.secondarymetabolites.org/area.html?record=NZ_WEGL01000005&amp;start=50883&amp;end=71573" target="_blank">NZ_WEGL01000005 (50883-71573)</a>: Streptomyces sp. RB17 SRB17 5, whole genome sh... (80% of genes show similarity), CDPS</text>
<line x1="10" y1="85" x2="778.0" y2="85" style="stroke-width:1; stroke:grey; "  />
</g>
<g id="a32_000"  >
<polygon points="8,90 10,90 15,85 10,80 8,80 8,90 " style="fill:white; stroke-width:1; stroke:black; " description="&lt;b&gt;SRB17_RS21895&lt;/b&gt;&lt;br&gt;hypothetical protein&lt;br&gt;Location: 51205 - 51390" locus_tag="SRB17_RS21895" class="clusterblast-orf" id="dummy-32_h32_2_0"  />
</g>
<g id="a32_001"  >
<polygon points="16,85 21,80 34,80 34,90 21,90 16,85 " style="fill:#d81515; stroke-width:1; stroke:black; " description="&lt;b&gt;SRB17_RS21900&lt;/b&gt;&lt;br&gt;hypothetical protein&lt;br&gt;Location: 51395 - 51862&lt;br&gt;&lt;br&gt;&lt;b&gt;BlastP hit with LLPMBPKK_07375&lt;/b&gt;&lt;br&gt;Percentage identity: 85&lt;br&gt;Percentage coverage: 100&lt;br&gt;BLAST bit score: 292&lt;br&gt;E-value: 1.77e-101" locus_tag="SRB17_RS21900" class="clusterblast-orf" id="dummy-32_h32_2_1"  />
</g>
<g id="a32_002"  >
<polygon points="47,90 96,90 101,85 96,80 47,80 47,90 " style="fill:#56d815; stroke-width:1; stroke:black; " description="&lt;b&gt;SRB17_RS21905&lt;/b&gt;&lt;br&gt;aminotransferase class III-fold pyridoxal phosphate-dependent enzyme&lt;br&gt;Location: 52178 - 53527&lt;br&gt;&lt;br&gt;&lt;b&gt;BlastP hit with LLPMBPKK_07376&lt;/b&gt;&lt;br&gt;Percentage identity: 92&lt;br&gt;Percentage coverage: 100&lt;br&gt;BLAST bit score: 832&lt;br&gt;E-value: 2.47e-305" locus_tag="SRB17_RS21905" class="clusterblast-orf" id="dummy-32_h32_2_2"  />
</g>
<g id="a32_003"  >
<polygon points="101,90 115,90 120,85 115,80 101,80 101,90 " style="fill:#1597d8; stroke-width:1; stroke:black; " description="&lt;b&gt;SRB17_RS21910&lt;/b&gt;&lt;br&gt;AsnC family transcriptional regulator&lt;br&gt;Location: 53531 - 54001&lt;br&gt;&lt;br&gt;&lt;b&gt;BlastP hit with LLPMBPKK_07377&lt;/b&gt;&lt;br&gt;Percentage identity: 95&lt;br&gt;Percentage coverage: 98&lt;br&gt;BLAST bit score: 280&lt;br&gt;E-value: 7.65e-97" locus_tag="SRB17_RS21910" class="clusterblast-orf" id="dummy-32_h32_2_3"  />
</g>
<g id="a32_004"  >
<polygon points="120,85 125,80 162,80 162,90 125,90 120,85 " style="fill:#9715d8; stroke-width:1; stroke:black; " description="&lt;b&gt;SRB17_RS21915&lt;/b&gt;&lt;br&gt;SpoIIE family protein phosphatase&lt;br&gt;Location: 54014 - 55066&lt;br&gt;&lt;br&gt;&lt;b&gt;BlastP hit with LLPMBPKK_07378&lt;/b&gt;&lt;br&gt;Percentage identity: 80&lt;br&gt;Percentage coverage: 95&lt;br&gt;BLAST bit score: 522&lt;br&gt;E-value: 9.26e-186" locus_tag="SRB17_RS21915" class="clusterblast-orf" id="dummy-32_h32_2_4"  />
</g>
<g id="a32_005"  >
<polygon points="176,90 208,90 213,85 208,80 176,80 176,90 " style="fill:white; stroke-width:1; stroke:black; " description="&lt;b&gt;SRB17_RS21920&lt;/b&gt;&lt;br&gt;GNAT family N-acetyltransferase&lt;br&gt;Location: 55420 - 56328" locus_tag="SRB17_RS21920" class="clusterblast-orf" id="dummy-32_h32_2_5"  />
</g>
<g id="a32_006"  >
<polygon points="222,90 250,90 255,85 250,80 222,80 222,90 " style="fill:white; stroke-width:1; stroke:black; " description="&lt;b&gt;SRB17_RS21925&lt;/b&gt;&lt;br&gt;hypothetical protein&lt;br&gt;Location: 56550 - 57395" locus_tag="SRB17_RS21925" class="clusterblast-orf" id="dummy-32_h32_2_6"  />
</g>
<g id="a32_007"  >
<polygon points="259,85 264,80 295,80 295,90 264,90 259,85 " style="fill:#d85615; stroke-width:1; stroke:black; " description="&lt;b&gt;SRB17_RS21930&lt;/b&gt;&lt;br&gt;Gfo/Idh/MocA family oxidoreductase&lt;br&gt;Location: 57482 - 58384&lt;br&gt;&lt;br&gt;&lt;b&gt;BlastP hit with LLPMBPKK_07379&lt;/b&gt;&lt;br&gt;Percentage identity: 87&lt;br&gt;Percentage coverage: 100&lt;br&gt;BLAST bit score: 488&lt;br&gt;E-value: 3.29e-174" locus_tag="SRB17_RS21930" class="clusterblast-orf" id="dummy-32_h32_2_7"  />
</g>
<g id="a32_008"  >
<polygon points="296,85 301,80 336,80 336,90 301,90 296,85 " style="fill:#15d815; stroke-width:1; stroke:black; " description="&lt;b&gt;SRB17_RS21935&lt;/b&gt;&lt;br&gt;ATP-grasp ribosomal peptide maturase&lt;br&gt;Location: 58420 - 59403&lt;br&gt;&lt;br&gt;&lt;b&gt;BlastP hit with LLPMBPKK_07380&lt;/b&gt;&lt;br&gt;Percentage identity: 90&lt;br&gt;Percentage coverage: 100&lt;br&gt;BLAST bit score: 548&lt;br&gt;E-value: 2.85e-197" locus_tag="SRB17_RS21935" class="clusterblast-orf" id="dummy-32_h32_2_8"  />
</g>
<g id="a32_009"  >
<polygon points="336,85 341,80 344,80 344,90 341,90 336,85 " style="fill:#1556d8; stroke-width:1; stroke:black; " description="&lt;b&gt;SRB17_RS21940&lt;/b&gt;&lt;br&gt;putative ATP-grasp-modified RiPP&lt;br&gt;Location: 59420 - 59611&lt;br&gt;&lt;br&gt;&lt;b&gt;BlastP hit with LLPMBPKK_07381&lt;/b&gt;&lt;br&gt;Percentage identity: 95&lt;br&gt;Percentage coverage: 100&lt;br&gt;BLAST bit score: 123&lt;br&gt;E-value: 2.87e-37" locus_tag="SRB17_RS21940" class="clusterblast-orf" id="dummy-32_h32_2_9"  />
</g>
<g id="a32_0010"  >
<polygon points="351,85 356,80 381,80 381,90 356,90 351,85 " style="fill:#d815d8; stroke-width:1; stroke:black; " description="&lt;b&gt;SRB17_RS21945&lt;/b&gt;&lt;br&gt;phosphotransferase&lt;br&gt;Location: 59793 - 60542&lt;br&gt;&lt;br&gt;&lt;b&gt;BlastP hit with LLPMBPKK_07382&lt;/b&gt;&lt;br&gt;Percentage identity: 87&lt;br&gt;Percentage coverage: 88&lt;br&gt;BLAST bit score: 442&lt;br&gt;E-value: 5.02e-157" locus_tag="SRB17_RS21945" class="clusterblast-orf" id="dummy-32_h32_2_10"  />
</g>
<g id="a32_0011"  >
<polygon points="395,90 417,90 422,85 417,80 395,80 395,90 " style="fill:#d89715; stroke-width:1; stroke:black; " description="&lt;b&gt;SRB17_RS21950&lt;/b&gt;&lt;br&gt;tRNA-dependent cyclodipeptide synthase&lt;br&gt;Location: 60884 - 61573&lt;br&gt;&lt;br&gt;&lt;b&gt;BlastP hit with LLPMBPKK_07383&lt;/b&gt;&lt;br&gt;Percentage identity: 92&lt;br&gt;Percentage coverage: 97&lt;br&gt;BLAST bit score: 426&lt;br&gt;E-value: 5.68e-152" locus_tag="SRB17_RS21950" class="clusterblast-orf" id="dummy-32_h32_2_11"  />
</g>
<g id="a32_0012"  >
<polygon points="422,90 466,90 471,85 466,80 422,80 422,90 " style="fill:#15d856; stroke-width:1; stroke:black; " description="&lt;b&gt;SRB17_RS21955&lt;/b&gt;&lt;br&gt;cytochrome P450&lt;br&gt;Location: 61570 - 62781&lt;br&gt;&lt;br&gt;&lt;b&gt;BlastP hit with LLPMBPKK_07384&lt;/b&gt;&lt;br&gt;Percentage identity: 89&lt;br&gt;Percentage coverage: 100&lt;br&gt;BLAST bit score: 737&lt;br&gt;E-value: 2.99e-269" locus_tag="SRB17_RS21955" class="clusterblast-orf" id="dummy-32_h32_2_12"  />
</g>
<g id="a32_0013"  >
<polygon points="479,85 484,80 513,80 513,90 484,90 479,85 " style="fill:#1515d8; stroke-width:1; stroke:black; " description="&lt;b&gt;SRB17_RS21960&lt;/b&gt;&lt;br&gt;hypothetical protein&lt;br&gt;Location: 62981 - 63847&lt;br&gt;&lt;br&gt;&lt;b&gt;BlastP hit with LLPMBPKK_07385&lt;/b&gt;&lt;br&gt;Percentage identity: 69&lt;br&gt;Percentage coverage: 99&lt;br&gt;BLAST bit score: 375&lt;br&gt;E-value: 5.25e-130" locus_tag="SRB17_RS21960" class="clusterblast-orf" id="dummy-32_h32_2_13"  />
</g>
<g id="a32_0014"  >
<polygon points="534,90 561,90 566,85 561,80 534,80 534,90 " style="fill:#d81597; stroke-width:1; stroke:black; " description="&lt;b&gt;SRB17_RS21965&lt;/b&gt;&lt;br&gt;hypothetical protein&lt;br&gt;Location: 64368 - 65168&lt;br&gt;&lt;br&gt;&lt;b&gt;BlastP hit with LLPMBPKK_07386&lt;/b&gt;&lt;br&gt;Percentage identity: 45&lt;br&gt;Percentage coverage: 132&lt;br&gt;BLAST bit score: 68&lt;br&gt;E-value: 7.34e-12" locus_tag="SRB17_RS21965" class="clusterblast-orf" id="dummy-32_h32_2_14"  />
</g>
<g id="a32_0015"  >
<polygon points="574,90 600,90 605,85 600,80 574,80 574,90 " style="fill:#d8d815; stroke-width:1; stroke:black; " description="&lt;b&gt;SRB17_RS21970&lt;/b&gt;&lt;br&gt;class F sortase&lt;br&gt;Location: 65375 - 66136&lt;br&gt;&lt;br&gt;&lt;b&gt;BlastP hit with LLPMBPKK_07387&lt;/b&gt;&lt;br&gt;Percentage identity: 63&lt;br&gt;Percentage coverage: 113&lt;br&gt;BLAST bit score: 290&lt;br&gt;E-value: 6.2e-98" locus_tag="SRB17_RS21970" class="clusterblast-orf" id="dummy-32_h32_2_15"  />
</g>
<g id="a32_0016"  >
<polygon points="605,85 610,80 652,80 652,90 610,90 605,85 " style="fill:#15d897; stroke-width:1; stroke:black; " description="&lt;b&gt;SRB17_RS21975&lt;/b&gt;&lt;br&gt;lipase&lt;br&gt;Location: 66152 - 67318&lt;br&gt;&lt;br&gt;&lt;b&gt;BlastP hit with LLPMBPKK_07388&lt;/b&gt;&lt;br&gt;Percentage identity: 83&lt;br&gt;Percentage coverage: 96&lt;br&gt;BLAST bit score: 654&lt;br&gt;E-value: 1.6e-236" locus_tag="SRB17_RS21975" class="clusterblast-orf" id="dummy-32_h32_2_16"  />
</g>
<g id="a32_0017"  >
<polygon points="653,85 658,80 676,80 676,90 658,90 653,85 " style="fill:#5615d8; stroke-width:1; stroke:black; " description="&lt;b&gt;SRB17_RS21980&lt;/b&gt;&lt;br&gt;TetR family transcriptional regulator&lt;br&gt;Location: 67342 - 67911&lt;br&gt;&lt;br&gt;&lt;b&gt;BlastP hit with LLPMBPKK_07389&lt;/b&gt;&lt;br&gt;Percentage identity: 90&lt;br&gt;Percentage coverage: 97&lt;br&gt;BLAST bit score: 324&lt;br&gt;E-value: 8.46e-113" locus_tag="SRB17_RS21980" class="clusterblast-orf" id="dummy-32_h32_2_17"  />
</g>
<g id="a32_0018"  >
<polygon points="680,85 685,80 718,80 718,90 685,90 680,85 " style="fill:white; stroke-width:1; stroke:black; " description="&lt;b&gt;SRB17_RS21985&lt;/b&gt;&lt;br&gt;substrate-binding domain-containing protein&lt;br&gt;Location: 68010 - 68972" locus_tag="SRB17_RS21985" class="clusterblast-orf" id="dummy-32_h32_2_18"  />
</g>
<g id="a32_0019"  >
<polygon points="720,85 725,80 771,80 771,90 725,90 720,85 " style="fill:#d81556; stroke-width:1; stroke:black; " description="&lt;b&gt;SRB17_RS21990&lt;/b&gt;&lt;br&gt;alpha-galactosidase&lt;br&gt;Location: 69020 - 70297&lt;br&gt;&lt;br&gt;&lt;b&gt;BlastP hit with LLPMBPKK_07390&lt;/b&gt;&lt;br&gt;Percentage identity: 87&lt;br&gt;Percentage coverage: 98&lt;br&gt;BLAST bit score: 776&lt;br&gt;E-value: 1.32e-283" locus_tag="SRB17_RS21990" class="clusterblast-orf" id="dummy-32_h32_2_19"  />
</g>
</svg>
