<svg xmlns="http://www.w3.org/2000/svg" xmlns:xlink="http://www.w3.org/1999/xlink" version="1.1" x="0" y="0" height="230" width="800" viewBox="0 0 800 230" preserveAspectRatio="none"  >
<g label="Query sequence" class="clusterblast-cluster"  >
<text x="5" y="20" class="clusterblast-acc"  >
Query sequence</text>
<line x1="10" y1="35" x2="778.0" y2="35" style="stroke-width:1; stroke:grey; "  />
<polygon points="49,35 53,30 53,40 49,35 " style="fill:#d81515; stroke-width:1; stroke:black; " description="&lt;b&gt;LLPMBPKK_00290&lt;/b&gt;&lt;br&gt;ABC transporter ATP-binding protein&lt;br&gt;Location: 323315 - 324008" locus_tag="LLPMBPKK_00290" class="clusterblast-orf" id="dummy-1_q0_0_all"  />
<polygon points="55,40 56,40 61,35 56,30 55,30 55,40 " style="fill:#77d815; stroke-width:1; stroke:black; " description="&lt;b&gt;LLPMBPKK_00291&lt;/b&gt;&lt;br&gt;sensor histidine kinase&lt;br&gt;Location: 324191 - 325082" locus_tag="LLPMBPKK_00291" class="clusterblast-orf" id="dummy-1_q1_0_all"  />
<polygon points="61,40 61,40 66,35 61,30 61,30 61,40 " style="fill:#15d8d8; stroke-width:1; stroke:black; " description="&lt;b&gt;LLPMBPKK_00292&lt;/b&gt;&lt;br&gt;two-component system response regulator&lt;br&gt;Location: 325078 - 325891" locus_tag="LLPMBPKK_00292" class="clusterblast-orf" id="dummy-1_q2_0_all"  />
<polygon points="68,35 72,30 72,40 68,35 " style="fill:white; stroke-width:1; stroke:black; " description="&lt;b&gt;LLPMBPKK_00293&lt;/b&gt;&lt;br&gt;MarR family transcriptional regulator&lt;br&gt;Location: 326166 - 326706" locus_tag="LLPMBPKK_00293" class="clusterblast-orf" id="dummy-1_q3_0_all"  />
<polygon points="72,40 76,40 81,35 76,30 72,30 72,40 " style="fill:white; stroke-width:1; stroke:black; " description="&lt;b&gt;LLPMBPKK_00294&lt;/b&gt;&lt;br&gt;membrane spanning protein&lt;br&gt;Location: 326774 - 328067" locus_tag="LLPMBPKK_00294" class="clusterblast-orf" id="dummy-1_q4_0_all"  />
<polygon points="84,40 86,40 91,35 86,30 84,30 84,40 " style="fill:#7715d8; stroke-width:1; stroke:black; " description="&lt;b&gt;LLPMBPKK_00295&lt;/b&gt;&lt;br&gt;membrane protein&lt;br&gt;Location: 328560 - 329451" locus_tag="LLPMBPKK_00295" class="clusterblast-orf" id="dummy-1_q5_0_all"  />
<polygon points="91,35 96,30 100,30 100,40 96,40 91,35 " style="fill:white; stroke-width:1; stroke:black; " description="&lt;b&gt;LLPMBPKK_00296&lt;/b&gt;&lt;br&gt;hypothetical protein&lt;br&gt;Location: 329495 - 330821" locus_tag="LLPMBPKK_00296" class="clusterblast-orf" id="dummy-1_q6_0_all"  />
<polygon points="100,35 104,30 104,40 100,35 " style="fill:#d84615; stroke-width:1; stroke:black; " description="&lt;b&gt;LLPMBPKK_00297&lt;/b&gt;&lt;br&gt;response regulator transcription factor&lt;br&gt;Location: 330817 - 331480" locus_tag="LLPMBPKK_00297" class="clusterblast-orf" id="dummy-1_q7_0_all"  />
<polygon points="110,35 115,30 115,30 115,40 115,40 110,35 " style="fill:white; stroke-width:1; stroke:black; " description="&lt;b&gt;LLPMBPKK_00298&lt;/b&gt;&lt;br&gt;hydrolase&lt;br&gt;Location: 332293 - 333001" locus_tag="LLPMBPKK_00298" class="clusterblast-orf" id="dummy-1_q8_0_all"  />
<polygon points="125,35 130,30 130,30 130,40 130,40 125,35 " style="fill:white; stroke-width:1; stroke:black; " description="&lt;b&gt;LLPMBPKK_00299&lt;/b&gt;&lt;br&gt;hypothetical protein&lt;br&gt;Location: 334507 - 335224" locus_tag="LLPMBPKK_00299" class="clusterblast-orf" id="dummy-1_q9_0_all"  />
<polygon points="134,40 139,40 144,35 139,30 134,30 134,40 " style="fill:#46d815; stroke-width:1; stroke:black; " description="&lt;b&gt;LLPMBPKK_00300&lt;/b&gt;&lt;br&gt;nucleotide-binding protein&lt;br&gt;Location: 335785 - 337201" locus_tag="LLPMBPKK_00300" class="clusterblast-orf" id="dummy-1_q10_0_all"  />
<polygon points="146,40 149,40 154,35 149,30 146,30 146,40 " style="fill:#15a7d8; stroke-width:1; stroke:black; " description="&lt;b&gt;LLPMBPKK_00301&lt;/b&gt;&lt;br&gt;cyclase&lt;br&gt;Location: 337536 - 338730" locus_tag="LLPMBPKK_00301" class="clusterblast-orf" id="dummy-1_q11_0_all"  />
<polygon points="154,40 155,40 160,35 155,30 154,30 154,40 " style="fill:#a715d8; stroke-width:1; stroke:black; " description="&lt;b&gt;LLPMBPKK_00302&lt;/b&gt;&lt;br&gt;methyltransferase&lt;br&gt;Location: 338745 - 339621" locus_tag="LLPMBPKK_00302" class="clusterblast-orf" id="dummy-1_q12_0_all"  />
<polygon points="161,40 162,35 161,30 161,40 " style="fill:white; stroke-width:1; stroke:black; " description="&lt;b&gt;LLPMBPKK_00303&lt;/b&gt;&lt;br&gt;hypothetical protein&lt;br&gt;Location: 339752 - 339935" locus_tag="LLPMBPKK_00303" class="clusterblast-orf" id="dummy-1_q13_0_all"  />
<polygon points="162,35 167,30 168,30 168,40 167,40 162,35 " style="fill:white; stroke-width:1; stroke:black; " description="&lt;b&gt;LLPMBPKK_00304&lt;/b&gt;&lt;br&gt;PhzF family phenazine biosynthesis isomerase&lt;br&gt;Location: 339927 - 340803" locus_tag="LLPMBPKK_00304" class="clusterblast-orf" id="dummy-1_q14_0_all"  />
<polygon points="169,35 174,30 179,30 179,40 174,40 169,35 " style="fill:#d87715; stroke-width:1; stroke:black; " description="&lt;b&gt;LLPMBPKK_00305&lt;/b&gt;&lt;br&gt;Tryptophan halogenase&lt;br&gt;Location: 340940 - 342413" locus_tag="LLPMBPKK_00305" class="clusterblast-orf" id="dummy-1_q15_0_all"  />
<polygon points="179,35 184,30 233,30 233,40 184,40 179,35 " style="fill:#15d815; stroke-width:1; stroke:black; " description="&lt;b&gt;LLPMBPKK_00306&lt;/b&gt;&lt;br&gt;polyketide synthase&lt;br&gt;Location: 342409 - 350239" locus_tag="LLPMBPKK_00306" class="clusterblast-orf" id="dummy-1_q16_0_all"  />
<polygon points="233,35 238,30 240,30 240,40 238,40 233,35 " style="fill:#1577d8; stroke-width:1; stroke:black; " description="&lt;b&gt;LLPMBPKK_00307&lt;/b&gt;&lt;br&gt;class I SAM-dependent methyltransferase&lt;br&gt;Location: 350335 - 351286" locus_tag="LLPMBPKK_00307" class="clusterblast-orf" id="dummy-1_q17_0_all"  />
<polygon points="241,35 246,30 252,30 252,40 246,40 241,35 " style="fill:#d815d8; stroke-width:1; stroke:black; " description="&lt;b&gt;LLPMBPKK_00308&lt;/b&gt;&lt;br&gt;3-(3-hydroxyphenyl)propionate hydroxylase&lt;br&gt;Location: 351361 - 352990" locus_tag="LLPMBPKK_00308" class="clusterblast-orf" id="dummy-1_q18_0_all"  />
<polygon points="252,35 257,30 257,30 257,40 257,40 252,35 " style="fill:#d8a715; stroke-width:1; stroke:black; " description="&lt;b&gt;LLPMBPKK_00309&lt;/b&gt;&lt;br&gt;N-acetyltransferase/amide synthase&lt;br&gt;Location: 353013 - 353796" locus_tag="LLPMBPKK_00309" class="clusterblast-orf" id="dummy-1_q19_0_all"  />
<polygon points="257,35 262,30 325,30 325,40 262,40 257,35 " style="fill:#15d815; stroke-width:1; stroke:black; " description="&lt;b&gt;LLPMBPKK_00310&lt;/b&gt;&lt;br&gt;hypothetical protein&lt;br&gt;Location: 353800 - 363724" locus_tag="LLPMBPKK_00310" class="clusterblast-orf" id="dummy-1_q20_0_all"  />
<polygon points="325,35 330,30 397,30 397,40 330,40 325,35 " style="fill:#15d815; stroke-width:1; stroke:black; " description="&lt;b&gt;LLPMBPKK_00311&lt;/b&gt;&lt;br&gt;type I polyketide synthase&lt;br&gt;Location: 363754 - 374203" locus_tag="LLPMBPKK_00311" class="clusterblast-orf" id="dummy-1_q21_0_all"  />
<polygon points="397,35 402,30 451,30 451,40 402,40 397,35 " style="fill:#15d815; stroke-width:1; stroke:black; " description="&lt;b&gt;LLPMBPKK_00312&lt;/b&gt;&lt;br&gt;type I polyketide synthase&lt;br&gt;Location: 374249 - 382115" locus_tag="LLPMBPKK_00312" class="clusterblast-orf" id="dummy-1_q22_0_all"  />
<polygon points="451,35 456,30 466,30 466,40 456,40 451,35 " style="fill:#15d815; stroke-width:1; stroke:black; " description="&lt;b&gt;LLPMBPKK_00313&lt;/b&gt;&lt;br&gt;type I polyketide synthase&lt;br&gt;Location: 382111 - 384328" locus_tag="LLPMBPKK_00313" class="clusterblast-orf" id="dummy-1_q23_0_all"  />
<polygon points="467,35 472,30 505,30 505,40 472,40 467,35 " style="fill:#15d815; stroke-width:1; stroke:black; " description="&lt;b&gt;LLPMBPKK_00314&lt;/b&gt;&lt;br&gt;type I polyketide synthase&lt;br&gt;Location: 384422 - 390035" locus_tag="LLPMBPKK_00314" class="clusterblast-orf" id="dummy-1_q24_0_all"  />
<polygon points="505,35 510,30 570,30 570,40 510,40 505,35 " style="fill:#15d815; stroke-width:1; stroke:black; " description="&lt;b&gt;LLPMBPKK_00315&lt;/b&gt;&lt;br&gt;2-succinylbenzoate--CoA ligase&lt;br&gt;Location: 390069 - 399576" locus_tag="LLPMBPKK_00315" class="clusterblast-orf" id="dummy-1_q25_0_all"  />
<polygon points="571,35 576,30 578,30 578,40 576,40 571,35 " style="fill:white; stroke-width:1; stroke:black; " description="&lt;b&gt;LLPMBPKK_00316&lt;/b&gt;&lt;br&gt;hypothetical protein&lt;br&gt;Location: 399691 - 400606" locus_tag="LLPMBPKK_00316" class="clusterblast-orf" id="dummy-1_q26_0_all"  />
<polygon points="581,35 586,30 598,30 598,40 586,40 581,35 " style="fill:#15d846; stroke-width:1; stroke:black; " description="&lt;b&gt;LLPMBPKK_00317&lt;/b&gt;&lt;br&gt;non-ribosomal peptide synthetase&lt;br&gt;Location: 401116 - 403651" locus_tag="LLPMBPKK_00317" class="clusterblast-orf" id="dummy-1_q27_0_all"  />
<polygon points="599,35 604,30 605,30 605,40 604,40 599,35 " style="fill:#1546d8; stroke-width:1; stroke:black; " description="&lt;b&gt;LLPMBPKK_00318&lt;/b&gt;&lt;br&gt;Acetyltransferase (GNAT) family protein&lt;br&gt;Location: 403696 - 404623" locus_tag="LLPMBPKK_00318" class="clusterblast-orf" id="dummy-1_q28_0_all"  />
<polygon points="606,35 609,30 609,40 606,35 " style="fill:#d815a7; stroke-width:1; stroke:black; " description="&lt;b&gt;LLPMBPKK_00319&lt;/b&gt;&lt;br&gt;3-dehydroquinate dehydratase&lt;br&gt;Location: 404785 - 405202" locus_tag="LLPMBPKK_00319" class="clusterblast-orf" id="dummy-1_q29_0_all"  />
<polygon points="611,40 614,40 619,35 614,30 611,30 611,40 " style="fill:#d8d815; stroke-width:1; stroke:black; " description="&lt;b&gt;LLPMBPKK_00320&lt;/b&gt;&lt;br&gt;3-amino-5-hydroxybenzoate synthase&lt;br&gt;Location: 405450 - 406614" locus_tag="LLPMBPKK_00320" class="clusterblast-orf" id="dummy-1_q30_0_all"  />
<polygon points="619,40 621,40 626,35 621,30 619,30 619,40 " style="fill:#15d877; stroke-width:1; stroke:black; " description="&lt;b&gt;LLPMBPKK_00321&lt;/b&gt;&lt;br&gt;oxidoreductase RifL&lt;br&gt;Location: 406610 - 407741" locus_tag="LLPMBPKK_00321" class="clusterblast-orf" id="dummy-1_q31_0_all"  />
<polygon points="627,40 627,40 632,35 627,30 627,30 627,40 " style="fill:#1515d8; stroke-width:1; stroke:black; " description="&lt;b&gt;LLPMBPKK_00322&lt;/b&gt;&lt;br&gt;phosphoglycolate phosphatase&lt;br&gt;Location: 407845 - 408544" locus_tag="LLPMBPKK_00322" class="clusterblast-orf" id="dummy-1_q32_0_all"  />
<polygon points="634,40 638,40 643,35 638,30 634,30 634,40 " style="fill:#d81577; stroke-width:1; stroke:black; " description="&lt;b&gt;LLPMBPKK_00323&lt;/b&gt;&lt;br&gt;3-deoxy-7-phosphoheptulonate synthase&lt;br&gt;Location: 408817 - 410152" locus_tag="LLPMBPKK_00323" class="clusterblast-orf" id="dummy-1_q33_0_all"  />
<polygon points="644,40 659,40 664,35 659,30 644,30 644,40 " style="fill:#15d815; stroke-width:1; stroke:black; " description="&lt;b&gt;LLPMBPKK_00324&lt;/b&gt;&lt;br&gt;3-phosphoshikimate 1-carboxyvinyltransferase&lt;br&gt;Location: 410297 - 413303" locus_tag="LLPMBPKK_00324" class="clusterblast-orf" id="dummy-1_q34_0_all"  />
<polygon points="665,40 668,40 673,35 668,30 665,30 665,40 " style="fill:#a7d815; stroke-width:1; stroke:black; " description="&lt;b&gt;LLPMBPKK_00325&lt;/b&gt;&lt;br&gt;acyl-CoA dehydrogenase&lt;br&gt;Location: 413383 - 414553" locus_tag="LLPMBPKK_00325" class="clusterblast-orf" id="dummy-1_q35_0_all"  />
<polygon points="673,40 674,40 679,35 674,30 673,30 673,40 " style="fill:#15d8a7; stroke-width:1; stroke:black; " description="&lt;b&gt;LLPMBPKK_00326&lt;/b&gt;&lt;br&gt;SDR family oxidoreductase&lt;br&gt;Location: 414549 - 415392" locus_tag="LLPMBPKK_00326" class="clusterblast-orf" id="dummy-1_q36_0_all"  />
<polygon points="679,40 688,40 693,35 688,30 679,30 679,40 " style="fill:#4615d8; stroke-width:1; stroke:black; " description="&lt;b&gt;LLPMBPKK_00327&lt;/b&gt;&lt;br&gt;NADPH-dependent 2,4-dienoyl-CoA reductase&lt;br&gt;Location: 415436 - 417518" locus_tag="LLPMBPKK_00327" class="clusterblast-orf" id="dummy-1_q37_0_all"  />
<polygon points="694,35 699,30 713,30 713,40 699,40 694,35 " style="fill:#d81546; stroke-width:1; stroke:black; " description="&lt;b&gt;LLPMBPKK_00328&lt;/b&gt;&lt;br&gt;LuxR family transcriptional regulator&lt;br&gt;Location: 417593 - 420452" locus_tag="LLPMBPKK_00328" class="clusterblast-orf" id="dummy-1_q38_0_all"  />
<polygon points="721,40 726,40 731,35 726,30 721,30 721,40 " style="fill:white; stroke-width:1; stroke:black; " description="&lt;b&gt;LLPMBPKK_00329&lt;/b&gt;&lt;br&gt;hypothetical protein&lt;br&gt;Location: 421519 - 422968" locus_tag="LLPMBPKK_00329" class="clusterblast-orf" id="dummy-1_q39_0_all"  />
</g>
<g label="NZ_JAIY01000009" description="NZ_JAIY01000009 (20068-135522): Kitasatospora sp. MBT66 scaffold9, whole geno... (21% of genes show similarity), NRPS,T1PKS" class="clusterblast-cluster"  >
<text x="5" y="70" class="clusterblast-acc"  >
<a xlink:href="https://antismash-db.secondarymetabolites.org/area.html?record=NZ_JAIY01000009&amp;start=20068&amp;end=135522" target="_blank">NZ_JAIY01000009 (20068-135522)</a>: Kitasatospora sp. MBT66 scaffold9, whole geno... (21% of genes show similarity), NRPS,T1PKS</text>
<line x1="10" y1="85" x2="778.0" y2="85" style="stroke-width:1; stroke:grey; "  />
</g>
<g id="a1_000"  >
<polygon points="0,85 5,80 8,80 8,90 5,90 0,85 " style="fill:white; stroke-width:1; stroke:black; " description="&lt;b&gt;BI06_RS24255&lt;/b&gt;&lt;br&gt;MFS transporter&lt;br&gt;Location: 20989 - 22224" locus_tag="BI06_RS24255" class="clusterblast-orf" id="dummy-1_h1_6_0"  />
</g>
<g id="a1_001"  >
<polygon points="9,90 10,90 15,85 10,80 9,80 9,90 " style="fill:white; stroke-width:1; stroke:black; " description="&lt;b&gt;BI06_RS24260&lt;/b&gt;&lt;br&gt;winged helix-turn-helix transcriptional regulator&lt;br&gt;Location: 22313 - 23284" locus_tag="BI06_RS24260" class="clusterblast-orf" id="dummy-1_h1_6_1"  />
</g>
<g id="a1_002"  >
<polygon points="19,85 22,80 22,90 19,85 " style="fill:white; stroke-width:1; stroke:black; " description="&lt;b&gt;BI06_RS24265&lt;/b&gt;&lt;br&gt;PRC-barrel domain containing protein&lt;br&gt;Location: 23887 - 24255" locus_tag="BI06_RS24265" class="clusterblast-orf" id="dummy-1_h1_6_2"  />
</g>
<g id="a1_003"  >
<polygon points="23,90 25,90 30,85 25,80 23,80 23,90 " style="fill:white; stroke-width:1; stroke:black; " description="&lt;b&gt;BI06_RS24270&lt;/b&gt;&lt;br&gt;mechanosensitive ion channel&lt;br&gt;Location: 24427 - 25512" locus_tag="BI06_RS24270" class="clusterblast-orf" id="dummy-1_h1_6_3"  />
</g>
<g id="a1_004"  >
<polygon points="31,85 36,80 46,80 46,90 36,90 31,85 " style="fill:white; stroke-width:1; stroke:black; " description="&lt;b&gt;BI06_RS24275&lt;/b&gt;&lt;br&gt;MMPL family transporter&lt;br&gt;Location: 25528 - 27798" locus_tag="BI06_RS24275" class="clusterblast-orf" id="dummy-1_h1_6_4"  />
</g>
<g id="a1_005"  >
<polygon points="47,85 52,80 58,80 58,90 52,90 47,85 " style="fill:white; stroke-width:1; stroke:black; " description="&lt;b&gt;BI06_RS24280&lt;/b&gt;&lt;br&gt;ABC-F family ATP-binding cassette domain-containing protein&lt;br&gt;Location: 27947 - 29584" locus_tag="BI06_RS24280" class="clusterblast-orf" id="dummy-1_h1_6_5"  />
</g>
<g id="a1_006"  >
<polygon points="61,90 65,90 70,85 65,80 61,80 61,90 " style="fill:white; stroke-width:1; stroke:black; " description="&lt;b&gt;BI06_RS24285&lt;/b&gt;&lt;br&gt;cytochrome P450&lt;br&gt;Location: 29935 - 31281" locus_tag="BI06_RS24285" class="clusterblast-orf" id="dummy-1_h1_6_6"  />
</g>
<g id="a1_007"  >
<polygon points="71,85 76,80 76,80 76,90 76,90 71,85 " style="fill:white; stroke-width:1; stroke:black; " description="&lt;b&gt;BI06_RS24290&lt;/b&gt;&lt;br&gt;glucose 1-dehydrogenase&lt;br&gt;Location: 31378 - 32142" locus_tag="BI06_RS24290" class="clusterblast-orf" id="dummy-1_h1_6_7"  />
</g>
<g id="a1_008"  >
<polygon points="76,85 80,80 80,90 76,85 " style="fill:white; stroke-width:1; stroke:black; " description="&lt;b&gt;BI06_RS24295&lt;/b&gt;&lt;br&gt;TetR/AcrR family transcriptional regulator&lt;br&gt;Location: 32139 - 32774" locus_tag="BI06_RS24295" class="clusterblast-orf" id="dummy-1_h1_6_8"  />
</g>
<g id="a1_009"  >
<polygon points="81,85 86,80 92,80 92,90 86,90 81,85 " style="fill:white; stroke-width:1; stroke:black; " description="&lt;b&gt;BI06_RS24300&lt;/b&gt;&lt;br&gt;hypothetical protein&lt;br&gt;Location: 32952 - 34502" locus_tag="BI06_RS24300" class="clusterblast-orf" id="dummy-1_h1_6_9"  />
</g>
<g id="a1_0010"  >
<polygon points="94,90 96,85 94,80 94,90 " style="fill:white; stroke-width:1; stroke:black; " description="&lt;b&gt;BI06_RS24305&lt;/b&gt;&lt;br&gt;WhiB family transcriptional regulator&lt;br&gt;Location: 34828 - 35061" locus_tag="BI06_RS24305" class="clusterblast-orf" id="dummy-1_h1_6_10"  />
</g>
<g id="a1_0011"  >
<polygon points="97,85 102,80 105,80 105,90 102,90 97,85 " style="fill:white; stroke-width:1; stroke:black; " description="&lt;b&gt;BI06_RS24310&lt;/b&gt;&lt;br&gt;YncE family protein&lt;br&gt;Location: 35182 - 36348" locus_tag="BI06_RS24310" class="clusterblast-orf" id="dummy-1_h1_6_11"  />
</g>
<g id="a1_0012"  >
<polygon points="106,90 109,90 114,85 109,80 106,80 106,90 " style="fill:white; stroke-width:1; stroke:black; " description="&lt;b&gt;BI06_RS24315&lt;/b&gt;&lt;br&gt;amidohydrolase family protein&lt;br&gt;Location: 36542 - 37747" locus_tag="BI06_RS24315" class="clusterblast-orf" id="dummy-1_h1_6_12"  />
</g>
<g id="a1_0013"  >
<polygon points="115,85 120,80 122,80 122,90 120,90 115,85 " style="fill:white; stroke-width:1; stroke:black; " description="&lt;b&gt;BI06_RS24320&lt;/b&gt;&lt;br&gt;chitinase&lt;br&gt;Location: 37818 - 38837" locus_tag="BI06_RS24320" class="clusterblast-orf" id="dummy-1_h1_6_13"  />
</g>
<g id="a1_0014"  >
<polygon points="123,85 124,80 124,90 123,85 " style="fill:white; stroke-width:1; stroke:black; " description="&lt;b&gt;BI06_RS24325&lt;/b&gt;&lt;br&gt;MbtH family NRPS accessory protein&lt;br&gt;Location: 39030 - 39212" locus_tag="BI06_RS24325" class="clusterblast-orf" id="dummy-1_h1_6_14"  />
</g>
<g id="a1_0015"  >
<polygon points="125,85 130,80 130,80 130,90 130,90 125,85 " style="fill:white; stroke-width:1; stroke:black; " description="&lt;b&gt;BI06_RS24330&lt;/b&gt;&lt;br&gt;SDR family oxidoreductase&lt;br&gt;Location: 39256 - 39999" locus_tag="BI06_RS24330" class="clusterblast-orf" id="dummy-1_h1_6_15"  />
</g>
<g id="a1_0016"  >
<polygon points="130,85 135,80 203,80 203,90 135,90 130,85 " style="fill:#15d846; stroke-width:1; stroke:black; " description="&lt;b&gt;BI06_RS51125&lt;/b&gt;&lt;br&gt;non-ribosomal peptide synthetase&lt;br&gt;Location: 40069 - 50727&lt;br&gt;&lt;br&gt;&lt;b&gt;BlastP hit with LLPMBPKK_00317&lt;/b&gt;&lt;br&gt;Percentage identity: 47&lt;br&gt;Percentage coverage: 65&lt;br&gt;BLAST bit score: 434&lt;br&gt;E-value: 2.09e-129" locus_tag="BI06_RS51125" class="clusterblast-orf" id="dummy-1_h1_6_16"  />
</g>
<g id="a1_0017"  >
<polygon points="203,85 208,80 244,80 244,90 208,90 203,85 " style="fill:#15d815; stroke-width:1; stroke:black; " description="&lt;b&gt;BI06_RS24340&lt;/b&gt;&lt;br&gt;type I polyketide synthase&lt;br&gt;Location: 50769 - 56735&lt;br&gt;&lt;br&gt;&lt;b&gt;BlastP hit with LLPMBPKK_00310&lt;/b&gt;&lt;br&gt;Percentage identity: 35&lt;br&gt;Percentage coverage: 49&lt;br&gt;BLAST bit score: 593&lt;br&gt;E-value: 2.7e-172&lt;br&gt;&lt;br&gt;&lt;b&gt;BlastP hit with LLPMBPKK_00312&lt;/b&gt;&lt;br&gt;Percentage identity: 33&lt;br&gt;Percentage coverage: 63&lt;br&gt;BLAST bit score: 568&lt;br&gt;E-value: 7.43e-165&lt;br&gt;&lt;br&gt;&lt;b&gt;BlastP hit with LLPMBPKK_00313&lt;/b&gt;&lt;br&gt;Percentage identity: 42&lt;br&gt;Percentage coverage: 94&lt;br&gt;BLAST bit score: 424&lt;br&gt;E-value: 7.51e-128&lt;br&gt;&lt;br&gt;&lt;b&gt;BlastP hit with LLPMBPKK_00314&lt;/b&gt;&lt;br&gt;Percentage identity: 33&lt;br&gt;Percentage coverage: 90&lt;br&gt;BLAST bit score: 553&lt;br&gt;E-value: 7.89e-163" locus_tag="BI06_RS24340" class="clusterblast-orf" id="dummy-1_h1_6_17"  />
</g>
<g id="a1_0018"  >
<polygon points="244,85 249,80 268,80 268,90 249,90 244,85 " style="fill:white; stroke-width:1; stroke:black; " description="&lt;b&gt;BI06_RS24345&lt;/b&gt;&lt;br&gt;non-ribosomal peptide synthetase&lt;br&gt;Location: 56769 - 60152" locus_tag="BI06_RS24345" class="clusterblast-orf" id="dummy-1_h1_6_18"  />
</g>
<g id="a1_0019"  >
<polygon points="267,85 272,80 290,80 290,90 272,90 267,85 " style="fill:#15d815; stroke-width:1; stroke:black; " description="&lt;b&gt;BI06_RS24350&lt;/b&gt;&lt;br&gt;type I polyketide synthase&lt;br&gt;Location: 60145 - 63429&lt;br&gt;&lt;br&gt;&lt;b&gt;BlastP hit with LLPMBPKK_00306&lt;/b&gt;&lt;br&gt;Percentage identity: 43&lt;br&gt;Percentage coverage: 34&lt;br&gt;BLAST bit score: 578&lt;br&gt;E-value: 3.63e-176&lt;br&gt;&lt;br&gt;&lt;b&gt;BlastP hit with LLPMBPKK_00310&lt;/b&gt;&lt;br&gt;Percentage identity: 45&lt;br&gt;Percentage coverage: 27&lt;br&gt;BLAST bit score: 640&lt;br&gt;E-value: 1.09e-196&lt;br&gt;&lt;br&gt;&lt;b&gt;BlastP hit with LLPMBPKK_00311&lt;/b&gt;&lt;br&gt;Percentage identity: 43&lt;br&gt;Percentage coverage: 26&lt;br&gt;BLAST bit score: 593&lt;br&gt;E-value: 2.03e-180&lt;br&gt;&lt;br&gt;&lt;b&gt;BlastP hit with LLPMBPKK_00312&lt;/b&gt;&lt;br&gt;Percentage identity: 43&lt;br&gt;Percentage coverage: 35&lt;br&gt;BLAST bit score: 607&lt;br&gt;E-value: 2.19e-186&lt;br&gt;&lt;br&gt;&lt;b&gt;BlastP hit with LLPMBPKK_00313&lt;/b&gt;&lt;br&gt;Percentage identity: 45&lt;br&gt;Percentage coverage: 93&lt;br&gt;BLAST bit score: 487&lt;br&gt;E-value: 2.23e-156&lt;br&gt;&lt;br&gt;&lt;b&gt;BlastP hit with LLPMBPKK_00314&lt;/b&gt;&lt;br&gt;Percentage identity: 43&lt;br&gt;Percentage coverage: 49&lt;br&gt;BLAST bit score: 590&lt;br&gt;E-value: 7.68e-184&lt;br&gt;&lt;br&gt;&lt;b&gt;BlastP hit with LLPMBPKK_00315&lt;/b&gt;&lt;br&gt;Percentage identity: 44&lt;br&gt;Percentage coverage: 29&lt;br&gt;BLAST bit score: 639&lt;br&gt;E-value: 1.49e-196" locus_tag="BI06_RS24350" class="clusterblast-orf" id="dummy-1_h1_6_19"  />
</g>
<g id="a1_0020"  >
<polygon points="293,85 295,80 295,90 293,85 " style="fill:white; stroke-width:1; stroke:black; " description="&lt;b&gt;BI06_RS51130&lt;/b&gt;&lt;br&gt;acyl carrier protein&lt;br&gt;Location: 63810 - 64198" locus_tag="BI06_RS51130" class="clusterblast-orf" id="dummy-1_h1_6_20"  />
</g>
<g id="a1_0021"  >
<polygon points="297,85 302,80 324,80 324,90 302,90 297,85 " style="fill:white; stroke-width:1; stroke:black; " description="&lt;b&gt;BI06_RS45550&lt;/b&gt;&lt;br&gt;zinc-binding dehydrogenase&lt;br&gt;Location: 64529 - 68416" locus_tag="BI06_RS45550" class="clusterblast-orf" id="dummy-1_h1_6_21"  />
</g>
<g id="a1_0022"  >
<polygon points="324,85 329,80 339,80 339,90 329,90 324,85 " style="fill:white; stroke-width:1; stroke:black; " description="&lt;b&gt;BI06_RS24365&lt;/b&gt;&lt;br&gt;SDR family NAD(P)-dependent oxidoreductase&lt;br&gt;Location: 68421 - 70586" locus_tag="BI06_RS24365" class="clusterblast-orf" id="dummy-1_h1_6_22"  />
</g>
<g id="a1_0023"  >
<polygon points="342,85 347,80 368,80 368,90 347,90 342,85 " style="fill:#15d815; stroke-width:1; stroke:black; " description="&lt;b&gt;BI06_RS24370&lt;/b&gt;&lt;br&gt;acyltransferase domain-containing protein&lt;br&gt;Location: 70974 - 74880&lt;br&gt;&lt;br&gt;&lt;b&gt;BlastP hit with LLPMBPKK_00306&lt;/b&gt;&lt;br&gt;Percentage identity: 36&lt;br&gt;Percentage coverage: 50&lt;br&gt;BLAST bit score: 506&lt;br&gt;E-value: 5.71e-149&lt;br&gt;&lt;br&gt;&lt;b&gt;BlastP hit with LLPMBPKK_00313&lt;/b&gt;&lt;br&gt;Percentage identity: 42&lt;br&gt;Percentage coverage: 95&lt;br&gt;BLAST bit score: 445&lt;br&gt;E-value: 1.51e-138&lt;br&gt;&lt;br&gt;&lt;b&gt;BlastP hit with LLPMBPKK_00314&lt;/b&gt;&lt;br&gt;Percentage identity: 38&lt;br&gt;Percentage coverage: 62&lt;br&gt;BLAST bit score: 606&lt;br&gt;E-value: 2.44e-187" locus_tag="BI06_RS24370" class="clusterblast-orf" id="dummy-1_h1_6_23"  />
</g>
<g id="a1_0024"  >
<polygon points="372,90 372,90 377,85 372,80 372,80 372,90 " style="fill:white; stroke-width:1; stroke:black; " description="&lt;b&gt;BI06_RS24375&lt;/b&gt;&lt;br&gt;response regulator transcription factor&lt;br&gt;Location: 75476 - 76099" locus_tag="BI06_RS24375" class="clusterblast-orf" id="dummy-1_h1_6_24"  />
</g>
<g id="a1_0025"  >
<polygon points="377,85 382,80 384,80 384,90 382,90 377,85 " style="fill:white; stroke-width:1; stroke:black; " description="&lt;b&gt;BI06_RS24380&lt;/b&gt;&lt;br&gt;hypothetical protein&lt;br&gt;Location: 76143 - 77204" locus_tag="BI06_RS24380" class="clusterblast-orf" id="dummy-1_h1_6_25"  />
</g>
<g id="a1_0026"  >
<polygon points="387,85 389,80 389,90 387,85 " style="fill:white; stroke-width:1; stroke:black; " description="&lt;b&gt;BI06_RS51135&lt;/b&gt;&lt;br&gt;hypothetical protein&lt;br&gt;Location: 77609 - 77881" locus_tag="BI06_RS51135" class="clusterblast-orf" id="dummy-1_h1_6_26"  />
</g>
<g id="a1_0027"  >
<polygon points="389,85 394,80 394,80 394,90 394,90 389,85 " style="fill:white; stroke-width:1; stroke:black; " description="&lt;b&gt;BI06_RS24390&lt;/b&gt;&lt;br&gt;class I SAM-dependent methyltransferase&lt;br&gt;Location: 77936 - 78595" locus_tag="BI06_RS24390" class="clusterblast-orf" id="dummy-1_h1_6_27"  />
</g>
<g id="a1_0028"  >
<polygon points="397,85 400,80 400,90 397,85 " style="fill:white; stroke-width:1; stroke:black; " description="&lt;b&gt;BI06_RS24395&lt;/b&gt;&lt;br&gt;glyoxalase/bleomycin resistance/dioxygenase family protein&lt;br&gt;Location: 79131 - 79529" locus_tag="BI06_RS24395" class="clusterblast-orf" id="dummy-1_h1_6_28"  />
</g>
<g id="a1_0029"  >
<polygon points="401,90 403,90 408,85 403,80 401,80 401,90 " style="fill:white; stroke-width:1; stroke:black; " description="&lt;b&gt;BI06_RS24400&lt;/b&gt;&lt;br&gt;YafY family transcriptional regulator&lt;br&gt;Location: 79630 - 80643" locus_tag="BI06_RS24400" class="clusterblast-orf" id="dummy-1_h1_6_29"  />
</g>
<g id="a1_0030"  >
<polygon points="408,85 411,80 411,90 408,85 " style="fill:white; stroke-width:1; stroke:black; " description="&lt;b&gt;BI06_RS46680&lt;/b&gt;&lt;br&gt;cytochrome P450&lt;br&gt;Location: 80660 - 81171" locus_tag="BI06_RS46680" class="clusterblast-orf" id="dummy-1_h1_6_30"  />
</g>
<g id="a1_0031"  >
<polygon points="413,85 417,80 417,90 413,85 " style="fill:white; stroke-width:1; stroke:black; " description="&lt;b&gt;BI06_RS24410&lt;/b&gt;&lt;br&gt;DUF4913 domain-containing protein&lt;br&gt;Location: 81435 - 81976" locus_tag="BI06_RS24410" class="clusterblast-orf" id="dummy-1_h1_6_31"  />
</g>
<g id="a1_0032"  >
<polygon points="418,90 420,85 418,80 418,90 " style="fill:white; stroke-width:1; stroke:black; " description="&lt;b&gt;BI06_RS49640&lt;/b&gt;&lt;br&gt;hypothetical protein&lt;br&gt;Location: 82114 - 82371" locus_tag="BI06_RS49640" class="clusterblast-orf" id="dummy-1_h1_6_32"  />
</g>
<g id="a1_0033"  >
<polygon points="420,90 423,85 420,80 420,90 " style="fill:white; stroke-width:1; stroke:black; " description="&lt;b&gt;BI06_RS24415&lt;/b&gt;&lt;br&gt;isochorismatase family protein&lt;br&gt;Location: 82368 - 82856" locus_tag="BI06_RS24415" class="clusterblast-orf" id="dummy-1_h1_6_33"  />
</g>
<g id="a1_0034"  >
<polygon points="426,85 427,80 427,90 426,85 " style="fill:white; stroke-width:1; stroke:black; " description="&lt;b&gt;BI06_RS48355&lt;/b&gt;&lt;br&gt;hypothetical protein&lt;br&gt;Location: 83288 - 83503" locus_tag="BI06_RS48355" class="clusterblast-orf" id="dummy-1_h1_6_34"  />
</g>
<g id="a1_0035"  >
<polygon points="434,85 439,80 440,80 440,90 439,90 434,85 " style="fill:white; stroke-width:1; stroke:black; " description="&lt;b&gt;BI06_RS24430&lt;/b&gt;&lt;br&gt;GNAT family N-acetyltransferase&lt;br&gt;Location: 84425 - 85291" locus_tag="BI06_RS24430" class="clusterblast-orf" id="dummy-1_h1_6_35"  />
</g>
<g id="a1_0036"  >
<polygon points="440,85 442,80 442,90 440,85 " style="fill:white; stroke-width:1; stroke:black; " description="&lt;b&gt;BI06_RS49645&lt;/b&gt;&lt;br&gt;hypothetical protein&lt;br&gt;Location: 85403 - 85606" locus_tag="BI06_RS49645" class="clusterblast-orf" id="dummy-1_h1_6_36"  />
</g>
<g id="a1_0037"  >
<polygon points="443,85 448,80 448,80 448,90 448,90 443,85 " style="fill:white; stroke-width:1; stroke:black; " description="&lt;b&gt;BI06_RS24435&lt;/b&gt;&lt;br&gt;shikimate dehydrogenase&lt;br&gt;Location: 85754 - 86593" locus_tag="BI06_RS24435" class="clusterblast-orf" id="dummy-1_h1_6_37"  />
</g>
<g id="a1_0038"  >
<polygon points="448,85 453,80 455,80 455,90 453,90 448,85 " style="fill:white; stroke-width:1; stroke:black; " description="&lt;b&gt;BI06_RS24440&lt;/b&gt;&lt;br&gt;3-dehydroquinate synthase&lt;br&gt;Location: 86595 - 87617" locus_tag="BI06_RS24440" class="clusterblast-orf" id="dummy-1_h1_6_38"  />
</g>
<g id="a1_0039"  >
<polygon points="456,85 461,80 463,80 463,90 461,90 456,85 " style="fill:white; stroke-width:1; stroke:black; " description="&lt;b&gt;BI06_RS24445&lt;/b&gt;&lt;br&gt;ROK family protein&lt;br&gt;Location: 87722 - 88714" locus_tag="BI06_RS24445" class="clusterblast-orf" id="dummy-1_h1_6_39"  />
</g>
<g id="a1_0040"  >
<polygon points="463,85 466,80 466,90 463,85 " style="fill:#d815a7; stroke-width:1; stroke:black; " description="&lt;b&gt;BI06_RS24450&lt;/b&gt;&lt;br&gt;3-dehydroquinate dehydratase&lt;br&gt;Location: 88714 - 89154&lt;br&gt;&lt;br&gt;&lt;b&gt;BlastP hit with LLPMBPKK_00319&lt;/b&gt;&lt;br&gt;Percentage identity: 52&lt;br&gt;Percentage coverage: 62&lt;br&gt;BLAST bit score: 86&lt;br&gt;E-value: 1.92e-20" locus_tag="BI06_RS24450" class="clusterblast-orf" id="dummy-1_h1_6_40"  />
</g>
<g id="a1_0041"  >
<polygon points="467,90 470,90 475,85 470,80 467,80 467,90 " style="fill:#d8d815; stroke-width:1; stroke:black; " description="&lt;b&gt;BI06_RS24455&lt;/b&gt;&lt;br&gt;DegT/DnrJ/EryC1/StrS family aminotransferase&lt;br&gt;Location: 89316 - 90482&lt;br&gt;&lt;br&gt;&lt;b&gt;BlastP hit with LLPMBPKK_00320&lt;/b&gt;&lt;br&gt;Percentage identity: 73&lt;br&gt;Percentage coverage: 97&lt;br&gt;BLAST bit score: 558&lt;br&gt;E-value: 8.32e-199" locus_tag="BI06_RS24455" class="clusterblast-orf" id="dummy-1_h1_6_41"  />
</g>
<g id="a1_0042"  >
<polygon points="475,90 478,90 483,85 478,80 475,80 475,90 " style="fill:#15d877; stroke-width:1; stroke:black; " description="&lt;b&gt;BI06_RS24460&lt;/b&gt;&lt;br&gt;Gfo/Idh/MocA family oxidoreductase&lt;br&gt;Location: 90524 - 91597&lt;br&gt;&lt;br&gt;&lt;b&gt;BlastP hit with LLPMBPKK_00321&lt;/b&gt;&lt;br&gt;Percentage identity: 57&lt;br&gt;Percentage coverage: 96&lt;br&gt;BLAST bit score: 367&lt;br&gt;E-value: 3.96e-124" locus_tag="BI06_RS24460" class="clusterblast-orf" id="dummy-1_h1_6_42"  />
</g>
<g id="a1_0043"  >
<polygon points="484,90 484,90 489,85 484,80 484,80 484,90 " style="fill:#1515d8; stroke-width:1; stroke:black; " description="&lt;b&gt;BI06_RS24465&lt;/b&gt;&lt;br&gt;HAD-IA family hydrolase&lt;br&gt;Location: 91787 - 92503&lt;br&gt;&lt;br&gt;&lt;b&gt;BlastP hit with LLPMBPKK_00322&lt;/b&gt;&lt;br&gt;Percentage identity: 74&lt;br&gt;Percentage coverage: 88&lt;br&gt;BLAST bit score: 288&lt;br&gt;E-value: 2.14e-97" locus_tag="BI06_RS24465" class="clusterblast-orf" id="dummy-1_h1_6_43"  />
</g>
<g id="a1_0044"  >
<polygon points="492,90 499,90 504,85 499,80 492,80 492,90 " style="fill:#15d815; stroke-width:1; stroke:black; " description="&lt;b&gt;BI06_RS24470&lt;/b&gt;&lt;br&gt;AMP-binding protein&lt;br&gt;Location: 92981 - 94694&lt;br&gt;&lt;br&gt;&lt;b&gt;BlastP hit with LLPMBPKK_00315&lt;/b&gt;&lt;br&gt;Percentage identity: 72&lt;br&gt;Percentage coverage: 18&lt;br&gt;BLAST bit score: 814&lt;br&gt;E-value: 1.11e-266&lt;br&gt;&lt;br&gt;&lt;b&gt;BlastP hit with LLPMBPKK_00324&lt;/b&gt;&lt;br&gt;Percentage identity: 33&lt;br&gt;Percentage coverage: 53&lt;br&gt;BLAST bit score: 219&lt;br&gt;E-value: 3.26e-59" locus_tag="BI06_RS24470" class="clusterblast-orf" id="dummy-1_h1_6_44"  />
</g>
<g id="a1_0045"  >
<polygon points="509,90 512,85 509,80 509,90 " style="fill:white; stroke-width:1; stroke:black; " description="&lt;b&gt;BI06_RS24475&lt;/b&gt;&lt;br&gt;KR domain-containing protein&lt;br&gt;Location: 95388 - 95863" locus_tag="BI06_RS24475" class="clusterblast-orf" id="dummy-1_h1_6_45"  />
</g>
<g id="a1_0046"  >
<polygon points="514,90 528,90 533,85 528,80 514,80 514,90 " style="fill:white; stroke-width:1; stroke:black; " description="&lt;b&gt;BI06_RS48365&lt;/b&gt;&lt;br&gt;acyltransferase domain-containing protein&lt;br&gt;Location: 96116 - 98989" locus_tag="BI06_RS48365" class="clusterblast-orf" id="dummy-1_h1_6_46"  />
</g>
<g id="a1_0047"  >
<polygon points="541,90 541,90 546,85 541,80 541,80 541,90 " style="fill:white; stroke-width:1; stroke:black; " description="&lt;b&gt;BI06_RS46715&lt;/b&gt;&lt;br&gt;SDR family NAD(P)-dependent oxidoreductase&lt;br&gt;Location: 100166 - 100813" locus_tag="BI06_RS46715" class="clusterblast-orf" id="dummy-1_h1_6_47"  />
</g>
<g id="a1_0048"  >
<polygon points="546,90 549,90 554,85 549,80 546,80 546,90 " style="fill:white; stroke-width:1; stroke:black; " description="&lt;b&gt;BI06_RS49650&lt;/b&gt;&lt;br&gt;hypothetical protein&lt;br&gt;Location: 100859 - 102028" locus_tag="BI06_RS49650" class="clusterblast-orf" id="dummy-1_h1_6_48"  />
</g>
<g id="a1_0049"  >
<polygon points="557,90 560,85 557,80 557,90 " style="fill:white; stroke-width:1; stroke:black; " description="&lt;b&gt;BI06_RS46725&lt;/b&gt;&lt;br&gt;hypothetical protein&lt;br&gt;Location: 102497 - 102907" locus_tag="BI06_RS46725" class="clusterblast-orf" id="dummy-1_h1_6_49"  />
</g>
<g id="a1_0050"  >
<polygon points="561,90 562,90 567,85 562,80 561,80 561,90 " style="fill:white; stroke-width:1; stroke:black; " description="&lt;b&gt;BI06_RS46730&lt;/b&gt;&lt;br&gt;acyltransferase domain-containing protein&lt;br&gt;Location: 103049 - 103960" locus_tag="BI06_RS46730" class="clusterblast-orf" id="dummy-1_h1_6_50"  />
</g>
<g id="a1_0051"  >
<polygon points="573,90 581,90 586,85 581,80 573,80 573,90 " style="fill:white; stroke-width:1; stroke:black; " description="&lt;b&gt;BI06_RS48380&lt;/b&gt;&lt;br&gt;SDR family NAD(P)-dependent oxidoreductase&lt;br&gt;Location: 104813 - 106741" locus_tag="BI06_RS48380" class="clusterblast-orf" id="dummy-1_h1_6_51"  />
</g>
<g id="a1_0052"  >
<polygon points="586,90 618,90 623,85 618,80 586,80 586,90 " style="fill:#15d815; stroke-width:1; stroke:black; " description="&lt;b&gt;BI06_RS24485&lt;/b&gt;&lt;br&gt;type I polyketide synthase&lt;br&gt;Location: 106765 - 112116&lt;br&gt;&lt;br&gt;&lt;b&gt;BlastP hit with LLPMBPKK_00306&lt;/b&gt;&lt;br&gt;Percentage identity: 47&lt;br&gt;Percentage coverage: 67&lt;br&gt;BLAST bit score: 1212&lt;br&gt;E-value: 0.0&lt;br&gt;&lt;br&gt;&lt;b&gt;BlastP hit with LLPMBPKK_00310&lt;/b&gt;&lt;br&gt;Percentage identity: 50&lt;br&gt;Percentage coverage: 54&lt;br&gt;BLAST bit score: 1465&lt;br&gt;E-value: 0.0&lt;br&gt;&lt;br&gt;&lt;b&gt;BlastP hit with LLPMBPKK_00311&lt;/b&gt;&lt;br&gt;Percentage identity: 51&lt;br&gt;Percentage coverage: 50&lt;br&gt;BLAST bit score: 1498&lt;br&gt;E-value: 0.0&lt;br&gt;&lt;br&gt;&lt;b&gt;BlastP hit with LLPMBPKK_00312&lt;/b&gt;&lt;br&gt;Percentage identity: 51&lt;br&gt;Percentage coverage: 66&lt;br&gt;BLAST bit score: 1428&lt;br&gt;E-value: 0.0&lt;br&gt;&lt;br&gt;&lt;b&gt;BlastP hit with LLPMBPKK_00313&lt;/b&gt;&lt;br&gt;Percentage identity: 63&lt;br&gt;Percentage coverage: 98&lt;br&gt;BLAST bit score: 824&lt;br&gt;E-value: 5.55e-279&lt;br&gt;&lt;br&gt;&lt;b&gt;BlastP hit with LLPMBPKK_00314&lt;/b&gt;&lt;br&gt;Percentage identity: 50&lt;br&gt;Percentage coverage: 98&lt;br&gt;BLAST bit score: 1447&lt;br&gt;E-value: 0.0&lt;br&gt;&lt;br&gt;&lt;b&gt;BlastP hit with LLPMBPKK_00315&lt;/b&gt;&lt;br&gt;Percentage identity: 45&lt;br&gt;Percentage coverage: 65&lt;br&gt;BLAST bit score: 1383&lt;br&gt;E-value: 0.0" locus_tag="BI06_RS24485" class="clusterblast-orf" id="dummy-1_h1_6_52"  />
</g>
<g id="a1_0053"  >
<polygon points="624,90 641,90 646,85 641,80 624,80 624,90 " style="fill:#15d815; stroke-width:1; stroke:black; " description="&lt;b&gt;BI06_RS24490&lt;/b&gt;&lt;br&gt;type I polyketide synthase&lt;br&gt;Location: 112229 - 115522&lt;br&gt;&lt;br&gt;&lt;b&gt;BlastP hit with LLPMBPKK_00306&lt;/b&gt;&lt;br&gt;Percentage identity: 51&lt;br&gt;Percentage coverage: 36&lt;br&gt;BLAST bit score: 786&lt;br&gt;E-value: 1.71e-251&lt;br&gt;&lt;br&gt;&lt;b&gt;BlastP hit with LLPMBPKK_00310&lt;/b&gt;&lt;br&gt;Percentage identity: 54&lt;br&gt;Percentage coverage: 29&lt;br&gt;BLAST bit score: 866&lt;br&gt;E-value: 2.53e-277&lt;br&gt;&lt;br&gt;&lt;b&gt;BlastP hit with LLPMBPKK_00311&lt;/b&gt;&lt;br&gt;Percentage identity: 53&lt;br&gt;Percentage coverage: 27&lt;br&gt;BLAST bit score: 863&lt;br&gt;E-value: 2.56e-275&lt;br&gt;&lt;br&gt;&lt;b&gt;BlastP hit with LLPMBPKK_00312&lt;/b&gt;&lt;br&gt;Percentage identity: 53&lt;br&gt;Percentage coverage: 37&lt;br&gt;BLAST bit score: 841&lt;br&gt;E-value: 4e-272&lt;br&gt;&lt;br&gt;&lt;b&gt;BlastP hit with LLPMBPKK_00313&lt;/b&gt;&lt;br&gt;Percentage identity: 65&lt;br&gt;Percentage coverage: 94&lt;br&gt;BLAST bit score: 816&lt;br&gt;E-value: 4.04e-284&lt;br&gt;&lt;br&gt;&lt;b&gt;BlastP hit with LLPMBPKK_00314&lt;/b&gt;&lt;br&gt;Percentage identity: 62&lt;br&gt;Percentage coverage: 49&lt;br&gt;BLAST bit score: 994&lt;br&gt;E-value: 0.0&lt;br&gt;&lt;br&gt;&lt;b&gt;BlastP hit with LLPMBPKK_00315&lt;/b&gt;&lt;br&gt;Percentage identity: 58&lt;br&gt;Percentage coverage: 29&lt;br&gt;BLAST bit score: 880&lt;br&gt;E-value: 4.04e-283" locus_tag="BI06_RS24490" class="clusterblast-orf" id="dummy-1_h1_6_53"  />
</g>
<g id="a1_0054"  >
<polygon points="646,90 647,90 652,85 647,80 646,80 646,90 " style="fill:#d8a715; stroke-width:1; stroke:black; " description="&lt;b&gt;BI06_RS24495&lt;/b&gt;&lt;br&gt;acetyltransferase&lt;br&gt;Location: 115528 - 116316&lt;br&gt;&lt;br&gt;&lt;b&gt;BlastP hit with LLPMBPKK_00309&lt;/b&gt;&lt;br&gt;Percentage identity: 48&lt;br&gt;Percentage coverage: 99&lt;br&gt;BLAST bit score: 226&lt;br&gt;E-value: 3.44e-72" locus_tag="BI06_RS24495" class="clusterblast-orf" id="dummy-1_h1_6_54"  />
</g>
<g id="a1_0055"  >
<polygon points="652,90 658,90 663,85 658,80 652,80 652,90 " style="fill:#d815d8; stroke-width:1; stroke:black; " description="&lt;b&gt;BI06_RS24500&lt;/b&gt;&lt;br&gt;bifunctional 3-(3-hydroxy-phenyl)propionate/3-hydroxycinnamic acid hydroxylase&lt;br&gt;Location: 116313 - 117961&lt;br&gt;&lt;br&gt;&lt;b&gt;BlastP hit with LLPMBPKK_00308&lt;/b&gt;&lt;br&gt;Percentage identity: 59&lt;br&gt;Percentage coverage: 76&lt;br&gt;BLAST bit score: 470&lt;br&gt;E-value: 5.78e-161" locus_tag="BI06_RS24500" class="clusterblast-orf" id="dummy-1_h1_6_55"  />
</g>
<g id="a1_0056"  >
<polygon points="664,85 665,80 665,90 664,85 " style="fill:white; stroke-width:1; stroke:black; " description="&lt;b&gt;BI06_RS24505&lt;/b&gt;&lt;br&gt;3-deoxy-7-phosphoheptulonate synthase class II&lt;br&gt;Location: 118079 - 118267" locus_tag="BI06_RS24505" class="clusterblast-orf" id="dummy-1_h1_6_56"  />
</g>
<g id="a1_0057"  >
<polygon points="666,85 671,80 672,80 672,90 671,90 666,85 " style="fill:#d81577; stroke-width:1; stroke:black; " description="&lt;b&gt;BI06_RS24510&lt;/b&gt;&lt;br&gt;3-deoxy-7-phosphoheptulonate synthase class II&lt;br&gt;Location: 118403 - 119315&lt;br&gt;&lt;br&gt;&lt;b&gt;BlastP hit with LLPMBPKK_00323&lt;/b&gt;&lt;br&gt;Percentage identity: 50&lt;br&gt;Percentage coverage: 65&lt;br&gt;BLAST bit score: 246&lt;br&gt;E-value: 7.29e-77" locus_tag="BI06_RS24510" class="clusterblast-orf" id="dummy-1_h1_6_57"  />
</g>
<g id="a1_0058"  >
<polygon points="672,85 677,80 693,80 693,90 677,90 672,85 " style="fill:#d81546; stroke-width:1; stroke:black; " description="&lt;b&gt;BI06_RS24515&lt;/b&gt;&lt;br&gt;helix-turn-helix transcriptional regulator&lt;br&gt;Location: 119324 - 122323&lt;br&gt;&lt;br&gt;&lt;b&gt;BlastP hit with LLPMBPKK_00328&lt;/b&gt;&lt;br&gt;Percentage identity: 41&lt;br&gt;Percentage coverage: 103&lt;br&gt;BLAST bit score: 581&lt;br&gt;E-value: 6.56e-191" locus_tag="BI06_RS24515" class="clusterblast-orf" id="dummy-1_h1_6_58"  />
</g>
<g id="a1_0059"  >
<polygon points="695,90 695,90 700,85 695,80 695,80 695,90 " style="fill:white; stroke-width:1; stroke:black; " description="&lt;b&gt;BI06_RS24520&lt;/b&gt;&lt;br&gt;hypothetical protein&lt;br&gt;Location: 122551 - 123402" locus_tag="BI06_RS24520" class="clusterblast-orf" id="dummy-1_h1_6_59"  />
</g>
<g id="a1_0060"  >
<polygon points="701,90 704,85 701,80 701,90 " style="fill:white; stroke-width:1; stroke:black; " description="&lt;b&gt;BI06_RS51140&lt;/b&gt;&lt;br&gt;hypothetical protein&lt;br&gt;Location: 123426 - 123994" locus_tag="BI06_RS51140" class="clusterblast-orf" id="dummy-1_h1_6_60"  />
</g>
<g id="a1_0061"  >
<polygon points="712,90 715,85 712,80 712,90 " style="fill:white; stroke-width:1; stroke:black; " description="&lt;b&gt;BI06_RS51145&lt;/b&gt;&lt;br&gt;hypothetical protein&lt;br&gt;Location: 125114 - 125583" locus_tag="BI06_RS51145" class="clusterblast-orf" id="dummy-1_h1_6_61"  />
</g>
<g id="a1_0062"  >
<polygon points="717,85 719,80 719,90 717,85 " style="fill:white; stroke-width:1; stroke:black; " description="&lt;b&gt;BI06_RS24535&lt;/b&gt;&lt;br&gt;LLM class flavin-dependent oxidoreductase&lt;br&gt;Location: 125802 - 126150" locus_tag="BI06_RS24535" class="clusterblast-orf" id="dummy-1_h1_6_62"  />
</g>
<g id="a1_0063"  >
<polygon points="719,85 722,80 722,90 719,85 " style="fill:white; stroke-width:1; stroke:black; " description="&lt;b&gt;BI06_RS46745&lt;/b&gt;&lt;br&gt;MsnO8 family LLM class oxidoreductase&lt;br&gt;Location: 126173 - 126634" locus_tag="BI06_RS46745" class="clusterblast-orf" id="dummy-1_h1_6_63"  />
</g>
<g id="a1_0064"  >
<polygon points="724,85 729,80 731,80 731,90 729,90 724,85 " style="fill:white; stroke-width:1; stroke:black; " description="&lt;b&gt;BI06_RS24545&lt;/b&gt;&lt;br&gt;hypothetical protein&lt;br&gt;Location: 126881 - 127856" locus_tag="BI06_RS24545" class="clusterblast-orf" id="dummy-1_h1_6_64"  />
</g>
<g id="a1_0065"  >
<polygon points="731,85 736,80 743,80 743,90 736,90 731,85 " style="fill:white; stroke-width:1; stroke:black; " description="&lt;b&gt;BI06_RS24550&lt;/b&gt;&lt;br&gt;ABC transporter ATP-binding protein&lt;br&gt;Location: 127853 - 129694" locus_tag="BI06_RS24550" class="clusterblast-orf" id="dummy-1_h1_6_65"  />
</g>
<g id="a1_0066"  >
<polygon points="743,85 748,80 749,80 749,90 748,90 743,85 " style="fill:white; stroke-width:1; stroke:black; " description="&lt;b&gt;BI06_RS24555&lt;/b&gt;&lt;br&gt;ABC transporter permease&lt;br&gt;Location: 129691 - 130548" locus_tag="BI06_RS24555" class="clusterblast-orf" id="dummy-1_h1_6_66"  />
</g>
<g id="a1_0067"  >
<polygon points="749,85 754,80 756,80 756,90 754,90 749,85 " style="fill:white; stroke-width:1; stroke:black; " description="&lt;b&gt;BI06_RS24560&lt;/b&gt;&lt;br&gt;ABC transporter permease&lt;br&gt;Location: 130545 - 131486" locus_tag="BI06_RS24560" class="clusterblast-orf" id="dummy-1_h1_6_67"  />
</g>
<g id="a1_0068"  >
<polygon points="756,85 761,80 767,80 767,90 761,90 756,85 " style="fill:white; stroke-width:1; stroke:black; " description="&lt;b&gt;BI06_RS24565&lt;/b&gt;&lt;br&gt;ABC transporter substrate-binding protein&lt;br&gt;Location: 131524 - 133170" locus_tag="BI06_RS24565" class="clusterblast-orf" id="dummy-1_h1_6_68"  />
</g>
<g id="a1_0069"  >
<polygon points="769,85 774,80 780,80 780,90 774,90 769,85 " style="fill:white; stroke-width:1; stroke:black; " description="&lt;b&gt;BI06_RS24570&lt;/b&gt;&lt;br&gt;MFS transporter&lt;br&gt;Location: 133485 - 134969" locus_tag="BI06_RS24570" class="clusterblast-orf" id="dummy-1_h1_6_69"  />
</g>
</svg>
