<svg xmlns="http://www.w3.org/2000/svg" xmlns:xlink="http://www.w3.org/1999/xlink" version="1.1" x="0" y="0" height="230" width="800" viewBox="0 0 800 230" preserveAspectRatio="none"  >
<g label="Query sequence" class="clusterblast-cluster"  >
<text x="5" y="20" class="clusterblast-acc"  >
Query sequence</text>
<line x1="10" y1="35" x2="778.0" y2="35" style="stroke-width:1; stroke:grey; "  />
<polygon points="322,40 336,40 341,35 336,30 322,30 322,40 " style="fill:#d81515; stroke-width:1; stroke:black; " description="&lt;b&gt;LLPMBPKK_06021&lt;/b&gt;&lt;br&gt;3' terminal RNA ribose 2'-O-methyltransferaseHen1&lt;br&gt;Location: 6941527 - 6942991" locus_tag="LLPMBPKK_06021" class="clusterblast-orf" id="dummy-23_q0_0_all"  />
<polygon points="341,40 368,40 373,35 368,30 341,30 341,40 " style="fill:#77d815; stroke-width:1; stroke:black; " description="&lt;b&gt;LLPMBPKK_06022&lt;/b&gt;&lt;br&gt;phosphatase&lt;br&gt;Location: 6942987 - 6945534" locus_tag="LLPMBPKK_06022" class="clusterblast-orf" id="dummy-23_q1_0_all"  />
<polygon points="375,40 394,40 399,35 394,30 375,30 375,40 " style="fill:#15d8d8; stroke-width:1; stroke:black; " description="&lt;b&gt;LLPMBPKK_06023&lt;/b&gt;&lt;br&gt;RiPP maturation radical SAM protein 1&lt;br&gt;Location: 6945736 - 6947584" locus_tag="LLPMBPKK_06023" class="clusterblast-orf" id="dummy-23_q2_0_all"  />
<polygon points="399,40 401,40 406,35 401,30 399,30 399,40 " style="fill:#7715d8; stroke-width:1; stroke:black; " description="&lt;b&gt;LLPMBPKK_06024&lt;/b&gt;&lt;br&gt;hypothetical protein&lt;br&gt;Location: 6947580 - 6948120" locus_tag="LLPMBPKK_06024" class="clusterblast-orf" id="dummy-23_q3_0_all"  />
<polygon points="407,40 410,40 415,35 410,30 407,30 407,40 " style="fill:#d8a715; stroke-width:1; stroke:black; " description="&lt;b&gt;LLPMBPKK_06025&lt;/b&gt;&lt;br&gt;hypothetical protein&lt;br&gt;Location: 6948274 - 6948883" locus_tag="LLPMBPKK_06025" class="clusterblast-orf" id="dummy-23_q4_0_all"  />
<polygon points="415,40 430,40 435,35 430,30 415,30 415,40 " style="fill:#15d846; stroke-width:1; stroke:black; " description="&lt;b&gt;LLPMBPKK_06026&lt;/b&gt;&lt;br&gt;large membrane protein&lt;br&gt;Location: 6948902 - 6950441" locus_tag="LLPMBPKK_06026" class="clusterblast-orf" id="dummy-23_q5_0_all"  />
<polygon points="435,40 439,40 444,35 439,30 435,30 435,40 " style="fill:#1546d8; stroke-width:1; stroke:black; " description="&lt;b&gt;LLPMBPKK_06027&lt;/b&gt;&lt;br&gt;putative nucleotide-binding protein containingTIR-like domain protein&lt;br&gt;Location: 6950437 - 6951190" locus_tag="LLPMBPKK_06027" class="clusterblast-orf" id="dummy-23_q6_0_all"  />
<polygon points="446,35 451,30 457,30 457,40 451,40 446,35 " style="fill:#d815a7; stroke-width:1; stroke:black; " description="&lt;b&gt;LLPMBPKK_06028&lt;/b&gt;&lt;br&gt;hypothetical protein&lt;br&gt;Location: 6951282 - 6952197" locus_tag="LLPMBPKK_06028" class="clusterblast-orf" id="dummy-23_q7_0_all"  />
</g>
<g label="NZ_KQ948361" description="NZ_KQ948361 (64452-127711): Streptomyces corchorusii strain DSM 40340 PRJNA29... (18% of genes show similarity), NRPS,bacteriocin" class="clusterblast-cluster"  >
<text x="5" y="70" class="clusterblast-acc"  >
<a xlink:href="https://antismash-db.secondarymetabolites.org/area.html?record=NZ_KQ948361&amp;start=64452&amp;end=127711" target="_blank">NZ_KQ948361 (64452-127711)</a>: Streptomyces corchorusii strain DSM 40340 PRJNA29... (18% of genes show similarity), NRPS,bacteriocin</text>
<line x1="10" y1="85" x2="778.0" y2="85" style="stroke-width:1; stroke:grey; "  />
</g>
<g id="a23_000"  >
<polygon points="0,90 13,90 18,85 13,80 0,80 0,90 " style="fill:#d81515; stroke-width:1; stroke:black; " description="&lt;b&gt;AQJ11_RS27815&lt;/b&gt;&lt;br&gt;3' terminal RNA ribose 2'-O-methyltransferase Hen1&lt;br&gt;Location: 126983 - 125517&lt;br&gt;&lt;br&gt;&lt;b&gt;BlastP hit with LLPMBPKK_06021&lt;/b&gt;&lt;br&gt;Percentage identity: 88&lt;br&gt;Percentage coverage: 100&lt;br&gt;BLAST bit score: 842&lt;br&gt;E-value: 1.08e-307" locus_tag="AQJ11_RS27815" class="clusterblast-orf" id="dummy-23_h23_3_0"  />
</g>
<g id="a23_001"  >
<polygon points="18,90 45,90 50,85 45,80 18,80 18,90 " style="fill:#77d815; stroke-width:1; stroke:black; " description="&lt;b&gt;AQJ11_RS27810&lt;/b&gt;&lt;br&gt;polynucleotide kinase-phosphatase&lt;br&gt;Location: 125520 - 122953&lt;br&gt;&lt;br&gt;&lt;b&gt;BlastP hit with LLPMBPKK_06022&lt;/b&gt;&lt;br&gt;Percentage identity: 93&lt;br&gt;Percentage coverage: 101&lt;br&gt;BLAST bit score: 1582&lt;br&gt;E-value: 0.0" locus_tag="AQJ11_RS27810" class="clusterblast-orf" id="dummy-23_h23_3_1"  />
</g>
<g id="a23_002"  >
<polygon points="54,90 72,90 77,85 72,80 54,80 54,90 " style="fill:#15d8d8; stroke-width:1; stroke:black; " description="&lt;b&gt;AQJ11_RS27805&lt;/b&gt;&lt;br&gt;RiPP maturation radical SAM protein 1&lt;br&gt;Location: 122711 - 120864&lt;br&gt;&lt;br&gt;&lt;b&gt;BlastP hit with LLPMBPKK_06023&lt;/b&gt;&lt;br&gt;Percentage identity: 89&lt;br&gt;Percentage coverage: 100&lt;br&gt;BLAST bit score: 1146&lt;br&gt;E-value: 0.0" locus_tag="AQJ11_RS27805" class="clusterblast-orf" id="dummy-23_h23_3_2"  />
</g>
<g id="a23_003"  >
<polygon points="77,90 79,90 84,85 79,80 77,80 77,90 " style="fill:#7715d8; stroke-width:1; stroke:black; " description="&lt;b&gt;AQJ11_RS27800&lt;/b&gt;&lt;br&gt;hypothetical protein&lt;br&gt;Location: 120867 - 120319&lt;br&gt;&lt;br&gt;&lt;b&gt;BlastP hit with LLPMBPKK_06024&lt;/b&gt;&lt;br&gt;Percentage identity: 80&lt;br&gt;Percentage coverage: 102&lt;br&gt;BLAST bit score: 290&lt;br&gt;E-value: 6.85e-100" locus_tag="AQJ11_RS27800" class="clusterblast-orf" id="dummy-23_h23_3_3"  />
</g>
<g id="a23_004"  >
<polygon points="86,90 89,90 94,85 89,80 86,80 86,90 " style="fill:#d8a715; stroke-width:1; stroke:black; " description="&lt;b&gt;AQJ11_RS27795&lt;/b&gt;&lt;br&gt;hypothetical protein&lt;br&gt;Location: 120164 - 119550&lt;br&gt;&lt;br&gt;&lt;b&gt;BlastP hit with LLPMBPKK_06025&lt;/b&gt;&lt;br&gt;Percentage identity: 62&lt;br&gt;Percentage coverage: 99&lt;br&gt;BLAST bit score: 160&lt;br&gt;E-value: 5.17e-48" locus_tag="AQJ11_RS27795" class="clusterblast-orf" id="dummy-23_h23_3_4"  />
</g>
<g id="a23_005"  >
<polygon points="94,90 109,90 114,85 109,80 94,80 94,90 " style="fill:#15d846; stroke-width:1; stroke:black; " description="&lt;b&gt;AQJ11_RS27790&lt;/b&gt;&lt;br&gt;hypothetical protein&lt;br&gt;Location: 119528 - 117966&lt;br&gt;&lt;br&gt;&lt;b&gt;BlastP hit with LLPMBPKK_06026&lt;/b&gt;&lt;br&gt;Percentage identity: 75&lt;br&gt;Percentage coverage: 103&lt;br&gt;BLAST bit score: 738&lt;br&gt;E-value: 5.91e-266" locus_tag="AQJ11_RS27790" class="clusterblast-orf" id="dummy-23_h23_3_5"  />
</g>
<g id="a23_006"  >
<polygon points="114,90 118,90 123,85 118,80 114,80 114,90 " style="fill:#1546d8; stroke-width:1; stroke:black; " description="&lt;b&gt;AQJ11_RS27785&lt;/b&gt;&lt;br&gt;nucleotide-binding protein&lt;br&gt;Location: 117969 - 117229&lt;br&gt;&lt;br&gt;&lt;b&gt;BlastP hit with LLPMBPKK_06027&lt;/b&gt;&lt;br&gt;Percentage identity: 79&lt;br&gt;Percentage coverage: 100&lt;br&gt;BLAST bit score: 375&lt;br&gt;E-value: 4.73e-131" locus_tag="AQJ11_RS27785" class="clusterblast-orf" id="dummy-23_h23_3_6"  />
</g>
<g id="a23_007"  >
<polygon points="124,85 129,80 134,80 134,90 129,90 124,85 " style="fill:#d815a7; stroke-width:1; stroke:black; " description="&lt;b&gt;AQJ11_RS27780&lt;/b&gt;&lt;br&gt;hypothetical protein&lt;br&gt;Location: 117161 - 116322&lt;br&gt;&lt;br&gt;&lt;b&gt;BlastP hit with LLPMBPKK_06028&lt;/b&gt;&lt;br&gt;Percentage identity: 93&lt;br&gt;Percentage coverage: 91&lt;br&gt;BLAST bit score: 504&lt;br&gt;E-value: 6.16e-181" locus_tag="AQJ11_RS27780" class="clusterblast-orf" id="dummy-23_h23_3_7"  />
</g>
<g id="a23_008"  >
<polygon points="137,90 149,90 154,85 149,80 137,80 137,90 " style="fill:#d815a7; stroke-width:1; stroke:black; " description="&lt;b&gt;AQJ11_RS27775&lt;/b&gt;&lt;br&gt;hypothetical protein&lt;br&gt;Location: 116115 - 114784&lt;br&gt;&lt;br&gt;&lt;b&gt;BlastP hit with LLPMBPKK_06028&lt;/b&gt;&lt;br&gt;Percentage identity: 52&lt;br&gt;Percentage coverage: 67&lt;br&gt;BLAST bit score: 169&lt;br&gt;E-value: 3.01e-47" locus_tag="AQJ11_RS27775" class="clusterblast-orf" id="dummy-23_h23_3_8"  />
</g>
<g id="a23_009"  >
<polygon points="156,90 166,90 171,85 166,80 156,80 156,90 " style="fill:white; stroke-width:1; stroke:black; " description="&lt;b&gt;AQJ11_RS27770&lt;/b&gt;&lt;br&gt;arginine deiminase&lt;br&gt;Location: 114616 - 113393" locus_tag="AQJ11_RS27770" class="clusterblast-orf" id="dummy-23_h23_3_9"  />
</g>
<g id="a23_0010"  >
<polygon points="173,90 180,90 185,85 180,80 173,80 173,90 " style="fill:white; stroke-width:1; stroke:black; " description="&lt;b&gt;AQJ11_RS27765&lt;/b&gt;&lt;br&gt;ornithine carbamoyltransferase&lt;br&gt;Location: 113303 - 112281" locus_tag="AQJ11_RS27765" class="clusterblast-orf" id="dummy-23_h23_3_10"  />
</g>
<g id="a23_0011"  >
<polygon points="187,90 200,90 205,85 200,80 187,80 187,90 " style="fill:white; stroke-width:1; stroke:black; " description="&lt;b&gt;AQJ11_RS27760&lt;/b&gt;&lt;br&gt;amino acid permease&lt;br&gt;Location: 112170 - 110725" locus_tag="AQJ11_RS27760" class="clusterblast-orf" id="dummy-23_h23_3_11"  />
</g>
<g id="a23_0012"  >
<polygon points="205,85 210,80 210,80 210,90 210,90 205,85 " style="fill:white; stroke-width:1; stroke:black; " description="&lt;b&gt;AQJ11_RS27755&lt;/b&gt;&lt;br&gt;ATP-binding protein&lt;br&gt;Location: 110765 - 110313" locus_tag="AQJ11_RS27755" class="clusterblast-orf" id="dummy-23_h23_3_12"  />
</g>
<g id="a23_0013"  >
<polygon points="214,90 220,90 225,85 220,80 214,80 214,90 " style="fill:white; stroke-width:1; stroke:black; " description="&lt;b&gt;AQJ11_RS27750&lt;/b&gt;&lt;br&gt;enoyl-CoA hydratase family protein&lt;br&gt;Location: 109990 - 109163" locus_tag="AQJ11_RS27750" class="clusterblast-orf" id="dummy-23_h23_3_13"  />
</g>
<g id="a23_0014"  >
<polygon points="225,90 249,90 254,85 249,80 225,80 225,90 " style="fill:white; stroke-width:1; stroke:black; " description="&lt;b&gt;AQJ11_RS27745&lt;/b&gt;&lt;br&gt;bifunctional salicylyl-CoA 5-hydroxylase/oxidoreductase&lt;br&gt;Location: 109156 - 106883" locus_tag="AQJ11_RS27745" class="clusterblast-orf" id="dummy-23_h23_3_14"  />
</g>
<g id="a23_0015"  >
<polygon points="254,85 259,80 264,80 264,90 259,90 254,85 " style="fill:white; stroke-width:1; stroke:black; " description="&lt;b&gt;AQJ11_RS27740&lt;/b&gt;&lt;br&gt;PaaX family transcriptional regulator&lt;br&gt;Location: 106869 - 106057" locus_tag="AQJ11_RS27740" class="clusterblast-orf" id="dummy-23_h23_3_15"  />
</g>
<g id="a23_0016"  >
<polygon points="264,85 269,80 285,80 285,90 269,90 264,85 " style="fill:white; stroke-width:1; stroke:black; " description="&lt;b&gt;AQJ11_RS27735&lt;/b&gt;&lt;br&gt;AMP-binding protein&lt;br&gt;Location: 106041 - 104449" locus_tag="AQJ11_RS27735" class="clusterblast-orf" id="dummy-23_h23_3_16"  />
</g>
<g id="a23_0017"  >
<polygon points="287,90 297,90 302,85 297,80 287,80 287,90 " style="fill:white; stroke-width:1; stroke:black; " description="&lt;b&gt;AQJ11_RS27730&lt;/b&gt;&lt;br&gt;acyl-CoA dehydrogenase family protein&lt;br&gt;Location: 104240 - 103110" locus_tag="AQJ11_RS27730" class="clusterblast-orf" id="dummy-23_h23_3_17"  />
</g>
<g id="a23_0018"  >
<polygon points="301,90 302,90 307,85 302,80 301,80 301,90 " style="fill:white; stroke-width:1; stroke:black; " description="&lt;b&gt;AQJ11_RS27725&lt;/b&gt;&lt;br&gt;RidA family protein&lt;br&gt;Location: 103113 - 102715" locus_tag="AQJ11_RS27725" class="clusterblast-orf" id="dummy-23_h23_3_18"  />
</g>
<g id="a23_0019"  >
<polygon points="308,90 309,90 314,85 309,80 308,80 308,90 " style="fill:white; stroke-width:1; stroke:black; " description="&lt;b&gt;AQJ11_RS27720&lt;/b&gt;&lt;br&gt;hypothetical protein&lt;br&gt;Location: 102570 - 102142" locus_tag="AQJ11_RS27720" class="clusterblast-orf" id="dummy-23_h23_3_19"  />
</g>
<g id="a23_0020"  >
<polygon points="314,85 319,80 324,80 324,90 319,90 314,85 " style="fill:white; stroke-width:1; stroke:black; " description="&lt;b&gt;AQJ11_RS27715&lt;/b&gt;&lt;br&gt;GntR family transcriptional regulator&lt;br&gt;Location: 102122 - 101304" locus_tag="AQJ11_RS27715" class="clusterblast-orf" id="dummy-23_h23_3_20"  />
</g>
<g id="a23_0021"  >
<polygon points="328,90 339,90 344,85 339,80 328,80 328,90 " style="fill:white; stroke-width:1; stroke:black; " description="&lt;b&gt;AQJ11_RS27710&lt;/b&gt;&lt;br&gt;extracellular solute-binding protein&lt;br&gt;Location: 101001 - 99721" locus_tag="AQJ11_RS27710" class="clusterblast-orf" id="dummy-23_h23_3_21"  />
</g>
<g id="a23_0022"  >
<polygon points="345,90 353,90 358,85 353,80 345,80 345,90 " style="fill:white; stroke-width:1; stroke:black; " description="&lt;b&gt;AQJ11_RS27705&lt;/b&gt;&lt;br&gt;sugar ABC transporter permease&lt;br&gt;Location: 99642 - 98644" locus_tag="AQJ11_RS27705" class="clusterblast-orf" id="dummy-23_h23_3_22"  />
</g>
<g id="a23_0023"  >
<polygon points="358,90 363,90 368,85 363,80 358,80 358,90 " style="fill:white; stroke-width:1; stroke:black; " description="&lt;b&gt;AQJ11_RS27700&lt;/b&gt;&lt;br&gt;carbohydrate ABC transporter permease&lt;br&gt;Location: 98647 - 97817" locus_tag="AQJ11_RS27700" class="clusterblast-orf" id="dummy-23_h23_3_23"  />
</g>
<g id="a23_0024"  >
<polygon points="369,90 383,90 388,85 383,80 369,80 369,90 " style="fill:white; stroke-width:1; stroke:black; " description="&lt;b&gt;AQJ11_RS27695&lt;/b&gt;&lt;br&gt;glycoside hydrolase family 3 protein&lt;br&gt;Location: 97808 - 96297" locus_tag="AQJ11_RS27695" class="clusterblast-orf" id="dummy-23_h23_3_24"  />
</g>
<g id="a23_0025"  >
<polygon points="389,90 397,90 402,85 397,80 389,80 389,90 " style="fill:white; stroke-width:1; stroke:black; " description="&lt;b&gt;AQJ11_RS27690&lt;/b&gt;&lt;br&gt;DUF1479 family protein&lt;br&gt;Location: 96191 - 95160" locus_tag="AQJ11_RS27690" class="clusterblast-orf" id="dummy-23_h23_3_25"  />
</g>
<g id="a23_0026"  >
<polygon points="402,90 413,90 418,85 413,80 402,80 402,90 " style="fill:white; stroke-width:1; stroke:black; " description="&lt;b&gt;AQJ11_RS27685&lt;/b&gt;&lt;br&gt;hypothetical protein&lt;br&gt;Location: 95163 - 93874" locus_tag="AQJ11_RS27685" class="clusterblast-orf" id="dummy-23_h23_3_26"  />
</g>
<g id="a23_0027"  >
<polygon points="418,90 429,90 434,85 429,80 418,80 418,90 " style="fill:white; stroke-width:1; stroke:black; " description="&lt;b&gt;AQJ11_RS27680&lt;/b&gt;&lt;br&gt;type III PLP-dependent enzyme&lt;br&gt;Location: 93877 - 92663" locus_tag="AQJ11_RS27680" class="clusterblast-orf" id="dummy-23_h23_3_27"  />
</g>
<g id="a23_0028"  >
<polygon points="434,90 435,90 440,85 435,80 434,80 434,90 " style="fill:white; stroke-width:1; stroke:black; " description="&lt;b&gt;AQJ11_RS27675&lt;/b&gt;&lt;br&gt;GNAT family N-acetyltransferase&lt;br&gt;Location: 92661 - 92158" locus_tag="AQJ11_RS27675" class="clusterblast-orf" id="dummy-23_h23_3_28"  />
</g>
<g id="a23_0029"  >
<polygon points="440,90 450,90 455,85 450,80 440,80 440,90 " style="fill:white; stroke-width:1; stroke:black; " description="&lt;b&gt;AQJ11_RS27670&lt;/b&gt;&lt;br&gt;MFS transporter&lt;br&gt;Location: 92158 - 90971" locus_tag="AQJ11_RS27670" class="clusterblast-orf" id="dummy-23_h23_3_29"  />
</g>
<g id="a23_0030"  >
<polygon points="456,85 461,80 469,80 469,90 461,90 456,85 " style="fill:white; stroke-width:1; stroke:black; " description="&lt;b&gt;AQJ11_RS27665&lt;/b&gt;&lt;br&gt;2,3-diaminopropionate biosynthesis protein SbnA&lt;br&gt;Location: 90894 - 89872" locus_tag="AQJ11_RS27665" class="clusterblast-orf" id="dummy-23_h23_3_30"  />
</g>
<g id="a23_0031"  >
<polygon points="469,85 474,80 483,80 483,90 474,90 469,85 " style="fill:white; stroke-width:1; stroke:black; " description="&lt;b&gt;AQJ11_RS27660&lt;/b&gt;&lt;br&gt;2,3-diaminopropionate biosynthesis protein SbnB&lt;br&gt;Location: 89834 - 88764" locus_tag="AQJ11_RS27660" class="clusterblast-orf" id="dummy-23_h23_3_31"  />
</g>
<g id="a23_0032"  >
<polygon points="483,85 488,80 496,80 496,90 488,90 483,85 " style="fill:white; stroke-width:1; stroke:black; " description="&lt;b&gt;AQJ11_RS27655&lt;/b&gt;&lt;br&gt;TauD/TfdA family dioxygenase&lt;br&gt;Location: 88767 - 87763" locus_tag="AQJ11_RS27655" class="clusterblast-orf" id="dummy-23_h23_3_32"  />
</g>
<g id="a23_0033"  >
<polygon points="496,85 501,80 538,80 538,90 501,90 496,85 " style="fill:white; stroke-width:1; stroke:black; " description="&lt;b&gt;AQJ11_RS27650&lt;/b&gt;&lt;br&gt;non-ribosomal peptide synthetase&lt;br&gt;Location: 87722 - 84453" locus_tag="AQJ11_RS27650" class="clusterblast-orf" id="dummy-23_h23_3_33"  />
</g>
<g id="a23_0034"  >
<polygon points="538,85 543,80 570,80 570,90 543,90 538,85 " style="fill:white; stroke-width:1; stroke:black; " description="&lt;b&gt;AQJ11_RS27645&lt;/b&gt;&lt;br&gt;peptide synthetase&lt;br&gt;Location: 84439 - 81863" locus_tag="AQJ11_RS27645" class="clusterblast-orf" id="dummy-23_h23_3_34"  />
</g>
<g id="a23_0035"  >
<polygon points="575,90 585,90 590,85 585,80 575,80 575,90 " style="fill:white; stroke-width:1; stroke:black; " description="&lt;b&gt;AQJ11_RS27640&lt;/b&gt;&lt;br&gt;FAD-dependent oxidoreductase&lt;br&gt;Location: 81524 - 80334" locus_tag="AQJ11_RS27640" class="clusterblast-orf" id="dummy-23_h23_3_35"  />
</g>
<g id="a23_0036"  >
<polygon points="590,90 597,90 602,85 597,80 590,80 590,90 " style="fill:white; stroke-width:1; stroke:black; " description="&lt;b&gt;AQJ11_RS27635&lt;/b&gt;&lt;br&gt;sigma-70 family RNA polymerase sigma factor&lt;br&gt;Location: 80323 - 79385" locus_tag="AQJ11_RS27635" class="clusterblast-orf" id="dummy-23_h23_3_36"  />
</g>
<g id="a23_0037"  >
<polygon points="604,85 609,80 613,80 613,90 609,90 604,85 " style="fill:white; stroke-width:1; stroke:black; " description="&lt;b&gt;AQJ11_RS27630&lt;/b&gt;&lt;br&gt;AhpC/TSA family protein&lt;br&gt;Location: 79169 - 78519" locus_tag="AQJ11_RS27630" class="clusterblast-orf" id="dummy-23_h23_3_37"  />
</g>
<g id="a23_0038"  >
<polygon points="615,90 617,90 622,85 617,80 615,80 615,90 " style="fill:white; stroke-width:1; stroke:black; " description="&lt;b&gt;AQJ11_RS27625&lt;/b&gt;&lt;br&gt;TetR/AcrR family transcriptional regulator&lt;br&gt;Location: 78365 - 77766" locus_tag="AQJ11_RS27625" class="clusterblast-orf" id="dummy-23_h23_3_38"  />
</g>
<g id="a23_0039"  >
<polygon points="625,85 627,80 627,90 625,85 " style="fill:white; stroke-width:1; stroke:black; " description="&lt;b&gt;AQJ11_RS49950&lt;/b&gt;&lt;br&gt;sodium:solute symporter&lt;br&gt;Location: 77555 - 77388" locus_tag="AQJ11_RS49950" class="clusterblast-orf" id="dummy-23_h23_3_39"  />
</g>
<g id="a23_0040"  >
<polygon points="627,90 628,85 627,80 627,90 " style="fill:white; stroke-width:1; stroke:black; " description="&lt;b&gt;AQJ11_RS46345&lt;/b&gt;&lt;br&gt;integrase&lt;br&gt;Location: 77379 - 77299" locus_tag="AQJ11_RS46345" class="clusterblast-orf" id="dummy-23_h23_3_40"  />
</g>
<g id="a23_0041"  >
<polygon points="631,85 636,80 651,80 651,90 636,90 631,85 " style="fill:white; stroke-width:1; stroke:black; " description="&lt;b&gt;AQJ11_RS27620&lt;/b&gt;&lt;br&gt;UDP-N-acetylglucosamine 1-carboxyvinyltransferase&lt;br&gt;Location: 77033 - 75504" locus_tag="AQJ11_RS27620" class="clusterblast-orf" id="dummy-23_h23_3_41"  />
</g>
<g id="a23_0042"  >
<polygon points="656,90 686,90 691,85 686,80 656,80 656,90 " style="fill:white; stroke-width:1; stroke:black; " description="&lt;b&gt;AQJ11_RS27615&lt;/b&gt;&lt;br&gt;aconitate hydratase AcnA&lt;br&gt;Location: 75053 - 72336" locus_tag="AQJ11_RS27615" class="clusterblast-orf" id="dummy-23_h23_3_42"  />
</g>
<g id="a23_0043"  >
<polygon points="693,85 698,80 727,80 727,90 698,90 693,85 " style="fill:white; stroke-width:1; stroke:black; " description="&lt;b&gt;AQJ11_RS27610&lt;/b&gt;&lt;br&gt;SpoIIE family protein phosphatase&lt;br&gt;Location: 72177 - 69493" locus_tag="AQJ11_RS27610" class="clusterblast-orf" id="dummy-23_h23_3_43"  />
</g>
<g id="a23_0044"  >
<polygon points="739,85 744,80 744,80 744,90 744,90 739,85 " style="fill:white; stroke-width:1; stroke:black; " description="&lt;b&gt;AQJ11_RS27605&lt;/b&gt;&lt;br&gt;nucleotide exchange factor GrpE&lt;br&gt;Location: 68561 - 68112" locus_tag="AQJ11_RS27605" class="clusterblast-orf" id="dummy-23_h23_3_44"  />
</g>
<g id="a23_0045"  >
<polygon points="744,85 749,80 768,80 768,90 749,90 744,85 " style="fill:white; stroke-width:1; stroke:black; " description="&lt;b&gt;AQJ11_RS27600&lt;/b&gt;&lt;br&gt;molecular chaperone DnaK&lt;br&gt;Location: 68109 - 66217" locus_tag="AQJ11_RS27600" class="clusterblast-orf" id="dummy-23_h23_3_45"  />
</g>
<g id="a23_0046"  >
<polygon points="769,85 774,80 774,80 774,90 774,90 769,85 " style="fill:white; stroke-width:1; stroke:black; " description="&lt;b&gt;AQJ11_RS27595&lt;/b&gt;&lt;br&gt;J domain-containing protein&lt;br&gt;Location: 66181 - 65786" locus_tag="AQJ11_RS27595" class="clusterblast-orf" id="dummy-23_h23_3_46"  />
</g>
<g id="a23_0047"  >
<polygon points="775,85 780,80 780,80 780,90 780,90 775,85 " style="fill:white; stroke-width:1; stroke:black; " description="&lt;b&gt;AQJ11_RS27590&lt;/b&gt;&lt;br&gt;hypothetical protein&lt;br&gt;Location: 65712 - 65326" locus_tag="AQJ11_RS27590" class="clusterblast-orf" id="dummy-23_h23_3_47"  />
</g>
</svg>
