<svg xmlns="http://www.w3.org/2000/svg" xmlns:xlink="http://www.w3.org/1999/xlink" version="1.1" x="0" y="0" height="230" width="800" viewBox="0 0 800 230" preserveAspectRatio="none"  >
<g label="Query sequence" class="clusterblast-cluster"  >
<text x="5" y="20" class="clusterblast-acc"  >
Query sequence</text>
<line x1="10" y1="35" x2="778.0" y2="35" style="stroke-width:1; stroke:grey; "  />
<polygon points="38,35 43,30 77,30 77,40 43,40 38,35 " style="fill:white; stroke-width:1; stroke:black; " description="&lt;b&gt;LLPMBPKK_03075&lt;/b&gt;&lt;br&gt;hypothetical protein&lt;br&gt;Location: 3573605 - 3574061" locus_tag="LLPMBPKK_03075" class="clusterblast-orf" id="dummy-15_q0_0_all"  />
<polygon points="99,40 121,40 126,35 121,30 99,30 99,40 " style="fill:white; stroke-width:1; stroke:black; " description="&lt;b&gt;LLPMBPKK_03076&lt;/b&gt;&lt;br&gt;hypothetical protein&lt;br&gt;Location: 3574323 - 3574632" locus_tag="LLPMBPKK_03076" class="clusterblast-orf" id="dummy-15_q1_0_all"  />
<polygon points="146,40 224,40 229,35 224,30 146,30 146,40 " style="fill:#d81515; stroke-width:1; stroke:black; " description="&lt;b&gt;LLPMBPKK_03077&lt;/b&gt;&lt;br&gt;D-2-hydroxyacid dehydrogenase family protein&lt;br&gt;Location: 3574867 - 3575827" locus_tag="LLPMBPKK_03077" class="clusterblast-orf" id="dummy-15_q2_0_all"  />
<polygon points="243,40 265,40 270,35 265,30 243,30 243,40 " style="fill:#15d815; stroke-width:1; stroke:black; " description="&lt;b&gt;LLPMBPKK_03078&lt;/b&gt;&lt;br&gt;chaplin&lt;br&gt;Location: 3575993 - 3576308" locus_tag="LLPMBPKK_03078" class="clusterblast-orf" id="dummy-15_q3_0_all"  />
<polygon points="279,35 284,30 353,30 353,40 284,40 279,35 " style="fill:#1597d8; stroke-width:1; stroke:black; " description="&lt;b&gt;LLPMBPKK_03079&lt;/b&gt;&lt;br&gt;tyrosinase family protein&lt;br&gt;Location: 3576403 - 3577270" locus_tag="LLPMBPKK_03079" class="clusterblast-orf" id="dummy-15_q4_0_all"  />
<polygon points="352,35 357,30 394,30 394,40 357,40 352,35 " style="fill:#9715d8; stroke-width:1; stroke:black; " description="&lt;b&gt;LLPMBPKK_03080&lt;/b&gt;&lt;br&gt;tyrosinase&lt;br&gt;Location: 3577253 - 3577739" locus_tag="LLPMBPKK_03080" class="clusterblast-orf" id="dummy-15_q5_0_all"  />
<polygon points="407,35 412,30 458,30 458,40 412,40 407,35 " style="fill:#d89715; stroke-width:1; stroke:black; " description="&lt;b&gt;LLPMBPKK_03081&lt;/b&gt;&lt;br&gt;hypothetical protein&lt;br&gt;Location: 3577894 - 3578482" locus_tag="LLPMBPKK_03081" class="clusterblast-orf" id="dummy-15_q6_0_all"  />
<polygon points="460,35 465,30 510,30 510,40 465,40 460,35 " style="fill:#15d897; stroke-width:1; stroke:black; " description="&lt;b&gt;LLPMBPKK_03082&lt;/b&gt;&lt;br&gt;vitamin K epoxide reductase family protein&lt;br&gt;Location: 3578510 - 3579095" locus_tag="LLPMBPKK_03082" class="clusterblast-orf" id="dummy-15_q7_0_all"  />
<polygon points="510,35 515,30 561,30 561,40 515,40 510,35 " style="fill:#1515d8; stroke-width:1; stroke:black; " description="&lt;b&gt;LLPMBPKK_03083&lt;/b&gt;&lt;br&gt;hypothetical protein&lt;br&gt;Location: 3579094 - 3579679" locus_tag="LLPMBPKK_03083" class="clusterblast-orf" id="dummy-15_q8_0_all"  />
<polygon points="565,35 570,30 590,30 590,40 570,40 565,35 " style="fill:#d81597; stroke-width:1; stroke:black; " description="&lt;b&gt;LLPMBPKK_03084&lt;/b&gt;&lt;br&gt;hypothetical protein&lt;br&gt;Location: 3579727 - 3580015" locus_tag="LLPMBPKK_03084" class="clusterblast-orf" id="dummy-15_q9_0_all"  />
<polygon points="601,35 606,30 708,30 708,40 606,40 601,35 " style="fill:#97d815; stroke-width:1; stroke:black; " description="&lt;b&gt;LLPMBPKK_03085&lt;/b&gt;&lt;br&gt;hypothetical protein&lt;br&gt;Location: 3580148 - 3581384" locus_tag="LLPMBPKK_03085" class="clusterblast-orf" id="dummy-15_q10_0_all"  />
<polygon points="722,35 727,30 743,30 743,40 727,40 722,35 " style="fill:#15d815; stroke-width:1; stroke:black; " description="&lt;b&gt;LLPMBPKK_03086&lt;/b&gt;&lt;br&gt;chaplin&lt;br&gt;Location: 3581555 - 3581795" locus_tag="LLPMBPKK_03086" class="clusterblast-orf" id="dummy-15_q11_0_all"  />
</g>
<g label="NZ_CP021080" description="NZ_CP021080 (2321390-2330446): Streptomyces pluripotens strain MUSC 135 chrom... (69% of genes show similarity), melanin" class="clusterblast-cluster"  >
<text x="5" y="70" class="clusterblast-acc"  >
<a xlink:href="https://antismash-db.secondarymetabolites.org/area.html?record=NZ_CP021080&amp;start=2321390&amp;end=2330446" target="_blank">NZ_CP021080 (2321390-2330446)</a>: Streptomyces pluripotens strain MUSC 135 chrom... (69% of genes show similarity), melanin</text>
<line x1="10" y1="85" x2="778.0" y2="85" style="stroke-width:1; stroke:grey; "  />
</g>
<g id="a15_000"  >
<polygon points="0,85 5,80 108,80 108,90 5,90 0,85 " style="fill:white; stroke-width:1; stroke:black; " description="&lt;b&gt;LK06_RS10275&lt;/b&gt;&lt;br&gt;glycosyltransferase family 4 protein&lt;br&gt;Location: 2321391 - 2322647" locus_tag="LK06_RS10275" class="clusterblast-orf" id="dummy-15_h15_9_0"  />
</g>
<g id="a15_001"  >
<polygon points="127,90 156,90 161,85 156,80 127,80 127,90 " style="fill:white; stroke-width:1; stroke:black; " description="&lt;b&gt;LK06_RS10280&lt;/b&gt;&lt;br&gt;BlaI/MecI/CopY family transcriptional regulator&lt;br&gt;Location: 2322874 - 2323263" locus_tag="LK06_RS10280" class="clusterblast-orf" id="dummy-15_h15_9_1"  />
</g>
<g id="a15_002"  >
<polygon points="162,90 238,90 243,85 238,80 162,80 162,90 " style="fill:white; stroke-width:1; stroke:black; " description="&lt;b&gt;LK06_RS10285&lt;/b&gt;&lt;br&gt;M56 family metallopeptidase&lt;br&gt;Location: 2323276 - 2324214" locus_tag="LK06_RS10285" class="clusterblast-orf" id="dummy-15_h15_9_2"  />
</g>
<g id="a15_003"  >
<polygon points="265,90 289,90 294,85 289,80 265,80 265,90 " style="fill:#15d815; stroke-width:1; stroke:black; " description="&lt;b&gt;LK06_RS10290&lt;/b&gt;&lt;br&gt;chaplin&lt;br&gt;Location: 2324477 - 2324809&lt;br&gt;&lt;br&gt;&lt;b&gt;BlastP hit with LLPMBPKK_03078&lt;/b&gt;&lt;br&gt;Percentage identity: 63&lt;br&gt;Percentage coverage: 105&lt;br&gt;BLAST bit score: 115&lt;br&gt;E-value: 6.55e-33&lt;br&gt;&lt;br&gt;&lt;b&gt;BlastP hit with LLPMBPKK_03086&lt;/b&gt;&lt;br&gt;Percentage identity: 64&lt;br&gt;Percentage coverage: 99&lt;br&gt;BLAST bit score: 86&lt;br&gt;E-value: 8.75e-22" locus_tag="LK06_RS10290" class="clusterblast-orf" id="dummy-15_h15_9_3"  />
</g>
<g id="a15_004"  >
<polygon points="305,85 310,80 380,80 380,90 310,90 305,85 " style="fill:#1597d8; stroke-width:1; stroke:black; " description="&lt;b&gt;LK06_RS10295&lt;/b&gt;&lt;br&gt;tyrosinase family protein&lt;br&gt;Location: 2324939 - 2325805&lt;br&gt;&lt;br&gt;&lt;b&gt;BlastP hit with LLPMBPKK_03079&lt;/b&gt;&lt;br&gt;Percentage identity: 85&lt;br&gt;Percentage coverage: 100&lt;br&gt;BLAST bit score: 536&lt;br&gt;E-value: 2.05e-193" locus_tag="LK06_RS10295" class="clusterblast-orf" id="dummy-15_h15_9_4"  />
</g>
<g id="a15_005"  >
<polygon points="378,85 383,80 426,80 426,90 383,90 378,85 " style="fill:#9715d8; stroke-width:1; stroke:black; " description="&lt;b&gt;LK06_RS10300&lt;/b&gt;&lt;br&gt;tyrosinase&lt;br&gt;Location: 2325789 - 2326346&lt;br&gt;&lt;br&gt;&lt;b&gt;BlastP hit with LLPMBPKK_03080&lt;/b&gt;&lt;br&gt;Percentage identity: 69&lt;br&gt;Percentage coverage: 115&lt;br&gt;BLAST bit score: 223&lt;br&gt;E-value: 2.33e-73" locus_tag="LK06_RS10300" class="clusterblast-orf" id="dummy-15_h15_9_5"  />
</g>
<g id="a15_006"  >
<polygon points="436,85 441,80 480,80 480,90 441,90 436,85 " style="fill:#d89715; stroke-width:1; stroke:black; " description="&lt;b&gt;LK06_RS10305&lt;/b&gt;&lt;br&gt;hypothetical protein&lt;br&gt;Location: 2326455 - 2326973&lt;br&gt;&lt;br&gt;&lt;b&gt;BlastP hit with LLPMBPKK_03081&lt;/b&gt;&lt;br&gt;Percentage identity: 68&lt;br&gt;Percentage coverage: 89&lt;br&gt;BLAST bit score: 222&lt;br&gt;E-value: 1.14e-72" locus_tag="LK06_RS10305" class="clusterblast-orf" id="dummy-15_h15_9_6"  />
</g>
<g id="a15_007"  >
<polygon points="490,85 495,80 541,80 541,90 495,90 490,85 " style="fill:#15d897; stroke-width:1; stroke:black; " description="&lt;b&gt;LK06_RS10310&lt;/b&gt;&lt;br&gt;vitamin K epoxide reductase family protein&lt;br&gt;Location: 2327090 - 2327674&lt;br&gt;&lt;br&gt;&lt;b&gt;BlastP hit with LLPMBPKK_03082&lt;/b&gt;&lt;br&gt;Percentage identity: 84&lt;br&gt;Percentage coverage: 100&lt;br&gt;BLAST bit score: 342&lt;br&gt;E-value: 7.21e-120" locus_tag="LK06_RS10310" class="clusterblast-orf" id="dummy-15_h15_9_7"  />
</g>
<g id="a15_008"  >
<polygon points="541,85 546,80 583,80 583,90 546,90 541,85 " style="fill:#1515d8; stroke-width:1; stroke:black; " description="&lt;b&gt;LK06_RS10315&lt;/b&gt;&lt;br&gt;hypothetical protein&lt;br&gt;Location: 2327674 - 2328165&lt;br&gt;&lt;br&gt;&lt;b&gt;BlastP hit with LLPMBPKK_03083&lt;/b&gt;&lt;br&gt;Percentage identity: 50&lt;br&gt;Percentage coverage: 86&lt;br&gt;BLAST bit score: 148&lt;br&gt;E-value: 1.1e-43" locus_tag="LK06_RS10315" class="clusterblast-orf" id="dummy-15_h15_9_8"  />
</g>
<g id="a15_009"  >
<polygon points="598,85 603,80 623,80 623,90 603,90 598,85 " style="fill:#d81597; stroke-width:1; stroke:black; " description="&lt;b&gt;LK06_RS10320&lt;/b&gt;&lt;br&gt;hypothetical protein&lt;br&gt;Location: 2328336 - 2328626&lt;br&gt;&lt;br&gt;&lt;b&gt;BlastP hit with LLPMBPKK_03084&lt;/b&gt;&lt;br&gt;Percentage identity: 67&lt;br&gt;Percentage coverage: 100&lt;br&gt;BLAST bit score: 118&lt;br&gt;E-value: 2.62e-34" locus_tag="LK06_RS10320" class="clusterblast-orf" id="dummy-15_h15_9_9"  />
</g>
<g id="a15_0010"  >
<polygon points="632,85 637,80 707,80 707,90 637,90 632,85 " style="fill:#97d815; stroke-width:1; stroke:black; " description="&lt;b&gt;LK06_RS10325&lt;/b&gt;&lt;br&gt;hypothetical protein&lt;br&gt;Location: 2328737 - 2329606&lt;br&gt;&lt;br&gt;&lt;b&gt;BlastP hit with LLPMBPKK_03085&lt;/b&gt;&lt;br&gt;Percentage identity: 69&lt;br&gt;Percentage coverage: 25&lt;br&gt;BLAST bit score: 121&lt;br&gt;E-value: 1.76e-29" locus_tag="LK06_RS10325" class="clusterblast-orf" id="dummy-15_h15_9_10"  />
</g>
<g id="a15_0011"  >
<polygon points="722,85 727,80 742,80 742,90 727,90 722,85 " style="fill:#15d815; stroke-width:1; stroke:black; " description="&lt;b&gt;LK06_RS10330&lt;/b&gt;&lt;br&gt;chaplin&lt;br&gt;Location: 2329777 - 2330016&lt;br&gt;&lt;br&gt;&lt;b&gt;BlastP hit with LLPMBPKK_03078&lt;/b&gt;&lt;br&gt;Percentage identity: 72&lt;br&gt;Percentage coverage: 75&lt;br&gt;BLAST bit score: 105&lt;br&gt;E-value: 1.71e-29&lt;br&gt;&lt;br&gt;&lt;b&gt;BlastP hit with LLPMBPKK_03086&lt;/b&gt;&lt;br&gt;Percentage identity: 80&lt;br&gt;Percentage coverage: 100&lt;br&gt;BLAST bit score: 121&lt;br&gt;E-value: 3.56e-36" locus_tag="LK06_RS10330" class="clusterblast-orf" id="dummy-15_h15_9_11"  />
</g>
<g id="a15_0012"  >
<polygon points="749,90 775,90 780,85 775,80 749,80 749,90 " style="fill:white; stroke-width:1; stroke:black; " description="&lt;b&gt;LK06_RS10335&lt;/b&gt;&lt;br&gt;hypothetical protein&lt;br&gt;Location: 2330096 - 2330446" locus_tag="LK06_RS10335" class="clusterblast-orf" id="dummy-15_h15_9_12"  />
</g>
</svg>
