<svg xmlns="http://www.w3.org/2000/svg" xmlns:xlink="http://www.w3.org/1999/xlink" version="1.1" x="0" y="0" height="230" width="800" viewBox="0 0 800 230" preserveAspectRatio="none"  >
<g label="Query sequence" class="clusterblast-cluster"  >
<text x="5" y="20" class="clusterblast-acc"  >
Query sequence</text>
<line x1="10" y1="35" x2="778.0" y2="35" style="stroke-width:1; stroke:grey; "  />
<polygon points="0,40 34,40 39,35 34,30 0,30 0,40 " style="fill:white; stroke-width:1; stroke:black; " description="&lt;b&gt;LLPMBPKK_07373&lt;/b&gt;&lt;br&gt;aldo/keto reductase&lt;br&gt;Location: 8589498 - 8590485" locus_tag="LLPMBPKK_07373" class="clusterblast-orf" id="dummy-32_q0_0_all"  />
<polygon points="52,40 62,40 67,35 62,30 52,30 52,40 " style="fill:white; stroke-width:1; stroke:black; " description="&lt;b&gt;LLPMBPKK_07374&lt;/b&gt;&lt;br&gt;hypothetical protein&lt;br&gt;Location: 8590807 - 8591173" locus_tag="LLPMBPKK_07374" class="clusterblast-orf" id="dummy-32_q1_0_all"  />
<polygon points="68,35 73,30 87,30 87,40 73,40 68,35 " style="fill:#d81515; stroke-width:1; stroke:black; " description="&lt;b&gt;LLPMBPKK_07375&lt;/b&gt;&lt;br&gt;hypothetical protein&lt;br&gt;Location: 8591212 - 8591680" locus_tag="LLPMBPKK_07375" class="clusterblast-orf" id="dummy-32_q2_0_all"  />
<polygon points="101,40 150,40 155,35 150,30 101,30 101,40 " style="fill:#56d815; stroke-width:1; stroke:black; " description="&lt;b&gt;LLPMBPKK_07376&lt;/b&gt;&lt;br&gt;aminotransferase class III-fold pyridoxal phosphate-dependent enzyme&lt;br&gt;Location: 8592020 - 8593370" locus_tag="LLPMBPKK_07376" class="clusterblast-orf" id="dummy-32_q3_0_all"  />
<polygon points="158,40 171,40 176,35 171,30 158,30 158,40 " style="fill:#1597d8; stroke-width:1; stroke:black; " description="&lt;b&gt;LLPMBPKK_07377&lt;/b&gt;&lt;br&gt;Lrp/AsnC family transcriptional regulator&lt;br&gt;Location: 8593445 - 8593895" locus_tag="LLPMBPKK_07377" class="clusterblast-orf" id="dummy-32_q4_0_all"  />
<polygon points="177,35 182,30 219,30 219,40 182,40 177,35 " style="fill:#9715d8; stroke-width:1; stroke:black; " description="&lt;b&gt;LLPMBPKK_07378&lt;/b&gt;&lt;br&gt;serine/threonine-protein phosphatase&lt;br&gt;Location: 8593917 - 8594991" locus_tag="LLPMBPKK_07378" class="clusterblast-orf" id="dummy-32_q5_0_all"  />
<polygon points="260,35 265,30 295,30 295,40 265,40 260,35 " style="fill:#d85615; stroke-width:1; stroke:black; " description="&lt;b&gt;LLPMBPKK_07379&lt;/b&gt;&lt;br&gt;Gfo/Idh/MocA family oxidoreductase&lt;br&gt;Location: 8595996 - 8596884" locus_tag="LLPMBPKK_07379" class="clusterblast-orf" id="dummy-32_q6_0_all"  />
<polygon points="297,35 302,30 333,30 333,40 302,40 297,35 " style="fill:#15d815; stroke-width:1; stroke:black; " description="&lt;b&gt;LLPMBPKK_07380&lt;/b&gt;&lt;br&gt;ATP-grasp ribosomal peptide maturase&lt;br&gt;Location: 8596919 - 8597828" locus_tag="LLPMBPKK_07380" class="clusterblast-orf" id="dummy-32_q7_0_all"  />
<polygon points="337,35 342,30 344,30 344,40 342,40 337,35 " style="fill:#1556d8; stroke-width:1; stroke:black; " description="&lt;b&gt;LLPMBPKK_07381&lt;/b&gt;&lt;br&gt;putative ATP-grasp-modified RiPP&lt;br&gt;Location: 8597921 - 8598113" locus_tag="LLPMBPKK_07381" class="clusterblast-orf" id="dummy-32_q8_0_all"  />
<polygon points="348,35 353,30 382,30 382,40 353,40 348,35 " style="fill:#d815d8; stroke-width:1; stroke:black; " description="&lt;b&gt;LLPMBPKK_07382&lt;/b&gt;&lt;br&gt;fructosamine kinase&lt;br&gt;Location: 8598212 - 8599049" locus_tag="LLPMBPKK_07382" class="clusterblast-orf" id="dummy-32_q9_0_all"  />
<polygon points="390,40 414,40 419,35 414,30 390,30 390,40 " style="fill:#d89715; stroke-width:1; stroke:black; " description="&lt;b&gt;LLPMBPKK_07383&lt;/b&gt;&lt;br&gt;Cyclo(L-tyrosyl-L-tyrosyl) synthase&lt;br&gt;Location: 8599267 - 8599978" locus_tag="LLPMBPKK_07383" class="clusterblast-orf" id="dummy-32_q10_0_all"  />
<polygon points="419,40 462,40 467,35 462,30 419,30 419,40 " style="fill:#15d856; stroke-width:1; stroke:black; " description="&lt;b&gt;LLPMBPKK_07384&lt;/b&gt;&lt;br&gt;cytochrome P450&lt;br&gt;Location: 8599974 - 8601186" locus_tag="LLPMBPKK_07384" class="clusterblast-orf" id="dummy-32_q11_0_all"  />
<polygon points="476,35 481,30 511,30 511,40 481,40 476,35 " style="fill:#1515d8; stroke-width:1; stroke:black; " description="&lt;b&gt;LLPMBPKK_07385&lt;/b&gt;&lt;br&gt;hypothetical protein&lt;br&gt;Location: 8601404 - 8602283" locus_tag="LLPMBPKK_07385" class="clusterblast-orf" id="dummy-32_q12_0_all"  />
<polygon points="525,40 545,40 550,35 545,30 525,30 525,40 " style="fill:#d81597; stroke-width:1; stroke:black; " description="&lt;b&gt;LLPMBPKK_07386&lt;/b&gt;&lt;br&gt;hypothetical protein&lt;br&gt;Location: 8602637 - 8603255" locus_tag="LLPMBPKK_07386" class="clusterblast-orf" id="dummy-32_q13_0_all"  />
<polygon points="556,40 578,40 583,35 578,30 556,30 556,40 " style="fill:#d8d815; stroke-width:1; stroke:black; " description="&lt;b&gt;LLPMBPKK_07387&lt;/b&gt;&lt;br&gt;class F sortase&lt;br&gt;Location: 8603413 - 8604085" locus_tag="LLPMBPKK_07387" class="clusterblast-orf" id="dummy-32_q14_0_all"  />
<polygon points="582,35 587,30 630,30 630,40 587,40 582,35 " style="fill:#15d897; stroke-width:1; stroke:black; " description="&lt;b&gt;LLPMBPKK_07388&lt;/b&gt;&lt;br&gt;lipase&lt;br&gt;Location: 8604072 - 8605269" locus_tag="LLPMBPKK_07388" class="clusterblast-orf" id="dummy-32_q15_0_all"  />
<polygon points="631,35 636,30 654,30 654,40 636,40 631,35 " style="fill:#5615d8; stroke-width:1; stroke:black; " description="&lt;b&gt;LLPMBPKK_07389&lt;/b&gt;&lt;br&gt;TetR family transcriptional regulator&lt;br&gt;Location: 8605286 - 8605868" locus_tag="LLPMBPKK_07389" class="clusterblast-orf" id="dummy-32_q16_0_all"  />
<polygon points="659,35 664,30 711,30 711,40 664,40 659,35 " style="fill:#d81556; stroke-width:1; stroke:black; " description="&lt;b&gt;LLPMBPKK_07390&lt;/b&gt;&lt;br&gt;carbohydrate-binding protein&lt;br&gt;Location: 8605994 - 8607296" locus_tag="LLPMBPKK_07390" class="clusterblast-orf" id="dummy-32_q17_0_all"  />
<polygon points="728,35 733,30 742,30 742,40 733,40 728,35 " style="fill:#97d815; stroke-width:1; stroke:black; " description="&lt;b&gt;LLPMBPKK_07391&lt;/b&gt;&lt;br&gt;transcriptional regulator&lt;br&gt;Location: 8607707 - 8608058" locus_tag="LLPMBPKK_07391" class="clusterblast-orf" id="dummy-32_q18_0_all"  />
<polygon points="744,40 775,40 780,35 775,30 744,30 744,40 " style="fill:#15d8d8; stroke-width:1; stroke:black; " description="&lt;b&gt;LLPMBPKK_07392&lt;/b&gt;&lt;br&gt;NAD(P)-dependent oxidoreductase&lt;br&gt;Location: 8608125 - 8609013" locus_tag="LLPMBPKK_07392" class="clusterblast-orf" id="dummy-32_q19_0_all"  />
</g>
<g label="NZ_CP047020" description="NZ_CP047020 (1100453-1121140): Streptomyces sp. T44 chromosome (63% of genes show similarity), CDPS" class="clusterblast-cluster"  >
<text x="5" y="70" class="clusterblast-acc"  >
<a xlink:href="https://antismash-db.secondarymetabolites.org/area.html?record=NZ_CP047020&amp;start=1100453&amp;end=1121140" target="_blank">NZ_CP047020 (1100453-1121140)</a>: Streptomyces sp. T44 chromosome (63% of genes show similarity), CDPS</text>
<line x1="10" y1="85" x2="778.0" y2="85" style="stroke-width:1; stroke:grey; "  />
</g>
<g id="a32_000"  >
<polygon points="14,90 20,90 25,85 20,80 14,80 14,90 " style="fill:white; stroke-width:1; stroke:black; " description="&lt;b&gt;GQF42_RS05445&lt;/b&gt;&lt;br&gt;hypothetical protein&lt;br&gt;Location: 1119747 - 1119475" locus_tag="GQF42_RS05445" class="clusterblast-orf" id="dummy-32_h32_10_0"  />
</g>
<g id="a32_001"  >
<polygon points="25,85 30,80 44,80 44,90 30,90 25,85 " style="fill:#d81515; stroke-width:1; stroke:black; " description="&lt;b&gt;GQF42_RS05440&lt;/b&gt;&lt;br&gt;hypothetical protein&lt;br&gt;Location: 1119470 - 1119003&lt;br&gt;&lt;br&gt;&lt;b&gt;BlastP hit with LLPMBPKK_07375&lt;/b&gt;&lt;br&gt;Percentage identity: 84&lt;br&gt;Percentage coverage: 100&lt;br&gt;BLAST bit score: 285&lt;br&gt;E-value: 9.84e-99" locus_tag="GQF42_RS05440" class="clusterblast-orf" id="dummy-32_h32_10_1"  />
</g>
<g id="a32_002"  >
<polygon points="52,85 57,80 98,80 98,90 57,90 52,85 " style="fill:#9715d8; stroke-width:1; stroke:black; " description="&lt;b&gt;GQF42_RS05435&lt;/b&gt;&lt;br&gt;SpoIIE family protein phosphatase&lt;br&gt;Location: 1118803 - 1117661&lt;br&gt;&lt;br&gt;&lt;b&gt;BlastP hit with LLPMBPKK_07378&lt;/b&gt;&lt;br&gt;Percentage identity: 74&lt;br&gt;Percentage coverage: 97&lt;br&gt;BLAST bit score: 485&lt;br&gt;E-value: 1.09e-170" locus_tag="GQF42_RS05435" class="clusterblast-orf" id="dummy-32_h32_10_2"  />
</g>
<g id="a32_003"  >
<polygon points="109,85 114,80 144,80 144,90 114,90 109,85 " style="fill:#d85615; stroke-width:1; stroke:black; " description="&lt;b&gt;GQF42_RS05430&lt;/b&gt;&lt;br&gt;Gfo/Idh/MocA family oxidoreductase&lt;br&gt;Location: 1117378 - 1116491&lt;br&gt;&lt;br&gt;&lt;b&gt;BlastP hit with LLPMBPKK_07379&lt;/b&gt;&lt;br&gt;Percentage identity: 89&lt;br&gt;Percentage coverage: 98&lt;br&gt;BLAST bit score: 492&lt;br&gt;E-value: 5.79e-176" locus_tag="GQF42_RS05430" class="clusterblast-orf" id="dummy-32_h32_10_3"  />
</g>
<g id="a32_004"  >
<polygon points="146,85 151,80 185,80 185,90 151,90 146,85 " style="fill:#15d815; stroke-width:1; stroke:black; " description="&lt;b&gt;GQF42_RS05425&lt;/b&gt;&lt;br&gt;ATP-grasp ribosomal peptide maturase&lt;br&gt;Location: 1116455 - 1115472&lt;br&gt;&lt;br&gt;&lt;b&gt;BlastP hit with LLPMBPKK_07380&lt;/b&gt;&lt;br&gt;Percentage identity: 87&lt;br&gt;Percentage coverage: 100&lt;br&gt;BLAST bit score: 538&lt;br&gt;E-value: 1.84e-193" locus_tag="GQF42_RS05425" class="clusterblast-orf" id="dummy-32_h32_10_4"  />
</g>
<g id="a32_005"  >
<polygon points="186,85 191,80 193,80 193,90 191,90 186,85 " style="fill:#1556d8; stroke-width:1; stroke:black; " description="&lt;b&gt;GQF42_RS05420&lt;/b&gt;&lt;br&gt;putative ATP-grasp-modified RiPP&lt;br&gt;Location: 1115454 - 1115263&lt;br&gt;&lt;br&gt;&lt;b&gt;BlastP hit with LLPMBPKK_07381&lt;/b&gt;&lt;br&gt;Percentage identity: 94&lt;br&gt;Percentage coverage: 100&lt;br&gt;BLAST bit score: 122&lt;br&gt;E-value: 8.24e-37" locus_tag="GQF42_RS05420" class="clusterblast-orf" id="dummy-32_h32_10_5"  />
</g>
<g id="a32_006"  >
<polygon points="204,90 211,90 216,85 211,80 204,80 204,90 " style="fill:white; stroke-width:1; stroke:black; " description="&lt;b&gt;GQF42_RS05415&lt;/b&gt;&lt;br&gt;hypothetical protein&lt;br&gt;Location: 1115008 - 1114697" locus_tag="GQF42_RS05415" class="clusterblast-orf" id="dummy-32_h32_10_6"  />
</g>
<g id="a32_007"  >
<polygon points="217,90 309,90 314,85 309,80 217,80 217,90 " style="fill:white; stroke-width:1; stroke:black; " description="&lt;b&gt;GQF42_RS05410&lt;/b&gt;&lt;br&gt;helix-turn-helix domain-containing protein&lt;br&gt;Location: 1114680 - 1112233" locus_tag="GQF42_RS05410" class="clusterblast-orf" id="dummy-32_h32_10_7"  />
</g>
<g id="a32_008"  >
<polygon points="315,85 320,80 348,80 348,90 320,90 315,85 " style="fill:#d815d8; stroke-width:1; stroke:black; " description="&lt;b&gt;GQF42_RS05405&lt;/b&gt;&lt;br&gt;phosphotransferase&lt;br&gt;Location: 1112225 - 1111389&lt;br&gt;&lt;br&gt;&lt;b&gt;BlastP hit with LLPMBPKK_07382&lt;/b&gt;&lt;br&gt;Percentage identity: 85&lt;br&gt;Percentage coverage: 100&lt;br&gt;BLAST bit score: 476&lt;br&gt;E-value: 2.79e-170" locus_tag="GQF42_RS05405" class="clusterblast-orf" id="dummy-32_h32_10_8"  />
</g>
<g id="a32_009"  >
<polygon points="358,90 381,90 386,85 381,80 358,80 358,90 " style="fill:#d89715; stroke-width:1; stroke:black; " description="&lt;b&gt;GQF42_RS05400&lt;/b&gt;&lt;br&gt;tRNA-dependent cyclodipeptide synthase&lt;br&gt;Location: 1111140 - 1110454&lt;br&gt;&lt;br&gt;&lt;b&gt;BlastP hit with LLPMBPKK_07383&lt;/b&gt;&lt;br&gt;Percentage identity: 91&lt;br&gt;Percentage coverage: 97&lt;br&gt;BLAST bit score: 423&lt;br&gt;E-value: 1.29e-150" locus_tag="GQF42_RS05400" class="clusterblast-orf" id="dummy-32_h32_10_9"  />
</g>
<g id="a32_0010"  >
<polygon points="385,90 429,90 434,85 429,80 385,80 385,90 " style="fill:#15d856; stroke-width:1; stroke:black; " description="&lt;b&gt;GQF42_RS05395&lt;/b&gt;&lt;br&gt;cytochrome P450&lt;br&gt;Location: 1110457 - 1109246&lt;br&gt;&lt;br&gt;&lt;b&gt;BlastP hit with LLPMBPKK_07384&lt;/b&gt;&lt;br&gt;Percentage identity: 88&lt;br&gt;Percentage coverage: 100&lt;br&gt;BLAST bit score: 733&lt;br&gt;E-value: 2.02e-267" locus_tag="GQF42_RS05395" class="clusterblast-orf" id="dummy-32_h32_10_10"  />
</g>
<g id="a32_0011"  >
<polygon points="454,85 459,80 489,80 489,90 459,90 454,85 " style="fill:#1515d8; stroke-width:1; stroke:black; " description="&lt;b&gt;GQF42_RS05390&lt;/b&gt;&lt;br&gt;hypothetical protein&lt;br&gt;Location: 1108750 - 1107872&lt;br&gt;&lt;br&gt;&lt;b&gt;BlastP hit with LLPMBPKK_07385&lt;/b&gt;&lt;br&gt;Percentage identity: 68&lt;br&gt;Percentage coverage: 99&lt;br&gt;BLAST bit score: 372&lt;br&gt;E-value: 9.94e-129" locus_tag="GQF42_RS05390" class="clusterblast-orf" id="dummy-32_h32_10_11"  />
</g>
<g id="a32_0012"  >
<polygon points="493,85 498,80 510,80 510,90 498,90 493,85 " style="fill:white; stroke-width:1; stroke:black; " description="&lt;b&gt;GQF42_RS05385&lt;/b&gt;&lt;br&gt;hypothetical protein&lt;br&gt;Location: 1107766 - 1107347" locus_tag="GQF42_RS05385" class="clusterblast-orf" id="dummy-32_h32_10_12"  />
</g>
<g id="a32_0013"  >
<polygon points="544,85 549,80 565,80 565,90 549,90 544,85 " style="fill:white; stroke-width:1; stroke:black; " description="&lt;b&gt;GQF42_RS05380&lt;/b&gt;&lt;br&gt;hypothetical protein&lt;br&gt;Location: 1106490 - 1105960" locus_tag="GQF42_RS05380" class="clusterblast-orf" id="dummy-32_h32_10_13"  />
</g>
<g id="a32_0014"  >
<polygon points="566,85 571,80 587,80 587,90 571,90 566,85 " style="fill:white; stroke-width:1; stroke:black; " description="&lt;b&gt;GQF42_RS05375&lt;/b&gt;&lt;br&gt;hypothetical protein&lt;br&gt;Location: 1105938 - 1105408" locus_tag="GQF42_RS05375" class="clusterblast-orf" id="dummy-32_h32_10_14"  />
</g>
<g id="a32_0015"  >
<polygon points="599,90 624,90 629,85 624,80 599,80 599,90 " style="fill:#d8d815; stroke-width:1; stroke:black; " description="&lt;b&gt;GQF42_RS05370&lt;/b&gt;&lt;br&gt;class F sortase&lt;br&gt;Location: 1105102 - 1104374&lt;br&gt;&lt;br&gt;&lt;b&gt;BlastP hit with LLPMBPKK_07387&lt;/b&gt;&lt;br&gt;Percentage identity: 63&lt;br&gt;Percentage coverage: 110&lt;br&gt;BLAST bit score: 279&lt;br&gt;E-value: 1.09e-93" locus_tag="GQF42_RS05370" class="clusterblast-orf" id="dummy-32_h32_10_15"  />
</g>
<g id="a32_0016"  >
<polygon points="630,85 635,80 677,80 677,90 635,90 630,85 " style="fill:#15d897; stroke-width:1; stroke:black; " description="&lt;b&gt;GQF42_RS05365&lt;/b&gt;&lt;br&gt;lipase&lt;br&gt;Location: 1104335 - 1103169&lt;br&gt;&lt;br&gt;&lt;b&gt;BlastP hit with LLPMBPKK_07388&lt;/b&gt;&lt;br&gt;Percentage identity: 81&lt;br&gt;Percentage coverage: 96&lt;br&gt;BLAST bit score: 632&lt;br&gt;E-value: 5.39e-228" locus_tag="GQF42_RS05365" class="clusterblast-orf" id="dummy-32_h32_10_16"  />
</g>
<g id="a32_0017"  >
<polygon points="680,85 685,80 703,80 703,90 685,90 680,85 " style="fill:#5615d8; stroke-width:1; stroke:black; " description="&lt;b&gt;GQF42_RS05360&lt;/b&gt;&lt;br&gt;TetR family transcriptional regulator&lt;br&gt;Location: 1103085 - 1102516&lt;br&gt;&lt;br&gt;&lt;b&gt;BlastP hit with LLPMBPKK_07389&lt;/b&gt;&lt;br&gt;Percentage identity: 87&lt;br&gt;Percentage coverage: 97&lt;br&gt;BLAST bit score: 320&lt;br&gt;E-value: 4.02e-111" locus_tag="GQF42_RS05360" class="clusterblast-orf" id="dummy-32_h32_10_17"  />
</g>
<g id="a32_0018"  >
<polygon points="708,90 760,90 765,85 760,80 708,80 708,90 " style="fill:white; stroke-width:1; stroke:black; " description="&lt;b&gt;GQF42_RS05355&lt;/b&gt;&lt;br&gt;proline--tRNA ligase&lt;br&gt;Location: 1102377 - 1100965" locus_tag="GQF42_RS05355" class="clusterblast-orf" id="dummy-32_h32_10_18"  />
</g>
</svg>
