<svg xmlns="http://www.w3.org/2000/svg" xmlns:xlink="http://www.w3.org/1999/xlink" version="1.1" x="0" y="0" height="230" width="800" viewBox="0 0 800 230" preserveAspectRatio="none"  >
<g label="Query sequence" class="clusterblast-cluster"  >
<text x="5" y="20" class="clusterblast-acc"  >
Query sequence</text>
<line x1="10" y1="35" x2="778.0" y2="35" style="stroke-width:1; stroke:grey; "  />
<polygon points="15,35 20,30 31,30 31,40 20,40 15,35 " style="fill:#d81515; stroke-width:1; stroke:black; " description="&lt;b&gt;LLPMBPKK_06120&lt;/b&gt;&lt;br&gt;TerB family tellurite resistance protein&lt;br&gt;Location: 7067757 - 7068213" locus_tag="LLPMBPKK_06120" class="clusterblast-orf" id="dummy-25_q0_0_all"  />
<polygon points="40,35 45,30 56,30 56,40 45,40 40,35 " style="fill:#67d815; stroke-width:1; stroke:black; " description="&lt;b&gt;LLPMBPKK_06121&lt;/b&gt;&lt;br&gt;hypothetical protein&lt;br&gt;Location: 7068443 - 7068896" locus_tag="LLPMBPKK_06121" class="clusterblast-orf" id="dummy-25_q1_0_all"  />
<polygon points="56,35 61,30 81,30 81,40 61,40 56,35 " style="fill:#15b9d8; stroke-width:1; stroke:black; " description="&lt;b&gt;LLPMBPKK_06122&lt;/b&gt;&lt;br&gt;cholesterol esterase&lt;br&gt;Location: 7068901 - 7069600" locus_tag="LLPMBPKK_06122" class="clusterblast-orf" id="dummy-25_q2_0_all"  />
<polygon points="104,40 123,40 128,35 123,30 104,30 104,40 " style="fill:#a515d8; stroke-width:1; stroke:black; " description="&lt;b&gt;LLPMBPKK_06123&lt;/b&gt;&lt;br&gt;hypothetical protein&lt;br&gt;Location: 7070241 - 7070892" locus_tag="LLPMBPKK_06123" class="clusterblast-orf" id="dummy-25_q3_0_all"  />
<polygon points="129,35 134,30 163,30 163,40 134,40 129,35 " style="fill:#d85315; stroke-width:1; stroke:black; " description="&lt;b&gt;LLPMBPKK_06124&lt;/b&gt;&lt;br&gt;chitin-binding protein&lt;br&gt;Location: 7070910 - 7071852" locus_tag="LLPMBPKK_06124" class="clusterblast-orf" id="dummy-25_q4_0_all"  />
<polygon points="178,40 197,40 202,35 197,30 178,30 178,40 " style="fill:#2ad815; stroke-width:1; stroke:black; " description="&lt;b&gt;LLPMBPKK_06125&lt;/b&gt;&lt;br&gt;TetR family transcriptional regulator&lt;br&gt;Location: 7072281 - 7072929" locus_tag="LLPMBPKK_06125" class="clusterblast-orf" id="dummy-25_q5_0_all"  />
<polygon points="202,40 241,40 246,35 241,30 202,30 202,40 " style="fill:#157cd8; stroke-width:1; stroke:black; " description="&lt;b&gt;LLPMBPKK_06126&lt;/b&gt;&lt;br&gt;protein-glutamate O-methyltransferase familyprotein&lt;br&gt;Location: 7072951 - 7074151" locus_tag="LLPMBPKK_06126" class="clusterblast-orf" id="dummy-25_q6_0_all"  />
<polygon points="246,35 251,30 292,30 292,40 251,40 246,35 " style="fill:#d815ce; stroke-width:1; stroke:black; " description="&lt;b&gt;LLPMBPKK_06127&lt;/b&gt;&lt;br&gt;cytochrome P450&lt;br&gt;Location: 7074170 - 7075436" locus_tag="LLPMBPKK_06127" class="clusterblast-orf" id="dummy-25_q7_0_all"  />
<polygon points="292,35 297,30 323,30 323,40 297,40 292,35 " style="fill:#d89015; stroke-width:1; stroke:black; " description="&lt;b&gt;LLPMBPKK_06128&lt;/b&gt;&lt;br&gt;alpha/beta fold hydrolase&lt;br&gt;Location: 7075432 - 7076287" locus_tag="LLPMBPKK_06128" class="clusterblast-orf" id="dummy-25_q8_0_all"  />
<polygon points="328,40 402,40 407,35 402,30 328,30 328,40 " style="fill:#15d83e; stroke-width:1; stroke:black; " description="&lt;b&gt;LLPMBPKK_06129&lt;/b&gt;&lt;br&gt;germacradienol/geosmin synthase&lt;br&gt;Location: 7076439 - 7078602" locus_tag="LLPMBPKK_06129" class="clusterblast-orf" id="dummy-25_q9_0_all"  />
<polygon points="411,40 473,40 478,35 473,30 411,30 411,40 " style="fill:#153ed8; stroke-width:1; stroke:black; " description="&lt;b&gt;LLPMBPKK_06130&lt;/b&gt;&lt;br&gt;laccase&lt;br&gt;Location: 7078716 - 7080591" locus_tag="LLPMBPKK_06130" class="clusterblast-orf" id="dummy-25_q10_0_all"  />
<polygon points="480,35 485,30 489,30 489,40 485,40 480,35 " style="fill:#d81590; stroke-width:1; stroke:black; " description="&lt;b&gt;LLPMBPKK_06131&lt;/b&gt;&lt;br&gt;CTP synthase&lt;br&gt;Location: 7080630 - 7080876" locus_tag="LLPMBPKK_06131" class="clusterblast-orf" id="dummy-25_q11_0_all"  />
<polygon points="513,40 516,40 521,35 516,30 513,30 513,40 " style="fill:#d8ce15; stroke-width:1; stroke:black; " description="&lt;b&gt;LLPMBPKK_06132&lt;/b&gt;&lt;br&gt;PDZ domain-containing protein&lt;br&gt;Location: 7081561 - 7081774" locus_tag="LLPMBPKK_06132" class="clusterblast-orf" id="dummy-25_q12_0_all"  />
<polygon points="532,40 568,40 573,35 568,30 532,30 532,40 " style="fill:#15d87c; stroke-width:1; stroke:black; " description="&lt;b&gt;LLPMBPKK_06133&lt;/b&gt;&lt;br&gt;aminopeptidase P family protein&lt;br&gt;Location: 7082075 - 7083203" locus_tag="LLPMBPKK_06133" class="clusterblast-orf" id="dummy-25_q13_0_all"  />
<polygon points="575,40 603,40 608,35 603,30 575,30 575,40 " style="fill:#2a15d8; stroke-width:1; stroke:black; " description="&lt;b&gt;LLPMBPKK_06134&lt;/b&gt;&lt;br&gt;aminoglycoside phosphotransferase family protein&lt;br&gt;Location: 7083255 - 7084191" locus_tag="LLPMBPKK_06134" class="clusterblast-orf" id="dummy-25_q14_0_all"  />
<polygon points="610,35 615,30 673,30 673,40 615,40 610,35 " style="fill:#d81553; stroke-width:1; stroke:black; " description="&lt;b&gt;LLPMBPKK_06135&lt;/b&gt;&lt;br&gt;malto-oligosyltrehalose trehalohydrolase&lt;br&gt;Location: 7084236 - 7085982" locus_tag="LLPMBPKK_06135" class="clusterblast-orf" id="dummy-25_q15_0_all"  />
<polygon points="677,40 695,40 700,35 695,30 677,30 677,40 " style="fill:#a5d815; stroke-width:1; stroke:black; " description="&lt;b&gt;LLPMBPKK_06136&lt;/b&gt;&lt;br&gt;FHA domain-containing protein&lt;br&gt;Location: 7086090 - 7086711" locus_tag="LLPMBPKK_06136" class="clusterblast-orf" id="dummy-25_q16_0_all"  />
<polygon points="704,40 714,40 719,35 714,30 704,30 704,40 " style="fill:#15d8b9; stroke-width:1; stroke:black; " description="&lt;b&gt;LLPMBPKK_06137&lt;/b&gt;&lt;br&gt;serine protease&lt;br&gt;Location: 7086831 - 7087245" locus_tag="LLPMBPKK_06137" class="clusterblast-orf" id="dummy-25_q17_0_all"  />
<polygon points="720,35 725,30 765,30 765,40 725,40 720,35 " style="fill:#6715d8; stroke-width:1; stroke:black; " description="&lt;b&gt;LLPMBPKK_06138&lt;/b&gt;&lt;br&gt;3-hydroxyacyl-CoA dehydrogenase&lt;br&gt;Location: 7087271 - 7088522" locus_tag="LLPMBPKK_06138" class="clusterblast-orf" id="dummy-25_q18_0_all"  />
</g>
<g label="NZ_CP016279" description="NZ_CP016279 (2797902-2819493): Streptomyces griseochromogenes strain ATCC 145... (94% of genes show similarity), terpene" class="clusterblast-cluster"  >
<text x="5" y="70" class="clusterblast-acc"  >
<a xlink:href="https://antismash-db.secondarymetabolites.org/area.html?record=NZ_CP016279&amp;start=2797902&amp;end=2819493" target="_blank">NZ_CP016279 (2797902-2819493)</a>: Streptomyces griseochromogenes strain ATCC 145... (94% of genes show similarity), terpene</text>
<line x1="10" y1="85" x2="778.0" y2="85" style="stroke-width:1; stroke:grey; "  />
</g>
<g id="a25_000"  >
<polygon points="0,85 5,80 16,80 16,90 5,90 0,85 " style="fill:#d81515; stroke-width:1; stroke:black; " description="&lt;b&gt;AVL59_RS11905&lt;/b&gt;&lt;br&gt;TerB family tellurite resistance protein&lt;br&gt;Location: 2797903 - 2798358&lt;br&gt;&lt;br&gt;&lt;b&gt;BlastP hit with LLPMBPKK_06120&lt;/b&gt;&lt;br&gt;Percentage identity: 93&lt;br&gt;Percentage coverage: 100&lt;br&gt;BLAST bit score: 277&lt;br&gt;E-value: 1.16e-95" locus_tag="AVL59_RS11905" class="clusterblast-orf" id="dummy-25_h25_2_0"  />
</g>
<g id="a25_001"  >
<polygon points="21,85 26,80 56,80 56,90 26,90 21,85 " style="fill:white; stroke-width:1; stroke:black; " description="&lt;b&gt;AVL59_RS11910&lt;/b&gt;&lt;br&gt;sporulation protein&lt;br&gt;Location: 2798494 - 2799468" locus_tag="AVL59_RS11910" class="clusterblast-orf" id="dummy-25_h25_2_1"  />
</g>
<g id="a25_002"  >
<polygon points="61,85 66,80 78,80 78,90 66,90 61,85 " style="fill:#67d815; stroke-width:1; stroke:black; " description="&lt;b&gt;AVL59_RS11915&lt;/b&gt;&lt;br&gt;hypothetical protein&lt;br&gt;Location: 2799615 - 2800064&lt;br&gt;&lt;br&gt;&lt;b&gt;BlastP hit with LLPMBPKK_06121&lt;/b&gt;&lt;br&gt;Percentage identity: 87&lt;br&gt;Percentage coverage: 87&lt;br&gt;BLAST bit score: 230&lt;br&gt;E-value: 4.11e-77" locus_tag="AVL59_RS11915" class="clusterblast-orf" id="dummy-25_h25_2_2"  />
</g>
<g id="a25_003"  >
<polygon points="78,85 83,80 103,80 103,90 83,90 78,85 " style="fill:#15b9d8; stroke-width:1; stroke:black; " description="&lt;b&gt;AVL59_RS11920&lt;/b&gt;&lt;br&gt;cholesterol esterase&lt;br&gt;Location: 2800069 - 2800767&lt;br&gt;&lt;br&gt;&lt;b&gt;BlastP hit with LLPMBPKK_06122&lt;/b&gt;&lt;br&gt;Percentage identity: 82&lt;br&gt;Percentage coverage: 100&lt;br&gt;BLAST bit score: 355&lt;br&gt;E-value: 5.83e-124" locus_tag="AVL59_RS11920" class="clusterblast-orf" id="dummy-25_h25_2_3"  />
</g>
<g id="a25_004"  >
<polygon points="127,90 145,90 150,85 145,80 127,80 127,90 " style="fill:#a515d8; stroke-width:1; stroke:black; " description="&lt;b&gt;AVL59_RS11925&lt;/b&gt;&lt;br&gt;Tat pathway signal sequence domain protein&lt;br&gt;Location: 2801420 - 2802073&lt;br&gt;&lt;br&gt;&lt;b&gt;BlastP hit with LLPMBPKK_06123&lt;/b&gt;&lt;br&gt;Percentage identity: 79&lt;br&gt;Percentage coverage: 100&lt;br&gt;BLAST bit score: 309&lt;br&gt;E-value: 4.86e-106" locus_tag="AVL59_RS11925" class="clusterblast-orf" id="dummy-25_h25_2_4"  />
</g>
<g id="a25_005"  >
<polygon points="151,85 156,80 184,80 184,90 156,90 151,85 " style="fill:#d85315; stroke-width:1; stroke:black; " description="&lt;b&gt;AVL59_RS11930&lt;/b&gt;&lt;br&gt;chitin-binding protein&lt;br&gt;Location: 2802092 - 2803012&lt;br&gt;&lt;br&gt;&lt;b&gt;BlastP hit with LLPMBPKK_06124&lt;/b&gt;&lt;br&gt;Percentage identity: 70&lt;br&gt;Percentage coverage: 102&lt;br&gt;BLAST bit score: 392&lt;br&gt;E-value: 4.5e-136" locus_tag="AVL59_RS11930" class="clusterblast-orf" id="dummy-25_h25_2_5"  />
</g>
<g id="a25_006"  >
<polygon points="200,90 218,90 223,85 218,80 200,80 200,90 " style="fill:#2ad815; stroke-width:1; stroke:black; " description="&lt;b&gt;AVL59_RS11935&lt;/b&gt;&lt;br&gt;TetR/AcrR family transcriptional regulator&lt;br&gt;Location: 2803447 - 2804094&lt;br&gt;&lt;br&gt;&lt;b&gt;BlastP hit with LLPMBPKK_06125&lt;/b&gt;&lt;br&gt;Percentage identity: 87&lt;br&gt;Percentage coverage: 99&lt;br&gt;BLAST bit score: 374&lt;br&gt;E-value: 1.12e-131" locus_tag="AVL59_RS11935" class="clusterblast-orf" id="dummy-25_h25_2_6"  />
</g>
<g id="a25_007"  >
<polygon points="224,90 262,90 267,85 262,80 224,80 224,90 " style="fill:#157cd8; stroke-width:1; stroke:black; " description="&lt;b&gt;AVL59_RS11940&lt;/b&gt;&lt;br&gt;protein-glutamate O-methyltransferase family protein&lt;br&gt;Location: 2804117 - 2805310&lt;br&gt;&lt;br&gt;&lt;b&gt;BlastP hit with LLPMBPKK_06126&lt;/b&gt;&lt;br&gt;Percentage identity: 81&lt;br&gt;Percentage coverage: 100&lt;br&gt;BLAST bit score: 656&lt;br&gt;E-value: 2.83e-237" locus_tag="AVL59_RS11940" class="clusterblast-orf" id="dummy-25_h25_2_7"  />
</g>
<g id="a25_008"  >
<polygon points="266,85 271,80 312,80 312,90 271,90 266,85 " style="fill:#d815ce; stroke-width:1; stroke:black; " description="&lt;b&gt;AVL59_RS11945&lt;/b&gt;&lt;br&gt;cytochrome P450&lt;br&gt;Location: 2805287 - 2806549&lt;br&gt;&lt;br&gt;&lt;b&gt;BlastP hit with LLPMBPKK_06127&lt;/b&gt;&lt;br&gt;Percentage identity: 87&lt;br&gt;Percentage coverage: 100&lt;br&gt;BLAST bit score: 734&lt;br&gt;E-value: 1.92e-267" locus_tag="AVL59_RS11945" class="clusterblast-orf" id="dummy-25_h25_2_8"  />
</g>
<g id="a25_009"  >
<polygon points="312,85 317,80 340,80 340,90 317,90 312,85 " style="fill:#d89015; stroke-width:1; stroke:black; " description="&lt;b&gt;AVL59_RS11950&lt;/b&gt;&lt;br&gt;alpha/beta fold hydrolase&lt;br&gt;Location: 2806546 - 2807337&lt;br&gt;&lt;br&gt;&lt;b&gt;BlastP hit with LLPMBPKK_06128&lt;/b&gt;&lt;br&gt;Percentage identity: 86&lt;br&gt;Percentage coverage: 90&lt;br&gt;BLAST bit score: 447&lt;br&gt;E-value: 7.78e-159" locus_tag="AVL59_RS11950" class="clusterblast-orf" id="dummy-25_h25_2_9"  />
</g>
<g id="a25_0010"  >
<polygon points="347,90 422,90 427,85 422,80 347,80 347,90 " style="fill:#15d83e; stroke-width:1; stroke:black; " description="&lt;b&gt;AVL59_RS11955&lt;/b&gt;&lt;br&gt;germacradienol/geosmin synthase&lt;br&gt;Location: 2807534 - 2809723&lt;br&gt;&lt;br&gt;&lt;b&gt;BlastP hit with LLPMBPKK_06129&lt;/b&gt;&lt;br&gt;Percentage identity: 83&lt;br&gt;Percentage coverage: 101&lt;br&gt;BLAST bit score: 1264&lt;br&gt;E-value: 0.0" locus_tag="AVL59_RS11955" class="clusterblast-orf" id="dummy-25_h25_2_10"  />
</g>
<g id="a25_0011"  >
<polygon points="431,90 494,90 499,85 494,80 431,80 431,90 " style="fill:#153ed8; stroke-width:1; stroke:black; " description="&lt;b&gt;AVL59_RS11960&lt;/b&gt;&lt;br&gt;multicopper oxidase domain-containing protein&lt;br&gt;Location: 2809844 - 2811730&lt;br&gt;&lt;br&gt;&lt;b&gt;BlastP hit with LLPMBPKK_06130&lt;/b&gt;&lt;br&gt;Percentage identity: 87&lt;br&gt;Percentage coverage: 101&lt;br&gt;BLAST bit score: 1139&lt;br&gt;E-value: 0.0" locus_tag="AVL59_RS11960" class="clusterblast-orf" id="dummy-25_h25_2_11"  />
</g>
<g id="a25_0012"  >
<polygon points="518,90 533,90 538,85 533,80 518,80 518,90 " style="fill:#d8ce15; stroke-width:1; stroke:black; " description="&lt;b&gt;AVL59_RS11965&lt;/b&gt;&lt;br&gt;PDZ domain-containing protein&lt;br&gt;Location: 2812250 - 2812813&lt;br&gt;&lt;br&gt;&lt;b&gt;BlastP hit with LLPMBPKK_06132&lt;/b&gt;&lt;br&gt;Percentage identity: 74&lt;br&gt;Percentage coverage: 100&lt;br&gt;BLAST bit score: 107&lt;br&gt;E-value: 2.19e-29" locus_tag="AVL59_RS11965" class="clusterblast-orf" id="dummy-25_h25_2_12"  />
</g>
<g id="a25_0013"  >
<polygon points="546,90 582,90 587,85 582,80 546,80 546,90 " style="fill:#15d87c; stroke-width:1; stroke:black; " description="&lt;b&gt;AVL59_RS11970&lt;/b&gt;&lt;br&gt;aminopeptidase P family protein&lt;br&gt;Location: 2813028 - 2814155&lt;br&gt;&lt;br&gt;&lt;b&gt;BlastP hit with LLPMBPKK_06133&lt;/b&gt;&lt;br&gt;Percentage identity: 93&lt;br&gt;Percentage coverage: 100&lt;br&gt;BLAST bit score: 689&lt;br&gt;E-value: 3.8e-251" locus_tag="AVL59_RS11970" class="clusterblast-orf" id="dummy-25_h25_2_13"  />
</g>
<g id="a25_0014"  >
<polygon points="589,90 618,90 623,85 618,80 589,80 589,90 " style="fill:#2a15d8; stroke-width:1; stroke:black; " description="&lt;b&gt;AVL59_RS11975&lt;/b&gt;&lt;br&gt;aminoglycoside phosphotransferase family protein&lt;br&gt;Location: 2814218 - 2815162&lt;br&gt;&lt;br&gt;&lt;b&gt;BlastP hit with LLPMBPKK_06134&lt;/b&gt;&lt;br&gt;Percentage identity: 88&lt;br&gt;Percentage coverage: 101&lt;br&gt;BLAST bit score: 540&lt;br&gt;E-value: 1.99e-194" locus_tag="AVL59_RS11975" class="clusterblast-orf" id="dummy-25_h25_2_14"  />
</g>
<g id="a25_0015"  >
<polygon points="624,85 629,80 687,80 687,90 629,90 624,85 " style="fill:#d81553; stroke-width:1; stroke:black; " description="&lt;b&gt;AVL59_RS11980&lt;/b&gt;&lt;br&gt;malto-oligosyltrehalose trehalohydrolase&lt;br&gt;Location: 2815200 - 2816945&lt;br&gt;&lt;br&gt;&lt;b&gt;BlastP hit with LLPMBPKK_06135&lt;/b&gt;&lt;br&gt;Percentage identity: 91&lt;br&gt;Percentage coverage: 100&lt;br&gt;BLAST bit score: 1110&lt;br&gt;E-value: 0.0" locus_tag="AVL59_RS11980" class="clusterblast-orf" id="dummy-25_h25_2_15"  />
</g>
<g id="a25_0016"  >
<polygon points="694,90 710,90 715,85 710,80 694,80 694,90 " style="fill:#a5d815; stroke-width:1; stroke:black; " description="&lt;b&gt;AVL59_RS11985&lt;/b&gt;&lt;br&gt;FHA domain-containing protein&lt;br&gt;Location: 2817120 - 2817695&lt;br&gt;&lt;br&gt;&lt;b&gt;BlastP hit with LLPMBPKK_06136&lt;/b&gt;&lt;br&gt;Percentage identity: 85&lt;br&gt;Percentage coverage: 88&lt;br&gt;BLAST bit score: 310&lt;br&gt;E-value: 3.28e-107" locus_tag="AVL59_RS11985" class="clusterblast-orf" id="dummy-25_h25_2_16"  />
</g>
<g id="a25_0017"  >
<polygon points="717,90 728,90 733,85 728,80 717,80 717,90 " style="fill:#15d8b9; stroke-width:1; stroke:black; " description="&lt;b&gt;AVL59_RS11990&lt;/b&gt;&lt;br&gt;serine protease&lt;br&gt;Location: 2817775 - 2818200&lt;br&gt;&lt;br&gt;&lt;b&gt;BlastP hit with LLPMBPKK_06137&lt;/b&gt;&lt;br&gt;Percentage identity: 64&lt;br&gt;Percentage coverage: 102&lt;br&gt;BLAST bit score: 162&lt;br&gt;E-value: 1.69e-50" locus_tag="AVL59_RS11990" class="clusterblast-orf" id="dummy-25_h25_2_17"  />
</g>
<g id="a25_0018"  >
<polygon points="734,85 739,80 780,80 780,90 739,90 734,85 " style="fill:#6715d8; stroke-width:1; stroke:black; " description="&lt;b&gt;AVL59_RS11995&lt;/b&gt;&lt;br&gt;3-hydroxyacyl-CoA dehydrogenase&lt;br&gt;Location: 2818243 - 2819493&lt;br&gt;&lt;br&gt;&lt;b&gt;BlastP hit with LLPMBPKK_06138&lt;/b&gt;&lt;br&gt;Percentage identity: 94&lt;br&gt;Percentage coverage: 99&lt;br&gt;BLAST bit score: 781&lt;br&gt;E-value: 4.97e-286" locus_tag="AVL59_RS11995" class="clusterblast-orf" id="dummy-25_h25_2_18"  />
</g>
</svg>
