<svg xmlns="http://www.w3.org/2000/svg" xmlns:xlink="http://www.w3.org/1999/xlink" version="1.1" x="0" y="0" height="230" width="800" viewBox="0 0 800 230" preserveAspectRatio="none"  >
<g label="Query sequence" class="clusterblast-cluster"  >
<text x="5" y="20" class="clusterblast-acc"  >
Query sequence</text>
<line x1="10" y1="35" x2="778.0" y2="35" style="stroke-width:1; stroke:grey; "  />
<polygon points="0,40 2,40 7,35 2,30 0,30 0,40 " style="fill:white; stroke-width:1; stroke:black; " description="&lt;b&gt;LLPMBPKK_00467&lt;/b&gt;&lt;br&gt;pyruvate phosphate dikinase&lt;br&gt;Location: 575108 - 575282" locus_tag="LLPMBPKK_00467" class="clusterblast-orf" id="dummy-2_q0_0_all"  />
<polygon points="12,40 26,40 31,35 26,30 12,30 12,40 " style="fill:white; stroke-width:1; stroke:black; " description="&lt;b&gt;LLPMBPKK_00468&lt;/b&gt;&lt;br&gt;hypothetical protein&lt;br&gt;Location: 575385 - 575844" locus_tag="LLPMBPKK_00468" class="clusterblast-orf" id="dummy-2_q1_0_all"  />
<polygon points="42,40 61,40 66,35 61,30 42,30 42,40 " style="fill:white; stroke-width:1; stroke:black; " description="&lt;b&gt;LLPMBPKK_00469&lt;/b&gt;&lt;br&gt;proline rich protein membrane protein&lt;br&gt;Location: 576091 - 576664" locus_tag="LLPMBPKK_00469" class="clusterblast-orf" id="dummy-2_q2_0_all"  />
<polygon points="70,40 114,40 119,35 114,30 70,30 70,40 " style="fill:white; stroke-width:1; stroke:black; " description="&lt;b&gt;LLPMBPKK_00470&lt;/b&gt;&lt;br&gt;CBS domain-containing protein&lt;br&gt;Location: 576750 - 577917" locus_tag="LLPMBPKK_00470" class="clusterblast-orf" id="dummy-2_q3_0_all"  />
<polygon points="135,35 140,30 173,30 173,40 140,40 135,35 " style="fill:white; stroke-width:1; stroke:black; " description="&lt;b&gt;LLPMBPKK_00471&lt;/b&gt;&lt;br&gt;universal stress protein&lt;br&gt;Location: 578282 - 579188" locus_tag="LLPMBPKK_00471" class="clusterblast-orf" id="dummy-2_q4_0_all"  />
<polygon points="181,40 204,40 209,35 204,30 181,30 181,40 " style="fill:white; stroke-width:1; stroke:black; " description="&lt;b&gt;LLPMBPKK_00472&lt;/b&gt;&lt;br&gt;CBS domain-containing protein&lt;br&gt;Location: 579372 - 580029" locus_tag="LLPMBPKK_00472" class="clusterblast-orf" id="dummy-2_q5_0_all"  />
<polygon points="219,35 224,30 257,30 257,40 224,40 219,35 " style="fill:white; stroke-width:1; stroke:black; " description="&lt;b&gt;LLPMBPKK_00473&lt;/b&gt;&lt;br&gt;alpha/beta fold hydrolase&lt;br&gt;Location: 580275 - 581157" locus_tag="LLPMBPKK_00473" class="clusterblast-orf" id="dummy-2_q6_0_all"  />
<polygon points="259,40 274,40 279,35 274,30 259,30 259,40 " style="fill:white; stroke-width:1; stroke:black; " description="&lt;b&gt;LLPMBPKK_00474&lt;/b&gt;&lt;br&gt;MarR family transcriptional regulator&lt;br&gt;Location: 581209 - 581680" locus_tag="LLPMBPKK_00474" class="clusterblast-orf" id="dummy-2_q7_0_all"  />
<polygon points="281,35 286,30 299,30 299,40 286,40 281,35 " style="fill:white; stroke-width:1; stroke:black; " description="&lt;b&gt;LLPMBPKK_00475&lt;/b&gt;&lt;br&gt;hypothetical protein&lt;br&gt;Location: 581717 - 582158" locus_tag="LLPMBPKK_00475" class="clusterblast-orf" id="dummy-2_q8_0_all"  />
<polygon points="302,40 324,40 329,35 324,30 302,30 302,40 " style="fill:white; stroke-width:1; stroke:black; " description="&lt;b&gt;LLPMBPKK_00476&lt;/b&gt;&lt;br&gt;TetR family transcriptional regulator&lt;br&gt;Location: 582224 - 582851" locus_tag="LLPMBPKK_00476" class="clusterblast-orf" id="dummy-2_q9_0_all"  />
<polygon points="336,35 341,30 371,30 371,40 341,40 336,35 " style="fill:#d81515; stroke-width:1; stroke:black; " description="&lt;b&gt;LLPMBPKK_00477&lt;/b&gt;&lt;br&gt;alpha/beta fold hydrolase&lt;br&gt;Location: 583023 - 583836" locus_tag="LLPMBPKK_00477" class="clusterblast-orf" id="dummy-2_q10_0_all"  />
<polygon points="371,35 376,30 394,30 394,40 376,40 371,35 " style="fill:#15d8d8; stroke-width:1; stroke:black; " description="&lt;b&gt;LLPMBPKK_00478&lt;/b&gt;&lt;br&gt;hypothetical protein&lt;br&gt;Location: 583836 - 584379" locus_tag="LLPMBPKK_00478" class="clusterblast-orf" id="dummy-2_q11_0_all"  />
<polygon points="396,35 401,30 433,30 433,40 401,40 396,35 " style="fill:white; stroke-width:1; stroke:black; " description="&lt;b&gt;LLPMBPKK_00479&lt;/b&gt;&lt;br&gt;hypothetical protein&lt;br&gt;Location: 584434 - 585301" locus_tag="LLPMBPKK_00479" class="clusterblast-orf" id="dummy-2_q12_0_all"  />
<polygon points="436,35 441,30 454,30 454,40 441,40 436,35 " style="fill:white; stroke-width:1; stroke:black; " description="&lt;b&gt;LLPMBPKK_00480&lt;/b&gt;&lt;br&gt;hypothetical protein&lt;br&gt;Location: 585375 - 585789" locus_tag="LLPMBPKK_00480" class="clusterblast-orf" id="dummy-2_q13_0_all"  />
<polygon points="458,40 479,40 484,35 479,30 458,30 458,40 " style="fill:white; stroke-width:1; stroke:black; " description="&lt;b&gt;LLPMBPKK_00481&lt;/b&gt;&lt;br&gt;TetR/AcrR family transcriptional regulator&lt;br&gt;Location: 585881 - 586511" locus_tag="LLPMBPKK_00481" class="clusterblast-orf" id="dummy-2_q14_0_all"  />
<polygon points="497,35 502,30 508,30 508,40 502,40 497,35 " style="fill:white; stroke-width:1; stroke:black; " description="&lt;b&gt;LLPMBPKK_00482&lt;/b&gt;&lt;br&gt;hypothetical protein&lt;br&gt;Location: 586798 - 587071" locus_tag="LLPMBPKK_00482" class="clusterblast-orf" id="dummy-2_q15_0_all"  />
<polygon points="528,35 533,30 536,30 536,40 533,40 528,35 " style="fill:white; stroke-width:1; stroke:black; " description="&lt;b&gt;LLPMBPKK_00483&lt;/b&gt;&lt;br&gt;hypothetical protein&lt;br&gt;Location: 587549 - 587720" locus_tag="LLPMBPKK_00483" class="clusterblast-orf" id="dummy-2_q16_0_all"  />
<polygon points="539,40 540,40 545,35 540,30 539,30 539,40 " style="fill:white; stroke-width:1; stroke:black; " description="&lt;b&gt;LLPMBPKK_00484&lt;/b&gt;&lt;br&gt;hypothetical protein&lt;br&gt;Location: 587807 - 587933" locus_tag="LLPMBPKK_00484" class="clusterblast-orf" id="dummy-2_q17_0_all"  />
<polygon points="560,35 565,30 595,30 595,40 565,40 560,35 " style="fill:white; stroke-width:1; stroke:black; " description="&lt;b&gt;LLPMBPKK_00485&lt;/b&gt;&lt;br&gt;RNA polymerase sigma factor sig8&lt;br&gt;Location: 588280 - 589126" locus_tag="LLPMBPKK_00485" class="clusterblast-orf" id="dummy-2_q18_0_all"  />
<polygon points="608,40 615,40 620,35 615,30 608,30 608,40 " style="fill:white; stroke-width:1; stroke:black; " description="&lt;b&gt;LLPMBPKK_00486&lt;/b&gt;&lt;br&gt;hypothetical protein&lt;br&gt;Location: 589413 - 589701" locus_tag="LLPMBPKK_00486" class="clusterblast-orf" id="dummy-2_q19_0_all"  />
<polygon points="625,35 630,30 726,30 726,40 630,40 625,35 " style="fill:white; stroke-width:1; stroke:black; " description="&lt;b&gt;LLPMBPKK_00487&lt;/b&gt;&lt;br&gt;SARP family transcriptional regulator&lt;br&gt;Location: 589823 - 592199" locus_tag="LLPMBPKK_00487" class="clusterblast-orf" id="dummy-2_q20_0_all"  />
<polygon points="742,35 747,30 780,30 780,40 747,40 742,35 " style="fill:white; stroke-width:1; stroke:black; " description="&lt;b&gt;LLPMBPKK_00488&lt;/b&gt;&lt;br&gt;ECF subfamily RNA polymerase sigma-70 factor&lt;br&gt;Location: 592571 - 593468" locus_tag="LLPMBPKK_00488" class="clusterblast-orf" id="dummy-2_q21_0_all"  />
</g>
<g label="NZ_FMZH01000002" description="NZ_FMZH01000002 (727301-747853): Pedobacter soli strain DSM 18609, whole geno... (9% of genes show similarity), linaridin" class="clusterblast-cluster"  >
<text x="5" y="70" class="clusterblast-acc"  >
<a xlink:href="https://antismash-db.secondarymetabolites.org/area.html?record=NZ_FMZH01000002&amp;start=727301&amp;end=747853" target="_blank">NZ_FMZH01000002 (727301-747853)</a>: Pedobacter soli strain DSM 18609, whole geno... (9% of genes show similarity), linaridin</text>
<line x1="10" y1="85" x2="778.0" y2="85" style="stroke-width:1; stroke:grey; "  />
</g>
<g id="a2_000"  >
<polygon points="1,85 6,80 32,80 32,90 6,90 1,85 " style="fill:white; stroke-width:1; stroke:black; " description="&lt;b&gt;BLR37_RS07025&lt;/b&gt;&lt;br&gt;response regulator transcription factor&lt;br&gt;Location: 729479 - 730216" locus_tag="BLR37_RS07025" class="clusterblast-orf" id="dummy-2_h2_9_0"  />
</g>
<g id="a2_001"  >
<polygon points="32,85 37,80 67,80 67,90 37,90 32,85 " style="fill:white; stroke-width:1; stroke:black; " description="&lt;b&gt;BLR37_RS07030&lt;/b&gt;&lt;br&gt;histidine kinase&lt;br&gt;Location: 730213 - 731025" locus_tag="BLR37_RS07030" class="clusterblast-orf" id="dummy-2_h2_9_1"  />
</g>
<g id="a2_002"  >
<polygon points="90,90 134,90 139,85 134,80 90,80 90,90 " style="fill:white; stroke-width:1; stroke:black; " description="&lt;b&gt;BLR37_RS07035&lt;/b&gt;&lt;br&gt;hypothetical protein&lt;br&gt;Location: 731583 - 732731" locus_tag="BLR37_RS07035" class="clusterblast-orf" id="dummy-2_h2_9_2"  />
</g>
<g id="a2_003"  >
<polygon points="151,90 157,90 162,85 157,80 151,80 151,90 " style="fill:white; stroke-width:1; stroke:black; " description="&lt;b&gt;BLR37_RS07040&lt;/b&gt;&lt;br&gt;helix-turn-helix transcriptional regulator&lt;br&gt;Location: 733018 - 733275" locus_tag="BLR37_RS07040" class="clusterblast-orf" id="dummy-2_h2_9_3"  />
</g>
<g id="a2_004"  >
<polygon points="168,90 187,90 192,85 187,80 168,80 168,90 " style="fill:white; stroke-width:1; stroke:black; " description="&lt;b&gt;BLR37_RS07045&lt;/b&gt;&lt;br&gt;hypothetical protein&lt;br&gt;Location: 733402 - 733986" locus_tag="BLR37_RS07045" class="clusterblast-orf" id="dummy-2_h2_9_4"  />
</g>
<g id="a2_005"  >
<polygon points="206,90 226,90 231,85 226,80 206,80 206,90 " style="fill:white; stroke-width:1; stroke:black; " description="&lt;b&gt;BLR37_RS07050&lt;/b&gt;&lt;br&gt;adenylate kinase&lt;br&gt;Location: 734300 - 734890" locus_tag="BLR37_RS07050" class="clusterblast-orf" id="dummy-2_h2_9_5"  />
</g>
<g id="a2_006"  >
<polygon points="238,90 275,90 280,85 275,80 238,80 238,90 " style="fill:white; stroke-width:1; stroke:black; " description="&lt;b&gt;BLR37_RS07055&lt;/b&gt;&lt;br&gt;GTPase ObgE&lt;br&gt;Location: 735064 - 736059" locus_tag="BLR37_RS07055" class="clusterblast-orf" id="dummy-2_h2_9_6"  />
</g>
<g id="a2_007"  >
<polygon points="281,85 286,80 299,80 299,90 286,90 281,85 " style="fill:white; stroke-width:1; stroke:black; " description="&lt;b&gt;BLR37_RS07060&lt;/b&gt;&lt;br&gt;DUF393 domain-containing protein&lt;br&gt;Location: 736074 - 736493" locus_tag="BLR37_RS07060" class="clusterblast-orf" id="dummy-2_h2_9_7"  />
</g>
<g id="a2_008"  >
<polygon points="298,85 303,80 333,80 333,90 303,90 298,85 " style="fill:#d81515; stroke-width:1; stroke:black; " description="&lt;b&gt;BLR37_RS07065&lt;/b&gt;&lt;br&gt;hypothetical protein&lt;br&gt;Location: 736478 - 737299&lt;br&gt;&lt;br&gt;&lt;b&gt;BlastP hit with LLPMBPKK_00477&lt;/b&gt;&lt;br&gt;Percentage identity: 43&lt;br&gt;Percentage coverage: 65&lt;br&gt;BLAST bit score: 133&lt;br&gt;E-value: 1.21e-35" locus_tag="BLR37_RS07065" class="clusterblast-orf" id="dummy-2_h2_9_8"  />
</g>
<g id="a2_009"  >
<polygon points="333,85 338,80 357,80 357,90 338,90 333,85 " style="fill:#15d8d8; stroke-width:1; stroke:black; " description="&lt;b&gt;BLR37_RS07070&lt;/b&gt;&lt;br&gt;hypothetical protein&lt;br&gt;Location: 737302 - 737853&lt;br&gt;&lt;br&gt;&lt;b&gt;BlastP hit with LLPMBPKK_00478&lt;/b&gt;&lt;br&gt;Percentage identity: 34&lt;br&gt;Percentage coverage: 93&lt;br&gt;BLAST bit score: 104&lt;br&gt;E-value: 1.23e-26" locus_tag="BLR37_RS07070" class="clusterblast-orf" id="dummy-2_h2_9_9"  />
</g>
<g id="a2_0010"  >
<polygon points="359,85 364,80 372,80 372,90 364,90 359,85 " style="fill:white; stroke-width:1; stroke:black; " description="&lt;b&gt;BLR37_RS07075&lt;/b&gt;&lt;br&gt;hypothetical protein&lt;br&gt;Location: 737910 - 738215" locus_tag="BLR37_RS07075" class="clusterblast-orf" id="dummy-2_h2_9_10"  />
</g>
<g id="a2_0011"  >
<polygon points="380,85 385,80 408,80 408,90 385,90 380,85 " style="fill:white; stroke-width:1; stroke:black; " description="&lt;b&gt;BLR37_RS07080&lt;/b&gt;&lt;br&gt;response regulator transcription factor&lt;br&gt;Location: 738410 - 739063" locus_tag="BLR37_RS07080" class="clusterblast-orf" id="dummy-2_h2_9_11"  />
</g>
<g id="a2_0012"  >
<polygon points="412,85 417,80 447,80 447,90 417,90 412,85 " style="fill:white; stroke-width:1; stroke:black; " description="&lt;b&gt;BLR37_RS07085&lt;/b&gt;&lt;br&gt;hypothetical protein&lt;br&gt;Location: 739151 - 739969" locus_tag="BLR37_RS07085" class="clusterblast-orf" id="dummy-2_h2_9_12"  />
</g>
<g id="a2_0013"  >
<polygon points="446,85 451,80 474,80 474,90 451,90 446,85 " style="fill:white; stroke-width:1; stroke:black; " description="&lt;b&gt;BLR37_RS07090&lt;/b&gt;&lt;br&gt;hypothetical protein&lt;br&gt;Location: 739950 - 740615" locus_tag="BLR37_RS07090" class="clusterblast-orf" id="dummy-2_h2_9_13"  />
</g>
<g id="a2_0014"  >
<polygon points="475,85 480,80 493,80 493,90 480,90 475,85 " style="fill:white; stroke-width:1; stroke:black; " description="&lt;b&gt;BLR37_RS07095&lt;/b&gt;&lt;br&gt;hypothetical protein&lt;br&gt;Location: 740636 - 741055" locus_tag="BLR37_RS07095" class="clusterblast-orf" id="dummy-2_h2_9_14"  />
</g>
<g id="a2_0015"  >
<polygon points="504,85 509,80 536,80 536,90 509,90 504,85 " style="fill:white; stroke-width:1; stroke:black; " description="&lt;b&gt;BLR37_RS07100&lt;/b&gt;&lt;br&gt;YdcF family protein&lt;br&gt;Location: 741324 - 742073" locus_tag="BLR37_RS07100" class="clusterblast-orf" id="dummy-2_h2_9_15"  />
</g>
<g id="a2_0016"  >
<polygon points="538,85 543,80 554,80 554,90 543,90 538,85 " style="fill:white; stroke-width:1; stroke:black; " description="&lt;b&gt;BLR37_RS07105&lt;/b&gt;&lt;br&gt;YtxH domain-containing protein&lt;br&gt;Location: 742125 - 742490" locus_tag="BLR37_RS07105" class="clusterblast-orf" id="dummy-2_h2_9_16"  />
</g>
<g id="a2_0017"  >
<polygon points="569,90 580,90 585,85 580,80 569,80 569,90 " style="fill:white; stroke-width:1; stroke:black; " description="&lt;b&gt;BLR37_RS07110&lt;/b&gt;&lt;br&gt;OsmC family protein&lt;br&gt;Location: 742857 - 743237" locus_tag="BLR37_RS07110" class="clusterblast-orf" id="dummy-2_h2_9_17"  />
</g>
<g id="a2_0018"  >
<polygon points="589,90 637,90 642,85 637,80 589,80 589,90 " style="fill:white; stroke-width:1; stroke:black; " description="&lt;b&gt;BLR37_RS07115&lt;/b&gt;&lt;br&gt;DUF2130 domain-containing protein&lt;br&gt;Location: 743326 - 744576" locus_tag="BLR37_RS07115" class="clusterblast-orf" id="dummy-2_h2_9_18"  />
</g>
<g id="a2_0019"  >
<polygon points="652,90 736,90 741,85 736,80 652,80 652,90 " style="fill:white; stroke-width:1; stroke:black; " description="&lt;b&gt;BLR37_RS07120&lt;/b&gt;&lt;br&gt;glycoside hydrolase family 97 protein&lt;br&gt;Location: 744807 - 746891" locus_tag="BLR37_RS07120" class="clusterblast-orf" id="dummy-2_h2_9_19"  />
</g>
<g id="a2_0020"  >
<polygon points="758,90 773,90 778,85 773,80 758,80 758,90 " style="fill:white; stroke-width:1; stroke:black; " description="&lt;b&gt;BLR37_RS07125&lt;/b&gt;&lt;br&gt;acyl-CoA thioesterase&lt;br&gt;Location: 747294 - 747770" locus_tag="BLR37_RS07125" class="clusterblast-orf" id="dummy-2_h2_9_20"  />
</g>
</svg>
