<svg xmlns="http://www.w3.org/2000/svg" xmlns:xlink="http://www.w3.org/1999/xlink" version="1.1" x="0" y="0" height="230" width="800" viewBox="0 0 800 230" preserveAspectRatio="none"  >
<g label="Query sequence" class="clusterblast-cluster"  >
<text x="5" y="20" class="clusterblast-acc"  >
Query sequence</text>
<line x1="10" y1="35" x2="778.0" y2="35" style="stroke-width:1; stroke:grey; "  />
<polygon points="0,40 29,40 34,35 29,30 0,30 0,40 " style="fill:white; stroke-width:1; stroke:black; " description="&lt;b&gt;LLPMBPKK_01488&lt;/b&gt;&lt;br&gt;AfsR-like regulator&lt;br&gt;Location: 1770624 - 1772943" locus_tag="LLPMBPKK_01488" class="clusterblast-orf" id="dummy-10_q0_0_all"  />
<polygon points="34,40 47,40 52,35 47,30 34,30 34,40 " style="fill:white; stroke-width:1; stroke:black; " description="&lt;b&gt;LLPMBPKK_01489&lt;/b&gt;&lt;br&gt;Radical SAM superfamily protein&lt;br&gt;Location: 1772939 - 1774100" locus_tag="LLPMBPKK_01489" class="clusterblast-orf" id="dummy-10_q1_0_all"  />
<polygon points="51,40 55,35 51,30 51,40 " style="fill:white; stroke-width:1; stroke:black; " description="&lt;b&gt;LLPMBPKK_01490&lt;/b&gt;&lt;br&gt;hypothetical protein&lt;br&gt;Location: 1774053 - 1774317" locus_tag="LLPMBPKK_01490" class="clusterblast-orf" id="dummy-10_q2_0_all"  />
<polygon points="55,35 60,30 64,30 64,40 60,40 55,35 " style="fill:#d81515; stroke-width:1; stroke:black; " description="&lt;b&gt;LLPMBPKK_01491&lt;/b&gt;&lt;br&gt;YigZ family protein&lt;br&gt;Location: 1774301 - 1774928" locus_tag="LLPMBPKK_01491" class="clusterblast-orf" id="dummy-10_q3_0_all"  />
<polygon points="65,35 70,30 73,30 73,40 70,40 65,35 " style="fill:#67d815; stroke-width:1; stroke:black; " description="&lt;b&gt;LLPMBPKK_01492&lt;/b&gt;&lt;br&gt;histidine phosphatase family protein&lt;br&gt;Location: 1774963 - 1775509" locus_tag="LLPMBPKK_01492" class="clusterblast-orf" id="dummy-10_q4_0_all"  />
<polygon points="73,35 78,30 87,30 87,40 78,40 73,35 " style="fill:#15b9d8; stroke-width:1; stroke:black; " description="&lt;b&gt;LLPMBPKK_01493&lt;/b&gt;&lt;br&gt;hypothetical protein&lt;br&gt;Location: 1775505 - 1776423" locus_tag="LLPMBPKK_01493" class="clusterblast-orf" id="dummy-10_q5_0_all"  />
<polygon points="89,40 90,40 95,35 90,30 89,30 89,40 " style="fill:#8615d8; stroke-width:1; stroke:black; " description="&lt;b&gt;LLPMBPKK_01494&lt;/b&gt;&lt;br&gt;CoA-binding domain-containing protein&lt;br&gt;Location: 1776564 - 1776972" locus_tag="LLPMBPKK_01494" class="clusterblast-orf" id="dummy-10_q6_0_all"  />
<polygon points="98,40 118,40 123,35 118,30 98,30 98,40 " style="fill:#d83415; stroke-width:1; stroke:black; " description="&lt;b&gt;LLPMBPKK_01495&lt;/b&gt;&lt;br&gt;APC family permease&lt;br&gt;Location: 1777198 - 1778833" locus_tag="LLPMBPKK_01495" class="clusterblast-orf" id="dummy-10_q7_0_all"  />
<polygon points="124,40 137,40 142,35 137,30 124,30 124,40 " style="fill:#49d815; stroke-width:1; stroke:black; " description="&lt;b&gt;LLPMBPKK_01496&lt;/b&gt;&lt;br&gt;4-hydroxybenzoate 3-monooxygenase&lt;br&gt;Location: 1778898 - 1780119" locus_tag="LLPMBPKK_01496" class="clusterblast-orf" id="dummy-10_q8_0_all"  />
<polygon points="142,35 147,30 147,30 147,40 147,40 142,35 " style="fill:#159bd8; stroke-width:1; stroke:black; " description="&lt;b&gt;LLPMBPKK_01497&lt;/b&gt;&lt;br&gt;regulatory protein&lt;br&gt;Location: 1780124 - 1780472" locus_tag="LLPMBPKK_01497" class="clusterblast-orf" id="dummy-10_q9_0_all"  />
<polygon points="148,40 159,40 164,35 159,30 148,30 148,40 " style="fill:#a515d8; stroke-width:1; stroke:black; " description="&lt;b&gt;LLPMBPKK_01498&lt;/b&gt;&lt;br&gt;cation transporter&lt;br&gt;Location: 1780545 - 1781577" locus_tag="LLPMBPKK_01498" class="clusterblast-orf" id="dummy-10_q10_0_all"  />
<polygon points="165,35 170,30 173,30 173,40 170,40 165,35 " style="fill:#d85315; stroke-width:1; stroke:black; " description="&lt;b&gt;LLPMBPKK_01499&lt;/b&gt;&lt;br&gt;YbaK-like protein&lt;br&gt;Location: 1781647 - 1782208" locus_tag="LLPMBPKK_01499" class="clusterblast-orf" id="dummy-10_q11_0_all"  />
<polygon points="174,35 179,30 182,30 182,40 179,40 174,35 " style="fill:#2ad815; stroke-width:1; stroke:black; " description="&lt;b&gt;LLPMBPKK_01500&lt;/b&gt;&lt;br&gt;XRE family transcriptional regulator&lt;br&gt;Location: 1782251 - 1782824" locus_tag="LLPMBPKK_01500" class="clusterblast-orf" id="dummy-10_q12_0_all"  />
<polygon points="184,40 192,40 197,35 192,30 184,30 184,40 " style="fill:#157cd8; stroke-width:1; stroke:black; " description="&lt;b&gt;LLPMBPKK_01501&lt;/b&gt;&lt;br&gt;DMT family transporter&lt;br&gt;Location: 1782933 - 1783791" locus_tag="LLPMBPKK_01501" class="clusterblast-orf" id="dummy-10_q13_0_all"  />
<polygon points="197,35 202,30 209,30 209,40 202,40 197,35 " style="fill:#c415d8; stroke-width:1; stroke:black; " description="&lt;b&gt;LLPMBPKK_01502&lt;/b&gt;&lt;br&gt;sugar acetyltransferase&lt;br&gt;Location: 1783812 - 1784577" locus_tag="LLPMBPKK_01502" class="clusterblast-orf" id="dummy-10_q14_0_all"  />
<polygon points="210,40 213,40 218,35 213,30 210,30 210,40 " style="fill:#d87215; stroke-width:1; stroke:black; " description="&lt;b&gt;LLPMBPKK_01503&lt;/b&gt;&lt;br&gt;siderophore binding protein&lt;br&gt;Location: 1784686 - 1785214" locus_tag="LLPMBPKK_01503" class="clusterblast-orf" id="dummy-10_q15_0_all"  />
<polygon points="218,35 223,30 228,30 228,40 223,40 218,35 " style="fill:#15d81f; stroke-width:1; stroke:black; " description="&lt;b&gt;LLPMBPKK_01504&lt;/b&gt;&lt;br&gt;DedA family protein&lt;br&gt;Location: 1785231 - 1785876" locus_tag="LLPMBPKK_01504" class="clusterblast-orf" id="dummy-10_q16_0_all"  />
<polygon points="232,40 243,40 248,35 243,30 232,30 232,40 " style="fill:#155dd8; stroke-width:1; stroke:black; " description="&lt;b&gt;LLPMBPKK_01505&lt;/b&gt;&lt;br&gt;flippase-like domain-containing protein&lt;br&gt;Location: 1786135 - 1787215" locus_tag="LLPMBPKK_01505" class="clusterblast-orf" id="dummy-10_q17_0_all"  />
<polygon points="249,35 254,30 265,30 265,40 254,40 249,35 " style="fill:#d815ce; stroke-width:1; stroke:black; " description="&lt;b&gt;LLPMBPKK_01506&lt;/b&gt;&lt;br&gt;class I SAM-dependent methyltransferase&lt;br&gt;Location: 1787237 - 1788320" locus_tag="LLPMBPKK_01506" class="clusterblast-orf" id="dummy-10_q18_0_all"  />
<polygon points="265,35 270,30 282,30 282,40 270,40 265,35 " style="fill:#d89015; stroke-width:1; stroke:black; " description="&lt;b&gt;LLPMBPKK_01507&lt;/b&gt;&lt;br&gt;glycosyltransferase&lt;br&gt;Location: 1788316 - 1789498" locus_tag="LLPMBPKK_01507" class="clusterblast-orf" id="dummy-10_q19_0_all"  />
<polygon points="282,35 287,30 294,30 294,40 287,40 282,35 " style="fill:#15d83e; stroke-width:1; stroke:black; " description="&lt;b&gt;LLPMBPKK_01508&lt;/b&gt;&lt;br&gt;alpha/beta hydrolase&lt;br&gt;Location: 1789494 - 1790295" locus_tag="LLPMBPKK_01508" class="clusterblast-orf" id="dummy-10_q20_0_all"  />
<polygon points="294,35 299,30 299,30 299,40 299,40 294,35 " style="fill:#153ed8; stroke-width:1; stroke:black; " description="&lt;b&gt;LLPMBPKK_01509&lt;/b&gt;&lt;br&gt;acyl carrier protein&lt;br&gt;Location: 1790298 - 1790619" locus_tag="LLPMBPKK_01509" class="clusterblast-orf" id="dummy-10_q21_0_all"  />
<polygon points="299,35 304,30 369,30 369,40 304,40 299,35 " style="fill:#d815af; stroke-width:1; stroke:black; " description="&lt;b&gt;LLPMBPKK_01510&lt;/b&gt;&lt;br&gt;type I polyketide synthase&lt;br&gt;Location: 1790615 - 1795274" locus_tag="LLPMBPKK_01510" class="clusterblast-orf" id="dummy-10_q22_0_all"  />
<polygon points="369,35 374,30 482,30 482,40 374,40 369,35 " style="fill:#d815af; stroke-width:1; stroke:black; " description="&lt;b&gt;LLPMBPKK_01511&lt;/b&gt;&lt;br&gt;hypothetical protein&lt;br&gt;Location: 1795275 - 1802793" locus_tag="LLPMBPKK_01511" class="clusterblast-orf" id="dummy-10_q23_0_all"  />
<polygon points="489,35 494,30 520,30 520,40 494,40 489,35 " style="fill:#d8af15; stroke-width:1; stroke:black; " description="&lt;b&gt;LLPMBPKK_01512&lt;/b&gt;&lt;br&gt;Ricin-type beta-trefoil lectin domain protein&lt;br&gt;Location: 1803271 - 1805356" locus_tag="LLPMBPKK_01512" class="clusterblast-orf" id="dummy-10_q24_0_all"  />
<polygon points="528,35 533,30 537,30 537,40 533,40 528,35 " style="fill:#15d85d; stroke-width:1; stroke:black; " description="&lt;b&gt;LLPMBPKK_01513&lt;/b&gt;&lt;br&gt;MFS transporter&lt;br&gt;Location: 1805884 - 1806463" locus_tag="LLPMBPKK_01513" class="clusterblast-orf" id="dummy-10_q25_0_all"  />
<polygon points="548,40 559,40 564,35 559,30 548,30 548,40 " style="fill:#151fd8; stroke-width:1; stroke:black; " description="&lt;b&gt;LLPMBPKK_01514&lt;/b&gt;&lt;br&gt;helix-turn-helix domain-containing protein&lt;br&gt;Location: 1807237 - 1808275" locus_tag="LLPMBPKK_01514" class="clusterblast-orf" id="dummy-10_q26_0_all"  />
<polygon points="564,35 569,30 578,30 578,40 569,40 564,35 " style="fill:#d81590; stroke-width:1; stroke:black; " description="&lt;b&gt;LLPMBPKK_01515&lt;/b&gt;&lt;br&gt;ectoine hydroxylase&lt;br&gt;Location: 1808329 - 1809220" locus_tag="LLPMBPKK_01515" class="clusterblast-orf" id="dummy-10_q27_0_all"  />
<polygon points="578,35 583,30 586,30 586,40 583,40 578,35 " style="fill:#d8ce15; stroke-width:1; stroke:black; " description="&lt;b&gt;LLPMBPKK_01516&lt;/b&gt;&lt;br&gt;L-2,4-diaminobutyric acid acetyltransferase&lt;br&gt;Location: 1809216 - 1809768" locus_tag="LLPMBPKK_01516" class="clusterblast-orf" id="dummy-10_q28_0_all"  />
<polygon points="586,35 591,30 592,30 592,40 591,40 586,35 " style="fill:#15d87c; stroke-width:1; stroke:black; " description="&lt;b&gt;LLPMBPKK_01517&lt;/b&gt;&lt;br&gt;L-ectoine synthase&lt;br&gt;Location: 1809769 - 1810174" locus_tag="LLPMBPKK_01517" class="clusterblast-orf" id="dummy-10_q29_0_all"  />
<polygon points="594,35 599,30 604,30 604,40 599,40 594,35 " style="fill:#2a15d8; stroke-width:1; stroke:black; " description="&lt;b&gt;LLPMBPKK_01518&lt;/b&gt;&lt;br&gt;diaminobutyrate--2-oxoglutarate transaminase&lt;br&gt;Location: 1810283 - 1810940" locus_tag="LLPMBPKK_01518" class="clusterblast-orf" id="dummy-10_q30_0_all"  />
<polygon points="613,35 617,30 617,40 613,35 " style="fill:#d81572; stroke-width:1; stroke:black; " description="&lt;b&gt;LLPMBPKK_01519&lt;/b&gt;&lt;br&gt;acyl carrier protein&lt;br&gt;Location: 1811552 - 1811816" locus_tag="LLPMBPKK_01519" class="clusterblast-orf" id="dummy-10_q31_0_all"  />
<polygon points="617,35 622,30 640,30 640,40 622,40 617,35 " style="fill:#c4d815; stroke-width:1; stroke:black; " description="&lt;b&gt;LLPMBPKK_01520&lt;/b&gt;&lt;br&gt;AMP-dependent synthetase&lt;br&gt;Location: 1811835 - 1813365" locus_tag="LLPMBPKK_01520" class="clusterblast-orf" id="dummy-10_q32_0_all"  />
<polygon points="640,35 645,30 656,30 656,40 645,40 640,35 " style="fill:#15d89b; stroke-width:1; stroke:black; " description="&lt;b&gt;LLPMBPKK_01521&lt;/b&gt;&lt;br&gt;4'-phosphopantetheinyl transferase superfamilyprotein&lt;br&gt;Location: 1813364 - 1814426" locus_tag="LLPMBPKK_01521" class="clusterblast-orf" id="dummy-10_q33_0_all"  />
<polygon points="656,35 661,30 675,30 675,40 661,40 656,35 " style="fill:#4915d8; stroke-width:1; stroke:black; " description="&lt;b&gt;LLPMBPKK_01522&lt;/b&gt;&lt;br&gt;diaminopimelate decarboxylase&lt;br&gt;Location: 1814422 - 1815715" locus_tag="LLPMBPKK_01522" class="clusterblast-orf" id="dummy-10_q34_0_all"  />
<polygon points="675,35 678,30 678,40 675,35 " style="fill:white; stroke-width:1; stroke:black; " description="&lt;b&gt;LLPMBPKK_01523&lt;/b&gt;&lt;br&gt;hypothetical protein&lt;br&gt;Location: 1815711 - 1815888" locus_tag="LLPMBPKK_01523" class="clusterblast-orf" id="dummy-10_q35_0_all"  />
<polygon points="679,35 684,30 684,30 684,40 684,40 679,35 " style="fill:#d81553; stroke-width:1; stroke:black; " description="&lt;b&gt;LLPMBPKK_01524&lt;/b&gt;&lt;br&gt;hypothetical protein&lt;br&gt;Location: 1815987 - 1816305" locus_tag="LLPMBPKK_01524" class="clusterblast-orf" id="dummy-10_q36_0_all"  />
<polygon points="687,35 692,30 701,30 701,40 692,40 687,35 " style="fill:#a5d815; stroke-width:1; stroke:black; " description="&lt;b&gt;LLPMBPKK_01525&lt;/b&gt;&lt;br&gt;response regulator transcription factor&lt;br&gt;Location: 1816477 - 1817470" locus_tag="LLPMBPKK_01525" class="clusterblast-orf" id="dummy-10_q37_0_all"  />
<polygon points="704,35 709,30 712,30 712,40 709,40 704,35 " style="fill:#15d8b9; stroke-width:1; stroke:black; " description="&lt;b&gt;LLPMBPKK_01526&lt;/b&gt;&lt;br&gt;hypothetical protein&lt;br&gt;Location: 1817672 - 1818152" locus_tag="LLPMBPKK_01526" class="clusterblast-orf" id="dummy-10_q38_0_all"  />
<polygon points="712,40 723,40 728,35 723,30 712,30 712,40 " style="fill:#6715d8; stroke-width:1; stroke:black; " description="&lt;b&gt;LLPMBPKK_01527&lt;/b&gt;&lt;br&gt;membrane protein&lt;br&gt;Location: 1818196 - 1819267" locus_tag="LLPMBPKK_01527" class="clusterblast-orf" id="dummy-10_q39_0_all"  />
<polygon points="729,40 743,40 748,35 743,30 729,30 729,40 " style="fill:#d81534; stroke-width:1; stroke:black; " description="&lt;b&gt;LLPMBPKK_01528&lt;/b&gt;&lt;br&gt;MFS transporter&lt;br&gt;Location: 1819316 - 1820615" locus_tag="LLPMBPKK_01528" class="clusterblast-orf" id="dummy-10_q40_0_all"  />
<polygon points="748,35 753,30 761,30 761,40 753,40 748,35 " style="fill:#86d815; stroke-width:1; stroke:black; " description="&lt;b&gt;LLPMBPKK_01529&lt;/b&gt;&lt;br&gt;spermidine synthase-like protein&lt;br&gt;Location: 1820576 - 1821422" locus_tag="LLPMBPKK_01529" class="clusterblast-orf" id="dummy-10_q41_0_all"  />
<polygon points="762,35 767,30 780,30 780,40 767,40 762,35 " style="fill:#15d8d8; stroke-width:1; stroke:black; " description="&lt;b&gt;LLPMBPKK_01530&lt;/b&gt;&lt;br&gt;elongation factor Tu&lt;br&gt;Location: 1821525 - 1822695" locus_tag="LLPMBPKK_01530" class="clusterblast-orf" id="dummy-10_q42_0_all"  />
</g>
<g label="NZ_JACHJK010000002" description="NZ_JACHJK010000002 (780272-833336): Streptomyces echinatus strain CECT 3313 G... (65% of genes show similarity), T1PKS,hglE-KS" class="clusterblast-cluster"  >
<text x="5" y="70" class="clusterblast-acc"  >
<a xlink:href="https://antismash-db.secondarymetabolites.org/area.html?record=NZ_JACHJK010000002&amp;start=780272&amp;end=833336" target="_blank">NZ_JACHJK010000002 (780272-833336)</a>: Streptomyces echinatus strain CECT 3313 G... (65% of genes show similarity), T1PKS,hglE-KS</text>
<line x1="10" y1="85" x2="778.0" y2="85" style="stroke-width:1; stroke:grey; "  />
</g>
<g id="a10_000"  >
<polygon points="13,85 18,80 30,80 30,90 18,90 13,85 " style="fill:white; stroke-width:1; stroke:black; " description="&lt;b&gt;FHS34_RS08100&lt;/b&gt;&lt;br&gt;exonuclease SbcCD subunit D&lt;br&gt;Location: 781970 - 783133" locus_tag="FHS34_RS08100" class="clusterblast-orf" id="dummy-10_h10_2_0"  />
</g>
<g id="a10_001"  >
<polygon points="37,85 42,80 46,80 46,90 42,90 37,85 " style="fill:#d81515; stroke-width:1; stroke:black; " description="&lt;b&gt;FHS34_RS08105&lt;/b&gt;&lt;br&gt;YigZ family protein&lt;br&gt;Location: 783568 - 784194&lt;br&gt;&lt;br&gt;&lt;b&gt;BlastP hit with LLPMBPKK_01491&lt;/b&gt;&lt;br&gt;Percentage identity: 96&lt;br&gt;Percentage coverage: 100&lt;br&gt;BLAST bit score: 392&lt;br&gt;E-value: 3.18e-139" locus_tag="FHS34_RS08105" class="clusterblast-orf" id="dummy-10_h10_2_1"  />
</g>
<g id="a10_002"  >
<polygon points="46,85 51,80 55,80 55,90 51,90 46,85 " style="fill:#67d815; stroke-width:1; stroke:black; " description="&lt;b&gt;FHS34_RS08110&lt;/b&gt;&lt;br&gt;histidine phosphatase family protein&lt;br&gt;Location: 784231 - 784770&lt;br&gt;&lt;br&gt;&lt;b&gt;BlastP hit with LLPMBPKK_01492&lt;/b&gt;&lt;br&gt;Percentage identity: 86&lt;br&gt;Percentage coverage: 99&lt;br&gt;BLAST bit score: 313&lt;br&gt;E-value: 9.69e-109" locus_tag="FHS34_RS08110" class="clusterblast-orf" id="dummy-10_h10_2_2"  />
</g>
<g id="a10_003"  >
<polygon points="54,85 59,80 65,80 65,90 59,90 54,85 " style="fill:#15b9d8; stroke-width:1; stroke:black; " description="&lt;b&gt;FHS34_RS08115&lt;/b&gt;&lt;br&gt;hypothetical protein&lt;br&gt;Location: 784767 - 785495&lt;br&gt;&lt;br&gt;&lt;b&gt;BlastP hit with LLPMBPKK_01493&lt;/b&gt;&lt;br&gt;Percentage identity: 67&lt;br&gt;Percentage coverage: 100&lt;br&gt;BLAST bit score: 367&lt;br&gt;E-value: 2.67e-127" locus_tag="FHS34_RS08115" class="clusterblast-orf" id="dummy-10_h10_2_3"  />
</g>
<g id="a10_004"  >
<polygon points="68,90 69,90 74,85 69,80 68,80 68,90 " style="fill:#8615d8; stroke-width:1; stroke:black; " description="&lt;b&gt;FHS34_RS08120&lt;/b&gt;&lt;br&gt;CoA-binding protein&lt;br&gt;Location: 785638 - 786045&lt;br&gt;&lt;br&gt;&lt;b&gt;BlastP hit with LLPMBPKK_01494&lt;/b&gt;&lt;br&gt;Percentage identity: 91&lt;br&gt;Percentage coverage: 100&lt;br&gt;BLAST bit score: 244&lt;br&gt;E-value: 3.22e-83" locus_tag="FHS34_RS08120" class="clusterblast-orf" id="dummy-10_h10_2_4"  />
</g>
<g id="a10_005"  >
<polygon points="77,90 96,90 101,85 96,80 77,80 77,90 " style="fill:#d83415; stroke-width:1; stroke:black; " description="&lt;b&gt;FHS34_RS08125&lt;/b&gt;&lt;br&gt;APC family permease&lt;br&gt;Location: 786248 - 787882&lt;br&gt;&lt;br&gt;&lt;b&gt;BlastP hit with LLPMBPKK_01495&lt;/b&gt;&lt;br&gt;Percentage identity: 95&lt;br&gt;Percentage coverage: 100&lt;br&gt;BLAST bit score: 1044&lt;br&gt;E-value: 0.0" locus_tag="FHS34_RS08125" class="clusterblast-orf" id="dummy-10_h10_2_5"  />
</g>
<g id="a10_006"  >
<polygon points="102,90 115,90 120,85 115,80 102,80 102,90 " style="fill:#49d815; stroke-width:1; stroke:black; " description="&lt;b&gt;FHS34_RS08130&lt;/b&gt;&lt;br&gt;4-hydroxybenzoate 3-monooxygenase&lt;br&gt;Location: 787951 - 789168&lt;br&gt;&lt;br&gt;&lt;b&gt;BlastP hit with LLPMBPKK_01496&lt;/b&gt;&lt;br&gt;Percentage identity: 87&lt;br&gt;Percentage coverage: 100&lt;br&gt;BLAST bit score: 722&lt;br&gt;E-value: 3.19e-263" locus_tag="FHS34_RS08130" class="clusterblast-orf" id="dummy-10_h10_2_6"  />
</g>
<g id="a10_007"  >
<polygon points="121,85 126,80 126,80 126,90 126,90 121,85 " style="fill:#159bd8; stroke-width:1; stroke:black; " description="&lt;b&gt;FHS34_RS08135&lt;/b&gt;&lt;br&gt;helix-turn-helix transcriptional regulator&lt;br&gt;Location: 789208 - 789543&lt;br&gt;&lt;br&gt;&lt;b&gt;BlastP hit with LLPMBPKK_01497&lt;/b&gt;&lt;br&gt;Percentage identity: 88&lt;br&gt;Percentage coverage: 96&lt;br&gt;BLAST bit score: 188&lt;br&gt;E-value: 1.69e-61" locus_tag="FHS34_RS08135" class="clusterblast-orf" id="dummy-10_h10_2_7"  />
</g>
<g id="a10_008"  >
<polygon points="127,90 140,90 145,85 140,80 127,80 127,90 " style="fill:#a515d8; stroke-width:1; stroke:black; " description="&lt;b&gt;FHS34_RS08140&lt;/b&gt;&lt;br&gt;cation transporter&lt;br&gt;Location: 789618 - 790787&lt;br&gt;&lt;br&gt;&lt;b&gt;BlastP hit with LLPMBPKK_01498&lt;/b&gt;&lt;br&gt;Percentage identity: 90&lt;br&gt;Percentage coverage: 95&lt;br&gt;BLAST bit score: 542&lt;br&gt;E-value: 2.67e-193" locus_tag="FHS34_RS08140" class="clusterblast-orf" id="dummy-10_h10_2_8"  />
</g>
<g id="a10_009"  >
<polygon points="147,85 152,80 156,80 156,90 152,90 147,85 " style="fill:#d85315; stroke-width:1; stroke:black; " description="&lt;b&gt;FHS34_RS08145&lt;/b&gt;&lt;br&gt;YbaK/EbsC family protein&lt;br&gt;Location: 790959 - 791516&lt;br&gt;&lt;br&gt;&lt;b&gt;BlastP hit with LLPMBPKK_01499&lt;/b&gt;&lt;br&gt;Percentage identity: 87&lt;br&gt;Percentage coverage: 98&lt;br&gt;BLAST bit score: 325&lt;br&gt;E-value: 1.94e-113" locus_tag="FHS34_RS08145" class="clusterblast-orf" id="dummy-10_h10_2_9"  />
</g>
<g id="a10_0010"  >
<polygon points="156,85 161,80 165,80 165,90 161,90 156,85 " style="fill:#2ad815; stroke-width:1; stroke:black; " description="&lt;b&gt;FHS34_RS08150&lt;/b&gt;&lt;br&gt;helix-turn-helix transcriptional regulator&lt;br&gt;Location: 791560 - 792132&lt;br&gt;&lt;br&gt;&lt;b&gt;BlastP hit with LLPMBPKK_01500&lt;/b&gt;&lt;br&gt;Percentage identity: 91&lt;br&gt;Percentage coverage: 100&lt;br&gt;BLAST bit score: 354&lt;br&gt;E-value: 7.05e-125" locus_tag="FHS34_RS08150" class="clusterblast-orf" id="dummy-10_h10_2_10"  />
</g>
<g id="a10_0011"  >
<polygon points="166,90 174,90 179,85 174,80 166,80 166,90 " style="fill:#157cd8; stroke-width:1; stroke:black; " description="&lt;b&gt;FHS34_RS08155&lt;/b&gt;&lt;br&gt;DMT family transporter&lt;br&gt;Location: 792242 - 793099&lt;br&gt;&lt;br&gt;&lt;b&gt;BlastP hit with LLPMBPKK_01501&lt;/b&gt;&lt;br&gt;Percentage identity: 92&lt;br&gt;Percentage coverage: 100&lt;br&gt;BLAST bit score: 459&lt;br&gt;E-value: 2.4e-163" locus_tag="FHS34_RS08155" class="clusterblast-orf" id="dummy-10_h10_2_11"  />
</g>
<g id="a10_0012"  >
<polygon points="180,85 185,80 191,80 191,90 185,90 180,85 " style="fill:#c415d8; stroke-width:1; stroke:black; " description="&lt;b&gt;FHS34_RS08160&lt;/b&gt;&lt;br&gt;acyltransferase&lt;br&gt;Location: 793125 - 793889&lt;br&gt;&lt;br&gt;&lt;b&gt;BlastP hit with LLPMBPKK_01502&lt;/b&gt;&lt;br&gt;Percentage identity: 91&lt;br&gt;Percentage coverage: 100&lt;br&gt;BLAST bit score: 489&lt;br&gt;E-value: 4.15e-176" locus_tag="FHS34_RS08160" class="clusterblast-orf" id="dummy-10_h10_2_12"  />
</g>
<g id="a10_0013"  >
<polygon points="193,90 196,90 201,85 196,80 193,80 193,90 " style="fill:#d87215; stroke-width:1; stroke:black; " description="&lt;b&gt;FHS34_RS08165&lt;/b&gt;&lt;br&gt;gamma carbonic anhydrase family protein&lt;br&gt;Location: 793998 - 794525&lt;br&gt;&lt;br&gt;&lt;b&gt;BlastP hit with LLPMBPKK_01503&lt;/b&gt;&lt;br&gt;Percentage identity: 87&lt;br&gt;Percentage coverage: 100&lt;br&gt;BLAST bit score: 258&lt;br&gt;E-value: 2.87e-87" locus_tag="FHS34_RS08165" class="clusterblast-orf" id="dummy-10_h10_2_13"  />
</g>
<g id="a10_0014"  >
<polygon points="203,85 208,80 213,80 213,90 208,90 203,85 " style="fill:#15d81f; stroke-width:1; stroke:black; " description="&lt;b&gt;FHS34_RS08170&lt;/b&gt;&lt;br&gt;DedA family protein&lt;br&gt;Location: 794677 - 795324&lt;br&gt;&lt;br&gt;&lt;b&gt;BlastP hit with LLPMBPKK_01504&lt;/b&gt;&lt;br&gt;Percentage identity: 92&lt;br&gt;Percentage coverage: 100&lt;br&gt;BLAST bit score: 390&lt;br&gt;E-value: 2.12e-138" locus_tag="FHS34_RS08170" class="clusterblast-orf" id="dummy-10_h10_2_14"  />
</g>
<g id="a10_0015"  >
<polygon points="219,90 229,90 234,85 229,80 219,80 219,90 " style="fill:#155dd8; stroke-width:1; stroke:black; " description="&lt;b&gt;FHS34_RS08175&lt;/b&gt;&lt;br&gt;flippase-like domain-containing protein&lt;br&gt;Location: 795745 - 796755&lt;br&gt;&lt;br&gt;&lt;b&gt;BlastP hit with LLPMBPKK_01505&lt;/b&gt;&lt;br&gt;Percentage identity: 81&lt;br&gt;Percentage coverage: 92&lt;br&gt;BLAST bit score: 492&lt;br&gt;E-value: 3.14e-174" locus_tag="FHS34_RS08175" class="clusterblast-orf" id="dummy-10_h10_2_15"  />
</g>
<g id="a10_0016"  >
<polygon points="236,85 241,80 252,80 252,90 241,90 236,85 " style="fill:#d815ce; stroke-width:1; stroke:black; " description="&lt;b&gt;FHS34_RS08180&lt;/b&gt;&lt;br&gt;methyltransferase domain-containing protein&lt;br&gt;Location: 796910 - 797977&lt;br&gt;&lt;br&gt;&lt;b&gt;BlastP hit with LLPMBPKK_01506&lt;/b&gt;&lt;br&gt;Percentage identity: 83&lt;br&gt;Percentage coverage: 100&lt;br&gt;BLAST bit score: 613&lt;br&gt;E-value: 1.03e-221" locus_tag="FHS34_RS08180" class="clusterblast-orf" id="dummy-10_h10_2_16"  />
</g>
<g id="a10_0017"  >
<polygon points="252,85 257,80 270,80 270,90 257,90 252,85 " style="fill:#d89015; stroke-width:1; stroke:black; " description="&lt;b&gt;FHS34_RS08185&lt;/b&gt;&lt;br&gt;glycosyltransferase family 1 protein&lt;br&gt;Location: 797974 - 799155&lt;br&gt;&lt;br&gt;&lt;b&gt;BlastP hit with LLPMBPKK_01507&lt;/b&gt;&lt;br&gt;Percentage identity: 89&lt;br&gt;Percentage coverage: 100&lt;br&gt;BLAST bit score: 676&lt;br&gt;E-value: 1.63e-245" locus_tag="FHS34_RS08185" class="clusterblast-orf" id="dummy-10_h10_2_17"  />
</g>
<g id="a10_0018"  >
<polygon points="270,85 275,80 282,80 282,90 275,90 270,85 " style="fill:#15d83e; stroke-width:1; stroke:black; " description="&lt;b&gt;FHS34_RS08190&lt;/b&gt;&lt;br&gt;alpha/beta hydrolase&lt;br&gt;Location: 799152 - 799952&lt;br&gt;&lt;br&gt;&lt;b&gt;BlastP hit with LLPMBPKK_01508&lt;/b&gt;&lt;br&gt;Percentage identity: 88&lt;br&gt;Percentage coverage: 100&lt;br&gt;BLAST bit score: 459&lt;br&gt;E-value: 8.04e-164" locus_tag="FHS34_RS08190" class="clusterblast-orf" id="dummy-10_h10_2_18"  />
</g>
<g id="a10_0019"  >
<polygon points="282,85 287,80 287,80 287,90 287,90 282,85 " style="fill:#153ed8; stroke-width:1; stroke:black; " description="&lt;b&gt;FHS34_RS08195&lt;/b&gt;&lt;br&gt;acyl carrier protein&lt;br&gt;Location: 799956 - 800276&lt;br&gt;&lt;br&gt;&lt;b&gt;BlastP hit with LLPMBPKK_01509&lt;/b&gt;&lt;br&gt;Percentage identity: 88&lt;br&gt;Percentage coverage: 100&lt;br&gt;BLAST bit score: 188&lt;br&gt;E-value: 7.05e-62" locus_tag="FHS34_RS08195" class="clusterblast-orf" id="dummy-10_h10_2_19"  />
</g>
<g id="a10_0020"  >
<polygon points="287,85 292,80 365,80 365,90 292,90 287,85 " style="fill:#d815af; stroke-width:1; stroke:black; " description="&lt;b&gt;FHS34_RS08200&lt;/b&gt;&lt;br&gt;polyketide synthase dehydratase domain-containing protein&lt;br&gt;Location: 800273 - 805486&lt;br&gt;&lt;br&gt;&lt;b&gt;BlastP hit with LLPMBPKK_01510&lt;/b&gt;&lt;br&gt;Percentage identity: 76&lt;br&gt;Percentage coverage: 112&lt;br&gt;BLAST bit score: 2439&lt;br&gt;E-value: 0.0&lt;br&gt;&lt;br&gt;&lt;b&gt;BlastP hit with LLPMBPKK_01511&lt;/b&gt;&lt;br&gt;Percentage identity: 37&lt;br&gt;Percentage coverage: 39&lt;br&gt;BLAST bit score: 406&lt;br&gt;E-value: 4.05e-113" locus_tag="FHS34_RS08200" class="clusterblast-orf" id="dummy-10_h10_2_20"  />
</g>
<g id="a10_0021"  >
<polygon points="365,85 370,80 393,80 393,90 370,90 365,85 " style="fill:#d815af; stroke-width:1; stroke:black; " description="&lt;b&gt;FHS34_RS08205&lt;/b&gt;&lt;br&gt;SDR family oxidoreductase&lt;br&gt;Location: 805488 - 807341&lt;br&gt;&lt;br&gt;&lt;b&gt;BlastP hit with LLPMBPKK_01511&lt;/b&gt;&lt;br&gt;Percentage identity: 78&lt;br&gt;Percentage coverage: 21&lt;br&gt;BLAST bit score: 736&lt;br&gt;E-value: 8.75e-241" locus_tag="FHS34_RS08205" class="clusterblast-orf" id="dummy-10_h10_2_21"  />
</g>
<g id="a10_0022"  >
<polygon points="394,85 399,80 482,80 482,90 399,90 394,85 " style="fill:#d815af; stroke-width:1; stroke:black; " description="&lt;b&gt;FHS34_RS08210&lt;/b&gt;&lt;br&gt;acyltransferase domain-containing protein&lt;br&gt;Location: 807441 - 813336&lt;br&gt;&lt;br&gt;&lt;b&gt;BlastP hit with LLPMBPKK_01510&lt;/b&gt;&lt;br&gt;Percentage identity: 38&lt;br&gt;Percentage coverage: 63&lt;br&gt;BLAST bit score: 416&lt;br&gt;E-value: 1.18e-117&lt;br&gt;&lt;br&gt;&lt;b&gt;BlastP hit with LLPMBPKK_01511&lt;/b&gt;&lt;br&gt;Percentage identity: 79&lt;br&gt;Percentage coverage: 80&lt;br&gt;BLAST bit score: 2769&lt;br&gt;E-value: 0.0" locus_tag="FHS34_RS08210" class="clusterblast-orf" id="dummy-10_h10_2_22"  />
</g>
<g id="a10_0023"  >
<polygon points="489,85 494,80 523,80 523,90 494,90 489,85 " style="fill:#d8af15; stroke-width:1; stroke:black; " description="&lt;b&gt;FHS34_RS08215&lt;/b&gt;&lt;br&gt;ricin-type beta-trefoil lectin domain protein&lt;br&gt;Location: 813791 - 816028&lt;br&gt;&lt;br&gt;&lt;b&gt;BlastP hit with LLPMBPKK_01512&lt;/b&gt;&lt;br&gt;Percentage identity: 72&lt;br&gt;Percentage coverage: 79&lt;br&gt;BLAST bit score: 717&lt;br&gt;E-value: 2.51e-251" locus_tag="FHS34_RS08215" class="clusterblast-orf" id="dummy-10_h10_2_23"  />
</g>
<g id="a10_0024"  >
<polygon points="523,90 532,90 537,85 532,80 523,80 523,90 " style="fill:white; stroke-width:1; stroke:black; " description="&lt;b&gt;FHS34_RS08220&lt;/b&gt;&lt;br&gt;UTP--glucose-1-phosphate uridylyltransferase GalU&lt;br&gt;Location: 816052 - 817005" locus_tag="FHS34_RS08220" class="clusterblast-orf" id="dummy-10_h10_2_24"  />
</g>
<g id="a10_0025"  >
<polygon points="540,90 542,85 540,80 540,90 " style="fill:white; stroke-width:1; stroke:black; " description="&lt;b&gt;FHS34_RS08225&lt;/b&gt;&lt;br&gt;hypothetical protein&lt;br&gt;Location: 817152 - 817328" locus_tag="FHS34_RS08225" class="clusterblast-orf" id="dummy-10_h10_2_25"  />
</g>
<g id="a10_0026"  >
<polygon points="544,85 549,80 550,80 550,90 549,90 544,85 " style="fill:#15d8b9; stroke-width:1; stroke:black; " description="&lt;b&gt;FHS34_RS08230&lt;/b&gt;&lt;br&gt;DUF4442 domain-containing protein&lt;br&gt;Location: 817424 - 817870&lt;br&gt;&lt;br&gt;&lt;b&gt;BlastP hit with LLPMBPKK_01526&lt;/b&gt;&lt;br&gt;Percentage identity: 96&lt;br&gt;Percentage coverage: 93&lt;br&gt;BLAST bit score: 272&lt;br&gt;E-value: 1.98e-93" locus_tag="FHS34_RS08230" class="clusterblast-orf" id="dummy-10_h10_2_26"  />
</g>
<g id="a10_0027"  >
<polygon points="551,90 563,90 568,85 563,80 551,80 551,90 " style="fill:#6715d8; stroke-width:1; stroke:black; " description="&lt;b&gt;FHS34_RS08235&lt;/b&gt;&lt;br&gt;hypothetical protein&lt;br&gt;Location: 817947 - 819059&lt;br&gt;&lt;br&gt;&lt;b&gt;BlastP hit with LLPMBPKK_01527&lt;/b&gt;&lt;br&gt;Percentage identity: 61&lt;br&gt;Percentage coverage: 105&lt;br&gt;BLAST bit score: 377&lt;br&gt;E-value: 1.7e-128" locus_tag="FHS34_RS08235" class="clusterblast-orf" id="dummy-10_h10_2_27"  />
</g>
<g id="a10_0028"  >
<polygon points="570,90 585,90 590,85 585,80 570,80 570,90 " style="fill:#d81534; stroke-width:1; stroke:black; " description="&lt;b&gt;FHS34_RS08240&lt;/b&gt;&lt;br&gt;MFS transporter&lt;br&gt;Location: 819214 - 820512&lt;br&gt;&lt;br&gt;&lt;b&gt;BlastP hit with LLPMBPKK_01528&lt;/b&gt;&lt;br&gt;Percentage identity: 93&lt;br&gt;Percentage coverage: 98&lt;br&gt;BLAST bit score: 718&lt;br&gt;E-value: 1.16e-260" locus_tag="FHS34_RS08240" class="clusterblast-orf" id="dummy-10_h10_2_28"  />
</g>
<g id="a10_0029"  >
<polygon points="592,85 597,80 604,80 604,90 597,90 592,85 " style="fill:white; stroke-width:1; stroke:black; " description="&lt;b&gt;FHS34_RS08245&lt;/b&gt;&lt;br&gt;snapalysin&lt;br&gt;Location: 820620 - 821429" locus_tag="FHS34_RS08245" class="clusterblast-orf" id="dummy-10_h10_2_29"  />
</g>
<g id="a10_0030"  >
<polygon points="611,85 616,80 624,80 624,90 616,90 611,85 " style="fill:#86d815; stroke-width:1; stroke:black; " description="&lt;b&gt;FHS34_RS08250&lt;/b&gt;&lt;br&gt;fused MFS/spermidine synthase&lt;br&gt;Location: 821950 - 822795&lt;br&gt;&lt;br&gt;&lt;b&gt;BlastP hit with LLPMBPKK_01529&lt;/b&gt;&lt;br&gt;Percentage identity: 88&lt;br&gt;Percentage coverage: 100&lt;br&gt;BLAST bit score: 486&lt;br&gt;E-value: 5.45e-174" locus_tag="FHS34_RS08250" class="clusterblast-orf" id="dummy-10_h10_2_30"  />
</g>
<g id="a10_0031"  >
<polygon points="624,85 629,80 642,80 642,90 629,90 624,85 " style="fill:#15d8d8; stroke-width:1; stroke:black; " description="&lt;b&gt;FHS34_RS08255&lt;/b&gt;&lt;br&gt;elongation factor Tu&lt;br&gt;Location: 822813 - 823982&lt;br&gt;&lt;br&gt;&lt;b&gt;BlastP hit with LLPMBPKK_01530&lt;/b&gt;&lt;br&gt;Percentage identity: 92&lt;br&gt;Percentage coverage: 100&lt;br&gt;BLAST bit score: 702&lt;br&gt;E-value: 7.42e-256" locus_tag="FHS34_RS08255" class="clusterblast-orf" id="dummy-10_h10_2_31"  />
</g>
<g id="a10_0032"  >
<polygon points="646,85 651,80 657,80 657,90 651,90 646,85 " style="fill:white; stroke-width:1; stroke:black; " description="&lt;b&gt;FHS34_RS08260&lt;/b&gt;&lt;br&gt;DNA alkylation repair protein&lt;br&gt;Location: 824243 - 824965" locus_tag="FHS34_RS08260" class="clusterblast-orf" id="dummy-10_h10_2_32"  />
</g>
<g id="a10_0033"  >
<polygon points="657,90 664,90 669,85 664,80 657,80 657,90 " style="fill:white; stroke-width:1; stroke:black; " description="&lt;b&gt;FHS34_RS08265&lt;/b&gt;&lt;br&gt;TVP38/TMEM64 family protein&lt;br&gt;Location: 825015 - 825779" locus_tag="FHS34_RS08265" class="clusterblast-orf" id="dummy-10_h10_2_33"  />
</g>
<g id="a10_0034"  >
<polygon points="672,85 677,80 689,80 689,90 677,90 672,85 " style="fill:white; stroke-width:1; stroke:black; " description="&lt;b&gt;FHS34_RS08270&lt;/b&gt;&lt;br&gt;thiolase family protein&lt;br&gt;Location: 825968 - 827137" locus_tag="FHS34_RS08270" class="clusterblast-orf" id="dummy-10_h10_2_34"  />
</g>
<g id="a10_0035"  >
<polygon points="691,90 693,90 698,85 693,80 691,80 691,90 " style="fill:white; stroke-width:1; stroke:black; " description="&lt;b&gt;FHS34_RS08275&lt;/b&gt;&lt;br&gt;helix-turn-helix transcriptional regulator&lt;br&gt;Location: 827275 - 827745" locus_tag="FHS34_RS08275" class="clusterblast-orf" id="dummy-10_h10_2_35"  />
</g>
<g id="a10_0036"  >
<polygon points="701,90 709,90 714,85 709,80 701,80 701,90 " style="fill:white; stroke-width:1; stroke:black; " description="&lt;b&gt;FHS34_RS08280&lt;/b&gt;&lt;br&gt;undecaprenyl-diphosphate phosphatase&lt;br&gt;Location: 827908 - 828780" locus_tag="FHS34_RS08280" class="clusterblast-orf" id="dummy-10_h10_2_36"  />
</g>
<g id="a10_0037"  >
<polygon points="717,90 719,85 717,80 717,90 " style="fill:white; stroke-width:1; stroke:black; " description="&lt;b&gt;FHS34_RS08285&lt;/b&gt;&lt;br&gt;hypothetical protein&lt;br&gt;Location: 828976 - 829155" locus_tag="FHS34_RS08285" class="clusterblast-orf" id="dummy-10_h10_2_37"  />
</g>
<g id="a10_0038"  >
<polygon points="728,90 733,90 738,85 733,80 728,80 728,90 " style="fill:white; stroke-width:1; stroke:black; " description="&lt;b&gt;FHS34_RS08290&lt;/b&gt;&lt;br&gt;hypothetical protein&lt;br&gt;Location: 829750 - 830385" locus_tag="FHS34_RS08290" class="clusterblast-orf" id="dummy-10_h10_2_38"  />
</g>
<g id="a10_0039"  >
<polygon points="739,90 739,90 744,85 739,80 739,80 739,90 " style="fill:white; stroke-width:1; stroke:black; " description="&lt;b&gt;FHS34_RS08295&lt;/b&gt;&lt;br&gt;hypothetical protein&lt;br&gt;Location: 830472 - 830780" locus_tag="FHS34_RS08295" class="clusterblast-orf" id="dummy-10_h10_2_39"  />
</g>
<g id="a10_0040"  >
<polygon points="743,85 748,80 754,80 754,90 748,90 743,85 " style="fill:white; stroke-width:1; stroke:black; " description="&lt;b&gt;FHS34_RS08300&lt;/b&gt;&lt;br&gt;response regulator transcription factor&lt;br&gt;Location: 830749 - 831453" locus_tag="FHS34_RS08300" class="clusterblast-orf" id="dummy-10_h10_2_40"  />
</g>
<g id="a10_0041"  >
<polygon points="754,90 758,85 754,80 754,90 " style="fill:white; stroke-width:1; stroke:black; " description="&lt;b&gt;FHS34_RS08305&lt;/b&gt;&lt;br&gt;hypothetical protein&lt;br&gt;Location: 831465 - 831752" locus_tag="FHS34_RS08305" class="clusterblast-orf" id="dummy-10_h10_2_41"  />
</g>
<g id="a10_0042"  >
<polygon points="759,90 761,90 766,85 761,80 759,80 759,90 " style="fill:white; stroke-width:1; stroke:black; " description="&lt;b&gt;FHS34_RS08310&lt;/b&gt;&lt;br&gt;nuclear transport factor 2 family protein&lt;br&gt;Location: 831819 - 832295" locus_tag="FHS34_RS08310" class="clusterblast-orf" id="dummy-10_h10_2_42"  />
</g>
</svg>
