<svg xmlns="http://www.w3.org/2000/svg" xmlns:xlink="http://www.w3.org/1999/xlink" version="1.1" x="0" y="0" height="230" width="800" viewBox="0 0 800 230" preserveAspectRatio="none"  >
<g label="Query sequence" class="clusterblast-cluster"  >
<text x="5" y="20" class="clusterblast-acc"  >
Query sequence</text>
<line x1="10" y1="35" x2="778.0" y2="35" style="stroke-width:1; stroke:grey; "  />
<polygon points="213,35 218,30 219,30 219,40 218,40 213,35 " style="fill:#d81515; stroke-width:1; stroke:black; " description="&lt;b&gt;LLPMBPKK_04016&lt;/b&gt;&lt;br&gt;TrmH family RNA methyltransferase&lt;br&gt;Location: 4616085 - 4616826" locus_tag="LLPMBPKK_04016" class="clusterblast-orf" id="dummy-18_q0_0_all"  />
<polygon points="219,35 224,30 229,30 229,40 224,40 219,35 " style="fill:#58d815; stroke-width:1; stroke:black; " description="&lt;b&gt;LLPMBPKK_04017&lt;/b&gt;&lt;br&gt;HTTM domain-containing protein&lt;br&gt;Location: 4616822 - 4618034" locus_tag="LLPMBPKK_04017" class="clusterblast-orf" id="dummy-18_q1_0_all"  />
<polygon points="229,35 234,30 235,30 235,40 234,40 229,35 " style="fill:#15c4d8; stroke-width:1; stroke:black; " description="&lt;b&gt;LLPMBPKK_04018&lt;/b&gt;&lt;br&gt;hypothetical protein&lt;br&gt;Location: 4618030 - 4618855" locus_tag="LLPMBPKK_04018" class="clusterblast-orf" id="dummy-18_q2_0_all"  />
<polygon points="239,40 242,40 247,35 242,30 239,30 239,40 " style="fill:#8115d8; stroke-width:1; stroke:black; " description="&lt;b&gt;LLPMBPKK_04019&lt;/b&gt;&lt;br&gt;1,2-phenylacetyl-CoA epoxidase subunit A&lt;br&gt;Location: 4619266 - 4620283" locus_tag="LLPMBPKK_04019" class="clusterblast-orf" id="dummy-18_q3_0_all"  />
<polygon points="247,40 249,35 247,30 247,40 " style="fill:#d83e15; stroke-width:1; stroke:black; " description="&lt;b&gt;LLPMBPKK_04020&lt;/b&gt;&lt;br&gt;1,2-phenylacetyl-CoA epoxidase subunit B&lt;br&gt;Location: 4620279 - 4620567" locus_tag="LLPMBPKK_04020" class="clusterblast-orf" id="dummy-18_q4_0_all"  />
<polygon points="249,40 250,40 255,35 250,30 249,30 249,40 " style="fill:#30d815; stroke-width:1; stroke:black; " description="&lt;b&gt;LLPMBPKK_04021&lt;/b&gt;&lt;br&gt;phenylacetate-CoA oxygenase subunit PaaI&lt;br&gt;Location: 4620563 - 4621316" locus_tag="LLPMBPKK_04021" class="clusterblast-orf" id="dummy-18_q5_0_all"  />
<polygon points="255,40 259,35 255,30 255,40 " style="fill:#159cd8; stroke-width:1; stroke:black; " description="&lt;b&gt;LLPMBPKK_04022&lt;/b&gt;&lt;br&gt;phenylacetate-CoA oxygenase subunit PaaJ&lt;br&gt;Location: 4621309 - 4621843" locus_tag="LLPMBPKK_04022" class="clusterblast-orf" id="dummy-18_q6_0_all"  />
<polygon points="259,40 263,40 268,35 263,30 259,30 259,40 " style="fill:#a915d8; stroke-width:1; stroke:black; " description="&lt;b&gt;LLPMBPKK_04023&lt;/b&gt;&lt;br&gt;2Fe-2S iron-sulfur cluster bindingdomain-containing protein&lt;br&gt;Location: 4621842 - 4622907" locus_tag="LLPMBPKK_04023" class="clusterblast-orf" id="dummy-18_q7_0_all"  />
<polygon points="269,40 273,40 278,35 273,30 269,30 269,40 " style="fill:#d86615; stroke-width:1; stroke:black; " description="&lt;b&gt;LLPMBPKK_04024&lt;/b&gt;&lt;br&gt;acyl-CoA dehydrogenase&lt;br&gt;Location: 4623126 - 4624269" locus_tag="LLPMBPKK_04024" class="clusterblast-orf" id="dummy-18_q8_0_all"  />
<polygon points="278,35 281,30 281,40 278,35 " style="fill:#15d823; stroke-width:1; stroke:black; " description="&lt;b&gt;LLPMBPKK_04025&lt;/b&gt;&lt;br&gt;rhodanese-like domain-containing protein&lt;br&gt;Location: 4624288 - 4624618" locus_tag="LLPMBPKK_04025" class="clusterblast-orf" id="dummy-18_q9_0_all"  />
<polygon points="281,35 286,30 289,30 289,40 286,40 281,35 " style="fill:#1573d8; stroke-width:1; stroke:black; " description="&lt;b&gt;LLPMBPKK_04026&lt;/b&gt;&lt;br&gt;hypothetical protein&lt;br&gt;Location: 4624666 - 4625623" locus_tag="LLPMBPKK_04026" class="clusterblast-orf" id="dummy-18_q10_0_all"  />
<polygon points="289,35 294,30 301,30 301,40 294,40 289,35 " style="fill:#d215d8; stroke-width:1; stroke:black; " description="&lt;b&gt;LLPMBPKK_04027&lt;/b&gt;&lt;br&gt;hypothetical protein&lt;br&gt;Location: 4625648 - 4627106" locus_tag="LLPMBPKK_04027" class="clusterblast-orf" id="dummy-18_q11_0_all"  />
<polygon points="302,35 307,30 308,30 308,40 307,40 302,35 " style="fill:#d88e15; stroke-width:1; stroke:black; " description="&lt;b&gt;LLPMBPKK_04028&lt;/b&gt;&lt;br&gt;2-hydroxychromene-2-carboxylate isomerase&lt;br&gt;Location: 4627295 - 4627997" locus_tag="LLPMBPKK_04028" class="clusterblast-orf" id="dummy-18_q12_0_all"  />
<polygon points="308,35 313,30 314,30 314,40 313,40 308,35 " style="fill:#15d84b; stroke-width:1; stroke:black; " description="&lt;b&gt;LLPMBPKK_04029&lt;/b&gt;&lt;br&gt;SDR family oxidoreductase&lt;br&gt;Location: 4628056 - 4628800" locus_tag="LLPMBPKK_04029" class="clusterblast-orf" id="dummy-18_q13_0_all"  />
<polygon points="314,35 319,30 322,30 322,40 319,40 314,35 " style="fill:#154bd8; stroke-width:1; stroke:black; " description="&lt;b&gt;LLPMBPKK_04030&lt;/b&gt;&lt;br&gt;FabA-like domain protein&lt;br&gt;Location: 4628796 - 4629738" locus_tag="LLPMBPKK_04030" class="clusterblast-orf" id="dummy-18_q14_0_all"  />
<polygon points="322,35 324,30 324,40 322,35 " style="fill:#d815b7; stroke-width:1; stroke:black; " description="&lt;b&gt;LLPMBPKK_04031&lt;/b&gt;&lt;br&gt;acyl carrier protein&lt;br&gt;Location: 4629737 - 4629995" locus_tag="LLPMBPKK_04031" class="clusterblast-orf" id="dummy-18_q15_0_all"  />
<polygon points="324,35 329,30 333,30 333,40 329,40 324,35 " style="fill:#d8b715; stroke-width:1; stroke:black; " description="&lt;b&gt;LLPMBPKK_04032&lt;/b&gt;&lt;br&gt;3-oxoacyl-ACP synthase&lt;br&gt;Location: 4630070 - 4631171" locus_tag="LLPMBPKK_04032" class="clusterblast-orf" id="dummy-18_q16_0_all"  />
<polygon points="333,35 336,30 336,40 333,35 " style="fill:#15d873; stroke-width:1; stroke:black; " description="&lt;b&gt;LLPMBPKK_04033&lt;/b&gt;&lt;br&gt;hypothetical protein&lt;br&gt;Location: 4631222 - 4631618" locus_tag="LLPMBPKK_04033" class="clusterblast-orf" id="dummy-18_q17_0_all"  />
<polygon points="337,35 340,30 340,40 337,35 " style="fill:#1523d8; stroke-width:1; stroke:black; " description="&lt;b&gt;LLPMBPKK_04034&lt;/b&gt;&lt;br&gt;hypothetical protein&lt;br&gt;Location: 4631621 - 4632029" locus_tag="LLPMBPKK_04034" class="clusterblast-orf" id="dummy-18_q18_0_all"  />
<polygon points="340,35 342,30 342,40 340,35 " style="fill:#d8158e; stroke-width:1; stroke:black; " description="&lt;b&gt;LLPMBPKK_04035&lt;/b&gt;&lt;br&gt;hypothetical protein&lt;br&gt;Location: 4632028 - 4632352" locus_tag="LLPMBPKK_04035" class="clusterblast-orf" id="dummy-18_q19_0_all"  />
<polygon points="342,35 347,30 350,30 350,40 347,40 342,35 " style="fill:#d2d815; stroke-width:1; stroke:black; " description="&lt;b&gt;LLPMBPKK_04036&lt;/b&gt;&lt;br&gt;hypothetical protein&lt;br&gt;Location: 4632361 - 4633366" locus_tag="LLPMBPKK_04036" class="clusterblast-orf" id="dummy-18_q20_0_all"  />
<polygon points="350,35 355,30 357,30 357,40 355,40 350,35 " style="fill:#15d89c; stroke-width:1; stroke:black; " description="&lt;b&gt;LLPMBPKK_04037&lt;/b&gt;&lt;br&gt;alpha/beta hydrolase&lt;br&gt;Location: 4633362 - 4634178" locus_tag="LLPMBPKK_04037" class="clusterblast-orf" id="dummy-18_q21_0_all"  />
<polygon points="357,35 362,30 365,30 365,40 362,40 357,35 " style="fill:#d8b715; stroke-width:1; stroke:black; " description="&lt;b&gt;LLPMBPKK_04038&lt;/b&gt;&lt;br&gt;3-oxoacyl-ACP synthase I&lt;br&gt;Location: 4634174 - 4635173" locus_tag="LLPMBPKK_04038" class="clusterblast-orf" id="dummy-18_q22_0_all"  />
<polygon points="365,35 370,30 374,30 374,40 370,40 365,35 " style="fill:#3015d8; stroke-width:1; stroke:black; " description="&lt;b&gt;LLPMBPKK_04039&lt;/b&gt;&lt;br&gt;3-oxoacyl-ACP synthase&lt;br&gt;Location: 4635172 - 4636348" locus_tag="LLPMBPKK_04039" class="clusterblast-orf" id="dummy-18_q23_0_all"  />
<polygon points="374,35 379,30 384,30 384,40 379,40 374,35 " style="fill:#3015d8; stroke-width:1; stroke:black; " description="&lt;b&gt;LLPMBPKK_04040&lt;/b&gt;&lt;br&gt;beta-ketoacyl-[acyl-carrier-protein] synthasefamily protein&lt;br&gt;Location: 4636344 - 4637580" locus_tag="LLPMBPKK_04040" class="clusterblast-orf" id="dummy-18_q24_0_all"  />
<polygon points="384,35 386,30 386,40 384,35 " style="fill:#d81566; stroke-width:1; stroke:black; " description="&lt;b&gt;LLPMBPKK_04041&lt;/b&gt;&lt;br&gt;acyl carrier protein&lt;br&gt;Location: 4637613 - 4637859" locus_tag="LLPMBPKK_04041" class="clusterblast-orf" id="dummy-18_q25_0_all"  />
<polygon points="387,35 392,30 393,30 393,40 392,40 387,35 " style="fill:#a9d815; stroke-width:1; stroke:black; " description="&lt;b&gt;LLPMBPKK_04042&lt;/b&gt;&lt;br&gt;LuxR family transcriptional regulator&lt;br&gt;Location: 4637995 - 4638787" locus_tag="LLPMBPKK_04042" class="clusterblast-orf" id="dummy-18_q26_0_all"  />
<polygon points="394,35 399,30 406,30 406,40 399,40 394,35 " style="fill:white; stroke-width:1; stroke:black; " description="&lt;b&gt;LLPMBPKK_04043&lt;/b&gt;&lt;br&gt;hypothetical protein&lt;br&gt;Location: 4638934 - 4640428" locus_tag="LLPMBPKK_04043" class="clusterblast-orf" id="dummy-18_q27_0_all"  />
<polygon points="407,35 412,30 436,30 436,40 412,40 407,35 " style="fill:white; stroke-width:1; stroke:black; " description="&lt;b&gt;LLPMBPKK_04044&lt;/b&gt;&lt;br&gt;[acyl-carrier-protein] S-malonyltransferase&lt;br&gt;Location: 4640501 - 4644239" locus_tag="LLPMBPKK_04044" class="clusterblast-orf" id="dummy-18_q28_0_all"  />
<polygon points="439,35 444,30 444,30 444,40 444,40 439,35 " style="fill:#15d8c4; stroke-width:1; stroke:black; " description="&lt;b&gt;LLPMBPKK_04045&lt;/b&gt;&lt;br&gt;gamma-butyrolactone binding protein&lt;br&gt;Location: 4644533 - 4645160" locus_tag="LLPMBPKK_04045" class="clusterblast-orf" id="dummy-18_q29_0_all"  />
<polygon points="445,35 450,30 451,30 451,40 450,40 445,35 " style="fill:#5815d8; stroke-width:1; stroke:black; " description="&lt;b&gt;LLPMBPKK_04046&lt;/b&gt;&lt;br&gt;response regulator transcription factor&lt;br&gt;Location: 4645316 - 4646048" locus_tag="LLPMBPKK_04046" class="clusterblast-orf" id="dummy-18_q30_0_all"  />
<polygon points="454,40 456,40 461,35 456,30 454,30 454,40 " style="fill:#d8153e; stroke-width:1; stroke:black; " description="&lt;b&gt;LLPMBPKK_04047&lt;/b&gt;&lt;br&gt;ScbA protein&lt;br&gt;Location: 4646437 - 4647397" locus_tag="LLPMBPKK_04047" class="clusterblast-orf" id="dummy-18_q31_0_all"  />
<polygon points="462,40 464,40 469,35 464,30 462,30 462,40 " style="fill:#81d815; stroke-width:1; stroke:black; " description="&lt;b&gt;LLPMBPKK_04048&lt;/b&gt;&lt;br&gt;2-alkyl-3-oxoalkanoate reductase&lt;br&gt;Location: 4647446 - 4648376" locus_tag="LLPMBPKK_04048" class="clusterblast-orf" id="dummy-18_q32_0_all"  />
<polygon points="469,35 474,30 479,30 479,40 474,40 469,35 " style="fill:white; stroke-width:1; stroke:black; " description="&lt;b&gt;LLPMBPKK_04049&lt;/b&gt;&lt;br&gt;pyrroloquinoline quinone biosynthesis proteinPqqE&lt;br&gt;Location: 4648378 - 4649575" locus_tag="LLPMBPKK_04049" class="clusterblast-orf" id="dummy-18_q33_0_all"  />
<polygon points="479,35 481,30 481,40 479,35 " style="fill:white; stroke-width:1; stroke:black; " description="&lt;b&gt;LLPMBPKK_04050&lt;/b&gt;&lt;br&gt;pyrroloquinoline quinone biosynthesis peptidechaperone PqqD&lt;br&gt;Location: 4649571 - 4649877" locus_tag="LLPMBPKK_04050" class="clusterblast-orf" id="dummy-18_q34_0_all"  />
<polygon points="481,35 486,30 487,30 487,40 486,40 481,35 " style="fill:white; stroke-width:1; stroke:black; " description="&lt;b&gt;LLPMBPKK_04051&lt;/b&gt;&lt;br&gt;pyrroloquinoline quinone biosynthesis proteinPqqC&lt;br&gt;Location: 4649876 - 4650611" locus_tag="LLPMBPKK_04051" class="clusterblast-orf" id="dummy-18_q35_0_all"  />
<polygon points="487,35 492,30 494,30 494,40 492,40 487,35 " style="fill:white; stroke-width:1; stroke:black; " description="&lt;b&gt;LLPMBPKK_04052&lt;/b&gt;&lt;br&gt;pyrroloquinoline quinone biosynthesis proteinPqqB&lt;br&gt;Location: 4650607 - 4651522" locus_tag="LLPMBPKK_04052" class="clusterblast-orf" id="dummy-18_q36_0_all"  />
<polygon points="494,35 495,30 495,40 494,35 " style="fill:white; stroke-width:1; stroke:black; " description="&lt;b&gt;LLPMBPKK_04053&lt;/b&gt;&lt;br&gt;hypothetical protein&lt;br&gt;Location: 4651529 - 4651667" locus_tag="LLPMBPKK_04053" class="clusterblast-orf" id="dummy-18_q37_0_all"  />
<polygon points="496,35 501,30 505,30 505,40 501,40 496,35 " style="fill:white; stroke-width:1; stroke:black; " description="&lt;b&gt;LLPMBPKK_04054&lt;/b&gt;&lt;br&gt;oxidoreductase&lt;br&gt;Location: 4651746 - 4652868" locus_tag="LLPMBPKK_04054" class="clusterblast-orf" id="dummy-18_q38_0_all"  />
<polygon points="505,35 510,30 519,30 519,40 510,40 505,35 " style="fill:white; stroke-width:1; stroke:black; " description="&lt;b&gt;LLPMBPKK_04055&lt;/b&gt;&lt;br&gt;hypothetical protein&lt;br&gt;Location: 4652956 - 4654618" locus_tag="LLPMBPKK_04055" class="clusterblast-orf" id="dummy-18_q39_0_all"  />
<polygon points="519,40 519,40 524,35 519,30 519,30 519,40 " style="fill:white; stroke-width:1; stroke:black; " description="&lt;b&gt;LLPMBPKK_04056&lt;/b&gt;&lt;br&gt;CDP-alcohol phosphatidyltransferase familyprotein&lt;br&gt;Location: 4654650 - 4655355" locus_tag="LLPMBPKK_04056" class="clusterblast-orf" id="dummy-18_q40_0_all"  />
<polygon points="524,35 528,30 528,40 524,35 " style="fill:white; stroke-width:1; stroke:black; " description="&lt;b&gt;LLPMBPKK_04057&lt;/b&gt;&lt;br&gt;Bifunctional protein HldE&lt;br&gt;Location: 4655244 - 4655793" locus_tag="LLPMBPKK_04057" class="clusterblast-orf" id="dummy-18_q41_0_all"  />
<polygon points="528,35 533,30 540,30 540,40 533,40 528,35 " style="fill:white; stroke-width:1; stroke:black; " description="&lt;b&gt;LLPMBPKK_04058&lt;/b&gt;&lt;br&gt;LamG domain-containing protein&lt;br&gt;Location: 4655789 - 4657256" locus_tag="LLPMBPKK_04058" class="clusterblast-orf" id="dummy-18_q42_0_all"  />
<polygon points="541,35 546,30 553,30 553,40 546,40 541,35 " style="fill:white; stroke-width:1; stroke:black; " description="&lt;b&gt;LLPMBPKK_04059&lt;/b&gt;&lt;br&gt;Polysaccharide biosynthesis protein&lt;br&gt;Location: 4657434 - 4658967" locus_tag="LLPMBPKK_04059" class="clusterblast-orf" id="dummy-18_q43_0_all"  />
<polygon points="553,35 558,30 566,30 566,40 558,40 553,35 " style="fill:white; stroke-width:1; stroke:black; " description="&lt;b&gt;LLPMBPKK_04060&lt;/b&gt;&lt;br&gt;hypothetical protein&lt;br&gt;Location: 4658963 - 4660556" locus_tag="LLPMBPKK_04060" class="clusterblast-orf" id="dummy-18_q44_0_all"  />
</g>
<g label="NZ_CP022438" description="NZ_CP022438 (5862631-5961258): Streptomyces peucetius subsp. caesius ATCC 279... (25% of genes show similarity), NRPS,NRPS-like,arylpolyene,ladderane" class="clusterblast-cluster"  >
<text x="5" y="70" class="clusterblast-acc"  >
<a xlink:href="https://antismash-db.secondarymetabolites.org/area.html?record=NZ_CP022438&amp;start=5862631&amp;end=5961258" target="_blank">NZ_CP022438 (5862631-5961258)</a>: Streptomyces peucetius subsp. caesius ATCC 279... (25% of genes show similarity), NRPS,NRPS-like,arylpolyene,ladderane</text>
<line x1="10" y1="85" x2="778.0" y2="85" style="stroke-width:1; stroke:grey; "  />
</g>
<g id="a18_000"  >
<polygon points="0,85 5,80 11,80 11,90 5,90 0,85 " style="fill:white; stroke-width:1; stroke:black; " description="&lt;b&gt;CGZ69_RS27405&lt;/b&gt;&lt;br&gt;tRNA (N6-isopentenyl adenosine(37)-C2)-methylthiotransferase MiaB&lt;br&gt;Location: 5961120 - 5959618" locus_tag="CGZ69_RS27405" class="clusterblast-orf" id="dummy-18_h18_10_0"  />
</g>
<g id="a18_001"  >
<polygon points="12,85 17,80 24,80 24,90 17,90 12,85 " style="fill:white; stroke-width:1; stroke:black; " description="&lt;b&gt;CGZ69_RS27400&lt;/b&gt;&lt;br&gt;tryptophan 7-halogenase&lt;br&gt;Location: 5959564 - 5957990" locus_tag="CGZ69_RS27400" class="clusterblast-orf" id="dummy-18_h18_10_1"  />
</g>
<g id="a18_002"  >
<polygon points="26,90 27,85 26,80 26,90 " style="fill:white; stroke-width:1; stroke:black; " description="&lt;b&gt;CGZ69_RS27395&lt;/b&gt;&lt;br&gt;hypothetical protein&lt;br&gt;Location: 5957831 - 5957592" locus_tag="CGZ69_RS27395" class="clusterblast-orf" id="dummy-18_h18_10_2"  />
</g>
<g id="a18_003"  >
<polygon points="28,85 33,80 43,80 43,90 33,90 28,85 " style="fill:white; stroke-width:1; stroke:black; " description="&lt;b&gt;CGZ69_RS27390&lt;/b&gt;&lt;br&gt;transcriptional regulator&lt;br&gt;Location: 5957507 - 5955618" locus_tag="CGZ69_RS27390" class="clusterblast-orf" id="dummy-18_h18_10_3"  />
</g>
<g id="a18_004"  >
<polygon points="45,90 47,85 45,80 45,90 " style="fill:white; stroke-width:1; stroke:black; " description="&lt;b&gt;CGZ69_RS27385&lt;/b&gt;&lt;br&gt;hypothetical protein&lt;br&gt;Location: 5955379 - 5955101" locus_tag="CGZ69_RS27385" class="clusterblast-orf" id="dummy-18_h18_10_4"  />
</g>
<g id="a18_005"  >
<polygon points="47,85 52,80 71,80 71,90 52,90 47,85 " style="fill:white; stroke-width:1; stroke:black; " description="&lt;b&gt;CGZ69_RS27380&lt;/b&gt;&lt;br&gt;AfsR/SARP family transcriptional regulator&lt;br&gt;Location: 5955082 - 5952092" locus_tag="CGZ69_RS27380" class="clusterblast-orf" id="dummy-18_h18_10_5"  />
</g>
<g id="a18_006"  >
<polygon points="72,85 74,80 74,90 72,85 " style="fill:white; stroke-width:1; stroke:black; " description="&lt;b&gt;CGZ69_RS27375&lt;/b&gt;&lt;br&gt;acyl-CoA carboxylase subunit epsilon&lt;br&gt;Location: 5951956 - 5951732" locus_tag="CGZ69_RS27375" class="clusterblast-orf" id="dummy-18_h18_10_6"  />
</g>
<g id="a18_007"  >
<polygon points="74,85 79,80 86,80 86,90 79,90 74,85 " style="fill:white; stroke-width:1; stroke:black; " description="&lt;b&gt;CGZ69_RS27370&lt;/b&gt;&lt;br&gt;acyl-CoA carboxylase subunit beta&lt;br&gt;Location: 5951721 - 5950174" locus_tag="CGZ69_RS27370" class="clusterblast-orf" id="dummy-18_h18_10_7"  />
</g>
<g id="a18_008"  >
<polygon points="86,85 91,80 94,80 94,90 91,90 86,85 " style="fill:white; stroke-width:1; stroke:black; " description="&lt;b&gt;CGZ69_RS27365&lt;/b&gt;&lt;br&gt;polyprenyl synthetase family protein&lt;br&gt;Location: 5950154 - 5949207" locus_tag="CGZ69_RS27365" class="clusterblast-orf" id="dummy-18_h18_10_8"  />
</g>
<g id="a18_009"  >
<polygon points="95,90 97,85 95,80 95,90 " style="fill:white; stroke-width:1; stroke:black; " description="&lt;b&gt;CGZ69_RS36860&lt;/b&gt;&lt;br&gt;hypothetical protein&lt;br&gt;Location: 5949116 - 5948862" locus_tag="CGZ69_RS36860" class="clusterblast-orf" id="dummy-18_h18_10_9"  />
</g>
<g id="a18_0010"  >
<polygon points="96,90 97,90 102,85 97,80 96,80 96,90 " style="fill:white; stroke-width:1; stroke:black; " description="&lt;b&gt;CGZ69_RS27360&lt;/b&gt;&lt;br&gt;hypothetical protein&lt;br&gt;Location: 5948877 - 5948164" locus_tag="CGZ69_RS27360" class="clusterblast-orf" id="dummy-18_h18_10_10"  />
</g>
<g id="a18_0011"  >
<polygon points="103,90 115,90 120,85 115,80 103,80 103,90 " style="fill:white; stroke-width:1; stroke:black; " description="&lt;b&gt;CGZ69_RS27355&lt;/b&gt;&lt;br&gt;MMPL family transporter&lt;br&gt;Location: 5948050 - 5945876" locus_tag="CGZ69_RS27355" class="clusterblast-orf" id="dummy-18_h18_10_11"  />
</g>
<g id="a18_0012"  >
<polygon points="121,90 121,90 126,85 121,80 121,80 121,90 " style="fill:white; stroke-width:1; stroke:black; " description="&lt;b&gt;CGZ69_RS27350&lt;/b&gt;&lt;br&gt;hypothetical protein&lt;br&gt;Location: 5945730 - 5945185" locus_tag="CGZ69_RS27350" class="clusterblast-orf" id="dummy-18_h18_10_12"  />
</g>
<g id="a18_0013"  >
<polygon points="126,90 136,90 141,85 136,80 126,80 126,90 " style="fill:white; stroke-width:1; stroke:black; " description="&lt;b&gt;CGZ69_RS27345&lt;/b&gt;&lt;br&gt;AarF/ABC1/UbiB kinase family protein&lt;br&gt;Location: 5945188 - 5943230" locus_tag="CGZ69_RS27345" class="clusterblast-orf" id="dummy-18_h18_10_13"  />
</g>
<g id="a18_0014"  >
<polygon points="142,85 147,80 148,80 148,90 147,90 142,85 " style="fill:white; stroke-width:1; stroke:black; " description="&lt;b&gt;CGZ69_RS27340&lt;/b&gt;&lt;br&gt;ABC transporter permease&lt;br&gt;Location: 5943138 - 5942344" locus_tag="CGZ69_RS27340" class="clusterblast-orf" id="dummy-18_h18_10_14"  />
</g>
<g id="a18_0015"  >
<polygon points="148,85 153,80 156,80 156,90 153,90 148,85 " style="fill:white; stroke-width:1; stroke:black; " description="&lt;b&gt;CGZ69_RS27335&lt;/b&gt;&lt;br&gt;ATP-binding cassette domain-containing protein&lt;br&gt;Location: 5942347 - 5941310" locus_tag="CGZ69_RS27335" class="clusterblast-orf" id="dummy-18_h18_10_15"  />
</g>
<g id="a18_0016"  >
<polygon points="157,85 162,80 197,80 197,90 162,90 157,85 " style="fill:white; stroke-width:1; stroke:black; " description="&lt;b&gt;CGZ69_RS27330&lt;/b&gt;&lt;br&gt;non-ribosomal peptide synthetase&lt;br&gt;Location: 5941258 - 5936234" locus_tag="CGZ69_RS27330" class="clusterblast-orf" id="dummy-18_h18_10_16"  />
</g>
<g id="a18_0017"  >
<polygon points="195,85 200,80 238,80 238,90 200,90 195,85 " style="fill:white; stroke-width:1; stroke:black; " description="&lt;b&gt;CGZ69_RS27325&lt;/b&gt;&lt;br&gt;non-ribosomal peptide synthetase&lt;br&gt;Location: 5936427 - 5931016" locus_tag="CGZ69_RS27325" class="clusterblast-orf" id="dummy-18_h18_10_17"  />
</g>
<g id="a18_0018"  >
<polygon points="238,85 243,80 434,80 434,90 243,90 238,85 " style="fill:white; stroke-width:1; stroke:black; " description="&lt;b&gt;CGZ69_RS27320&lt;/b&gt;&lt;br&gt;non-ribosomal peptide synthetase&lt;br&gt;Location: 5931001 - 5906207" locus_tag="CGZ69_RS27320" class="clusterblast-orf" id="dummy-18_h18_10_18"  />
</g>
<g id="a18_0019"  >
<polygon points="436,90 440,85 436,80 436,90 " style="fill:white; stroke-width:1; stroke:black; " description="&lt;b&gt;CGZ69_RS27315&lt;/b&gt;&lt;br&gt;hypothetical protein&lt;br&gt;Location: 5906003 - 5905458" locus_tag="CGZ69_RS27315" class="clusterblast-orf" id="dummy-18_h18_10_19"  />
</g>
<g id="a18_0020"  >
<polygon points="440,85 445,80 462,80 462,90 445,90 440,85 " style="fill:white; stroke-width:1; stroke:black; " description="&lt;b&gt;CGZ69_RS27310&lt;/b&gt;&lt;br&gt;amino acid adenylation domain-containing protein&lt;br&gt;Location: 5905467 - 5902741" locus_tag="CGZ69_RS27310" class="clusterblast-orf" id="dummy-18_h18_10_20"  />
</g>
<g id="a18_0021"  >
<polygon points="462,85 467,80 469,80 469,90 467,90 462,85 " style="fill:white; stroke-width:1; stroke:black; " description="&lt;b&gt;CGZ69_RS27305&lt;/b&gt;&lt;br&gt;mycofactocin-coupled SDR family oxidoreductase&lt;br&gt;Location: 5902700 - 5901846" locus_tag="CGZ69_RS27305" class="clusterblast-orf" id="dummy-18_h18_10_21"  />
</g>
<g id="a18_0022"  >
<polygon points="469,85 474,80 474,80 474,90 474,90 469,85 " style="fill:white; stroke-width:1; stroke:black; " description="&lt;b&gt;CGZ69_RS27300&lt;/b&gt;&lt;br&gt;thioesterase&lt;br&gt;Location: 5901849 - 5901145" locus_tag="CGZ69_RS27300" class="clusterblast-orf" id="dummy-18_h18_10_22"  />
</g>
<g id="a18_0023"  >
<polygon points="476,85 477,80 477,90 476,85 " style="fill:white; stroke-width:1; stroke:black; " description="&lt;b&gt;CGZ69_RS27295&lt;/b&gt;&lt;br&gt;MbtH family protein&lt;br&gt;Location: 5900994 - 5900779" locus_tag="CGZ69_RS27295" class="clusterblast-orf" id="dummy-18_h18_10_23"  />
</g>
<g id="a18_0024"  >
<polygon points="477,85 482,80 482,80 482,90 482,90 477,85 " style="fill:#d88e15; stroke-width:1; stroke:black; " description="&lt;b&gt;CGZ69_RS27290&lt;/b&gt;&lt;br&gt;isomerase&lt;br&gt;Location: 5900776 - 5900135&lt;br&gt;&lt;br&gt;&lt;b&gt;BlastP hit with LLPMBPKK_04028&lt;/b&gt;&lt;br&gt;Percentage identity: 56&lt;br&gt;Percentage coverage: 84&lt;br&gt;BLAST bit score: 234&lt;br&gt;E-value: 2.51e-76" locus_tag="CGZ69_RS27290" class="clusterblast-orf" id="dummy-18_h18_10_24"  />
</g>
<g id="a18_0025"  >
<polygon points="483,85 488,80 489,80 489,90 488,90 483,85 " style="fill:#15d84b; stroke-width:1; stroke:black; " description="&lt;b&gt;CGZ69_RS27285&lt;/b&gt;&lt;br&gt;3-oxoacyl-[acyl-carrier-protein] reductase&lt;br&gt;Location: 5900105 - 5899359&lt;br&gt;&lt;br&gt;&lt;b&gt;BlastP hit with LLPMBPKK_04029&lt;/b&gt;&lt;br&gt;Percentage identity: 61&lt;br&gt;Percentage coverage: 100&lt;br&gt;BLAST bit score: 281&lt;br&gt;E-value: 4.09e-94" locus_tag="CGZ69_RS27285" class="clusterblast-orf" id="dummy-18_h18_10_25"  />
</g>
<g id="a18_0026"  >
<polygon points="489,85 493,80 493,90 489,85 " style="fill:#154bd8; stroke-width:1; stroke:black; " description="&lt;b&gt;CGZ69_RS27280&lt;/b&gt;&lt;br&gt;beta-hydroxyacyl-ACP dehydratase&lt;br&gt;Location: 5899334 - 5898849&lt;br&gt;&lt;br&gt;&lt;b&gt;BlastP hit with LLPMBPKK_04030&lt;/b&gt;&lt;br&gt;Percentage identity: 49&lt;br&gt;Percentage coverage: 49&lt;br&gt;BLAST bit score: 149&lt;br&gt;E-value: 1.44e-42" locus_tag="CGZ69_RS27280" class="clusterblast-orf" id="dummy-18_h18_10_26"  />
</g>
<g id="a18_0027"  >
<polygon points="493,85 496,80 496,90 493,85 " style="fill:#154bd8; stroke-width:1; stroke:black; " description="&lt;b&gt;CGZ69_RS27275&lt;/b&gt;&lt;br&gt;hypothetical protein&lt;br&gt;Location: 5898852 - 5898448&lt;br&gt;&lt;br&gt;&lt;b&gt;BlastP hit with LLPMBPKK_04030&lt;/b&gt;&lt;br&gt;Percentage identity: 39&lt;br&gt;Percentage coverage: 39&lt;br&gt;BLAST bit score: 89&lt;br&gt;E-value: 6.31e-20" locus_tag="CGZ69_RS27275" class="clusterblast-orf" id="dummy-18_h18_10_27"  />
</g>
<g id="a18_0028"  >
<polygon points="496,85 498,80 498,90 496,85 " style="fill:#d815b7; stroke-width:1; stroke:black; " description="&lt;b&gt;CGZ69_RS27270&lt;/b&gt;&lt;br&gt;acyl carrier protein&lt;br&gt;Location: 5898448 - 5898197&lt;br&gt;&lt;br&gt;&lt;b&gt;BlastP hit with LLPMBPKK_04031&lt;/b&gt;&lt;br&gt;Percentage identity: 52&lt;br&gt;Percentage coverage: 93&lt;br&gt;BLAST bit score: 83&lt;br&gt;E-value: 1.24e-20" locus_tag="CGZ69_RS27270" class="clusterblast-orf" id="dummy-18_h18_10_28"  />
</g>
<g id="a18_0029"  >
<polygon points="498,85 503,80 507,80 507,90 503,90 498,85 " style="fill:#d8b715; stroke-width:1; stroke:black; " description="&lt;b&gt;CGZ69_RS27265&lt;/b&gt;&lt;br&gt;3-oxoacyl-ACP synthase&lt;br&gt;Location: 5898137 - 5897024&lt;br&gt;&lt;br&gt;&lt;b&gt;BlastP hit with LLPMBPKK_04032&lt;/b&gt;&lt;br&gt;Percentage identity: 54&lt;br&gt;Percentage coverage: 86&lt;br&gt;BLAST bit score: 288&lt;br&gt;E-value: 2.96e-93" locus_tag="CGZ69_RS27265" class="clusterblast-orf" id="dummy-18_h18_10_29"  />
</g>
<g id="a18_0030"  >
<polygon points="508,85 511,80 511,90 508,85 " style="fill:#15d873; stroke-width:1; stroke:black; " description="&lt;b&gt;CGZ69_RS27260&lt;/b&gt;&lt;br&gt;hypothetical protein&lt;br&gt;Location: 5896944 - 5896534&lt;br&gt;&lt;br&gt;&lt;b&gt;BlastP hit with LLPMBPKK_04033&lt;/b&gt;&lt;br&gt;Percentage identity: 47&lt;br&gt;Percentage coverage: 95&lt;br&gt;BLAST bit score: 100&lt;br&gt;E-value: 2.19e-26" locus_tag="CGZ69_RS27260" class="clusterblast-orf" id="dummy-18_h18_10_30"  />
</g>
<g id="a18_0031"  >
<polygon points="511,85 514,80 514,90 511,85 " style="fill:#1523d8; stroke-width:1; stroke:black; " description="&lt;b&gt;CGZ69_RS27255&lt;/b&gt;&lt;br&gt;hypothetical protein&lt;br&gt;Location: 5896534 - 5896127&lt;br&gt;&lt;br&gt;&lt;b&gt;BlastP hit with LLPMBPKK_04034&lt;/b&gt;&lt;br&gt;Percentage identity: 54&lt;br&gt;Percentage coverage: 99&lt;br&gt;BLAST bit score: 146&lt;br&gt;E-value: 3.15e-44" locus_tag="CGZ69_RS27255" class="clusterblast-orf" id="dummy-18_h18_10_31"  />
</g>
<g id="a18_0032"  >
<polygon points="514,85 517,80 517,90 514,85 " style="fill:white; stroke-width:1; stroke:black; " description="&lt;b&gt;CGZ69_RS27250&lt;/b&gt;&lt;br&gt;DsrE family protein&lt;br&gt;Location: 5896126 - 5895779" locus_tag="CGZ69_RS27250" class="clusterblast-orf" id="dummy-18_h18_10_32"  />
</g>
<g id="a18_0033"  >
<polygon points="517,85 522,80 525,80 525,90 522,90 517,85 " style="fill:#d2d815; stroke-width:1; stroke:black; " description="&lt;b&gt;CGZ69_RS27245&lt;/b&gt;&lt;br&gt;hypothetical protein&lt;br&gt;Location: 5895782 - 5894814&lt;br&gt;&lt;br&gt;&lt;b&gt;BlastP hit with LLPMBPKK_04036&lt;/b&gt;&lt;br&gt;Percentage identity: 65&lt;br&gt;Percentage coverage: 97&lt;br&gt;BLAST bit score: 418&lt;br&gt;E-value: 1.15e-145" locus_tag="CGZ69_RS27245" class="clusterblast-orf" id="dummy-18_h18_10_33"  />
</g>
<g id="a18_0034"  >
<polygon points="525,85 530,80 531,80 531,90 530,90 525,85 " style="fill:#15d89c; stroke-width:1; stroke:black; " description="&lt;b&gt;CGZ69_RS27240&lt;/b&gt;&lt;br&gt;alpha/beta hydrolase&lt;br&gt;Location: 5894817 - 5893969&lt;br&gt;&lt;br&gt;&lt;b&gt;BlastP hit with LLPMBPKK_04037&lt;/b&gt;&lt;br&gt;Percentage identity: 42&lt;br&gt;Percentage coverage: 93&lt;br&gt;BLAST bit score: 199&lt;br&gt;E-value: 4.74e-61" locus_tag="CGZ69_RS27240" class="clusterblast-orf" id="dummy-18_h18_10_34"  />
</g>
<g id="a18_0035"  >
<polygon points="531,85 536,80 538,80 538,90 536,90 531,85 " style="fill:#d8b715; stroke-width:1; stroke:black; " description="&lt;b&gt;CGZ69_RS27235&lt;/b&gt;&lt;br&gt;3-oxoacyl-ACP synthase&lt;br&gt;Location: 5893969 - 5893091&lt;br&gt;&lt;br&gt;&lt;b&gt;BlastP hit with LLPMBPKK_04038&lt;/b&gt;&lt;br&gt;Percentage identity: 45&lt;br&gt;Percentage coverage: 99&lt;br&gt;BLAST bit score: 207&lt;br&gt;E-value: 3.23e-63" locus_tag="CGZ69_RS27235" class="clusterblast-orf" id="dummy-18_h18_10_35"  />
</g>
<g id="a18_0036"  >
<polygon points="538,85 543,80 547,80 547,90 543,90 538,85 " style="fill:#3015d8; stroke-width:1; stroke:black; " description="&lt;b&gt;CGZ69_RS27230&lt;/b&gt;&lt;br&gt;3-oxoacyl-ACP synthase&lt;br&gt;Location: 5893094 - 5891943&lt;br&gt;&lt;br&gt;&lt;b&gt;BlastP hit with LLPMBPKK_04039&lt;/b&gt;&lt;br&gt;Percentage identity: 62&lt;br&gt;Percentage coverage: 98&lt;br&gt;BLAST bit score: 430&lt;br&gt;E-value: 2.28e-148&lt;br&gt;&lt;br&gt;&lt;b&gt;BlastP hit with LLPMBPKK_04040&lt;/b&gt;&lt;br&gt;Percentage identity: 34&lt;br&gt;Percentage coverage: 98&lt;br&gt;BLAST bit score: 161&lt;br&gt;E-value: 1.65e-43" locus_tag="CGZ69_RS27230" class="clusterblast-orf" id="dummy-18_h18_10_36"  />
</g>
<g id="a18_0037"  >
<polygon points="547,85 552,80 557,80 557,90 552,90 547,85 " style="fill:#3015d8; stroke-width:1; stroke:black; " description="&lt;b&gt;CGZ69_RS27225&lt;/b&gt;&lt;br&gt;beta-ketoacyl-[acyl-carrier-protein] synthase family protein&lt;br&gt;Location: 5891946 - 5890684&lt;br&gt;&lt;br&gt;&lt;b&gt;BlastP hit with LLPMBPKK_04040&lt;/b&gt;&lt;br&gt;Percentage identity: 70&lt;br&gt;Percentage coverage: 97&lt;br&gt;BLAST bit score: 560&lt;br&gt;E-value: 5.76e-199" locus_tag="CGZ69_RS27225" class="clusterblast-orf" id="dummy-18_h18_10_37"  />
</g>
<g id="a18_0038"  >
<polygon points="558,85 560,80 560,90 558,85 " style="fill:#d81566; stroke-width:1; stroke:black; " description="&lt;b&gt;CGZ69_RS27220&lt;/b&gt;&lt;br&gt;acyl carrier protein&lt;br&gt;Location: 5890651 - 5890397&lt;br&gt;&lt;br&gt;&lt;b&gt;BlastP hit with LLPMBPKK_04041&lt;/b&gt;&lt;br&gt;Percentage identity: 67&lt;br&gt;Percentage coverage: 93&lt;br&gt;BLAST bit score: 94&lt;br&gt;E-value: 4.21e-25" locus_tag="CGZ69_RS27220" class="clusterblast-orf" id="dummy-18_h18_10_38"  />
</g>
<g id="a18_0039"  >
<polygon points="561,85 566,80 566,80 566,90 566,90 561,85 " style="fill:white; stroke-width:1; stroke:black; " description="&lt;b&gt;CGZ69_RS27215&lt;/b&gt;&lt;br&gt;helix-turn-helix domain-containing protein&lt;br&gt;Location: 5890270 - 5889536" locus_tag="CGZ69_RS27215" class="clusterblast-orf" id="dummy-18_h18_10_39"  />
</g>
<g id="a18_0040"  >
<polygon points="567,85 572,80 573,80 573,90 572,90 567,85 " style="fill:white; stroke-width:1; stroke:black; " description="&lt;b&gt;CGZ69_RS27210&lt;/b&gt;&lt;br&gt;thioesterase&lt;br&gt;Location: 5889512 - 5888763" locus_tag="CGZ69_RS27210" class="clusterblast-orf" id="dummy-18_h18_10_40"  />
</g>
<g id="a18_0041"  >
<polygon points="573,85 578,80 580,80 580,90 578,90 573,85 " style="fill:white; stroke-width:1; stroke:black; " description="&lt;b&gt;CGZ69_RS27205&lt;/b&gt;&lt;br&gt;ACP S-malonyltransferase&lt;br&gt;Location: 5888744 - 5887809" locus_tag="CGZ69_RS27205" class="clusterblast-orf" id="dummy-18_h18_10_41"  />
</g>
<g id="a18_0042"  >
<polygon points="582,85 587,80 588,80 588,90 587,90 582,85 " style="fill:#a9d815; stroke-width:1; stroke:black; " description="&lt;b&gt;CGZ69_RS27200&lt;/b&gt;&lt;br&gt;LuxR family transcriptional regulator&lt;br&gt;Location: 5887606 - 5886779&lt;br&gt;&lt;br&gt;&lt;b&gt;BlastP hit with LLPMBPKK_04042&lt;/b&gt;&lt;br&gt;Percentage identity: 36&lt;br&gt;Percentage coverage: 59&lt;br&gt;BLAST bit score: 65&lt;br&gt;E-value: 3.68e-10" locus_tag="CGZ69_RS27200" class="clusterblast-orf" id="dummy-18_h18_10_42"  />
</g>
<g id="a18_0043"  >
<polygon points="589,85 594,80 595,80 595,90 594,90 589,85 " style="fill:#a9d815; stroke-width:1; stroke:black; " description="&lt;b&gt;CGZ69_RS27195&lt;/b&gt;&lt;br&gt;response regulator transcription factor&lt;br&gt;Location: 5886705 - 5885932&lt;br&gt;&lt;br&gt;&lt;b&gt;BlastP hit with LLPMBPKK_04042&lt;/b&gt;&lt;br&gt;Percentage identity: 41&lt;br&gt;Percentage coverage: 45&lt;br&gt;BLAST bit score: 70&lt;br&gt;E-value: 5.32e-12" locus_tag="CGZ69_RS27195" class="clusterblast-orf" id="dummy-18_h18_10_43"  />
</g>
<g id="a18_0044"  >
<polygon points="599,90 599,90 604,85 599,80 599,80 599,90 " style="fill:white; stroke-width:1; stroke:black; " description="&lt;b&gt;CGZ69_RS27190&lt;/b&gt;&lt;br&gt;4'-phosphopantetheinyl transferase superfamily protein&lt;br&gt;Location: 5885429 - 5884734" locus_tag="CGZ69_RS27190" class="clusterblast-orf" id="dummy-18_h18_10_44"  />
</g>
<g id="a18_0045"  >
<polygon points="606,90 623,90 628,85 623,80 606,80 606,90 " style="fill:white; stroke-width:1; stroke:black; " description="&lt;b&gt;CGZ69_RS27185&lt;/b&gt;&lt;br&gt;non-ribosomal peptide synthetase&lt;br&gt;Location: 5884597 - 5881769" locus_tag="CGZ69_RS27185" class="clusterblast-orf" id="dummy-18_h18_10_45"  />
</g>
<g id="a18_0046"  >
<polygon points="628,90 630,90 635,85 630,80 628,80 628,90 " style="fill:white; stroke-width:1; stroke:black; " description="&lt;b&gt;CGZ69_RS27180&lt;/b&gt;&lt;br&gt;NAD-dependent epimerase/dehydratase family protein&lt;br&gt;Location: 5881772 - 5880827" locus_tag="CGZ69_RS27180" class="clusterblast-orf" id="dummy-18_h18_10_46"  />
</g>
<g id="a18_0047"  >
<polygon points="636,90 639,85 636,80 636,90 " style="fill:white; stroke-width:1; stroke:black; " description="&lt;b&gt;CGZ69_RS27175&lt;/b&gt;&lt;br&gt;nuclear transport factor 2 family protein&lt;br&gt;Location: 5880812 - 5880312" locus_tag="CGZ69_RS27175" class="clusterblast-orf" id="dummy-18_h18_10_47"  />
</g>
<g id="a18_0048"  >
<polygon points="640,85 645,80 647,80 647,90 645,90 640,85 " style="fill:white; stroke-width:1; stroke:black; " description="&lt;b&gt;CGZ69_RS27170&lt;/b&gt;&lt;br&gt;LysR family transcriptional regulator&lt;br&gt;Location: 5880286 - 5879342" locus_tag="CGZ69_RS27170" class="clusterblast-orf" id="dummy-18_h18_10_48"  />
</g>
<g id="a18_0049"  >
<polygon points="648,90 648,90 653,85 648,80 648,80 648,90 " style="fill:white; stroke-width:1; stroke:black; " description="&lt;b&gt;CGZ69_RS27165&lt;/b&gt;&lt;br&gt;ACP phosphodiesterase&lt;br&gt;Location: 5879213 - 5878542" locus_tag="CGZ69_RS27165" class="clusterblast-orf" id="dummy-18_h18_10_49"  />
</g>
<g id="a18_0050"  >
<polygon points="654,90 657,90 662,85 657,80 654,80 654,90 " style="fill:white; stroke-width:1; stroke:black; " description="&lt;b&gt;CGZ69_RS27160&lt;/b&gt;&lt;br&gt;TAXI family TRAP transporter solute-binding subunit&lt;br&gt;Location: 5878475 - 5877468" locus_tag="CGZ69_RS27160" class="clusterblast-orf" id="dummy-18_h18_10_50"  />
</g>
<g id="a18_0051"  >
<polygon points="662,85 667,80 673,80 673,90 667,90 662,85 " style="fill:white; stroke-width:1; stroke:black; " description="&lt;b&gt;CGZ69_RS27155&lt;/b&gt;&lt;br&gt;HAMP domain-containing histidine kinase&lt;br&gt;Location: 5877428 - 5876031" locus_tag="CGZ69_RS27155" class="clusterblast-orf" id="dummy-18_h18_10_51"  />
</g>
<g id="a18_0052"  >
<polygon points="674,85 679,80 679,80 679,90 679,90 674,85 " style="fill:#5815d8; stroke-width:1; stroke:black; " description="&lt;b&gt;CGZ69_RS27150&lt;/b&gt;&lt;br&gt;response regulator transcription factor&lt;br&gt;Location: 5876015 - 5875308&lt;br&gt;&lt;br&gt;&lt;b&gt;BlastP hit with LLPMBPKK_04046&lt;/b&gt;&lt;br&gt;Percentage identity: 42&lt;br&gt;Percentage coverage: 94&lt;br&gt;BLAST bit score: 164&lt;br&gt;E-value: 2.26e-48" locus_tag="CGZ69_RS27150" class="clusterblast-orf" id="dummy-18_h18_10_52"  />
</g>
<g id="a18_0053"  >
<polygon points="681,90 683,90 688,85 683,80 681,80 681,90 " style="fill:white; stroke-width:1; stroke:black; " description="&lt;b&gt;CGZ69_RS27145&lt;/b&gt;&lt;br&gt;amino acid ABC transporter ATP-binding protein&lt;br&gt;Location: 5875017 - 5874235" locus_tag="CGZ69_RS27145" class="clusterblast-orf" id="dummy-18_h18_10_53"  />
</g>
<g id="a18_0054"  >
<polygon points="688,90 690,90 695,85 690,80 688,80 688,90 " style="fill:white; stroke-width:1; stroke:black; " description="&lt;b&gt;CGZ69_RS27140&lt;/b&gt;&lt;br&gt;glutamate ABC transporter substrate-binding protein&lt;br&gt;Location: 5874154 - 5873312" locus_tag="CGZ69_RS27140" class="clusterblast-orf" id="dummy-18_h18_10_54"  />
</g>
<g id="a18_0055"  >
<polygon points="696,90 696,90 701,85 696,80 696,80 696,90 " style="fill:white; stroke-width:1; stroke:black; " description="&lt;b&gt;CGZ69_RS27135&lt;/b&gt;&lt;br&gt;amino acid ABC transporter permease&lt;br&gt;Location: 5873237 - 5872569" locus_tag="CGZ69_RS27135" class="clusterblast-orf" id="dummy-18_h18_10_55"  />
</g>
<g id="a18_0056"  >
<polygon points="701,90 703,90 708,85 703,80 701,80 701,90 " style="fill:white; stroke-width:1; stroke:black; " description="&lt;b&gt;CGZ69_RS27130&lt;/b&gt;&lt;br&gt;amino acid ABC transporter permease&lt;br&gt;Location: 5872572 - 5871667" locus_tag="CGZ69_RS27130" class="clusterblast-orf" id="dummy-18_h18_10_56"  />
</g>
<g id="a18_0057"  >
<polygon points="709,90 717,90 722,85 717,80 709,80 709,90 " style="fill:white; stroke-width:1; stroke:black; " description="&lt;b&gt;CGZ69_RS27125&lt;/b&gt;&lt;br&gt;monooxygenase&lt;br&gt;Location: 5871471 - 5869831" locus_tag="CGZ69_RS27125" class="clusterblast-orf" id="dummy-18_h18_10_57"  />
</g>
<g id="a18_0058"  >
<polygon points="723,85 728,80 732,80 732,90 728,90 723,85 " style="fill:white; stroke-width:1; stroke:black; " description="&lt;b&gt;CGZ69_RS27120&lt;/b&gt;&lt;br&gt;transposase&lt;br&gt;Location: 5869814 - 5868615" locus_tag="CGZ69_RS27120" class="clusterblast-orf" id="dummy-18_h18_10_58"  />
</g>
<g id="a18_0059"  >
<polygon points="733,85 738,80 738,80 738,90 738,90 733,85 " style="fill:white; stroke-width:1; stroke:black; " description="&lt;b&gt;CGZ69_RS27115&lt;/b&gt;&lt;br&gt;recombination regulator RecX&lt;br&gt;Location: 5868490 - 5867918" locus_tag="CGZ69_RS27115" class="clusterblast-orf" id="dummy-18_h18_10_59"  />
</g>
<g id="a18_0060"  >
<polygon points="738,85 743,80 747,80 747,90 743,90 738,85 " style="fill:white; stroke-width:1; stroke:black; " description="&lt;b&gt;CGZ69_RS27110&lt;/b&gt;&lt;br&gt;recombinase RecA&lt;br&gt;Location: 5867914 - 5866787" locus_tag="CGZ69_RS27110" class="clusterblast-orf" id="dummy-18_h18_10_60"  />
</g>
<g id="a18_0061"  >
<polygon points="748,85 753,80 757,80 757,90 753,90 748,85 " style="fill:white; stroke-width:1; stroke:black; " description="&lt;b&gt;CGZ69_RS27105&lt;/b&gt;&lt;br&gt;AI-2E family transporter&lt;br&gt;Location: 5866586 - 5865411" locus_tag="CGZ69_RS27105" class="clusterblast-orf" id="dummy-18_h18_10_61"  />
</g>
<g id="a18_0062"  >
<polygon points="760,85 762,80 762,90 760,85 " style="fill:white; stroke-width:1; stroke:black; " description="&lt;b&gt;CGZ69_RS27100&lt;/b&gt;&lt;br&gt;DUF3046 domain-containing protein&lt;br&gt;Location: 5865097 - 5864903" locus_tag="CGZ69_RS27100" class="clusterblast-orf" id="dummy-18_h18_10_62"  />
</g>
<g id="a18_0063"  >
<polygon points="762,90 765,90 770,85 765,80 762,80 762,90 " style="fill:white; stroke-width:1; stroke:black; " description="&lt;b&gt;CGZ69_RS27095&lt;/b&gt;&lt;br&gt;hypothetical protein&lt;br&gt;Location: 5864822 - 5863887" locus_tag="CGZ69_RS27095" class="clusterblast-orf" id="dummy-18_h18_10_63"  />
</g>
<g id="a18_0064"  >
<polygon points="770,85 772,80 772,90 770,85 " style="fill:white; stroke-width:1; stroke:black; " description="&lt;b&gt;CGZ69_RS27090&lt;/b&gt;&lt;br&gt;branched-chain amino acid transporter AzlD&lt;br&gt;Location: 5863854 - 5863546" locus_tag="CGZ69_RS27090" class="clusterblast-orf" id="dummy-18_h18_10_64"  />
</g>
<g id="a18_0065"  >
<polygon points="772,85 777,80 779,80 779,90 777,90 772,85 " style="fill:white; stroke-width:1; stroke:black; " description="&lt;b&gt;CGZ69_RS27085&lt;/b&gt;&lt;br&gt;AzlC family ABC transporter permease&lt;br&gt;Location: 5863549 - 5862632" locus_tag="CGZ69_RS27085" class="clusterblast-orf" id="dummy-18_h18_10_65"  />
</g>
</svg>
