<svg xmlns="http://www.w3.org/2000/svg" xmlns:xlink="http://www.w3.org/1999/xlink" version="1.1" x="0" y="0" height="230" width="800" viewBox="0 0 800 230" preserveAspectRatio="none"  >
<g label="Query sequence" class="clusterblast-cluster"  >
<text x="5" y="20" class="clusterblast-acc"  >
Query sequence</text>
<line x1="10" y1="35" x2="778.0" y2="35" style="stroke-width:1; stroke:grey; "  />
<polygon points="211,35 216,30 218,30 218,40 216,40 211,35 " style="fill:#d81515; stroke-width:1; stroke:black; " description="&lt;b&gt;LLPMBPKK_06036&lt;/b&gt;&lt;br&gt;regulator&lt;br&gt;Location: 6961541 - 6962354" locus_tag="LLPMBPKK_06036" class="clusterblast-orf" id="dummy-24_q0_0_all"  />
<polygon points="218,35 223,30 232,30 232,40 223,40 218,35 " style="fill:#77d815; stroke-width:1; stroke:black; " description="&lt;b&gt;LLPMBPKK_06037&lt;/b&gt;&lt;br&gt;fatty acid-CoA ligase&lt;br&gt;Location: 6962369 - 6963962" locus_tag="LLPMBPKK_06037" class="clusterblast-orf" id="dummy-24_q1_0_all"  />
<polygon points="234,40 239,40 244,35 239,30 234,30 234,40 " style="fill:#15d8d8; stroke-width:1; stroke:black; " description="&lt;b&gt;LLPMBPKK_06038&lt;/b&gt;&lt;br&gt;acyl-CoA dehydrogenase&lt;br&gt;Location: 6964166 - 6965297" locus_tag="LLPMBPKK_06038" class="clusterblast-orf" id="dummy-24_q2_0_all"  />
<polygon points="244,40 248,35 244,30 244,40 " style="fill:#7715d8; stroke-width:1; stroke:black; " description="&lt;b&gt;LLPMBPKK_06039&lt;/b&gt;&lt;br&gt;RidA family protein&lt;br&gt;Location: 6965293 - 6965692" locus_tag="LLPMBPKK_06039" class="clusterblast-orf" id="dummy-24_q3_0_all"  />
<polygon points="249,40 253,35 249,30 249,40 " style="fill:#d84615; stroke-width:1; stroke:black; " description="&lt;b&gt;LLPMBPKK_06040&lt;/b&gt;&lt;br&gt;hypothetical protein&lt;br&gt;Location: 6965837 - 6966263" locus_tag="LLPMBPKK_06040" class="clusterblast-orf" id="dummy-24_q4_0_all"  />
<polygon points="252,35 257,30 260,30 260,40 257,40 252,35 " style="fill:#46d815; stroke-width:1; stroke:black; " description="&lt;b&gt;LLPMBPKK_06041&lt;/b&gt;&lt;br&gt;GntR family transcriptional regulator&lt;br&gt;Location: 6966249 - 6967074" locus_tag="LLPMBPKK_06041" class="clusterblast-orf" id="dummy-24_q5_0_all"  />
<polygon points="262,40 269,40 274,35 269,30 262,30 262,40 " style="fill:#15a7d8; stroke-width:1; stroke:black; " description="&lt;b&gt;LLPMBPKK_06042&lt;/b&gt;&lt;br&gt;extracellular solute-binding protein&lt;br&gt;Location: 6967376 - 6968654" locus_tag="LLPMBPKK_06042" class="clusterblast-orf" id="dummy-24_q6_0_all"  />
<polygon points="274,40 278,40 283,35 278,30 274,30 274,40 " style="fill:#a715d8; stroke-width:1; stroke:black; " description="&lt;b&gt;LLPMBPKK_06043&lt;/b&gt;&lt;br&gt;sugar ABC transporter permease&lt;br&gt;Location: 6968732 - 6969731" locus_tag="LLPMBPKK_06043" class="clusterblast-orf" id="dummy-24_q7_0_all"  />
<polygon points="283,40 285,40 290,35 285,30 283,30 283,40 " style="fill:#d87715; stroke-width:1; stroke:black; " description="&lt;b&gt;LLPMBPKK_06044&lt;/b&gt;&lt;br&gt;carbohydrate ABC transporter permease&lt;br&gt;Location: 6969727 - 6970558" locus_tag="LLPMBPKK_06044" class="clusterblast-orf" id="dummy-24_q8_0_all"  />
<polygon points="290,40 299,40 304,35 299,30 290,30 290,40 " style="fill:#15d815; stroke-width:1; stroke:black; " description="&lt;b&gt;LLPMBPKK_06045&lt;/b&gt;&lt;br&gt;glycoside hydrolase family 3 protein&lt;br&gt;Location: 6970554 - 6972078" locus_tag="LLPMBPKK_06045" class="clusterblast-orf" id="dummy-24_q9_0_all"  />
<polygon points="305,40 309,40 314,35 309,30 305,30 305,40 " style="fill:#1577d8; stroke-width:1; stroke:black; " description="&lt;b&gt;LLPMBPKK_06046&lt;/b&gt;&lt;br&gt;phytanoyl-CoA dioxygenase&lt;br&gt;Location: 6972182 - 6973214" locus_tag="LLPMBPKK_06046" class="clusterblast-orf" id="dummy-24_q10_0_all"  />
<polygon points="314,40 320,40 325,35 320,30 314,30 314,40 " style="fill:#d815d8; stroke-width:1; stroke:black; " description="&lt;b&gt;LLPMBPKK_06047&lt;/b&gt;&lt;br&gt;hypothetical protein&lt;br&gt;Location: 6973210 - 6974500" locus_tag="LLPMBPKK_06047" class="clusterblast-orf" id="dummy-24_q11_0_all"  />
<polygon points="325,40 331,40 336,35 331,30 325,30 325,40 " style="fill:#d8a715; stroke-width:1; stroke:black; " description="&lt;b&gt;LLPMBPKK_06048&lt;/b&gt;&lt;br&gt;lysine/ornithine decarboxylase&lt;br&gt;Location: 6974496 - 6975660" locus_tag="LLPMBPKK_06048" class="clusterblast-orf" id="dummy-24_q12_0_all"  />
<polygon points="340,40 345,40 350,35 345,30 340,30 340,40 " style="fill:#15d846; stroke-width:1; stroke:black; " description="&lt;b&gt;LLPMBPKK_06049&lt;/b&gt;&lt;br&gt;MFS transporter&lt;br&gt;Location: 6976160 - 6977330" locus_tag="LLPMBPKK_06049" class="clusterblast-orf" id="dummy-24_q13_0_all"  />
<polygon points="350,35 355,30 359,30 359,40 355,40 350,35 " style="fill:#1546d8; stroke-width:1; stroke:black; " description="&lt;b&gt;LLPMBPKK_06050&lt;/b&gt;&lt;br&gt;2,3-diaminopropionate biosynthesis protein SbnA&lt;br&gt;Location: 6977345 - 6978368" locus_tag="LLPMBPKK_06050" class="clusterblast-orf" id="dummy-24_q14_0_all"  />
<polygon points="360,35 365,30 369,30 369,40 365,40 360,35 " style="fill:#d815a7; stroke-width:1; stroke:black; " description="&lt;b&gt;LLPMBPKK_06051&lt;/b&gt;&lt;br&gt;2,3-diaminopropionate biosynthesis protein SbnB&lt;br&gt;Location: 6978404 - 6979475" locus_tag="LLPMBPKK_06051" class="clusterblast-orf" id="dummy-24_q15_0_all"  />
<polygon points="369,35 374,30 378,30 378,40 374,40 369,35 " style="fill:#d8d815; stroke-width:1; stroke:black; " description="&lt;b&gt;LLPMBPKK_06052&lt;/b&gt;&lt;br&gt;TauD/TfdA family dioxygenase&lt;br&gt;Location: 6979471 - 6980476" locus_tag="LLPMBPKK_06052" class="clusterblast-orf" id="dummy-24_q16_0_all"  />
<polygon points="378,35 383,30 407,30 407,40 383,40 378,35 " style="fill:#15d877; stroke-width:1; stroke:black; " description="&lt;b&gt;LLPMBPKK_06053&lt;/b&gt;&lt;br&gt;amino acid adenylation domain-containing protein&lt;br&gt;Location: 6980520 - 6983772" locus_tag="LLPMBPKK_06053" class="clusterblast-orf" id="dummy-24_q17_0_all"  />
<polygon points="407,35 412,30 426,30 426,40 412,40 407,35 " style="fill:#1515d8; stroke-width:1; stroke:black; " description="&lt;b&gt;LLPMBPKK_06054&lt;/b&gt;&lt;br&gt;NRPS protein&lt;br&gt;Location: 6983785 - 6985963" locus_tag="LLPMBPKK_06054" class="clusterblast-orf" id="dummy-24_q18_0_all"  />
<polygon points="432,35 437,30 441,30 441,40 437,40 432,35 " style="fill:white; stroke-width:1; stroke:black; " description="&lt;b&gt;LLPMBPKK_06055&lt;/b&gt;&lt;br&gt;dTDP-glucose 4,6-dehydratase&lt;br&gt;Location: 6986554 - 6987574" locus_tag="LLPMBPKK_06055" class="clusterblast-orf" id="dummy-24_q19_0_all"  />
<polygon points="442,35 447,30 456,30 456,40 447,40 442,35 " style="fill:#d81577; stroke-width:1; stroke:black; " description="&lt;b&gt;LLPMBPKK_06056&lt;/b&gt;&lt;br&gt;UDP-N-acetylglucosamine1-carboxyvinyltransferase&lt;br&gt;Location: 6987749 - 6989279" locus_tag="LLPMBPKK_06056" class="clusterblast-orf" id="dummy-24_q20_0_all"  />
<polygon points="458,40 459,40 464,35 459,30 458,30 458,40 " style="fill:white; stroke-width:1; stroke:black; " description="&lt;b&gt;LLPMBPKK_06057&lt;/b&gt;&lt;br&gt;hypothetical protein&lt;br&gt;Location: 6989484 - 6990201" locus_tag="LLPMBPKK_06057" class="clusterblast-orf" id="dummy-24_q21_0_all"  />
<polygon points="466,40 485,40 490,35 485,30 466,30 466,40 " style="fill:#a7d815; stroke-width:1; stroke:black; " description="&lt;b&gt;LLPMBPKK_06058&lt;/b&gt;&lt;br&gt;aconitate hydratase AcnA&lt;br&gt;Location: 6990422 - 6993140" locus_tag="LLPMBPKK_06058" class="clusterblast-orf" id="dummy-24_q22_0_all"  />
<polygon points="491,35 496,30 515,30 515,40 496,40 491,35 " style="fill:#15d8a7; stroke-width:1; stroke:black; " description="&lt;b&gt;LLPMBPKK_06059&lt;/b&gt;&lt;br&gt;GAF domain-containing protein&lt;br&gt;Location: 6993277 - 6995971" locus_tag="LLPMBPKK_06059" class="clusterblast-orf" id="dummy-24_q23_0_all"  />
<polygon points="516,35 521,30 532,30 532,40 521,40 516,35 " style="fill:#4615d8; stroke-width:1; stroke:black; " description="&lt;b&gt;LLPMBPKK_06060&lt;/b&gt;&lt;br&gt;molecular chaperone DnaK&lt;br&gt;Location: 6996080 - 6997961" locus_tag="LLPMBPKK_06060" class="clusterblast-orf" id="dummy-24_q24_0_all"  />
<polygon points="539,40 563,40 568,35 563,30 539,30 539,40 " style="fill:#d81546; stroke-width:1; stroke:black; " description="&lt;b&gt;LLPMBPKK_06061&lt;/b&gt;&lt;br&gt;glycoside hydrolase family 92 protein&lt;br&gt;Location: 6998760 - 7002030" locus_tag="LLPMBPKK_06061" class="clusterblast-orf" id="dummy-24_q25_0_all"  />
</g>
<g label="NZ_JACHJK010000010" description="NZ_JACHJK010000010 (75502-164999): Streptomyces echinatus strain CECT 3313 Ga... (30% of genes show similarity), NRPS,T3PKS,bacteriocin,other,terpene" class="clusterblast-cluster"  >
<text x="5" y="70" class="clusterblast-acc"  >
<a xlink:href="https://antismash-db.secondarymetabolites.org/area.html?record=NZ_JACHJK010000010&amp;start=75502&amp;end=164999" target="_blank">NZ_JACHJK010000010 (75502-164999)</a>: Streptomyces echinatus strain CECT 3313 Ga... (30% of genes show similarity), NRPS,T3PKS,bacteriocin,other,terpene</text>
<line x1="10" y1="85" x2="778.0" y2="85" style="stroke-width:1; stroke:grey; "  />
</g>
<g id="a24_000"  >
<polygon points="0,90 8,90 13,85 8,80 0,80 0,90 " style="fill:white; stroke-width:1; stroke:black; " description="&lt;b&gt;FHS34_RS26595&lt;/b&gt;&lt;br&gt;3' terminal RNA ribose 2'-O-methyltransferase Hen1&lt;br&gt;Location: 164208 - 162730" locus_tag="FHS34_RS26595" class="clusterblast-orf" id="dummy-24_h24_6_0"  />
</g>
<g id="a24_001"  >
<polygon points="13,90 30,90 35,85 30,80 13,80 13,90 " style="fill:white; stroke-width:1; stroke:black; " description="&lt;b&gt;FHS34_RS26590&lt;/b&gt;&lt;br&gt;polynucleotide kinase-phosphatase&lt;br&gt;Location: 162733 - 160190" locus_tag="FHS34_RS26590" class="clusterblast-orf" id="dummy-24_h24_6_1"  />
</g>
<g id="a24_002"  >
<polygon points="35,90 37,85 35,80 35,90 " style="fill:white; stroke-width:1; stroke:black; " description="&lt;b&gt;FHS34_RS26585&lt;/b&gt;&lt;br&gt;hypothetical protein&lt;br&gt;Location: 160139 - 160002" locus_tag="FHS34_RS26585" class="clusterblast-orf" id="dummy-24_h24_6_2"  />
</g>
<g id="a24_003"  >
<polygon points="37,90 48,90 53,85 48,80 37,80 37,90 " style="fill:white; stroke-width:1; stroke:black; " description="&lt;b&gt;FHS34_RS26580&lt;/b&gt;&lt;br&gt;RiPP maturation radical SAM protein 1&lt;br&gt;Location: 159999 - 158152" locus_tag="FHS34_RS26580" class="clusterblast-orf" id="dummy-24_h24_6_3"  />
</g>
<g id="a24_004"  >
<polygon points="53,90 53,90 58,85 53,80 53,80 53,90 " style="fill:white; stroke-width:1; stroke:black; " description="&lt;b&gt;FHS34_RS26575&lt;/b&gt;&lt;br&gt;hypothetical protein&lt;br&gt;Location: 158155 - 157616" locus_tag="FHS34_RS26575" class="clusterblast-orf" id="dummy-24_h24_6_4"  />
</g>
<g id="a24_005"  >
<polygon points="59,90 60,90 65,85 60,80 59,80 59,90 " style="fill:white; stroke-width:1; stroke:black; " description="&lt;b&gt;FHS34_RS26570&lt;/b&gt;&lt;br&gt;hypothetical protein&lt;br&gt;Location: 157458 - 156793" locus_tag="FHS34_RS26570" class="clusterblast-orf" id="dummy-24_h24_6_5"  />
</g>
<g id="a24_006"  >
<polygon points="65,90 74,90 79,85 74,80 65,80 65,90 " style="fill:white; stroke-width:1; stroke:black; " description="&lt;b&gt;FHS34_RS26565&lt;/b&gt;&lt;br&gt;hypothetical protein&lt;br&gt;Location: 156772 - 155189" locus_tag="FHS34_RS26565" class="clusterblast-orf" id="dummy-24_h24_6_6"  />
</g>
<g id="a24_007"  >
<polygon points="79,90 81,90 86,85 81,80 79,80 79,90 " style="fill:white; stroke-width:1; stroke:black; " description="&lt;b&gt;FHS34_RS26560&lt;/b&gt;&lt;br&gt;nucleotide-binding protein&lt;br&gt;Location: 155192 - 154452" locus_tag="FHS34_RS26560" class="clusterblast-orf" id="dummy-24_h24_6_7"  />
</g>
<g id="a24_008"  >
<polygon points="86,85 91,80 94,80 94,90 91,90 86,85 " style="fill:white; stroke-width:1; stroke:black; " description="&lt;b&gt;FHS34_RS26555&lt;/b&gt;&lt;br&gt;hypothetical protein&lt;br&gt;Location: 154373 - 153534" locus_tag="FHS34_RS26555" class="clusterblast-orf" id="dummy-24_h24_6_8"  />
</g>
<g id="a24_009"  >
<polygon points="96,90 102,90 107,85 102,80 96,80 96,90 " style="fill:white; stroke-width:1; stroke:black; " description="&lt;b&gt;FHS34_RS26550&lt;/b&gt;&lt;br&gt;hypothetical protein&lt;br&gt;Location: 153327 - 151996" locus_tag="FHS34_RS26550" class="clusterblast-orf" id="dummy-24_h24_6_9"  />
</g>
<g id="a24_0010"  >
<polygon points="109,90 115,90 120,85 115,80 109,80 109,90 " style="fill:white; stroke-width:1; stroke:black; " description="&lt;b&gt;FHS34_RS26545&lt;/b&gt;&lt;br&gt;arginine deiminase&lt;br&gt;Location: 151798 - 150575" locus_tag="FHS34_RS26545" class="clusterblast-orf" id="dummy-24_h24_6_10"  />
</g>
<g id="a24_0011"  >
<polygon points="120,90 124,90 129,85 124,80 120,80 120,90 " style="fill:white; stroke-width:1; stroke:black; " description="&lt;b&gt;FHS34_RS26540&lt;/b&gt;&lt;br&gt;ornithine carbamoyltransferase&lt;br&gt;Location: 150512 - 149490" locus_tag="FHS34_RS26540" class="clusterblast-orf" id="dummy-24_h24_6_11"  />
</g>
<g id="a24_0012"  >
<polygon points="130,90 138,90 143,85 138,80 130,80 130,90 " style="fill:white; stroke-width:1; stroke:black; " description="&lt;b&gt;FHS34_RS26535&lt;/b&gt;&lt;br&gt;amino acid permease&lt;br&gt;Location: 149378 - 147897" locus_tag="FHS34_RS26535" class="clusterblast-orf" id="dummy-24_h24_6_12"  />
</g>
<g id="a24_0013"  >
<polygon points="143,85 147,80 147,90 143,85 " style="fill:white; stroke-width:1; stroke:black; " description="&lt;b&gt;FHS34_RS26530&lt;/b&gt;&lt;br&gt;ATP-binding protein&lt;br&gt;Location: 147937 - 147485" locus_tag="FHS34_RS26530" class="clusterblast-orf" id="dummy-24_h24_6_13"  />
</g>
<g id="a24_0014"  >
<polygon points="150,90 152,90 157,85 152,80 150,80 150,90 " style="fill:white; stroke-width:1; stroke:black; " description="&lt;b&gt;FHS34_RS26525&lt;/b&gt;&lt;br&gt;enoyl-CoA hydratase family protein&lt;br&gt;Location: 147189 - 146362" locus_tag="FHS34_RS26525" class="clusterblast-orf" id="dummy-24_h24_6_14"  />
</g>
<g id="a24_0015"  >
<polygon points="157,90 172,90 177,85 172,80 157,80 157,90 " style="fill:white; stroke-width:1; stroke:black; " description="&lt;b&gt;FHS34_RS26520&lt;/b&gt;&lt;br&gt;bifunctional salicylyl-CoA 5-hydroxylase/oxidoreductase&lt;br&gt;Location: 146355 - 144088" locus_tag="FHS34_RS26520" class="clusterblast-orf" id="dummy-24_h24_6_15"  />
</g>
<g id="a24_0016"  >
<polygon points="178,85 183,80 185,80 185,90 183,90 178,85 " style="fill:#d81515; stroke-width:1; stroke:black; " description="&lt;b&gt;FHS34_RS26515&lt;/b&gt;&lt;br&gt;PaaX family transcriptional regulator&lt;br&gt;Location: 143970 - 143158&lt;br&gt;&lt;br&gt;&lt;b&gt;BlastP hit with LLPMBPKK_06036&lt;/b&gt;&lt;br&gt;Percentage identity: 94&lt;br&gt;Percentage coverage: 100&lt;br&gt;BLAST bit score: 516&lt;br&gt;E-value: 3.04e-186" locus_tag="FHS34_RS26515" class="clusterblast-orf" id="dummy-24_h24_6_16"  />
</g>
<g id="a24_0017"  >
<polygon points="185,85 190,80 200,80 200,90 190,90 185,85 " style="fill:#77d815; stroke-width:1; stroke:black; " description="&lt;b&gt;FHS34_RS26510&lt;/b&gt;&lt;br&gt;AMP-binding protein&lt;br&gt;Location: 143142 - 141550&lt;br&gt;&lt;br&gt;&lt;b&gt;BlastP hit with LLPMBPKK_06037&lt;/b&gt;&lt;br&gt;Percentage identity: 91&lt;br&gt;Percentage coverage: 100&lt;br&gt;BLAST bit score: 1003&lt;br&gt;E-value: 0.0" locus_tag="FHS34_RS26510" class="clusterblast-orf" id="dummy-24_h24_6_17"  />
</g>
<g id="a24_0018"  >
<polygon points="201,90 206,90 211,85 206,80 201,80 201,90 " style="fill:#15d8d8; stroke-width:1; stroke:black; " description="&lt;b&gt;FHS34_RS26505&lt;/b&gt;&lt;br&gt;acyl-CoA dehydrogenase family protein&lt;br&gt;Location: 141347 - 140217&lt;br&gt;&lt;br&gt;&lt;b&gt;BlastP hit with LLPMBPKK_06038&lt;/b&gt;&lt;br&gt;Percentage identity: 93&lt;br&gt;Percentage coverage: 100&lt;br&gt;BLAST bit score: 664&lt;br&gt;E-value: 2.32e-241" locus_tag="FHS34_RS26505" class="clusterblast-orf" id="dummy-24_h24_6_18"  />
</g>
<g id="a24_0019"  >
<polygon points="211,90 215,85 211,80 211,90 " style="fill:#7715d8; stroke-width:1; stroke:black; " description="&lt;b&gt;FHS34_RS26500&lt;/b&gt;&lt;br&gt;RidA family protein&lt;br&gt;Location: 140220 - 139822&lt;br&gt;&lt;br&gt;&lt;b&gt;BlastP hit with LLPMBPKK_06039&lt;/b&gt;&lt;br&gt;Percentage identity: 90&lt;br&gt;Percentage coverage: 100&lt;br&gt;BLAST bit score: 238&lt;br&gt;E-value: 1.43e-80" locus_tag="FHS34_RS26500" class="clusterblast-orf" id="dummy-24_h24_6_19"  />
</g>
<g id="a24_0020"  >
<polygon points="217,90 220,85 217,80 217,90 " style="fill:#d84615; stroke-width:1; stroke:black; " description="&lt;b&gt;FHS34_RS26495&lt;/b&gt;&lt;br&gt;hypothetical protein&lt;br&gt;Location: 139605 - 139186&lt;br&gt;&lt;br&gt;&lt;b&gt;BlastP hit with LLPMBPKK_06040&lt;/b&gt;&lt;br&gt;Percentage identity: 71&lt;br&gt;Percentage coverage: 99&lt;br&gt;BLAST bit score: 197&lt;br&gt;E-value: 1.9e-64" locus_tag="FHS34_RS26495" class="clusterblast-orf" id="dummy-24_h24_6_20"  />
</g>
<g id="a24_0021"  >
<polygon points="222,85 227,80 229,80 229,90 227,90 222,85 " style="fill:#46d815; stroke-width:1; stroke:black; " description="&lt;b&gt;FHS34_RS26490&lt;/b&gt;&lt;br&gt;GntR family transcriptional regulator&lt;br&gt;Location: 139024 - 138209&lt;br&gt;&lt;br&gt;&lt;b&gt;BlastP hit with LLPMBPKK_06041&lt;/b&gt;&lt;br&gt;Percentage identity: 93&lt;br&gt;Percentage coverage: 99&lt;br&gt;BLAST bit score: 493&lt;br&gt;E-value: 7.35e-177" locus_tag="FHS34_RS26490" class="clusterblast-orf" id="dummy-24_h24_6_21"  />
</g>
<g id="a24_0022"  >
<polygon points="232,90 238,90 243,85 238,80 232,80 232,90 " style="fill:#15a7d8; stroke-width:1; stroke:black; " description="&lt;b&gt;FHS34_RS26485&lt;/b&gt;&lt;br&gt;extracellular solute-binding protein&lt;br&gt;Location: 137905 - 136625&lt;br&gt;&lt;br&gt;&lt;b&gt;BlastP hit with LLPMBPKK_06042&lt;/b&gt;&lt;br&gt;Percentage identity: 94&lt;br&gt;Percentage coverage: 100&lt;br&gt;BLAST bit score: 803&lt;br&gt;E-value: 1.51e-294" locus_tag="FHS34_RS26485" class="clusterblast-orf" id="dummy-24_h24_6_22"  />
</g>
<g id="a24_0023"  >
<polygon points="244,90 248,90 253,85 248,80 244,80 244,90 " style="fill:#a715d8; stroke-width:1; stroke:black; " description="&lt;b&gt;FHS34_RS26480&lt;/b&gt;&lt;br&gt;sugar ABC transporter permease&lt;br&gt;Location: 136524 - 135529&lt;br&gt;&lt;br&gt;&lt;b&gt;BlastP hit with LLPMBPKK_06043&lt;/b&gt;&lt;br&gt;Percentage identity: 86&lt;br&gt;Percentage coverage: 100&lt;br&gt;BLAST bit score: 571&lt;br&gt;E-value: 5.58e-206" locus_tag="FHS34_RS26480" class="clusterblast-orf" id="dummy-24_h24_6_23"  />
</g>
<g id="a24_0024"  >
<polygon points="253,90 255,90 260,85 255,80 253,80 253,90 " style="fill:#d87715; stroke-width:1; stroke:black; " description="&lt;b&gt;FHS34_RS26475&lt;/b&gt;&lt;br&gt;carbohydrate ABC transporter permease&lt;br&gt;Location: 135532 - 134702&lt;br&gt;&lt;br&gt;&lt;b&gt;BlastP hit with LLPMBPKK_06044&lt;/b&gt;&lt;br&gt;Percentage identity: 94&lt;br&gt;Percentage coverage: 100&lt;br&gt;BLAST bit score: 510&lt;br&gt;E-value: 1.33e-183" locus_tag="FHS34_RS26475" class="clusterblast-orf" id="dummy-24_h24_6_24"  />
</g>
<g id="a24_0025"  >
<polygon points="260,90 268,90 273,85 268,80 260,80 260,90 " style="fill:#15d815; stroke-width:1; stroke:black; " description="&lt;b&gt;FHS34_RS26470&lt;/b&gt;&lt;br&gt;glycoside hydrolase family 3 protein&lt;br&gt;Location: 134693 - 133182&lt;br&gt;&lt;br&gt;&lt;b&gt;BlastP hit with LLPMBPKK_06045&lt;/b&gt;&lt;br&gt;Percentage identity: 91&lt;br&gt;Percentage coverage: 99&lt;br&gt;BLAST bit score: 891&lt;br&gt;E-value: 0.0" locus_tag="FHS34_RS26470" class="clusterblast-orf" id="dummy-24_h24_6_25"  />
</g>
<g id="a24_0026"  >
<polygon points="275,90 279,90 284,85 279,80 275,80 275,90 " style="fill:#1577d8; stroke-width:1; stroke:black; " description="&lt;b&gt;FHS34_RS26465&lt;/b&gt;&lt;br&gt;phytanoyl-CoA dioxygenase family protein&lt;br&gt;Location: 133022 - 131994&lt;br&gt;&lt;br&gt;&lt;b&gt;BlastP hit with LLPMBPKK_06046&lt;/b&gt;&lt;br&gt;Percentage identity: 90&lt;br&gt;Percentage coverage: 100&lt;br&gt;BLAST bit score: 648&lt;br&gt;E-value: 6.2e-236" locus_tag="FHS34_RS26465" class="clusterblast-orf" id="dummy-24_h24_6_26"  />
</g>
<g id="a24_0027"  >
<polygon points="284,90 290,90 295,85 290,80 284,80 284,90 " style="fill:#d815d8; stroke-width:1; stroke:black; " description="&lt;b&gt;FHS34_RS26460&lt;/b&gt;&lt;br&gt;hypothetical protein&lt;br&gt;Location: 131997 - 130708&lt;br&gt;&lt;br&gt;&lt;b&gt;BlastP hit with LLPMBPKK_06047&lt;/b&gt;&lt;br&gt;Percentage identity: 81&lt;br&gt;Percentage coverage: 100&lt;br&gt;BLAST bit score: 698&lt;br&gt;E-value: 7.66e-253" locus_tag="FHS34_RS26460" class="clusterblast-orf" id="dummy-24_h24_6_27"  />
</g>
<g id="a24_0028"  >
<polygon points="295,90 302,90 307,85 302,80 295,80 295,90 " style="fill:#d8a715; stroke-width:1; stroke:black; " description="&lt;b&gt;FHS34_RS26455&lt;/b&gt;&lt;br&gt;type III PLP-dependent enzyme&lt;br&gt;Location: 130711 - 129395&lt;br&gt;&lt;br&gt;&lt;b&gt;BlastP hit with LLPMBPKK_06048&lt;/b&gt;&lt;br&gt;Percentage identity: 81&lt;br&gt;Percentage coverage: 99&lt;br&gt;BLAST bit score: 624&lt;br&gt;E-value: 2.42e-224" locus_tag="FHS34_RS26455" class="clusterblast-orf" id="dummy-24_h24_6_28"  />
</g>
<g id="a24_0029"  >
<polygon points="307,90 311,85 307,80 307,90 " style="fill:white; stroke-width:1; stroke:black; " description="&lt;b&gt;FHS34_RS26450&lt;/b&gt;&lt;br&gt;GNAT family N-acetyltransferase&lt;br&gt;Location: 129393 - 128866" locus_tag="FHS34_RS26450" class="clusterblast-orf" id="dummy-24_h24_6_29"  />
</g>
<g id="a24_0030"  >
<polygon points="311,90 317,90 322,85 317,80 311,80 311,90 " style="fill:#15d846; stroke-width:1; stroke:black; " description="&lt;b&gt;FHS34_RS26445&lt;/b&gt;&lt;br&gt;MFS transporter&lt;br&gt;Location: 128866 - 127694&lt;br&gt;&lt;br&gt;&lt;b&gt;BlastP hit with LLPMBPKK_06049&lt;/b&gt;&lt;br&gt;Percentage identity: 86&lt;br&gt;Percentage coverage: 98&lt;br&gt;BLAST bit score: 594&lt;br&gt;E-value: 3.38e-213" locus_tag="FHS34_RS26445" class="clusterblast-orf" id="dummy-24_h24_6_30"  />
</g>
<g id="a24_0031"  >
<polygon points="322,85 327,80 331,80 331,90 327,90 322,85 " style="fill:#1546d8; stroke-width:1; stroke:black; " description="&lt;b&gt;FHS34_RS26440&lt;/b&gt;&lt;br&gt;2,3-diaminopropionate biosynthesis protein SbnA&lt;br&gt;Location: 127632 - 126607&lt;br&gt;&lt;br&gt;&lt;b&gt;BlastP hit with LLPMBPKK_06050&lt;/b&gt;&lt;br&gt;Percentage identity: 90&lt;br&gt;Percentage coverage: 99&lt;br&gt;BLAST bit score: 620&lt;br&gt;E-value: 4.97e-225" locus_tag="FHS34_RS26440" class="clusterblast-orf" id="dummy-24_h24_6_31"  />
</g>
<g id="a24_0032"  >
<polygon points="332,85 337,80 341,80 341,90 337,90 332,85 " style="fill:#d815a7; stroke-width:1; stroke:black; " description="&lt;b&gt;FHS34_RS26435&lt;/b&gt;&lt;br&gt;2,3-diaminopropionate biosynthesis protein SbnB&lt;br&gt;Location: 126576 - 125506&lt;br&gt;&lt;br&gt;&lt;b&gt;BlastP hit with LLPMBPKK_06051&lt;/b&gt;&lt;br&gt;Percentage identity: 85&lt;br&gt;Percentage coverage: 100&lt;br&gt;BLAST bit score: 611&lt;br&gt;E-value: 7.45e-221" locus_tag="FHS34_RS26435" class="clusterblast-orf" id="dummy-24_h24_6_32"  />
</g>
<g id="a24_0033"  >
<polygon points="341,85 346,80 350,80 350,90 346,90 341,85 " style="fill:#d8d815; stroke-width:1; stroke:black; " description="&lt;b&gt;FHS34_RS26430&lt;/b&gt;&lt;br&gt;TauD/TfdA family dioxygenase&lt;br&gt;Location: 125509 - 124508&lt;br&gt;&lt;br&gt;&lt;b&gt;BlastP hit with LLPMBPKK_06052&lt;/b&gt;&lt;br&gt;Percentage identity: 84&lt;br&gt;Percentage coverage: 100&lt;br&gt;BLAST bit score: 577&lt;br&gt;E-value: 4.79e-208" locus_tag="FHS34_RS26430" class="clusterblast-orf" id="dummy-24_h24_6_33"  />
</g>
<g id="a24_0034"  >
<polygon points="350,85 355,80 379,80 379,90 355,90 350,85 " style="fill:#15d877; stroke-width:1; stroke:black; " description="&lt;b&gt;FHS34_RS26425&lt;/b&gt;&lt;br&gt;amino acid adenylation domain-containing protein&lt;br&gt;Location: 124464 - 121192&lt;br&gt;&lt;br&gt;&lt;b&gt;BlastP hit with LLPMBPKK_06053&lt;/b&gt;&lt;br&gt;Percentage identity: 86&lt;br&gt;Percentage coverage: 101&lt;br&gt;BLAST bit score: 1817&lt;br&gt;E-value: 0.0" locus_tag="FHS34_RS26425" class="clusterblast-orf" id="dummy-24_h24_6_34"  />
</g>
<g id="a24_0035"  >
<polygon points="379,85 384,80 402,80 402,90 384,90 379,85 " style="fill:#1515d8; stroke-width:1; stroke:black; " description="&lt;b&gt;FHS34_RS26420&lt;/b&gt;&lt;br&gt;peptide synthetase&lt;br&gt;Location: 121179 - 118594&lt;br&gt;&lt;br&gt;&lt;b&gt;BlastP hit with LLPMBPKK_06054&lt;/b&gt;&lt;br&gt;Percentage identity: 79&lt;br&gt;Percentage coverage: 101&lt;br&gt;BLAST bit score: 1189&lt;br&gt;E-value: 0.0" locus_tag="FHS34_RS26420" class="clusterblast-orf" id="dummy-24_h24_6_35"  />
</g>
<g id="a24_0036"  >
<polygon points="410,90 413,85 410,80 410,90 " style="fill:white; stroke-width:1; stroke:black; " description="&lt;b&gt;FHS34_RS26415&lt;/b&gt;&lt;br&gt;DoxX family protein&lt;br&gt;Location: 117677 - 117321" locus_tag="FHS34_RS26415" class="clusterblast-orf" id="dummy-24_h24_6_36"  />
</g>
<g id="a24_0037"  >
<polygon points="415,85 420,80 429,80 429,90 420,90 415,85 " style="fill:white; stroke-width:1; stroke:black; " description="&lt;b&gt;FHS34_RS26410&lt;/b&gt;&lt;br&gt;acyl--CoA ligase&lt;br&gt;Location: 117193 - 115583" locus_tag="FHS34_RS26410" class="clusterblast-orf" id="dummy-24_h24_6_37"  />
</g>
<g id="a24_0038"  >
<polygon points="429,85 434,80 439,80 439,90 434,90 429,85 " style="fill:white; stroke-width:1; stroke:black; " description="&lt;b&gt;FHS34_RS26405&lt;/b&gt;&lt;br&gt;polyprenyl synthetase family protein&lt;br&gt;Location: 115529 - 114390" locus_tag="FHS34_RS26405" class="clusterblast-orf" id="dummy-24_h24_6_38"  />
</g>
<g id="a24_0039"  >
<polygon points="440,85 445,80 448,80 448,90 445,90 440,85 " style="fill:white; stroke-width:1; stroke:black; " description="&lt;b&gt;FHS34_RS26400&lt;/b&gt;&lt;br&gt;4-hydroxy-3-methylbut-2-enyl diphosphate reductase&lt;br&gt;Location: 114266 - 113346" locus_tag="FHS34_RS26400" class="clusterblast-orf" id="dummy-24_h24_6_39"  />
</g>
<g id="a24_0040"  >
<polygon points="453,90 453,90 458,85 453,80 453,80 453,90 " style="fill:white; stroke-width:1; stroke:black; " description="&lt;b&gt;FHS34_RS26395&lt;/b&gt;&lt;br&gt;cupin domain-containing protein&lt;br&gt;Location: 112865 - 112317" locus_tag="FHS34_RS26395" class="clusterblast-orf" id="dummy-24_h24_6_40"  />
</g>
<g id="a24_0041"  >
<polygon points="458,90 463,90 468,85 463,80 458,80 458,90 " style="fill:white; stroke-width:1; stroke:black; " description="&lt;b&gt;FHS34_RS26390&lt;/b&gt;&lt;br&gt;DegT/DnrJ/EryC1/StrS family aminotransferase&lt;br&gt;Location: 112270 - 111119" locus_tag="FHS34_RS26390" class="clusterblast-orf" id="dummy-24_h24_6_41"  />
</g>
<g id="a24_0042"  >
<polygon points="469,90 482,90 487,85 482,80 469,80 469,90 " style="fill:white; stroke-width:1; stroke:black; " description="&lt;b&gt;FHS34_RS26385&lt;/b&gt;&lt;br&gt;FAD/NAD(P)-binding protein&lt;br&gt;Location: 111018 - 109024" locus_tag="FHS34_RS26385" class="clusterblast-orf" id="dummy-24_h24_6_42"  />
</g>
<g id="a24_0043"  >
<polygon points="487,90 495,90 500,85 495,80 487,80 487,90 " style="fill:white; stroke-width:1; stroke:black; " description="&lt;b&gt;FHS34_RS26380&lt;/b&gt;&lt;br&gt;3-carboxy-cis,cis-muconate cycloisomerase&lt;br&gt;Location: 109027 - 107561" locus_tag="FHS34_RS26380" class="clusterblast-orf" id="dummy-24_h24_6_43"  />
</g>
<g id="a24_0044"  >
<polygon points="500,90 505,90 510,85 505,80 500,80 500,90 " style="fill:white; stroke-width:1; stroke:black; " description="&lt;b&gt;FHS34_RS26375&lt;/b&gt;&lt;br&gt;type III polyketide synthase&lt;br&gt;Location: 107497 - 106370" locus_tag="FHS34_RS26375" class="clusterblast-orf" id="dummy-24_h24_6_44"  />
</g>
<g id="a24_0045"  >
<polygon points="510,90 514,90 519,85 514,80 510,80 510,90 " style="fill:white; stroke-width:1; stroke:black; " description="&lt;b&gt;FHS34_RS26370&lt;/b&gt;&lt;br&gt;class I SAM-dependent methyltransferase&lt;br&gt;Location: 106373 - 105339" locus_tag="FHS34_RS26370" class="clusterblast-orf" id="dummy-24_h24_6_45"  />
</g>
<g id="a24_0046"  >
<polygon points="521,85 526,80 530,80 530,90 526,90 521,85 " style="fill:white; stroke-width:1; stroke:black; " description="&lt;b&gt;FHS34_RS26365&lt;/b&gt;&lt;br&gt;AfsR/SARP family transcriptional regulator&lt;br&gt;Location: 105184 - 104117" locus_tag="FHS34_RS26365" class="clusterblast-orf" id="dummy-24_h24_6_46"  />
</g>
<g id="a24_0047"  >
<polygon points="532,85 537,80 551,80 551,90 537,90 532,85 " style="fill:white; stroke-width:1; stroke:black; " description="&lt;b&gt;FHS34_RS26360&lt;/b&gt;&lt;br&gt;MMPL family transporter&lt;br&gt;Location: 103885 - 101774" locus_tag="FHS34_RS26360" class="clusterblast-orf" id="dummy-24_h24_6_47"  />
</g>
<g id="a24_0048"  >
<polygon points="551,85 556,80 566,80 566,90 556,90 551,85 " style="fill:white; stroke-width:1; stroke:black; " description="&lt;b&gt;FHS34_RS26355&lt;/b&gt;&lt;br&gt;terpene cyclase/mutase family protein&lt;br&gt;Location: 101679 - 100042" locus_tag="FHS34_RS26355" class="clusterblast-orf" id="dummy-24_h24_6_48"  />
</g>
<g id="a24_0049"  >
<polygon points="567,85 572,80 581,80 581,90 572,90 567,85 " style="fill:white; stroke-width:1; stroke:black; " description="&lt;b&gt;FHS34_RS26350&lt;/b&gt;&lt;br&gt;FAD-binding oxidoreductase&lt;br&gt;Location: 99881 - 98364" locus_tag="FHS34_RS26350" class="clusterblast-orf" id="dummy-24_h24_6_49"  />
</g>
<g id="a24_0050"  >
<polygon points="581,85 586,80 597,80 597,90 586,90 581,85 " style="fill:white; stroke-width:1; stroke:black; " description="&lt;b&gt;FHS34_RS26345&lt;/b&gt;&lt;br&gt;FAD-dependent monooxygenase&lt;br&gt;Location: 98314 - 96533" locus_tag="FHS34_RS26345" class="clusterblast-orf" id="dummy-24_h24_6_50"  />
</g>
<g id="a24_0051"  >
<polygon points="598,85 603,80 606,80 606,90 603,90 598,85 " style="fill:white; stroke-width:1; stroke:black; " description="&lt;b&gt;FHS34_RS26340&lt;/b&gt;&lt;br&gt;prenyltransferase&lt;br&gt;Location: 96435 - 95503" locus_tag="FHS34_RS26340" class="clusterblast-orf" id="dummy-24_h24_6_51"  />
</g>
<g id="a24_0052"  >
<polygon points="607,85 612,80 623,80 623,90 612,90 607,85 " style="fill:white; stroke-width:1; stroke:black; " description="&lt;b&gt;FHS34_RS26335&lt;/b&gt;&lt;br&gt;winged helix-turn-helix domain-containing protein&lt;br&gt;Location: 95409 - 93568" locus_tag="FHS34_RS26335" class="clusterblast-orf" id="dummy-24_h24_6_52"  />
</g>
<g id="a24_0053"  >
<polygon points="625,90 627,85 625,80 625,90 " style="fill:white; stroke-width:1; stroke:black; " description="&lt;b&gt;FHS34_RS26330&lt;/b&gt;&lt;br&gt;hypothetical protein&lt;br&gt;Location: 93344 - 93168" locus_tag="FHS34_RS26330" class="clusterblast-orf" id="dummy-24_h24_6_53"  />
</g>
<g id="a24_0054"  >
<polygon points="627,85 632,80 654,80 654,90 632,90 627,85 " style="fill:white; stroke-width:1; stroke:black; " description="&lt;b&gt;FHS34_RS26325&lt;/b&gt;&lt;br&gt;winged helix-turn-helix domain-containing protein&lt;br&gt;Location: 93099 - 90076" locus_tag="FHS34_RS26325" class="clusterblast-orf" id="dummy-24_h24_6_54"  />
</g>
<g id="a24_0055"  >
<polygon points="655,85 660,80 679,80 679,90 660,90 655,85 " style="fill:white; stroke-width:1; stroke:black; " description="&lt;b&gt;FHS34_RS26320&lt;/b&gt;&lt;br&gt;AMP-binding protein&lt;br&gt;Location: 89956 - 87272" locus_tag="FHS34_RS26320" class="clusterblast-orf" id="dummy-24_h24_6_55"  />
</g>
<g id="a24_0056"  >
<polygon points="681,90 681,90 686,85 681,80 681,80 681,90 " style="fill:white; stroke-width:1; stroke:black; " description="&lt;b&gt;FHS34_RS26315&lt;/b&gt;&lt;br&gt;hypothetical protein&lt;br&gt;Location: 86974 - 86441" locus_tag="FHS34_RS26315" class="clusterblast-orf" id="dummy-24_h24_6_56"  />
</g>
<g id="a24_0057"  >
<polygon points="688,90 691,90 696,85 691,80 688,80 688,90 " style="fill:white; stroke-width:1; stroke:black; " description="&lt;b&gt;FHS34_RS26310&lt;/b&gt;&lt;br&gt;asparaginase&lt;br&gt;Location: 86260 - 85262" locus_tag="FHS34_RS26310" class="clusterblast-orf" id="dummy-24_h24_6_57"  />
</g>
<g id="a24_0058"  >
<polygon points="703,90 736,90 741,85 736,80 703,80 703,90 " style="fill:white; stroke-width:1; stroke:black; " description="&lt;b&gt;FHS34_RS26305&lt;/b&gt;&lt;br&gt;BREX system serine/threonine kinase PglW&lt;br&gt;Location: 84544 - 80180" locus_tag="FHS34_RS26305" class="clusterblast-orf" id="dummy-24_h24_6_58"  />
</g>
<g id="a24_0059"  >
<polygon points="742,90 749,90 754,85 749,80 742,80 742,90 " style="fill:white; stroke-width:1; stroke:black; " description="&lt;b&gt;FHS34_RS26300&lt;/b&gt;&lt;br&gt;hypothetical protein&lt;br&gt;Location: 80131 - 78716" locus_tag="FHS34_RS26300" class="clusterblast-orf" id="dummy-24_h24_6_59"  />
</g>
<g id="a24_0060"  >
<polygon points="754,85 759,80 767,80 767,90 759,90 754,85 " style="fill:white; stroke-width:1; stroke:black; " description="&lt;b&gt;FHS34_RS26295&lt;/b&gt;&lt;br&gt;hypothetical protein&lt;br&gt;Location: 78679 - 77234" locus_tag="FHS34_RS26295" class="clusterblast-orf" id="dummy-24_h24_6_60"  />
</g>
<g id="a24_0061"  >
<polygon points="767,85 772,80 780,80 780,90 772,90 767,85 " style="fill:white; stroke-width:1; stroke:black; " description="&lt;b&gt;FHS34_RS26290&lt;/b&gt;&lt;br&gt;AAA family ATPase&lt;br&gt;Location: 77237 - 75846" locus_tag="FHS34_RS26290" class="clusterblast-orf" id="dummy-24_h24_6_61"  />
</g>
</svg>
