<svg xmlns="http://www.w3.org/2000/svg" xmlns:xlink="http://www.w3.org/1999/xlink" version="1.1" x="0" y="0" height="230" width="800" viewBox="0 0 800 230" preserveAspectRatio="none"  >
<g label="Query sequence" class="clusterblast-cluster"  >
<text x="5" y="20" class="clusterblast-acc"  >
Query sequence</text>
<line x1="10" y1="35" x2="778.0" y2="35" style="stroke-width:1; stroke:grey; "  />
<polygon points="0,35 5,30 29,30 29,40 5,40 0,35 " style="fill:#d81515; stroke-width:1; stroke:black; " description="&lt;b&gt;LLPMBPKK_06758&lt;/b&gt;&lt;br&gt;cation transporter&lt;br&gt;Location: 7791080 - 7792022" locus_tag="LLPMBPKK_06758" class="clusterblast-orf" id="dummy-29_q0_0_all"  />
<polygon points="35,35 40,30 65,30 65,40 40,40 35,35 " style="fill:#6ad815; stroke-width:1; stroke:black; " description="&lt;b&gt;LLPMBPKK_06759&lt;/b&gt;&lt;br&gt;UDP-glucose 4-epimerase GalE&lt;br&gt;Location: 7792229 - 7793201" locus_tag="LLPMBPKK_06759" class="clusterblast-orf" id="dummy-29_q1_0_all"  />
<polygon points="73,40 123,40 128,35 123,30 73,30 73,40 " style="fill:#15bfd8; stroke-width:1; stroke:black; " description="&lt;b&gt;LLPMBPKK_06760&lt;/b&gt;&lt;br&gt;CDP-alcohol phosphatidyltransferase familyprotein&lt;br&gt;Location: 7793467 - 7795288" locus_tag="LLPMBPKK_06760" class="clusterblast-orf" id="dummy-29_q2_0_all"  />
<polygon points="128,40 146,40 151,35 146,30 128,30 128,40 " style="fill:#9d15d8; stroke-width:1; stroke:black; " description="&lt;b&gt;LLPMBPKK_06761&lt;/b&gt;&lt;br&gt;phosphocholine cytidylyltransferase familyprotein&lt;br&gt;Location: 7795284 - 7796037" locus_tag="LLPMBPKK_06761" class="clusterblast-orf" id="dummy-29_q3_0_all"  />
<polygon points="151,40 178,40 183,35 178,30 151,30 151,40 " style="fill:#d84815; stroke-width:1; stroke:black; " description="&lt;b&gt;LLPMBPKK_06762&lt;/b&gt;&lt;br&gt;iron-containing alcohol dehydrogenase familyprotein&lt;br&gt;Location: 7796024 - 7797086" locus_tag="LLPMBPKK_06762" class="clusterblast-orf" id="dummy-29_q4_0_all"  />
<polygon points="185,40 201,40 206,35 201,30 185,30 185,40 " style="fill:#37d815; stroke-width:1; stroke:black; " description="&lt;b&gt;LLPMBPKK_06763&lt;/b&gt;&lt;br&gt;transferase&lt;br&gt;Location: 7797159 - 7797843" locus_tag="LLPMBPKK_06763" class="clusterblast-orf" id="dummy-29_q5_0_all"  />
<polygon points="207,40 228,40 233,35 228,30 207,30 207,40 " style="fill:#158cd8; stroke-width:1; stroke:black; " description="&lt;b&gt;LLPMBPKK_06764&lt;/b&gt;&lt;br&gt;glycosyltransferase family 2 protein&lt;br&gt;Location: 7797851 - 7798724" locus_tag="LLPMBPKK_06764" class="clusterblast-orf" id="dummy-29_q6_0_all"  />
<polygon points="236,40 259,40 264,35 259,30 236,30 236,40 " style="fill:#d015d8; stroke-width:1; stroke:black; " description="&lt;b&gt;LLPMBPKK_06765&lt;/b&gt;&lt;br&gt;ABC transporter&lt;br&gt;Location: 7798813 - 7799743" locus_tag="LLPMBPKK_06765" class="clusterblast-orf" id="dummy-29_q7_0_all"  />
<polygon points="264,40 283,40 288,35 283,30 264,30 264,40 " style="fill:#d87b15; stroke-width:1; stroke:black; " description="&lt;b&gt;LLPMBPKK_06766&lt;/b&gt;&lt;br&gt;ABC transporter ATP-binding protein&lt;br&gt;Location: 7799735 - 7800524" locus_tag="LLPMBPKK_06766" class="clusterblast-orf" id="dummy-29_q8_0_all"  />
<polygon points="299,40 322,40 327,35 322,30 299,30 299,40 " style="fill:#15d826; stroke-width:1; stroke:black; " description="&lt;b&gt;LLPMBPKK_06767&lt;/b&gt;&lt;br&gt;squalene synthase HpnC&lt;br&gt;Location: 7800884 - 7801781" locus_tag="LLPMBPKK_06767" class="clusterblast-orf" id="dummy-29_q9_0_all"  />
<polygon points="327,40 351,40 356,35 351,30 327,30 327,40 " style="fill:#15d826; stroke-width:1; stroke:black; " description="&lt;b&gt;LLPMBPKK_06768&lt;/b&gt;&lt;br&gt;presqualene diphosphate synthase HpnD&lt;br&gt;Location: 7801777 - 7802740" locus_tag="LLPMBPKK_06768" class="clusterblast-orf" id="dummy-29_q10_0_all"  />
<polygon points="363,40 402,40 407,35 402,30 363,30 363,40 " style="fill:#1559d8; stroke-width:1; stroke:black; " description="&lt;b&gt;LLPMBPKK_06769&lt;/b&gt;&lt;br&gt;FAD-dependent oxidoreductase&lt;br&gt;Location: 7802978 - 7804406" locus_tag="LLPMBPKK_06769" class="clusterblast-orf" id="dummy-29_q11_0_all"  />
<polygon points="407,40 436,40 441,35 436,30 407,30 407,40 " style="fill:#d815ae; stroke-width:1; stroke:black; " description="&lt;b&gt;LLPMBPKK_06770&lt;/b&gt;&lt;br&gt;polyprenyl synthetase family protein&lt;br&gt;Location: 7804405 - 7805539" locus_tag="LLPMBPKK_06770" class="clusterblast-orf" id="dummy-29_q12_0_all"  />
<polygon points="445,40 502,40 507,35 502,30 445,30 445,40 " style="fill:#d8ae15; stroke-width:1; stroke:black; " description="&lt;b&gt;LLPMBPKK_06771&lt;/b&gt;&lt;br&gt;squalene--hopene cyclase&lt;br&gt;Location: 7805655 - 7807686" locus_tag="LLPMBPKK_06771" class="clusterblast-orf" id="dummy-29_q13_0_all"  />
<polygon points="507,40 522,40 527,35 522,30 507,30 507,40 " style="fill:#15d859; stroke-width:1; stroke:black; " description="&lt;b&gt;LLPMBPKK_06772&lt;/b&gt;&lt;br&gt;lipoprotein&lt;br&gt;Location: 7807682 - 7808324" locus_tag="LLPMBPKK_06772" class="clusterblast-orf" id="dummy-29_q14_0_all"  />
<polygon points="527,40 553,40 558,35 553,30 527,30 527,40 " style="fill:#1526d8; stroke-width:1; stroke:black; " description="&lt;b&gt;LLPMBPKK_06773&lt;/b&gt;&lt;br&gt;adenosyl-hopene transferase HpnH&lt;br&gt;Location: 7808329 - 7809352" locus_tag="LLPMBPKK_06773" class="clusterblast-orf" id="dummy-29_q15_0_all"  />
<polygon points="558,40 588,40 593,35 588,30 558,30 558,40 " style="fill:#d8157b; stroke-width:1; stroke:black; " description="&lt;b&gt;LLPMBPKK_06774&lt;/b&gt;&lt;br&gt;flavodoxin-dependent (E)-4-hydroxy-3-methylbut-2-enyl-diphosphate synthase&lt;br&gt;Location: 7809356 - 7810484" locus_tag="LLPMBPKK_06774" class="clusterblast-orf" id="dummy-29_q16_0_all"  />
<polygon points="594,40 647,40 652,35 647,30 594,30 594,40 " style="fill:#d0d815; stroke-width:1; stroke:black; " description="&lt;b&gt;LLPMBPKK_06775&lt;/b&gt;&lt;br&gt;1-deoxy-D-xylulose-5-phosphate synthase&lt;br&gt;Location: 7810521 - 7812420" locus_tag="LLPMBPKK_06775" class="clusterblast-orf" id="dummy-29_q17_0_all"  />
<polygon points="652,40 689,40 694,35 689,30 652,30 652,40 " style="fill:#15d88c; stroke-width:1; stroke:black; " description="&lt;b&gt;LLPMBPKK_06776&lt;/b&gt;&lt;br&gt;aspartate aminotransferase family protein&lt;br&gt;Location: 7812416 - 7813802" locus_tag="LLPMBPKK_06776" class="clusterblast-orf" id="dummy-29_q18_0_all"  />
<polygon points="694,35 699,30 703,30 703,40 699,40 694,35 " style="fill:#3715d8; stroke-width:1; stroke:black; " description="&lt;b&gt;LLPMBPKK_06777&lt;/b&gt;&lt;br&gt;hypothetical protein&lt;br&gt;Location: 7813812 - 7814088" locus_tag="LLPMBPKK_06777" class="clusterblast-orf" id="dummy-29_q19_0_all"  />
<polygon points="707,40 721,40 726,35 721,30 707,30 707,40 " style="fill:#d81548; stroke-width:1; stroke:black; " description="&lt;b&gt;LLPMBPKK_06778&lt;/b&gt;&lt;br&gt;XRE family transcriptional regulator&lt;br&gt;Location: 7814226 - 7814856" locus_tag="LLPMBPKK_06778" class="clusterblast-orf" id="dummy-29_q20_0_all"  />
<polygon points="726,40 730,35 726,30 726,40 " style="fill:#9dd815; stroke-width:1; stroke:black; " description="&lt;b&gt;LLPMBPKK_06779&lt;/b&gt;&lt;br&gt;small hydrophobic hypothetical protein&lt;br&gt;Location: 7814852 - 7814975" locus_tag="LLPMBPKK_06779" class="clusterblast-orf" id="dummy-29_q21_0_all"  />
<polygon points="731,40 750,40 755,35 750,30 731,30 731,40 " style="fill:#15d8bf; stroke-width:1; stroke:black; " description="&lt;b&gt;LLPMBPKK_06780&lt;/b&gt;&lt;br&gt;hypothetical protein&lt;br&gt;Location: 7815004 - 7815805" locus_tag="LLPMBPKK_06780" class="clusterblast-orf" id="dummy-29_q22_0_all"  />
<polygon points="755,35 760,30 780,30 780,40 760,40 755,35 " style="fill:#6a15d8; stroke-width:1; stroke:black; " description="&lt;b&gt;LLPMBPKK_06781&lt;/b&gt;&lt;br&gt;tyrosine-protein phosphatase&lt;br&gt;Location: 7815818 - 7816616" locus_tag="LLPMBPKK_06781" class="clusterblast-orf" id="dummy-29_q23_0_all"  />
</g>
<g label="NZ_WWHG01000001" description="NZ_WWHG01000001 (5901528-5928300): Streptomyces sp. SID7810 SID7810.c1, whole... (100% of genes show similarity), terpene" class="clusterblast-cluster"  >
<text x="5" y="70" class="clusterblast-acc"  >
<a xlink:href="https://antismash-db.secondarymetabolites.org/area.html?record=NZ_WWHG01000001&amp;start=5901528&amp;end=5928300" target="_blank">NZ_WWHG01000001 (5901528-5928300)</a>: Streptomyces sp. SID7810 SID7810.c1, whole... (100% of genes show similarity), terpene</text>
<line x1="10" y1="85" x2="778.0" y2="85" style="stroke-width:1; stroke:grey; "  />
</g>
<g id="a29_000"  >
<polygon points="4,85 9,80 33,80 33,90 9,90 4,85 " style="fill:#d81515; stroke-width:1; stroke:black; " description="&lt;b&gt;GTW30_RS25750&lt;/b&gt;&lt;br&gt;cation transporter&lt;br&gt;Location: 5901727 - 5902668&lt;br&gt;&lt;br&gt;&lt;b&gt;BlastP hit with LLPMBPKK_06758&lt;/b&gt;&lt;br&gt;Percentage identity: 97&lt;br&gt;Percentage coverage: 100&lt;br&gt;BLAST bit score: 502&lt;br&gt;E-value: 2.5e-179" locus_tag="GTW30_RS25750" class="clusterblast-orf" id="dummy-29_h29_1_0"  />
</g>
<g id="a29_001"  >
<polygon points="39,85 44,80 69,80 69,90 44,90 39,85 " style="fill:#6ad815; stroke-width:1; stroke:black; " description="&lt;b&gt;GTW30_RS25755&lt;/b&gt;&lt;br&gt;UDP-glucose 4-epimerase GalE&lt;br&gt;Location: 5902864 - 5903835&lt;br&gt;&lt;br&gt;&lt;b&gt;BlastP hit with LLPMBPKK_06759&lt;/b&gt;&lt;br&gt;Percentage identity: 96&lt;br&gt;Percentage coverage: 100&lt;br&gt;BLAST bit score: 618&lt;br&gt;E-value: 1.05e-224" locus_tag="GTW30_RS25755" class="clusterblast-orf" id="dummy-29_h29_1_1"  />
</g>
<g id="a29_002"  >
<polygon points="77,90 128,90 133,85 128,80 77,80 77,90 " style="fill:#15bfd8; stroke-width:1; stroke:black; " description="&lt;b&gt;GTW30_RS25760&lt;/b&gt;&lt;br&gt;CDP-alcohol phosphatidyltransferase family protein&lt;br&gt;Location: 5904100 - 5905932&lt;br&gt;&lt;br&gt;&lt;b&gt;BlastP hit with LLPMBPKK_06760&lt;/b&gt;&lt;br&gt;Percentage identity: 93&lt;br&gt;Percentage coverage: 101&lt;br&gt;BLAST bit score: 1052&lt;br&gt;E-value: 0.0" locus_tag="GTW30_RS25760" class="clusterblast-orf" id="dummy-29_h29_1_2"  />
</g>
<g id="a29_003"  >
<polygon points="133,90 151,90 156,85 151,80 133,80 133,90 " style="fill:#9d15d8; stroke-width:1; stroke:black; " description="&lt;b&gt;GTW30_RS25765&lt;/b&gt;&lt;br&gt;phosphocholine cytidylyltransferase family protein&lt;br&gt;Location: 5905929 - 5906681&lt;br&gt;&lt;br&gt;&lt;b&gt;BlastP hit with LLPMBPKK_06761&lt;/b&gt;&lt;br&gt;Percentage identity: 98&lt;br&gt;Percentage coverage: 100&lt;br&gt;BLAST bit score: 493&lt;br&gt;E-value: 9.1e-178" locus_tag="GTW30_RS25765" class="clusterblast-orf" id="dummy-29_h29_1_3"  />
</g>
<g id="a29_004"  >
<polygon points="155,90 183,90 188,85 183,80 155,80 155,90 " style="fill:#d84815; stroke-width:1; stroke:black; " description="&lt;b&gt;GTW30_RS25770&lt;/b&gt;&lt;br&gt;iron-containing alcohol dehydrogenase family protein&lt;br&gt;Location: 5906669 - 5907730&lt;br&gt;&lt;br&gt;&lt;b&gt;BlastP hit with LLPMBPKK_06762&lt;/b&gt;&lt;br&gt;Percentage identity: 97&lt;br&gt;Percentage coverage: 100&lt;br&gt;BLAST bit score: 677&lt;br&gt;E-value: 5.19e-247" locus_tag="GTW30_RS25770" class="clusterblast-orf" id="dummy-29_h29_1_4"  />
</g>
<g id="a29_005"  >
<polygon points="187,90 206,90 211,85 206,80 187,80 187,90 " style="fill:#37d815; stroke-width:1; stroke:black; " description="&lt;b&gt;GTW30_RS25775&lt;/b&gt;&lt;br&gt;CDP-alcohol phosphatidyltransferase family protein&lt;br&gt;Location: 5907708 - 5908487&lt;br&gt;&lt;br&gt;&lt;b&gt;BlastP hit with LLPMBPKK_06763&lt;/b&gt;&lt;br&gt;Percentage identity: 98&lt;br&gt;Percentage coverage: 100&lt;br&gt;BLAST bit score: 416&lt;br&gt;E-value: 1.07e-147" locus_tag="GTW30_RS25775" class="clusterblast-orf" id="dummy-29_h29_1_5"  />
</g>
<g id="a29_006"  >
<polygon points="211,90 233,90 238,85 233,80 211,80 211,90 " style="fill:#158cd8; stroke-width:1; stroke:black; " description="&lt;b&gt;GTW30_RS25780&lt;/b&gt;&lt;br&gt;glycosyltransferase family 2 protein&lt;br&gt;Location: 5908496 - 5909368&lt;br&gt;&lt;br&gt;&lt;b&gt;BlastP hit with LLPMBPKK_06764&lt;/b&gt;&lt;br&gt;Percentage identity: 98&lt;br&gt;Percentage coverage: 100&lt;br&gt;BLAST bit score: 582&lt;br&gt;E-value: 1.73e-211" locus_tag="GTW30_RS25780" class="clusterblast-orf" id="dummy-29_h29_1_6"  />
</g>
<g id="a29_007"  >
<polygon points="240,90 264,90 269,85 264,80 240,80 240,90 " style="fill:#d015d8; stroke-width:1; stroke:black; " description="&lt;b&gt;GTW30_RS25785&lt;/b&gt;&lt;br&gt;ABC transporter permease&lt;br&gt;Location: 5909458 - 5910387&lt;br&gt;&lt;br&gt;&lt;b&gt;BlastP hit with LLPMBPKK_06765&lt;/b&gt;&lt;br&gt;Percentage identity: 97&lt;br&gt;Percentage coverage: 100&lt;br&gt;BLAST bit score: 593&lt;br&gt;E-value: 2.03e-215" locus_tag="GTW30_RS25785" class="clusterblast-orf" id="dummy-29_h29_1_7"  />
</g>
<g id="a29_008"  >
<polygon points="269,90 288,90 293,85 288,80 269,80 269,90 " style="fill:#d87b15; stroke-width:1; stroke:black; " description="&lt;b&gt;GTW30_RS25790&lt;/b&gt;&lt;br&gt;ABC transporter ATP-binding protein&lt;br&gt;Location: 5910380 - 5911168&lt;br&gt;&lt;br&gt;&lt;b&gt;BlastP hit with LLPMBPKK_06766&lt;/b&gt;&lt;br&gt;Percentage identity: 98&lt;br&gt;Percentage coverage: 100&lt;br&gt;BLAST bit score: 495&lt;br&gt;E-value: 2.79e-178" locus_tag="GTW30_RS25790" class="clusterblast-orf" id="dummy-29_h29_1_8"  />
</g>
<g id="a29_009"  >
<polygon points="304,90 326,90 331,85 326,80 304,80 304,90 " style="fill:#15d826; stroke-width:1; stroke:black; " description="&lt;b&gt;GTW30_RS25795&lt;/b&gt;&lt;br&gt;squalene synthase HpnC&lt;br&gt;Location: 5911529 - 5912425&lt;br&gt;&lt;br&gt;&lt;b&gt;BlastP hit with LLPMBPKK_06767&lt;/b&gt;&lt;br&gt;Percentage identity: 96&lt;br&gt;Percentage coverage: 100&lt;br&gt;BLAST bit score: 555&lt;br&gt;E-value: 1.51e-200&lt;br&gt;&lt;br&gt;&lt;b&gt;BlastP hit with LLPMBPKK_06768&lt;/b&gt;&lt;br&gt;Percentage identity: 33&lt;br&gt;Percentage coverage: 84&lt;br&gt;BLAST bit score: 94&lt;br&gt;E-value: 3.3e-20" locus_tag="GTW30_RS25795" class="clusterblast-orf" id="dummy-29_h29_1_9"  />
</g>
<g id="a29_0010"  >
<polygon points="331,90 355,90 360,85 355,80 331,80 331,90 " style="fill:#15d826; stroke-width:1; stroke:black; " description="&lt;b&gt;GTW30_RS25800&lt;/b&gt;&lt;br&gt;presqualene diphosphate synthase HpnD&lt;br&gt;Location: 5912422 - 5913387&lt;br&gt;&lt;br&gt;&lt;b&gt;BlastP hit with LLPMBPKK_06767&lt;/b&gt;&lt;br&gt;Percentage identity: 36&lt;br&gt;Percentage coverage: 78&lt;br&gt;BLAST bit score: 94&lt;br&gt;E-value: 4.29e-20&lt;br&gt;&lt;br&gt;&lt;b&gt;BlastP hit with LLPMBPKK_06768&lt;/b&gt;&lt;br&gt;Percentage identity: 97&lt;br&gt;Percentage coverage: 100&lt;br&gt;BLAST bit score: 606&lt;br&gt;E-value: 4.6e-220" locus_tag="GTW30_RS25800" class="clusterblast-orf" id="dummy-29_h29_1_10"  />
</g>
<g id="a29_0011"  >
<polygon points="367,90 405,90 410,85 405,80 367,80 367,90 " style="fill:#1559d8; stroke-width:1; stroke:black; " description="&lt;b&gt;GTW30_RS25805&lt;/b&gt;&lt;br&gt;FAD-dependent oxidoreductase&lt;br&gt;Location: 5913605 - 5915020&lt;br&gt;&lt;br&gt;&lt;b&gt;BlastP hit with LLPMBPKK_06769&lt;/b&gt;&lt;br&gt;Percentage identity: 94&lt;br&gt;Percentage coverage: 100&lt;br&gt;BLAST bit score: 867&lt;br&gt;E-value: 0.0" locus_tag="GTW30_RS25805" class="clusterblast-orf" id="dummy-29_h29_1_11"  />
</g>
<g id="a29_0012"  >
<polygon points="412,90 440,90 445,85 440,80 412,80 412,90 " style="fill:#d815ae; stroke-width:1; stroke:black; " description="&lt;b&gt;GTW30_RS25810&lt;/b&gt;&lt;br&gt;polyprenyl synthetase family protein&lt;br&gt;Location: 5915089 - 5916153&lt;br&gt;&lt;br&gt;&lt;b&gt;BlastP hit with LLPMBPKK_06770&lt;/b&gt;&lt;br&gt;Percentage identity: 97&lt;br&gt;Percentage coverage: 94&lt;br&gt;BLAST bit score: 658&lt;br&gt;E-value: 4.13e-239" locus_tag="GTW30_RS25810" class="clusterblast-orf" id="dummy-29_h29_1_12"  />
</g>
<g id="a29_0013"  >
<polygon points="448,90 505,90 510,85 505,80 448,80 448,90 " style="fill:#d8ae15; stroke-width:1; stroke:black; " description="&lt;b&gt;GTW30_RS25815&lt;/b&gt;&lt;br&gt;squalene--hopene cyclase&lt;br&gt;Location: 5916270 - 5918300&lt;br&gt;&lt;br&gt;&lt;b&gt;BlastP hit with LLPMBPKK_06771&lt;/b&gt;&lt;br&gt;Percentage identity: 92&lt;br&gt;Percentage coverage: 100&lt;br&gt;BLAST bit score: 1235&lt;br&gt;E-value: 0.0" locus_tag="GTW30_RS25815" class="clusterblast-orf" id="dummy-29_h29_1_13"  />
</g>
<g id="a29_0014"  >
<polygon points="510,90 526,90 531,85 526,80 510,80 510,90 " style="fill:#15d859; stroke-width:1; stroke:black; " description="&lt;b&gt;GTW30_RS25820&lt;/b&gt;&lt;br&gt;1-hydroxy-2-methyl-2-butenyl 4-diphosphate reductase&lt;br&gt;Location: 5918302 - 5918973&lt;br&gt;&lt;br&gt;&lt;b&gt;BlastP hit with LLPMBPKK_06772&lt;/b&gt;&lt;br&gt;Percentage identity: 93&lt;br&gt;Percentage coverage: 105&lt;br&gt;BLAST bit score: 395&lt;br&gt;E-value: 5.71e-140" locus_tag="GTW30_RS25820" class="clusterblast-orf" id="dummy-29_h29_1_14"  />
</g>
<g id="a29_0015"  >
<polygon points="531,90 557,90 562,85 557,80 531,80 531,90 " style="fill:#1526d8; stroke-width:1; stroke:black; " description="&lt;b&gt;GTW30_RS25825&lt;/b&gt;&lt;br&gt;adenosyl-hopene transferase HpnH&lt;br&gt;Location: 5918979 - 5920001&lt;br&gt;&lt;br&gt;&lt;b&gt;BlastP hit with LLPMBPKK_06773&lt;/b&gt;&lt;br&gt;Percentage identity: 98&lt;br&gt;Percentage coverage: 100&lt;br&gt;BLAST bit score: 697&lt;br&gt;E-value: 2.22e-255" locus_tag="GTW30_RS25825" class="clusterblast-orf" id="dummy-29_h29_1_15"  />
</g>
<g id="a29_0016"  >
<polygon points="563,90 592,90 597,85 592,80 563,80 563,90 " style="fill:#d8157b; stroke-width:1; stroke:black; " description="&lt;b&gt;GTW30_RS25830&lt;/b&gt;&lt;br&gt;flavodoxin-dependent (E)-4-hydroxy-3-methylbut-2-enyl-diphosphate synthase&lt;br&gt;Location: 5920006 - 5921139&lt;br&gt;&lt;br&gt;&lt;b&gt;BlastP hit with LLPMBPKK_06774&lt;/b&gt;&lt;br&gt;Percentage identity: 96&lt;br&gt;Percentage coverage: 100&lt;br&gt;BLAST bit score: 690&lt;br&gt;E-value: 1.43e-251" locus_tag="GTW30_RS25830" class="clusterblast-orf" id="dummy-29_h29_1_16"  />
</g>
<g id="a29_0017"  >
<polygon points="598,90 651,90 656,85 651,80 598,80 598,90 " style="fill:#d0d815; stroke-width:1; stroke:black; " description="&lt;b&gt;GTW30_RS25835&lt;/b&gt;&lt;br&gt;1-deoxy-D-xylulose-5-phosphate synthase&lt;br&gt;Location: 5921171 - 5923069&lt;br&gt;&lt;br&gt;&lt;b&gt;BlastP hit with LLPMBPKK_06775&lt;/b&gt;&lt;br&gt;Percentage identity: 94&lt;br&gt;Percentage coverage: 100&lt;br&gt;BLAST bit score: 1193&lt;br&gt;E-value: 0.0" locus_tag="GTW30_RS25835" class="clusterblast-orf" id="dummy-29_h29_1_17"  />
</g>
<g id="a29_0018"  >
<polygon points="656,90 693,90 698,85 693,80 656,80 656,90 " style="fill:#15d88c; stroke-width:1; stroke:black; " description="&lt;b&gt;GTW30_RS25840&lt;/b&gt;&lt;br&gt;aspartate aminotransferase family protein&lt;br&gt;Location: 5923066 - 5924451&lt;br&gt;&lt;br&gt;&lt;b&gt;BlastP hit with LLPMBPKK_06776&lt;/b&gt;&lt;br&gt;Percentage identity: 96&lt;br&gt;Percentage coverage: 100&lt;br&gt;BLAST bit score: 890&lt;br&gt;E-value: 0.0" locus_tag="GTW30_RS25840" class="clusterblast-orf" id="dummy-29_h29_1_18"  />
</g>
<g id="a29_0019"  >
<polygon points="701,90 715,90 720,85 715,80 701,80 701,90 " style="fill:#d81548; stroke-width:1; stroke:black; " description="&lt;b&gt;GTW30_RS25845&lt;/b&gt;&lt;br&gt;helix-turn-helix transcriptional regulator&lt;br&gt;Location: 5924537 - 5925166&lt;br&gt;&lt;br&gt;&lt;b&gt;BlastP hit with LLPMBPKK_06778&lt;/b&gt;&lt;br&gt;Percentage identity: 99&lt;br&gt;Percentage coverage: 100&lt;br&gt;BLAST bit score: 405&lt;br&gt;E-value: 2.25e-144" locus_tag="GTW30_RS25845" class="clusterblast-orf" id="dummy-29_h29_1_19"  />
</g>
<g id="a29_0020"  >
<polygon points="720,90 724,85 720,80 720,90 " style="fill:#9dd815; stroke-width:1; stroke:black; " description="&lt;b&gt;GTW30_RS25850&lt;/b&gt;&lt;br&gt;hypothetical protein&lt;br&gt;Location: 5925163 - 5925285&lt;br&gt;&lt;br&gt;&lt;b&gt;BlastP hit with LLPMBPKK_06779&lt;/b&gt;&lt;br&gt;Percentage identity: 87&lt;br&gt;Percentage coverage: 98&lt;br&gt;BLAST bit score: 75&lt;br&gt;E-value: 1.08e-18" locus_tag="GTW30_RS25850" class="clusterblast-orf" id="dummy-29_h29_1_20"  />
</g>
<g id="a29_0021"  >
<polygon points="725,90 744,90 749,85 744,80 725,80 725,90 " style="fill:#15d8bf; stroke-width:1; stroke:black; " description="&lt;b&gt;GTW30_RS25855&lt;/b&gt;&lt;br&gt;hypothetical protein&lt;br&gt;Location: 5925316 - 5926116&lt;br&gt;&lt;br&gt;&lt;b&gt;BlastP hit with LLPMBPKK_06780&lt;/b&gt;&lt;br&gt;Percentage identity: 81&lt;br&gt;Percentage coverage: 100&lt;br&gt;BLAST bit score: 461&lt;br&gt;E-value: 1.39e-164" locus_tag="GTW30_RS25855" class="clusterblast-orf" id="dummy-29_h29_1_21"  />
</g>
<g id="a29_0022"  >
<polygon points="750,85 755,80 775,80 775,90 755,90 750,85 " style="fill:#6a15d8; stroke-width:1; stroke:black; " description="&lt;b&gt;GTW30_RS25860&lt;/b&gt;&lt;br&gt;tyrosine-protein phosphatase&lt;br&gt;Location: 5926157 - 5926954&lt;br&gt;&lt;br&gt;&lt;b&gt;BlastP hit with LLPMBPKK_06781&lt;/b&gt;&lt;br&gt;Percentage identity: 94&lt;br&gt;Percentage coverage: 100&lt;br&gt;BLAST bit score: 495&lt;br&gt;E-value: 3.52e-178" locus_tag="GTW30_RS25860" class="clusterblast-orf" id="dummy-29_h29_1_22"  />
</g>
</svg>
