<svg xmlns="http://www.w3.org/2000/svg" xmlns:xlink="http://www.w3.org/1999/xlink" version="1.1" x="0" y="0" height="230" width="800" viewBox="0 0 800 230" preserveAspectRatio="none"  >
<g label="Query sequence" class="clusterblast-cluster"  >
<text x="5" y="20" class="clusterblast-acc"  >
Query sequence</text>
<line x1="10" y1="35" x2="778.0" y2="35" style="stroke-width:1; stroke:grey; "  />
<polygon points="46,35 51,30 85,30 85,40 51,40 46,35 " style="fill:white; stroke-width:1; stroke:black; " description="&lt;b&gt;LLPMBPKK_03075&lt;/b&gt;&lt;br&gt;hypothetical protein&lt;br&gt;Location: 3573605 - 3574061" locus_tag="LLPMBPKK_03075" class="clusterblast-orf" id="dummy-15_q0_0_all"  />
<polygon points="107,40 128,40 133,35 128,30 107,30 107,40 " style="fill:white; stroke-width:1; stroke:black; " description="&lt;b&gt;LLPMBPKK_03076&lt;/b&gt;&lt;br&gt;hypothetical protein&lt;br&gt;Location: 3574323 - 3574632" locus_tag="LLPMBPKK_03076" class="clusterblast-orf" id="dummy-15_q1_0_all"  />
<polygon points="152,40 228,40 233,35 228,30 152,30 152,40 " style="fill:#d81515; stroke-width:1; stroke:black; " description="&lt;b&gt;LLPMBPKK_03077&lt;/b&gt;&lt;br&gt;D-2-hydroxyacid dehydrogenase family protein&lt;br&gt;Location: 3574867 - 3575827" locus_tag="LLPMBPKK_03077" class="clusterblast-orf" id="dummy-15_q2_0_all"  />
<polygon points="247,40 268,40 273,35 268,30 247,30 247,40 " style="fill:#15d815; stroke-width:1; stroke:black; " description="&lt;b&gt;LLPMBPKK_03078&lt;/b&gt;&lt;br&gt;chaplin&lt;br&gt;Location: 3575993 - 3576308" locus_tag="LLPMBPKK_03078" class="clusterblast-orf" id="dummy-15_q3_0_all"  />
<polygon points="281,35 286,30 354,30 354,40 286,40 281,35 " style="fill:#1597d8; stroke-width:1; stroke:black; " description="&lt;b&gt;LLPMBPKK_03079&lt;/b&gt;&lt;br&gt;tyrosinase family protein&lt;br&gt;Location: 3576403 - 3577270" locus_tag="LLPMBPKK_03079" class="clusterblast-orf" id="dummy-15_q4_0_all"  />
<polygon points="353,35 358,30 394,30 394,40 358,40 353,35 " style="fill:#9715d8; stroke-width:1; stroke:black; " description="&lt;b&gt;LLPMBPKK_03080&lt;/b&gt;&lt;br&gt;tyrosinase&lt;br&gt;Location: 3577253 - 3577739" locus_tag="LLPMBPKK_03080" class="clusterblast-orf" id="dummy-15_q5_0_all"  />
<polygon points="407,35 412,30 456,30 456,40 412,40 407,35 " style="fill:#d89715; stroke-width:1; stroke:black; " description="&lt;b&gt;LLPMBPKK_03081&lt;/b&gt;&lt;br&gt;hypothetical protein&lt;br&gt;Location: 3577894 - 3578482" locus_tag="LLPMBPKK_03081" class="clusterblast-orf" id="dummy-15_q6_0_all"  />
<polygon points="458,35 463,30 507,30 507,40 463,40 458,35 " style="fill:#15d897; stroke-width:1; stroke:black; " description="&lt;b&gt;LLPMBPKK_03082&lt;/b&gt;&lt;br&gt;vitamin K epoxide reductase family protein&lt;br&gt;Location: 3578510 - 3579095" locus_tag="LLPMBPKK_03082" class="clusterblast-orf" id="dummy-15_q7_0_all"  />
<polygon points="507,35 512,30 557,30 557,40 512,40 507,35 " style="fill:#1515d8; stroke-width:1; stroke:black; " description="&lt;b&gt;LLPMBPKK_03083&lt;/b&gt;&lt;br&gt;hypothetical protein&lt;br&gt;Location: 3579094 - 3579679" locus_tag="LLPMBPKK_03083" class="clusterblast-orf" id="dummy-15_q8_0_all"  />
<polygon points="561,35 566,30 585,30 585,40 566,40 561,35 " style="fill:#d81597; stroke-width:1; stroke:black; " description="&lt;b&gt;LLPMBPKK_03084&lt;/b&gt;&lt;br&gt;hypothetical protein&lt;br&gt;Location: 3579727 - 3580015" locus_tag="LLPMBPKK_03084" class="clusterblast-orf" id="dummy-15_q9_0_all"  />
<polygon points="596,35 601,30 700,30 700,40 601,40 596,35 " style="fill:#97d815; stroke-width:1; stroke:black; " description="&lt;b&gt;LLPMBPKK_03085&lt;/b&gt;&lt;br&gt;hypothetical protein&lt;br&gt;Location: 3580148 - 3581384" locus_tag="LLPMBPKK_03085" class="clusterblast-orf" id="dummy-15_q10_0_all"  />
<polygon points="714,35 719,30 734,30 734,40 719,40 714,35 " style="fill:#15d815; stroke-width:1; stroke:black; " description="&lt;b&gt;LLPMBPKK_03086&lt;/b&gt;&lt;br&gt;chaplin&lt;br&gt;Location: 3581555 - 3581795" locus_tag="LLPMBPKK_03086" class="clusterblast-orf" id="dummy-15_q11_0_all"  />
</g>
<g label="NZ_LIWA01000009" description="NZ_LIWA01000009 (332395-342899): Streptomyces sp. CB01883 scaffold9, whole ge... (76% of genes show similarity), melanin" class="clusterblast-cluster"  >
<text x="5" y="70" class="clusterblast-acc"  >
<a xlink:href="https://antismash-db.secondarymetabolites.org/area.html?record=NZ_LIWA01000009&amp;start=332395&amp;end=342899" target="_blank">NZ_LIWA01000009 (332395-342899)</a>: Streptomyces sp. CB01883 scaffold9, whole ge... (76% of genes show similarity), melanin</text>
<line x1="10" y1="85" x2="778.0" y2="85" style="stroke-width:1; stroke:grey; "  />
</g>
<g id="a15_000"  >
<polygon points="0,85 5,80 55,80 55,90 5,90 0,85 " style="fill:white; stroke-width:1; stroke:black; " description="&lt;b&gt;AMK32_RS36165&lt;/b&gt;&lt;br&gt;hypothetical protein&lt;br&gt;Location: 342681 - 342019" locus_tag="AMK32_RS36165" class="clusterblast-orf" id="dummy-15_h15_6_0"  />
</g>
<g id="a15_001"  >
<polygon points="73,90 131,90 136,85 131,80 73,80 73,90 " style="fill:white; stroke-width:1; stroke:black; " description="&lt;b&gt;AMK32_RS36160&lt;/b&gt;&lt;br&gt;GntR family transcriptional regulator&lt;br&gt;Location: 341807 - 341052" locus_tag="AMK32_RS36160" class="clusterblast-orf" id="dummy-15_h15_6_1"  />
</g>
<g id="a15_002"  >
<polygon points="150,90 226,90 231,85 226,80 150,80 150,90 " style="fill:#d81515; stroke-width:1; stroke:black; " description="&lt;b&gt;AMK32_RS36155&lt;/b&gt;&lt;br&gt;D-2-hydroxyacid dehydrogenase family protein&lt;br&gt;Location: 340885 - 339926&lt;br&gt;&lt;br&gt;&lt;b&gt;BlastP hit with LLPMBPKK_03077&lt;/b&gt;&lt;br&gt;Percentage identity: 88&lt;br&gt;Percentage coverage: 100&lt;br&gt;BLAST bit score: 557&lt;br&gt;E-value: 6.52e-201" locus_tag="AMK32_RS36155" class="clusterblast-orf" id="dummy-15_h15_6_2"  />
</g>
<g id="a15_003"  >
<polygon points="232,85 237,80 278,80 278,90 237,90 232,85 " style="fill:white; stroke-width:1; stroke:black; " description="&lt;b&gt;AMK32_RS36150&lt;/b&gt;&lt;br&gt;DUF2087 domain-containing protein&lt;br&gt;Location: 339918 - 339367" locus_tag="AMK32_RS36150" class="clusterblast-orf" id="dummy-15_h15_6_3"  />
</g>
<g id="a15_004"  >
<polygon points="295,90 315,90 320,85 315,80 295,80 295,90 " style="fill:#15d815; stroke-width:1; stroke:black; " description="&lt;b&gt;AMK32_RS36145&lt;/b&gt;&lt;br&gt;chaplin&lt;br&gt;Location: 339160 - 338861&lt;br&gt;&lt;br&gt;&lt;b&gt;BlastP hit with LLPMBPKK_03078&lt;/b&gt;&lt;br&gt;Percentage identity: 78&lt;br&gt;Percentage coverage: 96&lt;br&gt;BLAST bit score: 139&lt;br&gt;E-value: 1.21e-42&lt;br&gt;&lt;br&gt;&lt;b&gt;BlastP hit with LLPMBPKK_03086&lt;/b&gt;&lt;br&gt;Percentage identity: 59&lt;br&gt;Percentage coverage: 99&lt;br&gt;BLAST bit score: 95&lt;br&gt;E-value: 2.06e-25" locus_tag="AMK32_RS36145" class="clusterblast-orf" id="dummy-15_h15_6_4"  />
</g>
<g id="a15_005"  >
<polygon points="330,85 335,80 402,80 402,90 335,90 330,85 " style="fill:#1597d8; stroke-width:1; stroke:black; " description="&lt;b&gt;AMK32_RS36140&lt;/b&gt;&lt;br&gt;tyrosinase family protein&lt;br&gt;Location: 338749 - 337883&lt;br&gt;&lt;br&gt;&lt;b&gt;BlastP hit with LLPMBPKK_03079&lt;/b&gt;&lt;br&gt;Percentage identity: 89&lt;br&gt;Percentage coverage: 100&lt;br&gt;BLAST bit score: 549&lt;br&gt;E-value: 9.49e-199" locus_tag="AMK32_RS36140" class="clusterblast-orf" id="dummy-15_h15_6_5"  />
</g>
<g id="a15_006"  >
<polygon points="401,85 406,80 443,80 443,90 406,90 401,85 " style="fill:#9715d8; stroke-width:1; stroke:black; " description="&lt;b&gt;AMK32_RS36135&lt;/b&gt;&lt;br&gt;tyrosinase&lt;br&gt;Location: 337899 - 337396&lt;br&gt;&lt;br&gt;&lt;b&gt;BlastP hit with LLPMBPKK_03080&lt;/b&gt;&lt;br&gt;Percentage identity: 75&lt;br&gt;Percentage coverage: 104&lt;br&gt;BLAST bit score: 229&lt;br&gt;E-value: 4.72e-76" locus_tag="AMK32_RS36135" class="clusterblast-orf" id="dummy-15_h15_6_6"  />
</g>
<g id="a15_007"  >
<polygon points="470,85 475,80 513,80 513,90 475,90 470,85 " style="fill:#d89715; stroke-width:1; stroke:black; " description="&lt;b&gt;AMK32_RS36130&lt;/b&gt;&lt;br&gt;hypothetical protein&lt;br&gt;Location: 337077 - 336562&lt;br&gt;&lt;br&gt;&lt;b&gt;BlastP hit with LLPMBPKK_03081&lt;/b&gt;&lt;br&gt;Percentage identity: 77&lt;br&gt;Percentage coverage: 88&lt;br&gt;BLAST bit score: 261&lt;br&gt;E-value: 4.72e-88" locus_tag="AMK32_RS36130" class="clusterblast-orf" id="dummy-15_h15_6_7"  />
</g>
<g id="a15_008"  >
<polygon points="522,85 527,80 571,80 571,90 527,90 522,85 " style="fill:#15d897; stroke-width:1; stroke:black; " description="&lt;b&gt;AMK32_RS36125&lt;/b&gt;&lt;br&gt;vitamin K epoxide reductase family protein&lt;br&gt;Location: 336460 - 335876&lt;br&gt;&lt;br&gt;&lt;b&gt;BlastP hit with LLPMBPKK_03082&lt;/b&gt;&lt;br&gt;Percentage identity: 87&lt;br&gt;Percentage coverage: 100&lt;br&gt;BLAST bit score: 360&lt;br&gt;E-value: 7.01e-127" locus_tag="AMK32_RS36125" class="clusterblast-orf" id="dummy-15_h15_6_8"  />
</g>
<g id="a15_009"  >
<polygon points="571,85 576,80 613,80 613,90 576,90 571,85 " style="fill:#1515d8; stroke-width:1; stroke:black; " description="&lt;b&gt;AMK32_RS36120&lt;/b&gt;&lt;br&gt;hypothetical protein&lt;br&gt;Location: 335876 - 335373&lt;br&gt;&lt;br&gt;&lt;b&gt;BlastP hit with LLPMBPKK_03083&lt;/b&gt;&lt;br&gt;Percentage identity: 84&lt;br&gt;Percentage coverage: 86&lt;br&gt;BLAST bit score: 286&lt;br&gt;E-value: 4.99e-98" locus_tag="AMK32_RS36120" class="clusterblast-orf" id="dummy-15_h15_6_9"  />
</g>
<g id="a15_0010"  >
<polygon points="627,85 632,80 651,80 651,90 632,90 627,85 " style="fill:#d81597; stroke-width:1; stroke:black; " description="&lt;b&gt;AMK32_RS36115&lt;/b&gt;&lt;br&gt;hypothetical protein&lt;br&gt;Location: 335212 - 334928&lt;br&gt;&lt;br&gt;&lt;b&gt;BlastP hit with LLPMBPKK_03084&lt;/b&gt;&lt;br&gt;Percentage identity: 80&lt;br&gt;Percentage coverage: 98&lt;br&gt;BLAST bit score: 139&lt;br&gt;E-value: 1.03e-42" locus_tag="AMK32_RS36115" class="clusterblast-orf" id="dummy-15_h15_6_10"  />
</g>
<g id="a15_0011"  >
<polygon points="667,85 672,80 745,80 745,90 672,90 667,85 " style="fill:#97d815; stroke-width:1; stroke:black; " description="&lt;b&gt;AMK32_RS42085&lt;/b&gt;&lt;br&gt;hypothetical protein&lt;br&gt;Location: 334733 - 333804&lt;br&gt;&lt;br&gt;&lt;b&gt;BlastP hit with LLPMBPKK_03085&lt;/b&gt;&lt;br&gt;Percentage identity: 74&lt;br&gt;Percentage coverage: 25&lt;br&gt;BLAST bit score: 122&lt;br&gt;E-value: 7.28e-30" locus_tag="AMK32_RS42085" class="clusterblast-orf" id="dummy-15_h15_6_11"  />
</g>
<g id="a15_0012"  >
<polygon points="759,85 764,80 780,80 780,90 764,90 759,85 " style="fill:#15d815; stroke-width:1; stroke:black; " description="&lt;b&gt;AMK32_RS36105&lt;/b&gt;&lt;br&gt;chaplin&lt;br&gt;Location: 333632 - 333393&lt;br&gt;&lt;br&gt;&lt;b&gt;BlastP hit with LLPMBPKK_03078&lt;/b&gt;&lt;br&gt;Percentage identity: 62&lt;br&gt;Percentage coverage: 73&lt;br&gt;BLAST bit score: 84&lt;br&gt;E-value: 7.99e-21&lt;br&gt;&lt;br&gt;&lt;b&gt;BlastP hit with LLPMBPKK_03086&lt;/b&gt;&lt;br&gt;Percentage identity: 84&lt;br&gt;Percentage coverage: 100&lt;br&gt;BLAST bit score: 111&lt;br&gt;E-value: 3.29e-32" locus_tag="AMK32_RS36105" class="clusterblast-orf" id="dummy-15_h15_6_12"  />
</g>
</svg>
