<svg xmlns="http://www.w3.org/2000/svg" xmlns:xlink="http://www.w3.org/1999/xlink" version="1.1" x="0" y="0" height="230" width="800" viewBox="0 0 800 230" preserveAspectRatio="none"  >
<g label="Query sequence" class="clusterblast-cluster"  >
<text x="5" y="20" class="clusterblast-acc"  >
Query sequence</text>
<line x1="10" y1="35" x2="778.0" y2="35" style="stroke-width:1; stroke:grey; "  />
<polygon points="218,35 223,30 241,30 241,40 223,40 218,35 " style="fill:white; stroke-width:1; stroke:black; " description="&lt;b&gt;LLPMBPKK_05989&lt;/b&gt;&lt;br&gt;ATP-dependent RNA helicase RhlB&lt;br&gt;Location: 6863825 - 6869177" locus_tag="LLPMBPKK_05989" class="clusterblast-orf" id="dummy-22_q0_0_all"  />
<polygon points="241,35 246,30 246,30 246,40 246,40 241,35 " style="fill:white; stroke-width:1; stroke:black; " description="&lt;b&gt;LLPMBPKK_05990&lt;/b&gt;&lt;br&gt;serine/threonine protein kinase&lt;br&gt;Location: 6869173 - 6870160" locus_tag="LLPMBPKK_05990" class="clusterblast-orf" id="dummy-22_q1_0_all"  />
<polygon points="248,40 249,40 254,35 249,30 248,30 248,40 " style="fill:white; stroke-width:1; stroke:black; " description="&lt;b&gt;LLPMBPKK_05991&lt;/b&gt;&lt;br&gt;transmembrane transport protein&lt;br&gt;Location: 6870631 - 6871927" locus_tag="LLPMBPKK_05991" class="clusterblast-orf" id="dummy-22_q2_0_all"  />
<polygon points="254,40 258,35 254,30 254,40 " style="fill:#d81515; stroke-width:1; stroke:black; " description="&lt;b&gt;LLPMBPKK_05992&lt;/b&gt;&lt;br&gt;Bacterial regulatory proteins, luxR family&lt;br&gt;Location: 6872042 - 6872930" locus_tag="LLPMBPKK_05992" class="clusterblast-orf" id="dummy-22_q3_0_all"  />
<polygon points="260,40 263,35 260,30 260,40 " style="fill:white; stroke-width:1; stroke:black; " description="&lt;b&gt;LLPMBPKK_05993&lt;/b&gt;&lt;br&gt;hypothetical protein&lt;br&gt;Location: 6873290 - 6874082" locus_tag="LLPMBPKK_05993" class="clusterblast-orf" id="dummy-22_q4_0_all"  />
<polygon points="263,40 266,40 271,35 266,30 263,30 263,40 " style="fill:white; stroke-width:1; stroke:black; " description="&lt;b&gt;LLPMBPKK_05994&lt;/b&gt;&lt;br&gt;asparagine synthase (glutamine-hydrolyzing)&lt;br&gt;Location: 6874081 - 6875923" locus_tag="LLPMBPKK_05994" class="clusterblast-orf" id="dummy-22_q5_0_all"  />
<polygon points="271,40 274,35 271,30 271,40 " style="fill:white; stroke-width:1; stroke:black; " description="&lt;b&gt;LLPMBPKK_05995&lt;/b&gt;&lt;br&gt;flavin reductase&lt;br&gt;Location: 6875919 - 6876489" locus_tag="LLPMBPKK_05995" class="clusterblast-orf" id="dummy-22_q6_0_all"  />
<polygon points="274,40 276,40 281,35 276,30 274,30 274,40 " style="fill:white; stroke-width:1; stroke:black; " description="&lt;b&gt;LLPMBPKK_05996&lt;/b&gt;&lt;br&gt;Anthranilate 3-monooxygenase oxygenase component&lt;br&gt;Location: 6876485 - 6877997" locus_tag="LLPMBPKK_05996" class="clusterblast-orf" id="dummy-22_q7_0_all"  />
<polygon points="281,40 284,35 281,30 281,40 " style="fill:white; stroke-width:1; stroke:black; " description="&lt;b&gt;LLPMBPKK_05997&lt;/b&gt;&lt;br&gt;hypothetical protein&lt;br&gt;Location: 6877993 - 6878839" locus_tag="LLPMBPKK_05997" class="clusterblast-orf" id="dummy-22_q8_0_all"  />
<polygon points="285,40 289,35 285,30 285,40 " style="fill:white; stroke-width:1; stroke:black; " description="&lt;b&gt;LLPMBPKK_05998&lt;/b&gt;&lt;br&gt;DNA-binding protein, mmyb&lt;br&gt;Location: 6878957 - 6879821" locus_tag="LLPMBPKK_05998" class="clusterblast-orf" id="dummy-22_q9_0_all"  />
<polygon points="289,35 294,30 295,30 295,40 294,40 289,35 " style="fill:#3cd815; stroke-width:1; stroke:black; " description="&lt;b&gt;LLPMBPKK_05999&lt;/b&gt;&lt;br&gt;Purine efflux pump PbuE&lt;br&gt;Location: 6879898 - 6881158" locus_tag="LLPMBPKK_05999" class="clusterblast-orf" id="dummy-22_q10_0_all"  />
<polygon points="296,40 300,35 296,30 296,40 " style="fill:white; stroke-width:1; stroke:black; " description="&lt;b&gt;LLPMBPKK_06000&lt;/b&gt;&lt;br&gt;luciferase family protein&lt;br&gt;Location: 6881385 - 6882399" locus_tag="LLPMBPKK_06000" class="clusterblast-orf" id="dummy-22_q11_0_all"  />
<polygon points="300,40 301,35 300,30 300,40 " style="fill:white; stroke-width:1; stroke:black; " description="&lt;b&gt;LLPMBPKK_06001&lt;/b&gt;&lt;br&gt;Class-II DAHP synthetase family protein&lt;br&gt;Location: 6882429 - 6882633" locus_tag="LLPMBPKK_06001" class="clusterblast-orf" id="dummy-22_q12_0_all"  />
<polygon points="301,40 304,35 301,30 301,40 " style="fill:white; stroke-width:1; stroke:black; " description="&lt;b&gt;LLPMBPKK_06002&lt;/b&gt;&lt;br&gt;methylenetetrahydrofolate reductase [NAD(P)H]&lt;br&gt;Location: 6882629 - 6883403" locus_tag="LLPMBPKK_06002" class="clusterblast-orf" id="dummy-22_q13_0_all"  />
<polygon points="305,40 374,40 379,35 374,30 305,30 305,40 " style="fill:#1563d8; stroke-width:1; stroke:black; " description="&lt;b&gt;LLPMBPKK_06003&lt;/b&gt;&lt;br&gt;3-ketoacyl-CoA thiolase&lt;br&gt;Location: 6883432 - 6900247" locus_tag="LLPMBPKK_06003" class="clusterblast-orf" id="dummy-22_q14_0_all"  />
<polygon points="379,40 418,40 423,35 418,30 379,30 379,40 " style="fill:#1563d8; stroke-width:1; stroke:black; " description="&lt;b&gt;LLPMBPKK_06004&lt;/b&gt;&lt;br&gt;3-ketoacyl-CoA thiolase&lt;br&gt;Location: 6900327 - 6910182" locus_tag="LLPMBPKK_06004" class="clusterblast-orf" id="dummy-22_q15_0_all"  />
<polygon points="423,40 471,40 476,35 471,30 423,30 423,40 " style="fill:#1563d8; stroke-width:1; stroke:black; " description="&lt;b&gt;LLPMBPKK_06005&lt;/b&gt;&lt;br&gt;hypothetical protein&lt;br&gt;Location: 6910181 - 6922112" locus_tag="LLPMBPKK_06005" class="clusterblast-orf" id="dummy-22_q16_0_all"  />
<polygon points="476,40 478,35 476,30 476,40 " style="fill:white; stroke-width:1; stroke:black; " description="&lt;b&gt;LLPMBPKK_06006&lt;/b&gt;&lt;br&gt;SnoaL-like domain protein&lt;br&gt;Location: 6922113 - 6922569" locus_tag="LLPMBPKK_06006" class="clusterblast-orf" id="dummy-22_q17_0_all"  />
<polygon points="478,35 483,30 497,30 497,40 483,40 478,35 " style="fill:white; stroke-width:1; stroke:black; " description="&lt;b&gt;LLPMBPKK_06007&lt;/b&gt;&lt;br&gt;Chaperone protein HtpG&lt;br&gt;Location: 6922635 - 6926934" locus_tag="LLPMBPKK_06007" class="clusterblast-orf" id="dummy-22_q18_0_all"  />
<polygon points="497,35 499,30 499,40 497,35 " style="fill:white; stroke-width:1; stroke:black; " description="&lt;b&gt;LLPMBPKK_06008&lt;/b&gt;&lt;br&gt;hypothetical protein&lt;br&gt;Location: 6926930 - 6927302" locus_tag="LLPMBPKK_06008" class="clusterblast-orf" id="dummy-22_q19_0_all"  />
<polygon points="499,35 504,30 504,30 504,40 504,40 499,35 " style="fill:white; stroke-width:1; stroke:black; " description="&lt;b&gt;LLPMBPKK_06009&lt;/b&gt;&lt;br&gt;methylmalonyl Co-A mutase-associated GTPase MeaB&lt;br&gt;Location: 6927450 - 6928455" locus_tag="LLPMBPKK_06009" class="clusterblast-orf" id="dummy-22_q20_0_all"  />
<polygon points="504,35 509,30 514,30 514,40 509,40 504,35 " style="fill:white; stroke-width:1; stroke:black; " description="&lt;b&gt;LLPMBPKK_06010&lt;/b&gt;&lt;br&gt;methylmalonyl-CoA mutase&lt;br&gt;Location: 6928462 - 6930637" locus_tag="LLPMBPKK_06010" class="clusterblast-orf" id="dummy-22_q21_0_all"  />
<polygon points="514,35 519,30 522,30 522,40 519,40 514,35 " style="fill:white; stroke-width:1; stroke:black; " description="&lt;b&gt;LLPMBPKK_06011&lt;/b&gt;&lt;br&gt;methylmalonyl-CoA mutase subunit beta&lt;br&gt;Location: 6930636 - 6932445" locus_tag="LLPMBPKK_06011" class="clusterblast-orf" id="dummy-22_q22_0_all"  />
<polygon points="524,35 529,30 532,30 532,40 529,40 524,35 " style="fill:#b115d8; stroke-width:1; stroke:black; " description="&lt;b&gt;LLPMBPKK_06012&lt;/b&gt;&lt;br&gt;membrane protein&lt;br&gt;Location: 6933033 - 6934752" locus_tag="LLPMBPKK_06012" class="clusterblast-orf" id="dummy-22_q23_0_all"  />
<polygon points="533,40 535,35 533,30 533,40 " style="fill:#d88a15; stroke-width:1; stroke:black; " description="&lt;b&gt;LLPMBPKK_06013&lt;/b&gt;&lt;br&gt;cell division protein SepF&lt;br&gt;Location: 6935033 - 6935423" locus_tag="LLPMBPKK_06013" class="clusterblast-orf" id="dummy-22_q24_0_all"  />
<polygon points="535,40 536,40 541,35 536,30 535,30 535,40 " style="fill:#15d863; stroke-width:1; stroke:black; " description="&lt;b&gt;LLPMBPKK_06014&lt;/b&gt;&lt;br&gt;bldA-regulated nucleotide-binding protein&lt;br&gt;Location: 6935571 - 6936765" locus_tag="LLPMBPKK_06014" class="clusterblast-orf" id="dummy-22_q25_0_all"  />
<polygon points="541,40 542,35 541,30 541,40 " style="fill:#3c15d8; stroke-width:1; stroke:black; " description="&lt;b&gt;LLPMBPKK_06015&lt;/b&gt;&lt;br&gt;nucleotide pyrophosphohydrolase&lt;br&gt;Location: 6936761 - 6937127" locus_tag="LLPMBPKK_06015" class="clusterblast-orf" id="dummy-22_q26_0_all"  />
<polygon points="543,40 545,35 543,30 543,40 " style="fill:#d8158a; stroke-width:1; stroke:black; " description="&lt;b&gt;LLPMBPKK_06016&lt;/b&gt;&lt;br&gt;hypothetical protein&lt;br&gt;Location: 6937300 - 6937786" locus_tag="LLPMBPKK_06016" class="clusterblast-orf" id="dummy-22_q27_0_all"  />
<polygon points="545,35 546,30 546,40 545,35 " style="fill:#b1d815; stroke-width:1; stroke:black; " description="&lt;b&gt;LLPMBPKK_06017&lt;/b&gt;&lt;br&gt;hypothetical protein&lt;br&gt;Location: 6937822 - 6938002" locus_tag="LLPMBPKK_06017" class="clusterblast-orf" id="dummy-22_q28_0_all"  />
<polygon points="547,40 551,35 547,30 547,40 " style="fill:#15d8d8; stroke-width:1; stroke:black; " description="&lt;b&gt;LLPMBPKK_06018&lt;/b&gt;&lt;br&gt;LLM class F420-dependent oxidoreductase&lt;br&gt;Location: 6938239 - 6939163" locus_tag="LLPMBPKK_06018" class="clusterblast-orf" id="dummy-22_q29_0_all"  />
<polygon points="552,35 556,30 556,40 552,35 " style="fill:white; stroke-width:1; stroke:black; " description="&lt;b&gt;LLPMBPKK_06019&lt;/b&gt;&lt;br&gt;D-alanyl-D-alanine carboxypeptidase&lt;br&gt;Location: 6939363 - 6940320" locus_tag="LLPMBPKK_06019" class="clusterblast-orf" id="dummy-22_q30_0_all"  />
<polygon points="557,40 561,35 557,30 557,40 " style="fill:white; stroke-width:1; stroke:black; " description="&lt;b&gt;LLPMBPKK_06020&lt;/b&gt;&lt;br&gt;hypothetical protein&lt;br&gt;Location: 6940433 - 6941423" locus_tag="LLPMBPKK_06020" class="clusterblast-orf" id="dummy-22_q31_0_all"  />
</g>
<g label="NZ_CP012949" description="NZ_CP012949 (5818422-5994901): Streptomyces ambofaciens strain DSM 40697 chro... (13% of genes show similarity), NRPS,T1PKS,oligosaccharide" class="clusterblast-cluster"  >
<text x="5" y="70" class="clusterblast-acc"  >
<a xlink:href="https://antismash-db.secondarymetabolites.org/area.html?record=NZ_CP012949&amp;start=5818422&amp;end=5994901" target="_blank">NZ_CP012949 (5818422-5994901)</a>: Streptomyces ambofaciens strain DSM 40697 chro... (13% of genes show similarity), NRPS,T1PKS,oligosaccharide</text>
<line x1="10" y1="85" x2="778.0" y2="85" style="stroke-width:1; stroke:grey; "  />
</g>
<g id="a22_000"  >
<polygon points="0,90 3,85 0,80 0,90 " style="fill:white; stroke-width:1; stroke:black; " description="&lt;b&gt;SAM40697_RS25940&lt;/b&gt;&lt;br&gt;NAD(P)H-binding protein&lt;br&gt;Location: 5818689 - 5819537" locus_tag="SAM40697_RS25940" class="clusterblast-orf" id="dummy-22_h22_6_0"  />
</g>
<g id="a22_001"  >
<polygon points="3,85 8,80 8,80 8,90 8,90 3,85 " style="fill:white; stroke-width:1; stroke:black; " description="&lt;b&gt;SAM40697_RS25945&lt;/b&gt;&lt;br&gt;glycosyl hydrolase&lt;br&gt;Location: 5819560 - 5820567" locus_tag="SAM40697_RS25945" class="clusterblast-orf" id="dummy-22_h22_6_1"  />
</g>
<g id="a22_002"  >
<polygon points="9,85 14,80 14,80 14,90 14,90 9,85 " style="fill:white; stroke-width:1; stroke:black; " description="&lt;b&gt;SAM40697_RS25950&lt;/b&gt;&lt;br&gt;acyl-CoA dehydrogenase family protein&lt;br&gt;Location: 5820747 - 5821943" locus_tag="SAM40697_RS25950" class="clusterblast-orf" id="dummy-22_h22_6_2"  />
</g>
<g id="a22_003"  >
<polygon points="14,85 19,80 21,80 21,90 19,90 14,85 " style="fill:white; stroke-width:1; stroke:black; " description="&lt;b&gt;SAM40697_RS25955&lt;/b&gt;&lt;br&gt;AMP-binding protein&lt;br&gt;Location: 5821965 - 5823533" locus_tag="SAM40697_RS25955" class="clusterblast-orf" id="dummy-22_h22_6_3"  />
</g>
<g id="a22_004"  >
<polygon points="22,90 24,85 22,80 22,90 " style="fill:white; stroke-width:1; stroke:black; " description="&lt;b&gt;SAM40697_RS25960&lt;/b&gt;&lt;br&gt;helix-turn-helix transcriptional regulator&lt;br&gt;Location: 5823730 - 5824326" locus_tag="SAM40697_RS25960" class="clusterblast-orf" id="dummy-22_h22_6_4"  />
</g>
<g id="a22_005"  >
<polygon points="25,85 30,80 31,80 31,90 30,90 25,85 " style="fill:white; stroke-width:1; stroke:black; " description="&lt;b&gt;SAM40697_RS25965&lt;/b&gt;&lt;br&gt;MFS transporter&lt;br&gt;Location: 5824342 - 5825772" locus_tag="SAM40697_RS25965" class="clusterblast-orf" id="dummy-22_h22_6_5"  />
</g>
<g id="a22_006"  >
<polygon points="33,90 33,90 38,85 33,80 33,80 33,90 " style="fill:white; stroke-width:1; stroke:black; " description="&lt;b&gt;SAM40697_RS25970&lt;/b&gt;&lt;br&gt;hypothetical protein&lt;br&gt;Location: 5826315 - 5827478" locus_tag="SAM40697_RS25970" class="clusterblast-orf" id="dummy-22_h22_6_6"  />
</g>
<g id="a22_007"  >
<polygon points="40,85 42,80 42,90 40,85 " style="fill:white; stroke-width:1; stroke:black; " description="&lt;b&gt;SAM40697_RS25975&lt;/b&gt;&lt;br&gt;dTDP-4-dehydrorhamnose 3,5-epimerase family protein&lt;br&gt;Location: 5827753 - 5828373" locus_tag="SAM40697_RS25975" class="clusterblast-orf" id="dummy-22_h22_6_7"  />
</g>
<g id="a22_008"  >
<polygon points="43,85 48,80 48,80 48,90 48,90 43,85 " style="fill:white; stroke-width:1; stroke:black; " description="&lt;b&gt;SAM40697_RS25980&lt;/b&gt;&lt;br&gt;hypothetical protein&lt;br&gt;Location: 5828423 - 5829640" locus_tag="SAM40697_RS25980" class="clusterblast-orf" id="dummy-22_h22_6_8"  />
</g>
<g id="a22_009"  >
<polygon points="49,90 53,85 49,80 49,90 " style="fill:white; stroke-width:1; stroke:black; " description="&lt;b&gt;SAM40697_RS25985&lt;/b&gt;&lt;br&gt;3-hydroxyacyl-CoA dehydrogenase family protein&lt;br&gt;Location: 5829941 - 5830756" locus_tag="SAM40697_RS25985" class="clusterblast-orf" id="dummy-22_h22_6_9"  />
</g>
<g id="a22_0010"  >
<polygon points="53,90 54,85 53,80 53,90 " style="fill:white; stroke-width:1; stroke:black; " description="&lt;b&gt;SAM40697_RS25990&lt;/b&gt;&lt;br&gt;acyl carrier protein&lt;br&gt;Location: 5830753 - 5831064" locus_tag="SAM40697_RS25990" class="clusterblast-orf" id="dummy-22_h22_6_10"  />
</g>
<g id="a22_0011"  >
<polygon points="54,90 54,90 59,85 54,80 54,80 54,90 " style="fill:white; stroke-width:1; stroke:black; " description="&lt;b&gt;SAM40697_RS25995&lt;/b&gt;&lt;br&gt;acyl-CoA dehydrogenase family protein&lt;br&gt;Location: 5831099 - 5832178" locus_tag="SAM40697_RS25995" class="clusterblast-orf" id="dummy-22_h22_6_11"  />
</g>
<g id="a22_0012"  >
<polygon points="60,90 60,90 65,85 60,80 60,80 60,90 " style="fill:white; stroke-width:1; stroke:black; " description="&lt;b&gt;SAM40697_RS26000&lt;/b&gt;&lt;br&gt;HAD-IIIC family phosphatase&lt;br&gt;Location: 5832267 - 5833382" locus_tag="SAM40697_RS26000" class="clusterblast-orf" id="dummy-22_h22_6_12"  />
</g>
<g id="a22_0013"  >
<polygon points="65,90 65,90 70,85 65,80 65,80 65,90 " style="fill:white; stroke-width:1; stroke:black; " description="&lt;b&gt;SAM40697_RS26005&lt;/b&gt;&lt;br&gt;methyltransferase domain-containing protein&lt;br&gt;Location: 5833379 - 5834611" locus_tag="SAM40697_RS26005" class="clusterblast-orf" id="dummy-22_h22_6_13"  />
</g>
<g id="a22_0014"  >
<polygon points="70,85 75,80 75,80 75,90 75,90 70,85 " style="fill:white; stroke-width:1; stroke:black; " description="&lt;b&gt;SAM40697_RS26010&lt;/b&gt;&lt;br&gt;aldo/keto reductase&lt;br&gt;Location: 5834654 - 5835661" locus_tag="SAM40697_RS26010" class="clusterblast-orf" id="dummy-22_h22_6_14"  />
</g>
<g id="a22_0015"  >
<polygon points="75,85 79,80 79,90 75,85 " style="fill:white; stroke-width:1; stroke:black; " description="&lt;b&gt;SAM40697_RS26015&lt;/b&gt;&lt;br&gt;NAD(P)-dependent oxidoreductase&lt;br&gt;Location: 5835658 - 5836662" locus_tag="SAM40697_RS26015" class="clusterblast-orf" id="dummy-22_h22_6_15"  />
</g>
<g id="a22_0016"  >
<polygon points="79,85 84,80 84,80 84,90 84,90 79,85 " style="fill:white; stroke-width:1; stroke:black; " description="&lt;b&gt;SAM40697_RS26020&lt;/b&gt;&lt;br&gt;DUF1205 domain-containing protein&lt;br&gt;Location: 5836652 - 5837830" locus_tag="SAM40697_RS26020" class="clusterblast-orf" id="dummy-22_h22_6_16"  />
</g>
<g id="a22_0017"  >
<polygon points="85,85 90,80 90,80 90,90 90,90 85,85 " style="fill:white; stroke-width:1; stroke:black; " description="&lt;b&gt;SAM40697_RS26025&lt;/b&gt;&lt;br&gt;activator-dependent family glycosyltransferase&lt;br&gt;Location: 5837947 - 5839218" locus_tag="SAM40697_RS26025" class="clusterblast-orf" id="dummy-22_h22_6_17"  />
</g>
<g id="a22_0018"  >
<polygon points="91,85 96,80 96,80 96,90 96,90 91,85 " style="fill:white; stroke-width:1; stroke:black; " description="&lt;b&gt;SAM40697_RS26030&lt;/b&gt;&lt;br&gt;P450-derived glycosyltransferase activator&lt;br&gt;Location: 5839275 - 5840513" locus_tag="SAM40697_RS26030" class="clusterblast-orf" id="dummy-22_h22_6_18"  />
</g>
<g id="a22_0019"  >
<polygon points="97,90 97,90 102,85 97,80 97,80 97,90 " style="fill:white; stroke-width:1; stroke:black; " description="&lt;b&gt;SAM40697_RS26035&lt;/b&gt;&lt;br&gt;Gfo/Idh/MocA family oxidoreductase&lt;br&gt;Location: 5840826 - 5841866" locus_tag="SAM40697_RS26035" class="clusterblast-orf" id="dummy-22_h22_6_19"  />
</g>
<g id="a22_0020"  >
<polygon points="103,85 107,80 107,90 103,85 " style="fill:white; stroke-width:1; stroke:black; " description="&lt;b&gt;SAM40697_RS26040&lt;/b&gt;&lt;br&gt;hypothetical protein&lt;br&gt;Location: 5841975 - 5843018" locus_tag="SAM40697_RS26040" class="clusterblast-orf" id="dummy-22_h22_6_20"  />
</g>
<g id="a22_0021"  >
<polygon points="109,90 110,90 115,85 110,80 109,80 109,90 " style="fill:white; stroke-width:1; stroke:black; " description="&lt;b&gt;SAM40697_RS26045&lt;/b&gt;&lt;br&gt;GTPase HflX&lt;br&gt;Location: 5843338 - 5844735" locus_tag="SAM40697_RS26045" class="clusterblast-orf" id="dummy-22_h22_6_21"  />
</g>
<g id="a22_0022"  >
<polygon points="115,85 120,80 121,80 121,90 120,90 115,85 " style="fill:white; stroke-width:1; stroke:black; " description="&lt;b&gt;SAM40697_RS26050&lt;/b&gt;&lt;br&gt;lipopolysaccharide biosynthesis protein RfbH&lt;br&gt;Location: 5844799 - 5846100" locus_tag="SAM40697_RS26050" class="clusterblast-orf" id="dummy-22_h22_6_22"  />
</g>
<g id="a22_0023"  >
<polygon points="122,90 125,90 130,85 125,80 122,80 122,90 " style="fill:white; stroke-width:1; stroke:black; " description="&lt;b&gt;SAM40697_RS26055&lt;/b&gt;&lt;br&gt;TlrC/CarA/OleB/SrmB family ABC-F type ribosomal protection protein&lt;br&gt;Location: 5846443 - 5848095" locus_tag="SAM40697_RS26055" class="clusterblast-orf" id="dummy-22_h22_6_23"  />
</g>
<g id="a22_0024"  >
<polygon points="130,85 135,80 139,80 139,90 135,90 130,85 " style="fill:white; stroke-width:1; stroke:black; " description="&lt;b&gt;SAM40697_RS26060&lt;/b&gt;&lt;br&gt;GAF domain-containing protein&lt;br&gt;Location: 5848169 - 5850136" locus_tag="SAM40697_RS26060" class="clusterblast-orf" id="dummy-22_h22_6_24"  />
</g>
<g id="a22_0025"  >
<polygon points="141,90 144,85 141,80 141,90 " style="fill:white; stroke-width:1; stroke:black; " description="&lt;b&gt;SAM40697_RS26065&lt;/b&gt;&lt;br&gt;class I SAM-dependent methyltransferase&lt;br&gt;Location: 5850711 - 5851430" locus_tag="SAM40697_RS26065" class="clusterblast-orf" id="dummy-22_h22_6_25"  />
</g>
<g id="a22_0026"  >
<polygon points="145,85 150,80 150,80 150,90 150,90 145,85 " style="fill:white; stroke-width:1; stroke:black; " description="&lt;b&gt;SAM40697_RS26070&lt;/b&gt;&lt;br&gt;DegT/DnrJ/EryC1/StrS family aminotransferase&lt;br&gt;Location: 5851536 - 5852660" locus_tag="SAM40697_RS26070" class="clusterblast-orf" id="dummy-22_h22_6_26"  />
</g>
<g id="a22_0027"  >
<polygon points="152,85 157,80 162,80 162,90 157,90 152,85 " style="fill:white; stroke-width:1; stroke:black; " description="&lt;b&gt;SAM40697_RS36155&lt;/b&gt;&lt;br&gt;alpha/beta fold hydrolase&lt;br&gt;Location: 5853089 - 5855302" locus_tag="SAM40697_RS36155" class="clusterblast-orf" id="dummy-22_h22_6_27"  />
</g>
<g id="a22_0028"  >
<polygon points="162,85 166,80 166,90 162,85 " style="fill:white; stroke-width:1; stroke:black; " description="&lt;b&gt;SAM40697_RS26080&lt;/b&gt;&lt;br&gt;dTDP-glucose 4,6-dehydratase&lt;br&gt;Location: 5855299 - 5856336" locus_tag="SAM40697_RS26080" class="clusterblast-orf" id="dummy-22_h22_6_28"  />
</g>
<g id="a22_0029"  >
<polygon points="166,85 170,80 170,90 166,85 " style="fill:white; stroke-width:1; stroke:black; " description="&lt;b&gt;SAM40697_RS26085&lt;/b&gt;&lt;br&gt;glucose-1-phosphate thymidylyltransferase RfbA&lt;br&gt;Location: 5856320 - 5857198" locus_tag="SAM40697_RS26085" class="clusterblast-orf" id="dummy-22_h22_6_29"  />
</g>
<g id="a22_0030"  >
<polygon points="170,85 175,80 175,80 175,90 175,90 170,85 " style="fill:white; stroke-width:1; stroke:black; " description="&lt;b&gt;SAM40697_RS26090&lt;/b&gt;&lt;br&gt;DegT/DnrJ/EryC1/StrS family aminotransferase&lt;br&gt;Location: 5857225 - 5858391" locus_tag="SAM40697_RS26090" class="clusterblast-orf" id="dummy-22_h22_6_30"  />
</g>
<g id="a22_0031"  >
<polygon points="175,85 177,80 177,90 175,85 " style="fill:white; stroke-width:1; stroke:black; " description="&lt;b&gt;SAM40697_RS26095&lt;/b&gt;&lt;br&gt;WxcM-like domain-containing protein&lt;br&gt;Location: 5858388 - 5858843" locus_tag="SAM40697_RS26095" class="clusterblast-orf" id="dummy-22_h22_6_31"  />
</g>
<g id="a22_0032"  >
<polygon points="178,85 183,80 183,80 183,90 183,90 178,85 " style="fill:white; stroke-width:1; stroke:black; " description="&lt;b&gt;SAM40697_RS26100&lt;/b&gt;&lt;br&gt;cytochrome P450&lt;br&gt;Location: 5858924 - 5860135" locus_tag="SAM40697_RS26100" class="clusterblast-orf" id="dummy-22_h22_6_32"  />
</g>
<g id="a22_0033"  >
<polygon points="185,90 241,90 246,85 241,80 185,80 185,90 " style="fill:#1563d8; stroke-width:1; stroke:black; " description="&lt;b&gt;SAM40697_RS37340&lt;/b&gt;&lt;br&gt;type I polyketide synthase&lt;br&gt;Location: 5860692 - 5874293&lt;br&gt;&lt;br&gt;&lt;b&gt;BlastP hit with LLPMBPKK_06003&lt;/b&gt;&lt;br&gt;Percentage identity: 43&lt;br&gt;Percentage coverage: 81&lt;br&gt;BLAST bit score: 2691&lt;br&gt;E-value: 0.0&lt;br&gt;&lt;br&gt;&lt;b&gt;BlastP hit with LLPMBPKK_06004&lt;/b&gt;&lt;br&gt;Percentage identity: 42&lt;br&gt;Percentage coverage: 109&lt;br&gt;BLAST bit score: 2004&lt;br&gt;E-value: 0.0&lt;br&gt;&lt;br&gt;&lt;b&gt;BlastP hit with LLPMBPKK_06005&lt;/b&gt;&lt;br&gt;Percentage identity: 43&lt;br&gt;Percentage coverage: 96&lt;br&gt;BLAST bit score: 2266&lt;br&gt;E-value: 0.0" locus_tag="SAM40697_RS37340" class="clusterblast-orf" id="dummy-22_h22_6_33"  />
</g>
<g id="a22_0034"  >
<polygon points="246,90 267,90 272,85 267,80 246,80 246,90 " style="fill:#1563d8; stroke-width:1; stroke:black; " description="&lt;b&gt;SAM40697_RS36220&lt;/b&gt;&lt;br&gt;SDR family NAD(P)-dependent oxidoreductase&lt;br&gt;Location: 5874328 - 5880327&lt;br&gt;&lt;br&gt;&lt;b&gt;BlastP hit with LLPMBPKK_06003&lt;/b&gt;&lt;br&gt;Percentage identity: 49&lt;br&gt;Percentage coverage: 34&lt;br&gt;BLAST bit score: 1399&lt;br&gt;E-value: 0.0&lt;br&gt;&lt;br&gt;&lt;b&gt;BlastP hit with LLPMBPKK_06004&lt;/b&gt;&lt;br&gt;Percentage identity: 45&lt;br&gt;Percentage coverage: 61&lt;br&gt;BLAST bit score: 1298&lt;br&gt;E-value: 0.0&lt;br&gt;&lt;br&gt;&lt;b&gt;BlastP hit with LLPMBPKK_06005&lt;/b&gt;&lt;br&gt;Percentage identity: 44&lt;br&gt;Percentage coverage: 53&lt;br&gt;BLAST bit score: 1326&lt;br&gt;E-value: 0.0" locus_tag="SAM40697_RS36220" class="clusterblast-orf" id="dummy-22_h22_6_34"  />
</g>
<g id="a22_0035"  >
<polygon points="273,90 318,90 323,85 318,80 273,80 273,90 " style="fill:#1563d8; stroke-width:1; stroke:black; " description="&lt;b&gt;SAM40697_RS26125&lt;/b&gt;&lt;br&gt;SDR family NAD(P)-dependent oxidoreductase&lt;br&gt;Location: 5880401 - 5891710&lt;br&gt;&lt;br&gt;&lt;b&gt;BlastP hit with LLPMBPKK_06003&lt;/b&gt;&lt;br&gt;Percentage identity: 39&lt;br&gt;Percentage coverage: 66&lt;br&gt;BLAST bit score: 1860&lt;br&gt;E-value: 0.0&lt;br&gt;&lt;br&gt;&lt;b&gt;BlastP hit with LLPMBPKK_06004&lt;/b&gt;&lt;br&gt;Percentage identity: 41&lt;br&gt;Percentage coverage: 117&lt;br&gt;BLAST bit score: 2045&lt;br&gt;E-value: 0.0&lt;br&gt;&lt;br&gt;&lt;b&gt;BlastP hit with LLPMBPKK_06005&lt;/b&gt;&lt;br&gt;Percentage identity: 38&lt;br&gt;Percentage coverage: 104&lt;br&gt;BLAST bit score: 1967&lt;br&gt;E-value: 0.0" locus_tag="SAM40697_RS26125" class="clusterblast-orf" id="dummy-22_h22_6_35"  />
</g>
<g id="a22_0036"  >
<polygon points="323,90 339,90 344,85 339,80 323,80 323,90 " style="fill:#1563d8; stroke-width:1; stroke:black; " description="&lt;b&gt;SAM40697_RS26130&lt;/b&gt;&lt;br&gt;type I polyketide synthase&lt;br&gt;Location: 5891755 - 5896512&lt;br&gt;&lt;br&gt;&lt;b&gt;BlastP hit with LLPMBPKK_06003&lt;/b&gt;&lt;br&gt;Percentage identity: 41&lt;br&gt;Percentage coverage: 27&lt;br&gt;BLAST bit score: 792&lt;br&gt;E-value: 1.35e-242&lt;br&gt;&lt;br&gt;&lt;b&gt;BlastP hit with LLPMBPKK_06004&lt;/b&gt;&lt;br&gt;Percentage identity: 50&lt;br&gt;Percentage coverage: 30&lt;br&gt;BLAST bit score: 790&lt;br&gt;E-value: 9.87e-244&lt;br&gt;&lt;br&gt;&lt;b&gt;BlastP hit with LLPMBPKK_06005&lt;/b&gt;&lt;br&gt;Percentage identity: 40&lt;br&gt;Percentage coverage: 44&lt;br&gt;BLAST bit score: 812&lt;br&gt;E-value: 6.59e-250" locus_tag="SAM40697_RS26130" class="clusterblast-orf" id="dummy-22_h22_6_36"  />
</g>
<g id="a22_0037"  >
<polygon points="344,90 364,90 369,85 364,80 344,80 344,90 " style="fill:#1563d8; stroke-width:1; stroke:black; " description="&lt;b&gt;SAM40697_RS26135&lt;/b&gt;&lt;br&gt;type I polyketide synthase&lt;br&gt;Location: 5896607 - 5902273&lt;br&gt;&lt;br&gt;&lt;b&gt;BlastP hit with LLPMBPKK_06003&lt;/b&gt;&lt;br&gt;Percentage identity: 45&lt;br&gt;Percentage coverage: 32&lt;br&gt;BLAST bit score: 1112&lt;br&gt;E-value: 0.0&lt;br&gt;&lt;br&gt;&lt;b&gt;BlastP hit with LLPMBPKK_06004&lt;/b&gt;&lt;br&gt;Percentage identity: 43&lt;br&gt;Percentage coverage: 54&lt;br&gt;BLAST bit score: 1022&lt;br&gt;E-value: 0.0&lt;br&gt;&lt;br&gt;&lt;b&gt;BlastP hit with LLPMBPKK_06005&lt;/b&gt;&lt;br&gt;Percentage identity: 45&lt;br&gt;Percentage coverage: 52&lt;br&gt;BLAST bit score: 1228&lt;br&gt;E-value: 0.0" locus_tag="SAM40697_RS26135" class="clusterblast-orf" id="dummy-22_h22_6_37"  />
</g>
<g id="a22_0038"  >
<polygon points="369,90 373,85 369,80 369,90 " style="fill:white; stroke-width:1; stroke:black; " description="&lt;b&gt;SAM40697_RS26140&lt;/b&gt;&lt;br&gt;class I SAM-dependent methyltransferase&lt;br&gt;Location: 5902273 - 5902983" locus_tag="SAM40697_RS26140" class="clusterblast-orf" id="dummy-22_h22_6_38"  />
</g>
<g id="a22_0039"  >
<polygon points="373,90 374,90 379,85 374,80 373,80 373,90 " style="fill:white; stroke-width:1; stroke:black; " description="&lt;b&gt;SAM40697_RS26145&lt;/b&gt;&lt;br&gt;P450-derived glycosyltransferase activator&lt;br&gt;Location: 5903103 - 5904368" locus_tag="SAM40697_RS26145" class="clusterblast-orf" id="dummy-22_h22_6_39"  />
</g>
<g id="a22_0040"  >
<polygon points="379,90 380,90 385,85 380,80 379,80 379,90 " style="fill:white; stroke-width:1; stroke:black; " description="&lt;b&gt;SAM40697_RS26150&lt;/b&gt;&lt;br&gt;activator-dependent family glycosyltransferase&lt;br&gt;Location: 5904408 - 5905673" locus_tag="SAM40697_RS26150" class="clusterblast-orf" id="dummy-22_h22_6_40"  />
</g>
<g id="a22_0041"  >
<polygon points="385,90 386,90 391,85 386,80 385,80 385,90 " style="fill:white; stroke-width:1; stroke:black; " description="&lt;b&gt;SAM40697_RS26155&lt;/b&gt;&lt;br&gt;crotonyl-CoA carboxylase/reductase&lt;br&gt;Location: 5905700 - 5907049" locus_tag="SAM40697_RS26155" class="clusterblast-orf" id="dummy-22_h22_6_41"  />
</g>
<g id="a22_0042"  >
<polygon points="391,85 394,80 394,90 391,85 " style="fill:white; stroke-width:1; stroke:black; " description="&lt;b&gt;SAM40697_RS26160&lt;/b&gt;&lt;br&gt;methyltransferase domain-containing protein&lt;br&gt;Location: 5907187 - 5907852" locus_tag="SAM40697_RS26160" class="clusterblast-orf" id="dummy-22_h22_6_42"  />
</g>
<g id="a22_0043"  >
<polygon points="394,85 399,80 400,80 400,90 399,90 394,85 " style="fill:white; stroke-width:1; stroke:black; " description="&lt;b&gt;SAM40697_RS26165&lt;/b&gt;&lt;br&gt;acyltransferase&lt;br&gt;Location: 5907858 - 5909102" locus_tag="SAM40697_RS26165" class="clusterblast-orf" id="dummy-22_h22_6_43"  />
</g>
<g id="a22_0044"  >
<polygon points="401,90 405,85 401,80 401,90 " style="fill:white; stroke-width:1; stroke:black; " description="&lt;b&gt;SAM40697_RS26170&lt;/b&gt;&lt;br&gt;23S ribosomal RNA methyltransferase Erm&lt;br&gt;Location: 5909498 - 5910346" locus_tag="SAM40697_RS26170" class="clusterblast-orf" id="dummy-22_h22_6_44"  />
</g>
<g id="a22_0045"  >
<polygon points="405,85 409,80 409,90 405,85 " style="fill:white; stroke-width:1; stroke:black; " description="&lt;b&gt;SAM40697_RS26175&lt;/b&gt;&lt;br&gt;ABC transporter permease&lt;br&gt;Location: 5910408 - 5911133" locus_tag="SAM40697_RS26175" class="clusterblast-orf" id="dummy-22_h22_6_45"  />
</g>
<g id="a22_0046"  >
<polygon points="409,85 413,80 413,90 409,85 " style="fill:white; stroke-width:1; stroke:black; " description="&lt;b&gt;SAM40697_RS26180&lt;/b&gt;&lt;br&gt;ATP-binding cassette domain-containing protein&lt;br&gt;Location: 5911275 - 5912213" locus_tag="SAM40697_RS26180" class="clusterblast-orf" id="dummy-22_h22_6_46"  />
</g>
<g id="a22_0047"  >
<polygon points="414,85 415,80 415,90 414,85 " style="fill:white; stroke-width:1; stroke:black; " description="&lt;b&gt;SAM40697_RS26185&lt;/b&gt;&lt;br&gt;MbtH family protein&lt;br&gt;Location: 5912225 - 5912452" locus_tag="SAM40697_RS26185" class="clusterblast-orf" id="dummy-22_h22_6_47"  />
</g>
<g id="a22_0048"  >
<polygon points="415,85 420,80 447,80 447,90 420,90 415,85 " style="fill:white; stroke-width:1; stroke:black; " description="&lt;b&gt;SAM40697_RS26190&lt;/b&gt;&lt;br&gt;non-ribosomal peptide synthetase&lt;br&gt;Location: 5912466 - 5919680" locus_tag="SAM40697_RS26190" class="clusterblast-orf" id="dummy-22_h22_6_48"  />
</g>
<g id="a22_0049"  >
<polygon points="448,90 451,90 456,85 451,80 448,80 448,90 " style="fill:white; stroke-width:1; stroke:black; " description="&lt;b&gt;SAM40697_RS26195&lt;/b&gt;&lt;br&gt;fatty acyl-AMP ligase&lt;br&gt;Location: 5920025 - 5921803" locus_tag="SAM40697_RS26195" class="clusterblast-orf" id="dummy-22_h22_6_49"  />
</g>
<g id="a22_0050"  >
<polygon points="456,90 459,90 464,85 459,80 456,80 456,90 " style="fill:white; stroke-width:1; stroke:black; " description="&lt;b&gt;SAM40697_RS26200&lt;/b&gt;&lt;br&gt;acyl-CoA dehydrogenase family protein&lt;br&gt;Location: 5921902 - 5923650" locus_tag="SAM40697_RS26200" class="clusterblast-orf" id="dummy-22_h22_6_50"  />
</g>
<g id="a22_0051"  >
<polygon points="464,90 467,90 472,85 467,80 464,80 464,90 " style="fill:white; stroke-width:1; stroke:black; " description="&lt;b&gt;SAM40697_RS26205&lt;/b&gt;&lt;br&gt;acyl-CoA dehydrogenase&lt;br&gt;Location: 5923647 - 5925506" locus_tag="SAM40697_RS26205" class="clusterblast-orf" id="dummy-22_h22_6_51"  />
</g>
<g id="a22_0052"  >
<polygon points="472,90 474,85 472,80 472,90 " style="fill:white; stroke-width:1; stroke:black; " description="&lt;b&gt;SAM40697_RS26210&lt;/b&gt;&lt;br&gt;acyl carrier protein&lt;br&gt;Location: 5925509 - 5925793" locus_tag="SAM40697_RS26210" class="clusterblast-orf" id="dummy-22_h22_6_52"  />
</g>
<g id="a22_0053"  >
<polygon points="474,90 556,90 561,85 556,80 474,80 474,90 " style="fill:white; stroke-width:1; stroke:black; " description="&lt;b&gt;SAM40697_RS26215&lt;/b&gt;&lt;br&gt;non-ribosomal peptide synthetase&lt;br&gt;Location: 5925951 - 5945459" locus_tag="SAM40697_RS26215" class="clusterblast-orf" id="dummy-22_h22_6_53"  />
</g>
<g id="a22_0054"  >
<polygon points="557,90 570,90 575,85 570,80 557,80 557,90 " style="fill:white; stroke-width:1; stroke:black; " description="&lt;b&gt;SAM40697_RS36230&lt;/b&gt;&lt;br&gt;non-ribosomal peptide synthetase&lt;br&gt;Location: 5944741 - 5948754" locus_tag="SAM40697_RS36230" class="clusterblast-orf" id="dummy-22_h22_6_54"  />
</g>
<g id="a22_0055"  >
<polygon points="577,90 581,85 577,80 577,90 " style="fill:white; stroke-width:1; stroke:black; " description="&lt;b&gt;SAM40697_RS26220&lt;/b&gt;&lt;br&gt;ABC transporter ATP-binding protein&lt;br&gt;Location: 5949075 - 5950040" locus_tag="SAM40697_RS26220" class="clusterblast-orf" id="dummy-22_h22_6_55"  />
</g>
<g id="a22_0056"  >
<polygon points="581,90 585,85 581,80 581,90 " style="fill:white; stroke-width:1; stroke:black; " description="&lt;b&gt;SAM40697_RS26225&lt;/b&gt;&lt;br&gt;ABC transporter permease&lt;br&gt;Location: 5950044 - 5950853" locus_tag="SAM40697_RS26225" class="clusterblast-orf" id="dummy-22_h22_6_56"  />
</g>
<g id="a22_0057"  >
<polygon points="586,90 586,90 591,85 586,80 586,80 586,90 " style="fill:white; stroke-width:1; stroke:black; " description="&lt;b&gt;SAM40697_RS26230&lt;/b&gt;&lt;br&gt;winged helix-turn-helix transcriptional regulator&lt;br&gt;Location: 5951219 - 5952226" locus_tag="SAM40697_RS26230" class="clusterblast-orf" id="dummy-22_h22_6_57"  />
</g>
<g id="a22_0058"  >
<polygon points="591,85 596,80 596,80 596,90 596,90 591,85 " style="fill:white; stroke-width:1; stroke:black; " description="&lt;b&gt;SAM40697_RS26235&lt;/b&gt;&lt;br&gt;prephenate dehydrogenase&lt;br&gt;Location: 5952379 - 5953488" locus_tag="SAM40697_RS26235" class="clusterblast-orf" id="dummy-22_h22_6_58"  />
</g>
<g id="a22_0059"  >
<polygon points="596,85 601,80 602,80 602,90 601,90 596,85 " style="fill:white; stroke-width:1; stroke:black; " description="&lt;b&gt;SAM40697_RS26240&lt;/b&gt;&lt;br&gt;PLP-dependent aminotransferase family protein&lt;br&gt;Location: 5953540 - 5954772" locus_tag="SAM40697_RS26240" class="clusterblast-orf" id="dummy-22_h22_6_59"  />
</g>
<g id="a22_0060"  >
<polygon points="602,85 607,80 607,80 607,90 607,90 602,85 " style="fill:white; stroke-width:1; stroke:black; " description="&lt;b&gt;SAM40697_RS26245&lt;/b&gt;&lt;br&gt;alpha-hydroxy-acid oxidizing protein&lt;br&gt;Location: 5954883 - 5956001" locus_tag="SAM40697_RS26245" class="clusterblast-orf" id="dummy-22_h22_6_60"  />
</g>
<g id="a22_0061"  >
<polygon points="608,85 613,80 613,80 613,90 613,90 608,85 " style="fill:white; stroke-width:1; stroke:black; " description="&lt;b&gt;SAM40697_RS26250&lt;/b&gt;&lt;br&gt;4-hydroxyphenylpyruvate dioxygenase&lt;br&gt;Location: 5956100 - 5957257" locus_tag="SAM40697_RS26250" class="clusterblast-orf" id="dummy-22_h22_6_61"  />
</g>
<g id="a22_0062"  >
<polygon points="613,85 618,80 618,80 618,90 618,90 613,85 " style="fill:white; stroke-width:1; stroke:black; " description="&lt;b&gt;SAM40697_RS26255&lt;/b&gt;&lt;br&gt;hypothetical protein&lt;br&gt;Location: 5957376 - 5958317" locus_tag="SAM40697_RS26255" class="clusterblast-orf" id="dummy-22_h22_6_62"  />
</g>
<g id="a22_0063"  >
<polygon points="618,85 622,80 622,90 618,85 " style="fill:white; stroke-width:1; stroke:black; " description="&lt;b&gt;SAM40697_RS26260&lt;/b&gt;&lt;br&gt;alpha/beta hydrolase&lt;br&gt;Location: 5958396 - 5959220" locus_tag="SAM40697_RS26260" class="clusterblast-orf" id="dummy-22_h22_6_63"  />
</g>
<g id="a22_0064"  >
<polygon points="622,85 627,80 692,80 692,90 627,90 622,85 " style="fill:white; stroke-width:1; stroke:black; " description="&lt;b&gt;SAM40697_RS26265&lt;/b&gt;&lt;br&gt;non-ribosomal peptide synthetase&lt;br&gt;Location: 5959284 - 5975141" locus_tag="SAM40697_RS26265" class="clusterblast-orf" id="dummy-22_h22_6_64"  />
</g>
<g id="a22_0065"  >
<polygon points="693,90 696,85 693,80 693,90 " style="fill:white; stroke-width:1; stroke:black; " description="&lt;b&gt;SAM40697_RS26270&lt;/b&gt;&lt;br&gt;YqcI/YcgG family protein&lt;br&gt;Location: 5975405 - 5976064" locus_tag="SAM40697_RS26270" class="clusterblast-orf" id="dummy-22_h22_6_65"  />
</g>
<g id="a22_0066"  >
<polygon points="697,85 700,80 700,90 697,85 " style="fill:#d81515; stroke-width:1; stroke:black; " description="&lt;b&gt;SAM40697_RS26275&lt;/b&gt;&lt;br&gt;response regulator transcription factor&lt;br&gt;Location: 5976298 - 5976957&lt;br&gt;&lt;br&gt;&lt;b&gt;BlastP hit with LLPMBPKK_05992&lt;/b&gt;&lt;br&gt;Percentage identity: 31&lt;br&gt;Percentage coverage: 74&lt;br&gt;BLAST bit score: 76&lt;br&gt;E-value: 2.17e-14" locus_tag="SAM40697_RS26275" class="clusterblast-orf" id="dummy-22_h22_6_66"  />
</g>
<g id="a22_0067"  >
<polygon points="701,90 702,90 707,85 702,80 701,80 701,90 " style="fill:white; stroke-width:1; stroke:black; " description="&lt;b&gt;SAM40697_RS26280&lt;/b&gt;&lt;br&gt;sensor histidine kinase&lt;br&gt;Location: 5977113 - 5978627" locus_tag="SAM40697_RS26280" class="clusterblast-orf" id="dummy-22_h22_6_67"  />
</g>
<g id="a22_0068"  >
<polygon points="708,90 709,90 714,85 709,80 708,80 708,90 " style="fill:white; stroke-width:1; stroke:black; " description="&lt;b&gt;SAM40697_RS26285&lt;/b&gt;&lt;br&gt;APC family permease&lt;br&gt;Location: 5978696 - 5980099" locus_tag="SAM40697_RS26285" class="clusterblast-orf" id="dummy-22_h22_6_68"  />
</g>
<g id="a22_0069"  >
<polygon points="715,90 718,85 715,80 715,90 " style="fill:white; stroke-width:1; stroke:black; " description="&lt;b&gt;SAM40697_RS26290&lt;/b&gt;&lt;br&gt;TetR/AcrR family transcriptional regulator&lt;br&gt;Location: 5980303 - 5980950" locus_tag="SAM40697_RS26290" class="clusterblast-orf" id="dummy-22_h22_6_69"  />
</g>
<g id="a22_0070"  >
<polygon points="720,90 722,90 727,85 722,80 720,80 720,90 " style="fill:white; stroke-width:1; stroke:black; " description="&lt;b&gt;SAM40697_RS26295&lt;/b&gt;&lt;br&gt;MFS transporter&lt;br&gt;Location: 5981399 - 5983015" locus_tag="SAM40697_RS26295" class="clusterblast-orf" id="dummy-22_h22_6_70"  />
</g>
<g id="a22_0071"  >
<polygon points="727,85 731,80 731,90 727,85 " style="fill:white; stroke-width:1; stroke:black; " description="&lt;b&gt;SAM40697_RS26300&lt;/b&gt;&lt;br&gt;ATP-binding cassette domain-containing protein&lt;br&gt;Location: 5983037 - 5983882" locus_tag="SAM40697_RS26300" class="clusterblast-orf" id="dummy-22_h22_6_71"  />
</g>
<g id="a22_0072"  >
<polygon points="731,85 734,80 734,90 731,85 " style="fill:white; stroke-width:1; stroke:black; " description="&lt;b&gt;SAM40697_RS26305&lt;/b&gt;&lt;br&gt;cobalt ECF transporter T component CbiQ&lt;br&gt;Location: 5983891 - 5984640" locus_tag="SAM40697_RS26305" class="clusterblast-orf" id="dummy-22_h22_6_72"  />
</g>
<g id="a22_0073"  >
<polygon points="734,85 736,80 736,90 734,85 " style="fill:white; stroke-width:1; stroke:black; " description="&lt;b&gt;SAM40697_RS26310&lt;/b&gt;&lt;br&gt;energy-coupling factor ABC transporter substrate-binding protein&lt;br&gt;Location: 5984641 - 5984982" locus_tag="SAM40697_RS26310" class="clusterblast-orf" id="dummy-22_h22_6_73"  />
</g>
<g id="a22_0074"  >
<polygon points="736,85 739,80 739,90 736,85 " style="fill:white; stroke-width:1; stroke:black; " description="&lt;b&gt;SAM40697_RS26315&lt;/b&gt;&lt;br&gt;energy-coupling factor ABC transporter permease&lt;br&gt;Location: 5984979 - 5985713" locus_tag="SAM40697_RS26315" class="clusterblast-orf" id="dummy-22_h22_6_74"  />
</g>
<g id="a22_0075"  >
<polygon points="740,85 742,80 742,90 740,85 " style="fill:white; stroke-width:1; stroke:black; " description="&lt;b&gt;SAM40697_RS26320&lt;/b&gt;&lt;br&gt;two pore domain potassium channel family protein&lt;br&gt;Location: 5986021 - 5986482" locus_tag="SAM40697_RS26320" class="clusterblast-orf" id="dummy-22_h22_6_75"  />
</g>
<g id="a22_0076"  >
<polygon points="743,85 748,80 749,80 749,90 748,90 743,85 " style="fill:white; stroke-width:1; stroke:black; " description="&lt;b&gt;SAM40697_RS26325&lt;/b&gt;&lt;br&gt;hypothetical protein&lt;br&gt;Location: 5986596 - 5987951" locus_tag="SAM40697_RS26325" class="clusterblast-orf" id="dummy-22_h22_6_76"  />
</g>
<g id="a22_0077"  >
<polygon points="750,90 752,85 750,80 750,90 " style="fill:white; stroke-width:1; stroke:black; " description="&lt;b&gt;SAM40697_RS26330&lt;/b&gt;&lt;br&gt;hypothetical protein&lt;br&gt;Location: 5988230 - 5988688" locus_tag="SAM40697_RS26330" class="clusterblast-orf" id="dummy-22_h22_6_77"  />
</g>
<g id="a22_0078"  >
<polygon points="753,90 755,85 753,80 753,90 " style="fill:#d88a15; stroke-width:1; stroke:black; " description="&lt;b&gt;SAM40697_RS26335&lt;/b&gt;&lt;br&gt;cell division protein SepF&lt;br&gt;Location: 5988880 - 5989272&lt;br&gt;&lt;br&gt;&lt;b&gt;BlastP hit with LLPMBPKK_06013&lt;/b&gt;&lt;br&gt;Percentage identity: 86&lt;br&gt;Percentage coverage: 100&lt;br&gt;BLAST bit score: 222&lt;br&gt;E-value: 2.12e-74" locus_tag="SAM40697_RS26335" class="clusterblast-orf" id="dummy-22_h22_6_78"  />
</g>
<g id="a22_0079"  >
<polygon points="755,90 755,90 760,85 755,80 755,80 755,90 " style="fill:#15d863; stroke-width:1; stroke:black; " description="&lt;b&gt;SAM40697_RS26340&lt;/b&gt;&lt;br&gt;hypothetical protein&lt;br&gt;Location: 5989369 - 5990523&lt;br&gt;&lt;br&gt;&lt;b&gt;BlastP hit with LLPMBPKK_06014&lt;/b&gt;&lt;br&gt;Percentage identity: 82&lt;br&gt;Percentage coverage: 92&lt;br&gt;BLAST bit score: 583&lt;br&gt;E-value: 9.62e-209" locus_tag="SAM40697_RS26340" class="clusterblast-orf" id="dummy-22_h22_6_79"  />
</g>
<g id="a22_0080"  >
<polygon points="760,90 762,85 760,80 760,90 " style="fill:#3c15d8; stroke-width:1; stroke:black; " description="&lt;b&gt;SAM40697_RS26345&lt;/b&gt;&lt;br&gt;nucleotide pyrophosphohydrolase&lt;br&gt;Location: 5990520 - 5990873&lt;br&gt;&lt;br&gt;&lt;b&gt;BlastP hit with LLPMBPKK_06015&lt;/b&gt;&lt;br&gt;Percentage identity: 89&lt;br&gt;Percentage coverage: 85&lt;br&gt;BLAST bit score: 184&lt;br&gt;E-value: 6.16e-60" locus_tag="SAM40697_RS26345" class="clusterblast-orf" id="dummy-22_h22_6_80"  />
</g>
<g id="a22_0081"  >
<polygon points="762,90 765,85 762,80 762,90 " style="fill:#d8158a; stroke-width:1; stroke:black; " description="&lt;b&gt;SAM40697_RS26350&lt;/b&gt;&lt;br&gt;hypothetical protein&lt;br&gt;Location: 5991057 - 5991527&lt;br&gt;&lt;br&gt;&lt;b&gt;BlastP hit with LLPMBPKK_06016&lt;/b&gt;&lt;br&gt;Percentage identity: 77&lt;br&gt;Percentage coverage: 94&lt;br&gt;BLAST bit score: 218&lt;br&gt;E-value: 6e-72" locus_tag="SAM40697_RS26350" class="clusterblast-orf" id="dummy-22_h22_6_81"  />
</g>
<g id="a22_0082"  >
<polygon points="768,90 772,85 768,80 768,90 " style="fill:#15d8d8; stroke-width:1; stroke:black; " description="&lt;b&gt;SAM40697_RS26355&lt;/b&gt;&lt;br&gt;LLM class F420-dependent oxidoreductase&lt;br&gt;Location: 5992317 - 5993240&lt;br&gt;&lt;br&gt;&lt;b&gt;BlastP hit with LLPMBPKK_06018&lt;/b&gt;&lt;br&gt;Percentage identity: 92&lt;br&gt;Percentage coverage: 100&lt;br&gt;BLAST bit score: 564&lt;br&gt;E-value: 6.65e-204" locus_tag="SAM40697_RS26355" class="clusterblast-orf" id="dummy-22_h22_6_82"  />
</g>
<g id="a22_0083"  >
<polygon points="773,90 775,90 780,85 775,80 773,80 773,90 " style="fill:white; stroke-width:1; stroke:black; " description="&lt;b&gt;SAM40697_RS26360&lt;/b&gt;&lt;br&gt;3' terminal RNA ribose 2'-O-methyltransferase Hen1&lt;br&gt;Location: 5993432 - 5994901" locus_tag="SAM40697_RS26360" class="clusterblast-orf" id="dummy-22_h22_6_83"  />
</g>
</svg>
