<svg xmlns="http://www.w3.org/2000/svg" xmlns:xlink="http://www.w3.org/1999/xlink" version="1.1" x="0" y="0" height="230" width="800" viewBox="0 0 800 230" preserveAspectRatio="none"  >
<g label="Query sequence" class="clusterblast-cluster"  >
<text x="5" y="20" class="clusterblast-acc"  >
Query sequence</text>
<line x1="10" y1="35" x2="778.0" y2="35" style="stroke-width:1; stroke:grey; "  />
<polygon points="127,40 132,40 137,35 132,30 127,30 127,40 " style="fill:#d81515; stroke-width:1; stroke:black; " description="&lt;b&gt;LLPMBPKK_05373&lt;/b&gt;&lt;br&gt;hypothetical protein&lt;br&gt;Location: 6119913 - 6120729" locus_tag="LLPMBPKK_05373" class="clusterblast-orf" id="dummy-20_q0_0_all"  />
<polygon points="142,40 156,40 161,35 156,30 142,30 142,40 " style="fill:#33d815; stroke-width:1; stroke:black; " description="&lt;b&gt;LLPMBPKK_05374&lt;/b&gt;&lt;br&gt;amino acid permease&lt;br&gt;Location: 6121100 - 6122573" locus_tag="LLPMBPKK_05374" class="clusterblast-orf" id="dummy-20_q1_0_all"  />
<polygon points="166,40 168,35 166,30 166,40 " style="fill:white; stroke-width:1; stroke:black; " description="&lt;b&gt;LLPMBPKK_05375&lt;/b&gt;&lt;br&gt;hypothetical protein&lt;br&gt;Location: 6122987 - 6123137" locus_tag="LLPMBPKK_05375" class="clusterblast-orf" id="dummy-20_q2_0_all"  />
<polygon points="170,40 170,40 175,35 170,30 170,30 170,40 " style="fill:white; stroke-width:1; stroke:black; " description="&lt;b&gt;LLPMBPKK_05376&lt;/b&gt;&lt;br&gt;hypothetical protein&lt;br&gt;Location: 6123339 - 6123723" locus_tag="LLPMBPKK_05376" class="clusterblast-orf" id="dummy-20_q3_0_all"  />
<polygon points="176,40 186,40 191,35 186,30 176,30 176,40 " style="fill:#15abd8; stroke-width:1; stroke:black; " description="&lt;b&gt;LLPMBPKK_05377&lt;/b&gt;&lt;br&gt;cytochrome P450&lt;br&gt;Location: 6123827 - 6125027" locus_tag="LLPMBPKK_05377" class="clusterblast-orf" id="dummy-20_q4_0_all"  />
<polygon points="195,40 210,40 215,35 210,30 195,30 195,40 " style="fill:#8d15d8; stroke-width:1; stroke:black; " description="&lt;b&gt;LLPMBPKK_05378&lt;/b&gt;&lt;br&gt;solute-binding transport lipoprotein&lt;br&gt;Location: 6125331 - 6126897" locus_tag="LLPMBPKK_05378" class="clusterblast-orf" id="dummy-20_q5_0_all"  />
<polygon points="216,35 221,30 251,30 251,40 221,40 216,35 " style="fill:#d86f15; stroke-width:1; stroke:black; " description="&lt;b&gt;LLPMBPKK_05379&lt;/b&gt;&lt;br&gt;non-ribosomal peptide synthetase&lt;br&gt;Location: 6126958 - 6129811" locus_tag="LLPMBPKK_05379" class="clusterblast-orf" id="dummy-20_q6_0_all"  />
<polygon points="255,40 299,40 304,35 299,30 255,30 255,40 " style="fill:#d86f15; stroke-width:1; stroke:black; " description="&lt;b&gt;LLPMBPKK_05380&lt;/b&gt;&lt;br&gt;non-ribosomal peptide synthetase&lt;br&gt;Location: 6130070 - 6134009" locus_tag="LLPMBPKK_05380" class="clusterblast-orf" id="dummy-20_q7_0_all"  />
<polygon points="306,40 424,40 429,35 424,30 306,30 306,40 " style="fill:#d86f15; stroke-width:1; stroke:black; " description="&lt;b&gt;LLPMBPKK_05381&lt;/b&gt;&lt;br&gt;non-ribosomal peptide synthetase/polyketidesynthase&lt;br&gt;Location: 6134151 - 6143928" locus_tag="LLPMBPKK_05381" class="clusterblast-orf" id="dummy-20_q8_0_all"  />
<polygon points="429,40 438,40 443,35 438,30 429,30 429,40 " style="fill:#15d851; stroke-width:1; stroke:black; " description="&lt;b&gt;LLPMBPKK_05382&lt;/b&gt;&lt;br&gt;GSCFA family protein&lt;br&gt;Location: 6143938 - 6145072" locus_tag="LLPMBPKK_05382" class="clusterblast-orf" id="dummy-20_q9_0_all"  />
<polygon points="442,40 447,40 452,35 447,30 442,30 442,40 " style="fill:#1551d8; stroke-width:1; stroke:black; " description="&lt;b&gt;LLPMBPKK_05383&lt;/b&gt;&lt;br&gt;hypothetical protein&lt;br&gt;Location: 6145037 - 6145817" locus_tag="LLPMBPKK_05383" class="clusterblast-orf" id="dummy-20_q10_0_all"  />
<polygon points="453,40 459,40 464,35 459,30 453,30 453,40 " style="fill:#d815c9; stroke-width:1; stroke:black; " description="&lt;b&gt;LLPMBPKK_05384&lt;/b&gt;&lt;br&gt;taurine dioxygenase&lt;br&gt;Location: 6145894 - 6146770" locus_tag="LLPMBPKK_05384" class="clusterblast-orf" id="dummy-20_q11_0_all"  />
<polygon points="464,35 469,30 475,30 475,40 469,40 464,35 " style="fill:#d8c915; stroke-width:1; stroke:black; " description="&lt;b&gt;LLPMBPKK_05385&lt;/b&gt;&lt;br&gt;hypothetical protein&lt;br&gt;Location: 6146782 - 6147661" locus_tag="LLPMBPKK_05385" class="clusterblast-orf" id="dummy-20_q12_0_all"  />
<polygon points="478,40 493,40 498,35 493,30 478,30 478,40 " style="fill:#15d8ab; stroke-width:1; stroke:black; " description="&lt;b&gt;LLPMBPKK_05386&lt;/b&gt;&lt;br&gt;hypothetical protein&lt;br&gt;Location: 6147847 - 6149494" locus_tag="LLPMBPKK_05386" class="clusterblast-orf" id="dummy-20_q13_0_all"  />
<polygon points="501,40 534,40 539,35 534,30 501,30 501,40 " style="fill:#3315d8; stroke-width:1; stroke:black; " description="&lt;b&gt;LLPMBPKK_05387&lt;/b&gt;&lt;br&gt;Alginate lyase&lt;br&gt;Location: 6149718 - 6152715" locus_tag="LLPMBPKK_05387" class="clusterblast-orf" id="dummy-20_q14_0_all"  />
<polygon points="540,35 545,30 566,30 566,40 545,40 540,35 " style="fill:#3315d8; stroke-width:1; stroke:black; " description="&lt;b&gt;LLPMBPKK_05388&lt;/b&gt;&lt;br&gt;Lytic transglycosylase&lt;br&gt;Location: 6152790 - 6154881" locus_tag="LLPMBPKK_05388" class="clusterblast-orf" id="dummy-20_q15_0_all"  />
<polygon points="571,40 600,40 605,35 600,30 571,30 571,40 " style="fill:#d8156f; stroke-width:1; stroke:black; " description="&lt;b&gt;LLPMBPKK_05389&lt;/b&gt;&lt;br&gt;hypothetical protein&lt;br&gt;Location: 6155246 - 6157967" locus_tag="LLPMBPKK_05389" class="clusterblast-orf" id="dummy-20_q16_0_all"  />
<polygon points="619,40 623,35 619,30 619,40 " style="fill:#8dd815; stroke-width:1; stroke:black; " description="&lt;b&gt;LLPMBPKK_05390&lt;/b&gt;&lt;br&gt;D-mannose binding lectin&lt;br&gt;Location: 6159084 - 6159405" locus_tag="LLPMBPKK_05390" class="clusterblast-orf" id="dummy-20_q17_0_all"  />
<polygon points="622,35 627,30 652,30 652,40 627,40 622,35 " style="fill:#15d8ab; stroke-width:1; stroke:black; " description="&lt;b&gt;LLPMBPKK_05391&lt;/b&gt;&lt;br&gt;hypothetical protein&lt;br&gt;Location: 6159385 - 6161743" locus_tag="LLPMBPKK_05391" class="clusterblast-orf" id="dummy-20_q18_0_all"  />
</g>
<g label="NZ_CP030771" description="NZ_CP030771 (8628743-8690969): Streptomyces sp. YIM 121038 chromosome, comple... (12% of genes show similarity), NRPS,amglyccycl" class="clusterblast-cluster"  >
<text x="5" y="70" class="clusterblast-acc"  >
<a xlink:href="https://antismash-db.secondarymetabolites.org/area.html?record=NZ_CP030771&amp;start=8628743&amp;end=8690969" target="_blank">NZ_CP030771 (8628743-8690969)</a>: Streptomyces sp. YIM 121038 chromosome, comple... (12% of genes show similarity), NRPS,amglyccycl</text>
<line x1="10" y1="85" x2="778.0" y2="85" style="stroke-width:1; stroke:grey; "  />
</g>
<g id="a20_000"  >
<polygon points="0,85 5,80 13,80 13,90 5,90 0,85 " style="fill:white; stroke-width:1; stroke:black; " description="&lt;b&gt;C9F11_RS36275&lt;/b&gt;&lt;br&gt;DUF4872 domain-containing protein&lt;br&gt;Location: 8690969 - 8689932" locus_tag="C9F11_RS36275" class="clusterblast-orf" id="dummy-20_h20_4_0"  />
</g>
<g id="a20_001"  >
<polygon points="14,85 19,80 31,80 31,90 19,90 14,85 " style="fill:white; stroke-width:1; stroke:black; " description="&lt;b&gt;C9F11_RS36270&lt;/b&gt;&lt;br&gt;TrpB-like pyridoxal phosphate-dependent enzyme&lt;br&gt;Location: 8689853 - 8688471" locus_tag="C9F11_RS36270" class="clusterblast-orf" id="dummy-20_h20_4_1"  />
</g>
<g id="a20_002"  >
<polygon points="37,85 42,80 53,80 53,90 42,90 37,85 " style="fill:white; stroke-width:1; stroke:black; " description="&lt;b&gt;C9F11_RS36265&lt;/b&gt;&lt;br&gt;hypothetical protein&lt;br&gt;Location: 8687997 - 8686696" locus_tag="C9F11_RS36265" class="clusterblast-orf" id="dummy-20_h20_4_2"  />
</g>
<g id="a20_003"  >
<polygon points="56,85 61,80 63,80 63,90 61,90 56,85 " style="fill:white; stroke-width:1; stroke:black; " description="&lt;b&gt;C9F11_RS36260&lt;/b&gt;&lt;br&gt;ATP-dependent endonuclease&lt;br&gt;Location: 8686504 - 8685887" locus_tag="C9F11_RS36260" class="clusterblast-orf" id="dummy-20_h20_4_3"  />
</g>
<g id="a20_004"  >
<polygon points="67,90 81,90 86,85 81,80 67,80 67,90 " style="fill:white; stroke-width:1; stroke:black; " description="&lt;b&gt;C9F11_RS36255&lt;/b&gt;&lt;br&gt;carotenoid oxygenase family protein&lt;br&gt;Location: 8685592 - 8684090" locus_tag="C9F11_RS36255" class="clusterblast-orf" id="dummy-20_h20_4_4"  />
</g>
<g id="a20_005"  >
<polygon points="87,85 92,80 93,80 93,90 92,90 87,85 " style="fill:white; stroke-width:1; stroke:black; " description="&lt;b&gt;C9F11_RS36250&lt;/b&gt;&lt;br&gt;hypothetical protein&lt;br&gt;Location: 8684022 - 8683492" locus_tag="C9F11_RS36250" class="clusterblast-orf" id="dummy-20_h20_4_5"  />
</g>
<g id="a20_006"  >
<polygon points="97,85 102,80 111,80 111,90 102,90 97,85 " style="fill:white; stroke-width:1; stroke:black; " description="&lt;b&gt;C9F11_RS36245&lt;/b&gt;&lt;br&gt;hypothetical protein&lt;br&gt;Location: 8683231 - 8682098" locus_tag="C9F11_RS36245" class="clusterblast-orf" id="dummy-20_h20_4_6"  />
</g>
<g id="a20_007"  >
<polygon points="111,85 116,80 124,80 124,90 116,90 111,85 " style="fill:white; stroke-width:1; stroke:black; " description="&lt;b&gt;C9F11_RS36240&lt;/b&gt;&lt;br&gt;hypothetical protein&lt;br&gt;Location: 8682065 - 8681007" locus_tag="C9F11_RS36240" class="clusterblast-orf" id="dummy-20_h20_4_7"  />
</g>
<g id="a20_008"  >
<polygon points="124,85 129,80 153,80 153,90 129,90 124,85 " style="fill:white; stroke-width:1; stroke:black; " description="&lt;b&gt;C9F11_RS36235&lt;/b&gt;&lt;br&gt;hypothetical protein&lt;br&gt;Location: 8681010 - 8678767" locus_tag="C9F11_RS36235" class="clusterblast-orf" id="dummy-20_h20_4_8"  />
</g>
<g id="a20_009"  >
<polygon points="153,85 156,80 156,90 153,85 " style="fill:white; stroke-width:1; stroke:black; " description="&lt;b&gt;C9F11_RS36230&lt;/b&gt;&lt;br&gt;hypothetical protein&lt;br&gt;Location: 8678702 - 8678469" locus_tag="C9F11_RS36230" class="clusterblast-orf" id="dummy-20_h20_4_9"  />
</g>
<g id="a20_0010"  >
<polygon points="164,90 172,90 177,85 172,80 164,80 164,90 " style="fill:white; stroke-width:1; stroke:black; " description="&lt;b&gt;C9F11_RS36225&lt;/b&gt;&lt;br&gt;polyprenyl synthetase family protein&lt;br&gt;Location: 8677881 - 8676814" locus_tag="C9F11_RS36225" class="clusterblast-orf" id="dummy-20_h20_4_10"  />
</g>
<g id="a20_0011"  >
<polygon points="179,90 183,90 188,85 183,80 179,80 179,90 " style="fill:white; stroke-width:1; stroke:black; " description="&lt;b&gt;C9F11_RS36220&lt;/b&gt;&lt;br&gt;ATP-binding cassette domain-containing protein&lt;br&gt;Location: 8676689 - 8675925" locus_tag="C9F11_RS36220" class="clusterblast-orf" id="dummy-20_h20_4_11"  />
</g>
<g id="a20_0012"  >
<polygon points="187,90 192,90 197,85 192,80 187,80 187,90 " style="fill:white; stroke-width:1; stroke:black; " description="&lt;b&gt;C9F11_RS36215&lt;/b&gt;&lt;br&gt;ABC transporter permease&lt;br&gt;Location: 8676043 - 8675243" locus_tag="C9F11_RS36215" class="clusterblast-orf" id="dummy-20_h20_4_12"  />
</g>
<g id="a20_0013"  >
<polygon points="197,90 197,90 202,85 197,80 197,80 197,90 " style="fill:white; stroke-width:1; stroke:black; " description="&lt;b&gt;C9F11_RS36210&lt;/b&gt;&lt;br&gt;SRPBCC family protein&lt;br&gt;Location: 8675246 - 8674794" locus_tag="C9F11_RS36210" class="clusterblast-orf" id="dummy-20_h20_4_13"  />
</g>
<g id="a20_0014"  >
<polygon points="202,85 207,80 208,80 208,90 207,90 202,85 " style="fill:white; stroke-width:1; stroke:black; " description="&lt;b&gt;C9F11_RS36205&lt;/b&gt;&lt;br&gt;hypothetical protein&lt;br&gt;Location: 8674797 - 8674369" locus_tag="C9F11_RS36205" class="clusterblast-orf" id="dummy-20_h20_4_14"  />
</g>
<g id="a20_0015"  >
<polygon points="209,85 214,80 219,80 219,90 214,90 209,85 " style="fill:white; stroke-width:1; stroke:black; " description="&lt;b&gt;C9F11_RS36200&lt;/b&gt;&lt;br&gt;TSUP family transporter&lt;br&gt;Location: 8674258 - 8673491" locus_tag="C9F11_RS36200" class="clusterblast-orf" id="dummy-20_h20_4_15"  />
</g>
<g id="a20_0016"  >
<polygon points="220,90 227,90 232,85 227,80 220,80 220,90 " style="fill:white; stroke-width:1; stroke:black; " description="&lt;b&gt;C9F11_RS36195&lt;/b&gt;&lt;br&gt;LysR family transcriptional regulator&lt;br&gt;Location: 8673406 - 8672471" locus_tag="C9F11_RS36195" class="clusterblast-orf" id="dummy-20_h20_4_16"  />
</g>
<g id="a20_0017"  >
<polygon points="239,90 282,90 287,85 282,80 239,80 239,90 " style="fill:#d86f15; stroke-width:1; stroke:black; " description="&lt;b&gt;C9F11_RS36190&lt;/b&gt;&lt;br&gt;amino acid adenylation domain-containing protein&lt;br&gt;Location: 8671886 - 8668035&lt;br&gt;&lt;br&gt;&lt;b&gt;BlastP hit with LLPMBPKK_05380&lt;/b&gt;&lt;br&gt;Percentage identity: 57&lt;br&gt;Percentage coverage: 100&lt;br&gt;BLAST bit score: 1336&lt;br&gt;E-value: 0.0" locus_tag="C9F11_RS36190" class="clusterblast-orf" id="dummy-20_h20_4_17"  />
</g>
<g id="a20_0018"  >
<polygon points="287,90 397,90 402,85 397,80 287,80 287,90 " style="fill:#d86f15; stroke-width:1; stroke:black; " description="&lt;b&gt;C9F11_RS36185&lt;/b&gt;&lt;br&gt;amino acid adenylation domain-containing protein&lt;br&gt;Location: 8668038 - 8658877&lt;br&gt;&lt;br&gt;&lt;b&gt;BlastP hit with LLPMBPKK_05381&lt;/b&gt;&lt;br&gt;Percentage identity: 66&lt;br&gt;Percentage coverage: 97&lt;br&gt;BLAST bit score: 3806&lt;br&gt;E-value: 0.0" locus_tag="C9F11_RS36185" class="clusterblast-orf" id="dummy-20_h20_4_18"  />
</g>
<g id="a20_0019"  >
<polygon points="403,90 411,90 416,85 411,80 403,80 403,90 " style="fill:#15d851; stroke-width:1; stroke:black; " description="&lt;b&gt;C9F11_RS36180&lt;/b&gt;&lt;br&gt;GSCFA domain-containing protein&lt;br&gt;Location: 8658846 - 8657788&lt;br&gt;&lt;br&gt;&lt;b&gt;BlastP hit with LLPMBPKK_05382&lt;/b&gt;&lt;br&gt;Percentage identity: 70&lt;br&gt;Percentage coverage: 94&lt;br&gt;BLAST bit score: 498&lt;br&gt;E-value: 4.11e-176" locus_tag="C9F11_RS36180" class="clusterblast-orf" id="dummy-20_h20_4_19"  />
</g>
<g id="a20_0020"  >
<polygon points="415,90 419,90 424,85 419,80 415,80 415,90 " style="fill:#1551d8; stroke-width:1; stroke:black; " description="&lt;b&gt;C9F11_RS36175&lt;/b&gt;&lt;br&gt;hypothetical protein&lt;br&gt;Location: 8657822 - 8657118&lt;br&gt;&lt;br&gt;&lt;b&gt;BlastP hit with LLPMBPKK_05383&lt;/b&gt;&lt;br&gt;Percentage identity: 61&lt;br&gt;Percentage coverage: 100&lt;br&gt;BLAST bit score: 298&lt;br&gt;E-value: 8.27e-101" locus_tag="C9F11_RS36175" class="clusterblast-orf" id="dummy-20_h20_4_20"  />
</g>
<g id="a20_0021"  >
<polygon points="425,90 431,90 436,85 431,80 425,80 425,90 " style="fill:#d815c9; stroke-width:1; stroke:black; " description="&lt;b&gt;C9F11_RS36170&lt;/b&gt;&lt;br&gt;TauD/TfdA family dioxygenase&lt;br&gt;Location: 8657043 - 8656171&lt;br&gt;&lt;br&gt;&lt;b&gt;BlastP hit with LLPMBPKK_05384&lt;/b&gt;&lt;br&gt;Percentage identity: 64&lt;br&gt;Percentage coverage: 100&lt;br&gt;BLAST bit score: 395&lt;br&gt;E-value: 6.7e-138" locus_tag="C9F11_RS36170" class="clusterblast-orf" id="dummy-20_h20_4_21"  />
</g>
<g id="a20_0022"  >
<polygon points="438,85 443,80 448,80 448,90 443,90 438,85 " style="fill:#d8c915; stroke-width:1; stroke:black; " description="&lt;b&gt;C9F11_RS36165&lt;/b&gt;&lt;br&gt;SpcZ&lt;br&gt;Location: 8656042 - 8655206&lt;br&gt;&lt;br&gt;&lt;b&gt;BlastP hit with LLPMBPKK_05385&lt;/b&gt;&lt;br&gt;Percentage identity: 45&lt;br&gt;Percentage coverage: 51&lt;br&gt;BLAST bit score: 115&lt;br&gt;E-value: 1.32e-28" locus_tag="C9F11_RS36165" class="clusterblast-orf" id="dummy-20_h20_4_22"  />
</g>
<g id="a20_0023"  >
<polygon points="450,85 455,80 462,80 462,90 455,90 450,85 " style="fill:white; stroke-width:1; stroke:black; " description="&lt;b&gt;C9F11_RS36160&lt;/b&gt;&lt;br&gt;phosphotransferase&lt;br&gt;Location: 8655077 - 8654085" locus_tag="C9F11_RS36160" class="clusterblast-orf" id="dummy-20_h20_4_23"  />
</g>
<g id="a20_0024"  >
<polygon points="462,85 467,80 479,80 479,90 467,90 462,85 " style="fill:white; stroke-width:1; stroke:black; " description="&lt;b&gt;C9F11_RS36155&lt;/b&gt;&lt;br&gt;MFS transporter&lt;br&gt;Location: 8654075 - 8652777" locus_tag="C9F11_RS36155" class="clusterblast-orf" id="dummy-20_h20_4_24"  />
</g>
<g id="a20_0025"  >
<polygon points="479,85 484,80 489,80 489,90 484,90 479,85 " style="fill:white; stroke-width:1; stroke:black; " description="&lt;b&gt;C9F11_RS36150&lt;/b&gt;&lt;br&gt;inositol monophosphatase&lt;br&gt;Location: 8652784 - 8651987" locus_tag="C9F11_RS36150" class="clusterblast-orf" id="dummy-20_h20_4_25"  />
</g>
<g id="a20_0026"  >
<polygon points="493,90 502,90 507,85 502,80 493,80 493,90 " style="fill:white; stroke-width:1; stroke:black; " description="&lt;b&gt;C9F11_RS36145&lt;/b&gt;&lt;br&gt;Gfo/Idh/MocA family oxidoreductase&lt;br&gt;Location: 8651611 - 8650487" locus_tag="C9F11_RS36145" class="clusterblast-orf" id="dummy-20_h20_4_26"  />
</g>
<g id="a20_0027"  >
<polygon points="509,90 520,90 525,85 520,80 509,80 509,90 " style="fill:white; stroke-width:1; stroke:black; " description="&lt;b&gt;C9F11_RS36140&lt;/b&gt;&lt;br&gt;aspartate aminotransferase family protein&lt;br&gt;Location: 8650381 - 8649050" locus_tag="C9F11_RS36140" class="clusterblast-orf" id="dummy-20_h20_4_27"  />
</g>
<g id="a20_0028"  >
<polygon points="526,90 531,90 536,85 531,80 526,80 526,90 " style="fill:white; stroke-width:1; stroke:black; " description="&lt;b&gt;C9F11_RS36135&lt;/b&gt;&lt;br&gt;TIM barrel protein&lt;br&gt;Location: 8648983 - 8648189" locus_tag="C9F11_RS36135" class="clusterblast-orf" id="dummy-20_h20_4_28"  />
</g>
<g id="a20_0029"  >
<polygon points="536,90 546,90 551,85 546,80 536,80 536,90 " style="fill:white; stroke-width:1; stroke:black; " description="&lt;b&gt;C9F11_RS36130&lt;/b&gt;&lt;br&gt;extracellular solute-binding protein&lt;br&gt;Location: 8648179 - 8646989" locus_tag="C9F11_RS36130" class="clusterblast-orf" id="dummy-20_h20_4_29"  />
</g>
<g id="a20_0030"  >
<polygon points="552,90 564,90 569,85 564,80 552,80 552,90 " style="fill:white; stroke-width:1; stroke:black; " description="&lt;b&gt;C9F11_RS36125&lt;/b&gt;&lt;br&gt;aminotransferase class I/II-fold pyridoxal phosphate-dependent enzyme&lt;br&gt;Location: 8646921 - 8645602" locus_tag="C9F11_RS36125" class="clusterblast-orf" id="dummy-20_h20_4_30"  />
</g>
<g id="a20_0031"  >
<polygon points="569,90 575,90 580,85 575,80 569,80 569,90 " style="fill:white; stroke-width:1; stroke:black; " description="&lt;b&gt;C9F11_RS36120&lt;/b&gt;&lt;br&gt;4Fe-4S cluster-binding domain-containing protein&lt;br&gt;Location: 8645605 - 8644697" locus_tag="C9F11_RS36120" class="clusterblast-orf" id="dummy-20_h20_4_31"  />
</g>
<g id="a20_0032"  >
<polygon points="580,90 586,90 591,85 586,80 580,80 580,90 " style="fill:white; stroke-width:1; stroke:black; " description="&lt;b&gt;C9F11_RS36115&lt;/b&gt;&lt;br&gt;glycosyltransferase family 2 protein&lt;br&gt;Location: 8644695 - 8643856" locus_tag="C9F11_RS36115" class="clusterblast-orf" id="dummy-20_h20_4_32"  />
</g>
<g id="a20_0033"  >
<polygon points="591,90 596,90 601,85 596,80 591,80 591,90 " style="fill:white; stroke-width:1; stroke:black; " description="&lt;b&gt;C9F11_RS36110&lt;/b&gt;&lt;br&gt;site-specific DNA-methyltransferase&lt;br&gt;Location: 8643799 - 8642996" locus_tag="C9F11_RS36110" class="clusterblast-orf" id="dummy-20_h20_4_33"  />
</g>
<g id="a20_0034"  >
<polygon points="602,85 607,80 615,80 615,90 607,90 602,85 " style="fill:white; stroke-width:1; stroke:black; " description="&lt;b&gt;C9F11_RS36105&lt;/b&gt;&lt;br&gt;Gfo/Idh/MocA family oxidoreductase&lt;br&gt;Location: 8642932 - 8641892" locus_tag="C9F11_RS36105" class="clusterblast-orf" id="dummy-20_h20_4_34"  />
</g>
<g id="a20_0035"  >
<polygon points="618,90 625,90 630,85 625,80 618,80 618,90 " style="fill:white; stroke-width:1; stroke:black; " description="&lt;b&gt;C9F11_RS36100&lt;/b&gt;&lt;br&gt;NAD-dependent epimerase/dehydratase family protein&lt;br&gt;Location: 8641670 - 8640741" locus_tag="C9F11_RS36100" class="clusterblast-orf" id="dummy-20_h20_4_35"  />
</g>
<g id="a20_0036"  >
<polygon points="630,85 635,80 643,80 643,90 635,90 630,85 " style="fill:white; stroke-width:1; stroke:black; " description="&lt;b&gt;C9F11_RS36095&lt;/b&gt;&lt;br&gt;dTDP-glucose 4,6-dehydratase&lt;br&gt;Location: 8640711 - 8639719" locus_tag="C9F11_RS36095" class="clusterblast-orf" id="dummy-20_h20_4_36"  />
</g>
<g id="a20_0037"  >
<polygon points="644,90 650,90 655,85 650,80 644,80 644,90 " style="fill:white; stroke-width:1; stroke:black; " description="&lt;b&gt;C9F11_RS36090&lt;/b&gt;&lt;br&gt;glucose-1-phosphate thymidylyltransferase RfbA&lt;br&gt;Location: 8639619 - 8638744" locus_tag="C9F11_RS36090" class="clusterblast-orf" id="dummy-20_h20_4_37"  />
</g>
<g id="a20_0038"  >
<polygon points="656,85 661,80 662,80 662,90 661,90 656,85 " style="fill:white; stroke-width:1; stroke:black; " description="&lt;b&gt;C9F11_RS36085&lt;/b&gt;&lt;br&gt;DUF4430 domain-containing protein&lt;br&gt;Location: 8638642 - 8638130" locus_tag="C9F11_RS36085" class="clusterblast-orf" id="dummy-20_h20_4_38"  />
</g>
<g id="a20_0039"  >
<polygon points="663,85 668,80 682,80 682,90 668,90 663,85 " style="fill:white; stroke-width:1; stroke:black; " description="&lt;b&gt;C9F11_RS36080&lt;/b&gt;&lt;br&gt;LPXTG cell wall anchor domain-containing protein&lt;br&gt;Location: 8638074 - 8636590" locus_tag="C9F11_RS36080" class="clusterblast-orf" id="dummy-20_h20_4_39"  />
</g>
<g id="a20_0040"  >
<polygon points="681,85 686,80 693,80 693,90 686,90 681,85 " style="fill:white; stroke-width:1; stroke:black; " description="&lt;b&gt;C9F11_RS36075&lt;/b&gt;&lt;br&gt;ECF transporter S component&lt;br&gt;Location: 8636678 - 8635698" locus_tag="C9F11_RS36075" class="clusterblast-orf" id="dummy-20_h20_4_40"  />
</g>
<g id="a20_0041"  >
<polygon points="694,85 699,80 714,80 714,90 699,90 694,85 " style="fill:white; stroke-width:1; stroke:black; " description="&lt;b&gt;C9F11_RS36070&lt;/b&gt;&lt;br&gt;ATP-binding cassette domain-containing protein&lt;br&gt;Location: 8635641 - 8634037" locus_tag="C9F11_RS36070" class="clusterblast-orf" id="dummy-20_h20_4_41"  />
</g>
<g id="a20_0042"  >
<polygon points="714,85 719,80 728,80 728,90 719,90 714,85 " style="fill:white; stroke-width:1; stroke:black; " description="&lt;b&gt;C9F11_RS36065&lt;/b&gt;&lt;br&gt;energy-coupling factor transporter transmembrane protein EcfT&lt;br&gt;Location: 8634040 - 8632928" locus_tag="C9F11_RS36065" class="clusterblast-orf" id="dummy-20_h20_4_42"  />
</g>
<g id="a20_0043"  >
<polygon points="728,85 733,80 741,80 741,90 733,90 728,85 " style="fill:white; stroke-width:1; stroke:black; " description="&lt;b&gt;C9F11_RS36060&lt;/b&gt;&lt;br&gt;hypothetical protein&lt;br&gt;Location: 8632931 - 8631879" locus_tag="C9F11_RS36060" class="clusterblast-orf" id="dummy-20_h20_4_43"  />
</g>
<g id="a20_0044"  >
<polygon points="749,90 752,85 749,80 749,90 " style="fill:white; stroke-width:1; stroke:black; " description="&lt;b&gt;C9F11_RS36055&lt;/b&gt;&lt;br&gt;hypothetical protein&lt;br&gt;Location: 8631238 - 8630966" locus_tag="C9F11_RS36055" class="clusterblast-orf" id="dummy-20_h20_4_44"  />
</g>
<g id="a20_0045"  >
<polygon points="753,85 758,80 758,80 758,90 758,90 753,85 " style="fill:white; stroke-width:1; stroke:black; " description="&lt;b&gt;C9F11_RS36050&lt;/b&gt;&lt;br&gt;fluoride efflux transporter CrcB&lt;br&gt;Location: 8630910 - 8630536" locus_tag="C9F11_RS36050" class="clusterblast-orf" id="dummy-20_h20_4_45"  />
</g>
<g id="a20_0046"  >
<polygon points="758,85 763,80 764,80 764,90 763,90 758,85 " style="fill:white; stroke-width:1; stroke:black; " description="&lt;b&gt;C9F11_RS36045&lt;/b&gt;&lt;br&gt;CrcB family protein&lt;br&gt;Location: 8630539 - 8630051" locus_tag="C9F11_RS36045" class="clusterblast-orf" id="dummy-20_h20_4_46"  />
</g>
<g id="a20_0047"  >
<polygon points="766,85 770,80 770,90 766,85 " style="fill:white; stroke-width:1; stroke:black; " description="&lt;b&gt;C9F11_RS36040&lt;/b&gt;&lt;br&gt;GlsB/YeaQ/YmgE family stress response membrane protein&lt;br&gt;Location: 8629838 - 8629575" locus_tag="C9F11_RS36040" class="clusterblast-orf" id="dummy-20_h20_4_47"  />
</g>
<g id="a20_0048"  >
<polygon points="775,90 775,90 780,85 775,80 775,80 775,90 " style="fill:white; stroke-width:1; stroke:black; " description="&lt;b&gt;C9F11_RS36035&lt;/b&gt;&lt;br&gt;VOC family protein&lt;br&gt;Location: 8629174 - 8628800" locus_tag="C9F11_RS36035" class="clusterblast-orf" id="dummy-20_h20_4_48"  />
</g>
</svg>
