<svg xmlns="http://www.w3.org/2000/svg" xmlns:xlink="http://www.w3.org/1999/xlink" version="1.1" x="0" y="0" height="230" width="800" viewBox="0 0 800 230" preserveAspectRatio="none"  >
<g label="Query sequence" class="clusterblast-cluster"  >
<text x="5" y="20" class="clusterblast-acc"  >
Query sequence</text>
<line x1="10" y1="35" x2="778.0" y2="35" style="stroke-width:1; stroke:grey; "  />
<polygon points="49,35 54,30 134,30 134,40 54,40 49,35 " style="fill:#d81515; stroke-width:1; stroke:black; " description="&lt;b&gt;LLPMBPKK_05897&lt;/b&gt;&lt;br&gt;hypothetical protein&lt;br&gt;Location: 6739336 - 6740563" locus_tag="LLPMBPKK_05897" class="clusterblast-orf" id="dummy-21_q0_0_all"  />
<polygon points="158,40 255,40 260,35 255,30 158,30 158,40 " style="fill:#15d815; stroke-width:1; stroke:black; " description="&lt;b&gt;LLPMBPKK_05898&lt;/b&gt;&lt;br&gt;aminotransferase class III-fold pyridoxal phosphate-dependent enzyme&lt;br&gt;Location: 6740899 - 6742372" locus_tag="LLPMBPKK_05898" class="clusterblast-orf" id="dummy-21_q1_0_all"  />
<polygon points="326,40 423,40 428,35 423,30 326,30 326,40 " style="fill:#1515d8; stroke-width:1; stroke:black; " description="&lt;b&gt;LLPMBPKK_05899&lt;/b&gt;&lt;br&gt;iron transporter&lt;br&gt;Location: 6743320 - 6744781" locus_tag="LLPMBPKK_05899" class="clusterblast-orf" id="dummy-21_q2_0_all"  />
<polygon points="437,40 485,40 490,35 485,30 437,30 437,40 " style="fill:#d815d8; stroke-width:1; stroke:black; " description="&lt;b&gt;LLPMBPKK_05900&lt;/b&gt;&lt;br&gt;GNAT family N-acetyltransferase&lt;br&gt;Location: 6744903 - 6745674" locus_tag="LLPMBPKK_05900" class="clusterblast-orf" id="dummy-21_q3_0_all"  />
<polygon points="525,40 659,40 664,35 659,30 525,30 525,40 " style="fill:#d8d815; stroke-width:1; stroke:black; " description="&lt;b&gt;LLPMBPKK_05901&lt;/b&gt;&lt;br&gt;ATP-dependent DNA helicase&lt;br&gt;Location: 6746176 - 6748168" locus_tag="LLPMBPKK_05901" class="clusterblast-orf" id="dummy-21_q4_0_all"  />
<polygon points="677,35 682,30 731,30 731,40 682,40 677,35 " style="fill:#15d8d8; stroke-width:1; stroke:black; " description="&lt;b&gt;LLPMBPKK_05902&lt;/b&gt;&lt;br&gt;transcriptional repressor LexA&lt;br&gt;Location: 6748352 - 6749132" locus_tag="LLPMBPKK_05902" class="clusterblast-orf" id="dummy-21_q5_0_all"  />
</g>
<g label="NZ_CP053189" description="NZ_CP053189 (1994904-2006100): Streptomyces sp. jing01 chromosome, complete g... (85% of genes show similarity), siderophore" class="clusterblast-cluster"  >
<text x="5" y="70" class="clusterblast-acc"  >
<a xlink:href="https://antismash-db.secondarymetabolites.org/area.html?record=NZ_CP053189&amp;start=1994904&amp;end=2006100" target="_blank">NZ_CP053189 (1994904-2006100)</a>: Streptomyces sp. jing01 chromosome, complete g... (85% of genes show similarity), siderophore</text>
<line x1="10" y1="85" x2="778.0" y2="85" style="stroke-width:1; stroke:grey; "  />
</g>
<g id="a21_000"  >
<polygon points="0,90 98,90 103,85 98,80 0,80 0,90 " style="fill:white; stroke-width:1; stroke:black; " description="&lt;b&gt;HKX69_RS08580&lt;/b&gt;&lt;br&gt;GTPase HflX&lt;br&gt;Location: 2006100 - 2004610" locus_tag="HKX69_RS08580" class="clusterblast-orf" id="dummy-21_h21_1_0"  />
</g>
<g id="a21_001"  >
<polygon points="108,85 113,80 192,80 192,90 113,90 108,85 " style="fill:#d81515; stroke-width:1; stroke:black; " description="&lt;b&gt;HKX69_RS08575&lt;/b&gt;&lt;br&gt;hypothetical protein&lt;br&gt;Location: 2004546 - 2003338&lt;br&gt;&lt;br&gt;&lt;b&gt;BlastP hit with LLPMBPKK_05897&lt;/b&gt;&lt;br&gt;Percentage identity: 81&lt;br&gt;Percentage coverage: 100&lt;br&gt;BLAST bit score: 674&lt;br&gt;E-value: 2.38e-244" locus_tag="HKX69_RS08575" class="clusterblast-orf" id="dummy-21_h21_1_1"  />
</g>
<g id="a21_002"  >
<polygon points="224,90 324,90 329,85 324,80 224,80 224,90 " style="fill:#15d815; stroke-width:1; stroke:black; " description="&lt;b&gt;HKX69_RS08570&lt;/b&gt;&lt;br&gt;diaminobutyrate--2-oxoglutarate transaminase family protein&lt;br&gt;Location: 2002878 - 2001373&lt;br&gt;&lt;br&gt;&lt;b&gt;BlastP hit with LLPMBPKK_05898&lt;/b&gt;&lt;br&gt;Percentage identity: 85&lt;br&gt;Percentage coverage: 102&lt;br&gt;BLAST bit score: 808&lt;br&gt;E-value: 2.48e-294" locus_tag="HKX69_RS08570" class="clusterblast-orf" id="dummy-21_h21_1_2"  />
</g>
<g id="a21_003"  >
<polygon points="344,90 484,90 489,85 484,80 344,80 344,90 " style="fill:#1515d8; stroke-width:1; stroke:black; " description="&lt;b&gt;HKX69_RS08565&lt;/b&gt;&lt;br&gt;iron transporter&lt;br&gt;Location: 2001159 - 1999081&lt;br&gt;&lt;br&gt;&lt;b&gt;BlastP hit with LLPMBPKK_05899&lt;/b&gt;&lt;br&gt;Percentage identity: 86&lt;br&gt;Percentage coverage: 100&lt;br&gt;BLAST bit score: 824&lt;br&gt;E-value: 1.9e-297" locus_tag="HKX69_RS08565" class="clusterblast-orf" id="dummy-21_h21_1_3"  />
</g>
<g id="a21_004"  >
<polygon points="496,90 545,90 550,85 545,80 496,80 496,90 " style="fill:#d815d8; stroke-width:1; stroke:black; " description="&lt;b&gt;HKX69_RS08560&lt;/b&gt;&lt;br&gt;acetyltransferase&lt;br&gt;Location: 1998975 - 1998205&lt;br&gt;&lt;br&gt;&lt;b&gt;BlastP hit with LLPMBPKK_05900&lt;/b&gt;&lt;br&gt;Percentage identity: 80&lt;br&gt;Percentage coverage: 100&lt;br&gt;BLAST bit score: 420&lt;br&gt;E-value: 1.3e-148" locus_tag="HKX69_RS08560" class="clusterblast-orf" id="dummy-21_h21_1_4"  />
</g>
<g id="a21_005"  >
<polygon points="572,90 706,90 711,85 706,80 572,80 572,90 " style="fill:#d8d815; stroke-width:1; stroke:black; " description="&lt;b&gt;HKX69_RS08555&lt;/b&gt;&lt;br&gt;ATP-dependent DNA helicase&lt;br&gt;Location: 1997884 - 1995893&lt;br&gt;&lt;br&gt;&lt;b&gt;BlastP hit with LLPMBPKK_05901&lt;/b&gt;&lt;br&gt;Percentage identity: 97&lt;br&gt;Percentage coverage: 100&lt;br&gt;BLAST bit score: 1248&lt;br&gt;E-value: 0.0" locus_tag="HKX69_RS08555" class="clusterblast-orf" id="dummy-21_h21_1_5"  />
</g>
<g id="a21_006"  >
<polygon points="725,85 730,80 780,80 780,90 730,90 725,85 " style="fill:#15d8d8; stroke-width:1; stroke:black; " description="&lt;b&gt;HKX69_RS08550&lt;/b&gt;&lt;br&gt;transcriptional repressor LexA&lt;br&gt;Location: 1995684 - 1994905&lt;br&gt;&lt;br&gt;&lt;b&gt;BlastP hit with LLPMBPKK_05902&lt;/b&gt;&lt;br&gt;Percentage identity: 99&lt;br&gt;Percentage coverage: 100&lt;br&gt;BLAST bit score: 505&lt;br&gt;E-value: 3.43e-182" locus_tag="HKX69_RS08550" class="clusterblast-orf" id="dummy-21_h21_1_6"  />
</g>
</svg>
