<svg xmlns="http://www.w3.org/2000/svg" xmlns:xlink="http://www.w3.org/1999/xlink" version="1.1" x="0" y="0" height="230" width="800" viewBox="0 0 800 230" preserveAspectRatio="none"  >
<g label="Query sequence" class="clusterblast-cluster"  >
<text x="5" y="20" class="clusterblast-acc"  >
Query sequence</text>
<line x1="10" y1="35" x2="778.0" y2="35" style="stroke-width:1; stroke:grey; "  />
<polygon points="0,40 3,40 8,35 3,30 0,30 0,40 " style="fill:white; stroke-width:1; stroke:black; " description="&lt;b&gt;LLPMBPKK_06896&lt;/b&gt;&lt;br&gt;oxidoreductase&lt;br&gt;Location: 7938673 - 7939900" locus_tag="LLPMBPKK_06896" class="clusterblast-orf" id="dummy-30_q0_0_all"  />
<polygon points="9,35 14,30 14,30 14,40 14,40 9,35 " style="fill:#d81515; stroke-width:1; stroke:black; " description="&lt;b&gt;LLPMBPKK_06897&lt;/b&gt;&lt;br&gt;crotonase/enoyl-CoA hydratase family protein&lt;br&gt;Location: 7939930 - 7940695" locus_tag="LLPMBPKK_06897" class="clusterblast-orf" id="dummy-30_q1_0_all"  />
<polygon points="14,35 19,30 21,30 21,40 19,40 14,35 " style="fill:#77d815; stroke-width:1; stroke:black; " description="&lt;b&gt;LLPMBPKK_06898&lt;/b&gt;&lt;br&gt;flippase-like domain-containing protein&lt;br&gt;Location: 7940739 - 7941705" locus_tag="LLPMBPKK_06898" class="clusterblast-orf" id="dummy-30_q2_0_all"  />
<polygon points="22,40 30,40 35,35 30,30 22,30 22,40 " style="fill:#15d8d8; stroke-width:1; stroke:black; " description="&lt;b&gt;LLPMBPKK_06899&lt;/b&gt;&lt;br&gt;ABC transporter ATP-binding protein&lt;br&gt;Location: 7941795 - 7943691" locus_tag="LLPMBPKK_06899" class="clusterblast-orf" id="dummy-30_q3_0_all"  />
<polygon points="36,35 41,30 52,30 52,40 41,40 36,35 " style="fill:white; stroke-width:1; stroke:black; " description="&lt;b&gt;LLPMBPKK_06900&lt;/b&gt;&lt;br&gt;HEAT repeats&lt;br&gt;Location: 7943772 - 7945989" locus_tag="LLPMBPKK_06900" class="clusterblast-orf" id="dummy-30_q4_0_all"  />
<polygon points="53,40 55,35 53,30 53,40 " style="fill:#7715d8; stroke-width:1; stroke:black; " description="&lt;b&gt;LLPMBPKK_06901&lt;/b&gt;&lt;br&gt;hypothetical protein&lt;br&gt;Location: 7946220 - 7946388" locus_tag="LLPMBPKK_06901" class="clusterblast-orf" id="dummy-30_q5_0_all"  />
<polygon points="55,40 59,35 55,30 55,40 " style="fill:#d83f15; stroke-width:1; stroke:black; " description="&lt;b&gt;LLPMBPKK_06902&lt;/b&gt;&lt;br&gt;2Fe-2S iron-sulfur cluster bindingdomain-containing protein&lt;br&gt;Location: 7946482 - 7947019" locus_tag="LLPMBPKK_06902" class="clusterblast-orf" id="dummy-30_q6_0_all"  />
<polygon points="59,40 62,40 67,35 62,30 59,30 59,40 " style="fill:#4dd815; stroke-width:1; stroke:black; " description="&lt;b&gt;LLPMBPKK_06903&lt;/b&gt;&lt;br&gt;FAD binding domain in molybdopterindehydrogenase&lt;br&gt;Location: 7947019 - 7948141" locus_tag="LLPMBPKK_06903" class="clusterblast-orf" id="dummy-30_q7_0_all"  />
<polygon points="67,40 77,40 82,35 77,30 67,30 67,40 " style="fill:#15aed8; stroke-width:1; stroke:black; " description="&lt;b&gt;LLPMBPKK_06904&lt;/b&gt;&lt;br&gt;xanthine dehydrogenase family protein molybdopterin-binding subunit&lt;br&gt;Location: 7948137 - 7950219" locus_tag="LLPMBPKK_06904" class="clusterblast-orf" id="dummy-30_q8_0_all"  />
<polygon points="82,40 94,40 99,35 94,30 82,30 82,40 " style="fill:#a115d8; stroke-width:1; stroke:black; " description="&lt;b&gt;LLPMBPKK_06905&lt;/b&gt;&lt;br&gt;glycoside hydrolase family 65 protein&lt;br&gt;Location: 7950221 - 7952591" locus_tag="LLPMBPKK_06905" class="clusterblast-orf" id="dummy-30_q9_0_all"  />
<polygon points="100,40 101,40 106,35 101,30 100,30 100,40 " style="fill:#d86915; stroke-width:1; stroke:black; " description="&lt;b&gt;LLPMBPKK_06906&lt;/b&gt;&lt;br&gt;response regulator transcription factor&lt;br&gt;Location: 7952728 - 7953538" locus_tag="LLPMBPKK_06906" class="clusterblast-orf" id="dummy-30_q10_0_all"  />
<polygon points="112,40 116,40 121,35 116,30 112,30 112,40 " style="fill:#23d815; stroke-width:1; stroke:black; " description="&lt;b&gt;LLPMBPKK_06907&lt;/b&gt;&lt;br&gt;LuxR family transcriptional regulator&lt;br&gt;Location: 7954435 - 7955656" locus_tag="LLPMBPKK_06907" class="clusterblast-orf" id="dummy-30_q11_0_all"  />
<polygon points="122,40 122,40 127,35 122,30 122,30 122,40 " style="fill:#1585d8; stroke-width:1; stroke:black; " description="&lt;b&gt;LLPMBPKK_06908&lt;/b&gt;&lt;br&gt;FMN-dependent NADH-azoreductase&lt;br&gt;Location: 7955880 - 7956528" locus_tag="LLPMBPKK_06908" class="clusterblast-orf" id="dummy-30_q12_0_all"  />
<polygon points="127,40 131,40 136,35 131,30 127,30 127,40 " style="fill:#ca15d8; stroke-width:1; stroke:black; " description="&lt;b&gt;LLPMBPKK_06909&lt;/b&gt;&lt;br&gt;cytochrome P450&lt;br&gt;Location: 7956524 - 7957718" locus_tag="LLPMBPKK_06909" class="clusterblast-orf" id="dummy-30_q13_0_all"  />
<polygon points="139,40 256,40 261,35 256,30 139,30 139,40 " style="fill:#d89315; stroke-width:1; stroke:black; " description="&lt;b&gt;LLPMBPKK_06910&lt;/b&gt;&lt;br&gt;2-succinylbenzoate--CoA ligase&lt;br&gt;Location: 7958211 - 7975215" locus_tag="LLPMBPKK_06910" class="clusterblast-orf" id="dummy-30_q14_0_all"  />
<polygon points="261,40 370,40 375,35 370,30 261,30 261,40 " style="fill:#d89315; stroke-width:1; stroke:black; " description="&lt;b&gt;LLPMBPKK_06911&lt;/b&gt;&lt;br&gt;rifamycin polyketide synthase&lt;br&gt;Location: 7975249 - 7991275" locus_tag="LLPMBPKK_06911" class="clusterblast-orf" id="dummy-30_q15_0_all"  />
<polygon points="376,40 484,40 489,35 484,30 376,30 376,40 " style="fill:#d89315; stroke-width:1; stroke:black; " description="&lt;b&gt;LLPMBPKK_06912&lt;/b&gt;&lt;br&gt;rifamycin polyketide synthase&lt;br&gt;Location: 7991321 - 8007224" locus_tag="LLPMBPKK_06912" class="clusterblast-orf" id="dummy-30_q16_0_all"  />
<polygon points="490,40 515,40 520,35 515,30 490,30 490,40 " style="fill:#d89315; stroke-width:1; stroke:black; " description="&lt;b&gt;LLPMBPKK_06913&lt;/b&gt;&lt;br&gt;rifamycin polyketide synthase&lt;br&gt;Location: 8007313 - 8011516" locus_tag="LLPMBPKK_06913" class="clusterblast-orf" id="dummy-30_q17_0_all"  />
<polygon points="522,40 563,40 568,35 563,30 522,30 522,40 " style="fill:#d89315; stroke-width:1; stroke:black; " description="&lt;b&gt;LLPMBPKK_06914&lt;/b&gt;&lt;br&gt;rifamycin polyketide synthase&lt;br&gt;Location: 8011776 - 8018199" locus_tag="LLPMBPKK_06914" class="clusterblast-orf" id="dummy-30_q18_0_all"  />
<polygon points="568,40 639,40 644,35 639,30 568,30 568,40 " style="fill:#d89315; stroke-width:1; stroke:black; " description="&lt;b&gt;LLPMBPKK_06915&lt;/b&gt;&lt;br&gt;rifamycin polyketide synthase&lt;br&gt;Location: 8018229 - 8028825" locus_tag="LLPMBPKK_06915" class="clusterblast-orf" id="dummy-30_q19_0_all"  />
<polygon points="646,40 647,35 646,30 646,40 " style="fill:#d89315; stroke-width:1; stroke:black; " description="&lt;b&gt;LLPMBPKK_06916&lt;/b&gt;&lt;br&gt;rifamycin polyketide synthase&lt;br&gt;Location: 8029097 - 8029349" locus_tag="LLPMBPKK_06916" class="clusterblast-orf" id="dummy-30_q20_0_all"  />
<polygon points="648,40 648,40 653,35 648,30 648,30 648,40 " style="fill:#15d831; stroke-width:1; stroke:black; " description="&lt;b&gt;LLPMBPKK_06917&lt;/b&gt;&lt;br&gt;N-acetyltransferase/amide synthase&lt;br&gt;Location: 8029392 - 8030199" locus_tag="LLPMBPKK_06917" class="clusterblast-orf" id="dummy-30_q21_0_all"  />
<polygon points="654,40 658,40 663,35 658,30 654,30 654,40 " style="fill:#155bd8; stroke-width:1; stroke:black; " description="&lt;b&gt;LLPMBPKK_06918&lt;/b&gt;&lt;br&gt;electron transfer oxidoreductase&lt;br&gt;Location: 8030255 - 8031599" locus_tag="LLPMBPKK_06918" class="clusterblast-orf" id="dummy-30_q22_0_all"  />
<polygon points="664,40 667,40 672,35 667,30 664,30 664,40 " style="fill:#d815bc; stroke-width:1; stroke:black; " description="&lt;b&gt;LLPMBPKK_06919&lt;/b&gt;&lt;br&gt;3-dehydroquinate synthase&lt;br&gt;Location: 8031746 - 8032823" locus_tag="LLPMBPKK_06919" class="clusterblast-orf" id="dummy-30_q23_0_all"  />
<polygon points="672,40 677,40 682,35 677,30 672,30 672,40 " style="fill:#d8bc15; stroke-width:1; stroke:black; " description="&lt;b&gt;LLPMBPKK_06920&lt;/b&gt;&lt;br&gt;aminoDAHP synthase&lt;br&gt;Location: 8032819 - 8034238" locus_tag="LLPMBPKK_06920" class="clusterblast-orf" id="dummy-30_q24_0_all"  />
<polygon points="682,40 683,40 688,35 683,30 682,30 682,40 " style="fill:#15d85b; stroke-width:1; stroke:black; " description="&lt;b&gt;LLPMBPKK_06921&lt;/b&gt;&lt;br&gt;aminoquinate dehydrogenase&lt;br&gt;Location: 8034234 - 8035077" locus_tag="LLPMBPKK_06921" class="clusterblast-orf" id="dummy-30_q25_0_all"  />
<polygon points="689,40 693,40 698,35 693,30 689,30 689,40 " style="fill:#1531d8; stroke-width:1; stroke:black; " description="&lt;b&gt;LLPMBPKK_06922&lt;/b&gt;&lt;br&gt;3-amino-5-hydroxybenzoate synthase&lt;br&gt;Location: 8035247 - 8036408" locus_tag="LLPMBPKK_06922" class="clusterblast-orf" id="dummy-30_q26_0_all"  />
<polygon points="698,40 701,40 706,35 701,30 698,30 698,40 " style="fill:#d81593; stroke-width:1; stroke:black; " description="&lt;b&gt;LLPMBPKK_06923&lt;/b&gt;&lt;br&gt;oxidoreductase RifL&lt;br&gt;Location: 8036404 - 8037499" locus_tag="LLPMBPKK_06923" class="clusterblast-orf" id="dummy-30_q27_0_all"  />
<polygon points="706,40 706,40 711,35 706,30 706,30 706,40 " style="fill:#cad815; stroke-width:1; stroke:black; " description="&lt;b&gt;LLPMBPKK_06924&lt;/b&gt;&lt;br&gt;phosphoglycolate phosphatase&lt;br&gt;Location: 8037506 - 8038202" locus_tag="LLPMBPKK_06924" class="clusterblast-orf" id="dummy-30_q28_0_all"  />
<polygon points="711,40 712,40 717,35 712,30 711,30 711,40 " style="fill:#15d885; stroke-width:1; stroke:black; " description="&lt;b&gt;LLPMBPKK_06925&lt;/b&gt;&lt;br&gt;kanosamine kinase&lt;br&gt;Location: 8038204 - 8039122" locus_tag="LLPMBPKK_06925" class="clusterblast-orf" id="dummy-30_q29_0_all"  />
<polygon points="719,35 724,30 731,30 731,40 724,40 719,35 " style="fill:#2315d8; stroke-width:1; stroke:black; " description="&lt;b&gt;LLPMBPKK_06926&lt;/b&gt;&lt;br&gt;3-(3-hydroxyphenyl)propionate hydroxylase&lt;br&gt;Location: 8039408 - 8041073" locus_tag="LLPMBPKK_06926" class="clusterblast-orf" id="dummy-30_q30_0_all"  />
<polygon points="733,40 733,40 738,35 733,30 733,30 733,40 " style="fill:#d81569; stroke-width:1; stroke:black; " description="&lt;b&gt;LLPMBPKK_06927&lt;/b&gt;&lt;br&gt;oleoyl-(acyl-carrier-protein) hydrolase&lt;br&gt;Location: 8041281 - 8042055" locus_tag="LLPMBPKK_06927" class="clusterblast-orf" id="dummy-30_q31_0_all"  />
<polygon points="738,40 743,40 748,35 743,30 738,30 738,40 " style="fill:#a1d815; stroke-width:1; stroke:black; " description="&lt;b&gt;LLPMBPKK_06928&lt;/b&gt;&lt;br&gt;cation/H(+) antiporter&lt;br&gt;Location: 8042087 - 8043482" locus_tag="LLPMBPKK_06928" class="clusterblast-orf" id="dummy-30_q32_0_all"  />
<polygon points="748,40 751,35 748,30 748,40 " style="fill:#15d8ae; stroke-width:1; stroke:black; " description="&lt;b&gt;LLPMBPKK_06929&lt;/b&gt;&lt;br&gt;aminoDHQ dehydratase&lt;br&gt;Location: 8043478 - 8043919" locus_tag="LLPMBPKK_06929" class="clusterblast-orf" id="dummy-30_q33_0_all"  />
<polygon points="752,40 752,40 757,35 752,30 752,30 752,40 " style="fill:#4d15d8; stroke-width:1; stroke:black; " description="&lt;b&gt;LLPMBPKK_06930&lt;/b&gt;&lt;br&gt;alpha/beta hydrolase&lt;br&gt;Location: 8043968 - 8044661" locus_tag="LLPMBPKK_06930" class="clusterblast-orf" id="dummy-30_q34_0_all"  />
<polygon points="757,40 757,40 762,35 757,30 757,30 757,40 " style="fill:#d8153f; stroke-width:1; stroke:black; " description="&lt;b&gt;LLPMBPKK_06931&lt;/b&gt;&lt;br&gt;Activator of Hsp90 ATPase -like protein&lt;br&gt;Location: 8044713 - 8045403" locus_tag="LLPMBPKK_06931" class="clusterblast-orf" id="dummy-30_q35_0_all"  />
<polygon points="763,40 765,35 763,30 763,40 " style="fill:white; stroke-width:1; stroke:black; " description="&lt;b&gt;LLPMBPKK_06932&lt;/b&gt;&lt;br&gt;hypothetical protein&lt;br&gt;Location: 8045491 - 8045839" locus_tag="LLPMBPKK_06932" class="clusterblast-orf" id="dummy-30_q36_0_all"  />
<polygon points="767,40 768,35 767,30 767,40 " style="fill:white; stroke-width:1; stroke:black; " description="&lt;b&gt;LLPMBPKK_06933&lt;/b&gt;&lt;br&gt;K(+)-transporting ATPase subunit F&lt;br&gt;Location: 8046102 - 8046192" locus_tag="LLPMBPKK_06933" class="clusterblast-orf" id="dummy-30_q37_0_all"  />
<polygon points="768,40 775,40 780,35 775,30 768,30 768,40 " style="fill:white; stroke-width:1; stroke:black; " description="&lt;b&gt;LLPMBPKK_06934&lt;/b&gt;&lt;br&gt;potassium-transporting ATPase subunit KdpA&lt;br&gt;Location: 8046200 - 8047862" locus_tag="LLPMBPKK_06934" class="clusterblast-orf" id="dummy-30_q38_0_all"  />
</g>
<g label="NC_021191" description="NC_021191 (6547245-6636420): Actinoplanes sp. N902-109, complete genome (27% of genes show similarity), NRPS,T1PKS,aminocoumarin,nucleoside" class="clusterblast-cluster"  >
<text x="5" y="70" class="clusterblast-acc"  >
<a xlink:href="https://antismash-db.secondarymetabolites.org/area.html?record=NC_021191&amp;start=6547245&amp;end=6636420" target="_blank">NC_021191 (6547245-6636420)</a>: Actinoplanes sp. N902-109, complete genome (27% of genes show similarity), NRPS,T1PKS,aminocoumarin,nucleoside</text>
<line x1="10" y1="85" x2="778.0" y2="85" style="stroke-width:1; stroke:grey; "  />
</g>
<g id="a30_000"  >
<polygon points="74,85 76,80 76,90 74,85 " style="fill:white; stroke-width:1; stroke:black; " description="&lt;b&gt;L083_RS44050&lt;/b&gt;&lt;br&gt;hypothetical protein&lt;br&gt;Location: 6636096 - 6635851" locus_tag="L083_RS44050" class="clusterblast-orf" id="dummy-30_h30_10_0"  />
</g>
<g id="a30_001"  >
<polygon points="76,90 78,90 83,85 78,80 76,80 76,90 " style="fill:white; stroke-width:1; stroke:black; " description="&lt;b&gt;L083_RS27775&lt;/b&gt;&lt;br&gt;IS701 family transposase&lt;br&gt;Location: 6635829 - 6634930" locus_tag="L083_RS27775" class="clusterblast-orf" id="dummy-30_h30_10_1"  />
</g>
<g id="a30_002"  >
<polygon points="83,85 85,80 85,90 83,85 " style="fill:white; stroke-width:1; stroke:black; " description="&lt;b&gt;L083_RS42705&lt;/b&gt;&lt;br&gt;tyrosine-type recombinase/integrase&lt;br&gt;Location: 6634902 - 6634579" locus_tag="L083_RS42705" class="clusterblast-orf" id="dummy-30_h30_10_2"  />
</g>
<g id="a30_003"  >
<polygon points="86,90 89,90 94,85 89,80 86,80 86,90 " style="fill:white; stroke-width:1; stroke:black; " description="&lt;b&gt;L083_RS27765&lt;/b&gt;&lt;br&gt;IS701 family transposase&lt;br&gt;Location: 6634468 - 6633332" locus_tag="L083_RS27765" class="clusterblast-orf" id="dummy-30_h30_10_3"  />
</g>
<g id="a30_004"  >
<polygon points="96,85 101,80 101,80 101,90 101,90 96,85 " style="fill:white; stroke-width:1; stroke:black; " description="&lt;b&gt;L083_RS42700&lt;/b&gt;&lt;br&gt;IS5 family transposase&lt;br&gt;Location: 6633144 - 6632327" locus_tag="L083_RS42700" class="clusterblast-orf" id="dummy-30_h30_10_4"  />
</g>
<g id="a30_005"  >
<polygon points="102,90 104,85 102,80 102,90 " style="fill:white; stroke-width:1; stroke:black; " description="&lt;b&gt;L083_RS42695&lt;/b&gt;&lt;br&gt;LLM class F420-dependent oxidoreductase&lt;br&gt;Location: 6632236 - 6631889" locus_tag="L083_RS42695" class="clusterblast-orf" id="dummy-30_h30_10_5"  />
</g>
<g id="a30_006"  >
<polygon points="106,85 111,80 114,80 114,90 111,90 106,85 " style="fill:white; stroke-width:1; stroke:black; " description="&lt;b&gt;L083_RS27745&lt;/b&gt;&lt;br&gt;acyltransferase family protein&lt;br&gt;Location: 6631684 - 6630623" locus_tag="L083_RS27745" class="clusterblast-orf" id="dummy-30_h30_10_6"  />
</g>
<g id="a30_007"  >
<polygon points="114,85 119,80 127,80 127,90 119,90 114,85 " style="fill:white; stroke-width:1; stroke:black; " description="&lt;b&gt;L083_RS27740&lt;/b&gt;&lt;br&gt;HAMP domain-containing protein&lt;br&gt;Location: 6630550 - 6628796" locus_tag="L083_RS27740" class="clusterblast-orf" id="dummy-30_h30_10_7"  />
</g>
<g id="a30_008"  >
<polygon points="127,85 131,80 131,90 127,85 " style="fill:white; stroke-width:1; stroke:black; " description="&lt;b&gt;L083_RS27735&lt;/b&gt;&lt;br&gt;response regulator transcription factor&lt;br&gt;Location: 6628799 - 6628116" locus_tag="L083_RS27735" class="clusterblast-orf" id="dummy-30_h30_10_8"  />
</g>
<g id="a30_009"  >
<polygon points="132,90 136,85 132,80 132,90 " style="fill:white; stroke-width:1; stroke:black; " description="&lt;b&gt;L083_RS40910&lt;/b&gt;&lt;br&gt;DUF2399 domain-containing protein&lt;br&gt;Location: 6628073 - 6627498" locus_tag="L083_RS40910" class="clusterblast-orf" id="dummy-30_h30_10_9"  />
</g>
<g id="a30_0010"  >
<polygon points="136,85 137,80 137,90 136,85 " style="fill:white; stroke-width:1; stroke:black; " description="&lt;b&gt;L083_RS42690&lt;/b&gt;&lt;br&gt;hypothetical protein&lt;br&gt;Location: 6627472 - 6627281" locus_tag="L083_RS42690" class="clusterblast-orf" id="dummy-30_h30_10_10"  />
</g>
<g id="a30_0011"  >
<polygon points="137,90 139,90 144,85 139,80 137,80 137,90 " style="fill:white; stroke-width:1; stroke:black; " description="&lt;b&gt;L083_RS27725&lt;/b&gt;&lt;br&gt;hypothetical protein&lt;br&gt;Location: 6627267 - 6626371" locus_tag="L083_RS27725" class="clusterblast-orf" id="dummy-30_h30_10_11"  />
</g>
<g id="a30_0012"  >
<polygon points="144,85 147,80 147,90 144,85 " style="fill:white; stroke-width:1; stroke:black; " description="&lt;b&gt;L083_RS27720&lt;/b&gt;&lt;br&gt;response regulator&lt;br&gt;Location: 6626295 - 6625921" locus_tag="L083_RS27720" class="clusterblast-orf" id="dummy-30_h30_10_12"  />
</g>
<g id="a30_0013"  >
<polygon points="147,85 152,80 159,80 159,90 152,90 147,85 " style="fill:white; stroke-width:1; stroke:black; " description="&lt;b&gt;L083_RS27715&lt;/b&gt;&lt;br&gt;two-component sensor histidine kinase&lt;br&gt;Location: 6625921 - 6624287" locus_tag="L083_RS27715" class="clusterblast-orf" id="dummy-30_h30_10_13"  />
</g>
<g id="a30_0014"  >
<polygon points="160,85 165,80 168,80 168,90 165,90 160,85 " style="fill:white; stroke-width:1; stroke:black; " description="&lt;b&gt;L083_RS27710&lt;/b&gt;&lt;br&gt;ACR3 family arsenite efflux transporter&lt;br&gt;Location: 6624171 - 6623065" locus_tag="L083_RS27710" class="clusterblast-orf" id="dummy-30_h30_10_14"  />
</g>
<g id="a30_0015"  >
<polygon points="168,85 173,80 173,80 173,90 173,90 168,85 " style="fill:white; stroke-width:1; stroke:black; " description="&lt;b&gt;L083_RS27705&lt;/b&gt;&lt;br&gt;ArsR family transcriptional regulator&lt;br&gt;Location: 6623061 - 6622336" locus_tag="L083_RS27705" class="clusterblast-orf" id="dummy-30_h30_10_15"  />
</g>
<g id="a30_0016"  >
<polygon points="173,85 178,80 180,80 180,90 178,90 173,85 " style="fill:white; stroke-width:1; stroke:black; " description="&lt;b&gt;L083_RS27700&lt;/b&gt;&lt;br&gt;quinone oxidoreductase&lt;br&gt;Location: 6622234 - 6621266" locus_tag="L083_RS27700" class="clusterblast-orf" id="dummy-30_h30_10_16"  />
</g>
<g id="a30_0017"  >
<polygon points="181,90 185,90 190,85 185,80 181,80 181,90 " style="fill:#ca15d8; stroke-width:1; stroke:black; " description="&lt;b&gt;L083_RS27695&lt;/b&gt;&lt;br&gt;cytochrome P450&lt;br&gt;Location: 6621109 - 6619907&lt;br&gt;&lt;br&gt;&lt;b&gt;BlastP hit with LLPMBPKK_06909&lt;/b&gt;&lt;br&gt;Percentage identity: 48&lt;br&gt;Percentage coverage: 101&lt;br&gt;BLAST bit score: 375&lt;br&gt;E-value: 1.17e-126" locus_tag="L083_RS27695" class="clusterblast-orf" id="dummy-30_h30_10_17"  />
</g>
<g id="a30_0018"  >
<polygon points="190,90 196,90 201,85 196,80 190,80 190,90 " style="fill:#2315d8; stroke-width:1; stroke:black; " description="&lt;b&gt;L083_RS27690&lt;/b&gt;&lt;br&gt;bifunctional 3-(3-hydroxy-phenyl)propionate/3-hydroxycinnamic acid hydroxylase&lt;br&gt;Location: 6619910 - 6618384&lt;br&gt;&lt;br&gt;&lt;b&gt;BlastP hit with LLPMBPKK_06926&lt;/b&gt;&lt;br&gt;Percentage identity: 57&lt;br&gt;Percentage coverage: 96&lt;br&gt;BLAST bit score: 561&lt;br&gt;E-value: 9.49e-196" locus_tag="L083_RS27690" class="clusterblast-orf" id="dummy-30_h30_10_18"  />
</g>
<g id="a30_0019"  >
<polygon points="201,90 204,90 209,85 204,80 201,80 201,90 " style="fill:white; stroke-width:1; stroke:black; " description="&lt;b&gt;L083_RS27685&lt;/b&gt;&lt;br&gt;LLM class flavin-dependent oxidoreductase&lt;br&gt;Location: 6618334 - 6617282" locus_tag="L083_RS27685" class="clusterblast-orf" id="dummy-30_h30_10_19"  />
</g>
<g id="a30_0020"  >
<polygon points="209,90 210,90 215,85 210,80 209,80 209,90 " style="fill:white; stroke-width:1; stroke:black; " description="&lt;b&gt;L083_RS27680&lt;/b&gt;&lt;br&gt;putative protein N(5)-glutamine methyltransferase&lt;br&gt;Location: 6617285 - 6616485" locus_tag="L083_RS27680" class="clusterblast-orf" id="dummy-30_h30_10_20"  />
</g>
<g id="a30_0021"  >
<polygon points="215,90 238,90 243,85 238,80 215,80 215,90 " style="fill:white; stroke-width:1; stroke:black; " description="&lt;b&gt;L083_RS42685&lt;/b&gt;&lt;br&gt;amino acid adenylation domain-containing protein&lt;br&gt;Location: 6616420 - 6612488" locus_tag="L083_RS42685" class="clusterblast-orf" id="dummy-30_h30_10_21"  />
</g>
<g id="a30_0022"  >
<polygon points="243,90 247,90 252,85 247,80 243,80 243,90 " style="fill:white; stroke-width:1; stroke:black; " description="&lt;b&gt;L083_RS27670&lt;/b&gt;&lt;br&gt;cytochrome P450&lt;br&gt;Location: 6612488 - 6611247" locus_tag="L083_RS27670" class="clusterblast-orf" id="dummy-30_h30_10_22"  />
</g>
<g id="a30_0023"  >
<polygon points="252,90 253,85 252,80 252,90 " style="fill:white; stroke-width:1; stroke:black; " description="&lt;b&gt;L083_RS42680&lt;/b&gt;&lt;br&gt;MbtH family protein&lt;br&gt;Location: 6611236 - 6611033" locus_tag="L083_RS42680" class="clusterblast-orf" id="dummy-30_h30_10_23"  />
</g>
<g id="a30_0024"  >
<polygon points="253,90 254,90 259,85 254,80 253,80 253,90 " style="fill:white; stroke-width:1; stroke:black; " description="&lt;b&gt;L083_RS27665&lt;/b&gt;&lt;br&gt;O-methyltransferase&lt;br&gt;Location: 6611075 - 6610323" locus_tag="L083_RS27665" class="clusterblast-orf" id="dummy-30_h30_10_24"  />
</g>
<g id="a30_0025"  >
<polygon points="259,90 263,90 268,85 263,80 259,80 259,90 " style="fill:#ca15d8; stroke-width:1; stroke:black; " description="&lt;b&gt;L083_RS40905&lt;/b&gt;&lt;br&gt;cytochrome P450&lt;br&gt;Location: 6610311 - 6609064&lt;br&gt;&lt;br&gt;&lt;b&gt;BlastP hit with LLPMBPKK_06909&lt;/b&gt;&lt;br&gt;Percentage identity: 32&lt;br&gt;Percentage coverage: 102&lt;br&gt;BLAST bit score: 127&lt;br&gt;E-value: 5.56e-31" locus_tag="L083_RS40905" class="clusterblast-orf" id="dummy-30_h30_10_25"  />
</g>
<g id="a30_0026"  >
<polygon points="268,90 370,90 375,85 370,80 268,80 268,90 " style="fill:#d89315; stroke-width:1; stroke:black; " description="&lt;b&gt;L083_RS27650&lt;/b&gt;&lt;br&gt;SDR family NAD(P)-dependent oxidoreductase&lt;br&gt;Location: 6608974 - 6594005&lt;br&gt;&lt;br&gt;&lt;b&gt;BlastP hit with LLPMBPKK_06910&lt;/b&gt;&lt;br&gt;Percentage identity: 44&lt;br&gt;Percentage coverage: 90&lt;br&gt;BLAST bit score: 3162&lt;br&gt;E-value: 0.0&lt;br&gt;&lt;br&gt;&lt;b&gt;BlastP hit with LLPMBPKK_06911&lt;/b&gt;&lt;br&gt;Percentage identity: 52&lt;br&gt;Percentage coverage: 96&lt;br&gt;BLAST bit score: 4281&lt;br&gt;E-value: 0.0&lt;br&gt;&lt;br&gt;&lt;b&gt;BlastP hit with LLPMBPKK_06912&lt;/b&gt;&lt;br&gt;Percentage identity: 50&lt;br&gt;Percentage coverage: 89&lt;br&gt;BLAST bit score: 3689&lt;br&gt;E-value: 0.0&lt;br&gt;&lt;br&gt;&lt;b&gt;BlastP hit with LLPMBPKK_06913&lt;/b&gt;&lt;br&gt;Percentage identity: 56&lt;br&gt;Percentage coverage: 98&lt;br&gt;BLAST bit score: 1329&lt;br&gt;E-value: 0.0&lt;br&gt;&lt;br&gt;&lt;b&gt;BlastP hit with LLPMBPKK_06914&lt;/b&gt;&lt;br&gt;Percentage identity: 53&lt;br&gt;Percentage coverage: 97&lt;br&gt;BLAST bit score: 1776&lt;br&gt;E-value: 0.0&lt;br&gt;&lt;br&gt;&lt;b&gt;BlastP hit with LLPMBPKK_06915&lt;/b&gt;&lt;br&gt;Percentage identity: 51&lt;br&gt;Percentage coverage: 101&lt;br&gt;BLAST bit score: 2903&lt;br&gt;E-value: 0.0&lt;br&gt;&lt;br&gt;&lt;b&gt;BlastP hit with LLPMBPKK_06916&lt;/b&gt;&lt;br&gt;Percentage identity: 54&lt;br&gt;Percentage coverage: 60&lt;br&gt;BLAST bit score: 55&lt;br&gt;E-value: 1.8e-08" locus_tag="L083_RS27650" class="clusterblast-orf" id="dummy-30_h30_10_26"  />
</g>
<g id="a30_0027"  >
<polygon points="375,90 376,90 381,85 376,80 375,80 375,90 " style="fill:#15d831; stroke-width:1; stroke:black; " description="&lt;b&gt;L083_RS27645&lt;/b&gt;&lt;br&gt;putative amide synthase&lt;br&gt;Location: 6593973 - 6593143&lt;br&gt;&lt;br&gt;&lt;b&gt;BlastP hit with LLPMBPKK_06917&lt;/b&gt;&lt;br&gt;Percentage identity: 46&lt;br&gt;Percentage coverage: 96&lt;br&gt;BLAST bit score: 196&lt;br&gt;E-value: 4.05e-60" locus_tag="L083_RS27645" class="clusterblast-orf" id="dummy-30_h30_10_27"  />
</g>
<g id="a30_0028"  >
<polygon points="381,90 385,90 390,85 385,80 381,80 381,90 " style="fill:white; stroke-width:1; stroke:black; " description="&lt;b&gt;L083_RS27640&lt;/b&gt;&lt;br&gt;hypothetical protein&lt;br&gt;Location: 6593153 - 6591867" locus_tag="L083_RS27640" class="clusterblast-orf" id="dummy-30_h30_10_28"  />
</g>
<g id="a30_0029"  >
<polygon points="391,90 393,90 398,85 393,80 391,80 391,90 " style="fill:white; stroke-width:1; stroke:black; " description="&lt;b&gt;L083_RS27635&lt;/b&gt;&lt;br&gt;NADPH:quinone reductase&lt;br&gt;Location: 6591788 - 6590760" locus_tag="L083_RS27635" class="clusterblast-orf" id="dummy-30_h30_10_29"  />
</g>
<g id="a30_0030"  >
<polygon points="399,90 399,90 404,85 399,80 399,80 399,90 " style="fill:white; stroke-width:1; stroke:black; " description="&lt;b&gt;L083_RS40900&lt;/b&gt;&lt;br&gt;NAD(P)H-dependent oxidoreductase&lt;br&gt;Location: 6590679 - 6589999" locus_tag="L083_RS40900" class="clusterblast-orf" id="dummy-30_h30_10_30"  />
</g>
<g id="a30_0031"  >
<polygon points="405,90 409,90 414,85 409,80 405,80 405,90 " style="fill:white; stroke-width:1; stroke:black; " description="&lt;b&gt;L083_RS27625&lt;/b&gt;&lt;br&gt;CoA transferase&lt;br&gt;Location: 6589811 - 6588549" locus_tag="L083_RS27625" class="clusterblast-orf" id="dummy-30_h30_10_31"  />
</g>
<g id="a30_0032"  >
<polygon points="414,90 414,90 419,85 414,80 414,80 414,90 " style="fill:white; stroke-width:1; stroke:black; " description="&lt;b&gt;L083_RS27620&lt;/b&gt;&lt;br&gt;SDR family oxidoreductase&lt;br&gt;Location: 6588552 - 6587803" locus_tag="L083_RS27620" class="clusterblast-orf" id="dummy-30_h30_10_32"  />
</g>
<g id="a30_0033"  >
<polygon points="419,90 426,90 431,85 426,80 419,80 419,90 " style="fill:white; stroke-width:1; stroke:black; " description="&lt;b&gt;L083_RS27615&lt;/b&gt;&lt;br&gt;acyl-CoA carboxylase subunit beta&lt;br&gt;Location: 6587809 - 6586214" locus_tag="L083_RS27615" class="clusterblast-orf" id="dummy-30_h30_10_33"  />
</g>
<g id="a30_0034"  >
<polygon points="431,85 436,80 439,80 439,90 436,90 431,85 " style="fill:white; stroke-width:1; stroke:black; " description="&lt;b&gt;L083_RS27610&lt;/b&gt;&lt;br&gt;acyl-CoA dehydrogenase&lt;br&gt;Location: 6586156 - 6584996" locus_tag="L083_RS27610" class="clusterblast-orf" id="dummy-30_h30_10_34"  />
</g>
<g id="a30_0035"  >
<polygon points="440,85 445,80 449,80 449,90 445,90 440,85 " style="fill:#23d815; stroke-width:1; stroke:black; " description="&lt;b&gt;L083_RS27605&lt;/b&gt;&lt;br&gt;LuxR family transcriptional regulator&lt;br&gt;Location: 6584936 - 6583647&lt;br&gt;&lt;br&gt;&lt;b&gt;BlastP hit with LLPMBPKK_06907&lt;/b&gt;&lt;br&gt;Percentage identity: 50&lt;br&gt;Percentage coverage: 88&lt;br&gt;BLAST bit score: 282&lt;br&gt;E-value: 1.16e-89" locus_tag="L083_RS27605" class="clusterblast-orf" id="dummy-30_h30_10_35"  />
</g>
<g id="a30_0036"  >
<polygon points="455,90 561,90 566,85 561,80 455,80 455,90 " style="fill:#d89315; stroke-width:1; stroke:black; " description="&lt;b&gt;L083_RS27600&lt;/b&gt;&lt;br&gt;type I polyketide synthase&lt;br&gt;Location: 6582842 - 6567246&lt;br&gt;&lt;br&gt;&lt;b&gt;BlastP hit with LLPMBPKK_06910&lt;/b&gt;&lt;br&gt;Percentage identity: 57&lt;br&gt;Percentage coverage: 101&lt;br&gt;BLAST bit score: 5418&lt;br&gt;E-value: 0.0&lt;br&gt;&lt;br&gt;&lt;b&gt;BlastP hit with LLPMBPKK_06911&lt;/b&gt;&lt;br&gt;Percentage identity: 43&lt;br&gt;Percentage coverage: 84&lt;br&gt;BLAST bit score: 2814&lt;br&gt;E-value: 0.0&lt;br&gt;&lt;br&gt;&lt;b&gt;BlastP hit with LLPMBPKK_06912&lt;/b&gt;&lt;br&gt;Percentage identity: 53&lt;br&gt;Percentage coverage: 55&lt;br&gt;BLAST bit score: 2499&lt;br&gt;E-value: 0.0&lt;br&gt;&lt;br&gt;&lt;b&gt;BlastP hit with LLPMBPKK_06913&lt;/b&gt;&lt;br&gt;Percentage identity: 55&lt;br&gt;Percentage coverage: 96&lt;br&gt;BLAST bit score: 1193&lt;br&gt;E-value: 0.0&lt;br&gt;&lt;br&gt;&lt;b&gt;BlastP hit with LLPMBPKK_06914&lt;/b&gt;&lt;br&gt;Percentage identity: 54&lt;br&gt;Percentage coverage: 61&lt;br&gt;BLAST bit score: 1160&lt;br&gt;E-value: 0.0&lt;br&gt;&lt;br&gt;&lt;b&gt;BlastP hit with LLPMBPKK_06915&lt;/b&gt;&lt;br&gt;Percentage identity: 51&lt;br&gt;Percentage coverage: 78&lt;br&gt;BLAST bit score: 2240&lt;br&gt;E-value: 0.0&lt;br&gt;&lt;br&gt;&lt;b&gt;BlastP hit with LLPMBPKK_06916&lt;/b&gt;&lt;br&gt;Percentage identity: 41&lt;br&gt;Percentage coverage: 77&lt;br&gt;BLAST bit score: 56&lt;br&gt;E-value: 1.32e-08" locus_tag="L083_RS27600" class="clusterblast-orf" id="dummy-30_h30_10_36"  />
</g>
<g id="a30_0037"  >
<polygon points="566,90 569,90 574,85 569,80 566,80 566,90 " style="fill:#d815bc; stroke-width:1; stroke:black; " description="&lt;b&gt;L083_RS27595&lt;/b&gt;&lt;br&gt;3-dehydroquinate synthase&lt;br&gt;Location: 6567222 - 6566161&lt;br&gt;&lt;br&gt;&lt;b&gt;BlastP hit with LLPMBPKK_06919&lt;/b&gt;&lt;br&gt;Percentage identity: 69&lt;br&gt;Percentage coverage: 98&lt;br&gt;BLAST bit score: 456&lt;br&gt;E-value: 7.69e-160" locus_tag="L083_RS27595" class="clusterblast-orf" id="dummy-30_h30_10_37"  />
</g>
<g id="a30_0038"  >
<polygon points="574,90 577,90 582,85 577,80 574,80 574,90 " style="fill:#d8bc15; stroke-width:1; stroke:black; " description="&lt;b&gt;L083_RS27590&lt;/b&gt;&lt;br&gt;3-deoxy-7-phosphoheptulonate synthase&lt;br&gt;Location: 6566164 - 6564983&lt;br&gt;&lt;br&gt;&lt;b&gt;BlastP hit with LLPMBPKK_06920&lt;/b&gt;&lt;br&gt;Percentage identity: 55&lt;br&gt;Percentage coverage: 93&lt;br&gt;BLAST bit score: 442&lt;br&gt;E-value: 1.22e-151" locus_tag="L083_RS27590" class="clusterblast-orf" id="dummy-30_h30_10_38"  />
</g>
<g id="a30_0039"  >
<polygon points="583,90 586,90 591,85 586,80 583,80 583,90 " style="fill:#1531d8; stroke-width:1; stroke:black; " description="&lt;b&gt;L083_RS27585&lt;/b&gt;&lt;br&gt;DegT/DnrJ/EryC1/StrS family aminotransferase&lt;br&gt;Location: 6564897 - 6563734&lt;br&gt;&lt;br&gt;&lt;b&gt;BlastP hit with LLPMBPKK_06922&lt;/b&gt;&lt;br&gt;Percentage identity: 76&lt;br&gt;Percentage coverage: 98&lt;br&gt;BLAST bit score: 582&lt;br&gt;E-value: 1.41e-208" locus_tag="L083_RS27585" class="clusterblast-orf" id="dummy-30_h30_10_39"  />
</g>
<g id="a30_0040"  >
<polygon points="591,90 594,90 599,85 594,80 591,80 591,90 " style="fill:#d81593; stroke-width:1; stroke:black; " description="&lt;b&gt;L083_RS27580&lt;/b&gt;&lt;br&gt;Gfo/Idh/MocA family oxidoreductase&lt;br&gt;Location: 6563737 - 6562679&lt;br&gt;&lt;br&gt;&lt;b&gt;BlastP hit with LLPMBPKK_06923&lt;/b&gt;&lt;br&gt;Percentage identity: 66&lt;br&gt;Percentage coverage: 95&lt;br&gt;BLAST bit score: 436&lt;br&gt;E-value: 1.49e-151" locus_tag="L083_RS27580" class="clusterblast-orf" id="dummy-30_h30_10_40"  />
</g>
<g id="a30_0041"  >
<polygon points="599,90 599,90 604,85 599,80 599,80 599,90 " style="fill:#cad815; stroke-width:1; stroke:black; " description="&lt;b&gt;L083_RS27575&lt;/b&gt;&lt;br&gt;HAD-IA family hydrolase&lt;br&gt;Location: 6562616 - 6561927&lt;br&gt;&lt;br&gt;&lt;b&gt;BlastP hit with LLPMBPKK_06924&lt;/b&gt;&lt;br&gt;Percentage identity: 74&lt;br&gt;Percentage coverage: 97&lt;br&gt;BLAST bit score: 316&lt;br&gt;E-value: 1.7e-108" locus_tag="L083_RS27575" class="clusterblast-orf" id="dummy-30_h30_10_41"  />
</g>
<g id="a30_0042"  >
<polygon points="604,90 606,90 611,85 606,80 604,80 604,90 " style="fill:#15d885; stroke-width:1; stroke:black; " description="&lt;b&gt;L083_RS27570&lt;/b&gt;&lt;br&gt;ROK family protein&lt;br&gt;Location: 6561908 - 6561051&lt;br&gt;&lt;br&gt;&lt;b&gt;BlastP hit with LLPMBPKK_06925&lt;/b&gt;&lt;br&gt;Percentage identity: 57&lt;br&gt;Percentage coverage: 95&lt;br&gt;BLAST bit score: 287&lt;br&gt;E-value: 4.43e-95" locus_tag="L083_RS27570" class="clusterblast-orf" id="dummy-30_h30_10_42"  />
</g>
<g id="a30_0043"  >
<polygon points="611,90 611,90 616,85 611,80 611,80 611,90 " style="fill:#d81569; stroke-width:1; stroke:black; " description="&lt;b&gt;L083_RS27565&lt;/b&gt;&lt;br&gt;thioesterase&lt;br&gt;Location: 6561035 - 6560283&lt;br&gt;&lt;br&gt;&lt;b&gt;BlastP hit with LLPMBPKK_06927&lt;/b&gt;&lt;br&gt;Percentage identity: 56&lt;br&gt;Percentage coverage: 91&lt;br&gt;BLAST bit score: 270&lt;br&gt;E-value: 1.13e-89" locus_tag="L083_RS27565" class="clusterblast-orf" id="dummy-30_h30_10_43"  />
</g>
<g id="a30_0044"  >
<polygon points="617,85 622,80 622,80 622,90 622,90 617,85 " style="fill:white; stroke-width:1; stroke:black; " description="&lt;b&gt;L083_RS27560&lt;/b&gt;&lt;br&gt;Gfo/Idh/MocA family oxidoreductase&lt;br&gt;Location: 6560206 - 6559415" locus_tag="L083_RS27560" class="clusterblast-orf" id="dummy-30_h30_10_44"  />
</g>
<g id="a30_0045"  >
<polygon points="622,85 627,80 629,80 629,90 627,90 622,85 " style="fill:white; stroke-width:1; stroke:black; " description="&lt;b&gt;L083_RS27555&lt;/b&gt;&lt;br&gt;gfo/Idh/MocA family oxidoreductase&lt;br&gt;Location: 6559418 - 6558399" locus_tag="L083_RS27555" class="clusterblast-orf" id="dummy-30_h30_10_45"  />
</g>
<g id="a30_0046"  >
<polygon points="630,90 633,85 630,80 630,90 " style="fill:#15d8ae; stroke-width:1; stroke:black; " description="&lt;b&gt;L083_RS27550&lt;/b&gt;&lt;br&gt;3-dehydroquinate dehydratase&lt;br&gt;Location: 6558311 - 6557868&lt;br&gt;&lt;br&gt;&lt;b&gt;BlastP hit with LLPMBPKK_06929&lt;/b&gt;&lt;br&gt;Percentage identity: 78&lt;br&gt;Percentage coverage: 97&lt;br&gt;BLAST bit score: 228&lt;br&gt;E-value: 2.69e-76" locus_tag="L083_RS27550" class="clusterblast-orf" id="dummy-30_h30_10_46"  />
</g>
<g id="a30_0047"  >
<polygon points="633,90 634,90 639,85 634,80 633,80 633,90 " style="fill:#15d85b; stroke-width:1; stroke:black; " description="&lt;b&gt;L083_RS27545&lt;/b&gt;&lt;br&gt;shikimate dehydrogenase&lt;br&gt;Location: 6557875 - 6557075&lt;br&gt;&lt;br&gt;&lt;b&gt;BlastP hit with LLPMBPKK_06921&lt;/b&gt;&lt;br&gt;Percentage identity: 57&lt;br&gt;Percentage coverage: 94&lt;br&gt;BLAST bit score: 279&lt;br&gt;E-value: 2.06e-92" locus_tag="L083_RS27545" class="clusterblast-orf" id="dummy-30_h30_10_47"  />
</g>
<g id="a30_0048"  >
<polygon points="639,85 644,80 644,80 644,90 644,90 639,85 " style="fill:white; stroke-width:1; stroke:black; " description="&lt;b&gt;L083_RS27540&lt;/b&gt;&lt;br&gt;class I SAM-dependent methyltransferase&lt;br&gt;Location: 6557023 - 6556304" locus_tag="L083_RS27540" class="clusterblast-orf" id="dummy-30_h30_10_48"  />
</g>
<g id="a30_0049"  >
<polygon points="647,90 649,85 647,80 647,90 " style="fill:white; stroke-width:1; stroke:black; " description="&lt;b&gt;L083_RS27535&lt;/b&gt;&lt;br&gt;MSMEG 0570 family nitrogen starvation response protein&lt;br&gt;Location: 6555914 - 6555636" locus_tag="L083_RS27535" class="clusterblast-orf" id="dummy-30_h30_10_49"  />
</g>
<g id="a30_0050"  >
<polygon points="649,90 653,90 658,85 653,80 649,80 649,90 " style="fill:white; stroke-width:1; stroke:black; " description="&lt;b&gt;L083_RS27530&lt;/b&gt;&lt;br&gt;MSMEG 0569 family flavin-dependent oxidoreductase&lt;br&gt;Location: 6555639 - 6554341" locus_tag="L083_RS27530" class="clusterblast-orf" id="dummy-30_h30_10_50"  />
</g>
<g id="a30_0051"  >
<polygon points="658,90 659,90 664,85 659,80 658,80 658,90 " style="fill:white; stroke-width:1; stroke:black; " description="&lt;b&gt;L083_RS27525&lt;/b&gt;&lt;br&gt;amidohydrolase family protein&lt;br&gt;Location: 6554344 - 6553544" locus_tag="L083_RS27525" class="clusterblast-orf" id="dummy-30_h30_10_51"  />
</g>
<g id="a30_0052"  >
<polygon points="664,90 668,85 664,80 664,90 " style="fill:white; stroke-width:1; stroke:black; " description="&lt;b&gt;L083_RS27520&lt;/b&gt;&lt;br&gt;MSMEG 0572 family nitrogen starvation response protein&lt;br&gt;Location: 6553530 - 6553018" locus_tag="L083_RS27520" class="clusterblast-orf" id="dummy-30_h30_10_52"  />
</g>
<g id="a30_0053"  >
<polygon points="668,90 670,90 675,85 670,80 668,80 668,90 " style="fill:white; stroke-width:1; stroke:black; " description="&lt;b&gt;L083_RS27515&lt;/b&gt;&lt;br&gt;MSMEG 0568 family radical SAM protein&lt;br&gt;Location: 6553016 - 6551964" locus_tag="L083_RS27515" class="clusterblast-orf" id="dummy-30_h30_10_53"  />
</g>
<g id="a30_0054"  >
<polygon points="675,90 680,90 685,85 680,80 675,80 675,90 " style="fill:white; stroke-width:1; stroke:black; " description="&lt;b&gt;L083_RS27510&lt;/b&gt;&lt;br&gt;GNAT family N-acetyltransferase&lt;br&gt;Location: 6551967 - 6550615" locus_tag="L083_RS27510" class="clusterblast-orf" id="dummy-30_h30_10_54"  />
</g>
<g id="a30_0055"  >
<polygon points="685,90 686,90 691,85 686,80 685,80 685,90 " style="fill:white; stroke-width:1; stroke:black; " description="&lt;b&gt;L083_RS27505&lt;/b&gt;&lt;br&gt;carbon-nitrogen hydrolase family protein&lt;br&gt;Location: 6550618 - 6549797" locus_tag="L083_RS27505" class="clusterblast-orf" id="dummy-30_h30_10_55"  />
</g>
<g id="a30_0056"  >
<polygon points="691,90 692,90 697,85 692,80 691,80 691,90 " style="fill:white; stroke-width:1; stroke:black; " description="&lt;b&gt;L083_RS27500&lt;/b&gt;&lt;br&gt;carbon-nitrogen hydrolase family protein&lt;br&gt;Location: 6549800 - 6548946" locus_tag="L083_RS27500" class="clusterblast-orf" id="dummy-30_h30_10_56"  />
</g>
<g id="a30_0057"  >
<polygon points="697,90 700,90 705,85 700,80 697,80 697,90 " style="fill:white; stroke-width:1; stroke:black; " description="&lt;b&gt;L083_RS27495&lt;/b&gt;&lt;br&gt;MSMEG 0565 family glycosyltransferase&lt;br&gt;Location: 6548949 - 6547882" locus_tag="L083_RS27495" class="clusterblast-orf" id="dummy-30_h30_10_57"  />
</g>
</svg>
