<svg xmlns="http://www.w3.org/2000/svg" xmlns:xlink="http://www.w3.org/1999/xlink" version="1.1" x="0" y="0" height="230" width="800" viewBox="0 0 800 230" preserveAspectRatio="none"  >
<g label="Query sequence" class="clusterblast-cluster"  >
<text x="5" y="20" class="clusterblast-acc"  >
Query sequence</text>
<line x1="10" y1="35" x2="778.0" y2="35" style="stroke-width:1; stroke:grey; "  />
<polygon points="0,40 2,40 7,35 2,30 0,30 0,40 " style="fill:white; stroke-width:1; stroke:black; " description="&lt;b&gt;LLPMBPKK_00467&lt;/b&gt;&lt;br&gt;pyruvate phosphate dikinase&lt;br&gt;Location: 575108 - 575282" locus_tag="LLPMBPKK_00467" class="clusterblast-orf" id="dummy-2_q0_0_all"  />
<polygon points="12,40 26,40 31,35 26,30 12,30 12,40 " style="fill:white; stroke-width:1; stroke:black; " description="&lt;b&gt;LLPMBPKK_00468&lt;/b&gt;&lt;br&gt;hypothetical protein&lt;br&gt;Location: 575385 - 575844" locus_tag="LLPMBPKK_00468" class="clusterblast-orf" id="dummy-2_q1_0_all"  />
<polygon points="42,40 61,40 66,35 61,30 42,30 42,40 " style="fill:white; stroke-width:1; stroke:black; " description="&lt;b&gt;LLPMBPKK_00469&lt;/b&gt;&lt;br&gt;proline rich protein membrane protein&lt;br&gt;Location: 576091 - 576664" locus_tag="LLPMBPKK_00469" class="clusterblast-orf" id="dummy-2_q2_0_all"  />
<polygon points="70,40 114,40 119,35 114,30 70,30 70,40 " style="fill:white; stroke-width:1; stroke:black; " description="&lt;b&gt;LLPMBPKK_00470&lt;/b&gt;&lt;br&gt;CBS domain-containing protein&lt;br&gt;Location: 576750 - 577917" locus_tag="LLPMBPKK_00470" class="clusterblast-orf" id="dummy-2_q3_0_all"  />
<polygon points="135,35 140,30 173,30 173,40 140,40 135,35 " style="fill:white; stroke-width:1; stroke:black; " description="&lt;b&gt;LLPMBPKK_00471&lt;/b&gt;&lt;br&gt;universal stress protein&lt;br&gt;Location: 578282 - 579188" locus_tag="LLPMBPKK_00471" class="clusterblast-orf" id="dummy-2_q4_0_all"  />
<polygon points="181,40 204,40 209,35 204,30 181,30 181,40 " style="fill:white; stroke-width:1; stroke:black; " description="&lt;b&gt;LLPMBPKK_00472&lt;/b&gt;&lt;br&gt;CBS domain-containing protein&lt;br&gt;Location: 579372 - 580029" locus_tag="LLPMBPKK_00472" class="clusterblast-orf" id="dummy-2_q5_0_all"  />
<polygon points="219,35 224,30 257,30 257,40 224,40 219,35 " style="fill:white; stroke-width:1; stroke:black; " description="&lt;b&gt;LLPMBPKK_00473&lt;/b&gt;&lt;br&gt;alpha/beta fold hydrolase&lt;br&gt;Location: 580275 - 581157" locus_tag="LLPMBPKK_00473" class="clusterblast-orf" id="dummy-2_q6_0_all"  />
<polygon points="259,40 274,40 279,35 274,30 259,30 259,40 " style="fill:white; stroke-width:1; stroke:black; " description="&lt;b&gt;LLPMBPKK_00474&lt;/b&gt;&lt;br&gt;MarR family transcriptional regulator&lt;br&gt;Location: 581209 - 581680" locus_tag="LLPMBPKK_00474" class="clusterblast-orf" id="dummy-2_q7_0_all"  />
<polygon points="281,35 286,30 299,30 299,40 286,40 281,35 " style="fill:white; stroke-width:1; stroke:black; " description="&lt;b&gt;LLPMBPKK_00475&lt;/b&gt;&lt;br&gt;hypothetical protein&lt;br&gt;Location: 581717 - 582158" locus_tag="LLPMBPKK_00475" class="clusterblast-orf" id="dummy-2_q8_0_all"  />
<polygon points="302,40 324,40 329,35 324,30 302,30 302,40 " style="fill:white; stroke-width:1; stroke:black; " description="&lt;b&gt;LLPMBPKK_00476&lt;/b&gt;&lt;br&gt;TetR family transcriptional regulator&lt;br&gt;Location: 582224 - 582851" locus_tag="LLPMBPKK_00476" class="clusterblast-orf" id="dummy-2_q9_0_all"  />
<polygon points="336,35 341,30 371,30 371,40 341,40 336,35 " style="fill:#d81515; stroke-width:1; stroke:black; " description="&lt;b&gt;LLPMBPKK_00477&lt;/b&gt;&lt;br&gt;alpha/beta fold hydrolase&lt;br&gt;Location: 583023 - 583836" locus_tag="LLPMBPKK_00477" class="clusterblast-orf" id="dummy-2_q10_0_all"  />
<polygon points="371,35 376,30 394,30 394,40 376,40 371,35 " style="fill:#15d8d8; stroke-width:1; stroke:black; " description="&lt;b&gt;LLPMBPKK_00478&lt;/b&gt;&lt;br&gt;hypothetical protein&lt;br&gt;Location: 583836 - 584379" locus_tag="LLPMBPKK_00478" class="clusterblast-orf" id="dummy-2_q11_0_all"  />
<polygon points="396,35 401,30 433,30 433,40 401,40 396,35 " style="fill:white; stroke-width:1; stroke:black; " description="&lt;b&gt;LLPMBPKK_00479&lt;/b&gt;&lt;br&gt;hypothetical protein&lt;br&gt;Location: 584434 - 585301" locus_tag="LLPMBPKK_00479" class="clusterblast-orf" id="dummy-2_q12_0_all"  />
<polygon points="436,35 441,30 454,30 454,40 441,40 436,35 " style="fill:white; stroke-width:1; stroke:black; " description="&lt;b&gt;LLPMBPKK_00480&lt;/b&gt;&lt;br&gt;hypothetical protein&lt;br&gt;Location: 585375 - 585789" locus_tag="LLPMBPKK_00480" class="clusterblast-orf" id="dummy-2_q13_0_all"  />
<polygon points="458,40 479,40 484,35 479,30 458,30 458,40 " style="fill:white; stroke-width:1; stroke:black; " description="&lt;b&gt;LLPMBPKK_00481&lt;/b&gt;&lt;br&gt;TetR/AcrR family transcriptional regulator&lt;br&gt;Location: 585881 - 586511" locus_tag="LLPMBPKK_00481" class="clusterblast-orf" id="dummy-2_q14_0_all"  />
<polygon points="497,35 502,30 508,30 508,40 502,40 497,35 " style="fill:white; stroke-width:1; stroke:black; " description="&lt;b&gt;LLPMBPKK_00482&lt;/b&gt;&lt;br&gt;hypothetical protein&lt;br&gt;Location: 586798 - 587071" locus_tag="LLPMBPKK_00482" class="clusterblast-orf" id="dummy-2_q15_0_all"  />
<polygon points="528,35 533,30 536,30 536,40 533,40 528,35 " style="fill:white; stroke-width:1; stroke:black; " description="&lt;b&gt;LLPMBPKK_00483&lt;/b&gt;&lt;br&gt;hypothetical protein&lt;br&gt;Location: 587549 - 587720" locus_tag="LLPMBPKK_00483" class="clusterblast-orf" id="dummy-2_q16_0_all"  />
<polygon points="539,40 540,40 545,35 540,30 539,30 539,40 " style="fill:white; stroke-width:1; stroke:black; " description="&lt;b&gt;LLPMBPKK_00484&lt;/b&gt;&lt;br&gt;hypothetical protein&lt;br&gt;Location: 587807 - 587933" locus_tag="LLPMBPKK_00484" class="clusterblast-orf" id="dummy-2_q17_0_all"  />
<polygon points="560,35 565,30 595,30 595,40 565,40 560,35 " style="fill:white; stroke-width:1; stroke:black; " description="&lt;b&gt;LLPMBPKK_00485&lt;/b&gt;&lt;br&gt;RNA polymerase sigma factor sig8&lt;br&gt;Location: 588280 - 589126" locus_tag="LLPMBPKK_00485" class="clusterblast-orf" id="dummy-2_q18_0_all"  />
<polygon points="608,40 615,40 620,35 615,30 608,30 608,40 " style="fill:white; stroke-width:1; stroke:black; " description="&lt;b&gt;LLPMBPKK_00486&lt;/b&gt;&lt;br&gt;hypothetical protein&lt;br&gt;Location: 589413 - 589701" locus_tag="LLPMBPKK_00486" class="clusterblast-orf" id="dummy-2_q19_0_all"  />
<polygon points="625,35 630,30 726,30 726,40 630,40 625,35 " style="fill:white; stroke-width:1; stroke:black; " description="&lt;b&gt;LLPMBPKK_00487&lt;/b&gt;&lt;br&gt;SARP family transcriptional regulator&lt;br&gt;Location: 589823 - 592199" locus_tag="LLPMBPKK_00487" class="clusterblast-orf" id="dummy-2_q20_0_all"  />
<polygon points="742,35 747,30 780,30 780,40 747,40 742,35 " style="fill:white; stroke-width:1; stroke:black; " description="&lt;b&gt;LLPMBPKK_00488&lt;/b&gt;&lt;br&gt;ECF subfamily RNA polymerase sigma-70 factor&lt;br&gt;Location: 592571 - 593468" locus_tag="LLPMBPKK_00488" class="clusterblast-orf" id="dummy-2_q21_0_all"  />
</g>
<g label="NZ_JABGNA010000003" description="NZ_JABGNA010000003 (674-21226): Mucilaginibacter sp. SG564 Ga0365344 03, whol... (9% of genes show similarity), linaridin" class="clusterblast-cluster"  >
<text x="5" y="70" class="clusterblast-acc"  >
<a xlink:href="https://antismash-db.secondarymetabolites.org/area.html?record=NZ_JABGNA010000003&amp;start=674&amp;end=21226" target="_blank">NZ_JABGNA010000003 (674-21226)</a>: Mucilaginibacter sp. SG564 Ga0365344 03, whol... (9% of genes show similarity), linaridin</text>
<line x1="10" y1="85" x2="778.0" y2="85" style="stroke-width:1; stroke:grey; "  />
</g>
<g id="a2_000"  >
<polygon points="2,85 7,80 45,80 45,90 7,90 2,85 " style="fill:white; stroke-width:1; stroke:black; " description="&lt;b&gt;FHW89_RS07810&lt;/b&gt;&lt;br&gt;DUF4974 domain-containing protein&lt;br&gt;Location: 20573 - 19569" locus_tag="FHW89_RS07810" class="clusterblast-orf" id="dummy-2_h2_3_0"  />
</g>
<g id="a2_001"  >
<polygon points="55,90 75,90 80,85 75,80 55,80 55,90 " style="fill:white; stroke-width:1; stroke:black; " description="&lt;b&gt;FHW89_RS07805&lt;/b&gt;&lt;br&gt;RNA polymerase sigma-70 factor&lt;br&gt;Location: 19331 - 18744" locus_tag="FHW89_RS07805" class="clusterblast-orf" id="dummy-2_h2_3_1"  />
</g>
<g id="a2_002"  >
<polygon points="93,85 98,80 126,80 126,90 98,90 93,85 " style="fill:white; stroke-width:1; stroke:black; " description="&lt;b&gt;FHW89_RS07800&lt;/b&gt;&lt;br&gt;isocitrate lyase/phosphoenolpyruvate mutase family protein&lt;br&gt;Location: 18424 - 17651" locus_tag="FHW89_RS07800" class="clusterblast-orf" id="dummy-2_h2_3_2"  />
</g>
<g id="a2_003"  >
<polygon points="132,85 137,80 148,80 148,90 137,90 132,85 " style="fill:white; stroke-width:1; stroke:black; " description="&lt;b&gt;FHW89_RS07795&lt;/b&gt;&lt;br&gt;DUF4440 domain-containing protein&lt;br&gt;Location: 17518 - 17138" locus_tag="FHW89_RS07795" class="clusterblast-orf" id="dummy-2_h2_3_3"  />
</g>
<g id="a2_004"  >
<polygon points="170,85 175,80 205,80 205,90 175,90 170,85 " style="fill:white; stroke-width:1; stroke:black; " description="&lt;b&gt;FHW89_RS07790&lt;/b&gt;&lt;br&gt;AraC family transcriptional regulator&lt;br&gt;Location: 16622 - 15804" locus_tag="FHW89_RS07790" class="clusterblast-orf" id="dummy-2_h2_3_4"  />
</g>
<g id="a2_005"  >
<polygon points="213,85 218,80 224,80 224,90 218,90 213,85 " style="fill:white; stroke-width:1; stroke:black; " description="&lt;b&gt;FHW89_RS07785&lt;/b&gt;&lt;br&gt;hypothetical protein&lt;br&gt;Location: 15607 - 15353" locus_tag="FHW89_RS07785" class="clusterblast-orf" id="dummy-2_h2_3_5"  />
</g>
<g id="a2_006"  >
<polygon points="230,85 235,80 266,80 266,90 235,90 230,85 " style="fill:white; stroke-width:1; stroke:black; " description="&lt;b&gt;FHW89_RS07780&lt;/b&gt;&lt;br&gt;lipase family protein&lt;br&gt;Location: 15208 - 14360" locus_tag="FHW89_RS07780" class="clusterblast-orf" id="dummy-2_h2_3_6"  />
</g>
<g id="a2_007"  >
<polygon points="268,85 273,80 304,80 304,90 273,90 268,85 " style="fill:white; stroke-width:1; stroke:black; " description="&lt;b&gt;FHW89_RS07775&lt;/b&gt;&lt;br&gt;hypothetical protein&lt;br&gt;Location: 14320 - 13466" locus_tag="FHW89_RS07775" class="clusterblast-orf" id="dummy-2_h2_3_7"  />
</g>
<g id="a2_008"  >
<polygon points="310,85 315,80 345,80 345,90 315,90 310,85 " style="fill:white; stroke-width:1; stroke:black; " description="&lt;b&gt;FHW89_RS07770&lt;/b&gt;&lt;br&gt;lipase family protein&lt;br&gt;Location: 13332 - 12508" locus_tag="FHW89_RS07770" class="clusterblast-orf" id="dummy-2_h2_3_8"  />
</g>
<g id="a2_009"  >
<polygon points="347,85 352,80 365,80 365,90 352,90 347,85 " style="fill:white; stroke-width:1; stroke:black; " description="&lt;b&gt;FHW89_RS07765&lt;/b&gt;&lt;br&gt;DUF393 domain-containing protein&lt;br&gt;Location: 12459 - 12040" locus_tag="FHW89_RS07765" class="clusterblast-orf" id="dummy-2_h2_3_9"  />
</g>
<g id="a2_0010"  >
<polygon points="364,85 369,80 399,80 399,90 369,90 364,85 " style="fill:#d81515; stroke-width:1; stroke:black; " description="&lt;b&gt;FHW89_RS07760&lt;/b&gt;&lt;br&gt;hypothetical protein&lt;br&gt;Location: 12055 - 11234&lt;br&gt;&lt;br&gt;&lt;b&gt;BlastP hit with LLPMBPKK_00477&lt;/b&gt;&lt;br&gt;Percentage identity: 43&lt;br&gt;Percentage coverage: 61&lt;br&gt;BLAST bit score: 130&lt;br&gt;E-value: 1.84e-34" locus_tag="FHW89_RS07760" class="clusterblast-orf" id="dummy-2_h2_3_10"  />
</g>
<g id="a2_0011"  >
<polygon points="399,85 404,80 423,80 423,90 404,90 399,85 " style="fill:#15d8d8; stroke-width:1; stroke:black; " description="&lt;b&gt;FHW89_RS07755&lt;/b&gt;&lt;br&gt;hypothetical protein&lt;br&gt;Location: 11226 - 10675&lt;br&gt;&lt;br&gt;&lt;b&gt;BlastP hit with LLPMBPKK_00478&lt;/b&gt;&lt;br&gt;Percentage identity: 37&lt;br&gt;Percentage coverage: 93&lt;br&gt;BLAST bit score: 117&lt;br&gt;E-value: 1.4e-31" locus_tag="FHW89_RS07755" class="clusterblast-orf" id="dummy-2_h2_3_11"  />
</g>
<g id="a2_0012"  >
<polygon points="425,85 430,80 439,80 439,90 430,90 425,85 " style="fill:white; stroke-width:1; stroke:black; " description="&lt;b&gt;FHW89_RS07750&lt;/b&gt;&lt;br&gt;hypothetical protein&lt;br&gt;Location: 10609 - 10295" locus_tag="FHW89_RS07750" class="clusterblast-orf" id="dummy-2_h2_3_12"  />
</g>
<g id="a2_0013"  >
<polygon points="454,85 459,80 481,80 481,90 459,90 454,85 " style="fill:white; stroke-width:1; stroke:black; " description="&lt;b&gt;FHW89_RS07745&lt;/b&gt;&lt;br&gt;response regulator transcription factor&lt;br&gt;Location: 9935 - 9288" locus_tag="FHW89_RS07745" class="clusterblast-orf" id="dummy-2_h2_3_13"  />
</g>
<g id="a2_0014"  >
<polygon points="487,85 492,80 500,80 500,90 492,90 487,85 " style="fill:white; stroke-width:1; stroke:black; " description="&lt;b&gt;FHW89_RS07740&lt;/b&gt;&lt;br&gt;response regulator transcription factor&lt;br&gt;Location: 9152 - 8862" locus_tag="FHW89_RS07740" class="clusterblast-orf" id="dummy-2_h2_3_14"  />
</g>
<g id="a2_0015"  >
<polygon points="499,85 504,80 506,80 506,90 504,90 499,85 " style="fill:white; stroke-width:1; stroke:black; " description="&lt;b&gt;FHW89_RS07735&lt;/b&gt;&lt;br&gt;hypothetical protein&lt;br&gt;Location: 8865 - 8701" locus_tag="FHW89_RS07735" class="clusterblast-orf" id="dummy-2_h2_3_15"  />
</g>
<g id="a2_0016"  >
<polygon points="514,85 519,80 547,80 547,90 519,90 514,85 " style="fill:white; stroke-width:1; stroke:black; " description="&lt;b&gt;FHW89_RS07730&lt;/b&gt;&lt;br&gt;hypothetical protein&lt;br&gt;Location: 8531 - 7734" locus_tag="FHW89_RS07730" class="clusterblast-orf" id="dummy-2_h2_3_16"  />
</g>
<g id="a2_0017"  >
<polygon points="547,85 552,80 575,80 575,90 552,90 547,85 " style="fill:white; stroke-width:1; stroke:black; " description="&lt;b&gt;FHW89_RS07725&lt;/b&gt;&lt;br&gt;hypothetical protein&lt;br&gt;Location: 7753 - 7088" locus_tag="FHW89_RS07725" class="clusterblast-orf" id="dummy-2_h2_3_17"  />
</g>
<g id="a2_0018"  >
<polygon points="576,85 581,80 596,80 596,90 581,90 576,85 " style="fill:white; stroke-width:1; stroke:black; " description="&lt;b&gt;FHW89_RS07720&lt;/b&gt;&lt;br&gt;hypothetical protein&lt;br&gt;Location: 7066 - 6581" locus_tag="FHW89_RS07720" class="clusterblast-orf" id="dummy-2_h2_3_18"  />
</g>
<g id="a2_0019"  >
<polygon points="603,85 608,80 628,80 628,90 608,90 603,85 " style="fill:white; stroke-width:1; stroke:black; " description="&lt;b&gt;FHW89_RS07715&lt;/b&gt;&lt;br&gt;phosphatase PAP2 family protein&lt;br&gt;Location: 6437 - 5835" locus_tag="FHW89_RS07715" class="clusterblast-orf" id="dummy-2_h2_3_19"  />
</g>
<g id="a2_0020"  >
<polygon points="649,85 654,80 706,80 706,90 654,90 649,85 " style="fill:white; stroke-width:1; stroke:black; " description="&lt;b&gt;FHW89_RS07710&lt;/b&gt;&lt;br&gt;hypothetical protein&lt;br&gt;Location: 5344 - 4013" locus_tag="FHW89_RS07710" class="clusterblast-orf" id="dummy-2_h2_3_20"  />
</g>
<g id="a2_0021"  >
<polygon points="727,85 732,80 777,80 777,90 732,90 727,85 " style="fill:white; stroke-width:1; stroke:black; " description="&lt;b&gt;FHW89_RS07705&lt;/b&gt;&lt;br&gt;tetratricopeptide repeat protein&lt;br&gt;Location: 3512 - 2334" locus_tag="FHW89_RS07705" class="clusterblast-orf" id="dummy-2_h2_3_21"  />
</g>
</svg>
