<svg xmlns="http://www.w3.org/2000/svg" xmlns:xlink="http://www.w3.org/1999/xlink" version="1.1" x="0" y="0" height="230" width="800" viewBox="0 0 800 230" preserveAspectRatio="none"  >
<g label="Query sequence" class="clusterblast-cluster"  >
<text x="5" y="20" class="clusterblast-acc"  >
Query sequence</text>
<line x1="10" y1="35" x2="778.0" y2="35" style="stroke-width:1; stroke:grey; "  />
<polygon points="40,40 62,40 67,35 62,30 40,30 40,40 " style="fill:white; stroke-width:1; stroke:black; " description="&lt;b&gt;LLPMBPKK_01395&lt;/b&gt;&lt;br&gt;Alpha-L-arabinofuranosidase B (ABFB) domainprotein&lt;br&gt;Location: 1683263 - 1684649" locus_tag="LLPMBPKK_01395" class="clusterblast-orf" id="dummy-9_q0_0_all"  />
<polygon points="71,40 79,40 84,35 79,30 71,30 71,40 " style="fill:#d81515; stroke-width:1; stroke:black; " description="&lt;b&gt;LLPMBPKK_01396&lt;/b&gt;&lt;br&gt;DedA family protein&lt;br&gt;Location: 1684847 - 1685486" locus_tag="LLPMBPKK_01396" class="clusterblast-orf" id="dummy-9_q1_0_all"  />
<polygon points="85,35 90,30 99,30 99,40 90,40 85,35 " style="fill:#67d815; stroke-width:1; stroke:black; " description="&lt;b&gt;LLPMBPKK_01397&lt;/b&gt;&lt;br&gt;hypothetical protein&lt;br&gt;Location: 1685545 - 1686277" locus_tag="LLPMBPKK_01397" class="clusterblast-orf" id="dummy-9_q2_0_all"  />
<polygon points="100,35 105,30 109,30 109,40 105,40 100,35 " style="fill:#15b9d8; stroke-width:1; stroke:black; " description="&lt;b&gt;LLPMBPKK_01398&lt;/b&gt;&lt;br&gt;hypothetical protein&lt;br&gt;Location: 1686310 - 1686811" locus_tag="LLPMBPKK_01398" class="clusterblast-orf" id="dummy-9_q3_0_all"  />
<polygon points="113,40 115,40 120,35 115,30 113,30 113,40 " style="fill:#8615d8; stroke-width:1; stroke:black; " description="&lt;b&gt;LLPMBPKK_01399&lt;/b&gt;&lt;br&gt;hypothetical protein&lt;br&gt;Location: 1687013 - 1687373" locus_tag="LLPMBPKK_01399" class="clusterblast-orf" id="dummy-9_q4_0_all"  />
<polygon points="122,40 141,40 146,35 141,30 122,30 122,40 " style="fill:#d83415; stroke-width:1; stroke:black; " description="&lt;b&gt;LLPMBPKK_01400&lt;/b&gt;&lt;br&gt;phosphodiester glycosidase family protein&lt;br&gt;Location: 1687448 - 1688687" locus_tag="LLPMBPKK_01400" class="clusterblast-orf" id="dummy-9_q5_0_all"  />
<polygon points="146,35 150,30 150,40 146,35 " style="fill:#49d815; stroke-width:1; stroke:black; " description="&lt;b&gt;LLPMBPKK_01401&lt;/b&gt;&lt;br&gt;small membrane protein&lt;br&gt;Location: 1688700 - 1688895" locus_tag="LLPMBPKK_01401" class="clusterblast-orf" id="dummy-9_q6_0_all"  />
<polygon points="152,35 157,30 169,30 169,40 157,40 152,35 " style="fill:#159bd8; stroke-width:1; stroke:black; " description="&lt;b&gt;LLPMBPKK_01402&lt;/b&gt;&lt;br&gt;Glycerophosphoryl diester phosphodiesterasefamily protein&lt;br&gt;Location: 1688998 - 1689886" locus_tag="LLPMBPKK_01402" class="clusterblast-orf" id="dummy-9_q7_0_all"  />
<polygon points="174,35 179,30 195,30 195,40 179,40 174,35 " style="fill:#a515d8; stroke-width:1; stroke:black; " description="&lt;b&gt;LLPMBPKK_01403&lt;/b&gt;&lt;br&gt;acyl-CoA dehydrogenase&lt;br&gt;Location: 1690115 - 1691189" locus_tag="LLPMBPKK_01403" class="clusterblast-orf" id="dummy-9_q8_0_all"  />
<polygon points="195,35 200,30 218,30 218,40 200,40 195,35 " style="fill:#d85315; stroke-width:1; stroke:black; " description="&lt;b&gt;LLPMBPKK_01404&lt;/b&gt;&lt;br&gt;acyl-CoA dehydrogenase&lt;br&gt;Location: 1691185 - 1692367" locus_tag="LLPMBPKK_01404" class="clusterblast-orf" id="dummy-9_q9_0_all"  />
<polygon points="218,35 223,30 236,30 236,40 223,40 218,35 " style="fill:#2ad815; stroke-width:1; stroke:black; " description="&lt;b&gt;LLPMBPKK_01405&lt;/b&gt;&lt;br&gt;oxidoreductase&lt;br&gt;Location: 1692363 - 1693329" locus_tag="LLPMBPKK_01405" class="clusterblast-orf" id="dummy-9_q10_0_all"  />
<polygon points="238,35 243,30 249,30 249,40 243,40 238,35 " style="fill:#157cd8; stroke-width:1; stroke:black; " description="&lt;b&gt;LLPMBPKK_01406&lt;/b&gt;&lt;br&gt;regulatory protein&lt;br&gt;Location: 1693415 - 1693988" locus_tag="LLPMBPKK_01406" class="clusterblast-orf" id="dummy-9_q11_0_all"  />
<polygon points="250,40 264,40 269,35 264,30 250,30 250,40 " style="fill:#c415d8; stroke-width:1; stroke:black; " description="&lt;b&gt;LLPMBPKK_01407&lt;/b&gt;&lt;br&gt;NAD(P)/FAD-dependent oxidoreductase&lt;br&gt;Location: 1694053 - 1695022" locus_tag="LLPMBPKK_01407" class="clusterblast-orf" id="dummy-9_q12_0_all"  />
<polygon points="271,40 296,40 301,35 296,30 271,30 271,40 " style="fill:#d87215; stroke-width:1; stroke:black; " description="&lt;b&gt;LLPMBPKK_01408&lt;/b&gt;&lt;br&gt;ATP-dependent DNA ligase&lt;br&gt;Location: 1695101 - 1696649" locus_tag="LLPMBPKK_01408" class="clusterblast-orf" id="dummy-9_q13_0_all"  />
<polygon points="301,40 305,40 310,35 305,30 301,30 301,40 " style="fill:#15d81f; stroke-width:1; stroke:black; " description="&lt;b&gt;LLPMBPKK_01409&lt;/b&gt;&lt;br&gt;NUDIX domain-containing protein&lt;br&gt;Location: 1696645 - 1697119" locus_tag="LLPMBPKK_01409" class="clusterblast-orf" id="dummy-9_q14_0_all"  />
<polygon points="312,40 334,40 339,35 334,30 312,30 312,40 " style="fill:#155dd8; stroke-width:1; stroke:black; " description="&lt;b&gt;LLPMBPKK_01410&lt;/b&gt;&lt;br&gt;NADP-dependent succinic semialdehydedehydrogenase&lt;br&gt;Location: 1697200 - 1698586" locus_tag="LLPMBPKK_01410" class="clusterblast-orf" id="dummy-9_q15_0_all"  />
<polygon points="339,40 339,40 344,35 339,30 339,30 339,40 " style="fill:#d815ce; stroke-width:1; stroke:black; " description="&lt;b&gt;LLPMBPKK_01411&lt;/b&gt;&lt;br&gt;hypothetical protein&lt;br&gt;Location: 1698582 - 1698846" locus_tag="LLPMBPKK_01411" class="clusterblast-orf" id="dummy-9_q16_0_all"  />
<polygon points="347,40 363,40 368,35 363,30 347,30 347,40 " style="fill:#d89015; stroke-width:1; stroke:black; " description="&lt;b&gt;LLPMBPKK_01412&lt;/b&gt;&lt;br&gt;type III polyketide synthase&lt;br&gt;Location: 1699021 - 1700086" locus_tag="LLPMBPKK_01412" class="clusterblast-orf" id="dummy-9_q17_0_all"  />
<polygon points="368,40 387,40 392,35 387,30 368,30 368,40 " style="fill:#15d83e; stroke-width:1; stroke:black; " description="&lt;b&gt;LLPMBPKK_01413&lt;/b&gt;&lt;br&gt;cytochrome P450&lt;br&gt;Location: 1700082 - 1701300" locus_tag="LLPMBPKK_01413" class="clusterblast-orf" id="dummy-9_q18_0_all"  />
<polygon points="392,40 397,40 402,35 397,30 392,30 392,40 " style="fill:#153ed8; stroke-width:1; stroke:black; " description="&lt;b&gt;LLPMBPKK_01414&lt;/b&gt;&lt;br&gt;cupin domain-containing protein&lt;br&gt;Location: 1701307 - 1701829" locus_tag="LLPMBPKK_01414" class="clusterblast-orf" id="dummy-9_q19_0_all"  />
<polygon points="403,35 408,30 427,30 427,40 408,40 403,35 " style="fill:#d815af; stroke-width:1; stroke:black; " description="&lt;b&gt;LLPMBPKK_01415&lt;/b&gt;&lt;br&gt;acyl-CoA dehydrogenase&lt;br&gt;Location: 1701869 - 1703096" locus_tag="LLPMBPKK_01415" class="clusterblast-orf" id="dummy-9_q20_0_all"  />
<polygon points="430,40 438,40 443,35 438,30 430,30 430,40 " style="fill:#d8af15; stroke-width:1; stroke:black; " description="&lt;b&gt;LLPMBPKK_01416&lt;/b&gt;&lt;br&gt;TetR/AcrR family transcriptional regulator&lt;br&gt;Location: 1703266 - 1703911" locus_tag="LLPMBPKK_01416" class="clusterblast-orf" id="dummy-9_q21_0_all"  />
<polygon points="444,35 449,30 455,30 455,40 449,40 444,35 " style="fill:#15d85d; stroke-width:1; stroke:black; " description="&lt;b&gt;LLPMBPKK_01417&lt;/b&gt;&lt;br&gt;peptide deformylase&lt;br&gt;Location: 1703981 - 1704551" locus_tag="LLPMBPKK_01417" class="clusterblast-orf" id="dummy-9_q22_0_all"  />
<polygon points="457,40 477,40 482,35 477,30 457,30 457,40 " style="fill:#151fd8; stroke-width:1; stroke:black; " description="&lt;b&gt;LLPMBPKK_01418&lt;/b&gt;&lt;br&gt;hypothetical protein&lt;br&gt;Location: 1704674 - 1705913" locus_tag="LLPMBPKK_01418" class="clusterblast-orf" id="dummy-9_q23_0_all"  />
<polygon points="482,40 491,40 496,35 491,30 482,30 482,40 " style="fill:#d81590; stroke-width:1; stroke:black; " description="&lt;b&gt;LLPMBPKK_01419&lt;/b&gt;&lt;br&gt;glutamine amidotransferase&lt;br&gt;Location: 1705933 - 1706662" locus_tag="LLPMBPKK_01419" class="clusterblast-orf" id="dummy-9_q24_0_all"  />
<polygon points="501,40 516,40 521,35 516,30 501,30 501,40 " style="fill:#d8ce15; stroke-width:1; stroke:black; " description="&lt;b&gt;LLPMBPKK_01420&lt;/b&gt;&lt;br&gt;ATP-dependent 6-phosphofructokinase&lt;br&gt;Location: 1706888 - 1707914" locus_tag="LLPMBPKK_01420" class="clusterblast-orf" id="dummy-9_q25_0_all"  />
<polygon points="523,40 536,40 541,35 536,30 523,30 523,40 " style="fill:#15d87c; stroke-width:1; stroke:black; " description="&lt;b&gt;LLPMBPKK_01421&lt;/b&gt;&lt;br&gt;cytochrome c oxidase assembly protein&lt;br&gt;Location: 1708030 - 1708981" locus_tag="LLPMBPKK_01421" class="clusterblast-orf" id="dummy-9_q26_0_all"  />
<polygon points="543,40 546,35 543,30 543,40 " style="fill:#2a15d8; stroke-width:1; stroke:black; " description="&lt;b&gt;LLPMBPKK_01422&lt;/b&gt;&lt;br&gt;hypothetical protein&lt;br&gt;Location: 1709051 - 1709219" locus_tag="LLPMBPKK_01422" class="clusterblast-orf" id="dummy-9_q27_0_all"  />
<polygon points="547,40 551,40 556,35 551,30 547,30 547,40 " style="fill:#d81572; stroke-width:1; stroke:black; " description="&lt;b&gt;LLPMBPKK_01423&lt;/b&gt;&lt;br&gt;Lrp/AsnC family transcriptional regulator&lt;br&gt;Location: 1709255 - 1709741" locus_tag="LLPMBPKK_01423" class="clusterblast-orf" id="dummy-9_q28_0_all"  />
<polygon points="559,40 570,40 575,35 570,30 559,30 559,40 " style="fill:#c4d815; stroke-width:1; stroke:black; " description="&lt;b&gt;LLPMBPKK_01424&lt;/b&gt;&lt;br&gt;amidinotransferase&lt;br&gt;Location: 1709894 - 1710704" locus_tag="LLPMBPKK_01424" class="clusterblast-orf" id="dummy-9_q29_0_all"  />
<polygon points="575,40 594,40 599,35 594,30 575,30 575,40 " style="fill:#15d89b; stroke-width:1; stroke:black; " description="&lt;b&gt;LLPMBPKK_01425&lt;/b&gt;&lt;br&gt;ornithine--oxo-acid transaminase&lt;br&gt;Location: 1710703 - 1711921" locus_tag="LLPMBPKK_01425" class="clusterblast-orf" id="dummy-9_q30_0_all"  />
<polygon points="600,35 605,30 612,30 612,40 605,40 600,35 " style="fill:#4915d8; stroke-width:1; stroke:black; " description="&lt;b&gt;LLPMBPKK_01426&lt;/b&gt;&lt;br&gt;hypothetical protein&lt;br&gt;Location: 1711975 - 1712614" locus_tag="LLPMBPKK_01426" class="clusterblast-orf" id="dummy-9_q31_0_all"  />
<polygon points="614,35 619,30 622,30 622,40 619,40 614,35 " style="fill:#d81553; stroke-width:1; stroke:black; " description="&lt;b&gt;LLPMBPKK_01427&lt;/b&gt;&lt;br&gt;hypothetical protein&lt;br&gt;Location: 1712720 - 1713131" locus_tag="LLPMBPKK_01427" class="clusterblast-orf" id="dummy-9_q32_0_all"  />
<polygon points="625,40 634,40 639,35 634,30 625,30 625,40 " style="fill:#a5d815; stroke-width:1; stroke:black; " description="&lt;b&gt;LLPMBPKK_01428&lt;/b&gt;&lt;br&gt;acyltransferase&lt;br&gt;Location: 1713279 - 1714005" locus_tag="LLPMBPKK_01428" class="clusterblast-orf" id="dummy-9_q33_0_all"  />
<polygon points="640,40 655,40 660,35 655,30 640,30 640,40 " style="fill:#15d8b9; stroke-width:1; stroke:black; " description="&lt;b&gt;LLPMBPKK_01429&lt;/b&gt;&lt;br&gt;NAD-dependent epimerase/dehydratase familyprotein&lt;br&gt;Location: 1714063 - 1715086" locus_tag="LLPMBPKK_01429" class="clusterblast-orf" id="dummy-9_q34_0_all"  />
<polygon points="662,35 667,30 693,30 693,40 667,40 662,35 " style="fill:#6715d8; stroke-width:1; stroke:black; " description="&lt;b&gt;LLPMBPKK_01430&lt;/b&gt;&lt;br&gt;alpha/beta hydrolase&lt;br&gt;Location: 1715165 - 1716761" locus_tag="LLPMBPKK_01430" class="clusterblast-orf" id="dummy-9_q35_0_all"  />
<polygon points="696,35 701,30 710,30 710,40 701,40 696,35 " style="fill:#d81534; stroke-width:1; stroke:black; " description="&lt;b&gt;LLPMBPKK_01431&lt;/b&gt;&lt;br&gt;urease accessory protein UreD&lt;br&gt;Location: 1716905 - 1717664" locus_tag="LLPMBPKK_01431" class="clusterblast-orf" id="dummy-9_q36_0_all"  />
<polygon points="710,35 715,30 724,30 724,40 715,40 710,35 " style="fill:#86d815; stroke-width:1; stroke:black; " description="&lt;b&gt;LLPMBPKK_01432&lt;/b&gt;&lt;br&gt;urease accessory protein UreG&lt;br&gt;Location: 1717660 - 1718338" locus_tag="LLPMBPKK_01432" class="clusterblast-orf" id="dummy-9_q37_0_all"  />
<polygon points="726,35 731,30 739,30 739,40 731,40 726,35 " style="fill:#15d8d8; stroke-width:1; stroke:black; " description="&lt;b&gt;LLPMBPKK_01433&lt;/b&gt;&lt;br&gt;urease accessory protein UreF&lt;br&gt;Location: 1718460 - 1719135" locus_tag="LLPMBPKK_01433" class="clusterblast-orf" id="dummy-9_q38_0_all"  />
</g>
<g label="NZ_KQ948364" description="NZ_KQ948364 (140145-181210): Streptomyces corchorusii strain DSM 40340 PRJNA2... (76% of genes show similarity), T3PKS" class="clusterblast-cluster"  >
<text x="5" y="70" class="clusterblast-acc"  >
<a xlink:href="https://antismash-db.secondarymetabolites.org/area.html?record=NZ_KQ948364&amp;start=140145&amp;end=181210" target="_blank">NZ_KQ948364 (140145-181210)</a>: Streptomyces corchorusii strain DSM 40340 PRJNA2... (76% of genes show similarity), T3PKS</text>
<line x1="10" y1="85" x2="778.0" y2="85" style="stroke-width:1; stroke:grey; "  />
</g>
<g id="a9_000"  >
<polygon points="0,90 6,90 11,85 6,80 0,80 0,90 " style="fill:white; stroke-width:1; stroke:black; " description="&lt;b&gt;AQJ11_RS32325&lt;/b&gt;&lt;br&gt;N-acetylmuramoyl-L-alanine amidase&lt;br&gt;Location: 180737 - 180132" locus_tag="AQJ11_RS32325" class="clusterblast-orf" id="dummy-9_h9_9_0"  />
</g>
<g id="a9_001"  >
<polygon points="15,90 35,90 40,85 35,80 15,80 15,90 " style="fill:white; stroke-width:1; stroke:black; " description="&lt;b&gt;AQJ11_RS32320&lt;/b&gt;&lt;br&gt;GAF domain-containing protein&lt;br&gt;Location: 179945 - 178638" locus_tag="AQJ11_RS32320" class="clusterblast-orf" id="dummy-9_h9_9_1"  />
</g>
<g id="a9_002"  >
<polygon points="41,90 66,90 71,85 66,80 41,80 41,90 " style="fill:white; stroke-width:1; stroke:black; " description="&lt;b&gt;AQJ11_RS32315&lt;/b&gt;&lt;br&gt;aldehyde dehydrogenase&lt;br&gt;Location: 178582 - 177059" locus_tag="AQJ11_RS32315" class="clusterblast-orf" id="dummy-9_h9_9_2"  />
</g>
<g id="a9_003"  >
<polygon points="78,90 88,90 93,85 88,80 78,80 78,90 " style="fill:white; stroke-width:1; stroke:black; " description="&lt;b&gt;AQJ11_RS32310&lt;/b&gt;&lt;br&gt;MBL fold metallo-hydrolase&lt;br&gt;Location: 176733 - 175930" locus_tag="AQJ11_RS32310" class="clusterblast-orf" id="dummy-9_h9_9_3"  />
</g>
<g id="a9_004"  >
<polygon points="94,90 98,85 94,80 94,90 " style="fill:white; stroke-width:1; stroke:black; " description="&lt;b&gt;AQJ11_RS32305&lt;/b&gt;&lt;br&gt;tautomerase family protein&lt;br&gt;Location: 175883 - 175681" locus_tag="AQJ11_RS32305" class="clusterblast-orf" id="dummy-9_h9_9_4"  />
</g>
<g id="a9_005"  >
<polygon points="100,90 108,90 113,85 108,80 100,80 100,90 " style="fill:#d81515; stroke-width:1; stroke:black; " description="&lt;b&gt;AQJ11_RS32300&lt;/b&gt;&lt;br&gt;DedA family protein&lt;br&gt;Location: 175563 - 174916&lt;br&gt;&lt;br&gt;&lt;b&gt;BlastP hit with LLPMBPKK_01396&lt;/b&gt;&lt;br&gt;Percentage identity: 90&lt;br&gt;Percentage coverage: 91&lt;br&gt;BLAST bit score: 329&lt;br&gt;E-value: 3.3e-114" locus_tag="AQJ11_RS32300" class="clusterblast-orf" id="dummy-9_h9_9_5"  />
</g>
<g id="a9_006"  >
<polygon points="115,85 120,80 129,80 129,90 120,90 115,85 " style="fill:#67d815; stroke-width:1; stroke:black; " description="&lt;b&gt;AQJ11_RS32295&lt;/b&gt;&lt;br&gt;DUF2625 domain-containing protein&lt;br&gt;Location: 174811 - 174089&lt;br&gt;&lt;br&gt;&lt;b&gt;BlastP hit with LLPMBPKK_01397&lt;/b&gt;&lt;br&gt;Percentage identity: 86&lt;br&gt;Percentage coverage: 99&lt;br&gt;BLAST bit score: 432&lt;br&gt;E-value: 4.08e-154" locus_tag="AQJ11_RS32295" class="clusterblast-orf" id="dummy-9_h9_9_6"  />
</g>
<g id="a9_007"  >
<polygon points="133,85 138,80 142,80 142,90 138,90 133,85 " style="fill:#15b9d8; stroke-width:1; stroke:black; " description="&lt;b&gt;AQJ11_RS32290&lt;/b&gt;&lt;br&gt;hypothetical protein&lt;br&gt;Location: 173907 - 173407&lt;br&gt;&lt;br&gt;&lt;b&gt;BlastP hit with LLPMBPKK_01398&lt;/b&gt;&lt;br&gt;Percentage identity: 73&lt;br&gt;Percentage coverage: 90&lt;br&gt;BLAST bit score: 223&lt;br&gt;E-value: 1.51e-73" locus_tag="AQJ11_RS32290" class="clusterblast-orf" id="dummy-9_h9_9_7"  />
</g>
<g id="a9_008"  >
<polygon points="145,90 147,90 152,85 147,80 145,80 145,90 " style="fill:#8615d8; stroke-width:1; stroke:black; " description="&lt;b&gt;AQJ11_RS32285&lt;/b&gt;&lt;br&gt;DUF779 domain-containing protein&lt;br&gt;Location: 173288 - 172929&lt;br&gt;&lt;br&gt;&lt;b&gt;BlastP hit with LLPMBPKK_01399&lt;/b&gt;&lt;br&gt;Percentage identity: 96&lt;br&gt;Percentage coverage: 100&lt;br&gt;BLAST bit score: 233&lt;br&gt;E-value: 3.7e-79" locus_tag="AQJ11_RS32285" class="clusterblast-orf" id="dummy-9_h9_9_8"  />
</g>
<g id="a9_009"  >
<polygon points="154,90 172,90 177,85 172,80 154,80 154,90 " style="fill:#d83415; stroke-width:1; stroke:black; " description="&lt;b&gt;AQJ11_RS32280&lt;/b&gt;&lt;br&gt;phosphodiester glycosidase family protein&lt;br&gt;Location: 172788 - 171619&lt;br&gt;&lt;br&gt;&lt;b&gt;BlastP hit with LLPMBPKK_01400&lt;/b&gt;&lt;br&gt;Percentage identity: 83&lt;br&gt;Percentage coverage: 94&lt;br&gt;BLAST bit score: 594&lt;br&gt;E-value: 1.13e-212" locus_tag="AQJ11_RS32280" class="clusterblast-orf" id="dummy-9_h9_9_9"  />
</g>
<g id="a9_0010"  >
<polygon points="177,85 181,80 181,90 177,85 " style="fill:#49d815; stroke-width:1; stroke:black; " description="&lt;b&gt;AQJ11_RS32275&lt;/b&gt;&lt;br&gt;hypothetical protein&lt;br&gt;Location: 171607 - 171413&lt;br&gt;&lt;br&gt;&lt;b&gt;BlastP hit with LLPMBPKK_01401&lt;/b&gt;&lt;br&gt;Percentage identity: 98&lt;br&gt;Percentage coverage: 100&lt;br&gt;BLAST bit score: 108&lt;br&gt;E-value: 2.76e-31" locus_tag="AQJ11_RS32275" class="clusterblast-orf" id="dummy-9_h9_9_10"  />
</g>
<g id="a9_0011"  >
<polygon points="183,85 188,80 200,80 200,90 188,90 183,85 " style="fill:#159bd8; stroke-width:1; stroke:black; " description="&lt;b&gt;AQJ11_RS32270&lt;/b&gt;&lt;br&gt;hypothetical protein&lt;br&gt;Location: 171309 - 170446&lt;br&gt;&lt;br&gt;&lt;b&gt;BlastP hit with LLPMBPKK_01402&lt;/b&gt;&lt;br&gt;Percentage identity: 80&lt;br&gt;Percentage coverage: 100&lt;br&gt;BLAST bit score: 473&lt;br&gt;E-value: 1.26e-168" locus_tag="AQJ11_RS32270" class="clusterblast-orf" id="dummy-9_h9_9_11"  />
</g>
<g id="a9_0012"  >
<polygon points="203,85 208,80 224,80 224,90 208,90 203,85 " style="fill:#a515d8; stroke-width:1; stroke:black; " description="&lt;b&gt;AQJ11_RS32265&lt;/b&gt;&lt;br&gt;acyl-CoA/acyl-ACP dehydrogenase&lt;br&gt;Location: 170287 - 169202&lt;br&gt;&lt;br&gt;&lt;b&gt;BlastP hit with LLPMBPKK_01403&lt;/b&gt;&lt;br&gt;Percentage identity: 87&lt;br&gt;Percentage coverage: 100&lt;br&gt;BLAST bit score: 584&lt;br&gt;E-value: 4.28e-210" locus_tag="AQJ11_RS32265" class="clusterblast-orf" id="dummy-9_h9_9_12"  />
</g>
<g id="a9_0013"  >
<polygon points="224,85 229,80 247,80 247,90 229,90 224,85 " style="fill:#d85315; stroke-width:1; stroke:black; " description="&lt;b&gt;AQJ11_RS32260&lt;/b&gt;&lt;br&gt;acyl-CoA dehydrogenase family protein&lt;br&gt;Location: 169205 - 168024&lt;br&gt;&lt;br&gt;&lt;b&gt;BlastP hit with LLPMBPKK_01404&lt;/b&gt;&lt;br&gt;Percentage identity: 92&lt;br&gt;Percentage coverage: 100&lt;br&gt;BLAST bit score: 739&lt;br&gt;E-value: 3.38e-270" locus_tag="AQJ11_RS32260" class="clusterblast-orf" id="dummy-9_h9_9_13"  />
</g>
<g id="a9_0014"  >
<polygon points="247,85 252,80 266,80 266,90 252,90 247,85 " style="fill:#2ad815; stroke-width:1; stroke:black; " description="&lt;b&gt;AQJ11_RS32255&lt;/b&gt;&lt;br&gt;NADPH:quinone oxidoreductase family protein&lt;br&gt;Location: 168027 - 167056&lt;br&gt;&lt;br&gt;&lt;b&gt;BlastP hit with LLPMBPKK_01405&lt;/b&gt;&lt;br&gt;Percentage identity: 92&lt;br&gt;Percentage coverage: 100&lt;br&gt;BLAST bit score: 582&lt;br&gt;E-value: 1.02e-210" locus_tag="AQJ11_RS32255" class="clusterblast-orf" id="dummy-9_h9_9_14"  />
</g>
<g id="a9_0015"  >
<polygon points="268,85 273,80 279,80 279,90 273,90 268,85 " style="fill:#157cd8; stroke-width:1; stroke:black; " description="&lt;b&gt;AQJ11_RS32250&lt;/b&gt;&lt;br&gt;cupin domain-containing protein&lt;br&gt;Location: 166969 - 166397&lt;br&gt;&lt;br&gt;&lt;b&gt;BlastP hit with LLPMBPKK_01406&lt;/b&gt;&lt;br&gt;Percentage identity: 94&lt;br&gt;Percentage coverage: 100&lt;br&gt;BLAST bit score: 363&lt;br&gt;E-value: 2.2e-128" locus_tag="AQJ11_RS32250" class="clusterblast-orf" id="dummy-9_h9_9_15"  />
</g>
<g id="a9_0016"  >
<polygon points="280,90 293,90 298,85 293,80 280,80 280,90 " style="fill:#c415d8; stroke-width:1; stroke:black; " description="&lt;b&gt;AQJ11_RS32245&lt;/b&gt;&lt;br&gt;NAD(P)/FAD-dependent oxidoreductase&lt;br&gt;Location: 166331 - 165399&lt;br&gt;&lt;br&gt;&lt;b&gt;BlastP hit with LLPMBPKK_01407&lt;/b&gt;&lt;br&gt;Percentage identity: 86&lt;br&gt;Percentage coverage: 100&lt;br&gt;BLAST bit score: 535&lt;br&gt;E-value: 5.14e-192" locus_tag="AQJ11_RS32245" class="clusterblast-orf" id="dummy-9_h9_9_16"  />
</g>
<g id="a9_0017"  >
<polygon points="300,90 325,90 330,85 325,80 300,80 300,90 " style="fill:#d87215; stroke-width:1; stroke:black; " description="&lt;b&gt;AQJ11_RS32240&lt;/b&gt;&lt;br&gt;ATP-dependent DNA ligase&lt;br&gt;Location: 165290 - 163752&lt;br&gt;&lt;br&gt;&lt;b&gt;BlastP hit with LLPMBPKK_01408&lt;/b&gt;&lt;br&gt;Percentage identity: 93&lt;br&gt;Percentage coverage: 99&lt;br&gt;BLAST bit score: 907&lt;br&gt;E-value: 0.0" locus_tag="AQJ11_RS32240" class="clusterblast-orf" id="dummy-9_h9_9_17"  />
</g>
<g id="a9_0018"  >
<polygon points="330,90 335,90 340,85 335,80 330,80 330,90 " style="fill:#15d81f; stroke-width:1; stroke:black; " description="&lt;b&gt;AQJ11_RS32235&lt;/b&gt;&lt;br&gt;NUDIX domain-containing protein&lt;br&gt;Location: 163755 - 163282&lt;br&gt;&lt;br&gt;&lt;b&gt;BlastP hit with LLPMBPKK_01409&lt;/b&gt;&lt;br&gt;Percentage identity: 94&lt;br&gt;Percentage coverage: 99&lt;br&gt;BLAST bit score: 305&lt;br&gt;E-value: 1.91e-106" locus_tag="AQJ11_RS32235" class="clusterblast-orf" id="dummy-9_h9_9_18"  />
</g>
<g id="a9_0019"  >
<polygon points="342,90 364,90 369,85 364,80 342,80 342,90 " style="fill:#155dd8; stroke-width:1; stroke:black; " description="&lt;b&gt;AQJ11_RS32230&lt;/b&gt;&lt;br&gt;NADP-dependent succinic semialdehyde dehydrogenase&lt;br&gt;Location: 163171 - 161786&lt;br&gt;&lt;br&gt;&lt;b&gt;BlastP hit with LLPMBPKK_01410&lt;/b&gt;&lt;br&gt;Percentage identity: 96&lt;br&gt;Percentage coverage: 100&lt;br&gt;BLAST bit score: 887&lt;br&gt;E-value: 0.0" locus_tag="AQJ11_RS32230" class="clusterblast-orf" id="dummy-9_h9_9_19"  />
</g>
<g id="a9_0020"  >
<polygon points="369,90 369,90 374,85 369,80 369,80 369,90 " style="fill:#d815ce; stroke-width:1; stroke:black; " description="&lt;b&gt;AQJ11_RS32225&lt;/b&gt;&lt;br&gt;hypothetical protein&lt;br&gt;Location: 161748 - 161527&lt;br&gt;&lt;br&gt;&lt;b&gt;BlastP hit with LLPMBPKK_01411&lt;/b&gt;&lt;br&gt;Percentage identity: 93&lt;br&gt;Percentage coverage: 84&lt;br&gt;BLAST bit score: 133&lt;br&gt;E-value: 1.11e-40" locus_tag="AQJ11_RS32225" class="clusterblast-orf" id="dummy-9_h9_9_20"  />
</g>
<g id="a9_0021"  >
<polygon points="380,90 396,90 401,85 396,80 380,80 380,90 " style="fill:#d89015; stroke-width:1; stroke:black; " description="&lt;b&gt;AQJ11_RS32220&lt;/b&gt;&lt;br&gt;type III polyketide synthase&lt;br&gt;Location: 161210 - 160146&lt;br&gt;&lt;br&gt;&lt;b&gt;BlastP hit with LLPMBPKK_01412&lt;/b&gt;&lt;br&gt;Percentage identity: 94&lt;br&gt;Percentage coverage: 100&lt;br&gt;BLAST bit score: 672&lt;br&gt;E-value: 5.37e-245" locus_tag="AQJ11_RS32220" class="clusterblast-orf" id="dummy-9_h9_9_21"  />
</g>
<g id="a9_0022"  >
<polygon points="401,90 419,90 424,85 419,80 401,80 401,90 " style="fill:#15d83e; stroke-width:1; stroke:black; " description="&lt;b&gt;AQJ11_RS32215&lt;/b&gt;&lt;br&gt;cytochrome P450&lt;br&gt;Location: 160113 - 158926&lt;br&gt;&lt;br&gt;&lt;b&gt;BlastP hit with LLPMBPKK_01413&lt;/b&gt;&lt;br&gt;Percentage identity: 86&lt;br&gt;Percentage coverage: 98&lt;br&gt;BLAST bit score: 693&lt;br&gt;E-value: 7.97e-252" locus_tag="AQJ11_RS32215" class="clusterblast-orf" id="dummy-9_h9_9_22"  />
</g>
<g id="a9_0023"  >
<polygon points="425,90 430,90 435,85 430,80 425,80 425,90 " style="fill:#153ed8; stroke-width:1; stroke:black; " description="&lt;b&gt;AQJ11_RS32210&lt;/b&gt;&lt;br&gt;cupin domain-containing protein&lt;br&gt;Location: 158918 - 158397&lt;br&gt;&lt;br&gt;&lt;b&gt;BlastP hit with LLPMBPKK_01414&lt;/b&gt;&lt;br&gt;Percentage identity: 94&lt;br&gt;Percentage coverage: 100&lt;br&gt;BLAST bit score: 338&lt;br&gt;E-value: 6.99e-119" locus_tag="AQJ11_RS32210" class="clusterblast-orf" id="dummy-9_h9_9_23"  />
</g>
<g id="a9_0024"  >
<polygon points="435,85 440,80 459,80 459,90 440,90 435,85 " style="fill:#d815af; stroke-width:1; stroke:black; " description="&lt;b&gt;AQJ11_RS32205&lt;/b&gt;&lt;br&gt;acyl-CoA dehydrogenase family protein&lt;br&gt;Location: 158382 - 157156&lt;br&gt;&lt;br&gt;&lt;b&gt;BlastP hit with LLPMBPKK_01415&lt;/b&gt;&lt;br&gt;Percentage identity: 99&lt;br&gt;Percentage coverage: 100&lt;br&gt;BLAST bit score: 794&lt;br&gt;E-value: 1.23e-291" locus_tag="AQJ11_RS32205" class="clusterblast-orf" id="dummy-9_h9_9_24"  />
</g>
<g id="a9_0025"  >
<polygon points="462,90 470,90 475,85 470,80 462,80 462,90 " style="fill:#d8af15; stroke-width:1; stroke:black; " description="&lt;b&gt;AQJ11_RS32200&lt;/b&gt;&lt;br&gt;TetR/AcrR family transcriptional regulator&lt;br&gt;Location: 156985 - 156341&lt;br&gt;&lt;br&gt;&lt;b&gt;BlastP hit with LLPMBPKK_01416&lt;/b&gt;&lt;br&gt;Percentage identity: 98&lt;br&gt;Percentage coverage: 100&lt;br&gt;BLAST bit score: 418&lt;br&gt;E-value: 3.07e-149" locus_tag="AQJ11_RS32200" class="clusterblast-orf" id="dummy-9_h9_9_25"  />
</g>
<g id="a9_0026"  >
<polygon points="475,85 480,80 486,80 486,90 480,90 475,85 " style="fill:#15d85d; stroke-width:1; stroke:black; " description="&lt;b&gt;AQJ11_RS32195&lt;/b&gt;&lt;br&gt;peptide deformylase&lt;br&gt;Location: 156325 - 155741&lt;br&gt;&lt;br&gt;&lt;b&gt;BlastP hit with LLPMBPKK_01417&lt;/b&gt;&lt;br&gt;Percentage identity: 92&lt;br&gt;Percentage coverage: 100&lt;br&gt;BLAST bit score: 366&lt;br&gt;E-value: 1.46e-129" locus_tag="AQJ11_RS32195" class="clusterblast-orf" id="dummy-9_h9_9_26"  />
</g>
<g id="a9_0027"  >
<polygon points="489,90 508,90 513,85 508,80 489,80 489,90 " style="fill:#151fd8; stroke-width:1; stroke:black; " description="&lt;b&gt;AQJ11_RS32190&lt;/b&gt;&lt;br&gt;DUF1727 domain-containing protein&lt;br&gt;Location: 155618 - 154380&lt;br&gt;&lt;br&gt;&lt;b&gt;BlastP hit with LLPMBPKK_01418&lt;/b&gt;&lt;br&gt;Percentage identity: 97&lt;br&gt;Percentage coverage: 100&lt;br&gt;BLAST bit score: 803&lt;br&gt;E-value: 7.47e-295" locus_tag="AQJ11_RS32190" class="clusterblast-orf" id="dummy-9_h9_9_27"  />
</g>
<g id="a9_0028"  >
<polygon points="514,90 523,90 528,85 523,80 514,80 514,90 " style="fill:#d81590; stroke-width:1; stroke:black; " description="&lt;b&gt;AQJ11_RS32185&lt;/b&gt;&lt;br&gt;glutamine amidotransferase&lt;br&gt;Location: 154350 - 153622&lt;br&gt;&lt;br&gt;&lt;b&gt;BlastP hit with LLPMBPKK_01419&lt;/b&gt;&lt;br&gt;Percentage identity: 97&lt;br&gt;Percentage coverage: 100&lt;br&gt;BLAST bit score: 479&lt;br&gt;E-value: 2.15e-172" locus_tag="AQJ11_RS32185" class="clusterblast-orf" id="dummy-9_h9_9_28"  />
</g>
<g id="a9_0029"  >
<polygon points="532,90 547,90 552,85 547,80 532,80 532,90 " style="fill:#d8ce15; stroke-width:1; stroke:black; " description="&lt;b&gt;AQJ11_RS32180&lt;/b&gt;&lt;br&gt;6-phosphofructokinase&lt;br&gt;Location: 153421 - 152396&lt;br&gt;&lt;br&gt;&lt;b&gt;BlastP hit with LLPMBPKK_01420&lt;/b&gt;&lt;br&gt;Percentage identity: 97&lt;br&gt;Percentage coverage: 100&lt;br&gt;BLAST bit score: 657&lt;br&gt;E-value: 1.21e-239" locus_tag="AQJ11_RS32180" class="clusterblast-orf" id="dummy-9_h9_9_29"  />
</g>
<g id="a9_0030"  >
<polygon points="554,90 567,90 572,85 567,80 554,80 554,90 " style="fill:#15d87c; stroke-width:1; stroke:black; " description="&lt;b&gt;AQJ11_RS32175&lt;/b&gt;&lt;br&gt;cytochrome c oxidase assembly protein&lt;br&gt;Location: 152295 - 151345&lt;br&gt;&lt;br&gt;&lt;b&gt;BlastP hit with LLPMBPKK_01421&lt;/b&gt;&lt;br&gt;Percentage identity: 96&lt;br&gt;Percentage coverage: 100&lt;br&gt;BLAST bit score: 608&lt;br&gt;E-value: 2.79e-221" locus_tag="AQJ11_RS32175" class="clusterblast-orf" id="dummy-9_h9_9_30"  />
</g>
<g id="a9_0031"  >
<polygon points="577,90 580,85 577,80 577,90 " style="fill:#2a15d8; stroke-width:1; stroke:black; " description="&lt;b&gt;AQJ11_RS48510&lt;/b&gt;&lt;br&gt;hypothetical protein&lt;br&gt;Location: 151102 - 150935&lt;br&gt;&lt;br&gt;&lt;b&gt;BlastP hit with LLPMBPKK_01422&lt;/b&gt;&lt;br&gt;Percentage identity: 96&lt;br&gt;Percentage coverage: 100&lt;br&gt;BLAST bit score: 103&lt;br&gt;E-value: 7.16e-30" locus_tag="AQJ11_RS48510" class="clusterblast-orf" id="dummy-9_h9_9_31"  />
</g>
<g id="a9_0032"  >
<polygon points="581,90 585,90 590,85 585,80 581,80 581,90 " style="fill:#d81572; stroke-width:1; stroke:black; " description="&lt;b&gt;AQJ11_RS32170&lt;/b&gt;&lt;br&gt;Lrp/AsnC family transcriptional regulator&lt;br&gt;Location: 150897 - 150412&lt;br&gt;&lt;br&gt;&lt;b&gt;BlastP hit with LLPMBPKK_01423&lt;/b&gt;&lt;br&gt;Percentage identity: 94&lt;br&gt;Percentage coverage: 100&lt;br&gt;BLAST bit score: 295&lt;br&gt;E-value: 2.38e-102" locus_tag="AQJ11_RS32170" class="clusterblast-orf" id="dummy-9_h9_9_32"  />
</g>
<g id="a9_0033"  >
<polygon points="593,90 604,90 609,85 604,80 593,80 593,90 " style="fill:#c4d815; stroke-width:1; stroke:black; " description="&lt;b&gt;AQJ11_RS32165&lt;/b&gt;&lt;br&gt;amidinotransferase&lt;br&gt;Location: 150258 - 149449&lt;br&gt;&lt;br&gt;&lt;b&gt;BlastP hit with LLPMBPKK_01424&lt;/b&gt;&lt;br&gt;Percentage identity: 95&lt;br&gt;Percentage coverage: 100&lt;br&gt;BLAST bit score: 540&lt;br&gt;E-value: 1.41e-195" locus_tag="AQJ11_RS32165" class="clusterblast-orf" id="dummy-9_h9_9_33"  />
</g>
<g id="a9_0034"  >
<polygon points="609,90 628,90 633,85 628,80 609,80 609,90 " style="fill:#15d89b; stroke-width:1; stroke:black; " description="&lt;b&gt;AQJ11_RS32160&lt;/b&gt;&lt;br&gt;ornithine--oxo-acid transaminase&lt;br&gt;Location: 149449 - 148232&lt;br&gt;&lt;br&gt;&lt;b&gt;BlastP hit with LLPMBPKK_01425&lt;/b&gt;&lt;br&gt;Percentage identity: 95&lt;br&gt;Percentage coverage: 100&lt;br&gt;BLAST bit score: 760&lt;br&gt;E-value: 2.52e-278" locus_tag="AQJ11_RS32160" class="clusterblast-orf" id="dummy-9_h9_9_34"  />
</g>
<g id="a9_0035"  >
<polygon points="634,85 639,80 647,80 647,90 639,90 634,85 " style="fill:#4915d8; stroke-width:1; stroke:black; " description="&lt;b&gt;AQJ11_RS32155&lt;/b&gt;&lt;br&gt;DUF305 domain-containing protein&lt;br&gt;Location: 148183 - 147503&lt;br&gt;&lt;br&gt;&lt;b&gt;BlastP hit with LLPMBPKK_01426&lt;/b&gt;&lt;br&gt;Percentage identity: 72&lt;br&gt;Percentage coverage: 107&lt;br&gt;BLAST bit score: 261&lt;br&gt;E-value: 2.89e-87" locus_tag="AQJ11_RS32155" class="clusterblast-orf" id="dummy-9_h9_9_35"  />
</g>
<g id="a9_0036"  >
<polygon points="649,85 654,80 656,80 656,90 654,90 649,85 " style="fill:#d81553; stroke-width:1; stroke:black; " description="&lt;b&gt;AQJ11_RS32150&lt;/b&gt;&lt;br&gt;hypothetical protein&lt;br&gt;Location: 147408 - 147049&lt;br&gt;&lt;br&gt;&lt;b&gt;BlastP hit with LLPMBPKK_01427&lt;/b&gt;&lt;br&gt;Percentage identity: 60&lt;br&gt;Percentage coverage: 88&lt;br&gt;BLAST bit score: 130&lt;br&gt;E-value: 2.41e-38" locus_tag="AQJ11_RS32150" class="clusterblast-orf" id="dummy-9_h9_9_36"  />
</g>
<g id="a9_0037"  >
<polygon points="660,85 665,80 678,80 678,90 665,90 660,85 " style="fill:white; stroke-width:1; stroke:black; " description="&lt;b&gt;AQJ11_RS32145&lt;/b&gt;&lt;br&gt;DNA/RNA non-specific endonuclease&lt;br&gt;Location: 146810 - 145917" locus_tag="AQJ11_RS32145" class="clusterblast-orf" id="dummy-9_h9_9_37"  />
</g>
<g id="a9_0038"  >
<polygon points="706,90 715,90 720,85 715,80 706,80 706,90 " style="fill:white; stroke-width:1; stroke:black; " description="&lt;b&gt;AQJ11_RS32140&lt;/b&gt;&lt;br&gt;hypothetical protein&lt;br&gt;Location: 144448 - 143765" locus_tag="AQJ11_RS32140" class="clusterblast-orf" id="dummy-9_h9_9_38"  />
</g>
<g id="a9_0039"  >
<polygon points="720,90 733,90 738,85 733,80 720,80 720,90 " style="fill:white; stroke-width:1; stroke:black; " description="&lt;b&gt;AQJ11_RS32135&lt;/b&gt;&lt;br&gt;protein phosphatase 2C domain-containing protein&lt;br&gt;Location: 143765 - 142821" locus_tag="AQJ11_RS32135" class="clusterblast-orf" id="dummy-9_h9_9_39"  />
</g>
<g id="a9_0040"  >
<polygon points="738,90 767,90 772,85 767,80 738,80 738,90 " style="fill:white; stroke-width:1; stroke:black; " description="&lt;b&gt;AQJ11_RS32130&lt;/b&gt;&lt;br&gt;hypothetical protein&lt;br&gt;Location: 142824 - 141097" locus_tag="AQJ11_RS32130" class="clusterblast-orf" id="dummy-9_h9_9_40"  />
</g>
<g id="a9_0041"  >
<polygon points="772,85 777,80 780,80 780,90 777,90 772,85 " style="fill:white; stroke-width:1; stroke:black; " description="&lt;b&gt;AQJ11_RS32125&lt;/b&gt;&lt;br&gt;hypothetical protein&lt;br&gt;Location: 141069 - 140698" locus_tag="AQJ11_RS32125" class="clusterblast-orf" id="dummy-9_h9_9_41"  />
</g>
</svg>
