<svg xmlns="http://www.w3.org/2000/svg" xmlns:xlink="http://www.w3.org/1999/xlink" version="1.1" x="0" y="0" height="230" width="800" viewBox="0 0 800 230" preserveAspectRatio="none"  >
<g label="Query sequence" class="clusterblast-cluster"  >
<text x="5" y="20" class="clusterblast-acc"  >
Query sequence</text>
<line x1="10" y1="35" x2="778.0" y2="35" style="stroke-width:1; stroke:grey; "  />
<polygon points="96,35 100,30 100,40 96,35 " style="fill:#d81515; stroke-width:1; stroke:black; " description="&lt;b&gt;LLPMBPKK_00290&lt;/b&gt;&lt;br&gt;ABC transporter ATP-binding protein&lt;br&gt;Location: 323315 - 324008" locus_tag="LLPMBPKK_00290" class="clusterblast-orf" id="dummy-1_q0_0_all"  />
<polygon points="101,40 101,40 106,35 101,30 101,30 101,40 " style="fill:#77d815; stroke-width:1; stroke:black; " description="&lt;b&gt;LLPMBPKK_00291&lt;/b&gt;&lt;br&gt;sensor histidine kinase&lt;br&gt;Location: 324191 - 325082" locus_tag="LLPMBPKK_00291" class="clusterblast-orf" id="dummy-1_q1_0_all"  />
<polygon points="106,40 106,40 111,35 106,30 106,30 106,40 " style="fill:#15d8d8; stroke-width:1; stroke:black; " description="&lt;b&gt;LLPMBPKK_00292&lt;/b&gt;&lt;br&gt;two-component system response regulator&lt;br&gt;Location: 325078 - 325891" locus_tag="LLPMBPKK_00292" class="clusterblast-orf" id="dummy-1_q2_0_all"  />
<polygon points="113,35 116,30 116,40 113,35 " style="fill:white; stroke-width:1; stroke:black; " description="&lt;b&gt;LLPMBPKK_00293&lt;/b&gt;&lt;br&gt;MarR family transcriptional regulator&lt;br&gt;Location: 326166 - 326706" locus_tag="LLPMBPKK_00293" class="clusterblast-orf" id="dummy-1_q3_0_all"  />
<polygon points="116,40 119,40 124,35 119,30 116,30 116,40 " style="fill:white; stroke-width:1; stroke:black; " description="&lt;b&gt;LLPMBPKK_00294&lt;/b&gt;&lt;br&gt;membrane spanning protein&lt;br&gt;Location: 326774 - 328067" locus_tag="LLPMBPKK_00294" class="clusterblast-orf" id="dummy-1_q4_0_all"  />
<polygon points="127,40 127,40 132,35 127,30 127,30 127,40 " style="fill:#7715d8; stroke-width:1; stroke:black; " description="&lt;b&gt;LLPMBPKK_00295&lt;/b&gt;&lt;br&gt;membrane protein&lt;br&gt;Location: 328560 - 329451" locus_tag="LLPMBPKK_00295" class="clusterblast-orf" id="dummy-1_q5_0_all"  />
<polygon points="132,35 137,30 140,30 140,40 137,40 132,35 " style="fill:white; stroke-width:1; stroke:black; " description="&lt;b&gt;LLPMBPKK_00296&lt;/b&gt;&lt;br&gt;hypothetical protein&lt;br&gt;Location: 329495 - 330821" locus_tag="LLPMBPKK_00296" class="clusterblast-orf" id="dummy-1_q6_0_all"  />
<polygon points="140,35 144,30 144,40 140,35 " style="fill:#d84615; stroke-width:1; stroke:black; " description="&lt;b&gt;LLPMBPKK_00297&lt;/b&gt;&lt;br&gt;response regulator transcription factor&lt;br&gt;Location: 330817 - 331480" locus_tag="LLPMBPKK_00297" class="clusterblast-orf" id="dummy-1_q7_0_all"  />
<polygon points="149,35 153,30 153,40 149,35 " style="fill:white; stroke-width:1; stroke:black; " description="&lt;b&gt;LLPMBPKK_00298&lt;/b&gt;&lt;br&gt;hydrolase&lt;br&gt;Location: 332293 - 333001" locus_tag="LLPMBPKK_00298" class="clusterblast-orf" id="dummy-1_q8_0_all"  />
<polygon points="162,35 166,30 166,40 162,35 " style="fill:white; stroke-width:1; stroke:black; " description="&lt;b&gt;LLPMBPKK_00299&lt;/b&gt;&lt;br&gt;hypothetical protein&lt;br&gt;Location: 334507 - 335224" locus_tag="LLPMBPKK_00299" class="clusterblast-orf" id="dummy-1_q9_0_all"  />
<polygon points="169,40 173,40 178,35 173,30 169,30 169,40 " style="fill:#46d815; stroke-width:1; stroke:black; " description="&lt;b&gt;LLPMBPKK_00300&lt;/b&gt;&lt;br&gt;nucleotide-binding protein&lt;br&gt;Location: 335785 - 337201" locus_tag="LLPMBPKK_00300" class="clusterblast-orf" id="dummy-1_q10_0_all"  />
<polygon points="180,40 182,40 187,35 182,30 180,30 180,40 " style="fill:#15a7d8; stroke-width:1; stroke:black; " description="&lt;b&gt;LLPMBPKK_00301&lt;/b&gt;&lt;br&gt;cyclase&lt;br&gt;Location: 337536 - 338730" locus_tag="LLPMBPKK_00301" class="clusterblast-orf" id="dummy-1_q11_0_all"  />
<polygon points="187,40 187,40 192,35 187,30 187,30 187,40 " style="fill:#a715d8; stroke-width:1; stroke:black; " description="&lt;b&gt;LLPMBPKK_00302&lt;/b&gt;&lt;br&gt;methyltransferase&lt;br&gt;Location: 338745 - 339621" locus_tag="LLPMBPKK_00302" class="clusterblast-orf" id="dummy-1_q12_0_all"  />
<polygon points="193,40 194,35 193,30 193,40 " style="fill:white; stroke-width:1; stroke:black; " description="&lt;b&gt;LLPMBPKK_00303&lt;/b&gt;&lt;br&gt;hypothetical protein&lt;br&gt;Location: 339752 - 339935" locus_tag="LLPMBPKK_00303" class="clusterblast-orf" id="dummy-1_q13_0_all"  />
<polygon points="194,35 199,30 199,30 199,40 199,40 194,35 " style="fill:white; stroke-width:1; stroke:black; " description="&lt;b&gt;LLPMBPKK_00304&lt;/b&gt;&lt;br&gt;PhzF family phenazine biosynthesis isomerase&lt;br&gt;Location: 339927 - 340803" locus_tag="LLPMBPKK_00304" class="clusterblast-orf" id="dummy-1_q14_0_all"  />
<polygon points="200,35 205,30 208,30 208,40 205,40 200,35 " style="fill:#d87715; stroke-width:1; stroke:black; " description="&lt;b&gt;LLPMBPKK_00305&lt;/b&gt;&lt;br&gt;Tryptophan halogenase&lt;br&gt;Location: 340940 - 342413" locus_tag="LLPMBPKK_00305" class="clusterblast-orf" id="dummy-1_q15_0_all"  />
<polygon points="208,35 213,30 254,30 254,40 213,40 208,35 " style="fill:#15d815; stroke-width:1; stroke:black; " description="&lt;b&gt;LLPMBPKK_00306&lt;/b&gt;&lt;br&gt;polyketide synthase&lt;br&gt;Location: 342409 - 350239" locus_tag="LLPMBPKK_00306" class="clusterblast-orf" id="dummy-1_q16_0_all"  />
<polygon points="255,35 260,30 261,30 261,40 260,40 255,35 " style="fill:#1577d8; stroke-width:1; stroke:black; " description="&lt;b&gt;LLPMBPKK_00307&lt;/b&gt;&lt;br&gt;class I SAM-dependent methyltransferase&lt;br&gt;Location: 350335 - 351286" locus_tag="LLPMBPKK_00307" class="clusterblast-orf" id="dummy-1_q17_0_all"  />
<polygon points="261,35 266,30 271,30 271,40 266,40 261,35 " style="fill:#d815d8; stroke-width:1; stroke:black; " description="&lt;b&gt;LLPMBPKK_00308&lt;/b&gt;&lt;br&gt;3-(3-hydroxyphenyl)propionate hydroxylase&lt;br&gt;Location: 351361 - 352990" locus_tag="LLPMBPKK_00308" class="clusterblast-orf" id="dummy-1_q18_0_all"  />
<polygon points="271,35 275,30 275,40 271,35 " style="fill:#d8a715; stroke-width:1; stroke:black; " description="&lt;b&gt;LLPMBPKK_00309&lt;/b&gt;&lt;br&gt;N-acetyltransferase/amide synthase&lt;br&gt;Location: 353013 - 353796" locus_tag="LLPMBPKK_00309" class="clusterblast-orf" id="dummy-1_q19_0_all"  />
<polygon points="275,35 280,30 334,30 334,40 280,40 275,35 " style="fill:#15d815; stroke-width:1; stroke:black; " description="&lt;b&gt;LLPMBPKK_00310&lt;/b&gt;&lt;br&gt;hypothetical protein&lt;br&gt;Location: 353800 - 363724" locus_tag="LLPMBPKK_00310" class="clusterblast-orf" id="dummy-1_q20_0_all"  />
<polygon points="334,35 339,30 396,30 396,40 339,40 334,35 " style="fill:#15d815; stroke-width:1; stroke:black; " description="&lt;b&gt;LLPMBPKK_00311&lt;/b&gt;&lt;br&gt;type I polyketide synthase&lt;br&gt;Location: 363754 - 374203" locus_tag="LLPMBPKK_00311" class="clusterblast-orf" id="dummy-1_q21_0_all"  />
<polygon points="396,35 401,30 442,30 442,40 401,40 396,35 " style="fill:#15d815; stroke-width:1; stroke:black; " description="&lt;b&gt;LLPMBPKK_00312&lt;/b&gt;&lt;br&gt;type I polyketide synthase&lt;br&gt;Location: 374249 - 382115" locus_tag="LLPMBPKK_00312" class="clusterblast-orf" id="dummy-1_q22_0_all"  />
<polygon points="442,35 447,30 456,30 456,40 447,40 442,35 " style="fill:#15d815; stroke-width:1; stroke:black; " description="&lt;b&gt;LLPMBPKK_00313&lt;/b&gt;&lt;br&gt;type I polyketide synthase&lt;br&gt;Location: 382111 - 384328" locus_tag="LLPMBPKK_00313" class="clusterblast-orf" id="dummy-1_q23_0_all"  />
<polygon points="456,35 461,30 489,30 489,40 461,40 456,35 " style="fill:#15d815; stroke-width:1; stroke:black; " description="&lt;b&gt;LLPMBPKK_00314&lt;/b&gt;&lt;br&gt;type I polyketide synthase&lt;br&gt;Location: 384422 - 390035" locus_tag="LLPMBPKK_00314" class="clusterblast-orf" id="dummy-1_q24_0_all"  />
<polygon points="489,35 494,30 545,30 545,40 494,40 489,35 " style="fill:#15d815; stroke-width:1; stroke:black; " description="&lt;b&gt;LLPMBPKK_00315&lt;/b&gt;&lt;br&gt;2-succinylbenzoate--CoA ligase&lt;br&gt;Location: 390069 - 399576" locus_tag="LLPMBPKK_00315" class="clusterblast-orf" id="dummy-1_q25_0_all"  />
<polygon points="546,35 551,30 552,30 552,40 551,40 546,35 " style="fill:white; stroke-width:1; stroke:black; " description="&lt;b&gt;LLPMBPKK_00316&lt;/b&gt;&lt;br&gt;hypothetical protein&lt;br&gt;Location: 399691 - 400606" locus_tag="LLPMBPKK_00316" class="clusterblast-orf" id="dummy-1_q26_0_all"  />
<polygon points="555,35 560,30 569,30 569,40 560,40 555,35 " style="fill:#15d846; stroke-width:1; stroke:black; " description="&lt;b&gt;LLPMBPKK_00317&lt;/b&gt;&lt;br&gt;non-ribosomal peptide synthetase&lt;br&gt;Location: 401116 - 403651" locus_tag="LLPMBPKK_00317" class="clusterblast-orf" id="dummy-1_q27_0_all"  />
<polygon points="570,35 575,30 575,30 575,40 575,40 570,35 " style="fill:#1546d8; stroke-width:1; stroke:black; " description="&lt;b&gt;LLPMBPKK_00318&lt;/b&gt;&lt;br&gt;Acetyltransferase (GNAT) family protein&lt;br&gt;Location: 403696 - 404623" locus_tag="LLPMBPKK_00318" class="clusterblast-orf" id="dummy-1_q28_0_all"  />
<polygon points="576,35 579,30 579,40 576,35 " style="fill:#d815a7; stroke-width:1; stroke:black; " description="&lt;b&gt;LLPMBPKK_00319&lt;/b&gt;&lt;br&gt;3-dehydroquinate dehydratase&lt;br&gt;Location: 404785 - 405202" locus_tag="LLPMBPKK_00319" class="clusterblast-orf" id="dummy-1_q29_0_all"  />
<polygon points="580,40 582,40 587,35 582,30 580,30 580,40 " style="fill:#d8d815; stroke-width:1; stroke:black; " description="&lt;b&gt;LLPMBPKK_00320&lt;/b&gt;&lt;br&gt;3-amino-5-hydroxybenzoate synthase&lt;br&gt;Location: 405450 - 406614" locus_tag="LLPMBPKK_00320" class="clusterblast-orf" id="dummy-1_q30_0_all"  />
<polygon points="587,40 589,40 594,35 589,30 587,30 587,40 " style="fill:#15d877; stroke-width:1; stroke:black; " description="&lt;b&gt;LLPMBPKK_00321&lt;/b&gt;&lt;br&gt;oxidoreductase RifL&lt;br&gt;Location: 406610 - 407741" locus_tag="LLPMBPKK_00321" class="clusterblast-orf" id="dummy-1_q31_0_all"  />
<polygon points="594,40 598,35 594,30 594,40 " style="fill:#1515d8; stroke-width:1; stroke:black; " description="&lt;b&gt;LLPMBPKK_00322&lt;/b&gt;&lt;br&gt;phosphoglycolate phosphatase&lt;br&gt;Location: 407845 - 408544" locus_tag="LLPMBPKK_00322" class="clusterblast-orf" id="dummy-1_q32_0_all"  />
<polygon points="600,40 603,40 608,35 603,30 600,30 600,40 " style="fill:#d81577; stroke-width:1; stroke:black; " description="&lt;b&gt;LLPMBPKK_00323&lt;/b&gt;&lt;br&gt;3-deoxy-7-phosphoheptulonate synthase&lt;br&gt;Location: 408817 - 410152" locus_tag="LLPMBPKK_00323" class="clusterblast-orf" id="dummy-1_q33_0_all"  />
<polygon points="609,40 621,40 626,35 621,30 609,30 609,40 " style="fill:#15d815; stroke-width:1; stroke:black; " description="&lt;b&gt;LLPMBPKK_00324&lt;/b&gt;&lt;br&gt;3-phosphoshikimate 1-carboxyvinyltransferase&lt;br&gt;Location: 410297 - 413303" locus_tag="LLPMBPKK_00324" class="clusterblast-orf" id="dummy-1_q34_0_all"  />
<polygon points="627,40 629,40 634,35 629,30 627,30 627,40 " style="fill:#a7d815; stroke-width:1; stroke:black; " description="&lt;b&gt;LLPMBPKK_00325&lt;/b&gt;&lt;br&gt;acyl-CoA dehydrogenase&lt;br&gt;Location: 413383 - 414553" locus_tag="LLPMBPKK_00325" class="clusterblast-orf" id="dummy-1_q35_0_all"  />
<polygon points="634,40 634,40 639,35 634,30 634,30 634,40 " style="fill:#15d8a7; stroke-width:1; stroke:black; " description="&lt;b&gt;LLPMBPKK_00326&lt;/b&gt;&lt;br&gt;SDR family oxidoreductase&lt;br&gt;Location: 414549 - 415392" locus_tag="LLPMBPKK_00326" class="clusterblast-orf" id="dummy-1_q36_0_all"  />
<polygon points="639,40 646,40 651,35 646,30 639,30 639,40 " style="fill:#4615d8; stroke-width:1; stroke:black; " description="&lt;b&gt;LLPMBPKK_00327&lt;/b&gt;&lt;br&gt;NADPH-dependent 2,4-dienoyl-CoA reductase&lt;br&gt;Location: 415436 - 417518" locus_tag="LLPMBPKK_00327" class="clusterblast-orf" id="dummy-1_q37_0_all"  />
<polygon points="652,35 657,30 669,30 669,40 657,40 652,35 " style="fill:#d81546; stroke-width:1; stroke:black; " description="&lt;b&gt;LLPMBPKK_00328&lt;/b&gt;&lt;br&gt;LuxR family transcriptional regulator&lt;br&gt;Location: 417593 - 420452" locus_tag="LLPMBPKK_00328" class="clusterblast-orf" id="dummy-1_q38_0_all"  />
<polygon points="675,40 678,40 683,35 678,30 675,30 675,40 " style="fill:white; stroke-width:1; stroke:black; " description="&lt;b&gt;LLPMBPKK_00329&lt;/b&gt;&lt;br&gt;hypothetical protein&lt;br&gt;Location: 421519 - 422968" locus_tag="LLPMBPKK_00329" class="clusterblast-orf" id="dummy-1_q39_0_all"  />
</g>
<g label="NC_021191" description="NC_021191 (3208254-3340523): Actinoplanes sp. N902-109, complete genome (21% of genes show similarity), NRPS,NRPS-like,T1PKS" class="clusterblast-cluster"  >
<text x="5" y="70" class="clusterblast-acc"  >
<a xlink:href="https://antismash-db.secondarymetabolites.org/area.html?record=NC_021191&amp;start=3208254&amp;end=3340523" target="_blank">NC_021191 (3208254-3340523)</a>: Actinoplanes sp. N902-109, complete genome (21% of genes show similarity), NRPS,NRPS-like,T1PKS</text>
<line x1="10" y1="85" x2="778.0" y2="85" style="stroke-width:1; stroke:grey; "  />
</g>
<g id="a1_000"  >
<polygon points="0,85 3,80 3,90 0,85 " style="fill:#d84615; stroke-width:1; stroke:black; " description="&lt;b&gt;L083_RS14225&lt;/b&gt;&lt;br&gt;response regulator transcription factor&lt;br&gt;Location: 3340523 - 3339852&lt;br&gt;&lt;br&gt;&lt;b&gt;BlastP hit with LLPMBPKK_00297&lt;/b&gt;&lt;br&gt;Percentage identity: 34&lt;br&gt;Percentage coverage: 100&lt;br&gt;BLAST bit score: 103&lt;br&gt;E-value: 2.96e-25" locus_tag="L083_RS14225" class="clusterblast-orf" id="dummy-1_h1_10_0"  />
</g>
<g id="a1_001"  >
<polygon points="4,85 6,80 6,90 4,85 " style="fill:white; stroke-width:1; stroke:black; " description="&lt;b&gt;L083_RS14220&lt;/b&gt;&lt;br&gt;hypothetical protein&lt;br&gt;Location: 3339790 - 3339470" locus_tag="L083_RS14220" class="clusterblast-orf" id="dummy-1_h1_10_1"  />
</g>
<g id="a1_002"  >
<polygon points="6,90 9,85 6,80 6,90 " style="fill:white; stroke-width:1; stroke:black; " description="&lt;b&gt;L083_RS42205&lt;/b&gt;&lt;br&gt;hypothetical protein&lt;br&gt;Location: 3339502 - 3338897" locus_tag="L083_RS42205" class="clusterblast-orf" id="dummy-1_h1_10_2"  />
</g>
<g id="a1_003"  >
<polygon points="10,90 11,85 10,80 10,90 " style="fill:white; stroke-width:1; stroke:black; " description="&lt;b&gt;L083_RS43605&lt;/b&gt;&lt;br&gt;hypothetical protein&lt;br&gt;Location: 3338794 - 3338498" locus_tag="L083_RS43605" class="clusterblast-orf" id="dummy-1_h1_10_3"  />
</g>
<g id="a1_004"  >
<polygon points="11,90 15,85 11,80 11,90 " style="fill:white; stroke-width:1; stroke:black; " description="&lt;b&gt;L083_RS43600&lt;/b&gt;&lt;br&gt;STAS domain-containing protein&lt;br&gt;Location: 3338501 - 3337878" locus_tag="L083_RS43600" class="clusterblast-orf" id="dummy-1_h1_10_4"  />
</g>
<g id="a1_005"  >
<polygon points="15,85 16,80 16,90 15,85 " style="fill:white; stroke-width:1; stroke:black; " description="&lt;b&gt;L083_RS43595&lt;/b&gt;&lt;br&gt;hypothetical protein&lt;br&gt;Location: 3337909 - 3337751" locus_tag="L083_RS43595" class="clusterblast-orf" id="dummy-1_h1_10_5"  />
</g>
<g id="a1_006"  >
<polygon points="17,85 22,80 22,80 22,90 22,90 17,85 " style="fill:white; stroke-width:1; stroke:black; " description="&lt;b&gt;L083_RS14200&lt;/b&gt;&lt;br&gt;LysR family transcriptional regulator&lt;br&gt;Location: 3337638 - 3336727" locus_tag="L083_RS14200" class="clusterblast-orf" id="dummy-1_h1_10_6"  />
</g>
<g id="a1_007"  >
<polygon points="22,85 27,80 29,80 29,90 27,90 22,85 " style="fill:white; stroke-width:1; stroke:black; " description="&lt;b&gt;L083_RS14195&lt;/b&gt;&lt;br&gt;putative sulfate exporter family transporter&lt;br&gt;Location: 3336672 - 3335590" locus_tag="L083_RS14195" class="clusterblast-orf" id="dummy-1_h1_10_7"  />
</g>
<g id="a1_008"  >
<polygon points="29,85 32,80 32,90 29,85 " style="fill:white; stroke-width:1; stroke:black; " description="&lt;b&gt;L083_RS14190&lt;/b&gt;&lt;br&gt;hypothetical protein&lt;br&gt;Location: 3335452 - 3335027" locus_tag="L083_RS14190" class="clusterblast-orf" id="dummy-1_h1_10_8"  />
</g>
<g id="a1_009"  >
<polygon points="32,85 37,80 40,80 40,90 37,90 32,85 " style="fill:white; stroke-width:1; stroke:black; " description="&lt;b&gt;L083_RS14185&lt;/b&gt;&lt;br&gt;hypothetical protein&lt;br&gt;Location: 3334928 - 3333711" locus_tag="L083_RS14185" class="clusterblast-orf" id="dummy-1_h1_10_9"  />
</g>
<g id="a1_0010"  >
<polygon points="40,90 42,85 40,80 40,90 " style="fill:white; stroke-width:1; stroke:black; " description="&lt;b&gt;L083_RS14180&lt;/b&gt;&lt;br&gt;hypothetical protein&lt;br&gt;Location: 3333727 - 3333392" locus_tag="L083_RS14180" class="clusterblast-orf" id="dummy-1_h1_10_10"  />
</g>
<g id="a1_0011"  >
<polygon points="42,85 47,80 51,80 51,90 47,90 42,85 " style="fill:white; stroke-width:1; stroke:black; " description="&lt;b&gt;L083_RS14175&lt;/b&gt;&lt;br&gt;family 16 glycosylhydrolase&lt;br&gt;Location: 3333383 - 3331707" locus_tag="L083_RS14175" class="clusterblast-orf" id="dummy-1_h1_10_11"  />
</g>
<g id="a1_0012"  >
<polygon points="53,85 57,80 57,90 53,85 " style="fill:white; stroke-width:1; stroke:black; " description="&lt;b&gt;L083_RS14170&lt;/b&gt;&lt;br&gt;TetR/AcrR family transcriptional regulator&lt;br&gt;Location: 3331397 - 3330816" locus_tag="L083_RS14170" class="clusterblast-orf" id="dummy-1_h1_10_12"  />
</g>
<g id="a1_0013"  >
<polygon points="57,90 58,90 63,85 58,80 57,80 57,90 " style="fill:white; stroke-width:1; stroke:black; " description="&lt;b&gt;L083_RS14165&lt;/b&gt;&lt;br&gt;quinone oxidoreductase&lt;br&gt;Location: 3330766 - 3329810" locus_tag="L083_RS14165" class="clusterblast-orf" id="dummy-1_h1_10_13"  />
</g>
<g id="a1_0014"  >
<polygon points="64,85 67,80 67,90 64,85 " style="fill:white; stroke-width:1; stroke:black; " description="&lt;b&gt;L083_RS14160&lt;/b&gt;&lt;br&gt;malonic semialdehyde reductase&lt;br&gt;Location: 3329660 - 3329070" locus_tag="L083_RS14160" class="clusterblast-orf" id="dummy-1_h1_10_14"  />
</g>
<g id="a1_0015"  >
<polygon points="67,85 72,80 84,80 84,90 72,90 67,85 " style="fill:#d81546; stroke-width:1; stroke:black; " description="&lt;b&gt;L083_RS14155&lt;/b&gt;&lt;br&gt;AAA family ATPase&lt;br&gt;Location: 3329000 - 3326148&lt;br&gt;&lt;br&gt;&lt;b&gt;BlastP hit with LLPMBPKK_00328&lt;/b&gt;&lt;br&gt;Percentage identity: 36&lt;br&gt;Percentage coverage: 100&lt;br&gt;BLAST bit score: 466&lt;br&gt;E-value: 3.97e-147" locus_tag="L083_RS14155" class="clusterblast-orf" id="dummy-1_h1_10_15"  />
</g>
<g id="a1_0016"  >
<polygon points="86,90 89,90 94,85 89,80 86,80 86,90 " style="fill:white; stroke-width:1; stroke:black; " description="&lt;b&gt;L083_RS14150&lt;/b&gt;&lt;br&gt;cytochrome P450&lt;br&gt;Location: 3325826 - 3324528" locus_tag="L083_RS14150" class="clusterblast-orf" id="dummy-1_h1_10_16"  />
</g>
<g id="a1_0017"  >
<polygon points="94,85 99,80 99,80 99,90 99,90 94,85 " style="fill:white; stroke-width:1; stroke:black; " description="&lt;b&gt;L083_RS14145&lt;/b&gt;&lt;br&gt;ROK family protein&lt;br&gt;Location: 3324478 - 3323606" locus_tag="L083_RS14145" class="clusterblast-orf" id="dummy-1_h1_10_17"  />
</g>
<g id="a1_0018"  >
<polygon points="99,85 104,80 107,80 107,90 104,90 99,85 " style="fill:white; stroke-width:1; stroke:black; " description="&lt;b&gt;L083_RS14140&lt;/b&gt;&lt;br&gt;LLM class flavin-dependent oxidoreductase&lt;br&gt;Location: 3323596 - 3322370" locus_tag="L083_RS14140" class="clusterblast-orf" id="dummy-1_h1_10_18"  />
</g>
<g id="a1_0019"  >
<polygon points="107,85 111,80 111,90 107,85 " style="fill:white; stroke-width:1; stroke:black; " description="&lt;b&gt;L083_RS14135&lt;/b&gt;&lt;br&gt;N-acetyltransferase&lt;br&gt;Location: 3322370 - 3321615" locus_tag="L083_RS14135" class="clusterblast-orf" id="dummy-1_h1_10_19"  />
</g>
<g id="a1_0020"  >
<polygon points="111,85 116,80 160,80 160,90 116,90 111,85 " style="fill:#15d815; stroke-width:1; stroke:black; " description="&lt;b&gt;L083_RS14130&lt;/b&gt;&lt;br&gt;type I polyketide synthase&lt;br&gt;Location: 3321587 - 3313302&lt;br&gt;&lt;br&gt;&lt;b&gt;BlastP hit with LLPMBPKK_00306&lt;/b&gt;&lt;br&gt;Percentage identity: 46&lt;br&gt;Percentage coverage: 70&lt;br&gt;BLAST bit score: 1265&lt;br&gt;E-value: 0.0&lt;br&gt;&lt;br&gt;&lt;b&gt;BlastP hit with LLPMBPKK_00310&lt;/b&gt;&lt;br&gt;Percentage identity: 54&lt;br&gt;Percentage coverage: 52&lt;br&gt;BLAST bit score: 1624&lt;br&gt;E-value: 0.0&lt;br&gt;&lt;br&gt;&lt;b&gt;BlastP hit with LLPMBPKK_00311&lt;/b&gt;&lt;br&gt;Percentage identity: 42&lt;br&gt;Percentage coverage: 100&lt;br&gt;BLAST bit score: 2179&lt;br&gt;E-value: 0.0&lt;br&gt;&lt;br&gt;&lt;b&gt;BlastP hit with LLPMBPKK_00312&lt;/b&gt;&lt;br&gt;Percentage identity: 53&lt;br&gt;Percentage coverage: 72&lt;br&gt;BLAST bit score: 1679&lt;br&gt;E-value: 0.0&lt;br&gt;&lt;br&gt;&lt;b&gt;BlastP hit with LLPMBPKK_00313&lt;/b&gt;&lt;br&gt;Percentage identity: 60&lt;br&gt;Percentage coverage: 95&lt;br&gt;BLAST bit score: 767&lt;br&gt;E-value: 2.56e-249&lt;br&gt;&lt;br&gt;&lt;b&gt;BlastP hit with LLPMBPKK_00314&lt;/b&gt;&lt;br&gt;Percentage identity: 46&lt;br&gt;Percentage coverage: 96&lt;br&gt;BLAST bit score: 1277&lt;br&gt;E-value: 0.0&lt;br&gt;&lt;br&gt;&lt;b&gt;BlastP hit with LLPMBPKK_00315&lt;/b&gt;&lt;br&gt;Percentage identity: 49&lt;br&gt;Percentage coverage: 68&lt;br&gt;BLAST bit score: 1648&lt;br&gt;E-value: 0.0" locus_tag="L083_RS14130" class="clusterblast-orf" id="dummy-1_h1_10_20"  />
</g>
<g id="a1_0021"  >
<polygon points="160,85 165,80 198,80 198,90 165,90 160,85 " style="fill:#15d815; stroke-width:1; stroke:black; " description="&lt;b&gt;L083_RS14125&lt;/b&gt;&lt;br&gt;SDR family NAD(P)-dependent oxidoreductase&lt;br&gt;Location: 3313305 - 3306835&lt;br&gt;&lt;br&gt;&lt;b&gt;BlastP hit with LLPMBPKK_00306&lt;/b&gt;&lt;br&gt;Percentage identity: 38&lt;br&gt;Percentage coverage: 80&lt;br&gt;BLAST bit score: 1020&lt;br&gt;E-value: 0.0&lt;br&gt;&lt;br&gt;&lt;b&gt;BlastP hit with LLPMBPKK_00310&lt;/b&gt;&lt;br&gt;Percentage identity: 42&lt;br&gt;Percentage coverage: 63&lt;br&gt;BLAST bit score: 1382&lt;br&gt;E-value: 0.0&lt;br&gt;&lt;br&gt;&lt;b&gt;BlastP hit with LLPMBPKK_00311&lt;/b&gt;&lt;br&gt;Percentage identity: 43&lt;br&gt;Percentage coverage: 60&lt;br&gt;BLAST bit score: 1368&lt;br&gt;E-value: 0.0&lt;br&gt;&lt;br&gt;&lt;b&gt;BlastP hit with LLPMBPKK_00312&lt;/b&gt;&lt;br&gt;Percentage identity: 42&lt;br&gt;Percentage coverage: 80&lt;br&gt;BLAST bit score: 1322&lt;br&gt;E-value: 0.0&lt;br&gt;&lt;br&gt;&lt;b&gt;BlastP hit with LLPMBPKK_00313&lt;/b&gt;&lt;br&gt;Percentage identity: 59&lt;br&gt;Percentage coverage: 97&lt;br&gt;BLAST bit score: 759&lt;br&gt;E-value: 2.35e-250&lt;br&gt;&lt;br&gt;&lt;b&gt;BlastP hit with LLPMBPKK_00314&lt;/b&gt;&lt;br&gt;Percentage identity: 51&lt;br&gt;Percentage coverage: 78&lt;br&gt;BLAST bit score: 1224&lt;br&gt;E-value: 0.0&lt;br&gt;&lt;br&gt;&lt;b&gt;BlastP hit with LLPMBPKK_00315&lt;/b&gt;&lt;br&gt;Percentage identity: 53&lt;br&gt;Percentage coverage: 68&lt;br&gt;BLAST bit score: 1904&lt;br&gt;E-value: 0.0" locus_tag="L083_RS14125" class="clusterblast-orf" id="dummy-1_h1_10_21"  />
</g>
<g id="a1_0022"  >
<polygon points="198,85 203,80 230,80 230,90 203,90 198,85 " style="fill:#15d815; stroke-width:1; stroke:black; " description="&lt;b&gt;L083_RS14120&lt;/b&gt;&lt;br&gt;type I polyketide synthase&lt;br&gt;Location: 3306838 - 3301454&lt;br&gt;&lt;br&gt;&lt;b&gt;BlastP hit with LLPMBPKK_00306&lt;/b&gt;&lt;br&gt;Percentage identity: 48&lt;br&gt;Percentage coverage: 66&lt;br&gt;BLAST bit score: 1256&lt;br&gt;E-value: 0.0&lt;br&gt;&lt;br&gt;&lt;b&gt;BlastP hit with LLPMBPKK_00310&lt;/b&gt;&lt;br&gt;Percentage identity: 52&lt;br&gt;Percentage coverage: 53&lt;br&gt;BLAST bit score: 1519&lt;br&gt;E-value: 0.0&lt;br&gt;&lt;br&gt;&lt;b&gt;BlastP hit with LLPMBPKK_00311&lt;/b&gt;&lt;br&gt;Percentage identity: 53&lt;br&gt;Percentage coverage: 50&lt;br&gt;BLAST bit score: 1548&lt;br&gt;E-value: 0.0&lt;br&gt;&lt;br&gt;&lt;b&gt;BlastP hit with LLPMBPKK_00312&lt;/b&gt;&lt;br&gt;Percentage identity: 52&lt;br&gt;Percentage coverage: 67&lt;br&gt;BLAST bit score: 1507&lt;br&gt;E-value: 0.0&lt;br&gt;&lt;br&gt;&lt;b&gt;BlastP hit with LLPMBPKK_00313&lt;/b&gt;&lt;br&gt;Percentage identity: 57&lt;br&gt;Percentage coverage: 97&lt;br&gt;BLAST bit score: 711&lt;br&gt;E-value: 1.78e-235&lt;br&gt;&lt;br&gt;&lt;b&gt;BlastP hit with LLPMBPKK_00314&lt;/b&gt;&lt;br&gt;Percentage identity: 46&lt;br&gt;Percentage coverage: 99&lt;br&gt;BLAST bit score: 1275&lt;br&gt;E-value: 0.0&lt;br&gt;&lt;br&gt;&lt;b&gt;BlastP hit with LLPMBPKK_00315&lt;/b&gt;&lt;br&gt;Percentage identity: 45&lt;br&gt;Percentage coverage: 68&lt;br&gt;BLAST bit score: 1482&lt;br&gt;E-value: 0.0" locus_tag="L083_RS14120" class="clusterblast-orf" id="dummy-1_h1_10_22"  />
</g>
<g id="a1_0023"  >
<polygon points="230,85 235,80 268,80 268,90 235,90 230,85 " style="fill:#15d815; stroke-width:1; stroke:black; " description="&lt;b&gt;L083_RS14115&lt;/b&gt;&lt;br&gt;type I polyketide synthase&lt;br&gt;Location: 3301424 - 3294951&lt;br&gt;&lt;br&gt;&lt;b&gt;BlastP hit with LLPMBPKK_00306&lt;/b&gt;&lt;br&gt;Percentage identity: 37&lt;br&gt;Percentage coverage: 79&lt;br&gt;BLAST bit score: 1010&lt;br&gt;E-value: 0.0&lt;br&gt;&lt;br&gt;&lt;b&gt;BlastP hit with LLPMBPKK_00310&lt;/b&gt;&lt;br&gt;Percentage identity: 43&lt;br&gt;Percentage coverage: 63&lt;br&gt;BLAST bit score: 1360&lt;br&gt;E-value: 0.0&lt;br&gt;&lt;br&gt;&lt;b&gt;BlastP hit with LLPMBPKK_00311&lt;/b&gt;&lt;br&gt;Percentage identity: 42&lt;br&gt;Percentage coverage: 59&lt;br&gt;BLAST bit score: 1262&lt;br&gt;E-value: 0.0&lt;br&gt;&lt;br&gt;&lt;b&gt;BlastP hit with LLPMBPKK_00312&lt;/b&gt;&lt;br&gt;Percentage identity: 42&lt;br&gt;Percentage coverage: 82&lt;br&gt;BLAST bit score: 1305&lt;br&gt;E-value: 0.0&lt;br&gt;&lt;br&gt;&lt;b&gt;BlastP hit with LLPMBPKK_00313&lt;/b&gt;&lt;br&gt;Percentage identity: 62&lt;br&gt;Percentage coverage: 94&lt;br&gt;BLAST bit score: 773&lt;br&gt;E-value: 6.61e-256&lt;br&gt;&lt;br&gt;&lt;b&gt;BlastP hit with LLPMBPKK_00314&lt;/b&gt;&lt;br&gt;Percentage identity: 43&lt;br&gt;Percentage coverage: 114&lt;br&gt;BLAST bit score: 1314&lt;br&gt;E-value: 0.0&lt;br&gt;&lt;br&gt;&lt;b&gt;BlastP hit with LLPMBPKK_00315&lt;/b&gt;&lt;br&gt;Percentage identity: 54&lt;br&gt;Percentage coverage: 68&lt;br&gt;BLAST bit score: 1892&lt;br&gt;E-value: 0.0" locus_tag="L083_RS14115" class="clusterblast-orf" id="dummy-1_h1_10_23"  />
</g>
<g id="a1_0024"  >
<polygon points="268,85 273,80 338,80 338,90 273,90 268,85 " style="fill:#15d815; stroke-width:1; stroke:black; " description="&lt;b&gt;L083_RS14110&lt;/b&gt;&lt;br&gt;type I polyketide synthase&lt;br&gt;Location: 3294954 - 3283093&lt;br&gt;&lt;br&gt;&lt;b&gt;BlastP hit with LLPMBPKK_00306&lt;/b&gt;&lt;br&gt;Percentage identity: 35&lt;br&gt;Percentage coverage: 105&lt;br&gt;BLAST bit score: 1211&lt;br&gt;E-value: 0.0&lt;br&gt;&lt;br&gt;&lt;b&gt;BlastP hit with LLPMBPKK_00310&lt;/b&gt;&lt;br&gt;Percentage identity: 45&lt;br&gt;Percentage coverage: 101&lt;br&gt;BLAST bit score: 2222&lt;br&gt;E-value: 0.0&lt;br&gt;&lt;br&gt;&lt;b&gt;BlastP hit with LLPMBPKK_00311&lt;/b&gt;&lt;br&gt;Percentage identity: 48&lt;br&gt;Percentage coverage: 75&lt;br&gt;BLAST bit score: 1930&lt;br&gt;E-value: 0.0&lt;br&gt;&lt;br&gt;&lt;b&gt;BlastP hit with LLPMBPKK_00312&lt;/b&gt;&lt;br&gt;Percentage identity: 47&lt;br&gt;Percentage coverage: 67&lt;br&gt;BLAST bit score: 1245&lt;br&gt;E-value: 0.0&lt;br&gt;&lt;br&gt;&lt;b&gt;BlastP hit with LLPMBPKK_00313&lt;/b&gt;&lt;br&gt;Percentage identity: 61&lt;br&gt;Percentage coverage: 93&lt;br&gt;BLAST bit score: 751&lt;br&gt;E-value: 1.34e-240&lt;br&gt;&lt;br&gt;&lt;b&gt;BlastP hit with LLPMBPKK_00314&lt;/b&gt;&lt;br&gt;Percentage identity: 43&lt;br&gt;Percentage coverage: 99&lt;br&gt;BLAST bit score: 1089&lt;br&gt;E-value: 0.0&lt;br&gt;&lt;br&gt;&lt;b&gt;BlastP hit with LLPMBPKK_00315&lt;/b&gt;&lt;br&gt;Percentage identity: 42&lt;br&gt;Percentage coverage: 98&lt;br&gt;BLAST bit score: 1810&lt;br&gt;E-value: 0.0" locus_tag="L083_RS14110" class="clusterblast-orf" id="dummy-1_h1_10_24"  />
</g>
<g id="a1_0025"  >
<polygon points="339,85 344,80 345,80 345,90 344,90 339,85 " style="fill:white; stroke-width:1; stroke:black; " description="&lt;b&gt;L083_RS14105&lt;/b&gt;&lt;br&gt;3-dehydroquinate synthase&lt;br&gt;Location: 3282964 - 3281939" locus_tag="L083_RS14105" class="clusterblast-orf" id="dummy-1_h1_10_25"  />
</g>
<g id="a1_0026"  >
<polygon points="345,85 349,80 349,90 345,85 " style="fill:#1515d8; stroke-width:1; stroke:black; " description="&lt;b&gt;L083_RS14100&lt;/b&gt;&lt;br&gt;HAD-IA family hydrolase&lt;br&gt;Location: 3281946 - 3281281&lt;br&gt;&lt;br&gt;&lt;b&gt;BlastP hit with LLPMBPKK_00322&lt;/b&gt;&lt;br&gt;Percentage identity: 70&lt;br&gt;Percentage coverage: 89&lt;br&gt;BLAST bit score: 283&lt;br&gt;E-value: 2.29e-95" locus_tag="L083_RS14100" class="clusterblast-orf" id="dummy-1_h1_10_26"  />
</g>
<g id="a1_0027"  >
<polygon points="349,85 354,80 355,80 355,90 354,90 349,85 " style="fill:#15d877; stroke-width:1; stroke:black; " description="&lt;b&gt;L083_RS14095&lt;/b&gt;&lt;br&gt;Gfo/Idh/MocA family oxidoreductase&lt;br&gt;Location: 3281296 - 3280232&lt;br&gt;&lt;br&gt;&lt;b&gt;BlastP hit with LLPMBPKK_00321&lt;/b&gt;&lt;br&gt;Percentage identity: 56&lt;br&gt;Percentage coverage: 94&lt;br&gt;BLAST bit score: 370&lt;br&gt;E-value: 2.2e-125" locus_tag="L083_RS14095" class="clusterblast-orf" id="dummy-1_h1_10_27"  />
</g>
<g id="a1_0028"  >
<polygon points="355,85 360,80 362,80 362,90 360,90 355,85 " style="fill:#d8d815; stroke-width:1; stroke:black; " description="&lt;b&gt;L083_RS14090&lt;/b&gt;&lt;br&gt;DegT/DnrJ/EryC1/StrS family aminotransferase&lt;br&gt;Location: 3280235 - 3279072&lt;br&gt;&lt;br&gt;&lt;b&gt;BlastP hit with LLPMBPKK_00320&lt;/b&gt;&lt;br&gt;Percentage identity: 74&lt;br&gt;Percentage coverage: 97&lt;br&gt;BLAST bit score: 562&lt;br&gt;E-value: 1.2e-200" locus_tag="L083_RS14090" class="clusterblast-orf" id="dummy-1_h1_10_28"  />
</g>
<g id="a1_0029"  >
<polygon points="363,90 365,85 363,80 363,90 " style="fill:#d815a7; stroke-width:1; stroke:black; " description="&lt;b&gt;L083_RS14085&lt;/b&gt;&lt;br&gt;3-dehydroquinate dehydratase&lt;br&gt;Location: 3278923 - 3278489&lt;br&gt;&lt;br&gt;&lt;b&gt;BlastP hit with LLPMBPKK_00319&lt;/b&gt;&lt;br&gt;Percentage identity: 52&lt;br&gt;Percentage coverage: 61&lt;br&gt;BLAST bit score: 87&lt;br&gt;E-value: 1.29e-20" locus_tag="L083_RS14085" class="clusterblast-orf" id="dummy-1_h1_10_29"  />
</g>
<g id="a1_0030"  >
<polygon points="365,90 370,90 375,85 370,80 365,80 365,90 " style="fill:#d815d8; stroke-width:1; stroke:black; " description="&lt;b&gt;L083_RS14080&lt;/b&gt;&lt;br&gt;bifunctional 3-(3-hydroxy-phenyl)propionate/3-hydroxycinnamic acid hydroxylase&lt;br&gt;Location: 3278485 - 3276911&lt;br&gt;&lt;br&gt;&lt;b&gt;BlastP hit with LLPMBPKK_00308&lt;/b&gt;&lt;br&gt;Percentage identity: 51&lt;br&gt;Percentage coverage: 97&lt;br&gt;BLAST bit score: 495&lt;br&gt;E-value: 1.65e-169" locus_tag="L083_RS14080" class="clusterblast-orf" id="dummy-1_h1_10_30"  />
</g>
<g id="a1_0031"  >
<polygon points="375,90 376,90 381,85 376,80 375,80 375,90 " style="fill:white; stroke-width:1; stroke:black; " description="&lt;b&gt;L083_RS14075&lt;/b&gt;&lt;br&gt;3-deoxy-7-phosphoheptulonate synthase&lt;br&gt;Location: 3276921 - 3275881" locus_tag="L083_RS14075" class="clusterblast-orf" id="dummy-1_h1_10_31"  />
</g>
<g id="a1_0032"  >
<polygon points="381,85 386,80 389,80 389,90 386,90 381,85 " style="fill:white; stroke-width:1; stroke:black; " description="&lt;b&gt;L083_RS14070&lt;/b&gt;&lt;br&gt;crotonyl-CoA carboxylase/reductase&lt;br&gt;Location: 3275865 - 3274540" locus_tag="L083_RS14070" class="clusterblast-orf" id="dummy-1_h1_10_32"  />
</g>
<g id="a1_0033"  >
<polygon points="389,85 394,80 403,80 403,90 394,90 389,85 " style="fill:white; stroke-width:1; stroke:black; " description="&lt;b&gt;L083_RS14065&lt;/b&gt;&lt;br&gt;MMPL family transporter&lt;br&gt;Location: 3274390 - 3272105" locus_tag="L083_RS14065" class="clusterblast-orf" id="dummy-1_h1_10_33"  />
</g>
<g id="a1_0034"  >
<polygon points="403,85 408,80 409,80 409,90 408,90 403,85 " style="fill:white; stroke-width:1; stroke:black; " description="&lt;b&gt;L083_RS14060&lt;/b&gt;&lt;br&gt;SDR family NAD(P)-dependent oxidoreductase&lt;br&gt;Location: 3272072 - 3271146" locus_tag="L083_RS14060" class="clusterblast-orf" id="dummy-1_h1_10_34"  />
</g>
<g id="a1_0035"  >
<polygon points="409,85 414,80 418,80 418,90 414,90 409,85 " style="fill:white; stroke-width:1; stroke:black; " description="&lt;b&gt;L083_RS14055&lt;/b&gt;&lt;br&gt;GMC family oxidoreductase&lt;br&gt;Location: 3271131 - 3269566" locus_tag="L083_RS14055" class="clusterblast-orf" id="dummy-1_h1_10_35"  />
</g>
<g id="a1_0036"  >
<polygon points="418,85 423,80 425,80 425,90 423,90 418,85 " style="fill:white; stroke-width:1; stroke:black; " description="&lt;b&gt;L083_RS14050&lt;/b&gt;&lt;br&gt;cytochrome P450&lt;br&gt;Location: 3269556 - 3268354" locus_tag="L083_RS14050" class="clusterblast-orf" id="dummy-1_h1_10_36"  />
</g>
<g id="a1_0037"  >
<polygon points="425,85 430,80 453,80 453,90 430,90 425,85 " style="fill:white; stroke-width:1; stroke:black; " description="&lt;b&gt;L083_RS40410&lt;/b&gt;&lt;br&gt;NAD-dependent epimerase/dehydratase family protein&lt;br&gt;Location: 3268325 - 3263607" locus_tag="L083_RS40410" class="clusterblast-orf" id="dummy-1_h1_10_37"  />
</g>
<g id="a1_0038"  >
<polygon points="453,85 458,80 508,80 508,90 458,90 453,85 " style="fill:#15d815; stroke-width:1; stroke:black; " description="&lt;b&gt;L083_RS40405&lt;/b&gt;&lt;br&gt;type I polyketide synthase&lt;br&gt;Location: 3263610 - 3254221&lt;br&gt;&lt;br&gt;&lt;b&gt;BlastP hit with LLPMBPKK_00310&lt;/b&gt;&lt;br&gt;Percentage identity: 34&lt;br&gt;Percentage coverage: 52&lt;br&gt;BLAST bit score: 673&lt;br&gt;E-value: 1.21e-193" locus_tag="L083_RS40405" class="clusterblast-orf" id="dummy-1_h1_10_38"  />
</g>
<g id="a1_0039"  >
<polygon points="510,90 512,85 510,80 510,90 " style="fill:white; stroke-width:1; stroke:black; " description="&lt;b&gt;L083_RS14030&lt;/b&gt;&lt;br&gt;hypothetical protein&lt;br&gt;Location: 3253882 - 3253553" locus_tag="L083_RS14030" class="clusterblast-orf" id="dummy-1_h1_10_39"  />
</g>
<g id="a1_0040"  >
<polygon points="512,90 520,90 525,85 520,80 512,80 512,90 " style="fill:white; stroke-width:1; stroke:black; " description="&lt;b&gt;L083_RS40400&lt;/b&gt;&lt;br&gt;caspase family protein&lt;br&gt;Location: 3253572 - 3251467" locus_tag="L083_RS40400" class="clusterblast-orf" id="dummy-1_h1_10_40"  />
</g>
<g id="a1_0041"  >
<polygon points="525,85 530,80 530,80 530,90 530,90 525,85 " style="fill:white; stroke-width:1; stroke:black; " description="&lt;b&gt;L083_RS14020&lt;/b&gt;&lt;br&gt;TauD/TfdA family dioxygenase&lt;br&gt;Location: 3251441 - 3250548" locus_tag="L083_RS14020" class="clusterblast-orf" id="dummy-1_h1_10_41"  />
</g>
<g id="a1_0042"  >
<polygon points="530,85 535,80 539,80 539,90 535,90 530,85 " style="fill:white; stroke-width:1; stroke:black; " description="&lt;b&gt;L083_RS14015&lt;/b&gt;&lt;br&gt;MFS transporter&lt;br&gt;Location: 3250487 - 3249042" locus_tag="L083_RS14015" class="clusterblast-orf" id="dummy-1_h1_10_42"  />
</g>
<g id="a1_0043"  >
<polygon points="538,85 543,80 547,80 547,90 543,90 538,85 " style="fill:white; stroke-width:1; stroke:black; " description="&lt;b&gt;L083_RS14010&lt;/b&gt;&lt;br&gt;amino acid adenylation domain-containing protein&lt;br&gt;Location: 3249208 - 3247670" locus_tag="L083_RS14010" class="clusterblast-orf" id="dummy-1_h1_10_43"  />
</g>
<g id="a1_0044"  >
<polygon points="547,85 551,80 551,90 547,85 " style="fill:white; stroke-width:1; stroke:black; " description="&lt;b&gt;L083_RS40395&lt;/b&gt;&lt;br&gt;AsuC14&lt;br&gt;Location: 3247673 - 3246942" locus_tag="L083_RS40395" class="clusterblast-orf" id="dummy-1_h1_10_44"  />
</g>
<g id="a1_0045"  >
<polygon points="551,85 555,80 555,90 551,85 " style="fill:white; stroke-width:1; stroke:black; " description="&lt;b&gt;L083_RS14000&lt;/b&gt;&lt;br&gt;methyltransferase&lt;br&gt;Location: 3246945 - 3246268" locus_tag="L083_RS14000" class="clusterblast-orf" id="dummy-1_h1_10_45"  />
</g>
<g id="a1_0046"  >
<polygon points="555,85 560,80 564,80 564,90 560,90 555,85 " style="fill:white; stroke-width:1; stroke:black; " description="&lt;b&gt;L083_RS13995&lt;/b&gt;&lt;br&gt;acyl--CoA ligase&lt;br&gt;Location: 3246271 - 3244808" locus_tag="L083_RS13995" class="clusterblast-orf" id="dummy-1_h1_10_46"  />
</g>
<g id="a1_0047"  >
<polygon points="564,85 569,80 571,80 571,90 569,90 564,85 " style="fill:white; stroke-width:1; stroke:black; " description="&lt;b&gt;L083_RS13990&lt;/b&gt;&lt;br&gt;beta-ketoacyl-[acyl-carrier-protein] synthase family protein&lt;br&gt;Location: 3244857 - 3243685" locus_tag="L083_RS13990" class="clusterblast-orf" id="dummy-1_h1_10_47"  />
</g>
<g id="a1_0048"  >
<polygon points="571,85 576,80 583,80 583,90 576,90 571,85 " style="fill:white; stroke-width:1; stroke:black; " description="&lt;b&gt;L083_RS13985&lt;/b&gt;&lt;br&gt;aminodeoxychorismate synthase component I&lt;br&gt;Location: 3243692 - 3241590" locus_tag="L083_RS13985" class="clusterblast-orf" id="dummy-1_h1_10_48"  />
</g>
<g id="a1_0049"  >
<polygon points="583,85 588,80 589,80 589,90 588,90 583,85 " style="fill:white; stroke-width:1; stroke:black; " description="&lt;b&gt;L083_RS13980&lt;/b&gt;&lt;br&gt;LLM class flavin-dependent oxidoreductase&lt;br&gt;Location: 3241593 - 3240586" locus_tag="L083_RS13980" class="clusterblast-orf" id="dummy-1_h1_10_49"  />
</g>
<g id="a1_0050"  >
<polygon points="589,85 594,80 594,80 594,90 594,90 589,85 " style="fill:white; stroke-width:1; stroke:black; " description="&lt;b&gt;L083_RS13975&lt;/b&gt;&lt;br&gt;hypothetical protein&lt;br&gt;Location: 3240589 - 3239645" locus_tag="L083_RS13975" class="clusterblast-orf" id="dummy-1_h1_10_50"  />
</g>
<g id="a1_0051"  >
<polygon points="594,85 596,80 596,90 594,85 " style="fill:white; stroke-width:1; stroke:black; " description="&lt;b&gt;L083_RS13970&lt;/b&gt;&lt;br&gt;hypothetical protein&lt;br&gt;Location: 3239655 - 3239374" locus_tag="L083_RS13970" class="clusterblast-orf" id="dummy-1_h1_10_51"  />
</g>
<g id="a1_0052"  >
<polygon points="596,85 601,80 604,80 604,90 601,90 596,85 " style="fill:white; stroke-width:1; stroke:black; " description="&lt;b&gt;L083_RS13965&lt;/b&gt;&lt;br&gt;FAD-dependent oxidoreductase&lt;br&gt;Location: 3239381 - 3237957" locus_tag="L083_RS13965" class="clusterblast-orf" id="dummy-1_h1_10_52"  />
</g>
<g id="a1_0053"  >
<polygon points="605,85 606,80 606,90 605,85 " style="fill:white; stroke-width:1; stroke:black; " description="&lt;b&gt;L083_RS13960&lt;/b&gt;&lt;br&gt;hypothetical protein&lt;br&gt;Location: 3237845 - 3237606" locus_tag="L083_RS13960" class="clusterblast-orf" id="dummy-1_h1_10_53"  />
</g>
<g id="a1_0054"  >
<polygon points="611,90 626,90 631,85 626,80 611,80 611,90 " style="fill:white; stroke-width:1; stroke:black; " description="&lt;b&gt;L083_RS13955&lt;/b&gt;&lt;br&gt;DUF4915 domain-containing protein&lt;br&gt;Location: 3236860 - 3233432" locus_tag="L083_RS13955" class="clusterblast-orf" id="dummy-1_h1_10_54"  />
</g>
<g id="a1_0055"  >
<polygon points="631,90 634,90 639,85 634,80 631,80 631,90 " style="fill:white; stroke-width:1; stroke:black; " description="&lt;b&gt;L083_RS13950&lt;/b&gt;&lt;br&gt;glycosyltransferase&lt;br&gt;Location: 3233475 - 3232027" locus_tag="L083_RS13950" class="clusterblast-orf" id="dummy-1_h1_10_55"  />
</g>
<g id="a1_0056"  >
<polygon points="639,90 640,90 645,85 640,80 639,80 639,90 " style="fill:white; stroke-width:1; stroke:black; " description="&lt;b&gt;L083_RS13945&lt;/b&gt;&lt;br&gt;aldo/keto reductase&lt;br&gt;Location: 3232046 - 3231069" locus_tag="L083_RS13945" class="clusterblast-orf" id="dummy-1_h1_10_56"  />
</g>
<g id="a1_0057"  >
<polygon points="645,90 649,90 654,85 649,80 645,80 645,90 " style="fill:white; stroke-width:1; stroke:black; " description="&lt;b&gt;L083_RS13940&lt;/b&gt;&lt;br&gt;DUF3459 domain-containing protein&lt;br&gt;Location: 3231053 - 3229473" locus_tag="L083_RS13940" class="clusterblast-orf" id="dummy-1_h1_10_57"  />
</g>
<g id="a1_0058"  >
<polygon points="654,90 660,90 665,85 660,80 654,80 654,90 " style="fill:white; stroke-width:1; stroke:black; " description="&lt;b&gt;L083_RS13935&lt;/b&gt;&lt;br&gt;hypothetical protein&lt;br&gt;Location: 3229468 - 3227594" locus_tag="L083_RS13935" class="clusterblast-orf" id="dummy-1_h1_10_58"  />
</g>
<g id="a1_0059"  >
<polygon points="666,90 666,90 671,85 666,80 666,80 666,90 " style="fill:white; stroke-width:1; stroke:black; " description="&lt;b&gt;L083_RS13930&lt;/b&gt;&lt;br&gt;glycosyltransferase&lt;br&gt;Location: 3227564 - 3226617" locus_tag="L083_RS13930" class="clusterblast-orf" id="dummy-1_h1_10_59"  />
</g>
<g id="a1_0060"  >
<polygon points="671,90 671,90 676,85 671,80 671,80 671,90 " style="fill:white; stroke-width:1; stroke:black; " description="&lt;b&gt;L083_RS13925&lt;/b&gt;&lt;br&gt;aminotransferase&lt;br&gt;Location: 3226604 - 3225831" locus_tag="L083_RS13925" class="clusterblast-orf" id="dummy-1_h1_10_60"  />
</g>
<g id="a1_0061"  >
<polygon points="675,85 680,80 680,80 680,90 680,90 675,85 " style="fill:white; stroke-width:1; stroke:black; " description="&lt;b&gt;L083_RS42190&lt;/b&gt;&lt;br&gt;HAMP domain-containing protein&lt;br&gt;Location: 3226042 - 3225080" locus_tag="L083_RS42190" class="clusterblast-orf" id="dummy-1_h1_10_61"  />
</g>
<g id="a1_0062"  >
<polygon points="682,85 686,80 686,90 682,85 " style="fill:white; stroke-width:1; stroke:black; " description="&lt;b&gt;L083_RS40390&lt;/b&gt;&lt;br&gt;phosphatase PAP2 family protein&lt;br&gt;Location: 3224804 - 3224058" locus_tag="L083_RS40390" class="clusterblast-orf" id="dummy-1_h1_10_62"  />
</g>
<g id="a1_0063"  >
<polygon points="686,85 691,80 694,80 694,90 691,90 686,85 " style="fill:white; stroke-width:1; stroke:black; " description="&lt;b&gt;L083_RS13910&lt;/b&gt;&lt;br&gt;HAMP domain-containing histidine kinase&lt;br&gt;Location: 3224173 - 3222779" locus_tag="L083_RS13910" class="clusterblast-orf" id="dummy-1_h1_10_63"  />
</g>
<g id="a1_0064"  >
<polygon points="694,90 698,85 694,80 694,90 " style="fill:#d84615; stroke-width:1; stroke:black; " description="&lt;b&gt;L083_RS13905&lt;/b&gt;&lt;br&gt;response regulator transcription factor&lt;br&gt;Location: 3222692 - 3222009&lt;br&gt;&lt;br&gt;&lt;b&gt;BlastP hit with LLPMBPKK_00297&lt;/b&gt;&lt;br&gt;Percentage identity: 36&lt;br&gt;Percentage coverage: 101&lt;br&gt;BLAST bit score: 132&lt;br&gt;E-value: 1.69e-36" locus_tag="L083_RS13905" class="clusterblast-orf" id="dummy-1_h1_10_64"  />
</g>
<g id="a1_0065"  >
<polygon points="698,85 703,80 703,80 703,90 703,90 698,85 " style="fill:#7715d8; stroke-width:1; stroke:black; " description="&lt;b&gt;L083_RS13900&lt;/b&gt;&lt;br&gt;hypothetical protein&lt;br&gt;Location: 3221991 - 3221248&lt;br&gt;&lt;br&gt;&lt;b&gt;BlastP hit with LLPMBPKK_00295&lt;/b&gt;&lt;br&gt;Percentage identity: 73&lt;br&gt;Percentage coverage: 83&lt;br&gt;BLAST bit score: 337&lt;br&gt;E-value: 1.64e-115" locus_tag="L083_RS13900" class="clusterblast-orf" id="dummy-1_h1_10_65"  />
</g>
<g id="a1_0066"  >
<polygon points="707,90 710,85 707,80 707,90 " style="fill:white; stroke-width:1; stroke:black; " description="&lt;b&gt;L083_RS13895&lt;/b&gt;&lt;br&gt;hypothetical protein&lt;br&gt;Location: 3220540 - 3220031" locus_tag="L083_RS13895" class="clusterblast-orf" id="dummy-1_h1_10_66"  />
</g>
<g id="a1_0067"  >
<polygon points="711,90 713,90 718,85 713,80 711,80 711,90 " style="fill:white; stroke-width:1; stroke:black; " description="&lt;b&gt;L083_RS13890&lt;/b&gt;&lt;br&gt;MFS transporter&lt;br&gt;Location: 3219835 - 3218687" locus_tag="L083_RS13890" class="clusterblast-orf" id="dummy-1_h1_10_67"  />
</g>
<g id="a1_0068"  >
<polygon points="719,90 720,90 725,85 720,80 719,80 719,90 " style="fill:white; stroke-width:1; stroke:black; " description="&lt;b&gt;L083_RS13885&lt;/b&gt;&lt;br&gt;hypothetical protein&lt;br&gt;Location: 3218513 - 3217467" locus_tag="L083_RS13885" class="clusterblast-orf" id="dummy-1_h1_10_68"  />
</g>
<g id="a1_0069"  >
<polygon points="725,85 730,80 730,80 730,90 730,90 725,85 " style="fill:white; stroke-width:1; stroke:black; " description="&lt;b&gt;L083_RS40385&lt;/b&gt;&lt;br&gt;hypothetical protein&lt;br&gt;Location: 3217430 - 3216729" locus_tag="L083_RS40385" class="clusterblast-orf" id="dummy-1_h1_10_69"  />
</g>
<g id="a1_0070"  >
<polygon points="730,85 733,80 733,90 730,85 " style="fill:white; stroke-width:1; stroke:black; " description="&lt;b&gt;L083_RS13875&lt;/b&gt;&lt;br&gt;response regulator transcription factor&lt;br&gt;Location: 3216720 - 3216070" locus_tag="L083_RS13875" class="clusterblast-orf" id="dummy-1_h1_10_70"  />
</g>
<g id="a1_0071"  >
<polygon points="733,85 738,80 741,80 741,90 738,90 733,85 " style="fill:white; stroke-width:1; stroke:black; " description="&lt;b&gt;L083_RS13870&lt;/b&gt;&lt;br&gt;hypothetical protein&lt;br&gt;Location: 3216082 - 3214748" locus_tag="L083_RS13870" class="clusterblast-orf" id="dummy-1_h1_10_71"  />
</g>
<g id="a1_0072"  >
<polygon points="741,85 742,80 742,90 741,85 " style="fill:white; stroke-width:1; stroke:black; " description="&lt;b&gt;L083_RS13865&lt;/b&gt;&lt;br&gt;hypothetical protein&lt;br&gt;Location: 3214770 - 3214564" locus_tag="L083_RS13865" class="clusterblast-orf" id="dummy-1_h1_10_72"  />
</g>
<g id="a1_0073"  >
<polygon points="743,90 747,85 743,80 743,90 " style="fill:white; stroke-width:1; stroke:black; " description="&lt;b&gt;L083_RS40380&lt;/b&gt;&lt;br&gt;helix-turn-helix transcriptional regulator&lt;br&gt;Location: 3214365 - 3213727" locus_tag="L083_RS40380" class="clusterblast-orf" id="dummy-1_h1_10_73"  />
</g>
<g id="a1_0074"  >
<polygon points="747,85 750,80 750,90 747,85 " style="fill:white; stroke-width:1; stroke:black; " description="&lt;b&gt;L083_RS13850&lt;/b&gt;&lt;br&gt;sigma-70 family RNA polymerase sigma factor&lt;br&gt;Location: 3213717 - 3213178" locus_tag="L083_RS13850" class="clusterblast-orf" id="dummy-1_h1_10_74"  />
</g>
<g id="a1_0075"  >
<polygon points="752,90 753,90 758,85 753,80 752,80 752,90 " style="fill:#77d815; stroke-width:1; stroke:black; " description="&lt;b&gt;L083_RS13845&lt;/b&gt;&lt;br&gt;sensor histidine kinase&lt;br&gt;Location: 3212936 - 3211863&lt;br&gt;&lt;br&gt;&lt;b&gt;BlastP hit with LLPMBPKK_00291&lt;/b&gt;&lt;br&gt;Percentage identity: 40&lt;br&gt;Percentage coverage: 84&lt;br&gt;BLAST bit score: 132&lt;br&gt;E-value: 3e-34" locus_tag="L083_RS13845" class="clusterblast-orf" id="dummy-1_h1_10_75"  />
</g>
<g id="a1_0076"  >
<polygon points="758,90 762,85 758,80 758,90 " style="fill:#15d8d8; stroke-width:1; stroke:black; " description="&lt;b&gt;L083_RS13840&lt;/b&gt;&lt;br&gt;response regulator transcription factor&lt;br&gt;Location: 3211866 - 3211165&lt;br&gt;&lt;br&gt;&lt;b&gt;BlastP hit with LLPMBPKK_00292&lt;/b&gt;&lt;br&gt;Percentage identity: 52&lt;br&gt;Percentage coverage: 86&lt;br&gt;BLAST bit score: 200&lt;br&gt;E-value: 3.66e-62" locus_tag="L083_RS13840" class="clusterblast-orf" id="dummy-1_h1_10_76"  />
</g>
<g id="a1_0077"  >
<polygon points="763,85 768,80 768,80 768,90 768,90 763,85 " style="fill:white; stroke-width:1; stroke:black; " description="&lt;b&gt;L083_RS13835&lt;/b&gt;&lt;br&gt;AraC family transcriptional regulator&lt;br&gt;Location: 3211122 - 3210235" locus_tag="L083_RS13835" class="clusterblast-orf" id="dummy-1_h1_10_77"  />
</g>
<g id="a1_0078"  >
<polygon points="768,90 769,90 774,85 769,80 768,80 768,90 " style="fill:white; stroke-width:1; stroke:black; " description="&lt;b&gt;L083_RS13830&lt;/b&gt;&lt;br&gt;NAD(P)/FAD-dependent oxidoreductase&lt;br&gt;Location: 3210155 - 3209244" locus_tag="L083_RS13830" class="clusterblast-orf" id="dummy-1_h1_10_78"  />
</g>
<g id="a1_0079"  >
<polygon points="774,85 779,80 780,80 780,90 779,90 774,85 " style="fill:white; stroke-width:1; stroke:black; " description="&lt;b&gt;L083_RS13825&lt;/b&gt;&lt;br&gt;NAD-dependent epimerase/dehydratase family protein&lt;br&gt;Location: 3209178 - 3208255" locus_tag="L083_RS13825" class="clusterblast-orf" id="dummy-1_h1_10_79"  />
</g>
</svg>
