<svg xmlns="http://www.w3.org/2000/svg" xmlns:xlink="http://www.w3.org/1999/xlink" version="1.1" x="0" y="0" height="230" width="800" viewBox="0 0 800 230" preserveAspectRatio="none"  >
<g label="Query sequence" class="clusterblast-cluster"  >
<text x="5" y="20" class="clusterblast-acc"  >
Query sequence</text>
<line x1="10" y1="35" x2="778.0" y2="35" style="stroke-width:1; stroke:grey; "  />
<polygon points="0,35 5,30 29,30 29,40 5,40 0,35 " style="fill:#d81515; stroke-width:1; stroke:black; " description="&lt;b&gt;LLPMBPKK_06758&lt;/b&gt;&lt;br&gt;cation transporter&lt;br&gt;Location: 7791080 - 7792022" locus_tag="LLPMBPKK_06758" class="clusterblast-orf" id="dummy-29_q0_0_all"  />
<polygon points="35,35 40,30 65,30 65,40 40,40 35,35 " style="fill:#6ad815; stroke-width:1; stroke:black; " description="&lt;b&gt;LLPMBPKK_06759&lt;/b&gt;&lt;br&gt;UDP-glucose 4-epimerase GalE&lt;br&gt;Location: 7792229 - 7793201" locus_tag="LLPMBPKK_06759" class="clusterblast-orf" id="dummy-29_q1_0_all"  />
<polygon points="73,40 123,40 128,35 123,30 73,30 73,40 " style="fill:#15bfd8; stroke-width:1; stroke:black; " description="&lt;b&gt;LLPMBPKK_06760&lt;/b&gt;&lt;br&gt;CDP-alcohol phosphatidyltransferase familyprotein&lt;br&gt;Location: 7793467 - 7795288" locus_tag="LLPMBPKK_06760" class="clusterblast-orf" id="dummy-29_q2_0_all"  />
<polygon points="128,40 146,40 151,35 146,30 128,30 128,40 " style="fill:#9d15d8; stroke-width:1; stroke:black; " description="&lt;b&gt;LLPMBPKK_06761&lt;/b&gt;&lt;br&gt;phosphocholine cytidylyltransferase familyprotein&lt;br&gt;Location: 7795284 - 7796037" locus_tag="LLPMBPKK_06761" class="clusterblast-orf" id="dummy-29_q3_0_all"  />
<polygon points="151,40 178,40 183,35 178,30 151,30 151,40 " style="fill:#d84815; stroke-width:1; stroke:black; " description="&lt;b&gt;LLPMBPKK_06762&lt;/b&gt;&lt;br&gt;iron-containing alcohol dehydrogenase familyprotein&lt;br&gt;Location: 7796024 - 7797086" locus_tag="LLPMBPKK_06762" class="clusterblast-orf" id="dummy-29_q4_0_all"  />
<polygon points="185,40 201,40 206,35 201,30 185,30 185,40 " style="fill:#37d815; stroke-width:1; stroke:black; " description="&lt;b&gt;LLPMBPKK_06763&lt;/b&gt;&lt;br&gt;transferase&lt;br&gt;Location: 7797159 - 7797843" locus_tag="LLPMBPKK_06763" class="clusterblast-orf" id="dummy-29_q5_0_all"  />
<polygon points="207,40 228,40 233,35 228,30 207,30 207,40 " style="fill:#158cd8; stroke-width:1; stroke:black; " description="&lt;b&gt;LLPMBPKK_06764&lt;/b&gt;&lt;br&gt;glycosyltransferase family 2 protein&lt;br&gt;Location: 7797851 - 7798724" locus_tag="LLPMBPKK_06764" class="clusterblast-orf" id="dummy-29_q6_0_all"  />
<polygon points="236,40 259,40 264,35 259,30 236,30 236,40 " style="fill:#d015d8; stroke-width:1; stroke:black; " description="&lt;b&gt;LLPMBPKK_06765&lt;/b&gt;&lt;br&gt;ABC transporter&lt;br&gt;Location: 7798813 - 7799743" locus_tag="LLPMBPKK_06765" class="clusterblast-orf" id="dummy-29_q7_0_all"  />
<polygon points="264,40 283,40 288,35 283,30 264,30 264,40 " style="fill:#d87b15; stroke-width:1; stroke:black; " description="&lt;b&gt;LLPMBPKK_06766&lt;/b&gt;&lt;br&gt;ABC transporter ATP-binding protein&lt;br&gt;Location: 7799735 - 7800524" locus_tag="LLPMBPKK_06766" class="clusterblast-orf" id="dummy-29_q8_0_all"  />
<polygon points="299,40 322,40 327,35 322,30 299,30 299,40 " style="fill:#15d826; stroke-width:1; stroke:black; " description="&lt;b&gt;LLPMBPKK_06767&lt;/b&gt;&lt;br&gt;squalene synthase HpnC&lt;br&gt;Location: 7800884 - 7801781" locus_tag="LLPMBPKK_06767" class="clusterblast-orf" id="dummy-29_q9_0_all"  />
<polygon points="327,40 351,40 356,35 351,30 327,30 327,40 " style="fill:#15d826; stroke-width:1; stroke:black; " description="&lt;b&gt;LLPMBPKK_06768&lt;/b&gt;&lt;br&gt;presqualene diphosphate synthase HpnD&lt;br&gt;Location: 7801777 - 7802740" locus_tag="LLPMBPKK_06768" class="clusterblast-orf" id="dummy-29_q10_0_all"  />
<polygon points="363,40 402,40 407,35 402,30 363,30 363,40 " style="fill:#1559d8; stroke-width:1; stroke:black; " description="&lt;b&gt;LLPMBPKK_06769&lt;/b&gt;&lt;br&gt;FAD-dependent oxidoreductase&lt;br&gt;Location: 7802978 - 7804406" locus_tag="LLPMBPKK_06769" class="clusterblast-orf" id="dummy-29_q11_0_all"  />
<polygon points="407,40 436,40 441,35 436,30 407,30 407,40 " style="fill:#d815ae; stroke-width:1; stroke:black; " description="&lt;b&gt;LLPMBPKK_06770&lt;/b&gt;&lt;br&gt;polyprenyl synthetase family protein&lt;br&gt;Location: 7804405 - 7805539" locus_tag="LLPMBPKK_06770" class="clusterblast-orf" id="dummy-29_q12_0_all"  />
<polygon points="445,40 502,40 507,35 502,30 445,30 445,40 " style="fill:#d8ae15; stroke-width:1; stroke:black; " description="&lt;b&gt;LLPMBPKK_06771&lt;/b&gt;&lt;br&gt;squalene--hopene cyclase&lt;br&gt;Location: 7805655 - 7807686" locus_tag="LLPMBPKK_06771" class="clusterblast-orf" id="dummy-29_q13_0_all"  />
<polygon points="507,40 522,40 527,35 522,30 507,30 507,40 " style="fill:#15d859; stroke-width:1; stroke:black; " description="&lt;b&gt;LLPMBPKK_06772&lt;/b&gt;&lt;br&gt;lipoprotein&lt;br&gt;Location: 7807682 - 7808324" locus_tag="LLPMBPKK_06772" class="clusterblast-orf" id="dummy-29_q14_0_all"  />
<polygon points="527,40 553,40 558,35 553,30 527,30 527,40 " style="fill:#1526d8; stroke-width:1; stroke:black; " description="&lt;b&gt;LLPMBPKK_06773&lt;/b&gt;&lt;br&gt;adenosyl-hopene transferase HpnH&lt;br&gt;Location: 7808329 - 7809352" locus_tag="LLPMBPKK_06773" class="clusterblast-orf" id="dummy-29_q15_0_all"  />
<polygon points="558,40 588,40 593,35 588,30 558,30 558,40 " style="fill:#d8157b; stroke-width:1; stroke:black; " description="&lt;b&gt;LLPMBPKK_06774&lt;/b&gt;&lt;br&gt;flavodoxin-dependent (E)-4-hydroxy-3-methylbut-2-enyl-diphosphate synthase&lt;br&gt;Location: 7809356 - 7810484" locus_tag="LLPMBPKK_06774" class="clusterblast-orf" id="dummy-29_q16_0_all"  />
<polygon points="594,40 647,40 652,35 647,30 594,30 594,40 " style="fill:#d0d815; stroke-width:1; stroke:black; " description="&lt;b&gt;LLPMBPKK_06775&lt;/b&gt;&lt;br&gt;1-deoxy-D-xylulose-5-phosphate synthase&lt;br&gt;Location: 7810521 - 7812420" locus_tag="LLPMBPKK_06775" class="clusterblast-orf" id="dummy-29_q17_0_all"  />
<polygon points="652,40 689,40 694,35 689,30 652,30 652,40 " style="fill:#15d88c; stroke-width:1; stroke:black; " description="&lt;b&gt;LLPMBPKK_06776&lt;/b&gt;&lt;br&gt;aspartate aminotransferase family protein&lt;br&gt;Location: 7812416 - 7813802" locus_tag="LLPMBPKK_06776" class="clusterblast-orf" id="dummy-29_q18_0_all"  />
<polygon points="694,35 699,30 703,30 703,40 699,40 694,35 " style="fill:#3715d8; stroke-width:1; stroke:black; " description="&lt;b&gt;LLPMBPKK_06777&lt;/b&gt;&lt;br&gt;hypothetical protein&lt;br&gt;Location: 7813812 - 7814088" locus_tag="LLPMBPKK_06777" class="clusterblast-orf" id="dummy-29_q19_0_all"  />
<polygon points="707,40 721,40 726,35 721,30 707,30 707,40 " style="fill:#d81548; stroke-width:1; stroke:black; " description="&lt;b&gt;LLPMBPKK_06778&lt;/b&gt;&lt;br&gt;XRE family transcriptional regulator&lt;br&gt;Location: 7814226 - 7814856" locus_tag="LLPMBPKK_06778" class="clusterblast-orf" id="dummy-29_q20_0_all"  />
<polygon points="726,40 730,35 726,30 726,40 " style="fill:#9dd815; stroke-width:1; stroke:black; " description="&lt;b&gt;LLPMBPKK_06779&lt;/b&gt;&lt;br&gt;small hydrophobic hypothetical protein&lt;br&gt;Location: 7814852 - 7814975" locus_tag="LLPMBPKK_06779" class="clusterblast-orf" id="dummy-29_q21_0_all"  />
<polygon points="731,40 750,40 755,35 750,30 731,30 731,40 " style="fill:#15d8bf; stroke-width:1; stroke:black; " description="&lt;b&gt;LLPMBPKK_06780&lt;/b&gt;&lt;br&gt;hypothetical protein&lt;br&gt;Location: 7815004 - 7815805" locus_tag="LLPMBPKK_06780" class="clusterblast-orf" id="dummy-29_q22_0_all"  />
<polygon points="755,35 760,30 780,30 780,40 760,40 755,35 " style="fill:#6a15d8; stroke-width:1; stroke:black; " description="&lt;b&gt;LLPMBPKK_06781&lt;/b&gt;&lt;br&gt;tyrosine-protein phosphatase&lt;br&gt;Location: 7815818 - 7816616" locus_tag="LLPMBPKK_06781" class="clusterblast-orf" id="dummy-29_q23_0_all"  />
</g>
<g label="NZ_CP048641" description="NZ_CP048641 (1367335-1391690): Streptomyces aureoverticillatus strain HN6 chr... (100% of genes show similarity), terpene" class="clusterblast-cluster"  >
<text x="5" y="70" class="clusterblast-acc"  >
<a xlink:href="https://antismash-db.secondarymetabolites.org/area.html?record=NZ_CP048641&amp;start=1367335&amp;end=1391690" target="_blank">NZ_CP048641 (1367335-1391690)</a>: Streptomyces aureoverticillatus strain HN6 chr... (100% of genes show similarity), terpene</text>
<line x1="10" y1="85" x2="778.0" y2="85" style="stroke-width:1; stroke:grey; "  />
</g>
<g id="a29_000"  >
<polygon points="18,85 23,80 46,80 46,90 23,90 18,85 " style="fill:#d81515; stroke-width:1; stroke:black; " description="&lt;b&gt;G3H79_RS04660&lt;/b&gt;&lt;br&gt;cation transporter&lt;br&gt;Location: 1391690 - 1390758&lt;br&gt;&lt;br&gt;&lt;b&gt;BlastP hit with LLPMBPKK_06758&lt;/b&gt;&lt;br&gt;Percentage identity: 86&lt;br&gt;Percentage coverage: 88&lt;br&gt;BLAST bit score: 452&lt;br&gt;E-value: 1.38e-159" locus_tag="G3H79_RS04660" class="clusterblast-orf" id="dummy-29_h29_7_0"  />
</g>
<g id="a29_001"  >
<polygon points="52,85 57,80 82,80 82,90 57,90 52,85 " style="fill:#6ad815; stroke-width:1; stroke:black; " description="&lt;b&gt;G3H79_RS04655&lt;/b&gt;&lt;br&gt;UDP-glucose 4-epimerase GalE&lt;br&gt;Location: 1390561 - 1389581&lt;br&gt;&lt;br&gt;&lt;b&gt;BlastP hit with LLPMBPKK_06759&lt;/b&gt;&lt;br&gt;Percentage identity: 77&lt;br&gt;Percentage coverage: 100&lt;br&gt;BLAST bit score: 493&lt;br&gt;E-value: 2.67e-175" locus_tag="G3H79_RS04655" class="clusterblast-orf" id="dummy-29_h29_7_1"  />
</g>
<g id="a29_002"  >
<polygon points="90,90 142,90 147,85 142,80 90,80 90,90 " style="fill:#15bfd8; stroke-width:1; stroke:black; " description="&lt;b&gt;G3H79_RS04650&lt;/b&gt;&lt;br&gt;CDP-alcohol phosphatidyltransferase family protein&lt;br&gt;Location: 1389316 - 1387445&lt;br&gt;&lt;br&gt;&lt;b&gt;BlastP hit with LLPMBPKK_06760&lt;/b&gt;&lt;br&gt;Percentage identity: 76&lt;br&gt;Percentage coverage: 103&lt;br&gt;BLAST bit score: 847&lt;br&gt;E-value: 1.8e-305" locus_tag="G3H79_RS04650" class="clusterblast-orf" id="dummy-29_h29_7_2"  />
</g>
<g id="a29_003"  >
<polygon points="147,90 165,90 170,85 165,80 147,80 147,90 " style="fill:#9d15d8; stroke-width:1; stroke:black; " description="&lt;b&gt;G3H79_RS04645&lt;/b&gt;&lt;br&gt;phosphocholine cytidylyltransferase family protein&lt;br&gt;Location: 1387448 - 1386696&lt;br&gt;&lt;br&gt;&lt;b&gt;BlastP hit with LLPMBPKK_06761&lt;/b&gt;&lt;br&gt;Percentage identity: 89&lt;br&gt;Percentage coverage: 100&lt;br&gt;BLAST bit score: 451&lt;br&gt;E-value: 2.64e-161" locus_tag="G3H79_RS04645" class="clusterblast-orf" id="dummy-29_h29_7_3"  />
</g>
<g id="a29_004"  >
<polygon points="170,90 197,90 202,85 197,80 170,80 170,90 " style="fill:#d84815; stroke-width:1; stroke:black; " description="&lt;b&gt;G3H79_RS04640&lt;/b&gt;&lt;br&gt;iron-containing alcohol dehydrogenase family protein&lt;br&gt;Location: 1386708 - 1385644&lt;br&gt;&lt;br&gt;&lt;b&gt;BlastP hit with LLPMBPKK_06762&lt;/b&gt;&lt;br&gt;Percentage identity: 84&lt;br&gt;Percentage coverage: 100&lt;br&gt;BLAST bit score: 594&lt;br&gt;E-value: 2.18e-214" locus_tag="G3H79_RS04640" class="clusterblast-orf" id="dummy-29_h29_7_4"  />
</g>
<g id="a29_005"  >
<polygon points="202,90 220,90 225,85 220,80 202,80 202,90 " style="fill:#37d815; stroke-width:1; stroke:black; " description="&lt;b&gt;G3H79_RS04635&lt;/b&gt;&lt;br&gt;CDP-alcohol phosphatidyltransferase family protein&lt;br&gt;Location: 1385666 - 1384887&lt;br&gt;&lt;br&gt;&lt;b&gt;BlastP hit with LLPMBPKK_06763&lt;/b&gt;&lt;br&gt;Percentage identity: 88&lt;br&gt;Percentage coverage: 100&lt;br&gt;BLAST bit score: 375&lt;br&gt;E-value: 3.01e-131" locus_tag="G3H79_RS04635" class="clusterblast-orf" id="dummy-29_h29_7_5"  />
</g>
<g id="a29_006"  >
<polygon points="226,90 248,90 253,85 248,80 226,80 226,90 " style="fill:#158cd8; stroke-width:1; stroke:black; " description="&lt;b&gt;G3H79_RS04630&lt;/b&gt;&lt;br&gt;glycosyltransferase family 2 protein&lt;br&gt;Location: 1384860 - 1383988&lt;br&gt;&lt;br&gt;&lt;b&gt;BlastP hit with LLPMBPKK_06764&lt;/b&gt;&lt;br&gt;Percentage identity: 92&lt;br&gt;Percentage coverage: 100&lt;br&gt;BLAST bit score: 547&lt;br&gt;E-value: 6.4e-198" locus_tag="G3H79_RS04630" class="clusterblast-orf" id="dummy-29_h29_7_6"  />
</g>
<g id="a29_007"  >
<polygon points="256,90 279,90 284,85 279,80 256,80 256,90 " style="fill:#d015d8; stroke-width:1; stroke:black; " description="&lt;b&gt;G3H79_RS04625&lt;/b&gt;&lt;br&gt;ABC transporter permease&lt;br&gt;Location: 1383889 - 1382960&lt;br&gt;&lt;br&gt;&lt;b&gt;BlastP hit with LLPMBPKK_06765&lt;/b&gt;&lt;br&gt;Percentage identity: 88&lt;br&gt;Percentage coverage: 100&lt;br&gt;BLAST bit score: 539&lt;br&gt;E-value: 4.38e-194" locus_tag="G3H79_RS04625" class="clusterblast-orf" id="dummy-29_h29_7_7"  />
</g>
<g id="a29_008"  >
<polygon points="285,90 303,90 308,85 303,80 285,80 285,90 " style="fill:#d87b15; stroke-width:1; stroke:black; " description="&lt;b&gt;G3H79_RS04620&lt;/b&gt;&lt;br&gt;ABC transporter ATP-binding protein&lt;br&gt;Location: 1382943 - 1382167&lt;br&gt;&lt;br&gt;&lt;b&gt;BlastP hit with LLPMBPKK_06766&lt;/b&gt;&lt;br&gt;Percentage identity: 94&lt;br&gt;Percentage coverage: 96&lt;br&gt;BLAST bit score: 457&lt;br&gt;E-value: 2.96e-163" locus_tag="G3H79_RS04620" class="clusterblast-orf" id="dummy-29_h29_7_8"  />
</g>
<g id="a29_009"  >
<polygon points="319,90 341,90 346,85 341,80 319,80 319,90 " style="fill:#15d826; stroke-width:1; stroke:black; " description="&lt;b&gt;G3H79_RS04615&lt;/b&gt;&lt;br&gt;squalene synthase HpnC&lt;br&gt;Location: 1381831 - 1380929&lt;br&gt;&lt;br&gt;&lt;b&gt;BlastP hit with LLPMBPKK_06767&lt;/b&gt;&lt;br&gt;Percentage identity: 79&lt;br&gt;Percentage coverage: 96&lt;br&gt;BLAST bit score: 439&lt;br&gt;E-value: 5.66e-155" locus_tag="G3H79_RS04615" class="clusterblast-orf" id="dummy-29_h29_7_9"  />
</g>
<g id="a29_0010"  >
<polygon points="346,90 370,90 375,85 370,80 346,80 346,90 " style="fill:#15d826; stroke-width:1; stroke:black; " description="&lt;b&gt;G3H79_RS04610&lt;/b&gt;&lt;br&gt;presqualene diphosphate synthase HpnD&lt;br&gt;Location: 1380932 - 1379982&lt;br&gt;&lt;br&gt;&lt;b&gt;BlastP hit with LLPMBPKK_06767&lt;/b&gt;&lt;br&gt;Percentage identity: 32&lt;br&gt;Percentage coverage: 79&lt;br&gt;BLAST bit score: 86&lt;br&gt;E-value: 3.25e-17&lt;br&gt;&lt;br&gt;&lt;b&gt;BlastP hit with LLPMBPKK_06768&lt;/b&gt;&lt;br&gt;Percentage identity: 88&lt;br&gt;Percentage coverage: 98&lt;br&gt;BLAST bit score: 536&lt;br&gt;E-value: 1.02e-192" locus_tag="G3H79_RS04610" class="clusterblast-orf" id="dummy-29_h29_7_10"  />
</g>
<g id="a29_0011"  >
<polygon points="379,90 416,90 421,85 416,80 379,80 379,90 " style="fill:#1559d8; stroke-width:1; stroke:black; " description="&lt;b&gt;G3H79_RS04605&lt;/b&gt;&lt;br&gt;NAD(P)-binding protein&lt;br&gt;Location: 1379872 - 1378466&lt;br&gt;&lt;br&gt;&lt;b&gt;BlastP hit with LLPMBPKK_06769&lt;/b&gt;&lt;br&gt;Percentage identity: 82&lt;br&gt;Percentage coverage: 95&lt;br&gt;BLAST bit score: 715&lt;br&gt;E-value: 2.78e-258" locus_tag="G3H79_RS04605" class="clusterblast-orf" id="dummy-29_h29_7_11"  />
</g>
<g id="a29_0012"  >
<polygon points="421,90 451,90 456,85 451,80 421,80 421,90 " style="fill:#d815ae; stroke-width:1; stroke:black; " description="&lt;b&gt;G3H79_RS04600&lt;/b&gt;&lt;br&gt;polyprenyl synthetase family protein&lt;br&gt;Location: 1378469 - 1377345&lt;br&gt;&lt;br&gt;&lt;b&gt;BlastP hit with LLPMBPKK_06770&lt;/b&gt;&lt;br&gt;Percentage identity: 88&lt;br&gt;Percentage coverage: 99&lt;br&gt;BLAST bit score: 628&lt;br&gt;E-value: 6.63e-227" locus_tag="G3H79_RS04600" class="clusterblast-orf" id="dummy-29_h29_7_12"  />
</g>
<g id="a29_0013"  >
<polygon points="459,90 515,90 520,85 515,80 459,80 459,90 " style="fill:#d8ae15; stroke-width:1; stroke:black; " description="&lt;b&gt;G3H79_RS04595&lt;/b&gt;&lt;br&gt;squalene--hopene cyclase&lt;br&gt;Location: 1377239 - 1375242&lt;br&gt;&lt;br&gt;&lt;b&gt;BlastP hit with LLPMBPKK_06771&lt;/b&gt;&lt;br&gt;Percentage identity: 83&lt;br&gt;Percentage coverage: 97&lt;br&gt;BLAST bit score: 1095&lt;br&gt;E-value: 0.0" locus_tag="G3H79_RS04595" class="clusterblast-orf" id="dummy-29_h29_7_13"  />
</g>
<g id="a29_0014"  >
<polygon points="520,90 535,90 540,85 535,80 520,80 520,90 " style="fill:#15d859; stroke-width:1; stroke:black; " description="&lt;b&gt;G3H79_RS04590&lt;/b&gt;&lt;br&gt;1-hydroxy-2-methyl-2-butenyl 4-diphosphate reductase&lt;br&gt;Location: 1375245 - 1374595&lt;br&gt;&lt;br&gt;&lt;b&gt;BlastP hit with LLPMBPKK_06772&lt;/b&gt;&lt;br&gt;Percentage identity: 80&lt;br&gt;Percentage coverage: 101&lt;br&gt;BLAST bit score: 329&lt;br&gt;E-value: 5.05e-114" locus_tag="G3H79_RS04590" class="clusterblast-orf" id="dummy-29_h29_7_14"  />
</g>
<g id="a29_0015"  >
<polygon points="540,90 566,90 571,85 566,80 540,80 540,90 " style="fill:#1526d8; stroke-width:1; stroke:black; " description="&lt;b&gt;G3H79_RS04585&lt;/b&gt;&lt;br&gt;adenosyl-hopene transferase HpnH&lt;br&gt;Location: 1374589 - 1373570&lt;br&gt;&lt;br&gt;&lt;b&gt;BlastP hit with LLPMBPKK_06773&lt;/b&gt;&lt;br&gt;Percentage identity: 95&lt;br&gt;Percentage coverage: 100&lt;br&gt;BLAST bit score: 675&lt;br&gt;E-value: 1.05e-246" locus_tag="G3H79_RS04585" class="clusterblast-orf" id="dummy-29_h29_7_15"  />
</g>
<g id="a29_0016"  >
<polygon points="571,90 602,90 607,85 602,80 571,80 571,90 " style="fill:#d8157b; stroke-width:1; stroke:black; " description="&lt;b&gt;G3H79_RS04580&lt;/b&gt;&lt;br&gt;flavodoxin-dependent (E)-4-hydroxy-3-methylbut-2-enyl-diphosphate synthase&lt;br&gt;Location: 1373565 - 1372399&lt;br&gt;&lt;br&gt;&lt;b&gt;BlastP hit with LLPMBPKK_06774&lt;/b&gt;&lt;br&gt;Percentage identity: 90&lt;br&gt;Percentage coverage: 99&lt;br&gt;BLAST bit score: 641&lt;br&gt;E-value: 6.82e-232" locus_tag="G3H79_RS04580" class="clusterblast-orf" id="dummy-29_h29_7_16"  />
</g>
<g id="a29_0017"  >
<polygon points="608,90 663,90 668,85 663,80 608,80 608,90 " style="fill:#d0d815; stroke-width:1; stroke:black; " description="&lt;b&gt;G3H79_RS04575&lt;/b&gt;&lt;br&gt;1-deoxy-D-xylulose-5-phosphate synthase&lt;br&gt;Location: 1372374 - 1370401&lt;br&gt;&lt;br&gt;&lt;b&gt;BlastP hit with LLPMBPKK_06775&lt;/b&gt;&lt;br&gt;Percentage identity: 88&lt;br&gt;Percentage coverage: 100&lt;br&gt;BLAST bit score: 1107&lt;br&gt;E-value: 0.0" locus_tag="G3H79_RS04575" class="clusterblast-orf" id="dummy-29_h29_7_17"  />
</g>
<g id="a29_0018"  >
<polygon points="668,90 705,90 710,85 705,80 668,80 668,90 " style="fill:#15d88c; stroke-width:1; stroke:black; " description="&lt;b&gt;G3H79_RS04570&lt;/b&gt;&lt;br&gt;aspartate aminotransferase family protein&lt;br&gt;Location: 1370398 - 1369004&lt;br&gt;&lt;br&gt;&lt;b&gt;BlastP hit with LLPMBPKK_06776&lt;/b&gt;&lt;br&gt;Percentage identity: 90&lt;br&gt;Percentage coverage: 100&lt;br&gt;BLAST bit score: 840&lt;br&gt;E-value: 6.32e-308" locus_tag="G3H79_RS04570" class="clusterblast-orf" id="dummy-29_h29_7_18"  />
</g>
<g id="a29_0019"  >
<polygon points="712,90 727,90 732,85 727,80 712,80 712,90 " style="fill:#d81548; stroke-width:1; stroke:black; " description="&lt;b&gt;G3H79_RS04565&lt;/b&gt;&lt;br&gt;helix-turn-helix transcriptional regulator&lt;br&gt;Location: 1368944 - 1368312&lt;br&gt;&lt;br&gt;&lt;b&gt;BlastP hit with LLPMBPKK_06778&lt;/b&gt;&lt;br&gt;Percentage identity: 84&lt;br&gt;Percentage coverage: 94&lt;br&gt;BLAST bit score: 321&lt;br&gt;E-value: 3.88e-111" locus_tag="G3H79_RS04565" class="clusterblast-orf" id="dummy-29_h29_7_19"  />
</g>
<g id="a29_0020"  >
<polygon points="733,90 737,85 733,80 733,90 " style="fill:#9dd815; stroke-width:1; stroke:black; " description="&lt;b&gt;G3H79_RS04560&lt;/b&gt;&lt;br&gt;small hydrophobic protein&lt;br&gt;Location: 1368256 - 1368140&lt;br&gt;&lt;br&gt;&lt;b&gt;BlastP hit with LLPMBPKK_06779&lt;/b&gt;&lt;br&gt;Percentage identity: 74&lt;br&gt;Percentage coverage: 88&lt;br&gt;BLAST bit score: 58&lt;br&gt;E-value: 5.48e-12" locus_tag="G3H79_RS04560" class="clusterblast-orf" id="dummy-29_h29_7_20"  />
</g>
<g id="a29_0021"  >
<polygon points="737,85 742,80 761,80 761,90 742,90 737,85 " style="fill:#6a15d8; stroke-width:1; stroke:black; " description="&lt;b&gt;G3H79_RS04555&lt;/b&gt;&lt;br&gt;tyrosine-protein phosphatase&lt;br&gt;Location: 1368133 - 1367336&lt;br&gt;&lt;br&gt;&lt;b&gt;BlastP hit with LLPMBPKK_06781&lt;/b&gt;&lt;br&gt;Percentage identity: 83&lt;br&gt;Percentage coverage: 100&lt;br&gt;BLAST bit score: 446&lt;br&gt;E-value: 1.13e-158" locus_tag="G3H79_RS04555" class="clusterblast-orf" id="dummy-29_h29_7_21"  />
</g>
</svg>
