<svg xmlns="http://www.w3.org/2000/svg" xmlns:xlink="http://www.w3.org/1999/xlink" version="1.1" x="0" y="0" height="230" width="800" viewBox="0 0 800 230" preserveAspectRatio="none"  >
<g label="Query sequence" class="clusterblast-cluster"  >
<text x="5" y="20" class="clusterblast-acc"  >
Query sequence</text>
<line x1="10" y1="35" x2="778.0" y2="35" style="stroke-width:1; stroke:grey; "  />
<polygon points="0,40 29,40 34,35 29,30 0,30 0,40 " style="fill:white; stroke-width:1; stroke:black; " description="&lt;b&gt;LLPMBPKK_01488&lt;/b&gt;&lt;br&gt;AfsR-like regulator&lt;br&gt;Location: 1770624 - 1772943" locus_tag="LLPMBPKK_01488" class="clusterblast-orf" id="dummy-10_q0_0_all"  />
<polygon points="34,40 47,40 52,35 47,30 34,30 34,40 " style="fill:white; stroke-width:1; stroke:black; " description="&lt;b&gt;LLPMBPKK_01489&lt;/b&gt;&lt;br&gt;Radical SAM superfamily protein&lt;br&gt;Location: 1772939 - 1774100" locus_tag="LLPMBPKK_01489" class="clusterblast-orf" id="dummy-10_q1_0_all"  />
<polygon points="51,40 55,35 51,30 51,40 " style="fill:white; stroke-width:1; stroke:black; " description="&lt;b&gt;LLPMBPKK_01490&lt;/b&gt;&lt;br&gt;hypothetical protein&lt;br&gt;Location: 1774053 - 1774317" locus_tag="LLPMBPKK_01490" class="clusterblast-orf" id="dummy-10_q2_0_all"  />
<polygon points="55,35 60,30 64,30 64,40 60,40 55,35 " style="fill:#d81515; stroke-width:1; stroke:black; " description="&lt;b&gt;LLPMBPKK_01491&lt;/b&gt;&lt;br&gt;YigZ family protein&lt;br&gt;Location: 1774301 - 1774928" locus_tag="LLPMBPKK_01491" class="clusterblast-orf" id="dummy-10_q3_0_all"  />
<polygon points="65,35 70,30 73,30 73,40 70,40 65,35 " style="fill:#67d815; stroke-width:1; stroke:black; " description="&lt;b&gt;LLPMBPKK_01492&lt;/b&gt;&lt;br&gt;histidine phosphatase family protein&lt;br&gt;Location: 1774963 - 1775509" locus_tag="LLPMBPKK_01492" class="clusterblast-orf" id="dummy-10_q4_0_all"  />
<polygon points="73,35 78,30 87,30 87,40 78,40 73,35 " style="fill:#15b9d8; stroke-width:1; stroke:black; " description="&lt;b&gt;LLPMBPKK_01493&lt;/b&gt;&lt;br&gt;hypothetical protein&lt;br&gt;Location: 1775505 - 1776423" locus_tag="LLPMBPKK_01493" class="clusterblast-orf" id="dummy-10_q5_0_all"  />
<polygon points="89,40 90,40 95,35 90,30 89,30 89,40 " style="fill:#8615d8; stroke-width:1; stroke:black; " description="&lt;b&gt;LLPMBPKK_01494&lt;/b&gt;&lt;br&gt;CoA-binding domain-containing protein&lt;br&gt;Location: 1776564 - 1776972" locus_tag="LLPMBPKK_01494" class="clusterblast-orf" id="dummy-10_q6_0_all"  />
<polygon points="98,40 118,40 123,35 118,30 98,30 98,40 " style="fill:#d83415; stroke-width:1; stroke:black; " description="&lt;b&gt;LLPMBPKK_01495&lt;/b&gt;&lt;br&gt;APC family permease&lt;br&gt;Location: 1777198 - 1778833" locus_tag="LLPMBPKK_01495" class="clusterblast-orf" id="dummy-10_q7_0_all"  />
<polygon points="124,40 137,40 142,35 137,30 124,30 124,40 " style="fill:#49d815; stroke-width:1; stroke:black; " description="&lt;b&gt;LLPMBPKK_01496&lt;/b&gt;&lt;br&gt;4-hydroxybenzoate 3-monooxygenase&lt;br&gt;Location: 1778898 - 1780119" locus_tag="LLPMBPKK_01496" class="clusterblast-orf" id="dummy-10_q8_0_all"  />
<polygon points="142,35 147,30 147,30 147,40 147,40 142,35 " style="fill:#159bd8; stroke-width:1; stroke:black; " description="&lt;b&gt;LLPMBPKK_01497&lt;/b&gt;&lt;br&gt;regulatory protein&lt;br&gt;Location: 1780124 - 1780472" locus_tag="LLPMBPKK_01497" class="clusterblast-orf" id="dummy-10_q9_0_all"  />
<polygon points="148,40 159,40 164,35 159,30 148,30 148,40 " style="fill:#a515d8; stroke-width:1; stroke:black; " description="&lt;b&gt;LLPMBPKK_01498&lt;/b&gt;&lt;br&gt;cation transporter&lt;br&gt;Location: 1780545 - 1781577" locus_tag="LLPMBPKK_01498" class="clusterblast-orf" id="dummy-10_q10_0_all"  />
<polygon points="165,35 170,30 173,30 173,40 170,40 165,35 " style="fill:#d85315; stroke-width:1; stroke:black; " description="&lt;b&gt;LLPMBPKK_01499&lt;/b&gt;&lt;br&gt;YbaK-like protein&lt;br&gt;Location: 1781647 - 1782208" locus_tag="LLPMBPKK_01499" class="clusterblast-orf" id="dummy-10_q11_0_all"  />
<polygon points="174,35 179,30 182,30 182,40 179,40 174,35 " style="fill:#2ad815; stroke-width:1; stroke:black; " description="&lt;b&gt;LLPMBPKK_01500&lt;/b&gt;&lt;br&gt;XRE family transcriptional regulator&lt;br&gt;Location: 1782251 - 1782824" locus_tag="LLPMBPKK_01500" class="clusterblast-orf" id="dummy-10_q12_0_all"  />
<polygon points="184,40 192,40 197,35 192,30 184,30 184,40 " style="fill:#157cd8; stroke-width:1; stroke:black; " description="&lt;b&gt;LLPMBPKK_01501&lt;/b&gt;&lt;br&gt;DMT family transporter&lt;br&gt;Location: 1782933 - 1783791" locus_tag="LLPMBPKK_01501" class="clusterblast-orf" id="dummy-10_q13_0_all"  />
<polygon points="197,35 202,30 209,30 209,40 202,40 197,35 " style="fill:#c415d8; stroke-width:1; stroke:black; " description="&lt;b&gt;LLPMBPKK_01502&lt;/b&gt;&lt;br&gt;sugar acetyltransferase&lt;br&gt;Location: 1783812 - 1784577" locus_tag="LLPMBPKK_01502" class="clusterblast-orf" id="dummy-10_q14_0_all"  />
<polygon points="210,40 213,40 218,35 213,30 210,30 210,40 " style="fill:#d87215; stroke-width:1; stroke:black; " description="&lt;b&gt;LLPMBPKK_01503&lt;/b&gt;&lt;br&gt;siderophore binding protein&lt;br&gt;Location: 1784686 - 1785214" locus_tag="LLPMBPKK_01503" class="clusterblast-orf" id="dummy-10_q15_0_all"  />
<polygon points="218,35 223,30 228,30 228,40 223,40 218,35 " style="fill:#15d81f; stroke-width:1; stroke:black; " description="&lt;b&gt;LLPMBPKK_01504&lt;/b&gt;&lt;br&gt;DedA family protein&lt;br&gt;Location: 1785231 - 1785876" locus_tag="LLPMBPKK_01504" class="clusterblast-orf" id="dummy-10_q16_0_all"  />
<polygon points="232,40 243,40 248,35 243,30 232,30 232,40 " style="fill:#155dd8; stroke-width:1; stroke:black; " description="&lt;b&gt;LLPMBPKK_01505&lt;/b&gt;&lt;br&gt;flippase-like domain-containing protein&lt;br&gt;Location: 1786135 - 1787215" locus_tag="LLPMBPKK_01505" class="clusterblast-orf" id="dummy-10_q17_0_all"  />
<polygon points="249,35 254,30 265,30 265,40 254,40 249,35 " style="fill:#d815ce; stroke-width:1; stroke:black; " description="&lt;b&gt;LLPMBPKK_01506&lt;/b&gt;&lt;br&gt;class I SAM-dependent methyltransferase&lt;br&gt;Location: 1787237 - 1788320" locus_tag="LLPMBPKK_01506" class="clusterblast-orf" id="dummy-10_q18_0_all"  />
<polygon points="265,35 270,30 282,30 282,40 270,40 265,35 " style="fill:#d89015; stroke-width:1; stroke:black; " description="&lt;b&gt;LLPMBPKK_01507&lt;/b&gt;&lt;br&gt;glycosyltransferase&lt;br&gt;Location: 1788316 - 1789498" locus_tag="LLPMBPKK_01507" class="clusterblast-orf" id="dummy-10_q19_0_all"  />
<polygon points="282,35 287,30 294,30 294,40 287,40 282,35 " style="fill:#15d83e; stroke-width:1; stroke:black; " description="&lt;b&gt;LLPMBPKK_01508&lt;/b&gt;&lt;br&gt;alpha/beta hydrolase&lt;br&gt;Location: 1789494 - 1790295" locus_tag="LLPMBPKK_01508" class="clusterblast-orf" id="dummy-10_q20_0_all"  />
<polygon points="294,35 299,30 299,30 299,40 299,40 294,35 " style="fill:#153ed8; stroke-width:1; stroke:black; " description="&lt;b&gt;LLPMBPKK_01509&lt;/b&gt;&lt;br&gt;acyl carrier protein&lt;br&gt;Location: 1790298 - 1790619" locus_tag="LLPMBPKK_01509" class="clusterblast-orf" id="dummy-10_q21_0_all"  />
<polygon points="299,35 304,30 369,30 369,40 304,40 299,35 " style="fill:#d815af; stroke-width:1; stroke:black; " description="&lt;b&gt;LLPMBPKK_01510&lt;/b&gt;&lt;br&gt;type I polyketide synthase&lt;br&gt;Location: 1790615 - 1795274" locus_tag="LLPMBPKK_01510" class="clusterblast-orf" id="dummy-10_q22_0_all"  />
<polygon points="369,35 374,30 482,30 482,40 374,40 369,35 " style="fill:#d815af; stroke-width:1; stroke:black; " description="&lt;b&gt;LLPMBPKK_01511&lt;/b&gt;&lt;br&gt;hypothetical protein&lt;br&gt;Location: 1795275 - 1802793" locus_tag="LLPMBPKK_01511" class="clusterblast-orf" id="dummy-10_q23_0_all"  />
<polygon points="489,35 494,30 520,30 520,40 494,40 489,35 " style="fill:#d8af15; stroke-width:1; stroke:black; " description="&lt;b&gt;LLPMBPKK_01512&lt;/b&gt;&lt;br&gt;Ricin-type beta-trefoil lectin domain protein&lt;br&gt;Location: 1803271 - 1805356" locus_tag="LLPMBPKK_01512" class="clusterblast-orf" id="dummy-10_q24_0_all"  />
<polygon points="528,35 533,30 537,30 537,40 533,40 528,35 " style="fill:#15d85d; stroke-width:1; stroke:black; " description="&lt;b&gt;LLPMBPKK_01513&lt;/b&gt;&lt;br&gt;MFS transporter&lt;br&gt;Location: 1805884 - 1806463" locus_tag="LLPMBPKK_01513" class="clusterblast-orf" id="dummy-10_q25_0_all"  />
<polygon points="548,40 559,40 564,35 559,30 548,30 548,40 " style="fill:#151fd8; stroke-width:1; stroke:black; " description="&lt;b&gt;LLPMBPKK_01514&lt;/b&gt;&lt;br&gt;helix-turn-helix domain-containing protein&lt;br&gt;Location: 1807237 - 1808275" locus_tag="LLPMBPKK_01514" class="clusterblast-orf" id="dummy-10_q26_0_all"  />
<polygon points="564,35 569,30 578,30 578,40 569,40 564,35 " style="fill:#d81590; stroke-width:1; stroke:black; " description="&lt;b&gt;LLPMBPKK_01515&lt;/b&gt;&lt;br&gt;ectoine hydroxylase&lt;br&gt;Location: 1808329 - 1809220" locus_tag="LLPMBPKK_01515" class="clusterblast-orf" id="dummy-10_q27_0_all"  />
<polygon points="578,35 583,30 586,30 586,40 583,40 578,35 " style="fill:#d8ce15; stroke-width:1; stroke:black; " description="&lt;b&gt;LLPMBPKK_01516&lt;/b&gt;&lt;br&gt;L-2,4-diaminobutyric acid acetyltransferase&lt;br&gt;Location: 1809216 - 1809768" locus_tag="LLPMBPKK_01516" class="clusterblast-orf" id="dummy-10_q28_0_all"  />
<polygon points="586,35 591,30 592,30 592,40 591,40 586,35 " style="fill:#15d87c; stroke-width:1; stroke:black; " description="&lt;b&gt;LLPMBPKK_01517&lt;/b&gt;&lt;br&gt;L-ectoine synthase&lt;br&gt;Location: 1809769 - 1810174" locus_tag="LLPMBPKK_01517" class="clusterblast-orf" id="dummy-10_q29_0_all"  />
<polygon points="594,35 599,30 604,30 604,40 599,40 594,35 " style="fill:#2a15d8; stroke-width:1; stroke:black; " description="&lt;b&gt;LLPMBPKK_01518&lt;/b&gt;&lt;br&gt;diaminobutyrate--2-oxoglutarate transaminase&lt;br&gt;Location: 1810283 - 1810940" locus_tag="LLPMBPKK_01518" class="clusterblast-orf" id="dummy-10_q30_0_all"  />
<polygon points="613,35 617,30 617,40 613,35 " style="fill:#d81572; stroke-width:1; stroke:black; " description="&lt;b&gt;LLPMBPKK_01519&lt;/b&gt;&lt;br&gt;acyl carrier protein&lt;br&gt;Location: 1811552 - 1811816" locus_tag="LLPMBPKK_01519" class="clusterblast-orf" id="dummy-10_q31_0_all"  />
<polygon points="617,35 622,30 640,30 640,40 622,40 617,35 " style="fill:#c4d815; stroke-width:1; stroke:black; " description="&lt;b&gt;LLPMBPKK_01520&lt;/b&gt;&lt;br&gt;AMP-dependent synthetase&lt;br&gt;Location: 1811835 - 1813365" locus_tag="LLPMBPKK_01520" class="clusterblast-orf" id="dummy-10_q32_0_all"  />
<polygon points="640,35 645,30 656,30 656,40 645,40 640,35 " style="fill:#15d89b; stroke-width:1; stroke:black; " description="&lt;b&gt;LLPMBPKK_01521&lt;/b&gt;&lt;br&gt;4'-phosphopantetheinyl transferase superfamilyprotein&lt;br&gt;Location: 1813364 - 1814426" locus_tag="LLPMBPKK_01521" class="clusterblast-orf" id="dummy-10_q33_0_all"  />
<polygon points="656,35 661,30 675,30 675,40 661,40 656,35 " style="fill:#4915d8; stroke-width:1; stroke:black; " description="&lt;b&gt;LLPMBPKK_01522&lt;/b&gt;&lt;br&gt;diaminopimelate decarboxylase&lt;br&gt;Location: 1814422 - 1815715" locus_tag="LLPMBPKK_01522" class="clusterblast-orf" id="dummy-10_q34_0_all"  />
<polygon points="675,35 678,30 678,40 675,35 " style="fill:white; stroke-width:1; stroke:black; " description="&lt;b&gt;LLPMBPKK_01523&lt;/b&gt;&lt;br&gt;hypothetical protein&lt;br&gt;Location: 1815711 - 1815888" locus_tag="LLPMBPKK_01523" class="clusterblast-orf" id="dummy-10_q35_0_all"  />
<polygon points="679,35 684,30 684,30 684,40 684,40 679,35 " style="fill:#d81553; stroke-width:1; stroke:black; " description="&lt;b&gt;LLPMBPKK_01524&lt;/b&gt;&lt;br&gt;hypothetical protein&lt;br&gt;Location: 1815987 - 1816305" locus_tag="LLPMBPKK_01524" class="clusterblast-orf" id="dummy-10_q36_0_all"  />
<polygon points="687,35 692,30 701,30 701,40 692,40 687,35 " style="fill:#a5d815; stroke-width:1; stroke:black; " description="&lt;b&gt;LLPMBPKK_01525&lt;/b&gt;&lt;br&gt;response regulator transcription factor&lt;br&gt;Location: 1816477 - 1817470" locus_tag="LLPMBPKK_01525" class="clusterblast-orf" id="dummy-10_q37_0_all"  />
<polygon points="704,35 709,30 712,30 712,40 709,40 704,35 " style="fill:#15d8b9; stroke-width:1; stroke:black; " description="&lt;b&gt;LLPMBPKK_01526&lt;/b&gt;&lt;br&gt;hypothetical protein&lt;br&gt;Location: 1817672 - 1818152" locus_tag="LLPMBPKK_01526" class="clusterblast-orf" id="dummy-10_q38_0_all"  />
<polygon points="712,40 723,40 728,35 723,30 712,30 712,40 " style="fill:#6715d8; stroke-width:1; stroke:black; " description="&lt;b&gt;LLPMBPKK_01527&lt;/b&gt;&lt;br&gt;membrane protein&lt;br&gt;Location: 1818196 - 1819267" locus_tag="LLPMBPKK_01527" class="clusterblast-orf" id="dummy-10_q39_0_all"  />
<polygon points="729,40 743,40 748,35 743,30 729,30 729,40 " style="fill:#d81534; stroke-width:1; stroke:black; " description="&lt;b&gt;LLPMBPKK_01528&lt;/b&gt;&lt;br&gt;MFS transporter&lt;br&gt;Location: 1819316 - 1820615" locus_tag="LLPMBPKK_01528" class="clusterblast-orf" id="dummy-10_q40_0_all"  />
<polygon points="748,35 753,30 761,30 761,40 753,40 748,35 " style="fill:#86d815; stroke-width:1; stroke:black; " description="&lt;b&gt;LLPMBPKK_01529&lt;/b&gt;&lt;br&gt;spermidine synthase-like protein&lt;br&gt;Location: 1820576 - 1821422" locus_tag="LLPMBPKK_01529" class="clusterblast-orf" id="dummy-10_q41_0_all"  />
<polygon points="762,35 767,30 780,30 780,40 767,40 762,35 " style="fill:#15d8d8; stroke-width:1; stroke:black; " description="&lt;b&gt;LLPMBPKK_01530&lt;/b&gt;&lt;br&gt;elongation factor Tu&lt;br&gt;Location: 1821525 - 1822695" locus_tag="LLPMBPKK_01530" class="clusterblast-orf" id="dummy-10_q42_0_all"  />
</g>
<g label="NZ_CP028719" description="NZ_CP028719 (1595921-1647628): Streptomyces sp. endophyte N2 chromosome, comp... (54% of genes show similarity), T1PKS,hglE-KS" class="clusterblast-cluster"  >
<text x="5" y="70" class="clusterblast-acc"  >
<a xlink:href="https://antismash-db.secondarymetabolites.org/area.html?record=NZ_CP028719&amp;start=1595921&amp;end=1647628" target="_blank">NZ_CP028719 (1595921-1647628)</a>: Streptomyces sp. endophyte N2 chromosome, comp... (54% of genes show similarity), T1PKS,hglE-KS</text>
<line x1="10" y1="85" x2="778.0" y2="85" style="stroke-width:1; stroke:grey; "  />
</g>
<g id="a10_000"  >
<polygon points="4,85 9,80 49,80 49,90 9,90 4,85 " style="fill:white; stroke-width:1; stroke:black; " description="&lt;b&gt;DBA17_RS06485&lt;/b&gt;&lt;br&gt;SMC family ATPase&lt;br&gt;Location: 1595922 - 1598921" locus_tag="DBA17_RS06485" class="clusterblast-orf" id="dummy-10_h10_10_0"  />
</g>
<g id="a10_001"  >
<polygon points="49,85 54,80 66,80 66,90 54,90 49,85 " style="fill:white; stroke-width:1; stroke:black; " description="&lt;b&gt;DBA17_RS06490&lt;/b&gt;&lt;br&gt;exonuclease SbcCD subunit D&lt;br&gt;Location: 1598918 - 1600081" locus_tag="DBA17_RS06490" class="clusterblast-orf" id="dummy-10_h10_10_1"  />
</g>
<g id="a10_002"  >
<polygon points="68,85 73,80 77,80 77,90 73,90 68,85 " style="fill:#d81515; stroke-width:1; stroke:black; " description="&lt;b&gt;DBA17_RS06495&lt;/b&gt;&lt;br&gt;YigZ family protein&lt;br&gt;Location: 1600190 - 1600816&lt;br&gt;&lt;br&gt;&lt;b&gt;BlastP hit with LLPMBPKK_01491&lt;/b&gt;&lt;br&gt;Percentage identity: 95&lt;br&gt;Percentage coverage: 100&lt;br&gt;BLAST bit score: 392&lt;br&gt;E-value: 4.52e-139" locus_tag="DBA17_RS06495" class="clusterblast-orf" id="dummy-10_h10_10_2"  />
</g>
<g id="a10_003"  >
<polygon points="78,85 83,80 86,80 86,90 83,90 78,85 " style="fill:#67d815; stroke-width:1; stroke:black; " description="&lt;b&gt;DBA17_RS06500&lt;/b&gt;&lt;br&gt;histidine phosphatase family protein&lt;br&gt;Location: 1600875 - 1601420&lt;br&gt;&lt;br&gt;&lt;b&gt;BlastP hit with LLPMBPKK_01492&lt;/b&gt;&lt;br&gt;Percentage identity: 79&lt;br&gt;Percentage coverage: 98&lt;br&gt;BLAST bit score: 276&lt;br&gt;E-value: 4.41e-94" locus_tag="DBA17_RS06500" class="clusterblast-orf" id="dummy-10_h10_10_3"  />
</g>
<g id="a10_004"  >
<polygon points="86,85 91,80 97,80 97,90 91,90 86,85 " style="fill:#15b9d8; stroke-width:1; stroke:black; " description="&lt;b&gt;DBA17_RS06505&lt;/b&gt;&lt;br&gt;hypothetical protein&lt;br&gt;Location: 1601417 - 1602157&lt;br&gt;&lt;br&gt;&lt;b&gt;BlastP hit with LLPMBPKK_01493&lt;/b&gt;&lt;br&gt;Percentage identity: 51&lt;br&gt;Percentage coverage: 99&lt;br&gt;BLAST bit score: 241&lt;br&gt;E-value: 1.78e-77" locus_tag="DBA17_RS06505" class="clusterblast-orf" id="dummy-10_h10_10_4"  />
</g>
<g id="a10_005"  >
<polygon points="99,90 100,90 105,85 100,80 99,80 99,90 " style="fill:#8615d8; stroke-width:1; stroke:black; " description="&lt;b&gt;DBA17_RS06510&lt;/b&gt;&lt;br&gt;CoA-binding protein&lt;br&gt;Location: 1602304 - 1602711&lt;br&gt;&lt;br&gt;&lt;b&gt;BlastP hit with LLPMBPKK_01494&lt;/b&gt;&lt;br&gt;Percentage identity: 82&lt;br&gt;Percentage coverage: 100&lt;br&gt;BLAST bit score: 219&lt;br&gt;E-value: 3.72e-73" locus_tag="DBA17_RS06510" class="clusterblast-orf" id="dummy-10_h10_10_5"  />
</g>
<g id="a10_006"  >
<polygon points="109,90 128,90 133,85 128,80 109,80 109,90 " style="fill:#d83415; stroke-width:1; stroke:black; " description="&lt;b&gt;DBA17_RS06515&lt;/b&gt;&lt;br&gt;APC family permease&lt;br&gt;Location: 1602913 - 1604556&lt;br&gt;&lt;br&gt;&lt;b&gt;BlastP hit with LLPMBPKK_01495&lt;/b&gt;&lt;br&gt;Percentage identity: 87&lt;br&gt;Percentage coverage: 101&lt;br&gt;BLAST bit score: 967&lt;br&gt;E-value: 0.0" locus_tag="DBA17_RS06515" class="clusterblast-orf" id="dummy-10_h10_10_6"  />
</g>
<g id="a10_007"  >
<polygon points="135,85 136,80 136,90 135,85 " style="fill:white; stroke-width:1; stroke:black; " description="&lt;b&gt;DBA17_RS37175&lt;/b&gt;&lt;br&gt;energy transducer TonB&lt;br&gt;Location: 1604684 - 1604779" locus_tag="DBA17_RS37175" class="clusterblast-orf" id="dummy-10_h10_10_7"  />
</g>
<g id="a10_008"  >
<polygon points="145,85 150,80 150,80 150,90 150,90 145,85 " style="fill:#159bd8; stroke-width:1; stroke:black; " description="&lt;b&gt;DBA17_RS06525&lt;/b&gt;&lt;br&gt;helix-turn-helix transcriptional regulator&lt;br&gt;Location: 1605332 - 1605685&lt;br&gt;&lt;br&gt;&lt;b&gt;BlastP hit with LLPMBPKK_01497&lt;/b&gt;&lt;br&gt;Percentage identity: 88&lt;br&gt;Percentage coverage: 97&lt;br&gt;BLAST bit score: 194&lt;br&gt;E-value: 1.06e-63" locus_tag="DBA17_RS06525" class="clusterblast-orf" id="dummy-10_h10_10_8"  />
</g>
<g id="a10_009"  >
<polygon points="151,90 162,90 167,85 162,80 151,80 151,90 " style="fill:#a515d8; stroke-width:1; stroke:black; " description="&lt;b&gt;DBA17_RS06530&lt;/b&gt;&lt;br&gt;cation transporter&lt;br&gt;Location: 1605759 - 1606811&lt;br&gt;&lt;br&gt;&lt;b&gt;BlastP hit with LLPMBPKK_01498&lt;/b&gt;&lt;br&gt;Percentage identity: 86&lt;br&gt;Percentage coverage: 100&lt;br&gt;BLAST bit score: 530&lt;br&gt;E-value: 4.84e-189" locus_tag="DBA17_RS06530" class="clusterblast-orf" id="dummy-10_h10_10_9"  />
</g>
<g id="a10_0010"  >
<polygon points="167,85 172,80 175,80 175,90 172,90 167,85 " style="fill:#d85315; stroke-width:1; stroke:black; " description="&lt;b&gt;DBA17_RS06535&lt;/b&gt;&lt;br&gt;hypothetical protein&lt;br&gt;Location: 1606813 - 1607370&lt;br&gt;&lt;br&gt;&lt;b&gt;BlastP hit with LLPMBPKK_01499&lt;/b&gt;&lt;br&gt;Percentage identity: 80&lt;br&gt;Percentage coverage: 99&lt;br&gt;BLAST bit score: 299&lt;br&gt;E-value: 3.14e-103" locus_tag="DBA17_RS06535" class="clusterblast-orf" id="dummy-10_h10_10_10"  />
</g>
<g id="a10_0011"  >
<polygon points="176,85 181,80 185,80 185,90 181,90 176,85 " style="fill:#2ad815; stroke-width:1; stroke:black; " description="&lt;b&gt;DBA17_RS06540&lt;/b&gt;&lt;br&gt;helix-turn-helix domain-containing protein&lt;br&gt;Location: 1607414 - 1607986&lt;br&gt;&lt;br&gt;&lt;b&gt;BlastP hit with LLPMBPKK_01500&lt;/b&gt;&lt;br&gt;Percentage identity: 86&lt;br&gt;Percentage coverage: 99&lt;br&gt;BLAST bit score: 336&lt;br&gt;E-value: 1.03e-117" locus_tag="DBA17_RS06540" class="clusterblast-orf" id="dummy-10_h10_10_11"  />
</g>
<g id="a10_0012"  >
<polygon points="186,90 194,90 199,85 194,80 186,80 186,90 " style="fill:#157cd8; stroke-width:1; stroke:black; " description="&lt;b&gt;DBA17_RS06545&lt;/b&gt;&lt;br&gt;DMT family transporter&lt;br&gt;Location: 1608105 - 1608962&lt;br&gt;&lt;br&gt;&lt;b&gt;BlastP hit with LLPMBPKK_01501&lt;/b&gt;&lt;br&gt;Percentage identity: 84&lt;br&gt;Percentage coverage: 100&lt;br&gt;BLAST bit score: 409&lt;br&gt;E-value: 1.48e-143" locus_tag="DBA17_RS06545" class="clusterblast-orf" id="dummy-10_h10_10_12"  />
</g>
<g id="a10_0013"  >
<polygon points="199,85 204,80 211,80 211,90 204,90 199,85 " style="fill:#c415d8; stroke-width:1; stroke:black; " description="&lt;b&gt;DBA17_RS06550&lt;/b&gt;&lt;br&gt;acyltransferase&lt;br&gt;Location: 1608968 - 1609732&lt;br&gt;&lt;br&gt;&lt;b&gt;BlastP hit with LLPMBPKK_01502&lt;/b&gt;&lt;br&gt;Percentage identity: 92&lt;br&gt;Percentage coverage: 100&lt;br&gt;BLAST bit score: 489&lt;br&gt;E-value: 2.92e-176" locus_tag="DBA17_RS06550" class="clusterblast-orf" id="dummy-10_h10_10_13"  />
</g>
<g id="a10_0014"  >
<polygon points="212,90 215,90 220,85 215,80 212,80 212,90 " style="fill:#d87215; stroke-width:1; stroke:black; " description="&lt;b&gt;DBA17_RS06555&lt;/b&gt;&lt;br&gt;gamma carbonic anhydrase family protein&lt;br&gt;Location: 1609854 - 1610381&lt;br&gt;&lt;br&gt;&lt;b&gt;BlastP hit with LLPMBPKK_01503&lt;/b&gt;&lt;br&gt;Percentage identity: 85&lt;br&gt;Percentage coverage: 100&lt;br&gt;BLAST bit score: 248&lt;br&gt;E-value: 2.61e-83" locus_tag="DBA17_RS06555" class="clusterblast-orf" id="dummy-10_h10_10_14"  />
</g>
<g id="a10_0015"  >
<polygon points="221,85 226,80 231,80 231,90 226,90 221,85 " style="fill:#15d81f; stroke-width:1; stroke:black; " description="&lt;b&gt;DBA17_RS06560&lt;/b&gt;&lt;br&gt;DedA family protein&lt;br&gt;Location: 1610449 - 1611093&lt;br&gt;&lt;br&gt;&lt;b&gt;BlastP hit with LLPMBPKK_01504&lt;/b&gt;&lt;br&gt;Percentage identity: 83&lt;br&gt;Percentage coverage: 100&lt;br&gt;BLAST bit score: 370&lt;br&gt;E-value: 2.45e-130" locus_tag="DBA17_RS06560" class="clusterblast-orf" id="dummy-10_h10_10_15"  />
</g>
<g id="a10_0016"  >
<polygon points="235,90 245,90 250,85 245,80 235,80 235,90 " style="fill:#155dd8; stroke-width:1; stroke:black; " description="&lt;b&gt;DBA17_RS06565&lt;/b&gt;&lt;br&gt;flippase-like domain-containing protein&lt;br&gt;Location: 1611371 - 1612336&lt;br&gt;&lt;br&gt;&lt;b&gt;BlastP hit with LLPMBPKK_01505&lt;/b&gt;&lt;br&gt;Percentage identity: 78&lt;br&gt;Percentage coverage: 89&lt;br&gt;BLAST bit score: 459&lt;br&gt;E-value: 2.21e-161" locus_tag="DBA17_RS06565" class="clusterblast-orf" id="dummy-10_h10_10_16"  />
</g>
<g id="a10_0017"  >
<polygon points="250,85 255,80 266,80 266,90 255,90 250,85 " style="fill:#d815ce; stroke-width:1; stroke:black; " description="&lt;b&gt;DBA17_RS06570&lt;/b&gt;&lt;br&gt;class I SAM-dependent methyltransferase&lt;br&gt;Location: 1612349 - 1613425&lt;br&gt;&lt;br&gt;&lt;b&gt;BlastP hit with LLPMBPKK_01506&lt;/b&gt;&lt;br&gt;Percentage identity: 87&lt;br&gt;Percentage coverage: 97&lt;br&gt;BLAST bit score: 635&lt;br&gt;E-value: 1.67e-230" locus_tag="DBA17_RS06570" class="clusterblast-orf" id="dummy-10_h10_10_17"  />
</g>
<g id="a10_0018"  >
<polygon points="266,85 271,80 284,80 284,90 271,90 266,85 " style="fill:#d89015; stroke-width:1; stroke:black; " description="&lt;b&gt;DBA17_RS06575&lt;/b&gt;&lt;br&gt;glycosyltransferase family 1 protein&lt;br&gt;Location: 1613422 - 1614603&lt;br&gt;&lt;br&gt;&lt;b&gt;BlastP hit with LLPMBPKK_01507&lt;/b&gt;&lt;br&gt;Percentage identity: 84&lt;br&gt;Percentage coverage: 100&lt;br&gt;BLAST bit score: 636&lt;br&gt;E-value: 1.6e-229" locus_tag="DBA17_RS06575" class="clusterblast-orf" id="dummy-10_h10_10_18"  />
</g>
<g id="a10_0019"  >
<polygon points="284,85 289,80 296,80 296,90 289,90 284,85 " style="fill:#15d83e; stroke-width:1; stroke:black; " description="&lt;b&gt;DBA17_RS06580&lt;/b&gt;&lt;br&gt;alpha/beta hydrolase&lt;br&gt;Location: 1614600 - 1615403&lt;br&gt;&lt;br&gt;&lt;b&gt;BlastP hit with LLPMBPKK_01508&lt;/b&gt;&lt;br&gt;Percentage identity: 84&lt;br&gt;Percentage coverage: 99&lt;br&gt;BLAST bit score: 438&lt;br&gt;E-value: 1.99e-155" locus_tag="DBA17_RS06580" class="clusterblast-orf" id="dummy-10_h10_10_19"  />
</g>
<g id="a10_0020"  >
<polygon points="296,85 300,80 300,90 296,85 " style="fill:#153ed8; stroke-width:1; stroke:black; " description="&lt;b&gt;DBA17_RS06585&lt;/b&gt;&lt;br&gt;acyl carrier protein&lt;br&gt;Location: 1615407 - 1615724&lt;br&gt;&lt;br&gt;&lt;b&gt;BlastP hit with LLPMBPKK_01509&lt;/b&gt;&lt;br&gt;Percentage identity: 77&lt;br&gt;Percentage coverage: 100&lt;br&gt;BLAST bit score: 163&lt;br&gt;E-value: 5.58e-52" locus_tag="DBA17_RS06585" class="clusterblast-orf" id="dummy-10_h10_10_20"  />
</g>
<g id="a10_0021"  >
<polygon points="300,85 305,80 375,80 375,90 305,90 300,85 " style="fill:#d815af; stroke-width:1; stroke:black; " description="&lt;b&gt;DBA17_RS06590&lt;/b&gt;&lt;br&gt;4'-phosphopantetheinyl transferase superfamily protein&lt;br&gt;Location: 1615721 - 1620709&lt;br&gt;&lt;br&gt;&lt;b&gt;BlastP hit with LLPMBPKK_01510&lt;/b&gt;&lt;br&gt;Percentage identity: 72&lt;br&gt;Percentage coverage: 108&lt;br&gt;BLAST bit score: 2183&lt;br&gt;E-value: 0.0&lt;br&gt;&lt;br&gt;&lt;b&gt;BlastP hit with LLPMBPKK_01511&lt;/b&gt;&lt;br&gt;Percentage identity: 38&lt;br&gt;Percentage coverage: 38&lt;br&gt;BLAST bit score: 398&lt;br&gt;E-value: 8.47e-111" locus_tag="DBA17_RS06590" class="clusterblast-orf" id="dummy-10_h10_10_21"  />
</g>
<g id="a10_0022"  >
<polygon points="375,85 380,80 479,80 479,90 380,90 375,85 " style="fill:#d815af; stroke-width:1; stroke:black; " description="&lt;b&gt;DBA17_RS06595&lt;/b&gt;&lt;br&gt;SDR family oxidoreductase&lt;br&gt;Location: 1620711 - 1627628&lt;br&gt;&lt;br&gt;&lt;b&gt;BlastP hit with LLPMBPKK_01510&lt;/b&gt;&lt;br&gt;Percentage identity: 38&lt;br&gt;Percentage coverage: 60&lt;br&gt;BLAST bit score: 429&lt;br&gt;E-value: 1.02e-121&lt;br&gt;&lt;br&gt;&lt;b&gt;BlastP hit with LLPMBPKK_01511&lt;/b&gt;&lt;br&gt;Percentage identity: 72&lt;br&gt;Percentage coverage: 101&lt;br&gt;BLAST bit score: 3212&lt;br&gt;E-value: 0.0" locus_tag="DBA17_RS06595" class="clusterblast-orf" id="dummy-10_h10_10_22"  />
</g>
<g id="a10_0023"  >
<polygon points="486,85 491,80 503,80 503,90 491,90 486,85 " style="fill:white; stroke-width:1; stroke:black; " description="&lt;b&gt;DBA17_RS06600&lt;/b&gt;&lt;br&gt;endo-1,4-beta-xylanase&lt;br&gt;Location: 1628081 - 1629235" locus_tag="DBA17_RS06600" class="clusterblast-orf" id="dummy-10_h10_10_23"  />
</g>
<g id="a10_0024"  >
<polygon points="506,85 511,80 513,80 513,90 511,90 506,85 " style="fill:#15d8b9; stroke-width:1; stroke:black; " description="&lt;b&gt;DBA17_RS06605&lt;/b&gt;&lt;br&gt;DUF4442 domain-containing protein&lt;br&gt;Location: 1629473 - 1629925&lt;br&gt;&lt;br&gt;&lt;b&gt;BlastP hit with LLPMBPKK_01526&lt;/b&gt;&lt;br&gt;Percentage identity: 80&lt;br&gt;Percentage coverage: 93&lt;br&gt;BLAST bit score: 229&lt;br&gt;E-value: 2.47e-76" locus_tag="DBA17_RS06605" class="clusterblast-orf" id="dummy-10_h10_10_24"  />
</g>
<g id="a10_0025"  >
<polygon points="515,90 527,90 532,85 527,80 515,80 515,90 " style="fill:#6715d8; stroke-width:1; stroke:black; " description="&lt;b&gt;DBA17_RS06610&lt;/b&gt;&lt;br&gt;hypothetical protein&lt;br&gt;Location: 1630066 - 1631166&lt;br&gt;&lt;br&gt;&lt;b&gt;BlastP hit with LLPMBPKK_01527&lt;/b&gt;&lt;br&gt;Percentage identity: 55&lt;br&gt;Percentage coverage: 106&lt;br&gt;BLAST bit score: 231&lt;br&gt;E-value: 3.09e-71" locus_tag="DBA17_RS06610" class="clusterblast-orf" id="dummy-10_h10_10_25"  />
</g>
<g id="a10_0026"  >
<polygon points="532,85 537,80 545,80 545,90 537,90 532,85 " style="fill:#86d815; stroke-width:1; stroke:black; " description="&lt;b&gt;DBA17_RS06615&lt;/b&gt;&lt;br&gt;spermidine synthase-like protein&lt;br&gt;Location: 1631212 - 1632057&lt;br&gt;&lt;br&gt;&lt;b&gt;BlastP hit with LLPMBPKK_01529&lt;/b&gt;&lt;br&gt;Percentage identity: 84&lt;br&gt;Percentage coverage: 100&lt;br&gt;BLAST bit score: 466&lt;br&gt;E-value: 6.47e-166" locus_tag="DBA17_RS06615" class="clusterblast-orf" id="dummy-10_h10_10_26"  />
</g>
<g id="a10_0027"  >
<polygon points="546,85 551,80 563,80 563,90 551,90 546,85 " style="fill:#15d8d8; stroke-width:1; stroke:black; " description="&lt;b&gt;DBA17_RS06620&lt;/b&gt;&lt;br&gt;elongation factor Tu&lt;br&gt;Location: 1632088 - 1633266&lt;br&gt;&lt;br&gt;&lt;b&gt;BlastP hit with LLPMBPKK_01530&lt;/b&gt;&lt;br&gt;Percentage identity: 91&lt;br&gt;Percentage coverage: 101&lt;br&gt;BLAST bit score: 694&lt;br&gt;E-value: 1.31e-252" locus_tag="DBA17_RS06620" class="clusterblast-orf" id="dummy-10_h10_10_27"  />
</g>
<g id="a10_0028"  >
<polygon points="568,85 573,80 602,80 602,90 573,90 568,85 " style="fill:white; stroke-width:1; stroke:black; " description="&lt;b&gt;DBA17_RS06625&lt;/b&gt;&lt;br&gt;hypothetical protein&lt;br&gt;Location: 1633616 - 1635868" locus_tag="DBA17_RS06625" class="clusterblast-orf" id="dummy-10_h10_10_28"  />
</g>
<g id="a10_0029"  >
<polygon points="604,90 610,90 615,85 610,80 604,80 604,90 " style="fill:white; stroke-width:1; stroke:black; " description="&lt;b&gt;DBA17_RS06630&lt;/b&gt;&lt;br&gt;TVP38/TMEM64 family protein&lt;br&gt;Location: 1635991 - 1636749" locus_tag="DBA17_RS06630" class="clusterblast-orf" id="dummy-10_h10_10_29"  />
</g>
<g id="a10_0030"  >
<polygon points="616,85 621,80 633,80 633,90 621,90 616,85 " style="fill:white; stroke-width:1; stroke:black; " description="&lt;b&gt;DBA17_RS06635&lt;/b&gt;&lt;br&gt;thiolase family protein&lt;br&gt;Location: 1636771 - 1637940" locus_tag="DBA17_RS06635" class="clusterblast-orf" id="dummy-10_h10_10_30"  />
</g>
<g id="a10_0031"  >
<polygon points="636,90 638,90 643,85 638,80 636,80 636,90 " style="fill:white; stroke-width:1; stroke:black; " description="&lt;b&gt;DBA17_RS06640&lt;/b&gt;&lt;br&gt;helix-turn-helix transcriptional regulator&lt;br&gt;Location: 1638115 - 1638588" locus_tag="DBA17_RS06640" class="clusterblast-orf" id="dummy-10_h10_10_31"  />
</g>
<g id="a10_0032"  >
<polygon points="646,90 649,85 646,80 646,90 " style="fill:white; stroke-width:1; stroke:black; " description="&lt;b&gt;DBA17_RS06645&lt;/b&gt;&lt;br&gt;hypothetical protein&lt;br&gt;Location: 1638818 - 1638997" locus_tag="DBA17_RS06645" class="clusterblast-orf" id="dummy-10_h10_10_32"  />
</g>
<g id="a10_0033"  >
<polygon points="650,85 655,80 655,80 655,90 655,90 650,85 " style="fill:white; stroke-width:1; stroke:black; " description="&lt;b&gt;DBA17_RS06650&lt;/b&gt;&lt;br&gt;hypothetical protein&lt;br&gt;Location: 1639077 - 1639379" locus_tag="DBA17_RS06650" class="clusterblast-orf" id="dummy-10_h10_10_33"  />
</g>
<g id="a10_0034"  >
<polygon points="659,90 659,90 664,85 659,80 659,80 659,90 " style="fill:white; stroke-width:1; stroke:black; " description="&lt;b&gt;DBA17_RS06655&lt;/b&gt;&lt;br&gt;hypothetical protein&lt;br&gt;Location: 1639674 - 1640015" locus_tag="DBA17_RS06655" class="clusterblast-orf" id="dummy-10_h10_10_34"  />
</g>
<g id="a10_0035"  >
<polygon points="665,90 669,85 665,80 665,90 " style="fill:white; stroke-width:1; stroke:black; " description="&lt;b&gt;DBA17_RS06660&lt;/b&gt;&lt;br&gt;hypothetical protein&lt;br&gt;Location: 1640033 - 1640296" locus_tag="DBA17_RS06660" class="clusterblast-orf" id="dummy-10_h10_10_35"  />
</g>
<g id="a10_0036"  >
<polygon points="671,85 676,80 681,80 681,90 676,90 671,85 " style="fill:white; stroke-width:1; stroke:black; " description="&lt;b&gt;DBA17_RS06665&lt;/b&gt;&lt;br&gt;hypothetical protein&lt;br&gt;Location: 1640492 - 1641139" locus_tag="DBA17_RS06665" class="clusterblast-orf" id="dummy-10_h10_10_36"  />
</g>
<g id="a10_0037"  >
<polygon points="682,85 687,80 690,80 690,90 687,90 682,85 " style="fill:white; stroke-width:1; stroke:black; " description="&lt;b&gt;DBA17_RS06670&lt;/b&gt;&lt;br&gt;hypothetical protein&lt;br&gt;Location: 1641172 - 1641735" locus_tag="DBA17_RS06670" class="clusterblast-orf" id="dummy-10_h10_10_37"  />
</g>
<g id="a10_0038"  >
<polygon points="693,90 695,90 700,85 695,80 693,80 693,90 " style="fill:white; stroke-width:1; stroke:black; " description="&lt;b&gt;DBA17_RS06675&lt;/b&gt;&lt;br&gt;nuclear transport factor 2 family protein&lt;br&gt;Location: 1641957 - 1642415" locus_tag="DBA17_RS06675" class="clusterblast-orf" id="dummy-10_h10_10_38"  />
</g>
<g id="a10_0039"  >
<polygon points="703,90 721,90 726,85 721,80 703,80 703,90 " style="fill:white; stroke-width:1; stroke:black; " description="&lt;b&gt;DBA17_RS06680&lt;/b&gt;&lt;br&gt;apolipoprotein N-acyltransferase&lt;br&gt;Location: 1642570 - 1644144" locus_tag="DBA17_RS06680" class="clusterblast-orf" id="dummy-10_h10_10_39"  />
</g>
<g id="a10_0040"  >
<polygon points="725,85 730,80 739,80 739,90 730,90 725,85 " style="fill:white; stroke-width:1; stroke:black; " description="&lt;b&gt;DBA17_RS06685&lt;/b&gt;&lt;br&gt;Gfo/Idh/MocA family oxidoreductase&lt;br&gt;Location: 1644062 - 1644973" locus_tag="DBA17_RS06685" class="clusterblast-orf" id="dummy-10_h10_10_40"  />
</g>
<g id="a10_0041"  >
<polygon points="739,85 744,80 757,80 757,90 744,90 739,85 " style="fill:white; stroke-width:1; stroke:black; " description="&lt;b&gt;DBA17_RS06690&lt;/b&gt;&lt;br&gt;NAD(P)-binding protein&lt;br&gt;Location: 1644970 - 1646187" locus_tag="DBA17_RS06690" class="clusterblast-orf" id="dummy-10_h10_10_41"  />
</g>
<g id="a10_0042"  >
<polygon points="758,90 762,90 767,85 762,80 758,80 758,90 " style="fill:white; stroke-width:1; stroke:black; " description="&lt;b&gt;DBA17_RS06695&lt;/b&gt;&lt;br&gt;TetR/AcrR family transcriptional regulator&lt;br&gt;Location: 1646264 - 1646863" locus_tag="DBA17_RS06695" class="clusterblast-orf" id="dummy-10_h10_10_42"  />
</g>
<g id="a10_0043"  >
<polygon points="768,90 770,90 775,85 770,80 768,80 768,90 " style="fill:white; stroke-width:1; stroke:black; " description="&lt;b&gt;DBA17_RS06700&lt;/b&gt;&lt;br&gt;DinB family protein&lt;br&gt;Location: 1646907 - 1647419" locus_tag="DBA17_RS06700" class="clusterblast-orf" id="dummy-10_h10_10_43"  />
</g>
</svg>
