<svg xmlns="http://www.w3.org/2000/svg" xmlns:xlink="http://www.w3.org/1999/xlink" version="1.1" x="0" y="0" height="230" width="800" viewBox="0 0 800 230" preserveAspectRatio="none"  >
<g label="Query sequence" class="clusterblast-cluster"  >
<text x="5" y="20" class="clusterblast-acc"  >
Query sequence</text>
<line x1="10" y1="35" x2="778.0" y2="35" style="stroke-width:1; stroke:grey; "  />
<polygon points="0,35 5,30 51,30 51,40 5,40 0,35 " style="fill:#d81515; stroke-width:1; stroke:black; " description="&lt;b&gt;LLPMBPKK_05260&lt;/b&gt;&lt;br&gt;3-phosphoshikimate 1-carboxyvinyltransferase&lt;br&gt;Location: 5937298 - 5938615" locus_tag="LLPMBPKK_05260" class="clusterblast-orf" id="dummy-19_q0_0_all"  />
<polygon points="52,35 57,30 80,30 80,40 57,40 52,35 " style="fill:#56d815; stroke-width:1; stroke:black; " description="&lt;b&gt;LLPMBPKK_05261&lt;/b&gt;&lt;br&gt;M50 family peptidase&lt;br&gt;Location: 5938643 - 5939366" locus_tag="LLPMBPKK_05261" class="clusterblast-orf" id="dummy-19_q1_0_all"  />
<polygon points="82,40 108,40 113,35 108,30 82,30 82,40 " style="fill:#1597d8; stroke-width:1; stroke:black; " description="&lt;b&gt;LLPMBPKK_05262&lt;/b&gt;&lt;br&gt;SOS response-associated peptidase&lt;br&gt;Location: 5939416 - 5940232" locus_tag="LLPMBPKK_05262" class="clusterblast-orf" id="dummy-19_q2_0_all"  />
<polygon points="113,40 132,40 137,35 132,30 113,30 113,40 " style="fill:#9715d8; stroke-width:1; stroke:black; " description="&lt;b&gt;LLPMBPKK_05263&lt;/b&gt;&lt;br&gt;alpha/beta hydrolase&lt;br&gt;Location: 5940233 - 5940860" locus_tag="LLPMBPKK_05263" class="clusterblast-orf" id="dummy-19_q3_0_all"  />
<polygon points="141,40 171,40 176,35 171,30 141,30 141,40 " style="fill:#d85615; stroke-width:1; stroke:black; " description="&lt;b&gt;LLPMBPKK_05264&lt;/b&gt;&lt;br&gt;sigma-70 family RNA polymerase sigma factor&lt;br&gt;Location: 5940951 - 5941866" locus_tag="LLPMBPKK_05264" class="clusterblast-orf" id="dummy-19_q4_0_all"  />
<polygon points="176,40 183,40 188,35 183,30 176,30 176,40 " style="fill:#15d815; stroke-width:1; stroke:black; " description="&lt;b&gt;LLPMBPKK_05265&lt;/b&gt;&lt;br&gt;mycothiol system anti-sigma-R factor&lt;br&gt;Location: 5941862 - 5942174" locus_tag="LLPMBPKK_05265" class="clusterblast-orf" id="dummy-19_q5_0_all"  />
<polygon points="194,40 239,40 244,35 239,30 194,30 194,40 " style="fill:#1556d8; stroke-width:1; stroke:black; " description="&lt;b&gt;LLPMBPKK_05266&lt;/b&gt;&lt;br&gt;HD-GYP domain-containing protein&lt;br&gt;Location: 5942319 - 5943624" locus_tag="LLPMBPKK_05266" class="clusterblast-orf" id="dummy-19_q6_0_all"  />
<polygon points="244,40 290,40 295,35 290,30 244,30 244,40 " style="fill:#d815d8; stroke-width:1; stroke:black; " description="&lt;b&gt;LLPMBPKK_05267&lt;/b&gt;&lt;br&gt;lipoprotein&lt;br&gt;Location: 5943620 - 5944949" locus_tag="LLPMBPKK_05267" class="clusterblast-orf" id="dummy-19_q7_0_all"  />
<polygon points="299,40 332,40 337,35 332,30 299,30 299,40 " style="fill:#d89715; stroke-width:1; stroke:black; " description="&lt;b&gt;LLPMBPKK_05268&lt;/b&gt;&lt;br&gt;hypothetical protein&lt;br&gt;Location: 5945047 - 5946028" locus_tag="LLPMBPKK_05268" class="clusterblast-orf" id="dummy-19_q8_0_all"  />
<polygon points="339,40 359,40 364,35 359,30 339,30 339,40 " style="fill:#15d856; stroke-width:1; stroke:black; " description="&lt;b&gt;LLPMBPKK_05269&lt;/b&gt;&lt;br&gt;peptide deformylase&lt;br&gt;Location: 5946090 - 5946741" locus_tag="LLPMBPKK_05269" class="clusterblast-orf" id="dummy-19_q9_0_all"  />
<polygon points="382,40 412,40 417,35 412,30 382,30 382,40 " style="fill:#1515d8; stroke-width:1; stroke:black; " description="&lt;b&gt;LLPMBPKK_05270&lt;/b&gt;&lt;br&gt;multidrug MFS transporter&lt;br&gt;Location: 5947195 - 5948119" locus_tag="LLPMBPKK_05270" class="clusterblast-orf" id="dummy-19_q10_0_all"  />
<polygon points="417,40 466,40 471,35 466,30 417,30 417,40 " style="fill:#d81597; stroke-width:1; stroke:black; " description="&lt;b&gt;LLPMBPKK_05271&lt;/b&gt;&lt;br&gt;cytochrome P450&lt;br&gt;Location: 5948115 - 5949504" locus_tag="LLPMBPKK_05271" class="clusterblast-orf" id="dummy-19_q11_0_all"  />
<polygon points="471,35 476,30 508,30 508,40 476,40 471,35 " style="fill:#d8d815; stroke-width:1; stroke:black; " description="&lt;b&gt;LLPMBPKK_05272&lt;/b&gt;&lt;br&gt;AraC family transcription regulator&lt;br&gt;Location: 5949523 - 5950486" locus_tag="LLPMBPKK_05272" class="clusterblast-orf" id="dummy-19_q12_0_all"  />
<polygon points="512,40 515,40 520,35 515,30 512,30 512,40 " style="fill:#15d897; stroke-width:1; stroke:black; " description="&lt;b&gt;LLPMBPKK_05273&lt;/b&gt;&lt;br&gt;hypothetical protein&lt;br&gt;Location: 5950580 - 5950793" locus_tag="LLPMBPKK_05273" class="clusterblast-orf" id="dummy-19_q13_0_all"  />
<polygon points="523,35 528,30 563,30 563,40 528,40 523,35 " style="fill:#5615d8; stroke-width:1; stroke:black; " description="&lt;b&gt;LLPMBPKK_05274&lt;/b&gt;&lt;br&gt;ribonucleoside-diphosphate reductase&lt;br&gt;Location: 5950874 - 5951888" locus_tag="LLPMBPKK_05274" class="clusterblast-orf" id="dummy-19_q14_0_all"  />
<polygon points="672,35 677,30 735,30 735,40 677,40 672,35 " style="fill:#d81556; stroke-width:1; stroke:black; " description="&lt;b&gt;LLPMBPKK_05276&lt;/b&gt;&lt;br&gt;sodium:solute symporter family protein&lt;br&gt;Location: 5954725 - 5956354" locus_tag="LLPMBPKK_05276" class="clusterblast-orf" id="dummy-19_q15_0_all"  />
<polygon points="735,35 740,30 745,30 745,40 740,40 735,35 " style="fill:#97d815; stroke-width:1; stroke:black; " description="&lt;b&gt;LLPMBPKK_05277&lt;/b&gt;&lt;br&gt;hypothetical protein&lt;br&gt;Location: 5956350 - 5956614" locus_tag="LLPMBPKK_05277" class="clusterblast-orf" id="dummy-19_q16_0_all"  />
<polygon points="750,35 755,30 780,30 780,40 755,40 750,35 " style="fill:#15d8d8; stroke-width:1; stroke:black; " description="&lt;b&gt;LLPMBPKK_05278&lt;/b&gt;&lt;br&gt;GntR family transcriptional regulator&lt;br&gt;Location: 5956761 - 5957523" locus_tag="LLPMBPKK_05278" class="clusterblast-orf" id="dummy-19_q17_0_all"  />
</g>
<g label="NZ_CP033073" description="NZ_CP033073 (2721591-2741582): Streptomyces sp. Z022 chromosome, complete genome (94% of genes show similarity), terpene" class="clusterblast-cluster"  >
<text x="5" y="70" class="clusterblast-acc"  >
<a xlink:href="https://antismash-db.secondarymetabolites.org/area.html?record=NZ_CP033073&amp;start=2721591&amp;end=2741582" target="_blank">NZ_CP033073 (2721591-2741582)</a>: Streptomyces sp. Z022 chromosome, complete genome (94% of genes show similarity), terpene</text>
<line x1="10" y1="85" x2="778.0" y2="85" style="stroke-width:1; stroke:grey; "  />
</g>
<g id="a19_000"  >
<polygon points="4,85 9,80 55,80 55,90 9,90 4,85 " style="fill:#d81515; stroke-width:1; stroke:black; " description="&lt;b&gt;D9753_RS11995&lt;/b&gt;&lt;br&gt;3-phosphoshikimate 1-carboxyvinyltransferase&lt;br&gt;Location: 2741582 - 2740266&lt;br&gt;&lt;br&gt;&lt;b&gt;BlastP hit with LLPMBPKK_05260&lt;/b&gt;&lt;br&gt;Percentage identity: 95&lt;br&gt;Percentage coverage: 100&lt;br&gt;BLAST bit score: 841&lt;br&gt;E-value: 3.27e-309" locus_tag="D9753_RS11995" class="clusterblast-orf" id="dummy-19_h19_7_0"  />
</g>
<g id="a19_001"  >
<polygon points="56,85 61,80 84,80 84,90 61,90 56,85 " style="fill:#56d815; stroke-width:1; stroke:black; " description="&lt;b&gt;D9753_RS11990&lt;/b&gt;&lt;br&gt;M50 family metallopeptidase&lt;br&gt;Location: 2740237 - 2739515&lt;br&gt;&lt;br&gt;&lt;b&gt;BlastP hit with LLPMBPKK_05261&lt;/b&gt;&lt;br&gt;Percentage identity: 93&lt;br&gt;Percentage coverage: 100&lt;br&gt;BLAST bit score: 431&lt;br&gt;E-value: 2.09e-153" locus_tag="D9753_RS11990" class="clusterblast-orf" id="dummy-19_h19_7_1"  />
</g>
<g id="a19_002"  >
<polygon points="88,90 114,90 119,85 114,80 88,80 88,90 " style="fill:#1597d8; stroke-width:1; stroke:black; " description="&lt;b&gt;D9753_RS11985&lt;/b&gt;&lt;br&gt;SOS response-associated peptidase&lt;br&gt;Location: 2739408 - 2738593&lt;br&gt;&lt;br&gt;&lt;b&gt;BlastP hit with LLPMBPKK_05262&lt;/b&gt;&lt;br&gt;Percentage identity: 93&lt;br&gt;Percentage coverage: 100&lt;br&gt;BLAST bit score: 532&lt;br&gt;E-value: 1.3e-192" locus_tag="D9753_RS11985" class="clusterblast-orf" id="dummy-19_h19_7_2"  />
</g>
<g id="a19_003"  >
<polygon points="119,90 139,90 144,85 139,80 119,80 119,90 " style="fill:#9715d8; stroke-width:1; stroke:black; " description="&lt;b&gt;D9753_RS11980&lt;/b&gt;&lt;br&gt;hydrolase&lt;br&gt;Location: 2738591 - 2737962&lt;br&gt;&lt;br&gt;&lt;b&gt;BlastP hit with LLPMBPKK_05263&lt;/b&gt;&lt;br&gt;Percentage identity: 79&lt;br&gt;Percentage coverage: 99&lt;br&gt;BLAST bit score: 333&lt;br&gt;E-value: 6.84e-116" locus_tag="D9753_RS11980" class="clusterblast-orf" id="dummy-19_h19_7_3"  />
</g>
<g id="a19_004"  >
<polygon points="147,90 175,90 180,85 175,80 147,80 147,90 " style="fill:#d85615; stroke-width:1; stroke:black; " description="&lt;b&gt;D9753_RS11975&lt;/b&gt;&lt;br&gt;sigma-70 family RNA polymerase sigma factor&lt;br&gt;Location: 2737870 - 2737010&lt;br&gt;&lt;br&gt;&lt;b&gt;BlastP hit with LLPMBPKK_05264&lt;/b&gt;&lt;br&gt;Percentage identity: 88&lt;br&gt;Percentage coverage: 100&lt;br&gt;BLAST bit score: 496&lt;br&gt;E-value: 1.26e-177" locus_tag="D9753_RS11975" class="clusterblast-orf" id="dummy-19_h19_7_4"  />
</g>
<g id="a19_005"  >
<polygon points="180,90 187,90 192,85 187,80 180,80 180,90 " style="fill:#15d815; stroke-width:1; stroke:black; " description="&lt;b&gt;D9753_RS11970&lt;/b&gt;&lt;br&gt;mycothiol system anti-sigma-R factor&lt;br&gt;Location: 2737013 - 2736702&lt;br&gt;&lt;br&gt;&lt;b&gt;BlastP hit with LLPMBPKK_05265&lt;/b&gt;&lt;br&gt;Percentage identity: 97&lt;br&gt;Percentage coverage: 100&lt;br&gt;BLAST bit score: 214&lt;br&gt;E-value: 4.82e-72" locus_tag="D9753_RS11970" class="clusterblast-orf" id="dummy-19_h19_7_5"  />
</g>
<g id="a19_006"  >
<polygon points="197,90 242,90 247,85 242,80 197,80 197,90 " style="fill:#1556d8; stroke-width:1; stroke:black; " description="&lt;b&gt;D9753_RS11965&lt;/b&gt;&lt;br&gt;HD-GYP domain-containing protein&lt;br&gt;Location: 2736589 - 2735285&lt;br&gt;&lt;br&gt;&lt;b&gt;BlastP hit with LLPMBPKK_05266&lt;/b&gt;&lt;br&gt;Percentage identity: 85&lt;br&gt;Percentage coverage: 100&lt;br&gt;BLAST bit score: 712&lt;br&gt;E-value: 3.7e-258" locus_tag="D9753_RS11965" class="clusterblast-orf" id="dummy-19_h19_7_6"  />
</g>
<g id="a19_007"  >
<polygon points="247,90 292,90 297,85 292,80 247,80 247,90 " style="fill:#d815d8; stroke-width:1; stroke:black; " description="&lt;b&gt;D9753_RS11960&lt;/b&gt;&lt;br&gt;metal-dependent phosphohydrolase&lt;br&gt;Location: 2735288 - 2733996&lt;br&gt;&lt;br&gt;&lt;b&gt;BlastP hit with LLPMBPKK_05267&lt;/b&gt;&lt;br&gt;Percentage identity: 86&lt;br&gt;Percentage coverage: 97&lt;br&gt;BLAST bit score: 679&lt;br&gt;E-value: 2.69e-245" locus_tag="D9753_RS11960" class="clusterblast-orf" id="dummy-19_h19_7_7"  />
</g>
<g id="a19_008"  >
<polygon points="300,90 333,90 338,85 333,80 300,80 300,90 " style="fill:#d89715; stroke-width:1; stroke:black; " description="&lt;b&gt;D9753_RS11955&lt;/b&gt;&lt;br&gt;hypothetical protein&lt;br&gt;Location: 2733896 - 2732914&lt;br&gt;&lt;br&gt;&lt;b&gt;BlastP hit with LLPMBPKK_05268&lt;/b&gt;&lt;br&gt;Percentage identity: 85&lt;br&gt;Percentage coverage: 63&lt;br&gt;BLAST bit score: 353&lt;br&gt;E-value: 4.67e-120" locus_tag="D9753_RS11955" class="clusterblast-orf" id="dummy-19_h19_7_8"  />
</g>
<g id="a19_009"  >
<polygon points="341,90 361,90 366,85 361,80 341,80 341,90 " style="fill:#15d856; stroke-width:1; stroke:black; " description="&lt;b&gt;D9753_RS11950&lt;/b&gt;&lt;br&gt;peptide deformylase&lt;br&gt;Location: 2732848 - 2732198&lt;br&gt;&lt;br&gt;&lt;b&gt;BlastP hit with LLPMBPKK_05269&lt;/b&gt;&lt;br&gt;Percentage identity: 95&lt;br&gt;Percentage coverage: 100&lt;br&gt;BLAST bit score: 431&lt;br&gt;E-value: 2.34e-154" locus_tag="D9753_RS11950" class="clusterblast-orf" id="dummy-19_h19_7_9"  />
</g>
<g id="a19_0010"  >
<polygon points="380,90 414,90 419,85 414,80 380,80 380,90 " style="fill:#1515d8; stroke-width:1; stroke:black; " description="&lt;b&gt;D9753_RS11945&lt;/b&gt;&lt;br&gt;multidrug MFS transporter&lt;br&gt;Location: 2731837 - 2730824&lt;br&gt;&lt;br&gt;&lt;b&gt;BlastP hit with LLPMBPKK_05270&lt;/b&gt;&lt;br&gt;Percentage identity: 86&lt;br&gt;Percentage coverage: 100&lt;br&gt;BLAST bit score: 554&lt;br&gt;E-value: 1.29e-199" locus_tag="D9753_RS11945" class="clusterblast-orf" id="dummy-19_h19_7_10"  />
</g>
<g id="a19_0011"  >
<polygon points="419,90 467,90 472,85 467,80 419,80 419,90 " style="fill:#d81597; stroke-width:1; stroke:black; " description="&lt;b&gt;D9753_RS11940&lt;/b&gt;&lt;br&gt;cytochrome P450&lt;br&gt;Location: 2730827 - 2729457&lt;br&gt;&lt;br&gt;&lt;b&gt;BlastP hit with LLPMBPKK_05271&lt;/b&gt;&lt;br&gt;Percentage identity: 89&lt;br&gt;Percentage coverage: 100&lt;br&gt;BLAST bit score: 828&lt;br&gt;E-value: 1.81e-303" locus_tag="D9753_RS11940" class="clusterblast-orf" id="dummy-19_h19_7_11"  />
</g>
<g id="a19_0012"  >
<polygon points="472,85 477,80 510,80 510,90 477,90 472,85 " style="fill:#d8d815; stroke-width:1; stroke:black; " description="&lt;b&gt;D9753_RS11935&lt;/b&gt;&lt;br&gt;helix-turn-helix domain-containing protein&lt;br&gt;Location: 2729435 - 2728473&lt;br&gt;&lt;br&gt;&lt;b&gt;BlastP hit with LLPMBPKK_05272&lt;/b&gt;&lt;br&gt;Percentage identity: 94&lt;br&gt;Percentage coverage: 100&lt;br&gt;BLAST bit score: 602&lt;br&gt;E-value: 2.11e-218" locus_tag="D9753_RS11935" class="clusterblast-orf" id="dummy-19_h19_7_12"  />
</g>
<g id="a19_0013"  >
<polygon points="513,90 518,90 523,85 518,80 513,80 513,90 " style="fill:#15d897; stroke-width:1; stroke:black; " description="&lt;b&gt;D9753_RS36500&lt;/b&gt;&lt;br&gt;hypothetical protein&lt;br&gt;Location: 2728379 - 2728137&lt;br&gt;&lt;br&gt;&lt;b&gt;BlastP hit with LLPMBPKK_05273&lt;/b&gt;&lt;br&gt;Percentage identity: 75&lt;br&gt;Percentage coverage: 73&lt;br&gt;BLAST bit score: 70&lt;br&gt;E-value: 9.5e-16" locus_tag="D9753_RS36500" class="clusterblast-orf" id="dummy-19_h19_7_13"  />
</g>
<g id="a19_0014"  >
<polygon points="519,85 524,80 558,80 558,90 524,90 519,85 " style="fill:#5615d8; stroke-width:1; stroke:black; " description="&lt;b&gt;D9753_RS11930&lt;/b&gt;&lt;br&gt;ribonucleotide-diphosphate reductase subunit beta&lt;br&gt;Location: 2728224 - 2727211&lt;br&gt;&lt;br&gt;&lt;b&gt;BlastP hit with LLPMBPKK_05274&lt;/b&gt;&lt;br&gt;Percentage identity: 96&lt;br&gt;Percentage coverage: 100&lt;br&gt;BLAST bit score: 654&lt;br&gt;E-value: 2.09e-238" locus_tag="D9753_RS11930" class="clusterblast-orf" id="dummy-19_h19_7_14"  />
</g>
<g id="a19_0015"  >
<polygon points="558,85 563,80 649,80 649,90 563,90 558,85 " style="fill:white; stroke-width:1; stroke:black; " description="&lt;b&gt;D9753_RS11925&lt;/b&gt;&lt;br&gt;ribonucleoside-diphosphate reductase subunit alpha&lt;br&gt;Location: 2727211 - 2724854" locus_tag="D9753_RS11925" class="clusterblast-orf" id="dummy-19_h19_7_15"  />
</g>
<g id="a19_0016"  >
<polygon points="668,85 673,80 730,80 730,90 673,90 668,85 " style="fill:#d81556; stroke-width:1; stroke:black; " description="&lt;b&gt;D9753_RS11920&lt;/b&gt;&lt;br&gt;sodium:solute symporter family protein&lt;br&gt;Location: 2724363 - 2722753&lt;br&gt;&lt;br&gt;&lt;b&gt;BlastP hit with LLPMBPKK_05276&lt;/b&gt;&lt;br&gt;Percentage identity: 92&lt;br&gt;Percentage coverage: 100&lt;br&gt;BLAST bit score: 965&lt;br&gt;E-value: 0.0" locus_tag="D9753_RS11920" class="clusterblast-orf" id="dummy-19_h19_7_16"  />
</g>
<g id="a19_0017"  >
<polygon points="730,85 735,80 740,80 740,90 735,90 730,85 " style="fill:#97d815; stroke-width:1; stroke:black; " description="&lt;b&gt;D9753_RS11915&lt;/b&gt;&lt;br&gt;DUF3311 domain-containing protein&lt;br&gt;Location: 2722756 - 2722511&lt;br&gt;&lt;br&gt;&lt;b&gt;BlastP hit with LLPMBPKK_05277&lt;/b&gt;&lt;br&gt;Percentage identity: 80&lt;br&gt;Percentage coverage: 92&lt;br&gt;BLAST bit score: 129&lt;br&gt;E-value: 3.28e-39" locus_tag="D9753_RS11915" class="clusterblast-orf" id="dummy-19_h19_7_17"  />
</g>
<g id="a19_0018"  >
<polygon points="745,85 750,80 775,80 775,90 750,90 745,85 " style="fill:#15d8d8; stroke-width:1; stroke:black; " description="&lt;b&gt;D9753_RS11910&lt;/b&gt;&lt;br&gt;GntR family transcriptional regulator&lt;br&gt;Location: 2722356 - 2721592&lt;br&gt;&lt;br&gt;&lt;b&gt;BlastP hit with LLPMBPKK_05278&lt;/b&gt;&lt;br&gt;Percentage identity: 96&lt;br&gt;Percentage coverage: 100&lt;br&gt;BLAST bit score: 466&lt;br&gt;E-value: 3.92e-167" locus_tag="D9753_RS11910" class="clusterblast-orf" id="dummy-19_h19_7_18"  />
</g>
</svg>
