<svg xmlns="http://www.w3.org/2000/svg" xmlns:xlink="http://www.w3.org/1999/xlink" version="1.1" x="0" y="0" height="230" width="800" viewBox="0 0 800 230" preserveAspectRatio="none"  >
<g label="Query sequence" class="clusterblast-cluster"  >
<text x="5" y="20" class="clusterblast-acc"  >
Query sequence</text>
<line x1="10" y1="35" x2="778.0" y2="35" style="stroke-width:1; stroke:grey; "  />
<polygon points="0,35 5,30 21,30 21,40 5,40 0,35 " style="fill:#d81515; stroke-width:1; stroke:black; " description="&lt;b&gt;LLPMBPKK_06334&lt;/b&gt;&lt;br&gt;response regulator transcription factor&lt;br&gt;Location: 7316271 - 7316952" locus_tag="LLPMBPKK_06334" class="clusterblast-orf" id="dummy-27_q0_0_all"  />
<polygon points="21,35 26,30 59,30 59,40 26,40 21,35 " style="fill:#4dd815; stroke-width:1; stroke:black; " description="&lt;b&gt;LLPMBPKK_06335&lt;/b&gt;&lt;br&gt;transcriptional regulator&lt;br&gt;Location: 7316957 - 7318205" locus_tag="LLPMBPKK_06335" class="clusterblast-orf" id="dummy-27_q1_0_all"  />
<polygon points="69,35 74,30 107,30 107,40 74,40 69,35 " style="fill:#15bcd8; stroke-width:1; stroke:black; " description="&lt;b&gt;LLPMBPKK_06336&lt;/b&gt;&lt;br&gt;MFS transporter&lt;br&gt;Location: 7318546 - 7319788" locus_tag="LLPMBPKK_06336" class="clusterblast-orf" id="dummy-27_q2_0_all"  />
<polygon points="116,40 215,40 220,35 215,30 116,30 116,40 " style="fill:#8515d8; stroke-width:1; stroke:black; " description="&lt;b&gt;LLPMBPKK_06337&lt;/b&gt;&lt;br&gt;Bacterial transcriptional activator domainprotein&lt;br&gt;Location: 7320077 - 7323497" locus_tag="LLPMBPKK_06337" class="clusterblast-orf" id="dummy-27_q3_0_all"  />
<polygon points="222,35 227,30 234,30 234,40 227,40 222,35 " style="fill:#d84d15; stroke-width:1; stroke:black; " description="&lt;b&gt;LLPMBPKK_06338&lt;/b&gt;&lt;br&gt;MerR family transcriptional regulator&lt;br&gt;Location: 7323558 - 7323954" locus_tag="LLPMBPKK_06338" class="clusterblast-orf" id="dummy-27_q4_0_all"  />
<polygon points="237,40 255,40 260,35 255,30 237,30 237,40 " style="fill:#15d815; stroke-width:1; stroke:black; " description="&lt;b&gt;LLPMBPKK_06339&lt;/b&gt;&lt;br&gt;SDR family oxidoreductase&lt;br&gt;Location: 7324055 - 7324796" locus_tag="LLPMBPKK_06339" class="clusterblast-orf" id="dummy-27_q5_0_all"  />
<polygon points="268,40 298,40 303,35 298,30 268,30 268,40 " style="fill:#1585d8; stroke-width:1; stroke:black; " description="&lt;b&gt;LLPMBPKK_06340&lt;/b&gt;&lt;br&gt;isopropylmalate synthase&lt;br&gt;Location: 7325055 - 7326207" locus_tag="LLPMBPKK_06340" class="clusterblast-orf" id="dummy-27_q6_0_all"  />
<polygon points="306,40 306,40 311,35 306,30 306,30 306,40 " style="fill:#bc15d8; stroke-width:1; stroke:black; " description="&lt;b&gt;LLPMBPKK_06341&lt;/b&gt;&lt;br&gt;hypothetical protein&lt;br&gt;Location: 7326294 - 7326480" locus_tag="LLPMBPKK_06341" class="clusterblast-orf" id="dummy-27_q7_0_all"  />
<polygon points="312,40 332,40 337,35 332,30 312,30 312,40 " style="fill:#d88515; stroke-width:1; stroke:black; " description="&lt;b&gt;LLPMBPKK_06342&lt;/b&gt;&lt;br&gt;RimK family alpha-L-glutamate ligase&lt;br&gt;Location: 7326481 - 7327330" locus_tag="LLPMBPKK_06342" class="clusterblast-orf" id="dummy-27_q8_0_all"  />
<polygon points="337,40 365,40 370,35 365,30 337,30 337,40 " style="fill:#15d84d; stroke-width:1; stroke:black; " description="&lt;b&gt;LLPMBPKK_06343&lt;/b&gt;&lt;br&gt;N-acetyl-gamma-glutamyl-phosphate reductase&lt;br&gt;Location: 7327326 - 7328385" locus_tag="LLPMBPKK_06343" class="clusterblast-orf" id="dummy-27_q9_0_all"  />
<polygon points="370,40 389,40 394,35 389,30 370,30 370,40 " style="fill:#154dd8; stroke-width:1; stroke:black; " description="&lt;b&gt;LLPMBPKK_06344&lt;/b&gt;&lt;br&gt;acetylglutamate kinase&lt;br&gt;Location: 7328381 - 7329185" locus_tag="LLPMBPKK_06344" class="clusterblast-orf" id="dummy-27_q10_0_all"  />
<polygon points="394,40 407,40 412,35 407,30 394,30 394,40 " style="fill:#d815bc; stroke-width:1; stroke:black; " description="&lt;b&gt;LLPMBPKK_06345&lt;/b&gt;&lt;br&gt;GMP synthase&lt;br&gt;Location: 7329196 - 7329760" locus_tag="LLPMBPKK_06345" class="clusterblast-orf" id="dummy-27_q11_0_all"  />
<polygon points="413,40 442,40 447,35 442,30 413,30 413,40 " style="fill:#d8bc15; stroke-width:1; stroke:black; " description="&lt;b&gt;LLPMBPKK_06346&lt;/b&gt;&lt;br&gt;Glu/Leu/Phe/Val dehydrogenase&lt;br&gt;Location: 7329794 - 7330916" locus_tag="LLPMBPKK_06346" class="clusterblast-orf" id="dummy-27_q12_0_all"  />
<polygon points="447,40 493,40 498,35 493,30 447,30 447,40 " style="fill:#15d885; stroke-width:1; stroke:black; " description="&lt;b&gt;LLPMBPKK_06347&lt;/b&gt;&lt;br&gt;acyl--CoA ligase&lt;br&gt;Location: 7330912 - 7332580" locus_tag="LLPMBPKK_06347" class="clusterblast-orf" id="dummy-27_q13_0_all"  />
<polygon points="500,35 505,30 532,30 532,40 505,40 500,35 " style="fill:#1515d8; stroke-width:1; stroke:black; " description="&lt;b&gt;LLPMBPKK_06348&lt;/b&gt;&lt;br&gt;LLM class flavin-dependent oxidoreductase&lt;br&gt;Location: 7332654 - 7333701" locus_tag="LLPMBPKK_06348" class="clusterblast-orf" id="dummy-27_q14_0_all"  />
<polygon points="536,35 541,30 563,30 563,40 541,40 536,35 " style="fill:#d81585; stroke-width:1; stroke:black; " description="&lt;b&gt;LLPMBPKK_06349&lt;/b&gt;&lt;br&gt;hypothetical protein&lt;br&gt;Location: 7333826 - 7334720" locus_tag="LLPMBPKK_06349" class="clusterblast-orf" id="dummy-27_q15_0_all"  />
<polygon points="564,35 569,30 601,30 601,40 569,40 564,35 " style="fill:#15bcd8; stroke-width:1; stroke:black; " description="&lt;b&gt;LLPMBPKK_06350&lt;/b&gt;&lt;br&gt;MFS transporter&lt;br&gt;Location: 7334736 - 7335975" locus_tag="LLPMBPKK_06350" class="clusterblast-orf" id="dummy-27_q16_0_all"  />
<polygon points="603,35 608,30 643,30 643,40 608,40 603,35 " style="fill:#bcd815; stroke-width:1; stroke:black; " description="&lt;b&gt;LLPMBPKK_06351&lt;/b&gt;&lt;br&gt;pyridoxal phosphate-dependent aminotransferase&lt;br&gt;Location: 7336039 - 7337326" locus_tag="LLPMBPKK_06351" class="clusterblast-orf" id="dummy-27_q17_0_all"  />
<polygon points="643,35 648,30 648,30 648,40 648,40 643,35 " style="fill:#bc15d8; stroke-width:1; stroke:black; " description="&lt;b&gt;LLPMBPKK_06352&lt;/b&gt;&lt;br&gt;hypothetical protein&lt;br&gt;Location: 7337330 - 7337516" locus_tag="LLPMBPKK_06352" class="clusterblast-orf" id="dummy-27_q18_0_all"  />
<polygon points="655,40 673,40 678,35 673,30 655,30 655,40 " style="fill:#15d8bc; stroke-width:1; stroke:black; " description="&lt;b&gt;LLPMBPKK_06353&lt;/b&gt;&lt;br&gt;decarboxylase&lt;br&gt;Location: 7337719 - 7338475" locus_tag="LLPMBPKK_06353" class="clusterblast-orf" id="dummy-27_q19_0_all"  />
<polygon points="680,40 698,40 703,35 698,30 680,30 680,40 " style="fill:#4d15d8; stroke-width:1; stroke:black; " description="&lt;b&gt;LLPMBPKK_06354&lt;/b&gt;&lt;br&gt;oxidoreductase&lt;br&gt;Location: 7338549 - 7339308" locus_tag="LLPMBPKK_06354" class="clusterblast-orf" id="dummy-27_q20_0_all"  />
<polygon points="706,35 711,30 737,30 737,40 711,40 706,35 " style="fill:#d8154d; stroke-width:1; stroke:black; " description="&lt;b&gt;LLPMBPKK_06355&lt;/b&gt;&lt;br&gt;LuxR family transcriptional regulator&lt;br&gt;Location: 7339388 - 7340411" locus_tag="LLPMBPKK_06355" class="clusterblast-orf" id="dummy-27_q21_0_all"  />
<polygon points="752,40 775,40 780,35 775,30 752,30 752,40 " style="fill:#85d815; stroke-width:1; stroke:black; " description="&lt;b&gt;LLPMBPKK_06356&lt;/b&gt;&lt;br&gt;Tryptophan halogenase&lt;br&gt;Location: 7340901 - 7341819" locus_tag="LLPMBPKK_06356" class="clusterblast-orf" id="dummy-27_q22_0_all"  />
</g>
<g label="NZ_SMBL01000005" description="NZ_SMBL01000005 (142428-170136): Streptomyces sp. BK215 Ga0307669 105, whole ... (75% of genes show similarity), betalactone" class="clusterblast-cluster"  >
<text x="5" y="70" class="clusterblast-acc"  >
<a xlink:href="https://antismash-db.secondarymetabolites.org/area.html?record=NZ_SMBL01000005&amp;start=142428&amp;end=170136" target="_blank">NZ_SMBL01000005 (142428-170136)</a>: Streptomyces sp. BK215 Ga0307669 105, whole ... (75% of genes show similarity), betalactone</text>
<line x1="10" y1="85" x2="778.0" y2="85" style="stroke-width:1; stroke:grey; "  />
</g>
<g id="a27_000"  >
<polygon points="25,85 30,80 137,80 137,90 30,90 25,85 " style="fill:#8515d8; stroke-width:1; stroke:black; " description="&lt;b&gt;EV288_RS11760&lt;/b&gt;&lt;br&gt;AfsR/SARP family transcriptional regulator&lt;br&gt;Location: 169597 - 165914&lt;br&gt;&lt;br&gt;&lt;b&gt;BlastP hit with LLPMBPKK_06337&lt;/b&gt;&lt;br&gt;Percentage identity: 64&lt;br&gt;Percentage coverage: 107&lt;br&gt;BLAST bit score: 1193&lt;br&gt;E-value: 0.0" locus_tag="EV288_RS11760" class="clusterblast-orf" id="dummy-27_h27_7_0"  />
</g>
<g id="a27_001"  >
<polygon points="143,90 155,90 160,85 155,80 143,80 143,90 " style="fill:white; stroke-width:1; stroke:black; " description="&lt;b&gt;EV288_RS11755&lt;/b&gt;&lt;br&gt;SDR family oxidoreductase&lt;br&gt;Location: 165715 - 165167" locus_tag="EV288_RS11755" class="clusterblast-orf" id="dummy-27_h27_7_1"  />
</g>
<g id="a27_002"  >
<polygon points="166,90 199,90 204,85 199,80 166,80 166,90 " style="fill:#15bcd8; stroke-width:1; stroke:black; " description="&lt;b&gt;EV288_RS11750&lt;/b&gt;&lt;br&gt;MFS transporter&lt;br&gt;Location: 164962 - 163730&lt;br&gt;&lt;br&gt;&lt;b&gt;BlastP hit with LLPMBPKK_06336&lt;/b&gt;&lt;br&gt;Percentage identity: 82&lt;br&gt;Percentage coverage: 100&lt;br&gt;BLAST bit score: 590&lt;br&gt;E-value: 5.94e-211&lt;br&gt;&lt;br&gt;&lt;b&gt;BlastP hit with LLPMBPKK_06350&lt;/b&gt;&lt;br&gt;Percentage identity: 73&lt;br&gt;Percentage coverage: 98&lt;br&gt;BLAST bit score: 520&lt;br&gt;E-value: 3.81e-183" locus_tag="EV288_RS11750" class="clusterblast-orf" id="dummy-27_h27_7_2"  />
</g>
<g id="a27_003"  >
<polygon points="221,90 252,90 257,85 252,80 221,80 221,90 " style="fill:#4dd815; stroke-width:1; stroke:black; " description="&lt;b&gt;EV288_RS11745&lt;/b&gt;&lt;br&gt;transposase&lt;br&gt;Location: 163155 - 161989&lt;br&gt;&lt;br&gt;&lt;b&gt;BlastP hit with LLPMBPKK_06335&lt;/b&gt;&lt;br&gt;Percentage identity: 61&lt;br&gt;Percentage coverage: 91&lt;br&gt;BLAST bit score: 447&lt;br&gt;E-value: 1.39e-154" locus_tag="EV288_RS11745" class="clusterblast-orf" id="dummy-27_h27_7_3"  />
</g>
<g id="a27_004"  >
<polygon points="257,90 274,90 279,85 274,80 257,80 257,90 " style="fill:#d81515; stroke-width:1; stroke:black; " description="&lt;b&gt;EV288_RS11740&lt;/b&gt;&lt;br&gt;response regulator transcription factor&lt;br&gt;Location: 161970 - 161266&lt;br&gt;&lt;br&gt;&lt;b&gt;BlastP hit with LLPMBPKK_06334&lt;/b&gt;&lt;br&gt;Percentage identity: 70&lt;br&gt;Percentage coverage: 101&lt;br&gt;BLAST bit score: 307&lt;br&gt;E-value: 5.24e-105" locus_tag="EV288_RS11740" class="clusterblast-orf" id="dummy-27_h27_7_4"  />
</g>
<g id="a27_005"  >
<polygon points="282,85 287,80 306,80 306,90 287,90 282,85 " style="fill:#15d8bc; stroke-width:1; stroke:black; " description="&lt;b&gt;EV288_RS11735&lt;/b&gt;&lt;br&gt;arylmalonate decarboxylase&lt;br&gt;Location: 161179 - 160391&lt;br&gt;&lt;br&gt;&lt;b&gt;BlastP hit with LLPMBPKK_06353&lt;/b&gt;&lt;br&gt;Percentage identity: 63&lt;br&gt;Percentage coverage: 102&lt;br&gt;BLAST bit score: 299&lt;br&gt;E-value: 7.86e-101" locus_tag="EV288_RS11735" class="clusterblast-orf" id="dummy-27_h27_7_5"  />
</g>
<g id="a27_006"  >
<polygon points="313,90 344,90 349,85 344,80 313,80 313,90 " style="fill:#1585d8; stroke-width:1; stroke:black; " description="&lt;b&gt;EV288_RS11730&lt;/b&gt;&lt;br&gt;isopropylmalate synthase&lt;br&gt;Location: 160136 - 158985&lt;br&gt;&lt;br&gt;&lt;b&gt;BlastP hit with LLPMBPKK_06340&lt;/b&gt;&lt;br&gt;Percentage identity: 86&lt;br&gt;Percentage coverage: 100&lt;br&gt;BLAST bit score: 647&lt;br&gt;E-value: 2e-234" locus_tag="EV288_RS11730" class="clusterblast-orf" id="dummy-27_h27_7_6"  />
</g>
<g id="a27_007"  >
<polygon points="353,90 354,90 359,85 354,80 353,80 353,90 " style="fill:#bc15d8; stroke-width:1; stroke:black; " description="&lt;b&gt;EV288_RS11725&lt;/b&gt;&lt;br&gt;lysine biosynthesis protein LysW&lt;br&gt;Location: 158825 - 158640&lt;br&gt;&lt;br&gt;&lt;b&gt;BlastP hit with LLPMBPKK_06341&lt;/b&gt;&lt;br&gt;Percentage identity: 79&lt;br&gt;Percentage coverage: 100&lt;br&gt;BLAST bit score: 103&lt;br&gt;E-value: 2.17e-29&lt;br&gt;&lt;br&gt;&lt;b&gt;BlastP hit with LLPMBPKK_06352&lt;/b&gt;&lt;br&gt;Percentage identity: 69&lt;br&gt;Percentage coverage: 100&lt;br&gt;BLAST bit score: 86&lt;br&gt;E-value: 1.6e-22" locus_tag="EV288_RS11725" class="clusterblast-orf" id="dummy-27_h27_7_7"  />
</g>
<g id="a27_008"  >
<polygon points="359,90 380,90 385,85 380,80 359,80 359,90 " style="fill:#d88515; stroke-width:1; stroke:black; " description="&lt;b&gt;EV288_RS11720&lt;/b&gt;&lt;br&gt;RimK family alpha-L-glutamate ligase&lt;br&gt;Location: 158638 - 157787&lt;br&gt;&lt;br&gt;&lt;b&gt;BlastP hit with LLPMBPKK_06342&lt;/b&gt;&lt;br&gt;Percentage identity: 77&lt;br&gt;Percentage coverage: 100&lt;br&gt;BLAST bit score: 440&lt;br&gt;E-value: 8.15e-156" locus_tag="EV288_RS11720" class="clusterblast-orf" id="dummy-27_h27_7_8"  />
</g>
<g id="a27_009"  >
<polygon points="385,90 413,90 418,85 413,80 385,80 385,90 " style="fill:#15d84d; stroke-width:1; stroke:black; " description="&lt;b&gt;EV288_RS11715&lt;/b&gt;&lt;br&gt;N-acetyl-gamma-glutamyl-phosphate reductase&lt;br&gt;Location: 157790 - 156702&lt;br&gt;&lt;br&gt;&lt;b&gt;BlastP hit with LLPMBPKK_06343&lt;/b&gt;&lt;br&gt;Percentage identity: 80&lt;br&gt;Percentage coverage: 101&lt;br&gt;BLAST bit score: 558&lt;br&gt;E-value: 5.79e-200" locus_tag="EV288_RS11715" class="clusterblast-orf" id="dummy-27_h27_7_9"  />
</g>
<g id="a27_0010"  >
<polygon points="418,90 438,90 443,85 438,80 418,80 418,90 " style="fill:#154dd8; stroke-width:1; stroke:black; " description="&lt;b&gt;EV288_RS11710&lt;/b&gt;&lt;br&gt;acetylglutamate kinase&lt;br&gt;Location: 156705 - 155902&lt;br&gt;&lt;br&gt;&lt;b&gt;BlastP hit with LLPMBPKK_06344&lt;/b&gt;&lt;br&gt;Percentage identity: 82&lt;br&gt;Percentage coverage: 100&lt;br&gt;BLAST bit score: 421&lt;br&gt;E-value: 1.48e-148" locus_tag="EV288_RS11710" class="clusterblast-orf" id="dummy-27_h27_7_10"  />
</g>
<g id="a27_0011"  >
<polygon points="443,90 455,90 460,85 455,80 443,80 443,90 " style="fill:#d815bc; stroke-width:1; stroke:black; " description="&lt;b&gt;EV288_RS11705&lt;/b&gt;&lt;br&gt;C26 family cysteine hydrolase domain-containing family&lt;br&gt;Location: 155887 - 155324&lt;br&gt;&lt;br&gt;&lt;b&gt;BlastP hit with LLPMBPKK_06345&lt;/b&gt;&lt;br&gt;Percentage identity: 83&lt;br&gt;Percentage coverage: 100&lt;br&gt;BLAST bit score: 314&lt;br&gt;E-value: 4e-109" locus_tag="EV288_RS11705" class="clusterblast-orf" id="dummy-27_h27_7_11"  />
</g>
<g id="a27_0012"  >
<polygon points="462,90 492,90 497,85 492,80 462,80 462,90 " style="fill:#d8bc15; stroke-width:1; stroke:black; " description="&lt;b&gt;EV288_RS11700&lt;/b&gt;&lt;br&gt;Glu/Leu/Phe/Val dehydrogenase&lt;br&gt;Location: 155268 - 154129&lt;br&gt;&lt;br&gt;&lt;b&gt;BlastP hit with LLPMBPKK_06346&lt;/b&gt;&lt;br&gt;Percentage identity: 81&lt;br&gt;Percentage coverage: 99&lt;br&gt;BLAST bit score: 586&lt;br&gt;E-value: 1.9e-210" locus_tag="EV288_RS11700" class="clusterblast-orf" id="dummy-27_h27_7_12"  />
</g>
<g id="a27_0013"  >
<polygon points="497,90 544,90 549,85 544,80 497,80 497,90 " style="fill:#15d885; stroke-width:1; stroke:black; " description="&lt;b&gt;EV288_RS11695&lt;/b&gt;&lt;br&gt;AMP-binding protein&lt;br&gt;Location: 154132 - 152429&lt;br&gt;&lt;br&gt;&lt;b&gt;BlastP hit with LLPMBPKK_06347&lt;/b&gt;&lt;br&gt;Percentage identity: 65&lt;br&gt;Percentage coverage: 98&lt;br&gt;BLAST bit score: 675&lt;br&gt;E-value: 1.4e-239" locus_tag="EV288_RS11695" class="clusterblast-orf" id="dummy-27_h27_7_13"  />
</g>
<g id="a27_0014"  >
<polygon points="552,90 586,90 591,85 586,80 552,80 552,90 " style="fill:#bcd815; stroke-width:1; stroke:black; " description="&lt;b&gt;EV288_RS11690&lt;/b&gt;&lt;br&gt;pyridoxal phosphate-dependent aminotransferase&lt;br&gt;Location: 152326 - 151046&lt;br&gt;&lt;br&gt;&lt;b&gt;BlastP hit with LLPMBPKK_06351&lt;/b&gt;&lt;br&gt;Percentage identity: 79&lt;br&gt;Percentage coverage: 98&lt;br&gt;BLAST bit score: 627&lt;br&gt;E-value: 4.72e-225" locus_tag="EV288_RS11690" class="clusterblast-orf" id="dummy-27_h27_7_14"  />
</g>
<g id="a27_0015"  >
<polygon points="596,90 618,90 623,85 618,80 596,80 596,90 " style="fill:#d81585; stroke-width:1; stroke:black; " description="&lt;b&gt;EV288_RS11680&lt;/b&gt;&lt;br&gt;fumarylacetoacetate (FAA) hydrolase&lt;br&gt;Location: 150895 - 149981&lt;br&gt;&lt;br&gt;&lt;b&gt;BlastP hit with LLPMBPKK_06349&lt;/b&gt;&lt;br&gt;Percentage identity: 58&lt;br&gt;Percentage coverage: 100&lt;br&gt;BLAST bit score: 356&lt;br&gt;E-value: 4.39e-122" locus_tag="EV288_RS11680" class="clusterblast-orf" id="dummy-27_h27_7_15"  />
</g>
<g id="a27_0016"  >
<polygon points="628,90 664,90 669,85 664,80 628,80 628,90 " style="fill:white; stroke-width:1; stroke:black; " description="&lt;b&gt;EV288_RS11675&lt;/b&gt;&lt;br&gt;NtaA/DmoA family FMN-dependent monooxygenase&lt;br&gt;Location: 149840 - 148500" locus_tag="EV288_RS11675" class="clusterblast-orf" id="dummy-27_h27_7_16"  />
</g>
<g id="a27_0017"  >
<polygon points="668,90 700,90 705,85 700,80 668,80 668,90 " style="fill:white; stroke-width:1; stroke:black; " description="&lt;b&gt;EV288_RS11670&lt;/b&gt;&lt;br&gt;LLM class flavin-dependent oxidoreductase&lt;br&gt;Location: 148506 - 147304" locus_tag="EV288_RS11670" class="clusterblast-orf" id="dummy-27_h27_7_17"  />
</g>
<g id="a27_0018"  >
<polygon points="706,85 711,80 722,80 722,90 711,90 706,85 " style="fill:white; stroke-width:1; stroke:black; " description="&lt;b&gt;EV288_RS11665&lt;/b&gt;&lt;br&gt;hypothetical protein&lt;br&gt;Location: 147265 - 146753" locus_tag="EV288_RS11665" class="clusterblast-orf" id="dummy-27_h27_7_18"  />
</g>
<g id="a27_0019"  >
<polygon points="727,85 732,80 754,80 754,90 732,90 727,85 " style="fill:white; stroke-width:1; stroke:black; " description="&lt;b&gt;EV288_RS11660&lt;/b&gt;&lt;br&gt;TIR domain-containing protein&lt;br&gt;Location: 146582 - 145689" locus_tag="EV288_RS11660" class="clusterblast-orf" id="dummy-27_h27_7_19"  />
</g>
</svg>
