<svg xmlns="http://www.w3.org/2000/svg" xmlns:xlink="http://www.w3.org/1999/xlink" version="1.1" x="0" y="0" height="230" width="800" viewBox="0 0 800 230" preserveAspectRatio="none"  >
<g label="Query sequence" class="clusterblast-cluster"  >
<text x="5" y="20" class="clusterblast-acc"  >
Query sequence</text>
<line x1="10" y1="35" x2="778.0" y2="35" style="stroke-width:1; stroke:grey; "  />
<polygon points="0,40 34,40 39,35 34,30 0,30 0,40 " style="fill:white; stroke-width:1; stroke:black; " description="&lt;b&gt;LLPMBPKK_07373&lt;/b&gt;&lt;br&gt;aldo/keto reductase&lt;br&gt;Location: 8589498 - 8590485" locus_tag="LLPMBPKK_07373" class="clusterblast-orf" id="dummy-32_q0_0_all"  />
<polygon points="52,40 62,40 67,35 62,30 52,30 52,40 " style="fill:white; stroke-width:1; stroke:black; " description="&lt;b&gt;LLPMBPKK_07374&lt;/b&gt;&lt;br&gt;hypothetical protein&lt;br&gt;Location: 8590807 - 8591173" locus_tag="LLPMBPKK_07374" class="clusterblast-orf" id="dummy-32_q1_0_all"  />
<polygon points="68,35 73,30 87,30 87,40 73,40 68,35 " style="fill:#d81515; stroke-width:1; stroke:black; " description="&lt;b&gt;LLPMBPKK_07375&lt;/b&gt;&lt;br&gt;hypothetical protein&lt;br&gt;Location: 8591212 - 8591680" locus_tag="LLPMBPKK_07375" class="clusterblast-orf" id="dummy-32_q2_0_all"  />
<polygon points="101,40 150,40 155,35 150,30 101,30 101,40 " style="fill:#56d815; stroke-width:1; stroke:black; " description="&lt;b&gt;LLPMBPKK_07376&lt;/b&gt;&lt;br&gt;aminotransferase class III-fold pyridoxal phosphate-dependent enzyme&lt;br&gt;Location: 8592020 - 8593370" locus_tag="LLPMBPKK_07376" class="clusterblast-orf" id="dummy-32_q3_0_all"  />
<polygon points="158,40 171,40 176,35 171,30 158,30 158,40 " style="fill:#1597d8; stroke-width:1; stroke:black; " description="&lt;b&gt;LLPMBPKK_07377&lt;/b&gt;&lt;br&gt;Lrp/AsnC family transcriptional regulator&lt;br&gt;Location: 8593445 - 8593895" locus_tag="LLPMBPKK_07377" class="clusterblast-orf" id="dummy-32_q4_0_all"  />
<polygon points="177,35 182,30 219,30 219,40 182,40 177,35 " style="fill:#9715d8; stroke-width:1; stroke:black; " description="&lt;b&gt;LLPMBPKK_07378&lt;/b&gt;&lt;br&gt;serine/threonine-protein phosphatase&lt;br&gt;Location: 8593917 - 8594991" locus_tag="LLPMBPKK_07378" class="clusterblast-orf" id="dummy-32_q5_0_all"  />
<polygon points="260,35 265,30 295,30 295,40 265,40 260,35 " style="fill:#d85615; stroke-width:1; stroke:black; " description="&lt;b&gt;LLPMBPKK_07379&lt;/b&gt;&lt;br&gt;Gfo/Idh/MocA family oxidoreductase&lt;br&gt;Location: 8595996 - 8596884" locus_tag="LLPMBPKK_07379" class="clusterblast-orf" id="dummy-32_q6_0_all"  />
<polygon points="297,35 302,30 333,30 333,40 302,40 297,35 " style="fill:#15d815; stroke-width:1; stroke:black; " description="&lt;b&gt;LLPMBPKK_07380&lt;/b&gt;&lt;br&gt;ATP-grasp ribosomal peptide maturase&lt;br&gt;Location: 8596919 - 8597828" locus_tag="LLPMBPKK_07380" class="clusterblast-orf" id="dummy-32_q7_0_all"  />
<polygon points="337,35 342,30 344,30 344,40 342,40 337,35 " style="fill:#1556d8; stroke-width:1; stroke:black; " description="&lt;b&gt;LLPMBPKK_07381&lt;/b&gt;&lt;br&gt;putative ATP-grasp-modified RiPP&lt;br&gt;Location: 8597921 - 8598113" locus_tag="LLPMBPKK_07381" class="clusterblast-orf" id="dummy-32_q8_0_all"  />
<polygon points="348,35 353,30 382,30 382,40 353,40 348,35 " style="fill:#d815d8; stroke-width:1; stroke:black; " description="&lt;b&gt;LLPMBPKK_07382&lt;/b&gt;&lt;br&gt;fructosamine kinase&lt;br&gt;Location: 8598212 - 8599049" locus_tag="LLPMBPKK_07382" class="clusterblast-orf" id="dummy-32_q9_0_all"  />
<polygon points="390,40 414,40 419,35 414,30 390,30 390,40 " style="fill:#d89715; stroke-width:1; stroke:black; " description="&lt;b&gt;LLPMBPKK_07383&lt;/b&gt;&lt;br&gt;Cyclo(L-tyrosyl-L-tyrosyl) synthase&lt;br&gt;Location: 8599267 - 8599978" locus_tag="LLPMBPKK_07383" class="clusterblast-orf" id="dummy-32_q10_0_all"  />
<polygon points="419,40 462,40 467,35 462,30 419,30 419,40 " style="fill:#15d856; stroke-width:1; stroke:black; " description="&lt;b&gt;LLPMBPKK_07384&lt;/b&gt;&lt;br&gt;cytochrome P450&lt;br&gt;Location: 8599974 - 8601186" locus_tag="LLPMBPKK_07384" class="clusterblast-orf" id="dummy-32_q11_0_all"  />
<polygon points="476,35 481,30 511,30 511,40 481,40 476,35 " style="fill:#1515d8; stroke-width:1; stroke:black; " description="&lt;b&gt;LLPMBPKK_07385&lt;/b&gt;&lt;br&gt;hypothetical protein&lt;br&gt;Location: 8601404 - 8602283" locus_tag="LLPMBPKK_07385" class="clusterblast-orf" id="dummy-32_q12_0_all"  />
<polygon points="525,40 545,40 550,35 545,30 525,30 525,40 " style="fill:#d81597; stroke-width:1; stroke:black; " description="&lt;b&gt;LLPMBPKK_07386&lt;/b&gt;&lt;br&gt;hypothetical protein&lt;br&gt;Location: 8602637 - 8603255" locus_tag="LLPMBPKK_07386" class="clusterblast-orf" id="dummy-32_q13_0_all"  />
<polygon points="556,40 578,40 583,35 578,30 556,30 556,40 " style="fill:#d8d815; stroke-width:1; stroke:black; " description="&lt;b&gt;LLPMBPKK_07387&lt;/b&gt;&lt;br&gt;class F sortase&lt;br&gt;Location: 8603413 - 8604085" locus_tag="LLPMBPKK_07387" class="clusterblast-orf" id="dummy-32_q14_0_all"  />
<polygon points="582,35 587,30 630,30 630,40 587,40 582,35 " style="fill:#15d897; stroke-width:1; stroke:black; " description="&lt;b&gt;LLPMBPKK_07388&lt;/b&gt;&lt;br&gt;lipase&lt;br&gt;Location: 8604072 - 8605269" locus_tag="LLPMBPKK_07388" class="clusterblast-orf" id="dummy-32_q15_0_all"  />
<polygon points="631,35 636,30 654,30 654,40 636,40 631,35 " style="fill:#5615d8; stroke-width:1; stroke:black; " description="&lt;b&gt;LLPMBPKK_07389&lt;/b&gt;&lt;br&gt;TetR family transcriptional regulator&lt;br&gt;Location: 8605286 - 8605868" locus_tag="LLPMBPKK_07389" class="clusterblast-orf" id="dummy-32_q16_0_all"  />
<polygon points="659,35 664,30 711,30 711,40 664,40 659,35 " style="fill:#d81556; stroke-width:1; stroke:black; " description="&lt;b&gt;LLPMBPKK_07390&lt;/b&gt;&lt;br&gt;carbohydrate-binding protein&lt;br&gt;Location: 8605994 - 8607296" locus_tag="LLPMBPKK_07390" class="clusterblast-orf" id="dummy-32_q17_0_all"  />
<polygon points="728,35 733,30 742,30 742,40 733,40 728,35 " style="fill:#97d815; stroke-width:1; stroke:black; " description="&lt;b&gt;LLPMBPKK_07391&lt;/b&gt;&lt;br&gt;transcriptional regulator&lt;br&gt;Location: 8607707 - 8608058" locus_tag="LLPMBPKK_07391" class="clusterblast-orf" id="dummy-32_q18_0_all"  />
<polygon points="744,40 775,40 780,35 775,30 744,30 744,40 " style="fill:#15d8d8; stroke-width:1; stroke:black; " description="&lt;b&gt;LLPMBPKK_07392&lt;/b&gt;&lt;br&gt;NAD(P)-dependent oxidoreductase&lt;br&gt;Location: 8608125 - 8609013" locus_tag="LLPMBPKK_07392" class="clusterblast-orf" id="dummy-32_q19_0_all"  />
</g>
<g label="NZ_CP016279" description="NZ_CP016279 (6221239-6241929): Streptomyces griseochromogenes strain ATCC 145... (65% of genes show similarity), CDPS" class="clusterblast-cluster"  >
<text x="5" y="70" class="clusterblast-acc"  >
<a xlink:href="https://antismash-db.secondarymetabolites.org/area.html?record=NZ_CP016279&amp;start=6221239&amp;end=6241929" target="_blank">NZ_CP016279 (6221239-6241929)</a>: Streptomyces griseochromogenes strain ATCC 145... (65% of genes show similarity), CDPS</text>
<line x1="10" y1="85" x2="778.0" y2="85" style="stroke-width:1; stroke:grey; "  />
</g>
<g id="a32_000"  >
<polygon points="1,90 6,90 11,85 6,80 1,80 1,90 " style="fill:white; stroke-width:1; stroke:black; " description="&lt;b&gt;AVL59_RS26830&lt;/b&gt;&lt;br&gt;hypothetical protein&lt;br&gt;Location: 6241086 - 6240841" locus_tag="AVL59_RS26830" class="clusterblast-orf" id="dummy-32_h32_6_0"  />
</g>
<g id="a32_001"  >
<polygon points="12,85 17,80 30,80 30,90 17,90 12,85 " style="fill:#d81515; stroke-width:1; stroke:black; " description="&lt;b&gt;AVL59_RS26825&lt;/b&gt;&lt;br&gt;hypothetical protein&lt;br&gt;Location: 6240821 - 6240354&lt;br&gt;&lt;br&gt;&lt;b&gt;BlastP hit with LLPMBPKK_07375&lt;/b&gt;&lt;br&gt;Percentage identity: 82&lt;br&gt;Percentage coverage: 99&lt;br&gt;BLAST bit score: 271&lt;br&gt;E-value: 3.03e-93" locus_tag="AVL59_RS26825" class="clusterblast-orf" id="dummy-32_h32_6_1"  />
</g>
<g id="a32_002"  >
<polygon points="40,85 45,80 84,80 84,90 45,90 40,85 " style="fill:#9715d8; stroke-width:1; stroke:black; " description="&lt;b&gt;AVL59_RS26820&lt;/b&gt;&lt;br&gt;serine/threonine-protein phosphatase&lt;br&gt;Location: 6240116 - 6239010&lt;br&gt;&lt;br&gt;&lt;b&gt;BlastP hit with LLPMBPKK_07378&lt;/b&gt;&lt;br&gt;Percentage identity: 80&lt;br&gt;Percentage coverage: 93&lt;br&gt;BLAST bit score: 509&lt;br&gt;E-value: 2.64e-180" locus_tag="AVL59_RS26820" class="clusterblast-orf" id="dummy-32_h32_6_2"  />
</g>
<g id="a32_003"  >
<polygon points="90,90 95,90 100,85 95,80 90,80 90,90 " style="fill:white; stroke-width:1; stroke:black; " description="&lt;b&gt;AVL59_RS26815&lt;/b&gt;&lt;br&gt;hypothetical protein&lt;br&gt;Location: 6238870 - 6238604" locus_tag="AVL59_RS26815" class="clusterblast-orf" id="dummy-32_h32_6_3"  />
</g>
<g id="a32_004"  >
<polygon points="103,90 104,90 109,85 104,80 103,80 103,90 " style="fill:white; stroke-width:1; stroke:black; " description="&lt;b&gt;AVL59_RS52600&lt;/b&gt;&lt;br&gt;hypothetical protein&lt;br&gt;Location: 6238540 - 6238397" locus_tag="AVL59_RS52600" class="clusterblast-orf" id="dummy-32_h32_6_4"  />
</g>
<g id="a32_005"  >
<polygon points="112,85 117,80 122,80 122,90 117,90 112,85 " style="fill:white; stroke-width:1; stroke:black; " description="&lt;b&gt;AVL59_RS52595&lt;/b&gt;&lt;br&gt;hypothetical protein&lt;br&gt;Location: 6238303 - 6238061" locus_tag="AVL59_RS52595" class="clusterblast-orf" id="dummy-32_h32_6_5"  />
</g>
<g id="a32_006"  >
<polygon points="122,85 127,80 138,80 138,90 127,90 122,85 " style="fill:white; stroke-width:1; stroke:black; " description="&lt;b&gt;AVL59_RS26805&lt;/b&gt;&lt;br&gt;hypothetical protein&lt;br&gt;Location: 6238061 - 6237660" locus_tag="AVL59_RS26805" class="clusterblast-orf" id="dummy-32_h32_6_6"  />
</g>
<g id="a32_007"  >
<polygon points="140,85 145,80 199,80 199,90 145,90 140,85 " style="fill:white; stroke-width:1; stroke:black; " description="&lt;b&gt;AVL59_RS26800&lt;/b&gt;&lt;br&gt;HAMP domain-containing histidine kinase&lt;br&gt;Location: 6237604 - 6236141" locus_tag="AVL59_RS26800" class="clusterblast-orf" id="dummy-32_h32_6_7"  />
</g>
<g id="a32_008"  >
<polygon points="199,85 204,80 227,80 227,90 204,90 199,85 " style="fill:white; stroke-width:1; stroke:black; " description="&lt;b&gt;AVL59_RS26795&lt;/b&gt;&lt;br&gt;response regulator transcription factor&lt;br&gt;Location: 6236144 - 6235440" locus_tag="AVL59_RS26795" class="clusterblast-orf" id="dummy-32_h32_6_8"  />
</g>
<g id="a32_009"  >
<polygon points="232,85 237,80 268,80 268,90 237,90 232,85 " style="fill:#d85615; stroke-width:1; stroke:black; " description="&lt;b&gt;AVL59_RS26790&lt;/b&gt;&lt;br&gt;Gfo/Idh/MocA family oxidoreductase&lt;br&gt;Location: 6235311 - 6234415&lt;br&gt;&lt;br&gt;&lt;b&gt;BlastP hit with LLPMBPKK_07379&lt;/b&gt;&lt;br&gt;Percentage identity: 89&lt;br&gt;Percentage coverage: 99&lt;br&gt;BLAST bit score: 498&lt;br&gt;E-value: 2.36e-178" locus_tag="AVL59_RS26790" class="clusterblast-orf" id="dummy-32_h32_6_9"  />
</g>
<g id="a32_0010"  >
<polygon points="269,85 274,80 308,80 308,90 274,90 269,85 " style="fill:#15d815; stroke-width:1; stroke:black; " description="&lt;b&gt;AVL59_RS26785&lt;/b&gt;&lt;br&gt;ATP-grasp ribosomal peptide maturase&lt;br&gt;Location: 6234379 - 6233396&lt;br&gt;&lt;br&gt;&lt;b&gt;BlastP hit with LLPMBPKK_07380&lt;/b&gt;&lt;br&gt;Percentage identity: 86&lt;br&gt;Percentage coverage: 100&lt;br&gt;BLAST bit score: 526&lt;br&gt;E-value: 9.68e-189" locus_tag="AVL59_RS26785" class="clusterblast-orf" id="dummy-32_h32_6_10"  />
</g>
<g id="a32_0011"  >
<polygon points="309,85 314,80 317,80 317,90 314,90 309,85 " style="fill:#1556d8; stroke-width:1; stroke:black; " description="&lt;b&gt;AVL59_RS26780&lt;/b&gt;&lt;br&gt;putative ATP-grasp-modified RiPP&lt;br&gt;Location: 6233378 - 6233187&lt;br&gt;&lt;br&gt;&lt;b&gt;BlastP hit with LLPMBPKK_07381&lt;/b&gt;&lt;br&gt;Percentage identity: 94&lt;br&gt;Percentage coverage: 100&lt;br&gt;BLAST bit score: 121&lt;br&gt;E-value: 1.66e-36" locus_tag="AVL59_RS26780" class="clusterblast-orf" id="dummy-32_h32_6_11"  />
</g>
<g id="a32_0012"  >
<polygon points="324,85 329,80 359,80 359,90 329,90 324,85 " style="fill:#d815d8; stroke-width:1; stroke:black; " description="&lt;b&gt;AVL59_RS26775&lt;/b&gt;&lt;br&gt;phosphotransferase&lt;br&gt;Location: 6233014 - 6232139&lt;br&gt;&lt;br&gt;&lt;b&gt;BlastP hit with LLPMBPKK_07382&lt;/b&gt;&lt;br&gt;Percentage identity: 82&lt;br&gt;Percentage coverage: 99&lt;br&gt;BLAST bit score: 461&lt;br&gt;E-value: 3.9e-164" locus_tag="AVL59_RS26775" class="clusterblast-orf" id="dummy-32_h32_6_12"  />
</g>
<g id="a32_0013"  >
<polygon points="367,90 390,90 395,85 390,80 367,80 367,90 " style="fill:#d89715; stroke-width:1; stroke:black; " description="&lt;b&gt;AVL59_RS26770&lt;/b&gt;&lt;br&gt;tRNA-dependent cyclodipeptide synthase&lt;br&gt;Location: 6231929 - 6231240&lt;br&gt;&lt;br&gt;&lt;b&gt;BlastP hit with LLPMBPKK_07383&lt;/b&gt;&lt;br&gt;Percentage identity: 89&lt;br&gt;Percentage coverage: 97&lt;br&gt;BLAST bit score: 416&lt;br&gt;E-value: 1.05e-147" locus_tag="AVL59_RS26770" class="clusterblast-orf" id="dummy-32_h32_6_13"  />
</g>
<g id="a32_0014"  >
<polygon points="395,90 438,90 443,85 438,80 395,80 395,90 " style="fill:#15d856; stroke-width:1; stroke:black; " description="&lt;b&gt;AVL59_RS26765&lt;/b&gt;&lt;br&gt;cytochrome P450&lt;br&gt;Location: 6231243 - 6230035&lt;br&gt;&lt;br&gt;&lt;b&gt;BlastP hit with LLPMBPKK_07384&lt;/b&gt;&lt;br&gt;Percentage identity: 90&lt;br&gt;Percentage coverage: 100&lt;br&gt;BLAST bit score: 742&lt;br&gt;E-value: 4.28e-271" locus_tag="AVL59_RS26765" class="clusterblast-orf" id="dummy-32_h32_6_14"  />
</g>
<g id="a32_0015"  >
<polygon points="446,85 451,80 481,80 481,90 451,90 446,85 " style="fill:#1515d8; stroke-width:1; stroke:black; " description="&lt;b&gt;AVL59_RS26760&lt;/b&gt;&lt;br&gt;hypothetical protein&lt;br&gt;Location: 6229960 - 6229085&lt;br&gt;&lt;br&gt;&lt;b&gt;BlastP hit with LLPMBPKK_07385&lt;/b&gt;&lt;br&gt;Percentage identity: 68&lt;br&gt;Percentage coverage: 99&lt;br&gt;BLAST bit score: 370&lt;br&gt;E-value: 1.11e-127" locus_tag="AVL59_RS26760" class="clusterblast-orf" id="dummy-32_h32_6_15"  />
</g>
<g id="a32_0016"  >
<polygon points="486,85 491,80 526,80 526,90 491,90 486,85 " style="fill:white; stroke-width:1; stroke:black; " description="&lt;b&gt;AVL59_RS26755&lt;/b&gt;&lt;br&gt;hypothetical protein&lt;br&gt;Location: 6228962 - 6227964" locus_tag="AVL59_RS26755" class="clusterblast-orf" id="dummy-32_h32_6_16"  />
</g>
<g id="a32_0017"  >
<polygon points="569,90 589,90 594,85 589,80 569,80 569,90 " style="fill:#d81597; stroke-width:1; stroke:black; " description="&lt;b&gt;AVL59_RS26750&lt;/b&gt;&lt;br&gt;hypothetical protein&lt;br&gt;Location: 6226869 - 6226264&lt;br&gt;&lt;br&gt;&lt;b&gt;BlastP hit with LLPMBPKK_07386&lt;/b&gt;&lt;br&gt;Percentage identity: 52&lt;br&gt;Percentage coverage: 108&lt;br&gt;BLAST bit score: 112&lt;br&gt;E-value: 3.11e-29" locus_tag="AVL59_RS26750" class="clusterblast-orf" id="dummy-32_h32_6_17"  />
</g>
<g id="a32_0018"  >
<polygon points="598,90 619,90 624,85 619,80 598,80 598,90 " style="fill:#d8d815; stroke-width:1; stroke:black; " description="&lt;b&gt;AVL59_RS26745&lt;/b&gt;&lt;br&gt;class F sortase&lt;br&gt;Location: 6226152 - 6225502&lt;br&gt;&lt;br&gt;&lt;b&gt;BlastP hit with LLPMBPKK_07387&lt;/b&gt;&lt;br&gt;Percentage identity: 70&lt;br&gt;Percentage coverage: 100&lt;br&gt;BLAST bit score: 288&lt;br&gt;E-value: 1.02e-97" locus_tag="AVL59_RS26745" class="clusterblast-orf" id="dummy-32_h32_6_18"  />
</g>
<g id="a32_0019"  >
<polygon points="625,85 630,80 672,80 672,90 630,90 625,85 " style="fill:#15d897; stroke-width:1; stroke:black; " description="&lt;b&gt;AVL59_RS26740&lt;/b&gt;&lt;br&gt;lipase&lt;br&gt;Location: 6225479 - 6224292&lt;br&gt;&lt;br&gt;&lt;b&gt;BlastP hit with LLPMBPKK_07388&lt;/b&gt;&lt;br&gt;Percentage identity: 83&lt;br&gt;Percentage coverage: 95&lt;br&gt;BLAST bit score: 639&lt;br&gt;E-value: 1.27e-230" locus_tag="AVL59_RS26740" class="clusterblast-orf" id="dummy-32_h32_6_19"  />
</g>
<g id="a32_0020"  >
<polygon points="674,85 679,80 696,80 696,90 679,90 674,85 " style="fill:#5615d8; stroke-width:1; stroke:black; " description="&lt;b&gt;AVL59_RS26735&lt;/b&gt;&lt;br&gt;TetR/AcrR family transcriptional regulator&lt;br&gt;Location: 6224262 - 6223693&lt;br&gt;&lt;br&gt;&lt;b&gt;BlastP hit with LLPMBPKK_07389&lt;/b&gt;&lt;br&gt;Percentage identity: 86&lt;br&gt;Percentage coverage: 97&lt;br&gt;BLAST bit score: 313&lt;br&gt;E-value: 2.22e-108" locus_tag="AVL59_RS26735" class="clusterblast-orf" id="dummy-32_h32_6_20"  />
</g>
<g id="a32_0021"  >
<polygon points="725,85 730,80 739,80 739,90 730,90 725,85 " style="fill:#97d815; stroke-width:1; stroke:black; " description="&lt;b&gt;AVL59_RS26730&lt;/b&gt;&lt;br&gt;helix-turn-helix transcriptional regulator&lt;br&gt;Location: 6222969 - 6222619&lt;br&gt;&lt;br&gt;&lt;b&gt;BlastP hit with LLPMBPKK_07391&lt;/b&gt;&lt;br&gt;Percentage identity: 88&lt;br&gt;Percentage coverage: 100&lt;br&gt;BLAST bit score: 207&lt;br&gt;E-value: 3.46e-69" locus_tag="AVL59_RS26730" class="clusterblast-orf" id="dummy-32_h32_6_21"  />
</g>
<g id="a32_0022"  >
<polygon points="742,90 773,90 778,85 773,80 742,80 742,90 " style="fill:#15d8d8; stroke-width:1; stroke:black; " description="&lt;b&gt;AVL59_RS26725&lt;/b&gt;&lt;br&gt;NAD(P)-dependent oxidoreductase&lt;br&gt;Location: 6222539 - 6221652&lt;br&gt;&lt;br&gt;&lt;b&gt;BlastP hit with LLPMBPKK_07392&lt;/b&gt;&lt;br&gt;Percentage identity: 84&lt;br&gt;Percentage coverage: 100&lt;br&gt;BLAST bit score: 473&lt;br&gt;E-value: 2.39e-168" locus_tag="AVL59_RS26725" class="clusterblast-orf" id="dummy-32_h32_6_22"  />
</g>
</svg>
