<svg xmlns="http://www.w3.org/2000/svg" xmlns:xlink="http://www.w3.org/1999/xlink" version="1.1" x="0" y="0" height="230" width="800" viewBox="0 0 800 230" preserveAspectRatio="none"  >
<g label="Query sequence" class="clusterblast-cluster"  >
<text x="5" y="20" class="clusterblast-acc"  >
Query sequence</text>
<line x1="10" y1="35" x2="778.0" y2="35" style="stroke-width:1; stroke:grey; "  />
<polygon points="0,35 5,30 13,30 13,40 5,40 0,35 " style="fill:#d81515; stroke-width:1; stroke:black; " description="&lt;b&gt;LLPMBPKK_04016&lt;/b&gt;&lt;br&gt;TrmH family RNA methyltransferase&lt;br&gt;Location: 4616085 - 4616826" locus_tag="LLPMBPKK_04016" class="clusterblast-orf" id="dummy-18_q0_0_all"  />
<polygon points="13,35 18,30 34,30 34,40 18,40 13,35 " style="fill:#58d815; stroke-width:1; stroke:black; " description="&lt;b&gt;LLPMBPKK_04017&lt;/b&gt;&lt;br&gt;HTTM domain-containing protein&lt;br&gt;Location: 4616822 - 4618034" locus_tag="LLPMBPKK_04017" class="clusterblast-orf" id="dummy-18_q1_0_all"  />
<polygon points="34,35 39,30 48,30 48,40 39,40 34,35 " style="fill:#15c4d8; stroke-width:1; stroke:black; " description="&lt;b&gt;LLPMBPKK_04018&lt;/b&gt;&lt;br&gt;hypothetical protein&lt;br&gt;Location: 4618030 - 4618855" locus_tag="LLPMBPKK_04018" class="clusterblast-orf" id="dummy-18_q2_0_all"  />
<polygon points="55,40 68,40 73,35 68,30 55,30 55,40 " style="fill:#8115d8; stroke-width:1; stroke:black; " description="&lt;b&gt;LLPMBPKK_04019&lt;/b&gt;&lt;br&gt;1,2-phenylacetyl-CoA epoxidase subunit A&lt;br&gt;Location: 4619266 - 4620283" locus_tag="LLPMBPKK_04019" class="clusterblast-orf" id="dummy-18_q3_0_all"  />
<polygon points="73,40 73,40 78,35 73,30 73,30 73,40 " style="fill:#d83e15; stroke-width:1; stroke:black; " description="&lt;b&gt;LLPMBPKK_04020&lt;/b&gt;&lt;br&gt;1,2-phenylacetyl-CoA epoxidase subunit B&lt;br&gt;Location: 4620279 - 4620567" locus_tag="LLPMBPKK_04020" class="clusterblast-orf" id="dummy-18_q4_0_all"  />
<polygon points="78,40 86,40 91,35 86,30 78,30 78,40 " style="fill:#30d815; stroke-width:1; stroke:black; " description="&lt;b&gt;LLPMBPKK_04021&lt;/b&gt;&lt;br&gt;phenylacetate-CoA oxygenase subunit PaaI&lt;br&gt;Location: 4620563 - 4621316" locus_tag="LLPMBPKK_04021" class="clusterblast-orf" id="dummy-18_q5_0_all"  />
<polygon points="91,40 96,40 101,35 96,30 91,30 91,40 " style="fill:#159cd8; stroke-width:1; stroke:black; " description="&lt;b&gt;LLPMBPKK_04022&lt;/b&gt;&lt;br&gt;phenylacetate-CoA oxygenase subunit PaaJ&lt;br&gt;Location: 4621309 - 4621843" locus_tag="LLPMBPKK_04022" class="clusterblast-orf" id="dummy-18_q6_0_all"  />
<polygon points="101,40 114,40 119,35 114,30 101,30 101,40 " style="fill:#a915d8; stroke-width:1; stroke:black; " description="&lt;b&gt;LLPMBPKK_04023&lt;/b&gt;&lt;br&gt;2Fe-2S iron-sulfur cluster bindingdomain-containing protein&lt;br&gt;Location: 4621842 - 4622907" locus_tag="LLPMBPKK_04023" class="clusterblast-orf" id="dummy-18_q7_0_all"  />
<polygon points="123,40 138,40 143,35 138,30 123,30 123,40 " style="fill:#d86615; stroke-width:1; stroke:black; " description="&lt;b&gt;LLPMBPKK_04024&lt;/b&gt;&lt;br&gt;acyl-CoA dehydrogenase&lt;br&gt;Location: 4623126 - 4624269" locus_tag="LLPMBPKK_04024" class="clusterblast-orf" id="dummy-18_q8_0_all"  />
<polygon points="144,35 149,30 149,30 149,40 149,40 144,35 " style="fill:#15d823; stroke-width:1; stroke:black; " description="&lt;b&gt;LLPMBPKK_04025&lt;/b&gt;&lt;br&gt;rhodanese-like domain-containing protein&lt;br&gt;Location: 4624288 - 4624618" locus_tag="LLPMBPKK_04025" class="clusterblast-orf" id="dummy-18_q9_0_all"  />
<polygon points="150,35 155,30 167,30 167,40 155,40 150,35 " style="fill:#1573d8; stroke-width:1; stroke:black; " description="&lt;b&gt;LLPMBPKK_04026&lt;/b&gt;&lt;br&gt;hypothetical protein&lt;br&gt;Location: 4624666 - 4625623" locus_tag="LLPMBPKK_04026" class="clusterblast-orf" id="dummy-18_q10_0_all"  />
<polygon points="167,35 172,30 193,30 193,40 172,40 167,35 " style="fill:#d215d8; stroke-width:1; stroke:black; " description="&lt;b&gt;LLPMBPKK_04027&lt;/b&gt;&lt;br&gt;hypothetical protein&lt;br&gt;Location: 4625648 - 4627106" locus_tag="LLPMBPKK_04027" class="clusterblast-orf" id="dummy-18_q11_0_all"  />
<polygon points="196,35 201,30 209,30 209,40 201,40 196,35 " style="fill:#d88e15; stroke-width:1; stroke:black; " description="&lt;b&gt;LLPMBPKK_04028&lt;/b&gt;&lt;br&gt;2-hydroxychromene-2-carboxylate isomerase&lt;br&gt;Location: 4627295 - 4627997" locus_tag="LLPMBPKK_04028" class="clusterblast-orf" id="dummy-18_q12_0_all"  />
<polygon points="210,35 215,30 223,30 223,40 215,40 210,35 " style="fill:#15d84b; stroke-width:1; stroke:black; " description="&lt;b&gt;LLPMBPKK_04029&lt;/b&gt;&lt;br&gt;SDR family oxidoreductase&lt;br&gt;Location: 4628056 - 4628800" locus_tag="LLPMBPKK_04029" class="clusterblast-orf" id="dummy-18_q13_0_all"  />
<polygon points="223,35 228,30 239,30 239,40 228,40 223,35 " style="fill:#154bd8; stroke-width:1; stroke:black; " description="&lt;b&gt;LLPMBPKK_04030&lt;/b&gt;&lt;br&gt;FabA-like domain protein&lt;br&gt;Location: 4628796 - 4629738" locus_tag="LLPMBPKK_04030" class="clusterblast-orf" id="dummy-18_q14_0_all"  />
<polygon points="239,35 244,30 244,30 244,40 244,40 239,35 " style="fill:#d815b7; stroke-width:1; stroke:black; " description="&lt;b&gt;LLPMBPKK_04031&lt;/b&gt;&lt;br&gt;acyl carrier protein&lt;br&gt;Location: 4629737 - 4629995" locus_tag="LLPMBPKK_04031" class="clusterblast-orf" id="dummy-18_q15_0_all"  />
<polygon points="245,35 250,30 264,30 264,40 250,40 245,35 " style="fill:#d8b715; stroke-width:1; stroke:black; " description="&lt;b&gt;LLPMBPKK_04032&lt;/b&gt;&lt;br&gt;3-oxoacyl-ACP synthase&lt;br&gt;Location: 4630070 - 4631171" locus_tag="LLPMBPKK_04032" class="clusterblast-orf" id="dummy-18_q16_0_all"  />
<polygon points="265,35 270,30 272,30 272,40 270,40 265,35 " style="fill:#15d873; stroke-width:1; stroke:black; " description="&lt;b&gt;LLPMBPKK_04033&lt;/b&gt;&lt;br&gt;hypothetical protein&lt;br&gt;Location: 4631222 - 4631618" locus_tag="LLPMBPKK_04033" class="clusterblast-orf" id="dummy-18_q17_0_all"  />
<polygon points="272,35 277,30 279,30 279,40 277,40 272,35 " style="fill:#1523d8; stroke-width:1; stroke:black; " description="&lt;b&gt;LLPMBPKK_04034&lt;/b&gt;&lt;br&gt;hypothetical protein&lt;br&gt;Location: 4631621 - 4632029" locus_tag="LLPMBPKK_04034" class="clusterblast-orf" id="dummy-18_q18_0_all"  />
<polygon points="279,35 284,30 285,30 285,40 284,40 279,35 " style="fill:#d8158e; stroke-width:1; stroke:black; " description="&lt;b&gt;LLPMBPKK_04035&lt;/b&gt;&lt;br&gt;hypothetical protein&lt;br&gt;Location: 4632028 - 4632352" locus_tag="LLPMBPKK_04035" class="clusterblast-orf" id="dummy-18_q19_0_all"  />
<polygon points="285,35 290,30 303,30 303,40 290,40 285,35 " style="fill:#d2d815; stroke-width:1; stroke:black; " description="&lt;b&gt;LLPMBPKK_04036&lt;/b&gt;&lt;br&gt;hypothetical protein&lt;br&gt;Location: 4632361 - 4633366" locus_tag="LLPMBPKK_04036" class="clusterblast-orf" id="dummy-18_q20_0_all"  />
<polygon points="303,35 308,30 317,30 317,40 308,40 303,35 " style="fill:#15d89c; stroke-width:1; stroke:black; " description="&lt;b&gt;LLPMBPKK_04037&lt;/b&gt;&lt;br&gt;alpha/beta hydrolase&lt;br&gt;Location: 4633362 - 4634178" locus_tag="LLPMBPKK_04037" class="clusterblast-orf" id="dummy-18_q21_0_all"  />
<polygon points="317,35 322,30 334,30 334,40 322,40 317,35 " style="fill:#d8b715; stroke-width:1; stroke:black; " description="&lt;b&gt;LLPMBPKK_04038&lt;/b&gt;&lt;br&gt;3-oxoacyl-ACP synthase I&lt;br&gt;Location: 4634174 - 4635173" locus_tag="LLPMBPKK_04038" class="clusterblast-orf" id="dummy-18_q22_0_all"  />
<polygon points="334,35 339,30 355,30 355,40 339,40 334,35 " style="fill:#3015d8; stroke-width:1; stroke:black; " description="&lt;b&gt;LLPMBPKK_04039&lt;/b&gt;&lt;br&gt;3-oxoacyl-ACP synthase&lt;br&gt;Location: 4635172 - 4636348" locus_tag="LLPMBPKK_04039" class="clusterblast-orf" id="dummy-18_q23_0_all"  />
<polygon points="355,35 360,30 377,30 377,40 360,40 355,35 " style="fill:#3015d8; stroke-width:1; stroke:black; " description="&lt;b&gt;LLPMBPKK_04040&lt;/b&gt;&lt;br&gt;beta-ketoacyl-[acyl-carrier-protein] synthasefamily protein&lt;br&gt;Location: 4636344 - 4637580" locus_tag="LLPMBPKK_04040" class="clusterblast-orf" id="dummy-18_q24_0_all"  />
<polygon points="377,35 382,30 382,30 382,40 382,40 377,35 " style="fill:#d81566; stroke-width:1; stroke:black; " description="&lt;b&gt;LLPMBPKK_04041&lt;/b&gt;&lt;br&gt;acyl carrier protein&lt;br&gt;Location: 4637613 - 4637859" locus_tag="LLPMBPKK_04041" class="clusterblast-orf" id="dummy-18_q25_0_all"  />
<polygon points="384,35 389,30 398,30 398,40 389,40 384,35 " style="fill:#a9d815; stroke-width:1; stroke:black; " description="&lt;b&gt;LLPMBPKK_04042&lt;/b&gt;&lt;br&gt;LuxR family transcriptional regulator&lt;br&gt;Location: 4637995 - 4638787" locus_tag="LLPMBPKK_04042" class="clusterblast-orf" id="dummy-18_q26_0_all"  />
<polygon points="400,35 405,30 427,30 427,40 405,40 400,35 " style="fill:white; stroke-width:1; stroke:black; " description="&lt;b&gt;LLPMBPKK_04043&lt;/b&gt;&lt;br&gt;hypothetical protein&lt;br&gt;Location: 4638934 - 4640428" locus_tag="LLPMBPKK_04043" class="clusterblast-orf" id="dummy-18_q27_0_all"  />
<polygon points="428,35 433,30 493,30 493,40 433,40 428,35 " style="fill:white; stroke-width:1; stroke:black; " description="&lt;b&gt;LLPMBPKK_04044&lt;/b&gt;&lt;br&gt;[acyl-carrier-protein] S-malonyltransferase&lt;br&gt;Location: 4640501 - 4644239" locus_tag="LLPMBPKK_04044" class="clusterblast-orf" id="dummy-18_q28_0_all"  />
<polygon points="499,35 504,30 510,30 510,40 504,40 499,35 " style="fill:#15d8c4; stroke-width:1; stroke:black; " description="&lt;b&gt;LLPMBPKK_04045&lt;/b&gt;&lt;br&gt;gamma-butyrolactone binding protein&lt;br&gt;Location: 4644533 - 4645160" locus_tag="LLPMBPKK_04045" class="clusterblast-orf" id="dummy-18_q29_0_all"  />
<polygon points="512,35 517,30 525,30 525,40 517,40 512,35 " style="fill:#5815d8; stroke-width:1; stroke:black; " description="&lt;b&gt;LLPMBPKK_04046&lt;/b&gt;&lt;br&gt;response regulator transcription factor&lt;br&gt;Location: 4645316 - 4646048" locus_tag="LLPMBPKK_04046" class="clusterblast-orf" id="dummy-18_q30_0_all"  />
<polygon points="532,40 544,40 549,35 544,30 532,30 532,40 " style="fill:#d8153e; stroke-width:1; stroke:black; " description="&lt;b&gt;LLPMBPKK_04047&lt;/b&gt;&lt;br&gt;ScbA protein&lt;br&gt;Location: 4646437 - 4647397" locus_tag="LLPMBPKK_04047" class="clusterblast-orf" id="dummy-18_q31_0_all"  />
<polygon points="550,40 561,40 566,35 561,30 550,30 550,40 " style="fill:#81d815; stroke-width:1; stroke:black; " description="&lt;b&gt;LLPMBPKK_04048&lt;/b&gt;&lt;br&gt;2-alkyl-3-oxoalkanoate reductase&lt;br&gt;Location: 4647446 - 4648376" locus_tag="LLPMBPKK_04048" class="clusterblast-orf" id="dummy-18_q32_0_all"  />
<polygon points="566,35 571,30 587,30 587,40 571,40 566,35 " style="fill:white; stroke-width:1; stroke:black; " description="&lt;b&gt;LLPMBPKK_04049&lt;/b&gt;&lt;br&gt;pyrroloquinoline quinone biosynthesis proteinPqqE&lt;br&gt;Location: 4648378 - 4649575" locus_tag="LLPMBPKK_04049" class="clusterblast-orf" id="dummy-18_q33_0_all"  />
<polygon points="587,35 592,30 592,30 592,40 592,40 587,35 " style="fill:white; stroke-width:1; stroke:black; " description="&lt;b&gt;LLPMBPKK_04050&lt;/b&gt;&lt;br&gt;pyrroloquinoline quinone biosynthesis peptidechaperone PqqD&lt;br&gt;Location: 4649571 - 4649877" locus_tag="LLPMBPKK_04050" class="clusterblast-orf" id="dummy-18_q34_0_all"  />
<polygon points="592,35 597,30 605,30 605,40 597,40 592,35 " style="fill:white; stroke-width:1; stroke:black; " description="&lt;b&gt;LLPMBPKK_04051&lt;/b&gt;&lt;br&gt;pyrroloquinoline quinone biosynthesis proteinPqqC&lt;br&gt;Location: 4649876 - 4650611" locus_tag="LLPMBPKK_04051" class="clusterblast-orf" id="dummy-18_q35_0_all"  />
<polygon points="605,35 610,30 621,30 621,40 610,40 605,35 " style="fill:white; stroke-width:1; stroke:black; " description="&lt;b&gt;LLPMBPKK_04052&lt;/b&gt;&lt;br&gt;pyrroloquinoline quinone biosynthesis proteinPqqB&lt;br&gt;Location: 4650607 - 4651522" locus_tag="LLPMBPKK_04052" class="clusterblast-orf" id="dummy-18_q36_0_all"  />
<polygon points="621,35 624,30 624,40 621,35 " style="fill:white; stroke-width:1; stroke:black; " description="&lt;b&gt;LLPMBPKK_04053&lt;/b&gt;&lt;br&gt;hypothetical protein&lt;br&gt;Location: 4651529 - 4651667" locus_tag="LLPMBPKK_04053" class="clusterblast-orf" id="dummy-18_q37_0_all"  />
<polygon points="625,35 630,30 645,30 645,40 630,40 625,35 " style="fill:white; stroke-width:1; stroke:black; " description="&lt;b&gt;LLPMBPKK_04054&lt;/b&gt;&lt;br&gt;oxidoreductase&lt;br&gt;Location: 4651746 - 4652868" locus_tag="LLPMBPKK_04054" class="clusterblast-orf" id="dummy-18_q38_0_all"  />
<polygon points="646,35 651,30 676,30 676,40 651,40 646,35 " style="fill:white; stroke-width:1; stroke:black; " description="&lt;b&gt;LLPMBPKK_04055&lt;/b&gt;&lt;br&gt;hypothetical protein&lt;br&gt;Location: 4652956 - 4654618" locus_tag="LLPMBPKK_04055" class="clusterblast-orf" id="dummy-18_q39_0_all"  />
<polygon points="676,40 683,40 688,35 683,30 676,30 676,40 " style="fill:white; stroke-width:1; stroke:black; " description="&lt;b&gt;LLPMBPKK_04056&lt;/b&gt;&lt;br&gt;CDP-alcohol phosphatidyltransferase familyprotein&lt;br&gt;Location: 4654650 - 4655355" locus_tag="LLPMBPKK_04056" class="clusterblast-orf" id="dummy-18_q40_0_all"  />
<polygon points="687,35 692,30 696,30 696,40 692,40 687,35 " style="fill:white; stroke-width:1; stroke:black; " description="&lt;b&gt;LLPMBPKK_04057&lt;/b&gt;&lt;br&gt;Bifunctional protein HldE&lt;br&gt;Location: 4655244 - 4655793" locus_tag="LLPMBPKK_04057" class="clusterblast-orf" id="dummy-18_q41_0_all"  />
<polygon points="696,35 701,30 722,30 722,40 701,40 696,35 " style="fill:white; stroke-width:1; stroke:black; " description="&lt;b&gt;LLPMBPKK_04058&lt;/b&gt;&lt;br&gt;LamG domain-containing protein&lt;br&gt;Location: 4655789 - 4657256" locus_tag="LLPMBPKK_04058" class="clusterblast-orf" id="dummy-18_q42_0_all"  />
<polygon points="725,35 730,30 752,30 752,40 730,40 725,35 " style="fill:white; stroke-width:1; stroke:black; " description="&lt;b&gt;LLPMBPKK_04059&lt;/b&gt;&lt;br&gt;Polysaccharide biosynthesis protein&lt;br&gt;Location: 4657434 - 4658967" locus_tag="LLPMBPKK_04059" class="clusterblast-orf" id="dummy-18_q43_0_all"  />
<polygon points="752,35 757,30 780,30 780,40 757,40 752,35 " style="fill:white; stroke-width:1; stroke:black; " description="&lt;b&gt;LLPMBPKK_04060&lt;/b&gt;&lt;br&gt;hypothetical protein&lt;br&gt;Location: 4658963 - 4660556" locus_tag="LLPMBPKK_04060" class="clusterblast-orf" id="dummy-18_q44_0_all"  />
</g>
<g label="NZ_KL573547" description="NZ_KL573547 (68317-110707): Streptomyces baarnensis strain NRRL B-2842 P144 D... (39% of genes show similarity), arylpolyene,ladderane" class="clusterblast-cluster"  >
<text x="5" y="70" class="clusterblast-acc"  >
<a xlink:href="https://antismash-db.secondarymetabolites.org/area.html?record=NZ_KL573547&amp;start=68317&amp;end=110707" target="_blank">NZ_KL573547 (68317-110707)</a>: Streptomyces baarnensis strain NRRL B-2842 P144 D... (39% of genes show similarity), arylpolyene,ladderane</text>
<line x1="10" y1="85" x2="778.0" y2="85" style="stroke-width:1; stroke:grey; "  />
</g>
<g id="a18_000"  >
<polygon points="22,90 53,90 58,85 53,80 22,80 22,90 " style="fill:white; stroke-width:1; stroke:black; " description="&lt;b&gt;BG84_RS0117195&lt;/b&gt;&lt;br&gt;hypothetical protein&lt;br&gt;Location: 110406 - 108373" locus_tag="BG84_RS0117195" class="clusterblast-orf" id="dummy-18_h18_2_0"  />
</g>
<g id="a18_001"  >
<polygon points="60,90 63,90 68,85 63,80 60,80 60,90 " style="fill:white; stroke-width:1; stroke:black; " description="&lt;b&gt;BG84_RS0117190&lt;/b&gt;&lt;br&gt;GNAT family N-acetyltransferase&lt;br&gt;Location: 108256 - 107753" locus_tag="BG84_RS0117190" class="clusterblast-orf" id="dummy-18_h18_2_1"  />
</g>
<g id="a18_002"  >
<polygon points="72,90 89,90 94,85 89,80 72,80 72,90 " style="fill:white; stroke-width:1; stroke:black; " description="&lt;b&gt;BG84_RS0117185&lt;/b&gt;&lt;br&gt;serine hydrolase&lt;br&gt;Location: 107522 - 106290" locus_tag="BG84_RS0117185" class="clusterblast-orf" id="dummy-18_h18_2_2"  />
</g>
<g id="a18_003"  >
<polygon points="95,85 100,80 109,80 109,90 100,90 95,85 " style="fill:white; stroke-width:1; stroke:black; " description="&lt;b&gt;BG84_RS0117180&lt;/b&gt;&lt;br&gt;peptidase M4&lt;br&gt;Location: 106226 - 105426" locus_tag="BG84_RS0117180" class="clusterblast-orf" id="dummy-18_h18_2_3"  />
</g>
<g id="a18_004"  >
<polygon points="113,90 117,85 113,80 113,90 " style="fill:white; stroke-width:1; stroke:black; " description="&lt;b&gt;BG84_RS0117175&lt;/b&gt;&lt;br&gt;hypothetical protein&lt;br&gt;Location: 105228 - 104980" locus_tag="BG84_RS0117175" class="clusterblast-orf" id="dummy-18_h18_2_4"  />
</g>
<g id="a18_005"  >
<polygon points="120,90 129,90 134,85 129,80 120,80 120,90 " style="fill:white; stroke-width:1; stroke:black; " description="&lt;b&gt;BG84_RS0117170&lt;/b&gt;&lt;br&gt;DeoR/GlpR transcriptional regulator&lt;br&gt;Location: 104789 - 104028" locus_tag="BG84_RS0117170" class="clusterblast-orf" id="dummy-18_h18_2_5"  />
</g>
<g id="a18_006"  >
<polygon points="134,90 145,90 150,85 145,80 134,80 134,90 " style="fill:white; stroke-width:1; stroke:black; " description="&lt;b&gt;BG84_RS0117165&lt;/b&gt;&lt;br&gt;1-phosphofructokinase&lt;br&gt;Location: 104031 - 103084" locus_tag="BG84_RS0117165" class="clusterblast-orf" id="dummy-18_h18_2_6"  />
</g>
<g id="a18_007"  >
<polygon points="153,90 183,90 188,85 183,80 153,80 153,90 " style="fill:white; stroke-width:1; stroke:black; " description="&lt;b&gt;BG84_RS0117160&lt;/b&gt;&lt;br&gt;PTS transporter subunit EIIA&lt;br&gt;Location: 102959 - 100950" locus_tag="BG84_RS0117160" class="clusterblast-orf" id="dummy-18_h18_2_7"  />
</g>
<g id="a18_008"  >
<polygon points="189,90 193,85 189,80 189,90 " style="fill:white; stroke-width:1; stroke:black; " description="&lt;b&gt;BG84_RS0117155&lt;/b&gt;&lt;br&gt;HPr family phosphocarrier protein&lt;br&gt;Location: 100900 - 100628" locus_tag="BG84_RS0117155" class="clusterblast-orf" id="dummy-18_h18_2_8"  />
</g>
<g id="a18_009"  >
<polygon points="195,90 198,90 203,85 198,80 195,80 195,90 " style="fill:white; stroke-width:1; stroke:black; " description="&lt;b&gt;BG84_RS0117150&lt;/b&gt;&lt;br&gt;protein phosphatase&lt;br&gt;Location: 100552 - 100106" locus_tag="BG84_RS0117150" class="clusterblast-orf" id="dummy-18_h18_2_9"  />
</g>
<g id="a18_0010"  >
<polygon points="203,85 208,80 215,80 215,90 208,90 203,85 " style="fill:white; stroke-width:1; stroke:black; " description="&lt;b&gt;BG84_RS0117145&lt;/b&gt;&lt;br&gt;signal peptidase I&lt;br&gt;Location: 100109 - 99411" locus_tag="BG84_RS0117145" class="clusterblast-orf" id="dummy-18_h18_2_10"  />
</g>
<g id="a18_0011"  >
<polygon points="217,85 220,80 220,90 217,85 " style="fill:white; stroke-width:1; stroke:black; " description="&lt;b&gt;BG84_RS1000000139270&lt;/b&gt;&lt;br&gt;hypothetical protein&lt;br&gt;Location: 99292 - 99089" locus_tag="BG84_RS1000000139270" class="clusterblast-orf" id="dummy-18_h18_2_11"  />
</g>
<g id="a18_0012"  >
<polygon points="219,85 223,80 223,90 219,85 " style="fill:white; stroke-width:1; stroke:black; " description="&lt;b&gt;BG84_RS0117140&lt;/b&gt;&lt;br&gt;MbtH family protein&lt;br&gt;Location: 99146 - 98925" locus_tag="BG84_RS0117140" class="clusterblast-orf" id="dummy-18_h18_2_12"  />
</g>
<g id="a18_0013"  >
<polygon points="225,85 230,80 237,80 237,90 230,90 225,85 " style="fill:#d88e15; stroke-width:1; stroke:black; " description="&lt;b&gt;BG84_RS0117135&lt;/b&gt;&lt;br&gt;isomerase&lt;br&gt;Location: 98839 - 98132&lt;br&gt;&lt;br&gt;&lt;b&gt;BlastP hit with LLPMBPKK_04028&lt;/b&gt;&lt;br&gt;Percentage identity: 52&lt;br&gt;Percentage coverage: 99&lt;br&gt;BLAST bit score: 233&lt;br&gt;E-value: 2.08e-75" locus_tag="BG84_RS0117135" class="clusterblast-orf" id="dummy-18_h18_2_13"  />
</g>
<g id="a18_0014"  >
<polygon points="238,85 243,80 251,80 251,90 243,90 238,85 " style="fill:#15d84b; stroke-width:1; stroke:black; " description="&lt;b&gt;BG84_RS0117130&lt;/b&gt;&lt;br&gt;3-oxoacyl-[acyl-carrier-protein] reductase&lt;br&gt;Location: 98114 - 97368&lt;br&gt;&lt;br&gt;&lt;b&gt;BlastP hit with LLPMBPKK_04029&lt;/b&gt;&lt;br&gt;Percentage identity: 63&lt;br&gt;Percentage coverage: 100&lt;br&gt;BLAST bit score: 298&lt;br&gt;E-value: 8.46e-101" locus_tag="BG84_RS0117130" class="clusterblast-orf" id="dummy-18_h18_2_14"  />
</g>
<g id="a18_0015"  >
<polygon points="252,85 257,80 260,80 260,90 257,90 252,85 " style="fill:#154bd8; stroke-width:1; stroke:black; " description="&lt;b&gt;BG84_RS0117125&lt;/b&gt;&lt;br&gt;3-hydroxyacyl-ACP dehydratase&lt;br&gt;Location: 97296 - 96811&lt;br&gt;&lt;br&gt;&lt;b&gt;BlastP hit with LLPMBPKK_04030&lt;/b&gt;&lt;br&gt;Percentage identity: 50&lt;br&gt;Percentage coverage: 46&lt;br&gt;BLAST bit score: 139&lt;br&gt;E-value: 1.08e-38" locus_tag="BG84_RS0117125" class="clusterblast-orf" id="dummy-18_h18_2_15"  />
</g>
<g id="a18_0016"  >
<polygon points="260,85 265,80 267,80 267,90 265,90 260,85 " style="fill:#154bd8; stroke-width:1; stroke:black; " description="&lt;b&gt;BG84_RS0117120&lt;/b&gt;&lt;br&gt;hypothetical protein&lt;br&gt;Location: 96814 - 96440&lt;br&gt;&lt;br&gt;&lt;b&gt;BlastP hit with LLPMBPKK_04030&lt;/b&gt;&lt;br&gt;Percentage identity: 45&lt;br&gt;Percentage coverage: 33&lt;br&gt;BLAST bit score: 79&lt;br&gt;E-value: 4.93e-16" locus_tag="BG84_RS0117120" class="clusterblast-orf" id="dummy-18_h18_2_16"  />
</g>
<g id="a18_0017"  >
<polygon points="268,85 273,80 273,80 273,90 273,90 268,85 " style="fill:#d815b7; stroke-width:1; stroke:black; " description="&lt;b&gt;BG84_RS0117115&lt;/b&gt;&lt;br&gt;acyl carrier protein&lt;br&gt;Location: 96362 - 96102&lt;br&gt;&lt;br&gt;&lt;b&gt;BlastP hit with LLPMBPKK_04031&lt;/b&gt;&lt;br&gt;Percentage identity: 44&lt;br&gt;Percentage coverage: 99&lt;br&gt;BLAST bit score: 64&lt;br&gt;E-value: 3.73e-13" locus_tag="BG84_RS0117115" class="clusterblast-orf" id="dummy-18_h18_2_17"  />
</g>
<g id="a18_0018"  >
<polygon points="274,85 279,80 293,80 293,90 279,90 274,85 " style="fill:#d8b715; stroke-width:1; stroke:black; " description="&lt;b&gt;BG84_RS0117110&lt;/b&gt;&lt;br&gt;3-oxoacyl-ACP synthase&lt;br&gt;Location: 96041 - 94968&lt;br&gt;&lt;br&gt;&lt;b&gt;BlastP hit with LLPMBPKK_04032&lt;/b&gt;&lt;br&gt;Percentage identity: 52&lt;br&gt;Percentage coverage: 97&lt;br&gt;BLAST bit score: 309&lt;br&gt;E-value: 1.36e-101" locus_tag="BG84_RS0117110" class="clusterblast-orf" id="dummy-18_h18_2_18"  />
</g>
<g id="a18_0019"  >
<polygon points="294,85 299,80 301,80 301,90 299,90 294,85 " style="fill:#15d873; stroke-width:1; stroke:black; " description="&lt;b&gt;BG84_RS0117105&lt;/b&gt;&lt;br&gt;hypothetical protein&lt;br&gt;Location: 94918 - 94499&lt;br&gt;&lt;br&gt;&lt;b&gt;BlastP hit with LLPMBPKK_04033&lt;/b&gt;&lt;br&gt;Percentage identity: 45&lt;br&gt;Percentage coverage: 93&lt;br&gt;BLAST bit score: 76&lt;br&gt;E-value: 1.43e-16" locus_tag="BG84_RS0117105" class="clusterblast-orf" id="dummy-18_h18_2_19"  />
</g>
<g id="a18_0020"  >
<polygon points="301,85 306,80 308,80 308,90 306,90 301,85 " style="fill:#1523d8; stroke-width:1; stroke:black; " description="&lt;b&gt;BG84_RS0117100&lt;/b&gt;&lt;br&gt;hypothetical protein&lt;br&gt;Location: 94499 - 94092&lt;br&gt;&lt;br&gt;&lt;b&gt;BlastP hit with LLPMBPKK_04034&lt;/b&gt;&lt;br&gt;Percentage identity: 52&lt;br&gt;Percentage coverage: 96&lt;br&gt;BLAST bit score: 142&lt;br&gt;E-value: 7.35e-43" locus_tag="BG84_RS0117100" class="clusterblast-orf" id="dummy-18_h18_2_20"  />
</g>
<g id="a18_0021"  >
<polygon points="308,85 313,80 314,80 314,90 313,90 308,85 " style="fill:#d8158e; stroke-width:1; stroke:black; " description="&lt;b&gt;BG84_RS0117095&lt;/b&gt;&lt;br&gt;DsrE family protein&lt;br&gt;Location: 94090 - 93761&lt;br&gt;&lt;br&gt;&lt;b&gt;BlastP hit with LLPMBPKK_04035&lt;/b&gt;&lt;br&gt;Percentage identity: 45&lt;br&gt;Percentage coverage: 102&lt;br&gt;BLAST bit score: 89&lt;br&gt;E-value: 3.05e-22" locus_tag="BG84_RS0117095" class="clusterblast-orf" id="dummy-18_h18_2_21"  />
</g>
<g id="a18_0022"  >
<polygon points="314,85 319,80 331,80 331,90 319,90 314,85 " style="fill:#d2d815; stroke-width:1; stroke:black; " description="&lt;b&gt;BG84_RS0117090&lt;/b&gt;&lt;br&gt;hypothetical protein&lt;br&gt;Location: 93764 - 92760&lt;br&gt;&lt;br&gt;&lt;b&gt;BlastP hit with LLPMBPKK_04036&lt;/b&gt;&lt;br&gt;Percentage identity: 63&lt;br&gt;Percentage coverage: 98&lt;br&gt;BLAST bit score: 409&lt;br&gt;E-value: 1.1e-141" locus_tag="BG84_RS0117090" class="clusterblast-orf" id="dummy-18_h18_2_22"  />
</g>
<g id="a18_0023"  >
<polygon points="331,85 336,80 351,80 351,90 336,90 331,85 " style="fill:#15d89c; stroke-width:1; stroke:black; " description="&lt;b&gt;BG84_RS0117085&lt;/b&gt;&lt;br&gt;hypothetical protein&lt;br&gt;Location: 92763 - 91645&lt;br&gt;&lt;br&gt;&lt;b&gt;BlastP hit with LLPMBPKK_04037&lt;/b&gt;&lt;br&gt;Percentage identity: 40&lt;br&gt;Percentage coverage: 98&lt;br&gt;BLAST bit score: 191&lt;br&gt;E-value: 1.12e-56" locus_tag="BG84_RS0117085" class="clusterblast-orf" id="dummy-18_h18_2_23"  />
</g>
<g id="a18_0024"  >
<polygon points="351,85 356,80 367,80 367,90 356,90 351,85 " style="fill:#d8b715; stroke-width:1; stroke:black; " description="&lt;b&gt;BG84_RS0117080&lt;/b&gt;&lt;br&gt;hypothetical protein&lt;br&gt;Location: 91648 - 90704&lt;br&gt;&lt;br&gt;&lt;b&gt;BlastP hit with LLPMBPKK_04038&lt;/b&gt;&lt;br&gt;Percentage identity: 50&lt;br&gt;Percentage coverage: 99&lt;br&gt;BLAST bit score: 244&lt;br&gt;E-value: 3.35e-77" locus_tag="BG84_RS0117080" class="clusterblast-orf" id="dummy-18_h18_2_24"  />
</g>
<g id="a18_0025"  >
<polygon points="367,85 372,80 387,80 387,90 372,90 367,85 " style="fill:#3015d8; stroke-width:1; stroke:black; " description="&lt;b&gt;BG84_RS0117075&lt;/b&gt;&lt;br&gt;3-oxoacyl-ACP synthase&lt;br&gt;Location: 90707 - 89568&lt;br&gt;&lt;br&gt;&lt;b&gt;BlastP hit with LLPMBPKK_04039&lt;/b&gt;&lt;br&gt;Percentage identity: 63&lt;br&gt;Percentage coverage: 97&lt;br&gt;BLAST bit score: 446&lt;br&gt;E-value: 5.93e-155&lt;br&gt;&lt;br&gt;&lt;b&gt;BlastP hit with LLPMBPKK_04040&lt;/b&gt;&lt;br&gt;Percentage identity: 32&lt;br&gt;Percentage coverage: 97&lt;br&gt;BLAST bit score: 170&lt;br&gt;E-value: 4.92e-47" locus_tag="BG84_RS0117075" class="clusterblast-orf" id="dummy-18_h18_2_25"  />
</g>
<g id="a18_0026"  >
<polygon points="387,85 392,80 409,80 409,90 392,90 387,85 " style="fill:#3015d8; stroke-width:1; stroke:black; " description="&lt;b&gt;BG84_RS0117070&lt;/b&gt;&lt;br&gt;beta-ketoacyl-[acyl-carrier-protein] synthase family protein&lt;br&gt;Location: 89571 - 88318&lt;br&gt;&lt;br&gt;&lt;b&gt;BlastP hit with LLPMBPKK_04040&lt;/b&gt;&lt;br&gt;Percentage identity: 70&lt;br&gt;Percentage coverage: 99&lt;br&gt;BLAST bit score: 565&lt;br&gt;E-value: 7.74e-201" locus_tag="BG84_RS0117070" class="clusterblast-orf" id="dummy-18_h18_2_26"  />
</g>
<g id="a18_0027"  >
<polygon points="410,85 415,80 415,80 415,90 415,90 410,85 " style="fill:#d81566; stroke-width:1; stroke:black; " description="&lt;b&gt;BG84_RS0117065&lt;/b&gt;&lt;br&gt;acyl carrier protein&lt;br&gt;Location: 88271 - 88020&lt;br&gt;&lt;br&gt;&lt;b&gt;BlastP hit with LLPMBPKK_04041&lt;/b&gt;&lt;br&gt;Percentage identity: 63&lt;br&gt;Percentage coverage: 98&lt;br&gt;BLAST bit score: 101&lt;br&gt;E-value: 5.21e-28" locus_tag="BG84_RS0117065" class="clusterblast-orf" id="dummy-18_h18_2_27"  />
</g>
<g id="a18_0028"  >
<polygon points="416,85 421,80 433,80 433,90 421,90 416,85 " style="fill:white; stroke-width:1; stroke:black; " description="&lt;b&gt;BG84_RS0117060&lt;/b&gt;&lt;br&gt;hypothetical protein&lt;br&gt;Location: 87959 - 86961" locus_tag="BG84_RS0117060" class="clusterblast-orf" id="dummy-18_h18_2_28"  />
</g>
<g id="a18_0029"  >
<polygon points="436,85 441,80 453,80 453,90 441,90 436,85 " style="fill:#a9d815; stroke-width:1; stroke:black; " description="&lt;b&gt;BG84_RS1000000138080&lt;/b&gt;&lt;br&gt;response regulator transcription factor&lt;br&gt;Location: 86797 - 85835&lt;br&gt;&lt;br&gt;&lt;b&gt;BlastP hit with LLPMBPKK_04042&lt;/b&gt;&lt;br&gt;Percentage identity: 39&lt;br&gt;Percentage coverage: 81&lt;br&gt;BLAST bit score: 100&lt;br&gt;E-value: 5.88e-23" locus_tag="BG84_RS1000000138080" class="clusterblast-orf" id="dummy-18_h18_2_29"  />
</g>
<g id="a18_0030"  >
<polygon points="458,85 463,80 470,80 470,90 463,90 458,85 " style="fill:white; stroke-width:1; stroke:black; " description="&lt;b&gt;BG84_RS0117050&lt;/b&gt;&lt;br&gt;helix-turn-helix domain-containing protein&lt;br&gt;Location: 85557 - 84844" locus_tag="BG84_RS0117050" class="clusterblast-orf" id="dummy-18_h18_2_30"  />
</g>
<g id="a18_0031"  >
<polygon points="477,90 481,85 477,80 477,90 " style="fill:white; stroke-width:1; stroke:black; " description="&lt;b&gt;BG84_RS0117045&lt;/b&gt;&lt;br&gt;hypothetical protein&lt;br&gt;Location: 84453 - 84214" locus_tag="BG84_RS0117045" class="clusterblast-orf" id="dummy-18_h18_2_31"  />
</g>
<g id="a18_0032"  >
<polygon points="483,85 488,80 517,80 517,90 488,90 483,85 " style="fill:white; stroke-width:1; stroke:black; " description="&lt;b&gt;BG84_RS01000000137510&lt;/b&gt;&lt;br&gt;hypothetical protein&lt;br&gt;Location: 84098 - 82176" locus_tag="BG84_RS01000000137510" class="clusterblast-orf" id="dummy-18_h18_2_32"  />
</g>
<g id="a18_0033"  >
<polygon points="518,85 521,80 521,90 518,85 " style="fill:white; stroke-width:1; stroke:black; " description="&lt;b&gt;BG84_RS1000000139265&lt;/b&gt;&lt;br&gt;IclR family transcriptional regulator&lt;br&gt;Location: 82117 - 81974" locus_tag="BG84_RS1000000139265" class="clusterblast-orf" id="dummy-18_h18_2_33"  />
</g>
<g id="a18_0034"  >
<polygon points="525,85 530,80 536,80 536,90 530,90 525,85 " style="fill:white; stroke-width:1; stroke:black; " description="&lt;b&gt;BG84_RS0117030&lt;/b&gt;&lt;br&gt;helix-turn-helix domain-containing protein&lt;br&gt;Location: 81725 - 81102" locus_tag="BG84_RS0117030" class="clusterblast-orf" id="dummy-18_h18_2_34"  />
</g>
<g id="a18_0035"  >
<polygon points="536,85 541,80 549,80 549,90 541,90 536,85 " style="fill:white; stroke-width:1; stroke:black; " description="&lt;b&gt;BG84_RS0117025&lt;/b&gt;&lt;br&gt;thioesterase&lt;br&gt;Location: 81105 - 80356" locus_tag="BG84_RS0117025" class="clusterblast-orf" id="dummy-18_h18_2_35"  />
</g>
<g id="a18_0036"  >
<polygon points="552,85 557,80 565,80 565,90 557,90 552,85 " style="fill:#a9d815; stroke-width:1; stroke:black; " description="&lt;b&gt;BG84_RS0117020&lt;/b&gt;&lt;br&gt;hypothetical protein&lt;br&gt;Location: 80193 - 79462&lt;br&gt;&lt;br&gt;&lt;b&gt;BlastP hit with LLPMBPKK_04042&lt;/b&gt;&lt;br&gt;Percentage identity: 37&lt;br&gt;Percentage coverage: 50&lt;br&gt;BLAST bit score: 64&lt;br&gt;E-value: 6.81e-10" locus_tag="BG84_RS0117020" class="clusterblast-orf" id="dummy-18_h18_2_36"  />
</g>
<g id="a18_0037"  >
<polygon points="569,85 574,80 582,80 582,90 574,90 569,85 " style="fill:#a9d815; stroke-width:1; stroke:black; " description="&lt;b&gt;BG84_RS0117015&lt;/b&gt;&lt;br&gt;response regulator transcription factor&lt;br&gt;Location: 79230 - 78451&lt;br&gt;&lt;br&gt;&lt;b&gt;BlastP hit with LLPMBPKK_04042&lt;/b&gt;&lt;br&gt;Percentage identity: 36&lt;br&gt;Percentage coverage: 45&lt;br&gt;BLAST bit score: 61&lt;br&gt;E-value: 9.45e-09" locus_tag="BG84_RS0117015" class="clusterblast-orf" id="dummy-18_h18_2_37"  />
</g>
<g id="a18_0038"  >
<polygon points="588,90 598,90 603,85 598,80 588,80 588,90 " style="fill:white; stroke-width:1; stroke:black; " description="&lt;b&gt;BG84_RS0117010&lt;/b&gt;&lt;br&gt;4'-phosphopantetheinyl transferase superfamily protein&lt;br&gt;Location: 78158 - 77271" locus_tag="BG84_RS0117010" class="clusterblast-orf" id="dummy-18_h18_2_38"  />
</g>
<g id="a18_0039"  >
<polygon points="608,85 613,80 634,80 634,90 613,90 608,85 " style="fill:white; stroke-width:1; stroke:black; " description="&lt;b&gt;BG84_RS0117005&lt;/b&gt;&lt;br&gt;PucR family transcriptional regulator&lt;br&gt;Location: 76987 - 75512" locus_tag="BG84_RS0117005" class="clusterblast-orf" id="dummy-18_h18_2_39"  />
</g>
<g id="a18_0040"  >
<polygon points="641,90 655,90 660,85 655,80 641,80 641,90 " style="fill:white; stroke-width:1; stroke:black; " description="&lt;b&gt;BG84_RS0117000&lt;/b&gt;&lt;br&gt;DNA polymerase III subunit beta&lt;br&gt;Location: 75114 - 73999" locus_tag="BG84_RS0117000" class="clusterblast-orf" id="dummy-18_h18_2_40"  />
</g>
<g id="a18_0041"  >
<polygon points="661,85 666,80 671,80 671,90 666,90 661,85 " style="fill:white; stroke-width:1; stroke:black; " description="&lt;b&gt;BG84_RS0116995&lt;/b&gt;&lt;br&gt;hypothetical protein&lt;br&gt;Location: 73941 - 73414" locus_tag="BG84_RS0116995" class="clusterblast-orf" id="dummy-18_h18_2_41"  />
</g>
<g id="a18_0042"  >
<polygon points="676,85 681,80 691,80 691,90 681,90 676,85 " style="fill:white; stroke-width:1; stroke:black; " description="&lt;b&gt;BG84_RS0116990&lt;/b&gt;&lt;br&gt;chitinase&lt;br&gt;Location: 73130 - 72240" locus_tag="BG84_RS0116990" class="clusterblast-orf" id="dummy-18_h18_2_42"  />
</g>
<g id="a18_0043"  >
<polygon points="697,85 702,80 708,80 708,90 702,90 697,85 " style="fill:white; stroke-width:1; stroke:black; " description="&lt;b&gt;BG84_RS0116985&lt;/b&gt;&lt;br&gt;chitinase&lt;br&gt;Location: 71911 - 71288" locus_tag="BG84_RS0116985" class="clusterblast-orf" id="dummy-18_h18_2_43"  />
</g>
<g id="a18_0044"  >
<polygon points="716,85 721,80 738,80 738,90 721,90 716,85 " style="fill:white; stroke-width:1; stroke:black; " description="&lt;b&gt;BG84_RS0116980&lt;/b&gt;&lt;br&gt;adenylosuccinate synthase&lt;br&gt;Location: 70843 - 69560" locus_tag="BG84_RS0116980" class="clusterblast-orf" id="dummy-18_h18_2_44"  />
</g>
<g id="a18_0045"  >
<polygon points="742,90 752,90 757,85 752,80 742,80 742,90 " style="fill:white; stroke-width:1; stroke:black; " description="&lt;b&gt;BG84_RS0116975&lt;/b&gt;&lt;br&gt;hypothetical protein&lt;br&gt;Location: 69373 - 68492" locus_tag="BG84_RS0116975" class="clusterblast-orf" id="dummy-18_h18_2_45"  />
</g>
</svg>
