<svg xmlns="http://www.w3.org/2000/svg" xmlns:xlink="http://www.w3.org/1999/xlink" version="1.1" x="0" y="0" height="230" width="800" viewBox="0 0 800 230" preserveAspectRatio="none"  >
<g label="Query sequence" class="clusterblast-cluster"  >
<text x="5" y="20" class="clusterblast-acc"  >
Query sequence</text>
<line x1="10" y1="35" x2="778.0" y2="35" style="stroke-width:1; stroke:grey; "  />
<polygon points="0,40 29,40 34,35 29,30 0,30 0,40 " style="fill:white; stroke-width:1; stroke:black; " description="&lt;b&gt;LLPMBPKK_01488&lt;/b&gt;&lt;br&gt;AfsR-like regulator&lt;br&gt;Location: 1770624 - 1772943" locus_tag="LLPMBPKK_01488" class="clusterblast-orf" id="dummy-10_q0_0_all"  />
<polygon points="34,40 47,40 52,35 47,30 34,30 34,40 " style="fill:white; stroke-width:1; stroke:black; " description="&lt;b&gt;LLPMBPKK_01489&lt;/b&gt;&lt;br&gt;Radical SAM superfamily protein&lt;br&gt;Location: 1772939 - 1774100" locus_tag="LLPMBPKK_01489" class="clusterblast-orf" id="dummy-10_q1_0_all"  />
<polygon points="51,40 55,35 51,30 51,40 " style="fill:white; stroke-width:1; stroke:black; " description="&lt;b&gt;LLPMBPKK_01490&lt;/b&gt;&lt;br&gt;hypothetical protein&lt;br&gt;Location: 1774053 - 1774317" locus_tag="LLPMBPKK_01490" class="clusterblast-orf" id="dummy-10_q2_0_all"  />
<polygon points="55,35 60,30 64,30 64,40 60,40 55,35 " style="fill:#d81515; stroke-width:1; stroke:black; " description="&lt;b&gt;LLPMBPKK_01491&lt;/b&gt;&lt;br&gt;YigZ family protein&lt;br&gt;Location: 1774301 - 1774928" locus_tag="LLPMBPKK_01491" class="clusterblast-orf" id="dummy-10_q3_0_all"  />
<polygon points="65,35 70,30 73,30 73,40 70,40 65,35 " style="fill:#67d815; stroke-width:1; stroke:black; " description="&lt;b&gt;LLPMBPKK_01492&lt;/b&gt;&lt;br&gt;histidine phosphatase family protein&lt;br&gt;Location: 1774963 - 1775509" locus_tag="LLPMBPKK_01492" class="clusterblast-orf" id="dummy-10_q4_0_all"  />
<polygon points="73,35 78,30 87,30 87,40 78,40 73,35 " style="fill:#15b9d8; stroke-width:1; stroke:black; " description="&lt;b&gt;LLPMBPKK_01493&lt;/b&gt;&lt;br&gt;hypothetical protein&lt;br&gt;Location: 1775505 - 1776423" locus_tag="LLPMBPKK_01493" class="clusterblast-orf" id="dummy-10_q5_0_all"  />
<polygon points="89,40 90,40 95,35 90,30 89,30 89,40 " style="fill:#8615d8; stroke-width:1; stroke:black; " description="&lt;b&gt;LLPMBPKK_01494&lt;/b&gt;&lt;br&gt;CoA-binding domain-containing protein&lt;br&gt;Location: 1776564 - 1776972" locus_tag="LLPMBPKK_01494" class="clusterblast-orf" id="dummy-10_q6_0_all"  />
<polygon points="98,40 118,40 123,35 118,30 98,30 98,40 " style="fill:#d83415; stroke-width:1; stroke:black; " description="&lt;b&gt;LLPMBPKK_01495&lt;/b&gt;&lt;br&gt;APC family permease&lt;br&gt;Location: 1777198 - 1778833" locus_tag="LLPMBPKK_01495" class="clusterblast-orf" id="dummy-10_q7_0_all"  />
<polygon points="124,40 137,40 142,35 137,30 124,30 124,40 " style="fill:#49d815; stroke-width:1; stroke:black; " description="&lt;b&gt;LLPMBPKK_01496&lt;/b&gt;&lt;br&gt;4-hydroxybenzoate 3-monooxygenase&lt;br&gt;Location: 1778898 - 1780119" locus_tag="LLPMBPKK_01496" class="clusterblast-orf" id="dummy-10_q8_0_all"  />
<polygon points="142,35 147,30 147,30 147,40 147,40 142,35 " style="fill:#159bd8; stroke-width:1; stroke:black; " description="&lt;b&gt;LLPMBPKK_01497&lt;/b&gt;&lt;br&gt;regulatory protein&lt;br&gt;Location: 1780124 - 1780472" locus_tag="LLPMBPKK_01497" class="clusterblast-orf" id="dummy-10_q9_0_all"  />
<polygon points="148,40 159,40 164,35 159,30 148,30 148,40 " style="fill:#a515d8; stroke-width:1; stroke:black; " description="&lt;b&gt;LLPMBPKK_01498&lt;/b&gt;&lt;br&gt;cation transporter&lt;br&gt;Location: 1780545 - 1781577" locus_tag="LLPMBPKK_01498" class="clusterblast-orf" id="dummy-10_q10_0_all"  />
<polygon points="165,35 170,30 173,30 173,40 170,40 165,35 " style="fill:#d85315; stroke-width:1; stroke:black; " description="&lt;b&gt;LLPMBPKK_01499&lt;/b&gt;&lt;br&gt;YbaK-like protein&lt;br&gt;Location: 1781647 - 1782208" locus_tag="LLPMBPKK_01499" class="clusterblast-orf" id="dummy-10_q11_0_all"  />
<polygon points="174,35 179,30 182,30 182,40 179,40 174,35 " style="fill:#2ad815; stroke-width:1; stroke:black; " description="&lt;b&gt;LLPMBPKK_01500&lt;/b&gt;&lt;br&gt;XRE family transcriptional regulator&lt;br&gt;Location: 1782251 - 1782824" locus_tag="LLPMBPKK_01500" class="clusterblast-orf" id="dummy-10_q12_0_all"  />
<polygon points="184,40 192,40 197,35 192,30 184,30 184,40 " style="fill:#157cd8; stroke-width:1; stroke:black; " description="&lt;b&gt;LLPMBPKK_01501&lt;/b&gt;&lt;br&gt;DMT family transporter&lt;br&gt;Location: 1782933 - 1783791" locus_tag="LLPMBPKK_01501" class="clusterblast-orf" id="dummy-10_q13_0_all"  />
<polygon points="197,35 202,30 209,30 209,40 202,40 197,35 " style="fill:#c415d8; stroke-width:1; stroke:black; " description="&lt;b&gt;LLPMBPKK_01502&lt;/b&gt;&lt;br&gt;sugar acetyltransferase&lt;br&gt;Location: 1783812 - 1784577" locus_tag="LLPMBPKK_01502" class="clusterblast-orf" id="dummy-10_q14_0_all"  />
<polygon points="210,40 213,40 218,35 213,30 210,30 210,40 " style="fill:#d87215; stroke-width:1; stroke:black; " description="&lt;b&gt;LLPMBPKK_01503&lt;/b&gt;&lt;br&gt;siderophore binding protein&lt;br&gt;Location: 1784686 - 1785214" locus_tag="LLPMBPKK_01503" class="clusterblast-orf" id="dummy-10_q15_0_all"  />
<polygon points="218,35 223,30 228,30 228,40 223,40 218,35 " style="fill:#15d81f; stroke-width:1; stroke:black; " description="&lt;b&gt;LLPMBPKK_01504&lt;/b&gt;&lt;br&gt;DedA family protein&lt;br&gt;Location: 1785231 - 1785876" locus_tag="LLPMBPKK_01504" class="clusterblast-orf" id="dummy-10_q16_0_all"  />
<polygon points="232,40 243,40 248,35 243,30 232,30 232,40 " style="fill:#155dd8; stroke-width:1; stroke:black; " description="&lt;b&gt;LLPMBPKK_01505&lt;/b&gt;&lt;br&gt;flippase-like domain-containing protein&lt;br&gt;Location: 1786135 - 1787215" locus_tag="LLPMBPKK_01505" class="clusterblast-orf" id="dummy-10_q17_0_all"  />
<polygon points="249,35 254,30 265,30 265,40 254,40 249,35 " style="fill:#d815ce; stroke-width:1; stroke:black; " description="&lt;b&gt;LLPMBPKK_01506&lt;/b&gt;&lt;br&gt;class I SAM-dependent methyltransferase&lt;br&gt;Location: 1787237 - 1788320" locus_tag="LLPMBPKK_01506" class="clusterblast-orf" id="dummy-10_q18_0_all"  />
<polygon points="265,35 270,30 282,30 282,40 270,40 265,35 " style="fill:#d89015; stroke-width:1; stroke:black; " description="&lt;b&gt;LLPMBPKK_01507&lt;/b&gt;&lt;br&gt;glycosyltransferase&lt;br&gt;Location: 1788316 - 1789498" locus_tag="LLPMBPKK_01507" class="clusterblast-orf" id="dummy-10_q19_0_all"  />
<polygon points="282,35 287,30 294,30 294,40 287,40 282,35 " style="fill:#15d83e; stroke-width:1; stroke:black; " description="&lt;b&gt;LLPMBPKK_01508&lt;/b&gt;&lt;br&gt;alpha/beta hydrolase&lt;br&gt;Location: 1789494 - 1790295" locus_tag="LLPMBPKK_01508" class="clusterblast-orf" id="dummy-10_q20_0_all"  />
<polygon points="294,35 299,30 299,30 299,40 299,40 294,35 " style="fill:#153ed8; stroke-width:1; stroke:black; " description="&lt;b&gt;LLPMBPKK_01509&lt;/b&gt;&lt;br&gt;acyl carrier protein&lt;br&gt;Location: 1790298 - 1790619" locus_tag="LLPMBPKK_01509" class="clusterblast-orf" id="dummy-10_q21_0_all"  />
<polygon points="299,35 304,30 369,30 369,40 304,40 299,35 " style="fill:#d815af; stroke-width:1; stroke:black; " description="&lt;b&gt;LLPMBPKK_01510&lt;/b&gt;&lt;br&gt;type I polyketide synthase&lt;br&gt;Location: 1790615 - 1795274" locus_tag="LLPMBPKK_01510" class="clusterblast-orf" id="dummy-10_q22_0_all"  />
<polygon points="369,35 374,30 482,30 482,40 374,40 369,35 " style="fill:#d815af; stroke-width:1; stroke:black; " description="&lt;b&gt;LLPMBPKK_01511&lt;/b&gt;&lt;br&gt;hypothetical protein&lt;br&gt;Location: 1795275 - 1802793" locus_tag="LLPMBPKK_01511" class="clusterblast-orf" id="dummy-10_q23_0_all"  />
<polygon points="489,35 494,30 520,30 520,40 494,40 489,35 " style="fill:#d8af15; stroke-width:1; stroke:black; " description="&lt;b&gt;LLPMBPKK_01512&lt;/b&gt;&lt;br&gt;Ricin-type beta-trefoil lectin domain protein&lt;br&gt;Location: 1803271 - 1805356" locus_tag="LLPMBPKK_01512" class="clusterblast-orf" id="dummy-10_q24_0_all"  />
<polygon points="528,35 533,30 537,30 537,40 533,40 528,35 " style="fill:#15d85d; stroke-width:1; stroke:black; " description="&lt;b&gt;LLPMBPKK_01513&lt;/b&gt;&lt;br&gt;MFS transporter&lt;br&gt;Location: 1805884 - 1806463" locus_tag="LLPMBPKK_01513" class="clusterblast-orf" id="dummy-10_q25_0_all"  />
<polygon points="548,40 559,40 564,35 559,30 548,30 548,40 " style="fill:#151fd8; stroke-width:1; stroke:black; " description="&lt;b&gt;LLPMBPKK_01514&lt;/b&gt;&lt;br&gt;helix-turn-helix domain-containing protein&lt;br&gt;Location: 1807237 - 1808275" locus_tag="LLPMBPKK_01514" class="clusterblast-orf" id="dummy-10_q26_0_all"  />
<polygon points="564,35 569,30 578,30 578,40 569,40 564,35 " style="fill:#d81590; stroke-width:1; stroke:black; " description="&lt;b&gt;LLPMBPKK_01515&lt;/b&gt;&lt;br&gt;ectoine hydroxylase&lt;br&gt;Location: 1808329 - 1809220" locus_tag="LLPMBPKK_01515" class="clusterblast-orf" id="dummy-10_q27_0_all"  />
<polygon points="578,35 583,30 586,30 586,40 583,40 578,35 " style="fill:#d8ce15; stroke-width:1; stroke:black; " description="&lt;b&gt;LLPMBPKK_01516&lt;/b&gt;&lt;br&gt;L-2,4-diaminobutyric acid acetyltransferase&lt;br&gt;Location: 1809216 - 1809768" locus_tag="LLPMBPKK_01516" class="clusterblast-orf" id="dummy-10_q28_0_all"  />
<polygon points="586,35 591,30 592,30 592,40 591,40 586,35 " style="fill:#15d87c; stroke-width:1; stroke:black; " description="&lt;b&gt;LLPMBPKK_01517&lt;/b&gt;&lt;br&gt;L-ectoine synthase&lt;br&gt;Location: 1809769 - 1810174" locus_tag="LLPMBPKK_01517" class="clusterblast-orf" id="dummy-10_q29_0_all"  />
<polygon points="594,35 599,30 604,30 604,40 599,40 594,35 " style="fill:#2a15d8; stroke-width:1; stroke:black; " description="&lt;b&gt;LLPMBPKK_01518&lt;/b&gt;&lt;br&gt;diaminobutyrate--2-oxoglutarate transaminase&lt;br&gt;Location: 1810283 - 1810940" locus_tag="LLPMBPKK_01518" class="clusterblast-orf" id="dummy-10_q30_0_all"  />
<polygon points="613,35 617,30 617,40 613,35 " style="fill:#d81572; stroke-width:1; stroke:black; " description="&lt;b&gt;LLPMBPKK_01519&lt;/b&gt;&lt;br&gt;acyl carrier protein&lt;br&gt;Location: 1811552 - 1811816" locus_tag="LLPMBPKK_01519" class="clusterblast-orf" id="dummy-10_q31_0_all"  />
<polygon points="617,35 622,30 640,30 640,40 622,40 617,35 " style="fill:#c4d815; stroke-width:1; stroke:black; " description="&lt;b&gt;LLPMBPKK_01520&lt;/b&gt;&lt;br&gt;AMP-dependent synthetase&lt;br&gt;Location: 1811835 - 1813365" locus_tag="LLPMBPKK_01520" class="clusterblast-orf" id="dummy-10_q32_0_all"  />
<polygon points="640,35 645,30 656,30 656,40 645,40 640,35 " style="fill:#15d89b; stroke-width:1; stroke:black; " description="&lt;b&gt;LLPMBPKK_01521&lt;/b&gt;&lt;br&gt;4'-phosphopantetheinyl transferase superfamilyprotein&lt;br&gt;Location: 1813364 - 1814426" locus_tag="LLPMBPKK_01521" class="clusterblast-orf" id="dummy-10_q33_0_all"  />
<polygon points="656,35 661,30 675,30 675,40 661,40 656,35 " style="fill:#4915d8; stroke-width:1; stroke:black; " description="&lt;b&gt;LLPMBPKK_01522&lt;/b&gt;&lt;br&gt;diaminopimelate decarboxylase&lt;br&gt;Location: 1814422 - 1815715" locus_tag="LLPMBPKK_01522" class="clusterblast-orf" id="dummy-10_q34_0_all"  />
<polygon points="675,35 678,30 678,40 675,35 " style="fill:white; stroke-width:1; stroke:black; " description="&lt;b&gt;LLPMBPKK_01523&lt;/b&gt;&lt;br&gt;hypothetical protein&lt;br&gt;Location: 1815711 - 1815888" locus_tag="LLPMBPKK_01523" class="clusterblast-orf" id="dummy-10_q35_0_all"  />
<polygon points="679,35 684,30 684,30 684,40 684,40 679,35 " style="fill:#d81553; stroke-width:1; stroke:black; " description="&lt;b&gt;LLPMBPKK_01524&lt;/b&gt;&lt;br&gt;hypothetical protein&lt;br&gt;Location: 1815987 - 1816305" locus_tag="LLPMBPKK_01524" class="clusterblast-orf" id="dummy-10_q36_0_all"  />
<polygon points="687,35 692,30 701,30 701,40 692,40 687,35 " style="fill:#a5d815; stroke-width:1; stroke:black; " description="&lt;b&gt;LLPMBPKK_01525&lt;/b&gt;&lt;br&gt;response regulator transcription factor&lt;br&gt;Location: 1816477 - 1817470" locus_tag="LLPMBPKK_01525" class="clusterblast-orf" id="dummy-10_q37_0_all"  />
<polygon points="704,35 709,30 712,30 712,40 709,40 704,35 " style="fill:#15d8b9; stroke-width:1; stroke:black; " description="&lt;b&gt;LLPMBPKK_01526&lt;/b&gt;&lt;br&gt;hypothetical protein&lt;br&gt;Location: 1817672 - 1818152" locus_tag="LLPMBPKK_01526" class="clusterblast-orf" id="dummy-10_q38_0_all"  />
<polygon points="712,40 723,40 728,35 723,30 712,30 712,40 " style="fill:#6715d8; stroke-width:1; stroke:black; " description="&lt;b&gt;LLPMBPKK_01527&lt;/b&gt;&lt;br&gt;membrane protein&lt;br&gt;Location: 1818196 - 1819267" locus_tag="LLPMBPKK_01527" class="clusterblast-orf" id="dummy-10_q39_0_all"  />
<polygon points="729,40 743,40 748,35 743,30 729,30 729,40 " style="fill:#d81534; stroke-width:1; stroke:black; " description="&lt;b&gt;LLPMBPKK_01528&lt;/b&gt;&lt;br&gt;MFS transporter&lt;br&gt;Location: 1819316 - 1820615" locus_tag="LLPMBPKK_01528" class="clusterblast-orf" id="dummy-10_q40_0_all"  />
<polygon points="748,35 753,30 761,30 761,40 753,40 748,35 " style="fill:#86d815; stroke-width:1; stroke:black; " description="&lt;b&gt;LLPMBPKK_01529&lt;/b&gt;&lt;br&gt;spermidine synthase-like protein&lt;br&gt;Location: 1820576 - 1821422" locus_tag="LLPMBPKK_01529" class="clusterblast-orf" id="dummy-10_q41_0_all"  />
<polygon points="762,35 767,30 780,30 780,40 767,40 762,35 " style="fill:#15d8d8; stroke-width:1; stroke:black; " description="&lt;b&gt;LLPMBPKK_01530&lt;/b&gt;&lt;br&gt;elongation factor Tu&lt;br&gt;Location: 1821525 - 1822695" locus_tag="LLPMBPKK_01530" class="clusterblast-orf" id="dummy-10_q42_0_all"  />
</g>
<g label="NZ_SLZA01000005" description="NZ_SLZA01000005 (72960-124946): Streptomyces sp. BK329 Ga0307704 105, whole g... (65% of genes show similarity), T1PKS,hglE-KS" class="clusterblast-cluster"  >
<text x="5" y="70" class="clusterblast-acc"  >
<a xlink:href="https://antismash-db.secondarymetabolites.org/area.html?record=NZ_SLZA01000005&amp;start=72960&amp;end=124946" target="_blank">NZ_SLZA01000005 (72960-124946)</a>: Streptomyces sp. BK329 Ga0307704 105, whole g... (65% of genes show similarity), T1PKS,hglE-KS</text>
<line x1="10" y1="85" x2="778.0" y2="85" style="stroke-width:1; stroke:grey; "  />
</g>
<g id="a10_000"  >
<polygon points="6,85 11,80 16,80 16,90 11,90 6,85 " style="fill:#d81515; stroke-width:1; stroke:black; " description="&lt;b&gt;EV577_RS18175&lt;/b&gt;&lt;br&gt;YigZ family protein&lt;br&gt;Location: 124166 - 123540&lt;br&gt;&lt;br&gt;&lt;b&gt;BlastP hit with LLPMBPKK_01491&lt;/b&gt;&lt;br&gt;Percentage identity: 93&lt;br&gt;Percentage coverage: 100&lt;br&gt;BLAST bit score: 387&lt;br&gt;E-value: 4.33e-137" locus_tag="EV577_RS18175" class="clusterblast-orf" id="dummy-10_h10_8_0"  />
</g>
<g id="a10_001"  >
<polygon points="19,85 24,80 27,80 27,90 24,90 19,85 " style="fill:#67d815; stroke-width:1; stroke:black; " description="&lt;b&gt;EV577_RS18170&lt;/b&gt;&lt;br&gt;histidine phosphatase family protein&lt;br&gt;Location: 123344 - 122802&lt;br&gt;&lt;br&gt;&lt;b&gt;BlastP hit with LLPMBPKK_01492&lt;/b&gt;&lt;br&gt;Percentage identity: 76&lt;br&gt;Percentage coverage: 99&lt;br&gt;BLAST bit score: 264&lt;br&gt;E-value: 1.58e-89" locus_tag="EV577_RS18170" class="clusterblast-orf" id="dummy-10_h10_8_1"  />
</g>
<g id="a10_002"  >
<polygon points="27,85 32,80 38,80 38,90 32,90 27,85 " style="fill:#15b9d8; stroke-width:1; stroke:black; " description="&lt;b&gt;EV577_RS18165&lt;/b&gt;&lt;br&gt;hypothetical protein&lt;br&gt;Location: 122805 - 122074&lt;br&gt;&lt;br&gt;&lt;b&gt;BlastP hit with LLPMBPKK_01493&lt;/b&gt;&lt;br&gt;Percentage identity: 53&lt;br&gt;Percentage coverage: 100&lt;br&gt;BLAST bit score: 270&lt;br&gt;E-value: 1.02e-88" locus_tag="EV577_RS18165" class="clusterblast-orf" id="dummy-10_h10_8_2"  />
</g>
<g id="a10_003"  >
<polygon points="40,90 42,90 47,85 42,80 40,80 40,90 " style="fill:#8615d8; stroke-width:1; stroke:black; " description="&lt;b&gt;EV577_RS18160&lt;/b&gt;&lt;br&gt;CoA-binding protein&lt;br&gt;Location: 121901 - 121476&lt;br&gt;&lt;br&gt;&lt;b&gt;BlastP hit with LLPMBPKK_01494&lt;/b&gt;&lt;br&gt;Percentage identity: 89&lt;br&gt;Percentage coverage: 100&lt;br&gt;BLAST bit score: 234&lt;br&gt;E-value: 3.62e-79" locus_tag="EV577_RS18160" class="clusterblast-orf" id="dummy-10_h10_8_3"  />
</g>
<g id="a10_004"  >
<polygon points="50,90 69,90 74,85 69,80 50,80 50,90 " style="fill:#d83415; stroke-width:1; stroke:black; " description="&lt;b&gt;EV577_RS18155&lt;/b&gt;&lt;br&gt;APC family permease&lt;br&gt;Location: 121258 - 119621&lt;br&gt;&lt;br&gt;&lt;b&gt;BlastP hit with LLPMBPKK_01495&lt;/b&gt;&lt;br&gt;Percentage identity: 87&lt;br&gt;Percentage coverage: 98&lt;br&gt;BLAST bit score: 954&lt;br&gt;E-value: 0.0" locus_tag="EV577_RS18155" class="clusterblast-orf" id="dummy-10_h10_8_4"  />
</g>
<g id="a10_005"  >
<polygon points="76,90 89,90 94,85 89,80 76,80 76,90 " style="fill:#49d815; stroke-width:1; stroke:black; " description="&lt;b&gt;EV577_RS18150&lt;/b&gt;&lt;br&gt;4-hydroxybenzoate 3-monooxygenase&lt;br&gt;Location: 119545 - 118337&lt;br&gt;&lt;br&gt;&lt;b&gt;BlastP hit with LLPMBPKK_01496&lt;/b&gt;&lt;br&gt;Percentage identity: 76&lt;br&gt;Percentage coverage: 99&lt;br&gt;BLAST bit score: 614&lt;br&gt;E-value: 1.76e-220" locus_tag="EV577_RS18150" class="clusterblast-orf" id="dummy-10_h10_8_5"  />
</g>
<g id="a10_006"  >
<polygon points="94,85 99,80 114,80 114,90 99,90 94,85 " style="fill:white; stroke-width:1; stroke:black; " description="&lt;b&gt;EV577_RS18145&lt;/b&gt;&lt;br&gt;DHA2 family efflux MFS transporter permease subunit&lt;br&gt;Location: 118329 - 116947" locus_tag="EV577_RS18145" class="clusterblast-orf" id="dummy-10_h10_8_6"  />
</g>
<g id="a10_007"  >
<polygon points="116,90 117,90 122,85 117,80 116,80 116,90 " style="fill:white; stroke-width:1; stroke:black; " description="&lt;b&gt;EV577_RS18140&lt;/b&gt;&lt;br&gt;MarR family transcriptional regulator&lt;br&gt;Location: 116858 - 116424" locus_tag="EV577_RS18140" class="clusterblast-orf" id="dummy-10_h10_8_7"  />
</g>
<g id="a10_008"  >
<polygon points="122,85 127,80 127,80 127,90 127,90 122,85 " style="fill:#159bd8; stroke-width:1; stroke:black; " description="&lt;b&gt;EV577_RS18135&lt;/b&gt;&lt;br&gt;helix-turn-helix transcriptional regulator&lt;br&gt;Location: 116467 - 116090&lt;br&gt;&lt;br&gt;&lt;b&gt;BlastP hit with LLPMBPKK_01497&lt;/b&gt;&lt;br&gt;Percentage identity: 89&lt;br&gt;Percentage coverage: 96&lt;br&gt;BLAST bit score: 189&lt;br&gt;E-value: 6.52e-62" locus_tag="EV577_RS18135" class="clusterblast-orf" id="dummy-10_h10_8_8"  />
</g>
<g id="a10_009"  >
<polygon points="135,90 145,90 150,85 145,80 135,80 135,90 " style="fill:#a515d8; stroke-width:1; stroke:black; " description="&lt;b&gt;EV577_RS18125&lt;/b&gt;&lt;br&gt;cation transporter&lt;br&gt;Location: 115607 - 114546&lt;br&gt;&lt;br&gt;&lt;b&gt;BlastP hit with LLPMBPKK_01498&lt;/b&gt;&lt;br&gt;Percentage identity: 86&lt;br&gt;Percentage coverage: 94&lt;br&gt;BLAST bit score: 511&lt;br&gt;E-value: 1.09e-181" locus_tag="EV577_RS18125" class="clusterblast-orf" id="dummy-10_h10_8_9"  />
</g>
<g id="a10_0010"  >
<polygon points="150,85 155,80 171,80 171,90 155,90 150,85 " style="fill:white; stroke-width:1; stroke:black; " description="&lt;b&gt;EV577_RS18120&lt;/b&gt;&lt;br&gt;MFS transporter&lt;br&gt;Location: 114555 - 113173" locus_tag="EV577_RS18120" class="clusterblast-orf" id="dummy-10_h10_8_10"  />
</g>
<g id="a10_0011"  >
<polygon points="173,85 178,80 181,80 181,90 178,90 173,85 " style="fill:#d85315; stroke-width:1; stroke:black; " description="&lt;b&gt;EV577_RS18115&lt;/b&gt;&lt;br&gt;hypothetical protein&lt;br&gt;Location: 113056 - 112502&lt;br&gt;&lt;br&gt;&lt;b&gt;BlastP hit with LLPMBPKK_01499&lt;/b&gt;&lt;br&gt;Percentage identity: 85&lt;br&gt;Percentage coverage: 98&lt;br&gt;BLAST bit score: 318&lt;br&gt;E-value: 7.3e-111" locus_tag="EV577_RS18115" class="clusterblast-orf" id="dummy-10_h10_8_11"  />
</g>
<g id="a10_0012"  >
<polygon points="182,85 187,80 190,80 190,90 187,90 182,85 " style="fill:#2ad815; stroke-width:1; stroke:black; " description="&lt;b&gt;EV577_RS18110&lt;/b&gt;&lt;br&gt;helix-turn-helix domain-containing protein&lt;br&gt;Location: 112469 - 111897&lt;br&gt;&lt;br&gt;&lt;b&gt;BlastP hit with LLPMBPKK_01500&lt;/b&gt;&lt;br&gt;Percentage identity: 84&lt;br&gt;Percentage coverage: 100&lt;br&gt;BLAST bit score: 330&lt;br&gt;E-value: 4.02e-115" locus_tag="EV577_RS18110" class="clusterblast-orf" id="dummy-10_h10_8_12"  />
</g>
<g id="a10_0013"  >
<polygon points="193,85 198,80 204,80 204,90 198,90 193,85 " style="fill:#c415d8; stroke-width:1; stroke:black; " description="&lt;b&gt;EV577_RS18105&lt;/b&gt;&lt;br&gt;acyltransferase&lt;br&gt;Location: 111725 - 110961&lt;br&gt;&lt;br&gt;&lt;b&gt;BlastP hit with LLPMBPKK_01502&lt;/b&gt;&lt;br&gt;Percentage identity: 89&lt;br&gt;Percentage coverage: 100&lt;br&gt;BLAST bit score: 471&lt;br&gt;E-value: 6.05e-169" locus_tag="EV577_RS18105" class="clusterblast-orf" id="dummy-10_h10_8_13"  />
</g>
<g id="a10_0014"  >
<polygon points="206,90 209,90 214,85 209,80 206,80 206,90 " style="fill:#d87215; stroke-width:1; stroke:black; " description="&lt;b&gt;EV577_RS18100&lt;/b&gt;&lt;br&gt;gamma carbonic anhydrase family protein&lt;br&gt;Location: 110851 - 110324&lt;br&gt;&lt;br&gt;&lt;b&gt;BlastP hit with LLPMBPKK_01503&lt;/b&gt;&lt;br&gt;Percentage identity: 84&lt;br&gt;Percentage coverage: 100&lt;br&gt;BLAST bit score: 247&lt;br&gt;E-value: 5.27e-83" locus_tag="EV577_RS18100" class="clusterblast-orf" id="dummy-10_h10_8_14"  />
</g>
<g id="a10_0015"  >
<polygon points="215,85 220,80 225,80 225,90 220,90 215,85 " style="fill:#15d81f; stroke-width:1; stroke:black; " description="&lt;b&gt;EV577_RS18095&lt;/b&gt;&lt;br&gt;DedA family protein&lt;br&gt;Location: 110233 - 109586&lt;br&gt;&lt;br&gt;&lt;b&gt;BlastP hit with LLPMBPKK_01504&lt;/b&gt;&lt;br&gt;Percentage identity: 89&lt;br&gt;Percentage coverage: 100&lt;br&gt;BLAST bit score: 381&lt;br&gt;E-value: 1.37e-134" locus_tag="EV577_RS18095" class="clusterblast-orf" id="dummy-10_h10_8_15"  />
</g>
<g id="a10_0016"  >
<polygon points="229,90 238,90 243,85 238,80 229,80 229,90 " style="fill:#155dd8; stroke-width:1; stroke:black; " description="&lt;b&gt;EV577_RS18090&lt;/b&gt;&lt;br&gt;flippase-like domain-containing protein&lt;br&gt;Location: 109287 - 108358&lt;br&gt;&lt;br&gt;&lt;b&gt;BlastP hit with LLPMBPKK_01505&lt;/b&gt;&lt;br&gt;Percentage identity: 71&lt;br&gt;Percentage coverage: 86&lt;br&gt;BLAST bit score: 404&lt;br&gt;E-value: 5.51e-140" locus_tag="EV577_RS18090" class="clusterblast-orf" id="dummy-10_h10_8_16"  />
</g>
<g id="a10_0017"  >
<polygon points="244,85 249,80 260,80 260,90 249,90 244,85 " style="fill:#d815ce; stroke-width:1; stroke:black; " description="&lt;b&gt;EV577_RS18085&lt;/b&gt;&lt;br&gt;class I SAM-dependent methyltransferase&lt;br&gt;Location: 108294 - 107239&lt;br&gt;&lt;br&gt;&lt;b&gt;BlastP hit with LLPMBPKK_01506&lt;/b&gt;&lt;br&gt;Percentage identity: 81&lt;br&gt;Percentage coverage: 96&lt;br&gt;BLAST bit score: 597&lt;br&gt;E-value: 1.56e-215" locus_tag="EV577_RS18085" class="clusterblast-orf" id="dummy-10_h10_8_17"  />
</g>
<g id="a10_0018"  >
<polygon points="260,85 265,80 277,80 277,90 265,90 260,85 " style="fill:#d89015; stroke-width:1; stroke:black; " description="&lt;b&gt;EV577_RS18080&lt;/b&gt;&lt;br&gt;glycosyltransferase family 1 protein&lt;br&gt;Location: 107242 - 106076&lt;br&gt;&lt;br&gt;&lt;b&gt;BlastP hit with LLPMBPKK_01507&lt;/b&gt;&lt;br&gt;Percentage identity: 76&lt;br&gt;Percentage coverage: 100&lt;br&gt;BLAST bit score: 576&lt;br&gt;E-value: 7.42e-206" locus_tag="EV577_RS18080" class="clusterblast-orf" id="dummy-10_h10_8_18"  />
</g>
<g id="a10_0019"  >
<polygon points="277,85 282,80 289,80 289,90 282,90 277,85 " style="fill:#15d83e; stroke-width:1; stroke:black; " description="&lt;b&gt;EV577_RS18075&lt;/b&gt;&lt;br&gt;alpha/beta hydrolase&lt;br&gt;Location: 106079 - 105264&lt;br&gt;&lt;br&gt;&lt;b&gt;BlastP hit with LLPMBPKK_01508&lt;/b&gt;&lt;br&gt;Percentage identity: 84&lt;br&gt;Percentage coverage: 97&lt;br&gt;BLAST bit score: 427&lt;br&gt;E-value: 6.01e-151" locus_tag="EV577_RS18075" class="clusterblast-orf" id="dummy-10_h10_8_19"  />
</g>
<g id="a10_0020"  >
<polygon points="290,85 294,80 294,90 290,85 " style="fill:#153ed8; stroke-width:1; stroke:black; " description="&lt;b&gt;EV577_RS18070&lt;/b&gt;&lt;br&gt;acyl carrier protein&lt;br&gt;Location: 105260 - 104943&lt;br&gt;&lt;br&gt;&lt;b&gt;BlastP hit with LLPMBPKK_01509&lt;/b&gt;&lt;br&gt;Percentage identity: 75&lt;br&gt;Percentage coverage: 100&lt;br&gt;BLAST bit score: 155&lt;br&gt;E-value: 8.87e-49" locus_tag="EV577_RS18070" class="clusterblast-orf" id="dummy-10_h10_8_20"  />
</g>
<g id="a10_0021"  >
<polygon points="294,85 299,80 369,80 369,90 299,90 294,85 " style="fill:#d815af; stroke-width:1; stroke:black; " description="&lt;b&gt;EV577_RS18065&lt;/b&gt;&lt;br&gt;acyltransferase domain-containing protein&lt;br&gt;Location: 104946 - 99952&lt;br&gt;&lt;br&gt;&lt;b&gt;BlastP hit with LLPMBPKK_01510&lt;/b&gt;&lt;br&gt;Percentage identity: 72&lt;br&gt;Percentage coverage: 107&lt;br&gt;BLAST bit score: 2181&lt;br&gt;E-value: 0.0&lt;br&gt;&lt;br&gt;&lt;b&gt;BlastP hit with LLPMBPKK_01511&lt;/b&gt;&lt;br&gt;Percentage identity: 37&lt;br&gt;Percentage coverage: 39&lt;br&gt;BLAST bit score: 414&lt;br&gt;E-value: 9.5e-116" locus_tag="EV577_RS18065" class="clusterblast-orf" id="dummy-10_h10_8_21"  />
</g>
<g id="a10_0022"  >
<polygon points="369,85 374,80 474,80 474,90 374,90 369,85 " style="fill:#d815af; stroke-width:1; stroke:black; " description="&lt;b&gt;EV577_RS18060&lt;/b&gt;&lt;br&gt;SDR family oxidoreductase&lt;br&gt;Location: 99950 - 92961&lt;br&gt;&lt;br&gt;&lt;b&gt;BlastP hit with LLPMBPKK_01510&lt;/b&gt;&lt;br&gt;Percentage identity: 38&lt;br&gt;Percentage coverage: 58&lt;br&gt;BLAST bit score: 421&lt;br&gt;E-value: 6.36e-119&lt;br&gt;&lt;br&gt;&lt;b&gt;BlastP hit with LLPMBPKK_01511&lt;/b&gt;&lt;br&gt;Percentage identity: 70&lt;br&gt;Percentage coverage: 101&lt;br&gt;BLAST bit score: 3120&lt;br&gt;E-value: 0.0" locus_tag="EV577_RS18060" class="clusterblast-orf" id="dummy-10_h10_8_22"  />
</g>
<g id="a10_0023"  >
<polygon points="482,85 487,80 519,80 519,90 487,90 482,85 " style="fill:white; stroke-width:1; stroke:black; " description="&lt;b&gt;EV577_RS18055&lt;/b&gt;&lt;br&gt;beta-glucosidase&lt;br&gt;Location: 92432 - 89952" locus_tag="EV577_RS18055" class="clusterblast-orf" id="dummy-10_h10_8_23"  />
</g>
<g id="a10_0024"  >
<polygon points="529,85 534,80 558,80 558,90 534,90 529,85 " style="fill:#d8af15; stroke-width:1; stroke:black; " description="&lt;b&gt;EV577_RS18050&lt;/b&gt;&lt;br&gt;hydrolase&lt;br&gt;Location: 89265 - 87334&lt;br&gt;&lt;br&gt;&lt;b&gt;BlastP hit with LLPMBPKK_01512&lt;/b&gt;&lt;br&gt;Percentage identity: 64&lt;br&gt;Percentage coverage: 80&lt;br&gt;BLAST bit score: 604&lt;br&gt;E-value: 3.17e-208" locus_tag="EV577_RS18050" class="clusterblast-orf" id="dummy-10_h10_8_24"  />
</g>
<g id="a10_0025"  >
<polygon points="564,90 573,90 578,85 573,80 564,80 564,90 " style="fill:white; stroke-width:1; stroke:black; " description="&lt;b&gt;EV577_RS18045&lt;/b&gt;&lt;br&gt;UTP--glucose-1-phosphate uridylyltransferase GalU&lt;br&gt;Location: 86951 - 85989" locus_tag="EV577_RS18045" class="clusterblast-orf" id="dummy-10_h10_8_25"  />
</g>
<g id="a10_0026"  >
<polygon points="580,90 582,85 580,80 580,90 " style="fill:white; stroke-width:1; stroke:black; " description="&lt;b&gt;EV577_RS43850&lt;/b&gt;&lt;br&gt;NlpC/P60 family protein&lt;br&gt;Location: 85897 - 85766" locus_tag="EV577_RS43850" class="clusterblast-orf" id="dummy-10_h10_8_26"  />
</g>
<g id="a10_0027"  >
<polygon points="582,85 587,80 589,80 589,90 587,90 582,85 " style="fill:#15d8b9; stroke-width:1; stroke:black; " description="&lt;b&gt;EV577_RS18040&lt;/b&gt;&lt;br&gt;DUF4442 domain-containing protein&lt;br&gt;Location: 85737 - 85300&lt;br&gt;&lt;br&gt;&lt;b&gt;BlastP hit with LLPMBPKK_01526&lt;/b&gt;&lt;br&gt;Percentage identity: 83&lt;br&gt;Percentage coverage: 90&lt;br&gt;BLAST bit score: 234&lt;br&gt;E-value: 1.09e-78" locus_tag="EV577_RS18040" class="clusterblast-orf" id="dummy-10_h10_8_27"  />
</g>
<g id="a10_0028"  >
<polygon points="591,90 601,90 606,85 601,80 591,80 591,90 " style="fill:#6715d8; stroke-width:1; stroke:black; " description="&lt;b&gt;EV577_RS18035&lt;/b&gt;&lt;br&gt;hypothetical protein&lt;br&gt;Location: 85115 - 84102&lt;br&gt;&lt;br&gt;&lt;b&gt;BlastP hit with LLPMBPKK_01527&lt;/b&gt;&lt;br&gt;Percentage identity: 53&lt;br&gt;Percentage coverage: 101&lt;br&gt;BLAST bit score: 223&lt;br&gt;E-value: 1.32e-68" locus_tag="EV577_RS18035" class="clusterblast-orf" id="dummy-10_h10_8_28"  />
</g>
<g id="a10_0029"  >
<polygon points="608,90 622,90 627,85 622,80 608,80 608,90 " style="fill:#d81534; stroke-width:1; stroke:black; " description="&lt;b&gt;EV577_RS18030&lt;/b&gt;&lt;br&gt;MFS transporter&lt;br&gt;Location: 84033 - 82723&lt;br&gt;&lt;br&gt;&lt;b&gt;BlastP hit with LLPMBPKK_01528&lt;/b&gt;&lt;br&gt;Percentage identity: 84&lt;br&gt;Percentage coverage: 101&lt;br&gt;BLAST bit score: 662&lt;br&gt;E-value: 2.28e-238" locus_tag="EV577_RS18030" class="clusterblast-orf" id="dummy-10_h10_8_29"  />
</g>
<g id="a10_0030"  >
<polygon points="627,85 632,80 639,80 639,90 632,90 627,85 " style="fill:#86d815; stroke-width:1; stroke:black; " description="&lt;b&gt;EV577_RS18025&lt;/b&gt;&lt;br&gt;spermidine synthase-like protein&lt;br&gt;Location: 82761 - 81916&lt;br&gt;&lt;br&gt;&lt;b&gt;BlastP hit with LLPMBPKK_01529&lt;/b&gt;&lt;br&gt;Percentage identity: 80&lt;br&gt;Percentage coverage: 100&lt;br&gt;BLAST bit score: 446&lt;br&gt;E-value: 2.67e-158" locus_tag="EV577_RS18025" class="clusterblast-orf" id="dummy-10_h10_8_30"  />
</g>
<g id="a10_0031"  >
<polygon points="643,85 648,80 661,80 661,90 648,90 643,85 " style="fill:#15d8d8; stroke-width:1; stroke:black; " description="&lt;b&gt;EV577_RS18020&lt;/b&gt;&lt;br&gt;elongation factor Tu&lt;br&gt;Location: 81633 - 80464&lt;br&gt;&lt;br&gt;&lt;b&gt;BlastP hit with LLPMBPKK_01530&lt;/b&gt;&lt;br&gt;Percentage identity: 90&lt;br&gt;Percentage coverage: 100&lt;br&gt;BLAST bit score: 691&lt;br&gt;E-value: 1.37e-251" locus_tag="EV577_RS18020" class="clusterblast-orf" id="dummy-10_h10_8_31"  />
</g>
<g id="a10_0032"  >
<polygon points="666,90 673,90 678,85 673,80 666,80 666,90 " style="fill:white; stroke-width:1; stroke:black; " description="&lt;b&gt;EV577_RS18010&lt;/b&gt;&lt;br&gt;TVP38/TMEM64 family protein&lt;br&gt;Location: 80121 - 79360" locus_tag="EV577_RS18010" class="clusterblast-orf" id="dummy-10_h10_8_32"  />
</g>
<g id="a10_0033"  >
<polygon points="681,85 686,80 698,80 698,90 686,90 681,85 " style="fill:white; stroke-width:1; stroke:black; " description="&lt;b&gt;EV577_RS18005&lt;/b&gt;&lt;br&gt;thiolase family protein&lt;br&gt;Location: 79140 - 77969" locus_tag="EV577_RS18005" class="clusterblast-orf" id="dummy-10_h10_8_33"  />
</g>
<g id="a10_0034"  >
<polygon points="700,90 702,90 707,85 702,80 700,80 700,90 " style="fill:white; stroke-width:1; stroke:black; " description="&lt;b&gt;EV577_RS18000&lt;/b&gt;&lt;br&gt;helix-turn-helix transcriptional regulator&lt;br&gt;Location: 77853 - 77383" locus_tag="EV577_RS18000" class="clusterblast-orf" id="dummy-10_h10_8_34"  />
</g>
<g id="a10_0035"  >
<polygon points="707,85 712,80 718,80 718,90 712,90 707,85 " style="fill:white; stroke-width:1; stroke:black; " description="&lt;b&gt;EV577_RS17995&lt;/b&gt;&lt;br&gt;cupin&lt;br&gt;Location: 77375 - 76647" locus_tag="EV577_RS17995" class="clusterblast-orf" id="dummy-10_h10_8_35"  />
</g>
<g id="a10_0036"  >
<polygon points="718,85 723,80 732,80 732,90 723,90 718,85 " style="fill:white; stroke-width:1; stroke:black; " description="&lt;b&gt;EV577_RS17990&lt;/b&gt;&lt;br&gt;oxidoreductase&lt;br&gt;Location: 76653 - 75724" locus_tag="EV577_RS17990" class="clusterblast-orf" id="dummy-10_h10_8_36"  />
</g>
<g id="a10_0037"  >
<polygon points="732,85 737,80 749,80 749,90 737,90 732,85 " style="fill:white; stroke-width:1; stroke:black; " description="&lt;b&gt;EV577_RS17985&lt;/b&gt;&lt;br&gt;Gfo/Idh/MocA family oxidoreductase&lt;br&gt;Location: 75727 - 74570" locus_tag="EV577_RS17985" class="clusterblast-orf" id="dummy-10_h10_8_37"  />
</g>
<g id="a10_0038"  >
<polygon points="754,90 762,90 767,85 762,80 754,80 754,90 " style="fill:white; stroke-width:1; stroke:black; " description="&lt;b&gt;EV577_RS17980&lt;/b&gt;&lt;br&gt;undecaprenyl-diphosphate phosphatase&lt;br&gt;Location: 74277 - 73402" locus_tag="EV577_RS17980" class="clusterblast-orf" id="dummy-10_h10_8_38"  />
</g>
<g id="a10_0039"  >
<polygon points="767,85 772,80 773,80 773,90 772,90 767,85 " style="fill:white; stroke-width:1; stroke:black; " description="&lt;b&gt;EV577_RS17975&lt;/b&gt;&lt;br&gt;DUF4440 domain-containing protein&lt;br&gt;Location: 73391 - 73008" locus_tag="EV577_RS17975" class="clusterblast-orf" id="dummy-10_h10_8_39"  />
</g>
</svg>
