<svg xmlns="http://www.w3.org/2000/svg" xmlns:xlink="http://www.w3.org/1999/xlink" version="1.1" x="0" y="0" height="230" width="800" viewBox="0 0 800 230" preserveAspectRatio="none"  >
<g label="Query sequence" class="clusterblast-cluster"  >
<text x="5" y="20" class="clusterblast-acc"  >
Query sequence</text>
<line x1="10" y1="35" x2="778.0" y2="35" style="stroke-width:1; stroke:grey; "  />
<polygon points="163,40 167,40 172,35 167,30 163,30 163,40 " style="fill:#d81515; stroke-width:1; stroke:black; " description="&lt;b&gt;LLPMBPKK_00703&lt;/b&gt;&lt;br&gt;hypothetical protein&lt;br&gt;Location: 897958 - 898738" locus_tag="LLPMBPKK_00703" class="clusterblast-orf" id="dummy-6_q0_0_all"  />
<polygon points="172,35 177,30 191,30 191,40 177,40 172,35 " style="fill:white; stroke-width:1; stroke:black; " description="&lt;b&gt;LLPMBPKK_00704&lt;/b&gt;&lt;br&gt;LytR family transcriptional regulator&lt;br&gt;Location: 898753 - 900469" locus_tag="LLPMBPKK_00704" class="clusterblast-orf" id="dummy-6_q1_0_all"  />
<polygon points="193,35 198,30 205,30 205,40 198,40 193,35 " style="fill:#60d815; stroke-width:1; stroke:black; " description="&lt;b&gt;LLPMBPKK_00705&lt;/b&gt;&lt;br&gt;urea transporter&lt;br&gt;Location: 900632 - 901688" locus_tag="LLPMBPKK_00705" class="clusterblast-orf" id="dummy-6_q2_0_all"  />
<polygon points="206,35 211,30 221,30 221,40 211,40 206,35 " style="fill:white; stroke-width:1; stroke:black; " description="&lt;b&gt;LLPMBPKK_00706&lt;/b&gt;&lt;br&gt;hypothetical protein&lt;br&gt;Location: 901826 - 903119" locus_tag="LLPMBPKK_00706" class="clusterblast-orf" id="dummy-6_q3_0_all"  />
<polygon points="223,40 227,35 223,30 223,40 " style="fill:#15abd8; stroke-width:1; stroke:black; " description="&lt;b&gt;LLPMBPKK_00707&lt;/b&gt;&lt;br&gt;anti-sigma factor antagonist&lt;br&gt;Location: 903353 - 903722" locus_tag="LLPMBPKK_00707" class="clusterblast-orf" id="dummy-6_q4_0_all"  />
<polygon points="231,40 231,40 236,35 231,30 231,30 231,40 " style="fill:#8d15d8; stroke-width:1; stroke:black; " description="&lt;b&gt;LLPMBPKK_00708&lt;/b&gt;&lt;br&gt;transcription elongation factor GreA&lt;br&gt;Location: 904045 - 904504" locus_tag="LLPMBPKK_00708" class="clusterblast-orf" id="dummy-6_q5_0_all"  />
<polygon points="237,35 242,30 265,30 265,40 242,40 237,35 " style="fill:#d84215; stroke-width:1; stroke:black; " description="&lt;b&gt;LLPMBPKK_00709&lt;/b&gt;&lt;br&gt;chaperone&lt;br&gt;Location: 904558 - 907072" locus_tag="LLPMBPKK_00709" class="clusterblast-orf" id="dummy-6_q6_0_all"  />
<polygon points="276,35 280,30 280,40 276,35 " style="fill:white; stroke-width:1; stroke:black; " description="&lt;b&gt;LLPMBPKK_00710&lt;/b&gt;&lt;br&gt;hypothetical protein&lt;br&gt;Location: 908016 - 908409" locus_tag="LLPMBPKK_00710" class="clusterblast-orf" id="dummy-6_q7_0_all"  />
<polygon points="281,35 286,30 290,30 290,40 286,40 281,35 " style="fill:#33d815; stroke-width:1; stroke:black; " description="&lt;b&gt;LLPMBPKK_00711&lt;/b&gt;&lt;br&gt;YegS/Rv2252/BmrU family lipid kinase&lt;br&gt;Location: 908465 - 909347" locus_tag="LLPMBPKK_00711" class="clusterblast-orf" id="dummy-6_q8_0_all"  />
<polygon points="291,35 296,30 309,30 309,40 296,40 291,35 " style="fill:#157ed8; stroke-width:1; stroke:black; " description="&lt;b&gt;LLPMBPKK_00712&lt;/b&gt;&lt;br&gt;FAD-binding oxidoreductase&lt;br&gt;Location: 909389 - 910982" locus_tag="LLPMBPKK_00712" class="clusterblast-orf" id="dummy-6_q9_0_all"  />
<polygon points="310,40 313,40 318,35 313,30 310,30 310,40 " style="fill:#ba15d8; stroke-width:1; stroke:black; " description="&lt;b&gt;LLPMBPKK_00713&lt;/b&gt;&lt;br&gt;TetR/AcrR family transcriptional regulator&lt;br&gt;Location: 911123 - 911771" locus_tag="LLPMBPKK_00713" class="clusterblast-orf" id="dummy-6_q10_0_all"  />
<polygon points="318,40 330,40 335,35 330,30 318,30 318,40 " style="fill:#d86f15; stroke-width:1; stroke:black; " description="&lt;b&gt;LLPMBPKK_00714&lt;/b&gt;&lt;br&gt;glycerol-3-phosphate dehydrogenase/oxidase&lt;br&gt;Location: 911767 - 913342" locus_tag="LLPMBPKK_00714" class="clusterblast-orf" id="dummy-6_q11_0_all"  />
<polygon points="339,40 353,40 358,35 353,30 339,30 339,40 " style="fill:#15d824; stroke-width:1; stroke:black; " description="&lt;b&gt;LLPMBPKK_00715&lt;/b&gt;&lt;br&gt;tryptophan 7-halogenase&lt;br&gt;Location: 913711 - 915334" locus_tag="LLPMBPKK_00715" class="clusterblast-orf" id="dummy-6_q12_0_all"  />
<polygon points="357,40 359,40 364,35 359,30 357,30 357,40 " style="fill:#1551d8; stroke-width:1; stroke:black; " description="&lt;b&gt;LLPMBPKK_00716&lt;/b&gt;&lt;br&gt;flavin reductase&lt;br&gt;Location: 915323 - 915887" locus_tag="LLPMBPKK_00716" class="clusterblast-orf" id="dummy-6_q13_0_all"  />
<polygon points="364,40 371,40 376,35 371,30 364,30 364,40 " style="fill:#d815c9; stroke-width:1; stroke:black; " description="&lt;b&gt;LLPMBPKK_00717&lt;/b&gt;&lt;br&gt;hypothetical protein&lt;br&gt;Location: 915883 - 917014" locus_tag="LLPMBPKK_00717" class="clusterblast-orf" id="dummy-6_q14_0_all"  />
<polygon points="378,40 392,40 397,35 392,30 378,30 378,40 " style="fill:#d89c15; stroke-width:1; stroke:black; " description="&lt;b&gt;LLPMBPKK_00718&lt;/b&gt;&lt;br&gt;CDA peptide synthetase III&lt;br&gt;Location: 917154 - 918852" locus_tag="LLPMBPKK_00718" class="clusterblast-orf" id="dummy-6_q15_0_all"  />
<polygon points="397,40 400,40 405,35 400,30 397,30 397,40 " style="fill:#15d851; stroke-width:1; stroke:black; " description="&lt;b&gt;LLPMBPKK_00719&lt;/b&gt;&lt;br&gt;thioesterase&lt;br&gt;Location: 918851 - 919604" locus_tag="LLPMBPKK_00719" class="clusterblast-orf" id="dummy-6_q16_0_all"  />
<polygon points="405,40 414,40 419,35 414,30 405,30 405,40 " style="fill:#1524d8; stroke-width:1; stroke:black; " description="&lt;b&gt;LLPMBPKK_00720&lt;/b&gt;&lt;br&gt;cytochrome P450&lt;br&gt;Location: 919593 - 920790" locus_tag="LLPMBPKK_00720" class="clusterblast-orf" id="dummy-6_q17_0_all"  />
<polygon points="419,40 423,35 419,30 419,40 " style="fill:#d8159c; stroke-width:1; stroke:black; " description="&lt;b&gt;LLPMBPKK_00721&lt;/b&gt;&lt;br&gt;YCII-related domain protein&lt;br&gt;Location: 920854 - 921169" locus_tag="LLPMBPKK_00721" class="clusterblast-orf" id="dummy-6_q18_0_all"  />
<polygon points="423,40 431,40 436,35 431,30 423,30 423,40 " style="fill:#d8c915; stroke-width:1; stroke:black; " description="&lt;b&gt;LLPMBPKK_00722&lt;/b&gt;&lt;br&gt;hydrolase&lt;br&gt;Location: 921165 - 922353" locus_tag="LLPMBPKK_00722" class="clusterblast-orf" id="dummy-6_q19_0_all"  />
<polygon points="436,40 440,40 445,35 440,30 436,30 436,40 " style="fill:#15d87e; stroke-width:1; stroke:black; " description="&lt;b&gt;LLPMBPKK_00723&lt;/b&gt;&lt;br&gt;3-oxoacyl-[acyl-carrier-protein] reductase&lt;br&gt;Location: 922345 - 923146" locus_tag="LLPMBPKK_00723" class="clusterblast-orf" id="dummy-6_q20_0_all"  />
<polygon points="445,40 455,40 460,35 455,30 445,30 445,40 " style="fill:#3315d8; stroke-width:1; stroke:black; " description="&lt;b&gt;LLPMBPKK_00724&lt;/b&gt;&lt;br&gt;ATP-grasp domain protein&lt;br&gt;Location: 923161 - 924427" locus_tag="LLPMBPKK_00724" class="clusterblast-orf" id="dummy-6_q21_0_all"  />
<polygon points="460,40 468,40 473,35 468,30 460,30 460,40 " style="fill:#d8156f; stroke-width:1; stroke:black; " description="&lt;b&gt;LLPMBPKK_00725&lt;/b&gt;&lt;br&gt;pyridoxal-phosphate dependent enzyme&lt;br&gt;Location: 924438 - 925662" locus_tag="LLPMBPKK_00725" class="clusterblast-orf" id="dummy-6_q22_0_all"  />
<polygon points="473,40 483,40 488,35 483,30 473,30 473,40 " style="fill:#bad815; stroke-width:1; stroke:black; " description="&lt;b&gt;LLPMBPKK_00726&lt;/b&gt;&lt;br&gt;MFS transporter&lt;br&gt;Location: 925667 - 927008" locus_tag="LLPMBPKK_00726" class="clusterblast-orf" id="dummy-6_q23_0_all"  />
<polygon points="488,40 498,40 503,35 498,30 488,30 488,40 " style="fill:#15d8ab; stroke-width:1; stroke:black; " description="&lt;b&gt;LLPMBPKK_00727&lt;/b&gt;&lt;br&gt;transporter monovalent cation:proton antiporter-2(CPA2) family protein&lt;br&gt;Location: 927009 - 928332" locus_tag="LLPMBPKK_00727" class="clusterblast-orf" id="dummy-6_q24_0_all"  />
<polygon points="503,35 508,30 520,30 520,40 508,40 503,35 " style="fill:#6015d8; stroke-width:1; stroke:black; " description="&lt;b&gt;LLPMBPKK_00728&lt;/b&gt;&lt;br&gt;Outer membrane protein assembly factor BamB&lt;br&gt;Location: 928352 - 929804" locus_tag="LLPMBPKK_00728" class="clusterblast-orf" id="dummy-6_q25_0_all"  />
<polygon points="523,35 528,30 530,30 530,40 528,40 523,35 " style="fill:white; stroke-width:1; stroke:black; " description="&lt;b&gt;LLPMBPKK_00729&lt;/b&gt;&lt;br&gt;TetR family transcriptional regulator&lt;br&gt;Location: 930052 - 930694" locus_tag="LLPMBPKK_00729" class="clusterblast-orf" id="dummy-6_q26_0_all"  />
<polygon points="532,40 535,40 540,35 535,30 532,30 532,40 " style="fill:#15d87e; stroke-width:1; stroke:black; " description="&lt;b&gt;LLPMBPKK_00730&lt;/b&gt;&lt;br&gt;oxidoreductase&lt;br&gt;Location: 930855 - 931641" locus_tag="LLPMBPKK_00730" class="clusterblast-orf" id="dummy-6_q27_0_all"  />
<polygon points="541,35 546,30 559,30 559,40 546,40 541,35 " style="fill:#d81542; stroke-width:1; stroke:black; " description="&lt;b&gt;LLPMBPKK_00731&lt;/b&gt;&lt;br&gt;ABC-F family ATP-binding cassettedomain-containing protein&lt;br&gt;Location: 931668 - 933291" locus_tag="LLPMBPKK_00731" class="clusterblast-orf" id="dummy-6_q28_0_all"  />
<polygon points="562,35 566,30 566,40 562,35 " style="fill:white; stroke-width:1; stroke:black; " description="&lt;b&gt;LLPMBPKK_00732&lt;/b&gt;&lt;br&gt;hypothetical protein&lt;br&gt;Location: 933575 - 933890" locus_tag="LLPMBPKK_00732" class="clusterblast-orf" id="dummy-6_q29_0_all"  />
<polygon points="569,35 574,30 577,30 577,40 574,40 569,35 " style="fill:#15d87e; stroke-width:1; stroke:black; " description="&lt;b&gt;LLPMBPKK_00733&lt;/b&gt;&lt;br&gt;SDR family NAD(P)-dependent oxidoreductase&lt;br&gt;Location: 934205 - 934910" locus_tag="LLPMBPKK_00733" class="clusterblast-orf" id="dummy-6_q30_0_all"  />
<polygon points="579,40 586,40 591,35 586,30 579,30 579,40 " style="fill:#8dd815; stroke-width:1; stroke:black; " description="&lt;b&gt;LLPMBPKK_00734&lt;/b&gt;&lt;br&gt;4Fe-4S ferredoxin&lt;br&gt;Location: 935072 - 936182" locus_tag="LLPMBPKK_00734" class="clusterblast-orf" id="dummy-6_q31_0_all"  />
<polygon points="596,40 600,40 605,35 600,30 596,30 596,40 " style="fill:#15d8d8; stroke-width:1; stroke:black; " description="&lt;b&gt;LLPMBPKK_00735&lt;/b&gt;&lt;br&gt;SAM-dependent methyltransferase&lt;br&gt;Location: 936572 - 937370" locus_tag="LLPMBPKK_00735" class="clusterblast-orf" id="dummy-6_q32_0_all"  />
<polygon points="605,35 610,30 616,30 616,40 610,40 605,35 " style="fill:white; stroke-width:1; stroke:black; " description="&lt;b&gt;LLPMBPKK_00736&lt;/b&gt;&lt;br&gt;hypothetical protein&lt;br&gt;Location: 937433 - 938423" locus_tag="LLPMBPKK_00736" class="clusterblast-orf" id="dummy-6_q33_0_all"  />
</g>
<g label="NZ_CP023701" description="NZ_CP023701 (7166580-7236178): Streptomyces subrutilus strain ATCC 27467 chro... (14% of genes show similarity), NRPS,bacteriocin" class="clusterblast-cluster"  >
<text x="5" y="70" class="clusterblast-acc"  >
<a xlink:href="https://antismash-db.secondarymetabolites.org/area.html?record=NZ_CP023701&amp;start=7166580&amp;end=7236178" target="_blank">NZ_CP023701 (7166580-7236178)</a>: Streptomyces subrutilus strain ATCC 27467 chro... (14% of genes show similarity), NRPS,bacteriocin</text>
<line x1="10" y1="85" x2="778.0" y2="85" style="stroke-width:1; stroke:grey; "  />
</g>
<g id="a6_000"  >
<polygon points="0,85 5,80 62,80 62,90 5,90 0,85 " style="fill:white; stroke-width:1; stroke:black; " description="&lt;b&gt;CP968_RS32055&lt;/b&gt;&lt;br&gt;RHS repeat-associated core domain-containing protein&lt;br&gt;Location: 7166581 - 7172136" locus_tag="CP968_RS32055" class="clusterblast-orf" id="dummy-6_h6_7_0"  />
</g>
<g id="a6_001"  >
<polygon points="96,85 101,80 105,80 105,90 101,90 96,85 " style="fill:white; stroke-width:1; stroke:black; " description="&lt;b&gt;CP968_RS32060&lt;/b&gt;&lt;br&gt;molybdate ABC transporter substrate-binding protein&lt;br&gt;Location: 7175188 - 7175994" locus_tag="CP968_RS32060" class="clusterblast-orf" id="dummy-6_h6_7_1"  />
</g>
<g id="a6_002"  >
<polygon points="111,85 116,80 121,80 121,90 116,90 111,85 " style="fill:white; stroke-width:1; stroke:black; " description="&lt;b&gt;CP968_RS32065&lt;/b&gt;&lt;br&gt;NAD(P)H-binding protein&lt;br&gt;Location: 7176524 - 7177381" locus_tag="CP968_RS32065" class="clusterblast-orf" id="dummy-6_h6_7_2"  />
</g>
<g id="a6_003"  >
<polygon points="122,90 128,90 133,85 128,80 122,80 122,90 " style="fill:white; stroke-width:1; stroke:black; " description="&lt;b&gt;CP968_RS32070&lt;/b&gt;&lt;br&gt;helix-turn-helix domain-containing protein&lt;br&gt;Location: 7177496 - 7178449" locus_tag="CP968_RS32070" class="clusterblast-orf" id="dummy-6_h6_7_3"  />
</g>
<g id="a6_004"  >
<polygon points="134,85 139,80 144,80 144,90 139,90 134,85 " style="fill:white; stroke-width:1; stroke:black; " description="&lt;b&gt;CP968_RS32075&lt;/b&gt;&lt;br&gt;NAD(P)H-binding protein&lt;br&gt;Location: 7178565 - 7179440" locus_tag="CP968_RS32075" class="clusterblast-orf" id="dummy-6_h6_7_4"  />
</g>
<g id="a6_005"  >
<polygon points="146,85 151,80 161,80 161,90 151,90 146,85 " style="fill:#15d8ab; stroke-width:1; stroke:black; " description="&lt;b&gt;CP968_RS32080&lt;/b&gt;&lt;br&gt;cation:proton antiporter&lt;br&gt;Location: 7179676 - 7180956&lt;br&gt;&lt;br&gt;&lt;b&gt;BlastP hit with LLPMBPKK_00727&lt;/b&gt;&lt;br&gt;Percentage identity: 37&lt;br&gt;Percentage coverage: 97&lt;br&gt;BLAST bit score: 219&lt;br&gt;E-value: 7.76e-65" locus_tag="CP968_RS32080" class="clusterblast-orf" id="dummy-6_h6_7_5"  />
</g>
<g id="a6_006"  >
<polygon points="160,85 165,80 168,80 168,90 165,90 160,85 " style="fill:#1551d8; stroke-width:1; stroke:black; " description="&lt;b&gt;CP968_RS32085&lt;/b&gt;&lt;br&gt;flavin reductase family protein&lt;br&gt;Location: 7180943 - 7181629&lt;br&gt;&lt;br&gt;&lt;b&gt;BlastP hit with LLPMBPKK_00716&lt;/b&gt;&lt;br&gt;Percentage identity: 42&lt;br&gt;Percentage coverage: 98&lt;br&gt;BLAST bit score: 121&lt;br&gt;E-value: 1.82e-32" locus_tag="CP968_RS32085" class="clusterblast-orf" id="dummy-6_h6_7_6"  />
</g>
<g id="a6_007"  >
<polygon points="170,85 175,80 187,80 187,90 175,90 170,85 " style="fill:#15d824; stroke-width:1; stroke:black; " description="&lt;b&gt;CP968_RS32090&lt;/b&gt;&lt;br&gt;FAD-dependent oxidoreductase&lt;br&gt;Location: 7181753 - 7183354&lt;br&gt;&lt;br&gt;&lt;b&gt;BlastP hit with LLPMBPKK_00715&lt;/b&gt;&lt;br&gt;Percentage identity: 66&lt;br&gt;Percentage coverage: 97&lt;br&gt;BLAST bit score: 749&lt;br&gt;E-value: 1.55e-269" locus_tag="CP968_RS32090" class="clusterblast-orf" id="dummy-6_h6_7_7"  />
</g>
<g id="a6_008"  >
<polygon points="189,90 197,90 202,85 197,80 189,80 189,90 " style="fill:white; stroke-width:1; stroke:black; " description="&lt;b&gt;CP968_RS32095&lt;/b&gt;&lt;br&gt;SARP family transcriptional regulator&lt;br&gt;Location: 7183529 - 7184633" locus_tag="CP968_RS32095" class="clusterblast-orf" id="dummy-6_h6_7_8"  />
</g>
<g id="a6_009"  >
<polygon points="203,90 215,90 220,85 215,80 203,80 203,90 " style="fill:white; stroke-width:1; stroke:black; " description="&lt;b&gt;CP968_RS32100&lt;/b&gt;&lt;br&gt;aldehyde dehydrogenase family protein&lt;br&gt;Location: 7184707 - 7186218" locus_tag="CP968_RS32100" class="clusterblast-orf" id="dummy-6_h6_7_9"  />
</g>
<g id="a6_0010"  >
<polygon points="221,90 236,90 241,85 236,80 221,80 221,90 " style="fill:#d89c15; stroke-width:1; stroke:black; " description="&lt;b&gt;CP968_RS32105&lt;/b&gt;&lt;br&gt;amino acid adenylation domain-containing protein&lt;br&gt;Location: 7186377 - 7188125&lt;br&gt;&lt;br&gt;&lt;b&gt;BlastP hit with LLPMBPKK_00718&lt;/b&gt;&lt;br&gt;Percentage identity: 53&lt;br&gt;Percentage coverage: 99&lt;br&gt;BLAST bit score: 520&lt;br&gt;E-value: 2.74e-178" locus_tag="CP968_RS32105" class="clusterblast-orf" id="dummy-6_h6_7_10"  />
</g>
<g id="a6_0011"  >
<polygon points="241,90 244,90 249,85 244,80 241,80 241,90 " style="fill:#15d851; stroke-width:1; stroke:black; " description="&lt;b&gt;CP968_RS32110&lt;/b&gt;&lt;br&gt;alpha/beta fold hydrolase&lt;br&gt;Location: 7188129 - 7188878&lt;br&gt;&lt;br&gt;&lt;b&gt;BlastP hit with LLPMBPKK_00719&lt;/b&gt;&lt;br&gt;Percentage identity: 49&lt;br&gt;Percentage coverage: 98&lt;br&gt;BLAST bit score: 213&lt;br&gt;E-value: 3.14e-67" locus_tag="CP968_RS32110" class="clusterblast-orf" id="dummy-6_h6_7_11"  />
</g>
<g id="a6_0012"  >
<polygon points="250,90 252,85 250,80 250,90 " style="fill:white; stroke-width:1; stroke:black; " description="&lt;b&gt;CP968_RS34280&lt;/b&gt;&lt;br&gt;MbtH family NRPS accessory protein&lt;br&gt;Location: 7188914 - 7189093" locus_tag="CP968_RS34280" class="clusterblast-orf" id="dummy-6_h6_7_12"  />
</g>
<g id="a6_0013"  >
<polygon points="252,90 260,90 265,85 260,80 252,80 252,90 " style="fill:#1524d8; stroke-width:1; stroke:black; " description="&lt;b&gt;CP968_RS32120&lt;/b&gt;&lt;br&gt;cytochrome P450&lt;br&gt;Location: 7189095 - 7190309&lt;br&gt;&lt;br&gt;&lt;b&gt;BlastP hit with LLPMBPKK_00720&lt;/b&gt;&lt;br&gt;Percentage identity: 62&lt;br&gt;Percentage coverage: 99&lt;br&gt;BLAST bit score: 499&lt;br&gt;E-value: 4.12e-175" locus_tag="CP968_RS32120" class="clusterblast-orf" id="dummy-6_h6_7_13"  />
</g>
<g id="a6_0014"  >
<polygon points="266,90 305,90 310,85 305,80 266,80 266,90 " style="fill:white; stroke-width:1; stroke:black; " description="&lt;b&gt;CP968_RS32125&lt;/b&gt;&lt;br&gt;amino acid adenylation domain-containing protein&lt;br&gt;Location: 7190325 - 7194278" locus_tag="CP968_RS32125" class="clusterblast-orf" id="dummy-6_h6_7_14"  />
</g>
<g id="a6_0015"  >
<polygon points="310,90 312,90 317,85 312,80 310,80 310,90 " style="fill:white; stroke-width:1; stroke:black; " description="&lt;b&gt;CP968_RS32130&lt;/b&gt;&lt;br&gt;4'-phosphopantetheinyl transferase superfamily protein&lt;br&gt;Location: 7194278 - 7194943" locus_tag="CP968_RS32130" class="clusterblast-orf" id="dummy-6_h6_7_15"  />
</g>
<g id="a6_0016"  >
<polygon points="318,90 325,90 330,85 325,80 318,80 318,90 " style="fill:white; stroke-width:1; stroke:black; " description="&lt;b&gt;CP968_RS32135&lt;/b&gt;&lt;br&gt;winged helix DNA-binding domain-containing protein&lt;br&gt;Location: 7194956 - 7196026" locus_tag="CP968_RS32135" class="clusterblast-orf" id="dummy-6_h6_7_16"  />
</g>
<g id="a6_0017"  >
<polygon points="330,90 340,90 345,85 340,80 330,80 330,90 " style="fill:white; stroke-width:1; stroke:black; " description="&lt;b&gt;CP968_RS32140&lt;/b&gt;&lt;br&gt;MFS transporter&lt;br&gt;Location: 7196115 - 7197395" locus_tag="CP968_RS32140" class="clusterblast-orf" id="dummy-6_h6_7_17"  />
</g>
<g id="a6_0018"  >
<polygon points="349,90 389,90 394,85 389,80 349,80 349,90 " style="fill:white; stroke-width:1; stroke:black; " description="&lt;b&gt;CP968_RS32145&lt;/b&gt;&lt;br&gt;amino acid adenylation domain-containing protein&lt;br&gt;Location: 7197729 - 7201820" locus_tag="CP968_RS32145" class="clusterblast-orf" id="dummy-6_h6_7_18"  />
</g>
<g id="a6_0019"  >
<polygon points="394,90 427,90 432,85 427,80 394,80 394,90 " style="fill:white; stroke-width:1; stroke:black; " description="&lt;b&gt;CP968_RS32150&lt;/b&gt;&lt;br&gt;amino acid adenylation domain-containing protein&lt;br&gt;Location: 7201813 - 7205169" locus_tag="CP968_RS32150" class="clusterblast-orf" id="dummy-6_h6_7_19"  />
</g>
<g id="a6_0020"  >
<polygon points="432,90 443,90 448,85 443,80 432,80 432,90 " style="fill:white; stroke-width:1; stroke:black; " description="&lt;b&gt;CP968_RS32155&lt;/b&gt;&lt;br&gt;hypothetical protein&lt;br&gt;Location: 7205169 - 7206572" locus_tag="CP968_RS32155" class="clusterblast-orf" id="dummy-6_h6_7_20"  />
</g>
<g id="a6_0021"  >
<polygon points="448,90 456,90 461,85 456,80 448,80 448,90 " style="fill:white; stroke-width:1; stroke:black; " description="&lt;b&gt;CP968_RS32160&lt;/b&gt;&lt;br&gt;acyl-CoA dehydrogenase&lt;br&gt;Location: 7206583 - 7207773" locus_tag="CP968_RS32160" class="clusterblast-orf" id="dummy-6_h6_7_21"  />
</g>
<g id="a6_0022"  >
<polygon points="461,90 469,90 474,85 469,80 461,80 461,90 " style="fill:white; stroke-width:1; stroke:black; " description="&lt;b&gt;CP968_RS32165&lt;/b&gt;&lt;br&gt;acyl-CoA dehydrogenase&lt;br&gt;Location: 7207770 - 7208930" locus_tag="CP968_RS32165" class="clusterblast-orf" id="dummy-6_h6_7_22"  />
</g>
<g id="a6_0023"  >
<polygon points="475,85 480,80 482,80 482,90 480,90 475,85 " style="fill:white; stroke-width:1; stroke:black; " description="&lt;b&gt;CP968_RS32170&lt;/b&gt;&lt;br&gt;GNAT family N-acetyltransferase&lt;br&gt;Location: 7209052 - 7209633" locus_tag="CP968_RS32170" class="clusterblast-orf" id="dummy-6_h6_7_23"  />
</g>
<g id="a6_0024"  >
<polygon points="482,85 487,80 494,80 494,90 487,90 482,85 " style="fill:white; stroke-width:1; stroke:black; " description="&lt;b&gt;CP968_RS32175&lt;/b&gt;&lt;br&gt;low specificity L-threonine aldolase&lt;br&gt;Location: 7209660 - 7210733" locus_tag="CP968_RS32175" class="clusterblast-orf" id="dummy-6_h6_7_24"  />
</g>
<g id="a6_0025"  >
<polygon points="494,85 499,80 502,80 502,90 499,90 494,85 " style="fill:white; stroke-width:1; stroke:black; " description="&lt;b&gt;CP968_RS32180&lt;/b&gt;&lt;br&gt;DUF2461 family protein&lt;br&gt;Location: 7210730 - 7211419" locus_tag="CP968_RS32180" class="clusterblast-orf" id="dummy-6_h6_7_25"  />
</g>
<g id="a6_0026"  >
<polygon points="502,85 507,80 518,80 518,90 507,90 502,85 " style="fill:white; stroke-width:1; stroke:black; " description="&lt;b&gt;CP968_RS32185&lt;/b&gt;&lt;br&gt;serine hydroxymethyltransferase&lt;br&gt;Location: 7211416 - 7212822" locus_tag="CP968_RS32185" class="clusterblast-orf" id="dummy-6_h6_7_26"  />
</g>
<g id="a6_0027"  >
<polygon points="518,85 523,80 555,80 555,90 523,90 518,85 " style="fill:white; stroke-width:1; stroke:black; " description="&lt;b&gt;CP968_RS32190&lt;/b&gt;&lt;br&gt;amino acid adenylation domain-containing protein&lt;br&gt;Location: 7212819 - 7216184" locus_tag="CP968_RS32190" class="clusterblast-orf" id="dummy-6_h6_7_27"  />
</g>
<g id="a6_0028"  >
<polygon points="556,85 561,80 577,80 577,90 561,90 556,85 " style="fill:white; stroke-width:1; stroke:black; " description="&lt;b&gt;CP968_RS32195&lt;/b&gt;&lt;br&gt;AAA family ATPase&lt;br&gt;Location: 7216277 - 7218151" locus_tag="CP968_RS32195" class="clusterblast-orf" id="dummy-6_h6_7_28"  />
</g>
<g id="a6_0029"  >
<polygon points="580,90 584,85 580,80 580,90 " style="fill:white; stroke-width:1; stroke:black; " description="&lt;b&gt;CP968_RS32200&lt;/b&gt;&lt;br&gt;hypothetical protein&lt;br&gt;Location: 7218351 - 7218713" locus_tag="CP968_RS32200" class="clusterblast-orf" id="dummy-6_h6_7_29"  />
</g>
<g id="a6_0030"  >
<polygon points="585,85 590,80 619,80 619,90 590,90 585,85 " style="fill:white; stroke-width:1; stroke:black; " description="&lt;b&gt;CP968_RS32205&lt;/b&gt;&lt;br&gt;tetratricopeptide repeat protein&lt;br&gt;Location: 7218813 - 7221824" locus_tag="CP968_RS32205" class="clusterblast-orf" id="dummy-6_h6_7_30"  />
</g>
<g id="a6_0031"  >
<polygon points="620,85 625,80 625,80 625,90 625,90 620,85 " style="fill:white; stroke-width:1; stroke:black; " description="&lt;b&gt;CP968_RS32210&lt;/b&gt;&lt;br&gt;MarR family transcriptional regulator&lt;br&gt;Location: 7221921 - 7222433" locus_tag="CP968_RS32210" class="clusterblast-orf" id="dummy-6_h6_7_31"  />
</g>
<g id="a6_0032"  >
<polygon points="627,85 632,80 647,80 647,90 632,90 627,85 " style="fill:white; stroke-width:1; stroke:black; " description="&lt;b&gt;CP968_RS32215&lt;/b&gt;&lt;br&gt;NlpC/P60 family protein&lt;br&gt;Location: 7222579 - 7224351" locus_tag="CP968_RS32215" class="clusterblast-orf" id="dummy-6_h6_7_32"  />
</g>
<g id="a6_0033"  >
<polygon points="648,90 648,90 653,85 648,80 648,80 648,90 " style="fill:white; stroke-width:1; stroke:black; " description="&lt;b&gt;CP968_RS32220&lt;/b&gt;&lt;br&gt;VOC family protein&lt;br&gt;Location: 7224471 - 7224905" locus_tag="CP968_RS32220" class="clusterblast-orf" id="dummy-6_h6_7_33"  />
</g>
<g id="a6_0034"  >
<polygon points="656,90 665,90 670,85 665,80 656,80 656,90 " style="fill:white; stroke-width:1; stroke:black; " description="&lt;b&gt;CP968_RS32225&lt;/b&gt;&lt;br&gt;MFS transporter&lt;br&gt;Location: 7225148 - 7226446" locus_tag="CP968_RS32225" class="clusterblast-orf" id="dummy-6_h6_7_34"  />
</g>
<g id="a6_0035"  >
<polygon points="671,90 686,90 691,85 686,80 671,80 671,90 " style="fill:white; stroke-width:1; stroke:black; " description="&lt;b&gt;CP968_RS32230&lt;/b&gt;&lt;br&gt;prolyl oligopeptidase family serine peptidase&lt;br&gt;Location: 7226533 - 7228278" locus_tag="CP968_RS32230" class="clusterblast-orf" id="dummy-6_h6_7_35"  />
</g>
<g id="a6_0036"  >
<polygon points="694,90 710,90 715,85 710,80 694,80 694,90 " style="fill:white; stroke-width:1; stroke:black; " description="&lt;b&gt;CP968_RS32235&lt;/b&gt;&lt;br&gt;RiPP maturation radical SAM protein 1&lt;br&gt;Location: 7228519 - 7230420" locus_tag="CP968_RS32235" class="clusterblast-orf" id="dummy-6_h6_7_36"  />
</g>
<g id="a6_0037"  >
<polygon points="716,90 718,90 723,85 718,80 716,80 716,90 " style="fill:white; stroke-width:1; stroke:black; " description="&lt;b&gt;CP968_RS32240&lt;/b&gt;&lt;br&gt;hypothetical protein&lt;br&gt;Location: 7230496 - 7231155" locus_tag="CP968_RS32240" class="clusterblast-orf" id="dummy-6_h6_7_37"  />
</g>
<g id="a6_0038"  >
<polygon points="726,90 735,90 740,85 735,80 726,80 726,90 " style="fill:white; stroke-width:1; stroke:black; " description="&lt;b&gt;CP968_RS32245&lt;/b&gt;&lt;br&gt;extracellular solute-binding protein&lt;br&gt;Location: 7231389 - 7232693" locus_tag="CP968_RS32245" class="clusterblast-orf" id="dummy-6_h6_7_38"  />
</g>
<g id="a6_0039"  >
<polygon points="741,90 746,90 751,85 746,80 741,80 741,90 " style="fill:white; stroke-width:1; stroke:black; " description="&lt;b&gt;CP968_RS32250&lt;/b&gt;&lt;br&gt;ABC transporter permease subunit&lt;br&gt;Location: 7232708 - 7233679" locus_tag="CP968_RS32250" class="clusterblast-orf" id="dummy-6_h6_7_39"  />
</g>
<g id="a6_0040"  >
<polygon points="751,90 756,90 761,85 756,80 751,80 751,90 " style="fill:white; stroke-width:1; stroke:black; " description="&lt;b&gt;CP968_RS32255&lt;/b&gt;&lt;br&gt;ABC transporter permease subunit&lt;br&gt;Location: 7233676 - 7234554" locus_tag="CP968_RS32255" class="clusterblast-orf" id="dummy-6_h6_7_40"  />
</g>
<g id="a6_0041"  >
<polygon points="765,90 775,90 780,85 775,80 765,80 765,90 " style="fill:white; stroke-width:1; stroke:black; " description="&lt;b&gt;CP968_RS32260&lt;/b&gt;&lt;br&gt;MFS transporter&lt;br&gt;Location: 7234856 - 7236178" locus_tag="CP968_RS32260" class="clusterblast-orf" id="dummy-6_h6_7_41"  />
</g>
</svg>
