<svg xmlns="http://www.w3.org/2000/svg" xmlns:xlink="http://www.w3.org/1999/xlink" version="1.1" x="0" y="0" height="230" width="800" viewBox="0 0 800 230" preserveAspectRatio="none"  >
<g label="Query sequence" class="clusterblast-cluster"  >
<text x="5" y="20" class="clusterblast-acc"  >
Query sequence</text>
<line x1="10" y1="35" x2="778.0" y2="35" style="stroke-width:1; stroke:grey; "  />
<polygon points="2,40 36,40 41,35 36,30 2,30 2,40 " style="fill:white; stroke-width:1; stroke:black; " description="&lt;b&gt;LLPMBPKK_07373&lt;/b&gt;&lt;br&gt;aldo/keto reductase&lt;br&gt;Location: 8589498 - 8590485" locus_tag="LLPMBPKK_07373" class="clusterblast-orf" id="dummy-32_q0_0_all"  />
<polygon points="54,40 64,40 69,35 64,30 54,30 54,40 " style="fill:white; stroke-width:1; stroke:black; " description="&lt;b&gt;LLPMBPKK_07374&lt;/b&gt;&lt;br&gt;hypothetical protein&lt;br&gt;Location: 8590807 - 8591173" locus_tag="LLPMBPKK_07374" class="clusterblast-orf" id="dummy-32_q1_0_all"  />
<polygon points="70,35 75,30 89,30 89,40 75,40 70,35 " style="fill:#d81515; stroke-width:1; stroke:black; " description="&lt;b&gt;LLPMBPKK_07375&lt;/b&gt;&lt;br&gt;hypothetical protein&lt;br&gt;Location: 8591212 - 8591680" locus_tag="LLPMBPKK_07375" class="clusterblast-orf" id="dummy-32_q2_0_all"  />
<polygon points="102,40 151,40 156,35 151,30 102,30 102,40 " style="fill:#56d815; stroke-width:1; stroke:black; " description="&lt;b&gt;LLPMBPKK_07376&lt;/b&gt;&lt;br&gt;aminotransferase class III-fold pyridoxal phosphate-dependent enzyme&lt;br&gt;Location: 8592020 - 8593370" locus_tag="LLPMBPKK_07376" class="clusterblast-orf" id="dummy-32_q3_0_all"  />
<polygon points="159,40 172,40 177,35 172,30 159,30 159,40 " style="fill:#1597d8; stroke-width:1; stroke:black; " description="&lt;b&gt;LLPMBPKK_07377&lt;/b&gt;&lt;br&gt;Lrp/AsnC family transcriptional regulator&lt;br&gt;Location: 8593445 - 8593895" locus_tag="LLPMBPKK_07377" class="clusterblast-orf" id="dummy-32_q4_0_all"  />
<polygon points="178,35 183,30 220,30 220,40 183,40 178,35 " style="fill:#9715d8; stroke-width:1; stroke:black; " description="&lt;b&gt;LLPMBPKK_07378&lt;/b&gt;&lt;br&gt;serine/threonine-protein phosphatase&lt;br&gt;Location: 8593917 - 8594991" locus_tag="LLPMBPKK_07378" class="clusterblast-orf" id="dummy-32_q5_0_all"  />
<polygon points="260,35 265,30 296,30 296,40 265,40 260,35 " style="fill:#d85615; stroke-width:1; stroke:black; " description="&lt;b&gt;LLPMBPKK_07379&lt;/b&gt;&lt;br&gt;Gfo/Idh/MocA family oxidoreductase&lt;br&gt;Location: 8595996 - 8596884" locus_tag="LLPMBPKK_07379" class="clusterblast-orf" id="dummy-32_q6_0_all"  />
<polygon points="297,35 302,30 333,30 333,40 302,40 297,35 " style="fill:#15d815; stroke-width:1; stroke:black; " description="&lt;b&gt;LLPMBPKK_07380&lt;/b&gt;&lt;br&gt;ATP-grasp ribosomal peptide maturase&lt;br&gt;Location: 8596919 - 8597828" locus_tag="LLPMBPKK_07380" class="clusterblast-orf" id="dummy-32_q7_0_all"  />
<polygon points="337,35 342,30 345,30 345,40 342,40 337,35 " style="fill:#1556d8; stroke-width:1; stroke:black; " description="&lt;b&gt;LLPMBPKK_07381&lt;/b&gt;&lt;br&gt;putative ATP-grasp-modified RiPP&lt;br&gt;Location: 8597921 - 8598113" locus_tag="LLPMBPKK_07381" class="clusterblast-orf" id="dummy-32_q8_0_all"  />
<polygon points="348,35 353,30 382,30 382,40 353,40 348,35 " style="fill:#d815d8; stroke-width:1; stroke:black; " description="&lt;b&gt;LLPMBPKK_07382&lt;/b&gt;&lt;br&gt;fructosamine kinase&lt;br&gt;Location: 8598212 - 8599049" locus_tag="LLPMBPKK_07382" class="clusterblast-orf" id="dummy-32_q9_0_all"  />
<polygon points="390,40 414,40 419,35 414,30 390,30 390,40 " style="fill:#d89715; stroke-width:1; stroke:black; " description="&lt;b&gt;LLPMBPKK_07383&lt;/b&gt;&lt;br&gt;Cyclo(L-tyrosyl-L-tyrosyl) synthase&lt;br&gt;Location: 8599267 - 8599978" locus_tag="LLPMBPKK_07383" class="clusterblast-orf" id="dummy-32_q10_0_all"  />
<polygon points="418,40 462,40 467,35 462,30 418,30 418,40 " style="fill:#15d856; stroke-width:1; stroke:black; " description="&lt;b&gt;LLPMBPKK_07384&lt;/b&gt;&lt;br&gt;cytochrome P450&lt;br&gt;Location: 8599974 - 8601186" locus_tag="LLPMBPKK_07384" class="clusterblast-orf" id="dummy-32_q11_0_all"  />
<polygon points="475,35 480,30 510,30 510,40 480,40 475,35 " style="fill:#1515d8; stroke-width:1; stroke:black; " description="&lt;b&gt;LLPMBPKK_07385&lt;/b&gt;&lt;br&gt;hypothetical protein&lt;br&gt;Location: 8601404 - 8602283" locus_tag="LLPMBPKK_07385" class="clusterblast-orf" id="dummy-32_q12_0_all"  />
<polygon points="524,40 544,40 549,35 544,30 524,30 524,40 " style="fill:#d81597; stroke-width:1; stroke:black; " description="&lt;b&gt;LLPMBPKK_07386&lt;/b&gt;&lt;br&gt;hypothetical protein&lt;br&gt;Location: 8602637 - 8603255" locus_tag="LLPMBPKK_07386" class="clusterblast-orf" id="dummy-32_q13_0_all"  />
<polygon points="555,40 577,40 582,35 577,30 555,30 555,40 " style="fill:#d8d815; stroke-width:1; stroke:black; " description="&lt;b&gt;LLPMBPKK_07387&lt;/b&gt;&lt;br&gt;class F sortase&lt;br&gt;Location: 8603413 - 8604085" locus_tag="LLPMBPKK_07387" class="clusterblast-orf" id="dummy-32_q14_0_all"  />
<polygon points="581,35 586,30 629,30 629,40 586,40 581,35 " style="fill:#15d897; stroke-width:1; stroke:black; " description="&lt;b&gt;LLPMBPKK_07388&lt;/b&gt;&lt;br&gt;lipase&lt;br&gt;Location: 8604072 - 8605269" locus_tag="LLPMBPKK_07388" class="clusterblast-orf" id="dummy-32_q15_0_all"  />
<polygon points="629,35 634,30 653,30 653,40 634,40 629,35 " style="fill:#5615d8; stroke-width:1; stroke:black; " description="&lt;b&gt;LLPMBPKK_07389&lt;/b&gt;&lt;br&gt;TetR family transcriptional regulator&lt;br&gt;Location: 8605286 - 8605868" locus_tag="LLPMBPKK_07389" class="clusterblast-orf" id="dummy-32_q16_0_all"  />
<polygon points="658,35 663,30 709,30 709,40 663,40 658,35 " style="fill:#d81556; stroke-width:1; stroke:black; " description="&lt;b&gt;LLPMBPKK_07390&lt;/b&gt;&lt;br&gt;carbohydrate-binding protein&lt;br&gt;Location: 8605994 - 8607296" locus_tag="LLPMBPKK_07390" class="clusterblast-orf" id="dummy-32_q17_0_all"  />
<polygon points="726,35 731,30 740,30 740,40 731,40 726,35 " style="fill:#97d815; stroke-width:1; stroke:black; " description="&lt;b&gt;LLPMBPKK_07391&lt;/b&gt;&lt;br&gt;transcriptional regulator&lt;br&gt;Location: 8607707 - 8608058" locus_tag="LLPMBPKK_07391" class="clusterblast-orf" id="dummy-32_q18_0_all"  />
<polygon points="742,40 773,40 778,35 773,30 742,30 742,40 " style="fill:#15d8d8; stroke-width:1; stroke:black; " description="&lt;b&gt;LLPMBPKK_07392&lt;/b&gt;&lt;br&gt;NAD(P)-dependent oxidoreductase&lt;br&gt;Location: 8608125 - 8609013" locus_tag="LLPMBPKK_07392" class="clusterblast-orf" id="dummy-32_q19_0_all"  />
</g>
<g label="NZ_CM002285" description="NZ_CM002285 (8882084-8902774): Streptomyces roseochromogenus subsp. oscitans ... (65% of genes show similarity), CDPS" class="clusterblast-cluster"  >
<text x="5" y="70" class="clusterblast-acc"  >
<a xlink:href="https://antismash-db.secondarymetabolites.org/area.html?record=NZ_CM002285&amp;start=8882084&amp;end=8902774" target="_blank">NZ_CM002285 (8882084-8902774)</a>: Streptomyces roseochromogenus subsp. oscitans ... (65% of genes show similarity), CDPS</text>
<line x1="10" y1="85" x2="778.0" y2="85" style="stroke-width:1; stroke:grey; "  />
</g>
<g id="a32_000"  >
<polygon points="0,85 5,80 49,80 49,90 5,90 0,85 " style="fill:white; stroke-width:1; stroke:black; " description="&lt;b&gt;M878_RS88150&lt;/b&gt;&lt;br&gt;serine hydrolase&lt;br&gt;Location: 8882988 - 8884238" locus_tag="M878_RS88150" class="clusterblast-orf" id="dummy-32_h32_9_0"  />
</g>
<g id="a32_001"  >
<polygon points="59,90 68,90 73,85 68,80 59,80 59,90 " style="fill:white; stroke-width:1; stroke:black; " description="&lt;b&gt;M878_RS92585&lt;/b&gt;&lt;br&gt;hypothetical protein&lt;br&gt;Location: 8884483 - 8884839" locus_tag="M878_RS92585" class="clusterblast-orf" id="dummy-32_h32_9_1"  />
</g>
<g id="a32_002"  >
<polygon points="73,85 78,80 92,80 92,90 78,90 73,85 " style="fill:#d81515; stroke-width:1; stroke:black; " description="&lt;b&gt;M878_RS88160&lt;/b&gt;&lt;br&gt;hypothetical protein&lt;br&gt;Location: 8884844 - 8885311&lt;br&gt;&lt;br&gt;&lt;b&gt;BlastP hit with LLPMBPKK_07375&lt;/b&gt;&lt;br&gt;Percentage identity: 78&lt;br&gt;Percentage coverage: 100&lt;br&gt;BLAST bit score: 265&lt;br&gt;E-value: 8.33e-91" locus_tag="M878_RS88160" class="clusterblast-orf" id="dummy-32_h32_9_2"  />
</g>
<g id="a32_003"  >
<polygon points="104,85 109,80 147,80 147,90 109,90 104,85 " style="fill:#9715d8; stroke-width:1; stroke:black; " description="&lt;b&gt;M878_RS88165&lt;/b&gt;&lt;br&gt;serine/threonine-protein phosphatase&lt;br&gt;Location: 8885606 - 8886712&lt;br&gt;&lt;br&gt;&lt;b&gt;BlastP hit with LLPMBPKK_07378&lt;/b&gt;&lt;br&gt;Percentage identity: 81&lt;br&gt;Percentage coverage: 94&lt;br&gt;BLAST bit score: 525&lt;br&gt;E-value: 1.53e-186" locus_tag="M878_RS88165" class="clusterblast-orf" id="dummy-32_h32_9_3"  />
</g>
<g id="a32_004"  >
<polygon points="167,90 198,90 203,85 198,80 167,80 167,90 " style="fill:white; stroke-width:1; stroke:black; " description="&lt;b&gt;M878_RS88170&lt;/b&gt;&lt;br&gt;N-acetyltransferase&lt;br&gt;Location: 8887209 - 8888117" locus_tag="M878_RS88170" class="clusterblast-orf" id="dummy-32_h32_9_4"  />
</g>
<g id="a32_005"  >
<polygon points="222,85 227,80 258,80 258,90 227,90 222,85 " style="fill:#d85615; stroke-width:1; stroke:black; " description="&lt;b&gt;M878_RS88175&lt;/b&gt;&lt;br&gt;Gfo/Idh/MocA family oxidoreductase&lt;br&gt;Location: 8888595 - 8889482&lt;br&gt;&lt;br&gt;&lt;b&gt;BlastP hit with LLPMBPKK_07379&lt;/b&gt;&lt;br&gt;Percentage identity: 88&lt;br&gt;Percentage coverage: 100&lt;br&gt;BLAST bit score: 494&lt;br&gt;E-value: 1.42e-176" locus_tag="M878_RS88175" class="clusterblast-orf" id="dummy-32_h32_9_5"  />
</g>
<g id="a32_006"  >
<polygon points="259,85 264,80 298,80 298,90 264,90 259,85 " style="fill:#15d815; stroke-width:1; stroke:black; " description="&lt;b&gt;M878_RS88180&lt;/b&gt;&lt;br&gt;ATP-grasp ribosomal peptide maturase&lt;br&gt;Location: 8889518 - 8890501&lt;br&gt;&lt;br&gt;&lt;b&gt;BlastP hit with LLPMBPKK_07380&lt;/b&gt;&lt;br&gt;Percentage identity: 89&lt;br&gt;Percentage coverage: 100&lt;br&gt;BLAST bit score: 544&lt;br&gt;E-value: 9.52e-196" locus_tag="M878_RS88180" class="clusterblast-orf" id="dummy-32_h32_9_6"  />
</g>
<g id="a32_007"  >
<polygon points="299,85 304,80 306,80 306,90 304,90 299,85 " style="fill:#1556d8; stroke-width:1; stroke:black; " description="&lt;b&gt;M878_RS88185&lt;/b&gt;&lt;br&gt;putative ATP-grasp-modified RiPP&lt;br&gt;Location: 8890519 - 8890710&lt;br&gt;&lt;br&gt;&lt;b&gt;BlastP hit with LLPMBPKK_07381&lt;/b&gt;&lt;br&gt;Percentage identity: 94&lt;br&gt;Percentage coverage: 100&lt;br&gt;BLAST bit score: 121&lt;br&gt;E-value: 1.17e-36" locus_tag="M878_RS88185" class="clusterblast-orf" id="dummy-32_h32_9_7"  />
</g>
<g id="a32_008"  >
<polygon points="318,85 323,80 353,80 353,90 323,90 318,85 " style="fill:#d815d8; stroke-width:1; stroke:black; " description="&lt;b&gt;M878_RS88190&lt;/b&gt;&lt;br&gt;phosphotransferase&lt;br&gt;Location: 8891000 - 8891875&lt;br&gt;&lt;br&gt;&lt;b&gt;BlastP hit with LLPMBPKK_07382&lt;/b&gt;&lt;br&gt;Percentage identity: 84&lt;br&gt;Percentage coverage: 99&lt;br&gt;BLAST bit score: 478&lt;br&gt;E-value: 1.1e-170" locus_tag="M878_RS88190" class="clusterblast-orf" id="dummy-32_h32_9_8"  />
</g>
<g id="a32_009"  >
<polygon points="361,90 383,90 388,85 383,80 361,80 361,90 " style="fill:#d89715; stroke-width:1; stroke:black; " description="&lt;b&gt;M878_RS49995&lt;/b&gt;&lt;br&gt;tRNA-dependent cyclodipeptide synthase&lt;br&gt;Location: 8892085 - 8892774&lt;br&gt;&lt;br&gt;&lt;b&gt;BlastP hit with LLPMBPKK_07383&lt;/b&gt;&lt;br&gt;Percentage identity: 93&lt;br&gt;Percentage coverage: 97&lt;br&gt;BLAST bit score: 436&lt;br&gt;E-value: 1.25e-155" locus_tag="M878_RS49995" class="clusterblast-orf" id="dummy-32_h32_9_9"  />
</g>
<g id="a32_0010"  >
<polygon points="388,90 431,90 436,85 431,80 388,80 388,90 " style="fill:#15d856; stroke-width:1; stroke:black; " description="&lt;b&gt;M878_RS88195&lt;/b&gt;&lt;br&gt;cytochrome P450&lt;br&gt;Location: 8892771 - 8893982&lt;br&gt;&lt;br&gt;&lt;b&gt;BlastP hit with LLPMBPKK_07384&lt;/b&gt;&lt;br&gt;Percentage identity: 89&lt;br&gt;Percentage coverage: 100&lt;br&gt;BLAST bit score: 734&lt;br&gt;E-value: 7.04e-268" locus_tag="M878_RS88195" class="clusterblast-orf" id="dummy-32_h32_9_10"  />
</g>
<g id="a32_0011"  >
<polygon points="441,85 446,80 476,80 476,90 446,90 441,85 " style="fill:#1515d8; stroke-width:1; stroke:black; " description="&lt;b&gt;M878_RS88200&lt;/b&gt;&lt;br&gt;hypothetical protein&lt;br&gt;Location: 8894109 - 8894987&lt;br&gt;&lt;br&gt;&lt;b&gt;BlastP hit with LLPMBPKK_07385&lt;/b&gt;&lt;br&gt;Percentage identity: 69&lt;br&gt;Percentage coverage: 99&lt;br&gt;BLAST bit score: 384&lt;br&gt;E-value: 2.73e-133" locus_tag="M878_RS88200" class="clusterblast-orf" id="dummy-32_h32_9_11"  />
</g>
<g id="a32_0012"  >
<polygon points="484,85 489,80 489,80 489,90 489,90 484,85 " style="fill:white; stroke-width:1; stroke:black; " description="&lt;b&gt;M878_RS88205&lt;/b&gt;&lt;br&gt;MFS transporter&lt;br&gt;Location: 8895176 - 8895298" locus_tag="M878_RS88205" class="clusterblast-orf" id="dummy-32_h32_9_12"  />
</g>
<g id="a32_0013"  >
<polygon points="502,85 507,80 521,80 521,90 507,90 502,85 " style="fill:white; stroke-width:1; stroke:black; " description="&lt;b&gt;M878_RS50005&lt;/b&gt;&lt;br&gt;hypothetical protein&lt;br&gt;Location: 8895644 - 8896108" locus_tag="M878_RS50005" class="clusterblast-orf" id="dummy-32_h32_9_13"  />
</g>
<g id="a32_0014"  >
<polygon points="566,90 589,90 594,85 589,80 566,80 566,90 " style="fill:#d8d815; stroke-width:1; stroke:black; " description="&lt;b&gt;M878_RS88210&lt;/b&gt;&lt;br&gt;class F sortase&lt;br&gt;Location: 8897242 - 8897940&lt;br&gt;&lt;br&gt;&lt;b&gt;BlastP hit with LLPMBPKK_07387&lt;/b&gt;&lt;br&gt;Percentage identity: 70&lt;br&gt;Percentage coverage: 103&lt;br&gt;BLAST bit score: 295&lt;br&gt;E-value: 3.21e-100" locus_tag="M878_RS88210" class="clusterblast-orf" id="dummy-32_h32_9_14"  />
</g>
<g id="a32_0015"  >
<polygon points="595,85 600,80 641,80 641,90 600,90 595,85 " style="fill:#15d897; stroke-width:1; stroke:black; " description="&lt;b&gt;M878_RS88215&lt;/b&gt;&lt;br&gt;lipase&lt;br&gt;Location: 8897980 - 8899146&lt;br&gt;&lt;br&gt;&lt;b&gt;BlastP hit with LLPMBPKK_07388&lt;/b&gt;&lt;br&gt;Percentage identity: 80&lt;br&gt;Percentage coverage: 97&lt;br&gt;BLAST bit score: 632&lt;br&gt;E-value: 3.79e-228" locus_tag="M878_RS88215" class="clusterblast-orf" id="dummy-32_h32_9_15"  />
</g>
<g id="a32_0016"  >
<polygon points="643,85 648,80 666,80 666,90 648,90 643,85 " style="fill:#5615d8; stroke-width:1; stroke:black; " description="&lt;b&gt;M878_RS88220&lt;/b&gt;&lt;br&gt;TetR/AcrR family transcriptional regulator&lt;br&gt;Location: 8899188 - 8899757&lt;br&gt;&lt;br&gt;&lt;b&gt;BlastP hit with LLPMBPKK_07389&lt;/b&gt;&lt;br&gt;Percentage identity: 87&lt;br&gt;Percentage coverage: 97&lt;br&gt;BLAST bit score: 316&lt;br&gt;E-value: 1.34e-109" locus_tag="M878_RS88220" class="clusterblast-orf" id="dummy-32_h32_9_16"  />
</g>
<g id="a32_0017"  >
<polygon points="670,85 675,80 693,80 693,90 675,90 670,85 " style="fill:white; stroke-width:1; stroke:black; " description="&lt;b&gt;M878_RS95440&lt;/b&gt;&lt;br&gt;alpha-galactosidase&lt;br&gt;Location: 8899872 - 8900434" locus_tag="M878_RS95440" class="clusterblast-orf" id="dummy-32_h32_9_17"  />
</g>
<g id="a32_0018"  >
<polygon points="704,90 755,90 760,85 755,80 704,80 704,90 " style="fill:white; stroke-width:1; stroke:black; " description="&lt;b&gt;M878_RS88230&lt;/b&gt;&lt;br&gt;proline--tRNA ligase&lt;br&gt;Location: 8900717 - 8902129" locus_tag="M878_RS88230" class="clusterblast-orf" id="dummy-32_h32_9_18"  />
</g>
<g id="a32_0019"  >
<polygon points="766,85 771,80 780,80 780,90 771,90 766,85 " style="fill:#97d815; stroke-width:1; stroke:black; " description="&lt;b&gt;M878_RS88235&lt;/b&gt;&lt;br&gt;helix-turn-helix transcriptional regulator&lt;br&gt;Location: 8902271 - 8902621&lt;br&gt;&lt;br&gt;&lt;b&gt;BlastP hit with LLPMBPKK_07391&lt;/b&gt;&lt;br&gt;Percentage identity: 86&lt;br&gt;Percentage coverage: 100&lt;br&gt;BLAST bit score: 207&lt;br&gt;E-value: 4.92e-69" locus_tag="M878_RS88235" class="clusterblast-orf" id="dummy-32_h32_9_19"  />
</g>
</svg>
