<svg xmlns="http://www.w3.org/2000/svg" xmlns:xlink="http://www.w3.org/1999/xlink" version="1.1" x="0" y="0" height="230" width="800" viewBox="0 0 800 230" preserveAspectRatio="none"  >
<g label="Query sequence" class="clusterblast-cluster"  >
<text x="5" y="20" class="clusterblast-acc"  >
Query sequence</text>
<line x1="10" y1="35" x2="778.0" y2="35" style="stroke-width:1; stroke:grey; "  />
<polygon points="0,40 41,40 46,35 41,30 0,30 0,40 " style="fill:white; stroke-width:1; stroke:black; " description="&lt;b&gt;LLPMBPKK_00615&lt;/b&gt;&lt;br&gt;FAD dependent oxidoreductase&lt;br&gt;Location: 800069 - 801479" locus_tag="LLPMBPKK_00615" class="clusterblast-orf" id="dummy-5_q0_0_all"  />
<polygon points="51,40 71,40 76,35 71,30 51,30 51,40 " style="fill:white; stroke-width:1; stroke:black; " description="&lt;b&gt;LLPMBPKK_00616&lt;/b&gt;&lt;br&gt;glycosyl hydrolase family protein&lt;br&gt;Location: 801635 - 802406" locus_tag="LLPMBPKK_00616" class="clusterblast-orf" id="dummy-5_q1_0_all"  />
<polygon points="77,35 82,30 85,30 85,40 82,40 77,35 " style="fill:white; stroke-width:1; stroke:black; " description="&lt;b&gt;LLPMBPKK_00617&lt;/b&gt;&lt;br&gt;hypothetical protein&lt;br&gt;Location: 802441 - 802687" locus_tag="LLPMBPKK_00617" class="clusterblast-orf" id="dummy-5_q2_0_all"  />
<polygon points="95,35 100,30 111,30 111,40 100,40 95,35 " style="fill:#d81515; stroke-width:1; stroke:black; " description="&lt;b&gt;LLPMBPKK_00618&lt;/b&gt;&lt;br&gt;hypothetical protein&lt;br&gt;Location: 803018 - 803495" locus_tag="LLPMBPKK_00618" class="clusterblast-orf" id="dummy-5_q3_0_all"  />
<polygon points="112,35 117,30 141,30 141,40 117,40 112,35 " style="fill:#5cd815; stroke-width:1; stroke:black; " description="&lt;b&gt;LLPMBPKK_00619&lt;/b&gt;&lt;br&gt;SDR family oxidoreductase&lt;br&gt;Location: 803536 - 804418" locus_tag="LLPMBPKK_00619" class="clusterblast-orf" id="dummy-5_q4_0_all"  />
<polygon points="143,35 148,30 158,30 158,40 148,40 143,35 " style="fill:#15a3d8; stroke-width:1; stroke:black; " description="&lt;b&gt;LLPMBPKK_00620&lt;/b&gt;&lt;br&gt;hypothetical protein&lt;br&gt;Location: 804480 - 804933" locus_tag="LLPMBPKK_00620" class="clusterblast-orf" id="dummy-5_q5_0_all"  />
<polygon points="160,35 165,30 213,30 213,40 165,40 160,35 " style="fill:#c715d8; stroke-width:1; stroke:black; " description="&lt;b&gt;LLPMBPKK_00621&lt;/b&gt;&lt;br&gt;dehydrogenase&lt;br&gt;Location: 805025 - 806645" locus_tag="LLPMBPKK_00621" class="clusterblast-orf" id="dummy-5_q6_0_all"  />
<polygon points="213,35 218,30 229,30 229,40 218,40 213,35 " style="fill:#d88015; stroke-width:1; stroke:black; " description="&lt;b&gt;LLPMBPKK_00622&lt;/b&gt;&lt;br&gt;SRPBCC family protein&lt;br&gt;Location: 806637 - 807132" locus_tag="LLPMBPKK_00622" class="clusterblast-orf" id="dummy-5_q7_0_all"  />
<polygon points="237,35 242,30 288,30 288,40 242,40 237,35 " style="fill:#15d839; stroke-width:1; stroke:black; " description="&lt;b&gt;LLPMBPKK_00623&lt;/b&gt;&lt;br&gt;FAD-dependent oxidoreductase&lt;br&gt;Location: 807384 - 808953" locus_tag="LLPMBPKK_00623" class="clusterblast-orf" id="dummy-5_q8_0_all"  />
<polygon points="288,35 293,30 311,30 311,40 293,40 288,35 " style="fill:#1539d8; stroke-width:1; stroke:black; " description="&lt;b&gt;LLPMBPKK_00624&lt;/b&gt;&lt;br&gt;methyltransferase domain-containing protein&lt;br&gt;Location: 808949 - 809669" locus_tag="LLPMBPKK_00624" class="clusterblast-orf" id="dummy-5_q9_0_all"  />
<polygon points="311,35 316,30 351,30 351,40 316,40 311,35 " style="fill:#d81580; stroke-width:1; stroke:black; " description="&lt;b&gt;LLPMBPKK_00625&lt;/b&gt;&lt;br&gt;lycopene cyclase&lt;br&gt;Location: 809665 - 810889" locus_tag="LLPMBPKK_00625" class="clusterblast-orf" id="dummy-5_q10_0_all"  />
<polygon points="363,40 369,40 374,35 369,30 363,30 363,40 " style="fill:white; stroke-width:1; stroke:black; " description="&lt;b&gt;LLPMBPKK_00626&lt;/b&gt;&lt;br&gt;hypothetical protein&lt;br&gt;Location: 811279 - 811597" locus_tag="LLPMBPKK_00626" class="clusterblast-orf" id="dummy-5_q11_0_all"  />
<polygon points="373,40 418,40 423,35 418,30 373,30 373,40 " style="fill:#c7d815; stroke-width:1; stroke:black; " description="&lt;b&gt;LLPMBPKK_00627&lt;/b&gt;&lt;br&gt;phytoene desaturase&lt;br&gt;Location: 811593 - 813132" locus_tag="LLPMBPKK_00627" class="clusterblast-orf" id="dummy-5_q12_0_all"  />
<polygon points="423,40 451,40 456,35 451,30 423,30 423,40 " style="fill:#15d8a3; stroke-width:1; stroke:black; " description="&lt;b&gt;LLPMBPKK_00628&lt;/b&gt;&lt;br&gt;phytoene/squalene synthase family protein&lt;br&gt;Location: 813128 - 814148" locus_tag="LLPMBPKK_00628" class="clusterblast-orf" id="dummy-5_q13_0_all"  />
<polygon points="456,40 486,40 491,35 486,30 456,30 456,40 " style="fill:#5c15d8; stroke-width:1; stroke:black; " description="&lt;b&gt;LLPMBPKK_00629&lt;/b&gt;&lt;br&gt;Rieske (2Fe-2S) protein&lt;br&gt;Location: 814144 - 815218" locus_tag="LLPMBPKK_00629" class="clusterblast-orf" id="dummy-5_q14_0_all"  />
<polygon points="497,40 500,40 505,35 500,30 497,30 497,40 " style="fill:white; stroke-width:1; stroke:black; " description="&lt;b&gt;LLPMBPKK_00630&lt;/b&gt;&lt;br&gt;hypothetical protein&lt;br&gt;Location: 815393 - 815654" locus_tag="LLPMBPKK_00630" class="clusterblast-orf" id="dummy-5_q15_0_all"  />
<polygon points="510,40 529,40 534,35 529,30 510,30 510,40 " style="fill:white; stroke-width:1; stroke:black; " description="&lt;b&gt;LLPMBPKK_00631&lt;/b&gt;&lt;br&gt;hypothetical protein&lt;br&gt;Location: 815792 - 816557" locus_tag="LLPMBPKK_00631" class="clusterblast-orf" id="dummy-5_q16_0_all"  />
<polygon points="533,40 556,40 561,35 556,30 533,30 533,40 " style="fill:white; stroke-width:1; stroke:black; " description="&lt;b&gt;LLPMBPKK_00632&lt;/b&gt;&lt;br&gt;MFS transporter&lt;br&gt;Location: 816508 - 817375" locus_tag="LLPMBPKK_00632" class="clusterblast-orf" id="dummy-5_q17_0_all"  />
<polygon points="573,40 575,40 580,35 575,30 573,30 573,40 " style="fill:white; stroke-width:1; stroke:black; " description="&lt;b&gt;LLPMBPKK_00633&lt;/b&gt;&lt;br&gt;hypothetical protein&lt;br&gt;Location: 817740 - 817956" locus_tag="LLPMBPKK_00633" class="clusterblast-orf" id="dummy-5_q18_0_all"  />
<polygon points="583,40 592,40 597,35 592,30 583,30 583,40 " style="fill:white; stroke-width:1; stroke:black; " description="&lt;b&gt;LLPMBPKK_00634&lt;/b&gt;&lt;br&gt;pyridoxamine 5'-phosphate oxidase&lt;br&gt;Location: 818072 - 818498" locus_tag="LLPMBPKK_00634" class="clusterblast-orf" id="dummy-5_q19_0_all"  />
<polygon points="601,35 606,30 620,30 620,40 606,40 601,35 " style="fill:white; stroke-width:1; stroke:black; " description="&lt;b&gt;LLPMBPKK_00635&lt;/b&gt;&lt;br&gt;hypothetical protein&lt;br&gt;Location: 818617 - 819214" locus_tag="LLPMBPKK_00635" class="clusterblast-orf" id="dummy-5_q20_0_all"  />
<polygon points="623,35 628,30 701,30 701,40 628,40 623,35 " style="fill:white; stroke-width:1; stroke:black; " description="&lt;b&gt;LLPMBPKK_00636&lt;/b&gt;&lt;br&gt;glycoside hydrolase family 2&lt;br&gt;Location: 819302 - 821684" locus_tag="LLPMBPKK_00636" class="clusterblast-orf" id="dummy-5_q21_0_all"  />
<polygon points="705,35 710,30 744,30 744,40 710,40 705,35 " style="fill:white; stroke-width:1; stroke:black; " description="&lt;b&gt;LLPMBPKK_00637&lt;/b&gt;&lt;br&gt;S1 family peptidase&lt;br&gt;Location: 821812 - 823036" locus_tag="LLPMBPKK_00637" class="clusterblast-orf" id="dummy-5_q22_0_all"  />
<polygon points="756,40 775,40 780,35 775,30 756,30 756,40 " style="fill:white; stroke-width:1; stroke:black; " description="&lt;b&gt;LLPMBPKK_00638&lt;/b&gt;&lt;br&gt;dienelactone hydrolase family protein&lt;br&gt;Location: 823403 - 824129" locus_tag="LLPMBPKK_00638" class="clusterblast-orf" id="dummy-5_q23_0_all"  />
</g>
<g label="NZ_FKJH01000076" description="NZ_FKJH01000076 (373189-397304): Streptomyces sp. F-7 isolate Streptomyces sp... (43% of genes show similarity), terpene" class="clusterblast-cluster"  >
<text x="5" y="70" class="clusterblast-acc"  >
<a xlink:href="https://antismash-db.secondarymetabolites.org/area.html?record=NZ_FKJH01000076&amp;start=373189&amp;end=397304" target="_blank">NZ_FKJH01000076 (373189-397304)</a>: Streptomyces sp. F-7 isolate Streptomyces sp... (43% of genes show similarity), terpene</text>
<line x1="10" y1="85" x2="778.0" y2="85" style="stroke-width:1; stroke:grey; "  />
</g>
<g id="a5_000"  >
<polygon points="34,90 45,90 50,85 45,80 34,80 34,90 " style="fill:white; stroke-width:1; stroke:black; " description="&lt;b&gt;STEPF7_RS33050&lt;/b&gt;&lt;br&gt;hypothetical protein&lt;br&gt;Location: 373652 - 374158" locus_tag="STEPF7_RS33050" class="clusterblast-orf" id="dummy-5_h5_8_0"  />
</g>
<g id="a5_001"  >
<polygon points="50,85 55,80 104,80 104,90 55,90 50,85 " style="fill:white; stroke-width:1; stroke:black; " description="&lt;b&gt;STEPF7_RS33055&lt;/b&gt;&lt;br&gt;alpha-D-glucose phosphate-specific phosphoglucomutase&lt;br&gt;Location: 374167 - 375807" locus_tag="STEPF7_RS33055" class="clusterblast-orf" id="dummy-5_h5_8_1"  />
</g>
<g id="a5_002"  >
<polygon points="107,85 112,80 121,80 121,90 112,90 107,85 " style="fill:white; stroke-width:1; stroke:black; " description="&lt;b&gt;STEPF7_RS33060&lt;/b&gt;&lt;br&gt;hypothetical protein&lt;br&gt;Location: 375914 - 376354" locus_tag="STEPF7_RS33060" class="clusterblast-orf" id="dummy-5_h5_8_2"  />
</g>
<g id="a5_003"  >
<polygon points="128,90 132,85 128,80 128,90 " style="fill:white; stroke-width:1; stroke:black; " description="&lt;b&gt;STEPF7_RS33790&lt;/b&gt;&lt;br&gt;hypothetical protein&lt;br&gt;Location: 376545 - 376694" locus_tag="STEPF7_RS33790" class="clusterblast-orf" id="dummy-5_h5_8_3"  />
</g>
<g id="a5_004"  >
<polygon points="135,90 143,90 148,85 143,80 135,80 135,90 " style="fill:white; stroke-width:1; stroke:black; " description="&lt;b&gt;STEPF7_RS33065&lt;/b&gt;&lt;br&gt;ATP-binding protein&lt;br&gt;Location: 376763 - 377182" locus_tag="STEPF7_RS33065" class="clusterblast-orf" id="dummy-5_h5_8_4"  />
</g>
<g id="a5_005"  >
<polygon points="151,90 168,90 173,85 168,80 151,80 151,90 " style="fill:white; stroke-width:1; stroke:black; " description="&lt;b&gt;STEPF7_RS33070&lt;/b&gt;&lt;br&gt;adenosylcobinamide amidohydrolase&lt;br&gt;Location: 377257 - 377955" locus_tag="STEPF7_RS33070" class="clusterblast-orf" id="dummy-5_h5_8_5"  />
</g>
<g id="a5_006"  >
<polygon points="177,90 226,90 231,85 226,80 177,80 177,90 " style="fill:white; stroke-width:1; stroke:black; " description="&lt;b&gt;STEPF7_RS33075&lt;/b&gt;&lt;br&gt;SpoIIE family protein phosphatase&lt;br&gt;Location: 378079 - 379746" locus_tag="STEPF7_RS33075" class="clusterblast-orf" id="dummy-5_h5_8_6"  />
</g>
<g id="a5_007"  >
<polygon points="231,90 261,90 266,85 261,80 231,80 231,90 " style="fill:white; stroke-width:1; stroke:black; " description="&lt;b&gt;STEPF7_RS33080&lt;/b&gt;&lt;br&gt;cobalamin B12-binding domain-containing protein&lt;br&gt;Location: 379743 - 380819" locus_tag="STEPF7_RS33080" class="clusterblast-orf" id="dummy-5_h5_8_7"  />
</g>
<g id="a5_008"  >
<polygon points="267,85 272,80 318,80 318,90 272,90 267,85 " style="fill:#15d839; stroke-width:1; stroke:black; " description="&lt;b&gt;STEPF7_RS33085&lt;/b&gt;&lt;br&gt;FAD-dependent oxidoreductase&lt;br&gt;Location: 380860 - 382425&lt;br&gt;&lt;br&gt;&lt;b&gt;BlastP hit with LLPMBPKK_00623&lt;/b&gt;&lt;br&gt;Percentage identity: 78&lt;br&gt;Percentage coverage: 98&lt;br&gt;BLAST bit score: 795&lt;br&gt;E-value: 2.75e-288" locus_tag="STEPF7_RS33085" class="clusterblast-orf" id="dummy-5_h5_8_8"  />
</g>
<g id="a5_009"  >
<polygon points="318,85 323,80 342,80 342,90 323,90 318,85 " style="fill:#1539d8; stroke-width:1; stroke:black; " description="&lt;b&gt;STEPF7_RS33090&lt;/b&gt;&lt;br&gt;class I SAM-dependent methyltransferase&lt;br&gt;Location: 382422 - 383150&lt;br&gt;&lt;br&gt;&lt;b&gt;BlastP hit with LLPMBPKK_00624&lt;/b&gt;&lt;br&gt;Percentage identity: 78&lt;br&gt;Percentage coverage: 98&lt;br&gt;BLAST bit score: 367&lt;br&gt;E-value: 2.08e-128" locus_tag="STEPF7_RS33090" class="clusterblast-orf" id="dummy-5_h5_8_9"  />
</g>
<g id="a5_0010"  >
<polygon points="343,85 348,80 382,80 382,90 348,90 343,85 " style="fill:#d81580; stroke-width:1; stroke:black; " description="&lt;b&gt;STEPF7_RS33095&lt;/b&gt;&lt;br&gt;lycopene cyclase&lt;br&gt;Location: 383190 - 384383&lt;br&gt;&lt;br&gt;&lt;b&gt;BlastP hit with LLPMBPKK_00625&lt;/b&gt;&lt;br&gt;Percentage identity: 79&lt;br&gt;Percentage coverage: 97&lt;br&gt;BLAST bit score: 614&lt;br&gt;E-value: 1.08e-220" locus_tag="STEPF7_RS33095" class="clusterblast-orf" id="dummy-5_h5_8_10"  />
</g>
<g id="a5_0011"  >
<polygon points="393,90 439,90 444,85 439,80 393,80 393,90 " style="fill:#c7d815; stroke-width:1; stroke:black; " description="&lt;b&gt;STEPF7_RS33100&lt;/b&gt;&lt;br&gt;phytoene desaturase&lt;br&gt;Location: 384745 - 386301&lt;br&gt;&lt;br&gt;&lt;b&gt;BlastP hit with LLPMBPKK_00627&lt;/b&gt;&lt;br&gt;Percentage identity: 81&lt;br&gt;Percentage coverage: 100&lt;br&gt;BLAST bit score: 822&lt;br&gt;E-value: 5.22e-299" locus_tag="STEPF7_RS33100" class="clusterblast-orf" id="dummy-5_h5_8_11"  />
</g>
<g id="a5_0012"  >
<polygon points="443,90 471,90 476,85 471,80 443,80 443,90 " style="fill:#15d8a3; stroke-width:1; stroke:black; " description="&lt;b&gt;STEPF7_RS33105&lt;/b&gt;&lt;br&gt;phytoene/squalene synthase family protein&lt;br&gt;Location: 386288 - 387304&lt;br&gt;&lt;br&gt;&lt;b&gt;BlastP hit with LLPMBPKK_00628&lt;/b&gt;&lt;br&gt;Percentage identity: 80&lt;br&gt;Percentage coverage: 94&lt;br&gt;BLAST bit score: 487&lt;br&gt;E-value: 1.48e-172" locus_tag="STEPF7_RS33105" class="clusterblast-orf" id="dummy-5_h5_8_12"  />
</g>
<g id="a5_0013"  >
<polygon points="476,90 505,90 510,85 505,80 476,80 476,90 " style="fill:#5c15d8; stroke-width:1; stroke:black; " description="&lt;b&gt;STEPF7_RS33110&lt;/b&gt;&lt;br&gt;Rieske (2Fe-2S) protein&lt;br&gt;Location: 387304 - 388329&lt;br&gt;&lt;br&gt;&lt;b&gt;BlastP hit with LLPMBPKK_00629&lt;/b&gt;&lt;br&gt;Percentage identity: 75&lt;br&gt;Percentage coverage: 99&lt;br&gt;BLAST bit score: 530&lt;br&gt;E-value: 4.25e-189" locus_tag="STEPF7_RS33110" class="clusterblast-orf" id="dummy-5_h5_8_13"  />
</g>
<g id="a5_0014"  >
<polygon points="512,85 517,80 540,80 540,90 517,90 512,85 " style="fill:#5cd815; stroke-width:1; stroke:black; " description="&lt;b&gt;STEPF7_RS33115&lt;/b&gt;&lt;br&gt;SDR family oxidoreductase&lt;br&gt;Location: 388398 - 389273&lt;br&gt;&lt;br&gt;&lt;b&gt;BlastP hit with LLPMBPKK_00619&lt;/b&gt;&lt;br&gt;Percentage identity: 65&lt;br&gt;Percentage coverage: 97&lt;br&gt;BLAST bit score: 340&lt;br&gt;E-value: 5.78e-116" locus_tag="STEPF7_RS33115" class="clusterblast-orf" id="dummy-5_h5_8_14"  />
</g>
<g id="a5_0015"  >
<polygon points="540,85 545,80 556,80 556,90 545,90 540,85 " style="fill:#15a3d8; stroke-width:1; stroke:black; " description="&lt;b&gt;STEPF7_RS33120&lt;/b&gt;&lt;br&gt;hypothetical protein&lt;br&gt;Location: 389270 - 389764&lt;br&gt;&lt;br&gt;&lt;b&gt;BlastP hit with LLPMBPKK_00620&lt;/b&gt;&lt;br&gt;Percentage identity: 79&lt;br&gt;Percentage coverage: 94&lt;br&gt;BLAST bit score: 232&lt;br&gt;E-value: 1.67e-77" locus_tag="STEPF7_RS33120" class="clusterblast-orf" id="dummy-5_h5_8_15"  />
</g>
<g id="a5_0016"  >
<polygon points="558,85 563,80 611,80 611,90 563,90 558,85 " style="fill:#c715d8; stroke-width:1; stroke:black; " description="&lt;b&gt;STEPF7_RS33125&lt;/b&gt;&lt;br&gt;NAD(P)/FAD-dependent oxidoreductase&lt;br&gt;Location: 389820 - 391463&lt;br&gt;&lt;br&gt;&lt;b&gt;BlastP hit with LLPMBPKK_00621&lt;/b&gt;&lt;br&gt;Percentage identity: 80&lt;br&gt;Percentage coverage: 99&lt;br&gt;BLAST bit score: 857&lt;br&gt;E-value: 4.4e-312" locus_tag="STEPF7_RS33125" class="clusterblast-orf" id="dummy-5_h5_8_16"  />
</g>
<g id="a5_0017"  >
<polygon points="611,85 616,80 627,80 627,90 616,90 611,85 " style="fill:#d88015; stroke-width:1; stroke:black; " description="&lt;b&gt;STEPF7_RS33130&lt;/b&gt;&lt;br&gt;SRPBCC family protein&lt;br&gt;Location: 391456 - 391944&lt;br&gt;&lt;br&gt;&lt;b&gt;BlastP hit with LLPMBPKK_00622&lt;/b&gt;&lt;br&gt;Percentage identity: 56&lt;br&gt;Percentage coverage: 98&lt;br&gt;BLAST bit score: 175&lt;br&gt;E-value: 6.24e-55" locus_tag="STEPF7_RS33130" class="clusterblast-orf" id="dummy-5_h5_8_17"  />
</g>
<g id="a5_0018"  >
<polygon points="630,85 635,80 658,80 658,90 635,90 630,85 " style="fill:white; stroke-width:1; stroke:black; " description="&lt;b&gt;STEPF7_RS33135&lt;/b&gt;&lt;br&gt;DUF2236 domain-containing protein&lt;br&gt;Location: 392049 - 392918" locus_tag="STEPF7_RS33135" class="clusterblast-orf" id="dummy-5_h5_8_18"  />
</g>
<g id="a5_0019"  >
<polygon points="662,85 667,80 670,80 670,90 667,90 662,85 " style="fill:white; stroke-width:1; stroke:black; " description="&lt;b&gt;STEPF7_RS33140&lt;/b&gt;&lt;br&gt;hypothetical protein&lt;br&gt;Location: 393017 - 393283" locus_tag="STEPF7_RS33140" class="clusterblast-orf" id="dummy-5_h5_8_19"  />
</g>
<g id="a5_0020"  >
<polygon points="671,85 676,80 695,80 695,90 676,90 671,85 " style="fill:white; stroke-width:1; stroke:black; " description="&lt;b&gt;STEPF7_RS33145&lt;/b&gt;&lt;br&gt;restriction endonuclease&lt;br&gt;Location: 393320 - 394039" locus_tag="STEPF7_RS33145" class="clusterblast-orf" id="dummy-5_h5_8_20"  />
</g>
<g id="a5_0021"  >
<polygon points="703,90 720,90 725,85 720,80 703,80 703,90 " style="fill:white; stroke-width:1; stroke:black; " description="&lt;b&gt;STEPF7_RS33150&lt;/b&gt;&lt;br&gt;GAF and ANTAR domain-containing protein&lt;br&gt;Location: 394287 - 394979" locus_tag="STEPF7_RS33150" class="clusterblast-orf" id="dummy-5_h5_8_21"  />
</g>
<g id="a5_0022"  >
<polygon points="726,85 731,80 745,80 745,90 731,90 726,85 " style="fill:white; stroke-width:1; stroke:black; " description="&lt;b&gt;STEPF7_RS33155&lt;/b&gt;&lt;br&gt;hypothetical protein&lt;br&gt;Location: 395007 - 395597" locus_tag="STEPF7_RS33155" class="clusterblast-orf" id="dummy-5_h5_8_22"  />
</g>
</svg>
