<svg xmlns="http://www.w3.org/2000/svg" xmlns:xlink="http://www.w3.org/1999/xlink" version="1.1" x="0" y="0" height="230" width="800" viewBox="0 0 800 230" preserveAspectRatio="none"  >
<g label="Query sequence" class="clusterblast-cluster"  >
<text x="5" y="20" class="clusterblast-acc"  >
Query sequence</text>
<line x1="10" y1="35" x2="778.0" y2="35" style="stroke-width:1; stroke:grey; "  />
<polygon points="179,40 182,35 179,30 179,40 " style="fill:white; stroke-width:1; stroke:black; " description="&lt;b&gt;LLPMBPKK_07507&lt;/b&gt;&lt;br&gt;hypothetical protein&lt;br&gt;Location: 8732495 - 8732864" locus_tag="LLPMBPKK_07507" class="clusterblast-orf" id="dummy-33_q0_0_all"  />
<polygon points="184,40 206,40 211,35 206,30 184,30 184,40 " style="fill:white; stroke-width:1; stroke:black; " description="&lt;b&gt;LLPMBPKK_07508&lt;/b&gt;&lt;br&gt;WD-40 repeat-containing protein&lt;br&gt;Location: 8733081 - 8736987" locus_tag="LLPMBPKK_07508" class="clusterblast-orf" id="dummy-33_q1_0_all"  />
<polygon points="212,40 213,40 218,35 213,30 212,30 212,40 " style="fill:white; stroke-width:1; stroke:black; " description="&lt;b&gt;LLPMBPKK_07509&lt;/b&gt;&lt;br&gt;peptidoglycan endopeptidase&lt;br&gt;Location: 8737128 - 8737989" locus_tag="LLPMBPKK_07509" class="clusterblast-orf" id="dummy-33_q2_0_all"  />
<polygon points="218,35 223,30 234,30 234,40 223,40 218,35 " style="fill:#d81515; stroke-width:1; stroke:black; " description="&lt;b&gt;LLPMBPKK_07510&lt;/b&gt;&lt;br&gt;ATPase AAA&lt;br&gt;Location: 8738008 - 8740192" locus_tag="LLPMBPKK_07510" class="clusterblast-orf" id="dummy-33_q3_0_all"  />
<polygon points="235,35 240,30 243,30 243,40 240,40 235,35 " style="fill:#4dd815; stroke-width:1; stroke:black; " description="&lt;b&gt;LLPMBPKK_07511&lt;/b&gt;&lt;br&gt;glycosyl transferase family protein&lt;br&gt;Location: 8740272 - 8741436" locus_tag="LLPMBPKK_07511" class="clusterblast-orf" id="dummy-33_q4_0_all"  />
<polygon points="245,40 255,40 260,35 255,30 245,30 245,40 " style="fill:white; stroke-width:1; stroke:black; " description="&lt;b&gt;LLPMBPKK_07512&lt;/b&gt;&lt;br&gt;FUSC family protein&lt;br&gt;Location: 8741744 - 8743895" locus_tag="LLPMBPKK_07512" class="clusterblast-orf" id="dummy-33_q5_0_all"  />
<polygon points="262,35 264,30 264,40 262,35 " style="fill:#1585d8; stroke-width:1; stroke:black; " description="&lt;b&gt;LLPMBPKK_07513&lt;/b&gt;&lt;br&gt;non-ribosomal peptide synthetase&lt;br&gt;Location: 8744146 - 8744440" locus_tag="LLPMBPKK_07513" class="clusterblast-orf" id="dummy-33_q6_0_all"  />
<polygon points="264,35 269,30 274,30 274,40 269,40 264,35 " style="fill:#1585d8; stroke-width:1; stroke:black; " description="&lt;b&gt;LLPMBPKK_07514&lt;/b&gt;&lt;br&gt;non-ribosomal peptide synthetase&lt;br&gt;Location: 8744486 - 8745854" locus_tag="LLPMBPKK_07514" class="clusterblast-orf" id="dummy-33_q7_0_all"  />
<polygon points="276,40 288,40 293,35 288,30 276,30 276,40 " style="fill:#1585d8; stroke-width:1; stroke:black; " description="&lt;b&gt;LLPMBPKK_07515&lt;/b&gt;&lt;br&gt;hybrid non-ribosomal peptide synthetase/type Ipolyketide synthase&lt;br&gt;Location: 8746075 - 8748553" locus_tag="LLPMBPKK_07515" class="clusterblast-orf" id="dummy-33_q8_0_all"  />
<polygon points="294,35 299,30 304,30 304,40 299,40 294,35 " style="fill:#1585d8; stroke-width:1; stroke:black; " description="&lt;b&gt;LLPMBPKK_07516&lt;/b&gt;&lt;br&gt;non-ribosomal peptide synthetase&lt;br&gt;Location: 8748619 - 8750095" locus_tag="LLPMBPKK_07516" class="clusterblast-orf" id="dummy-33_q9_0_all"  />
<polygon points="305,35 310,30 312,30 312,40 310,40 305,35 " style="fill:#a115d8; stroke-width:1; stroke:black; " description="&lt;b&gt;LLPMBPKK_07517&lt;/b&gt;&lt;br&gt;oxygenase&lt;br&gt;Location: 8750165 - 8751242" locus_tag="LLPMBPKK_07517" class="clusterblast-orf" id="dummy-33_q10_0_all"  />
<polygon points="313,35 318,30 319,30 319,40 318,40 313,35 " style="fill:white; stroke-width:1; stroke:black; " description="&lt;b&gt;LLPMBPKK_07518&lt;/b&gt;&lt;br&gt;GNAT family N-acetyltransferase&lt;br&gt;Location: 8751295 - 8752240" locus_tag="LLPMBPKK_07518" class="clusterblast-orf" id="dummy-33_q11_0_all"  />
<polygon points="320,35 325,30 344,30 344,40 325,40 320,35 " style="fill:#1585d8; stroke-width:1; stroke:black; " description="&lt;b&gt;LLPMBPKK_07519&lt;/b&gt;&lt;br&gt;non-ribosomal peptide synthetase&lt;br&gt;Location: 8752332 - 8755725" locus_tag="LLPMBPKK_07519" class="clusterblast-orf" id="dummy-33_q12_0_all"  />
<polygon points="348,40 348,40 353,35 348,30 348,30 348,40 " style="fill:#d86915; stroke-width:1; stroke:black; " description="&lt;b&gt;LLPMBPKK_07520&lt;/b&gt;&lt;br&gt;thioesterase&lt;br&gt;Location: 8756208 - 8756943" locus_tag="LLPMBPKK_07520" class="clusterblast-orf" id="dummy-33_q13_0_all"  />
<polygon points="353,40 372,40 377,35 372,30 353,30 353,40 " style="fill:#1585d8; stroke-width:1; stroke:black; " description="&lt;b&gt;LLPMBPKK_07521&lt;/b&gt;&lt;br&gt;non-ribosomal peptide synthetase&lt;br&gt;Location: 8756935 - 8760343" locus_tag="LLPMBPKK_07521" class="clusterblast-orf" id="dummy-33_q14_0_all"  />
<polygon points="377,40 406,40 411,35 406,30 377,30 377,40 " style="fill:#1585d8; stroke-width:1; stroke:black; " description="&lt;b&gt;LLPMBPKK_07522&lt;/b&gt;&lt;br&gt;non-ribosomal peptide synthetase&lt;br&gt;Location: 8760339 - 8765136" locus_tag="LLPMBPKK_07522" class="clusterblast-orf" id="dummy-33_q15_0_all"  />
<polygon points="411,40 444,40 449,35 444,30 411,30 411,40 " style="fill:#1585d8; stroke-width:1; stroke:black; " description="&lt;b&gt;LLPMBPKK_07523&lt;/b&gt;&lt;br&gt;non-ribosomal peptide synthetase&lt;br&gt;Location: 8765132 - 8770556" locus_tag="LLPMBPKK_07523" class="clusterblast-orf" id="dummy-33_q16_0_all"  />
<polygon points="451,40 453,35 451,30 451,40 " style="fill:#15d831; stroke-width:1; stroke:black; " description="&lt;b&gt;LLPMBPKK_07524&lt;/b&gt;&lt;br&gt;MbtH protein&lt;br&gt;Location: 8770838 - 8771039" locus_tag="LLPMBPKK_07524" class="clusterblast-orf" id="dummy-33_q17_0_all"  />
<polygon points="453,40 461,40 466,35 461,30 453,30 453,40 " style="fill:#1585d8; stroke-width:1; stroke:black; " description="&lt;b&gt;LLPMBPKK_07525&lt;/b&gt;&lt;br&gt;non-ribosomal peptide synthetase&lt;br&gt;Location: 8771117 - 8772950" locus_tag="LLPMBPKK_07525" class="clusterblast-orf" id="dummy-33_q18_0_all"  />
<polygon points="466,40 468,40 473,35 468,30 466,30 466,40 " style="fill:#1531d8; stroke-width:1; stroke:black; " description="&lt;b&gt;LLPMBPKK_07526&lt;/b&gt;&lt;br&gt;Phytanoyl-CoA dioxygenase (PhyH)&lt;br&gt;Location: 8772946 - 8773906" locus_tag="LLPMBPKK_07526" class="clusterblast-orf" id="dummy-33_q19_0_all"  />
<polygon points="476,40 477,40 482,35 477,30 476,30 476,40 " style="fill:#d815bc; stroke-width:1; stroke:black; " description="&lt;b&gt;LLPMBPKK_07527&lt;/b&gt;&lt;br&gt;Putative aminoacrylate hydrolase RutD&lt;br&gt;Location: 8774383 - 8775121" locus_tag="LLPMBPKK_07527" class="clusterblast-orf" id="dummy-33_q20_0_all"  />
<polygon points="482,40 487,40 492,35 487,30 482,30 482,40 " style="fill:#1585d8; stroke-width:1; stroke:black; " description="&lt;b&gt;LLPMBPKK_07528&lt;/b&gt;&lt;br&gt;Methyltransferase FkbM domain protein&lt;br&gt;Location: 8775117 - 8776557" locus_tag="LLPMBPKK_07528" class="clusterblast-orf" id="dummy-33_q21_0_all"  />
<polygon points="492,40 492,40 497,35 492,30 492,30 492,40 " style="fill:#d86915; stroke-width:1; stroke:black; " description="&lt;b&gt;LLPMBPKK_07529&lt;/b&gt;&lt;br&gt;thioesterase&lt;br&gt;Location: 8776553 - 8777294" locus_tag="LLPMBPKK_07529" class="clusterblast-orf" id="dummy-33_q22_0_all"  />
<polygon points="497,40 500,40 505,35 500,30 497,30 497,40 " style="fill:#d8bc15; stroke-width:1; stroke:black; " description="&lt;b&gt;LLPMBPKK_07530&lt;/b&gt;&lt;br&gt;acyl-CoA dehydrogenase&lt;br&gt;Location: 8777290 - 8778463" locus_tag="LLPMBPKK_07530" class="clusterblast-orf" id="dummy-33_q23_0_all"  />
<polygon points="506,35 511,30 523,30 523,40 511,40 506,35 " style="fill:white; stroke-width:1; stroke:black; " description="&lt;b&gt;LLPMBPKK_07531&lt;/b&gt;&lt;br&gt;LuxR family transcriptional regulator&lt;br&gt;Location: 8778497 - 8780918" locus_tag="LLPMBPKK_07531" class="clusterblast-orf" id="dummy-33_q24_0_all"  />
<polygon points="527,40 530,40 535,35 530,30 527,30 527,40 " style="fill:#15d885; stroke-width:1; stroke:black; " description="&lt;b&gt;LLPMBPKK_07532&lt;/b&gt;&lt;br&gt;Glyoxylate/hydroxypyruvate reductase B&lt;br&gt;Location: 8781546 - 8782569" locus_tag="LLPMBPKK_07532" class="clusterblast-orf" id="dummy-33_q25_0_all"  />
<polygon points="535,40 538,40 543,35 538,30 535,30 535,40 " style="fill:white; stroke-width:1; stroke:black; " description="&lt;b&gt;LLPMBPKK_07533&lt;/b&gt;&lt;br&gt;L-lysine 2,3-aminomutase&lt;br&gt;Location: 8782622 - 8783804" locus_tag="LLPMBPKK_07533" class="clusterblast-orf" id="dummy-33_q26_0_all"  />
<polygon points="544,40 547,40 552,35 547,30 544,30 544,40 " style="fill:white; stroke-width:1; stroke:black; " description="&lt;b&gt;LLPMBPKK_07534&lt;/b&gt;&lt;br&gt;Iron-containing redox enzyme&lt;br&gt;Location: 8783871 - 8784996" locus_tag="LLPMBPKK_07534" class="clusterblast-orf" id="dummy-33_q27_0_all"  />
<polygon points="552,40 554,40 559,35 554,30 552,30 552,40 " style="fill:#4d15d8; stroke-width:1; stroke:black; " description="&lt;b&gt;LLPMBPKK_07535&lt;/b&gt;&lt;br&gt;aminotransferase&lt;br&gt;Location: 8784992 - 8786054" locus_tag="LLPMBPKK_07535" class="clusterblast-orf" id="dummy-33_q28_0_all"  />
<polygon points="560,40 563,40 568,35 563,30 560,30 560,40 " style="fill:#d81569; stroke-width:1; stroke:black; " description="&lt;b&gt;LLPMBPKK_07536&lt;/b&gt;&lt;br&gt;S-adenosylmethionine synthetase&lt;br&gt;Location: 8786138 - 8787302" locus_tag="LLPMBPKK_07536" class="clusterblast-orf" id="dummy-33_q29_0_all"  />
<polygon points="569,40 572,40 577,35 572,30 569,30 569,40 " style="fill:white; stroke-width:1; stroke:black; " description="&lt;b&gt;LLPMBPKK_07537&lt;/b&gt;&lt;br&gt;pyridoxal phosphate-dependent aminotransferase&lt;br&gt;Location: 8787396 - 8788569" locus_tag="LLPMBPKK_07537" class="clusterblast-orf" id="dummy-33_q30_0_all"  />
<polygon points="578,35 582,30 582,40 578,35 " style="fill:#a1d815; stroke-width:1; stroke:black; " description="&lt;b&gt;LLPMBPKK_07538&lt;/b&gt;&lt;br&gt;PadR family transcriptional regulator&lt;br&gt;Location: 8788700 - 8789276" locus_tag="LLPMBPKK_07538" class="clusterblast-orf" id="dummy-33_q31_0_all"  />
<polygon points="583,40 586,35 583,30 583,40 " style="fill:#15d8d8; stroke-width:1; stroke:black; " description="&lt;b&gt;LLPMBPKK_07539&lt;/b&gt;&lt;br&gt;nuclear transport factor 2 family protein&lt;br&gt;Location: 8789412 - 8789799" locus_tag="LLPMBPKK_07539" class="clusterblast-orf" id="dummy-33_q32_0_all"  />
<polygon points="586,40 588,35 586,30 586,40 " style="fill:white; stroke-width:1; stroke:black; " description="&lt;b&gt;LLPMBPKK_07540&lt;/b&gt;&lt;br&gt;hypothetical protein&lt;br&gt;Location: 8789875 - 8790142" locus_tag="LLPMBPKK_07540" class="clusterblast-orf" id="dummy-33_q33_0_all"  />
<polygon points="589,40 592,35 589,30 589,40 " style="fill:white; stroke-width:1; stroke:black; " description="&lt;b&gt;LLPMBPKK_07541&lt;/b&gt;&lt;br&gt;TIGR03618 family F420-dependent PPOX class oxidoreductase&lt;br&gt;Location: 8790172 - 8790610" locus_tag="LLPMBPKK_07541" class="clusterblast-orf" id="dummy-33_q34_0_all"  />
<polygon points="592,35 597,30 600,30 600,40 597,40 592,35 " style="fill:white; stroke-width:1; stroke:black; " description="&lt;b&gt;LLPMBPKK_07542&lt;/b&gt;&lt;br&gt;cellulose binding protein&lt;br&gt;Location: 8790662 - 8791763" locus_tag="LLPMBPKK_07542" class="clusterblast-orf" id="dummy-33_q35_0_all"  />
</g>
<g label="NZ_CP032229" description="NZ_CP032229 (4811927-4921881): Streptomyces seoulensis strain KCTC 9819 chrom... (14% of genes show similarity), NRPS,T1PKS" class="clusterblast-cluster"  >
<text x="5" y="70" class="clusterblast-acc"  >
<a xlink:href="https://antismash-db.secondarymetabolites.org/area.html?record=NZ_CP032229&amp;start=4811927&amp;end=4921881" target="_blank">NZ_CP032229 (4811927-4921881)</a>: Streptomyces seoulensis strain KCTC 9819 chrom... (14% of genes show similarity), NRPS,T1PKS</text>
<line x1="10" y1="85" x2="778.0" y2="85" style="stroke-width:1; stroke:grey; "  />
</g>
<g id="a33_000"  >
<polygon points="0,90 4,85 0,80 0,90 " style="fill:white; stroke-width:1; stroke:black; " description="&lt;b&gt;D0Z67_RS22630&lt;/b&gt;&lt;br&gt;type 1 glutamine amidotransferase domain-containing protein&lt;br&gt;Location: 4921881 - 4921186" locus_tag="D0Z67_RS22630" class="clusterblast-orf" id="dummy-33_h33_2_0"  />
</g>
<g id="a33_001"  >
<polygon points="5,85 7,80 7,90 5,85 " style="fill:#15d8d8; stroke-width:1; stroke:black; " description="&lt;b&gt;D0Z67_RS22625&lt;/b&gt;&lt;br&gt;nuclear transport factor 2 family protein&lt;br&gt;Location: 4921174 - 4920782&lt;br&gt;&lt;br&gt;&lt;b&gt;BlastP hit with LLPMBPKK_07539&lt;/b&gt;&lt;br&gt;Percentage identity: 80&lt;br&gt;Percentage coverage: 99&lt;br&gt;BLAST bit score: 202&lt;br&gt;E-value: 8.52e-67" locus_tag="D0Z67_RS22625" class="clusterblast-orf" id="dummy-33_h33_2_1"  />
</g>
<g id="a33_002"  >
<polygon points="8,90 12,85 8,80 8,90 " style="fill:#a1d815; stroke-width:1; stroke:black; " description="&lt;b&gt;D0Z67_RS22620&lt;/b&gt;&lt;br&gt;PadR family transcriptional regulator&lt;br&gt;Location: 4920705 - 4920169&lt;br&gt;&lt;br&gt;&lt;b&gt;BlastP hit with LLPMBPKK_07538&lt;/b&gt;&lt;br&gt;Percentage identity: 70&lt;br&gt;Percentage coverage: 93&lt;br&gt;BLAST bit score: 241&lt;br&gt;E-value: 2.09e-80" locus_tag="D0Z67_RS22620" class="clusterblast-orf" id="dummy-33_h33_2_2"  />
</g>
<g id="a33_003"  >
<polygon points="12,85 17,80 19,80 19,90 17,90 12,85 " style="fill:white; stroke-width:1; stroke:black; " description="&lt;b&gt;D0Z67_RS22615&lt;/b&gt;&lt;br&gt;tetratricopeptide repeat protein&lt;br&gt;Location: 4920114 - 4919092" locus_tag="D0Z67_RS22615" class="clusterblast-orf" id="dummy-33_h33_2_3"  />
</g>
<g id="a33_004"  >
<polygon points="20,85 23,80 23,90 20,85 " style="fill:white; stroke-width:1; stroke:black; " description="&lt;b&gt;D0Z67_RS22610&lt;/b&gt;&lt;br&gt;DUF1772 domain-containing protein&lt;br&gt;Location: 4919001 - 4918555" locus_tag="D0Z67_RS22610" class="clusterblast-orf" id="dummy-33_h33_2_4"  />
</g>
<g id="a33_005"  >
<polygon points="24,90 28,85 24,80 24,90 " style="fill:white; stroke-width:1; stroke:black; " description="&lt;b&gt;D0Z67_RS22605&lt;/b&gt;&lt;br&gt;TetR/AcrR family transcriptional regulator&lt;br&gt;Location: 4918463 - 4917882" locus_tag="D0Z67_RS22605" class="clusterblast-orf" id="dummy-33_h33_2_5"  />
</g>
<g id="a33_006"  >
<polygon points="29,90 38,90 43,85 38,80 29,80 29,90 " style="fill:white; stroke-width:1; stroke:black; " description="&lt;b&gt;D0Z67_RS22600&lt;/b&gt;&lt;br&gt;excinuclease ABC subunit UvrB&lt;br&gt;Location: 4917730 - 4915808" locus_tag="D0Z67_RS22600" class="clusterblast-orf" id="dummy-33_h33_2_6"  />
</g>
<g id="a33_007"  >
<polygon points="43,85 46,80 46,90 43,85 " style="fill:white; stroke-width:1; stroke:black; " description="&lt;b&gt;D0Z67_RS22595&lt;/b&gt;&lt;br&gt;hypothetical protein&lt;br&gt;Location: 4915802 - 4915281" locus_tag="D0Z67_RS22595" class="clusterblast-orf" id="dummy-33_h33_2_7"  />
</g>
<g id="a33_008"  >
<polygon points="48,85 53,80 64,80 64,90 53,90 48,85 " style="fill:white; stroke-width:1; stroke:black; " description="&lt;b&gt;D0Z67_RS22590&lt;/b&gt;&lt;br&gt;hypothetical protein&lt;br&gt;Location: 4915110 - 4912762" locus_tag="D0Z67_RS22590" class="clusterblast-orf" id="dummy-33_h33_2_8"  />
</g>
<g id="a33_009"  >
<polygon points="64,85 67,80 67,90 64,85 " style="fill:white; stroke-width:1; stroke:black; " description="&lt;b&gt;D0Z67_RS22585&lt;/b&gt;&lt;br&gt;hypothetical protein&lt;br&gt;Location: 4912741 - 4912319" locus_tag="D0Z67_RS22585" class="clusterblast-orf" id="dummy-33_h33_2_9"  />
</g>
<g id="a33_0010"  >
<polygon points="68,85 73,80 73,80 73,90 73,90 68,85 " style="fill:white; stroke-width:1; stroke:black; " description="&lt;b&gt;D0Z67_RS22580&lt;/b&gt;&lt;br&gt;fasciclin domain-containing protein&lt;br&gt;Location: 4912156 - 4911578" locus_tag="D0Z67_RS22580" class="clusterblast-orf" id="dummy-33_h33_2_10"  />
</g>
<g id="a33_0011"  >
<polygon points="74,85 77,80 77,90 74,85 " style="fill:white; stroke-width:1; stroke:black; " description="&lt;b&gt;D0Z67_RS22575&lt;/b&gt;&lt;br&gt;GNAT family N-acetyltransferase&lt;br&gt;Location: 4911377 - 4910889" locus_tag="D0Z67_RS22575" class="clusterblast-orf" id="dummy-33_h33_2_11"  />
</g>
<g id="a33_0012"  >
<polygon points="78,90 82,85 78,80 78,90 " style="fill:white; stroke-width:1; stroke:black; " description="&lt;b&gt;D0Z67_RS22570&lt;/b&gt;&lt;br&gt;GNAT family N-acetyltransferase&lt;br&gt;Location: 4910765 - 4910268" locus_tag="D0Z67_RS22570" class="clusterblast-orf" id="dummy-33_h33_2_12"  />
</g>
<g id="a33_0013"  >
<polygon points="83,90 85,85 83,80 83,90 " style="fill:white; stroke-width:1; stroke:black; " description="&lt;b&gt;D0Z67_RS22565&lt;/b&gt;&lt;br&gt;short-chain dehydrogenase&lt;br&gt;Location: 4910100 - 4909894" locus_tag="D0Z67_RS22565" class="clusterblast-orf" id="dummy-33_h33_2_13"  />
</g>
<g id="a33_0014"  >
<polygon points="85,85 90,80 93,80 93,90 90,90 85,85 " style="fill:white; stroke-width:1; stroke:black; " description="&lt;b&gt;D0Z67_RS29750&lt;/b&gt;&lt;br&gt;hypothetical protein&lt;br&gt;Location: 4909859 - 4908756" locus_tag="D0Z67_RS29750" class="clusterblast-orf" id="dummy-33_h33_2_14"  />
</g>
<g id="a33_0015"  >
<polygon points="95,85 99,80 99,90 95,85 " style="fill:white; stroke-width:1; stroke:black; " description="&lt;b&gt;D0Z67_RS22555&lt;/b&gt;&lt;br&gt;hypothetical protein&lt;br&gt;Location: 4908407 - 4907871" locus_tag="D0Z67_RS22555" class="clusterblast-orf" id="dummy-33_h33_2_15"  />
</g>
<g id="a33_0016"  >
<polygon points="104,85 109,80 119,80 119,90 109,90 104,85 " style="fill:#d81515; stroke-width:1; stroke:black; " description="&lt;b&gt;D0Z67_RS22550&lt;/b&gt;&lt;br&gt;AAA family ATPase&lt;br&gt;Location: 4907097 - 4905025&lt;br&gt;&lt;br&gt;&lt;b&gt;BlastP hit with LLPMBPKK_07510&lt;/b&gt;&lt;br&gt;Percentage identity: 31&lt;br&gt;Percentage coverage: 106&lt;br&gt;BLAST bit score: 265&lt;br&gt;E-value: 1.26e-76" locus_tag="D0Z67_RS22550" class="clusterblast-orf" id="dummy-33_h33_2_16"  />
</g>
<g id="a33_0017"  >
<polygon points="120,85 125,80 131,80 131,90 125,90 120,85 " style="fill:white; stroke-width:1; stroke:black; " description="&lt;b&gt;D0Z67_RS22545&lt;/b&gt;&lt;br&gt;MFS transporter&lt;br&gt;Location: 4904885 - 4903311" locus_tag="D0Z67_RS22545" class="clusterblast-orf" id="dummy-33_h33_2_17"  />
</g>
<g id="a33_0018"  >
<polygon points="134,85 139,80 215,80 215,90 139,90 134,85 " style="fill:white; stroke-width:1; stroke:black; " description="&lt;b&gt;D0Z67_RS22540&lt;/b&gt;&lt;br&gt;SDR family NAD(P)-dependent oxidoreductase&lt;br&gt;Location: 4902918 - 4891534" locus_tag="D0Z67_RS22540" class="clusterblast-orf" id="dummy-33_h33_2_18"  />
</g>
<g id="a33_0019"  >
<polygon points="215,85 220,80 347,80 347,90 220,90 215,85 " style="fill:white; stroke-width:1; stroke:black; " description="&lt;b&gt;D0Z67_RS22535&lt;/b&gt;&lt;br&gt;SDR family NAD(P)-dependent oxidoreductase&lt;br&gt;Location: 4891531 - 4872932" locus_tag="D0Z67_RS22535" class="clusterblast-orf" id="dummy-33_h33_2_19"  />
</g>
<g id="a33_0020"  >
<polygon points="347,85 352,80 358,80 358,90 352,90 347,85 " style="fill:white; stroke-width:1; stroke:black; " description="&lt;b&gt;D0Z67_RS22530&lt;/b&gt;&lt;br&gt;long-chain fatty acid--CoA ligase&lt;br&gt;Location: 4872840 - 4871287" locus_tag="D0Z67_RS22530" class="clusterblast-orf" id="dummy-33_h33_2_20"  />
</g>
<g id="a33_0021"  >
<polygon points="358,85 363,80 367,80 367,90 363,90 358,85 " style="fill:white; stroke-width:1; stroke:black; " description="&lt;b&gt;D0Z67_RS22525&lt;/b&gt;&lt;br&gt;5-aminolevulinate synthase&lt;br&gt;Location: 4871290 - 4870028" locus_tag="D0Z67_RS22525" class="clusterblast-orf" id="dummy-33_h33_2_21"  />
</g>
<g id="a33_0022"  >
<polygon points="368,85 373,80 379,80 379,90 373,90 368,85 " style="fill:white; stroke-width:1; stroke:black; " description="&lt;b&gt;D0Z67_RS22520&lt;/b&gt;&lt;br&gt;long-chain fatty acid--CoA ligase&lt;br&gt;Location: 4869970 - 4868387" locus_tag="D0Z67_RS22520" class="clusterblast-orf" id="dummy-33_h33_2_22"  />
</g>
<g id="a33_0023"  >
<polygon points="383,90 384,90 389,85 384,80 383,80 383,90 " style="fill:#d86915; stroke-width:1; stroke:black; " description="&lt;b&gt;D0Z67_RS22515&lt;/b&gt;&lt;br&gt;thioesterase&lt;br&gt;Location: 4867766 - 4867014&lt;br&gt;&lt;br&gt;&lt;b&gt;BlastP hit with LLPMBPKK_07520&lt;/b&gt;&lt;br&gt;Percentage identity: 32&lt;br&gt;Percentage coverage: 94&lt;br&gt;BLAST bit score: 105&lt;br&gt;E-value: 1.35e-25&lt;br&gt;&lt;br&gt;&lt;b&gt;BlastP hit with LLPMBPKK_07529&lt;/b&gt;&lt;br&gt;Percentage identity: 35&lt;br&gt;Percentage coverage: 99&lt;br&gt;BLAST bit score: 109&lt;br&gt;E-value: 4.89e-27" locus_tag="D0Z67_RS22515" class="clusterblast-orf" id="dummy-33_h33_2_23"  />
</g>
<g id="a33_0024"  >
<polygon points="390,90 392,85 390,80 390,90 " style="fill:white; stroke-width:1; stroke:black; " description="&lt;b&gt;D0Z67_RS22510&lt;/b&gt;&lt;br&gt;erythromycin esterase family protein&lt;br&gt;Location: 4866805 - 4866602" locus_tag="D0Z67_RS22510" class="clusterblast-orf" id="dummy-33_h33_2_24"  />
</g>
<g id="a33_0025"  >
<polygon points="396,85 400,80 400,90 396,85 " style="fill:white; stroke-width:1; stroke:black; " description="&lt;b&gt;D0Z67_RS29745&lt;/b&gt;&lt;br&gt;winged helix-turn-helix transcriptional regulator&lt;br&gt;Location: 4865948 - 4865463" locus_tag="D0Z67_RS29745" class="clusterblast-orf" id="dummy-33_h33_2_25"  />
</g>
<g id="a33_0026"  >
<polygon points="406,90 409,85 406,80 406,90 " style="fill:white; stroke-width:1; stroke:black; " description="&lt;b&gt;D0Z67_RS22500&lt;/b&gt;&lt;br&gt;hypothetical protein&lt;br&gt;Location: 4864619 - 4864167" locus_tag="D0Z67_RS22500" class="clusterblast-orf" id="dummy-33_h33_2_26"  />
</g>
<g id="a33_0027"  >
<polygon points="410,90 413,85 410,80 410,90 " style="fill:white; stroke-width:1; stroke:black; " description="&lt;b&gt;D0Z67_RS22495&lt;/b&gt;&lt;br&gt;regulator component&lt;br&gt;Location: 4864049 - 4863528" locus_tag="D0Z67_RS22495" class="clusterblast-orf" id="dummy-33_h33_2_27"  />
</g>
<g id="a33_0028"  >
<polygon points="413,90 417,90 422,85 417,80 413,80 413,90 " style="fill:white; stroke-width:1; stroke:black; " description="&lt;b&gt;D0Z67_RS22490&lt;/b&gt;&lt;br&gt;hypothetical protein&lt;br&gt;Location: 4863541 - 4862366" locus_tag="D0Z67_RS22490" class="clusterblast-orf" id="dummy-33_h33_2_28"  />
</g>
<g id="a33_0029"  >
<polygon points="422,85 427,80 428,80 428,90 427,90 422,85 " style="fill:white; stroke-width:1; stroke:black; " description="&lt;b&gt;D0Z67_RS22485&lt;/b&gt;&lt;br&gt;SDR family oxidoreductase&lt;br&gt;Location: 4862330 - 4861497" locus_tag="D0Z67_RS22485" class="clusterblast-orf" id="dummy-33_h33_2_29"  />
</g>
<g id="a33_0030"  >
<polygon points="429,90 430,90 435,85 430,80 429,80 429,90 " style="fill:white; stroke-width:1; stroke:black; " description="&lt;b&gt;D0Z67_RS22480&lt;/b&gt;&lt;br&gt;ATP-binding cassette domain-containing protein&lt;br&gt;Location: 4861301 - 4860555" locus_tag="D0Z67_RS22480" class="clusterblast-orf" id="dummy-33_h33_2_30"  />
</g>
<g id="a33_0031"  >
<polygon points="436,90 439,90 444,85 439,80 436,80 436,90 " style="fill:white; stroke-width:1; stroke:black; " description="&lt;b&gt;D0Z67_RS22475&lt;/b&gt;&lt;br&gt;DUF2029 domain-containing protein&lt;br&gt;Location: 4860380 - 4859172" locus_tag="D0Z67_RS22475" class="clusterblast-orf" id="dummy-33_h33_2_31"  />
</g>
<g id="a33_0032"  >
<polygon points="444,90 445,90 450,85 445,80 444,80 444,90 " style="fill:white; stroke-width:1; stroke:black; " description="&lt;b&gt;D0Z67_RS22470&lt;/b&gt;&lt;br&gt;FkbM family methyltransferase&lt;br&gt;Location: 4859175 - 4858444" locus_tag="D0Z67_RS22470" class="clusterblast-orf" id="dummy-33_h33_2_32"  />
</g>
<g id="a33_0033"  >
<polygon points="450,90 453,90 458,85 453,80 450,80 450,90 " style="fill:white; stroke-width:1; stroke:black; " description="&lt;b&gt;D0Z67_RS22465&lt;/b&gt;&lt;br&gt;glycosyltransferase family 4 protein&lt;br&gt;Location: 4858414 - 4857245" locus_tag="D0Z67_RS22465" class="clusterblast-orf" id="dummy-33_h33_2_33"  />
</g>
<g id="a33_0034"  >
<polygon points="459,85 463,80 463,90 459,85 " style="fill:white; stroke-width:1; stroke:black; " description="&lt;b&gt;D0Z67_RS22460&lt;/b&gt;&lt;br&gt;response regulator transcription factor&lt;br&gt;Location: 4857157 - 4856489" locus_tag="D0Z67_RS22460" class="clusterblast-orf" id="dummy-33_h33_2_34"  />
</g>
<g id="a33_0035"  >
<polygon points="463,85 468,80 472,80 472,90 468,90 463,85 " style="fill:white; stroke-width:1; stroke:black; " description="&lt;b&gt;D0Z67_RS22455&lt;/b&gt;&lt;br&gt;histidine kinase&lt;br&gt;Location: 4856501 - 4855224" locus_tag="D0Z67_RS22455" class="clusterblast-orf" id="dummy-33_h33_2_35"  />
</g>
<g id="a33_0036"  >
<polygon points="473,90 474,90 479,85 474,80 473,80 473,90 " style="fill:white; stroke-width:1; stroke:black; " description="&lt;b&gt;D0Z67_RS22450&lt;/b&gt;&lt;br&gt;ABC transporter ATP-binding protein&lt;br&gt;Location: 4855076 - 4854330" locus_tag="D0Z67_RS22450" class="clusterblast-orf" id="dummy-33_h33_2_36"  />
</g>
<g id="a33_0037"  >
<polygon points="479,90 488,90 493,85 488,80 479,80 479,90 " style="fill:white; stroke-width:1; stroke:black; " description="&lt;b&gt;D0Z67_RS22445&lt;/b&gt;&lt;br&gt;ABC transporter permease&lt;br&gt;Location: 4854330 - 4852345" locus_tag="D0Z67_RS22445" class="clusterblast-orf" id="dummy-33_h33_2_37"  />
</g>
<g id="a33_0038"  >
<polygon points="494,90 494,90 499,85 494,80 494,80 494,90 " style="fill:white; stroke-width:1; stroke:black; " description="&lt;b&gt;D0Z67_RS22440&lt;/b&gt;&lt;br&gt;response regulator transcription factor&lt;br&gt;Location: 4852189 - 4851527" locus_tag="D0Z67_RS22440" class="clusterblast-orf" id="dummy-33_h33_2_38"  />
</g>
<g id="a33_0039"  >
<polygon points="499,90 504,90 509,85 504,80 499,80 499,90 " style="fill:white; stroke-width:1; stroke:black; " description="&lt;b&gt;D0Z67_RS22435&lt;/b&gt;&lt;br&gt;sensor histidine kinase&lt;br&gt;Location: 4851496 - 4850114" locus_tag="D0Z67_RS22435" class="clusterblast-orf" id="dummy-33_h33_2_39"  />
</g>
<g id="a33_0040"  >
<polygon points="510,90 514,90 519,85 514,80 510,80 510,90 " style="fill:white; stroke-width:1; stroke:black; " description="&lt;b&gt;D0Z67_RS22430&lt;/b&gt;&lt;br&gt;serine hydrolase&lt;br&gt;Location: 4849983 - 4848640" locus_tag="D0Z67_RS22430" class="clusterblast-orf" id="dummy-33_h33_2_40"  />
</g>
<g id="a33_0041"  >
<polygon points="520,90 588,90 593,85 588,80 520,80 520,90 " style="fill:#1585d8; stroke-width:1; stroke:black; " description="&lt;b&gt;D0Z67_RS22425&lt;/b&gt;&lt;br&gt;amino acid adenylation domain-containing protein&lt;br&gt;Location: 4848476 - 4838262&lt;br&gt;&lt;br&gt;&lt;b&gt;BlastP hit with LLPMBPKK_07515&lt;/b&gt;&lt;br&gt;Percentage identity: 39&lt;br&gt;Percentage coverage: 62&lt;br&gt;BLAST bit score: 266&lt;br&gt;E-value: 1.33e-72&lt;br&gt;&lt;br&gt;&lt;b&gt;BlastP hit with LLPMBPKK_07516&lt;/b&gt;&lt;br&gt;Percentage identity: 37&lt;br&gt;Percentage coverage: 92&lt;br&gt;BLAST bit score: 218&lt;br&gt;E-value: 1.95e-59&lt;br&gt;&lt;br&gt;&lt;b&gt;BlastP hit with LLPMBPKK_07519&lt;/b&gt;&lt;br&gt;Percentage identity: 41&lt;br&gt;Percentage coverage: 99&lt;br&gt;BLAST bit score: 671&lt;br&gt;E-value: 2.43e-207&lt;br&gt;&lt;br&gt;&lt;b&gt;BlastP hit with LLPMBPKK_07521&lt;/b&gt;&lt;br&gt;Percentage identity: 42&lt;br&gt;Percentage coverage: 97&lt;br&gt;BLAST bit score: 699&lt;br&gt;E-value: 3.21e-217&lt;br&gt;&lt;br&gt;&lt;b&gt;BlastP hit with LLPMBPKK_07522&lt;/b&gt;&lt;br&gt;Percentage identity: 40&lt;br&gt;Percentage coverage: 59&lt;br&gt;BLAST bit score: 566&lt;br&gt;E-value: 2.35e-166&lt;br&gt;&lt;br&gt;&lt;b&gt;BlastP hit with LLPMBPKK_07523&lt;/b&gt;&lt;br&gt;Percentage identity: 32&lt;br&gt;Percentage coverage: 98&lt;br&gt;BLAST bit score: 597&lt;br&gt;E-value: 6.11e-175&lt;br&gt;&lt;br&gt;&lt;b&gt;BlastP hit with LLPMBPKK_07525&lt;/b&gt;&lt;br&gt;Percentage identity: 39&lt;br&gt;Percentage coverage: 97&lt;br&gt;BLAST bit score: 336&lt;br&gt;E-value: 1.4e-98" locus_tag="D0Z67_RS22425" class="clusterblast-orf" id="dummy-33_h33_2_41"  />
</g>
<g id="a33_0042"  >
<polygon points="593,90 595,85 593,80 593,90 " style="fill:#15d831; stroke-width:1; stroke:black; " description="&lt;b&gt;D0Z67_RS22420&lt;/b&gt;&lt;br&gt;MbtH family protein&lt;br&gt;Location: 4838185 - 4837979&lt;br&gt;&lt;br&gt;&lt;b&gt;BlastP hit with LLPMBPKK_07524&lt;/b&gt;&lt;br&gt;Percentage identity: 56&lt;br&gt;Percentage coverage: 83&lt;br&gt;BLAST bit score: 71&lt;br&gt;E-value: 2.96e-16" locus_tag="D0Z67_RS22420" class="clusterblast-orf" id="dummy-33_h33_2_42"  />
</g>
<g id="a33_0043"  >
<polygon points="596,90 633,90 638,85 633,80 596,80 596,90 " style="fill:#1585d8; stroke-width:1; stroke:black; " description="&lt;b&gt;D0Z67_RS22415&lt;/b&gt;&lt;br&gt;amino acid adenylation domain-containing protein&lt;br&gt;Location: 4837846 - 4831886&lt;br&gt;&lt;br&gt;&lt;b&gt;BlastP hit with LLPMBPKK_07515&lt;/b&gt;&lt;br&gt;Percentage identity: 36&lt;br&gt;Percentage coverage: 74&lt;br&gt;BLAST bit score: 273&lt;br&gt;E-value: 5.18e-75&lt;br&gt;&lt;br&gt;&lt;b&gt;BlastP hit with LLPMBPKK_07525&lt;/b&gt;&lt;br&gt;Percentage identity: 43&lt;br&gt;Percentage coverage: 95&lt;br&gt;BLAST bit score: 411&lt;br&gt;E-value: 8.43e-125" locus_tag="D0Z67_RS22415" class="clusterblast-orf" id="dummy-33_h33_2_43"  />
</g>
<g id="a33_0044"  >
<polygon points="638,90 640,90 645,85 640,80 638,80 638,90 " style="fill:#a115d8; stroke-width:1; stroke:black; " description="&lt;b&gt;D0Z67_RS22410&lt;/b&gt;&lt;br&gt;oxygenase&lt;br&gt;Location: 4831848 - 4830883&lt;br&gt;&lt;br&gt;&lt;b&gt;BlastP hit with LLPMBPKK_07517&lt;/b&gt;&lt;br&gt;Percentage identity: 43&lt;br&gt;Percentage coverage: 83&lt;br&gt;BLAST bit score: 207&lt;br&gt;E-value: 1.19e-62" locus_tag="D0Z67_RS22410" class="clusterblast-orf" id="dummy-33_h33_2_44"  />
</g>
<g id="a33_0045"  >
<polygon points="645,90 649,90 654,85 649,80 645,80 645,90 " style="fill:white; stroke-width:1; stroke:black; " description="&lt;b&gt;D0Z67_RS22405&lt;/b&gt;&lt;br&gt;MFS transporter&lt;br&gt;Location: 4830883 - 4829552" locus_tag="D0Z67_RS22405" class="clusterblast-orf" id="dummy-33_h33_2_45"  />
</g>
<g id="a33_0046"  >
<polygon points="655,90 658,90 663,85 658,80 655,80 655,90 " style="fill:white; stroke-width:1; stroke:black; " description="&lt;b&gt;D0Z67_RS22400&lt;/b&gt;&lt;br&gt;cytochrome P450&lt;br&gt;Location: 4829530 - 4828352" locus_tag="D0Z67_RS22400" class="clusterblast-orf" id="dummy-33_h33_2_46"  />
</g>
<g id="a33_0047"  >
<polygon points="663,90 664,90 669,85 664,80 663,80 663,90 " style="fill:#d86915; stroke-width:1; stroke:black; " description="&lt;b&gt;D0Z67_RS22395&lt;/b&gt;&lt;br&gt;thioesterase&lt;br&gt;Location: 4828315 - 4827566&lt;br&gt;&lt;br&gt;&lt;b&gt;BlastP hit with LLPMBPKK_07520&lt;/b&gt;&lt;br&gt;Percentage identity: 31&lt;br&gt;Percentage coverage: 93&lt;br&gt;BLAST bit score: 104&lt;br&gt;E-value: 3.62e-25&lt;br&gt;&lt;br&gt;&lt;b&gt;BlastP hit with LLPMBPKK_07529&lt;/b&gt;&lt;br&gt;Percentage identity: 35&lt;br&gt;Percentage coverage: 96&lt;br&gt;BLAST bit score: 107&lt;br&gt;E-value: 5.06e-26" locus_tag="D0Z67_RS22395" class="clusterblast-orf" id="dummy-33_h33_2_47"  />
</g>
<g id="a33_0048"  >
<polygon points="669,90 674,90 679,85 674,80 669,80 669,90 " style="fill:white; stroke-width:1; stroke:black; " description="&lt;b&gt;D0Z67_RS22390&lt;/b&gt;&lt;br&gt;erythromycin esterase family protein&lt;br&gt;Location: 4827479 - 4826142" locus_tag="D0Z67_RS22390" class="clusterblast-orf" id="dummy-33_h33_2_48"  />
</g>
<g id="a33_0049"  >
<polygon points="682,85 687,80 692,80 692,90 687,90 682,85 " style="fill:white; stroke-width:1; stroke:black; " description="&lt;b&gt;D0Z67_RS22385&lt;/b&gt;&lt;br&gt;class I SAM-dependent RNA methyltransferase&lt;br&gt;Location: 4825631 - 4824303" locus_tag="D0Z67_RS22385" class="clusterblast-orf" id="dummy-33_h33_2_49"  />
</g>
<g id="a33_0050"  >
<polygon points="692,85 697,80 707,80 707,90 697,90 692,85 " style="fill:white; stroke-width:1; stroke:black; " description="&lt;b&gt;D0Z67_RS22380&lt;/b&gt;&lt;br&gt;APC family permease&lt;br&gt;Location: 4824197 - 4822149" locus_tag="D0Z67_RS22380" class="clusterblast-orf" id="dummy-33_h33_2_50"  />
</g>
<g id="a33_0051"  >
<polygon points="710,90 710,90 715,85 710,80 710,80 710,90 " style="fill:white; stroke-width:1; stroke:black; " description="&lt;b&gt;D0Z67_RS22375&lt;/b&gt;&lt;br&gt;TrkA family potassium uptake protein&lt;br&gt;Location: 4821740 - 4821069" locus_tag="D0Z67_RS22375" class="clusterblast-orf" id="dummy-33_h33_2_51"  />
</g>
<g id="a33_0052"  >
<polygon points="715,90 719,85 715,80 715,90 " style="fill:white; stroke-width:1; stroke:black; " description="&lt;b&gt;D0Z67_RS22370&lt;/b&gt;&lt;br&gt;TrkA family potassium uptake protein&lt;br&gt;Location: 4821069 - 4820398" locus_tag="D0Z67_RS22370" class="clusterblast-orf" id="dummy-33_h33_2_52"  />
</g>
<g id="a33_0053"  >
<polygon points="720,85 725,80 726,80 726,90 725,90 720,85 " style="fill:white; stroke-width:1; stroke:black; " description="&lt;b&gt;D0Z67_RS22365&lt;/b&gt;&lt;br&gt;DUF3159 domain-containing protein&lt;br&gt;Location: 4820336 - 4819533" locus_tag="D0Z67_RS22365" class="clusterblast-orf" id="dummy-33_h33_2_53"  />
</g>
<g id="a33_0054"  >
<polygon points="726,85 728,80 728,90 726,85 " style="fill:white; stroke-width:1; stroke:black; " description="&lt;b&gt;D0Z67_RS22360&lt;/b&gt;&lt;br&gt;OB-fold nucleic acid binding domain-containing protein&lt;br&gt;Location: 4819529 - 4819131" locus_tag="D0Z67_RS22360" class="clusterblast-orf" id="dummy-33_h33_2_54"  />
</g>
<g id="a33_0055"  >
<polygon points="729,85 734,80 734,80 734,90 734,90 729,85 " style="fill:white; stroke-width:1; stroke:black; " description="&lt;b&gt;D0Z67_RS22355&lt;/b&gt;&lt;br&gt;response regulator&lt;br&gt;Location: 4819066 - 4818380" locus_tag="D0Z67_RS22355" class="clusterblast-orf" id="dummy-33_h33_2_55"  />
</g>
<g id="a33_0056"  >
<polygon points="734,85 739,80 752,80 752,90 739,90 734,85 " style="fill:white; stroke-width:1; stroke:black; " description="&lt;b&gt;D0Z67_RS22350&lt;/b&gt;&lt;br&gt;sensor histidine kinase KdpD&lt;br&gt;Location: 4818383 - 4815834" locus_tag="D0Z67_RS22350" class="clusterblast-orf" id="dummy-33_h33_2_56"  />
</g>
<g id="a33_0057"  >
<polygon points="753,85 758,80 759,80 759,90 758,90 753,85 " style="fill:white; stroke-width:1; stroke:black; " description="&lt;b&gt;D0Z67_RS22345&lt;/b&gt;&lt;br&gt;DUF3710 domain-containing protein&lt;br&gt;Location: 4815600 - 4814845" locus_tag="D0Z67_RS22345" class="clusterblast-orf" id="dummy-33_h33_2_57"  />
</g>
<g id="a33_0058"  >
<polygon points="759,85 763,80 763,90 759,85 " style="fill:white; stroke-width:1; stroke:black; " description="&lt;b&gt;D0Z67_RS22340&lt;/b&gt;&lt;br&gt;dUTP diphosphatase&lt;br&gt;Location: 4814843 - 4814296" locus_tag="D0Z67_RS22340" class="clusterblast-orf" id="dummy-33_h33_2_58"  />
</g>
<g id="a33_0059"  >
<polygon points="763,85 767,80 767,90 763,85 " style="fill:white; stroke-width:1; stroke:black; " description="&lt;b&gt;D0Z67_RS22335&lt;/b&gt;&lt;br&gt;PaaI family thioesterase&lt;br&gt;Location: 4814299 - 4813721" locus_tag="D0Z67_RS22335" class="clusterblast-orf" id="dummy-33_h33_2_59"  />
</g>
<g id="a33_0060"  >
<polygon points="767,90 771,85 767,80 767,90 " style="fill:white; stroke-width:1; stroke:black; " description="&lt;b&gt;D0Z67_RS22330&lt;/b&gt;&lt;br&gt;DUF3093 domain-containing protein&lt;br&gt;Location: 4813630 - 4813166" locus_tag="D0Z67_RS22330" class="clusterblast-orf" id="dummy-33_h33_2_60"  />
</g>
<g id="a33_0061"  >
<polygon points="771,85 776,80 777,80 777,90 776,90 771,85 " style="fill:white; stroke-width:1; stroke:black; " description="&lt;b&gt;D0Z67_RS22325&lt;/b&gt;&lt;br&gt;hypothetical protein&lt;br&gt;Location: 4813143 - 4812238" locus_tag="D0Z67_RS22325" class="clusterblast-orf" id="dummy-33_h33_2_61"  />
</g>
<g id="a33_0062"  >
<polygon points="777,85 780,80 780,90 777,85 " style="fill:white; stroke-width:1; stroke:black; " description="&lt;b&gt;D0Z67_RS22320&lt;/b&gt;&lt;br&gt;DUF4193 domain-containing protein&lt;br&gt;Location: 4812224 - 4811928" locus_tag="D0Z67_RS22320" class="clusterblast-orf" id="dummy-33_h33_2_62"  />
</g>
</svg>
