<svg xmlns="http://www.w3.org/2000/svg" xmlns:xlink="http://www.w3.org/1999/xlink" version="1.1" x="0" y="0" height="230" width="800" viewBox="0 0 800 230" preserveAspectRatio="none"  >
<g label="Query sequence" class="clusterblast-cluster"  >
<text x="5" y="20" class="clusterblast-acc"  >
Query sequence</text>
<line x1="10" y1="35" x2="778.0" y2="35" style="stroke-width:1; stroke:grey; "  />
<polygon points="256,35 261,30 262,30 262,40 261,40 256,35 " style="fill:#d81515; stroke-width:1; stroke:black; " description="&lt;b&gt;LLPMBPKK_00577&lt;/b&gt;&lt;br&gt;LysR family transcriptional regulator&lt;br&gt;Location: 754811 - 755753" locus_tag="LLPMBPKK_00577" class="clusterblast-orf" id="dummy-4_q0_0_all"  />
<polygon points="263,40 267,40 272,35 267,30 263,30 263,40 " style="fill:#4dd815; stroke-width:1; stroke:black; " description="&lt;b&gt;LLPMBPKK_00578&lt;/b&gt;&lt;br&gt;MFS transporter multidrug efflux transporter&lt;br&gt;Location: 755886 - 757161" locus_tag="LLPMBPKK_00578" class="clusterblast-orf" id="dummy-4_q1_0_all"  />
<polygon points="273,40 276,40 281,35 276,30 273,30 273,40 " style="fill:white; stroke-width:1; stroke:black; " description="&lt;b&gt;LLPMBPKK_00579&lt;/b&gt;&lt;br&gt;VWA domain-containing protein&lt;br&gt;Location: 757388 - 758429" locus_tag="LLPMBPKK_00579" class="clusterblast-orf" id="dummy-4_q2_0_all"  />
<polygon points="281,35 284,30 284,40 281,35 " style="fill:white; stroke-width:1; stroke:black; " description="&lt;b&gt;LLPMBPKK_00580&lt;/b&gt;&lt;br&gt;hypothetical protein&lt;br&gt;Location: 758543 - 758969" locus_tag="LLPMBPKK_00580" class="clusterblast-orf" id="dummy-4_q3_0_all"  />
<polygon points="287,35 292,30 293,30 293,40 292,40 287,35 " style="fill:white; stroke-width:1; stroke:black; " description="&lt;b&gt;LLPMBPKK_00581&lt;/b&gt;&lt;br&gt;Ribosomal protein S6--L-glutamate ligase&lt;br&gt;Location: 759296 - 760241" locus_tag="LLPMBPKK_00581" class="clusterblast-orf" id="dummy-4_q4_0_all"  />
<polygon points="294,35 299,30 300,30 300,40 299,40 294,35 " style="fill:white; stroke-width:1; stroke:black; " description="&lt;b&gt;LLPMBPKK_00582&lt;/b&gt;&lt;br&gt;Ubiquinone biosynthesis O-methyltransferase&lt;br&gt;Location: 760461 - 761205" locus_tag="LLPMBPKK_00582" class="clusterblast-orf" id="dummy-4_q5_0_all"  />
<polygon points="302,35 307,30 321,30 321,40 307,40 302,35 " style="fill:white; stroke-width:1; stroke:black; " description="&lt;b&gt;LLPMBPKK_00583&lt;/b&gt;&lt;br&gt;Phosphoesterase family protein&lt;br&gt;Location: 761589 - 764340" locus_tag="LLPMBPKK_00583" class="clusterblast-orf" id="dummy-4_q6_0_all"  />
<polygon points="321,35 326,30 331,30 331,40 326,40 321,35 " style="fill:white; stroke-width:1; stroke:black; " description="&lt;b&gt;LLPMBPKK_00584&lt;/b&gt;&lt;br&gt;ABC transporter permease&lt;br&gt;Location: 764404 - 765772" locus_tag="LLPMBPKK_00584" class="clusterblast-orf" id="dummy-4_q7_0_all"  />
<polygon points="331,35 336,30 338,30 338,40 336,40 331,35 " style="fill:#1585d8; stroke-width:1; stroke:black; " description="&lt;b&gt;LLPMBPKK_00585&lt;/b&gt;&lt;br&gt;ABC transporter ATP-binding protein&lt;br&gt;Location: 765768 - 766875" locus_tag="LLPMBPKK_00585" class="clusterblast-orf" id="dummy-4_q8_0_all"  />
<polygon points="341,35 346,30 346,30 346,40 346,40 341,35 " style="fill:#a115d8; stroke-width:1; stroke:black; " description="&lt;b&gt;LLPMBPKK_00586&lt;/b&gt;&lt;br&gt;two component system DNA binding responseregulator&lt;br&gt;Location: 767325 - 767961" locus_tag="LLPMBPKK_00586" class="clusterblast-orf" id="dummy-4_q9_0_all"  />
<polygon points="346,35 351,30 355,30 355,40 351,40 346,35 " style="fill:#d86915; stroke-width:1; stroke:black; " description="&lt;b&gt;LLPMBPKK_00587&lt;/b&gt;&lt;br&gt;two component system histidine kinase&lt;br&gt;Location: 767957 - 769229" locus_tag="LLPMBPKK_00587" class="clusterblast-orf" id="dummy-4_q10_0_all"  />
<polygon points="356,40 359,40 364,35 359,30 356,30 356,40 " style="fill:white; stroke-width:1; stroke:black; " description="&lt;b&gt;LLPMBPKK_00588&lt;/b&gt;&lt;br&gt;ABC transporter&lt;br&gt;Location: 769497 - 770595" locus_tag="LLPMBPKK_00588" class="clusterblast-orf" id="dummy-4_q11_0_all"  />
<polygon points="364,40 364,40 369,35 364,30 364,30 364,40 " style="fill:#15d831; stroke-width:1; stroke:black; " description="&lt;b&gt;LLPMBPKK_00589&lt;/b&gt;&lt;br&gt;ABC transporter ATP-binding protein&lt;br&gt;Location: 770591 - 771275" locus_tag="LLPMBPKK_00589" class="clusterblast-orf" id="dummy-4_q12_0_all"  />
<polygon points="370,40 374,35 370,30 370,40 " style="fill:white; stroke-width:1; stroke:black; " description="&lt;b&gt;LLPMBPKK_00590&lt;/b&gt;&lt;br&gt;hypothetical protein&lt;br&gt;Location: 771430 - 772081" locus_tag="LLPMBPKK_00590" class="clusterblast-orf" id="dummy-4_q13_0_all"  />
<polygon points="375,40 381,40 386,35 381,30 375,30 375,40 " style="fill:white; stroke-width:1; stroke:black; " description="&lt;b&gt;LLPMBPKK_00591&lt;/b&gt;&lt;br&gt;Serine/threonine-protein kinase PknD&lt;br&gt;Location: 772151 - 773846" locus_tag="LLPMBPKK_00591" class="clusterblast-orf" id="dummy-4_q14_0_all"  />
<polygon points="386,35 391,30 391,30 391,40 391,40 386,35 " style="fill:white; stroke-width:1; stroke:black; " description="&lt;b&gt;LLPMBPKK_00592&lt;/b&gt;&lt;br&gt;hypothetical protein&lt;br&gt;Location: 773882 - 774539" locus_tag="LLPMBPKK_00592" class="clusterblast-orf" id="dummy-4_q15_0_all"  />
<polygon points="392,35 397,30 399,30 399,40 397,40 392,35 " style="fill:#1531d8; stroke-width:1; stroke:black; " description="&lt;b&gt;LLPMBPKK_00593&lt;/b&gt;&lt;br&gt;1,3,6,8-tetrahydroxynaphthalene synthase&lt;br&gt;Location: 774701 - 775748" locus_tag="LLPMBPKK_00593" class="clusterblast-orf" id="dummy-4_q16_0_all"  />
<polygon points="400,35 405,30 407,30 407,40 405,40 400,35 " style="fill:#d815bc; stroke-width:1; stroke:black; " description="&lt;b&gt;LLPMBPKK_00594&lt;/b&gt;&lt;br&gt;MmyB-like transcription regulator ligand bindingdomain protein&lt;br&gt;Location: 775864 - 776848" locus_tag="LLPMBPKK_00594" class="clusterblast-orf" id="dummy-4_q17_0_all"  />
<polygon points="409,35 414,30 414,30 414,40 414,40 409,35 " style="fill:white; stroke-width:1; stroke:black; " description="&lt;b&gt;LLPMBPKK_00595&lt;/b&gt;&lt;br&gt;aminoglycoside phosphotransferase&lt;br&gt;Location: 777119 - 777935" locus_tag="LLPMBPKK_00595" class="clusterblast-orf" id="dummy-4_q18_0_all"  />
<polygon points="417,40 417,40 422,35 417,30 417,30 417,40 " style="fill:white; stroke-width:1; stroke:black; " description="&lt;b&gt;LLPMBPKK_00596&lt;/b&gt;&lt;br&gt;hypothetical protein&lt;br&gt;Location: 778299 - 779046" locus_tag="LLPMBPKK_00596" class="clusterblast-orf" id="dummy-4_q19_0_all"  />
<polygon points="425,35 430,30 433,30 433,40 430,40 425,35 " style="fill:#d8bc15; stroke-width:1; stroke:black; " description="&lt;b&gt;LLPMBPKK_00597&lt;/b&gt;&lt;br&gt;cytochrome P450 hydroxylase&lt;br&gt;Location: 779472 - 780702" locus_tag="LLPMBPKK_00597" class="clusterblast-orf" id="dummy-4_q20_0_all"  />
<polygon points="434,35 436,30 436,40 434,35 " style="fill:white; stroke-width:1; stroke:black; " description="&lt;b&gt;LLPMBPKK_00598&lt;/b&gt;&lt;br&gt;hypothetical protein&lt;br&gt;Location: 780838 - 781204" locus_tag="LLPMBPKK_00598" class="clusterblast-orf" id="dummy-4_q21_0_all"  />
<polygon points="439,40 440,40 445,35 440,30 439,30 439,40 " style="fill:white; stroke-width:1; stroke:black; " description="&lt;b&gt;LLPMBPKK_00599&lt;/b&gt;&lt;br&gt;helix-turn-helix domain-containing protein&lt;br&gt;Location: 781514 - 782399" locus_tag="LLPMBPKK_00599" class="clusterblast-orf" id="dummy-4_q22_0_all"  />
<polygon points="445,35 450,30 454,30 454,40 450,40 445,35 " style="fill:#15d885; stroke-width:1; stroke:black; " description="&lt;b&gt;LLPMBPKK_00600&lt;/b&gt;&lt;br&gt;beta-glucosidase&lt;br&gt;Location: 782423 - 783803" locus_tag="LLPMBPKK_00600" class="clusterblast-orf" id="dummy-4_q23_0_all"  />
<polygon points="454,35 459,30 460,30 460,40 459,40 454,35 " style="fill:#4d15d8; stroke-width:1; stroke:black; " description="&lt;b&gt;LLPMBPKK_00601&lt;/b&gt;&lt;br&gt;sugar transport integral membrane protein&lt;br&gt;Location: 783820 - 784654" locus_tag="LLPMBPKK_00601" class="clusterblast-orf" id="dummy-4_q24_0_all"  />
<polygon points="460,35 465,30 467,30 467,40 465,40 460,35 " style="fill:#d81569; stroke-width:1; stroke:black; " description="&lt;b&gt;LLPMBPKK_00602&lt;/b&gt;&lt;br&gt;sugar transport integral membrane protein&lt;br&gt;Location: 784660 - 785605" locus_tag="LLPMBPKK_00602" class="clusterblast-orf" id="dummy-4_q25_0_all"  />
<polygon points="467,35 472,30 475,30 475,40 472,40 467,35 " style="fill:#a1d815; stroke-width:1; stroke:black; " description="&lt;b&gt;LLPMBPKK_00603&lt;/b&gt;&lt;br&gt;sugar transport sugar binding protein&lt;br&gt;Location: 785616 - 786855" locus_tag="LLPMBPKK_00603" class="clusterblast-orf" id="dummy-4_q26_0_all"  />
<polygon points="477,40 488,40 493,35 488,30 477,30 477,40 " style="fill:#15d8d8; stroke-width:1; stroke:black; " description="&lt;b&gt;LLPMBPKK_00604&lt;/b&gt;&lt;br&gt;alpha-xylosidase&lt;br&gt;Location: 787137 - 789408" locus_tag="LLPMBPKK_00604" class="clusterblast-orf" id="dummy-4_q27_0_all"  />
<polygon points="494,35 499,30 501,30 501,40 499,40 494,35 " style="fill:white; stroke-width:1; stroke:black; " description="&lt;b&gt;LLPMBPKK_00605&lt;/b&gt;&lt;br&gt;oxidoreductase&lt;br&gt;Location: 789603 - 790680" locus_tag="LLPMBPKK_00605" class="clusterblast-orf" id="dummy-4_q28_0_all"  />
<polygon points="502,40 506,35 502,30 502,40 " style="fill:white; stroke-width:1; stroke:black; " description="&lt;b&gt;LLPMBPKK_00606&lt;/b&gt;&lt;br&gt;transcriptional regulator&lt;br&gt;Location: 790784 - 791372" locus_tag="LLPMBPKK_00606" class="clusterblast-orf" id="dummy-4_q29_0_all"  />
<polygon points="506,40 510,35 506,30 506,40 " style="fill:white; stroke-width:1; stroke:black; " description="&lt;b&gt;LLPMBPKK_00607&lt;/b&gt;&lt;br&gt;N-acetyltransferase&lt;br&gt;Location: 791433 - 792000" locus_tag="LLPMBPKK_00607" class="clusterblast-orf" id="dummy-4_q30_0_all"  />
<polygon points="511,40 512,40 517,35 512,30 511,30 511,40 " style="fill:white; stroke-width:1; stroke:black; " description="&lt;b&gt;LLPMBPKK_00608&lt;/b&gt;&lt;br&gt;hypothetical protein&lt;br&gt;Location: 792060 - 792918" locus_tag="LLPMBPKK_00608" class="clusterblast-orf" id="dummy-4_q31_0_all"  />
<polygon points="517,35 522,30 523,30 523,40 522,40 517,35 " style="fill:white; stroke-width:1; stroke:black; " description="&lt;b&gt;LLPMBPKK_00609&lt;/b&gt;&lt;br&gt;transcriptional regulator&lt;br&gt;Location: 792948 - 793893" locus_tag="LLPMBPKK_00609" class="clusterblast-orf" id="dummy-4_q32_0_all"  />
</g>
<g label="NC_015957" description="NC_015957 (6101862-6215824): Streptomyces violaceusniger Tu 4113, complete se... (12% of genes show similarity), NRPS,T1PKS,lanthipeptide" class="clusterblast-cluster"  >
<text x="5" y="70" class="clusterblast-acc"  >
<a xlink:href="https://antismash-db.secondarymetabolites.org/area.html?record=NC_015957&amp;start=6101862&amp;end=6215824" target="_blank">NC_015957 (6101862-6215824)</a>: Streptomyces violaceusniger Tu 4113, complete se... (12% of genes show similarity), NRPS,T1PKS,lanthipeptide</text>
<line x1="10" y1="85" x2="778.0" y2="85" style="stroke-width:1; stroke:grey; "  />
</g>
<g id="a4_000"  >
<polygon points="0,85 5,80 5,80 5,90 5,90 0,85 " style="fill:white; stroke-width:1; stroke:black; " description="&lt;b&gt;STRVI_RS25030&lt;/b&gt;&lt;br&gt;class I SAM-dependent methyltransferase&lt;br&gt;Location: 6101863 - 6102594" locus_tag="STRVI_RS25030" class="clusterblast-orf" id="dummy-4_h4_8_0"  />
</g>
<g id="a4_001"  >
<polygon points="6,90 17,90 22,85 17,80 6,80 6,90 " style="fill:white; stroke-width:1; stroke:black; " description="&lt;b&gt;STRVI_RS25035&lt;/b&gt;&lt;br&gt;hypothetical protein&lt;br&gt;Location: 6102795 - 6105203" locus_tag="STRVI_RS25035" class="clusterblast-orf" id="dummy-4_h4_8_1"  />
</g>
<g id="a4_002"  >
<polygon points="24,90 25,90 30,85 25,80 24,80 24,90 " style="fill:white; stroke-width:1; stroke:black; " description="&lt;b&gt;STRVI_RS25040&lt;/b&gt;&lt;br&gt;nucleotidyltransferase domain-containing protein&lt;br&gt;Location: 6105493 - 6106251" locus_tag="STRVI_RS25040" class="clusterblast-orf" id="dummy-4_h4_8_2"  />
</g>
<g id="a4_003"  >
<polygon points="31,85 36,80 36,80 36,90 36,90 31,85 " style="fill:#a115d8; stroke-width:1; stroke:black; " description="&lt;b&gt;STRVI_RS25045&lt;/b&gt;&lt;br&gt;response regulator transcription factor&lt;br&gt;Location: 6106469 - 6107131&lt;br&gt;&lt;br&gt;&lt;b&gt;BlastP hit with LLPMBPKK_00586&lt;/b&gt;&lt;br&gt;Percentage identity: 40&lt;br&gt;Percentage coverage: 100&lt;br&gt;BLAST bit score: 123&lt;br&gt;E-value: 4.07e-33" locus_tag="STRVI_RS25045" class="clusterblast-orf" id="dummy-4_h4_8_3"  />
</g>
<g id="a4_004"  >
<polygon points="35,85 40,80 44,80 44,90 40,90 35,85 " style="fill:#d86915; stroke-width:1; stroke:black; " description="&lt;b&gt;STRVI_RS25050&lt;/b&gt;&lt;br&gt;sensor histidine kinase&lt;br&gt;Location: 6107095 - 6108303&lt;br&gt;&lt;br&gt;&lt;b&gt;BlastP hit with LLPMBPKK_00587&lt;/b&gt;&lt;br&gt;Percentage identity: 37&lt;br&gt;Percentage coverage: 57&lt;br&gt;BLAST bit score: 100&lt;br&gt;E-value: 4.63e-21" locus_tag="STRVI_RS25050" class="clusterblast-orf" id="dummy-4_h4_8_4"  />
</g>
<g id="a4_005"  >
<polygon points="44,85 48,80 48,90 44,85 " style="fill:white; stroke-width:1; stroke:black; " description="&lt;b&gt;STRVI_RS25055&lt;/b&gt;&lt;br&gt;hypothetical protein&lt;br&gt;Location: 6108372 - 6108890" locus_tag="STRVI_RS25055" class="clusterblast-orf" id="dummy-4_h4_8_5"  />
</g>
<g id="a4_006"  >
<polygon points="49,85 54,80 54,80 54,90 54,90 49,85 " style="fill:white; stroke-width:1; stroke:black; " description="&lt;b&gt;STRVI_RS25060&lt;/b&gt;&lt;br&gt;EamA family transporter&lt;br&gt;Location: 6109065 - 6109868" locus_tag="STRVI_RS25060" class="clusterblast-orf" id="dummy-4_h4_8_6"  />
</g>
<g id="a4_007"  >
<polygon points="56,90 57,90 62,85 57,80 56,80 56,90 " style="fill:white; stroke-width:1; stroke:black; " description="&lt;b&gt;STRVI_RS25065&lt;/b&gt;&lt;br&gt;LysR family transcriptional regulator&lt;br&gt;Location: 6110141 - 6110995" locus_tag="STRVI_RS25065" class="clusterblast-orf" id="dummy-4_h4_8_7"  />
</g>
<g id="a4_008"  >
<polygon points="62,90 64,85 62,80 62,90 " style="fill:white; stroke-width:1; stroke:black; " description="&lt;b&gt;STRVI_RS25070&lt;/b&gt;&lt;br&gt;MFS transporter&lt;br&gt;Location: 6111029 - 6111357" locus_tag="STRVI_RS25070" class="clusterblast-orf" id="dummy-4_h4_8_8"  />
</g>
<g id="a4_009"  >
<polygon points="66,90 67,85 66,80 66,90 " style="fill:white; stroke-width:1; stroke:black; " description="&lt;b&gt;STRVI_RS25075&lt;/b&gt;&lt;br&gt;hypothetical protein&lt;br&gt;Location: 6111532 - 6111714" locus_tag="STRVI_RS25075" class="clusterblast-orf" id="dummy-4_h4_8_9"  />
</g>
<g id="a4_0010"  >
<polygon points="68,90 84,90 89,85 84,80 68,80 68,90 " style="fill:white; stroke-width:1; stroke:black; " description="&lt;b&gt;STRVI_RS25080&lt;/b&gt;&lt;br&gt;lantibiotic dehydratase&lt;br&gt;Location: 6111811 - 6114981" locus_tag="STRVI_RS25080" class="clusterblast-orf" id="dummy-4_h4_8_10"  />
</g>
<g id="a4_0011"  >
<polygon points="89,90 93,90 98,85 93,80 89,80 89,90 " style="fill:white; stroke-width:1; stroke:black; " description="&lt;b&gt;STRVI_RS25085&lt;/b&gt;&lt;br&gt;lanthionine synthetase C family protein&lt;br&gt;Location: 6114978 - 6116261" locus_tag="STRVI_RS25085" class="clusterblast-orf" id="dummy-4_h4_8_11"  />
</g>
<g id="a4_0012"  >
<polygon points="101,90 101,90 106,85 101,80 101,80 101,90 " style="fill:white; stroke-width:1; stroke:black; " description="&lt;b&gt;STRVI_RS25090&lt;/b&gt;&lt;br&gt;DUF1775 domain-containing protein&lt;br&gt;Location: 6116746 - 6117444" locus_tag="STRVI_RS25090" class="clusterblast-orf" id="dummy-4_h4_8_12"  />
</g>
<g id="a4_0013"  >
<polygon points="107,90 110,85 107,80 107,90 " style="fill:white; stroke-width:1; stroke:black; " description="&lt;b&gt;STRVI_RS25095&lt;/b&gt;&lt;br&gt;hypothetical protein&lt;br&gt;Location: 6117521 - 6117952" locus_tag="STRVI_RS25095" class="clusterblast-orf" id="dummy-4_h4_8_13"  />
</g>
<g id="a4_0014"  >
<polygon points="110,85 115,80 119,80 119,90 115,90 110,85 " style="fill:#d8bc15; stroke-width:1; stroke:black; " description="&lt;b&gt;STRVI_RS25100&lt;/b&gt;&lt;br&gt;cytochrome P450&lt;br&gt;Location: 6118036 - 6119307&lt;br&gt;&lt;br&gt;&lt;b&gt;BlastP hit with LLPMBPKK_00597&lt;/b&gt;&lt;br&gt;Percentage identity: 40&lt;br&gt;Percentage coverage: 95&lt;br&gt;BLAST bit score: 241&lt;br&gt;E-value: 1.04e-73" locus_tag="STRVI_RS25100" class="clusterblast-orf" id="dummy-4_h4_8_14"  />
</g>
<g id="a4_0015"  >
<polygon points="119,85 124,80 124,80 124,90 124,90 119,85 " style="fill:white; stroke-width:1; stroke:black; " description="&lt;b&gt;STRVI_RS48440&lt;/b&gt;&lt;br&gt;hypothetical protein&lt;br&gt;Location: 6119346 - 6120044" locus_tag="STRVI_RS48440" class="clusterblast-orf" id="dummy-4_h4_8_15"  />
</g>
<g id="a4_0016"  >
<polygon points="136,85 141,80 163,80 163,90 141,90 136,85 " style="fill:white; stroke-width:1; stroke:black; " description="&lt;b&gt;STRVI_RS48445&lt;/b&gt;&lt;br&gt;SDR family NAD(P)-dependent oxidoreductase&lt;br&gt;Location: 6121773 - 6125684" locus_tag="STRVI_RS48445" class="clusterblast-orf" id="dummy-4_h4_8_16"  />
</g>
<g id="a4_0017"  >
<polygon points="166,85 171,80 172,80 172,90 171,90 166,85 " style="fill:white; stroke-width:1; stroke:black; " description="&lt;b&gt;STRVI_RS51785&lt;/b&gt;&lt;br&gt;alcohol dehydrogenase catalytic domain-containing protein&lt;br&gt;Location: 6126234 - 6127022" locus_tag="STRVI_RS51785" class="clusterblast-orf" id="dummy-4_h4_8_17"  />
</g>
<g id="a4_0018"  >
<polygon points="172,85 177,80 196,80 196,90 177,90 172,85 " style="fill:white; stroke-width:1; stroke:black; " description="&lt;b&gt;STRVI_RS48460&lt;/b&gt;&lt;br&gt;type I polyketide synthase&lt;br&gt;Location: 6127044 - 6130547" locus_tag="STRVI_RS48460" class="clusterblast-orf" id="dummy-4_h4_8_18"  />
</g>
<g id="a4_0019"  >
<polygon points="196,85 200,80 200,90 196,85 " style="fill:white; stroke-width:1; stroke:black; " description="&lt;b&gt;STRVI_RS48465&lt;/b&gt;&lt;br&gt;hypothetical protein&lt;br&gt;Location: 6130635 - 6131117" locus_tag="STRVI_RS48465" class="clusterblast-orf" id="dummy-4_h4_8_19"  />
</g>
<g id="a4_0020"  >
<polygon points="200,85 204,80 204,90 200,85 " style="fill:white; stroke-width:1; stroke:black; " description="&lt;b&gt;STRVI_RS50885&lt;/b&gt;&lt;br&gt;SDR family NAD(P)-dependent oxidoreductase&lt;br&gt;Location: 6131124 - 6131798" locus_tag="STRVI_RS50885" class="clusterblast-orf" id="dummy-4_h4_8_20"  />
</g>
<g id="a4_0021"  >
<polygon points="207,85 212,80 215,80 215,90 212,90 207,85 " style="fill:white; stroke-width:1; stroke:black; " description="&lt;b&gt;STRVI_RS48475&lt;/b&gt;&lt;br&gt;acyltransferase domain-containing protein&lt;br&gt;Location: 6132234 - 6133349" locus_tag="STRVI_RS48475" class="clusterblast-orf" id="dummy-4_h4_8_21"  />
</g>
<g id="a4_0022"  >
<polygon points="217,85 222,80 226,80 226,90 222,90 217,85 " style="fill:white; stroke-width:1; stroke:black; " description="&lt;b&gt;STRVI_RS48480&lt;/b&gt;&lt;br&gt;polyketide synthase&lt;br&gt;Location: 6133569 - 6134924" locus_tag="STRVI_RS48480" class="clusterblast-orf" id="dummy-4_h4_8_22"  />
</g>
<g id="a4_0023"  >
<polygon points="230,85 235,80 236,80 236,90 235,90 230,85 " style="fill:white; stroke-width:1; stroke:black; " description="&lt;b&gt;STRVI_RS48485&lt;/b&gt;&lt;br&gt;SDR family NAD(P)-dependent oxidoreductase&lt;br&gt;Location: 6135510 - 6136484" locus_tag="STRVI_RS48485" class="clusterblast-orf" id="dummy-4_h4_8_23"  />
</g>
<g id="a4_0024"  >
<polygon points="238,85 243,80 266,80 266,90 243,90 238,85 " style="fill:white; stroke-width:1; stroke:black; " description="&lt;b&gt;STRVI_RS50890&lt;/b&gt;&lt;br&gt;SDR family NAD(P)-dependent oxidoreductase&lt;br&gt;Location: 6136761 - 6140807" locus_tag="STRVI_RS50890" class="clusterblast-orf" id="dummy-4_h4_8_24"  />
</g>
<g id="a4_0025"  >
<polygon points="270,85 275,80 277,80 277,90 275,90 270,85 " style="fill:white; stroke-width:1; stroke:black; " description="&lt;b&gt;STRVI_RS52860&lt;/b&gt;&lt;br&gt;acyltransferase domain-containing protein&lt;br&gt;Location: 6141426 - 6142472" locus_tag="STRVI_RS52860" class="clusterblast-orf" id="dummy-4_h4_8_25"  />
</g>
<g id="a4_0026"  >
<polygon points="279,85 284,80 288,80 288,90 284,90 279,85 " style="fill:white; stroke-width:1; stroke:black; " description="&lt;b&gt;STRVI_RS52865&lt;/b&gt;&lt;br&gt;type I polyketide synthase&lt;br&gt;Location: 6142653 - 6144059" locus_tag="STRVI_RS52865" class="clusterblast-orf" id="dummy-4_h4_8_26"  />
</g>
<g id="a4_0027"  >
<polygon points="291,85 296,80 296,80 296,90 296,90 291,85 " style="fill:white; stroke-width:1; stroke:black; " description="&lt;b&gt;STRVI_RS50900&lt;/b&gt;&lt;br&gt;SDR family NAD(P)-dependent oxidoreductase&lt;br&gt;Location: 6144450 - 6145118" locus_tag="STRVI_RS50900" class="clusterblast-orf" id="dummy-4_h4_8_27"  />
</g>
<g id="a4_0028"  >
<polygon points="298,85 303,80 336,80 336,90 303,90 298,85 " style="fill:white; stroke-width:1; stroke:black; " description="&lt;b&gt;STRVI_RS50905&lt;/b&gt;&lt;br&gt;SDR family NAD(P)-dependent oxidoreductase&lt;br&gt;Location: 6145506 - 6151004" locus_tag="STRVI_RS50905" class="clusterblast-orf" id="dummy-4_h4_8_28"  />
</g>
<g id="a4_0029"  >
<polygon points="338,85 343,80 347,80 347,90 343,90 338,85 " style="fill:white; stroke-width:1; stroke:black; " description="&lt;b&gt;STRVI_RS50910&lt;/b&gt;&lt;br&gt;polyketide synthase&lt;br&gt;Location: 6151323 - 6152702" locus_tag="STRVI_RS50910" class="clusterblast-orf" id="dummy-4_h4_8_29"  />
</g>
<g id="a4_0030"  >
<polygon points="348,85 353,80 353,80 353,90 353,90 348,85 " style="fill:white; stroke-width:1; stroke:black; " description="&lt;b&gt;STRVI_RS48530&lt;/b&gt;&lt;br&gt;hypothetical protein&lt;br&gt;Location: 6152747 - 6153469" locus_tag="STRVI_RS48530" class="clusterblast-orf" id="dummy-4_h4_8_30"  />
</g>
<g id="a4_0031"  >
<polygon points="353,85 358,80 361,80 361,90 358,90 353,85 " style="fill:white; stroke-width:1; stroke:black; " description="&lt;b&gt;STRVI_RS48535&lt;/b&gt;&lt;br&gt;SDR family NAD(P)-dependent oxidoreductase&lt;br&gt;Location: 6153518 - 6154732" locus_tag="STRVI_RS48535" class="clusterblast-orf" id="dummy-4_h4_8_31"  />
</g>
<g id="a4_0032"  >
<polygon points="367,85 372,80 380,80 380,90 372,90 367,85 " style="fill:white; stroke-width:1; stroke:black; " description="&lt;b&gt;STRVI_RS52870&lt;/b&gt;&lt;br&gt;type I polyketide synthase&lt;br&gt;Location: 6155615 - 6157501" locus_tag="STRVI_RS52870" class="clusterblast-orf" id="dummy-4_h4_8_32"  />
</g>
<g id="a4_0033"  >
<polygon points="385,85 388,80 388,90 385,85 " style="fill:white; stroke-width:1; stroke:black; " description="&lt;b&gt;STRVI_RS52875&lt;/b&gt;&lt;br&gt;acyl carrier protein&lt;br&gt;Location: 6158180 - 6158566" locus_tag="STRVI_RS52875" class="clusterblast-orf" id="dummy-4_h4_8_33"  />
</g>
<g id="a4_0034"  >
<polygon points="389,85 393,80 393,90 389,85 " style="fill:white; stroke-width:1; stroke:black; " description="&lt;b&gt;STRVI_RS52880&lt;/b&gt;&lt;br&gt;SDR family NAD(P)-dependent oxidoreductase&lt;br&gt;Location: 6158699 - 6159364" locus_tag="STRVI_RS52880" class="clusterblast-orf" id="dummy-4_h4_8_34"  />
</g>
<g id="a4_0035"  >
<polygon points="397,85 402,80 403,80 403,90 402,90 397,85 " style="fill:white; stroke-width:1; stroke:black; " description="&lt;b&gt;STRVI_RS51800&lt;/b&gt;&lt;br&gt;alcohol dehydrogenase catalytic domain-containing protein&lt;br&gt;Location: 6159935 - 6160816" locus_tag="STRVI_RS51800" class="clusterblast-orf" id="dummy-4_h4_8_35"  />
</g>
<g id="a4_0036"  >
<polygon points="409,85 414,80 427,80 427,90 414,90 409,85 " style="fill:white; stroke-width:1; stroke:black; " description="&lt;b&gt;STRVI_RS50925&lt;/b&gt;&lt;br&gt;type I polyketide synthase&lt;br&gt;Location: 6161621 - 6164329" locus_tag="STRVI_RS50925" class="clusterblast-orf" id="dummy-4_h4_8_36"  />
</g>
<g id="a4_0037"  >
<polygon points="431,85 435,80 435,90 431,85 " style="fill:white; stroke-width:1; stroke:black; " description="&lt;b&gt;STRVI_RS50930&lt;/b&gt;&lt;br&gt;SDR family NAD(P)-dependent oxidoreductase&lt;br&gt;Location: 6164846 - 6165529" locus_tag="STRVI_RS50930" class="clusterblast-orf" id="dummy-4_h4_8_37"  />
</g>
<g id="a4_0038"  >
<polygon points="439,85 444,80 449,80 449,90 444,90 439,85 " style="fill:white; stroke-width:1; stroke:black; " description="&lt;b&gt;STRVI_RS52885&lt;/b&gt;&lt;br&gt;acyltransferase domain-containing protein&lt;br&gt;Location: 6166088 - 6167572" locus_tag="STRVI_RS52885" class="clusterblast-orf" id="dummy-4_h4_8_38"  />
</g>
<g id="a4_0039"  >
<polygon points="449,85 454,80 477,80 477,90 454,90 449,85 " style="fill:white; stroke-width:1; stroke:black; " description="&lt;b&gt;STRVI_RS50935&lt;/b&gt;&lt;br&gt;KR domain-containing protein&lt;br&gt;Location: 6167579 - 6171559" locus_tag="STRVI_RS50935" class="clusterblast-orf" id="dummy-4_h4_8_39"  />
</g>
<g id="a4_0040"  >
<polygon points="484,85 489,80 494,80 494,90 489,90 484,85 " style="fill:white; stroke-width:1; stroke:black; " description="&lt;b&gt;STRVI_RS50940&lt;/b&gt;&lt;br&gt;polyketide synthase&lt;br&gt;Location: 6172688 - 6174058" locus_tag="STRVI_RS50940" class="clusterblast-orf" id="dummy-4_h4_8_40"  />
</g>
<g id="a4_0041"  >
<polygon points="494,85 499,80 611,80 611,90 499,90 494,85 " style="fill:white; stroke-width:1; stroke:black; " description="&lt;b&gt;STRVI_RS47115&lt;/b&gt;&lt;br&gt;type I polyketide synthase&lt;br&gt;Location: 6174116 - 6191146" locus_tag="STRVI_RS47115" class="clusterblast-orf" id="dummy-4_h4_8_41"  />
</g>
<g id="a4_0042"  >
<polygon points="611,85 616,80 643,80 643,90 616,90 611,85 " style="fill:white; stroke-width:1; stroke:black; " description="&lt;b&gt;STRVI_RS25120&lt;/b&gt;&lt;br&gt;non-ribosomal peptide synthase&lt;br&gt;Location: 6191263 - 6195900" locus_tag="STRVI_RS25120" class="clusterblast-orf" id="dummy-4_h4_8_42"  />
</g>
<g id="a4_0043"  >
<polygon points="644,85 646,80 646,90 644,85 " style="fill:white; stroke-width:1; stroke:black; " description="&lt;b&gt;STRVI_RS52155&lt;/b&gt;&lt;br&gt;hypothetical protein&lt;br&gt;Location: 6196042 - 6196383" locus_tag="STRVI_RS52155" class="clusterblast-orf" id="dummy-4_h4_8_43"  />
</g>
<g id="a4_0044"  >
<polygon points="648,85 653,80 655,80 655,90 653,90 648,85 " style="fill:#d81515; stroke-width:1; stroke:black; " description="&lt;b&gt;STRVI_RS25125&lt;/b&gt;&lt;br&gt;LysR family transcriptional regulator&lt;br&gt;Location: 6196661 - 6197590&lt;br&gt;&lt;br&gt;&lt;b&gt;BlastP hit with LLPMBPKK_00577&lt;/b&gt;&lt;br&gt;Percentage identity: 74&lt;br&gt;Percentage coverage: 98&lt;br&gt;BLAST bit score: 452&lt;br&gt;E-value: 9.4e-160" locus_tag="STRVI_RS25125" class="clusterblast-orf" id="dummy-4_h4_8_44"  />
</g>
<g id="a4_0045"  >
<polygon points="656,90 659,90 664,85 659,80 656,80 656,90 " style="fill:#4dd815; stroke-width:1; stroke:black; " description="&lt;b&gt;STRVI_RS25130&lt;/b&gt;&lt;br&gt;MFS transporter&lt;br&gt;Location: 6197729 - 6198979&lt;br&gt;&lt;br&gt;&lt;b&gt;BlastP hit with LLPMBPKK_00578&lt;/b&gt;&lt;br&gt;Percentage identity: 65&lt;br&gt;Percentage coverage: 96&lt;br&gt;BLAST bit score: 476&lt;br&gt;E-value: 1.51e-165" locus_tag="STRVI_RS25130" class="clusterblast-orf" id="dummy-4_h4_8_45"  />
</g>
<g id="a4_0046"  >
<polygon points="665,90 669,85 665,80 665,90 " style="fill:white; stroke-width:1; stroke:black; " description="&lt;b&gt;STRVI_RS25135&lt;/b&gt;&lt;br&gt;TetR/AcrR family transcriptional regulator&lt;br&gt;Location: 6199064 - 6199645" locus_tag="STRVI_RS25135" class="clusterblast-orf" id="dummy-4_h4_8_46"  />
</g>
<g id="a4_0047"  >
<polygon points="670,90 673,90 678,85 673,80 670,80 670,90 " style="fill:white; stroke-width:1; stroke:black; " description="&lt;b&gt;STRVI_RS25140&lt;/b&gt;&lt;br&gt;DNA polymerase III subunit alpha&lt;br&gt;Location: 6199771 - 6200997" locus_tag="STRVI_RS25140" class="clusterblast-orf" id="dummy-4_h4_8_47"  />
</g>
<g id="a4_0048"  >
<polygon points="679,90 680,90 685,85 680,80 679,80 679,90 " style="fill:white; stroke-width:1; stroke:black; " description="&lt;b&gt;STRVI_RS25145&lt;/b&gt;&lt;br&gt;LacI family transcriptional regulator&lt;br&gt;Location: 6201098 - 6202075" locus_tag="STRVI_RS25145" class="clusterblast-orf" id="dummy-4_h4_8_48"  />
</g>
<g id="a4_0049"  >
<polygon points="687,90 691,90 696,85 691,80 687,80 687,90 " style="fill:white; stroke-width:1; stroke:black; " description="&lt;b&gt;STRVI_RS25150&lt;/b&gt;&lt;br&gt;extracellular solute-binding protein&lt;br&gt;Location: 6202323 - 6203666" locus_tag="STRVI_RS25150" class="clusterblast-orf" id="dummy-4_h4_8_49"  />
</g>
<g id="a4_0050"  >
<polygon points="696,90 698,90 703,85 698,80 696,80 696,90 " style="fill:#d81569; stroke-width:1; stroke:black; " description="&lt;b&gt;STRVI_RS25155&lt;/b&gt;&lt;br&gt;sugar ABC transporter permease&lt;br&gt;Location: 6203671 - 6204627&lt;br&gt;&lt;br&gt;&lt;b&gt;BlastP hit with LLPMBPKK_00602&lt;/b&gt;&lt;br&gt;Percentage identity: 34&lt;br&gt;Percentage coverage: 97&lt;br&gt;BLAST bit score: 146&lt;br&gt;E-value: 1.17e-39" locus_tag="STRVI_RS25155" class="clusterblast-orf" id="dummy-4_h4_8_50"  />
</g>
<g id="a4_0051"  >
<polygon points="703,90 704,90 709,85 704,80 703,80 703,90 " style="fill:#4d15d8; stroke-width:1; stroke:black; " description="&lt;b&gt;STRVI_RS25160&lt;/b&gt;&lt;br&gt;carbohydrate ABC transporter permease&lt;br&gt;Location: 6204624 - 6205499&lt;br&gt;&lt;br&gt;&lt;b&gt;BlastP hit with LLPMBPKK_00601&lt;/b&gt;&lt;br&gt;Percentage identity: 32&lt;br&gt;Percentage coverage: 101&lt;br&gt;BLAST bit score: 110&lt;br&gt;E-value: 1.28e-26" locus_tag="STRVI_RS25160" class="clusterblast-orf" id="dummy-4_h4_8_51"  />
</g>
<g id="a4_0052"  >
<polygon points="709,90 715,90 720,85 715,80 709,80 709,90 " style="fill:white; stroke-width:1; stroke:black; " description="&lt;b&gt;STRVI_RS25165&lt;/b&gt;&lt;br&gt;glycoside hydrolase family 13 protein&lt;br&gt;Location: 6205530 - 6207128" locus_tag="STRVI_RS25165" class="clusterblast-orf" id="dummy-4_h4_8_52"  />
</g>
<g id="a4_0053"  >
<polygon points="720,90 730,90 735,85 730,80 720,80 720,90 " style="fill:white; stroke-width:1; stroke:black; " description="&lt;b&gt;STRVI_RS25170&lt;/b&gt;&lt;br&gt;mycodextranase&lt;br&gt;Location: 6207182 - 6209368" locus_tag="STRVI_RS25170" class="clusterblast-orf" id="dummy-4_h4_8_53"  />
</g>
<g id="a4_0054"  >
<polygon points="736,90 741,90 746,85 741,80 736,80 736,90 " style="fill:white; stroke-width:1; stroke:black; " description="&lt;b&gt;STRVI_RS25175&lt;/b&gt;&lt;br&gt;argininosuccinate synthase&lt;br&gt;Location: 6209527 - 6210975" locus_tag="STRVI_RS25175" class="clusterblast-orf" id="dummy-4_h4_8_54"  />
</g>
<g id="a4_0055"  >
<polygon points="748,90 751,90 756,85 751,80 748,80 748,90 " style="fill:white; stroke-width:1; stroke:black; " description="&lt;b&gt;STRVI_RS25180&lt;/b&gt;&lt;br&gt;glycoside hydrolase&lt;br&gt;Location: 6211282 - 6212364" locus_tag="STRVI_RS25180" class="clusterblast-orf" id="dummy-4_h4_8_55"  />
</g>
<g id="a4_0056"  >
<polygon points="756,85 761,80 769,80 769,90 761,90 756,85 " style="fill:white; stroke-width:1; stroke:black; " description="&lt;b&gt;STRVI_RS25185&lt;/b&gt;&lt;br&gt;endoglucanase&lt;br&gt;Location: 6212445 - 6214307" locus_tag="STRVI_RS25185" class="clusterblast-orf" id="dummy-4_h4_8_56"  />
</g>
<g id="a4_0057"  >
<polygon points="771,85 776,80 780,80 780,90 776,90 771,85 " style="fill:white; stroke-width:1; stroke:black; " description="&lt;b&gt;STRVI_RS25190&lt;/b&gt;&lt;br&gt;glucarate dehydratase&lt;br&gt;Location: 6214550 - 6215824" locus_tag="STRVI_RS25190" class="clusterblast-orf" id="dummy-4_h4_8_57"  />
</g>
</svg>
