<svg xmlns="http://www.w3.org/2000/svg" xmlns:xlink="http://www.w3.org/1999/xlink" version="1.1" x="0" y="0" height="230" width="800" viewBox="0 0 800 230" preserveAspectRatio="none"  >
<g label="Query sequence" class="clusterblast-cluster"  >
<text x="5" y="20" class="clusterblast-acc"  >
Query sequence</text>
<line x1="10" y1="35" x2="778.0" y2="35" style="stroke-width:1; stroke:grey; "  />
<polygon points="0,40 3,40 8,35 3,30 0,30 0,40 " style="fill:white; stroke-width:1; stroke:black; " description="&lt;b&gt;LLPMBPKK_06896&lt;/b&gt;&lt;br&gt;oxidoreductase&lt;br&gt;Location: 7938673 - 7939900" locus_tag="LLPMBPKK_06896" class="clusterblast-orf" id="dummy-30_q0_0_all"  />
<polygon points="9,35 14,30 14,30 14,40 14,40 9,35 " style="fill:#d81515; stroke-width:1; stroke:black; " description="&lt;b&gt;LLPMBPKK_06897&lt;/b&gt;&lt;br&gt;crotonase/enoyl-CoA hydratase family protein&lt;br&gt;Location: 7939930 - 7940695" locus_tag="LLPMBPKK_06897" class="clusterblast-orf" id="dummy-30_q1_0_all"  />
<polygon points="14,35 19,30 21,30 21,40 19,40 14,35 " style="fill:#77d815; stroke-width:1; stroke:black; " description="&lt;b&gt;LLPMBPKK_06898&lt;/b&gt;&lt;br&gt;flippase-like domain-containing protein&lt;br&gt;Location: 7940739 - 7941705" locus_tag="LLPMBPKK_06898" class="clusterblast-orf" id="dummy-30_q2_0_all"  />
<polygon points="22,40 30,40 35,35 30,30 22,30 22,40 " style="fill:#15d8d8; stroke-width:1; stroke:black; " description="&lt;b&gt;LLPMBPKK_06899&lt;/b&gt;&lt;br&gt;ABC transporter ATP-binding protein&lt;br&gt;Location: 7941795 - 7943691" locus_tag="LLPMBPKK_06899" class="clusterblast-orf" id="dummy-30_q3_0_all"  />
<polygon points="36,35 41,30 52,30 52,40 41,40 36,35 " style="fill:white; stroke-width:1; stroke:black; " description="&lt;b&gt;LLPMBPKK_06900&lt;/b&gt;&lt;br&gt;HEAT repeats&lt;br&gt;Location: 7943772 - 7945989" locus_tag="LLPMBPKK_06900" class="clusterblast-orf" id="dummy-30_q4_0_all"  />
<polygon points="53,40 55,35 53,30 53,40 " style="fill:#7715d8; stroke-width:1; stroke:black; " description="&lt;b&gt;LLPMBPKK_06901&lt;/b&gt;&lt;br&gt;hypothetical protein&lt;br&gt;Location: 7946220 - 7946388" locus_tag="LLPMBPKK_06901" class="clusterblast-orf" id="dummy-30_q5_0_all"  />
<polygon points="55,40 59,35 55,30 55,40 " style="fill:#d83f15; stroke-width:1; stroke:black; " description="&lt;b&gt;LLPMBPKK_06902&lt;/b&gt;&lt;br&gt;2Fe-2S iron-sulfur cluster bindingdomain-containing protein&lt;br&gt;Location: 7946482 - 7947019" locus_tag="LLPMBPKK_06902" class="clusterblast-orf" id="dummy-30_q6_0_all"  />
<polygon points="59,40 62,40 67,35 62,30 59,30 59,40 " style="fill:#4dd815; stroke-width:1; stroke:black; " description="&lt;b&gt;LLPMBPKK_06903&lt;/b&gt;&lt;br&gt;FAD binding domain in molybdopterindehydrogenase&lt;br&gt;Location: 7947019 - 7948141" locus_tag="LLPMBPKK_06903" class="clusterblast-orf" id="dummy-30_q7_0_all"  />
<polygon points="67,40 77,40 82,35 77,30 67,30 67,40 " style="fill:#15aed8; stroke-width:1; stroke:black; " description="&lt;b&gt;LLPMBPKK_06904&lt;/b&gt;&lt;br&gt;xanthine dehydrogenase family protein molybdopterin-binding subunit&lt;br&gt;Location: 7948137 - 7950219" locus_tag="LLPMBPKK_06904" class="clusterblast-orf" id="dummy-30_q8_0_all"  />
<polygon points="82,40 94,40 99,35 94,30 82,30 82,40 " style="fill:#a115d8; stroke-width:1; stroke:black; " description="&lt;b&gt;LLPMBPKK_06905&lt;/b&gt;&lt;br&gt;glycoside hydrolase family 65 protein&lt;br&gt;Location: 7950221 - 7952591" locus_tag="LLPMBPKK_06905" class="clusterblast-orf" id="dummy-30_q9_0_all"  />
<polygon points="100,40 101,40 106,35 101,30 100,30 100,40 " style="fill:#d86915; stroke-width:1; stroke:black; " description="&lt;b&gt;LLPMBPKK_06906&lt;/b&gt;&lt;br&gt;response regulator transcription factor&lt;br&gt;Location: 7952728 - 7953538" locus_tag="LLPMBPKK_06906" class="clusterblast-orf" id="dummy-30_q10_0_all"  />
<polygon points="112,40 116,40 121,35 116,30 112,30 112,40 " style="fill:#23d815; stroke-width:1; stroke:black; " description="&lt;b&gt;LLPMBPKK_06907&lt;/b&gt;&lt;br&gt;LuxR family transcriptional regulator&lt;br&gt;Location: 7954435 - 7955656" locus_tag="LLPMBPKK_06907" class="clusterblast-orf" id="dummy-30_q11_0_all"  />
<polygon points="122,40 122,40 127,35 122,30 122,30 122,40 " style="fill:#1585d8; stroke-width:1; stroke:black; " description="&lt;b&gt;LLPMBPKK_06908&lt;/b&gt;&lt;br&gt;FMN-dependent NADH-azoreductase&lt;br&gt;Location: 7955880 - 7956528" locus_tag="LLPMBPKK_06908" class="clusterblast-orf" id="dummy-30_q12_0_all"  />
<polygon points="127,40 131,40 136,35 131,30 127,30 127,40 " style="fill:#ca15d8; stroke-width:1; stroke:black; " description="&lt;b&gt;LLPMBPKK_06909&lt;/b&gt;&lt;br&gt;cytochrome P450&lt;br&gt;Location: 7956524 - 7957718" locus_tag="LLPMBPKK_06909" class="clusterblast-orf" id="dummy-30_q13_0_all"  />
<polygon points="139,40 256,40 261,35 256,30 139,30 139,40 " style="fill:#d89315; stroke-width:1; stroke:black; " description="&lt;b&gt;LLPMBPKK_06910&lt;/b&gt;&lt;br&gt;2-succinylbenzoate--CoA ligase&lt;br&gt;Location: 7958211 - 7975215" locus_tag="LLPMBPKK_06910" class="clusterblast-orf" id="dummy-30_q14_0_all"  />
<polygon points="261,40 370,40 375,35 370,30 261,30 261,40 " style="fill:#d89315; stroke-width:1; stroke:black; " description="&lt;b&gt;LLPMBPKK_06911&lt;/b&gt;&lt;br&gt;rifamycin polyketide synthase&lt;br&gt;Location: 7975249 - 7991275" locus_tag="LLPMBPKK_06911" class="clusterblast-orf" id="dummy-30_q15_0_all"  />
<polygon points="376,40 484,40 489,35 484,30 376,30 376,40 " style="fill:#d89315; stroke-width:1; stroke:black; " description="&lt;b&gt;LLPMBPKK_06912&lt;/b&gt;&lt;br&gt;rifamycin polyketide synthase&lt;br&gt;Location: 7991321 - 8007224" locus_tag="LLPMBPKK_06912" class="clusterblast-orf" id="dummy-30_q16_0_all"  />
<polygon points="490,40 515,40 520,35 515,30 490,30 490,40 " style="fill:#d89315; stroke-width:1; stroke:black; " description="&lt;b&gt;LLPMBPKK_06913&lt;/b&gt;&lt;br&gt;rifamycin polyketide synthase&lt;br&gt;Location: 8007313 - 8011516" locus_tag="LLPMBPKK_06913" class="clusterblast-orf" id="dummy-30_q17_0_all"  />
<polygon points="522,40 563,40 568,35 563,30 522,30 522,40 " style="fill:#d89315; stroke-width:1; stroke:black; " description="&lt;b&gt;LLPMBPKK_06914&lt;/b&gt;&lt;br&gt;rifamycin polyketide synthase&lt;br&gt;Location: 8011776 - 8018199" locus_tag="LLPMBPKK_06914" class="clusterblast-orf" id="dummy-30_q18_0_all"  />
<polygon points="568,40 639,40 644,35 639,30 568,30 568,40 " style="fill:#d89315; stroke-width:1; stroke:black; " description="&lt;b&gt;LLPMBPKK_06915&lt;/b&gt;&lt;br&gt;rifamycin polyketide synthase&lt;br&gt;Location: 8018229 - 8028825" locus_tag="LLPMBPKK_06915" class="clusterblast-orf" id="dummy-30_q19_0_all"  />
<polygon points="646,40 647,35 646,30 646,40 " style="fill:#d89315; stroke-width:1; stroke:black; " description="&lt;b&gt;LLPMBPKK_06916&lt;/b&gt;&lt;br&gt;rifamycin polyketide synthase&lt;br&gt;Location: 8029097 - 8029349" locus_tag="LLPMBPKK_06916" class="clusterblast-orf" id="dummy-30_q20_0_all"  />
<polygon points="648,40 648,40 653,35 648,30 648,30 648,40 " style="fill:#15d831; stroke-width:1; stroke:black; " description="&lt;b&gt;LLPMBPKK_06917&lt;/b&gt;&lt;br&gt;N-acetyltransferase/amide synthase&lt;br&gt;Location: 8029392 - 8030199" locus_tag="LLPMBPKK_06917" class="clusterblast-orf" id="dummy-30_q21_0_all"  />
<polygon points="654,40 658,40 663,35 658,30 654,30 654,40 " style="fill:#155bd8; stroke-width:1; stroke:black; " description="&lt;b&gt;LLPMBPKK_06918&lt;/b&gt;&lt;br&gt;electron transfer oxidoreductase&lt;br&gt;Location: 8030255 - 8031599" locus_tag="LLPMBPKK_06918" class="clusterblast-orf" id="dummy-30_q22_0_all"  />
<polygon points="664,40 667,40 672,35 667,30 664,30 664,40 " style="fill:#d815bc; stroke-width:1; stroke:black; " description="&lt;b&gt;LLPMBPKK_06919&lt;/b&gt;&lt;br&gt;3-dehydroquinate synthase&lt;br&gt;Location: 8031746 - 8032823" locus_tag="LLPMBPKK_06919" class="clusterblast-orf" id="dummy-30_q23_0_all"  />
<polygon points="672,40 677,40 682,35 677,30 672,30 672,40 " style="fill:#d8bc15; stroke-width:1; stroke:black; " description="&lt;b&gt;LLPMBPKK_06920&lt;/b&gt;&lt;br&gt;aminoDAHP synthase&lt;br&gt;Location: 8032819 - 8034238" locus_tag="LLPMBPKK_06920" class="clusterblast-orf" id="dummy-30_q24_0_all"  />
<polygon points="682,40 683,40 688,35 683,30 682,30 682,40 " style="fill:#15d85b; stroke-width:1; stroke:black; " description="&lt;b&gt;LLPMBPKK_06921&lt;/b&gt;&lt;br&gt;aminoquinate dehydrogenase&lt;br&gt;Location: 8034234 - 8035077" locus_tag="LLPMBPKK_06921" class="clusterblast-orf" id="dummy-30_q25_0_all"  />
<polygon points="689,40 693,40 698,35 693,30 689,30 689,40 " style="fill:#1531d8; stroke-width:1; stroke:black; " description="&lt;b&gt;LLPMBPKK_06922&lt;/b&gt;&lt;br&gt;3-amino-5-hydroxybenzoate synthase&lt;br&gt;Location: 8035247 - 8036408" locus_tag="LLPMBPKK_06922" class="clusterblast-orf" id="dummy-30_q26_0_all"  />
<polygon points="698,40 701,40 706,35 701,30 698,30 698,40 " style="fill:#d81593; stroke-width:1; stroke:black; " description="&lt;b&gt;LLPMBPKK_06923&lt;/b&gt;&lt;br&gt;oxidoreductase RifL&lt;br&gt;Location: 8036404 - 8037499" locus_tag="LLPMBPKK_06923" class="clusterblast-orf" id="dummy-30_q27_0_all"  />
<polygon points="706,40 706,40 711,35 706,30 706,30 706,40 " style="fill:#cad815; stroke-width:1; stroke:black; " description="&lt;b&gt;LLPMBPKK_06924&lt;/b&gt;&lt;br&gt;phosphoglycolate phosphatase&lt;br&gt;Location: 8037506 - 8038202" locus_tag="LLPMBPKK_06924" class="clusterblast-orf" id="dummy-30_q28_0_all"  />
<polygon points="711,40 712,40 717,35 712,30 711,30 711,40 " style="fill:#15d885; stroke-width:1; stroke:black; " description="&lt;b&gt;LLPMBPKK_06925&lt;/b&gt;&lt;br&gt;kanosamine kinase&lt;br&gt;Location: 8038204 - 8039122" locus_tag="LLPMBPKK_06925" class="clusterblast-orf" id="dummy-30_q29_0_all"  />
<polygon points="719,35 724,30 731,30 731,40 724,40 719,35 " style="fill:#2315d8; stroke-width:1; stroke:black; " description="&lt;b&gt;LLPMBPKK_06926&lt;/b&gt;&lt;br&gt;3-(3-hydroxyphenyl)propionate hydroxylase&lt;br&gt;Location: 8039408 - 8041073" locus_tag="LLPMBPKK_06926" class="clusterblast-orf" id="dummy-30_q30_0_all"  />
<polygon points="733,40 733,40 738,35 733,30 733,30 733,40 " style="fill:#d81569; stroke-width:1; stroke:black; " description="&lt;b&gt;LLPMBPKK_06927&lt;/b&gt;&lt;br&gt;oleoyl-(acyl-carrier-protein) hydrolase&lt;br&gt;Location: 8041281 - 8042055" locus_tag="LLPMBPKK_06927" class="clusterblast-orf" id="dummy-30_q31_0_all"  />
<polygon points="738,40 743,40 748,35 743,30 738,30 738,40 " style="fill:#a1d815; stroke-width:1; stroke:black; " description="&lt;b&gt;LLPMBPKK_06928&lt;/b&gt;&lt;br&gt;cation/H(+) antiporter&lt;br&gt;Location: 8042087 - 8043482" locus_tag="LLPMBPKK_06928" class="clusterblast-orf" id="dummy-30_q32_0_all"  />
<polygon points="748,40 751,35 748,30 748,40 " style="fill:#15d8ae; stroke-width:1; stroke:black; " description="&lt;b&gt;LLPMBPKK_06929&lt;/b&gt;&lt;br&gt;aminoDHQ dehydratase&lt;br&gt;Location: 8043478 - 8043919" locus_tag="LLPMBPKK_06929" class="clusterblast-orf" id="dummy-30_q33_0_all"  />
<polygon points="752,40 752,40 757,35 752,30 752,30 752,40 " style="fill:#4d15d8; stroke-width:1; stroke:black; " description="&lt;b&gt;LLPMBPKK_06930&lt;/b&gt;&lt;br&gt;alpha/beta hydrolase&lt;br&gt;Location: 8043968 - 8044661" locus_tag="LLPMBPKK_06930" class="clusterblast-orf" id="dummy-30_q34_0_all"  />
<polygon points="757,40 757,40 762,35 757,30 757,30 757,40 " style="fill:#d8153f; stroke-width:1; stroke:black; " description="&lt;b&gt;LLPMBPKK_06931&lt;/b&gt;&lt;br&gt;Activator of Hsp90 ATPase -like protein&lt;br&gt;Location: 8044713 - 8045403" locus_tag="LLPMBPKK_06931" class="clusterblast-orf" id="dummy-30_q35_0_all"  />
<polygon points="763,40 765,35 763,30 763,40 " style="fill:white; stroke-width:1; stroke:black; " description="&lt;b&gt;LLPMBPKK_06932&lt;/b&gt;&lt;br&gt;hypothetical protein&lt;br&gt;Location: 8045491 - 8045839" locus_tag="LLPMBPKK_06932" class="clusterblast-orf" id="dummy-30_q36_0_all"  />
<polygon points="767,40 768,35 767,30 767,40 " style="fill:white; stroke-width:1; stroke:black; " description="&lt;b&gt;LLPMBPKK_06933&lt;/b&gt;&lt;br&gt;K(+)-transporting ATPase subunit F&lt;br&gt;Location: 8046102 - 8046192" locus_tag="LLPMBPKK_06933" class="clusterblast-orf" id="dummy-30_q37_0_all"  />
<polygon points="768,40 775,40 780,35 775,30 768,30 768,40 " style="fill:white; stroke-width:1; stroke:black; " description="&lt;b&gt;LLPMBPKK_06934&lt;/b&gt;&lt;br&gt;potassium-transporting ATPase subunit KdpA&lt;br&gt;Location: 8046200 - 8047862" locus_tag="LLPMBPKK_06934" class="clusterblast-orf" id="dummy-30_q38_0_all"  />
</g>
<g label="NZ_CP018627" description="NZ_CP018627 (&lt;9298086-9374760): Streptomyces hygroscopicus strain XM201 chrom... (47% of genes show similarity), T1PKS" class="clusterblast-cluster"  >
<text x="5" y="70" class="clusterblast-acc"  >
<a xlink:href="https://antismash-db.secondarymetabolites.org/area.html?record=NZ_CP018627&amp;start=<9298086&amp;end=9374760" target="_blank">NZ_CP018627 (<9298086-9374760)</a>: Streptomyces hygroscopicus strain XM201 chrom... (47% of genes show similarity), T1PKS</text>
<line x1="10" y1="85" x2="778.0" y2="85" style="stroke-width:1; stroke:grey; "  />
</g>
<g id="a30_000"  >
<polygon points="116,85 121,80 122,80 122,90 121,90 116,85 " style="fill:white; stroke-width:1; stroke:black; " description="&lt;b&gt;SHXM_RS39520&lt;/b&gt;&lt;br&gt;MFS transporter&lt;br&gt;Location: 9298087 - 9298909" locus_tag="SHXM_RS39520" class="clusterblast-orf" id="dummy-30_h30_4_0"  />
</g>
<g id="a30_001"  >
<polygon points="122,85 125,80 125,90 122,85 " style="fill:white; stroke-width:1; stroke:black; " description="&lt;b&gt;SHXM_RS39525&lt;/b&gt;&lt;br&gt;integrase&lt;br&gt;Location: 9298916 - 9299382" locus_tag="SHXM_RS39525" class="clusterblast-orf" id="dummy-30_h30_4_1"  />
</g>
<g id="a30_002"  >
<polygon points="128,90 134,90 139,85 134,80 128,80 128,90 " style="fill:white; stroke-width:1; stroke:black; " description="&lt;b&gt;SHXM_RS39530&lt;/b&gt;&lt;br&gt;DEAD/DEAH box helicase&lt;br&gt;Location: 9299868 - 9301301" locus_tag="SHXM_RS39530" class="clusterblast-orf" id="dummy-30_h30_4_2"  />
</g>
<g id="a30_003"  >
<polygon points="140,90 141,85 140,80 140,90 " style="fill:white; stroke-width:1; stroke:black; " description="&lt;b&gt;SHXM_RS39535&lt;/b&gt;&lt;br&gt;DUF5302 domain-containing protein&lt;br&gt;Location: 9301461 - 9301703" locus_tag="SHXM_RS39535" class="clusterblast-orf" id="dummy-30_h30_4_3"  />
</g>
<g id="a30_004"  >
<polygon points="142,85 144,80 144,90 142,85 " style="fill:white; stroke-width:1; stroke:black; " description="&lt;b&gt;SHXM_RS39540&lt;/b&gt;&lt;br&gt;integrase&lt;br&gt;Location: 9301748 - 9302080" locus_tag="SHXM_RS39540" class="clusterblast-orf" id="dummy-30_h30_4_4"  />
</g>
<g id="a30_005"  >
<polygon points="147,85 152,80 154,80 154,90 152,90 147,85 " style="fill:#23d815; stroke-width:1; stroke:black; " description="&lt;b&gt;SHXM_RS39545&lt;/b&gt;&lt;br&gt;LuxR family transcriptional regulator&lt;br&gt;Location: 9302409 - 9303473&lt;br&gt;&lt;br&gt;&lt;b&gt;BlastP hit with LLPMBPKK_06907&lt;/b&gt;&lt;br&gt;Percentage identity: 38&lt;br&gt;Percentage coverage: 79&lt;br&gt;BLAST bit score: 191&lt;br&gt;E-value: 1.99e-55" locus_tag="SHXM_RS39545" class="clusterblast-orf" id="dummy-30_h30_4_5"  />
</g>
<g id="a30_006"  >
<polygon points="167,85 172,80 172,80 172,90 172,90 167,85 " style="fill:white; stroke-width:1; stroke:black; " description="&lt;b&gt;SHXM_RS39555&lt;/b&gt;&lt;br&gt;helix-turn-helix domain-containing protein&lt;br&gt;Location: 9305331 - 9305927" locus_tag="SHXM_RS39555" class="clusterblast-orf" id="dummy-30_h30_4_6"  />
</g>
<g id="a30_007"  >
<polygon points="176,90 178,85 176,80 176,90 " style="fill:white; stroke-width:1; stroke:black; " description="&lt;b&gt;SHXM_RS39560&lt;/b&gt;&lt;br&gt;flagellar motor protein MotB&lt;br&gt;Location: 9306509 - 9306775" locus_tag="SHXM_RS39560" class="clusterblast-orf" id="dummy-30_h30_4_7"  />
</g>
<g id="a30_008"  >
<polygon points="183,90 186,90 191,85 186,80 183,80 183,90 " style="fill:#23d815; stroke-width:1; stroke:black; " description="&lt;b&gt;SHXM_RS39565&lt;/b&gt;&lt;br&gt;LuxR family transcriptional regulator&lt;br&gt;Location: 9307514 - 9308605&lt;br&gt;&lt;br&gt;&lt;b&gt;BlastP hit with LLPMBPKK_06907&lt;/b&gt;&lt;br&gt;Percentage identity: 82&lt;br&gt;Percentage coverage: 82&lt;br&gt;BLAST bit score: 504&lt;br&gt;E-value: 9.65e-178" locus_tag="SHXM_RS39565" class="clusterblast-orf" id="dummy-30_h30_4_8"  />
</g>
<g id="a30_009"  >
<polygon points="192,90 196,90 201,85 196,80 192,80 192,90 " style="fill:white; stroke-width:1; stroke:black; " description="&lt;b&gt;SHXM_RS39570&lt;/b&gt;&lt;br&gt;crotonyl-CoA carboxylase/reductase&lt;br&gt;Location: 9308723 - 9310063" locus_tag="SHXM_RS39570" class="clusterblast-orf" id="dummy-30_h30_4_9"  />
</g>
<g id="a30_0010"  >
<polygon points="202,90 203,90 208,85 203,80 202,80 202,90 " style="fill:white; stroke-width:1; stroke:black; " description="&lt;b&gt;SHXM_RS39575&lt;/b&gt;&lt;br&gt;3-hydroxyacyl-CoA dehydrogenase family protein&lt;br&gt;Location: 9310195 - 9311055" locus_tag="SHXM_RS39575" class="clusterblast-orf" id="dummy-30_h30_4_10"  />
</g>
<g id="a30_0011"  >
<polygon points="208,90 210,85 208,80 208,90 " style="fill:white; stroke-width:1; stroke:black; " description="&lt;b&gt;SHXM_RS39580&lt;/b&gt;&lt;br&gt;acyl carrier protein&lt;br&gt;Location: 9311052 - 9311321" locus_tag="SHXM_RS39580" class="clusterblast-orf" id="dummy-30_h30_4_11"  />
</g>
<g id="a30_0012"  >
<polygon points="210,90 213,90 218,85 213,80 210,80 210,90 " style="fill:white; stroke-width:1; stroke:black; " description="&lt;b&gt;SHXM_RS39585&lt;/b&gt;&lt;br&gt;acyl-CoA dehydrogenase family protein&lt;br&gt;Location: 9311314 - 9312429" locus_tag="SHXM_RS39585" class="clusterblast-orf" id="dummy-30_h30_4_12"  />
</g>
<g id="a30_0013"  >
<polygon points="218,90 221,90 226,85 221,80 218,80 218,90 " style="fill:white; stroke-width:1; stroke:black; " description="&lt;b&gt;SHXM_RS39590&lt;/b&gt;&lt;br&gt;HAD-IIIC family phosphatase&lt;br&gt;Location: 9312426 - 9313487" locus_tag="SHXM_RS39590" class="clusterblast-orf" id="dummy-30_h30_4_13"  />
</g>
<g id="a30_0014"  >
<polygon points="226,85 231,80 231,80 231,90 231,90 226,85 " style="fill:white; stroke-width:1; stroke:black; " description="&lt;b&gt;SHXM_RS39595&lt;/b&gt;&lt;br&gt;class I SAM-dependent methyltransferase&lt;br&gt;Location: 9313544 - 9314212" locus_tag="SHXM_RS39595" class="clusterblast-orf" id="dummy-30_h30_4_14"  />
</g>
<g id="a30_0015"  >
<polygon points="233,90 239,90 244,85 239,80 233,80 233,90 " style="fill:white; stroke-width:1; stroke:black; " description="&lt;b&gt;SHXM_RS52145&lt;/b&gt;&lt;br&gt;acyl--CoA ligase&lt;br&gt;Location: 9314539 - 9316104" locus_tag="SHXM_RS52145" class="clusterblast-orf" id="dummy-30_h30_4_15"  />
</g>
<g id="a30_0016"  >
<polygon points="253,90 350,90 355,85 350,80 253,80 253,90 " style="fill:#d89315; stroke-width:1; stroke:black; " description="&lt;b&gt;SHXM_RS39600&lt;/b&gt;&lt;br&gt;type I polyketide synthase&lt;br&gt;Location: 9317380 - 9331539&lt;br&gt;&lt;br&gt;&lt;b&gt;BlastP hit with LLPMBPKK_06910&lt;/b&gt;&lt;br&gt;Percentage identity: 68&lt;br&gt;Percentage coverage: 85&lt;br&gt;BLAST bit score: 5881&lt;br&gt;E-value: 0.0&lt;br&gt;&lt;br&gt;&lt;b&gt;BlastP hit with LLPMBPKK_06911&lt;/b&gt;&lt;br&gt;Percentage identity: 43&lt;br&gt;Percentage coverage: 101&lt;br&gt;BLAST bit score: 3496&lt;br&gt;E-value: 0.0&lt;br&gt;&lt;br&gt;&lt;b&gt;BlastP hit with LLPMBPKK_06912&lt;/b&gt;&lt;br&gt;Percentage identity: 44&lt;br&gt;Percentage coverage: 101&lt;br&gt;BLAST bit score: 3413&lt;br&gt;E-value: 0.0&lt;br&gt;&lt;br&gt;&lt;b&gt;BlastP hit with LLPMBPKK_06913&lt;/b&gt;&lt;br&gt;Percentage identity: 64&lt;br&gt;Percentage coverage: 95&lt;br&gt;BLAST bit score: 1488&lt;br&gt;E-value: 0.0&lt;br&gt;&lt;br&gt;&lt;b&gt;BlastP hit with LLPMBPKK_06914&lt;/b&gt;&lt;br&gt;Percentage identity: 54&lt;br&gt;Percentage coverage: 86&lt;br&gt;BLAST bit score: 1591&lt;br&gt;E-value: 0.0&lt;br&gt;&lt;br&gt;&lt;b&gt;BlastP hit with LLPMBPKK_06915&lt;/b&gt;&lt;br&gt;Percentage identity: 52&lt;br&gt;Percentage coverage: 85&lt;br&gt;BLAST bit score: 2486&lt;br&gt;E-value: 0.0&lt;br&gt;&lt;br&gt;&lt;b&gt;BlastP hit with LLPMBPKK_06916&lt;/b&gt;&lt;br&gt;Percentage identity: 43&lt;br&gt;Percentage coverage: 81&lt;br&gt;BLAST bit score: 62&lt;br&gt;E-value: 4.76e-11" locus_tag="SHXM_RS39600" class="clusterblast-orf" id="dummy-30_h30_4_16"  />
</g>
<g id="a30_0017"  >
<polygon points="355,90 396,90 401,85 396,80 355,80 355,90 " style="fill:#d89315; stroke-width:1; stroke:black; " description="&lt;b&gt;SHXM_RS39605&lt;/b&gt;&lt;br&gt;type I polyketide synthase&lt;br&gt;Location: 9331588 - 9338085&lt;br&gt;&lt;br&gt;&lt;b&gt;BlastP hit with LLPMBPKK_06910&lt;/b&gt;&lt;br&gt;Percentage identity: 49&lt;br&gt;Percentage coverage: 37&lt;br&gt;BLAST bit score: 1575&lt;br&gt;E-value: 0.0&lt;br&gt;&lt;br&gt;&lt;b&gt;BlastP hit with LLPMBPKK_06911&lt;/b&gt;&lt;br&gt;Percentage identity: 57&lt;br&gt;Percentage coverage: 39&lt;br&gt;BLAST bit score: 2113&lt;br&gt;E-value: 0.0&lt;br&gt;&lt;br&gt;&lt;b&gt;BlastP hit with LLPMBPKK_06912&lt;/b&gt;&lt;br&gt;Percentage identity: 55&lt;br&gt;Percentage coverage: 39&lt;br&gt;BLAST bit score: 1926&lt;br&gt;E-value: 0.0&lt;br&gt;&lt;br&gt;&lt;b&gt;BlastP hit with LLPMBPKK_06913&lt;/b&gt;&lt;br&gt;Percentage identity: 63&lt;br&gt;Percentage coverage: 98&lt;br&gt;BLAST bit score: 1587&lt;br&gt;E-value: 0.0&lt;br&gt;&lt;br&gt;&lt;b&gt;BlastP hit with LLPMBPKK_06914&lt;/b&gt;&lt;br&gt;Percentage identity: 49&lt;br&gt;Percentage coverage: 100&lt;br&gt;BLAST bit score: 1694&lt;br&gt;E-value: 0.0&lt;br&gt;&lt;br&gt;&lt;b&gt;BlastP hit with LLPMBPKK_06915&lt;/b&gt;&lt;br&gt;Percentage identity: 48&lt;br&gt;Percentage coverage: 60&lt;br&gt;BLAST bit score: 1598&lt;br&gt;E-value: 0.0&lt;br&gt;&lt;br&gt;&lt;b&gt;BlastP hit with LLPMBPKK_06916&lt;/b&gt;&lt;br&gt;Percentage identity: 43&lt;br&gt;Percentage coverage: 84&lt;br&gt;BLAST bit score: 64&lt;br&gt;E-value: 1.35e-11" locus_tag="SHXM_RS39605" class="clusterblast-orf" id="dummy-30_h30_4_17"  />
</g>
<g id="a30_0018"  >
<polygon points="402,90 443,90 448,85 443,80 402,80 402,90 " style="fill:#d89315; stroke-width:1; stroke:black; " description="&lt;b&gt;SHXM_RS39610&lt;/b&gt;&lt;br&gt;type I polyketide synthase&lt;br&gt;Location: 9338145 - 9344639&lt;br&gt;&lt;br&gt;&lt;b&gt;BlastP hit with LLPMBPKK_06910&lt;/b&gt;&lt;br&gt;Percentage identity: 51&lt;br&gt;Percentage coverage: 37&lt;br&gt;BLAST bit score: 1684&lt;br&gt;E-value: 0.0&lt;br&gt;&lt;br&gt;&lt;b&gt;BlastP hit with LLPMBPKK_06911&lt;/b&gt;&lt;br&gt;Percentage identity: 56&lt;br&gt;Percentage coverage: 39&lt;br&gt;BLAST bit score: 2001&lt;br&gt;E-value: 0.0&lt;br&gt;&lt;br&gt;&lt;b&gt;BlastP hit with LLPMBPKK_06912&lt;/b&gt;&lt;br&gt;Percentage identity: 58&lt;br&gt;Percentage coverage: 39&lt;br&gt;BLAST bit score: 2044&lt;br&gt;E-value: 0.0&lt;br&gt;&lt;br&gt;&lt;b&gt;BlastP hit with LLPMBPKK_06913&lt;/b&gt;&lt;br&gt;Percentage identity: 67&lt;br&gt;Percentage coverage: 98&lt;br&gt;BLAST bit score: 1701&lt;br&gt;E-value: 0.0&lt;br&gt;&lt;br&gt;&lt;b&gt;BlastP hit with LLPMBPKK_06914&lt;/b&gt;&lt;br&gt;Percentage identity: 53&lt;br&gt;Percentage coverage: 97&lt;br&gt;BLAST bit score: 1792&lt;br&gt;E-value: 0.0&lt;br&gt;&lt;br&gt;&lt;b&gt;BlastP hit with LLPMBPKK_06915&lt;/b&gt;&lt;br&gt;Percentage identity: 51&lt;br&gt;Percentage coverage: 60&lt;br&gt;BLAST bit score: 1700&lt;br&gt;E-value: 0.0&lt;br&gt;&lt;br&gt;&lt;b&gt;BlastP hit with LLPMBPKK_06916&lt;/b&gt;&lt;br&gt;Percentage identity: 44&lt;br&gt;Percentage coverage: 80&lt;br&gt;BLAST bit score: 65&lt;br&gt;E-value: 7.25e-12" locus_tag="SHXM_RS39610" class="clusterblast-orf" id="dummy-30_h30_4_18"  />
</g>
<g id="a30_0019"  >
<polygon points="449,90 483,90 488,85 483,80 449,80 449,90 " style="fill:#d89315; stroke-width:1; stroke:black; " description="&lt;b&gt;SHXM_RS39615&lt;/b&gt;&lt;br&gt;type I polyketide synthase&lt;br&gt;Location: 9344692 - 9350148&lt;br&gt;&lt;br&gt;&lt;b&gt;BlastP hit with LLPMBPKK_06910&lt;/b&gt;&lt;br&gt;Percentage identity: 56&lt;br&gt;Percentage coverage: 31&lt;br&gt;BLAST bit score: 1591&lt;br&gt;E-value: 0.0&lt;br&gt;&lt;br&gt;&lt;b&gt;BlastP hit with LLPMBPKK_06911&lt;/b&gt;&lt;br&gt;Percentage identity: 55&lt;br&gt;Percentage coverage: 33&lt;br&gt;BLAST bit score: 1665&lt;br&gt;E-value: 0.0&lt;br&gt;&lt;br&gt;&lt;b&gt;BlastP hit with LLPMBPKK_06912&lt;/b&gt;&lt;br&gt;Percentage identity: 57&lt;br&gt;Percentage coverage: 33&lt;br&gt;BLAST bit score: 1684&lt;br&gt;E-value: 0.0&lt;br&gt;&lt;br&gt;&lt;b&gt;BlastP hit with LLPMBPKK_06913&lt;/b&gt;&lt;br&gt;Percentage identity: 58&lt;br&gt;Percentage coverage: 98&lt;br&gt;BLAST bit score: 1353&lt;br&gt;E-value: 0.0&lt;br&gt;&lt;br&gt;&lt;b&gt;BlastP hit with LLPMBPKK_06914&lt;/b&gt;&lt;br&gt;Percentage identity: 52&lt;br&gt;Percentage coverage: 86&lt;br&gt;BLAST bit score: 1553&lt;br&gt;E-value: 0.0&lt;br&gt;&lt;br&gt;&lt;b&gt;BlastP hit with LLPMBPKK_06915&lt;/b&gt;&lt;br&gt;Percentage identity: 50&lt;br&gt;Percentage coverage: 51&lt;br&gt;BLAST bit score: 1420&lt;br&gt;E-value: 0.0" locus_tag="SHXM_RS39615" class="clusterblast-orf" id="dummy-30_h30_4_19"  />
</g>
<g id="a30_0020"  >
<polygon points="488,90 521,90 526,85 521,80 488,80 488,90 " style="fill:#d89315; stroke-width:1; stroke:black; " description="&lt;b&gt;SHXM_RS39620&lt;/b&gt;&lt;br&gt;type I polyketide synthase&lt;br&gt;Location: 9350178 - 9355466&lt;br&gt;&lt;br&gt;&lt;b&gt;BlastP hit with LLPMBPKK_06910&lt;/b&gt;&lt;br&gt;Percentage identity: 52&lt;br&gt;Percentage coverage: 31&lt;br&gt;BLAST bit score: 1497&lt;br&gt;E-value: 0.0&lt;br&gt;&lt;br&gt;&lt;b&gt;BlastP hit with LLPMBPKK_06911&lt;/b&gt;&lt;br&gt;Percentage identity: 53&lt;br&gt;Percentage coverage: 33&lt;br&gt;BLAST bit score: 1607&lt;br&gt;E-value: 0.0&lt;br&gt;&lt;br&gt;&lt;b&gt;BlastP hit with LLPMBPKK_06912&lt;/b&gt;&lt;br&gt;Percentage identity: 53&lt;br&gt;Percentage coverage: 33&lt;br&gt;BLAST bit score: 1571&lt;br&gt;E-value: 0.0&lt;br&gt;&lt;br&gt;&lt;b&gt;BlastP hit with LLPMBPKK_06913&lt;/b&gt;&lt;br&gt;Percentage identity: 52&lt;br&gt;Percentage coverage: 98&lt;br&gt;BLAST bit score: 1238&lt;br&gt;E-value: 0.0&lt;br&gt;&lt;br&gt;&lt;b&gt;BlastP hit with LLPMBPKK_06914&lt;/b&gt;&lt;br&gt;Percentage identity: 51&lt;br&gt;Percentage coverage: 81&lt;br&gt;BLAST bit score: 1481&lt;br&gt;E-value: 0.0&lt;br&gt;&lt;br&gt;&lt;b&gt;BlastP hit with LLPMBPKK_06915&lt;/b&gt;&lt;br&gt;Percentage identity: 51&lt;br&gt;Percentage coverage: 50&lt;br&gt;BLAST bit score: 1467&lt;br&gt;E-value: 0.0&lt;br&gt;&lt;br&gt;&lt;b&gt;BlastP hit with LLPMBPKK_06916&lt;/b&gt;&lt;br&gt;Percentage identity: 39&lt;br&gt;Percentage coverage: 80&lt;br&gt;BLAST bit score: 55&lt;br&gt;E-value: 1.78e-08" locus_tag="SHXM_RS39620" class="clusterblast-orf" id="dummy-30_h30_4_20"  />
</g>
<g id="a30_0021"  >
<polygon points="526,90 527,90 532,85 527,80 526,80 526,90 " style="fill:#15d831; stroke-width:1; stroke:black; " description="&lt;b&gt;SHXM_RS39625&lt;/b&gt;&lt;br&gt;arylamine N-acetyltransferase&lt;br&gt;Location: 9355486 - 9356319&lt;br&gt;&lt;br&gt;&lt;b&gt;BlastP hit with LLPMBPKK_06917&lt;/b&gt;&lt;br&gt;Percentage identity: 34&lt;br&gt;Percentage coverage: 94&lt;br&gt;BLAST bit score: 117&lt;br&gt;E-value: 2.6e-29" locus_tag="SHXM_RS39625" class="clusterblast-orf" id="dummy-30_h30_4_21"  />
</g>
<g id="a30_0022"  >
<polygon points="532,90 535,90 540,85 535,80 532,80 532,90 " style="fill:#d815bc; stroke-width:1; stroke:black; " description="&lt;b&gt;SHXM_RS39630&lt;/b&gt;&lt;br&gt;3-dehydroquinate synthase&lt;br&gt;Location: 9356379 - 9357449&lt;br&gt;&lt;br&gt;&lt;b&gt;BlastP hit with LLPMBPKK_06919&lt;/b&gt;&lt;br&gt;Percentage identity: 78&lt;br&gt;Percentage coverage: 96&lt;br&gt;BLAST bit score: 528&lt;br&gt;E-value: 3.1e-188" locus_tag="SHXM_RS39630" class="clusterblast-orf" id="dummy-30_h30_4_22"  />
</g>
<g id="a30_0023"  >
<polygon points="540,90 544,90 549,85 544,80 540,80 540,90 " style="fill:#d8bc15; stroke-width:1; stroke:black; " description="&lt;b&gt;SHXM_RS39635&lt;/b&gt;&lt;br&gt;3-deoxy-7-phosphoheptulonate synthase&lt;br&gt;Location: 9357446 - 9358720&lt;br&gt;&lt;br&gt;&lt;b&gt;BlastP hit with LLPMBPKK_06920&lt;/b&gt;&lt;br&gt;Percentage identity: 63&lt;br&gt;Percentage coverage: 93&lt;br&gt;BLAST bit score: 516&lt;br&gt;E-value: 1.95e-180" locus_tag="SHXM_RS39635" class="clusterblast-orf" id="dummy-30_h30_4_23"  />
</g>
<g id="a30_0024"  >
<polygon points="549,90 550,90 555,85 550,80 549,80 549,90 " style="fill:#15d85b; stroke-width:1; stroke:black; " description="&lt;b&gt;SHXM_RS39640&lt;/b&gt;&lt;br&gt;hypothetical protein&lt;br&gt;Location: 9358717 - 9359550&lt;br&gt;&lt;br&gt;&lt;b&gt;BlastP hit with LLPMBPKK_06921&lt;/b&gt;&lt;br&gt;Percentage identity: 73&lt;br&gt;Percentage coverage: 95&lt;br&gt;BLAST bit score: 383&lt;br&gt;E-value: 2.04e-133" locus_tag="SHXM_RS39640" class="clusterblast-orf" id="dummy-30_h30_4_24"  />
</g>
<g id="a30_0025"  >
<polygon points="556,90 559,90 564,85 559,80 556,80 556,90 " style="fill:#1531d8; stroke-width:1; stroke:black; " description="&lt;b&gt;SHXM_RS39645&lt;/b&gt;&lt;br&gt;DegT/DnrJ/EryC1/StrS family aminotransferase&lt;br&gt;Location: 9359742 - 9360902&lt;br&gt;&lt;br&gt;&lt;b&gt;BlastP hit with LLPMBPKK_06922&lt;/b&gt;&lt;br&gt;Percentage identity: 82&lt;br&gt;Percentage coverage: 100&lt;br&gt;BLAST bit score: 619&lt;br&gt;E-value: 4.69e-223" locus_tag="SHXM_RS39645" class="clusterblast-orf" id="dummy-30_h30_4_25"  />
</g>
<g id="a30_0026"  >
<polygon points="564,90 567,90 572,85 567,80 564,80 564,90 " style="fill:#d81593; stroke-width:1; stroke:black; " description="&lt;b&gt;SHXM_RS39650&lt;/b&gt;&lt;br&gt;Gfo/Idh/MocA family oxidoreductase&lt;br&gt;Location: 9360899 - 9361999&lt;br&gt;&lt;br&gt;&lt;b&gt;BlastP hit with LLPMBPKK_06923&lt;/b&gt;&lt;br&gt;Percentage identity: 71&lt;br&gt;Percentage coverage: 96&lt;br&gt;BLAST bit score: 491&lt;br&gt;E-value: 2.25e-173" locus_tag="SHXM_RS39650" class="clusterblast-orf" id="dummy-30_h30_4_26"  />
</g>
<g id="a30_0027"  >
<polygon points="572,90 572,90 577,85 572,80 572,80 572,90 " style="fill:#cad815; stroke-width:1; stroke:black; " description="&lt;b&gt;SHXM_RS39655&lt;/b&gt;&lt;br&gt;HAD-IA family hydrolase&lt;br&gt;Location: 9361996 - 9362694&lt;br&gt;&lt;br&gt;&lt;b&gt;BlastP hit with LLPMBPKK_06924&lt;/b&gt;&lt;br&gt;Percentage identity: 78&lt;br&gt;Percentage coverage: 91&lt;br&gt;BLAST bit score: 322&lt;br&gt;E-value: 1.39e-110" locus_tag="SHXM_RS39655" class="clusterblast-orf" id="dummy-30_h30_4_27"  />
</g>
<g id="a30_0028"  >
<polygon points="577,90 579,90 584,85 579,80 577,80 577,90 " style="fill:#15d885; stroke-width:1; stroke:black; " description="&lt;b&gt;SHXM_RS39660&lt;/b&gt;&lt;br&gt;ROK family protein&lt;br&gt;Location: 9362633 - 9363631&lt;br&gt;&lt;br&gt;&lt;b&gt;BlastP hit with LLPMBPKK_06925&lt;/b&gt;&lt;br&gt;Percentage identity: 64&lt;br&gt;Percentage coverage: 95&lt;br&gt;BLAST bit score: 361&lt;br&gt;E-value: 2.33e-123" locus_tag="SHXM_RS39660" class="clusterblast-orf" id="dummy-30_h30_4_28"  />
</g>
<g id="a30_0029"  >
<polygon points="584,90 592,90 597,85 592,80 584,80 584,90 " style="fill:white; stroke-width:1; stroke:black; " description="&lt;b&gt;SHXM_RS39665&lt;/b&gt;&lt;br&gt;AMP-binding protein&lt;br&gt;Location: 9363711 - 9365408" locus_tag="SHXM_RS39665" class="clusterblast-orf" id="dummy-30_h30_4_29"  />
</g>
<g id="a30_0030"  >
<polygon points="597,85 602,80 609,80 609,90 602,90 597,85 " style="fill:#2315d8; stroke-width:1; stroke:black; " description="&lt;b&gt;SHXM_RS39670&lt;/b&gt;&lt;br&gt;bifunctional 3-(3-hydroxy-phenyl)propionate/3-hydroxycinnamic acid hydroxylase&lt;br&gt;Location: 9365525 - 9367150&lt;br&gt;&lt;br&gt;&lt;b&gt;BlastP hit with LLPMBPKK_06926&lt;/b&gt;&lt;br&gt;Percentage identity: 68&lt;br&gt;Percentage coverage: 97&lt;br&gt;BLAST bit score: 719&lt;br&gt;E-value: 2.55e-257" locus_tag="SHXM_RS39670" class="clusterblast-orf" id="dummy-30_h30_4_30"  />
</g>
<g id="a30_0031"  >
<polygon points="611,90 611,90 616,85 611,80 611,80 611,90 " style="fill:#d81569; stroke-width:1; stroke:black; " description="&lt;b&gt;SHXM_RS39675&lt;/b&gt;&lt;br&gt;thioesterase&lt;br&gt;Location: 9367386 - 9368150&lt;br&gt;&lt;br&gt;&lt;b&gt;BlastP hit with LLPMBPKK_06927&lt;/b&gt;&lt;br&gt;Percentage identity: 72&lt;br&gt;Percentage coverage: 97&lt;br&gt;BLAST bit score: 374&lt;br&gt;E-value: 1.67e-130" locus_tag="SHXM_RS39675" class="clusterblast-orf" id="dummy-30_h30_4_31"  />
</g>
<g id="a30_0032"  >
<polygon points="617,90 620,85 617,80 617,90 " style="fill:#15d8ae; stroke-width:1; stroke:black; " description="&lt;b&gt;SHXM_RS39680&lt;/b&gt;&lt;br&gt;3-dehydroquinate dehydratase&lt;br&gt;Location: 9368201 - 9368644&lt;br&gt;&lt;br&gt;&lt;b&gt;BlastP hit with LLPMBPKK_06929&lt;/b&gt;&lt;br&gt;Percentage identity: 78&lt;br&gt;Percentage coverage: 97&lt;br&gt;BLAST bit score: 227&lt;br&gt;E-value: 5.43e-76" locus_tag="SHXM_RS39680" class="clusterblast-orf" id="dummy-30_h30_4_32"  />
</g>
<g id="a30_0033"  >
<polygon points="620,90 625,90 630,85 625,80 620,80 620,90 " style="fill:white; stroke-width:1; stroke:black; " description="&lt;b&gt;SHXM_RS39685&lt;/b&gt;&lt;br&gt;crotonyl-CoA carboxylase/reductase&lt;br&gt;Location: 9368748 - 9370106" locus_tag="SHXM_RS39685" class="clusterblast-orf" id="dummy-30_h30_4_33"  />
</g>
<g id="a30_0034"  >
<polygon points="630,90 638,90 643,85 638,80 630,80 630,90 " style="fill:white; stroke-width:1; stroke:black; " description="&lt;b&gt;SHXM_RS39690&lt;/b&gt;&lt;br&gt;fatty acyl-AMP ligase&lt;br&gt;Location: 9370110 - 9371876" locus_tag="SHXM_RS39690" class="clusterblast-orf" id="dummy-30_h30_4_34"  />
</g>
<g id="a30_0035"  >
<polygon points="643,90 645,90 650,85 645,80 643,80 643,90 " style="fill:white; stroke-width:1; stroke:black; " description="&lt;b&gt;SHXM_RS39695&lt;/b&gt;&lt;br&gt;ketoacyl-ACP synthase III&lt;br&gt;Location: 9371876 - 9372871" locus_tag="SHXM_RS39695" class="clusterblast-orf" id="dummy-30_h30_4_35"  />
</g>
<g id="a30_0036"  >
<polygon points="651,90 654,85 651,80 651,90 " style="fill:white; stroke-width:1; stroke:black; " description="&lt;b&gt;SHXM_RS39700&lt;/b&gt;&lt;br&gt;hypothetical protein&lt;br&gt;Location: 9372978 - 9373394" locus_tag="SHXM_RS39700" class="clusterblast-orf" id="dummy-30_h30_4_36"  />
</g>
<g id="a30_0037"  >
<polygon points="658,85 663,80 663,80 663,90 663,90 658,85 " style="fill:white; stroke-width:1; stroke:black; " description="&lt;b&gt;SHXM_RS39710&lt;/b&gt;&lt;br&gt;GntR family transcriptional regulator&lt;br&gt;Location: 9374053 - 9374760" locus_tag="SHXM_RS39710" class="clusterblast-orf" id="dummy-30_h30_4_37"  />
</g>
</svg>
