<svg xmlns="http://www.w3.org/2000/svg" xmlns:xlink="http://www.w3.org/1999/xlink" version="1.1" x="0" y="0" height="230" width="800" viewBox="0 0 800 230" preserveAspectRatio="none"  >
<g label="Query sequence" class="clusterblast-cluster"  >
<text x="5" y="20" class="clusterblast-acc"  >
Query sequence</text>
<line x1="10" y1="35" x2="778.0" y2="35" style="stroke-width:1; stroke:grey; "  />
<polygon points="18,35 23,30 34,30 34,40 23,40 18,35 " style="fill:#d81515; stroke-width:1; stroke:black; " description="&lt;b&gt;LLPMBPKK_06120&lt;/b&gt;&lt;br&gt;TerB family tellurite resistance protein&lt;br&gt;Location: 7067757 - 7068213" locus_tag="LLPMBPKK_06120" class="clusterblast-orf" id="dummy-25_q0_0_all"  />
<polygon points="42,35 47,30 59,30 59,40 47,40 42,35 " style="fill:#67d815; stroke-width:1; stroke:black; " description="&lt;b&gt;LLPMBPKK_06121&lt;/b&gt;&lt;br&gt;hypothetical protein&lt;br&gt;Location: 7068443 - 7068896" locus_tag="LLPMBPKK_06121" class="clusterblast-orf" id="dummy-25_q1_0_all"  />
<polygon points="59,35 64,30 84,30 84,40 64,40 59,35 " style="fill:#15b9d8; stroke-width:1; stroke:black; " description="&lt;b&gt;LLPMBPKK_06122&lt;/b&gt;&lt;br&gt;cholesterol esterase&lt;br&gt;Location: 7068901 - 7069600" locus_tag="LLPMBPKK_06122" class="clusterblast-orf" id="dummy-25_q2_0_all"  />
<polygon points="107,40 125,40 130,35 125,30 107,30 107,40 " style="fill:#a515d8; stroke-width:1; stroke:black; " description="&lt;b&gt;LLPMBPKK_06123&lt;/b&gt;&lt;br&gt;hypothetical protein&lt;br&gt;Location: 7070241 - 7070892" locus_tag="LLPMBPKK_06123" class="clusterblast-orf" id="dummy-25_q3_0_all"  />
<polygon points="131,35 136,30 165,30 165,40 136,40 131,35 " style="fill:#d85315; stroke-width:1; stroke:black; " description="&lt;b&gt;LLPMBPKK_06124&lt;/b&gt;&lt;br&gt;chitin-binding protein&lt;br&gt;Location: 7070910 - 7071852" locus_tag="LLPMBPKK_06124" class="clusterblast-orf" id="dummy-25_q4_0_all"  />
<polygon points="180,40 198,40 203,35 198,30 180,30 180,40 " style="fill:#2ad815; stroke-width:1; stroke:black; " description="&lt;b&gt;LLPMBPKK_06125&lt;/b&gt;&lt;br&gt;TetR family transcriptional regulator&lt;br&gt;Location: 7072281 - 7072929" locus_tag="LLPMBPKK_06125" class="clusterblast-orf" id="dummy-25_q5_0_all"  />
<polygon points="204,40 242,40 247,35 242,30 204,30 204,40 " style="fill:#157cd8; stroke-width:1; stroke:black; " description="&lt;b&gt;LLPMBPKK_06126&lt;/b&gt;&lt;br&gt;protein-glutamate O-methyltransferase familyprotein&lt;br&gt;Location: 7072951 - 7074151" locus_tag="LLPMBPKK_06126" class="clusterblast-orf" id="dummy-25_q6_0_all"  />
<polygon points="248,35 253,30 293,30 293,40 253,40 248,35 " style="fill:#d815ce; stroke-width:1; stroke:black; " description="&lt;b&gt;LLPMBPKK_06127&lt;/b&gt;&lt;br&gt;cytochrome P450&lt;br&gt;Location: 7074170 - 7075436" locus_tag="LLPMBPKK_06127" class="clusterblast-orf" id="dummy-25_q7_0_all"  />
<polygon points="293,35 298,30 323,30 323,40 298,40 293,35 " style="fill:#d89015; stroke-width:1; stroke:black; " description="&lt;b&gt;LLPMBPKK_06128&lt;/b&gt;&lt;br&gt;alpha/beta fold hydrolase&lt;br&gt;Location: 7075432 - 7076287" locus_tag="LLPMBPKK_06128" class="clusterblast-orf" id="dummy-25_q8_0_all"  />
<polygon points="329,40 401,40 406,35 401,30 329,30 329,40 " style="fill:#15d83e; stroke-width:1; stroke:black; " description="&lt;b&gt;LLPMBPKK_06129&lt;/b&gt;&lt;br&gt;germacradienol/geosmin synthase&lt;br&gt;Location: 7076439 - 7078602" locus_tag="LLPMBPKK_06129" class="clusterblast-orf" id="dummy-25_q9_0_all"  />
<polygon points="411,40 473,40 478,35 473,30 411,30 411,40 " style="fill:#153ed8; stroke-width:1; stroke:black; " description="&lt;b&gt;LLPMBPKK_06130&lt;/b&gt;&lt;br&gt;laccase&lt;br&gt;Location: 7078716 - 7080591" locus_tag="LLPMBPKK_06130" class="clusterblast-orf" id="dummy-25_q10_0_all"  />
<polygon points="479,35 484,30 488,30 488,40 484,40 479,35 " style="fill:#d81590; stroke-width:1; stroke:black; " description="&lt;b&gt;LLPMBPKK_06131&lt;/b&gt;&lt;br&gt;CTP synthase&lt;br&gt;Location: 7080630 - 7080876" locus_tag="LLPMBPKK_06131" class="clusterblast-orf" id="dummy-25_q11_0_all"  />
<polygon points="512,40 515,40 520,35 515,30 512,30 512,40 " style="fill:#d8ce15; stroke-width:1; stroke:black; " description="&lt;b&gt;LLPMBPKK_06132&lt;/b&gt;&lt;br&gt;PDZ domain-containing protein&lt;br&gt;Location: 7081561 - 7081774" locus_tag="LLPMBPKK_06132" class="clusterblast-orf" id="dummy-25_q12_0_all"  />
<polygon points="531,40 566,40 571,35 566,30 531,30 531,40 " style="fill:#15d87c; stroke-width:1; stroke:black; " description="&lt;b&gt;LLPMBPKK_06133&lt;/b&gt;&lt;br&gt;aminopeptidase P family protein&lt;br&gt;Location: 7082075 - 7083203" locus_tag="LLPMBPKK_06133" class="clusterblast-orf" id="dummy-25_q13_0_all"  />
<polygon points="573,40 602,40 607,35 602,30 573,30 573,40 " style="fill:#2a15d8; stroke-width:1; stroke:black; " description="&lt;b&gt;LLPMBPKK_06134&lt;/b&gt;&lt;br&gt;aminoglycoside phosphotransferase family protein&lt;br&gt;Location: 7083255 - 7084191" locus_tag="LLPMBPKK_06134" class="clusterblast-orf" id="dummy-25_q14_0_all"  />
<polygon points="608,35 613,30 671,30 671,40 613,40 608,35 " style="fill:#d81553; stroke-width:1; stroke:black; " description="&lt;b&gt;LLPMBPKK_06135&lt;/b&gt;&lt;br&gt;malto-oligosyltrehalose trehalohydrolase&lt;br&gt;Location: 7084236 - 7085982" locus_tag="LLPMBPKK_06135" class="clusterblast-orf" id="dummy-25_q15_0_all"  />
<polygon points="675,40 692,40 697,35 692,30 675,30 675,40 " style="fill:#a5d815; stroke-width:1; stroke:black; " description="&lt;b&gt;LLPMBPKK_06136&lt;/b&gt;&lt;br&gt;FHA domain-containing protein&lt;br&gt;Location: 7086090 - 7086711" locus_tag="LLPMBPKK_06136" class="clusterblast-orf" id="dummy-25_q16_0_all"  />
<polygon points="701,40 711,40 716,35 711,30 701,30 701,40 " style="fill:#15d8b9; stroke-width:1; stroke:black; " description="&lt;b&gt;LLPMBPKK_06137&lt;/b&gt;&lt;br&gt;serine protease&lt;br&gt;Location: 7086831 - 7087245" locus_tag="LLPMBPKK_06137" class="clusterblast-orf" id="dummy-25_q17_0_all"  />
<polygon points="717,35 722,30 762,30 762,40 722,40 717,35 " style="fill:#6715d8; stroke-width:1; stroke:black; " description="&lt;b&gt;LLPMBPKK_06138&lt;/b&gt;&lt;br&gt;3-hydroxyacyl-CoA dehydrogenase&lt;br&gt;Location: 7087271 - 7088522" locus_tag="LLPMBPKK_06138" class="clusterblast-orf" id="dummy-25_q18_0_all"  />
</g>
<g label="NZ_MQUS01000014" description="NZ_MQUS01000014 (43358-65521): Streptomyces sp. IMTB 2501 IMTB 2501 contig 33... (89% of genes show similarity), terpene" class="clusterblast-cluster"  >
<text x="5" y="70" class="clusterblast-acc"  >
<a xlink:href="https://antismash-db.secondarymetabolites.org/area.html?record=NZ_MQUS01000014&amp;start=43358&amp;end=65521" target="_blank">NZ_MQUS01000014 (43358-65521)</a>: Streptomyces sp. IMTB 2501 IMTB 2501 contig 33... (89% of genes show similarity), terpene</text>
<line x1="10" y1="85" x2="778.0" y2="85" style="stroke-width:1; stroke:grey; "  />
</g>
<g id="a25_000"  >
<polygon points="0,85 5,80 37,80 37,90 5,90 0,85 " style="fill:white; stroke-width:1; stroke:black; " description="&lt;b&gt;AV521_RS23870&lt;/b&gt;&lt;br&gt;AsnC family transcriptional regulator&lt;br&gt;Location: 43660 - 44694" locus_tag="AV521_RS23870" class="clusterblast-orf" id="dummy-25_h25_9_0"  />
</g>
<g id="a25_001"  >
<polygon points="38,85 43,80 54,80 54,90 43,90 38,85 " style="fill:#d81515; stroke-width:1; stroke:black; " description="&lt;b&gt;AV521_RS23875&lt;/b&gt;&lt;br&gt;TerB family tellurite resistance protein&lt;br&gt;Location: 44724 - 45179&lt;br&gt;&lt;br&gt;&lt;b&gt;BlastP hit with LLPMBPKK_06120&lt;/b&gt;&lt;br&gt;Percentage identity: 95&lt;br&gt;Percentage coverage: 100&lt;br&gt;BLAST bit score: 280&lt;br&gt;E-value: 7e-97" locus_tag="AV521_RS23875" class="clusterblast-orf" id="dummy-25_h25_9_1"  />
</g>
<g id="a25_002"  >
<polygon points="59,85 64,80 75,80 75,90 64,90 59,85 " style="fill:#67d815; stroke-width:1; stroke:black; " description="&lt;b&gt;AV521_RS23880&lt;/b&gt;&lt;br&gt;hypothetical protein&lt;br&gt;Location: 45313 - 45765&lt;br&gt;&lt;br&gt;&lt;b&gt;BlastP hit with LLPMBPKK_06121&lt;/b&gt;&lt;br&gt;Percentage identity: 81&lt;br&gt;Percentage coverage: 100&lt;br&gt;BLAST bit score: 235&lt;br&gt;E-value: 4.45e-79" locus_tag="AV521_RS23880" class="clusterblast-orf" id="dummy-25_h25_9_2"  />
</g>
<g id="a25_003"  >
<polygon points="75,85 80,80 102,80 102,90 80,90 75,85 " style="fill:#15b9d8; stroke-width:1; stroke:black; " description="&lt;b&gt;AV521_RS23885&lt;/b&gt;&lt;br&gt;cholesterol esterase&lt;br&gt;Location: 45771 - 46514&lt;br&gt;&lt;br&gt;&lt;b&gt;BlastP hit with LLPMBPKK_06122&lt;/b&gt;&lt;br&gt;Percentage identity: 83&lt;br&gt;Percentage coverage: 106&lt;br&gt;BLAST bit score: 372&lt;br&gt;E-value: 1.97e-130" locus_tag="AV521_RS23885" class="clusterblast-orf" id="dummy-25_h25_9_3"  />
</g>
<g id="a25_004"  >
<polygon points="126,90 144,90 149,85 144,80 126,80 126,90 " style="fill:#a515d8; stroke-width:1; stroke:black; " description="&lt;b&gt;AV521_RS23890&lt;/b&gt;&lt;br&gt;Tat pathway signal sequence domain protein&lt;br&gt;Location: 47188 - 47841&lt;br&gt;&lt;br&gt;&lt;b&gt;BlastP hit with LLPMBPKK_06123&lt;/b&gt;&lt;br&gt;Percentage identity: 69&lt;br&gt;Percentage coverage: 100&lt;br&gt;BLAST bit score: 260&lt;br&gt;E-value: 7.13e-87" locus_tag="AV521_RS23890" class="clusterblast-orf" id="dummy-25_h25_9_4"  />
</g>
<g id="a25_005"  >
<polygon points="150,85 155,80 181,80 181,90 155,90 150,85 " style="fill:#d85315; stroke-width:1; stroke:black; " description="&lt;b&gt;AV521_RS23895&lt;/b&gt;&lt;br&gt;lytic polysaccharide monooxygenase&lt;br&gt;Location: 47860 - 48732&lt;br&gt;&lt;br&gt;&lt;b&gt;BlastP hit with LLPMBPKK_06124&lt;/b&gt;&lt;br&gt;Percentage identity: 68&lt;br&gt;Percentage coverage: 99&lt;br&gt;BLAST bit score: 371&lt;br&gt;E-value: 8.34e-128" locus_tag="AV521_RS23895" class="clusterblast-orf" id="dummy-25_h25_9_5"  />
</g>
<g id="a25_006"  >
<polygon points="199,90 217,90 222,85 217,80 199,80 199,90 " style="fill:#2ad815; stroke-width:1; stroke:black; " description="&lt;b&gt;AV521_RS23900&lt;/b&gt;&lt;br&gt;TetR/AcrR family transcriptional regulator&lt;br&gt;Location: 49230 - 49877&lt;br&gt;&lt;br&gt;&lt;b&gt;BlastP hit with LLPMBPKK_06125&lt;/b&gt;&lt;br&gt;Percentage identity: 92&lt;br&gt;Percentage coverage: 100&lt;br&gt;BLAST bit score: 387&lt;br&gt;E-value: 3.66e-137" locus_tag="AV521_RS23900" class="clusterblast-orf" id="dummy-25_h25_9_6"  />
</g>
<g id="a25_007"  >
<polygon points="223,90 260,90 265,85 260,80 223,80 223,90 " style="fill:#157cd8; stroke-width:1; stroke:black; " description="&lt;b&gt;AV521_RS23905&lt;/b&gt;&lt;br&gt;protein-glutamate O-methyltransferase family protein&lt;br&gt;Location: 49900 - 51081&lt;br&gt;&lt;br&gt;&lt;b&gt;BlastP hit with LLPMBPKK_06126&lt;/b&gt;&lt;br&gt;Percentage identity: 86&lt;br&gt;Percentage coverage: 98&lt;br&gt;BLAST bit score: 690&lt;br&gt;E-value: 9.64e-251" locus_tag="AV521_RS23905" class="clusterblast-orf" id="dummy-25_h25_9_7"  />
</g>
<g id="a25_008"  >
<polygon points="265,85 270,80 310,80 310,90 270,90 265,85 " style="fill:#d815ce; stroke-width:1; stroke:black; " description="&lt;b&gt;AV521_RS23910&lt;/b&gt;&lt;br&gt;cytochrome P450&lt;br&gt;Location: 51074 - 52336&lt;br&gt;&lt;br&gt;&lt;b&gt;BlastP hit with LLPMBPKK_06127&lt;/b&gt;&lt;br&gt;Percentage identity: 85&lt;br&gt;Percentage coverage: 100&lt;br&gt;BLAST bit score: 713&lt;br&gt;E-value: 3.23e-259" locus_tag="AV521_RS23910" class="clusterblast-orf" id="dummy-25_h25_9_8"  />
</g>
<g id="a25_009"  >
<polygon points="310,85 315,80 341,80 341,90 315,90 310,85 " style="fill:#d89015; stroke-width:1; stroke:black; " description="&lt;b&gt;AV521_RS23915&lt;/b&gt;&lt;br&gt;alpha/beta hydrolase&lt;br&gt;Location: 52333 - 53193&lt;br&gt;&lt;br&gt;&lt;b&gt;BlastP hit with LLPMBPKK_06128&lt;/b&gt;&lt;br&gt;Percentage identity: 86&lt;br&gt;Percentage coverage: 90&lt;br&gt;BLAST bit score: 441&lt;br&gt;E-value: 4.87e-156" locus_tag="AV521_RS23915" class="clusterblast-orf" id="dummy-25_h25_9_9"  />
</g>
<g id="a25_0010"  >
<polygon points="347,90 419,90 424,85 419,80 347,80 347,90 " style="fill:#15d83e; stroke-width:1; stroke:black; " description="&lt;b&gt;AV521_RS23920&lt;/b&gt;&lt;br&gt;germacradienol/geosmin synthase&lt;br&gt;Location: 53359 - 55521&lt;br&gt;&lt;br&gt;&lt;b&gt;BlastP hit with LLPMBPKK_06129&lt;/b&gt;&lt;br&gt;Percentage identity: 88&lt;br&gt;Percentage coverage: 100&lt;br&gt;BLAST bit score: 1331&lt;br&gt;E-value: 0.0" locus_tag="AV521_RS23920" class="clusterblast-orf" id="dummy-25_h25_9_10"  />
</g>
<g id="a25_0011"  >
<polygon points="428,90 491,90 496,85 491,80 428,80 428,90 " style="fill:#153ed8; stroke-width:1; stroke:black; " description="&lt;b&gt;AV521_RS23925&lt;/b&gt;&lt;br&gt;multicopper oxidase domain-containing protein&lt;br&gt;Location: 55634 - 57523&lt;br&gt;&lt;br&gt;&lt;b&gt;BlastP hit with LLPMBPKK_06130&lt;/b&gt;&lt;br&gt;Percentage identity: 88&lt;br&gt;Percentage coverage: 101&lt;br&gt;BLAST bit score: 1152&lt;br&gt;E-value: 0.0" locus_tag="AV521_RS23925" class="clusterblast-orf" id="dummy-25_h25_9_11"  />
</g>
<g id="a25_0012"  >
<polygon points="497,85 502,80 523,80 523,90 502,90 497,85 " style="fill:#d81590; stroke-width:1; stroke:black; " description="&lt;b&gt;AV521_RS23930&lt;/b&gt;&lt;br&gt;hypothetical protein&lt;br&gt;Location: 57548 - 58279&lt;br&gt;&lt;br&gt;&lt;b&gt;BlastP hit with LLPMBPKK_06131&lt;/b&gt;&lt;br&gt;Percentage identity: 92&lt;br&gt;Percentage coverage: 93&lt;br&gt;BLAST bit score: 146&lt;br&gt;E-value: 6.06e-44" locus_tag="AV521_RS23930" class="clusterblast-orf" id="dummy-25_h25_9_12"  />
</g>
<g id="a25_0013"  >
<polygon points="526,90 553,90 558,85 553,80 526,80 526,90 " style="fill:white; stroke-width:1; stroke:black; " description="&lt;b&gt;AV521_RS23935&lt;/b&gt;&lt;br&gt;LysR family transcriptional regulator&lt;br&gt;Location: 58364 - 59239" locus_tag="AV521_RS23935" class="clusterblast-orf" id="dummy-25_h25_9_13"  />
</g>
<g id="a25_0014"  >
<polygon points="565,90 581,90 586,85 581,80 565,80 565,90 " style="fill:#d8ce15; stroke-width:1; stroke:black; " description="&lt;b&gt;AV521_RS23940&lt;/b&gt;&lt;br&gt;PDZ domain-containing protein&lt;br&gt;Location: 59442 - 60017&lt;br&gt;&lt;br&gt;&lt;b&gt;BlastP hit with LLPMBPKK_06132&lt;/b&gt;&lt;br&gt;Percentage identity: 81&lt;br&gt;Percentage coverage: 100&lt;br&gt;BLAST bit score: 114&lt;br&gt;E-value: 6.59e-32" locus_tag="AV521_RS23940" class="clusterblast-orf" id="dummy-25_h25_9_14"  />
</g>
<g id="a25_0015"  >
<polygon points="596,90 632,90 637,85 632,80 596,80 596,90 " style="fill:#15d87c; stroke-width:1; stroke:black; " description="&lt;b&gt;AV521_RS23945&lt;/b&gt;&lt;br&gt;aminopeptidase P family protein&lt;br&gt;Location: 60318 - 61445&lt;br&gt;&lt;br&gt;&lt;b&gt;BlastP hit with LLPMBPKK_06133&lt;/b&gt;&lt;br&gt;Percentage identity: 94&lt;br&gt;Percentage coverage: 100&lt;br&gt;BLAST bit score: 699&lt;br&gt;E-value: 4.15e-255" locus_tag="AV521_RS23945" class="clusterblast-orf" id="dummy-25_h25_9_15"  />
</g>
<g id="a25_0016"  >
<polygon points="640,90 668,90 673,85 668,80 640,80 640,90 " style="fill:#2a15d8; stroke-width:1; stroke:black; " description="&lt;b&gt;AV521_RS23950&lt;/b&gt;&lt;br&gt;aminoglycoside phosphotransferase family protein&lt;br&gt;Location: 61528 - 62466&lt;br&gt;&lt;br&gt;&lt;b&gt;BlastP hit with LLPMBPKK_06134&lt;/b&gt;&lt;br&gt;Percentage identity: 84&lt;br&gt;Percentage coverage: 100&lt;br&gt;BLAST bit score: 508&lt;br&gt;E-value: 1.16e-181" locus_tag="AV521_RS23950" class="clusterblast-orf" id="dummy-25_h25_9_16"  />
</g>
<g id="a25_0017"  >
<polygon points="690,85 695,80 753,80 753,90 695,90 690,85 " style="fill:#d81553; stroke-width:1; stroke:black; " description="&lt;b&gt;AV521_RS23960&lt;/b&gt;&lt;br&gt;malto-oligosyltrehalose trehalohydrolase&lt;br&gt;Location: 62944 - 64689&lt;br&gt;&lt;br&gt;&lt;b&gt;BlastP hit with LLPMBPKK_06135&lt;/b&gt;&lt;br&gt;Percentage identity: 90&lt;br&gt;Percentage coverage: 100&lt;br&gt;BLAST bit score: 1113&lt;br&gt;E-value: 0.0" locus_tag="AV521_RS23960" class="clusterblast-orf" id="dummy-25_h25_9_17"  />
</g>
<g id="a25_0018"  >
<polygon points="760,90 775,90 780,85 775,80 760,80 760,90 " style="fill:#a5d815; stroke-width:1; stroke:black; " description="&lt;b&gt;AV521_RS23965&lt;/b&gt;&lt;br&gt;FHA domain-containing protein&lt;br&gt;Location: 64880 - 65431&lt;br&gt;&lt;br&gt;&lt;b&gt;BlastP hit with LLPMBPKK_06136&lt;/b&gt;&lt;br&gt;Percentage identity: 90&lt;br&gt;Percentage coverage: 88&lt;br&gt;BLAST bit score: 328&lt;br&gt;E-value: 2.43e-114" locus_tag="AV521_RS23965" class="clusterblast-orf" id="dummy-25_h25_9_18"  />
</g>
</svg>
