<svg xmlns="http://www.w3.org/2000/svg" xmlns:xlink="http://www.w3.org/1999/xlink" version="1.1" x="0" y="0" height="230" width="800" viewBox="0 0 800 230" preserveAspectRatio="none"  >
<g label="Query sequence" class="clusterblast-cluster"  >
<text x="5" y="20" class="clusterblast-acc"  >
Query sequence</text>
<line x1="10" y1="35" x2="778.0" y2="35" style="stroke-width:1; stroke:grey; "  />
<polygon points="0,40 28,40 33,35 28,30 0,30 0,40 " style="fill:white; stroke-width:1; stroke:black; " description="&lt;b&gt;LLPMBPKK_07717&lt;/b&gt;&lt;br&gt;pullulanase-type alpha-1,6-glucosidase&lt;br&gt;Location: 8991840 - 8994999" locus_tag="LLPMBPKK_07717" class="clusterblast-orf" id="dummy-36_q0_0_all"  />
<polygon points="34,35 39,30 62,30 62,40 39,40 34,35 " style="fill:white; stroke-width:1; stroke:black; " description="&lt;b&gt;LLPMBPKK_07718&lt;/b&gt;&lt;br&gt;pullulanase-type alpha-1,6-glucosidase&lt;br&gt;Location: 8995078 - 8997751" locus_tag="LLPMBPKK_07718" class="clusterblast-orf" id="dummy-36_q1_0_all"  />
<polygon points="68,40 76,40 81,35 76,30 68,30 68,40 " style="fill:white; stroke-width:1; stroke:black; " description="&lt;b&gt;LLPMBPKK_07719&lt;/b&gt;&lt;br&gt;extracellular solute-binding protein&lt;br&gt;Location: 8998268 - 8999558" locus_tag="LLPMBPKK_07719" class="clusterblast-orf" id="dummy-36_q2_0_all"  />
<polygon points="83,40 88,40 93,35 88,30 83,30 83,40 " style="fill:white; stroke-width:1; stroke:black; " description="&lt;b&gt;LLPMBPKK_07720&lt;/b&gt;&lt;br&gt;maltose permease&lt;br&gt;Location: 8999690 - 9000686" locus_tag="LLPMBPKK_07720" class="clusterblast-orf" id="dummy-36_q3_0_all"  />
<polygon points="93,40 98,40 103,35 98,30 93,30 93,40 " style="fill:white; stroke-width:1; stroke:black; " description="&lt;b&gt;LLPMBPKK_07721&lt;/b&gt;&lt;br&gt;maltose permease&lt;br&gt;Location: 9000699 - 9001614" locus_tag="LLPMBPKK_07721" class="clusterblast-orf" id="dummy-36_q4_0_all"  />
<polygon points="103,40 117,40 122,35 117,30 103,30 103,40 " style="fill:white; stroke-width:1; stroke:black; " description="&lt;b&gt;LLPMBPKK_07722&lt;/b&gt;&lt;br&gt;alpha-glucosidase&lt;br&gt;Location: 9001610 - 9003362" locus_tag="LLPMBPKK_07722" class="clusterblast-orf" id="dummy-36_q5_0_all"  />
<polygon points="122,40 128,40 133,35 128,30 122,30 122,40 " style="fill:white; stroke-width:1; stroke:black; " description="&lt;b&gt;LLPMBPKK_07723&lt;/b&gt;&lt;br&gt;LacI family transcriptional regulator&lt;br&gt;Location: 9003363 - 9004425" locus_tag="LLPMBPKK_07723" class="clusterblast-orf" id="dummy-36_q6_0_all"  />
<polygon points="134,40 136,35 134,30 134,40 " style="fill:white; stroke-width:1; stroke:black; " description="&lt;b&gt;LLPMBPKK_07724&lt;/b&gt;&lt;br&gt;hypothetical protein&lt;br&gt;Location: 9004577 - 9004700" locus_tag="LLPMBPKK_07724" class="clusterblast-orf" id="dummy-36_q7_0_all"  />
<polygon points="137,40 138,35 137,30 137,40 " style="fill:white; stroke-width:1; stroke:black; " description="&lt;b&gt;LLPMBPKK_07725&lt;/b&gt;&lt;br&gt;hypothetical protein&lt;br&gt;Location: 9004800 - 9004929" locus_tag="LLPMBPKK_07725" class="clusterblast-orf" id="dummy-36_q8_0_all"  />
<polygon points="140,40 146,40 151,35 146,30 140,30 140,40 " style="fill:white; stroke-width:1; stroke:black; " description="&lt;b&gt;LLPMBPKK_07726&lt;/b&gt;&lt;br&gt;oxidoreductase&lt;br&gt;Location: 9005064 - 9006144" locus_tag="LLPMBPKK_07726" class="clusterblast-orf" id="dummy-36_q9_0_all"  />
<polygon points="151,35 156,30 161,30 161,40 156,40 151,35 " style="fill:#d81515; stroke-width:1; stroke:black; " description="&lt;b&gt;LLPMBPKK_07727&lt;/b&gt;&lt;br&gt;LysR family transcriptional regulator&lt;br&gt;Location: 9006159 - 9007041" locus_tag="LLPMBPKK_07727" class="clusterblast-orf" id="dummy-36_q10_0_all"  />
<polygon points="162,40 172,40 177,35 172,30 162,30 162,40 " style="fill:white; stroke-width:1; stroke:black; " description="&lt;b&gt;LLPMBPKK_07728&lt;/b&gt;&lt;br&gt;MFS transporter methylenomycin A resistanceprotein&lt;br&gt;Location: 9007177 - 9008548" locus_tag="LLPMBPKK_07728" class="clusterblast-orf" id="dummy-36_q11_0_all"  />
<polygon points="179,35 184,30 184,30 184,40 184,40 179,35 " style="fill:white; stroke-width:1; stroke:black; " description="&lt;b&gt;LLPMBPKK_07729&lt;/b&gt;&lt;br&gt;hypothetical protein&lt;br&gt;Location: 9008762 - 9009290" locus_tag="LLPMBPKK_07729" class="clusterblast-orf" id="dummy-36_q12_0_all"  />
<polygon points="187,40 188,40 193,35 188,30 187,30 187,40 " style="fill:#67d815; stroke-width:1; stroke:black; " description="&lt;b&gt;LLPMBPKK_07730&lt;/b&gt;&lt;br&gt;ArsR family transcriptional regulator&lt;br&gt;Location: 9009523 - 9010138" locus_tag="LLPMBPKK_07730" class="clusterblast-orf" id="dummy-36_q13_0_all"  />
<polygon points="193,40 203,40 208,35 203,30 193,30 193,40 " style="fill:#15b9d8; stroke-width:1; stroke:black; " description="&lt;b&gt;LLPMBPKK_07731&lt;/b&gt;&lt;br&gt;MFS transporter&lt;br&gt;Location: 9010143 - 9011559" locus_tag="LLPMBPKK_07731" class="clusterblast-orf" id="dummy-36_q14_0_all"  />
<polygon points="211,40 278,40 283,35 278,30 211,30 211,40 " style="fill:#a515d8; stroke-width:1; stroke:black; " description="&lt;b&gt;LLPMBPKK_07732&lt;/b&gt;&lt;br&gt;non-ribosomal peptide synthetase&lt;br&gt;Location: 9011825 - 9018563" locus_tag="LLPMBPKK_07732" class="clusterblast-orf" id="dummy-36_q15_0_all"  />
<polygon points="283,40 361,40 366,35 361,30 283,30 283,40 " style="fill:#a515d8; stroke-width:1; stroke:black; " description="&lt;b&gt;LLPMBPKK_07733&lt;/b&gt;&lt;br&gt;CDA peptide synthetase II&lt;br&gt;Location: 9018610 - 9026488" locus_tag="LLPMBPKK_07733" class="clusterblast-orf" id="dummy-36_q16_0_all"  />
<polygon points="366,40 404,40 409,35 404,30 366,30 366,40 " style="fill:#a515d8; stroke-width:1; stroke:black; " description="&lt;b&gt;LLPMBPKK_07734&lt;/b&gt;&lt;br&gt;Linear gramicidin synthase subunit D&lt;br&gt;Location: 9026484 - 9030474" locus_tag="LLPMBPKK_07734" class="clusterblast-orf" id="dummy-36_q17_0_all"  />
<polygon points="414,35 419,30 424,30 424,40 419,40 414,35 " style="fill:#d85315; stroke-width:1; stroke:black; " description="&lt;b&gt;LLPMBPKK_07735&lt;/b&gt;&lt;br&gt;2,3-diaminopropionate biosynthesis protein SbnB&lt;br&gt;Location: 9030936 - 9031944" locus_tag="LLPMBPKK_07735" class="clusterblast-orf" id="dummy-36_q18_0_all"  />
<polygon points="425,35 430,30 435,30 435,40 430,40 425,35 " style="fill:#2ad815; stroke-width:1; stroke:black; " description="&lt;b&gt;LLPMBPKK_07736&lt;/b&gt;&lt;br&gt;2,3-diaminopropionate biosynthesis protein SbnA&lt;br&gt;Location: 9031999 - 9032947" locus_tag="LLPMBPKK_07736" class="clusterblast-orf" id="dummy-36_q19_0_all"  />
<polygon points="435,35 440,30 448,30 448,40 440,40 435,35 " style="fill:#157cd8; stroke-width:1; stroke:black; " description="&lt;b&gt;LLPMBPKK_07737&lt;/b&gt;&lt;br&gt;ferredoxin-dependent glutamate synthase&lt;br&gt;Location: 9032943 - 9034170" locus_tag="LLPMBPKK_07737" class="clusterblast-orf" id="dummy-36_q20_0_all"  />
<polygon points="448,35 453,30 458,30 458,40 453,40 448,35 " style="fill:#d815ce; stroke-width:1; stroke:black; " description="&lt;b&gt;LLPMBPKK_07738&lt;/b&gt;&lt;br&gt;asparaginyl-tRNA synthetase&lt;br&gt;Location: 9034166 - 9035180" locus_tag="LLPMBPKK_07738" class="clusterblast-orf" id="dummy-36_q21_0_all"  />
<polygon points="459,35 464,30 473,30 473,40 464,40 459,35 " style="fill:#d815ce; stroke-width:1; stroke:black; " description="&lt;b&gt;LLPMBPKK_07739&lt;/b&gt;&lt;br&gt;methylaspartate/glutamate mutase E subunit&lt;br&gt;Location: 9035253 - 9036537" locus_tag="LLPMBPKK_07739" class="clusterblast-orf" id="dummy-36_q22_0_all"  />
<polygon points="473,35 478,30 478,30 478,40 478,40 473,35 " style="fill:#d89015; stroke-width:1; stroke:black; " description="&lt;b&gt;LLPMBPKK_07740&lt;/b&gt;&lt;br&gt;Glutamate mutase sigma subunit&lt;br&gt;Location: 9036523 - 9036994" locus_tag="LLPMBPKK_07740" class="clusterblast-orf" id="dummy-36_q23_0_all"  />
<polygon points="482,40 571,40 576,35 571,30 482,30 482,40 " style="fill:#a515d8; stroke-width:1; stroke:black; " description="&lt;b&gt;LLPMBPKK_07741&lt;/b&gt;&lt;br&gt;CDA peptide synthetase II&lt;br&gt;Location: 9037363 - 9046276" locus_tag="LLPMBPKK_07741" class="clusterblast-orf" id="dummy-36_q24_0_all"  />
<polygon points="577,35 582,30 587,30 587,40 582,40 577,35 " style="fill:#15d83e; stroke-width:1; stroke:black; " description="&lt;b&gt;LLPMBPKK_07742&lt;/b&gt;&lt;br&gt;erythropoiesis-stimulating protein&lt;br&gt;Location: 9046365 - 9047361" locus_tag="LLPMBPKK_07742" class="clusterblast-orf" id="dummy-36_q25_0_all"  />
<polygon points="592,35 594,30 594,40 592,35 " style="fill:#153ed8; stroke-width:1; stroke:black; " description="&lt;b&gt;allorf_9047820_9047999&lt;/b&gt;&lt;br&gt;allorf 9047820 9047999&lt;br&gt;Location: 9047819 - 9047999" locus_tag="allorf_9047820_9047999" class="clusterblast-orf" id="dummy-36_q26_0_all"  />
<polygon points="594,40 596,35 594,30 594,40 " style="fill:#d81590; stroke-width:1; stroke:black; " description="&lt;b&gt;allorf_9047981_9048157&lt;/b&gt;&lt;br&gt;allorf 9047981 9048157&lt;br&gt;Location: 9047980 - 9048157" locus_tag="allorf_9047981_9048157" class="clusterblast-orf" id="dummy-36_q27_0_all"  />
<polygon points="597,40 599,35 597,30 597,40 " style="fill:#d8ce15; stroke-width:1; stroke:black; " description="&lt;b&gt;LLPMBPKK_07743&lt;/b&gt;&lt;br&gt;hypothetical protein&lt;br&gt;Location: 9048233 - 9048440" locus_tag="LLPMBPKK_07743" class="clusterblast-orf" id="dummy-36_q28_0_all"  />
<polygon points="600,35 605,30 630,30 630,40 605,40 600,35 " style="fill:#15d87c; stroke-width:1; stroke:black; " description="&lt;b&gt;LLPMBPKK_07744&lt;/b&gt;&lt;br&gt;helix-turn-helix transcriptional regulator&lt;br&gt;Location: 9048498 - 9051414" locus_tag="LLPMBPKK_07744" class="clusterblast-orf" id="dummy-36_q29_0_all"  />
<polygon points="633,35 638,30 669,30 669,40 638,40 633,35 " style="fill:#2a15d8; stroke-width:1; stroke:black; " description="&lt;b&gt;LLPMBPKK_07745&lt;/b&gt;&lt;br&gt;hypothetical protein&lt;br&gt;Location: 9051644 - 9055031" locus_tag="LLPMBPKK_07745" class="clusterblast-orf" id="dummy-36_q30_0_all"  />
<polygon points="670,35 675,30 678,30 678,40 675,40 670,35 " style="fill:#d81553; stroke-width:1; stroke:black; " description="&lt;b&gt;LLPMBPKK_07746&lt;/b&gt;&lt;br&gt;Peptidase family S51&lt;br&gt;Location: 9055188 - 9055935" locus_tag="LLPMBPKK_07746" class="clusterblast-orf" id="dummy-36_q31_0_all"  />
<polygon points="683,40 684,35 683,30 683,40 " style="fill:white; stroke-width:1; stroke:black; " description="&lt;b&gt;LLPMBPKK_07747&lt;/b&gt;&lt;br&gt;hypothetical protein&lt;br&gt;Location: 9056342 - 9056489" locus_tag="LLPMBPKK_07747" class="clusterblast-orf" id="dummy-36_q32_0_all"  />
<polygon points="684,40 692,40 697,35 692,30 684,30 684,40 " style="fill:white; stroke-width:1; stroke:black; " description="&lt;b&gt;LLPMBPKK_07748&lt;/b&gt;&lt;br&gt;acyl-CoA dehydrogenase&lt;br&gt;Location: 9056485 - 9057709" locus_tag="LLPMBPKK_07748" class="clusterblast-orf" id="dummy-36_q33_0_all"  />
<polygon points="698,40 702,35 698,30 698,40 " style="fill:white; stroke-width:1; stroke:black; " description="&lt;b&gt;LLPMBPKK_07749&lt;/b&gt;&lt;br&gt;Rrf2 family transcriptional regulator&lt;br&gt;Location: 9057758 - 9058217" locus_tag="LLPMBPKK_07749" class="clusterblast-orf" id="dummy-36_q34_0_all"  />
<polygon points="703,40 704,35 703,30 703,40 " style="fill:white; stroke-width:1; stroke:black; " description="&lt;b&gt;allorf_9058228_9058356&lt;/b&gt;&lt;br&gt;allorf 9058228 9058356&lt;br&gt;Location: 9058227 - 9058356" locus_tag="allorf_9058228_9058356" class="clusterblast-orf" id="dummy-36_q35_0_all"  />
<polygon points="708,40 712,40 717,35 712,30 708,30 708,40 " style="fill:white; stroke-width:1; stroke:black; " description="&lt;b&gt;LLPMBPKK_07750&lt;/b&gt;&lt;br&gt;TauD/TfdA family dioxygenase&lt;br&gt;Location: 9058726 - 9059623" locus_tag="LLPMBPKK_07750" class="clusterblast-orf" id="dummy-36_q36_0_all"  />
<polygon points="717,40 722,40 727,35 722,30 717,30 717,40 " style="fill:#a5d815; stroke-width:1; stroke:black; " description="&lt;b&gt;LLPMBPKK_07751&lt;/b&gt;&lt;br&gt;ABC transporter permease&lt;br&gt;Location: 9059619 - 9060513" locus_tag="LLPMBPKK_07751" class="clusterblast-orf" id="dummy-36_q37_0_all"  />
<polygon points="727,40 729,40 734,35 729,30 727,30 727,40 " style="fill:#15d8b9; stroke-width:1; stroke:black; " description="&lt;b&gt;LLPMBPKK_07752&lt;/b&gt;&lt;br&gt;ABC transporter ATP-binding protein&lt;br&gt;Location: 9060509 - 9061241" locus_tag="LLPMBPKK_07752" class="clusterblast-orf" id="dummy-36_q38_0_all"  />
<polygon points="735,40 741,40 746,35 741,30 735,30 735,40 " style="fill:#6715d8; stroke-width:1; stroke:black; " description="&lt;b&gt;LLPMBPKK_07753&lt;/b&gt;&lt;br&gt;aliphatic sulfonate ABC transportersubstrate-binding protein&lt;br&gt;Location: 9061287 - 9062346" locus_tag="LLPMBPKK_07753" class="clusterblast-orf" id="dummy-36_q39_0_all"  />
<polygon points="746,40 756,40 761,35 756,30 746,30 746,40 " style="fill:white; stroke-width:1; stroke:black; " description="&lt;b&gt;LLPMBPKK_07754&lt;/b&gt;&lt;br&gt;LLM class flavin-dependent oxidoreductase&lt;br&gt;Location: 9062342 - 9063707" locus_tag="LLPMBPKK_07754" class="clusterblast-orf" id="dummy-36_q40_0_all"  />
<polygon points="762,40 762,40 767,35 762,30 762,30 762,40 " style="fill:white; stroke-width:1; stroke:black; " description="&lt;b&gt;LLPMBPKK_07755&lt;/b&gt;&lt;br&gt;pyridoxamine 5'-phosphate oxidase family protein&lt;br&gt;Location: 9063851 - 9064313" locus_tag="LLPMBPKK_07755" class="clusterblast-orf" id="dummy-36_q41_0_all"  />
<polygon points="771,40 775,40 780,35 775,30 771,30 771,40 " style="fill:white; stroke-width:1; stroke:black; " description="&lt;b&gt;LLPMBPKK_07756&lt;/b&gt;&lt;br&gt;hypothetical protein&lt;br&gt;Location: 9064662 - 9065508" locus_tag="LLPMBPKK_07756" class="clusterblast-orf" id="dummy-36_q42_0_all"  />
</g>
<g label="NZ_CP013219" description="NZ_CP013219 (162920-234208): Streptomyces hygroscopicus subsp. limoneus strai... (42% of genes show similarity), NRPS,lanthipeptide,terpene" class="clusterblast-cluster"  >
<text x="5" y="70" class="clusterblast-acc"  >
<a xlink:href="https://antismash-db.secondarymetabolites.org/area.html?record=NZ_CP013219&amp;start=162920&amp;end=234208" target="_blank">NZ_CP013219 (162920-234208)</a>: Streptomyces hygroscopicus subsp. limoneus strai... (42% of genes show similarity), NRPS,lanthipeptide,terpene</text>
<line x1="10" y1="85" x2="778.0" y2="85" style="stroke-width:1; stroke:grey; "  />
</g>
<g id="a36_000"  >
<polygon points="12,90 13,90 18,85 13,80 12,80 12,90 " style="fill:white; stroke-width:1; stroke:black; " description="&lt;b&gt;SHL15_RS00860&lt;/b&gt;&lt;br&gt;hypothetical protein&lt;br&gt;Location: 234208 - 233666" locus_tag="SHL15_RS00860" class="clusterblast-orf" id="dummy-36_h36_3_0"  />
</g>
<g id="a36_001"  >
<polygon points="21,90 21,90 26,85 21,80 21,80 21,90 " style="fill:white; stroke-width:1; stroke:black; " description="&lt;b&gt;SHL15_RS00855&lt;/b&gt;&lt;br&gt;pantetheine-phosphate adenylyltransferase&lt;br&gt;Location: 233388 - 232912" locus_tag="SHL15_RS00855" class="clusterblast-orf" id="dummy-36_h36_3_1"  />
</g>
<g id="a36_002"  >
<polygon points="27,90 28,90 33,85 28,80 27,80 27,90 " style="fill:white; stroke-width:1; stroke:black; " description="&lt;b&gt;SHL15_RS00850&lt;/b&gt;&lt;br&gt;cysteine hydrolase&lt;br&gt;Location: 232828 - 232265" locus_tag="SHL15_RS00850" class="clusterblast-orf" id="dummy-36_h36_3_2"  />
</g>
<g id="a36_003"  >
<polygon points="41,90 45,85 41,80 41,90 " style="fill:white; stroke-width:1; stroke:black; " description="&lt;b&gt;SHL15_RS00845&lt;/b&gt;&lt;br&gt;winged helix-turn-helix transcriptional regulator&lt;br&gt;Location: 231498 - 231088" locus_tag="SHL15_RS00845" class="clusterblast-orf" id="dummy-36_h36_3_3"  />
</g>
<g id="a36_004"  >
<polygon points="48,90 65,90 70,85 65,80 48,80 48,90 " style="fill:white; stroke-width:1; stroke:black; " description="&lt;b&gt;SHL15_RS00840&lt;/b&gt;&lt;br&gt;MMPL family transporter&lt;br&gt;Location: 230855 - 228723" locus_tag="SHL15_RS00840" class="clusterblast-orf" id="dummy-36_h36_3_4"  />
</g>
<g id="a36_005"  >
<polygon points="72,90 73,90 78,85 73,80 72,80 72,90 " style="fill:white; stroke-width:1; stroke:black; " description="&lt;b&gt;SHL15_RS00835&lt;/b&gt;&lt;br&gt;sigma-70 family RNA polymerase sigma factor&lt;br&gt;Location: 228556 - 227942" locus_tag="SHL15_RS00835" class="clusterblast-orf" id="dummy-36_h36_3_5"  />
</g>
<g id="a36_006"  >
<polygon points="81,90 86,90 91,85 86,80 81,80 81,90 " style="fill:white; stroke-width:1; stroke:black; " description="&lt;b&gt;SHL15_RS00830&lt;/b&gt;&lt;br&gt;MerR family transcriptional regulator&lt;br&gt;Location: 227717 - 226758" locus_tag="SHL15_RS00830" class="clusterblast-orf" id="dummy-36_h36_3_6"  />
</g>
<g id="a36_007"  >
<polygon points="96,85 101,80 106,80 106,90 101,90 96,85 " style="fill:white; stroke-width:1; stroke:black; " description="&lt;b&gt;SHL15_RS00825&lt;/b&gt;&lt;br&gt;Rieske (2Fe-2S) protein&lt;br&gt;Location: 226325 - 225318" locus_tag="SHL15_RS00825" class="clusterblast-orf" id="dummy-36_h36_3_7"  />
</g>
<g id="a36_008"  >
<polygon points="106,85 111,80 117,80 117,90 111,90 106,85 " style="fill:white; stroke-width:1; stroke:black; " description="&lt;b&gt;SHL15_RS00820&lt;/b&gt;&lt;br&gt;phytoene/squalene synthase family protein&lt;br&gt;Location: 225321 - 224305" locus_tag="SHL15_RS00820" class="clusterblast-orf" id="dummy-36_h36_3_8"  />
</g>
<g id="a36_009"  >
<polygon points="117,85 122,80 136,80 136,90 122,90 117,85 " style="fill:white; stroke-width:1; stroke:black; " description="&lt;b&gt;SHL15_RS00815&lt;/b&gt;&lt;br&gt;phytoene desaturase&lt;br&gt;Location: 224308 - 222545" locus_tag="SHL15_RS00815" class="clusterblast-orf" id="dummy-36_h36_3_9"  />
</g>
<g id="a36_0010"  >
<polygon points="136,85 141,80 150,80 150,90 141,90 136,85 " style="fill:white; stroke-width:1; stroke:black; " description="&lt;b&gt;SHL15_RS00810&lt;/b&gt;&lt;br&gt;polyprenyl synthetase family protein&lt;br&gt;Location: 222548 - 221211" locus_tag="SHL15_RS00810" class="clusterblast-orf" id="dummy-36_h36_3_10"  />
</g>
<g id="a36_0011"  >
<polygon points="155,90 163,90 168,85 163,80 155,80 155,90 " style="fill:white; stroke-width:1; stroke:black; " description="&lt;b&gt;SHL15_RS00805&lt;/b&gt;&lt;br&gt;lycopene cyclase&lt;br&gt;Location: 220754 - 219519" locus_tag="SHL15_RS00805" class="clusterblast-orf" id="dummy-36_h36_3_11"  />
</g>
<g id="a36_0012"  >
<polygon points="168,90 169,85 168,80 168,90 " style="fill:white; stroke-width:1; stroke:black; " description="&lt;b&gt;SHL15_RS50095&lt;/b&gt;&lt;br&gt;hypothetical protein&lt;br&gt;Location: 219522 - 219358" locus_tag="SHL15_RS50095" class="clusterblast-orf" id="dummy-36_h36_3_12"  />
</g>
<g id="a36_0013"  >
<polygon points="170,90 181,90 186,85 181,80 170,80 170,90 " style="fill:white; stroke-width:1; stroke:black; " description="&lt;b&gt;SHL15_RS00800&lt;/b&gt;&lt;br&gt;FAD-dependent oxidoreductase&lt;br&gt;Location: 219256 - 217802" locus_tag="SHL15_RS00800" class="clusterblast-orf" id="dummy-36_h36_3_13"  />
</g>
<g id="a36_0014"  >
<polygon points="189,90 191,90 196,85 191,80 189,80 189,90 " style="fill:#67d815; stroke-width:1; stroke:black; " description="&lt;b&gt;SHL15_RS00795&lt;/b&gt;&lt;br&gt;helix-turn-helix transcriptional regulator&lt;br&gt;Location: 217466 - 216849&lt;br&gt;&lt;br&gt;&lt;b&gt;BlastP hit with LLPMBPKK_07730&lt;/b&gt;&lt;br&gt;Percentage identity: 93&lt;br&gt;Percentage coverage: 100&lt;br&gt;BLAST bit score: 384&lt;br&gt;E-value: 5.49e-136" locus_tag="SHL15_RS00795" class="clusterblast-orf" id="dummy-36_h36_3_14"  />
</g>
<g id="a36_0015"  >
<polygon points="196,90 206,90 211,85 206,80 196,80 196,90 " style="fill:#15b9d8; stroke-width:1; stroke:black; " description="&lt;b&gt;SHL15_RS00790&lt;/b&gt;&lt;br&gt;MFS transporter&lt;br&gt;Location: 216843 - 215446&lt;br&gt;&lt;br&gt;&lt;b&gt;BlastP hit with LLPMBPKK_07731&lt;/b&gt;&lt;br&gt;Percentage identity: 93&lt;br&gt;Percentage coverage: 100&lt;br&gt;BLAST bit score: 795&lt;br&gt;E-value: 9.23e-290" locus_tag="SHL15_RS00790" class="clusterblast-orf" id="dummy-36_h36_3_15"  />
</g>
<g id="a36_0016"  >
<polygon points="215,90 280,90 285,85 280,80 215,80 215,90 " style="fill:#a515d8; stroke-width:1; stroke:black; " description="&lt;b&gt;SHL15_RS00785&lt;/b&gt;&lt;br&gt;non-ribosomal peptide synthetase&lt;br&gt;Location: 215015 - 208446&lt;br&gt;&lt;br&gt;&lt;b&gt;BlastP hit with LLPMBPKK_07732&lt;/b&gt;&lt;br&gt;Percentage identity: 93&lt;br&gt;Percentage coverage: 98&lt;br&gt;BLAST bit score: 4043&lt;br&gt;E-value: 0.0&lt;br&gt;&lt;br&gt;&lt;b&gt;BlastP hit with LLPMBPKK_07733&lt;/b&gt;&lt;br&gt;Percentage identity: 52&lt;br&gt;Percentage coverage: 82&lt;br&gt;BLAST bit score: 1985&lt;br&gt;E-value: 0.0&lt;br&gt;&lt;br&gt;&lt;b&gt;BlastP hit with LLPMBPKK_07734&lt;/b&gt;&lt;br&gt;Percentage identity: 39&lt;br&gt;Percentage coverage: 78&lt;br&gt;BLAST bit score: 644&lt;br&gt;E-value: 5.63e-199&lt;br&gt;&lt;br&gt;&lt;b&gt;BlastP hit with LLPMBPKK_07741&lt;/b&gt;&lt;br&gt;Percentage identity: 54&lt;br&gt;Percentage coverage: 73&lt;br&gt;BLAST bit score: 2086&lt;br&gt;E-value: 0.0" locus_tag="SHL15_RS00785" class="clusterblast-orf" id="dummy-36_h36_3_16"  />
</g>
<g id="a36_0017"  >
<polygon points="285,90 364,90 369,85 364,80 285,80 285,90 " style="fill:#a515d8; stroke-width:1; stroke:black; " description="&lt;b&gt;SHL15_RS00780&lt;/b&gt;&lt;br&gt;non-ribosomal peptide synthetase&lt;br&gt;Location: 208398 - 200518&lt;br&gt;&lt;br&gt;&lt;b&gt;BlastP hit with LLPMBPKK_07732&lt;/b&gt;&lt;br&gt;Percentage identity: 52&lt;br&gt;Percentage coverage: 96&lt;br&gt;BLAST bit score: 2001&lt;br&gt;E-value: 0.0&lt;br&gt;&lt;br&gt;&lt;b&gt;BlastP hit with LLPMBPKK_07733&lt;/b&gt;&lt;br&gt;Percentage identity: 88&lt;br&gt;Percentage coverage: 100&lt;br&gt;BLAST bit score: 4688&lt;br&gt;E-value: 0.0&lt;br&gt;&lt;br&gt;&lt;b&gt;BlastP hit with LLPMBPKK_07734&lt;/b&gt;&lt;br&gt;Percentage identity: 61&lt;br&gt;Percentage coverage: 79&lt;br&gt;BLAST bit score: 1217&lt;br&gt;E-value: 0.0&lt;br&gt;&lt;br&gt;&lt;b&gt;BlastP hit with LLPMBPKK_07741&lt;/b&gt;&lt;br&gt;Percentage identity: 54&lt;br&gt;Percentage coverage: 73&lt;br&gt;BLAST bit score: 2037&lt;br&gt;E-value: 0.0" locus_tag="SHL15_RS00780" class="clusterblast-orf" id="dummy-36_h36_3_17"  />
</g>
<g id="a36_0018"  >
<polygon points="369,90 406,90 411,85 406,80 369,80 369,90 " style="fill:#a515d8; stroke-width:1; stroke:black; " description="&lt;b&gt;SHL15_RS00775&lt;/b&gt;&lt;br&gt;non-ribosomal peptide synthetase&lt;br&gt;Location: 200521 - 196532&lt;br&gt;&lt;br&gt;&lt;b&gt;BlastP hit with LLPMBPKK_07733&lt;/b&gt;&lt;br&gt;Percentage identity: 60&lt;br&gt;Percentage coverage: 41&lt;br&gt;BLAST bit score: 1212&lt;br&gt;E-value: 0.0&lt;br&gt;&lt;br&gt;&lt;b&gt;BlastP hit with LLPMBPKK_07734&lt;/b&gt;&lt;br&gt;Percentage identity: 90&lt;br&gt;Percentage coverage: 100&lt;br&gt;BLAST bit score: 2451&lt;br&gt;E-value: 0.0" locus_tag="SHL15_RS00775" class="clusterblast-orf" id="dummy-36_h36_3_18"  />
</g>
<g id="a36_0019"  >
<polygon points="416,85 421,80 427,80 427,90 421,90 416,85 " style="fill:#d85315; stroke-width:1; stroke:black; " description="&lt;b&gt;SHL15_RS00770&lt;/b&gt;&lt;br&gt;2,3-diaminopropionate biosynthesis protein SbnB&lt;br&gt;Location: 196020 - 195013&lt;br&gt;&lt;br&gt;&lt;b&gt;BlastP hit with LLPMBPKK_07735&lt;/b&gt;&lt;br&gt;Percentage identity: 97&lt;br&gt;Percentage coverage: 100&lt;br&gt;BLAST bit score: 650&lt;br&gt;E-value: 2.96e-237" locus_tag="SHL15_RS00770" class="clusterblast-orf" id="dummy-36_h36_3_19"  />
</g>
<g id="a36_0020"  >
<polygon points="428,85 433,80 438,80 438,90 433,90 428,85 " style="fill:#2ad815; stroke-width:1; stroke:black; " description="&lt;b&gt;SHL15_RS00765&lt;/b&gt;&lt;br&gt;2,3-diaminopropionate biosynthesis protein SbnA&lt;br&gt;Location: 194974 - 194027&lt;br&gt;&lt;br&gt;&lt;b&gt;BlastP hit with LLPMBPKK_07736&lt;/b&gt;&lt;br&gt;Percentage identity: 95&lt;br&gt;Percentage coverage: 100&lt;br&gt;BLAST bit score: 607&lt;br&gt;E-value: 7.39e-221" locus_tag="SHL15_RS00765" class="clusterblast-orf" id="dummy-36_h36_3_20"  />
</g>
<g id="a36_0021"  >
<polygon points="438,85 443,80 450,80 450,90 443,90 438,85 " style="fill:#157cd8; stroke-width:1; stroke:black; " description="&lt;b&gt;SHL15_RS00760&lt;/b&gt;&lt;br&gt;glutamate synthase&lt;br&gt;Location: 194030 - 192804&lt;br&gt;&lt;br&gt;&lt;b&gt;BlastP hit with LLPMBPKK_07737&lt;/b&gt;&lt;br&gt;Percentage identity: 95&lt;br&gt;Percentage coverage: 100&lt;br&gt;BLAST bit score: 770&lt;br&gt;E-value: 4.92e-282" locus_tag="SHL15_RS00760" class="clusterblast-orf" id="dummy-36_h36_3_21"  />
</g>
<g id="a36_0022"  >
<polygon points="450,85 455,80 461,80 461,90 455,90 450,85 " style="fill:#d815ce; stroke-width:1; stroke:black; " description="&lt;b&gt;SHL15_RS00755&lt;/b&gt;&lt;br&gt;asparagine ligase&lt;br&gt;Location: 192807 - 191794&lt;br&gt;&lt;br&gt;&lt;b&gt;BlastP hit with LLPMBPKK_07738&lt;/b&gt;&lt;br&gt;Percentage identity: 96&lt;br&gt;Percentage coverage: 100&lt;br&gt;BLAST bit score: 663&lt;br&gt;E-value: 4.58e-242" locus_tag="SHL15_RS00755" class="clusterblast-orf" id="dummy-36_h36_3_22"  />
</g>
<g id="a36_0023"  >
<polygon points="462,85 467,80 476,80 476,90 467,90 462,85 " style="fill:#d815ce; stroke-width:1; stroke:black; " description="&lt;b&gt;SHL15_RS00750&lt;/b&gt;&lt;br&gt;methylaspartate mutase&lt;br&gt;Location: 191720 - 190437&lt;br&gt;&lt;br&gt;&lt;b&gt;BlastP hit with LLPMBPKK_07739&lt;/b&gt;&lt;br&gt;Percentage identity: 96&lt;br&gt;Percentage coverage: 100&lt;br&gt;BLAST bit score: 796&lt;br&gt;E-value: 1.33e-291" locus_tag="SHL15_RS00750" class="clusterblast-orf" id="dummy-36_h36_3_23"  />
</g>
<g id="a36_0024"  >
<polygon points="475,85 480,80 480,80 480,90 480,90 475,85 " style="fill:#d89015; stroke-width:1; stroke:black; " description="&lt;b&gt;SHL15_RS00745&lt;/b&gt;&lt;br&gt;glutamate mutase S-subunit&lt;br&gt;Location: 190450 - 189980&lt;br&gt;&lt;br&gt;&lt;b&gt;BlastP hit with LLPMBPKK_07740&lt;/b&gt;&lt;br&gt;Percentage identity: 96&lt;br&gt;Percentage coverage: 100&lt;br&gt;BLAST bit score: 295&lt;br&gt;E-value: 1.63e-102" locus_tag="SHL15_RS00745" class="clusterblast-orf" id="dummy-36_h36_3_24"  />
</g>
<g id="a36_0025"  >
<polygon points="484,90 573,90 578,85 573,80 484,80 484,90 " style="fill:#a515d8; stroke-width:1; stroke:black; " description="&lt;b&gt;SHL15_RS00740&lt;/b&gt;&lt;br&gt;non-ribosomal peptide synthetase&lt;br&gt;Location: 189604 - 180767&lt;br&gt;&lt;br&gt;&lt;b&gt;BlastP hit with LLPMBPKK_07732&lt;/b&gt;&lt;br&gt;Percentage identity: 53&lt;br&gt;Percentage coverage: 100&lt;br&gt;BLAST bit score: 2125&lt;br&gt;E-value: 0.0&lt;br&gt;&lt;br&gt;&lt;b&gt;BlastP hit with LLPMBPKK_07733&lt;/b&gt;&lt;br&gt;Percentage identity: 54&lt;br&gt;Percentage coverage: 82&lt;br&gt;BLAST bit score: 2084&lt;br&gt;E-value: 0.0&lt;br&gt;&lt;br&gt;&lt;b&gt;BlastP hit with LLPMBPKK_07734&lt;/b&gt;&lt;br&gt;Percentage identity: 55&lt;br&gt;Percentage coverage: 51&lt;br&gt;BLAST bit score: 720&lt;br&gt;E-value: 4.74e-223&lt;br&gt;&lt;br&gt;&lt;b&gt;BlastP hit with LLPMBPKK_07741&lt;/b&gt;&lt;br&gt;Percentage identity: 93&lt;br&gt;Percentage coverage: 100&lt;br&gt;BLAST bit score: 5434&lt;br&gt;E-value: 0.0" locus_tag="SHL15_RS00740" class="clusterblast-orf" id="dummy-36_h36_3_25"  />
</g>
<g id="a36_0026"  >
<polygon points="579,85 584,80 589,80 589,90 584,90 579,85 " style="fill:#15d83e; stroke-width:1; stroke:black; " description="&lt;b&gt;SHL15_RS00735&lt;/b&gt;&lt;br&gt;helix-turn-helix domain-containing protein&lt;br&gt;Location: 180674 - 179718&lt;br&gt;&lt;br&gt;&lt;b&gt;BlastP hit with LLPMBPKK_07742&lt;/b&gt;&lt;br&gt;Percentage identity: 95&lt;br&gt;Percentage coverage: 96&lt;br&gt;BLAST bit score: 587&lt;br&gt;E-value: 1.32e-212" locus_tag="SHL15_RS00735" class="clusterblast-orf" id="dummy-36_h36_3_26"  />
</g>
<g id="a36_0027"  >
<polygon points="594,85 596,80 596,90 594,85 " style="fill:#153ed8; stroke-width:1; stroke:black; " description="&lt;b&gt;NZ_CP013219_allorf_0179059_0179217&lt;/b&gt;&lt;br&gt;&lt;br&gt;Location: 179217 - 179059&lt;br&gt;&lt;br&gt;&lt;b&gt;BlastP hit with allorf_9047820_9047999&lt;/b&gt;&lt;br&gt;Percentage identity: 64&lt;br&gt;Percentage coverage: 80&lt;br&gt;BLAST bit score: 60&lt;br&gt;E-value: 1.98e-12" locus_tag="NZ_CP013219_allorf_0179059_0179217" class="clusterblast-orf" id="dummy-36_h36_3_27"  />
</g>
<g id="a36_0028"  >
<polygon points="598,90 601,85 598,80 598,90 " style="fill:#d8ce15; stroke-width:1; stroke:black; " description="&lt;b&gt;SHL15_RS00725&lt;/b&gt;&lt;br&gt;hypothetical protein&lt;br&gt;Location: 178825 - 178619&lt;br&gt;&lt;br&gt;&lt;b&gt;BlastP hit with LLPMBPKK_07743&lt;/b&gt;&lt;br&gt;Percentage identity: 94&lt;br&gt;Percentage coverage: 100&lt;br&gt;BLAST bit score: 116&lt;br&gt;E-value: 2.27e-34" locus_tag="SHL15_RS00725" class="clusterblast-orf" id="dummy-36_h36_3_28"  />
</g>
<g id="a36_0029"  >
<polygon points="603,85 608,80 634,80 634,90 608,90 603,85 " style="fill:#15d87c; stroke-width:1; stroke:black; " description="&lt;b&gt;SHL15_RS00720&lt;/b&gt;&lt;br&gt;LuxR family transcriptional regulator&lt;br&gt;Location: 178395 - 175480&lt;br&gt;&lt;br&gt;&lt;b&gt;BlastP hit with LLPMBPKK_07744&lt;/b&gt;&lt;br&gt;Percentage identity: 95&lt;br&gt;Percentage coverage: 100&lt;br&gt;BLAST bit score: 1743&lt;br&gt;E-value: 0.0" locus_tag="SHL15_RS00720" class="clusterblast-orf" id="dummy-36_h36_3_29"  />
</g>
<g id="a36_0030"  >
<polygon points="637,85 642,80 670,80 670,90 642,90 637,85 " style="fill:#2a15d8; stroke-width:1; stroke:black; " description="&lt;b&gt;SHL15_RS00715&lt;/b&gt;&lt;br&gt;type 2 lantipeptide synthetase LanM&lt;br&gt;Location: 175218 - 172078&lt;br&gt;&lt;br&gt;&lt;b&gt;BlastP hit with LLPMBPKK_07745&lt;/b&gt;&lt;br&gt;Percentage identity: 82&lt;br&gt;Percentage coverage: 100&lt;br&gt;BLAST bit score: 1722&lt;br&gt;E-value: 0.0" locus_tag="SHL15_RS00715" class="clusterblast-orf" id="dummy-36_h36_3_30"  />
</g>
<g id="a36_0031"  >
<polygon points="671,85 676,80 680,80 680,90 676,90 671,85 " style="fill:#d81553; stroke-width:1; stroke:black; " description="&lt;b&gt;SHL15_RS00710&lt;/b&gt;&lt;br&gt;peptidase E&lt;br&gt;Location: 171938 - 171150&lt;br&gt;&lt;br&gt;&lt;b&gt;BlastP hit with LLPMBPKK_07746&lt;/b&gt;&lt;br&gt;Percentage identity: 95&lt;br&gt;Percentage coverage: 99&lt;br&gt;BLAST bit score: 477&lt;br&gt;E-value: 2.31e-171" locus_tag="SHL15_RS00710" class="clusterblast-orf" id="dummy-36_h36_3_31"  />
</g>
<g id="a36_0032"  >
<polygon points="682,85 684,80 684,90 682,85 " style="fill:white; stroke-width:1; stroke:black; " description="&lt;b&gt;NZ_CP013219_allorf_0170753_0170935&lt;/b&gt;&lt;br&gt;&lt;br&gt;Location: 170935 - 170753" locus_tag="NZ_CP013219_allorf_0170753_0170935" class="clusterblast-orf" id="dummy-36_h36_3_32"  />
</g>
<g id="a36_0033"  >
<polygon points="683,85 685,80 685,90 683,85 " style="fill:white; stroke-width:1; stroke:black; " description="&lt;b&gt;NZ_CP013219_allorf_0170640_0170846&lt;/b&gt;&lt;br&gt;&lt;br&gt;Location: 170846 - 170640" locus_tag="NZ_CP013219_allorf_0170640_0170846" class="clusterblast-orf" id="dummy-36_h36_3_33"  />
</g>
<g id="a36_0034"  >
<polygon points="685,90 691,90 696,85 691,80 685,80 685,90 " style="fill:white; stroke-width:1; stroke:black; " description="&lt;b&gt;SHL15_RS00705&lt;/b&gt;&lt;br&gt;sporulation protein&lt;br&gt;Location: 170619 - 169612" locus_tag="SHL15_RS00705" class="clusterblast-orf" id="dummy-36_h36_3_34"  />
</g>
<g id="a36_0035"  >
<polygon points="698,90 701,85 698,80 698,90 " style="fill:white; stroke-width:1; stroke:black; " description="&lt;b&gt;SHL15_RS48940&lt;/b&gt;&lt;br&gt;IS3 family transposase&lt;br&gt;Location: 169402 - 169157" locus_tag="SHL15_RS48940" class="clusterblast-orf" id="dummy-36_h36_3_35"  />
</g>
<g id="a36_0036"  >
<polygon points="701,90 701,90 706,85 701,80 701,80 701,90 " style="fill:white; stroke-width:1; stroke:black; " description="&lt;b&gt;SHL15_RS48935&lt;/b&gt;&lt;br&gt;DDE-type integrase/transposase/recombinase&lt;br&gt;Location: 169160 - 168660" locus_tag="SHL15_RS48935" class="clusterblast-orf" id="dummy-36_h36_3_36"  />
</g>
<g id="a36_0037"  >
<polygon points="707,90 722,90 727,85 722,80 707,80 707,90 " style="fill:white; stroke-width:1; stroke:black; " description="&lt;b&gt;SHL15_RS00695&lt;/b&gt;&lt;br&gt;acyl-CoA oxidase&lt;br&gt;Location: 168573 - 166656" locus_tag="SHL15_RS00695" class="clusterblast-orf" id="dummy-36_h36_3_37"  />
</g>
<g id="a36_0038"  >
<polygon points="729,90 731,85 729,80 729,90 " style="fill:white; stroke-width:1; stroke:black; " description="&lt;b&gt;SHL15_RS50740&lt;/b&gt;&lt;br&gt;hypothetical protein&lt;br&gt;Location: 166506 - 166330" locus_tag="SHL15_RS50740" class="clusterblast-orf" id="dummy-36_h36_3_38"  />
</g>
<g id="a36_0039"  >
<polygon points="732,90 735,85 732,80 732,90 " style="fill:white; stroke-width:1; stroke:black; " description="&lt;b&gt;SHL15_RS45885&lt;/b&gt;&lt;br&gt;WhiB family transcriptional regulator&lt;br&gt;Location: 166209 - 165962" locus_tag="SHL15_RS45885" class="clusterblast-orf" id="dummy-36_h36_3_39"  />
</g>
<g id="a36_0040"  >
<polygon points="736,90 743,90 748,85 743,80 736,80 736,90 " style="fill:white; stroke-width:1; stroke:black; " description="&lt;b&gt;SHL15_RS00690&lt;/b&gt;&lt;br&gt;MFS transporter&lt;br&gt;Location: 165810 - 164710" locus_tag="SHL15_RS00690" class="clusterblast-orf" id="dummy-36_h36_3_40"  />
</g>
<g id="a36_0041"  >
<polygon points="751,90 762,90 767,85 762,80 751,80 751,90 " style="fill:white; stroke-width:1; stroke:black; " description="&lt;b&gt;SHL15_RS00685&lt;/b&gt;&lt;br&gt;permease&lt;br&gt;Location: 164429 - 162921" locus_tag="SHL15_RS00685" class="clusterblast-orf" id="dummy-36_h36_3_41"  />
</g>
</svg>
