<svg xmlns="http://www.w3.org/2000/svg" xmlns:xlink="http://www.w3.org/1999/xlink" version="1.1" x="0" y="0" height="230" width="800" viewBox="0 0 800 230" preserveAspectRatio="none"  >
<g label="Query sequence" class="clusterblast-cluster"  >
<text x="5" y="20" class="clusterblast-acc"  >
Query sequence</text>
<line x1="10" y1="35" x2="778.0" y2="35" style="stroke-width:1; stroke:grey; "  />
<polygon points="156,40 159,35 156,30 156,40 " style="fill:white; stroke-width:1; stroke:black; " description="&lt;b&gt;LLPMBPKK_07507&lt;/b&gt;&lt;br&gt;hypothetical protein&lt;br&gt;Location: 8732495 - 8732864" locus_tag="LLPMBPKK_07507" class="clusterblast-orf" id="dummy-33_q0_0_all"  />
<polygon points="160,40 186,40 191,35 186,30 160,30 160,40 " style="fill:white; stroke-width:1; stroke:black; " description="&lt;b&gt;LLPMBPKK_07508&lt;/b&gt;&lt;br&gt;WD-40 repeat-containing protein&lt;br&gt;Location: 8733081 - 8736987" locus_tag="LLPMBPKK_07508" class="clusterblast-orf" id="dummy-33_q1_0_all"  />
<polygon points="192,40 194,40 199,35 194,30 192,30 192,40 " style="fill:white; stroke-width:1; stroke:black; " description="&lt;b&gt;LLPMBPKK_07509&lt;/b&gt;&lt;br&gt;peptidoglycan endopeptidase&lt;br&gt;Location: 8737128 - 8737989" locus_tag="LLPMBPKK_07509" class="clusterblast-orf" id="dummy-33_q2_0_all"  />
<polygon points="199,35 204,30 217,30 217,40 204,40 199,35 " style="fill:#d81515; stroke-width:1; stroke:black; " description="&lt;b&gt;LLPMBPKK_07510&lt;/b&gt;&lt;br&gt;ATPase AAA&lt;br&gt;Location: 8738008 - 8740192" locus_tag="LLPMBPKK_07510" class="clusterblast-orf" id="dummy-33_q3_0_all"  />
<polygon points="217,35 222,30 226,30 226,40 222,40 217,35 " style="fill:#4dd815; stroke-width:1; stroke:black; " description="&lt;b&gt;LLPMBPKK_07511&lt;/b&gt;&lt;br&gt;glycosyl transferase family protein&lt;br&gt;Location: 8740272 - 8741436" locus_tag="LLPMBPKK_07511" class="clusterblast-orf" id="dummy-33_q4_0_all"  />
<polygon points="229,40 241,40 246,35 241,30 229,30 229,40 " style="fill:white; stroke-width:1; stroke:black; " description="&lt;b&gt;LLPMBPKK_07512&lt;/b&gt;&lt;br&gt;FUSC family protein&lt;br&gt;Location: 8741744 - 8743895" locus_tag="LLPMBPKK_07512" class="clusterblast-orf" id="dummy-33_q5_0_all"  />
<polygon points="248,35 250,30 250,40 248,35 " style="fill:#1585d8; stroke-width:1; stroke:black; " description="&lt;b&gt;LLPMBPKK_07513&lt;/b&gt;&lt;br&gt;non-ribosomal peptide synthetase&lt;br&gt;Location: 8744146 - 8744440" locus_tag="LLPMBPKK_07513" class="clusterblast-orf" id="dummy-33_q6_0_all"  />
<polygon points="250,35 255,30 261,30 261,40 255,40 250,35 " style="fill:#1585d8; stroke-width:1; stroke:black; " description="&lt;b&gt;LLPMBPKK_07514&lt;/b&gt;&lt;br&gt;non-ribosomal peptide synthetase&lt;br&gt;Location: 8744486 - 8745854" locus_tag="LLPMBPKK_07514" class="clusterblast-orf" id="dummy-33_q7_0_all"  />
<polygon points="263,40 277,40 282,35 277,30 263,30 263,40 " style="fill:#1585d8; stroke-width:1; stroke:black; " description="&lt;b&gt;LLPMBPKK_07515&lt;/b&gt;&lt;br&gt;hybrid non-ribosomal peptide synthetase/type Ipolyketide synthase&lt;br&gt;Location: 8746075 - 8748553" locus_tag="LLPMBPKK_07515" class="clusterblast-orf" id="dummy-33_q8_0_all"  />
<polygon points="283,35 288,30 295,30 295,40 288,40 283,35 " style="fill:#1585d8; stroke-width:1; stroke:black; " description="&lt;b&gt;LLPMBPKK_07516&lt;/b&gt;&lt;br&gt;non-ribosomal peptide synthetase&lt;br&gt;Location: 8748619 - 8750095" locus_tag="LLPMBPKK_07516" class="clusterblast-orf" id="dummy-33_q9_0_all"  />
<polygon points="295,35 300,30 304,30 304,40 300,40 295,35 " style="fill:#a115d8; stroke-width:1; stroke:black; " description="&lt;b&gt;LLPMBPKK_07517&lt;/b&gt;&lt;br&gt;oxygenase&lt;br&gt;Location: 8750165 - 8751242" locus_tag="LLPMBPKK_07517" class="clusterblast-orf" id="dummy-33_q10_0_all"  />
<polygon points="304,35 309,30 312,30 312,40 309,40 304,35 " style="fill:white; stroke-width:1; stroke:black; " description="&lt;b&gt;LLPMBPKK_07518&lt;/b&gt;&lt;br&gt;GNAT family N-acetyltransferase&lt;br&gt;Location: 8751295 - 8752240" locus_tag="LLPMBPKK_07518" class="clusterblast-orf" id="dummy-33_q11_0_all"  />
<polygon points="312,35 317,30 339,30 339,40 317,40 312,35 " style="fill:#1585d8; stroke-width:1; stroke:black; " description="&lt;b&gt;LLPMBPKK_07519&lt;/b&gt;&lt;br&gt;non-ribosomal peptide synthetase&lt;br&gt;Location: 8752332 - 8755725" locus_tag="LLPMBPKK_07519" class="clusterblast-orf" id="dummy-33_q12_0_all"  />
<polygon points="343,40 344,40 349,35 344,30 343,30 343,40 " style="fill:#d86915; stroke-width:1; stroke:black; " description="&lt;b&gt;LLPMBPKK_07520&lt;/b&gt;&lt;br&gt;thioesterase&lt;br&gt;Location: 8756208 - 8756943" locus_tag="LLPMBPKK_07520" class="clusterblast-orf" id="dummy-33_q13_0_all"  />
<polygon points="349,40 370,40 375,35 370,30 349,30 349,40 " style="fill:#1585d8; stroke-width:1; stroke:black; " description="&lt;b&gt;LLPMBPKK_07521&lt;/b&gt;&lt;br&gt;non-ribosomal peptide synthetase&lt;br&gt;Location: 8756935 - 8760343" locus_tag="LLPMBPKK_07521" class="clusterblast-orf" id="dummy-33_q14_0_all"  />
<polygon points="375,40 408,40 413,35 408,30 375,30 375,40 " style="fill:#1585d8; stroke-width:1; stroke:black; " description="&lt;b&gt;LLPMBPKK_07522&lt;/b&gt;&lt;br&gt;non-ribosomal peptide synthetase&lt;br&gt;Location: 8760339 - 8765136" locus_tag="LLPMBPKK_07522" class="clusterblast-orf" id="dummy-33_q15_0_all"  />
<polygon points="413,40 451,40 456,35 451,30 413,30 413,40 " style="fill:#1585d8; stroke-width:1; stroke:black; " description="&lt;b&gt;LLPMBPKK_07523&lt;/b&gt;&lt;br&gt;non-ribosomal peptide synthetase&lt;br&gt;Location: 8765132 - 8770556" locus_tag="LLPMBPKK_07523" class="clusterblast-orf" id="dummy-33_q16_0_all"  />
<polygon points="458,40 460,35 458,30 458,40 " style="fill:#15d831; stroke-width:1; stroke:black; " description="&lt;b&gt;LLPMBPKK_07524&lt;/b&gt;&lt;br&gt;MbtH protein&lt;br&gt;Location: 8770838 - 8771039" locus_tag="LLPMBPKK_07524" class="clusterblast-orf" id="dummy-33_q17_0_all"  />
<polygon points="460,40 470,40 475,35 470,30 460,30 460,40 " style="fill:#1585d8; stroke-width:1; stroke:black; " description="&lt;b&gt;LLPMBPKK_07525&lt;/b&gt;&lt;br&gt;non-ribosomal peptide synthetase&lt;br&gt;Location: 8771117 - 8772950" locus_tag="LLPMBPKK_07525" class="clusterblast-orf" id="dummy-33_q18_0_all"  />
<polygon points="475,40 477,40 482,35 477,30 475,30 475,40 " style="fill:#1531d8; stroke-width:1; stroke:black; " description="&lt;b&gt;LLPMBPKK_07526&lt;/b&gt;&lt;br&gt;Phytanoyl-CoA dioxygenase (PhyH)&lt;br&gt;Location: 8772946 - 8773906" locus_tag="LLPMBPKK_07526" class="clusterblast-orf" id="dummy-33_q19_0_all"  />
<polygon points="486,40 487,40 492,35 487,30 486,30 486,40 " style="fill:#d815bc; stroke-width:1; stroke:black; " description="&lt;b&gt;LLPMBPKK_07527&lt;/b&gt;&lt;br&gt;Putative aminoacrylate hydrolase RutD&lt;br&gt;Location: 8774383 - 8775121" locus_tag="LLPMBPKK_07527" class="clusterblast-orf" id="dummy-33_q20_0_all"  />
<polygon points="492,40 498,40 503,35 498,30 492,30 492,40 " style="fill:#1585d8; stroke-width:1; stroke:black; " description="&lt;b&gt;LLPMBPKK_07528&lt;/b&gt;&lt;br&gt;Methyltransferase FkbM domain protein&lt;br&gt;Location: 8775117 - 8776557" locus_tag="LLPMBPKK_07528" class="clusterblast-orf" id="dummy-33_q21_0_all"  />
<polygon points="503,40 504,40 509,35 504,30 503,30 503,40 " style="fill:#d86915; stroke-width:1; stroke:black; " description="&lt;b&gt;LLPMBPKK_07529&lt;/b&gt;&lt;br&gt;thioesterase&lt;br&gt;Location: 8776553 - 8777294" locus_tag="LLPMBPKK_07529" class="clusterblast-orf" id="dummy-33_q22_0_all"  />
<polygon points="509,40 513,40 518,35 513,30 509,30 509,40 " style="fill:#d8bc15; stroke-width:1; stroke:black; " description="&lt;b&gt;LLPMBPKK_07530&lt;/b&gt;&lt;br&gt;acyl-CoA dehydrogenase&lt;br&gt;Location: 8777290 - 8778463" locus_tag="LLPMBPKK_07530" class="clusterblast-orf" id="dummy-33_q23_0_all"  />
<polygon points="519,35 524,30 538,30 538,40 524,40 519,35 " style="fill:white; stroke-width:1; stroke:black; " description="&lt;b&gt;LLPMBPKK_07531&lt;/b&gt;&lt;br&gt;LuxR family transcriptional regulator&lt;br&gt;Location: 8778497 - 8780918" locus_tag="LLPMBPKK_07531" class="clusterblast-orf" id="dummy-33_q24_0_all"  />
<polygon points="543,40 546,40 551,35 546,30 543,30 543,40 " style="fill:#15d885; stroke-width:1; stroke:black; " description="&lt;b&gt;LLPMBPKK_07532&lt;/b&gt;&lt;br&gt;Glyoxylate/hydroxypyruvate reductase B&lt;br&gt;Location: 8781546 - 8782569" locus_tag="LLPMBPKK_07532" class="clusterblast-orf" id="dummy-33_q25_0_all"  />
<polygon points="551,40 556,40 561,35 556,30 551,30 551,40 " style="fill:white; stroke-width:1; stroke:black; " description="&lt;b&gt;LLPMBPKK_07533&lt;/b&gt;&lt;br&gt;L-lysine 2,3-aminomutase&lt;br&gt;Location: 8782622 - 8783804" locus_tag="LLPMBPKK_07533" class="clusterblast-orf" id="dummy-33_q26_0_all"  />
<polygon points="561,40 565,40 570,35 565,30 561,30 561,40 " style="fill:white; stroke-width:1; stroke:black; " description="&lt;b&gt;LLPMBPKK_07534&lt;/b&gt;&lt;br&gt;Iron-containing redox enzyme&lt;br&gt;Location: 8783871 - 8784996" locus_tag="LLPMBPKK_07534" class="clusterblast-orf" id="dummy-33_q27_0_all"  />
<polygon points="570,40 573,40 578,35 573,30 570,30 570,40 " style="fill:#4d15d8; stroke-width:1; stroke:black; " description="&lt;b&gt;LLPMBPKK_07535&lt;/b&gt;&lt;br&gt;aminotransferase&lt;br&gt;Location: 8784992 - 8786054" locus_tag="LLPMBPKK_07535" class="clusterblast-orf" id="dummy-33_q28_0_all"  />
<polygon points="579,40 583,40 588,35 583,30 579,30 579,40 " style="fill:#d81569; stroke-width:1; stroke:black; " description="&lt;b&gt;LLPMBPKK_07536&lt;/b&gt;&lt;br&gt;S-adenosylmethionine synthetase&lt;br&gt;Location: 8786138 - 8787302" locus_tag="LLPMBPKK_07536" class="clusterblast-orf" id="dummy-33_q29_0_all"  />
<polygon points="589,40 593,40 598,35 593,30 589,30 589,40 " style="fill:white; stroke-width:1; stroke:black; " description="&lt;b&gt;LLPMBPKK_07537&lt;/b&gt;&lt;br&gt;pyridoxal phosphate-dependent aminotransferase&lt;br&gt;Location: 8787396 - 8788569" locus_tag="LLPMBPKK_07537" class="clusterblast-orf" id="dummy-33_q30_0_all"  />
<polygon points="599,35 604,30 604,30 604,40 604,40 599,35 " style="fill:#a1d815; stroke-width:1; stroke:black; " description="&lt;b&gt;LLPMBPKK_07538&lt;/b&gt;&lt;br&gt;PadR family transcriptional regulator&lt;br&gt;Location: 8788700 - 8789276" locus_tag="LLPMBPKK_07538" class="clusterblast-orf" id="dummy-33_q31_0_all"  />
<polygon points="605,40 608,35 605,30 605,40 " style="fill:#15d8d8; stroke-width:1; stroke:black; " description="&lt;b&gt;LLPMBPKK_07539&lt;/b&gt;&lt;br&gt;nuclear transport factor 2 family protein&lt;br&gt;Location: 8789412 - 8789799" locus_tag="LLPMBPKK_07539" class="clusterblast-orf" id="dummy-33_q32_0_all"  />
<polygon points="608,40 611,35 608,30 608,40 " style="fill:white; stroke-width:1; stroke:black; " description="&lt;b&gt;LLPMBPKK_07540&lt;/b&gt;&lt;br&gt;hypothetical protein&lt;br&gt;Location: 8789875 - 8790142" locus_tag="LLPMBPKK_07540" class="clusterblast-orf" id="dummy-33_q33_0_all"  />
<polygon points="611,40 614,35 611,30 611,40 " style="fill:white; stroke-width:1; stroke:black; " description="&lt;b&gt;LLPMBPKK_07541&lt;/b&gt;&lt;br&gt;TIGR03618 family F420-dependent PPOX class oxidoreductase&lt;br&gt;Location: 8790172 - 8790610" locus_tag="LLPMBPKK_07541" class="clusterblast-orf" id="dummy-33_q34_0_all"  />
<polygon points="615,35 620,30 623,30 623,40 620,40 615,35 " style="fill:white; stroke-width:1; stroke:black; " description="&lt;b&gt;LLPMBPKK_07542&lt;/b&gt;&lt;br&gt;cellulose binding protein&lt;br&gt;Location: 8790662 - 8791763" locus_tag="LLPMBPKK_07542" class="clusterblast-orf" id="dummy-33_q35_0_all"  />
</g>
<g label="NZ_CP020569" description="NZ_CP020569 (1998892-2098465): Streptomyces gilvosporeus strain F607 chromoso... (14% of genes show similarity), NRPS,NRPS-like" class="clusterblast-cluster"  >
<text x="5" y="70" class="clusterblast-acc"  >
<a xlink:href="https://antismash-db.secondarymetabolites.org/area.html?record=NZ_CP020569&amp;start=1998892&amp;end=2098465" target="_blank">NZ_CP020569 (1998892-2098465)</a>: Streptomyces gilvosporeus strain F607 chromoso... (14% of genes show similarity), NRPS,NRPS-like</text>
<line x1="10" y1="85" x2="778.0" y2="85" style="stroke-width:1; stroke:grey; "  />
</g>
<g id="a33_000"  >
<polygon points="0,85 5,80 10,80 10,90 5,90 0,85 " style="fill:white; stroke-width:1; stroke:black; " description="&lt;b&gt;B1H19_RS09060&lt;/b&gt;&lt;br&gt;VOC family protein&lt;br&gt;Location: 2098465 - 2097074" locus_tag="B1H19_RS09060" class="clusterblast-orf" id="dummy-33_h33_4_0"  />
</g>
<g id="a33_001"  >
<polygon points="12,90 16,90 21,85 16,80 12,80 12,90 " style="fill:white; stroke-width:1; stroke:black; " description="&lt;b&gt;B1H19_RS09055&lt;/b&gt;&lt;br&gt;transposase&lt;br&gt;Location: 2096927 - 2095701" locus_tag="B1H19_RS09055" class="clusterblast-orf" id="dummy-33_h33_4_1"  />
</g>
<g id="a33_002"  >
<polygon points="21,85 26,80 31,80 31,90 26,90 21,85 " style="fill:white; stroke-width:1; stroke:black; " description="&lt;b&gt;B1H19_RS09050&lt;/b&gt;&lt;br&gt;FAD-binding oxidoreductase&lt;br&gt;Location: 2095688 - 2094429" locus_tag="B1H19_RS09050" class="clusterblast-orf" id="dummy-33_h33_4_2"  />
</g>
<g id="a33_003"  >
<polygon points="32,90 34,90 39,85 34,80 32,80 32,90 " style="fill:white; stroke-width:1; stroke:black; " description="&lt;b&gt;B1H19_RS09045&lt;/b&gt;&lt;br&gt;LysR family transcriptional regulator&lt;br&gt;Location: 2094382 - 2093435" locus_tag="B1H19_RS09045" class="clusterblast-orf" id="dummy-33_h33_4_3"  />
</g>
<g id="a33_004"  >
<polygon points="39,90 47,90 52,85 47,80 39,80 39,90 " style="fill:white; stroke-width:1; stroke:black; " description="&lt;b&gt;B1H19_RS09040&lt;/b&gt;&lt;br&gt;adenosine deaminase&lt;br&gt;Location: 2093398 - 2091782" locus_tag="B1H19_RS09040" class="clusterblast-orf" id="dummy-33_h33_4_4"  />
</g>
<g id="a33_005"  >
<polygon points="52,85 57,80 72,80 72,90 57,90 52,85 " style="fill:white; stroke-width:1; stroke:black; " description="&lt;b&gt;B1H19_RS09035&lt;/b&gt;&lt;br&gt;SpoIIE family protein phosphatase&lt;br&gt;Location: 2091768 - 2089222" locus_tag="B1H19_RS09035" class="clusterblast-orf" id="dummy-33_h33_4_5"  />
</g>
<g id="a33_006"  >
<polygon points="74,85 76,80 76,90 74,85 " style="fill:white; stroke-width:1; stroke:black; " description="&lt;b&gt;B1H19_RS09030&lt;/b&gt;&lt;br&gt;hypothetical protein&lt;br&gt;Location: 2089079 - 2088726" locus_tag="B1H19_RS09030" class="clusterblast-orf" id="dummy-33_h33_4_6"  />
</g>
<g id="a33_007"  >
<polygon points="78,90 81,85 78,80 78,90 " style="fill:white; stroke-width:1; stroke:black; " description="&lt;b&gt;B1H19_RS09025&lt;/b&gt;&lt;br&gt;STAS domain-containing protein&lt;br&gt;Location: 2088548 - 2088195" locus_tag="B1H19_RS09025" class="clusterblast-orf" id="dummy-33_h33_4_7"  />
</g>
<g id="a33_008"  >
<polygon points="82,90 86,85 82,80 82,90 " style="fill:white; stroke-width:1; stroke:black; " description="&lt;b&gt;B1H19_RS09020&lt;/b&gt;&lt;br&gt;hypothetical protein&lt;br&gt;Location: 2088023 - 2087496" locus_tag="B1H19_RS09020" class="clusterblast-orf" id="dummy-33_h33_4_8"  />
</g>
<g id="a33_009"  >
<polygon points="87,90 88,90 93,85 88,80 87,80 87,90 " style="fill:white; stroke-width:1; stroke:black; " description="&lt;b&gt;B1H19_RS09015&lt;/b&gt;&lt;br&gt;indole-3-glycerol phosphate synthase TrpC&lt;br&gt;Location: 2087382 - 2086591" locus_tag="B1H19_RS09015" class="clusterblast-orf" id="dummy-33_h33_4_9"  />
</g>
<g id="a33_0010"  >
<polygon points="93,85 98,80 102,80 102,90 98,90 93,85 " style="fill:white; stroke-width:1; stroke:black; " description="&lt;b&gt;B1H19_RS09010&lt;/b&gt;&lt;br&gt;anthranilate phosphoribosyltransferase&lt;br&gt;Location: 2086558 - 2085500" locus_tag="B1H19_RS09010" class="clusterblast-orf" id="dummy-33_h33_4_10"  />
</g>
<g id="a33_0011"  >
<polygon points="103,90 109,90 114,85 109,80 103,80 103,90 " style="fill:white; stroke-width:1; stroke:black; " description="&lt;b&gt;B1H19_RS09005&lt;/b&gt;&lt;br&gt;PLP-dependent aminotransferase family protein&lt;br&gt;Location: 2085373 - 2083955" locus_tag="B1H19_RS09005" class="clusterblast-orf" id="dummy-33_h33_4_11"  />
</g>
<g id="a33_0012"  >
<polygon points="114,85 119,80 119,80 119,90 119,90 114,85 " style="fill:white; stroke-width:1; stroke:black; " description="&lt;b&gt;B1H19_RS09000&lt;/b&gt;&lt;br&gt;aminodeoxychorismate/anthranilate synthase component II&lt;br&gt;Location: 2084000 - 2083365" locus_tag="B1H19_RS09000" class="clusterblast-orf" id="dummy-33_h33_4_12"  />
</g>
<g id="a33_0013"  >
<polygon points="119,85 124,80 131,80 131,90 124,90 119,85 " style="fill:white; stroke-width:1; stroke:black; " description="&lt;b&gt;B1H19_RS08995&lt;/b&gt;&lt;br&gt;anthranilate synthase component I family protein&lt;br&gt;Location: 2083368 - 2081824" locus_tag="B1H19_RS08995" class="clusterblast-orf" id="dummy-33_h33_4_13"  />
</g>
<g id="a33_0014"  >
<polygon points="133,90 139,90 144,85 139,80 133,80 133,90 " style="fill:white; stroke-width:1; stroke:black; " description="&lt;b&gt;B1H19_RS08990&lt;/b&gt;&lt;br&gt;3-deoxy-7-phosphoheptulonate synthase class II&lt;br&gt;Location: 2081540 - 2080170" locus_tag="B1H19_RS08990" class="clusterblast-orf" id="dummy-33_h33_4_14"  />
</g>
<g id="a33_0015"  >
<polygon points="146,90 158,90 163,85 158,80 146,80 146,90 " style="fill:white; stroke-width:1; stroke:black; " description="&lt;b&gt;B1H19_RS08985&lt;/b&gt;&lt;br&gt;non-ribosomal peptide synthetase&lt;br&gt;Location: 2079873 - 2077774" locus_tag="B1H19_RS08985" class="clusterblast-orf" id="dummy-33_h33_4_15"  />
</g>
<g id="a33_0016"  >
<polygon points="163,90 166,90 171,85 166,80 163,80 163,90 " style="fill:white; stroke-width:1; stroke:black; " description="&lt;b&gt;B1H19_RS08980&lt;/b&gt;&lt;br&gt;TauD/TfdA family dioxygenase&lt;br&gt;Location: 2077723 - 2076731" locus_tag="B1H19_RS08980" class="clusterblast-orf" id="dummy-33_h33_4_16"  />
</g>
<g id="a33_0017"  >
<polygon points="171,90 174,90 179,85 174,80 171,80 171,90 " style="fill:white; stroke-width:1; stroke:black; " description="&lt;b&gt;B1H19_RS08975&lt;/b&gt;&lt;br&gt;2,3-diaminopropionate biosynthesis protein SbnB&lt;br&gt;Location: 2076709 - 2075672" locus_tag="B1H19_RS08975" class="clusterblast-orf" id="dummy-33_h33_4_17"  />
</g>
<g id="a33_0018"  >
<polygon points="180,90 182,90 187,85 182,80 180,80 180,90 " style="fill:white; stroke-width:1; stroke:black; " description="&lt;b&gt;B1H19_RS08970&lt;/b&gt;&lt;br&gt;2,3-diaminopropionate biosynthesis protein SbnA&lt;br&gt;Location: 2075631 - 2074642" locus_tag="B1H19_RS08970" class="clusterblast-orf" id="dummy-33_h33_4_18"  />
</g>
<g id="a33_0019"  >
<polygon points="188,90 190,85 188,80 188,90 " style="fill:#15d831; stroke-width:1; stroke:black; " description="&lt;b&gt;B1H19_RS08965&lt;/b&gt;&lt;br&gt;MbtH family protein&lt;br&gt;Location: 2074580 - 2074374&lt;br&gt;&lt;br&gt;&lt;b&gt;BlastP hit with LLPMBPKK_07524&lt;/b&gt;&lt;br&gt;Percentage identity: 53&lt;br&gt;Percentage coverage: 86&lt;br&gt;BLAST bit score: 69&lt;br&gt;E-value: 1.2e-15" locus_tag="B1H19_RS08965" class="clusterblast-orf" id="dummy-33_h33_4_19"  />
</g>
<g id="a33_0020"  >
<polygon points="190,90 192,90 197,85 192,80 190,80 190,90 " style="fill:white; stroke-width:1; stroke:black; " description="&lt;b&gt;B1H19_RS08960&lt;/b&gt;&lt;br&gt;L-asparagine oxygenase&lt;br&gt;Location: 2074368 - 2073388" locus_tag="B1H19_RS08960" class="clusterblast-orf" id="dummy-33_h33_4_20"  />
</g>
<g id="a33_0021"  >
<polygon points="204,90 214,90 219,85 214,80 204,80 204,90 " style="fill:white; stroke-width:1; stroke:black; " description="&lt;b&gt;B1H19_RS08955&lt;/b&gt;&lt;br&gt;AfsR/SARP family transcriptional regulator&lt;br&gt;Location: 2072584 - 2070593" locus_tag="B1H19_RS08955" class="clusterblast-orf" id="dummy-33_h33_4_21"  />
</g>
<g id="a33_0022"  >
<polygon points="221,90 224,85 221,80 221,90 " style="fill:white; stroke-width:1; stroke:black; " description="&lt;b&gt;B1H19_RS08950&lt;/b&gt;&lt;br&gt;hypothetical protein&lt;br&gt;Location: 2070361 - 2069963" locus_tag="B1H19_RS08950" class="clusterblast-orf" id="dummy-33_h33_4_22"  />
</g>
<g id="a33_0023"  >
<polygon points="225,85 230,80 232,80 232,90 230,90 225,85 " style="fill:white; stroke-width:1; stroke:black; " description="&lt;b&gt;B1H19_RS08945&lt;/b&gt;&lt;br&gt;ABC transporter permease&lt;br&gt;Location: 2069881 - 2069048" locus_tag="B1H19_RS08945" class="clusterblast-orf" id="dummy-33_h33_4_23"  />
</g>
<g id="a33_0024"  >
<polygon points="233,90 237,90 242,85 237,80 233,80 233,90 " style="fill:white; stroke-width:1; stroke:black; " description="&lt;b&gt;B1H19_RS08940&lt;/b&gt;&lt;br&gt;transposase&lt;br&gt;Location: 2068807 - 2067686" locus_tag="B1H19_RS08940" class="clusterblast-orf" id="dummy-33_h33_4_24"  />
</g>
<g id="a33_0025"  >
<polygon points="243,85 248,80 250,80 250,90 248,90 243,85 " style="fill:white; stroke-width:1; stroke:black; " description="&lt;b&gt;B1H19_RS08935&lt;/b&gt;&lt;br&gt;ATP-binding cassette domain-containing protein&lt;br&gt;Location: 2067604 - 2066645" locus_tag="B1H19_RS08935" class="clusterblast-orf" id="dummy-33_h33_4_25"  />
</g>
<g id="a33_0026"  >
<polygon points="252,85 257,80 257,80 257,90 257,90 252,85 " style="fill:white; stroke-width:1; stroke:black; " description="&lt;b&gt;B1H19_RS08930&lt;/b&gt;&lt;br&gt;response regulator transcription factor&lt;br&gt;Location: 2066457 - 2065801" locus_tag="B1H19_RS08930" class="clusterblast-orf" id="dummy-33_h33_4_26"  />
</g>
<g id="a33_0027"  >
<polygon points="257,85 262,80 266,80 266,90 262,90 257,85 " style="fill:white; stroke-width:1; stroke:black; " description="&lt;b&gt;B1H19_RS08925&lt;/b&gt;&lt;br&gt;two-component sensor histidine kinase&lt;br&gt;Location: 2065804 - 2064650" locus_tag="B1H19_RS08925" class="clusterblast-orf" id="dummy-33_h33_4_27"  />
</g>
<g id="a33_0028"  >
<polygon points="270,90 270,90 275,85 270,80 270,80 270,90 " style="fill:white; stroke-width:1; stroke:black; " description="&lt;b&gt;B1H19_RS08920&lt;/b&gt;&lt;br&gt;hypothetical protein&lt;br&gt;Location: 2064187 - 2063516" locus_tag="B1H19_RS08920" class="clusterblast-orf" id="dummy-33_h33_4_28"  />
</g>
<g id="a33_0029"  >
<polygon points="275,90 278,90 283,85 278,80 275,80 275,90 " style="fill:white; stroke-width:1; stroke:black; " description="&lt;b&gt;B1H19_RS08915&lt;/b&gt;&lt;br&gt;hypothetical protein&lt;br&gt;Location: 2063529 - 2062531" locus_tag="B1H19_RS08915" class="clusterblast-orf" id="dummy-33_h33_4_29"  />
</g>
<g id="a33_0030"  >
<polygon points="285,90 290,90 295,85 290,80 285,80 285,90 " style="fill:white; stroke-width:1; stroke:black; " description="&lt;b&gt;B1H19_RS08910&lt;/b&gt;&lt;br&gt;acyltransferase&lt;br&gt;Location: 2062323 - 2061037" locus_tag="B1H19_RS08910" class="clusterblast-orf" id="dummy-33_h33_4_30"  />
</g>
<g id="a33_0031"  >
<polygon points="295,85 300,80 315,80 315,90 300,90 295,85 " style="fill:white; stroke-width:1; stroke:black; " description="&lt;b&gt;B1H19_RS08905&lt;/b&gt;&lt;br&gt;FtsX-like permease family protein&lt;br&gt;Location: 2061031 - 2058515" locus_tag="B1H19_RS08905" class="clusterblast-orf" id="dummy-33_h33_4_31"  />
</g>
<g id="a33_0032"  >
<polygon points="315,85 320,80 322,80 322,90 320,90 315,85 " style="fill:white; stroke-width:1; stroke:black; " description="&lt;b&gt;B1H19_RS08900&lt;/b&gt;&lt;br&gt;ABC transporter ATP-binding protein&lt;br&gt;Location: 2058518 - 2057628" locus_tag="B1H19_RS08900" class="clusterblast-orf" id="dummy-33_h33_4_32"  />
</g>
<g id="a33_0033"  >
<polygon points="323,85 328,80 336,80 336,90 328,90 323,85 " style="fill:white; stroke-width:1; stroke:black; " description="&lt;b&gt;B1H19_RS08895&lt;/b&gt;&lt;br&gt;amidase&lt;br&gt;Location: 2057486 - 2055822" locus_tag="B1H19_RS08895" class="clusterblast-orf" id="dummy-33_h33_4_33"  />
</g>
<g id="a33_0034"  >
<polygon points="337,85 342,80 419,80 419,90 342,90 337,85 " style="fill:#1585d8; stroke-width:1; stroke:black; " description="&lt;b&gt;B1H19_RS08890&lt;/b&gt;&lt;br&gt;non-ribosomal peptide synthetase&lt;br&gt;Location: 2055615 - 2045305&lt;br&gt;&lt;br&gt;&lt;b&gt;BlastP hit with LLPMBPKK_07516&lt;/b&gt;&lt;br&gt;Percentage identity: 35&lt;br&gt;Percentage coverage: 91&lt;br&gt;BLAST bit score: 211&lt;br&gt;E-value: 4.57e-57&lt;br&gt;&lt;br&gt;&lt;b&gt;BlastP hit with LLPMBPKK_07519&lt;/b&gt;&lt;br&gt;Percentage identity: 41&lt;br&gt;Percentage coverage: 98&lt;br&gt;BLAST bit score: 663&lt;br&gt;E-value: 1.64e-204&lt;br&gt;&lt;br&gt;&lt;b&gt;BlastP hit with LLPMBPKK_07521&lt;/b&gt;&lt;br&gt;Percentage identity: 41&lt;br&gt;Percentage coverage: 96&lt;br&gt;BLAST bit score: 642&lt;br&gt;E-value: 4.04e-197&lt;br&gt;&lt;br&gt;&lt;b&gt;BlastP hit with LLPMBPKK_07522&lt;/b&gt;&lt;br&gt;Percentage identity: 37&lt;br&gt;Percentage coverage: 59&lt;br&gt;BLAST bit score: 521&lt;br&gt;E-value: 1.45e-151&lt;br&gt;&lt;br&gt;&lt;b&gt;BlastP hit with LLPMBPKK_07525&lt;/b&gt;&lt;br&gt;Percentage identity: 38&lt;br&gt;Percentage coverage: 99&lt;br&gt;BLAST bit score: 342&lt;br&gt;E-value: 1.44e-100" locus_tag="B1H19_RS08890" class="clusterblast-orf" id="dummy-33_h33_4_34"  />
</g>
<g id="a33_0035"  >
<polygon points="419,85 424,80 481,80 481,90 424,90 419,85 " style="fill:#1585d8; stroke-width:1; stroke:black; " description="&lt;b&gt;B1H19_RS08885&lt;/b&gt;&lt;br&gt;non-ribosomal peptide synthetase&lt;br&gt;Location: 2045308 - 2037464&lt;br&gt;&lt;br&gt;&lt;b&gt;BlastP hit with LLPMBPKK_07516&lt;/b&gt;&lt;br&gt;Percentage identity: 35&lt;br&gt;Percentage coverage: 91&lt;br&gt;BLAST bit score: 213&lt;br&gt;E-value: 9.62e-58&lt;br&gt;&lt;br&gt;&lt;b&gt;BlastP hit with LLPMBPKK_07519&lt;/b&gt;&lt;br&gt;Percentage identity: 44&lt;br&gt;Percentage coverage: 98&lt;br&gt;BLAST bit score: 715&lt;br&gt;E-value: 3.28e-225&lt;br&gt;&lt;br&gt;&lt;b&gt;BlastP hit with LLPMBPKK_07521&lt;/b&gt;&lt;br&gt;Percentage identity: 44&lt;br&gt;Percentage coverage: 94&lt;br&gt;BLAST bit score: 704&lt;br&gt;E-value: 2.46e-221&lt;br&gt;&lt;br&gt;&lt;b&gt;BlastP hit with LLPMBPKK_07522&lt;/b&gt;&lt;br&gt;Percentage identity: 43&lt;br&gt;Percentage coverage: 59&lt;br&gt;BLAST bit score: 577&lt;br&gt;E-value: 1.31e-170&lt;br&gt;&lt;br&gt;&lt;b&gt;BlastP hit with LLPMBPKK_07523&lt;/b&gt;&lt;br&gt;Percentage identity: 36&lt;br&gt;Percentage coverage: 61&lt;br&gt;BLAST bit score: 500&lt;br&gt;E-value: 3.01e-143" locus_tag="B1H19_RS08885" class="clusterblast-orf" id="dummy-33_h33_4_35"  />
</g>
<g id="a33_0036"  >
<polygon points="481,85 486,80 505,80 505,90 486,90 481,85 " style="fill:#1585d8; stroke-width:1; stroke:black; " description="&lt;b&gt;B1H19_RS08880&lt;/b&gt;&lt;br&gt;non-ribosomal peptide synthetase&lt;br&gt;Location: 2037461 - 2034318&lt;br&gt;&lt;br&gt;&lt;b&gt;BlastP hit with LLPMBPKK_07519&lt;/b&gt;&lt;br&gt;Percentage identity: 41&lt;br&gt;Percentage coverage: 96&lt;br&gt;BLAST bit score: 656&lt;br&gt;E-value: 7.34e-217&lt;br&gt;&lt;br&gt;&lt;b&gt;BlastP hit with LLPMBPKK_07521&lt;/b&gt;&lt;br&gt;Percentage identity: 42&lt;br&gt;Percentage coverage: 93&lt;br&gt;BLAST bit score: 642&lt;br&gt;E-value: 1.36e-211&lt;br&gt;&lt;br&gt;&lt;b&gt;BlastP hit with LLPMBPKK_07522&lt;/b&gt;&lt;br&gt;Percentage identity: 40&lt;br&gt;Percentage coverage: 58&lt;br&gt;BLAST bit score: 546&lt;br&gt;E-value: 2.94e-170&lt;br&gt;&lt;br&gt;&lt;b&gt;BlastP hit with LLPMBPKK_07523&lt;/b&gt;&lt;br&gt;Percentage identity: 37&lt;br&gt;Percentage coverage: 54&lt;br&gt;BLAST bit score: 469&lt;br&gt;E-value: 1.8e-140" locus_tag="B1H19_RS08880" class="clusterblast-orf" id="dummy-33_h33_4_36"  />
</g>
<g id="a33_0037"  >
<polygon points="505,85 510,80 627,80 627,90 510,90 505,85 " style="fill:#1585d8; stroke-width:1; stroke:black; " description="&lt;b&gt;B1H19_RS08875&lt;/b&gt;&lt;br&gt;non-ribosomal peptide synthetase&lt;br&gt;Location: 2034345 - 2018893&lt;br&gt;&lt;br&gt;&lt;b&gt;BlastP hit with LLPMBPKK_07516&lt;/b&gt;&lt;br&gt;Percentage identity: 38&lt;br&gt;Percentage coverage: 91&lt;br&gt;BLAST bit score: 218&lt;br&gt;E-value: 1.5e-59&lt;br&gt;&lt;br&gt;&lt;b&gt;BlastP hit with LLPMBPKK_07519&lt;/b&gt;&lt;br&gt;Percentage identity: 40&lt;br&gt;Percentage coverage: 98&lt;br&gt;BLAST bit score: 639&lt;br&gt;E-value: 2.73e-196&lt;br&gt;&lt;br&gt;&lt;b&gt;BlastP hit with LLPMBPKK_07521&lt;/b&gt;&lt;br&gt;Percentage identity: 40&lt;br&gt;Percentage coverage: 95&lt;br&gt;BLAST bit score: 658&lt;br&gt;E-value: 1.03e-202&lt;br&gt;&lt;br&gt;&lt;b&gt;BlastP hit with LLPMBPKK_07528&lt;/b&gt;&lt;br&gt;Percentage identity: 32&lt;br&gt;Percentage coverage: 27&lt;br&gt;BLAST bit score: 59&lt;br&gt;E-value: 4.13e-07" locus_tag="B1H19_RS08875" class="clusterblast-orf" id="dummy-33_h33_4_37"  />
</g>
<g id="a33_0038"  >
<polygon points="629,90 630,90 635,85 630,80 629,80 629,90 " style="fill:#d86915; stroke-width:1; stroke:black; " description="&lt;b&gt;B1H19_RS08870&lt;/b&gt;&lt;br&gt;thioesterase&lt;br&gt;Location: 2018629 - 2017865&lt;br&gt;&lt;br&gt;&lt;b&gt;BlastP hit with LLPMBPKK_07520&lt;/b&gt;&lt;br&gt;Percentage identity: 37&lt;br&gt;Percentage coverage: 93&lt;br&gt;BLAST bit score: 124&lt;br&gt;E-value: 9.16e-33&lt;br&gt;&lt;br&gt;&lt;b&gt;BlastP hit with LLPMBPKK_07529&lt;/b&gt;&lt;br&gt;Percentage identity: 36&lt;br&gt;Percentage coverage: 100&lt;br&gt;BLAST bit score: 120&lt;br&gt;E-value: 2.91e-31" locus_tag="B1H19_RS08870" class="clusterblast-orf" id="dummy-33_h33_4_38"  />
</g>
<g id="a33_0039"  >
<polygon points="635,85 640,80 645,80 645,90 640,90 635,85 " style="fill:white; stroke-width:1; stroke:black; " description="&lt;b&gt;B1H19_RS08865&lt;/b&gt;&lt;br&gt;DUF2029 domain-containing protein&lt;br&gt;Location: 2017881 - 2016599" locus_tag="B1H19_RS08865" class="clusterblast-orf" id="dummy-33_h33_4_39"  />
</g>
<g id="a33_0040"  >
<polygon points="647,85 652,80 664,80 664,90 652,90 647,85 " style="fill:white; stroke-width:1; stroke:black; " description="&lt;b&gt;B1H19_RS08860&lt;/b&gt;&lt;br&gt;AfsR/SARP family transcriptional regulator&lt;br&gt;Location: 2016392 - 2014266" locus_tag="B1H19_RS08860" class="clusterblast-orf" id="dummy-33_h33_4_40"  />
</g>
<g id="a33_0041"  >
<polygon points="670,90 672,90 677,85 672,80 670,80 670,90 " style="fill:white; stroke-width:1; stroke:black; " description="&lt;b&gt;B1H19_RS08855&lt;/b&gt;&lt;br&gt;hypothetical protein&lt;br&gt;Location: 2013472 - 2012516" locus_tag="B1H19_RS08855" class="clusterblast-orf" id="dummy-33_h33_4_41"  />
</g>
<g id="a33_0042"  >
<polygon points="678,90 679,90 684,85 679,80 678,80 678,90 " style="fill:white; stroke-width:1; stroke:black; " description="&lt;b&gt;B1H19_RS08850&lt;/b&gt;&lt;br&gt;class I SAM-dependent methyltransferase&lt;br&gt;Location: 2012436 - 2011735" locus_tag="B1H19_RS08850" class="clusterblast-orf" id="dummy-33_h33_4_42"  />
</g>
<g id="a33_0043"  >
<polygon points="684,85 688,80 688,90 684,85 " style="fill:white; stroke-width:1; stroke:black; " description="&lt;b&gt;B1H19_RS08845&lt;/b&gt;&lt;br&gt;aspartate 1-decarboxylase&lt;br&gt;Location: 2011650 - 2011234" locus_tag="B1H19_RS08845" class="clusterblast-orf" id="dummy-33_h33_4_43"  />
</g>
<g id="a33_0044"  >
<polygon points="690,90 697,90 702,85 697,80 690,80 690,90 " style="fill:white; stroke-width:1; stroke:black; " description="&lt;b&gt;B1H19_RS08840&lt;/b&gt;&lt;br&gt;tryptophan 7-halogenase&lt;br&gt;Location: 2010892 - 2009342" locus_tag="B1H19_RS08840" class="clusterblast-orf" id="dummy-33_h33_4_44"  />
</g>
<g id="a33_0045"  >
<polygon points="703,90 703,90 708,85 703,80 703,80 703,90 " style="fill:white; stroke-width:1; stroke:black; " description="&lt;b&gt;B1H19_RS08835&lt;/b&gt;&lt;br&gt;flavin reductase family protein&lt;br&gt;Location: 2009230 - 2008595" locus_tag="B1H19_RS08835" class="clusterblast-orf" id="dummy-33_h33_4_45"  />
</g>
<g id="a33_0046"  >
<polygon points="708,90 714,90 719,85 714,80 708,80 708,90 " style="fill:white; stroke-width:1; stroke:black; " description="&lt;b&gt;B1H19_RS08830&lt;/b&gt;&lt;br&gt;cation/H(+) antiporter&lt;br&gt;Location: 2008601 - 2007285" locus_tag="B1H19_RS08830" class="clusterblast-orf" id="dummy-33_h33_4_46"  />
</g>
<g id="a33_0047"  >
<polygon points="721,90 723,90 728,85 723,80 721,80 721,90 " style="fill:white; stroke-width:1; stroke:black; " description="&lt;b&gt;B1H19_RS08825&lt;/b&gt;&lt;br&gt;cation transporter&lt;br&gt;Location: 2007040 - 2006066" locus_tag="B1H19_RS08825" class="clusterblast-orf" id="dummy-33_h33_4_47"  />
</g>
<g id="a33_0048"  >
<polygon points="729,90 729,90 734,85 729,80 729,80 729,90 " style="fill:white; stroke-width:1; stroke:black; " description="&lt;b&gt;B1H19_RS08820&lt;/b&gt;&lt;br&gt;winged helix-turn-helix transcriptional regulator&lt;br&gt;Location: 2005918 - 2005373" locus_tag="B1H19_RS08820" class="clusterblast-orf" id="dummy-33_h33_4_48"  />
</g>
<g id="a33_0049"  >
<polygon points="734,90 749,90 754,85 749,80 734,80 734,90 " style="fill:white; stroke-width:1; stroke:black; " description="&lt;b&gt;B1H19_RS08815&lt;/b&gt;&lt;br&gt;MFS transporter&lt;br&gt;Location: 2005376 - 2002788" locus_tag="B1H19_RS08815" class="clusterblast-orf" id="dummy-33_h33_4_49"  />
</g>
<g id="a33_0050"  >
<polygon points="755,85 760,80 766,80 766,90 760,90 755,85 " style="fill:white; stroke-width:1; stroke:black; " description="&lt;b&gt;B1H19_RS08810&lt;/b&gt;&lt;br&gt;DUF2252 domain-containing protein&lt;br&gt;Location: 2002683 - 2001262" locus_tag="B1H19_RS08810" class="clusterblast-orf" id="dummy-33_h33_4_50"  />
</g>
<g id="a33_0051"  >
<polygon points="766,85 769,80 769,90 766,85 " style="fill:white; stroke-width:1; stroke:black; " description="&lt;b&gt;B1H19_RS08805&lt;/b&gt;&lt;br&gt;hypothetical protein&lt;br&gt;Location: 2001241 - 2000855" locus_tag="B1H19_RS08805" class="clusterblast-orf" id="dummy-33_h33_4_51"  />
</g>
<g id="a33_0052"  >
<polygon points="770,85 774,80 774,90 770,85 " style="fill:#15d8d8; stroke-width:1; stroke:black; " description="&lt;b&gt;B1H19_RS08800&lt;/b&gt;&lt;br&gt;nuclear transport factor 2 family protein&lt;br&gt;Location: 2000755 - 2000273&lt;br&gt;&lt;br&gt;&lt;b&gt;BlastP hit with LLPMBPKK_07539&lt;/b&gt;&lt;br&gt;Percentage identity: 46&lt;br&gt;Percentage coverage: 102&lt;br&gt;BLAST bit score: 95&lt;br&gt;E-value: 9.64e-24" locus_tag="B1H19_RS08800" class="clusterblast-orf" id="dummy-33_h33_4_52"  />
</g>
<g id="a33_0053"  >
<polygon points="775,90 775,90 780,85 775,80 775,80 775,90 " style="fill:#a1d815; stroke-width:1; stroke:black; " description="&lt;b&gt;B1H19_RS08795&lt;/b&gt;&lt;br&gt;PadR family transcriptional regulator&lt;br&gt;Location: 2000145 - 1999576&lt;br&gt;&lt;br&gt;&lt;b&gt;BlastP hit with LLPMBPKK_07538&lt;/b&gt;&lt;br&gt;Percentage identity: 48&lt;br&gt;Percentage coverage: 97&lt;br&gt;BLAST bit score: 157&lt;br&gt;E-value: 5.13e-47" locus_tag="B1H19_RS08795" class="clusterblast-orf" id="dummy-33_h33_4_53"  />
</g>
</svg>
