<svg xmlns="http://www.w3.org/2000/svg" xmlns:xlink="http://www.w3.org/1999/xlink" version="1.1" x="0" y="0" height="230" width="800" viewBox="0 0 800 230" preserveAspectRatio="none"  >
<g label="Query sequence" class="clusterblast-cluster"  >
<text x="5" y="20" class="clusterblast-acc"  >
Query sequence</text>
<line x1="10" y1="35" x2="778.0" y2="35" style="stroke-width:1; stroke:grey; "  />
<polygon points="2,40 12,40 17,35 12,30 2,30 2,40 " style="fill:#d81515; stroke-width:1; stroke:black; " description="&lt;b&gt;LLPMBPKK_00703&lt;/b&gt;&lt;br&gt;hypothetical protein&lt;br&gt;Location: 897958 - 898738" locus_tag="LLPMBPKK_00703" class="clusterblast-orf" id="dummy-6_q0_0_all"  />
<polygon points="17,35 22,30 50,30 50,40 22,40 17,35 " style="fill:white; stroke-width:1; stroke:black; " description="&lt;b&gt;LLPMBPKK_00704&lt;/b&gt;&lt;br&gt;LytR family transcriptional regulator&lt;br&gt;Location: 898753 - 900469" locus_tag="LLPMBPKK_00704" class="clusterblast-orf" id="dummy-6_q1_0_all"  />
<polygon points="53,35 58,30 73,30 73,40 58,40 53,35 " style="fill:#60d815; stroke-width:1; stroke:black; " description="&lt;b&gt;LLPMBPKK_00705&lt;/b&gt;&lt;br&gt;urea transporter&lt;br&gt;Location: 900632 - 901688" locus_tag="LLPMBPKK_00705" class="clusterblast-orf" id="dummy-6_q2_0_all"  />
<polygon points="76,35 81,30 101,30 101,40 81,40 76,35 " style="fill:white; stroke-width:1; stroke:black; " description="&lt;b&gt;LLPMBPKK_00706&lt;/b&gt;&lt;br&gt;hypothetical protein&lt;br&gt;Location: 901826 - 903119" locus_tag="LLPMBPKK_00706" class="clusterblast-orf" id="dummy-6_q3_0_all"  />
<polygon points="105,40 107,40 112,35 107,30 105,30 105,40 " style="fill:#15abd8; stroke-width:1; stroke:black; " description="&lt;b&gt;LLPMBPKK_00707&lt;/b&gt;&lt;br&gt;anti-sigma factor antagonist&lt;br&gt;Location: 903353 - 903722" locus_tag="LLPMBPKK_00707" class="clusterblast-orf" id="dummy-6_q4_0_all"  />
<polygon points="119,40 122,40 127,35 122,30 119,30 119,40 " style="fill:#8d15d8; stroke-width:1; stroke:black; " description="&lt;b&gt;LLPMBPKK_00708&lt;/b&gt;&lt;br&gt;transcription elongation factor GreA&lt;br&gt;Location: 904045 - 904504" locus_tag="LLPMBPKK_00708" class="clusterblast-orf" id="dummy-6_q5_0_all"  />
<polygon points="128,35 133,30 177,30 177,40 133,40 128,35 " style="fill:#d84215; stroke-width:1; stroke:black; " description="&lt;b&gt;LLPMBPKK_00709&lt;/b&gt;&lt;br&gt;chaperone&lt;br&gt;Location: 904558 - 907072" locus_tag="LLPMBPKK_00709" class="clusterblast-orf" id="dummy-6_q6_0_all"  />
<polygon points="195,35 200,30 202,30 202,40 200,40 195,35 " style="fill:white; stroke-width:1; stroke:black; " description="&lt;b&gt;LLPMBPKK_00710&lt;/b&gt;&lt;br&gt;hypothetical protein&lt;br&gt;Location: 908016 - 908409" locus_tag="LLPMBPKK_00710" class="clusterblast-orf" id="dummy-6_q7_0_all"  />
<polygon points="203,35 208,30 220,30 220,40 208,40 203,35 " style="fill:#33d815; stroke-width:1; stroke:black; " description="&lt;b&gt;LLPMBPKK_00711&lt;/b&gt;&lt;br&gt;YegS/Rv2252/BmrU family lipid kinase&lt;br&gt;Location: 908465 - 909347" locus_tag="LLPMBPKK_00711" class="clusterblast-orf" id="dummy-6_q8_0_all"  />
<polygon points="221,35 226,30 252,30 252,40 226,40 221,35 " style="fill:#157ed8; stroke-width:1; stroke:black; " description="&lt;b&gt;LLPMBPKK_00712&lt;/b&gt;&lt;br&gt;FAD-binding oxidoreductase&lt;br&gt;Location: 909389 - 910982" locus_tag="LLPMBPKK_00712" class="clusterblast-orf" id="dummy-6_q9_0_all"  />
<polygon points="254,40 262,40 267,35 262,30 254,30 254,40 " style="fill:#ba15d8; stroke-width:1; stroke:black; " description="&lt;b&gt;LLPMBPKK_00713&lt;/b&gt;&lt;br&gt;TetR/AcrR family transcriptional regulator&lt;br&gt;Location: 911123 - 911771" locus_tag="LLPMBPKK_00713" class="clusterblast-orf" id="dummy-6_q10_0_all"  />
<polygon points="267,40 292,40 297,35 292,30 267,30 267,40 " style="fill:#d86f15; stroke-width:1; stroke:black; " description="&lt;b&gt;LLPMBPKK_00714&lt;/b&gt;&lt;br&gt;glycerol-3-phosphate dehydrogenase/oxidase&lt;br&gt;Location: 911767 - 913342" locus_tag="LLPMBPKK_00714" class="clusterblast-orf" id="dummy-6_q11_0_all"  />
<polygon points="304,40 330,40 335,35 330,30 304,30 304,40 " style="fill:#15d824; stroke-width:1; stroke:black; " description="&lt;b&gt;LLPMBPKK_00715&lt;/b&gt;&lt;br&gt;tryptophan 7-halogenase&lt;br&gt;Location: 913711 - 915334" locus_tag="LLPMBPKK_00715" class="clusterblast-orf" id="dummy-6_q12_0_all"  />
<polygon points="335,40 341,40 346,35 341,30 335,30 335,40 " style="fill:#1551d8; stroke-width:1; stroke:black; " description="&lt;b&gt;LLPMBPKK_00716&lt;/b&gt;&lt;br&gt;flavin reductase&lt;br&gt;Location: 915323 - 915887" locus_tag="LLPMBPKK_00716" class="clusterblast-orf" id="dummy-6_q13_0_all"  />
<polygon points="345,40 362,40 367,35 362,30 345,30 345,40 " style="fill:#d815c9; stroke-width:1; stroke:black; " description="&lt;b&gt;LLPMBPKK_00717&lt;/b&gt;&lt;br&gt;hypothetical protein&lt;br&gt;Location: 915883 - 917014" locus_tag="LLPMBPKK_00717" class="clusterblast-orf" id="dummy-6_q14_0_all"  />
<polygon points="370,40 397,40 402,35 397,30 370,30 370,40 " style="fill:#d89c15; stroke-width:1; stroke:black; " description="&lt;b&gt;LLPMBPKK_00718&lt;/b&gt;&lt;br&gt;CDA peptide synthetase III&lt;br&gt;Location: 917154 - 918852" locus_tag="LLPMBPKK_00718" class="clusterblast-orf" id="dummy-6_q15_0_all"  />
<polygon points="402,40 412,40 417,35 412,30 402,30 402,40 " style="fill:#15d851; stroke-width:1; stroke:black; " description="&lt;b&gt;LLPMBPKK_00719&lt;/b&gt;&lt;br&gt;thioesterase&lt;br&gt;Location: 918851 - 919604" locus_tag="LLPMBPKK_00719" class="clusterblast-orf" id="dummy-6_q16_0_all"  />
<polygon points="417,40 435,40 440,35 435,30 417,30 417,40 " style="fill:#1524d8; stroke-width:1; stroke:black; " description="&lt;b&gt;LLPMBPKK_00720&lt;/b&gt;&lt;br&gt;cytochrome P450&lt;br&gt;Location: 919593 - 920790" locus_tag="LLPMBPKK_00720" class="clusterblast-orf" id="dummy-6_q17_0_all"  />
<polygon points="441,40 442,40 447,35 442,30 441,30 441,40 " style="fill:#d8159c; stroke-width:1; stroke:black; " description="&lt;b&gt;LLPMBPKK_00721&lt;/b&gt;&lt;br&gt;YCII-related domain protein&lt;br&gt;Location: 920854 - 921169" locus_tag="LLPMBPKK_00721" class="clusterblast-orf" id="dummy-6_q18_0_all"  />
<polygon points="447,40 464,40 469,35 464,30 447,30 447,40 " style="fill:#d8c915; stroke-width:1; stroke:black; " description="&lt;b&gt;LLPMBPKK_00722&lt;/b&gt;&lt;br&gt;hydrolase&lt;br&gt;Location: 921165 - 922353" locus_tag="LLPMBPKK_00722" class="clusterblast-orf" id="dummy-6_q19_0_all"  />
<polygon points="469,40 480,40 485,35 480,30 469,30 469,40 " style="fill:#15d87e; stroke-width:1; stroke:black; " description="&lt;b&gt;LLPMBPKK_00723&lt;/b&gt;&lt;br&gt;3-oxoacyl-[acyl-carrier-protein] reductase&lt;br&gt;Location: 922345 - 923146" locus_tag="LLPMBPKK_00723" class="clusterblast-orf" id="dummy-6_q20_0_all"  />
<polygon points="485,40 504,40 509,35 504,30 485,30 485,40 " style="fill:#3315d8; stroke-width:1; stroke:black; " description="&lt;b&gt;LLPMBPKK_00724&lt;/b&gt;&lt;br&gt;ATP-grasp domain protein&lt;br&gt;Location: 923161 - 924427" locus_tag="LLPMBPKK_00724" class="clusterblast-orf" id="dummy-6_q21_0_all"  />
<polygon points="509,40 528,40 533,35 528,30 509,30 509,40 " style="fill:#d8156f; stroke-width:1; stroke:black; " description="&lt;b&gt;LLPMBPKK_00725&lt;/b&gt;&lt;br&gt;pyridoxal-phosphate dependent enzyme&lt;br&gt;Location: 924438 - 925662" locus_tag="LLPMBPKK_00725" class="clusterblast-orf" id="dummy-6_q22_0_all"  />
<polygon points="533,40 554,40 559,35 554,30 533,30 533,40 " style="fill:#bad815; stroke-width:1; stroke:black; " description="&lt;b&gt;LLPMBPKK_00726&lt;/b&gt;&lt;br&gt;MFS transporter&lt;br&gt;Location: 925667 - 927008" locus_tag="LLPMBPKK_00726" class="clusterblast-orf" id="dummy-6_q23_0_all"  />
<polygon points="559,40 579,40 584,35 579,30 559,30 559,40 " style="fill:#15d8ab; stroke-width:1; stroke:black; " description="&lt;b&gt;LLPMBPKK_00727&lt;/b&gt;&lt;br&gt;transporter monovalent cation:proton antiporter-2(CPA2) family protein&lt;br&gt;Location: 927009 - 928332" locus_tag="LLPMBPKK_00727" class="clusterblast-orf" id="dummy-6_q24_0_all"  />
<polygon points="584,35 589,30 612,30 612,40 589,40 584,35 " style="fill:#6015d8; stroke-width:1; stroke:black; " description="&lt;b&gt;LLPMBPKK_00728&lt;/b&gt;&lt;br&gt;Outer membrane protein assembly factor BamB&lt;br&gt;Location: 928352 - 929804" locus_tag="LLPMBPKK_00728" class="clusterblast-orf" id="dummy-6_q25_0_all"  />
<polygon points="617,35 622,30 629,30 629,40 622,40 617,35 " style="fill:white; stroke-width:1; stroke:black; " description="&lt;b&gt;LLPMBPKK_00729&lt;/b&gt;&lt;br&gt;TetR family transcriptional regulator&lt;br&gt;Location: 930052 - 930694" locus_tag="LLPMBPKK_00729" class="clusterblast-orf" id="dummy-6_q26_0_all"  />
<polygon points="632,40 643,40 648,35 643,30 632,30 632,40 " style="fill:#15d87e; stroke-width:1; stroke:black; " description="&lt;b&gt;LLPMBPKK_00730&lt;/b&gt;&lt;br&gt;oxidoreductase&lt;br&gt;Location: 930855 - 931641" locus_tag="LLPMBPKK_00730" class="clusterblast-orf" id="dummy-6_q27_0_all"  />
<polygon points="648,35 653,30 679,30 679,40 653,40 648,35 " style="fill:#d81542; stroke-width:1; stroke:black; " description="&lt;b&gt;LLPMBPKK_00731&lt;/b&gt;&lt;br&gt;ABC-F family ATP-binding cassettedomain-containing protein&lt;br&gt;Location: 931668 - 933291" locus_tag="LLPMBPKK_00731" class="clusterblast-orf" id="dummy-6_q28_0_all"  />
<polygon points="685,35 690,30 691,30 691,40 690,40 685,35 " style="fill:white; stroke-width:1; stroke:black; " description="&lt;b&gt;LLPMBPKK_00732&lt;/b&gt;&lt;br&gt;hypothetical protein&lt;br&gt;Location: 933575 - 933890" locus_tag="LLPMBPKK_00732" class="clusterblast-orf" id="dummy-6_q29_0_all"  />
<polygon points="697,35 702,30 710,30 710,40 702,40 697,35 " style="fill:#15d87e; stroke-width:1; stroke:black; " description="&lt;b&gt;LLPMBPKK_00733&lt;/b&gt;&lt;br&gt;SDR family NAD(P)-dependent oxidoreductase&lt;br&gt;Location: 934205 - 934910" locus_tag="LLPMBPKK_00733" class="clusterblast-orf" id="dummy-6_q30_0_all"  />
<polygon points="713,40 730,40 735,35 730,30 713,30 713,40 " style="fill:#8dd815; stroke-width:1; stroke:black; " description="&lt;b&gt;LLPMBPKK_00734&lt;/b&gt;&lt;br&gt;4Fe-4S ferredoxin&lt;br&gt;Location: 935072 - 936182" locus_tag="LLPMBPKK_00734" class="clusterblast-orf" id="dummy-6_q31_0_all"  />
<polygon points="742,40 752,40 757,35 752,30 742,30 742,40 " style="fill:#15d8d8; stroke-width:1; stroke:black; " description="&lt;b&gt;LLPMBPKK_00735&lt;/b&gt;&lt;br&gt;SAM-dependent methyltransferase&lt;br&gt;Location: 936572 - 937370" locus_tag="LLPMBPKK_00735" class="clusterblast-orf" id="dummy-6_q32_0_all"  />
<polygon points="759,35 764,30 778,30 778,40 764,40 759,35 " style="fill:white; stroke-width:1; stroke:black; " description="&lt;b&gt;LLPMBPKK_00736&lt;/b&gt;&lt;br&gt;hypothetical protein&lt;br&gt;Location: 937433 - 938423" locus_tag="LLPMBPKK_00736" class="clusterblast-orf" id="dummy-6_q33_0_all"  />
</g>
<g label="NZ_WWHG01000001" description="NZ_WWHG01000001 (783021-823713): Streptomyces sp. SID7810 SID7810.c1, whole g... (79% of genes show similarity), NRPS-like" class="clusterblast-cluster"  >
<text x="5" y="70" class="clusterblast-acc"  >
<a xlink:href="https://antismash-db.secondarymetabolites.org/area.html?record=NZ_WWHG01000001&amp;start=783021&amp;end=823713" target="_blank">NZ_WWHG01000001 (783021-823713)</a>: Streptomyces sp. SID7810 SID7810.c1, whole g... (79% of genes show similarity), NRPS-like</text>
<line x1="10" y1="85" x2="778.0" y2="85" style="stroke-width:1; stroke:grey; "  />
</g>
<g id="a6_000"  >
<polygon points="0,90 9,90 14,85 9,80 0,80 0,90 " style="fill:#d81515; stroke-width:1; stroke:black; " description="&lt;b&gt;GTW30_RS03150&lt;/b&gt;&lt;br&gt;DUF1206 domain-containing protein&lt;br&gt;Location: 823713 - 822934&lt;br&gt;&lt;br&gt;&lt;b&gt;BlastP hit with LLPMBPKK_00703&lt;/b&gt;&lt;br&gt;Percentage identity: 88&lt;br&gt;Percentage coverage: 100&lt;br&gt;BLAST bit score: 449&lt;br&gt;E-value: 4.31e-160" locus_tag="GTW30_RS03150" class="clusterblast-orf" id="dummy-6_h6_1_0"  />
</g>
<g id="a6_001"  >
<polygon points="16,85 21,80 33,80 33,90 21,90 16,85 " style="fill:#60d815; stroke-width:1; stroke:black; " description="&lt;b&gt;GTW30_RS03145&lt;/b&gt;&lt;br&gt;urea transporter&lt;br&gt;Location: 822867 - 821944&lt;br&gt;&lt;br&gt;&lt;b&gt;BlastP hit with LLPMBPKK_00705&lt;/b&gt;&lt;br&gt;Percentage identity: 87&lt;br&gt;Percentage coverage: 88&lt;br&gt;BLAST bit score: 486&lt;br&gt;E-value: 1.55e-172" locus_tag="GTW30_RS03145" class="clusterblast-orf" id="dummy-6_h6_1_1"  />
</g>
<g id="a6_002"  >
<polygon points="38,85 42,80 42,90 38,85 " style="fill:white; stroke-width:1; stroke:black; " description="&lt;b&gt;GTW30_RS03140&lt;/b&gt;&lt;br&gt;hypothetical protein&lt;br&gt;Location: 821730 - 821473" locus_tag="GTW30_RS03140" class="clusterblast-orf" id="dummy-6_h6_1_2"  />
</g>
<g id="a6_003"  >
<polygon points="45,85 50,80 77,80 77,90 50,90 45,85 " style="fill:white; stroke-width:1; stroke:black; " description="&lt;b&gt;GTW30_RS03135&lt;/b&gt;&lt;br&gt;FAD-dependent oxidoreductase&lt;br&gt;Location: 821339 - 819675" locus_tag="GTW30_RS03135" class="clusterblast-orf" id="dummy-6_h6_1_3"  />
</g>
<g id="a6_004"  >
<polygon points="82,85 87,80 98,80 98,90 87,90 82,85 " style="fill:white; stroke-width:1; stroke:black; " description="&lt;b&gt;GTW30_RS03130&lt;/b&gt;&lt;br&gt;trypsin-like serine protease&lt;br&gt;Location: 819431 - 818559" locus_tag="GTW30_RS03130" class="clusterblast-orf" id="dummy-6_h6_1_4"  />
</g>
<g id="a6_005"  >
<polygon points="105,90 108,90 113,85 108,80 105,80 105,90 " style="fill:#15abd8; stroke-width:1; stroke:black; " description="&lt;b&gt;GTW30_RS03125&lt;/b&gt;&lt;br&gt;STAS domain-containing protein&lt;br&gt;Location: 818209 - 817805&lt;br&gt;&lt;br&gt;&lt;b&gt;BlastP hit with LLPMBPKK_00707&lt;/b&gt;&lt;br&gt;Percentage identity: 89&lt;br&gt;Percentage coverage: 100&lt;br&gt;BLAST bit score: 216&lt;br&gt;E-value: 2.48e-72" locus_tag="GTW30_RS03125" class="clusterblast-orf" id="dummy-6_h6_1_5"  />
</g>
<g id="a6_006"  >
<polygon points="119,90 123,90 128,85 123,80 119,80 119,90 " style="fill:#8d15d8; stroke-width:1; stroke:black; " description="&lt;b&gt;GTW30_RS03120&lt;/b&gt;&lt;br&gt;nucleoside diphosphate kinase regulator&lt;br&gt;Location: 817475 - 817017&lt;br&gt;&lt;br&gt;&lt;b&gt;BlastP hit with LLPMBPKK_00708&lt;/b&gt;&lt;br&gt;Percentage identity: 93&lt;br&gt;Percentage coverage: 99&lt;br&gt;BLAST bit score: 266&lt;br&gt;E-value: 3.3e-91" locus_tag="GTW30_RS03120" class="clusterblast-orf" id="dummy-6_h6_1_6"  />
</g>
<g id="a6_007"  >
<polygon points="129,85 134,80 177,80 177,90 134,90 129,85 " style="fill:#d84215; stroke-width:1; stroke:black; " description="&lt;b&gt;GTW30_RS03115&lt;/b&gt;&lt;br&gt;AAA domain-containing protein&lt;br&gt;Location: 816965 - 814452&lt;br&gt;&lt;br&gt;&lt;b&gt;BlastP hit with LLPMBPKK_00709&lt;/b&gt;&lt;br&gt;Percentage identity: 92&lt;br&gt;Percentage coverage: 100&lt;br&gt;BLAST bit score: 1479&lt;br&gt;E-value: 0.0" locus_tag="GTW30_RS03115" class="clusterblast-orf" id="dummy-6_h6_1_7"  />
</g>
<g id="a6_008"  >
<polygon points="190,90 192,90 197,85 192,80 190,80 190,90 " style="fill:white; stroke-width:1; stroke:black; " description="&lt;b&gt;GTW30_RS03110&lt;/b&gt;&lt;br&gt;thioesterase&lt;br&gt;Location: 813771 - 813412" locus_tag="GTW30_RS03110" class="clusterblast-orf" id="dummy-6_h6_1_8"  />
</g>
<g id="a6_009"  >
<polygon points="205,85 210,80 221,80 221,90 210,90 205,85 " style="fill:#33d815; stroke-width:1; stroke:black; " description="&lt;b&gt;GTW30_RS03105&lt;/b&gt;&lt;br&gt;YegS/Rv2252/BmrU family lipid kinase&lt;br&gt;Location: 813017 - 812136&lt;br&gt;&lt;br&gt;&lt;b&gt;BlastP hit with LLPMBPKK_00711&lt;/b&gt;&lt;br&gt;Percentage identity: 95&lt;br&gt;Percentage coverage: 100&lt;br&gt;BLAST bit score: 534&lt;br&gt;E-value: 1.23e-192" locus_tag="GTW30_RS03105" class="clusterblast-orf" id="dummy-6_h6_1_9"  />
</g>
<g id="a6_0010"  >
<polygon points="222,85 227,80 253,80 253,90 227,90 222,85 " style="fill:#157ed8; stroke-width:1; stroke:black; " description="&lt;b&gt;GTW30_RS03100&lt;/b&gt;&lt;br&gt;FAD-binding oxidoreductase&lt;br&gt;Location: 812091 - 810499&lt;br&gt;&lt;br&gt;&lt;b&gt;BlastP hit with LLPMBPKK_00712&lt;/b&gt;&lt;br&gt;Percentage identity: 94&lt;br&gt;Percentage coverage: 100&lt;br&gt;BLAST bit score: 995&lt;br&gt;E-value: 0.0" locus_tag="GTW30_RS03100" class="clusterblast-orf" id="dummy-6_h6_1_10"  />
</g>
<g id="a6_0011"  >
<polygon points="256,90 263,90 268,85 263,80 256,80 256,90 " style="fill:#ba15d8; stroke-width:1; stroke:black; " description="&lt;b&gt;GTW30_RS03095&lt;/b&gt;&lt;br&gt;TetR/AcrR family transcriptional regulator&lt;br&gt;Location: 810336 - 809725&lt;br&gt;&lt;br&gt;&lt;b&gt;BlastP hit with LLPMBPKK_00713&lt;/b&gt;&lt;br&gt;Percentage identity: 88&lt;br&gt;Percentage coverage: 100&lt;br&gt;BLAST bit score: 364&lt;br&gt;E-value: 4.73e-128" locus_tag="GTW30_RS03095" class="clusterblast-orf" id="dummy-6_h6_1_11"  />
</g>
<g id="a6_0012"  >
<polygon points="268,90 293,90 298,85 293,80 268,80 268,90 " style="fill:#d86f15; stroke-width:1; stroke:black; " description="&lt;b&gt;GTW30_RS03090&lt;/b&gt;&lt;br&gt;glycerol-3-phosphate dehydrogenase/oxidase&lt;br&gt;Location: 809728 - 808148&lt;br&gt;&lt;br&gt;&lt;b&gt;BlastP hit with LLPMBPKK_00714&lt;/b&gt;&lt;br&gt;Percentage identity: 92&lt;br&gt;Percentage coverage: 100&lt;br&gt;BLAST bit score: 919&lt;br&gt;E-value: 0.0" locus_tag="GTW30_RS03090" class="clusterblast-orf" id="dummy-6_h6_1_12"  />
</g>
<g id="a6_0013"  >
<polygon points="306,90 332,90 337,85 332,80 306,80 306,90 " style="fill:#15d824; stroke-width:1; stroke:black; " description="&lt;b&gt;GTW30_RS03085&lt;/b&gt;&lt;br&gt;tryptophan 7-halogenase&lt;br&gt;Location: 807711 - 806089&lt;br&gt;&lt;br&gt;&lt;b&gt;BlastP hit with LLPMBPKK_00715&lt;/b&gt;&lt;br&gt;Percentage identity: 96&lt;br&gt;Percentage coverage: 100&lt;br&gt;BLAST bit score: 1090&lt;br&gt;E-value: 0.0" locus_tag="GTW30_RS03085" class="clusterblast-orf" id="dummy-6_h6_1_13"  />
</g>
<g id="a6_0014"  >
<polygon points="337,90 343,90 348,85 343,80 337,80 337,90 " style="fill:#1551d8; stroke-width:1; stroke:black; " description="&lt;b&gt;GTW30_RS03080&lt;/b&gt;&lt;br&gt;flavin reductase family protein&lt;br&gt;Location: 806099 - 805536&lt;br&gt;&lt;br&gt;&lt;b&gt;BlastP hit with LLPMBPKK_00716&lt;/b&gt;&lt;br&gt;Percentage identity: 91&lt;br&gt;Percentage coverage: 100&lt;br&gt;BLAST bit score: 341&lt;br&gt;E-value: 8.57e-120" locus_tag="GTW30_RS03080" class="clusterblast-orf" id="dummy-6_h6_1_14"  />
</g>
<g id="a6_0015"  >
<polygon points="348,90 365,90 370,85 365,80 348,80 348,90 " style="fill:#d815c9; stroke-width:1; stroke:black; " description="&lt;b&gt;GTW30_RS03075&lt;/b&gt;&lt;br&gt;GNAT family N-acetyltransferase&lt;br&gt;Location: 805539 - 804409&lt;br&gt;&lt;br&gt;&lt;b&gt;BlastP hit with LLPMBPKK_00717&lt;/b&gt;&lt;br&gt;Percentage identity: 92&lt;br&gt;Percentage coverage: 100&lt;br&gt;BLAST bit score: 720&lt;br&gt;E-value: 1.86e-263" locus_tag="GTW30_RS03075" class="clusterblast-orf" id="dummy-6_h6_1_15"  />
</g>
<g id="a6_0016"  >
<polygon points="370,90 400,90 405,85 400,80 370,80 370,90 " style="fill:#d89c15; stroke-width:1; stroke:black; " description="&lt;b&gt;GTW30_RS03070&lt;/b&gt;&lt;br&gt;non-ribosomal peptide synthetase&lt;br&gt;Location: 804409 - 802580&lt;br&gt;&lt;br&gt;&lt;b&gt;BlastP hit with LLPMBPKK_00718&lt;/b&gt;&lt;br&gt;Percentage identity: 88&lt;br&gt;Percentage coverage: 100&lt;br&gt;BLAST bit score: 981&lt;br&gt;E-value: 0.0" locus_tag="GTW30_RS03070" class="clusterblast-orf" id="dummy-6_h6_1_16"  />
</g>
<g id="a6_0017"  >
<polygon points="405,90 414,90 419,85 414,80 405,80 405,90 " style="fill:#15d851; stroke-width:1; stroke:black; " description="&lt;b&gt;GTW30_RS03065&lt;/b&gt;&lt;br&gt;thioesterase&lt;br&gt;Location: 802580 - 801828&lt;br&gt;&lt;br&gt;&lt;b&gt;BlastP hit with LLPMBPKK_00719&lt;/b&gt;&lt;br&gt;Percentage identity: 93&lt;br&gt;Percentage coverage: 100&lt;br&gt;BLAST bit score: 481&lt;br&gt;E-value: 6.88e-173" locus_tag="GTW30_RS03065" class="clusterblast-orf" id="dummy-6_h6_1_17"  />
</g>
<g id="a6_0018"  >
<polygon points="419,90 437,90 442,85 437,80 419,80 419,90 " style="fill:#1524d8; stroke-width:1; stroke:black; " description="&lt;b&gt;GTW30_RS03060&lt;/b&gt;&lt;br&gt;cytochrome P450&lt;br&gt;Location: 801838 - 800642&lt;br&gt;&lt;br&gt;&lt;b&gt;BlastP hit with LLPMBPKK_00720&lt;/b&gt;&lt;br&gt;Percentage identity: 92&lt;br&gt;Percentage coverage: 100&lt;br&gt;BLAST bit score: 761&lt;br&gt;E-value: 7.23e-279" locus_tag="GTW30_RS03060" class="clusterblast-orf" id="dummy-6_h6_1_18"  />
</g>
<g id="a6_0019"  >
<polygon points="443,90 444,90 449,85 444,80 443,80 443,90 " style="fill:#d8159c; stroke-width:1; stroke:black; " description="&lt;b&gt;GTW30_RS03055&lt;/b&gt;&lt;br&gt;hypothetical protein&lt;br&gt;Location: 800585 - 800271&lt;br&gt;&lt;br&gt;&lt;b&gt;BlastP hit with LLPMBPKK_00721&lt;/b&gt;&lt;br&gt;Percentage identity: 93&lt;br&gt;Percentage coverage: 100&lt;br&gt;BLAST bit score: 203&lt;br&gt;E-value: 6.84e-68" locus_tag="GTW30_RS03055" class="clusterblast-orf" id="dummy-6_h6_1_19"  />
</g>
<g id="a6_0020"  >
<polygon points="449,90 467,90 472,85 467,80 449,80 449,90 " style="fill:#d8c915; stroke-width:1; stroke:black; " description="&lt;b&gt;GTW30_RS03050&lt;/b&gt;&lt;br&gt;hypothetical protein&lt;br&gt;Location: 800274 - 799087&lt;br&gt;&lt;br&gt;&lt;b&gt;BlastP hit with LLPMBPKK_00722&lt;/b&gt;&lt;br&gt;Percentage identity: 89&lt;br&gt;Percentage coverage: 100&lt;br&gt;BLAST bit score: 666&lt;br&gt;E-value: 1.73e-241" locus_tag="GTW30_RS03050" class="clusterblast-orf" id="dummy-6_h6_1_20"  />
</g>
<g id="a6_0021"  >
<polygon points="471,90 482,90 487,85 482,80 471,80 471,90 " style="fill:#15d87e; stroke-width:1; stroke:black; " description="&lt;b&gt;GTW30_RS03045&lt;/b&gt;&lt;br&gt;SDR family oxidoreductase&lt;br&gt;Location: 799094 - 798285&lt;br&gt;&lt;br&gt;&lt;b&gt;BlastP hit with LLPMBPKK_00723&lt;/b&gt;&lt;br&gt;Percentage identity: 94&lt;br&gt;Percentage coverage: 100&lt;br&gt;BLAST bit score: 483&lt;br&gt;E-value: 2.25e-173&lt;br&gt;&lt;br&gt;&lt;b&gt;BlastP hit with LLPMBPKK_00733&lt;/b&gt;&lt;br&gt;Percentage identity: 33&lt;br&gt;Percentage coverage: 106&lt;br&gt;BLAST bit score: 75&lt;br&gt;E-value: 4.3e-14" locus_tag="GTW30_RS03045" class="clusterblast-orf" id="dummy-6_h6_1_21"  />
</g>
<g id="a6_0022"  >
<polygon points="487,90 506,90 511,85 506,80 487,80 487,90 " style="fill:#3315d8; stroke-width:1; stroke:black; " description="&lt;b&gt;GTW30_RS03040&lt;/b&gt;&lt;br&gt;ATP-grasp domain-containing protein&lt;br&gt;Location: 798269 - 797004&lt;br&gt;&lt;br&gt;&lt;b&gt;BlastP hit with LLPMBPKK_00724&lt;/b&gt;&lt;br&gt;Percentage identity: 86&lt;br&gt;Percentage coverage: 100&lt;br&gt;BLAST bit score: 707&lt;br&gt;E-value: 9.17e-257" locus_tag="GTW30_RS03040" class="clusterblast-orf" id="dummy-6_h6_1_22"  />
</g>
<g id="a6_0023"  >
<polygon points="511,90 530,90 535,85 530,80 511,80 511,90 " style="fill:#d8156f; stroke-width:1; stroke:black; " description="&lt;b&gt;GTW30_RS03035&lt;/b&gt;&lt;br&gt;ATP-grasp domain-containing protein&lt;br&gt;Location: 797007 - 795769&lt;br&gt;&lt;br&gt;&lt;b&gt;BlastP hit with LLPMBPKK_00725&lt;/b&gt;&lt;br&gt;Percentage identity: 91&lt;br&gt;Percentage coverage: 100&lt;br&gt;BLAST bit score: 730&lt;br&gt;E-value: 3.87e-266" locus_tag="GTW30_RS03035" class="clusterblast-orf" id="dummy-6_h6_1_23"  />
</g>
<g id="a6_0024"  >
<polygon points="535,90 556,90 561,85 556,80 535,80 535,90 " style="fill:#bad815; stroke-width:1; stroke:black; " description="&lt;b&gt;GTW30_RS03030&lt;/b&gt;&lt;br&gt;MFS transporter&lt;br&gt;Location: 795763 - 794423&lt;br&gt;&lt;br&gt;&lt;b&gt;BlastP hit with LLPMBPKK_00726&lt;/b&gt;&lt;br&gt;Percentage identity: 91&lt;br&gt;Percentage coverage: 100&lt;br&gt;BLAST bit score: 716&lt;br&gt;E-value: 1.96e-259" locus_tag="GTW30_RS03030" class="clusterblast-orf" id="dummy-6_h6_1_24"  />
</g>
<g id="a6_0025"  >
<polygon points="561,90 582,90 587,85 582,80 561,80 561,90 " style="fill:#15d8ab; stroke-width:1; stroke:black; " description="&lt;b&gt;GTW30_RS03025&lt;/b&gt;&lt;br&gt;cation/H(+) antiporter&lt;br&gt;Location: 794421 - 793090&lt;br&gt;&lt;br&gt;&lt;b&gt;BlastP hit with LLPMBPKK_00727&lt;/b&gt;&lt;br&gt;Percentage identity: 92&lt;br&gt;Percentage coverage: 98&lt;br&gt;BLAST bit score: 761&lt;br&gt;E-value: 2.99e-277" locus_tag="GTW30_RS03025" class="clusterblast-orf" id="dummy-6_h6_1_25"  />
</g>
<g id="a6_0026"  >
<polygon points="588,85 593,80 615,80 615,90 593,90 588,85 " style="fill:#6015d8; stroke-width:1; stroke:black; " description="&lt;b&gt;GTW30_RS03020&lt;/b&gt;&lt;br&gt;WGR domain-containing protein&lt;br&gt;Location: 793032 - 791581&lt;br&gt;&lt;br&gt;&lt;b&gt;BlastP hit with LLPMBPKK_00728&lt;/b&gt;&lt;br&gt;Percentage identity: 95&lt;br&gt;Percentage coverage: 100&lt;br&gt;BLAST bit score: 921&lt;br&gt;E-value: 0.0" locus_tag="GTW30_RS03020" class="clusterblast-orf" id="dummy-6_h6_1_26"  />
</g>
<g id="a6_0027"  >
<polygon points="621,90 621,90 626,85 621,80 621,80 621,90 " style="fill:#15d87e; stroke-width:1; stroke:black; " description="&lt;b&gt;GTW30_RS03015&lt;/b&gt;&lt;br&gt;short-chain dehydrogenase&lt;br&gt;Location: 791269 - 791054&lt;br&gt;&lt;br&gt;&lt;b&gt;BlastP hit with LLPMBPKK_00730&lt;/b&gt;&lt;br&gt;Percentage identity: 85&lt;br&gt;Percentage coverage: 27&lt;br&gt;BLAST bit score: 119&lt;br&gt;E-value: 7.85e-33" locus_tag="GTW30_RS03015" class="clusterblast-orf" id="dummy-6_h6_1_27"  />
</g>
<g id="a6_0028"  >
<polygon points="628,85 633,80 658,80 658,90 633,90 628,85 " style="fill:#d81542; stroke-width:1; stroke:black; " description="&lt;b&gt;GTW30_RS03010&lt;/b&gt;&lt;br&gt;ABC-F family ATP-binding cassette domain-containing protein&lt;br&gt;Location: 790944 - 789364&lt;br&gt;&lt;br&gt;&lt;b&gt;BlastP hit with LLPMBPKK_00731&lt;/b&gt;&lt;br&gt;Percentage identity: 89&lt;br&gt;Percentage coverage: 99&lt;br&gt;BLAST bit score: 880&lt;br&gt;E-value: 0.0" locus_tag="GTW30_RS03010" class="clusterblast-orf" id="dummy-6_h6_1_28"  />
</g>
<g id="a6_0029"  >
<polygon points="661,85 666,80 669,80 669,90 666,90 661,85 " style="fill:white; stroke-width:1; stroke:black; " description="&lt;b&gt;GTW30_RS03005&lt;/b&gt;&lt;br&gt;hypothetical protein&lt;br&gt;Location: 789200 - 788775" locus_tag="GTW30_RS03005" class="clusterblast-orf" id="dummy-6_h6_1_29"  />
</g>
<g id="a6_0030"  >
<polygon points="674,85 679,80 688,80 688,90 679,90 674,85 " style="fill:#15d87e; stroke-width:1; stroke:black; " description="&lt;b&gt;GTW30_RS03000&lt;/b&gt;&lt;br&gt;SDR family oxidoreductase&lt;br&gt;Location: 788511 - 787807&lt;br&gt;&lt;br&gt;&lt;b&gt;BlastP hit with LLPMBPKK_00733&lt;/b&gt;&lt;br&gt;Percentage identity: 92&lt;br&gt;Percentage coverage: 100&lt;br&gt;BLAST bit score: 408&lt;br&gt;E-value: 1.3e-144" locus_tag="GTW30_RS03000" class="clusterblast-orf" id="dummy-6_h6_1_30"  />
</g>
<g id="a6_0031"  >
<polygon points="691,90 707,90 712,85 707,80 691,80 691,90 " style="fill:#8dd815; stroke-width:1; stroke:black; " description="&lt;b&gt;GTW30_RS02995&lt;/b&gt;&lt;br&gt;(4Fe-4S)-binding protein&lt;br&gt;Location: 787652 - 786531&lt;br&gt;&lt;br&gt;&lt;b&gt;BlastP hit with LLPMBPKK_00734&lt;/b&gt;&lt;br&gt;Percentage identity: 91&lt;br&gt;Percentage coverage: 100&lt;br&gt;BLAST bit score: 672&lt;br&gt;E-value: 1.41e-244" locus_tag="GTW30_RS02995" class="clusterblast-orf" id="dummy-6_h6_1_31"  />
</g>
<g id="a6_0032"  >
<polygon points="735,85 740,80 742,80 742,90 740,90 735,85 " style="fill:white; stroke-width:1; stroke:black; " description="&lt;b&gt;GTW30_RS02990&lt;/b&gt;&lt;br&gt;SH3 domain-containing protein&lt;br&gt;Location: 785357 - 784956" locus_tag="GTW30_RS02990" class="clusterblast-orf" id="dummy-6_h6_1_32"  />
</g>
<g id="a6_0033"  >
<polygon points="751,90 775,90 780,85 775,80 751,80 751,90 " style="fill:white; stroke-width:1; stroke:black; " description="&lt;b&gt;GTW30_RS02985&lt;/b&gt;&lt;br&gt;glutamate--cysteine ligase&lt;br&gt;Location: 784500 - 783022" locus_tag="GTW30_RS02985" class="clusterblast-orf" id="dummy-6_h6_1_33"  />
</g>
</svg>
