<svg xmlns="http://www.w3.org/2000/svg" xmlns:xlink="http://www.w3.org/1999/xlink" version="1.1" x="0" y="0" height="230" width="800" viewBox="0 0 800 230" preserveAspectRatio="none"  >
<g label="Query sequence" class="clusterblast-cluster"  >
<text x="5" y="20" class="clusterblast-acc"  >
Query sequence</text>
<line x1="10" y1="35" x2="778.0" y2="35" style="stroke-width:1; stroke:grey; "  />
<polygon points="12,35 17,30 33,30 33,40 17,40 12,35 " style="fill:white; stroke-width:1; stroke:black; " description="&lt;b&gt;LLPMBPKK_07859&lt;/b&gt;&lt;br&gt;Protein TolB&lt;br&gt;Location: 9171151 - 9172210" locus_tag="LLPMBPKK_07859" class="clusterblast-orf" id="dummy-37_q0_0_all"  />
<polygon points="35,35 40,30 46,30 46,40 40,40 35,35 " style="fill:white; stroke-width:1; stroke:black; " description="&lt;b&gt;LLPMBPKK_07860&lt;/b&gt;&lt;br&gt;hypothetical protein&lt;br&gt;Location: 9172341 - 9172887" locus_tag="LLPMBPKK_07860" class="clusterblast-orf" id="dummy-37_q1_0_all"  />
<polygon points="51,35 56,30 66,30 66,40 56,40 51,35 " style="fill:white; stroke-width:1; stroke:black; " description="&lt;b&gt;LLPMBPKK_07861&lt;/b&gt;&lt;br&gt;XRE family transcriptional regulator&lt;br&gt;Location: 9173124 - 9173910" locus_tag="LLPMBPKK_07861" class="clusterblast-orf" id="dummy-37_q2_0_all"  />
<polygon points="67,40 78,40 83,35 78,30 67,30 67,40 " style="fill:#d81515; stroke-width:1; stroke:black; " description="&lt;b&gt;LLPMBPKK_07862&lt;/b&gt;&lt;br&gt;short chain dehydrogenase&lt;br&gt;Location: 9173973 - 9174780" locus_tag="LLPMBPKK_07862" class="clusterblast-orf" id="dummy-37_q3_0_all"  />
<polygon points="91,40 108,40 113,35 108,30 91,30 91,40 " style="fill:white; stroke-width:1; stroke:black; " description="&lt;b&gt;LLPMBPKK_07863&lt;/b&gt;&lt;br&gt;serine hydrolase&lt;br&gt;Location: 9175151 - 9176300" locus_tag="LLPMBPKK_07863" class="clusterblast-orf" id="dummy-37_q4_0_all"  />
<polygon points="120,35 125,30 148,30 148,40 125,40 120,35 " style="fill:white; stroke-width:1; stroke:black; " description="&lt;b&gt;LLPMBPKK_07864&lt;/b&gt;&lt;br&gt;Tryptophan halogenase&lt;br&gt;Location: 9176636 - 9178058" locus_tag="LLPMBPKK_07864" class="clusterblast-orf" id="dummy-37_q5_0_all"  />
<polygon points="149,40 167,40 172,35 167,30 149,30 149,40 " style="fill:white; stroke-width:1; stroke:black; " description="&lt;b&gt;LLPMBPKK_07865&lt;/b&gt;&lt;br&gt;carboxylate-amine ligase&lt;br&gt;Location: 9178132 - 9179308" locus_tag="LLPMBPKK_07865" class="clusterblast-orf" id="dummy-37_q6_0_all"  />
<polygon points="182,35 187,30 188,30 188,40 187,40 182,35 " style="fill:#33d815; stroke-width:1; stroke:black; " description="&lt;b&gt;LLPMBPKK_07866&lt;/b&gt;&lt;br&gt;hypothetical protein&lt;br&gt;Location: 9179819 - 9180095" locus_tag="LLPMBPKK_07866" class="clusterblast-orf" id="dummy-37_q7_0_all"  />
<polygon points="190,35 195,30 207,30 207,40 195,40 190,35 " style="fill:white; stroke-width:1; stroke:black; " description="&lt;b&gt;LLPMBPKK_07867&lt;/b&gt;&lt;br&gt;myo-inositol-1(or 4)-monophosphatase&lt;br&gt;Location: 9180229 - 9181078" locus_tag="LLPMBPKK_07867" class="clusterblast-orf" id="dummy-37_q8_0_all"  />
<polygon points="217,40 223,40 228,35 223,30 217,30 217,40 " style="fill:#15abd8; stroke-width:1; stroke:black; " description="&lt;b&gt;LLPMBPKK_07868&lt;/b&gt;&lt;br&gt;hydrolase&lt;br&gt;Location: 9181593 - 9182154" locus_tag="LLPMBPKK_07868" class="clusterblast-orf" id="dummy-37_q9_0_all"  />
<polygon points="236,35 241,30 260,30 260,40 241,40 236,35 " style="fill:#8d15d8; stroke-width:1; stroke:black; " description="&lt;b&gt;LLPMBPKK_07869&lt;/b&gt;&lt;br&gt;oxidoreductase&lt;br&gt;Location: 9182549 - 9183800" locus_tag="LLPMBPKK_07869" class="clusterblast-orf" id="dummy-37_q10_0_all"  />
<polygon points="262,40 269,40 274,35 269,30 262,30 262,40 " style="fill:#d86f15; stroke-width:1; stroke:black; " description="&lt;b&gt;LLPMBPKK_07870&lt;/b&gt;&lt;br&gt;TetR family transcriptional regulator&lt;br&gt;Location: 9183879 - 9184491" locus_tag="LLPMBPKK_07870" class="clusterblast-orf" id="dummy-37_q11_0_all"  />
<polygon points="283,35 288,30 315,30 315,40 288,40 283,35 " style="fill:#15d851; stroke-width:1; stroke:black; " description="&lt;b&gt;LLPMBPKK_07871&lt;/b&gt;&lt;br&gt;peptidase M4&lt;br&gt;Location: 9184939 - 9186577" locus_tag="LLPMBPKK_07871" class="clusterblast-orf" id="dummy-37_q12_0_all"  />
<polygon points="323,35 328,30 351,30 351,40 328,40 323,35 " style="fill:#1551d8; stroke-width:1; stroke:black; " description="&lt;b&gt;LLPMBPKK_07872&lt;/b&gt;&lt;br&gt;PAS domain S-box protein&lt;br&gt;Location: 9186998 - 9188384" locus_tag="LLPMBPKK_07872" class="clusterblast-orf" id="dummy-37_q13_0_all"  />
<polygon points="358,40 380,40 385,35 380,30 358,30 358,40 " style="fill:#d815c9; stroke-width:1; stroke:black; " description="&lt;b&gt;LLPMBPKK_07873&lt;/b&gt;&lt;br&gt;ATP-grasp domain-containing protein&lt;br&gt;Location: 9188751 - 9190125" locus_tag="LLPMBPKK_07873" class="clusterblast-orf" id="dummy-37_q14_0_all"  />
<polygon points="385,40 420,40 425,35 420,30 385,30 385,40 " style="fill:#d8c915; stroke-width:1; stroke:black; " description="&lt;b&gt;LLPMBPKK_07874&lt;/b&gt;&lt;br&gt;phosphoenolpyruvate synthase&lt;br&gt;Location: 9190121 - 9192152" locus_tag="LLPMBPKK_07874" class="clusterblast-orf" id="dummy-37_q15_0_all"  />
<polygon points="425,40 447,40 452,35 447,30 425,30 425,40 " style="fill:#15d8ab; stroke-width:1; stroke:black; " description="&lt;b&gt;LLPMBPKK_07875&lt;/b&gt;&lt;br&gt;MFS transporter&lt;br&gt;Location: 9192160 - 9193537" locus_tag="LLPMBPKK_07875" class="clusterblast-orf" id="dummy-37_q16_0_all"  />
<polygon points="455,35 460,30 461,30 461,40 460,40 455,35 " style="fill:white; stroke-width:1; stroke:black; " description="&lt;b&gt;LLPMBPKK_07876&lt;/b&gt;&lt;br&gt;hypothetical protein&lt;br&gt;Location: 9193707 - 9194004" locus_tag="LLPMBPKK_07876" class="clusterblast-orf" id="dummy-37_q17_0_all"  />
<polygon points="464,40 467,35 464,30 464,40 " style="fill:white; stroke-width:1; stroke:black; " description="&lt;b&gt;LLPMBPKK_07877&lt;/b&gt;&lt;br&gt;hypothetical protein&lt;br&gt;Location: 9194132 - 9194330" locus_tag="LLPMBPKK_07877" class="clusterblast-orf" id="dummy-37_q18_0_all"  />
<polygon points="466,35 471,30 472,30 472,40 471,40 466,35 " style="fill:white; stroke-width:1; stroke:black; " description="&lt;b&gt;LLPMBPKK_07878&lt;/b&gt;&lt;br&gt;hypothetical protein&lt;br&gt;Location: 9194268 - 9194583" locus_tag="LLPMBPKK_07878" class="clusterblast-orf" id="dummy-37_q19_0_all"  />
<polygon points="477,35 482,30 503,30 503,40 482,40 477,35 " style="fill:#3315d8; stroke-width:1; stroke:black; " description="&lt;b&gt;LLPMBPKK_07879&lt;/b&gt;&lt;br&gt;major facilitator superfamily transporter&lt;br&gt;Location: 9194832 - 9196128" locus_tag="LLPMBPKK_07879" class="clusterblast-orf" id="dummy-37_q20_0_all"  />
<polygon points="503,35 508,30 513,30 513,40 508,40 503,35 " style="fill:#d8156f; stroke-width:1; stroke:black; " description="&lt;b&gt;LLPMBPKK_07880&lt;/b&gt;&lt;br&gt;Helix-turn-helix domain protein&lt;br&gt;Location: 9196124 - 9196664" locus_tag="LLPMBPKK_07880" class="clusterblast-orf" id="dummy-37_q21_0_all"  />
<polygon points="515,40 519,35 515,30 515,40 " style="fill:white; stroke-width:1; stroke:black; " description="&lt;b&gt;LLPMBPKK_07881&lt;/b&gt;&lt;br&gt;MarR family transcriptional regulator&lt;br&gt;Location: 9196772 - 9196979" locus_tag="LLPMBPKK_07881" class="clusterblast-orf" id="dummy-37_q22_0_all"  />
<polygon points="527,35 532,30 534,30 534,40 532,40 527,35 " style="fill:white; stroke-width:1; stroke:black; " description="&lt;b&gt;LLPMBPKK_07882&lt;/b&gt;&lt;br&gt;hypothetical protein&lt;br&gt;Location: 9197378 - 9197711" locus_tag="LLPMBPKK_07882" class="clusterblast-orf" id="dummy-37_q23_0_all"  />
<polygon points="542,35 547,30 550,30 550,40 547,40 542,35 " style="fill:white; stroke-width:1; stroke:black; " description="&lt;b&gt;LLPMBPKK_07883&lt;/b&gt;&lt;br&gt;VOC family protein&lt;br&gt;Location: 9198102 - 9198510" locus_tag="LLPMBPKK_07883" class="clusterblast-orf" id="dummy-37_q24_0_all"  />
<polygon points="558,40 618,40 623,35 618,30 558,30 558,40 " style="fill:white; stroke-width:1; stroke:black; " description="&lt;b&gt;LLPMBPKK_07884&lt;/b&gt;&lt;br&gt;Protein TolB&lt;br&gt;Location: 9198952 - 9202243" locus_tag="LLPMBPKK_07884" class="clusterblast-orf" id="dummy-37_q25_0_all"  />
<polygon points="627,35 632,30 646,30 646,40 632,40 627,35 " style="fill:white; stroke-width:1; stroke:black; " description="&lt;b&gt;LLPMBPKK_07885&lt;/b&gt;&lt;br&gt;hypothetical protein&lt;br&gt;Location: 9202432 - 9203407" locus_tag="LLPMBPKK_07885" class="clusterblast-orf" id="dummy-37_q26_0_all"  />
<polygon points="648,40 652,40 657,35 652,30 648,30 648,40 " style="fill:white; stroke-width:1; stroke:black; " description="&lt;b&gt;LLPMBPKK_07886&lt;/b&gt;&lt;br&gt;MarR family transcriptional regulator&lt;br&gt;Location: 9203525 - 9204002" locus_tag="LLPMBPKK_07886" class="clusterblast-orf" id="dummy-37_q27_0_all"  />
<polygon points="660,35 665,30 668,30 668,40 665,40 660,35 " style="fill:white; stroke-width:1; stroke:black; " description="&lt;b&gt;LLPMBPKK_07887&lt;/b&gt;&lt;br&gt;GNAT family N-acetyltransferase&lt;br&gt;Location: 9204119 - 9204515" locus_tag="LLPMBPKK_07887" class="clusterblast-orf" id="dummy-37_q28_0_all"  />
<polygon points="681,40 700,40 705,35 700,30 681,30 681,40 " style="fill:#8dd815; stroke-width:1; stroke:black; " description="&lt;b&gt;LLPMBPKK_07888&lt;/b&gt;&lt;br&gt;serine/threonine-protein phosphatase&lt;br&gt;Location: 9205196 - 9206399" locus_tag="LLPMBPKK_07888" class="clusterblast-orf" id="dummy-37_q29_0_all"  />
<polygon points="713,35 718,30 718,30 718,40 718,40 713,35 " style="fill:white; stroke-width:1; stroke:black; " description="&lt;b&gt;LLPMBPKK_07889&lt;/b&gt;&lt;br&gt;transposase&lt;br&gt;Location: 9206839 - 9207100" locus_tag="LLPMBPKK_07889" class="clusterblast-orf" id="dummy-37_q30_0_all"  />
<polygon points="720,35 725,30 736,30 736,40 725,40 720,35 " style="fill:white; stroke-width:1; stroke:black; " description="&lt;b&gt;LLPMBPKK_07890&lt;/b&gt;&lt;br&gt;class I SAM-dependent methyltransferase&lt;br&gt;Location: 9207165 - 9207993" locus_tag="LLPMBPKK_07890" class="clusterblast-orf" id="dummy-37_q31_0_all"  />
<polygon points="751,40 762,40 767,35 762,30 751,30 751,40 " style="fill:white; stroke-width:1; stroke:black; " description="&lt;b&gt;LLPMBPKK_07891&lt;/b&gt;&lt;br&gt;alpha/beta hydrolase&lt;br&gt;Location: 9208770 - 9209598" locus_tag="LLPMBPKK_07891" class="clusterblast-orf" id="dummy-37_q32_0_all"  />
</g>
<g label="NZ_VISR01000007" description="NZ_VISR01000007 (183433-224807): Streptomyces sp. BK340 Ga0307703 107, whole ... (22% of genes show similarity), other" class="clusterblast-cluster"  >
<text x="5" y="70" class="clusterblast-acc"  >
<a xlink:href="https://antismash-db.secondarymetabolites.org/area.html?record=NZ_VISR01000007&amp;start=183433&amp;end=224807" target="_blank">NZ_VISR01000007 (183433-224807)</a>: Streptomyces sp. BK340 Ga0307703 107, whole ... (22% of genes show similarity), other</text>
<line x1="10" y1="85" x2="778.0" y2="85" style="stroke-width:1; stroke:grey; "  />
</g>
<g id="a37_000"  >
<polygon points="0,90 47,90 52,85 47,80 0,80 0,90 " style="fill:white; stroke-width:1; stroke:black; " description="&lt;b&gt;FB157_RS16470&lt;/b&gt;&lt;br&gt;AAA family ATPase&lt;br&gt;Location: 223547 - 220857" locus_tag="FB157_RS16470" class="clusterblast-orf" id="dummy-37_h37_9_0"  />
</g>
<g id="a37_001"  >
<polygon points="54,85 59,80 70,80 70,90 59,90 54,85 " style="fill:white; stroke-width:1; stroke:black; " description="&lt;b&gt;FB157_RS16465&lt;/b&gt;&lt;br&gt;hypothetical protein&lt;br&gt;Location: 220797 - 219946" locus_tag="FB157_RS16465" class="clusterblast-orf" id="dummy-37_h37_9_1"  />
</g>
<g id="a37_002"  >
<polygon points="75,85 80,80 113,80 113,90 80,90 75,85 " style="fill:white; stroke-width:1; stroke:black; " description="&lt;b&gt;FB157_RS16460&lt;/b&gt;&lt;br&gt;hypothetical protein&lt;br&gt;Location: 219726 - 217760" locus_tag="FB157_RS16460" class="clusterblast-orf" id="dummy-37_h37_9_2"  />
</g>
<g id="a37_003"  >
<polygon points="116,85 121,80 144,80 144,90 121,90 116,85 " style="fill:white; stroke-width:1; stroke:black; " description="&lt;b&gt;FB157_RS16455&lt;/b&gt;&lt;br&gt;hypothetical protein&lt;br&gt;Location: 217626 - 216217" locus_tag="FB157_RS16455" class="clusterblast-orf" id="dummy-37_h37_9_3"  />
</g>
<g id="a37_004"  >
<polygon points="153,90 204,90 209,85 204,80 153,80 153,90 " style="fill:white; stroke-width:1; stroke:black; " description="&lt;b&gt;FB157_RS16450&lt;/b&gt;&lt;br&gt;AAA family ATPase&lt;br&gt;Location: 215749 - 212882" locus_tag="FB157_RS16450" class="clusterblast-orf" id="dummy-37_h37_9_4"  />
</g>
<g id="a37_005"  >
<polygon points="213,90 224,90 229,85 224,80 213,80 213,90 " style="fill:white; stroke-width:1; stroke:black; " description="&lt;b&gt;FB157_RS16445&lt;/b&gt;&lt;br&gt;hypothetical protein&lt;br&gt;Location: 212693 - 211875" locus_tag="FB157_RS16445" class="clusterblast-orf" id="dummy-37_h37_9_5"  />
</g>
<g id="a37_006"  >
<polygon points="229,90 268,90 273,85 268,80 229,80 229,90 " style="fill:white; stroke-width:1; stroke:black; " description="&lt;b&gt;FB157_RS16440&lt;/b&gt;&lt;br&gt;ABC transporter substrate-binding protein&lt;br&gt;Location: 211875 - 209635" locus_tag="FB157_RS16440" class="clusterblast-orf" id="dummy-37_h37_9_6"  />
</g>
<g id="a37_007"  >
<polygon points="273,90 311,90 316,85 311,80 273,80 273,90 " style="fill:white; stroke-width:1; stroke:black; " description="&lt;b&gt;FB157_RS16435&lt;/b&gt;&lt;br&gt;ABC transporter substrate-binding protein&lt;br&gt;Location: 209624 - 207447" locus_tag="FB157_RS16435" class="clusterblast-orf" id="dummy-37_h37_9_7"  />
</g>
<g id="a37_008"  >
<polygon points="317,85 322,80 327,80 327,90 322,90 317,85 " style="fill:white; stroke-width:1; stroke:black; " description="&lt;b&gt;FB157_RS16430&lt;/b&gt;&lt;br&gt;hypothetical protein&lt;br&gt;Location: 207405 - 206905" locus_tag="FB157_RS16430" class="clusterblast-orf" id="dummy-37_h37_9_8"  />
</g>
<g id="a37_009"  >
<polygon points="337,85 342,80 362,80 362,90 342,90 337,85 " style="fill:#1551d8; stroke-width:1; stroke:black; " description="&lt;b&gt;FB157_RS16425&lt;/b&gt;&lt;br&gt;PAS domain-containing protein&lt;br&gt;Location: 206375 - 205092&lt;br&gt;&lt;br&gt;&lt;b&gt;BlastP hit with LLPMBPKK_07872&lt;/b&gt;&lt;br&gt;Percentage identity: 60&lt;br&gt;Percentage coverage: 100&lt;br&gt;BLAST bit score: 496&lt;br&gt;E-value: 1.59e-172" locus_tag="FB157_RS16425" class="clusterblast-orf" id="dummy-37_h37_9_9"  />
</g>
<g id="a37_0010"  >
<polygon points="368,90 390,90 395,85 390,80 368,80 368,90 " style="fill:#d815c9; stroke-width:1; stroke:black; " description="&lt;b&gt;FB157_RS16420&lt;/b&gt;&lt;br&gt;ATP-grasp domain-containing protein&lt;br&gt;Location: 204807 - 203434&lt;br&gt;&lt;br&gt;&lt;b&gt;BlastP hit with LLPMBPKK_07873&lt;/b&gt;&lt;br&gt;Percentage identity: 80&lt;br&gt;Percentage coverage: 100&lt;br&gt;BLAST bit score: 682&lt;br&gt;E-value: 7.92e-246" locus_tag="FB157_RS16420" class="clusterblast-orf" id="dummy-37_h37_9_10"  />
</g>
<g id="a37_0011"  >
<polygon points="395,90 429,90 434,85 429,80 395,80 395,90 " style="fill:#d8c915; stroke-width:1; stroke:black; " description="&lt;b&gt;FB157_RS16415&lt;/b&gt;&lt;br&gt;phosphoenolpyruvate synthase&lt;br&gt;Location: 203437 - 201425&lt;br&gt;&lt;br&gt;&lt;b&gt;BlastP hit with LLPMBPKK_07874&lt;/b&gt;&lt;br&gt;Percentage identity: 79&lt;br&gt;Percentage coverage: 100&lt;br&gt;BLAST bit score: 1063&lt;br&gt;E-value: 0.0" locus_tag="FB157_RS16415" class="clusterblast-orf" id="dummy-37_h37_9_11"  />
</g>
<g id="a37_0012"  >
<polygon points="434,90 456,90 461,85 456,80 434,80 434,90 " style="fill:#15d8ab; stroke-width:1; stroke:black; " description="&lt;b&gt;FB157_RS16410&lt;/b&gt;&lt;br&gt;MFS transporter&lt;br&gt;Location: 201416 - 200043&lt;br&gt;&lt;br&gt;&lt;b&gt;BlastP hit with LLPMBPKK_07875&lt;/b&gt;&lt;br&gt;Percentage identity: 76&lt;br&gt;Percentage coverage: 99&lt;br&gt;BLAST bit score: 628&lt;br&gt;E-value: 2.31e-224" locus_tag="FB157_RS16410" class="clusterblast-orf" id="dummy-37_h37_9_12"  />
</g>
<g id="a37_0013"  >
<polygon points="464,85 469,80 498,80 498,90 469,90 464,85 " style="fill:#15d851; stroke-width:1; stroke:black; " description="&lt;b&gt;FB157_RS16405&lt;/b&gt;&lt;br&gt;M4 family metallopeptidase&lt;br&gt;Location: 199930 - 198185&lt;br&gt;&lt;br&gt;&lt;b&gt;BlastP hit with LLPMBPKK_07871&lt;/b&gt;&lt;br&gt;Percentage identity: 79&lt;br&gt;Percentage coverage: 100&lt;br&gt;BLAST bit score: 828&lt;br&gt;E-value: 5.09e-300" locus_tag="FB157_RS16405" class="clusterblast-orf" id="dummy-37_h37_9_13"  />
</g>
<g id="a37_0014"  >
<polygon points="505,90 505,90 510,85 505,80 505,80 505,90 " style="fill:white; stroke-width:1; stroke:black; " description="&lt;b&gt;FB157_RS16400&lt;/b&gt;&lt;br&gt;hypothetical protein&lt;br&gt;Location: 197825 - 197571" locus_tag="FB157_RS16400" class="clusterblast-orf" id="dummy-37_h37_9_14"  />
</g>
<g id="a37_0015"  >
<polygon points="513,90 533,90 538,85 533,80 513,80 513,90 " style="fill:white; stroke-width:1; stroke:black; " description="&lt;b&gt;FB157_RS16395&lt;/b&gt;&lt;br&gt;hypothetical protein&lt;br&gt;Location: 197399 - 196155" locus_tag="FB157_RS16395" class="clusterblast-orf" id="dummy-37_h37_9_15"  />
</g>
<g id="a37_0016"  >
<polygon points="538,90 607,90 612,85 607,80 538,80 538,90 " style="fill:white; stroke-width:1; stroke:black; " description="&lt;b&gt;FB157_RS16390&lt;/b&gt;&lt;br&gt;CHAT domain-containing protein&lt;br&gt;Location: 196150 - 192401" locus_tag="FB157_RS16390" class="clusterblast-orf" id="dummy-37_h37_9_16"  />
</g>
<g id="a37_0017"  >
<polygon points="612,90 613,90 618,85 613,80 612,80 612,90 " style="fill:white; stroke-width:1; stroke:black; " description="&lt;b&gt;FB157_RS16385&lt;/b&gt;&lt;br&gt;hypothetical protein&lt;br&gt;Location: 192384 - 192094" locus_tag="FB157_RS16385" class="clusterblast-orf" id="dummy-37_h37_9_17"  />
</g>
<g id="a37_0018"  >
<polygon points="617,90 641,90 646,85 641,80 617,80 617,90 " style="fill:white; stroke-width:1; stroke:black; " description="&lt;b&gt;FB157_RS16380&lt;/b&gt;&lt;br&gt;hypothetical protein&lt;br&gt;Location: 192107 - 190623" locus_tag="FB157_RS16380" class="clusterblast-orf" id="dummy-37_h37_9_18"  />
</g>
<g id="a37_0019"  >
<polygon points="649,90 703,90 708,85 703,80 649,80 649,90 " style="fill:white; stroke-width:1; stroke:black; " description="&lt;b&gt;FB157_RS16375&lt;/b&gt;&lt;br&gt;CHAT domain-containing protein&lt;br&gt;Location: 190479 - 187477" locus_tag="FB157_RS16375" class="clusterblast-orf" id="dummy-37_h37_9_19"  />
</g>
<g id="a37_0020"  >
<polygon points="713,90 735,90 740,85 735,80 713,80 713,90 " style="fill:white; stroke-width:1; stroke:black; " description="&lt;b&gt;FB157_RS16370&lt;/b&gt;&lt;br&gt;MFS transporter&lt;br&gt;Location: 187231 - 185852" locus_tag="FB157_RS16370" class="clusterblast-orf" id="dummy-37_h37_9_20"  />
</g>
<g id="a37_0021"  >
<polygon points="741,85 746,80 779,80 779,90 746,90 741,85 " style="fill:white; stroke-width:1; stroke:black; " description="&lt;b&gt;FB157_RS16365&lt;/b&gt;&lt;br&gt;GAF domain-containing protein&lt;br&gt;Location: 185805 - 183853" locus_tag="FB157_RS16365" class="clusterblast-orf" id="dummy-37_h37_9_21"  />
</g>
</svg>
