<svg xmlns="http://www.w3.org/2000/svg" xmlns:xlink="http://www.w3.org/1999/xlink" version="1.1" x="0" y="0" height="230" width="800" viewBox="0 0 800 230" preserveAspectRatio="none"  >
<g label="Query sequence" class="clusterblast-cluster"  >
<text x="5" y="20" class="clusterblast-acc"  >
Query sequence</text>
<line x1="10" y1="35" x2="778.0" y2="35" style="stroke-width:1; stroke:grey; "  />
<polygon points="253,35 258,30 260,30 260,40 258,40 253,35 " style="fill:#d81515; stroke-width:1; stroke:black; " description="&lt;b&gt;LLPMBPKK_00577&lt;/b&gt;&lt;br&gt;LysR family transcriptional regulator&lt;br&gt;Location: 754811 - 755753" locus_tag="LLPMBPKK_00577" class="clusterblast-orf" id="dummy-4_q0_0_all"  />
<polygon points="261,40 265,40 270,35 265,30 261,30 261,40 " style="fill:#4dd815; stroke-width:1; stroke:black; " description="&lt;b&gt;LLPMBPKK_00578&lt;/b&gt;&lt;br&gt;MFS transporter multidrug efflux transporter&lt;br&gt;Location: 755886 - 757161" locus_tag="LLPMBPKK_00578" class="clusterblast-orf" id="dummy-4_q1_0_all"  />
<polygon points="271,40 274,40 279,35 274,30 271,30 271,40 " style="fill:white; stroke-width:1; stroke:black; " description="&lt;b&gt;LLPMBPKK_00579&lt;/b&gt;&lt;br&gt;VWA domain-containing protein&lt;br&gt;Location: 757388 - 758429" locus_tag="LLPMBPKK_00579" class="clusterblast-orf" id="dummy-4_q2_0_all"  />
<polygon points="279,35 282,30 282,40 279,35 " style="fill:white; stroke-width:1; stroke:black; " description="&lt;b&gt;LLPMBPKK_00580&lt;/b&gt;&lt;br&gt;hypothetical protein&lt;br&gt;Location: 758543 - 758969" locus_tag="LLPMBPKK_00580" class="clusterblast-orf" id="dummy-4_q3_0_all"  />
<polygon points="285,35 290,30 291,30 291,40 290,40 285,35 " style="fill:white; stroke-width:1; stroke:black; " description="&lt;b&gt;LLPMBPKK_00581&lt;/b&gt;&lt;br&gt;Ribosomal protein S6--L-glutamate ligase&lt;br&gt;Location: 759296 - 760241" locus_tag="LLPMBPKK_00581" class="clusterblast-orf" id="dummy-4_q4_0_all"  />
<polygon points="293,35 298,30 298,30 298,40 298,40 293,35 " style="fill:white; stroke-width:1; stroke:black; " description="&lt;b&gt;LLPMBPKK_00582&lt;/b&gt;&lt;br&gt;Ubiquinone biosynthesis O-methyltransferase&lt;br&gt;Location: 760461 - 761205" locus_tag="LLPMBPKK_00582" class="clusterblast-orf" id="dummy-4_q5_0_all"  />
<polygon points="301,35 306,30 320,30 320,40 306,40 301,35 " style="fill:white; stroke-width:1; stroke:black; " description="&lt;b&gt;LLPMBPKK_00583&lt;/b&gt;&lt;br&gt;Phosphoesterase family protein&lt;br&gt;Location: 761589 - 764340" locus_tag="LLPMBPKK_00583" class="clusterblast-orf" id="dummy-4_q6_0_all"  />
<polygon points="320,35 325,30 330,30 330,40 325,40 320,35 " style="fill:white; stroke-width:1; stroke:black; " description="&lt;b&gt;LLPMBPKK_00584&lt;/b&gt;&lt;br&gt;ABC transporter permease&lt;br&gt;Location: 764404 - 765772" locus_tag="LLPMBPKK_00584" class="clusterblast-orf" id="dummy-4_q7_0_all"  />
<polygon points="330,35 335,30 337,30 337,40 335,40 330,35 " style="fill:#1585d8; stroke-width:1; stroke:black; " description="&lt;b&gt;LLPMBPKK_00585&lt;/b&gt;&lt;br&gt;ABC transporter ATP-binding protein&lt;br&gt;Location: 765768 - 766875" locus_tag="LLPMBPKK_00585" class="clusterblast-orf" id="dummy-4_q8_0_all"  />
<polygon points="341,35 345,30 345,40 341,35 " style="fill:#a115d8; stroke-width:1; stroke:black; " description="&lt;b&gt;LLPMBPKK_00586&lt;/b&gt;&lt;br&gt;two component system DNA binding responseregulator&lt;br&gt;Location: 767325 - 767961" locus_tag="LLPMBPKK_00586" class="clusterblast-orf" id="dummy-4_q9_0_all"  />
<polygon points="345,35 350,30 354,30 354,40 350,40 345,35 " style="fill:#d86915; stroke-width:1; stroke:black; " description="&lt;b&gt;LLPMBPKK_00587&lt;/b&gt;&lt;br&gt;two component system histidine kinase&lt;br&gt;Location: 767957 - 769229" locus_tag="LLPMBPKK_00587" class="clusterblast-orf" id="dummy-4_q10_0_all"  />
<polygon points="356,40 358,40 363,35 358,30 356,30 356,40 " style="fill:white; stroke-width:1; stroke:black; " description="&lt;b&gt;LLPMBPKK_00588&lt;/b&gt;&lt;br&gt;ABC transporter&lt;br&gt;Location: 769497 - 770595" locus_tag="LLPMBPKK_00588" class="clusterblast-orf" id="dummy-4_q11_0_all"  />
<polygon points="363,40 363,40 368,35 363,30 363,30 363,40 " style="fill:#15d831; stroke-width:1; stroke:black; " description="&lt;b&gt;LLPMBPKK_00589&lt;/b&gt;&lt;br&gt;ABC transporter ATP-binding protein&lt;br&gt;Location: 770591 - 771275" locus_tag="LLPMBPKK_00589" class="clusterblast-orf" id="dummy-4_q12_0_all"  />
<polygon points="369,40 369,40 374,35 369,30 369,30 369,40 " style="fill:white; stroke-width:1; stroke:black; " description="&lt;b&gt;LLPMBPKK_00590&lt;/b&gt;&lt;br&gt;hypothetical protein&lt;br&gt;Location: 771430 - 772081" locus_tag="LLPMBPKK_00590" class="clusterblast-orf" id="dummy-4_q13_0_all"  />
<polygon points="374,40 381,40 386,35 381,30 374,30 374,40 " style="fill:white; stroke-width:1; stroke:black; " description="&lt;b&gt;LLPMBPKK_00591&lt;/b&gt;&lt;br&gt;Serine/threonine-protein kinase PknD&lt;br&gt;Location: 772151 - 773846" locus_tag="LLPMBPKK_00591" class="clusterblast-orf" id="dummy-4_q14_0_all"  />
<polygon points="386,35 391,30 391,30 391,40 391,40 386,35 " style="fill:white; stroke-width:1; stroke:black; " description="&lt;b&gt;LLPMBPKK_00592&lt;/b&gt;&lt;br&gt;hypothetical protein&lt;br&gt;Location: 773882 - 774539" locus_tag="LLPMBPKK_00592" class="clusterblast-orf" id="dummy-4_q15_0_all"  />
<polygon points="392,35 397,30 399,30 399,40 397,40 392,35 " style="fill:#1531d8; stroke-width:1; stroke:black; " description="&lt;b&gt;LLPMBPKK_00593&lt;/b&gt;&lt;br&gt;1,3,6,8-tetrahydroxynaphthalene synthase&lt;br&gt;Location: 774701 - 775748" locus_tag="LLPMBPKK_00593" class="clusterblast-orf" id="dummy-4_q16_0_all"  />
<polygon points="400,35 405,30 407,30 407,40 405,40 400,35 " style="fill:#d815bc; stroke-width:1; stroke:black; " description="&lt;b&gt;LLPMBPKK_00594&lt;/b&gt;&lt;br&gt;MmyB-like transcription regulator ligand bindingdomain protein&lt;br&gt;Location: 775864 - 776848" locus_tag="LLPMBPKK_00594" class="clusterblast-orf" id="dummy-4_q17_0_all"  />
<polygon points="409,35 414,30 415,30 415,40 414,40 409,35 " style="fill:white; stroke-width:1; stroke:black; " description="&lt;b&gt;LLPMBPKK_00595&lt;/b&gt;&lt;br&gt;aminoglycoside phosphotransferase&lt;br&gt;Location: 777119 - 777935" locus_tag="LLPMBPKK_00595" class="clusterblast-orf" id="dummy-4_q18_0_all"  />
<polygon points="417,40 417,40 422,35 417,30 417,30 417,40 " style="fill:white; stroke-width:1; stroke:black; " description="&lt;b&gt;LLPMBPKK_00596&lt;/b&gt;&lt;br&gt;hypothetical protein&lt;br&gt;Location: 778299 - 779046" locus_tag="LLPMBPKK_00596" class="clusterblast-orf" id="dummy-4_q19_0_all"  />
<polygon points="425,35 430,30 434,30 434,40 430,40 425,35 " style="fill:#d8bc15; stroke-width:1; stroke:black; " description="&lt;b&gt;LLPMBPKK_00597&lt;/b&gt;&lt;br&gt;cytochrome P450 hydroxylase&lt;br&gt;Location: 779472 - 780702" locus_tag="LLPMBPKK_00597" class="clusterblast-orf" id="dummy-4_q20_0_all"  />
<polygon points="435,35 437,30 437,40 435,35 " style="fill:white; stroke-width:1; stroke:black; " description="&lt;b&gt;LLPMBPKK_00598&lt;/b&gt;&lt;br&gt;hypothetical protein&lt;br&gt;Location: 780838 - 781204" locus_tag="LLPMBPKK_00598" class="clusterblast-orf" id="dummy-4_q21_0_all"  />
<polygon points="440,40 441,40 446,35 441,30 440,30 440,40 " style="fill:white; stroke-width:1; stroke:black; " description="&lt;b&gt;LLPMBPKK_00599&lt;/b&gt;&lt;br&gt;helix-turn-helix domain-containing protein&lt;br&gt;Location: 781514 - 782399" locus_tag="LLPMBPKK_00599" class="clusterblast-orf" id="dummy-4_q22_0_all"  />
<polygon points="446,35 451,30 455,30 455,40 451,40 446,35 " style="fill:#15d885; stroke-width:1; stroke:black; " description="&lt;b&gt;LLPMBPKK_00600&lt;/b&gt;&lt;br&gt;beta-glucosidase&lt;br&gt;Location: 782423 - 783803" locus_tag="LLPMBPKK_00600" class="clusterblast-orf" id="dummy-4_q23_0_all"  />
<polygon points="456,35 461,30 461,30 461,40 461,40 456,35 " style="fill:#4d15d8; stroke-width:1; stroke:black; " description="&lt;b&gt;LLPMBPKK_00601&lt;/b&gt;&lt;br&gt;sugar transport integral membrane protein&lt;br&gt;Location: 783820 - 784654" locus_tag="LLPMBPKK_00601" class="clusterblast-orf" id="dummy-4_q24_0_all"  />
<polygon points="461,35 466,30 468,30 468,40 466,40 461,35 " style="fill:#d81569; stroke-width:1; stroke:black; " description="&lt;b&gt;LLPMBPKK_00602&lt;/b&gt;&lt;br&gt;sugar transport integral membrane protein&lt;br&gt;Location: 784660 - 785605" locus_tag="LLPMBPKK_00602" class="clusterblast-orf" id="dummy-4_q25_0_all"  />
<polygon points="468,35 473,30 477,30 477,40 473,40 468,35 " style="fill:#a1d815; stroke-width:1; stroke:black; " description="&lt;b&gt;LLPMBPKK_00603&lt;/b&gt;&lt;br&gt;sugar transport sugar binding protein&lt;br&gt;Location: 785616 - 786855" locus_tag="LLPMBPKK_00603" class="clusterblast-orf" id="dummy-4_q26_0_all"  />
<polygon points="479,40 490,40 495,35 490,30 479,30 479,40 " style="fill:#15d8d8; stroke-width:1; stroke:black; " description="&lt;b&gt;LLPMBPKK_00604&lt;/b&gt;&lt;br&gt;alpha-xylosidase&lt;br&gt;Location: 787137 - 789408" locus_tag="LLPMBPKK_00604" class="clusterblast-orf" id="dummy-4_q27_0_all"  />
<polygon points="496,35 501,30 503,30 503,40 501,40 496,35 " style="fill:white; stroke-width:1; stroke:black; " description="&lt;b&gt;LLPMBPKK_00605&lt;/b&gt;&lt;br&gt;oxidoreductase&lt;br&gt;Location: 789603 - 790680" locus_tag="LLPMBPKK_00605" class="clusterblast-orf" id="dummy-4_q28_0_all"  />
<polygon points="504,40 508,35 504,30 504,40 " style="fill:white; stroke-width:1; stroke:black; " description="&lt;b&gt;LLPMBPKK_00606&lt;/b&gt;&lt;br&gt;transcriptional regulator&lt;br&gt;Location: 790784 - 791372" locus_tag="LLPMBPKK_00606" class="clusterblast-orf" id="dummy-4_q29_0_all"  />
<polygon points="509,40 513,35 509,30 509,40 " style="fill:white; stroke-width:1; stroke:black; " description="&lt;b&gt;LLPMBPKK_00607&lt;/b&gt;&lt;br&gt;N-acetyltransferase&lt;br&gt;Location: 791433 - 792000" locus_tag="LLPMBPKK_00607" class="clusterblast-orf" id="dummy-4_q30_0_all"  />
<polygon points="513,40 514,40 519,35 514,30 513,30 513,40 " style="fill:white; stroke-width:1; stroke:black; " description="&lt;b&gt;LLPMBPKK_00608&lt;/b&gt;&lt;br&gt;hypothetical protein&lt;br&gt;Location: 792060 - 792918" locus_tag="LLPMBPKK_00608" class="clusterblast-orf" id="dummy-4_q31_0_all"  />
<polygon points="519,35 524,30 526,30 526,40 524,40 519,35 " style="fill:white; stroke-width:1; stroke:black; " description="&lt;b&gt;LLPMBPKK_00609&lt;/b&gt;&lt;br&gt;transcriptional regulator&lt;br&gt;Location: 792948 - 793893" locus_tag="LLPMBPKK_00609" class="clusterblast-orf" id="dummy-4_q32_0_all"  />
</g>
<g label="NZ_CP018627" description="NZ_CP018627 (1254218-1366044): Streptomyces hygroscopicus strain XM201 chromo... (12% of genes show similarity), NRPS,T1PKS" class="clusterblast-cluster"  >
<text x="5" y="70" class="clusterblast-acc"  >
<a xlink:href="https://antismash-db.secondarymetabolites.org/area.html?record=NZ_CP018627&amp;start=1254218&amp;end=1366044" target="_blank">NZ_CP018627 (1254218-1366044)</a>: Streptomyces hygroscopicus strain XM201 chromo... (12% of genes show similarity), NRPS,T1PKS</text>
<line x1="10" y1="85" x2="778.0" y2="85" style="stroke-width:1; stroke:grey; "  />
</g>
<g id="a4_000"  >
<polygon points="0,90 11,90 16,85 11,80 0,80 0,90 " style="fill:white; stroke-width:1; stroke:black; " description="&lt;b&gt;SHXM_RS05205&lt;/b&gt;&lt;br&gt;glycoside hydrolase family 127 protein&lt;br&gt;Location: 1254219 - 1256618" locus_tag="SHXM_RS05205" class="clusterblast-orf" id="dummy-4_h4_6_0"  />
</g>
<g id="a4_001"  >
<polygon points="18,90 22,85 18,80 18,90 " style="fill:white; stroke-width:1; stroke:black; " description="&lt;b&gt;SHXM_RS05210&lt;/b&gt;&lt;br&gt;TetR/AcrR family transcriptional regulator&lt;br&gt;Location: 1256830 - 1257462" locus_tag="SHXM_RS05210" class="clusterblast-orf" id="dummy-4_h4_6_1"  />
</g>
<g id="a4_002"  >
<polygon points="22,90 27,90 32,85 27,80 22,80 22,90 " style="fill:white; stroke-width:1; stroke:black; " description="&lt;b&gt;SHXM_RS05215&lt;/b&gt;&lt;br&gt;MFS transporter&lt;br&gt;Location: 1257459 - 1258949" locus_tag="SHXM_RS05215" class="clusterblast-orf" id="dummy-4_h4_6_2"  />
</g>
<g id="a4_003"  >
<polygon points="33,90 36,85 33,80 33,90 " style="fill:white; stroke-width:1; stroke:black; " description="&lt;b&gt;SHXM_RS05220&lt;/b&gt;&lt;br&gt;MerR family transcriptional regulator&lt;br&gt;Location: 1259027 - 1259479" locus_tag="SHXM_RS05220" class="clusterblast-orf" id="dummy-4_h4_6_3"  />
</g>
<g id="a4_004"  >
<polygon points="36,90 39,90 44,85 39,80 36,80 36,90 " style="fill:white; stroke-width:1; stroke:black; " description="&lt;b&gt;SHXM_RS05225&lt;/b&gt;&lt;br&gt;aldehyde reductase&lt;br&gt;Location: 1259516 - 1260613" locus_tag="SHXM_RS05225" class="clusterblast-orf" id="dummy-4_h4_6_4"  />
</g>
<g id="a4_005"  >
<polygon points="46,90 46,90 51,85 46,80 46,80 46,90 " style="fill:white; stroke-width:1; stroke:black; " description="&lt;b&gt;SHXM_RS05230&lt;/b&gt;&lt;br&gt;nucleotidyltransferase domain-containing protein&lt;br&gt;Location: 1260832 - 1261581" locus_tag="SHXM_RS05230" class="clusterblast-orf" id="dummy-4_h4_6_5"  />
</g>
<g id="a4_006"  >
<polygon points="52,85 57,80 57,80 57,90 57,90 52,85 " style="fill:#a115d8; stroke-width:1; stroke:black; " description="&lt;b&gt;SHXM_RS05235&lt;/b&gt;&lt;br&gt;response regulator transcription factor&lt;br&gt;Location: 1261781 - 1262416&lt;br&gt;&lt;br&gt;&lt;b&gt;BlastP hit with LLPMBPKK_00586&lt;/b&gt;&lt;br&gt;Percentage identity: 40&lt;br&gt;Percentage coverage: 100&lt;br&gt;BLAST bit score: 124&lt;br&gt;E-value: 1.62e-33" locus_tag="SHXM_RS05235" class="clusterblast-orf" id="dummy-4_h4_6_6"  />
</g>
<g id="a4_007"  >
<polygon points="57,85 62,80 65,80 65,90 62,90 57,85 " style="fill:#d86915; stroke-width:1; stroke:black; " description="&lt;b&gt;SHXM_RS05240&lt;/b&gt;&lt;br&gt;two-component sensor histidine kinase&lt;br&gt;Location: 1262413 - 1263645&lt;br&gt;&lt;br&gt;&lt;b&gt;BlastP hit with LLPMBPKK_00587&lt;/b&gt;&lt;br&gt;Percentage identity: 35&lt;br&gt;Percentage coverage: 57&lt;br&gt;BLAST bit score: 94&lt;br&gt;E-value: 8.6e-19" locus_tag="SHXM_RS05240" class="clusterblast-orf" id="dummy-4_h4_6_7"  />
</g>
<g id="a4_008"  >
<polygon points="66,85 69,80 69,90 66,85 " style="fill:white; stroke-width:1; stroke:black; " description="&lt;b&gt;SHXM_RS05245&lt;/b&gt;&lt;br&gt;hypothetical protein&lt;br&gt;Location: 1263714 - 1264232" locus_tag="SHXM_RS05245" class="clusterblast-orf" id="dummy-4_h4_6_8"  />
</g>
<g id="a4_009"  >
<polygon points="71,85 76,80 76,80 76,90 76,90 71,85 " style="fill:white; stroke-width:1; stroke:black; " description="&lt;b&gt;SHXM_RS05250&lt;/b&gt;&lt;br&gt;EamA family transporter&lt;br&gt;Location: 1264408 - 1265220" locus_tag="SHXM_RS05250" class="clusterblast-orf" id="dummy-4_h4_6_9"  />
</g>
<g id="a4_0010"  >
<polygon points="78,90 79,90 84,85 79,80 78,80 78,90 " style="fill:white; stroke-width:1; stroke:black; " description="&lt;b&gt;SHXM_RS05255&lt;/b&gt;&lt;br&gt;LysR family transcriptional regulator&lt;br&gt;Location: 1265490 - 1266344" locus_tag="SHXM_RS05255" class="clusterblast-orf" id="dummy-4_h4_6_10"  />
</g>
<g id="a4_0011"  >
<polygon points="85,90 88,85 85,80 85,90 " style="fill:white; stroke-width:1; stroke:black; " description="&lt;b&gt;SHXM_RS05260&lt;/b&gt;&lt;br&gt;winged helix-turn-helix transcriptional regulator&lt;br&gt;Location: 1266407 - 1266895" locus_tag="SHXM_RS05260" class="clusterblast-orf" id="dummy-4_h4_6_11"  />
</g>
<g id="a4_0012"  >
<polygon points="89,90 94,90 99,85 94,80 89,80 89,90 " style="fill:white; stroke-width:1; stroke:black; " description="&lt;b&gt;SHXM_RS05265&lt;/b&gt;&lt;br&gt;MFS transporter&lt;br&gt;Location: 1267031 - 1268521" locus_tag="SHXM_RS05265" class="clusterblast-orf" id="dummy-4_h4_6_12"  />
</g>
<g id="a4_0013"  >
<polygon points="101,90 104,85 101,80 101,90 " style="fill:white; stroke-width:1; stroke:black; " description="&lt;b&gt;SHXM_RS05270&lt;/b&gt;&lt;br&gt;hypothetical protein&lt;br&gt;Location: 1268733 - 1269158" locus_tag="SHXM_RS05270" class="clusterblast-orf" id="dummy-4_h4_6_13"  />
</g>
<g id="a4_0014"  >
<polygon points="104,90 107,85 104,80 104,90 " style="fill:white; stroke-width:1; stroke:black; " description="&lt;b&gt;SHXM_RS05275&lt;/b&gt;&lt;br&gt;hypothetical protein&lt;br&gt;Location: 1269235 - 1269666" locus_tag="SHXM_RS05275" class="clusterblast-orf" id="dummy-4_h4_6_14"  />
</g>
<g id="a4_0015"  >
<polygon points="108,85 113,80 117,80 117,90 113,90 108,85 " style="fill:#d8bc15; stroke-width:1; stroke:black; " description="&lt;b&gt;SHXM_RS05280&lt;/b&gt;&lt;br&gt;cytochrome P450&lt;br&gt;Location: 1269750 - 1271021&lt;br&gt;&lt;br&gt;&lt;b&gt;BlastP hit with LLPMBPKK_00597&lt;/b&gt;&lt;br&gt;Percentage identity: 40&lt;br&gt;Percentage coverage: 96&lt;br&gt;BLAST bit score: 241&lt;br&gt;E-value: 1.47e-73" locus_tag="SHXM_RS05280" class="clusterblast-orf" id="dummy-4_h4_6_15"  />
</g>
<g id="a4_0016"  >
<polygon points="117,85 119,80 119,90 117,85 " style="fill:white; stroke-width:1; stroke:black; " description="&lt;b&gt;SHXM_RS05285&lt;/b&gt;&lt;br&gt;acyl carrier protein&lt;br&gt;Location: 1271018 - 1271371" locus_tag="SHXM_RS05285" class="clusterblast-orf" id="dummy-4_h4_6_16"  />
</g>
<g id="a4_0017"  >
<polygon points="121,85 126,80 126,80 126,90 126,90 121,85 " style="fill:white; stroke-width:1; stroke:black; " description="&lt;b&gt;SHXM_RS51195&lt;/b&gt;&lt;br&gt;KR domain-containing protein&lt;br&gt;Location: 1271600 - 1272340" locus_tag="SHXM_RS51195" class="clusterblast-orf" id="dummy-4_h4_6_17"  />
</g>
<g id="a4_0018"  >
<polygon points="133,85 138,80 161,80 161,90 138,90 133,85 " style="fill:white; stroke-width:1; stroke:black; " description="&lt;b&gt;SHXM_RS51200&lt;/b&gt;&lt;br&gt;SDR family NAD(P)-dependent oxidoreductase&lt;br&gt;Location: 1273415 - 1277320" locus_tag="SHXM_RS51200" class="clusterblast-orf" id="dummy-4_h4_6_18"  />
</g>
<g id="a4_0019"  >
<polygon points="164,85 169,80 170,80 170,90 169,90 164,85 " style="fill:white; stroke-width:1; stroke:black; " description="&lt;b&gt;SHXM_RS51205&lt;/b&gt;&lt;br&gt;alcohol dehydrogenase catalytic domain-containing protein&lt;br&gt;Location: 1277870 - 1278682" locus_tag="SHXM_RS51205" class="clusterblast-orf" id="dummy-4_h4_6_19"  />
</g>
<g id="a4_0020"  >
<polygon points="177,85 182,80 195,80 195,90 182,90 177,85 " style="fill:white; stroke-width:1; stroke:black; " description="&lt;b&gt;SHXM_RS05315&lt;/b&gt;&lt;br&gt;type I polyketide synthase&lt;br&gt;Location: 1279598 - 1282255" locus_tag="SHXM_RS05315" class="clusterblast-orf" id="dummy-4_h4_6_20"  />
</g>
<g id="a4_0021"  >
<polygon points="196,85 199,80 199,90 196,85 " style="fill:white; stroke-width:1; stroke:black; " description="&lt;b&gt;SHXM_RS52740&lt;/b&gt;&lt;br&gt;hypothetical protein&lt;br&gt;Location: 1282343 - 1282825" locus_tag="SHXM_RS52740" class="clusterblast-orf" id="dummy-4_h4_6_21"  />
</g>
<g id="a4_0022"  >
<polygon points="199,85 204,80 204,80 204,90 204,90 199,85 " style="fill:white; stroke-width:1; stroke:black; " description="&lt;b&gt;SHXM_RS05325&lt;/b&gt;&lt;br&gt;SDR family NAD(P)-dependent oxidoreductase&lt;br&gt;Location: 1282832 - 1283500" locus_tag="SHXM_RS05325" class="clusterblast-orf" id="dummy-4_h4_6_22"  />
</g>
<g id="a4_0023"  >
<polygon points="207,85 212,80 226,80 226,90 212,90 207,85 " style="fill:white; stroke-width:1; stroke:black; " description="&lt;b&gt;SHXM_RS51210&lt;/b&gt;&lt;br&gt;type I polyketide synthase&lt;br&gt;Location: 1283933 - 1286626" locus_tag="SHXM_RS51210" class="clusterblast-orf" id="dummy-4_h4_6_23"  />
</g>
<g id="a4_0024"  >
<polygon points="230,85 235,80 236,80 236,90 235,90 230,85 " style="fill:white; stroke-width:1; stroke:black; " description="&lt;b&gt;SHXM_RS05340&lt;/b&gt;&lt;br&gt;SDR family NAD(P)-dependent oxidoreductase&lt;br&gt;Location: 1287212 - 1288069" locus_tag="SHXM_RS05340" class="clusterblast-orf" id="dummy-4_h4_6_24"  />
</g>
<g id="a4_0025"  >
<polygon points="237,85 239,80 239,90 237,85 " style="fill:white; stroke-width:1; stroke:black; " description="&lt;b&gt;SHXM_RS52745&lt;/b&gt;&lt;br&gt;hypothetical protein&lt;br&gt;Location: 1288319 - 1288594" locus_tag="SHXM_RS52745" class="clusterblast-orf" id="dummy-4_h4_6_25"  />
</g>
<g id="a4_0026"  >
<polygon points="240,85 245,80 245,80 245,90 245,90 240,85 " style="fill:white; stroke-width:1; stroke:black; " description="&lt;b&gt;SHXM_RS05345&lt;/b&gt;&lt;br&gt;acyltransferase domain-containing protein&lt;br&gt;Location: 1288655 - 1289434" locus_tag="SHXM_RS05345" class="clusterblast-orf" id="dummy-4_h4_6_26"  />
</g>
<g id="a4_0027"  >
<polygon points="246,85 249,80 249,90 246,85 " style="fill:white; stroke-width:1; stroke:black; " description="&lt;b&gt;SHXM_RS51215&lt;/b&gt;&lt;br&gt;hypothetical protein&lt;br&gt;Location: 1289549 - 1289959" locus_tag="SHXM_RS51215" class="clusterblast-orf" id="dummy-4_h4_6_27"  />
</g>
<g id="a4_0028"  >
<polygon points="251,85 256,80 256,80 256,90 256,90 251,85 " style="fill:white; stroke-width:1; stroke:black; " description="&lt;b&gt;SHXM_RS05350&lt;/b&gt;&lt;br&gt;polyketide synthase&lt;br&gt;Location: 1290287 - 1291021" locus_tag="SHXM_RS05350" class="clusterblast-orf" id="dummy-4_h4_6_28"  />
</g>
<g id="a4_0029"  >
<polygon points="257,85 260,80 260,90 257,85 " style="fill:white; stroke-width:1; stroke:black; " description="&lt;b&gt;SHXM_RS05355&lt;/b&gt;&lt;br&gt;type I polyketide synthase&lt;br&gt;Location: 1291115 - 1291633" locus_tag="SHXM_RS05355" class="clusterblast-orf" id="dummy-4_h4_6_29"  />
</g>
<g id="a4_0030"  >
<polygon points="261,85 266,80 269,80 269,90 266,90 261,85 " style="fill:white; stroke-width:1; stroke:black; " description="&lt;b&gt;SHXM_RS05360&lt;/b&gt;&lt;br&gt;SDR family NAD(P)-dependent oxidoreductase&lt;br&gt;Location: 1291643 - 1292809" locus_tag="SHXM_RS05360" class="clusterblast-orf" id="dummy-4_h4_6_30"  />
</g>
<g id="a4_0031"  >
<polygon points="269,85 274,80 324,80 324,90 274,90 269,85 " style="fill:white; stroke-width:1; stroke:black; " description="&lt;b&gt;SHXM_RS51220&lt;/b&gt;&lt;br&gt;SDR family NAD(P)-dependent oxidoreductase&lt;br&gt;Location: 1292870 - 1300672" locus_tag="SHXM_RS51220" class="clusterblast-orf" id="dummy-4_h4_6_31"  />
</g>
<g id="a4_0032"  >
<polygon points="340,85 345,80 350,80 350,90 345,90 340,85 " style="fill:white; stroke-width:1; stroke:black; " description="&lt;b&gt;SHXM_RS51225&lt;/b&gt;&lt;br&gt;polyketide synthase&lt;br&gt;Location: 1303019 - 1304416" locus_tag="SHXM_RS51225" class="clusterblast-orf" id="dummy-4_h4_6_32"  />
</g>
<g id="a4_0033"  >
<polygon points="350,85 353,80 353,90 350,85 " style="fill:white; stroke-width:1; stroke:black; " description="&lt;b&gt;SHXM_RS51230&lt;/b&gt;&lt;br&gt;acyl carrier protein&lt;br&gt;Location: 1304461 - 1304955" locus_tag="SHXM_RS51230" class="clusterblast-orf" id="dummy-4_h4_6_33"  />
</g>
<g id="a4_0034"  >
<polygon points="355,85 360,80 364,80 364,90 360,90 355,85 " style="fill:white; stroke-width:1; stroke:black; " description="&lt;b&gt;SHXM_RS51235&lt;/b&gt;&lt;br&gt;SDR family NAD(P)-dependent oxidoreductase&lt;br&gt;Location: 1305232 - 1306446" locus_tag="SHXM_RS51235" class="clusterblast-orf" id="dummy-4_h4_6_34"  />
</g>
<g id="a4_0035"  >
<polygon points="374,85 379,80 396,80 396,90 379,90 374,85 " style="fill:white; stroke-width:1; stroke:black; " description="&lt;b&gt;SHXM_RS51240&lt;/b&gt;&lt;br&gt;SDR family NAD(P)-dependent oxidoreductase&lt;br&gt;Location: 1307965 - 1311066" locus_tag="SHXM_RS51240" class="clusterblast-orf" id="dummy-4_h4_6_35"  />
</g>
<g id="a4_0036"  >
<polygon points="400,85 405,80 406,80 406,90 405,90 400,85 " style="fill:white; stroke-width:1; stroke:black; " description="&lt;b&gt;SHXM_RS51245&lt;/b&gt;&lt;br&gt;alcohol dehydrogenase catalytic domain-containing protein&lt;br&gt;Location: 1311637 - 1312518" locus_tag="SHXM_RS51245" class="clusterblast-orf" id="dummy-4_h4_6_36"  />
</g>
<g id="a4_0037"  >
<polygon points="412,85 417,80 430,80 430,90 417,90 412,85 " style="fill:white; stroke-width:1; stroke:black; " description="&lt;b&gt;SHXM_RS51250&lt;/b&gt;&lt;br&gt;type I polyketide synthase&lt;br&gt;Location: 1313311 - 1316007" locus_tag="SHXM_RS51250" class="clusterblast-orf" id="dummy-4_h4_6_37"  />
</g>
<g id="a4_0038"  >
<polygon points="434,85 439,80 442,80 442,90 439,90 434,85 " style="fill:white; stroke-width:1; stroke:black; " description="&lt;b&gt;SHXM_RS51255&lt;/b&gt;&lt;br&gt;SDR family NAD(P)-dependent oxidoreductase&lt;br&gt;Location: 1316524 - 1317639" locus_tag="SHXM_RS51255" class="clusterblast-orf" id="dummy-4_h4_6_38"  />
</g>
<g id="a4_0039"  >
<polygon points="445,85 450,80 453,80 453,90 450,90 445,85 " style="fill:white; stroke-width:1; stroke:black; " description="&lt;b&gt;SHXM_RS51260&lt;/b&gt;&lt;br&gt;acyltransferase domain-containing protein&lt;br&gt;Location: 1318060 - 1319292" locus_tag="SHXM_RS51260" class="clusterblast-orf" id="dummy-4_h4_6_39"  />
</g>
<g id="a4_0040"  >
<polygon points="454,85 459,80 499,80 499,90 459,90 454,85 " style="fill:white; stroke-width:1; stroke:black; " description="&lt;b&gt;SHXM_RS51265&lt;/b&gt;&lt;br&gt;acyltransferase domain-containing protein&lt;br&gt;Location: 1319353 - 1325763" locus_tag="SHXM_RS51265" class="clusterblast-orf" id="dummy-4_h4_6_40"  />
</g>
<g id="a4_0041"  >
<polygon points="499,85 504,80 618,80 618,90 504,90 499,85 " style="fill:white; stroke-width:1; stroke:black; " description="&lt;b&gt;SHXM_RS05390&lt;/b&gt;&lt;br&gt;type I polyketide synthase&lt;br&gt;Location: 1325821 - 1342875" locus_tag="SHXM_RS05390" class="clusterblast-orf" id="dummy-4_h4_6_41"  />
</g>
<g id="a4_0042"  >
<polygon points="618,85 623,80 651,80 651,90 623,90 618,85 " style="fill:white; stroke-width:1; stroke:black; " description="&lt;b&gt;SHXM_RS05395&lt;/b&gt;&lt;br&gt;non-ribosomal peptide synthetase&lt;br&gt;Location: 1342902 - 1347656" locus_tag="SHXM_RS05395" class="clusterblast-orf" id="dummy-4_h4_6_42"  />
</g>
<g id="a4_0043"  >
<polygon points="652,85 655,80 655,90 652,85 " style="fill:white; stroke-width:1; stroke:black; " description="&lt;b&gt;SHXM_RS52750&lt;/b&gt;&lt;br&gt;hypothetical protein&lt;br&gt;Location: 1347809 - 1348258" locus_tag="SHXM_RS52750" class="clusterblast-orf" id="dummy-4_h4_6_43"  />
</g>
<g id="a4_0044"  >
<polygon points="657,85 662,80 663,80 663,90 662,90 657,85 " style="fill:#d81515; stroke-width:1; stroke:black; " description="&lt;b&gt;SHXM_RS05400&lt;/b&gt;&lt;br&gt;LysR family transcriptional regulator&lt;br&gt;Location: 1348425 - 1349354&lt;br&gt;&lt;br&gt;&lt;b&gt;BlastP hit with LLPMBPKK_00577&lt;/b&gt;&lt;br&gt;Percentage identity: 73&lt;br&gt;Percentage coverage: 98&lt;br&gt;BLAST bit score: 452&lt;br&gt;E-value: 1.33e-159" locus_tag="SHXM_RS05400" class="clusterblast-orf" id="dummy-4_h4_6_44"  />
</g>
<g id="a4_0045"  >
<polygon points="664,90 668,90 673,85 668,80 664,80 664,90 " style="fill:#4dd815; stroke-width:1; stroke:black; " description="&lt;b&gt;SHXM_RS05405&lt;/b&gt;&lt;br&gt;MFS transporter&lt;br&gt;Location: 1349493 - 1350743&lt;br&gt;&lt;br&gt;&lt;b&gt;BlastP hit with LLPMBPKK_00578&lt;/b&gt;&lt;br&gt;Percentage identity: 66&lt;br&gt;Percentage coverage: 96&lt;br&gt;BLAST bit score: 486&lt;br&gt;E-value: 2.43e-169" locus_tag="SHXM_RS05405" class="clusterblast-orf" id="dummy-4_h4_6_45"  />
</g>
<g id="a4_0046"  >
<polygon points="674,90 678,85 674,80 674,90 " style="fill:white; stroke-width:1; stroke:black; " description="&lt;b&gt;SHXM_RS05410&lt;/b&gt;&lt;br&gt;helix-turn-helix transcriptional regulator&lt;br&gt;Location: 1350888 - 1351448" locus_tag="SHXM_RS05410" class="clusterblast-orf" id="dummy-4_h4_6_46"  />
</g>
<g id="a4_0047"  >
<polygon points="678,90 697,90 702,85 697,80 678,80 678,90 " style="fill:white; stroke-width:1; stroke:black; " description="&lt;b&gt;SHXM_RS05415&lt;/b&gt;&lt;br&gt;DNA polymerase III subunit alpha&lt;br&gt;Location: 1351462 - 1354992" locus_tag="SHXM_RS05415" class="clusterblast-orf" id="dummy-4_h4_6_47"  />
</g>
<g id="a4_0048"  >
<polygon points="703,90 705,90 710,85 705,80 703,80 703,90 " style="fill:white; stroke-width:1; stroke:black; " description="&lt;b&gt;SHXM_RS05420&lt;/b&gt;&lt;br&gt;LacI family DNA-binding transcriptional regulator&lt;br&gt;Location: 1355093 - 1356070" locus_tag="SHXM_RS05420" class="clusterblast-orf" id="dummy-4_h4_6_48"  />
</g>
<g id="a4_0049"  >
<polygon points="712,90 716,90 721,85 716,80 712,80 712,90 " style="fill:white; stroke-width:1; stroke:black; " description="&lt;b&gt;SHXM_RS05425&lt;/b&gt;&lt;br&gt;extracellular solute-binding protein&lt;br&gt;Location: 1356296 - 1357639" locus_tag="SHXM_RS05425" class="clusterblast-orf" id="dummy-4_h4_6_49"  />
</g>
<g id="a4_0050"  >
<polygon points="721,90 723,90 728,85 723,80 721,80 721,90 " style="fill:#d81569; stroke-width:1; stroke:black; " description="&lt;b&gt;SHXM_RS05430&lt;/b&gt;&lt;br&gt;sugar ABC transporter permease&lt;br&gt;Location: 1357644 - 1358600&lt;br&gt;&lt;br&gt;&lt;b&gt;BlastP hit with LLPMBPKK_00602&lt;/b&gt;&lt;br&gt;Percentage identity: 34&lt;br&gt;Percentage coverage: 97&lt;br&gt;BLAST bit score: 148&lt;br&gt;E-value: 3.02e-40" locus_tag="SHXM_RS05430" class="clusterblast-orf" id="dummy-4_h4_6_50"  />
</g>
<g id="a4_0051"  >
<polygon points="728,90 729,90 734,85 729,80 728,80 728,90 " style="fill:#4d15d8; stroke-width:1; stroke:black; " description="&lt;b&gt;SHXM_RS05435&lt;/b&gt;&lt;br&gt;carbohydrate ABC transporter permease&lt;br&gt;Location: 1358597 - 1359472&lt;br&gt;&lt;br&gt;&lt;b&gt;BlastP hit with LLPMBPKK_00601&lt;/b&gt;&lt;br&gt;Percentage identity: 32&lt;br&gt;Percentage coverage: 101&lt;br&gt;BLAST bit score: 110&lt;br&gt;E-value: 1.28e-26" locus_tag="SHXM_RS05435" class="clusterblast-orf" id="dummy-4_h4_6_51"  />
</g>
<g id="a4_0052"  >
<polygon points="734,90 740,90 745,85 740,80 734,80 734,90 " style="fill:white; stroke-width:1; stroke:black; " description="&lt;b&gt;SHXM_RS05440&lt;/b&gt;&lt;br&gt;glycoside hydrolase family 13 protein&lt;br&gt;Location: 1359503 - 1361101" locus_tag="SHXM_RS05440" class="clusterblast-orf" id="dummy-4_h4_6_52"  />
</g>
<g id="a4_0053"  >
<polygon points="745,90 756,90 761,85 756,80 745,80 745,90 " style="fill:white; stroke-width:1; stroke:black; " description="&lt;b&gt;SHXM_RS05445&lt;/b&gt;&lt;br&gt;discoidin domain-containing protein&lt;br&gt;Location: 1361155 - 1363338" locus_tag="SHXM_RS05445" class="clusterblast-orf" id="dummy-4_h4_6_53"  />
</g>
<g id="a4_0054"  >
<polygon points="762,90 767,90 772,85 767,80 762,80 762,90 " style="fill:white; stroke-width:1; stroke:black; " description="&lt;b&gt;SHXM_RS05450&lt;/b&gt;&lt;br&gt;argininosuccinate synthase&lt;br&gt;Location: 1363498 - 1364946" locus_tag="SHXM_RS05450" class="clusterblast-orf" id="dummy-4_h4_6_54"  />
</g>
<g id="a4_0055"  >
<polygon points="774,90 775,90 780,85 775,80 774,80 774,90 " style="fill:white; stroke-width:1; stroke:black; " description="&lt;b&gt;SHXM_RS05455&lt;/b&gt;&lt;br&gt;hypothetical protein&lt;br&gt;Location: 1365190 - 1366044" locus_tag="SHXM_RS05455" class="clusterblast-orf" id="dummy-4_h4_6_55"  />
</g>
</svg>
