<svg xmlns="http://www.w3.org/2000/svg" xmlns:xlink="http://www.w3.org/1999/xlink" version="1.1" x="0" y="0" height="230" width="800" viewBox="0 0 800 230" preserveAspectRatio="none"  >
<g label="Query sequence" class="clusterblast-cluster"  >
<text x="5" y="20" class="clusterblast-acc"  >
Query sequence</text>
<line x1="10" y1="35" x2="778.0" y2="35" style="stroke-width:1; stroke:grey; "  />
<polygon points="0,35 5,30 29,30 29,40 5,40 0,35 " style="fill:#d81515; stroke-width:1; stroke:black; " description="&lt;b&gt;LLPMBPKK_06758&lt;/b&gt;&lt;br&gt;cation transporter&lt;br&gt;Location: 7791080 - 7792022" locus_tag="LLPMBPKK_06758" class="clusterblast-orf" id="dummy-29_q0_0_all"  />
<polygon points="35,35 40,30 65,30 65,40 40,40 35,35 " style="fill:#6ad815; stroke-width:1; stroke:black; " description="&lt;b&gt;LLPMBPKK_06759&lt;/b&gt;&lt;br&gt;UDP-glucose 4-epimerase GalE&lt;br&gt;Location: 7792229 - 7793201" locus_tag="LLPMBPKK_06759" class="clusterblast-orf" id="dummy-29_q1_0_all"  />
<polygon points="73,40 123,40 128,35 123,30 73,30 73,40 " style="fill:#15bfd8; stroke-width:1; stroke:black; " description="&lt;b&gt;LLPMBPKK_06760&lt;/b&gt;&lt;br&gt;CDP-alcohol phosphatidyltransferase familyprotein&lt;br&gt;Location: 7793467 - 7795288" locus_tag="LLPMBPKK_06760" class="clusterblast-orf" id="dummy-29_q2_0_all"  />
<polygon points="128,40 146,40 151,35 146,30 128,30 128,40 " style="fill:#9d15d8; stroke-width:1; stroke:black; " description="&lt;b&gt;LLPMBPKK_06761&lt;/b&gt;&lt;br&gt;phosphocholine cytidylyltransferase familyprotein&lt;br&gt;Location: 7795284 - 7796037" locus_tag="LLPMBPKK_06761" class="clusterblast-orf" id="dummy-29_q3_0_all"  />
<polygon points="151,40 178,40 183,35 178,30 151,30 151,40 " style="fill:#d84815; stroke-width:1; stroke:black; " description="&lt;b&gt;LLPMBPKK_06762&lt;/b&gt;&lt;br&gt;iron-containing alcohol dehydrogenase familyprotein&lt;br&gt;Location: 7796024 - 7797086" locus_tag="LLPMBPKK_06762" class="clusterblast-orf" id="dummy-29_q4_0_all"  />
<polygon points="185,40 201,40 206,35 201,30 185,30 185,40 " style="fill:#37d815; stroke-width:1; stroke:black; " description="&lt;b&gt;LLPMBPKK_06763&lt;/b&gt;&lt;br&gt;transferase&lt;br&gt;Location: 7797159 - 7797843" locus_tag="LLPMBPKK_06763" class="clusterblast-orf" id="dummy-29_q5_0_all"  />
<polygon points="207,40 228,40 233,35 228,30 207,30 207,40 " style="fill:#158cd8; stroke-width:1; stroke:black; " description="&lt;b&gt;LLPMBPKK_06764&lt;/b&gt;&lt;br&gt;glycosyltransferase family 2 protein&lt;br&gt;Location: 7797851 - 7798724" locus_tag="LLPMBPKK_06764" class="clusterblast-orf" id="dummy-29_q6_0_all"  />
<polygon points="236,40 259,40 264,35 259,30 236,30 236,40 " style="fill:#d015d8; stroke-width:1; stroke:black; " description="&lt;b&gt;LLPMBPKK_06765&lt;/b&gt;&lt;br&gt;ABC transporter&lt;br&gt;Location: 7798813 - 7799743" locus_tag="LLPMBPKK_06765" class="clusterblast-orf" id="dummy-29_q7_0_all"  />
<polygon points="264,40 283,40 288,35 283,30 264,30 264,40 " style="fill:#d87b15; stroke-width:1; stroke:black; " description="&lt;b&gt;LLPMBPKK_06766&lt;/b&gt;&lt;br&gt;ABC transporter ATP-binding protein&lt;br&gt;Location: 7799735 - 7800524" locus_tag="LLPMBPKK_06766" class="clusterblast-orf" id="dummy-29_q8_0_all"  />
<polygon points="299,40 322,40 327,35 322,30 299,30 299,40 " style="fill:#15d826; stroke-width:1; stroke:black; " description="&lt;b&gt;LLPMBPKK_06767&lt;/b&gt;&lt;br&gt;squalene synthase HpnC&lt;br&gt;Location: 7800884 - 7801781" locus_tag="LLPMBPKK_06767" class="clusterblast-orf" id="dummy-29_q9_0_all"  />
<polygon points="327,40 351,40 356,35 351,30 327,30 327,40 " style="fill:#15d826; stroke-width:1; stroke:black; " description="&lt;b&gt;LLPMBPKK_06768&lt;/b&gt;&lt;br&gt;presqualene diphosphate synthase HpnD&lt;br&gt;Location: 7801777 - 7802740" locus_tag="LLPMBPKK_06768" class="clusterblast-orf" id="dummy-29_q10_0_all"  />
<polygon points="363,40 402,40 407,35 402,30 363,30 363,40 " style="fill:#1559d8; stroke-width:1; stroke:black; " description="&lt;b&gt;LLPMBPKK_06769&lt;/b&gt;&lt;br&gt;FAD-dependent oxidoreductase&lt;br&gt;Location: 7802978 - 7804406" locus_tag="LLPMBPKK_06769" class="clusterblast-orf" id="dummy-29_q11_0_all"  />
<polygon points="407,40 436,40 441,35 436,30 407,30 407,40 " style="fill:#d815ae; stroke-width:1; stroke:black; " description="&lt;b&gt;LLPMBPKK_06770&lt;/b&gt;&lt;br&gt;polyprenyl synthetase family protein&lt;br&gt;Location: 7804405 - 7805539" locus_tag="LLPMBPKK_06770" class="clusterblast-orf" id="dummy-29_q12_0_all"  />
<polygon points="445,40 502,40 507,35 502,30 445,30 445,40 " style="fill:#d8ae15; stroke-width:1; stroke:black; " description="&lt;b&gt;LLPMBPKK_06771&lt;/b&gt;&lt;br&gt;squalene--hopene cyclase&lt;br&gt;Location: 7805655 - 7807686" locus_tag="LLPMBPKK_06771" class="clusterblast-orf" id="dummy-29_q13_0_all"  />
<polygon points="507,40 522,40 527,35 522,30 507,30 507,40 " style="fill:#15d859; stroke-width:1; stroke:black; " description="&lt;b&gt;LLPMBPKK_06772&lt;/b&gt;&lt;br&gt;lipoprotein&lt;br&gt;Location: 7807682 - 7808324" locus_tag="LLPMBPKK_06772" class="clusterblast-orf" id="dummy-29_q14_0_all"  />
<polygon points="527,40 553,40 558,35 553,30 527,30 527,40 " style="fill:#1526d8; stroke-width:1; stroke:black; " description="&lt;b&gt;LLPMBPKK_06773&lt;/b&gt;&lt;br&gt;adenosyl-hopene transferase HpnH&lt;br&gt;Location: 7808329 - 7809352" locus_tag="LLPMBPKK_06773" class="clusterblast-orf" id="dummy-29_q15_0_all"  />
<polygon points="558,40 588,40 593,35 588,30 558,30 558,40 " style="fill:#d8157b; stroke-width:1; stroke:black; " description="&lt;b&gt;LLPMBPKK_06774&lt;/b&gt;&lt;br&gt;flavodoxin-dependent (E)-4-hydroxy-3-methylbut-2-enyl-diphosphate synthase&lt;br&gt;Location: 7809356 - 7810484" locus_tag="LLPMBPKK_06774" class="clusterblast-orf" id="dummy-29_q16_0_all"  />
<polygon points="594,40 647,40 652,35 647,30 594,30 594,40 " style="fill:#d0d815; stroke-width:1; stroke:black; " description="&lt;b&gt;LLPMBPKK_06775&lt;/b&gt;&lt;br&gt;1-deoxy-D-xylulose-5-phosphate synthase&lt;br&gt;Location: 7810521 - 7812420" locus_tag="LLPMBPKK_06775" class="clusterblast-orf" id="dummy-29_q17_0_all"  />
<polygon points="652,40 689,40 694,35 689,30 652,30 652,40 " style="fill:#15d88c; stroke-width:1; stroke:black; " description="&lt;b&gt;LLPMBPKK_06776&lt;/b&gt;&lt;br&gt;aspartate aminotransferase family protein&lt;br&gt;Location: 7812416 - 7813802" locus_tag="LLPMBPKK_06776" class="clusterblast-orf" id="dummy-29_q18_0_all"  />
<polygon points="694,35 699,30 703,30 703,40 699,40 694,35 " style="fill:#3715d8; stroke-width:1; stroke:black; " description="&lt;b&gt;LLPMBPKK_06777&lt;/b&gt;&lt;br&gt;hypothetical protein&lt;br&gt;Location: 7813812 - 7814088" locus_tag="LLPMBPKK_06777" class="clusterblast-orf" id="dummy-29_q19_0_all"  />
<polygon points="707,40 721,40 726,35 721,30 707,30 707,40 " style="fill:#d81548; stroke-width:1; stroke:black; " description="&lt;b&gt;LLPMBPKK_06778&lt;/b&gt;&lt;br&gt;XRE family transcriptional regulator&lt;br&gt;Location: 7814226 - 7814856" locus_tag="LLPMBPKK_06778" class="clusterblast-orf" id="dummy-29_q20_0_all"  />
<polygon points="726,40 730,35 726,30 726,40 " style="fill:#9dd815; stroke-width:1; stroke:black; " description="&lt;b&gt;LLPMBPKK_06779&lt;/b&gt;&lt;br&gt;small hydrophobic hypothetical protein&lt;br&gt;Location: 7814852 - 7814975" locus_tag="LLPMBPKK_06779" class="clusterblast-orf" id="dummy-29_q21_0_all"  />
<polygon points="731,40 750,40 755,35 750,30 731,30 731,40 " style="fill:#15d8bf; stroke-width:1; stroke:black; " description="&lt;b&gt;LLPMBPKK_06780&lt;/b&gt;&lt;br&gt;hypothetical protein&lt;br&gt;Location: 7815004 - 7815805" locus_tag="LLPMBPKK_06780" class="clusterblast-orf" id="dummy-29_q22_0_all"  />
<polygon points="755,35 760,30 780,30 780,40 760,40 755,35 " style="fill:#6a15d8; stroke-width:1; stroke:black; " description="&lt;b&gt;LLPMBPKK_06781&lt;/b&gt;&lt;br&gt;tyrosine-protein phosphatase&lt;br&gt;Location: 7815818 - 7816616" locus_tag="LLPMBPKK_06781" class="clusterblast-orf" id="dummy-29_q23_0_all"  />
</g>
<g label="NZ_WEGL01000002" description="NZ_WEGL01000002 (167345-194131): Streptomyces sp. RB17 SRB17 2, whole genome ... (100% of genes show similarity), terpene" class="clusterblast-cluster"  >
<text x="5" y="70" class="clusterblast-acc"  >
<a xlink:href="https://antismash-db.secondarymetabolites.org/area.html?record=NZ_WEGL01000002&amp;start=167345&amp;end=194131" target="_blank">NZ_WEGL01000002 (167345-194131)</a>: Streptomyces sp. RB17 SRB17 2, whole genome ... (100% of genes show similarity), terpene</text>
<line x1="10" y1="85" x2="778.0" y2="85" style="stroke-width:1; stroke:grey; "  />
</g>
<g id="a29_000"  >
<polygon points="12,85 17,80 40,80 40,90 17,90 12,85 " style="fill:#d81515; stroke-width:1; stroke:black; " description="&lt;b&gt;SRB17_RS07720&lt;/b&gt;&lt;br&gt;cation diffusion facilitator family transporter&lt;br&gt;Location: 167569 - 168510&lt;br&gt;&lt;br&gt;&lt;b&gt;BlastP hit with LLPMBPKK_06758&lt;/b&gt;&lt;br&gt;Percentage identity: 92&lt;br&gt;Percentage coverage: 100&lt;br&gt;BLAST bit score: 478&lt;br&gt;E-value: 9.76e-170" locus_tag="SRB17_RS07720" class="clusterblast-orf" id="dummy-29_h29_3_0"  />
</g>
<g id="a29_001"  >
<polygon points="46,85 51,80 75,80 75,90 51,90 46,85 " style="fill:#6ad815; stroke-width:1; stroke:black; " description="&lt;b&gt;SRB17_RS07725&lt;/b&gt;&lt;br&gt;UDP-glucose 4-epimerase GalE&lt;br&gt;Location: 168686 - 169657&lt;br&gt;&lt;br&gt;&lt;b&gt;BlastP hit with LLPMBPKK_06759&lt;/b&gt;&lt;br&gt;Percentage identity: 91&lt;br&gt;Percentage coverage: 100&lt;br&gt;BLAST bit score: 587&lt;br&gt;E-value: 2.33e-212" locus_tag="SRB17_RS07725" class="clusterblast-orf" id="dummy-29_h29_3_1"  />
</g>
<g id="a29_002"  >
<polygon points="83,90 133,90 138,85 133,80 83,80 83,90 " style="fill:#15bfd8; stroke-width:1; stroke:black; " description="&lt;b&gt;SRB17_RS07730&lt;/b&gt;&lt;br&gt;CDP-alcohol phosphatidyltransferase family protein&lt;br&gt;Location: 169922 - 171718&lt;br&gt;&lt;br&gt;&lt;b&gt;BlastP hit with LLPMBPKK_06760&lt;/b&gt;&lt;br&gt;Percentage identity: 86&lt;br&gt;Percentage coverage: 100&lt;br&gt;BLAST bit score: 946&lt;br&gt;E-value: 0.0" locus_tag="SRB17_RS07730" class="clusterblast-orf" id="dummy-29_h29_3_2"  />
</g>
<g id="a29_003"  >
<polygon points="138,90 156,90 161,85 156,80 138,80 138,90 " style="fill:#9d15d8; stroke-width:1; stroke:black; " description="&lt;b&gt;SRB17_RS07735&lt;/b&gt;&lt;br&gt;NTP transferase domain-containing protein&lt;br&gt;Location: 171715 - 172467&lt;br&gt;&lt;br&gt;&lt;b&gt;BlastP hit with LLPMBPKK_06761&lt;/b&gt;&lt;br&gt;Percentage identity: 94&lt;br&gt;Percentage coverage: 100&lt;br&gt;BLAST bit score: 478&lt;br&gt;E-value: 1.14e-171" locus_tag="SRB17_RS07735" class="clusterblast-orf" id="dummy-29_h29_3_3"  />
</g>
<g id="a29_004"  >
<polygon points="161,90 188,90 193,85 188,80 161,80 161,90 " style="fill:#d84815; stroke-width:1; stroke:black; " description="&lt;b&gt;SRB17_RS07740&lt;/b&gt;&lt;br&gt;iron-containing alcohol dehydrogenase&lt;br&gt;Location: 172464 - 173516&lt;br&gt;&lt;br&gt;&lt;b&gt;BlastP hit with LLPMBPKK_06762&lt;/b&gt;&lt;br&gt;Percentage identity: 88&lt;br&gt;Percentage coverage: 99&lt;br&gt;BLAST bit score: 630&lt;br&gt;E-value: 8.99e-229" locus_tag="SRB17_RS07740" class="clusterblast-orf" id="dummy-29_h29_3_4"  />
</g>
<g id="a29_005"  >
<polygon points="192,90 211,90 216,85 211,80 192,80 192,90 " style="fill:#37d815; stroke-width:1; stroke:black; " description="&lt;b&gt;SRB17_RS07745&lt;/b&gt;&lt;br&gt;CDP-alcohol phosphatidyltransferase family protein&lt;br&gt;Location: 173494 - 174273&lt;br&gt;&lt;br&gt;&lt;b&gt;BlastP hit with LLPMBPKK_06763&lt;/b&gt;&lt;br&gt;Percentage identity: 92&lt;br&gt;Percentage coverage: 100&lt;br&gt;BLAST bit score: 390&lt;br&gt;E-value: 3.46e-137" locus_tag="SRB17_RS07745" class="clusterblast-orf" id="dummy-29_h29_3_5"  />
</g>
<g id="a29_006"  >
<polygon points="217,90 238,90 243,85 238,80 217,80 217,90 " style="fill:#158cd8; stroke-width:1; stroke:black; " description="&lt;b&gt;SRB17_RS07750&lt;/b&gt;&lt;br&gt;glycosyltransferase&lt;br&gt;Location: 174282 - 175154&lt;br&gt;&lt;br&gt;&lt;b&gt;BlastP hit with LLPMBPKK_06764&lt;/b&gt;&lt;br&gt;Percentage identity: 96&lt;br&gt;Percentage coverage: 100&lt;br&gt;BLAST bit score: 571&lt;br&gt;E-value: 2.27e-207" locus_tag="SRB17_RS07750" class="clusterblast-orf" id="dummy-29_h29_3_6"  />
</g>
<g id="a29_007"  >
<polygon points="244,90 268,90 273,85 268,80 244,80 244,90 " style="fill:#d015d8; stroke-width:1; stroke:black; " description="&lt;b&gt;SRB17_RS07755&lt;/b&gt;&lt;br&gt;ABC transporter permease&lt;br&gt;Location: 175169 - 176143&lt;br&gt;&lt;br&gt;&lt;b&gt;BlastP hit with LLPMBPKK_06765&lt;/b&gt;&lt;br&gt;Percentage identity: 83&lt;br&gt;Percentage coverage: 100&lt;br&gt;BLAST bit score: 506&lt;br&gt;E-value: 9.53e-181" locus_tag="SRB17_RS07755" class="clusterblast-orf" id="dummy-29_h29_3_7"  />
</g>
<g id="a29_008"  >
<polygon points="277,90 294,90 299,85 294,80 277,80 277,90 " style="fill:#d87b15; stroke-width:1; stroke:black; " description="&lt;b&gt;SRB17_RS07760&lt;/b&gt;&lt;br&gt;ATP-binding cassette domain-containing protein&lt;br&gt;Location: 176247 - 176984&lt;br&gt;&lt;br&gt;&lt;b&gt;BlastP hit with LLPMBPKK_06766&lt;/b&gt;&lt;br&gt;Percentage identity: 98&lt;br&gt;Percentage coverage: 94&lt;br&gt;BLAST bit score: 466&lt;br&gt;E-value: 5.77e-167" locus_tag="SRB17_RS07760" class="clusterblast-orf" id="dummy-29_h29_3_8"  />
</g>
<g id="a29_009"  >
<polygon points="310,90 333,90 338,85 333,80 310,80 310,90 " style="fill:#15d826; stroke-width:1; stroke:black; " description="&lt;b&gt;SRB17_RS07765&lt;/b&gt;&lt;br&gt;squalene synthase HpnC&lt;br&gt;Location: 177346 - 178242&lt;br&gt;&lt;br&gt;&lt;b&gt;BlastP hit with LLPMBPKK_06767&lt;/b&gt;&lt;br&gt;Percentage identity: 93&lt;br&gt;Percentage coverage: 100&lt;br&gt;BLAST bit score: 532&lt;br&gt;E-value: 1.04e-191&lt;br&gt;&lt;br&gt;&lt;b&gt;BlastP hit with LLPMBPKK_06768&lt;/b&gt;&lt;br&gt;Percentage identity: 34&lt;br&gt;Percentage coverage: 83&lt;br&gt;BLAST bit score: 93&lt;br&gt;E-value: 1.19e-19" locus_tag="SRB17_RS07765" class="clusterblast-orf" id="dummy-29_h29_3_9"  />
</g>
<g id="a29_0010"  >
<polygon points="338,90 362,90 367,85 362,80 338,80 338,90 " style="fill:#15d826; stroke-width:1; stroke:black; " description="&lt;b&gt;SRB17_RS07770&lt;/b&gt;&lt;br&gt;presqualene diphosphate synthase HpnD&lt;br&gt;Location: 178251 - 179201&lt;br&gt;&lt;br&gt;&lt;b&gt;BlastP hit with LLPMBPKK_06767&lt;/b&gt;&lt;br&gt;Percentage identity: 34&lt;br&gt;Percentage coverage: 80&lt;br&gt;BLAST bit score: 94&lt;br&gt;E-value: 5.52e-20&lt;br&gt;&lt;br&gt;&lt;b&gt;BlastP hit with LLPMBPKK_06768&lt;/b&gt;&lt;br&gt;Percentage identity: 94&lt;br&gt;Percentage coverage: 99&lt;br&gt;BLAST bit score: 587&lt;br&gt;E-value: 1.59e-212" locus_tag="SRB17_RS07770" class="clusterblast-orf" id="dummy-29_h29_3_10"  />
</g>
<g id="a29_0011"  >
<polygon points="373,90 412,90 417,85 412,80 373,80 373,90 " style="fill:#1559d8; stroke-width:1; stroke:black; " description="&lt;b&gt;SRB17_RS07775&lt;/b&gt;&lt;br&gt;NAD(P)-binding protein&lt;br&gt;Location: 179416 - 180849&lt;br&gt;&lt;br&gt;&lt;b&gt;BlastP hit with LLPMBPKK_06769&lt;/b&gt;&lt;br&gt;Percentage identity: 93&lt;br&gt;Percentage coverage: 100&lt;br&gt;BLAST bit score: 848&lt;br&gt;E-value: 1.14e-310" locus_tag="SRB17_RS07775" class="clusterblast-orf" id="dummy-29_h29_3_11"  />
</g>
<g id="a29_0012"  >
<polygon points="417,90 447,90 452,85 447,80 417,80 417,90 " style="fill:#d815ae; stroke-width:1; stroke:black; " description="&lt;b&gt;SRB17_RS07780&lt;/b&gt;&lt;br&gt;polyprenyl synthetase family protein&lt;br&gt;Location: 180849 - 181985&lt;br&gt;&lt;br&gt;&lt;b&gt;BlastP hit with LLPMBPKK_06770&lt;/b&gt;&lt;br&gt;Percentage identity: 95&lt;br&gt;Percentage coverage: 100&lt;br&gt;BLAST bit score: 687&lt;br&gt;E-value: 1.88e-250" locus_tag="SRB17_RS07780" class="clusterblast-orf" id="dummy-29_h29_3_12"  />
</g>
<g id="a29_0013"  >
<polygon points="456,90 512,90 517,85 512,80 456,80 456,90 " style="fill:#d8ae15; stroke-width:1; stroke:black; " description="&lt;b&gt;SRB17_RS07785&lt;/b&gt;&lt;br&gt;squalene--hopene cyclase&lt;br&gt;Location: 182107 - 184131&lt;br&gt;&lt;br&gt;&lt;b&gt;BlastP hit with LLPMBPKK_06771&lt;/b&gt;&lt;br&gt;Percentage identity: 90&lt;br&gt;Percentage coverage: 100&lt;br&gt;BLAST bit score: 1211&lt;br&gt;E-value: 0.0" locus_tag="SRB17_RS07785" class="clusterblast-orf" id="dummy-29_h29_3_13"  />
</g>
<g id="a29_0014"  >
<polygon points="517,90 532,90 537,85 532,80 517,80 517,90 " style="fill:#15d859; stroke-width:1; stroke:black; " description="&lt;b&gt;SRB17_RS07790&lt;/b&gt;&lt;br&gt;1-hydroxy-2-methyl-2-butenyl 4-diphosphate reductase&lt;br&gt;Location: 184134 - 184775&lt;br&gt;&lt;br&gt;&lt;b&gt;BlastP hit with LLPMBPKK_06772&lt;/b&gt;&lt;br&gt;Percentage identity: 89&lt;br&gt;Percentage coverage: 100&lt;br&gt;BLAST bit score: 367&lt;br&gt;E-value: 5.34e-129" locus_tag="SRB17_RS07790" class="clusterblast-orf" id="dummy-29_h29_3_14"  />
</g>
<g id="a29_0015"  >
<polygon points="537,90 564,90 569,85 564,80 537,80 537,90 " style="fill:#1526d8; stroke-width:1; stroke:black; " description="&lt;b&gt;SRB17_RS07795&lt;/b&gt;&lt;br&gt;adenosyl-hopene transferase HpnH&lt;br&gt;Location: 184781 - 185806&lt;br&gt;&lt;br&gt;&lt;b&gt;BlastP hit with LLPMBPKK_06773&lt;/b&gt;&lt;br&gt;Percentage identity: 91&lt;br&gt;Percentage coverage: 100&lt;br&gt;BLAST bit score: 656&lt;br&gt;E-value: 2.35e-239" locus_tag="SRB17_RS07795" class="clusterblast-orf" id="dummy-29_h29_3_15"  />
</g>
<g id="a29_0016"  >
<polygon points="569,90 598,90 603,85 598,80 569,80 569,90 " style="fill:#d8157b; stroke-width:1; stroke:black; " description="&lt;b&gt;SRB17_RS07800&lt;/b&gt;&lt;br&gt;flavodoxin-dependent (E)-4-hydroxy-3-methylbut-2-enyl-diphosphate synthase&lt;br&gt;Location: 185811 - 186938&lt;br&gt;&lt;br&gt;&lt;b&gt;BlastP hit with LLPMBPKK_06774&lt;/b&gt;&lt;br&gt;Percentage identity: 97&lt;br&gt;Percentage coverage: 100&lt;br&gt;BLAST bit score: 699&lt;br&gt;E-value: 4.15e-255" locus_tag="SRB17_RS07800" class="clusterblast-orf" id="dummy-29_h29_3_16"  />
</g>
<g id="a29_0017"  >
<polygon points="605,90 657,90 662,85 657,80 605,80 605,90 " style="fill:#d0d815; stroke-width:1; stroke:black; " description="&lt;b&gt;SRB17_RS07805&lt;/b&gt;&lt;br&gt;1-deoxy-D-xylulose-5-phosphate synthase&lt;br&gt;Location: 186987 - 188876&lt;br&gt;&lt;br&gt;&lt;b&gt;BlastP hit with LLPMBPKK_06775&lt;/b&gt;&lt;br&gt;Percentage identity: 93&lt;br&gt;Percentage coverage: 100&lt;br&gt;BLAST bit score: 1181&lt;br&gt;E-value: 0.0" locus_tag="SRB17_RS07805" class="clusterblast-orf" id="dummy-29_h29_3_17"  />
</g>
<g id="a29_0018"  >
<polygon points="662,90 700,90 705,85 700,80 662,80 662,90 " style="fill:#15d88c; stroke-width:1; stroke:black; " description="&lt;b&gt;SRB17_RS07810&lt;/b&gt;&lt;br&gt;aminotransferase class III-fold pyridoxal phosphate-dependent enzyme&lt;br&gt;Location: 188873 - 190258&lt;br&gt;&lt;br&gt;&lt;b&gt;BlastP hit with LLPMBPKK_06776&lt;/b&gt;&lt;br&gt;Percentage identity: 95&lt;br&gt;Percentage coverage: 100&lt;br&gt;BLAST bit score: 885&lt;br&gt;E-value: 0.0" locus_tag="SRB17_RS07810" class="clusterblast-orf" id="dummy-29_h29_3_18"  />
</g>
<g id="a29_0019"  >
<polygon points="705,85 710,80 714,80 714,90 710,90 705,85 " style="fill:#3715d8; stroke-width:1; stroke:black; " description="&lt;b&gt;SRB17_RS07815&lt;/b&gt;&lt;br&gt;hypothetical protein&lt;br&gt;Location: 190266 - 190562&lt;br&gt;&lt;br&gt;&lt;b&gt;BlastP hit with LLPMBPKK_06777&lt;/b&gt;&lt;br&gt;Percentage identity: 58&lt;br&gt;Percentage coverage: 91&lt;br&gt;BLAST bit score: 79&lt;br&gt;E-value: 5.45e-19" locus_tag="SRB17_RS07815" class="clusterblast-orf" id="dummy-29_h29_3_19"  />
</g>
<g id="a29_0020"  >
<polygon points="718,90 732,90 737,85 732,80 718,80 718,90 " style="fill:#d81548; stroke-width:1; stroke:black; " description="&lt;b&gt;SRB17_RS07820&lt;/b&gt;&lt;br&gt;helix-turn-helix domain-containing protein&lt;br&gt;Location: 190688 - 191311&lt;br&gt;&lt;br&gt;&lt;b&gt;BlastP hit with LLPMBPKK_06778&lt;/b&gt;&lt;br&gt;Percentage identity: 93&lt;br&gt;Percentage coverage: 100&lt;br&gt;BLAST bit score: 376&lt;br&gt;E-value: 8.08e-133" locus_tag="SRB17_RS07820" class="clusterblast-orf" id="dummy-29_h29_3_20"  />
</g>
<g id="a29_0021"  >
<polygon points="737,90 740,85 737,80 737,90 " style="fill:#9dd815; stroke-width:1; stroke:black; " description="&lt;b&gt;SRB17_RS07825&lt;/b&gt;&lt;br&gt;small hydrophobic protein&lt;br&gt;Location: 191308 - 191430&lt;br&gt;&lt;br&gt;&lt;b&gt;BlastP hit with LLPMBPKK_06779&lt;/b&gt;&lt;br&gt;Percentage identity: 85&lt;br&gt;Percentage coverage: 98&lt;br&gt;BLAST bit score: 70&lt;br&gt;E-value: 7.37e-17" locus_tag="SRB17_RS07825" class="clusterblast-orf" id="dummy-29_h29_3_21"  />
</g>
<g id="a29_0022"  >
<polygon points="741,85 746,80 767,80 767,90 746,90 741,85 " style="fill:#6a15d8; stroke-width:1; stroke:black; " description="&lt;b&gt;SRB17_RS07830&lt;/b&gt;&lt;br&gt;protein-tyrosine-phosphatase&lt;br&gt;Location: 191453 - 192319&lt;br&gt;&lt;br&gt;&lt;b&gt;BlastP hit with LLPMBPKK_06781&lt;/b&gt;&lt;br&gt;Percentage identity: 88&lt;br&gt;Percentage coverage: 100&lt;br&gt;BLAST bit score: 463&lt;br&gt;E-value: 5.13e-165" locus_tag="SRB17_RS07830" class="clusterblast-orf" id="dummy-29_h29_3_22"  />
</g>
</svg>
