<svg xmlns="http://www.w3.org/2000/svg" xmlns:xlink="http://www.w3.org/1999/xlink" version="1.1" x="0" y="0" height="230" width="800" viewBox="0 0 800 230" preserveAspectRatio="none"  >
<g label="Query sequence" class="clusterblast-cluster"  >
<text x="5" y="20" class="clusterblast-acc"  >
Query sequence</text>
<line x1="10" y1="35" x2="778.0" y2="35" style="stroke-width:1; stroke:grey; "  />
<polygon points="0,35 5,30 11,30 11,40 5,40 0,35 " style="fill:white; stroke-width:1; stroke:black; " description="&lt;b&gt;LLPMBPKK_06374&lt;/b&gt;&lt;br&gt;hypothetical protein&lt;br&gt;Location: 7362119 - 7363100" locus_tag="LLPMBPKK_06374" class="clusterblast-orf" id="dummy-28_q0_0_all"  />
<polygon points="11,35 16,30 25,30 25,40 16,40 11,35 " style="fill:white; stroke-width:1; stroke:black; " description="&lt;b&gt;LLPMBPKK_06375&lt;/b&gt;&lt;br&gt;Major Facilitator Superfamily protein&lt;br&gt;Location: 7363114 - 7364371" locus_tag="LLPMBPKK_06375" class="clusterblast-orf" id="dummy-28_q1_0_all"  />
<polygon points="25,35 30,30 38,30 38,40 30,40 25,35 " style="fill:white; stroke-width:1; stroke:black; " description="&lt;b&gt;LLPMBPKK_06376&lt;/b&gt;&lt;br&gt;pyridoxal-phosphate dependent enzyme&lt;br&gt;Location: 7364367 - 7365609" locus_tag="LLPMBPKK_06376" class="clusterblast-orf" id="dummy-28_q2_0_all"  />
<polygon points="38,35 43,30 53,30 53,40 43,40 38,35 " style="fill:white; stroke-width:1; stroke:black; " description="&lt;b&gt;LLPMBPKK_06377&lt;/b&gt;&lt;br&gt;MbtG protein&lt;br&gt;Location: 7365605 - 7366961" locus_tag="LLPMBPKK_06377" class="clusterblast-orf" id="dummy-28_q3_0_all"  />
<polygon points="53,35 58,30 58,30 58,40 58,40 53,35 " style="fill:white; stroke-width:1; stroke:black; " description="&lt;b&gt;LLPMBPKK_06378&lt;/b&gt;&lt;br&gt;Acetyltransferase (GNAT) family protein&lt;br&gt;Location: 7366957 - 7367404" locus_tag="LLPMBPKK_06378" class="clusterblast-orf" id="dummy-28_q4_0_all"  />
<polygon points="59,35 64,30 67,30 67,40 64,40 59,35 " style="fill:white; stroke-width:1; stroke:black; " description="&lt;b&gt;LLPMBPKK_06379&lt;/b&gt;&lt;br&gt;hypothetical protein&lt;br&gt;Location: 7367448 - 7368186" locus_tag="LLPMBPKK_06379" class="clusterblast-orf" id="dummy-28_q5_0_all"  />
<polygon points="67,35 72,30 80,30 80,40 72,40 67,35 " style="fill:white; stroke-width:1; stroke:black; " description="&lt;b&gt;LLPMBPKK_06380&lt;/b&gt;&lt;br&gt;FAD-binding oxidoreductase&lt;br&gt;Location: 7368182 - 7369376" locus_tag="LLPMBPKK_06380" class="clusterblast-orf" id="dummy-28_q6_0_all"  />
<polygon points="80,35 83,30 83,40 80,35 " style="fill:white; stroke-width:1; stroke:black; " description="&lt;b&gt;LLPMBPKK_06381&lt;/b&gt;&lt;br&gt;cupin domain-containing protein&lt;br&gt;Location: 7369372 - 7369657" locus_tag="LLPMBPKK_06381" class="clusterblast-orf" id="dummy-28_q7_0_all"  />
<polygon points="84,35 89,30 102,30 102,40 89,40 84,35 " style="fill:white; stroke-width:1; stroke:black; " description="&lt;b&gt;LLPMBPKK_06382&lt;/b&gt;&lt;br&gt;methionine--tRNA ligase&lt;br&gt;Location: 7369671 - 7371327" locus_tag="LLPMBPKK_06382" class="clusterblast-orf" id="dummy-28_q8_0_all"  />
<polygon points="102,35 107,30 110,30 110,40 107,40 102,35 " style="fill:white; stroke-width:1; stroke:black; " description="&lt;b&gt;LLPMBPKK_06383&lt;/b&gt;&lt;br&gt;4-hydroxyphenylpyruvate dioxygenase&lt;br&gt;Location: 7371358 - 7372036" locus_tag="LLPMBPKK_06383" class="clusterblast-orf" id="dummy-28_q9_0_all"  />
<polygon points="111,35 116,30 125,30 125,40 116,40 111,35 " style="fill:#d81515; stroke-width:1; stroke:black; " description="&lt;b&gt;LLPMBPKK_06384&lt;/b&gt;&lt;br&gt;cation/H(+) antiporter&lt;br&gt;Location: 7372095 - 7373418" locus_tag="LLPMBPKK_06384" class="clusterblast-orf" id="dummy-28_q10_0_all"  />
<polygon points="126,35 131,30 139,30 139,40 131,40 126,35 " style="fill:white; stroke-width:1; stroke:black; " description="&lt;b&gt;LLPMBPKK_06385&lt;/b&gt;&lt;br&gt;ATP-grasp domain-containing protein&lt;br&gt;Location: 7373441 - 7374677" locus_tag="LLPMBPKK_06385" class="clusterblast-orf" id="dummy-28_q11_0_all"  />
<polygon points="140,35 145,30 156,30 156,40 145,40 140,35 " style="fill:white; stroke-width:1; stroke:black; " description="&lt;b&gt;LLPMBPKK_06386&lt;/b&gt;&lt;br&gt;hypothetical protein&lt;br&gt;Location: 7374703 - 7376131" locus_tag="LLPMBPKK_06386" class="clusterblast-orf" id="dummy-28_q12_0_all"  />
<polygon points="157,35 162,30 171,30 171,40 162,40 157,35 " style="fill:white; stroke-width:1; stroke:black; " description="&lt;b&gt;LLPMBPKK_06387&lt;/b&gt;&lt;br&gt;MFS transporter&lt;br&gt;Location: 7376256 - 7377519" locus_tag="LLPMBPKK_06387" class="clusterblast-orf" id="dummy-28_q13_0_all"  />
<polygon points="172,35 177,30 185,30 185,40 177,40 172,35 " style="fill:white; stroke-width:1; stroke:black; " description="&lt;b&gt;LLPMBPKK_06388&lt;/b&gt;&lt;br&gt;Acetylornithine deacetylase&lt;br&gt;Location: 7377614 - 7378811" locus_tag="LLPMBPKK_06388" class="clusterblast-orf" id="dummy-28_q14_0_all"  />
<polygon points="187,35 192,30 197,30 197,40 192,40 187,35 " style="fill:white; stroke-width:1; stroke:black; " description="&lt;b&gt;LLPMBPKK_06389&lt;/b&gt;&lt;br&gt;alpha-ketoglutarate-dependent taurinedioxygenase&lt;br&gt;Location: 7378938 - 7379865" locus_tag="LLPMBPKK_06389" class="clusterblast-orf" id="dummy-28_q15_0_all"  />
<polygon points="198,35 203,30 203,30 203,40 203,40 198,35 " style="fill:white; stroke-width:1; stroke:black; " description="&lt;b&gt;LLPMBPKK_06390&lt;/b&gt;&lt;br&gt;N-acetyltransferase&lt;br&gt;Location: 7379924 - 7380398" locus_tag="LLPMBPKK_06390" class="clusterblast-orf" id="dummy-28_q16_0_all"  />
<polygon points="204,35 209,30 215,30 215,40 209,40 204,35 " style="fill:white; stroke-width:1; stroke:black; " description="&lt;b&gt;LLPMBPKK_06391&lt;/b&gt;&lt;br&gt;hypothetical protein&lt;br&gt;Location: 7380445 - 7381471" locus_tag="LLPMBPKK_06391" class="clusterblast-orf" id="dummy-28_q17_0_all"  />
<polygon points="215,35 220,30 227,30 227,40 220,40 215,35 " style="fill:#6cd815; stroke-width:1; stroke:black; " description="&lt;b&gt;LLPMBPKK_06392&lt;/b&gt;&lt;br&gt;streptomycin biosynthesis operon possibleregulatory protein&lt;br&gt;Location: 7381470 - 7382589" locus_tag="LLPMBPKK_06392" class="clusterblast-orf" id="dummy-28_q18_0_all"  />
<polygon points="234,35 239,30 252,30 252,40 239,40 234,35 " style="fill:#15c3d8; stroke-width:1; stroke:black; " description="&lt;b&gt;LLPMBPKK_06393&lt;/b&gt;&lt;br&gt;exporter&lt;br&gt;Location: 7383186 - 7384794" locus_tag="LLPMBPKK_06393" class="clusterblast-orf" id="dummy-28_q19_0_all"  />
<polygon points="253,35 258,30 266,30 266,40 258,40 253,35 " style="fill:white; stroke-width:1; stroke:black; " description="&lt;b&gt;LLPMBPKK_06394&lt;/b&gt;&lt;br&gt;acyltransferase&lt;br&gt;Location: 7384891 - 7386085" locus_tag="LLPMBPKK_06394" class="clusterblast-orf" id="dummy-28_q20_0_all"  />
<polygon points="268,40 282,40 287,35 282,30 268,30 268,40 " style="fill:#9715d8; stroke-width:1; stroke:black; " description="&lt;b&gt;LLPMBPKK_06395&lt;/b&gt;&lt;br&gt;FAD-dependent oxidoreductase&lt;br&gt;Location: 7386278 - 7387928" locus_tag="LLPMBPKK_06395" class="clusterblast-orf" id="dummy-28_q21_0_all"  />
<polygon points="288,40 292,35 288,30 288,40 " style="fill:#d84115; stroke-width:1; stroke:black; " description="&lt;b&gt;LLPMBPKK_06396&lt;/b&gt;&lt;br&gt;sterol binding domain-containing protein&lt;br&gt;Location: 7388005 - 7388434" locus_tag="LLPMBPKK_06396" class="clusterblast-orf" id="dummy-28_q22_0_all"  />
<polygon points="293,40 298,40 303,35 298,30 293,30 293,40 " style="fill:white; stroke-width:1; stroke:black; " description="&lt;b&gt;LLPMBPKK_06397&lt;/b&gt;&lt;br&gt;luciferase-like monooxygenase&lt;br&gt;Location: 7388449 - 7389409" locus_tag="LLPMBPKK_06397" class="clusterblast-orf" id="dummy-28_q23_0_all"  />
<polygon points="305,35 307,30 307,40 305,35 " style="fill:white; stroke-width:1; stroke:black; " description="&lt;b&gt;LLPMBPKK_06398&lt;/b&gt;&lt;br&gt;hypothetical protein&lt;br&gt;Location: 7389554 - 7389767" locus_tag="LLPMBPKK_06398" class="clusterblast-orf" id="dummy-28_q24_0_all"  />
<polygon points="307,35 312,30 325,30 325,40 312,40 307,35 " style="fill:#41d815; stroke-width:1; stroke:black; " description="&lt;b&gt;LLPMBPKK_06399&lt;/b&gt;&lt;br&gt;decarboxylase&lt;br&gt;Location: 7389763 - 7391365" locus_tag="LLPMBPKK_06399" class="clusterblast-orf" id="dummy-28_q25_0_all"  />
<polygon points="326,40 333,40 338,35 333,30 326,30 326,40 " style="fill:#1597d8; stroke-width:1; stroke:black; " description="&lt;b&gt;LLPMBPKK_06400&lt;/b&gt;&lt;br&gt;acyltransferase of polyketide synthase&lt;br&gt;Location: 7391461 - 7392565" locus_tag="LLPMBPKK_06400" class="clusterblast-orf" id="dummy-28_q26_0_all"  />
<polygon points="339,40 342,40 347,35 342,30 339,30 339,40 " style="fill:#c315d8; stroke-width:1; stroke:black; " description="&lt;b&gt;LLPMBPKK_06401&lt;/b&gt;&lt;br&gt;SDR family oxidoreductase&lt;br&gt;Location: 7392591 - 7393332" locus_tag="LLPMBPKK_06401" class="clusterblast-orf" id="dummy-28_q27_0_all"  />
<polygon points="347,40 359,40 364,35 359,30 347,30 347,40 " style="fill:#d86c15; stroke-width:1; stroke:black; " description="&lt;b&gt;LLPMBPKK_06402&lt;/b&gt;&lt;br&gt;peptide MFS transporter&lt;br&gt;Location: 7393342 - 7394854" locus_tag="LLPMBPKK_06402" class="clusterblast-orf" id="dummy-28_q28_0_all"  />
<polygon points="365,40 368,35 365,30 365,40 " style="fill:#15d815; stroke-width:1; stroke:black; " description="&lt;b&gt;LLPMBPKK_06403&lt;/b&gt;&lt;br&gt;polyketide synthesis cyclase&lt;br&gt;Location: 7394939 - 7395260" locus_tag="LLPMBPKK_06403" class="clusterblast-orf" id="dummy-28_q29_0_all"  />
<polygon points="369,40 369,40 374,35 369,30 369,30 369,40 " style="fill:#156cd8; stroke-width:1; stroke:black; " description="&lt;b&gt;LLPMBPKK_06404&lt;/b&gt;&lt;br&gt;cupin&lt;br&gt;Location: 7395319 - 7395745" locus_tag="LLPMBPKK_06404" class="clusterblast-orf" id="dummy-28_q30_0_all"  />
<polygon points="374,40 383,40 388,35 383,30 374,30 374,40 " style="fill:#d815c3; stroke-width:1; stroke:black; " description="&lt;b&gt;LLPMBPKK_06405&lt;/b&gt;&lt;br&gt;beta-ketoacyl-[acyl-carrier-protein] synthasefamily protein&lt;br&gt;Location: 7395741 - 7397007" locus_tag="LLPMBPKK_06405" class="clusterblast-orf" id="dummy-28_q31_0_all"  />
<polygon points="388,40 396,40 401,35 396,30 388,30 388,40 " style="fill:#d815c3; stroke-width:1; stroke:black; " description="&lt;b&gt;LLPMBPKK_06406&lt;/b&gt;&lt;br&gt;3-oxoacyl-ACP synthase&lt;br&gt;Location: 7397003 - 7398215" locus_tag="LLPMBPKK_06406" class="clusterblast-orf" id="dummy-28_q32_0_all"  />
<polygon points="402,40 405,35 402,30 402,40 " style="fill:#d89715; stroke-width:1; stroke:black; " description="&lt;b&gt;LLPMBPKK_06407&lt;/b&gt;&lt;br&gt;actinorhodin polyketide synthase&lt;br&gt;Location: 7398269 - 7398524" locus_tag="LLPMBPKK_06407" class="clusterblast-orf" id="dummy-28_q33_0_all"  />
<polygon points="405,40 405,40 410,35 405,30 405,30 405,40 " style="fill:#15d841; stroke-width:1; stroke:black; " description="&lt;b&gt;LLPMBPKK_06408&lt;/b&gt;&lt;br&gt;polyketide cyclase&lt;br&gt;Location: 7398523 - 7398991" locus_tag="LLPMBPKK_06408" class="clusterblast-orf" id="dummy-28_q34_0_all"  />
<polygon points="410,40 414,35 410,30 410,40 " style="fill:#1541d8; stroke-width:1; stroke:black; " description="&lt;b&gt;LLPMBPKK_06409&lt;/b&gt;&lt;br&gt;antibiotic biosynthesis monooxygenase&lt;br&gt;Location: 7398987 - 7399332" locus_tag="LLPMBPKK_06409" class="clusterblast-orf" id="dummy-28_q35_0_all"  />
<polygon points="414,40 414,40 419,35 414,30 414,30 414,40 " style="fill:#d84115; stroke-width:1; stroke:black; " description="&lt;b&gt;LLPMBPKK_06410&lt;/b&gt;&lt;br&gt;SCP-2 sterol transfer family protein&lt;br&gt;Location: 7399328 - 7399763" locus_tag="LLPMBPKK_06410" class="clusterblast-orf" id="dummy-28_q36_0_all"  />
<polygon points="420,35 425,30 428,30 428,40 425,40 420,35 " style="fill:#d81597; stroke-width:1; stroke:black; " description="&lt;b&gt;LLPMBPKK_06411&lt;/b&gt;&lt;br&gt;SchA/CurD like domain protein&lt;br&gt;Location: 7399863 - 7400604" locus_tag="LLPMBPKK_06411" class="clusterblast-orf" id="dummy-28_q37_0_all"  />
<polygon points="428,35 433,30 433,30 433,40 433,40 428,35 " style="fill:#d8c315; stroke-width:1; stroke:black; " description="&lt;b&gt;LLPMBPKK_06412&lt;/b&gt;&lt;br&gt;hypothetical protein&lt;br&gt;Location: 7400620 - 7401070" locus_tag="LLPMBPKK_06412" class="clusterblast-orf" id="dummy-28_q38_0_all"  />
<polygon points="435,40 436,40 441,35 436,30 435,30 435,40 " style="fill:#d8c315; stroke-width:1; stroke:black; " description="&lt;b&gt;LLPMBPKK_06413&lt;/b&gt;&lt;br&gt;hypothetical protein&lt;br&gt;Location: 7401263 - 7401749" locus_tag="LLPMBPKK_06413" class="clusterblast-orf" id="dummy-28_q39_0_all"  />
<polygon points="441,40 448,40 453,35 448,30 441,30 441,40 " style="fill:#15d86c; stroke-width:1; stroke:black; " description="&lt;b&gt;LLPMBPKK_06414&lt;/b&gt;&lt;br&gt;O-demethylpuromycin-O-methyltransferase&lt;br&gt;Location: 7401818 - 7402877" locus_tag="LLPMBPKK_06414" class="clusterblast-orf" id="dummy-28_q40_0_all"  />
<polygon points="454,40 457,40 462,35 457,30 454,30 454,40 " style="fill:#c315d8; stroke-width:1; stroke:black; " description="&lt;b&gt;LLPMBPKK_06415&lt;/b&gt;&lt;br&gt;short-chain dehydrogenase/reductase SDR&lt;br&gt;Location: 7402942 - 7403692" locus_tag="LLPMBPKK_06415" class="clusterblast-orf" id="dummy-28_q41_0_all"  />
<polygon points="462,40 466,35 462,30 462,40 " style="fill:#1541d8; stroke-width:1; stroke:black; " description="&lt;b&gt;LLPMBPKK_06416&lt;/b&gt;&lt;br&gt;antibiotic biosynthesis monooxygenase&lt;br&gt;Location: 7403693 - 7404005" locus_tag="LLPMBPKK_06416" class="clusterblast-orf" id="dummy-28_q42_0_all"  />
<polygon points="466,40 469,35 466,30 466,40 " style="fill:#1515d8; stroke-width:1; stroke:black; " description="&lt;b&gt;LLPMBPKK_06417&lt;/b&gt;&lt;br&gt;antibiotic biosynthesis monooxygenase&lt;br&gt;Location: 7404001 - 7404322" locus_tag="LLPMBPKK_06417" class="clusterblast-orf" id="dummy-28_q43_0_all"  />
<polygon points="470,35 475,30 481,30 481,40 475,40 470,35 " style="fill:#d8156c; stroke-width:1; stroke:black; " description="&lt;b&gt;LLPMBPKK_06418&lt;/b&gt;&lt;br&gt;ketoacyl-ACP synthase III&lt;br&gt;Location: 7404398 - 7405400" locus_tag="LLPMBPKK_06418" class="clusterblast-orf" id="dummy-28_q44_0_all"  />
<polygon points="482,35 487,30 488,30 488,40 487,40 482,35 " style="fill:#c3d815; stroke-width:1; stroke:black; " description="&lt;b&gt;LLPMBPKK_06419&lt;/b&gt;&lt;br&gt;MarR family transcriptional regulator&lt;br&gt;Location: 7405502 - 7406006" locus_tag="LLPMBPKK_06419" class="clusterblast-orf" id="dummy-28_q45_0_all"  />
<polygon points="489,40 489,40 494,35 489,30 489,30 489,40 " style="fill:#15d897; stroke-width:1; stroke:black; " description="&lt;b&gt;LLPMBPKK_06420&lt;/b&gt;&lt;br&gt;hypothetical protein&lt;br&gt;Location: 7406132 - 7406555" locus_tag="LLPMBPKK_06420" class="clusterblast-orf" id="dummy-28_q46_0_all"  />
<polygon points="495,40 511,40 516,35 511,30 495,30 495,40 " style="fill:#4115d8; stroke-width:1; stroke:black; " description="&lt;b&gt;LLPMBPKK_06421&lt;/b&gt;&lt;br&gt;asparagine synthase&lt;br&gt;Location: 7406651 - 7408535" locus_tag="LLPMBPKK_06421" class="clusterblast-orf" id="dummy-28_q47_0_all"  />
<polygon points="517,35 522,30 537,30 537,40 522,40 517,35 " style="fill:#d81541; stroke-width:1; stroke:black; " description="&lt;b&gt;LLPMBPKK_06422&lt;/b&gt;&lt;br&gt;SARP family transcriptional regulator&lt;br&gt;Location: 7408593 - 7410423" locus_tag="LLPMBPKK_06422" class="clusterblast-orf" id="dummy-28_q48_0_all"  />
<polygon points="541,40 541,40 546,35 541,30 541,30 541,40 " style="fill:#97d815; stroke-width:1; stroke:black; " description="&lt;b&gt;LLPMBPKK_06423&lt;/b&gt;&lt;br&gt;4'-phosphopantetheinyl transferase superfamilyprotein&lt;br&gt;Location: 7410732 - 7411224" locus_tag="LLPMBPKK_06423" class="clusterblast-orf" id="dummy-28_q49_0_all"  />
<polygon points="547,40 550,35 547,30 547,40 " style="fill:white; stroke-width:1; stroke:black; " description="&lt;b&gt;LLPMBPKK_06424&lt;/b&gt;&lt;br&gt;hypothetical protein&lt;br&gt;Location: 7411319 - 7411568" locus_tag="LLPMBPKK_06424" class="clusterblast-orf" id="dummy-28_q50_0_all"  />
<polygon points="553,40 556,40 561,35 556,30 553,30 553,40 " style="fill:white; stroke-width:1; stroke:black; " description="&lt;b&gt;LLPMBPKK_06425&lt;/b&gt;&lt;br&gt;peptidylprolyl isomerase&lt;br&gt;Location: 7411806 - 7412532" locus_tag="LLPMBPKK_06425" class="clusterblast-orf" id="dummy-28_q51_0_all"  />
<polygon points="563,40 567,40 572,35 567,30 563,30 563,40 " style="fill:white; stroke-width:1; stroke:black; " description="&lt;b&gt;LLPMBPKK_06426&lt;/b&gt;&lt;br&gt;alpha/beta hydrolase&lt;br&gt;Location: 7412717 - 7413545" locus_tag="LLPMBPKK_06426" class="clusterblast-orf" id="dummy-28_q52_0_all"  />
<polygon points="572,35 577,30 580,30 580,40 577,40 572,35 " style="fill:white; stroke-width:1; stroke:black; " description="&lt;b&gt;LLPMBPKK_06427&lt;/b&gt;&lt;br&gt;hypothetical protein&lt;br&gt;Location: 7413591 - 7414293" locus_tag="LLPMBPKK_06427" class="clusterblast-orf" id="dummy-28_q53_0_all"  />
<polygon points="581,35 586,30 604,30 604,40 586,40 581,35 " style="fill:white; stroke-width:1; stroke:black; " description="&lt;b&gt;LLPMBPKK_06428&lt;/b&gt;&lt;br&gt;acetoacetate--CoA ligase&lt;br&gt;Location: 7414363 - 7416397" locus_tag="LLPMBPKK_06428" class="clusterblast-orf" id="dummy-28_q54_0_all"  />
<polygon points="604,35 609,30 621,30 621,40 609,40 604,35 " style="fill:#9715d8; stroke-width:1; stroke:black; " description="&lt;b&gt;LLPMBPKK_06429&lt;/b&gt;&lt;br&gt;bifunctional 3-(3-hydroxy-phenyl)propionate/3-hydroxycinnamic acid hydroxylase&lt;br&gt;Location: 7416413 - 7417988" locus_tag="LLPMBPKK_06429" class="clusterblast-orf" id="dummy-28_q55_0_all"  />
<polygon points="622,35 627,30 632,30 632,40 627,40 622,35 " style="fill:white; stroke-width:1; stroke:black; " description="&lt;b&gt;LLPMBPKK_06430&lt;/b&gt;&lt;br&gt;fumarylacetoacetate hydrolase family protein&lt;br&gt;Location: 7418011 - 7418989" locus_tag="LLPMBPKK_06430" class="clusterblast-orf" id="dummy-28_q56_0_all"  />
<polygon points="632,35 637,30 645,30 645,40 637,40 632,35 " style="fill:white; stroke-width:1; stroke:black; " description="&lt;b&gt;LLPMBPKK_06431&lt;/b&gt;&lt;br&gt;2,3-dihydroxybiphenyl 1,2-dioxygenase&lt;br&gt;Location: 7418985 - 7420131" locus_tag="LLPMBPKK_06431" class="clusterblast-orf" id="dummy-28_q57_0_all"  />
<polygon points="647,40 649,40 654,35 649,30 647,30 647,40 " style="fill:white; stroke-width:1; stroke:black; " description="&lt;b&gt;LLPMBPKK_06432&lt;/b&gt;&lt;br&gt;TetR/AcrR family transcriptional regulator&lt;br&gt;Location: 7420269 - 7420908" locus_tag="LLPMBPKK_06432" class="clusterblast-orf" id="dummy-28_q58_0_all"  />
<polygon points="657,35 662,30 668,30 668,40 662,40 657,35 " style="fill:#15d8c3; stroke-width:1; stroke:black; " description="&lt;b&gt;LLPMBPKK_06433&lt;/b&gt;&lt;br&gt;alcohol dehydrogenase&lt;br&gt;Location: 7421160 - 7422207" locus_tag="LLPMBPKK_06433" class="clusterblast-orf" id="dummy-28_q59_0_all"  />
<polygon points="670,35 675,30 706,30 706,40 675,40 670,35 " style="fill:white; stroke-width:1; stroke:black; " description="&lt;b&gt;LLPMBPKK_06434&lt;/b&gt;&lt;br&gt;cytochrome P450&lt;br&gt;Location: 7422367 - 7425589" locus_tag="LLPMBPKK_06434" class="clusterblast-orf" id="dummy-28_q60_0_all"  />
<polygon points="709,40 711,40 716,35 711,30 709,30 709,40 " style="fill:white; stroke-width:1; stroke:black; " description="&lt;b&gt;LLPMBPKK_06435&lt;/b&gt;&lt;br&gt;TetR/AcrR family transcriptional regulator&lt;br&gt;Location: 7425844 - 7426504" locus_tag="LLPMBPKK_06435" class="clusterblast-orf" id="dummy-28_q61_0_all"  />
<polygon points="723,40 725,35 723,30 723,40 " style="fill:white; stroke-width:1; stroke:black; " description="&lt;b&gt;LLPMBPKK_06436&lt;/b&gt;&lt;br&gt;hypothetical protein&lt;br&gt;Location: 7427085 - 7427301" locus_tag="LLPMBPKK_06436" class="clusterblast-orf" id="dummy-28_q62_0_all"  />
<polygon points="726,40 728,35 726,30 726,40 " style="fill:white; stroke-width:1; stroke:black; " description="&lt;b&gt;LLPMBPKK_06437&lt;/b&gt;&lt;br&gt;ferredoxin&lt;br&gt;Location: 7427400 - 7427619" locus_tag="LLPMBPKK_06437" class="clusterblast-orf" id="dummy-28_q63_0_all"  />
<polygon points="728,40 739,40 744,35 739,30 728,30 728,40 " style="fill:white; stroke-width:1; stroke:black; " description="&lt;b&gt;LLPMBPKK_06438&lt;/b&gt;&lt;br&gt;NAD(P)/FAD-dependent oxidoreductase&lt;br&gt;Location: 7427615 - 7429019" locus_tag="LLPMBPKK_06438" class="clusterblast-orf" id="dummy-28_q64_0_all"  />
<polygon points="745,40 754,40 759,35 754,30 745,30 745,40 " style="fill:#6c15d8; stroke-width:1; stroke:black; " description="&lt;b&gt;LLPMBPKK_06439&lt;/b&gt;&lt;br&gt;cytochrome P450&lt;br&gt;Location: 7429081 - 7430350" locus_tag="LLPMBPKK_06439" class="clusterblast-orf" id="dummy-28_q65_0_all"  />
<polygon points="759,40 766,40 771,35 766,30 759,30 759,40 " style="fill:#15d8c3; stroke-width:1; stroke:black; " description="&lt;b&gt;LLPMBPKK_06440&lt;/b&gt;&lt;br&gt;NAD(P)-dependent alcohol dehydrogenase&lt;br&gt;Location: 7430373 - 7431417" locus_tag="LLPMBPKK_06440" class="clusterblast-orf" id="dummy-28_q66_0_all"  />
<polygon points="772,40 775,40 780,35 775,30 772,30 772,40 " style="fill:white; stroke-width:1; stroke:black; " description="&lt;b&gt;LLPMBPKK_06441&lt;/b&gt;&lt;br&gt;HdeD family acid-resistance protein&lt;br&gt;Location: 7431536 - 7432214" locus_tag="LLPMBPKK_06441" class="clusterblast-orf" id="dummy-28_q67_0_all"  />
</g>
<g label="NZ_CP007699" description="NZ_CP007699 (&lt;784-50753): Streptomyces lydicus strain A02 chromosome, complet... (42% of genes show similarity), T2PKS" class="clusterblast-cluster"  >
<text x="5" y="70" class="clusterblast-acc"  >
<a xlink:href="https://antismash-db.secondarymetabolites.org/area.html?record=NZ_CP007699&amp;start=<784&amp;end=50753" target="_blank">NZ_CP007699 (<784-50753)</a>: Streptomyces lydicus strain A02 chromosome, complet... (42% of genes show similarity), T2PKS</text>
<line x1="10" y1="85" x2="778.0" y2="85" style="stroke-width:1; stroke:grey; "  />
</g>
<g id="a28_000"  >
<polygon points="111,85 115,80 115,90 111,85 " style="fill:white; stroke-width:1; stroke:black; " description="&lt;b&gt;T261_RS41605&lt;/b&gt;&lt;br&gt;UvrD-helicase domain-containing protein&lt;br&gt;Location: 785 - 1066" locus_tag="T261_RS41605" class="clusterblast-orf" id="dummy-28_h28_8_0"  />
</g>
<g id="a28_001"  >
<polygon points="123,85 128,80 130,80 130,90 128,90 123,85 " style="fill:white; stroke-width:1; stroke:black; " description="&lt;b&gt;T261_RS00015&lt;/b&gt;&lt;br&gt;DUF1707 and DUF2154 domain-containing protein&lt;br&gt;Location: 1794 - 2405" locus_tag="T261_RS00015" class="clusterblast-orf" id="dummy-28_h28_8_1"  />
</g>
<g id="a28_002"  >
<polygon points="133,85 138,80 141,80 141,90 138,90 133,85 " style="fill:white; stroke-width:1; stroke:black; " description="&lt;b&gt;T261_RS00020&lt;/b&gt;&lt;br&gt;IS630 family transposase&lt;br&gt;Location: 2740 - 3441" locus_tag="T261_RS00020" class="clusterblast-orf" id="dummy-28_h28_8_2"  />
</g>
<g id="a28_003"  >
<polygon points="146,85 151,80 163,80 163,90 151,90 146,85 " style="fill:white; stroke-width:1; stroke:black; " description="&lt;b&gt;T261_RS00030&lt;/b&gt;&lt;br&gt;right-handed parallel beta-helix repeat-containing protein&lt;br&gt;Location: 3880 - 5436" locus_tag="T261_RS00030" class="clusterblast-orf" id="dummy-28_h28_8_3"  />
</g>
<g id="a28_004"  >
<polygon points="173,85 175,80 175,90 173,85 " style="fill:white; stroke-width:1; stroke:black; " description="&lt;b&gt;T261_RS00035&lt;/b&gt;&lt;br&gt;hypothetical protein&lt;br&gt;Location: 6315 - 6503" locus_tag="T261_RS00035" class="clusterblast-orf" id="dummy-28_h28_8_4"  />
</g>
<g id="a28_005"  >
<polygon points="177,85 182,80 190,80 190,90 182,90 177,85 " style="fill:#6c15d8; stroke-width:1; stroke:black; " description="&lt;b&gt;T261_RS00040&lt;/b&gt;&lt;br&gt;cytochrome P450&lt;br&gt;Location: 6677 - 7885&lt;br&gt;&lt;br&gt;&lt;b&gt;BlastP hit with LLPMBPKK_06439&lt;/b&gt;&lt;br&gt;Percentage identity: 36&lt;br&gt;Percentage coverage: 73&lt;br&gt;BLAST bit score: 165&lt;br&gt;E-value: 8.22e-45" locus_tag="T261_RS00040" class="clusterblast-orf" id="dummy-28_h28_8_5"  />
</g>
<g id="a28_006"  >
<polygon points="192,85 197,80 213,80 213,90 197,90 192,85 " style="fill:#4115d8; stroke-width:1; stroke:black; " description="&lt;b&gt;T261_RS00045&lt;/b&gt;&lt;br&gt;asparagine synthase (glutamine-hydrolyzing)&lt;br&gt;Location: 8030 - 9892&lt;br&gt;&lt;br&gt;&lt;b&gt;BlastP hit with LLPMBPKK_06421&lt;/b&gt;&lt;br&gt;Percentage identity: 56&lt;br&gt;Percentage coverage: 99&lt;br&gt;BLAST bit score: 694&lt;br&gt;E-value: 6.97e-245" locus_tag="T261_RS00045" class="clusterblast-orf" id="dummy-28_h28_8_6"  />
</g>
<g id="a28_007"  >
<polygon points="216,90 223,90 228,85 223,80 216,80 216,90 " style="fill:#15d86c; stroke-width:1; stroke:black; " description="&lt;b&gt;T261_RS00050&lt;/b&gt;&lt;br&gt;hypothetical protein&lt;br&gt;Location: 10165 - 11229&lt;br&gt;&lt;br&gt;&lt;b&gt;BlastP hit with LLPMBPKK_06414&lt;/b&gt;&lt;br&gt;Percentage identity: 43&lt;br&gt;Percentage coverage: 95&lt;br&gt;BLAST bit score: 268&lt;br&gt;E-value: 1.04e-85" locus_tag="T261_RS00050" class="clusterblast-orf" id="dummy-28_h28_8_7"  />
</g>
<g id="a28_008"  >
<polygon points="228,85 233,80 241,80 241,90 233,90 228,85 " style="fill:white; stroke-width:1; stroke:black; " description="&lt;b&gt;T261_RS00055&lt;/b&gt;&lt;br&gt;DUF1205 domain-containing protein&lt;br&gt;Location: 11272 - 12426" locus_tag="T261_RS00055" class="clusterblast-orf" id="dummy-28_h28_8_8"  />
</g>
<g id="a28_009"  >
<polygon points="243,90 246,90 251,85 246,80 243,80 243,90 " style="fill:white; stroke-width:1; stroke:black; " description="&lt;b&gt;T261_RS00060&lt;/b&gt;&lt;br&gt;SDR family NAD(P)-dependent oxidoreductase&lt;br&gt;Location: 12608 - 13291" locus_tag="T261_RS00060" class="clusterblast-orf" id="dummy-28_h28_8_9"  />
</g>
<g id="a28_0010"  >
<polygon points="252,90 255,85 252,80 252,90 " style="fill:#15d815; stroke-width:1; stroke:black; " description="&lt;b&gt;T261_RS00065&lt;/b&gt;&lt;br&gt;TcmI family type II polyketide cyclase&lt;br&gt;Location: 13373 - 13708&lt;br&gt;&lt;br&gt;&lt;b&gt;BlastP hit with LLPMBPKK_06403&lt;/b&gt;&lt;br&gt;Percentage identity: 69&lt;br&gt;Percentage coverage: 97&lt;br&gt;BLAST bit score: 162&lt;br&gt;E-value: 2.74e-51" locus_tag="T261_RS00065" class="clusterblast-orf" id="dummy-28_h28_8_10"  />
</g>
<g id="a28_0011"  >
<polygon points="255,90 255,90 260,85 255,80 255,80 255,90 " style="fill:#156cd8; stroke-width:1; stroke:black; " description="&lt;b&gt;T261_RS00070&lt;/b&gt;&lt;br&gt;cupin domain-containing protein&lt;br&gt;Location: 13705 - 14172&lt;br&gt;&lt;br&gt;&lt;b&gt;BlastP hit with LLPMBPKK_06404&lt;/b&gt;&lt;br&gt;Percentage identity: 58&lt;br&gt;Percentage coverage: 99&lt;br&gt;BLAST bit score: 149&lt;br&gt;E-value: 3.14e-45" locus_tag="T261_RS00070" class="clusterblast-orf" id="dummy-28_h28_8_11"  />
</g>
<g id="a28_0012"  >
<polygon points="260,90 270,90 275,85 270,80 260,80 260,90 " style="fill:#d815c3; stroke-width:1; stroke:black; " description="&lt;b&gt;T261_RS00075&lt;/b&gt;&lt;br&gt;beta-ketoacyl-[acyl-carrier-protein] synthase family protein&lt;br&gt;Location: 14169 - 15437&lt;br&gt;&lt;br&gt;&lt;b&gt;BlastP hit with LLPMBPKK_06405&lt;/b&gt;&lt;br&gt;Percentage identity: 64&lt;br&gt;Percentage coverage: 100&lt;br&gt;BLAST bit score: 554&lt;br&gt;E-value: 2.46e-196&lt;br&gt;&lt;br&gt;&lt;b&gt;BlastP hit with LLPMBPKK_06406&lt;/b&gt;&lt;br&gt;Percentage identity: 33&lt;br&gt;Percentage coverage: 102&lt;br&gt;BLAST bit score: 172&lt;br&gt;E-value: 2.77e-47" locus_tag="T261_RS00075" class="clusterblast-orf" id="dummy-28_h28_8_12"  />
</g>
<g id="a28_0013"  >
<polygon points="275,90 284,90 289,85 284,80 275,80 275,90 " style="fill:#d815c3; stroke-width:1; stroke:black; " description="&lt;b&gt;T261_RS00080&lt;/b&gt;&lt;br&gt;ketosynthase chain-length factor&lt;br&gt;Location: 15454 - 16695&lt;br&gt;&lt;br&gt;&lt;b&gt;BlastP hit with LLPMBPKK_06405&lt;/b&gt;&lt;br&gt;Percentage identity: 31&lt;br&gt;Percentage coverage: 98&lt;br&gt;BLAST bit score: 177&lt;br&gt;E-value: 4.58e-49&lt;br&gt;&lt;br&gt;&lt;b&gt;BlastP hit with LLPMBPKK_06406&lt;/b&gt;&lt;br&gt;Percentage identity: 61&lt;br&gt;Percentage coverage: 99&lt;br&gt;BLAST bit score: 461&lt;br&gt;E-value: 3.64e-160" locus_tag="T261_RS00080" class="clusterblast-orf" id="dummy-28_h28_8_13"  />
</g>
<g id="a28_0014"  >
<polygon points="289,90 292,85 289,80 289,90 " style="fill:#d89715; stroke-width:1; stroke:black; " description="&lt;b&gt;T261_RS00085&lt;/b&gt;&lt;br&gt;acyl carrier protein&lt;br&gt;Location: 16734 - 16988&lt;br&gt;&lt;br&gt;&lt;b&gt;BlastP hit with LLPMBPKK_06407&lt;/b&gt;&lt;br&gt;Percentage identity: 42&lt;br&gt;Percentage coverage: 100&lt;br&gt;BLAST bit score: 69&lt;br&gt;E-value: 3.64e-15" locus_tag="T261_RS00085" class="clusterblast-orf" id="dummy-28_h28_8_14"  />
</g>
<g id="a28_0015"  >
<polygon points="292,90 292,90 297,85 292,80 292,80 292,90 " style="fill:#15d841; stroke-width:1; stroke:black; " description="&lt;b&gt;T261_RS00090&lt;/b&gt;&lt;br&gt;SRPBCC family protein&lt;br&gt;Location: 16990 - 17448&lt;br&gt;&lt;br&gt;&lt;b&gt;BlastP hit with LLPMBPKK_06408&lt;/b&gt;&lt;br&gt;Percentage identity: 59&lt;br&gt;Percentage coverage: 93&lt;br&gt;BLAST bit score: 184&lt;br&gt;E-value: 1.46e-58" locus_tag="T261_RS00090" class="clusterblast-orf" id="dummy-28_h28_8_15"  />
</g>
<g id="a28_0016"  >
<polygon points="297,90 298,90 303,85 298,80 297,80 297,90 " style="fill:#d8c315; stroke-width:1; stroke:black; " description="&lt;b&gt;T261_RS00095&lt;/b&gt;&lt;br&gt;DUF1772 domain-containing protein&lt;br&gt;Location: 17495 - 17956&lt;br&gt;&lt;br&gt;&lt;b&gt;BlastP hit with LLPMBPKK_06412&lt;/b&gt;&lt;br&gt;Percentage identity: 32&lt;br&gt;Percentage coverage: 99&lt;br&gt;BLAST bit score: 69&lt;br&gt;E-value: 2.27e-13&lt;br&gt;&lt;br&gt;&lt;b&gt;BlastP hit with LLPMBPKK_06413&lt;/b&gt;&lt;br&gt;Percentage identity: 48&lt;br&gt;Percentage coverage: 89&lt;br&gt;BLAST bit score: 115&lt;br&gt;E-value: 1.83e-31" locus_tag="T261_RS00095" class="clusterblast-orf" id="dummy-28_h28_8_16"  />
</g>
<g id="a28_0017"  >
<polygon points="303,90 307,90 312,85 307,80 303,80 303,90 " style="fill:#c315d8; stroke-width:1; stroke:black; " description="&lt;b&gt;T261_RS00100&lt;/b&gt;&lt;br&gt;SDR family oxidoreductase&lt;br&gt;Location: 18010 - 18762&lt;br&gt;&lt;br&gt;&lt;b&gt;BlastP hit with LLPMBPKK_06401&lt;/b&gt;&lt;br&gt;Percentage identity: 39&lt;br&gt;Percentage coverage: 100&lt;br&gt;BLAST bit score: 140&lt;br&gt;E-value: 1.01e-38&lt;br&gt;&lt;br&gt;&lt;b&gt;BlastP hit with LLPMBPKK_06415&lt;/b&gt;&lt;br&gt;Percentage identity: 57&lt;br&gt;Percentage coverage: 100&lt;br&gt;BLAST bit score: 272&lt;br&gt;E-value: 2.07e-90" locus_tag="T261_RS00100" class="clusterblast-orf" id="dummy-28_h28_8_17"  />
</g>
<g id="a28_0018"  >
<polygon points="312,90 315,85 312,80 312,90 " style="fill:#1541d8; stroke-width:1; stroke:black; " description="&lt;b&gt;T261_RS00105&lt;/b&gt;&lt;br&gt;antibiotic biosynthesis monooxygenase&lt;br&gt;Location: 18762 - 19115&lt;br&gt;&lt;br&gt;&lt;b&gt;BlastP hit with LLPMBPKK_06416&lt;/b&gt;&lt;br&gt;Percentage identity: 50&lt;br&gt;Percentage coverage: 91&lt;br&gt;BLAST bit score: 102&lt;br&gt;E-value: 1.13e-27" locus_tag="T261_RS00105" class="clusterblast-orf" id="dummy-28_h28_8_18"  />
</g>
<g id="a28_0019"  >
<polygon points="315,90 319,85 315,80 315,90 " style="fill:#1515d8; stroke-width:1; stroke:black; " description="&lt;b&gt;T261_RS00110&lt;/b&gt;&lt;br&gt;antibiotic biosynthesis monooxygenase&lt;br&gt;Location: 19112 - 19423&lt;br&gt;&lt;br&gt;&lt;b&gt;BlastP hit with LLPMBPKK_06417&lt;/b&gt;&lt;br&gt;Percentage identity: 51&lt;br&gt;Percentage coverage: 95&lt;br&gt;BLAST bit score: 102&lt;br&gt;E-value: 6.01e-28" locus_tag="T261_RS00110" class="clusterblast-orf" id="dummy-28_h28_8_19"  />
</g>
<g id="a28_0020"  >
<polygon points="319,90 322,85 319,80 319,90 " style="fill:white; stroke-width:1; stroke:black; " description="&lt;b&gt;T261_RS42760&lt;/b&gt;&lt;br&gt;hypothetical protein&lt;br&gt;Location: 19449 - 19694" locus_tag="T261_RS42760" class="clusterblast-orf" id="dummy-28_h28_8_20"  />
</g>
<g id="a28_0021"  >
<polygon points="321,90 335,90 340,85 335,80 321,80 321,90 " style="fill:white; stroke-width:1; stroke:black; " description="&lt;b&gt;T261_RS00115&lt;/b&gt;&lt;br&gt;acetyl-CoA carboxylase carboxyl transferase subunit&lt;br&gt;Location: 19636 - 21351" locus_tag="T261_RS00115" class="clusterblast-orf" id="dummy-28_h28_8_21"  />
</g>
<g id="a28_0022"  >
<polygon points="340,90 341,90 346,85 341,80 340,80 340,90 " style="fill:white; stroke-width:1; stroke:black; " description="&lt;b&gt;T261_RS00120&lt;/b&gt;&lt;br&gt;acetyl-CoA carboxylase biotin carboxyl carrier protein&lt;br&gt;Location: 21348 - 21872" locus_tag="T261_RS00120" class="clusterblast-orf" id="dummy-28_h28_8_22"  />
</g>
<g id="a28_0023"  >
<polygon points="347,90 357,90 362,85 357,80 347,80 347,90 " style="fill:white; stroke-width:1; stroke:black; " description="&lt;b&gt;T261_RS00125&lt;/b&gt;&lt;br&gt;acetyl-CoA carboxylase biotin carboxylase subunit&lt;br&gt;Location: 21917 - 23287" locus_tag="T261_RS00125" class="clusterblast-orf" id="dummy-28_h28_8_23"  />
</g>
<g id="a28_0024"  >
<polygon points="364,85 369,80 385,80 385,90 369,90 364,85 " style="fill:#d81541; stroke-width:1; stroke:black; " description="&lt;b&gt;T261_RS00130&lt;/b&gt;&lt;br&gt;AfsR/SARP family transcriptional regulator&lt;br&gt;Location: 23449 - 25407&lt;br&gt;&lt;br&gt;&lt;b&gt;BlastP hit with LLPMBPKK_06422&lt;/b&gt;&lt;br&gt;Percentage identity: 35&lt;br&gt;Percentage coverage: 104&lt;br&gt;BLAST bit score: 322&lt;br&gt;E-value: 1.68e-99" locus_tag="T261_RS00130" class="clusterblast-orf" id="dummy-28_h28_8_24"  />
</g>
<g id="a28_0025"  >
<polygon points="392,85 397,80 410,80 410,90 397,90 392,85 " style="fill:#9715d8; stroke-width:1; stroke:black; " description="&lt;b&gt;T261_RS00135&lt;/b&gt;&lt;br&gt;FAD-dependent oxidoreductase&lt;br&gt;Location: 26001 - 27623&lt;br&gt;&lt;br&gt;&lt;b&gt;BlastP hit with LLPMBPKK_06395&lt;/b&gt;&lt;br&gt;Percentage identity: 45&lt;br&gt;Percentage coverage: 100&lt;br&gt;BLAST bit score: 456&lt;br&gt;E-value: 4.53e-154" locus_tag="T261_RS00135" class="clusterblast-orf" id="dummy-28_h28_8_25"  />
</g>
<g id="a28_0026"  >
<polygon points="410,85 415,80 426,80 426,90 415,90 410,85 " style="fill:white; stroke-width:1; stroke:black; " description="&lt;b&gt;T261_RS00140&lt;/b&gt;&lt;br&gt;MFS transporter&lt;br&gt;Location: 27620 - 29017" locus_tag="T261_RS00140" class="clusterblast-orf" id="dummy-28_h28_8_26"  />
</g>
<g id="a28_0027"  >
<polygon points="427,90 430,90 435,85 430,80 427,80 427,90 " style="fill:white; stroke-width:1; stroke:black; " description="&lt;b&gt;T261_RS00145&lt;/b&gt;&lt;br&gt;TetR family transcriptional regulator&lt;br&gt;Location: 29182 - 29868" locus_tag="T261_RS00145" class="clusterblast-orf" id="dummy-28_h28_8_27"  />
</g>
<g id="a28_0028"  >
<polygon points="436,85 441,80 441,80 441,90 441,90 436,85 " style="fill:#d8c315; stroke-width:1; stroke:black; " description="&lt;b&gt;T261_RS00150&lt;/b&gt;&lt;br&gt;DUF1772 domain-containing protein&lt;br&gt;Location: 29930 - 30379&lt;br&gt;&lt;br&gt;&lt;b&gt;BlastP hit with LLPMBPKK_06412&lt;/b&gt;&lt;br&gt;Percentage identity: 50&lt;br&gt;Percentage coverage: 99&lt;br&gt;BLAST bit score: 122&lt;br&gt;E-value: 1.44e-34&lt;br&gt;&lt;br&gt;&lt;b&gt;BlastP hit with LLPMBPKK_06413&lt;/b&gt;&lt;br&gt;Percentage identity: 42&lt;br&gt;Percentage coverage: 85&lt;br&gt;BLAST bit score: 82&lt;br&gt;E-value: 1.33e-18" locus_tag="T261_RS00150" class="clusterblast-orf" id="dummy-28_h28_8_28"  />
</g>
<g id="a28_0029"  >
<polygon points="441,85 446,80 451,80 451,90 446,90 441,85 " style="fill:white; stroke-width:1; stroke:black; " description="&lt;b&gt;T261_RS00155&lt;/b&gt;&lt;br&gt;NAD(P)-dependent oxidoreductase&lt;br&gt;Location: 30369 - 31268" locus_tag="T261_RS00155" class="clusterblast-orf" id="dummy-28_h28_8_29"  />
</g>
<g id="a28_0030"  >
<polygon points="451,85 455,80 455,90 451,85 " style="fill:#d81597; stroke-width:1; stroke:black; " description="&lt;b&gt;T261_RS00160&lt;/b&gt;&lt;br&gt;SchA/CurD&lt;br&gt;Location: 31265 - 31651&lt;br&gt;&lt;br&gt;&lt;b&gt;BlastP hit with LLPMBPKK_06411&lt;/b&gt;&lt;br&gt;Percentage identity: 46&lt;br&gt;Percentage coverage: 52&lt;br&gt;BLAST bit score: 119&lt;br&gt;E-value: 2.75e-32" locus_tag="T261_RS00160" class="clusterblast-orf" id="dummy-28_h28_8_30"  />
</g>
<g id="a28_0031"  >
<polygon points="456,85 461,80 471,80 471,90 461,90 456,85 " style="fill:#d86c15; stroke-width:1; stroke:black; " description="&lt;b&gt;T261_RS00165&lt;/b&gt;&lt;br&gt;MFS transporter&lt;br&gt;Location: 31719 - 33134&lt;br&gt;&lt;br&gt;&lt;b&gt;BlastP hit with LLPMBPKK_06402&lt;/b&gt;&lt;br&gt;Percentage identity: 43&lt;br&gt;Percentage coverage: 92&lt;br&gt;BLAST bit score: 310&lt;br&gt;E-value: 2.04e-98" locus_tag="T261_RS00165" class="clusterblast-orf" id="dummy-28_h28_8_31"  />
</g>
<g id="a28_0032"  >
<polygon points="472,85 477,80 490,80 490,90 477,90 472,85 " style="fill:#9715d8; stroke-width:1; stroke:black; " description="&lt;b&gt;T261_RS00170&lt;/b&gt;&lt;br&gt;FAD-dependent monooxygenase&lt;br&gt;Location: 33197 - 34822&lt;br&gt;&lt;br&gt;&lt;b&gt;BlastP hit with LLPMBPKK_06395&lt;/b&gt;&lt;br&gt;Percentage identity: 40&lt;br&gt;Percentage coverage: 100&lt;br&gt;BLAST bit score: 327&lt;br&gt;E-value: 1.22e-103&lt;br&gt;&lt;br&gt;&lt;b&gt;BlastP hit with LLPMBPKK_06429&lt;/b&gt;&lt;br&gt;Percentage identity: 32&lt;br&gt;Percentage coverage: 90&lt;br&gt;BLAST bit score: 144&lt;br&gt;E-value: 2.9e-35" locus_tag="T261_RS00170" class="clusterblast-orf" id="dummy-28_h28_8_32"  />
</g>
<g id="a28_0033"  >
<polygon points="491,85 496,80 500,80 500,90 496,90 491,85 " style="fill:white; stroke-width:1; stroke:black; " description="&lt;b&gt;T261_RS00175&lt;/b&gt;&lt;br&gt;LLM class flavin-dependent oxidoreductase&lt;br&gt;Location: 34849 - 35706" locus_tag="T261_RS00175" class="clusterblast-orf" id="dummy-28_h28_8_33"  />
</g>
<g id="a28_0034"  >
<polygon points="500,85 505,80 514,80 514,90 505,90 500,85 " style="fill:white; stroke-width:1; stroke:black; " description="&lt;b&gt;T261_RS00180&lt;/b&gt;&lt;br&gt;FAD-dependent monooxygenase&lt;br&gt;Location: 35706 - 36971" locus_tag="T261_RS00180" class="clusterblast-orf" id="dummy-28_h28_8_34"  />
</g>
<g id="a28_0035"  >
<polygon points="514,85 519,80 522,80 522,90 519,90 514,85 " style="fill:#c315d8; stroke-width:1; stroke:black; " description="&lt;b&gt;T261_RS00185&lt;/b&gt;&lt;br&gt;SDR family oxidoreductase&lt;br&gt;Location: 36975 - 37712&lt;br&gt;&lt;br&gt;&lt;b&gt;BlastP hit with LLPMBPKK_06401&lt;/b&gt;&lt;br&gt;Percentage identity: 34&lt;br&gt;Percentage coverage: 98&lt;br&gt;BLAST bit score: 120&lt;br&gt;E-value: 2.35e-31&lt;br&gt;&lt;br&gt;&lt;b&gt;BlastP hit with LLPMBPKK_06415&lt;/b&gt;&lt;br&gt;Percentage identity: 50&lt;br&gt;Percentage coverage: 100&lt;br&gt;BLAST bit score: 226&lt;br&gt;E-value: 2.73e-72" locus_tag="T261_RS00185" class="clusterblast-orf" id="dummy-28_h28_8_35"  />
</g>
<g id="a28_0036"  >
<polygon points="525,90 531,90 536,85 531,80 525,80 525,90 " style="fill:white; stroke-width:1; stroke:black; " description="&lt;b&gt;T261_RS00190&lt;/b&gt;&lt;br&gt;methyltransferase domain-containing protein&lt;br&gt;Location: 37943 - 38953" locus_tag="T261_RS00190" class="clusterblast-orf" id="dummy-28_h28_8_36"  />
</g>
<g id="a28_0037"  >
<polygon points="537,85 541,80 541,90 537,85 " style="fill:white; stroke-width:1; stroke:black; " description="&lt;b&gt;T261_RS00195&lt;/b&gt;&lt;br&gt;SchA/CurD&lt;br&gt;Location: 39049 - 39417" locus_tag="T261_RS00195" class="clusterblast-orf" id="dummy-28_h28_8_37"  />
</g>
<g id="a28_0038"  >
<polygon points="542,85 547,80 553,80 553,90 547,90 542,85 " style="fill:white; stroke-width:1; stroke:black; " description="&lt;b&gt;T261_RS00200&lt;/b&gt;&lt;br&gt;hypothetical protein&lt;br&gt;Location: 39448 - 40503" locus_tag="T261_RS00200" class="clusterblast-orf" id="dummy-28_h28_8_38"  />
</g>
<g id="a28_0039"  >
<polygon points="554,85 559,80 568,80 568,90 559,90 554,85 " style="fill:white; stroke-width:1; stroke:black; " description="&lt;b&gt;T261_RS00205&lt;/b&gt;&lt;br&gt;cytochrome P450&lt;br&gt;Location: 40569 - 41768" locus_tag="T261_RS00205" class="clusterblast-orf" id="dummy-28_h28_8_39"  />
</g>
<g id="a28_0040"  >
<polygon points="581,85 586,80 593,80 593,90 586,90 581,85 " style="fill:#6cd815; stroke-width:1; stroke:black; " description="&lt;b&gt;T261_RS00215&lt;/b&gt;&lt;br&gt;ParB N-terminal domain-containing protein&lt;br&gt;Location: 42980 - 44035&lt;br&gt;&lt;br&gt;&lt;b&gt;BlastP hit with LLPMBPKK_06392&lt;/b&gt;&lt;br&gt;Percentage identity: 44&lt;br&gt;Percentage coverage: 89&lt;br&gt;BLAST bit score: 223&lt;br&gt;E-value: 4.57e-68" locus_tag="T261_RS00215" class="clusterblast-orf" id="dummy-28_h28_8_40"  />
</g>
<g id="a28_0041"  >
<polygon points="610,85 611,80 611,90 610,85 " style="fill:white; stroke-width:1; stroke:black; " description="&lt;b&gt;T261_RS41610&lt;/b&gt;&lt;br&gt;ISAzo13 family transposase&lt;br&gt;Location: 45557 - 45715" locus_tag="T261_RS41610" class="clusterblast-orf" id="dummy-28_h28_8_41"  />
</g>
<g id="a28_0042"  >
<polygon points="617,90 617,90 622,85 617,80 617,80 617,90 " style="fill:white; stroke-width:1; stroke:black; " description="&lt;b&gt;T261_RS00225&lt;/b&gt;&lt;br&gt;hypothetical protein&lt;br&gt;Location: 46203 - 46682" locus_tag="T261_RS00225" class="clusterblast-orf" id="dummy-28_h28_8_42"  />
</g>
<g id="a28_0043"  >
<polygon points="625,90 629,85 625,80 625,90 " style="fill:white; stroke-width:1; stroke:black; " description="&lt;b&gt;T261_RS00230&lt;/b&gt;&lt;br&gt;hypothetical protein&lt;br&gt;Location: 46931 - 47296" locus_tag="T261_RS00230" class="clusterblast-orf" id="dummy-28_h28_8_43"  />
</g>
<g id="a28_0044"  >
<polygon points="629,90 637,90 642,85 637,80 629,80 629,90 " style="fill:white; stroke-width:1; stroke:black; " description="&lt;b&gt;T261_RS00235&lt;/b&gt;&lt;br&gt;hypothetical protein&lt;br&gt;Location: 47281 - 48426" locus_tag="T261_RS00235" class="clusterblast-orf" id="dummy-28_h28_8_44"  />
</g>
<g id="a28_0045"  >
<polygon points="642,90 644,85 642,80 642,90 " style="fill:white; stroke-width:1; stroke:black; " description="&lt;b&gt;T261_RS00240&lt;/b&gt;&lt;br&gt;thiamine-binding protein&lt;br&gt;Location: 48441 - 48671" locus_tag="T261_RS00240" class="clusterblast-orf" id="dummy-28_h28_8_45"  />
</g>
<g id="a28_0046"  >
<polygon points="647,90 650,85 647,80 647,90 " style="fill:white; stroke-width:1; stroke:black; " description="&lt;b&gt;T261_RS00245&lt;/b&gt;&lt;br&gt;hypothetical protein&lt;br&gt;Location: 48876 - 49178" locus_tag="T261_RS00245" class="clusterblast-orf" id="dummy-28_h28_8_46"  />
</g>
<g id="a28_0047"  >
<polygon points="651,90 651,90 656,85 651,80 651,80 651,90 " style="fill:white; stroke-width:1; stroke:black; " description="&lt;b&gt;T261_RS00250&lt;/b&gt;&lt;br&gt;hypothetical protein&lt;br&gt;Location: 49296 - 49688" locus_tag="T261_RS00250" class="clusterblast-orf" id="dummy-28_h28_8_47"  />
</g>
<g id="a28_0048"  >
<polygon points="664,90 668,85 664,80 664,90 " style="fill:white; stroke-width:1; stroke:black; " description="&lt;b&gt;T261_RS00255&lt;/b&gt;&lt;br&gt;hypothetical protein&lt;br&gt;Location: 50403 - 50753" locus_tag="T261_RS00255" class="clusterblast-orf" id="dummy-28_h28_8_48"  />
</g>
</svg>
