<svg xmlns="http://www.w3.org/2000/svg" xmlns:xlink="http://www.w3.org/1999/xlink" version="1.1" x="0" y="0" height="230" width="800" viewBox="0 0 800 230" preserveAspectRatio="none"  >
<g label="Query sequence" class="clusterblast-cluster"  >
<text x="5" y="20" class="clusterblast-acc"  >
Query sequence</text>
<line x1="10" y1="35" x2="778.0" y2="35" style="stroke-width:1; stroke:grey; "  />
<polygon points="6,35 11,30 17,30 17,40 11,40 6,35 " style="fill:white; stroke-width:1; stroke:black; " description="&lt;b&gt;LLPMBPKK_06374&lt;/b&gt;&lt;br&gt;hypothetical protein&lt;br&gt;Location: 7362119 - 7363100" locus_tag="LLPMBPKK_06374" class="clusterblast-orf" id="dummy-28_q0_0_all"  />
<polygon points="17,35 22,30 31,30 31,40 22,40 17,35 " style="fill:white; stroke-width:1; stroke:black; " description="&lt;b&gt;LLPMBPKK_06375&lt;/b&gt;&lt;br&gt;Major Facilitator Superfamily protein&lt;br&gt;Location: 7363114 - 7364371" locus_tag="LLPMBPKK_06375" class="clusterblast-orf" id="dummy-28_q1_0_all"  />
<polygon points="31,35 36,30 45,30 45,40 36,40 31,35 " style="fill:white; stroke-width:1; stroke:black; " description="&lt;b&gt;LLPMBPKK_06376&lt;/b&gt;&lt;br&gt;pyridoxal-phosphate dependent enzyme&lt;br&gt;Location: 7364367 - 7365609" locus_tag="LLPMBPKK_06376" class="clusterblast-orf" id="dummy-28_q2_0_all"  />
<polygon points="45,35 50,30 59,30 59,40 50,40 45,35 " style="fill:white; stroke-width:1; stroke:black; " description="&lt;b&gt;LLPMBPKK_06377&lt;/b&gt;&lt;br&gt;MbtG protein&lt;br&gt;Location: 7365605 - 7366961" locus_tag="LLPMBPKK_06377" class="clusterblast-orf" id="dummy-28_q3_0_all"  />
<polygon points="59,35 64,30 64,30 64,40 64,40 59,35 " style="fill:white; stroke-width:1; stroke:black; " description="&lt;b&gt;LLPMBPKK_06378&lt;/b&gt;&lt;br&gt;Acetyltransferase (GNAT) family protein&lt;br&gt;Location: 7366957 - 7367404" locus_tag="LLPMBPKK_06378" class="clusterblast-orf" id="dummy-28_q4_0_all"  />
<polygon points="65,35 70,30 73,30 73,40 70,40 65,35 " style="fill:white; stroke-width:1; stroke:black; " description="&lt;b&gt;LLPMBPKK_06379&lt;/b&gt;&lt;br&gt;hypothetical protein&lt;br&gt;Location: 7367448 - 7368186" locus_tag="LLPMBPKK_06379" class="clusterblast-orf" id="dummy-28_q5_0_all"  />
<polygon points="73,35 78,30 86,30 86,40 78,40 73,35 " style="fill:white; stroke-width:1; stroke:black; " description="&lt;b&gt;LLPMBPKK_06380&lt;/b&gt;&lt;br&gt;FAD-binding oxidoreductase&lt;br&gt;Location: 7368182 - 7369376" locus_tag="LLPMBPKK_06380" class="clusterblast-orf" id="dummy-28_q6_0_all"  />
<polygon points="86,35 89,30 89,40 86,35 " style="fill:white; stroke-width:1; stroke:black; " description="&lt;b&gt;LLPMBPKK_06381&lt;/b&gt;&lt;br&gt;cupin domain-containing protein&lt;br&gt;Location: 7369372 - 7369657" locus_tag="LLPMBPKK_06381" class="clusterblast-orf" id="dummy-28_q7_0_all"  />
<polygon points="89,35 94,30 107,30 107,40 94,40 89,35 " style="fill:white; stroke-width:1; stroke:black; " description="&lt;b&gt;LLPMBPKK_06382&lt;/b&gt;&lt;br&gt;methionine--tRNA ligase&lt;br&gt;Location: 7369671 - 7371327" locus_tag="LLPMBPKK_06382" class="clusterblast-orf" id="dummy-28_q8_0_all"  />
<polygon points="107,35 112,30 115,30 115,40 112,40 107,35 " style="fill:white; stroke-width:1; stroke:black; " description="&lt;b&gt;LLPMBPKK_06383&lt;/b&gt;&lt;br&gt;4-hydroxyphenylpyruvate dioxygenase&lt;br&gt;Location: 7371358 - 7372036" locus_tag="LLPMBPKK_06383" class="clusterblast-orf" id="dummy-28_q9_0_all"  />
<polygon points="115,35 120,30 130,30 130,40 120,40 115,35 " style="fill:#d81515; stroke-width:1; stroke:black; " description="&lt;b&gt;LLPMBPKK_06384&lt;/b&gt;&lt;br&gt;cation/H(+) antiporter&lt;br&gt;Location: 7372095 - 7373418" locus_tag="LLPMBPKK_06384" class="clusterblast-orf" id="dummy-28_q10_0_all"  />
<polygon points="130,35 135,30 144,30 144,40 135,40 130,35 " style="fill:white; stroke-width:1; stroke:black; " description="&lt;b&gt;LLPMBPKK_06385&lt;/b&gt;&lt;br&gt;ATP-grasp domain-containing protein&lt;br&gt;Location: 7373441 - 7374677" locus_tag="LLPMBPKK_06385" class="clusterblast-orf" id="dummy-28_q11_0_all"  />
<polygon points="144,35 149,30 160,30 160,40 149,40 144,35 " style="fill:white; stroke-width:1; stroke:black; " description="&lt;b&gt;LLPMBPKK_06386&lt;/b&gt;&lt;br&gt;hypothetical protein&lt;br&gt;Location: 7374703 - 7376131" locus_tag="LLPMBPKK_06386" class="clusterblast-orf" id="dummy-28_q12_0_all"  />
<polygon points="161,35 166,30 175,30 175,40 166,40 161,35 " style="fill:white; stroke-width:1; stroke:black; " description="&lt;b&gt;LLPMBPKK_06387&lt;/b&gt;&lt;br&gt;MFS transporter&lt;br&gt;Location: 7376256 - 7377519" locus_tag="LLPMBPKK_06387" class="clusterblast-orf" id="dummy-28_q13_0_all"  />
<polygon points="176,35 181,30 189,30 189,40 181,40 176,35 " style="fill:white; stroke-width:1; stroke:black; " description="&lt;b&gt;LLPMBPKK_06388&lt;/b&gt;&lt;br&gt;Acetylornithine deacetylase&lt;br&gt;Location: 7377614 - 7378811" locus_tag="LLPMBPKK_06388" class="clusterblast-orf" id="dummy-28_q14_0_all"  />
<polygon points="190,35 195,30 200,30 200,40 195,40 190,35 " style="fill:white; stroke-width:1; stroke:black; " description="&lt;b&gt;LLPMBPKK_06389&lt;/b&gt;&lt;br&gt;alpha-ketoglutarate-dependent taurinedioxygenase&lt;br&gt;Location: 7378938 - 7379865" locus_tag="LLPMBPKK_06389" class="clusterblast-orf" id="dummy-28_q15_0_all"  />
<polygon points="201,35 206,30 206,30 206,40 206,40 201,35 " style="fill:white; stroke-width:1; stroke:black; " description="&lt;b&gt;LLPMBPKK_06390&lt;/b&gt;&lt;br&gt;N-acetyltransferase&lt;br&gt;Location: 7379924 - 7380398" locus_tag="LLPMBPKK_06390" class="clusterblast-orf" id="dummy-28_q16_0_all"  />
<polygon points="207,35 212,30 218,30 218,40 212,40 207,35 " style="fill:white; stroke-width:1; stroke:black; " description="&lt;b&gt;LLPMBPKK_06391&lt;/b&gt;&lt;br&gt;hypothetical protein&lt;br&gt;Location: 7380445 - 7381471" locus_tag="LLPMBPKK_06391" class="clusterblast-orf" id="dummy-28_q17_0_all"  />
<polygon points="218,35 223,30 230,30 230,40 223,40 218,35 " style="fill:#6cd815; stroke-width:1; stroke:black; " description="&lt;b&gt;LLPMBPKK_06392&lt;/b&gt;&lt;br&gt;streptomycin biosynthesis operon possibleregulatory protein&lt;br&gt;Location: 7381470 - 7382589" locus_tag="LLPMBPKK_06392" class="clusterblast-orf" id="dummy-28_q18_0_all"  />
<polygon points="237,35 242,30 254,30 254,40 242,40 237,35 " style="fill:#15c3d8; stroke-width:1; stroke:black; " description="&lt;b&gt;LLPMBPKK_06393&lt;/b&gt;&lt;br&gt;exporter&lt;br&gt;Location: 7383186 - 7384794" locus_tag="LLPMBPKK_06393" class="clusterblast-orf" id="dummy-28_q19_0_all"  />
<polygon points="255,35 260,30 268,30 268,40 260,40 255,35 " style="fill:white; stroke-width:1; stroke:black; " description="&lt;b&gt;LLPMBPKK_06394&lt;/b&gt;&lt;br&gt;acyltransferase&lt;br&gt;Location: 7384891 - 7386085" locus_tag="LLPMBPKK_06394" class="clusterblast-orf" id="dummy-28_q20_0_all"  />
<polygon points="271,40 284,40 289,35 284,30 271,30 271,40 " style="fill:#9715d8; stroke-width:1; stroke:black; " description="&lt;b&gt;LLPMBPKK_06395&lt;/b&gt;&lt;br&gt;FAD-dependent oxidoreductase&lt;br&gt;Location: 7386278 - 7387928" locus_tag="LLPMBPKK_06395" class="clusterblast-orf" id="dummy-28_q21_0_all"  />
<polygon points="289,40 289,40 294,35 289,30 289,30 289,40 " style="fill:#d84115; stroke-width:1; stroke:black; " description="&lt;b&gt;LLPMBPKK_06396&lt;/b&gt;&lt;br&gt;sterol binding domain-containing protein&lt;br&gt;Location: 7388005 - 7388434" locus_tag="LLPMBPKK_06396" class="clusterblast-orf" id="dummy-28_q22_0_all"  />
<polygon points="294,40 300,40 305,35 300,30 294,30 294,40 " style="fill:white; stroke-width:1; stroke:black; " description="&lt;b&gt;LLPMBPKK_06397&lt;/b&gt;&lt;br&gt;luciferase-like monooxygenase&lt;br&gt;Location: 7388449 - 7389409" locus_tag="LLPMBPKK_06397" class="clusterblast-orf" id="dummy-28_q23_0_all"  />
<polygon points="306,35 309,30 309,40 306,35 " style="fill:white; stroke-width:1; stroke:black; " description="&lt;b&gt;LLPMBPKK_06398&lt;/b&gt;&lt;br&gt;hypothetical protein&lt;br&gt;Location: 7389554 - 7389767" locus_tag="LLPMBPKK_06398" class="clusterblast-orf" id="dummy-28_q24_0_all"  />
<polygon points="309,35 314,30 326,30 326,40 314,40 309,35 " style="fill:#41d815; stroke-width:1; stroke:black; " description="&lt;b&gt;LLPMBPKK_06399&lt;/b&gt;&lt;br&gt;decarboxylase&lt;br&gt;Location: 7389763 - 7391365" locus_tag="LLPMBPKK_06399" class="clusterblast-orf" id="dummy-28_q25_0_all"  />
<polygon points="327,40 334,40 339,35 334,30 327,30 327,40 " style="fill:#1597d8; stroke-width:1; stroke:black; " description="&lt;b&gt;LLPMBPKK_06400&lt;/b&gt;&lt;br&gt;acyltransferase of polyketide synthase&lt;br&gt;Location: 7391461 - 7392565" locus_tag="LLPMBPKK_06400" class="clusterblast-orf" id="dummy-28_q26_0_all"  />
<polygon points="340,40 343,40 348,35 343,30 340,30 340,40 " style="fill:#c315d8; stroke-width:1; stroke:black; " description="&lt;b&gt;LLPMBPKK_06401&lt;/b&gt;&lt;br&gt;SDR family oxidoreductase&lt;br&gt;Location: 7392591 - 7393332" locus_tag="LLPMBPKK_06401" class="clusterblast-orf" id="dummy-28_q27_0_all"  />
<polygon points="348,40 359,40 364,35 359,30 348,30 348,40 " style="fill:#d86c15; stroke-width:1; stroke:black; " description="&lt;b&gt;LLPMBPKK_06402&lt;/b&gt;&lt;br&gt;peptide MFS transporter&lt;br&gt;Location: 7393342 - 7394854" locus_tag="LLPMBPKK_06402" class="clusterblast-orf" id="dummy-28_q28_0_all"  />
<polygon points="365,40 369,35 365,30 365,40 " style="fill:#15d815; stroke-width:1; stroke:black; " description="&lt;b&gt;LLPMBPKK_06403&lt;/b&gt;&lt;br&gt;polyketide synthesis cyclase&lt;br&gt;Location: 7394939 - 7395260" locus_tag="LLPMBPKK_06403" class="clusterblast-orf" id="dummy-28_q29_0_all"  />
<polygon points="369,40 369,40 374,35 369,30 369,30 369,40 " style="fill:#156cd8; stroke-width:1; stroke:black; " description="&lt;b&gt;LLPMBPKK_06404&lt;/b&gt;&lt;br&gt;cupin&lt;br&gt;Location: 7395319 - 7395745" locus_tag="LLPMBPKK_06404" class="clusterblast-orf" id="dummy-28_q30_0_all"  />
<polygon points="374,40 383,40 388,35 383,30 374,30 374,40 " style="fill:#d815c3; stroke-width:1; stroke:black; " description="&lt;b&gt;LLPMBPKK_06405&lt;/b&gt;&lt;br&gt;beta-ketoacyl-[acyl-carrier-protein] synthasefamily protein&lt;br&gt;Location: 7395741 - 7397007" locus_tag="LLPMBPKK_06405" class="clusterblast-orf" id="dummy-28_q31_0_all"  />
<polygon points="388,40 396,40 401,35 396,30 388,30 388,40 " style="fill:#d815c3; stroke-width:1; stroke:black; " description="&lt;b&gt;LLPMBPKK_06406&lt;/b&gt;&lt;br&gt;3-oxoacyl-ACP synthase&lt;br&gt;Location: 7397003 - 7398215" locus_tag="LLPMBPKK_06406" class="clusterblast-orf" id="dummy-28_q32_0_all"  />
<polygon points="402,40 404,35 402,30 402,40 " style="fill:#d89715; stroke-width:1; stroke:black; " description="&lt;b&gt;LLPMBPKK_06407&lt;/b&gt;&lt;br&gt;actinorhodin polyketide synthase&lt;br&gt;Location: 7398269 - 7398524" locus_tag="LLPMBPKK_06407" class="clusterblast-orf" id="dummy-28_q33_0_all"  />
<polygon points="404,40 405,40 410,35 405,30 404,30 404,40 " style="fill:#15d841; stroke-width:1; stroke:black; " description="&lt;b&gt;LLPMBPKK_06408&lt;/b&gt;&lt;br&gt;polyketide cyclase&lt;br&gt;Location: 7398523 - 7398991" locus_tag="LLPMBPKK_06408" class="clusterblast-orf" id="dummy-28_q34_0_all"  />
<polygon points="410,40 413,35 410,30 410,40 " style="fill:#1541d8; stroke-width:1; stroke:black; " description="&lt;b&gt;LLPMBPKK_06409&lt;/b&gt;&lt;br&gt;antibiotic biosynthesis monooxygenase&lt;br&gt;Location: 7398987 - 7399332" locus_tag="LLPMBPKK_06409" class="clusterblast-orf" id="dummy-28_q35_0_all"  />
<polygon points="413,40 413,40 418,35 413,30 413,30 413,40 " style="fill:#d84115; stroke-width:1; stroke:black; " description="&lt;b&gt;LLPMBPKK_06410&lt;/b&gt;&lt;br&gt;SCP-2 sterol transfer family protein&lt;br&gt;Location: 7399328 - 7399763" locus_tag="LLPMBPKK_06410" class="clusterblast-orf" id="dummy-28_q36_0_all"  />
<polygon points="419,35 424,30 427,30 427,40 424,40 419,35 " style="fill:#d81597; stroke-width:1; stroke:black; " description="&lt;b&gt;LLPMBPKK_06411&lt;/b&gt;&lt;br&gt;SchA/CurD like domain protein&lt;br&gt;Location: 7399863 - 7400604" locus_tag="LLPMBPKK_06411" class="clusterblast-orf" id="dummy-28_q37_0_all"  />
<polygon points="427,35 432,30 432,30 432,40 432,40 427,35 " style="fill:#d8c315; stroke-width:1; stroke:black; " description="&lt;b&gt;LLPMBPKK_06412&lt;/b&gt;&lt;br&gt;hypothetical protein&lt;br&gt;Location: 7400620 - 7401070" locus_tag="LLPMBPKK_06412" class="clusterblast-orf" id="dummy-28_q38_0_all"  />
<polygon points="434,40 435,40 440,35 435,30 434,30 434,40 " style="fill:#d8c315; stroke-width:1; stroke:black; " description="&lt;b&gt;LLPMBPKK_06413&lt;/b&gt;&lt;br&gt;hypothetical protein&lt;br&gt;Location: 7401263 - 7401749" locus_tag="LLPMBPKK_06413" class="clusterblast-orf" id="dummy-28_q39_0_all"  />
<polygon points="440,40 447,40 452,35 447,30 440,30 440,40 " style="fill:#15d86c; stroke-width:1; stroke:black; " description="&lt;b&gt;LLPMBPKK_06414&lt;/b&gt;&lt;br&gt;O-demethylpuromycin-O-methyltransferase&lt;br&gt;Location: 7401818 - 7402877" locus_tag="LLPMBPKK_06414" class="clusterblast-orf" id="dummy-28_q40_0_all"  />
<polygon points="453,40 456,40 461,35 456,30 453,30 453,40 " style="fill:#c315d8; stroke-width:1; stroke:black; " description="&lt;b&gt;LLPMBPKK_06415&lt;/b&gt;&lt;br&gt;short-chain dehydrogenase/reductase SDR&lt;br&gt;Location: 7402942 - 7403692" locus_tag="LLPMBPKK_06415" class="clusterblast-orf" id="dummy-28_q41_0_all"  />
<polygon points="461,40 464,35 461,30 461,40 " style="fill:#1541d8; stroke-width:1; stroke:black; " description="&lt;b&gt;LLPMBPKK_06416&lt;/b&gt;&lt;br&gt;antibiotic biosynthesis monooxygenase&lt;br&gt;Location: 7403693 - 7404005" locus_tag="LLPMBPKK_06416" class="clusterblast-orf" id="dummy-28_q42_0_all"  />
<polygon points="464,40 468,35 464,30 464,40 " style="fill:#1515d8; stroke-width:1; stroke:black; " description="&lt;b&gt;LLPMBPKK_06417&lt;/b&gt;&lt;br&gt;antibiotic biosynthesis monooxygenase&lt;br&gt;Location: 7404001 - 7404322" locus_tag="LLPMBPKK_06417" class="clusterblast-orf" id="dummy-28_q43_0_all"  />
<polygon points="469,35 474,30 480,30 480,40 474,40 469,35 " style="fill:#d8156c; stroke-width:1; stroke:black; " description="&lt;b&gt;LLPMBPKK_06418&lt;/b&gt;&lt;br&gt;ketoacyl-ACP synthase III&lt;br&gt;Location: 7404398 - 7405400" locus_tag="LLPMBPKK_06418" class="clusterblast-orf" id="dummy-28_q44_0_all"  />
<polygon points="481,35 486,30 486,30 486,40 486,40 481,35 " style="fill:#c3d815; stroke-width:1; stroke:black; " description="&lt;b&gt;LLPMBPKK_06419&lt;/b&gt;&lt;br&gt;MarR family transcriptional regulator&lt;br&gt;Location: 7405502 - 7406006" locus_tag="LLPMBPKK_06419" class="clusterblast-orf" id="dummy-28_q45_0_all"  />
<polygon points="488,40 492,35 488,30 488,40 " style="fill:#15d897; stroke-width:1; stroke:black; " description="&lt;b&gt;LLPMBPKK_06420&lt;/b&gt;&lt;br&gt;hypothetical protein&lt;br&gt;Location: 7406132 - 7406555" locus_tag="LLPMBPKK_06420" class="clusterblast-orf" id="dummy-28_q46_0_all"  />
<polygon points="493,40 509,40 514,35 509,30 493,30 493,40 " style="fill:#4115d8; stroke-width:1; stroke:black; " description="&lt;b&gt;LLPMBPKK_06421&lt;/b&gt;&lt;br&gt;asparagine synthase&lt;br&gt;Location: 7406651 - 7408535" locus_tag="LLPMBPKK_06421" class="clusterblast-orf" id="dummy-28_q47_0_all"  />
<polygon points="515,35 520,30 535,30 535,40 520,40 515,35 " style="fill:#d81541; stroke-width:1; stroke:black; " description="&lt;b&gt;LLPMBPKK_06422&lt;/b&gt;&lt;br&gt;SARP family transcriptional regulator&lt;br&gt;Location: 7408593 - 7410423" locus_tag="LLPMBPKK_06422" class="clusterblast-orf" id="dummy-28_q48_0_all"  />
<polygon points="538,40 538,40 543,35 538,30 538,30 538,40 " style="fill:#97d815; stroke-width:1; stroke:black; " description="&lt;b&gt;LLPMBPKK_06423&lt;/b&gt;&lt;br&gt;4'-phosphopantetheinyl transferase superfamilyprotein&lt;br&gt;Location: 7410732 - 7411224" locus_tag="LLPMBPKK_06423" class="clusterblast-orf" id="dummy-28_q49_0_all"  />
<polygon points="544,40 547,35 544,30 544,40 " style="fill:white; stroke-width:1; stroke:black; " description="&lt;b&gt;LLPMBPKK_06424&lt;/b&gt;&lt;br&gt;hypothetical protein&lt;br&gt;Location: 7411319 - 7411568" locus_tag="LLPMBPKK_06424" class="clusterblast-orf" id="dummy-28_q50_0_all"  />
<polygon points="550,40 553,40 558,35 553,30 550,30 550,40 " style="fill:white; stroke-width:1; stroke:black; " description="&lt;b&gt;LLPMBPKK_06425&lt;/b&gt;&lt;br&gt;peptidylprolyl isomerase&lt;br&gt;Location: 7411806 - 7412532" locus_tag="LLPMBPKK_06425" class="clusterblast-orf" id="dummy-28_q51_0_all"  />
<polygon points="560,40 564,40 569,35 564,30 560,30 560,40 " style="fill:white; stroke-width:1; stroke:black; " description="&lt;b&gt;LLPMBPKK_06426&lt;/b&gt;&lt;br&gt;alpha/beta hydrolase&lt;br&gt;Location: 7412717 - 7413545" locus_tag="LLPMBPKK_06426" class="clusterblast-orf" id="dummy-28_q52_0_all"  />
<polygon points="569,35 574,30 577,30 577,40 574,40 569,35 " style="fill:white; stroke-width:1; stroke:black; " description="&lt;b&gt;LLPMBPKK_06427&lt;/b&gt;&lt;br&gt;hypothetical protein&lt;br&gt;Location: 7413591 - 7414293" locus_tag="LLPMBPKK_06427" class="clusterblast-orf" id="dummy-28_q53_0_all"  />
<polygon points="578,35 583,30 600,30 600,40 583,40 578,35 " style="fill:white; stroke-width:1; stroke:black; " description="&lt;b&gt;LLPMBPKK_06428&lt;/b&gt;&lt;br&gt;acetoacetate--CoA ligase&lt;br&gt;Location: 7414363 - 7416397" locus_tag="LLPMBPKK_06428" class="clusterblast-orf" id="dummy-28_q54_0_all"  />
<polygon points="600,35 605,30 617,30 617,40 605,40 600,35 " style="fill:#9715d8; stroke-width:1; stroke:black; " description="&lt;b&gt;LLPMBPKK_06429&lt;/b&gt;&lt;br&gt;bifunctional 3-(3-hydroxy-phenyl)propionate/3-hydroxycinnamic acid hydroxylase&lt;br&gt;Location: 7416413 - 7417988" locus_tag="LLPMBPKK_06429" class="clusterblast-orf" id="dummy-28_q55_0_all"  />
<polygon points="618,35 623,30 628,30 628,40 623,40 618,35 " style="fill:white; stroke-width:1; stroke:black; " description="&lt;b&gt;LLPMBPKK_06430&lt;/b&gt;&lt;br&gt;fumarylacetoacetate hydrolase family protein&lt;br&gt;Location: 7418011 - 7418989" locus_tag="LLPMBPKK_06430" class="clusterblast-orf" id="dummy-28_q56_0_all"  />
<polygon points="628,35 633,30 641,30 641,40 633,40 628,35 " style="fill:white; stroke-width:1; stroke:black; " description="&lt;b&gt;LLPMBPKK_06431&lt;/b&gt;&lt;br&gt;2,3-dihydroxybiphenyl 1,2-dioxygenase&lt;br&gt;Location: 7418985 - 7420131" locus_tag="LLPMBPKK_06431" class="clusterblast-orf" id="dummy-28_q57_0_all"  />
<polygon points="642,40 644,40 649,35 644,30 642,30 642,40 " style="fill:white; stroke-width:1; stroke:black; " description="&lt;b&gt;LLPMBPKK_06432&lt;/b&gt;&lt;br&gt;TetR/AcrR family transcriptional regulator&lt;br&gt;Location: 7420269 - 7420908" locus_tag="LLPMBPKK_06432" class="clusterblast-orf" id="dummy-28_q58_0_all"  />
<polygon points="652,35 657,30 663,30 663,40 657,40 652,35 " style="fill:#15d8c3; stroke-width:1; stroke:black; " description="&lt;b&gt;LLPMBPKK_06433&lt;/b&gt;&lt;br&gt;alcohol dehydrogenase&lt;br&gt;Location: 7421160 - 7422207" locus_tag="LLPMBPKK_06433" class="clusterblast-orf" id="dummy-28_q59_0_all"  />
<polygon points="665,35 670,30 700,30 700,40 670,40 665,35 " style="fill:white; stroke-width:1; stroke:black; " description="&lt;b&gt;LLPMBPKK_06434&lt;/b&gt;&lt;br&gt;cytochrome P450&lt;br&gt;Location: 7422367 - 7425589" locus_tag="LLPMBPKK_06434" class="clusterblast-orf" id="dummy-28_q60_0_all"  />
<polygon points="703,40 705,40 710,35 705,30 703,30 703,40 " style="fill:white; stroke-width:1; stroke:black; " description="&lt;b&gt;LLPMBPKK_06435&lt;/b&gt;&lt;br&gt;TetR/AcrR family transcriptional regulator&lt;br&gt;Location: 7425844 - 7426504" locus_tag="LLPMBPKK_06435" class="clusterblast-orf" id="dummy-28_q61_0_all"  />
<polygon points="717,40 719,35 717,30 717,40 " style="fill:white; stroke-width:1; stroke:black; " description="&lt;b&gt;LLPMBPKK_06436&lt;/b&gt;&lt;br&gt;hypothetical protein&lt;br&gt;Location: 7427085 - 7427301" locus_tag="LLPMBPKK_06436" class="clusterblast-orf" id="dummy-28_q62_0_all"  />
<polygon points="720,40 723,35 720,30 720,40 " style="fill:white; stroke-width:1; stroke:black; " description="&lt;b&gt;LLPMBPKK_06437&lt;/b&gt;&lt;br&gt;ferredoxin&lt;br&gt;Location: 7427400 - 7427619" locus_tag="LLPMBPKK_06437" class="clusterblast-orf" id="dummy-28_q63_0_all"  />
<polygon points="723,40 733,40 738,35 733,30 723,30 723,40 " style="fill:white; stroke-width:1; stroke:black; " description="&lt;b&gt;LLPMBPKK_06438&lt;/b&gt;&lt;br&gt;NAD(P)/FAD-dependent oxidoreductase&lt;br&gt;Location: 7427615 - 7429019" locus_tag="LLPMBPKK_06438" class="clusterblast-orf" id="dummy-28_q64_0_all"  />
<polygon points="739,40 747,40 752,35 747,30 739,30 739,40 " style="fill:#6c15d8; stroke-width:1; stroke:black; " description="&lt;b&gt;LLPMBPKK_06439&lt;/b&gt;&lt;br&gt;cytochrome P450&lt;br&gt;Location: 7429081 - 7430350" locus_tag="LLPMBPKK_06439" class="clusterblast-orf" id="dummy-28_q65_0_all"  />
<polygon points="753,40 759,40 764,35 759,30 753,30 753,40 " style="fill:#15d8c3; stroke-width:1; stroke:black; " description="&lt;b&gt;LLPMBPKK_06440&lt;/b&gt;&lt;br&gt;NAD(P)-dependent alcohol dehydrogenase&lt;br&gt;Location: 7430373 - 7431417" locus_tag="LLPMBPKK_06440" class="clusterblast-orf" id="dummy-28_q66_0_all"  />
<polygon points="765,40 768,40 773,35 768,30 765,30 765,40 " style="fill:white; stroke-width:1; stroke:black; " description="&lt;b&gt;LLPMBPKK_06441&lt;/b&gt;&lt;br&gt;HdeD family acid-resistance protein&lt;br&gt;Location: 7431536 - 7432214" locus_tag="LLPMBPKK_06441" class="clusterblast-orf" id="dummy-28_q67_0_all"  />
</g>
<g label="NZ_CP029254" description="NZ_CP029254 (1675353-1746690): Streptomyces spongiicola strain HNM0071 chromo... (42% of genes show similarity), T2PKS,siderophore" class="clusterblast-cluster"  >
<text x="5" y="70" class="clusterblast-acc"  >
<a xlink:href="https://antismash-db.secondarymetabolites.org/area.html?record=NZ_CP029254&amp;start=1675353&amp;end=1746690" target="_blank">NZ_CP029254 (1675353-1746690)</a>: Streptomyces spongiicola strain HNM0071 chromo... (42% of genes show similarity), T2PKS,siderophore</text>
<line x1="10" y1="85" x2="778.0" y2="85" style="stroke-width:1; stroke:grey; "  />
</g>
<g id="a28_000"  >
<polygon points="0,85 5,80 8,80 8,90 5,90 0,85 " style="fill:white; stroke-width:1; stroke:black; " description="&lt;b&gt;DDQ41_RS07210&lt;/b&gt;&lt;br&gt;M48 family metallopeptidase&lt;br&gt;Location: 1675354 - 1676139" locus_tag="DDQ41_RS07210" class="clusterblast-orf" id="dummy-28_h28_5_0"  />
</g>
<g id="a28_001"  >
<polygon points="8,85 13,80 47,80 47,90 13,90 8,85 " style="fill:white; stroke-width:1; stroke:black; " description="&lt;b&gt;DDQ41_RS07215&lt;/b&gt;&lt;br&gt;type I restriction endonuclease subunit R&lt;br&gt;Location: 1676145 - 1679690" locus_tag="DDQ41_RS07215" class="clusterblast-orf" id="dummy-28_h28_5_1"  />
</g>
<g id="a28_002"  >
<polygon points="48,85 51,80 51,90 48,85 " style="fill:white; stroke-width:1; stroke:black; " description="&lt;b&gt;DDQ41_RS07220&lt;/b&gt;&lt;br&gt;hypothetical protein&lt;br&gt;Location: 1679798 - 1680109" locus_tag="DDQ41_RS07220" class="clusterblast-orf" id="dummy-28_h28_5_2"  />
</g>
<g id="a28_003"  >
<polygon points="51,85 55,80 55,90 51,85 " style="fill:white; stroke-width:1; stroke:black; " description="&lt;b&gt;DDQ41_RS07225&lt;/b&gt;&lt;br&gt;hypothetical protein&lt;br&gt;Location: 1680106 - 1680399" locus_tag="DDQ41_RS07225" class="clusterblast-orf" id="dummy-28_h28_5_3"  />
</g>
<g id="a28_004"  >
<polygon points="57,90 60,90 65,85 60,80 57,80 57,90 " style="fill:white; stroke-width:1; stroke:black; " description="&lt;b&gt;DDQ41_RS07230&lt;/b&gt;&lt;br&gt;helix-turn-helix transcriptional regulator&lt;br&gt;Location: 1680598 - 1681386" locus_tag="DDQ41_RS07230" class="clusterblast-orf" id="dummy-28_h28_5_4"  />
</g>
<g id="a28_005"  >
<polygon points="65,90 68,85 65,80 65,90 " style="fill:white; stroke-width:1; stroke:black; " description="&lt;b&gt;DDQ41_RS07235&lt;/b&gt;&lt;br&gt;DUF397 domain-containing protein&lt;br&gt;Location: 1681383 - 1681604" locus_tag="DDQ41_RS07235" class="clusterblast-orf" id="dummy-28_h28_5_5"  />
</g>
<g id="a28_006"  >
<polygon points="68,85 73,80 81,80 81,90 73,90 68,85 " style="fill:white; stroke-width:1; stroke:black; " description="&lt;b&gt;DDQ41_RS07240&lt;/b&gt;&lt;br&gt;restriction endonuclease subunit S&lt;br&gt;Location: 1681630 - 1682820" locus_tag="DDQ41_RS07240" class="clusterblast-orf" id="dummy-28_h28_5_6"  />
</g>
<g id="a28_007"  >
<polygon points="81,85 86,80 109,80 109,90 86,90 81,85 " style="fill:white; stroke-width:1; stroke:black; " description="&lt;b&gt;DDQ41_RS07245&lt;/b&gt;&lt;br&gt;N-6 DNA methylase&lt;br&gt;Location: 1682810 - 1685413" locus_tag="DDQ41_RS07245" class="clusterblast-orf" id="dummy-28_h28_5_7"  />
</g>
<g id="a28_008"  >
<polygon points="111,85 116,80 118,80 118,90 116,90 111,85 " style="fill:white; stroke-width:1; stroke:black; " description="&lt;b&gt;DDQ41_RS07250&lt;/b&gt;&lt;br&gt;RloB domain-containing protein&lt;br&gt;Location: 1685508 - 1686167" locus_tag="DDQ41_RS07250" class="clusterblast-orf" id="dummy-28_h28_5_8"  />
</g>
<g id="a28_009"  >
<polygon points="118,85 123,80 132,80 132,90 123,90 118,85 " style="fill:white; stroke-width:1; stroke:black; " description="&lt;b&gt;DDQ41_RS07255&lt;/b&gt;&lt;br&gt;AAA family ATPase&lt;br&gt;Location: 1686167 - 1687432" locus_tag="DDQ41_RS07255" class="clusterblast-orf" id="dummy-28_h28_5_9"  />
</g>
<g id="a28_0010"  >
<polygon points="137,90 145,90 150,85 145,80 137,80 137,90 " style="fill:white; stroke-width:1; stroke:black; " description="&lt;b&gt;DDQ41_RS07260&lt;/b&gt;&lt;br&gt;acyl-CoA dehydrogenase family protein&lt;br&gt;Location: 1687921 - 1689078" locus_tag="DDQ41_RS07260" class="clusterblast-orf" id="dummy-28_h28_5_10"  />
</g>
<g id="a28_0011"  >
<polygon points="150,90 154,90 159,85 154,80 150,80 150,90 " style="fill:white; stroke-width:1; stroke:black; " description="&lt;b&gt;DDQ41_RS07265&lt;/b&gt;&lt;br&gt;acyl-CoA thioesterase II&lt;br&gt;Location: 1689083 - 1689958" locus_tag="DDQ41_RS07265" class="clusterblast-orf" id="dummy-28_h28_5_11"  />
</g>
<g id="a28_0012"  >
<polygon points="161,90 171,90 176,85 171,80 161,80 161,90 " style="fill:white; stroke-width:1; stroke:black; " description="&lt;b&gt;DDQ41_RS07270&lt;/b&gt;&lt;br&gt;NAD(P)/FAD-dependent oxidoreductase&lt;br&gt;Location: 1690135 - 1691472" locus_tag="DDQ41_RS07270" class="clusterblast-orf" id="dummy-28_h28_5_12"  />
</g>
<g id="a28_0013"  >
<polygon points="179,90 191,90 196,85 191,80 179,80 179,90 " style="fill:white; stroke-width:1; stroke:black; " description="&lt;b&gt;DDQ41_RS07275&lt;/b&gt;&lt;br&gt;aminotransferase class I/II-fold pyridoxal phosphate-dependent enzyme&lt;br&gt;Location: 1691731 - 1693329" locus_tag="DDQ41_RS07275" class="clusterblast-orf" id="dummy-28_h28_5_13"  />
</g>
<g id="a28_0014"  >
<polygon points="199,85 204,80 208,80 208,90 204,90 199,85 " style="fill:white; stroke-width:1; stroke:black; " description="&lt;b&gt;DDQ41_RS07280&lt;/b&gt;&lt;br&gt;phosphatase&lt;br&gt;Location: 1693632 - 1694411" locus_tag="DDQ41_RS07280" class="clusterblast-orf" id="dummy-28_h28_5_14"  />
</g>
<g id="a28_0015"  >
<polygon points="216,85 221,80 223,80 223,90 221,90 216,85 " style="fill:white; stroke-width:1; stroke:black; " description="&lt;b&gt;DDQ41_RS07285&lt;/b&gt;&lt;br&gt;TetR/AcrR family transcriptional regulator&lt;br&gt;Location: 1695167 - 1695757" locus_tag="DDQ41_RS07285" class="clusterblast-orf" id="dummy-28_h28_5_15"  />
</g>
<g id="a28_0016"  >
<polygon points="224,90 237,90 242,85 237,80 224,80 224,90 " style="fill:#41d815; stroke-width:1; stroke:black; " description="&lt;b&gt;DDQ41_RS07290&lt;/b&gt;&lt;br&gt;methylcrotonoyl-CoA carboxylase&lt;br&gt;Location: 1695857 - 1697488&lt;br&gt;&lt;br&gt;&lt;b&gt;BlastP hit with LLPMBPKK_06399&lt;/b&gt;&lt;br&gt;Percentage identity: 36&lt;br&gt;Percentage coverage: 97&lt;br&gt;BLAST bit score: 261&lt;br&gt;E-value: 1.69e-78" locus_tag="DDQ41_RS07290" class="clusterblast-orf" id="dummy-28_h28_5_16"  />
</g>
<g id="a28_0017"  >
<polygon points="242,90 260,90 265,85 260,80 242,80 242,90 " style="fill:white; stroke-width:1; stroke:black; " description="&lt;b&gt;DDQ41_RS07295&lt;/b&gt;&lt;br&gt;ATP-grasp domain-containing protein&lt;br&gt;Location: 1697518 - 1699659" locus_tag="DDQ41_RS07295" class="clusterblast-orf" id="dummy-28_h28_5_17"  />
</g>
<g id="a28_0018"  >
<polygon points="265,90 271,90 276,85 271,80 265,80 265,90 " style="fill:white; stroke-width:1; stroke:black; " description="&lt;b&gt;DDQ41_RS07300&lt;/b&gt;&lt;br&gt;hydroxymethylglutaryl-CoA lyase&lt;br&gt;Location: 1699674 - 1700609" locus_tag="DDQ41_RS07300" class="clusterblast-orf" id="dummy-28_h28_5_18"  />
</g>
<g id="a28_0019"  >
<polygon points="276,90 283,90 288,85 283,80 276,80 276,90 " style="fill:white; stroke-width:1; stroke:black; " description="&lt;b&gt;DDQ41_RS07305&lt;/b&gt;&lt;br&gt;acyl-CoA dehydrogenase family protein&lt;br&gt;Location: 1700612 - 1701778" locus_tag="DDQ41_RS07305" class="clusterblast-orf" id="dummy-28_h28_5_19"  />
</g>
<g id="a28_0020"  >
<polygon points="291,85 293,80 293,90 291,85 " style="fill:white; stroke-width:1; stroke:black; " description="&lt;b&gt;DDQ41_RS07310&lt;/b&gt;&lt;br&gt;hypothetical protein&lt;br&gt;Location: 1701997 - 1702218" locus_tag="DDQ41_RS07310" class="clusterblast-orf" id="dummy-28_h28_5_20"  />
</g>
<g id="a28_0021"  >
<polygon points="293,85 297,80 297,90 293,85 " style="fill:#41d815; stroke-width:1; stroke:black; " description="&lt;b&gt;DDQ41_RS07315&lt;/b&gt;&lt;br&gt;hypothetical protein&lt;br&gt;Location: 1702215 - 1702529&lt;br&gt;&lt;br&gt;&lt;b&gt;BlastP hit with LLPMBPKK_06399&lt;/b&gt;&lt;br&gt;Percentage identity: 64&lt;br&gt;Percentage coverage: 19&lt;br&gt;BLAST bit score: 117&lt;br&gt;E-value: 2.01e-29" locus_tag="DDQ41_RS07315" class="clusterblast-orf" id="dummy-28_h28_5_21"  />
</g>
<g id="a28_0022"  >
<polygon points="298,90 304,90 309,85 304,80 298,80 298,90 " style="fill:#1597d8; stroke-width:1; stroke:black; " description="&lt;b&gt;DDQ41_RS07320&lt;/b&gt;&lt;br&gt;acyltransferase domain-containing protein&lt;br&gt;Location: 1702626 - 1703666&lt;br&gt;&lt;br&gt;&lt;b&gt;BlastP hit with LLPMBPKK_06400&lt;/b&gt;&lt;br&gt;Percentage identity: 71&lt;br&gt;Percentage coverage: 89&lt;br&gt;BLAST bit score: 441&lt;br&gt;E-value: 7.13e-154" locus_tag="DDQ41_RS07320" class="clusterblast-orf" id="dummy-28_h28_5_22"  />
</g>
<g id="a28_0023"  >
<polygon points="309,85 314,80 339,80 339,90 314,90 309,85 " style="fill:white; stroke-width:1; stroke:black; " description="&lt;b&gt;DDQ41_RS07325&lt;/b&gt;&lt;br&gt;multicopper oxidase domain-containing protein&lt;br&gt;Location: 1703627 - 1706389" locus_tag="DDQ41_RS07325" class="clusterblast-orf" id="dummy-28_h28_5_23"  />
</g>
<g id="a28_0024"  >
<polygon points="340,90 343,90 348,85 343,80 340,80 340,90 " style="fill:#c315d8; stroke-width:1; stroke:black; " description="&lt;b&gt;DDQ41_RS07330&lt;/b&gt;&lt;br&gt;SDR family oxidoreductase&lt;br&gt;Location: 1706497 - 1707237&lt;br&gt;&lt;br&gt;&lt;b&gt;BlastP hit with LLPMBPKK_06401&lt;/b&gt;&lt;br&gt;Percentage identity: 83&lt;br&gt;Percentage coverage: 98&lt;br&gt;BLAST bit score: 382&lt;br&gt;E-value: 5.17e-134&lt;br&gt;&lt;br&gt;&lt;b&gt;BlastP hit with LLPMBPKK_06415&lt;/b&gt;&lt;br&gt;Percentage identity: 40&lt;br&gt;Percentage coverage: 99&lt;br&gt;BLAST bit score: 151&lt;br&gt;E-value: 3.32e-43" locus_tag="DDQ41_RS07330" class="clusterblast-orf" id="dummy-28_h28_5_24"  />
</g>
<g id="a28_0025"  >
<polygon points="349,90 359,90 364,85 359,80 349,80 349,90 " style="fill:#d86c15; stroke-width:1; stroke:black; " description="&lt;b&gt;DDQ41_RS07335&lt;/b&gt;&lt;br&gt;MFS transporter&lt;br&gt;Location: 1707356 - 1708717&lt;br&gt;&lt;br&gt;&lt;b&gt;BlastP hit with LLPMBPKK_06402&lt;/b&gt;&lt;br&gt;Percentage identity: 79&lt;br&gt;Percentage coverage: 90&lt;br&gt;BLAST bit score: 689&lt;br&gt;E-value: 1.55e-247" locus_tag="DDQ41_RS07335" class="clusterblast-orf" id="dummy-28_h28_5_25"  />
</g>
<g id="a28_0026"  >
<polygon points="368,90 372,85 368,80 368,90 " style="fill:#15d815; stroke-width:1; stroke:black; " description="&lt;b&gt;DDQ41_RS07340&lt;/b&gt;&lt;br&gt;TcmI family type II polyketide cyclase&lt;br&gt;Location: 1709061 - 1709381&lt;br&gt;&lt;br&gt;&lt;b&gt;BlastP hit with LLPMBPKK_06403&lt;/b&gt;&lt;br&gt;Percentage identity: 90&lt;br&gt;Percentage coverage: 100&lt;br&gt;BLAST bit score: 206&lt;br&gt;E-value: 9.62e-69" locus_tag="DDQ41_RS07340" class="clusterblast-orf" id="dummy-28_h28_5_26"  />
</g>
<g id="a28_0027"  >
<polygon points="372,90 372,90 377,85 372,80 372,80 372,90 " style="fill:#156cd8; stroke-width:1; stroke:black; " description="&lt;b&gt;DDQ41_RS07345&lt;/b&gt;&lt;br&gt;cupin domain-containing protein&lt;br&gt;Location: 1709451 - 1709891&lt;br&gt;&lt;br&gt;&lt;b&gt;BlastP hit with LLPMBPKK_06404&lt;/b&gt;&lt;br&gt;Percentage identity: 83&lt;br&gt;Percentage coverage: 99&lt;br&gt;BLAST bit score: 247&lt;br&gt;E-value: 7.23e-84" locus_tag="DDQ41_RS07345" class="clusterblast-orf" id="dummy-28_h28_5_27"  />
</g>
<g id="a28_0028"  >
<polygon points="377,90 386,90 391,85 386,80 377,80 377,90 " style="fill:#d815c3; stroke-width:1; stroke:black; " description="&lt;b&gt;DDQ41_RS07350&lt;/b&gt;&lt;br&gt;beta-ketoacyl-[acyl-carrier-protein] synthase family protein&lt;br&gt;Location: 1709873 - 1711138&lt;br&gt;&lt;br&gt;&lt;b&gt;BlastP hit with LLPMBPKK_06405&lt;/b&gt;&lt;br&gt;Percentage identity: 91&lt;br&gt;Percentage coverage: 100&lt;br&gt;BLAST bit score: 781&lt;br&gt;E-value: 5.16e-286&lt;br&gt;&lt;br&gt;&lt;b&gt;BlastP hit with LLPMBPKK_06406&lt;/b&gt;&lt;br&gt;Percentage identity: 33&lt;br&gt;Percentage coverage: 103&lt;br&gt;BLAST bit score: 174&lt;br&gt;E-value: 5.09e-48" locus_tag="DDQ41_RS07350" class="clusterblast-orf" id="dummy-28_h28_5_28"  />
</g>
<g id="a28_0029"  >
<polygon points="391,90 399,90 404,85 399,80 391,80 391,90 " style="fill:#d815c3; stroke-width:1; stroke:black; " description="&lt;b&gt;DDQ41_RS07355&lt;/b&gt;&lt;br&gt;ketosynthase chain-length factor&lt;br&gt;Location: 1711135 - 1712346&lt;br&gt;&lt;br&gt;&lt;b&gt;BlastP hit with LLPMBPKK_06405&lt;/b&gt;&lt;br&gt;Percentage identity: 33&lt;br&gt;Percentage coverage: 98&lt;br&gt;BLAST bit score: 182&lt;br&gt;E-value: 4.65e-51&lt;br&gt;&lt;br&gt;&lt;b&gt;BlastP hit with LLPMBPKK_06406&lt;/b&gt;&lt;br&gt;Percentage identity: 82&lt;br&gt;Percentage coverage: 100&lt;br&gt;BLAST bit score: 654&lt;br&gt;E-value: 1.68e-236" locus_tag="DDQ41_RS07355" class="clusterblast-orf" id="dummy-28_h28_5_29"  />
</g>
<g id="a28_0030"  >
<polygon points="408,90 411,85 408,80 408,90 " style="fill:#d89715; stroke-width:1; stroke:black; " description="&lt;b&gt;DDQ41_RS07360&lt;/b&gt;&lt;br&gt;acyl carrier protein&lt;br&gt;Location: 1712710 - 1712961&lt;br&gt;&lt;br&gt;&lt;b&gt;BlastP hit with LLPMBPKK_06407&lt;/b&gt;&lt;br&gt;Percentage identity: 69&lt;br&gt;Percentage coverage: 96&lt;br&gt;BLAST bit score: 106&lt;br&gt;E-value: 4.32e-30" locus_tag="DDQ41_RS07360" class="clusterblast-orf" id="dummy-28_h28_5_30"  />
</g>
<g id="a28_0031"  >
<polygon points="411,90 411,90 416,85 411,80 411,80 411,90 " style="fill:#15d841; stroke-width:1; stroke:black; " description="&lt;b&gt;DDQ41_RS07365&lt;/b&gt;&lt;br&gt;SRPBCC family protein&lt;br&gt;Location: 1712963 - 1713433&lt;br&gt;&lt;br&gt;&lt;b&gt;BlastP hit with LLPMBPKK_06408&lt;/b&gt;&lt;br&gt;Percentage identity: 77&lt;br&gt;Percentage coverage: 97&lt;br&gt;BLAST bit score: 244&lt;br&gt;E-value: 2.95e-82" locus_tag="DDQ41_RS07365" class="clusterblast-orf" id="dummy-28_h28_5_31"  />
</g>
<g id="a28_0032"  >
<polygon points="416,90 420,85 416,80 416,90 " style="fill:#1541d8; stroke-width:1; stroke:black; " description="&lt;b&gt;DDQ41_RS07370&lt;/b&gt;&lt;br&gt;antibiotic biosynthesis monooxygenase&lt;br&gt;Location: 1713430 - 1713804&lt;br&gt;&lt;br&gt;&lt;b&gt;BlastP hit with LLPMBPKK_06409&lt;/b&gt;&lt;br&gt;Percentage identity: 77&lt;br&gt;Percentage coverage: 89&lt;br&gt;BLAST bit score: 164&lt;br&gt;E-value: 6.92e-52" locus_tag="DDQ41_RS07370" class="clusterblast-orf" id="dummy-28_h28_5_32"  />
</g>
<g id="a28_0033"  >
<polygon points="420,90 420,90 425,85 420,80 420,80 420,90 " style="fill:#d84115; stroke-width:1; stroke:black; " description="&lt;b&gt;DDQ41_RS07375&lt;/b&gt;&lt;br&gt;SCP2 sterol-binding domain-containing protein&lt;br&gt;Location: 1713801 - 1714235&lt;br&gt;&lt;br&gt;&lt;b&gt;BlastP hit with LLPMBPKK_06396&lt;/b&gt;&lt;br&gt;Percentage identity: 42&lt;br&gt;Percentage coverage: 92&lt;br&gt;BLAST bit score: 114&lt;br&gt;E-value: 2.07e-31&lt;br&gt;&lt;br&gt;&lt;b&gt;BlastP hit with LLPMBPKK_06410&lt;/b&gt;&lt;br&gt;Percentage identity: 71&lt;br&gt;Percentage coverage: 99&lt;br&gt;BLAST bit score: 215&lt;br&gt;E-value: 3.41e-71" locus_tag="DDQ41_RS07375" class="clusterblast-orf" id="dummy-28_h28_5_33"  />
</g>
<g id="a28_0034"  >
<polygon points="426,85 431,80 434,80 434,90 431,90 426,85 " style="fill:#d81597; stroke-width:1; stroke:black; " description="&lt;b&gt;DDQ41_RS07380&lt;/b&gt;&lt;br&gt;SchA/CurD-like protein&lt;br&gt;Location: 1714315 - 1715055&lt;br&gt;&lt;br&gt;&lt;b&gt;BlastP hit with LLPMBPKK_06411&lt;/b&gt;&lt;br&gt;Percentage identity: 77&lt;br&gt;Percentage coverage: 100&lt;br&gt;BLAST bit score: 382&lt;br&gt;E-value: 7.34e-134" locus_tag="DDQ41_RS07380" class="clusterblast-orf" id="dummy-28_h28_5_34"  />
</g>
<g id="a28_0035"  >
<polygon points="434,85 439,80 439,80 439,90 439,90 434,85 " style="fill:#d8c315; stroke-width:1; stroke:black; " description="&lt;b&gt;DDQ41_RS07385&lt;/b&gt;&lt;br&gt;DUF1772 domain-containing protein&lt;br&gt;Location: 1715088 - 1715534&lt;br&gt;&lt;br&gt;&lt;b&gt;BlastP hit with LLPMBPKK_06412&lt;/b&gt;&lt;br&gt;Percentage identity: 82&lt;br&gt;Percentage coverage: 97&lt;br&gt;BLAST bit score: 228&lt;br&gt;E-value: 3.14e-76&lt;br&gt;&lt;br&gt;&lt;b&gt;BlastP hit with LLPMBPKK_06413&lt;/b&gt;&lt;br&gt;Percentage identity: 39&lt;br&gt;Percentage coverage: 84&lt;br&gt;BLAST bit score: 57&lt;br&gt;E-value: 6.89e-09" locus_tag="DDQ41_RS07385" class="clusterblast-orf" id="dummy-28_h28_5_35"  />
</g>
<g id="a28_0036"  >
<polygon points="441,90 442,90 447,85 442,80 441,80 441,90 " style="fill:#d8c315; stroke-width:1; stroke:black; " description="&lt;b&gt;DDQ41_RS07390&lt;/b&gt;&lt;br&gt;DUF1772 domain-containing protein&lt;br&gt;Location: 1715775 - 1716239&lt;br&gt;&lt;br&gt;&lt;b&gt;BlastP hit with LLPMBPKK_06412&lt;/b&gt;&lt;br&gt;Percentage identity: 38&lt;br&gt;Percentage coverage: 79&lt;br&gt;BLAST bit score: 57&lt;br&gt;E-value: 5.75e-09&lt;br&gt;&lt;br&gt;&lt;b&gt;BlastP hit with LLPMBPKK_06413&lt;/b&gt;&lt;br&gt;Percentage identity: 72&lt;br&gt;Percentage coverage: 96&lt;br&gt;BLAST bit score: 204&lt;br&gt;E-value: 1.19e-66" locus_tag="DDQ41_RS07390" class="clusterblast-orf" id="dummy-28_h28_5_36"  />
</g>
<g id="a28_0037"  >
<polygon points="447,90 454,90 459,85 454,80 447,80 447,90 " style="fill:#15d86c; stroke-width:1; stroke:black; " description="&lt;b&gt;DDQ41_RS07395&lt;/b&gt;&lt;br&gt;O-methyltransferase&lt;br&gt;Location: 1716312 - 1717379&lt;br&gt;&lt;br&gt;&lt;b&gt;BlastP hit with LLPMBPKK_06414&lt;/b&gt;&lt;br&gt;Percentage identity: 78&lt;br&gt;Percentage coverage: 99&lt;br&gt;BLAST bit score: 517&lt;br&gt;E-value: 8.68e-184" locus_tag="DDQ41_RS07395" class="clusterblast-orf" id="dummy-28_h28_5_37"  />
</g>
<g id="a28_0038"  >
<polygon points="461,90 464,90 469,85 464,80 461,80 461,90 " style="fill:#c315d8; stroke-width:1; stroke:black; " description="&lt;b&gt;DDQ41_RS07400&lt;/b&gt;&lt;br&gt;SDR family oxidoreductase&lt;br&gt;Location: 1717574 - 1718323&lt;br&gt;&lt;br&gt;&lt;b&gt;BlastP hit with LLPMBPKK_06401&lt;/b&gt;&lt;br&gt;Percentage identity: 39&lt;br&gt;Percentage coverage: 100&lt;br&gt;BLAST bit score: 142&lt;br&gt;E-value: 8.92e-40&lt;br&gt;&lt;br&gt;&lt;b&gt;BlastP hit with LLPMBPKK_06415&lt;/b&gt;&lt;br&gt;Percentage identity: 86&lt;br&gt;Percentage coverage: 100&lt;br&gt;BLAST bit score: 423&lt;br&gt;E-value: 4.63e-150" locus_tag="DDQ41_RS07400" class="clusterblast-orf" id="dummy-28_h28_5_38"  />
</g>
<g id="a28_0039"  >
<polygon points="469,90 473,85 469,80 469,90 " style="fill:#1541d8; stroke-width:1; stroke:black; " description="&lt;b&gt;DDQ41_RS07405&lt;/b&gt;&lt;br&gt;antibiotic biosynthesis monooxygenase&lt;br&gt;Location: 1718283 - 1718642&lt;br&gt;&lt;br&gt;&lt;b&gt;BlastP hit with LLPMBPKK_06416&lt;/b&gt;&lt;br&gt;Percentage identity: 73&lt;br&gt;Percentage coverage: 98&lt;br&gt;BLAST bit score: 153&lt;br&gt;E-value: 7e-48" locus_tag="DDQ41_RS07405" class="clusterblast-orf" id="dummy-28_h28_5_39"  />
</g>
<g id="a28_0040"  >
<polygon points="473,90 476,85 473,80 473,90 " style="fill:#1515d8; stroke-width:1; stroke:black; " description="&lt;b&gt;DDQ41_RS07410&lt;/b&gt;&lt;br&gt;antibiotic biosynthesis monooxygenase&lt;br&gt;Location: 1718639 - 1718956&lt;br&gt;&lt;br&gt;&lt;b&gt;BlastP hit with LLPMBPKK_06417&lt;/b&gt;&lt;br&gt;Percentage identity: 71&lt;br&gt;Percentage coverage: 98&lt;br&gt;BLAST bit score: 155&lt;br&gt;E-value: 8.87e-49" locus_tag="DDQ41_RS07410" class="clusterblast-orf" id="dummy-28_h28_5_40"  />
</g>
<g id="a28_0041"  >
<polygon points="482,85 487,80 493,80 493,90 487,90 482,85 " style="fill:#d8156c; stroke-width:1; stroke:black; " description="&lt;b&gt;DDQ41_RS07415&lt;/b&gt;&lt;br&gt;beta-ketoacyl-ACP synthase 3&lt;br&gt;Location: 1719525 - 1720532&lt;br&gt;&lt;br&gt;&lt;b&gt;BlastP hit with LLPMBPKK_06418&lt;/b&gt;&lt;br&gt;Percentage identity: 84&lt;br&gt;Percentage coverage: 100&lt;br&gt;BLAST bit score: 544&lt;br&gt;E-value: 3.09e-195" locus_tag="DDQ41_RS07415" class="clusterblast-orf" id="dummy-28_h28_5_41"  />
</g>
<g id="a28_0042"  >
<polygon points="494,85 499,80 504,80 504,90 499,90 494,85 " style="fill:white; stroke-width:1; stroke:black; " description="&lt;b&gt;DDQ41_RS07420&lt;/b&gt;&lt;br&gt;hypothetical protein&lt;br&gt;Location: 1720592 - 1721494" locus_tag="DDQ41_RS07420" class="clusterblast-orf" id="dummy-28_h28_5_42"  />
</g>
<g id="a28_0043"  >
<polygon points="509,85 514,80 514,80 514,90 514,90 509,85 " style="fill:#c3d815; stroke-width:1; stroke:black; " description="&lt;b&gt;DDQ41_RS07425&lt;/b&gt;&lt;br&gt;MarR family transcriptional regulator&lt;br&gt;Location: 1721947 - 1722378&lt;br&gt;&lt;br&gt;&lt;b&gt;BlastP hit with LLPMBPKK_06419&lt;/b&gt;&lt;br&gt;Percentage identity: 75&lt;br&gt;Percentage coverage: 86&lt;br&gt;BLAST bit score: 204&lt;br&gt;E-value: 1.49e-66" locus_tag="DDQ41_RS07425" class="clusterblast-orf" id="dummy-28_h28_5_43"  />
</g>
<g id="a28_0044"  >
<polygon points="517,90 517,90 522,85 517,80 517,80 517,90 " style="fill:#15d897; stroke-width:1; stroke:black; " description="&lt;b&gt;DDQ41_RS07430&lt;/b&gt;&lt;br&gt;hypothetical protein&lt;br&gt;Location: 1722666 - 1723118&lt;br&gt;&lt;br&gt;&lt;b&gt;BlastP hit with LLPMBPKK_06420&lt;/b&gt;&lt;br&gt;Percentage identity: 60&lt;br&gt;Percentage coverage: 91&lt;br&gt;BLAST bit score: 141&lt;br&gt;E-value: 4e-42" locus_tag="DDQ41_RS07430" class="clusterblast-orf" id="dummy-28_h28_5_44"  />
</g>
<g id="a28_0045"  >
<polygon points="523,90 539,90 544,85 539,80 523,80 523,90 " style="fill:#4115d8; stroke-width:1; stroke:black; " description="&lt;b&gt;DDQ41_RS07435&lt;/b&gt;&lt;br&gt;asparagine synthase (glutamine-hydrolyzing)&lt;br&gt;Location: 1723224 - 1725107&lt;br&gt;&lt;br&gt;&lt;b&gt;BlastP hit with LLPMBPKK_06421&lt;/b&gt;&lt;br&gt;Percentage identity: 79&lt;br&gt;Percentage coverage: 101&lt;br&gt;BLAST bit score: 971&lt;br&gt;E-value: 0.0" locus_tag="DDQ41_RS07435" class="clusterblast-orf" id="dummy-28_h28_5_45"  />
</g>
<g id="a28_0046"  >
<polygon points="545,85 550,80 564,80 564,90 550,90 545,85 " style="fill:#d81541; stroke-width:1; stroke:black; " description="&lt;b&gt;DDQ41_RS07440&lt;/b&gt;&lt;br&gt;winged helix-turn-helix domain-containing protein&lt;br&gt;Location: 1725203 - 1726993&lt;br&gt;&lt;br&gt;&lt;b&gt;BlastP hit with LLPMBPKK_06422&lt;/b&gt;&lt;br&gt;Percentage identity: 62&lt;br&gt;Percentage coverage: 98&lt;br&gt;BLAST bit score: 660&lt;br&gt;E-value: 1.69e-232" locus_tag="DDQ41_RS07440" class="clusterblast-orf" id="dummy-28_h28_5_46"  />
</g>
<g id="a28_0047"  >
<polygon points="567,90 580,90 585,85 580,80 567,80 567,90 " style="fill:#15c3d8; stroke-width:1; stroke:black; " description="&lt;b&gt;DDQ41_RS07445&lt;/b&gt;&lt;br&gt;MFS transporter&lt;br&gt;Location: 1727254 - 1728903&lt;br&gt;&lt;br&gt;&lt;b&gt;BlastP hit with LLPMBPKK_06393&lt;/b&gt;&lt;br&gt;Percentage identity: 47&lt;br&gt;Percentage coverage: 97&lt;br&gt;BLAST bit score: 438&lt;br&gt;E-value: 4.57e-147" locus_tag="DDQ41_RS07445" class="clusterblast-orf" id="dummy-28_h28_5_47"  />
</g>
<g id="a28_0048"  >
<polygon points="593,90 600,90 605,85 600,80 593,80 593,90 " style="fill:white; stroke-width:1; stroke:black; " description="&lt;b&gt;DDQ41_RS07450&lt;/b&gt;&lt;br&gt;ABC transporter substrate-binding protein&lt;br&gt;Location: 1729671 - 1730708" locus_tag="DDQ41_RS07450" class="clusterblast-orf" id="dummy-28_h28_5_48"  />
</g>
<g id="a28_0049"  >
<polygon points="605,90 609,90 614,85 609,80 605,80 605,90 " style="fill:white; stroke-width:1; stroke:black; " description="&lt;b&gt;DDQ41_RS07455&lt;/b&gt;&lt;br&gt;siderophore-interacting protein&lt;br&gt;Location: 1730712 - 1731590" locus_tag="DDQ41_RS07455" class="clusterblast-orf" id="dummy-28_h28_5_49"  />
</g>
<g id="a28_0050"  >
<polygon points="619,90 630,90 635,85 630,80 619,80 619,90 " style="fill:white; stroke-width:1; stroke:black; " description="&lt;b&gt;DDQ41_RS07465&lt;/b&gt;&lt;br&gt;aspartate aminotransferase family protein&lt;br&gt;Location: 1731994 - 1733445" locus_tag="DDQ41_RS07465" class="clusterblast-orf" id="dummy-28_h28_5_50"  />
</g>
<g id="a28_0051"  >
<polygon points="635,90 643,90 648,85 643,80 635,80 635,90 " style="fill:white; stroke-width:1; stroke:black; " description="&lt;b&gt;DDQ41_RS07470&lt;/b&gt;&lt;br&gt;SidA/IucD/PvdA family monooxygenase&lt;br&gt;Location: 1733429 - 1734709" locus_tag="DDQ41_RS07470" class="clusterblast-orf" id="dummy-28_h28_5_51"  />
</g>
<g id="a28_0052"  >
<polygon points="648,90 650,90 655,85 650,80 648,80 648,90 " style="fill:white; stroke-width:1; stroke:black; " description="&lt;b&gt;DDQ41_RS07475&lt;/b&gt;&lt;br&gt;acetyltransferase&lt;br&gt;Location: 1734706 - 1735323" locus_tag="DDQ41_RS07475" class="clusterblast-orf" id="dummy-28_h28_5_52"  />
</g>
<g id="a28_0053"  >
<polygon points="655,90 670,90 675,85 670,80 655,80 655,90 " style="fill:white; stroke-width:1; stroke:black; " description="&lt;b&gt;DDQ41_RS07480&lt;/b&gt;&lt;br&gt;IucA/IucC family siderophore biosynthesis protein&lt;br&gt;Location: 1735320 - 1737101" locus_tag="DDQ41_RS07480" class="clusterblast-orf" id="dummy-28_h28_5_53"  />
</g>
<g id="a28_0054"  >
<polygon points="682,90 685,85 682,80 682,90 " style="fill:white; stroke-width:1; stroke:black; " description="&lt;b&gt;DDQ41_RS07485&lt;/b&gt;&lt;br&gt;hypothetical protein&lt;br&gt;Location: 1737794 - 1738069" locus_tag="DDQ41_RS07485" class="clusterblast-orf" id="dummy-28_h28_5_54"  />
</g>
<g id="a28_0055"  >
<polygon points="686,90 701,90 706,85 701,80 686,80 686,90 " style="fill:white; stroke-width:1; stroke:black; " description="&lt;b&gt;DDQ41_RS07490&lt;/b&gt;&lt;br&gt;glutamine--fructose-6-phosphate transaminase (isomerizing)&lt;br&gt;Location: 1738159 - 1739976" locus_tag="DDQ41_RS07490" class="clusterblast-orf" id="dummy-28_h28_5_55"  />
</g>
<g id="a28_0056"  >
<polygon points="709,85 714,80 715,80 715,90 714,90 709,85 " style="fill:white; stroke-width:1; stroke:black; " description="&lt;b&gt;DDQ41_RS07495&lt;/b&gt;&lt;br&gt;hypothetical protein&lt;br&gt;Location: 1740213 - 1740782" locus_tag="DDQ41_RS07495" class="clusterblast-orf" id="dummy-28_h28_5_56"  />
</g>
<g id="a28_0057"  >
<polygon points="718,85 723,80 724,80 724,90 723,90 718,85 " style="fill:white; stroke-width:1; stroke:black; " description="&lt;b&gt;DDQ41_RS07500&lt;/b&gt;&lt;br&gt;universal stress protein&lt;br&gt;Location: 1741063 - 1741584" locus_tag="DDQ41_RS07500" class="clusterblast-orf" id="dummy-28_h28_5_57"  />
</g>
<g id="a28_0058"  >
<polygon points="740,90 748,90 753,85 748,80 740,80 740,90 " style="fill:white; stroke-width:1; stroke:black; " description="&lt;b&gt;DDQ41_RS07510&lt;/b&gt;&lt;br&gt;helix-turn-helix domain-containing protein&lt;br&gt;Location: 1743074 - 1744270" locus_tag="DDQ41_RS07510" class="clusterblast-orf" id="dummy-28_h28_5_58"  />
</g>
<g id="a28_0059"  >
<polygon points="753,90 755,90 760,85 755,80 753,80 753,90 " style="fill:white; stroke-width:1; stroke:black; " description="&lt;b&gt;DDQ41_RS07515&lt;/b&gt;&lt;br&gt;oligoribonuclease&lt;br&gt;Location: 1744281 - 1744886" locus_tag="DDQ41_RS07515" class="clusterblast-orf" id="dummy-28_h28_5_59"  />
</g>
<g id="a28_0060"  >
<polygon points="774,85 779,80 780,80 780,90 779,90 774,85 " style="fill:white; stroke-width:1; stroke:black; " description="&lt;b&gt;DDQ41_RS07525&lt;/b&gt;&lt;br&gt;flavoprotein&lt;br&gt;Location: 1746145 - 1746690" locus_tag="DDQ41_RS07525" class="clusterblast-orf" id="dummy-28_h28_5_60"  />
</g>
</svg>
