<svg xmlns="http://www.w3.org/2000/svg" xmlns:xlink="http://www.w3.org/1999/xlink" version="1.1" x="0" y="0" height="230" width="800" viewBox="0 0 800 230" preserveAspectRatio="none"  >
<g label="Query sequence" class="clusterblast-cluster"  >
<text x="5" y="20" class="clusterblast-acc"  >
Query sequence</text>
<line x1="10" y1="35" x2="778.0" y2="35" style="stroke-width:1; stroke:grey; "  />
<polygon points="0,35 5,30 52,30 52,40 5,40 0,35 " style="fill:#d81515; stroke-width:1; stroke:black; " description="&lt;b&gt;LLPMBPKK_06266&lt;/b&gt;&lt;br&gt;hypothetical protein&lt;br&gt;Location: 7240601 - 7241402" locus_tag="LLPMBPKK_06266" class="clusterblast-orf" id="dummy-26_q0_0_all"  />
<polygon points="52,35 57,30 133,30 133,40 57,40 52,35 " style="fill:#15d863; stroke-width:1; stroke:black; " description="&lt;b&gt;LLPMBPKK_06267&lt;/b&gt;&lt;br&gt;VWA domain-containing protein&lt;br&gt;Location: 7241401 - 7242664" locus_tag="LLPMBPKK_06267" class="clusterblast-orf" id="dummy-26_q1_0_all"  />
<polygon points="138,35 143,30 185,30 185,40 143,40 138,35 " style="fill:#1563d8; stroke-width:1; stroke:black; " description="&lt;b&gt;LLPMBPKK_06268&lt;/b&gt;&lt;br&gt;hypothetical protein&lt;br&gt;Location: 7242741 - 7243485" locus_tag="LLPMBPKK_06268" class="clusterblast-orf" id="dummy-26_q2_0_all"  />
<polygon points="189,35 194,30 288,30 288,40 194,40 189,35 " style="fill:#b115d8; stroke-width:1; stroke:black; " description="&lt;b&gt;LLPMBPKK_06269&lt;/b&gt;&lt;br&gt;hypothetical protein&lt;br&gt;Location: 7243533 - 7245075" locus_tag="LLPMBPKK_06269" class="clusterblast-orf" id="dummy-26_q3_0_all"  />
<polygon points="294,35 299,30 393,30 393,40 299,40 294,35 " style="fill:#b1d815; stroke-width:1; stroke:black; " description="&lt;b&gt;LLPMBPKK_06270&lt;/b&gt;&lt;br&gt;IucA/IucC family siderophore biosynthesisprotein&lt;br&gt;Location: 7245181 - 7246720" locus_tag="LLPMBPKK_06270" class="clusterblast-orf" id="dummy-26_q4_0_all"  />
<polygon points="402,40 495,40 500,35 495,30 402,30 402,40 " style="fill:#b1d815; stroke-width:1; stroke:black; " description="&lt;b&gt;LLPMBPKK_06271&lt;/b&gt;&lt;br&gt;iron transporter&lt;br&gt;Location: 7246849 - 7248373" locus_tag="LLPMBPKK_06271" class="clusterblast-orf" id="dummy-26_q5_0_all"  />
<polygon points="507,40 564,40 569,35 564,30 507,30 507,40 " style="fill:white; stroke-width:1; stroke:black; " description="&lt;b&gt;LLPMBPKK_06272&lt;/b&gt;&lt;br&gt;luciferase family protein&lt;br&gt;Location: 7248485 - 7249451" locus_tag="LLPMBPKK_06272" class="clusterblast-orf" id="dummy-26_q6_0_all"  />
<polygon points="578,35 583,30 610,30 610,40 583,40 578,35 " style="fill:white; stroke-width:1; stroke:black; " description="&lt;b&gt;LLPMBPKK_06273&lt;/b&gt;&lt;br&gt;MarR family transcriptional regulator&lt;br&gt;Location: 7249598 - 7250096" locus_tag="LLPMBPKK_06273" class="clusterblast-orf" id="dummy-26_q7_0_all"  />
<polygon points="624,35 629,30 701,30 701,40 629,40 624,35 " style="fill:white; stroke-width:1; stroke:black; " description="&lt;b&gt;LLPMBPKK_06274&lt;/b&gt;&lt;br&gt;cytochrome P450&lt;br&gt;Location: 7250305 - 7251508" locus_tag="LLPMBPKK_06274" class="clusterblast-orf" id="dummy-26_q8_0_all"  />
<polygon points="703,35 708,30 780,30 780,40 708,40 703,35 " style="fill:white; stroke-width:1; stroke:black; " description="&lt;b&gt;LLPMBPKK_06275&lt;/b&gt;&lt;br&gt;acyltransferase&lt;br&gt;Location: 7251545 - 7252739" locus_tag="LLPMBPKK_06275" class="clusterblast-orf" id="dummy-26_q9_0_all"  />
</g>
<g label="NZ_KQ948352" description="NZ_KQ948352 (173225-186380): Streptomyces corchorusii strain DSM 40340 PRJNA2... (54% of genes show similarity), siderophore" class="clusterblast-cluster"  >
<text x="5" y="70" class="clusterblast-acc"  >
<a xlink:href="https://antismash-db.secondarymetabolites.org/area.html?record=NZ_KQ948352&amp;start=173225&amp;end=186380" target="_blank">NZ_KQ948352 (173225-186380)</a>: Streptomyces corchorusii strain DSM 40340 PRJNA2... (54% of genes show similarity), siderophore</text>
<line x1="10" y1="85" x2="778.0" y2="85" style="stroke-width:1; stroke:grey; "  />
</g>
<g id="a26_000"  >
<polygon points="2,85 7,80 54,80 54,90 7,90 2,85 " style="fill:#d81515; stroke-width:1; stroke:black; " description="&lt;b&gt;AQJ11_RS04930&lt;/b&gt;&lt;br&gt;hypothetical protein&lt;br&gt;Location: 173642 - 174442&lt;br&gt;&lt;br&gt;&lt;b&gt;BlastP hit with LLPMBPKK_06266&lt;/b&gt;&lt;br&gt;Percentage identity: 91&lt;br&gt;Percentage coverage: 99&lt;br&gt;BLAST bit score: 463&lt;br&gt;E-value: 2.41e-165" locus_tag="AQJ11_RS04930" class="clusterblast-orf" id="dummy-26_h26_3_0"  />
</g>
<g id="a26_001"  >
<polygon points="54,85 59,80 135,80 135,90 59,90 54,85 " style="fill:#15d863; stroke-width:1; stroke:black; " description="&lt;b&gt;AQJ11_RS04935&lt;/b&gt;&lt;br&gt;VWA domain-containing protein&lt;br&gt;Location: 174442 - 175704&lt;br&gt;&lt;br&gt;&lt;b&gt;BlastP hit with LLPMBPKK_06267&lt;/b&gt;&lt;br&gt;Percentage identity: 97&lt;br&gt;Percentage coverage: 100&lt;br&gt;BLAST bit score: 819&lt;br&gt;E-value: 3.9e-301" locus_tag="AQJ11_RS04935" class="clusterblast-orf" id="dummy-26_h26_3_1"  />
</g>
<g id="a26_002"  >
<polygon points="140,85 145,80 188,80 188,90 145,90 140,85 " style="fill:#1563d8; stroke-width:1; stroke:black; " description="&lt;b&gt;AQJ11_RS04940&lt;/b&gt;&lt;br&gt;NUDIX hydrolase&lt;br&gt;Location: 175785 - 176528&lt;br&gt;&lt;br&gt;&lt;b&gt;BlastP hit with LLPMBPKK_06268&lt;/b&gt;&lt;br&gt;Percentage identity: 89&lt;br&gt;Percentage coverage: 100&lt;br&gt;BLAST bit score: 446&lt;br&gt;E-value: 2.86e-159" locus_tag="AQJ11_RS04940" class="clusterblast-orf" id="dummy-26_h26_3_2"  />
</g>
<g id="a26_003"  >
<polygon points="191,85 196,80 290,80 290,90 196,90 191,85 " style="fill:#b115d8; stroke-width:1; stroke:black; " description="&lt;b&gt;AQJ11_RS04945&lt;/b&gt;&lt;br&gt;hypothetical protein&lt;br&gt;Location: 176577 - 178118&lt;br&gt;&lt;br&gt;&lt;b&gt;BlastP hit with LLPMBPKK_06269&lt;/b&gt;&lt;br&gt;Percentage identity: 94&lt;br&gt;Percentage coverage: 100&lt;br&gt;BLAST bit score: 956&lt;br&gt;E-value: 0.0" locus_tag="AQJ11_RS04945" class="clusterblast-orf" id="dummy-26_h26_3_3"  />
</g>
<g id="a26_004"  >
<polygon points="297,85 302,80 395,80 395,90 302,90 297,85 " style="fill:#b1d815; stroke-width:1; stroke:black; " description="&lt;b&gt;AQJ11_RS04950&lt;/b&gt;&lt;br&gt;IucA/IucC family siderophore biosynthesis protein&lt;br&gt;Location: 178226 - 179749&lt;br&gt;&lt;br&gt;&lt;b&gt;BlastP hit with LLPMBPKK_06270&lt;/b&gt;&lt;br&gt;Percentage identity: 84&lt;br&gt;Percentage coverage: 100&lt;br&gt;BLAST bit score: 850&lt;br&gt;E-value: 1.87e-310" locus_tag="AQJ11_RS04950" class="clusterblast-orf" id="dummy-26_h26_3_4"  />
</g>
<g id="a26_005"  >
<polygon points="403,90 495,90 500,85 495,80 403,80 403,90 " style="fill:#b1d815; stroke-width:1; stroke:black; " description="&lt;b&gt;AQJ11_RS04955&lt;/b&gt;&lt;br&gt;iron transporter&lt;br&gt;Location: 179881 - 181380&lt;br&gt;&lt;br&gt;&lt;b&gt;BlastP hit with LLPMBPKK_06271&lt;/b&gt;&lt;br&gt;Percentage identity: 91&lt;br&gt;Percentage coverage: 100&lt;br&gt;BLAST bit score: 928&lt;br&gt;E-value: 0.0" locus_tag="AQJ11_RS04955" class="clusterblast-orf" id="dummy-26_h26_3_5"  />
</g>
<g id="a26_006"  >
<polygon points="501,90 555,90 560,85 555,80 501,80 501,90 " style="fill:white; stroke-width:1; stroke:black; " description="&lt;b&gt;AQJ11_RS04960&lt;/b&gt;&lt;br&gt;hypothetical protein&lt;br&gt;Location: 181401 - 182315" locus_tag="AQJ11_RS04960" class="clusterblast-orf" id="dummy-26_h26_3_6"  />
</g>
<g id="a26_007"  >
<polygon points="562,85 567,80 666,80 666,90 567,90 562,85 " style="fill:white; stroke-width:1; stroke:black; " description="&lt;b&gt;AQJ11_RS04965&lt;/b&gt;&lt;br&gt;malate synthase A&lt;br&gt;Location: 182348 - 183973" locus_tag="AQJ11_RS04965" class="clusterblast-orf" id="dummy-26_h26_3_7"  />
</g>
<g id="a26_008"  >
<polygon points="678,85 683,80 717,80 717,90 683,90 678,85 " style="fill:white; stroke-width:1; stroke:black; " description="&lt;b&gt;AQJ11_RS04970&lt;/b&gt;&lt;br&gt;nucleotidyltransferase family protein&lt;br&gt;Location: 184158 - 184766" locus_tag="AQJ11_RS04970" class="clusterblast-orf" id="dummy-26_h26_3_8"  />
</g>
<g id="a26_009"  >
<polygon points="726,90 744,90 749,85 744,80 726,80 726,90 " style="fill:white; stroke-width:1; stroke:black; " description="&lt;b&gt;AQJ11_RS04975&lt;/b&gt;&lt;br&gt;hypothetical protein&lt;br&gt;Location: 184911 - 185264" locus_tag="AQJ11_RS04975" class="clusterblast-orf" id="dummy-26_h26_3_9"  />
</g>
<g id="a26_0010"  >
<polygon points="750,85 755,80 777,80 777,90 755,90 750,85 " style="fill:white; stroke-width:1; stroke:black; " description="&lt;b&gt;AQJ11_RS04980&lt;/b&gt;&lt;br&gt;hypothetical protein&lt;br&gt;Location: 185272 - 185694" locus_tag="AQJ11_RS04980" class="clusterblast-orf" id="dummy-26_h26_3_10"  />
</g>
</svg>
