<svg xmlns="http://www.w3.org/2000/svg" xmlns:xlink="http://www.w3.org/1999/xlink" version="1.1" x="0" y="0" height="230" width="800" viewBox="0 0 800 230" preserveAspectRatio="none"  >
<g label="Query sequence" class="clusterblast-cluster"  >
<text x="5" y="20" class="clusterblast-acc"  >
Query sequence</text>
<line x1="10" y1="35" x2="778.0" y2="35" style="stroke-width:1; stroke:grey; "  />
<polygon points="0,35 5,30 7,30 7,40 5,40 0,35 " style="fill:white; stroke-width:1; stroke:black; " description="&lt;b&gt;LLPMBPKK_02177&lt;/b&gt;&lt;br&gt;5-dehydro-4-deoxyglucarate dehydratase&lt;br&gt;Location: 2510113 - 2511055" locus_tag="LLPMBPKK_02177" class="clusterblast-orf" id="dummy-12_q0_0_all"  />
<polygon points="9,40 11,40 16,35 11,30 9,30 9,40 " style="fill:white; stroke-width:1; stroke:black; " description="&lt;b&gt;LLPMBPKK_02178&lt;/b&gt;&lt;br&gt;NAD(P)-dependent oxidoreductase&lt;br&gt;Location: 2511287 - 2512097" locus_tag="LLPMBPKK_02178" class="clusterblast-orf" id="dummy-12_q1_0_all"  />
<polygon points="18,40 20,40 25,35 20,30 18,30 18,40 " style="fill:white; stroke-width:1; stroke:black; " description="&lt;b&gt;LLPMBPKK_02179&lt;/b&gt;&lt;br&gt;DeoR/GlpR transcriptional regulator&lt;br&gt;Location: 2512373 - 2513186" locus_tag="LLPMBPKK_02179" class="clusterblast-orf" id="dummy-12_q2_0_all"  />
<polygon points="25,40 32,40 37,35 32,30 25,30 25,40 " style="fill:white; stroke-width:1; stroke:black; " description="&lt;b&gt;LLPMBPKK_02180&lt;/b&gt;&lt;br&gt;sugar ABC transporter substrate-binding protein&lt;br&gt;Location: 2513275 - 2514646" locus_tag="LLPMBPKK_02180" class="clusterblast-orf" id="dummy-12_q3_0_all"  />
<polygon points="36,40 39,40 44,35 39,30 36,30 36,40 " style="fill:white; stroke-width:1; stroke:black; " description="&lt;b&gt;LLPMBPKK_02181&lt;/b&gt;&lt;br&gt;sugar ABC transporter permease&lt;br&gt;Location: 2514642 - 2515581" locus_tag="LLPMBPKK_02181" class="clusterblast-orf" id="dummy-12_q4_0_all"  />
<polygon points="44,40 46,40 51,35 46,30 44,30 44,40 " style="fill:white; stroke-width:1; stroke:black; " description="&lt;b&gt;LLPMBPKK_02182&lt;/b&gt;&lt;br&gt;integral membrane sugar transport protein&lt;br&gt;Location: 2515577 - 2516405" locus_tag="LLPMBPKK_02182" class="clusterblast-orf" id="dummy-12_q5_0_all"  />
<polygon points="51,40 54,40 59,35 54,30 51,30 51,40 " style="fill:white; stroke-width:1; stroke:black; " description="&lt;b&gt;LLPMBPKK_02183&lt;/b&gt;&lt;br&gt;alcohol dehydrogenase&lt;br&gt;Location: 2516401 - 2517391" locus_tag="LLPMBPKK_02183" class="clusterblast-orf" id="dummy-12_q6_0_all"  />
<polygon points="59,40 64,40 69,35 64,30 59,30 59,40 " style="fill:white; stroke-width:1; stroke:black; " description="&lt;b&gt;LLPMBPKK_02184&lt;/b&gt;&lt;br&gt;transport-associated protein&lt;br&gt;Location: 2517461 - 2518685" locus_tag="LLPMBPKK_02184" class="clusterblast-orf" id="dummy-12_q7_0_all"  />
<polygon points="70,35 74,30 74,40 70,35 " style="fill:white; stroke-width:1; stroke:black; " description="&lt;b&gt;LLPMBPKK_02185&lt;/b&gt;&lt;br&gt;TetR/AcrR family transcriptional regulator&lt;br&gt;Location: 2518732 - 2519305" locus_tag="LLPMBPKK_02185" class="clusterblast-orf" id="dummy-12_q8_0_all"  />
<polygon points="75,35 80,30 87,30 87,40 80,40 75,35 " style="fill:white; stroke-width:1; stroke:black; " description="&lt;b&gt;LLPMBPKK_02186&lt;/b&gt;&lt;br&gt;hypothetical protein&lt;br&gt;Location: 2519411 - 2520863" locus_tag="LLPMBPKK_02186" class="clusterblast-orf" id="dummy-12_q9_0_all"  />
<polygon points="89,35 94,30 101,30 101,40 94,40 89,35 " style="fill:white; stroke-width:1; stroke:black; " description="&lt;b&gt;LLPMBPKK_02187&lt;/b&gt;&lt;br&gt;plasmid pRiA4b ORF-3 family protein&lt;br&gt;Location: 2521087 - 2522512" locus_tag="LLPMBPKK_02187" class="clusterblast-orf" id="dummy-12_q10_0_all"  />
<polygon points="103,40 113,40 118,35 113,30 103,30 103,40 " style="fill:white; stroke-width:1; stroke:black; " description="&lt;b&gt;LLPMBPKK_02188&lt;/b&gt;&lt;br&gt;large secreted protein&lt;br&gt;Location: 2522777 - 2524604" locus_tag="LLPMBPKK_02188" class="clusterblast-orf" id="dummy-12_q11_0_all"  />
<polygon points="118,35 123,30 123,30 123,40 123,40 118,35 " style="fill:white; stroke-width:1; stroke:black; " description="&lt;b&gt;LLPMBPKK_02189&lt;/b&gt;&lt;br&gt;hypothetical protein&lt;br&gt;Location: 2524691 - 2525225" locus_tag="LLPMBPKK_02189" class="clusterblast-orf" id="dummy-12_q12_0_all"  />
<polygon points="124,40 126,40 131,35 126,30 124,30 124,40 " style="fill:white; stroke-width:1; stroke:black; " description="&lt;b&gt;LLPMBPKK_02190&lt;/b&gt;&lt;br&gt;4-hydroxy-tetrahydrodipicolinate synthase&lt;br&gt;Location: 2525357 - 2526257" locus_tag="LLPMBPKK_02190" class="clusterblast-orf" id="dummy-12_q13_0_all"  />
<polygon points="131,35 136,30 143,30 143,40 136,40 131,35 " style="fill:#d81515; stroke-width:1; stroke:black; " description="&lt;b&gt;LLPMBPKK_02191&lt;/b&gt;&lt;br&gt;FAD-dependent oxidoreductase&lt;br&gt;Location: 2526267 - 2527743" locus_tag="LLPMBPKK_02191" class="clusterblast-orf" id="dummy-12_q14_0_all"  />
<polygon points="143,35 148,30 152,30 152,40 148,40 143,35 " style="fill:#60d815; stroke-width:1; stroke:black; " description="&lt;b&gt;LLPMBPKK_02192&lt;/b&gt;&lt;br&gt;O-methyltransferase&lt;br&gt;Location: 2527739 - 2528768" locus_tag="LLPMBPKK_02192" class="clusterblast-orf" id="dummy-12_q15_0_all"  />
<polygon points="152,35 157,30 159,30 159,40 157,40 152,35 " style="fill:#15abd8; stroke-width:1; stroke:black; " description="&lt;b&gt;LLPMBPKK_02193&lt;/b&gt;&lt;br&gt;NAD(P)-dependent oxidoreductase&lt;br&gt;Location: 2528764 - 2529733" locus_tag="LLPMBPKK_02193" class="clusterblast-orf" id="dummy-12_q16_0_all"  />
<polygon points="159,35 164,30 183,30 183,40 164,40 159,35 " style="fill:#8d15d8; stroke-width:1; stroke:black; " description="&lt;b&gt;LLPMBPKK_02194&lt;/b&gt;&lt;br&gt;alpha/beta fold hydrolase&lt;br&gt;Location: 2529725 - 2532581" locus_tag="LLPMBPKK_02194" class="clusterblast-orf" id="dummy-12_q17_0_all"  />
<polygon points="183,35 188,30 193,30 193,40 188,40 183,35 " style="fill:#d84215; stroke-width:1; stroke:black; " description="&lt;b&gt;LLPMBPKK_02195&lt;/b&gt;&lt;br&gt;FAD-dependent oxidoreductase&lt;br&gt;Location: 2532577 - 2533861" locus_tag="LLPMBPKK_02195" class="clusterblast-orf" id="dummy-12_q18_0_all"  />
<polygon points="193,35 195,30 195,40 193,35 " style="fill:#33d815; stroke-width:1; stroke:black; " description="&lt;b&gt;LLPMBPKK_02196&lt;/b&gt;&lt;br&gt;ferredoxin&lt;br&gt;Location: 2533875 - 2534070" locus_tag="LLPMBPKK_02196" class="clusterblast-orf" id="dummy-12_q19_0_all"  />
<polygon points="195,35 200,30 202,30 202,40 200,40 195,35 " style="fill:#157ed8; stroke-width:1; stroke:black; " description="&lt;b&gt;LLPMBPKK_02197&lt;/b&gt;&lt;br&gt;regulatory protein&lt;br&gt;Location: 2534081 - 2534903" locus_tag="LLPMBPKK_02197" class="clusterblast-orf" id="dummy-12_q20_0_all"  />
<polygon points="202,35 207,30 215,30 215,40 207,40 202,35 " style="fill:#d81515; stroke-width:1; stroke:black; " description="&lt;b&gt;LLPMBPKK_02198&lt;/b&gt;&lt;br&gt;3-(3-hydroxy-phenyl)propionate/3-hydroxycinnamica cid hydroxylase&lt;br&gt;Location: 2534968 - 2536612" locus_tag="LLPMBPKK_02198" class="clusterblast-orf" id="dummy-12_q21_0_all"  />
<polygon points="216,35 221,30 224,30 224,40 221,40 216,35 " style="fill:#8d15d8; stroke-width:1; stroke:black; " description="&lt;b&gt;LLPMBPKK_02199&lt;/b&gt;&lt;br&gt;oxidoreductase&lt;br&gt;Location: 2536626 - 2537607" locus_tag="LLPMBPKK_02199" class="clusterblast-orf" id="dummy-12_q22_0_all"  />
<polygon points="226,40 226,40 231,35 226,30 226,30 226,40 " style="fill:#ba15d8; stroke-width:1; stroke:black; " description="&lt;b&gt;LLPMBPKK_02200&lt;/b&gt;&lt;br&gt;hypothetical protein&lt;br&gt;Location: 2537952 - 2538570" locus_tag="LLPMBPKK_02200" class="clusterblast-orf" id="dummy-12_q23_0_all"  />
<polygon points="233,40 295,40 300,35 295,30 233,30 233,40 " style="fill:#8d15d8; stroke-width:1; stroke:black; " description="&lt;b&gt;LLPMBPKK_02201&lt;/b&gt;&lt;br&gt;hypothetical protein&lt;br&gt;Location: 2538786 - 2547030" locus_tag="LLPMBPKK_02201" class="clusterblast-orf" id="dummy-12_q24_0_all"  />
<polygon points="301,40 396,40 401,35 396,30 301,30 301,40 " style="fill:#8d15d8; stroke-width:1; stroke:black; " description="&lt;b&gt;LLPMBPKK_02202&lt;/b&gt;&lt;br&gt;type I polyketide synthase&lt;br&gt;Location: 2547086 - 2559347" locus_tag="LLPMBPKK_02202" class="clusterblast-orf" id="dummy-12_q25_0_all"  />
<polygon points="401,40 436,40 441,35 436,30 401,30 401,40 " style="fill:#8d15d8; stroke-width:1; stroke:black; " description="&lt;b&gt;LLPMBPKK_02203&lt;/b&gt;&lt;br&gt;type I polyketide synthase&lt;br&gt;Location: 2559378 - 2564334" locus_tag="LLPMBPKK_02203" class="clusterblast-orf" id="dummy-12_q26_0_all"  />
<polygon points="441,40 484,40 489,35 484,30 441,30 441,40 " style="fill:#8d15d8; stroke-width:1; stroke:black; " description="&lt;b&gt;LLPMBPKK_02204&lt;/b&gt;&lt;br&gt;type I polyketide synthase&lt;br&gt;Location: 2564330 - 2570150" locus_tag="LLPMBPKK_02204" class="clusterblast-orf" id="dummy-12_q27_0_all"  />
<polygon points="489,40 535,40 540,35 535,30 489,30 489,40 " style="fill:#8d15d8; stroke-width:1; stroke:black; " description="&lt;b&gt;LLPMBPKK_02205&lt;/b&gt;&lt;br&gt;type I polyketide synthase&lt;br&gt;Location: 2570188 - 2576428" locus_tag="LLPMBPKK_02205" class="clusterblast-orf" id="dummy-12_q28_0_all"  />
<polygon points="540,40 545,40 550,35 545,30 540,30 540,40 " style="fill:#d86f15; stroke-width:1; stroke:black; " description="&lt;b&gt;LLPMBPKK_02206&lt;/b&gt;&lt;br&gt;cytochrome P450&lt;br&gt;Location: 2576482 - 2577718" locus_tag="LLPMBPKK_02206" class="clusterblast-orf" id="dummy-12_q29_0_all"  />
<polygon points="551,40 554,35 551,30 551,40 " style="fill:white; stroke-width:1; stroke:black; " description="&lt;b&gt;LLPMBPKK_02207&lt;/b&gt;&lt;br&gt;SnoaL-like domain protein&lt;br&gt;Location: 2577757 - 2578228" locus_tag="LLPMBPKK_02207" class="clusterblast-orf" id="dummy-12_q30_0_all"  />
<polygon points="555,40 557,40 562,35 557,30 555,30 555,40 " style="fill:#15d824; stroke-width:1; stroke:black; " description="&lt;b&gt;LLPMBPKK_02208&lt;/b&gt;&lt;br&gt;SDR family oxidoreductase&lt;br&gt;Location: 2578309 - 2579110" locus_tag="LLPMBPKK_02208" class="clusterblast-orf" id="dummy-12_q31_0_all"  />
<polygon points="562,35 567,30 573,30 573,40 567,40 562,35 " style="fill:#1551d8; stroke-width:1; stroke:black; " description="&lt;b&gt;LLPMBPKK_02209&lt;/b&gt;&lt;br&gt;Bacterial regulatory proteins, luxR family&lt;br&gt;Location: 2579160 - 2580513" locus_tag="LLPMBPKK_02209" class="clusterblast-orf" id="dummy-12_q32_0_all"  />
<polygon points="577,40 582,40 587,35 582,30 577,30 577,40 " style="fill:#d815c9; stroke-width:1; stroke:black; " description="&lt;b&gt;LLPMBPKK_02210&lt;/b&gt;&lt;br&gt;transcriptional regulator&lt;br&gt;Location: 2581050 - 2582205" locus_tag="LLPMBPKK_02210" class="clusterblast-orf" id="dummy-12_q33_0_all"  />
<polygon points="587,40 589,40 594,35 589,30 587,30 587,40 " style="fill:#15d824; stroke-width:1; stroke:black; " description="&lt;b&gt;LLPMBPKK_02211&lt;/b&gt;&lt;br&gt;3-oxoacyl-ACP reductase&lt;br&gt;Location: 2582238 - 2583024" locus_tag="LLPMBPKK_02211" class="clusterblast-orf" id="dummy-12_q34_0_all"  />
<polygon points="594,35 599,30 608,30 608,40 599,40 594,35 " style="fill:white; stroke-width:1; stroke:black; " description="&lt;b&gt;LLPMBPKK_02212&lt;/b&gt;&lt;br&gt;biotin/lipoyl-binding protein&lt;br&gt;Location: 2583043 - 2584816" locus_tag="LLPMBPKK_02212" class="clusterblast-orf" id="dummy-12_q35_0_all"  />
<polygon points="608,35 613,30 614,30 614,40 613,40 608,35 " style="fill:#d89c15; stroke-width:1; stroke:black; " description="&lt;b&gt;LLPMBPKK_02213&lt;/b&gt;&lt;br&gt;4'-phosphopantetheinyl transferase superfamilyprotein&lt;br&gt;Location: 2584821 - 2585505" locus_tag="LLPMBPKK_02213" class="clusterblast-orf" id="dummy-12_q36_0_all"  />
<polygon points="614,35 619,30 622,30 622,40 619,40 614,35 " style="fill:#15d851; stroke-width:1; stroke:black; " description="&lt;b&gt;LLPMBPKK_02214&lt;/b&gt;&lt;br&gt;3-oxoacyl-ACP synthase&lt;br&gt;Location: 2585497 - 2586580" locus_tag="LLPMBPKK_02214" class="clusterblast-orf" id="dummy-12_q37_0_all"  />
<polygon points="624,40 627,35 624,30 624,40 " style="fill:#1524d8; stroke-width:1; stroke:black; " description="&lt;b&gt;LLPMBPKK_02215&lt;/b&gt;&lt;br&gt;acyl carrier protein&lt;br&gt;Location: 2586825 - 2587098" locus_tag="LLPMBPKK_02215" class="clusterblast-orf" id="dummy-12_q38_0_all"  />
<polygon points="627,40 632,40 637,35 632,30 627,30 627,40 " style="fill:#d8159c; stroke-width:1; stroke:black; " description="&lt;b&gt;LLPMBPKK_02216&lt;/b&gt;&lt;br&gt;beta-ketoacyl-[acyl-carrier-protein] synthasefamily protein&lt;br&gt;Location: 2587090 - 2588317" locus_tag="LLPMBPKK_02216" class="clusterblast-orf" id="dummy-12_q39_0_all"  />
<polygon points="637,40 642,40 647,35 642,30 637,30 637,40 " style="fill:#d8c915; stroke-width:1; stroke:black; " description="&lt;b&gt;LLPMBPKK_02217&lt;/b&gt;&lt;br&gt;hypothetical protein&lt;br&gt;Location: 2588313 - 2589528" locus_tag="LLPMBPKK_02217" class="clusterblast-orf" id="dummy-12_q40_0_all"  />
<polygon points="648,40 649,40 654,35 649,30 648,30 648,40 " style="fill:#15d87e; stroke-width:1; stroke:black; " description="&lt;b&gt;LLPMBPKK_02218&lt;/b&gt;&lt;br&gt;transcriptional regulator&lt;br&gt;Location: 2589718 - 2590441" locus_tag="LLPMBPKK_02218" class="clusterblast-orf" id="dummy-12_q41_0_all"  />
<polygon points="653,35 658,30 660,30 660,40 658,40 653,35 " style="fill:#15d824; stroke-width:1; stroke:black; " description="&lt;b&gt;LLPMBPKK_02219&lt;/b&gt;&lt;br&gt;short-chain dehydrogenase/reductase SDR&lt;br&gt;Location: 2590380 - 2591151" locus_tag="LLPMBPKK_02219" class="clusterblast-orf" id="dummy-12_q42_0_all"  />
<polygon points="660,35 665,30 667,30 667,40 665,40 660,35 " style="fill:#3315d8; stroke-width:1; stroke:black; " description="&lt;b&gt;LLPMBPKK_02220&lt;/b&gt;&lt;br&gt;butenolide phosphate reductase BprA&lt;br&gt;Location: 2591216 - 2592101" locus_tag="LLPMBPKK_02220" class="clusterblast-orf" id="dummy-12_q43_0_all"  />
<polygon points="667,35 672,30 673,30 673,40 672,40 667,35 " style="fill:#15d87e; stroke-width:1; stroke:black; " description="&lt;b&gt;LLPMBPKK_02221&lt;/b&gt;&lt;br&gt;TetR/AcrR family transcriptional regulator&lt;br&gt;Location: 2592097 - 2592727" locus_tag="LLPMBPKK_02221" class="clusterblast-orf" id="dummy-12_q44_0_all"  />
<polygon points="674,40 676,40 681,35 676,30 674,30 674,40 " style="fill:#d8156f; stroke-width:1; stroke:black; " description="&lt;b&gt;LLPMBPKK_02222&lt;/b&gt;&lt;br&gt;ScbA protein&lt;br&gt;Location: 2592851 - 2593775" locus_tag="LLPMBPKK_02222" class="clusterblast-orf" id="dummy-12_q45_0_all"  />
<polygon points="682,35 687,30 689,30 689,40 687,40 682,35 " style="fill:#bad815; stroke-width:1; stroke:black; " description="&lt;b&gt;LLPMBPKK_02223&lt;/b&gt;&lt;br&gt;type 11 methyltransferase&lt;br&gt;Location: 2593908 - 2594754" locus_tag="LLPMBPKK_02223" class="clusterblast-orf" id="dummy-12_q46_0_all"  />
<polygon points="690,35 695,30 703,30 703,40 695,40 690,35 " style="fill:#15d8ab; stroke-width:1; stroke:black; " description="&lt;b&gt;LLPMBPKK_02224&lt;/b&gt;&lt;br&gt;DHA2 family efflux MFS transporter permeasesubunit&lt;br&gt;Location: 2594904 - 2596410" locus_tag="LLPMBPKK_02224" class="clusterblast-orf" id="dummy-12_q47_0_all"  />
<polygon points="704,40 704,40 709,35 704,30 704,30 704,40 " style="fill:#6015d8; stroke-width:1; stroke:black; " description="&lt;b&gt;LLPMBPKK_02225&lt;/b&gt;&lt;br&gt;TetR family transcriptional regulator&lt;br&gt;Location: 2596528 - 2597149" locus_tag="LLPMBPKK_02225" class="clusterblast-orf" id="dummy-12_q48_0_all"  />
<polygon points="710,40 713,40 718,35 713,30 710,30 710,40 " style="fill:#d8156f; stroke-width:1; stroke:black; " description="&lt;b&gt;LLPMBPKK_02226&lt;/b&gt;&lt;br&gt;gamma-butyrolactone biosynthesis protein&lt;br&gt;Location: 2597336 - 2598362" locus_tag="LLPMBPKK_02226" class="clusterblast-orf" id="dummy-12_q49_0_all"  />
<polygon points="719,40 720,40 725,35 720,30 719,30 719,40 " style="fill:#15d824; stroke-width:1; stroke:black; " description="&lt;b&gt;LLPMBPKK_02227&lt;/b&gt;&lt;br&gt;3-oxoacyl-[acyl-carrier-protein] reductase&lt;br&gt;Location: 2598410 - 2599115" locus_tag="LLPMBPKK_02227" class="clusterblast-orf" id="dummy-12_q50_0_all"  />
<polygon points="725,40 725,40 730,35 725,30 725,30 725,40 " style="fill:#d81542; stroke-width:1; stroke:black; " description="&lt;b&gt;LLPMBPKK_02228&lt;/b&gt;&lt;br&gt;HAD family phosphatase&lt;br&gt;Location: 2599150 - 2599816" locus_tag="LLPMBPKK_02228" class="clusterblast-orf" id="dummy-12_q51_0_all"  />
<polygon points="731,40 734,40 739,35 734,30 731,30 731,40 " style="fill:#8dd815; stroke-width:1; stroke:black; " description="&lt;b&gt;LLPMBPKK_02229&lt;/b&gt;&lt;br&gt;hypothetical protein&lt;br&gt;Location: 2599848 - 2600850" locus_tag="LLPMBPKK_02229" class="clusterblast-orf" id="dummy-12_q52_0_all"  />
<polygon points="740,35 745,30 748,30 748,40 745,40 740,35 " style="fill:white; stroke-width:1; stroke:black; " description="&lt;b&gt;LLPMBPKK_02230&lt;/b&gt;&lt;br&gt;2,3,4,5-tetrahydropyridine-2,6-dicarboxylate N-succinyltransferase&lt;br&gt;Location: 2600980 - 2601967" locus_tag="LLPMBPKK_02230" class="clusterblast-orf" id="dummy-12_q53_0_all"  />
<polygon points="748,35 753,30 753,30 753,40 753,40 748,35 " style="fill:white; stroke-width:1; stroke:black; " description="&lt;b&gt;LLPMBPKK_02231&lt;/b&gt;&lt;br&gt;TetR family transcriptional regulator&lt;br&gt;Location: 2602031 - 2602568" locus_tag="LLPMBPKK_02231" class="clusterblast-orf" id="dummy-12_q54_0_all"  />
<polygon points="753,35 755,30 755,40 753,35 " style="fill:white; stroke-width:1; stroke:black; " description="&lt;b&gt;LLPMBPKK_02232&lt;/b&gt;&lt;br&gt;multidrug efflux SMR transporter&lt;br&gt;Location: 2602567 - 2602891" locus_tag="LLPMBPKK_02232" class="clusterblast-orf" id="dummy-12_q55_0_all"  />
<polygon points="756,40 757,40 762,35 757,30 756,30 756,40 " style="fill:#15d8d8; stroke-width:1; stroke:black; " description="&lt;b&gt;LLPMBPKK_02233&lt;/b&gt;&lt;br&gt;alpha-L-arabinofuranosidase&lt;br&gt;Location: 2602997 - 2603738" locus_tag="LLPMBPKK_02233" class="clusterblast-orf" id="dummy-12_q56_0_all"  />
<polygon points="763,35 765,30 765,40 763,35 " style="fill:white; stroke-width:1; stroke:black; " description="&lt;b&gt;LLPMBPKK_02234&lt;/b&gt;&lt;br&gt;metal-sulfur cluster assembly factor&lt;br&gt;Location: 2603794 - 2604127" locus_tag="LLPMBPKK_02234" class="clusterblast-orf" id="dummy-12_q57_0_all"  />
<polygon points="765,35 769,30 769,40 765,35 " style="fill:white; stroke-width:1; stroke:black; " description="&lt;b&gt;LLPMBPKK_02235&lt;/b&gt;&lt;br&gt;SUF system NifU family Fe-S cluster assemblyprotein&lt;br&gt;Location: 2604123 - 2604576" locus_tag="LLPMBPKK_02235" class="clusterblast-orf" id="dummy-12_q58_0_all"  />
<polygon points="769,35 774,30 780,30 780,40 774,40 769,35 " style="fill:white; stroke-width:1; stroke:black; " description="&lt;b&gt;LLPMBPKK_02236&lt;/b&gt;&lt;br&gt;cysteine desulfurase&lt;br&gt;Location: 2604607 - 2605864" locus_tag="LLPMBPKK_02236" class="clusterblast-orf" id="dummy-12_q59_0_all"  />
</g>
<g label="NZ_CP023702" description="NZ_CP023702 (6870558-6911620): Streptomyces nitrosporeus strain ATCC 12769 ch... (63% of genes show similarity), PKS-like,butyrolactone" class="clusterblast-cluster"  >
<text x="5" y="70" class="clusterblast-acc"  >
<a xlink:href="https://antismash-db.secondarymetabolites.org/area.html?record=NZ_CP023702&amp;start=6870558&amp;end=6911620" target="_blank">NZ_CP023702 (6870558-6911620)</a>: Streptomyces nitrosporeus strain ATCC 12769 ch... (63% of genes show similarity), PKS-like,butyrolactone</text>
<line x1="10" y1="85" x2="778.0" y2="85" style="stroke-width:1; stroke:grey; "  />
</g>
<g id="a12_000"  >
<polygon points="223,85 228,80 231,80 231,90 228,90 223,85 " style="fill:white; stroke-width:1; stroke:black; " description="&lt;b&gt;CP967_RS30600&lt;/b&gt;&lt;br&gt;SAM-dependent methyltransferase&lt;br&gt;Location: 6911604 - 6910615" locus_tag="CP967_RS30600" class="clusterblast-orf" id="dummy-12_h12_1_0"  />
</g>
<g id="a12_001"  >
<polygon points="231,85 236,80 240,80 240,90 236,90 231,85 " style="fill:white; stroke-width:1; stroke:black; " description="&lt;b&gt;CP967_RS30595&lt;/b&gt;&lt;br&gt;alcohol dehydrogenase catalytic domain-containing protein&lt;br&gt;Location: 6910618 - 6909512" locus_tag="CP967_RS30595" class="clusterblast-orf" id="dummy-12_h12_1_1"  />
</g>
<g id="a12_002"  >
<polygon points="240,85 245,80 252,80 252,90 245,90 240,85 " style="fill:white; stroke-width:1; stroke:black; " description="&lt;b&gt;CP967_RS30590&lt;/b&gt;&lt;br&gt;aldehyde dehydrogenase family protein&lt;br&gt;Location: 6909515 - 6908106" locus_tag="CP967_RS30590" class="clusterblast-orf" id="dummy-12_h12_1_2"  />
</g>
<g id="a12_003"  >
<polygon points="252,85 257,80 258,80 258,90 257,90 252,85 " style="fill:white; stroke-width:1; stroke:black; " description="&lt;b&gt;CP967_RS30585&lt;/b&gt;&lt;br&gt;(5-formylfuran-3-yl)methyl phosphate synthase&lt;br&gt;Location: 6908097 - 6907342" locus_tag="CP967_RS30585" class="clusterblast-orf" id="dummy-12_h12_1_3"  />
</g>
<g id="a12_004"  >
<polygon points="263,90 266,85 263,80 263,90 " style="fill:white; stroke-width:1; stroke:black; " description="&lt;b&gt;CP967_RS30580&lt;/b&gt;&lt;br&gt;FKBP-type peptidyl-prolyl cis-trans isomerase&lt;br&gt;Location: 6906801 - 6906382" locus_tag="CP967_RS30580" class="clusterblast-orf" id="dummy-12_h12_1_4"  />
</g>
<g id="a12_005"  >
<polygon points="270,90 273,85 270,80 270,90 " style="fill:white; stroke-width:1; stroke:black; " description="&lt;b&gt;CP967_RS30575&lt;/b&gt;&lt;br&gt;hypothetical protein&lt;br&gt;Location: 6905921 - 6905556" locus_tag="CP967_RS30575" class="clusterblast-orf" id="dummy-12_h12_1_5"  />
</g>
<g id="a12_006"  >
<polygon points="275,85 280,80 285,80 285,90 280,90 275,85 " style="fill:white; stroke-width:1; stroke:black; " description="&lt;b&gt;CP967_RS30565&lt;/b&gt;&lt;br&gt;NAD(P)-binding domain-containing protein&lt;br&gt;Location: 6905325 - 6904081" locus_tag="CP967_RS30565" class="clusterblast-orf" id="dummy-12_h12_1_6"  />
</g>
<g id="a12_007"  >
<polygon points="288,85 293,80 298,80 298,90 293,90 288,85 " style="fill:#d84215; stroke-width:1; stroke:black; " description="&lt;b&gt;CP967_RS30560&lt;/b&gt;&lt;br&gt;FAD-dependent oxidoreductase&lt;br&gt;Location: 6903718 - 6902438&lt;br&gt;&lt;br&gt;&lt;b&gt;BlastP hit with LLPMBPKK_02195&lt;/b&gt;&lt;br&gt;Percentage identity: 65&lt;br&gt;Percentage coverage: 96&lt;br&gt;BLAST bit score: 514&lt;br&gt;E-value: 3.19e-180" locus_tag="CP967_RS30560" class="clusterblast-orf" id="dummy-12_h12_1_7"  />
</g>
<g id="a12_008"  >
<polygon points="298,85 299,80 299,90 298,85 " style="fill:#33d815; stroke-width:1; stroke:black; " description="&lt;b&gt;CP967_RS30555&lt;/b&gt;&lt;br&gt;ferredoxin&lt;br&gt;Location: 6902471 - 6902277&lt;br&gt;&lt;br&gt;&lt;b&gt;BlastP hit with LLPMBPKK_02196&lt;/b&gt;&lt;br&gt;Percentage identity: 74&lt;br&gt;Percentage coverage: 95&lt;br&gt;BLAST bit score: 97&lt;br&gt;E-value: 5.18e-27" locus_tag="CP967_RS30555" class="clusterblast-orf" id="dummy-12_h12_1_8"  />
</g>
<g id="a12_009"  >
<polygon points="302,85 307,80 315,80 315,90 307,90 302,85 " style="fill:#d81515; stroke-width:1; stroke:black; " description="&lt;b&gt;CP967_RS30550&lt;/b&gt;&lt;br&gt;hypothetical protein&lt;br&gt;Location: 6901935 - 6900379&lt;br&gt;&lt;br&gt;&lt;b&gt;BlastP hit with LLPMBPKK_02191&lt;/b&gt;&lt;br&gt;Percentage identity: 32&lt;br&gt;Percentage coverage: 86&lt;br&gt;BLAST bit score: 144&lt;br&gt;E-value: 1.82e-35&lt;br&gt;&lt;br&gt;&lt;b&gt;BlastP hit with LLPMBPKK_02198&lt;/b&gt;&lt;br&gt;Percentage identity: 81&lt;br&gt;Percentage coverage: 95&lt;br&gt;BLAST bit score: 830&lt;br&gt;E-value: 9.21e-302" locus_tag="CP967_RS30550" class="clusterblast-orf" id="dummy-12_h12_1_9"  />
</g>
<g id="a12_0010"  >
<polygon points="315,85 320,80 323,80 323,90 320,90 315,85 " style="fill:#8d15d8; stroke-width:1; stroke:black; " description="&lt;b&gt;CP967_RS30545&lt;/b&gt;&lt;br&gt;zinc-binding dehydrogenase&lt;br&gt;Location: 6900320 - 6899340&lt;br&gt;&lt;br&gt;&lt;b&gt;BlastP hit with LLPMBPKK_02199&lt;/b&gt;&lt;br&gt;Percentage identity: 81&lt;br&gt;Percentage coverage: 100&lt;br&gt;BLAST bit score: 513&lt;br&gt;E-value: 3.65e-183" locus_tag="CP967_RS30545" class="clusterblast-orf" id="dummy-12_h12_1_10"  />
</g>
<g id="a12_0011"  >
<polygon points="326,90 326,90 331,85 326,80 326,80 326,90 " style="fill:#ba15d8; stroke-width:1; stroke:black; " description="&lt;b&gt;CP967_RS30540&lt;/b&gt;&lt;br&gt;DUF2306 domain-containing protein&lt;br&gt;Location: 6898971 - 6898360&lt;br&gt;&lt;br&gt;&lt;b&gt;BlastP hit with LLPMBPKK_02200&lt;/b&gt;&lt;br&gt;Percentage identity: 80&lt;br&gt;Percentage coverage: 97&lt;br&gt;BLAST bit score: 343&lt;br&gt;E-value: 5.37e-120" locus_tag="CP967_RS30540" class="clusterblast-orf" id="dummy-12_h12_1_11"  />
</g>
<g id="a12_0012"  >
<polygon points="332,85 334,80 334,90 332,85 " style="fill:white; stroke-width:1; stroke:black; " description="&lt;b&gt;CP967_RS30535&lt;/b&gt;&lt;br&gt;hypothetical protein&lt;br&gt;Location: 6898256 - 6898035" locus_tag="CP967_RS30535" class="clusterblast-orf" id="dummy-12_h12_1_12"  />
</g>
<g id="a12_0013"  >
<polygon points="346,85 351,80 357,80 357,90 351,90 346,85 " style="fill:#1551d8; stroke-width:1; stroke:black; " description="&lt;b&gt;CP967_RS30530&lt;/b&gt;&lt;br&gt;AAA family ATPase&lt;br&gt;Location: 6896509 - 6895166&lt;br&gt;&lt;br&gt;&lt;b&gt;BlastP hit with LLPMBPKK_02209&lt;/b&gt;&lt;br&gt;Percentage identity: 61&lt;br&gt;Percentage coverage: 100&lt;br&gt;BLAST bit score: 457&lt;br&gt;E-value: 4.36e-157" locus_tag="CP967_RS30530" class="clusterblast-orf" id="dummy-12_h12_1_13"  />
</g>
<g id="a12_0014"  >
<polygon points="364,90 368,90 373,85 368,80 364,80 364,90 " style="fill:#d815c9; stroke-width:1; stroke:black; " description="&lt;b&gt;CP967_RS30525&lt;/b&gt;&lt;br&gt;transposase&lt;br&gt;Location: 6894402 - 6893233&lt;br&gt;&lt;br&gt;&lt;b&gt;BlastP hit with LLPMBPKK_02210&lt;/b&gt;&lt;br&gt;Percentage identity: 67&lt;br&gt;Percentage coverage: 100&lt;br&gt;BLAST bit score: 492&lt;br&gt;E-value: 5.44e-173" locus_tag="CP967_RS30525" class="clusterblast-orf" id="dummy-12_h12_1_14"  />
</g>
<g id="a12_0015"  >
<polygon points="374,90 375,90 380,85 375,80 374,80 374,90 " style="fill:#15d824; stroke-width:1; stroke:black; " description="&lt;b&gt;CP967_RS30520&lt;/b&gt;&lt;br&gt;SDR family oxidoreductase&lt;br&gt;Location: 6893167 - 6892386&lt;br&gt;&lt;br&gt;&lt;b&gt;BlastP hit with LLPMBPKK_02208&lt;/b&gt;&lt;br&gt;Percentage identity: 43&lt;br&gt;Percentage coverage: 67&lt;br&gt;BLAST bit score: 105&lt;br&gt;E-value: 2.65e-25&lt;br&gt;&lt;br&gt;&lt;b&gt;BlastP hit with LLPMBPKK_02211&lt;/b&gt;&lt;br&gt;Percentage identity: 66&lt;br&gt;Percentage coverage: 69&lt;br&gt;BLAST bit score: 218&lt;br&gt;E-value: 6.24e-69" locus_tag="CP967_RS30520" class="clusterblast-orf" id="dummy-12_h12_1_15"  />
</g>
<g id="a12_0016"  >
<polygon points="380,85 385,80 386,80 386,90 385,90 380,85 " style="fill:#d89c15; stroke-width:1; stroke:black; " description="&lt;b&gt;CP967_RS30515&lt;/b&gt;&lt;br&gt;4'-phosphopantetheinyl transferase superfamily protein&lt;br&gt;Location: 6892374 - 6891667&lt;br&gt;&lt;br&gt;&lt;b&gt;BlastP hit with LLPMBPKK_02213&lt;/b&gt;&lt;br&gt;Percentage identity: 68&lt;br&gt;Percentage coverage: 97&lt;br&gt;BLAST bit score: 290&lt;br&gt;E-value: 5.58e-98" locus_tag="CP967_RS30515" class="clusterblast-orf" id="dummy-12_h12_1_16"  />
</g>
<g id="a12_0017"  >
<polygon points="386,85 391,80 395,80 395,90 391,90 386,85 " style="fill:#15d851; stroke-width:1; stroke:black; " description="&lt;b&gt;CP967_RS30510&lt;/b&gt;&lt;br&gt;3-oxoacyl-ACP synthase&lt;br&gt;Location: 6891620 - 6890559&lt;br&gt;&lt;br&gt;&lt;b&gt;BlastP hit with LLPMBPKK_02214&lt;/b&gt;&lt;br&gt;Percentage identity: 72&lt;br&gt;Percentage coverage: 99&lt;br&gt;BLAST bit score: 503&lt;br&gt;E-value: 3.31e-178" locus_tag="CP967_RS30510" class="clusterblast-orf" id="dummy-12_h12_1_17"  />
</g>
<g id="a12_0018"  >
<polygon points="397,90 400,85 397,80 397,90 " style="fill:#1524d8; stroke-width:1; stroke:black; " description="&lt;b&gt;CP967_RS30505&lt;/b&gt;&lt;br&gt;acyl carrier protein&lt;br&gt;Location: 6890259 - 6889987&lt;br&gt;&lt;br&gt;&lt;b&gt;BlastP hit with LLPMBPKK_02215&lt;/b&gt;&lt;br&gt;Percentage identity: 80&lt;br&gt;Percentage coverage: 100&lt;br&gt;BLAST bit score: 133&lt;br&gt;E-value: 2.05e-40" locus_tag="CP967_RS30505" class="clusterblast-orf" id="dummy-12_h12_1_18"  />
</g>
<g id="a12_0019"  >
<polygon points="399,90 404,90 409,85 404,80 399,80 399,90 " style="fill:#d8159c; stroke-width:1; stroke:black; " description="&lt;b&gt;CP967_RS30500&lt;/b&gt;&lt;br&gt;beta-ketoacyl-[acyl-carrier-protein] synthase family protein&lt;br&gt;Location: 6889994 - 6888768&lt;br&gt;&lt;br&gt;&lt;b&gt;BlastP hit with LLPMBPKK_02216&lt;/b&gt;&lt;br&gt;Percentage identity: 88&lt;br&gt;Percentage coverage: 100&lt;br&gt;BLAST bit score: 711&lt;br&gt;E-value: 1.01e-258" locus_tag="CP967_RS30500" class="clusterblast-orf" id="dummy-12_h12_1_19"  />
</g>
<g id="a12_0020"  >
<polygon points="409,90 414,90 419,85 414,80 409,80 409,90 " style="fill:#d8c915; stroke-width:1; stroke:black; " description="&lt;b&gt;CP967_RS30495&lt;/b&gt;&lt;br&gt;hypothetical protein&lt;br&gt;Location: 6888771 - 6887563&lt;br&gt;&lt;br&gt;&lt;b&gt;BlastP hit with LLPMBPKK_02217&lt;/b&gt;&lt;br&gt;Percentage identity: 74&lt;br&gt;Percentage coverage: 98&lt;br&gt;BLAST bit score: 545&lt;br&gt;E-value: 1.96e-193" locus_tag="CP967_RS30495" class="clusterblast-orf" id="dummy-12_h12_1_20"  />
</g>
<g id="a12_0021"  >
<polygon points="421,90 423,90 428,85 423,80 421,80 421,90 " style="fill:#15d87e; stroke-width:1; stroke:black; " description="&lt;b&gt;CP967_RS30490&lt;/b&gt;&lt;br&gt;TetR family transcriptional regulator&lt;br&gt;Location: 6887349 - 6886507&lt;br&gt;&lt;br&gt;&lt;b&gt;BlastP hit with LLPMBPKK_02218&lt;/b&gt;&lt;br&gt;Percentage identity: 71&lt;br&gt;Percentage coverage: 85&lt;br&gt;BLAST bit score: 277&lt;br&gt;E-value: 2.99e-92" locus_tag="CP967_RS30490" class="clusterblast-orf" id="dummy-12_h12_1_21"  />
</g>
<g id="a12_0022"  >
<polygon points="428,85 433,80 434,80 434,90 433,90 428,85 " style="fill:#15d824; stroke-width:1; stroke:black; " description="&lt;b&gt;CP967_RS30485&lt;/b&gt;&lt;br&gt;glucose 1-dehydrogenase&lt;br&gt;Location: 6886553 - 6885765&lt;br&gt;&lt;br&gt;&lt;b&gt;BlastP hit with LLPMBPKK_02219&lt;/b&gt;&lt;br&gt;Percentage identity: 85&lt;br&gt;Percentage coverage: 98&lt;br&gt;BLAST bit score: 408&lt;br&gt;E-value: 8.5e-144&lt;br&gt;&lt;br&gt;&lt;b&gt;BlastP hit with LLPMBPKK_02227&lt;/b&gt;&lt;br&gt;Percentage identity: 31&lt;br&gt;Percentage coverage: 103&lt;br&gt;BLAST bit score: 103&lt;br&gt;E-value: 9.99e-25" locus_tag="CP967_RS30485" class="clusterblast-orf" id="dummy-12_h12_1_22"  />
</g>
<g id="a12_0023"  >
<polygon points="436,85 441,80 441,80 441,90 441,90 436,85 " style="fill:#15d87e; stroke-width:1; stroke:black; " description="&lt;b&gt;CP967_RS30480&lt;/b&gt;&lt;br&gt;TetR family transcriptional regulator&lt;br&gt;Location: 6885529 - 6884897&lt;br&gt;&lt;br&gt;&lt;b&gt;BlastP hit with LLPMBPKK_02221&lt;/b&gt;&lt;br&gt;Percentage identity: 78&lt;br&gt;Percentage coverage: 99&lt;br&gt;BLAST bit score: 317&lt;br&gt;E-value: 1.29e-109" locus_tag="CP967_RS30480" class="clusterblast-orf" id="dummy-12_h12_1_23"  />
</g>
<g id="a12_0024"  >
<polygon points="442,90 445,90 450,85 445,80 442,80 442,90 " style="fill:#d8156f; stroke-width:1; stroke:black; " description="&lt;b&gt;CP967_RS30475&lt;/b&gt;&lt;br&gt;hypothetical protein&lt;br&gt;Location: 6884749 - 6883835&lt;br&gt;&lt;br&gt;&lt;b&gt;BlastP hit with LLPMBPKK_02222&lt;/b&gt;&lt;br&gt;Percentage identity: 74&lt;br&gt;Percentage coverage: 94&lt;br&gt;BLAST bit score: 417&lt;br&gt;E-value: 6.19e-146" locus_tag="CP967_RS30475" class="clusterblast-orf" id="dummy-12_h12_1_24"  />
</g>
<g id="a12_0025"  >
<polygon points="451,85 456,80 463,80 463,90 456,90 451,85 " style="fill:#15d8ab; stroke-width:1; stroke:black; " description="&lt;b&gt;CP967_RS30470&lt;/b&gt;&lt;br&gt;MFS transporter&lt;br&gt;Location: 6883646 - 6882177&lt;br&gt;&lt;br&gt;&lt;b&gt;BlastP hit with LLPMBPKK_02224&lt;/b&gt;&lt;br&gt;Percentage identity: 83&lt;br&gt;Percentage coverage: 97&lt;br&gt;BLAST bit score: 733&lt;br&gt;E-value: 1.17e-264" locus_tag="CP967_RS30470" class="clusterblast-orf" id="dummy-12_h12_1_25"  />
</g>
<g id="a12_0026"  >
<polygon points="464,90 465,90 470,85 465,80 464,80 464,90 " style="fill:#6015d8; stroke-width:1; stroke:black; " description="&lt;b&gt;CP967_RS30465&lt;/b&gt;&lt;br&gt;TetR family transcriptional regulator&lt;br&gt;Location: 6882012 - 6881392&lt;br&gt;&lt;br&gt;&lt;b&gt;BlastP hit with LLPMBPKK_02225&lt;/b&gt;&lt;br&gt;Percentage identity: 80&lt;br&gt;Percentage coverage: 100&lt;br&gt;BLAST bit score: 325&lt;br&gt;E-value: 6.33e-113" locus_tag="CP967_RS30465" class="clusterblast-orf" id="dummy-12_h12_1_26"  />
</g>
<g id="a12_0027"  >
<polygon points="474,90 478,90 483,85 478,80 474,80 474,90 " style="fill:#d8156f; stroke-width:1; stroke:black; " description="&lt;b&gt;CP967_RS30460&lt;/b&gt;&lt;br&gt;hypothetical protein&lt;br&gt;Location: 6880808 - 6879780&lt;br&gt;&lt;br&gt;&lt;b&gt;BlastP hit with LLPMBPKK_02226&lt;/b&gt;&lt;br&gt;Percentage identity: 68&lt;br&gt;Percentage coverage: 99&lt;br&gt;BLAST bit score: 431&lt;br&gt;E-value: 2.07e-150" locus_tag="CP967_RS30460" class="clusterblast-orf" id="dummy-12_h12_1_27"  />
</g>
<g id="a12_0028"  >
<polygon points="483,90 484,90 489,85 484,80 483,80 483,90 " style="fill:#15d824; stroke-width:1; stroke:black; " description="&lt;b&gt;CP967_RS30455&lt;/b&gt;&lt;br&gt;3-oxoacyl-ACP reductase FabG&lt;br&gt;Location: 6879733 - 6879029&lt;br&gt;&lt;br&gt;&lt;b&gt;BlastP hit with LLPMBPKK_02219&lt;/b&gt;&lt;br&gt;Percentage identity: 31&lt;br&gt;Percentage coverage: 95&lt;br&gt;BLAST bit score: 96&lt;br&gt;E-value: 5.61e-22&lt;br&gt;&lt;br&gt;&lt;b&gt;BlastP hit with LLPMBPKK_02227&lt;/b&gt;&lt;br&gt;Percentage identity: 88&lt;br&gt;Percentage coverage: 100&lt;br&gt;BLAST bit score: 408&lt;br&gt;E-value: 9.14e-145" locus_tag="CP967_RS30455" class="clusterblast-orf" id="dummy-12_h12_1_28"  />
</g>
<g id="a12_0029"  >
<polygon points="489,90 490,90 495,85 490,80 489,80 489,90 " style="fill:#d81542; stroke-width:1; stroke:black; " description="&lt;b&gt;CP967_RS30450&lt;/b&gt;&lt;br&gt;HAD-IA family hydrolase&lt;br&gt;Location: 6878965 - 6878324&lt;br&gt;&lt;br&gt;&lt;b&gt;BlastP hit with LLPMBPKK_02228&lt;/b&gt;&lt;br&gt;Percentage identity: 78&lt;br&gt;Percentage coverage: 96&lt;br&gt;BLAST bit score: 362&lt;br&gt;E-value: 7.04e-127" locus_tag="CP967_RS30450" class="clusterblast-orf" id="dummy-12_h12_1_29"  />
</g>
<g id="a12_0030"  >
<polygon points="495,90 498,90 503,85 498,80 495,80 495,90 " style="fill:#8dd815; stroke-width:1; stroke:black; " description="&lt;b&gt;CP967_RS30445&lt;/b&gt;&lt;br&gt;alpha/beta fold hydrolase&lt;br&gt;Location: 6878290 - 6877283&lt;br&gt;&lt;br&gt;&lt;b&gt;BlastP hit with LLPMBPKK_02229&lt;/b&gt;&lt;br&gt;Percentage identity: 66&lt;br&gt;Percentage coverage: 100&lt;br&gt;BLAST bit score: 426&lt;br&gt;E-value: 1.13e-148" locus_tag="CP967_RS30445" class="clusterblast-orf" id="dummy-12_h12_1_30"  />
</g>
<g id="a12_0031"  >
<polygon points="513,85 516,80 516,90 513,85 " style="fill:white; stroke-width:1; stroke:black; " description="&lt;b&gt;CP967_RS30435&lt;/b&gt;&lt;br&gt;YjbQ family protein&lt;br&gt;Location: 6876059 - 6875637" locus_tag="CP967_RS30435" class="clusterblast-orf" id="dummy-12_h12_1_31"  />
</g>
<g id="a12_0032"  >
<polygon points="517,90 521,90 526,85 521,80 517,80 517,90 " style="fill:white; stroke-width:1; stroke:black; " description="&lt;b&gt;CP967_RS30430&lt;/b&gt;&lt;br&gt;NAD(P)-binding domain-containing protein&lt;br&gt;Location: 6875534 - 6874452" locus_tag="CP967_RS30430" class="clusterblast-orf" id="dummy-12_h12_1_32"  />
</g>
<g id="a12_0033"  >
<polygon points="529,85 534,80 534,80 534,90 534,90 529,85 " style="fill:white; stroke-width:1; stroke:black; " description="&lt;b&gt;CP967_RS30425&lt;/b&gt;&lt;br&gt;hypothetical protein&lt;br&gt;Location: 6874154 - 6873513" locus_tag="CP967_RS30425" class="clusterblast-orf" id="dummy-12_h12_1_33"  />
</g>
<g id="a12_0034"  >
<polygon points="535,85 540,80 550,80 550,90 540,90 535,85 " style="fill:white; stroke-width:1; stroke:black; " description="&lt;b&gt;CP967_RS30420&lt;/b&gt;&lt;br&gt;ATP-binding cassette domain-containing protein&lt;br&gt;Location: 6873368 - 6871563" locus_tag="CP967_RS30420" class="clusterblast-orf" id="dummy-12_h12_1_34"  />
</g>
<g id="a12_0035"  >
<polygon points="552,90 556,85 552,80 552,90 " style="fill:white; stroke-width:1; stroke:black; " description="&lt;b&gt;CP967_RS30415&lt;/b&gt;&lt;br&gt;MarR family transcriptional regulator&lt;br&gt;Location: 6871279 - 6870833" locus_tag="CP967_RS30415" class="clusterblast-orf" id="dummy-12_h12_1_35"  />
</g>
</svg>
