<svg xmlns="http://www.w3.org/2000/svg" xmlns:xlink="http://www.w3.org/1999/xlink" version="1.1" x="0" y="0" height="230" width="800" viewBox="0 0 800 230" preserveAspectRatio="none"  >
<g label="Query sequence" class="clusterblast-cluster"  >
<text x="5" y="20" class="clusterblast-acc"  >
Query sequence</text>
<line x1="10" y1="35" x2="778.0" y2="35" style="stroke-width:1; stroke:grey; "  />
<polygon points="0,40 3,40 8,35 3,30 0,30 0,40 " style="fill:#d81515; stroke-width:1; stroke:black; " description="&lt;b&gt;LLPMBPKK_07173&lt;/b&gt;&lt;br&gt;Polysaccharide deacetylase&lt;br&gt;Location: 8309065 - 8309899" locus_tag="LLPMBPKK_07173" class="clusterblast-orf" id="dummy-31_q0_0_all"  />
<polygon points="12,35 17,30 23,30 23,40 17,40 12,35 " style="fill:#77d815; stroke-width:1; stroke:black; " description="&lt;b&gt;LLPMBPKK_07174&lt;/b&gt;&lt;br&gt;Processive diacylglycerolbeta-glucosyltransferase&lt;br&gt;Location: 8310344 - 8311391" locus_tag="LLPMBPKK_07174" class="clusterblast-orf" id="dummy-31_q1_0_all"  />
<polygon points="25,40 29,40 34,35 29,30 25,30 25,40 " style="fill:#15d8d8; stroke-width:1; stroke:black; " description="&lt;b&gt;LLPMBPKK_07175&lt;/b&gt;&lt;br&gt;hypothetical protein&lt;br&gt;Location: 8311642 - 8312464" locus_tag="LLPMBPKK_07175" class="clusterblast-orf" id="dummy-31_q2_0_all"  />
<polygon points="34,35 39,30 62,30 62,40 39,40 34,35 " style="fill:#7715d8; stroke-width:1; stroke:black; " description="&lt;b&gt;LLPMBPKK_07176&lt;/b&gt;&lt;br&gt;NHLP bacteriocin export ABC transporterpermease/ATPase subunit&lt;br&gt;Location: 8312460 - 8315277" locus_tag="LLPMBPKK_07176" class="clusterblast-orf" id="dummy-31_q3_0_all"  />
<polygon points="62,35 67,30 84,30 84,40 67,40 62,35 " style="fill:#7715d8; stroke-width:1; stroke:black; " description="&lt;b&gt;LLPMBPKK_07177&lt;/b&gt;&lt;br&gt;NHLP family bacteriocin export ABC transporter peptidase/permease/ATPase subunit&lt;br&gt;Location: 8315278 - 8317501" locus_tag="LLPMBPKK_07177" class="clusterblast-orf" id="dummy-31_q4_0_all"  />
<polygon points="84,35 89,30 92,30 92,40 89,40 84,35 " style="fill:#d83f15; stroke-width:1; stroke:black; " description="&lt;b&gt;LLPMBPKK_07178&lt;/b&gt;&lt;br&gt;HlyD family efflux transporter periplasmicadaptor subunit&lt;br&gt;Location: 8317497 - 8318304" locus_tag="LLPMBPKK_07178" class="clusterblast-orf" id="dummy-31_q5_0_all"  />
<polygon points="93,35 96,30 96,40 93,35 " style="fill:#4dd815; stroke-width:1; stroke:black; " description="&lt;b&gt;LLPMBPKK_07179&lt;/b&gt;&lt;br&gt;hypothetical protein&lt;br&gt;Location: 8318405 - 8318624" locus_tag="LLPMBPKK_07179" class="clusterblast-orf" id="dummy-31_q6_0_all"  />
<polygon points="100,35 103,30 103,40 100,35 " style="fill:#15aed8; stroke-width:1; stroke:black; " description="&lt;b&gt;LLPMBPKK_07180&lt;/b&gt;&lt;br&gt;PaaI family thioesterase&lt;br&gt;Location: 8319076 - 8319319" locus_tag="LLPMBPKK_07180" class="clusterblast-orf" id="dummy-31_q7_0_all"  />
<polygon points="106,40 116,40 121,35 116,30 106,30 106,40 " style="fill:#a115d8; stroke-width:1; stroke:black; " description="&lt;b&gt;LLPMBPKK_07181&lt;/b&gt;&lt;br&gt;S1 family peptidase&lt;br&gt;Location: 8319665 - 8321150" locus_tag="LLPMBPKK_07181" class="clusterblast-orf" id="dummy-31_q8_0_all"  />
<polygon points="122,35 127,30 144,30 144,40 127,40 122,35 " style="fill:#d86915; stroke-width:1; stroke:black; " description="&lt;b&gt;LLPMBPKK_07182&lt;/b&gt;&lt;br&gt;magnesium or manganese-dependent proteinphosphatase&lt;br&gt;Location: 8321293 - 8323417" locus_tag="LLPMBPKK_07182" class="clusterblast-orf" id="dummy-31_q9_0_all"  />
<polygon points="159,40 166,40 171,35 166,30 159,30 159,40 " style="fill:#23d815; stroke-width:1; stroke:black; " description="&lt;b&gt;LLPMBPKK_07183&lt;/b&gt;&lt;br&gt;cytochrome P450&lt;br&gt;Location: 8324921 - 8326130" locus_tag="LLPMBPKK_07183" class="clusterblast-orf" id="dummy-31_q10_0_all"  />
<polygon points="172,40 181,40 186,35 181,30 172,30 172,40 " style="fill:#1585d8; stroke-width:1; stroke:black; " description="&lt;b&gt;LLPMBPKK_07184&lt;/b&gt;&lt;br&gt;alpha/beta hydrolase MppK&lt;br&gt;Location: 8326230 - 8327592" locus_tag="LLPMBPKK_07184" class="clusterblast-orf" id="dummy-31_q11_0_all"  />
<polygon points="191,40 373,40 378,35 373,30 191,30 191,40 " style="fill:#ca15d8; stroke-width:1; stroke:black; " description="&lt;b&gt;LLPMBPKK_07185&lt;/b&gt;&lt;br&gt;non-ribosomal peptide synthetase&lt;br&gt;Location: 8328105 - 8346762" locus_tag="LLPMBPKK_07185" class="clusterblast-orf" id="dummy-31_q12_0_all"  />
<polygon points="378,40 575,40 580,35 575,30 378,30 378,40 " style="fill:#ca15d8; stroke-width:1; stroke:black; " description="&lt;b&gt;LLPMBPKK_07186&lt;/b&gt;&lt;br&gt;D-alanine--poly(phosphoribitol) ligase subunit 1&lt;br&gt;Location: 8346775 - 8366839" locus_tag="LLPMBPKK_07186" class="clusterblast-orf" id="dummy-31_q13_0_all"  />
<polygon points="581,40 583,35 581,30 581,40 " style="fill:#d89315; stroke-width:1; stroke:black; " description="&lt;b&gt;LLPMBPKK_07187&lt;/b&gt;&lt;br&gt;MbtH family NRPS accessory protein&lt;br&gt;Location: 8366970 - 8367174" locus_tag="LLPMBPKK_07187" class="clusterblast-orf" id="dummy-31_q14_0_all"  />
<polygon points="587,40 587,40 592,35 587,30 587,30 587,40 " style="fill:#15d831; stroke-width:1; stroke:black; " description="&lt;b&gt;LLPMBPKK_07188&lt;/b&gt;&lt;br&gt;N-acetyltransferase&lt;br&gt;Location: 8367504 - 8368035" locus_tag="LLPMBPKK_07188" class="clusterblast-orf" id="dummy-31_q15_0_all"  />
<polygon points="592,40 600,40 605,35 600,30 592,30 592,40 " style="fill:#155bd8; stroke-width:1; stroke:black; " description="&lt;b&gt;LLPMBPKK_07189&lt;/b&gt;&lt;br&gt;major facilitator superfamily transporter&lt;br&gt;Location: 8368031 - 8369297" locus_tag="LLPMBPKK_07189" class="clusterblast-orf" id="dummy-31_q16_0_all"  />
<polygon points="607,40 626,40 631,35 626,30 607,30 607,40 " style="fill:#d86915; stroke-width:1; stroke:black; " description="&lt;b&gt;LLPMBPKK_07190&lt;/b&gt;&lt;br&gt;signal transduction histidine kinase&lt;br&gt;Location: 8369574 - 8371950" locus_tag="LLPMBPKK_07190" class="clusterblast-orf" id="dummy-31_q17_0_all"  />
<polygon points="632,40 635,35 632,30 632,40 " style="fill:#d815bc; stroke-width:1; stroke:black; " description="&lt;b&gt;LLPMBPKK_07191&lt;/b&gt;&lt;br&gt;hypothetical protein&lt;br&gt;Location: 8372031 - 8372304" locus_tag="LLPMBPKK_07191" class="clusterblast-orf" id="dummy-31_q18_0_all"  />
<polygon points="637,40 641,35 637,30 637,40 " style="fill:#d8bc15; stroke-width:1; stroke:black; " description="&lt;b&gt;LLPMBPKK_07192&lt;/b&gt;&lt;br&gt;hypothetical protein&lt;br&gt;Location: 8372511 - 8372928" locus_tag="LLPMBPKK_07192" class="clusterblast-orf" id="dummy-31_q19_0_all"  />
<polygon points="643,40 644,35 643,30 643,40 " style="fill:#15d85b; stroke-width:1; stroke:black; " description="&lt;b&gt;LLPMBPKK_07193&lt;/b&gt;&lt;br&gt;hypothetical protein&lt;br&gt;Location: 8373070 - 8373256" locus_tag="LLPMBPKK_07193" class="clusterblast-orf" id="dummy-31_q20_0_all"  />
<polygon points="645,35 650,30 651,30 651,40 650,40 645,35 " style="fill:#1531d8; stroke-width:1; stroke:black; " description="&lt;b&gt;LLPMBPKK_07194&lt;/b&gt;&lt;br&gt;hydrolase&lt;br&gt;Location: 8373290 - 8373875" locus_tag="LLPMBPKK_07194" class="clusterblast-orf" id="dummy-31_q21_0_all"  />
<polygon points="652,35 657,30 657,30 657,40 657,40 652,35 " style="fill:#d81593; stroke-width:1; stroke:black; " description="&lt;b&gt;LLPMBPKK_07195&lt;/b&gt;&lt;br&gt;MarR family transcriptional regulator&lt;br&gt;Location: 8374017 - 8374455" locus_tag="LLPMBPKK_07195" class="clusterblast-orf" id="dummy-31_q22_0_all"  />
<polygon points="658,40 684,40 689,35 684,30 658,30 658,40 " style="fill:#cad815; stroke-width:1; stroke:black; " description="&lt;b&gt;LLPMBPKK_07196&lt;/b&gt;&lt;br&gt;FAD-binding oxidoreductase&lt;br&gt;Location: 8374640 - 8377685" locus_tag="LLPMBPKK_07196" class="clusterblast-orf" id="dummy-31_q23_0_all"  />
<polygon points="689,40 695,40 700,35 695,30 689,30 689,40 " style="fill:#15d885; stroke-width:1; stroke:black; " description="&lt;b&gt;LLPMBPKK_07197&lt;/b&gt;&lt;br&gt;mandelate racemase&lt;br&gt;Location: 8377687 - 8378797" locus_tag="LLPMBPKK_07197" class="clusterblast-orf" id="dummy-31_q24_0_all"  />
<polygon points="700,40 706,40 711,35 706,30 700,30 700,40 " style="fill:#2315d8; stroke-width:1; stroke:black; " description="&lt;b&gt;LLPMBPKK_07198&lt;/b&gt;&lt;br&gt;SDR family NAD(P)-dependent oxidoreductase&lt;br&gt;Location: 8378830 - 8379838" locus_tag="LLPMBPKK_07198" class="clusterblast-orf" id="dummy-31_q25_0_all"  />
<polygon points="711,40 711,40 716,35 711,30 711,30 711,40 " style="fill:#d81569; stroke-width:1; stroke:black; " description="&lt;b&gt;LLPMBPKK_07199&lt;/b&gt;&lt;br&gt;metallophosphoesterase&lt;br&gt;Location: 8379862 - 8380348" locus_tag="LLPMBPKK_07199" class="clusterblast-orf" id="dummy-31_q26_0_all"  />
<polygon points="716,40 717,40 722,35 717,30 716,30 716,40 " style="fill:#a1d815; stroke-width:1; stroke:black; " description="&lt;b&gt;LLPMBPKK_07200&lt;/b&gt;&lt;br&gt;N-acetyltransferase&lt;br&gt;Location: 8380373 - 8380964" locus_tag="LLPMBPKK_07200" class="clusterblast-orf" id="dummy-31_q27_0_all"  />
<polygon points="727,35 732,30 738,30 738,40 732,40 727,35 " style="fill:#15d8ae; stroke-width:1; stroke:black; " description="&lt;b&gt;LLPMBPKK_07201&lt;/b&gt;&lt;br&gt;xanthine dehydrogenase&lt;br&gt;Location: 8381495 - 8382602" locus_tag="LLPMBPKK_07201" class="clusterblast-orf" id="dummy-31_q28_0_all"  />
<polygon points="740,40 755,40 760,35 755,30 740,30 740,40 " style="fill:#4d15d8; stroke-width:1; stroke:black; " description="&lt;b&gt;LLPMBPKK_07202&lt;/b&gt;&lt;br&gt;GTP-binding protein&lt;br&gt;Location: 8382788 - 8384783" locus_tag="LLPMBPKK_07202" class="clusterblast-orf" id="dummy-31_q29_0_all"  />
<polygon points="761,40 775,40 780,35 775,30 761,30 761,40 " style="fill:#d8153f; stroke-width:1; stroke:black; " description="&lt;b&gt;LLPMBPKK_07203&lt;/b&gt;&lt;br&gt;endoglycosylceramidase&lt;br&gt;Location: 8384852 - 8386706" locus_tag="LLPMBPKK_07203" class="clusterblast-orf" id="dummy-31_q30_0_all"  />
</g>
<g label="NC_021985" description="NC_021985 (7538336-7615824): Streptomyces collinus Tu 365, complete sequence (66% of genes show similarity), NRPS,bacteriocin" class="clusterblast-cluster"  >
<text x="5" y="70" class="clusterblast-acc"  >
<a xlink:href="https://antismash-db.secondarymetabolites.org/area.html?record=NC_021985&amp;start=7538336&amp;end=7615824" target="_blank">NC_021985 (7538336-7615824)</a>: Streptomyces collinus Tu 365, complete sequence (66% of genes show similarity), NRPS,bacteriocin</text>
<line x1="10" y1="85" x2="778.0" y2="85" style="stroke-width:1; stroke:grey; "  />
</g>
<g id="a31_000"  >
<polygon points="0,85 5,80 10,80 10,90 5,90 0,85 " style="fill:white; stroke-width:1; stroke:black; " description="&lt;b&gt;B446_RS32725&lt;/b&gt;&lt;br&gt;iron-containing redox enzyme family protein&lt;br&gt;Location: 7538337 - 7539341" locus_tag="B446_RS32725" class="clusterblast-orf" id="dummy-31_h31_10_0"  />
</g>
<g id="a31_001"  >
<polygon points="11,85 13,80 13,90 11,85 " style="fill:white; stroke-width:1; stroke:black; " description="&lt;b&gt;B446_RS32730&lt;/b&gt;&lt;br&gt;hypothetical protein&lt;br&gt;Location: 7539416 - 7539607" locus_tag="B446_RS32730" class="clusterblast-orf" id="dummy-31_h31_10_1"  />
</g>
<g id="a31_002"  >
<polygon points="15,85 20,80 30,80 30,90 20,90 15,85 " style="fill:white; stroke-width:1; stroke:black; " description="&lt;b&gt;B446_RS32735&lt;/b&gt;&lt;br&gt;MFS transporter&lt;br&gt;Location: 7539778 - 7541283" locus_tag="B446_RS32735" class="clusterblast-orf" id="dummy-31_h31_10_2"  />
</g>
<g id="a31_003"  >
<polygon points="32,85 37,80 61,80 61,90 37,90 32,85 " style="fill:#7715d8; stroke-width:1; stroke:black; " description="&lt;b&gt;B446_RS32740&lt;/b&gt;&lt;br&gt;NHLP bacteriocin export ABC transporter permease/ATPase subunit&lt;br&gt;Location: 7541483 - 7544356&lt;br&gt;&lt;br&gt;&lt;b&gt;BlastP hit with LLPMBPKK_07176&lt;/b&gt;&lt;br&gt;Percentage identity: 91&lt;br&gt;Percentage coverage: 101&lt;br&gt;BLAST bit score: 1651&lt;br&gt;E-value: 0.0&lt;br&gt;&lt;br&gt;&lt;b&gt;BlastP hit with LLPMBPKK_07177&lt;/b&gt;&lt;br&gt;Percentage identity: 33&lt;br&gt;Percentage coverage: 76&lt;br&gt;BLAST bit score: 198&lt;br&gt;E-value: 3.1e-51" locus_tag="B446_RS32740" class="clusterblast-orf" id="dummy-31_h31_10_3"  />
</g>
<g id="a31_004"  >
<polygon points="61,85 66,80 83,80 83,90 66,90 61,85 " style="fill:#7715d8; stroke-width:1; stroke:black; " description="&lt;b&gt;B446_RS32745&lt;/b&gt;&lt;br&gt;NHLP family bacteriocin export ABC transporter peptidase/permease/ATPase subunit&lt;br&gt;Location: 7544358 - 7546580&lt;br&gt;&lt;br&gt;&lt;b&gt;BlastP hit with LLPMBPKK_07176&lt;/b&gt;&lt;br&gt;Percentage identity: 32&lt;br&gt;Percentage coverage: 61&lt;br&gt;BLAST bit score: 201&lt;br&gt;E-value: 5.93e-52&lt;br&gt;&lt;br&gt;&lt;b&gt;BlastP hit with LLPMBPKK_07177&lt;/b&gt;&lt;br&gt;Percentage identity: 95&lt;br&gt;Percentage coverage: 100&lt;br&gt;BLAST bit score: 1341&lt;br&gt;E-value: 0.0" locus_tag="B446_RS32745" class="clusterblast-orf" id="dummy-31_h31_10_4"  />
</g>
<g id="a31_005"  >
<polygon points="83,85 88,80 91,80 91,90 88,90 83,85 " style="fill:#d83f15; stroke-width:1; stroke:black; " description="&lt;b&gt;B446_RS32750&lt;/b&gt;&lt;br&gt;HlyD family efflux transporter periplasmic adaptor subunit&lt;br&gt;Location: 7546577 - 7547383&lt;br&gt;&lt;br&gt;&lt;b&gt;BlastP hit with LLPMBPKK_07178&lt;/b&gt;&lt;br&gt;Percentage identity: 88&lt;br&gt;Percentage coverage: 100&lt;br&gt;BLAST bit score: 445&lt;br&gt;E-value: 4.06e-158" locus_tag="B446_RS32750" class="clusterblast-orf" id="dummy-31_h31_10_5"  />
</g>
<g id="a31_006"  >
<polygon points="92,85 94,80 94,90 92,85 " style="fill:#4dd815; stroke-width:1; stroke:black; " description="&lt;b&gt;B446_RS32755&lt;/b&gt;&lt;br&gt;hypothetical protein&lt;br&gt;Location: 7547490 - 7547705&lt;br&gt;&lt;br&gt;&lt;b&gt;BlastP hit with LLPMBPKK_07179&lt;/b&gt;&lt;br&gt;Percentage identity: 76&lt;br&gt;Percentage coverage: 100&lt;br&gt;BLAST bit score: 98&lt;br&gt;E-value: 6.12e-27" locus_tag="B446_RS32755" class="clusterblast-orf" id="dummy-31_h31_10_6"  />
</g>
<g id="a31_007"  >
<polygon points="99,85 103,80 103,90 99,85 " style="fill:#15aed8; stroke-width:1; stroke:black; " description="&lt;b&gt;B446_RS32760&lt;/b&gt;&lt;br&gt;PaaI family thioesterase&lt;br&gt;Location: 7548156 - 7548569&lt;br&gt;&lt;br&gt;&lt;b&gt;BlastP hit with LLPMBPKK_07180&lt;/b&gt;&lt;br&gt;Percentage identity: 93&lt;br&gt;Percentage coverage: 100&lt;br&gt;BLAST bit score: 132&lt;br&gt;E-value: 1.12e-39" locus_tag="B446_RS32760" class="clusterblast-orf" id="dummy-31_h31_10_7"  />
</g>
<g id="a31_008"  >
<polygon points="105,90 115,90 120,85 115,80 105,80 105,90 " style="fill:#a115d8; stroke-width:1; stroke:black; " description="&lt;b&gt;B446_RS32765&lt;/b&gt;&lt;br&gt;S1 family peptidase&lt;br&gt;Location: 7548767 - 7550260&lt;br&gt;&lt;br&gt;&lt;b&gt;BlastP hit with LLPMBPKK_07181&lt;/b&gt;&lt;br&gt;Percentage identity: 89&lt;br&gt;Percentage coverage: 78&lt;br&gt;BLAST bit score: 654&lt;br&gt;E-value: 1.8e-233" locus_tag="B446_RS32765" class="clusterblast-orf" id="dummy-31_h31_10_8"  />
</g>
<g id="a31_009"  >
<polygon points="125,85 130,80 146,80 146,90 130,90 125,85 " style="fill:#d86915; stroke-width:1; stroke:black; " description="&lt;b&gt;B446_RS32770&lt;/b&gt;&lt;br&gt;SpoIIE family protein phosphatase&lt;br&gt;Location: 7550706 - 7552847&lt;br&gt;&lt;br&gt;&lt;b&gt;BlastP hit with LLPMBPKK_07182&lt;/b&gt;&lt;br&gt;Percentage identity: 84&lt;br&gt;Percentage coverage: 101&lt;br&gt;BLAST bit score: 1163&lt;br&gt;E-value: 0.0&lt;br&gt;&lt;br&gt;&lt;b&gt;BlastP hit with LLPMBPKK_07190&lt;/b&gt;&lt;br&gt;Percentage identity: 35&lt;br&gt;Percentage coverage: 88&lt;br&gt;BLAST bit score: 268&lt;br&gt;E-value: 5.22e-77" locus_tag="B446_RS32770" class="clusterblast-orf" id="dummy-31_h31_10_9"  />
</g>
<g id="a31_0010"  >
<polygon points="150,90 152,90 157,85 152,80 150,80 150,90 " style="fill:white; stroke-width:1; stroke:black; " description="&lt;b&gt;B446_RS32775&lt;/b&gt;&lt;br&gt;alpha/beta fold hydrolase&lt;br&gt;Location: 7553289 - 7553972" locus_tag="B446_RS32775" class="clusterblast-orf" id="dummy-31_h31_10_10"  />
</g>
<g id="a31_0011"  >
<polygon points="167,90 174,90 179,85 174,80 167,80 167,90 " style="fill:#23d815; stroke-width:1; stroke:black; " description="&lt;b&gt;B446_RS32785&lt;/b&gt;&lt;br&gt;cytochrome P450&lt;br&gt;Location: 7554891 - 7556099&lt;br&gt;&lt;br&gt;&lt;b&gt;BlastP hit with LLPMBPKK_07183&lt;/b&gt;&lt;br&gt;Percentage identity: 81&lt;br&gt;Percentage coverage: 100&lt;br&gt;BLAST bit score: 660&lt;br&gt;E-value: 8.11e-239" locus_tag="B446_RS32785" class="clusterblast-orf" id="dummy-31_h31_10_11"  />
</g>
<g id="a31_0012"  >
<polygon points="180,90 188,90 193,85 188,80 180,80 180,90 " style="fill:#1585d8; stroke-width:1; stroke:black; " description="&lt;b&gt;B446_RS32790&lt;/b&gt;&lt;br&gt;serine hydrolase&lt;br&gt;Location: 7556189 - 7557538&lt;br&gt;&lt;br&gt;&lt;b&gt;BlastP hit with LLPMBPKK_07184&lt;/b&gt;&lt;br&gt;Percentage identity: 72&lt;br&gt;Percentage coverage: 99&lt;br&gt;BLAST bit score: 620&lt;br&gt;E-value: 3.16e-221" locus_tag="B446_RS32790" class="clusterblast-orf" id="dummy-31_h31_10_12"  />
</g>
<g id="a31_0013"  >
<polygon points="194,90 376,90 381,85 376,80 194,80 194,90 " style="fill:#ca15d8; stroke-width:1; stroke:black; " description="&lt;b&gt;B446_RS32795&lt;/b&gt;&lt;br&gt;non-ribosomal peptide synthase/polyketide synthase&lt;br&gt;Location: 7557665 - 7576228&lt;br&gt;&lt;br&gt;&lt;b&gt;BlastP hit with LLPMBPKK_07185&lt;/b&gt;&lt;br&gt;Percentage identity: 76&lt;br&gt;Percentage coverage: 100&lt;br&gt;BLAST bit score: 9090&lt;br&gt;E-value: 0.0&lt;br&gt;&lt;br&gt;&lt;b&gt;BlastP hit with LLPMBPKK_07186&lt;/b&gt;&lt;br&gt;Percentage identity: 42&lt;br&gt;Percentage coverage: 86&lt;br&gt;BLAST bit score: 3584&lt;br&gt;E-value: 0.0" locus_tag="B446_RS32795" class="clusterblast-orf" id="dummy-31_h31_10_13"  />
</g>
<g id="a31_0014"  >
<polygon points="381,90 576,90 581,85 576,80 381,80 381,90 " style="fill:#ca15d8; stroke-width:1; stroke:black; " description="&lt;b&gt;B446_RS32800&lt;/b&gt;&lt;br&gt;non-ribosomal peptide synthetase&lt;br&gt;Location: 7576242 - 7596173&lt;br&gt;&lt;br&gt;&lt;b&gt;BlastP hit with LLPMBPKK_07185&lt;/b&gt;&lt;br&gt;Percentage identity: 43&lt;br&gt;Percentage coverage: 85&lt;br&gt;BLAST bit score: 3283&lt;br&gt;E-value: 0.0&lt;br&gt;&lt;br&gt;&lt;b&gt;BlastP hit with LLPMBPKK_07186&lt;/b&gt;&lt;br&gt;Percentage identity: 77&lt;br&gt;Percentage coverage: 101&lt;br&gt;BLAST bit score: 9969&lt;br&gt;E-value: 0.0" locus_tag="B446_RS32800" class="clusterblast-orf" id="dummy-31_h31_10_14"  />
</g>
<g id="a31_0015"  >
<polygon points="582,90 584,85 582,80 582,90 " style="fill:#d89315; stroke-width:1; stroke:black; " description="&lt;b&gt;B446_RS32805&lt;/b&gt;&lt;br&gt;MbtH family NRPS accessory protein&lt;br&gt;Location: 7596273 - 7596476&lt;br&gt;&lt;br&gt;&lt;b&gt;BlastP hit with LLPMBPKK_07187&lt;/b&gt;&lt;br&gt;Percentage identity: 94&lt;br&gt;Percentage coverage: 100&lt;br&gt;BLAST bit score: 140&lt;br&gt;E-value: 5.11e-44" locus_tag="B446_RS32805" class="clusterblast-orf" id="dummy-31_h31_10_15"  />
</g>
<g id="a31_0016"  >
<polygon points="586,90 586,90 591,85 586,80 586,80 586,90 " style="fill:#15d831; stroke-width:1; stroke:black; " description="&lt;b&gt;B446_RS32810&lt;/b&gt;&lt;br&gt;GNAT family N-acetyltransferase&lt;br&gt;Location: 7596641 - 7597171&lt;br&gt;&lt;br&gt;&lt;b&gt;BlastP hit with LLPMBPKK_07188&lt;/b&gt;&lt;br&gt;Percentage identity: 81&lt;br&gt;Percentage coverage: 93&lt;br&gt;BLAST bit score: 280&lt;br&gt;E-value: 6.42e-96" locus_tag="B446_RS32810" class="clusterblast-orf" id="dummy-31_h31_10_16"  />
</g>
<g id="a31_0017"  >
<polygon points="592,90 612,90 617,85 612,80 592,80 592,90 " style="fill:#d86915; stroke-width:1; stroke:black; " description="&lt;b&gt;B446_RS32815&lt;/b&gt;&lt;br&gt;SpoIIE family protein phosphatase&lt;br&gt;Location: 7597221 - 7599689&lt;br&gt;&lt;br&gt;&lt;b&gt;BlastP hit with LLPMBPKK_07182&lt;/b&gt;&lt;br&gt;Percentage identity: 34&lt;br&gt;Percentage coverage: 99&lt;br&gt;BLAST bit score: 267&lt;br&gt;E-value: 1.87e-76&lt;br&gt;&lt;br&gt;&lt;b&gt;BlastP hit with LLPMBPKK_07190&lt;/b&gt;&lt;br&gt;Percentage identity: 88&lt;br&gt;Percentage coverage: 99&lt;br&gt;BLAST bit score: 1332&lt;br&gt;E-value: 0.0" locus_tag="B446_RS32815" class="clusterblast-orf" id="dummy-31_h31_10_17"  />
</g>
<g id="a31_0018"  >
<polygon points="618,90 620,85 618,80 618,90 " style="fill:#d815bc; stroke-width:1; stroke:black; " description="&lt;b&gt;B446_RS32820&lt;/b&gt;&lt;br&gt;hypothetical protein&lt;br&gt;Location: 7599802 - 7600074&lt;br&gt;&lt;br&gt;&lt;b&gt;BlastP hit with LLPMBPKK_07191&lt;/b&gt;&lt;br&gt;Percentage identity: 80&lt;br&gt;Percentage coverage: 96&lt;br&gt;BLAST bit score: 136&lt;br&gt;E-value: 8.68e-42" locus_tag="B446_RS32820" class="clusterblast-orf" id="dummy-31_h31_10_18"  />
</g>
<g id="a31_0019"  >
<polygon points="622,90 630,90 635,85 630,80 622,80 622,90 " style="fill:white; stroke-width:1; stroke:black; " description="&lt;b&gt;B446_RS32825&lt;/b&gt;&lt;br&gt;ubiquinol-cytochrome c reductase cytochrome b subunit&lt;br&gt;Location: 7600185 - 7601564" locus_tag="B446_RS32825" class="clusterblast-orf" id="dummy-31_h31_10_19"  />
</g>
<g id="a31_0020"  >
<polygon points="635,85 639,80 639,90 635,85 " style="fill:white; stroke-width:1; stroke:black; " description="&lt;b&gt;B446_RS32830&lt;/b&gt;&lt;br&gt;cytochrome c oxidase subunit 4&lt;br&gt;Location: 7601500 - 7601883" locus_tag="B446_RS32830" class="clusterblast-orf" id="dummy-31_h31_10_20"  />
</g>
<g id="a31_0021"  >
<polygon points="639,85 644,80 655,80 655,90 644,90 639,85 " style="fill:white; stroke-width:1; stroke:black; " description="&lt;b&gt;B446_RS32835&lt;/b&gt;&lt;br&gt;cytochrome c oxidase subunit I&lt;br&gt;Location: 7601880 - 7603544" locus_tag="B446_RS32835" class="clusterblast-orf" id="dummy-31_h31_10_21"  />
</g>
<g id="a31_0022"  >
<polygon points="657,90 661,85 657,80 657,90 " style="fill:#d8bc15; stroke-width:1; stroke:black; " description="&lt;b&gt;B446_RS32840&lt;/b&gt;&lt;br&gt;hypothetical protein&lt;br&gt;Location: 7603728 - 7604096&lt;br&gt;&lt;br&gt;&lt;b&gt;BlastP hit with LLPMBPKK_07192&lt;/b&gt;&lt;br&gt;Percentage identity: 79&lt;br&gt;Percentage coverage: 88&lt;br&gt;BLAST bit score: 192&lt;br&gt;E-value: 1.28e-62" locus_tag="B446_RS32840" class="clusterblast-orf" id="dummy-31_h31_10_22"  />
</g>
<g id="a31_0023"  >
<polygon points="662,90 664,85 662,80 662,90 " style="fill:#15d85b; stroke-width:1; stroke:black; " description="&lt;b&gt;B446_RS39825&lt;/b&gt;&lt;br&gt;hypothetical protein&lt;br&gt;Location: 7604233 - 7604406&lt;br&gt;&lt;br&gt;&lt;b&gt;BlastP hit with LLPMBPKK_07193&lt;/b&gt;&lt;br&gt;Percentage identity: 57&lt;br&gt;Percentage coverage: 95&lt;br&gt;BLAST bit score: 64&lt;br&gt;E-value: 5.07e-14" locus_tag="B446_RS39825" class="clusterblast-orf" id="dummy-31_h31_10_23"  />
</g>
<g id="a31_0024"  >
<polygon points="665,90 669,90 674,85 669,80 665,80 665,90 " style="fill:white; stroke-width:1; stroke:black; " description="&lt;b&gt;B446_RS32845&lt;/b&gt;&lt;br&gt;type 11 methyltransferase&lt;br&gt;Location: 7604549 - 7605352" locus_tag="B446_RS32845" class="clusterblast-orf" id="dummy-31_h31_10_24"  />
</g>
<g id="a31_0025"  >
<polygon points="673,85 678,80 680,80 680,90 678,90 673,85 " style="fill:white; stroke-width:1; stroke:black; " description="&lt;b&gt;B446_RS32850&lt;/b&gt;&lt;br&gt;dTDP-4-dehydrorhamnose 3,5-epimerase&lt;br&gt;Location: 7605342 - 7605950" locus_tag="B446_RS32850" class="clusterblast-orf" id="dummy-31_h31_10_25"  />
</g>
<g id="a31_0026"  >
<polygon points="680,85 685,80 699,80 699,90 685,90 680,85 " style="fill:white; stroke-width:1; stroke:black; " description="&lt;b&gt;B446_RS32855&lt;/b&gt;&lt;br&gt;glycosyltransferase family 2 protein&lt;br&gt;Location: 7605955 - 7607910" locus_tag="B446_RS32855" class="clusterblast-orf" id="dummy-31_h31_10_26"  />
</g>
<g id="a31_0027"  >
<polygon points="700,85 705,80 706,80 706,90 705,90 700,85 " style="fill:#1531d8; stroke-width:1; stroke:black; " description="&lt;b&gt;B446_RS32860&lt;/b&gt;&lt;br&gt;hydrolase&lt;br&gt;Location: 7608035 - 7608619&lt;br&gt;&lt;br&gt;&lt;b&gt;BlastP hit with LLPMBPKK_07194&lt;/b&gt;&lt;br&gt;Percentage identity: 89&lt;br&gt;Percentage coverage: 99&lt;br&gt;BLAST bit score: 342&lt;br&gt;E-value: 1.02e-119" locus_tag="B446_RS32860" class="clusterblast-orf" id="dummy-31_h31_10_27"  />
</g>
<g id="a31_0028"  >
<polygon points="709,85 713,80 713,90 709,85 " style="fill:#d81593; stroke-width:1; stroke:black; " description="&lt;b&gt;B446_RS32865&lt;/b&gt;&lt;br&gt;MarR family transcriptional regulator&lt;br&gt;Location: 7608889 - 7609326&lt;br&gt;&lt;br&gt;&lt;b&gt;BlastP hit with LLPMBPKK_07195&lt;/b&gt;&lt;br&gt;Percentage identity: 89&lt;br&gt;Percentage coverage: 100&lt;br&gt;BLAST bit score: 237&lt;br&gt;E-value: 7.56e-80" locus_tag="B446_RS32865" class="clusterblast-orf" id="dummy-31_h31_10_28"  />
</g>
<g id="a31_0029"  >
<polygon points="715,90 740,90 745,85 740,80 715,80 715,90 " style="fill:#cad815; stroke-width:1; stroke:black; " description="&lt;b&gt;B446_RS32870&lt;/b&gt;&lt;br&gt;FAD-binding oxidoreductase&lt;br&gt;Location: 7609452 - 7612496&lt;br&gt;&lt;br&gt;&lt;b&gt;BlastP hit with LLPMBPKK_07196&lt;/b&gt;&lt;br&gt;Percentage identity: 88&lt;br&gt;Percentage coverage: 97&lt;br&gt;BLAST bit score: 1801&lt;br&gt;E-value: 0.0" locus_tag="B446_RS32870" class="clusterblast-orf" id="dummy-31_h31_10_29"  />
</g>
<g id="a31_0030"  >
<polygon points="747,90 752,90 757,85 752,80 747,80 747,90 " style="fill:#2315d8; stroke-width:1; stroke:black; " description="&lt;b&gt;B446_RS32875&lt;/b&gt;&lt;br&gt;SDR family oxidoreductase&lt;br&gt;Location: 7612645 - 7613643&lt;br&gt;&lt;br&gt;&lt;b&gt;BlastP hit with LLPMBPKK_07198&lt;/b&gt;&lt;br&gt;Percentage identity: 84&lt;br&gt;Percentage coverage: 99&lt;br&gt;BLAST bit score: 562&lt;br&gt;E-value: 2.08e-202" locus_tag="B446_RS32875" class="clusterblast-orf" id="dummy-31_h31_10_30"  />
</g>
<g id="a31_0031"  >
<polygon points="757,90 757,90 762,85 757,80 757,80 757,90 " style="fill:#d81569; stroke-width:1; stroke:black; " description="&lt;b&gt;B446_RS32880&lt;/b&gt;&lt;br&gt;metallophosphoesterase&lt;br&gt;Location: 7613662 - 7614162&lt;br&gt;&lt;br&gt;&lt;b&gt;BlastP hit with LLPMBPKK_07199&lt;/b&gt;&lt;br&gt;Percentage identity: 91&lt;br&gt;Percentage coverage: 99&lt;br&gt;BLAST bit score: 300&lt;br&gt;E-value: 4.19e-104" locus_tag="B446_RS32880" class="clusterblast-orf" id="dummy-31_h31_10_31"  />
</g>
<g id="a31_0032"  >
<polygon points="764,85 769,80 779,80 779,90 769,90 764,85 " style="fill:white; stroke-width:1; stroke:black; " description="&lt;b&gt;B446_RS32885&lt;/b&gt;&lt;br&gt;hypothetical protein&lt;br&gt;Location: 7614403 - 7615824" locus_tag="B446_RS32885" class="clusterblast-orf" id="dummy-31_h31_10_32"  />
</g>
</svg>
