<svg xmlns="http://www.w3.org/2000/svg" xmlns:xlink="http://www.w3.org/1999/xlink" version="1.1" x="0" y="0" height="230" width="800" viewBox="0 0 800 230" preserveAspectRatio="none"  >
<g label="Query sequence" class="clusterblast-cluster"  >
<text x="5" y="20" class="clusterblast-acc"  >
Query sequence</text>
<line x1="10" y1="35" x2="778.0" y2="35" style="stroke-width:1; stroke:grey; "  />
<polygon points="107,40 108,40 113,35 108,30 107,30 107,40 " style="fill:white; stroke-width:1; stroke:black; " description="&lt;b&gt;LLPMBPKK_07173&lt;/b&gt;&lt;br&gt;Polysaccharide deacetylase&lt;br&gt;Location: 8309065 - 8309899" locus_tag="LLPMBPKK_07173" class="clusterblast-orf" id="dummy-31_q0_0_all"  />
<polygon points="116,35 121,30 124,30 124,40 121,40 116,35 " style="fill:white; stroke-width:1; stroke:black; " description="&lt;b&gt;LLPMBPKK_07174&lt;/b&gt;&lt;br&gt;Processive diacylglycerolbeta-glucosyltransferase&lt;br&gt;Location: 8310344 - 8311391" locus_tag="LLPMBPKK_07174" class="clusterblast-orf" id="dummy-31_q1_0_all"  />
<polygon points="126,40 127,40 132,35 127,30 126,30 126,40 " style="fill:white; stroke-width:1; stroke:black; " description="&lt;b&gt;LLPMBPKK_07175&lt;/b&gt;&lt;br&gt;hypothetical protein&lt;br&gt;Location: 8311642 - 8312464" locus_tag="LLPMBPKK_07175" class="clusterblast-orf" id="dummy-31_q2_0_all"  />
<polygon points="131,35 136,30 152,30 152,40 136,40 131,35 " style="fill:#d81515; stroke-width:1; stroke:black; " description="&lt;b&gt;LLPMBPKK_07176&lt;/b&gt;&lt;br&gt;NHLP bacteriocin export ABC transporterpermease/ATPase subunit&lt;br&gt;Location: 8312460 - 8315277" locus_tag="LLPMBPKK_07176" class="clusterblast-orf" id="dummy-31_q3_0_all"  />
<polygon points="152,35 157,30 168,30 168,40 157,40 152,35 " style="fill:#3cd815; stroke-width:1; stroke:black; " description="&lt;b&gt;LLPMBPKK_07177&lt;/b&gt;&lt;br&gt;NHLP family bacteriocin export ABC transporter peptidase/permease/ATPase subunit&lt;br&gt;Location: 8315278 - 8317501" locus_tag="LLPMBPKK_07177" class="clusterblast-orf" id="dummy-31_q4_0_all"  />
<polygon points="168,35 173,30 174,30 174,40 173,40 168,35 " style="fill:#1563d8; stroke-width:1; stroke:black; " description="&lt;b&gt;LLPMBPKK_07178&lt;/b&gt;&lt;br&gt;HlyD family efflux transporter periplasmicadaptor subunit&lt;br&gt;Location: 8317497 - 8318304" locus_tag="LLPMBPKK_07178" class="clusterblast-orf" id="dummy-31_q5_0_all"  />
<polygon points="175,35 176,30 176,40 175,35 " style="fill:#b115d8; stroke-width:1; stroke:black; " description="&lt;b&gt;LLPMBPKK_07179&lt;/b&gt;&lt;br&gt;hypothetical protein&lt;br&gt;Location: 8318405 - 8318624" locus_tag="LLPMBPKK_07179" class="clusterblast-orf" id="dummy-31_q6_0_all"  />
<polygon points="180,35 181,30 181,40 180,35 " style="fill:white; stroke-width:1; stroke:black; " description="&lt;b&gt;LLPMBPKK_07180&lt;/b&gt;&lt;br&gt;PaaI family thioesterase&lt;br&gt;Location: 8319076 - 8319319" locus_tag="LLPMBPKK_07180" class="clusterblast-orf" id="dummy-31_q7_0_all"  />
<polygon points="184,40 190,40 195,35 190,30 184,30 184,40 " style="fill:#d88a15; stroke-width:1; stroke:black; " description="&lt;b&gt;LLPMBPKK_07181&lt;/b&gt;&lt;br&gt;S1 family peptidase&lt;br&gt;Location: 8319665 - 8321150" locus_tag="LLPMBPKK_07181" class="clusterblast-orf" id="dummy-31_q8_0_all"  />
<polygon points="196,35 201,30 211,30 211,40 201,40 196,35 " style="fill:#15d863; stroke-width:1; stroke:black; " description="&lt;b&gt;LLPMBPKK_07182&lt;/b&gt;&lt;br&gt;magnesium or manganese-dependent proteinphosphatase&lt;br&gt;Location: 8321293 - 8323417" locus_tag="LLPMBPKK_07182" class="clusterblast-orf" id="dummy-31_q9_0_all"  />
<polygon points="222,40 226,40 231,35 226,30 222,30 222,40 " style="fill:#3c15d8; stroke-width:1; stroke:black; " description="&lt;b&gt;LLPMBPKK_07183&lt;/b&gt;&lt;br&gt;cytochrome P450&lt;br&gt;Location: 8324921 - 8326130" locus_tag="LLPMBPKK_07183" class="clusterblast-orf" id="dummy-31_q10_0_all"  />
<polygon points="232,40 237,40 242,35 237,30 232,30 232,40 " style="fill:white; stroke-width:1; stroke:black; " description="&lt;b&gt;LLPMBPKK_07184&lt;/b&gt;&lt;br&gt;alpha/beta hydrolase MppK&lt;br&gt;Location: 8326230 - 8327592" locus_tag="LLPMBPKK_07184" class="clusterblast-orf" id="dummy-31_q11_0_all"  />
<polygon points="245,40 376,40 381,35 376,30 245,30 245,40 " style="fill:#d8158a; stroke-width:1; stroke:black; " description="&lt;b&gt;LLPMBPKK_07185&lt;/b&gt;&lt;br&gt;non-ribosomal peptide synthetase&lt;br&gt;Location: 8328105 - 8346762" locus_tag="LLPMBPKK_07185" class="clusterblast-orf" id="dummy-31_q12_0_all"  />
<polygon points="381,40 523,40 528,35 523,30 381,30 381,40 " style="fill:#b1d815; stroke-width:1; stroke:black; " description="&lt;b&gt;LLPMBPKK_07186&lt;/b&gt;&lt;br&gt;D-alanine--poly(phosphoribitol) ligase subunit 1&lt;br&gt;Location: 8346775 - 8366839" locus_tag="LLPMBPKK_07186" class="clusterblast-orf" id="dummy-31_q13_0_all"  />
<polygon points="529,40 530,35 529,30 529,40 " style="fill:white; stroke-width:1; stroke:black; " description="&lt;b&gt;LLPMBPKK_07187&lt;/b&gt;&lt;br&gt;MbtH family NRPS accessory protein&lt;br&gt;Location: 8366970 - 8367174" locus_tag="LLPMBPKK_07187" class="clusterblast-orf" id="dummy-31_q14_0_all"  />
<polygon points="532,40 536,35 532,30 532,40 " style="fill:white; stroke-width:1; stroke:black; " description="&lt;b&gt;LLPMBPKK_07188&lt;/b&gt;&lt;br&gt;N-acetyltransferase&lt;br&gt;Location: 8367504 - 8368035" locus_tag="LLPMBPKK_07188" class="clusterblast-orf" id="dummy-31_q15_0_all"  />
<polygon points="536,40 541,40 546,35 541,30 536,30 536,40 " style="fill:white; stroke-width:1; stroke:black; " description="&lt;b&gt;LLPMBPKK_07189&lt;/b&gt;&lt;br&gt;major facilitator superfamily transporter&lt;br&gt;Location: 8368031 - 8369297" locus_tag="LLPMBPKK_07189" class="clusterblast-orf" id="dummy-31_q16_0_all"  />
<polygon points="548,40 560,40 565,35 560,30 548,30 548,40 " style="fill:#15d8d8; stroke-width:1; stroke:black; " description="&lt;b&gt;LLPMBPKK_07190&lt;/b&gt;&lt;br&gt;signal transduction histidine kinase&lt;br&gt;Location: 8369574 - 8371950" locus_tag="LLPMBPKK_07190" class="clusterblast-orf" id="dummy-31_q17_0_all"  />
<polygon points="565,40 567,35 565,30 565,40 " style="fill:white; stroke-width:1; stroke:black; " description="&lt;b&gt;LLPMBPKK_07191&lt;/b&gt;&lt;br&gt;hypothetical protein&lt;br&gt;Location: 8372031 - 8372304" locus_tag="LLPMBPKK_07191" class="clusterblast-orf" id="dummy-31_q18_0_all"  />
<polygon points="569,40 572,35 569,30 569,40 " style="fill:white; stroke-width:1; stroke:black; " description="&lt;b&gt;LLPMBPKK_07192&lt;/b&gt;&lt;br&gt;hypothetical protein&lt;br&gt;Location: 8372511 - 8372928" locus_tag="LLPMBPKK_07192" class="clusterblast-orf" id="dummy-31_q19_0_all"  />
<polygon points="573,40 574,35 573,30 573,40 " style="fill:white; stroke-width:1; stroke:black; " description="&lt;b&gt;LLPMBPKK_07193&lt;/b&gt;&lt;br&gt;hypothetical protein&lt;br&gt;Location: 8373070 - 8373256" locus_tag="LLPMBPKK_07193" class="clusterblast-orf" id="dummy-31_q20_0_all"  />
<polygon points="575,35 579,30 579,40 575,35 " style="fill:white; stroke-width:1; stroke:black; " description="&lt;b&gt;LLPMBPKK_07194&lt;/b&gt;&lt;br&gt;hydrolase&lt;br&gt;Location: 8373290 - 8373875" locus_tag="LLPMBPKK_07194" class="clusterblast-orf" id="dummy-31_q21_0_all"  />
<polygon points="580,35 583,30 583,40 580,35 " style="fill:white; stroke-width:1; stroke:black; " description="&lt;b&gt;LLPMBPKK_07195&lt;/b&gt;&lt;br&gt;MarR family transcriptional regulator&lt;br&gt;Location: 8374017 - 8374455" locus_tag="LLPMBPKK_07195" class="clusterblast-orf" id="dummy-31_q22_0_all"  />
<polygon points="584,40 602,40 607,35 602,30 584,30 584,40 " style="fill:white; stroke-width:1; stroke:black; " description="&lt;b&gt;LLPMBPKK_07196&lt;/b&gt;&lt;br&gt;FAD-binding oxidoreductase&lt;br&gt;Location: 8374640 - 8377685" locus_tag="LLPMBPKK_07196" class="clusterblast-orf" id="dummy-31_q23_0_all"  />
<polygon points="607,40 610,40 615,35 610,30 607,30 607,40 " style="fill:white; stroke-width:1; stroke:black; " description="&lt;b&gt;LLPMBPKK_07197&lt;/b&gt;&lt;br&gt;mandelate racemase&lt;br&gt;Location: 8377687 - 8378797" locus_tag="LLPMBPKK_07197" class="clusterblast-orf" id="dummy-31_q24_0_all"  />
<polygon points="615,40 617,40 622,35 617,30 615,30 615,40 " style="fill:white; stroke-width:1; stroke:black; " description="&lt;b&gt;LLPMBPKK_07198&lt;/b&gt;&lt;br&gt;SDR family NAD(P)-dependent oxidoreductase&lt;br&gt;Location: 8378830 - 8379838" locus_tag="LLPMBPKK_07198" class="clusterblast-orf" id="dummy-31_q25_0_all"  />
<polygon points="623,40 626,35 623,30 623,40 " style="fill:white; stroke-width:1; stroke:black; " description="&lt;b&gt;LLPMBPKK_07199&lt;/b&gt;&lt;br&gt;metallophosphoesterase&lt;br&gt;Location: 8379862 - 8380348" locus_tag="LLPMBPKK_07199" class="clusterblast-orf" id="dummy-31_q26_0_all"  />
<polygon points="626,40 626,40 631,35 626,30 626,30 626,40 " style="fill:white; stroke-width:1; stroke:black; " description="&lt;b&gt;LLPMBPKK_07200&lt;/b&gt;&lt;br&gt;N-acetyltransferase&lt;br&gt;Location: 8380373 - 8380964" locus_tag="LLPMBPKK_07200" class="clusterblast-orf" id="dummy-31_q27_0_all"  />
<polygon points="634,35 639,30 642,30 642,40 639,40 634,35 " style="fill:white; stroke-width:1; stroke:black; " description="&lt;b&gt;LLPMBPKK_07201&lt;/b&gt;&lt;br&gt;xanthine dehydrogenase&lt;br&gt;Location: 8381495 - 8382602" locus_tag="LLPMBPKK_07201" class="clusterblast-orf" id="dummy-31_q28_0_all"  />
<polygon points="644,40 653,40 658,35 653,30 644,30 644,40 " style="fill:white; stroke-width:1; stroke:black; " description="&lt;b&gt;LLPMBPKK_07202&lt;/b&gt;&lt;br&gt;GTP-binding protein&lt;br&gt;Location: 8382788 - 8384783" locus_tag="LLPMBPKK_07202" class="clusterblast-orf" id="dummy-31_q29_0_all"  />
<polygon points="659,40 667,40 672,35 667,30 659,30 659,40 " style="fill:white; stroke-width:1; stroke:black; " description="&lt;b&gt;LLPMBPKK_07203&lt;/b&gt;&lt;br&gt;endoglycosylceramidase&lt;br&gt;Location: 8384852 - 8386706" locus_tag="LLPMBPKK_07203" class="clusterblast-orf" id="dummy-31_q30_0_all"  />
</g>
<g label="BGC0002587" description="BGC0002587_c1: ossamycin (6% of genes show similarity), Polyketide" class="clusterblast-cluster"  >
<text x="5" y="70" class="clusterblast-acc"  >
<a xlink:href="https://mibig.secondarymetabolites.org/go/BGC0002587/1" target="_blank">BGC0002587</a>:                                                                        ossamycin (6% of genes show similarity), Polyketide</text>
<line x1="10" y1="85" x2="778.0" y2="85" style="stroke-width:1; stroke:grey; "  />
</g>
<g id="a31_000"  >
<polygon points="0,85 5,80 12,80 12,90 5,90 0,85 " style="fill:white; stroke-width:1; stroke:black; " description="&lt;b&gt;QBG82515.1&lt;/b&gt;&lt;br&gt;Integral membrane protein&lt;br&gt;Location: 2705 - 4429" locus_tag="QBG82515.1" class="clusterblast-orf" id="dummy-31_h31_4_0"  />
</g>
<g id="a31_001"  >
<polygon points="13,85 18,80 18,80 18,90 18,90 13,85 " style="fill:white; stroke-width:1; stroke:black; " description="&lt;b&gt;QBG82516.1&lt;/b&gt;&lt;br&gt;Thioesterase&lt;br&gt;Location: 4518 - 5300" locus_tag="QBG82516.1" class="clusterblast-orf" id="dummy-31_h31_4_1"  />
</g>
<g id="a31_002"  >
<polygon points="21,90 63,90 68,85 63,80 21,80 21,90 " style="fill:white; stroke-width:1; stroke:black; " description="&lt;b&gt;QBG82517.1&lt;/b&gt;&lt;br&gt;Polyketide synthase&lt;br&gt;Location: 5590 - 12165" locus_tag="QBG82517.1" class="clusterblast-orf" id="dummy-31_h31_4_2"  />
</g>
<g id="a31_003"  >
<polygon points="69,90 112,90 117,85 112,80 69,80 69,90 " style="fill:white; stroke-width:1; stroke:black; " description="&lt;b&gt;QBG82518.1&lt;/b&gt;&lt;br&gt;Polyketide synthase&lt;br&gt;Location: 12257 - 18901" locus_tag="QBG82518.1" class="clusterblast-orf" id="dummy-31_h31_4_3"  />
</g>
<g id="a31_004"  >
<polygon points="121,90 134,90 139,85 134,80 121,80 121,90 " style="fill:white; stroke-width:1; stroke:black; " description="&lt;b&gt;QBG82519.1&lt;/b&gt;&lt;br&gt;LuxR transcriptional regulator&lt;br&gt;Location: 19314 - 21911" locus_tag="QBG82519.1" class="clusterblast-orf" id="dummy-31_h31_4_4"  />
</g>
<g id="a31_005"  >
<polygon points="140,90 142,85 140,80 140,90 " style="fill:white; stroke-width:1; stroke:black; " description="&lt;b&gt;QBG82520.1&lt;/b&gt;&lt;br&gt;hypothetical protein&lt;br&gt;Location: 22022 - 22231" locus_tag="QBG82520.1" class="clusterblast-orf" id="dummy-31_h31_4_5"  />
</g>
<g id="a31_006"  >
<polygon points="143,90 148,90 153,85 148,80 143,80 143,90 " style="fill:white; stroke-width:1; stroke:black; " description="&lt;b&gt;QBG82521.1&lt;/b&gt;&lt;br&gt;Crotonyl-CoA reductase/carboxylase&lt;br&gt;Location: 22344 - 23711" locus_tag="QBG82521.1" class="clusterblast-orf" id="dummy-31_h31_4_6"  />
</g>
<g id="a31_007"  >
<polygon points="153,90 155,90 160,85 155,80 153,80 153,90 " style="fill:white; stroke-width:1; stroke:black; " description="&lt;b&gt;QBG82522.1&lt;/b&gt;&lt;br&gt;keto acyl-CoA synthase III&lt;br&gt;Location: 23708 - 24700" locus_tag="QBG82522.1" class="clusterblast-orf" id="dummy-31_h31_4_7"  />
</g>
<g id="a31_008"  >
<polygon points="160,90 164,90 169,85 164,80 160,80 160,90 " style="fill:white; stroke-width:1; stroke:black; " description="&lt;b&gt;QBG82523.1&lt;/b&gt;&lt;br&gt;cytochrome P450&lt;br&gt;Location: 24752 - 25966" locus_tag="QBG82523.1" class="clusterblast-orf" id="dummy-31_h31_4_8"  />
</g>
<g id="a31_009"  >
<polygon points="170,85 175,80 179,80 179,90 175,90 170,85 " style="fill:#3c15d8; stroke-width:1; stroke:black; " description="&lt;b&gt;QBG82524.1&lt;/b&gt;&lt;br&gt;cytochrome P450&lt;br&gt;Location: 26091 - 27305&lt;br&gt;&lt;br&gt;&lt;b&gt;BlastP hit with LLPMBPKK_07183&lt;/b&gt;&lt;br&gt;Percentage identity: 49&lt;br&gt;Percentage coverage: 94&lt;br&gt;BLAST bit score: 345&lt;br&gt;E-value: 2.72e-116" locus_tag="QBG82524.1" class="clusterblast-orf" id="dummy-31_h31_4_9"  />
</g>
<g id="a31_0010"  >
<polygon points="180,90 184,85 180,80 180,90 " style="fill:white; stroke-width:1; stroke:black; " description="&lt;b&gt;QBG82525.1&lt;/b&gt;&lt;br&gt;putative spirocyclase&lt;br&gt;Location: 27522 - 28052" locus_tag="QBG82525.1" class="clusterblast-orf" id="dummy-31_h31_4_10"  />
</g>
<g id="a31_0011"  >
<polygon points="185,90 250,90 255,85 250,80 185,80 185,90 " style="fill:white; stroke-width:1; stroke:black; " description="&lt;b&gt;QBG82526.1&lt;/b&gt;&lt;br&gt;Polyketide synthase&lt;br&gt;Location: 28181 - 37765" locus_tag="QBG82526.1" class="clusterblast-orf" id="dummy-31_h31_4_11"  />
</g>
<g id="a31_0012"  >
<polygon points="255,90 331,90 336,85 331,80 255,80 255,90 " style="fill:white; stroke-width:1; stroke:black; " description="&lt;b&gt;QBG82527.1&lt;/b&gt;&lt;br&gt;Polyketide synthase&lt;br&gt;Location: 37771 - 48846" locus_tag="QBG82527.1" class="clusterblast-orf" id="dummy-31_h31_4_12"  />
</g>
<g id="a31_0013"  >
<polygon points="336,90 425,90 430,85 425,80 336,80 336,90 " style="fill:white; stroke-width:1; stroke:black; " description="&lt;b&gt;QBG82528.1&lt;/b&gt;&lt;br&gt;Polyketide synthase&lt;br&gt;Location: 48882 - 61802" locus_tag="QBG82528.1" class="clusterblast-orf" id="dummy-31_h31_4_13"  />
</g>
<g id="a31_0014"  >
<polygon points="430,90 496,90 501,85 496,80 430,80 430,90 " style="fill:white; stroke-width:1; stroke:black; " description="&lt;b&gt;QBG82529.1&lt;/b&gt;&lt;br&gt;Polyketide synthase&lt;br&gt;Location: 61812 - 71495" locus_tag="QBG82529.1" class="clusterblast-orf" id="dummy-31_h31_4_14"  />
</g>
<g id="a31_0015"  >
<polygon points="502,90 506,90 511,85 506,80 502,80 502,90 " style="fill:white; stroke-width:1; stroke:black; " description="&lt;b&gt;QBG82530.1&lt;/b&gt;&lt;br&gt;cytochrome P450&lt;br&gt;Location: 71681 - 72883" locus_tag="QBG82530.1" class="clusterblast-orf" id="dummy-31_h31_4_15"  />
</g>
<g id="a31_0016"  >
<polygon points="512,90 573,90 578,85 573,80 512,80 512,90 " style="fill:white; stroke-width:1; stroke:black; " description="&lt;b&gt;QBG82531.1&lt;/b&gt;&lt;br&gt;cytochrome P450&lt;br&gt;Location: 73006 - 82053" locus_tag="QBG82531.1" class="clusterblast-orf" id="dummy-31_h31_4_16"  />
</g>
<g id="a31_0017"  >
<polygon points="578,90 652,90 657,85 652,80 578,80 578,90 " style="fill:white; stroke-width:1; stroke:black; " description="&lt;b&gt;QBG82532.1&lt;/b&gt;&lt;br&gt;Polyketide synthase&lt;br&gt;Location: 82142 - 92926" locus_tag="QBG82532.1" class="clusterblast-orf" id="dummy-31_h31_4_17"  />
</g>
<g id="a31_0018"  >
<polygon points="658,85 663,80 665,80 665,90 663,90 658,85 " style="fill:white; stroke-width:1; stroke:black; " description="&lt;b&gt;QBG82533.1&lt;/b&gt;&lt;br&gt;NDP-hexose 3-ketoreductase&lt;br&gt;Location: 93029 - 94030" locus_tag="QBG82533.1" class="clusterblast-orf" id="dummy-31_h31_4_18"  />
</g>
<g id="a31_0019"  >
<polygon points="665,85 670,80 675,80 675,90 670,90 665,85 " style="fill:white; stroke-width:1; stroke:black; " description="&lt;b&gt;QBG82534.1&lt;/b&gt;&lt;br&gt;NDP-hexose 2,3-dehydratase&lt;br&gt;Location: 94027 - 95385" locus_tag="QBG82534.1" class="clusterblast-orf" id="dummy-31_h31_4_19"  />
</g>
<g id="a31_0020"  >
<polygon points="675,85 680,80 683,80 683,90 680,90 675,85 " style="fill:white; stroke-width:1; stroke:black; " description="&lt;b&gt;QBG82535.1&lt;/b&gt;&lt;br&gt;cytochrome P450&lt;br&gt;Location: 95379 - 96569" locus_tag="QBG82535.1" class="clusterblast-orf" id="dummy-31_h31_4_20"  />
</g>
<g id="a31_0021"  >
<polygon points="686,90 690,85 686,80 686,90 " style="fill:white; stroke-width:1; stroke:black; " description="&lt;b&gt;QBG82536.1&lt;/b&gt;&lt;br&gt;dTDP-4-dehydrorhamnose 3,5-epimerase&lt;br&gt;Location: 96925 - 97521" locus_tag="QBG82536.1" class="clusterblast-orf" id="dummy-31_h31_4_21"  />
</g>
<g id="a31_0022"  >
<polygon points="691,90 691,90 696,85 691,80 691,80 691,90 " style="fill:white; stroke-width:1; stroke:black; " description="&lt;b&gt;QBG82537.1&lt;/b&gt;&lt;br&gt;Methyltransferase&lt;br&gt;Location: 97581 - 98336" locus_tag="QBG82537.1" class="clusterblast-orf" id="dummy-31_h31_4_22"  />
</g>
<g id="a31_0023"  >
<polygon points="696,90 700,90 705,85 700,80 696,80 696,90 " style="fill:white; stroke-width:1; stroke:black; " description="&lt;b&gt;QBG82538.1&lt;/b&gt;&lt;br&gt;dTDP-4-amino-4,6-dideoxygalactose transaminase&lt;br&gt;Location: 98342 - 99484" locus_tag="QBG82538.1" class="clusterblast-orf" id="dummy-31_h31_4_23"  />
</g>
<g id="a31_0024"  >
<polygon points="705,90 709,90 714,85 709,80 705,80 705,90 " style="fill:white; stroke-width:1; stroke:black; " description="&lt;b&gt;QBG82539.1&lt;/b&gt;&lt;br&gt;NDP-hexose 3,4-dehydratase&lt;br&gt;Location: 99481 - 100800" locus_tag="QBG82539.1" class="clusterblast-orf" id="dummy-31_h31_4_24"  />
</g>
<g id="a31_0025"  >
<polygon points="715,85 720,80 724,80 724,90 720,90 715,85 " style="fill:white; stroke-width:1; stroke:black; " description="&lt;b&gt;QBG82540.1&lt;/b&gt;&lt;br&gt;Glycosyltransferase&lt;br&gt;Location: 100899 - 102140" locus_tag="QBG82540.1" class="clusterblast-orf" id="dummy-31_h31_4_25"  />
</g>
<g id="a31_0026"  >
<polygon points="725,85 730,80 735,80 735,90 730,90 725,85 " style="fill:white; stroke-width:1; stroke:black; " description="&lt;b&gt;QBG82541.1&lt;/b&gt;&lt;br&gt;Serine hydroxy methyltransferase&lt;br&gt;Location: 102336 - 103601" locus_tag="QBG82541.1" class="clusterblast-orf" id="dummy-31_h31_4_26"  />
</g>
<g id="a31_0027"  >
<polygon points="736,85 741,80 745,80 745,90 741,90 736,85 " style="fill:white; stroke-width:1; stroke:black; " description="&lt;b&gt;QBG82542.1&lt;/b&gt;&lt;br&gt;ABC transporter&lt;br&gt;Location: 103736 - 105007" locus_tag="QBG82542.1" class="clusterblast-orf" id="dummy-31_h31_4_27"  />
</g>
<g id="a31_0028"  >
<polygon points="745,85 750,80 750,80 750,90 750,90 745,85 " style="fill:white; stroke-width:1; stroke:black; " description="&lt;b&gt;QBG82543.1&lt;/b&gt;&lt;br&gt;sugar ABC transporter&lt;br&gt;Location: 105013 - 105771" locus_tag="QBG82543.1" class="clusterblast-orf" id="dummy-31_h31_4_28"  />
</g>
<g id="a31_0029"  >
<polygon points="751,85 756,80 759,80 759,90 756,90 751,85 " style="fill:white; stroke-width:1; stroke:black; " description="&lt;b&gt;QBG82544.1&lt;/b&gt;&lt;br&gt;ABC transporter&lt;br&gt;Location: 105835 - 106926" locus_tag="QBG82544.1" class="clusterblast-orf" id="dummy-31_h31_4_29"  />
</g>
<g id="a31_0030"  >
<polygon points="761,90 775,90 780,85 775,80 761,80 761,90 " style="fill:#15d8d8; stroke-width:1; stroke:black; " description="&lt;b&gt;QBG82545.1&lt;/b&gt;&lt;br&gt;Regulatory protein&lt;br&gt;Location: 107235 - 109769&lt;br&gt;&lt;br&gt;&lt;b&gt;BlastP hit with LLPMBPKK_07190&lt;/b&gt;&lt;br&gt;Percentage identity: 58&lt;br&gt;Percentage coverage: 100&lt;br&gt;BLAST bit score: 825&lt;br&gt;E-value: 4.13e-292" locus_tag="QBG82545.1" class="clusterblast-orf" id="dummy-31_h31_4_30"  />
</g>
</svg>
