<svg xmlns="http://www.w3.org/2000/svg" xmlns:xlink="http://www.w3.org/1999/xlink" version="1.1" x="0" y="0" height="230" width="800" viewBox="0 0 800 230" preserveAspectRatio="none"  >
<g label="Query sequence" class="clusterblast-cluster"  >
<text x="5" y="20" class="clusterblast-acc"  >
Query sequence</text>
<line x1="10" y1="35" x2="778.0" y2="35" style="stroke-width:1; stroke:grey; "  />
<polygon points="0,40 41,40 46,35 41,30 0,30 0,40 " style="fill:white; stroke-width:1; stroke:black; " description="&lt;b&gt;LLPMBPKK_00615&lt;/b&gt;&lt;br&gt;FAD dependent oxidoreductase&lt;br&gt;Location: 800069 - 801479" locus_tag="LLPMBPKK_00615" class="clusterblast-orf" id="dummy-5_q0_0_all"  />
<polygon points="51,40 71,40 76,35 71,30 51,30 51,40 " style="fill:white; stroke-width:1; stroke:black; " description="&lt;b&gt;LLPMBPKK_00616&lt;/b&gt;&lt;br&gt;glycosyl hydrolase family protein&lt;br&gt;Location: 801635 - 802406" locus_tag="LLPMBPKK_00616" class="clusterblast-orf" id="dummy-5_q1_0_all"  />
<polygon points="77,35 82,30 85,30 85,40 82,40 77,35 " style="fill:white; stroke-width:1; stroke:black; " description="&lt;b&gt;LLPMBPKK_00617&lt;/b&gt;&lt;br&gt;hypothetical protein&lt;br&gt;Location: 802441 - 802687" locus_tag="LLPMBPKK_00617" class="clusterblast-orf" id="dummy-5_q2_0_all"  />
<polygon points="95,35 100,30 111,30 111,40 100,40 95,35 " style="fill:white; stroke-width:1; stroke:black; " description="&lt;b&gt;LLPMBPKK_00618&lt;/b&gt;&lt;br&gt;hypothetical protein&lt;br&gt;Location: 803018 - 803495" locus_tag="LLPMBPKK_00618" class="clusterblast-orf" id="dummy-5_q3_0_all"  />
<polygon points="112,35 117,30 141,30 141,40 117,40 112,35 " style="fill:white; stroke-width:1; stroke:black; " description="&lt;b&gt;LLPMBPKK_00619&lt;/b&gt;&lt;br&gt;SDR family oxidoreductase&lt;br&gt;Location: 803536 - 804418" locus_tag="LLPMBPKK_00619" class="clusterblast-orf" id="dummy-5_q4_0_all"  />
<polygon points="143,35 148,30 158,30 158,40 148,40 143,35 " style="fill:white; stroke-width:1; stroke:black; " description="&lt;b&gt;LLPMBPKK_00620&lt;/b&gt;&lt;br&gt;hypothetical protein&lt;br&gt;Location: 804480 - 804933" locus_tag="LLPMBPKK_00620" class="clusterblast-orf" id="dummy-5_q5_0_all"  />
<polygon points="160,35 165,30 213,30 213,40 165,40 160,35 " style="fill:white; stroke-width:1; stroke:black; " description="&lt;b&gt;LLPMBPKK_00621&lt;/b&gt;&lt;br&gt;dehydrogenase&lt;br&gt;Location: 805025 - 806645" locus_tag="LLPMBPKK_00621" class="clusterblast-orf" id="dummy-5_q6_0_all"  />
<polygon points="213,35 218,30 229,30 229,40 218,40 213,35 " style="fill:white; stroke-width:1; stroke:black; " description="&lt;b&gt;LLPMBPKK_00622&lt;/b&gt;&lt;br&gt;SRPBCC family protein&lt;br&gt;Location: 806637 - 807132" locus_tag="LLPMBPKK_00622" class="clusterblast-orf" id="dummy-5_q7_0_all"  />
<polygon points="237,35 242,30 288,30 288,40 242,40 237,35 " style="fill:#d81515; stroke-width:1; stroke:black; " description="&lt;b&gt;LLPMBPKK_00623&lt;/b&gt;&lt;br&gt;FAD-dependent oxidoreductase&lt;br&gt;Location: 807384 - 808953" locus_tag="LLPMBPKK_00623" class="clusterblast-orf" id="dummy-5_q8_0_all"  />
<polygon points="288,35 293,30 311,30 311,40 293,40 288,35 " style="fill:#15d815; stroke-width:1; stroke:black; " description="&lt;b&gt;LLPMBPKK_00624&lt;/b&gt;&lt;br&gt;methyltransferase domain-containing protein&lt;br&gt;Location: 808949 - 809669" locus_tag="LLPMBPKK_00624" class="clusterblast-orf" id="dummy-5_q9_0_all"  />
<polygon points="311,35 316,30 351,30 351,40 316,40 311,35 " style="fill:#1515d8; stroke-width:1; stroke:black; " description="&lt;b&gt;LLPMBPKK_00625&lt;/b&gt;&lt;br&gt;lycopene cyclase&lt;br&gt;Location: 809665 - 810889" locus_tag="LLPMBPKK_00625" class="clusterblast-orf" id="dummy-5_q10_0_all"  />
<polygon points="363,40 369,40 374,35 369,30 363,30 363,40 " style="fill:white; stroke-width:1; stroke:black; " description="&lt;b&gt;LLPMBPKK_00626&lt;/b&gt;&lt;br&gt;hypothetical protein&lt;br&gt;Location: 811279 - 811597" locus_tag="LLPMBPKK_00626" class="clusterblast-orf" id="dummy-5_q11_0_all"  />
<polygon points="373,40 418,40 423,35 418,30 373,30 373,40 " style="fill:#d815d8; stroke-width:1; stroke:black; " description="&lt;b&gt;LLPMBPKK_00627&lt;/b&gt;&lt;br&gt;phytoene desaturase&lt;br&gt;Location: 811593 - 813132" locus_tag="LLPMBPKK_00627" class="clusterblast-orf" id="dummy-5_q12_0_all"  />
<polygon points="423,40 451,40 456,35 451,30 423,30 423,40 " style="fill:#d8d815; stroke-width:1; stroke:black; " description="&lt;b&gt;LLPMBPKK_00628&lt;/b&gt;&lt;br&gt;phytoene/squalene synthase family protein&lt;br&gt;Location: 813128 - 814148" locus_tag="LLPMBPKK_00628" class="clusterblast-orf" id="dummy-5_q13_0_all"  />
<polygon points="456,40 486,40 491,35 486,30 456,30 456,40 " style="fill:#15d8d8; stroke-width:1; stroke:black; " description="&lt;b&gt;LLPMBPKK_00629&lt;/b&gt;&lt;br&gt;Rieske (2Fe-2S) protein&lt;br&gt;Location: 814144 - 815218" locus_tag="LLPMBPKK_00629" class="clusterblast-orf" id="dummy-5_q14_0_all"  />
<polygon points="497,40 500,40 505,35 500,30 497,30 497,40 " style="fill:white; stroke-width:1; stroke:black; " description="&lt;b&gt;LLPMBPKK_00630&lt;/b&gt;&lt;br&gt;hypothetical protein&lt;br&gt;Location: 815393 - 815654" locus_tag="LLPMBPKK_00630" class="clusterblast-orf" id="dummy-5_q15_0_all"  />
<polygon points="510,40 529,40 534,35 529,30 510,30 510,40 " style="fill:white; stroke-width:1; stroke:black; " description="&lt;b&gt;LLPMBPKK_00631&lt;/b&gt;&lt;br&gt;hypothetical protein&lt;br&gt;Location: 815792 - 816557" locus_tag="LLPMBPKK_00631" class="clusterblast-orf" id="dummy-5_q16_0_all"  />
<polygon points="533,40 556,40 561,35 556,30 533,30 533,40 " style="fill:white; stroke-width:1; stroke:black; " description="&lt;b&gt;LLPMBPKK_00632&lt;/b&gt;&lt;br&gt;MFS transporter&lt;br&gt;Location: 816508 - 817375" locus_tag="LLPMBPKK_00632" class="clusterblast-orf" id="dummy-5_q17_0_all"  />
<polygon points="573,40 575,40 580,35 575,30 573,30 573,40 " style="fill:white; stroke-width:1; stroke:black; " description="&lt;b&gt;LLPMBPKK_00633&lt;/b&gt;&lt;br&gt;hypothetical protein&lt;br&gt;Location: 817740 - 817956" locus_tag="LLPMBPKK_00633" class="clusterblast-orf" id="dummy-5_q18_0_all"  />
<polygon points="583,40 592,40 597,35 592,30 583,30 583,40 " style="fill:white; stroke-width:1; stroke:black; " description="&lt;b&gt;LLPMBPKK_00634&lt;/b&gt;&lt;br&gt;pyridoxamine 5'-phosphate oxidase&lt;br&gt;Location: 818072 - 818498" locus_tag="LLPMBPKK_00634" class="clusterblast-orf" id="dummy-5_q19_0_all"  />
<polygon points="601,35 606,30 620,30 620,40 606,40 601,35 " style="fill:white; stroke-width:1; stroke:black; " description="&lt;b&gt;LLPMBPKK_00635&lt;/b&gt;&lt;br&gt;hypothetical protein&lt;br&gt;Location: 818617 - 819214" locus_tag="LLPMBPKK_00635" class="clusterblast-orf" id="dummy-5_q20_0_all"  />
<polygon points="623,35 628,30 701,30 701,40 628,40 623,35 " style="fill:white; stroke-width:1; stroke:black; " description="&lt;b&gt;LLPMBPKK_00636&lt;/b&gt;&lt;br&gt;glycoside hydrolase family 2&lt;br&gt;Location: 819302 - 821684" locus_tag="LLPMBPKK_00636" class="clusterblast-orf" id="dummy-5_q21_0_all"  />
<polygon points="705,35 710,30 744,30 744,40 710,40 705,35 " style="fill:white; stroke-width:1; stroke:black; " description="&lt;b&gt;LLPMBPKK_00637&lt;/b&gt;&lt;br&gt;S1 family peptidase&lt;br&gt;Location: 821812 - 823036" locus_tag="LLPMBPKK_00637" class="clusterblast-orf" id="dummy-5_q22_0_all"  />
<polygon points="756,40 775,40 780,35 775,30 756,30 756,40 " style="fill:white; stroke-width:1; stroke:black; " description="&lt;b&gt;LLPMBPKK_00638&lt;/b&gt;&lt;br&gt;dienelactone hydrolase family protein&lt;br&gt;Location: 823403 - 824129" locus_tag="LLPMBPKK_00638" class="clusterblast-orf" id="dummy-5_q23_0_all"  />
</g>
<g label="BGC0000664" description="BGC0000664_c1: isorenieratene (85% of genes show similarity), Terpene" class="clusterblast-cluster"  >
<text x="5" y="70" class="clusterblast-acc"  >
<a xlink:href="https://mibig.secondarymetabolites.org/go/BGC0000664/1" target="_blank">BGC0000664</a>:                                                                   isorenieratene (85% of genes show similarity), Terpene</text>
<line x1="10" y1="85" x2="778.0" y2="85" style="stroke-width:1; stroke:grey; "  />
</g>
<g id="a5_000"  >
<polygon points="254,90 290,90 295,85 290,80 254,80 254,90 " style="fill:white; stroke-width:1; stroke:black; " description="&lt;b&gt;SGR_6830&lt;/b&gt;&lt;br&gt;putative geranylgeranyl pyrophosphate synthase&lt;br&gt;Location: 8391 - 7114" locus_tag="SGR_6830" class="clusterblast-orf" id="dummy-5_h5_4_0"  />
</g>
<g id="a5_001"  >
<polygon points="295,90 339,90 344,85 339,80 295,80 295,90 " style="fill:#d815d8; stroke-width:1; stroke:black; " description="&lt;b&gt;SGR_6829&lt;/b&gt;&lt;br&gt;putative phytoene dehydrogenase&lt;br&gt;Location: 7117 - 5594&lt;br&gt;&lt;br&gt;&lt;b&gt;BlastP hit with LLPMBPKK_00627&lt;/b&gt;&lt;br&gt;Percentage identity: 81&lt;br&gt;Percentage coverage: 95&lt;br&gt;BLAST bit score: 781&lt;br&gt;E-value: 9.25e-285" locus_tag="SGR_6829" class="clusterblast-orf" id="dummy-5_h5_4_1"  />
</g>
<g id="a5_002"  >
<polygon points="344,90 372,90 377,85 372,80 344,80 344,90 " style="fill:#d8d815; stroke-width:1; stroke:black; " description="&lt;b&gt;SGR_6828&lt;/b&gt;&lt;br&gt;putative phytoene synthase&lt;br&gt;Location: 5597 - 4569&lt;br&gt;&lt;br&gt;&lt;b&gt;BlastP hit with LLPMBPKK_00628&lt;/b&gt;&lt;br&gt;Percentage identity: 66&lt;br&gt;Percentage coverage: 101&lt;br&gt;BLAST bit score: 411&lt;br&gt;E-value: 4.23e-144" locus_tag="SGR_6828" class="clusterblast-orf" id="dummy-5_h5_4_2"  />
</g>
<g id="a5_003"  >
<polygon points="377,90 405,90 410,85 405,80 377,80 377,90 " style="fill:#15d8d8; stroke-width:1; stroke:black; " description="&lt;b&gt;SGR_6827&lt;/b&gt;&lt;br&gt;putative methylesterase&lt;br&gt;Location: 4572 - 3556&lt;br&gt;&lt;br&gt;&lt;b&gt;BlastP hit with LLPMBPKK_00629&lt;/b&gt;&lt;br&gt;Percentage identity: 69&lt;br&gt;Percentage coverage: 98&lt;br&gt;BLAST bit score: 478&lt;br&gt;E-value: 2.59e-170" locus_tag="SGR_6827" class="clusterblast-orf" id="dummy-5_h5_4_3"  />
</g>
<g id="a5_004"  >
<polygon points="411,85 416,80 462,80 462,90 416,90 411,85 " style="fill:#d81515; stroke-width:1; stroke:black; " description="&lt;b&gt;SGR_6826&lt;/b&gt;&lt;br&gt;putative beta-carotene desaturase/methylase&lt;br&gt;Location: 3520 - 1964&lt;br&gt;&lt;br&gt;&lt;b&gt;BlastP hit with LLPMBPKK_00623&lt;/b&gt;&lt;br&gt;Percentage identity: 70&lt;br&gt;Percentage coverage: 96&lt;br&gt;BLAST bit score: 697&lt;br&gt;E-value: 2.07e-251" locus_tag="SGR_6826" class="clusterblast-orf" id="dummy-5_h5_4_4"  />
</g>
<g id="a5_005"  >
<polygon points="462,85 467,80 485,80 485,90 467,90 462,85 " style="fill:#15d815; stroke-width:1; stroke:black; " description="&lt;b&gt;SGR_6825&lt;/b&gt;&lt;br&gt;putative methyltransferase&lt;br&gt;Location: 1967 - 1239&lt;br&gt;&lt;br&gt;&lt;b&gt;BlastP hit with LLPMBPKK_00624&lt;/b&gt;&lt;br&gt;Percentage identity: 64&lt;br&gt;Percentage coverage: 97&lt;br&gt;BLAST bit score: 286&lt;br&gt;E-value: 7.25e-98" locus_tag="SGR_6825" class="clusterblast-orf" id="dummy-5_h5_4_5"  />
</g>
<g id="a5_006"  >
<polygon points="485,85 490,80 525,80 525,90 490,90 485,85 " style="fill:#1515d8; stroke-width:1; stroke:black; " description="&lt;b&gt;SGR_6824&lt;/b&gt;&lt;br&gt;putative lycopene cyclase&lt;br&gt;Location: 1242 - 1&lt;br&gt;&lt;br&gt;&lt;b&gt;BlastP hit with LLPMBPKK_00625&lt;/b&gt;&lt;br&gt;Percentage identity: 59&lt;br&gt;Percentage coverage: 100&lt;br&gt;BLAST bit score: 422&lt;br&gt;E-value: 3.44e-146" locus_tag="SGR_6824" class="clusterblast-orf" id="dummy-5_h5_4_6"  />
</g>
</svg>
