<svg xmlns="http://www.w3.org/2000/svg" xmlns:xlink="http://www.w3.org/1999/xlink" version="1.1" x="0" y="0" height="230" width="800" viewBox="0 0 800 230" preserveAspectRatio="none"  >
<g label="Query sequence" class="clusterblast-cluster"  >
<text x="5" y="20" class="clusterblast-acc"  >
Query sequence</text>
<line x1="10" y1="35" x2="778.0" y2="35" style="stroke-width:1; stroke:grey; "  />
<polygon points="153,40 153,40 158,35 153,30 153,30 153,40 " style="fill:white; stroke-width:1; stroke:black; " description="&lt;b&gt;LLPMBPKK_07173&lt;/b&gt;&lt;br&gt;Polysaccharide deacetylase&lt;br&gt;Location: 8309065 - 8309899" locus_tag="LLPMBPKK_07173" class="clusterblast-orf" id="dummy-31_q0_0_all"  />
<polygon points="160,35 165,30 167,30 167,40 165,40 160,35 " style="fill:white; stroke-width:1; stroke:black; " description="&lt;b&gt;LLPMBPKK_07174&lt;/b&gt;&lt;br&gt;Processive diacylglycerolbeta-glucosyltransferase&lt;br&gt;Location: 8310344 - 8311391" locus_tag="LLPMBPKK_07174" class="clusterblast-orf" id="dummy-31_q1_0_all"  />
<polygon points="168,40 168,40 173,35 168,30 168,30 168,40 " style="fill:white; stroke-width:1; stroke:black; " description="&lt;b&gt;LLPMBPKK_07175&lt;/b&gt;&lt;br&gt;hypothetical protein&lt;br&gt;Location: 8311642 - 8312464" locus_tag="LLPMBPKK_07175" class="clusterblast-orf" id="dummy-31_q2_0_all"  />
<polygon points="173,35 178,30 191,30 191,40 178,40 173,35 " style="fill:#d81515; stroke-width:1; stroke:black; " description="&lt;b&gt;LLPMBPKK_07176&lt;/b&gt;&lt;br&gt;NHLP bacteriocin export ABC transporterpermease/ATPase subunit&lt;br&gt;Location: 8312460 - 8315277" locus_tag="LLPMBPKK_07176" class="clusterblast-orf" id="dummy-31_q3_0_all"  />
<polygon points="191,35 196,30 204,30 204,40 196,40 191,35 " style="fill:#3cd815; stroke-width:1; stroke:black; " description="&lt;b&gt;LLPMBPKK_07177&lt;/b&gt;&lt;br&gt;NHLP family bacteriocin export ABC transporter peptidase/permease/ATPase subunit&lt;br&gt;Location: 8315278 - 8317501" locus_tag="LLPMBPKK_07177" class="clusterblast-orf" id="dummy-31_q4_0_all"  />
<polygon points="204,35 209,30 209,30 209,40 209,40 204,35 " style="fill:#1563d8; stroke-width:1; stroke:black; " description="&lt;b&gt;LLPMBPKK_07178&lt;/b&gt;&lt;br&gt;HlyD family efflux transporter periplasmicadaptor subunit&lt;br&gt;Location: 8317497 - 8318304" locus_tag="LLPMBPKK_07178" class="clusterblast-orf" id="dummy-31_q5_0_all"  />
<polygon points="210,35 211,30 211,40 210,35 " style="fill:#b115d8; stroke-width:1; stroke:black; " description="&lt;b&gt;LLPMBPKK_07179&lt;/b&gt;&lt;br&gt;hypothetical protein&lt;br&gt;Location: 8318405 - 8318624" locus_tag="LLPMBPKK_07179" class="clusterblast-orf" id="dummy-31_q6_0_all"  />
<polygon points="214,35 215,30 215,40 214,35 " style="fill:white; stroke-width:1; stroke:black; " description="&lt;b&gt;LLPMBPKK_07180&lt;/b&gt;&lt;br&gt;PaaI family thioesterase&lt;br&gt;Location: 8319076 - 8319319" locus_tag="LLPMBPKK_07180" class="clusterblast-orf" id="dummy-31_q7_0_all"  />
<polygon points="217,40 221,40 226,35 221,30 217,30 217,40 " style="fill:#d88a15; stroke-width:1; stroke:black; " description="&lt;b&gt;LLPMBPKK_07181&lt;/b&gt;&lt;br&gt;S1 family peptidase&lt;br&gt;Location: 8319665 - 8321150" locus_tag="LLPMBPKK_07181" class="clusterblast-orf" id="dummy-31_q8_0_all"  />
<polygon points="227,35 232,30 240,30 240,40 232,40 227,35 " style="fill:#15d863; stroke-width:1; stroke:black; " description="&lt;b&gt;LLPMBPKK_07182&lt;/b&gt;&lt;br&gt;magnesium or manganese-dependent proteinphosphatase&lt;br&gt;Location: 8321293 - 8323417" locus_tag="LLPMBPKK_07182" class="clusterblast-orf" id="dummy-31_q9_0_all"  />
<polygon points="249,40 252,40 257,35 252,30 249,30 249,40 " style="fill:#3c15d8; stroke-width:1; stroke:black; " description="&lt;b&gt;LLPMBPKK_07183&lt;/b&gt;&lt;br&gt;cytochrome P450&lt;br&gt;Location: 8324921 - 8326130" locus_tag="LLPMBPKK_07183" class="clusterblast-orf" id="dummy-31_q10_0_all"  />
<polygon points="257,40 261,40 266,35 261,30 257,30 257,40 " style="fill:white; stroke-width:1; stroke:black; " description="&lt;b&gt;LLPMBPKK_07184&lt;/b&gt;&lt;br&gt;alpha/beta hydrolase MppK&lt;br&gt;Location: 8326230 - 8327592" locus_tag="LLPMBPKK_07184" class="clusterblast-orf" id="dummy-31_q11_0_all"  />
<polygon points="269,40 378,40 383,35 378,30 269,30 269,40 " style="fill:#d8158a; stroke-width:1; stroke:black; " description="&lt;b&gt;LLPMBPKK_07185&lt;/b&gt;&lt;br&gt;non-ribosomal peptide synthetase&lt;br&gt;Location: 8328105 - 8346762" locus_tag="LLPMBPKK_07185" class="clusterblast-orf" id="dummy-31_q12_0_all"  />
<polygon points="383,40 500,40 505,35 500,30 383,30 383,40 " style="fill:#b1d815; stroke-width:1; stroke:black; " description="&lt;b&gt;LLPMBPKK_07186&lt;/b&gt;&lt;br&gt;D-alanine--poly(phosphoribitol) ligase subunit 1&lt;br&gt;Location: 8346775 - 8366839" locus_tag="LLPMBPKK_07186" class="clusterblast-orf" id="dummy-31_q13_0_all"  />
<polygon points="506,40 507,35 506,30 506,40 " style="fill:white; stroke-width:1; stroke:black; " description="&lt;b&gt;LLPMBPKK_07187&lt;/b&gt;&lt;br&gt;MbtH family NRPS accessory protein&lt;br&gt;Location: 8366970 - 8367174" locus_tag="LLPMBPKK_07187" class="clusterblast-orf" id="dummy-31_q14_0_all"  />
<polygon points="509,40 513,35 509,30 509,40 " style="fill:white; stroke-width:1; stroke:black; " description="&lt;b&gt;LLPMBPKK_07188&lt;/b&gt;&lt;br&gt;N-acetyltransferase&lt;br&gt;Location: 8367504 - 8368035" locus_tag="LLPMBPKK_07188" class="clusterblast-orf" id="dummy-31_q15_0_all"  />
<polygon points="513,40 515,40 520,35 515,30 513,30 513,40 " style="fill:white; stroke-width:1; stroke:black; " description="&lt;b&gt;LLPMBPKK_07189&lt;/b&gt;&lt;br&gt;major facilitator superfamily transporter&lt;br&gt;Location: 8368031 - 8369297" locus_tag="LLPMBPKK_07189" class="clusterblast-orf" id="dummy-31_q16_0_all"  />
<polygon points="522,40 531,40 536,35 531,30 522,30 522,40 " style="fill:#15d8d8; stroke-width:1; stroke:black; " description="&lt;b&gt;LLPMBPKK_07190&lt;/b&gt;&lt;br&gt;signal transduction histidine kinase&lt;br&gt;Location: 8369574 - 8371950" locus_tag="LLPMBPKK_07190" class="clusterblast-orf" id="dummy-31_q17_0_all"  />
<polygon points="537,40 539,35 537,30 537,40 " style="fill:white; stroke-width:1; stroke:black; " description="&lt;b&gt;LLPMBPKK_07191&lt;/b&gt;&lt;br&gt;hypothetical protein&lt;br&gt;Location: 8372031 - 8372304" locus_tag="LLPMBPKK_07191" class="clusterblast-orf" id="dummy-31_q18_0_all"  />
<polygon points="540,40 542,35 540,30 540,40 " style="fill:white; stroke-width:1; stroke:black; " description="&lt;b&gt;LLPMBPKK_07192&lt;/b&gt;&lt;br&gt;hypothetical protein&lt;br&gt;Location: 8372511 - 8372928" locus_tag="LLPMBPKK_07192" class="clusterblast-orf" id="dummy-31_q19_0_all"  />
<polygon points="543,40 544,35 543,30 543,40 " style="fill:white; stroke-width:1; stroke:black; " description="&lt;b&gt;LLPMBPKK_07193&lt;/b&gt;&lt;br&gt;hypothetical protein&lt;br&gt;Location: 8373070 - 8373256" locus_tag="LLPMBPKK_07193" class="clusterblast-orf" id="dummy-31_q20_0_all"  />
<polygon points="545,35 548,30 548,40 545,35 " style="fill:white; stroke-width:1; stroke:black; " description="&lt;b&gt;LLPMBPKK_07194&lt;/b&gt;&lt;br&gt;hydrolase&lt;br&gt;Location: 8373290 - 8373875" locus_tag="LLPMBPKK_07194" class="clusterblast-orf" id="dummy-31_q21_0_all"  />
<polygon points="549,35 552,30 552,40 549,35 " style="fill:white; stroke-width:1; stroke:black; " description="&lt;b&gt;LLPMBPKK_07195&lt;/b&gt;&lt;br&gt;MarR family transcriptional regulator&lt;br&gt;Location: 8374017 - 8374455" locus_tag="LLPMBPKK_07195" class="clusterblast-orf" id="dummy-31_q22_0_all"  />
<polygon points="553,40 566,40 571,35 566,30 553,30 553,40 " style="fill:white; stroke-width:1; stroke:black; " description="&lt;b&gt;LLPMBPKK_07196&lt;/b&gt;&lt;br&gt;FAD-binding oxidoreductase&lt;br&gt;Location: 8374640 - 8377685" locus_tag="LLPMBPKK_07196" class="clusterblast-orf" id="dummy-31_q23_0_all"  />
<polygon points="571,40 573,40 578,35 573,30 571,30 571,40 " style="fill:white; stroke-width:1; stroke:black; " description="&lt;b&gt;LLPMBPKK_07197&lt;/b&gt;&lt;br&gt;mandelate racemase&lt;br&gt;Location: 8377687 - 8378797" locus_tag="LLPMBPKK_07197" class="clusterblast-orf" id="dummy-31_q24_0_all"  />
<polygon points="578,40 580,40 585,35 580,30 578,30 578,40 " style="fill:white; stroke-width:1; stroke:black; " description="&lt;b&gt;LLPMBPKK_07198&lt;/b&gt;&lt;br&gt;SDR family NAD(P)-dependent oxidoreductase&lt;br&gt;Location: 8378830 - 8379838" locus_tag="LLPMBPKK_07198" class="clusterblast-orf" id="dummy-31_q25_0_all"  />
<polygon points="585,40 588,35 585,30 585,40 " style="fill:white; stroke-width:1; stroke:black; " description="&lt;b&gt;LLPMBPKK_07199&lt;/b&gt;&lt;br&gt;metallophosphoesterase&lt;br&gt;Location: 8379862 - 8380348" locus_tag="LLPMBPKK_07199" class="clusterblast-orf" id="dummy-31_q26_0_all"  />
<polygon points="588,40 591,35 588,30 588,40 " style="fill:white; stroke-width:1; stroke:black; " description="&lt;b&gt;LLPMBPKK_07200&lt;/b&gt;&lt;br&gt;N-acetyltransferase&lt;br&gt;Location: 8380373 - 8380964" locus_tag="LLPMBPKK_07200" class="clusterblast-orf" id="dummy-31_q27_0_all"  />
<polygon points="595,35 600,30 601,30 601,40 600,40 595,35 " style="fill:white; stroke-width:1; stroke:black; " description="&lt;b&gt;LLPMBPKK_07201&lt;/b&gt;&lt;br&gt;xanthine dehydrogenase&lt;br&gt;Location: 8381495 - 8382602" locus_tag="LLPMBPKK_07201" class="clusterblast-orf" id="dummy-31_q28_0_all"  />
<polygon points="603,40 610,40 615,35 610,30 603,30 603,40 " style="fill:white; stroke-width:1; stroke:black; " description="&lt;b&gt;LLPMBPKK_07202&lt;/b&gt;&lt;br&gt;GTP-binding protein&lt;br&gt;Location: 8382788 - 8384783" locus_tag="LLPMBPKK_07202" class="clusterblast-orf" id="dummy-31_q29_0_all"  />
<polygon points="615,40 621,40 626,35 621,30 615,30 615,40 " style="fill:white; stroke-width:1; stroke:black; " description="&lt;b&gt;LLPMBPKK_07203&lt;/b&gt;&lt;br&gt;endoglycosylceramidase&lt;br&gt;Location: 8384852 - 8386706" locus_tag="LLPMBPKK_07203" class="clusterblast-orf" id="dummy-31_q30_0_all"  />
</g>
<g label="BGC0002497" description="BGC0002497_c1: hexacosalactone A (6% of genes show similarity), Other" class="clusterblast-cluster"  >
<text x="5" y="70" class="clusterblast-acc"  >
<a xlink:href="https://mibig.secondarymetabolites.org/go/BGC0002497/1" target="_blank">BGC0002497</a>:                                                                hexacosalactone A (6% of genes show similarity), Other</text>
<line x1="10" y1="85" x2="778.0" y2="85" style="stroke-width:1; stroke:grey; "  />
</g>
<g id="a31_000"  >
<polygon points="0,90 4,90 9,85 4,80 0,80 0,90 " style="fill:white; stroke-width:1; stroke:black; " description="&lt;b&gt;QQZ01653.1&lt;/b&gt;&lt;br&gt;MFS transporter&lt;br&gt;Location: 129025 - 127460" locus_tag="QQZ01653.1" class="clusterblast-orf" id="dummy-31_h31_3_0"  />
</g>
<g id="a31_001"  >
<polygon points="9,85 14,80 22,80 22,90 14,90 9,85 " style="fill:#d81515; stroke-width:1; stroke:black; " description="&lt;b&gt;QQZ01652.1&lt;/b&gt;&lt;br&gt;ABC transporter&lt;br&gt;Location: 127440 - 125365&lt;br&gt;&lt;br&gt;&lt;b&gt;BlastP hit with LLPMBPKK_07176&lt;/b&gt;&lt;br&gt;Percentage identity: 72&lt;br&gt;Percentage coverage: 73&lt;br&gt;BLAST bit score: 952&lt;br&gt;E-value: 0.0" locus_tag="QQZ01652.1" class="clusterblast-orf" id="dummy-31_h31_3_1"  />
</g>
<g id="a31_002"  >
<polygon points="27,85 32,80 40,80 40,90 32,90 27,85 " style="fill:#3cd815; stroke-width:1; stroke:black; " description="&lt;b&gt;QQZ01651.1&lt;/b&gt;&lt;br&gt;ABC transporter&lt;br&gt;Location: 124573 - 122429&lt;br&gt;&lt;br&gt;&lt;b&gt;BlastP hit with LLPMBPKK_07177&lt;/b&gt;&lt;br&gt;Percentage identity: 84&lt;br&gt;Percentage coverage: 96&lt;br&gt;BLAST bit score: 1144&lt;br&gt;E-value: 0.0" locus_tag="QQZ01651.1" class="clusterblast-orf" id="dummy-31_h31_3_2"  />
</g>
<g id="a31_003"  >
<polygon points="41,85 45,80 45,90 41,85 " style="fill:#1563d8; stroke-width:1; stroke:black; " description="&lt;b&gt;QQZ01650.1&lt;/b&gt;&lt;br&gt;HlyD family efflux transporter&lt;br&gt;Location: 122294 - 121488&lt;br&gt;&lt;br&gt;&lt;b&gt;BlastP hit with LLPMBPKK_07178&lt;/b&gt;&lt;br&gt;Percentage identity: 62&lt;br&gt;Percentage coverage: 100&lt;br&gt;BLAST bit score: 312&lt;br&gt;E-value: 1.73e-107" locus_tag="QQZ01650.1" class="clusterblast-orf" id="dummy-31_h31_3_3"  />
</g>
<g id="a31_004"  >
<polygon points="50,85 55,80 57,80 57,90 55,90 50,85 " style="fill:white; stroke-width:1; stroke:black; " description="&lt;b&gt;QQZ01649.1&lt;/b&gt;&lt;br&gt;glutathionyl-hydroquinone reductase&lt;br&gt;Location: 120701 - 119673" locus_tag="QQZ01649.1" class="clusterblast-orf" id="dummy-31_h31_3_4"  />
</g>
<g id="a31_005"  >
<polygon points="59,85 64,80 69,80 69,90 64,90 59,85 " style="fill:white; stroke-width:1; stroke:black; " description="&lt;b&gt;QQZ01648.1&lt;/b&gt;&lt;br&gt;PucR family transcriptional regulator&lt;br&gt;Location: 119285 - 117657" locus_tag="QQZ01648.1" class="clusterblast-orf" id="dummy-31_h31_3_5"  />
</g>
<g id="a31_006"  >
<polygon points="71,85 74,80 74,90 71,85 " style="fill:white; stroke-width:1; stroke:black; " description="&lt;b&gt;QQZ01647.1&lt;/b&gt;&lt;br&gt;etR/AcrR family transcriptional regulator&lt;br&gt;Location: 117360 - 116752" locus_tag="QQZ01647.1" class="clusterblast-orf" id="dummy-31_h31_3_6"  />
</g>
<g id="a31_007"  >
<polygon points="75,90 78,90 83,85 78,80 75,80 75,90 " style="fill:white; stroke-width:1; stroke:black; " description="&lt;b&gt;QQZ01646.1&lt;/b&gt;&lt;br&gt;cytochrome P450&lt;br&gt;Location: 116579 - 115356" locus_tag="QQZ01646.1" class="clusterblast-orf" id="dummy-31_h31_3_7"  />
</g>
<g id="a31_008"  >
<polygon points="84,90 86,90 91,85 86,80 84,80 84,90 " style="fill:white; stroke-width:1; stroke:black; " description="&lt;b&gt;QQZ01645.1&lt;/b&gt;&lt;br&gt;amidase domain-containing protein&lt;br&gt;Location: 115228 - 114092" locus_tag="QQZ01645.1" class="clusterblast-orf" id="dummy-31_h31_3_8"  />
</g>
<g id="a31_009"  >
<polygon points="94,90 104,90 109,85 104,80 94,80 94,90 " style="fill:white; stroke-width:1; stroke:black; " description="&lt;b&gt;QQZ01644.1&lt;/b&gt;&lt;br&gt;glycosyl hydrolase&lt;br&gt;Location: 113600 - 111096" locus_tag="QQZ01644.1" class="clusterblast-orf" id="dummy-31_h31_3_9"  />
</g>
<g id="a31_0010"  >
<polygon points="110,90 114,85 110,80 110,90 " style="fill:white; stroke-width:1; stroke:black; " description="&lt;b&gt;QQZ01643.1&lt;/b&gt;&lt;br&gt;SDR family oxidoreductase&lt;br&gt;Location: 110980 - 110186" locus_tag="QQZ01643.1" class="clusterblast-orf" id="dummy-31_h31_3_10"  />
</g>
<g id="a31_0011"  >
<polygon points="115,85 120,80 120,80 120,90 120,90 115,85 " style="fill:white; stroke-width:1; stroke:black; " description="&lt;b&gt;QQZ01642.1&lt;/b&gt;&lt;br&gt;TIGR03943 family protein&lt;br&gt;Location: 110120 - 109347" locus_tag="QQZ01642.1" class="clusterblast-orf" id="dummy-31_h31_3_11"  />
</g>
<g id="a31_0012"  >
<polygon points="120,85 125,80 126,80 126,90 125,90 120,85 " style="fill:white; stroke-width:1; stroke:black; " description="&lt;b&gt;QQZ01641.1&lt;/b&gt;&lt;br&gt;permease&lt;br&gt;Location: 109350 - 108334" locus_tag="QQZ01641.1" class="clusterblast-orf" id="dummy-31_h31_3_12"  />
</g>
<g id="a31_0013"  >
<polygon points="126,85 131,80 133,80 133,90 131,90 126,85 " style="fill:white; stroke-width:1; stroke:black; " description="&lt;b&gt;QQZ01640.1&lt;/b&gt;&lt;br&gt;glycosyltransferase&lt;br&gt;Location: 108292 - 107171" locus_tag="QQZ01640.1" class="clusterblast-orf" id="dummy-31_h31_3_13"  />
</g>
<g id="a31_0014"  >
<polygon points="133,85 138,80 141,80 141,90 138,90 133,85 " style="fill:white; stroke-width:1; stroke:black; " description="&lt;b&gt;QQZ01639.1&lt;/b&gt;&lt;br&gt;glycosyltransferase&lt;br&gt;Location: 107174 - 105834" locus_tag="QQZ01639.1" class="clusterblast-orf" id="dummy-31_h31_3_14"  />
</g>
<g id="a31_0015"  >
<polygon points="141,85 146,80 147,80 147,90 146,90 141,85 " style="fill:white; stroke-width:1; stroke:black; " description="&lt;b&gt;QQZ01638.1&lt;/b&gt;&lt;br&gt;alpha/beta hydrolase&lt;br&gt;Location: 105837 - 104905" locus_tag="QQZ01638.1" class="clusterblast-orf" id="dummy-31_h31_3_15"  />
</g>
<g id="a31_0016"  >
<polygon points="147,85 149,80 149,90 147,85 " style="fill:white; stroke-width:1; stroke:black; " description="&lt;b&gt;QQZ01637.1&lt;/b&gt;&lt;br&gt;acyl carrier protein&lt;br&gt;Location: 104901 - 104551" locus_tag="QQZ01637.1" class="clusterblast-orf" id="dummy-31_h31_3_16"  />
</g>
<g id="a31_0017"  >
<polygon points="149,85 154,80 177,80 177,90 154,90 149,85 " style="fill:white; stroke-width:1; stroke:black; " description="&lt;b&gt;QQZ01636.1&lt;/b&gt;&lt;br&gt;PKS&lt;br&gt;Location: 104554 - 99959" locus_tag="QQZ01636.1" class="clusterblast-orf" id="dummy-31_h31_3_17"  />
</g>
<g id="a31_0018"  >
<polygon points="177,85 182,80 220,80 220,90 182,90 177,85 " style="fill:white; stroke-width:1; stroke:black; " description="&lt;b&gt;QQZ01635.1&lt;/b&gt;&lt;br&gt;PKS&lt;br&gt;Location: 99962 - 92838" locus_tag="QQZ01635.1" class="clusterblast-orf" id="dummy-31_h31_3_18"  />
</g>
<g id="a31_0019"  >
<polygon points="223,85 228,80 233,80 233,90 228,90 223,85 " style="fill:white; stroke-width:1; stroke:black; " description="&lt;b&gt;QQZ01634.1&lt;/b&gt;&lt;br&gt;ABC transporter&lt;br&gt;Location: 92431 - 90758" locus_tag="QQZ01634.1" class="clusterblast-orf" id="dummy-31_h31_3_19"  />
</g>
<g id="a31_0020"  >
<polygon points="236,90 240,85 236,80 236,90 " style="fill:white; stroke-width:1; stroke:black; " description="&lt;b&gt;QQZ01633.1&lt;/b&gt;&lt;br&gt;hypothetical protein&lt;br&gt;Location: 90305 - 89610" locus_tag="QQZ01633.1" class="clusterblast-orf" id="dummy-31_h31_3_20"  />
</g>
<g id="a31_0021"  >
<polygon points="241,85 245,80 245,90 241,85 " style="fill:white; stroke-width:1; stroke:black; " description="&lt;b&gt;QQZ01632.1&lt;/b&gt;&lt;br&gt;alpha/beta hydrolase&lt;br&gt;Location: 89535 - 88834" locus_tag="QQZ01632.1" class="clusterblast-orf" id="dummy-31_h31_3_21"  />
</g>
<g id="a31_0022"  >
<polygon points="246,85 251,80 251,80 251,90 251,90 246,85 " style="fill:white; stroke-width:1; stroke:black; " description="&lt;b&gt;QQZ01631.1&lt;/b&gt;&lt;br&gt;aldo/keto reductase&lt;br&gt;Location: 88700 - 87858" locus_tag="QQZ01631.1" class="clusterblast-orf" id="dummy-31_h31_3_22"  />
</g>
<g id="a31_0023"  >
<polygon points="252,85 257,80 257,80 257,90 257,90 252,85 " style="fill:white; stroke-width:1; stroke:black; " description="&lt;b&gt;QQZ01630.1&lt;/b&gt;&lt;br&gt;methyltransferase&lt;br&gt;Location: 87647 - 86799" locus_tag="QQZ01630.1" class="clusterblast-orf" id="dummy-31_h31_3_23"  />
</g>
<g id="a31_0024"  >
<polygon points="258,85 263,80 364,80 364,90 263,90 258,85 " style="fill:white; stroke-width:1; stroke:black; " description="&lt;b&gt;QQZ01629.1&lt;/b&gt;&lt;br&gt;PKS&lt;br&gt;Location: 86676 - 69292" locus_tag="QQZ01629.1" class="clusterblast-orf" id="dummy-31_h31_3_24"  />
</g>
<g id="a31_0025"  >
<polygon points="364,85 369,80 431,80 431,90 369,90 364,85 " style="fill:white; stroke-width:1; stroke:black; " description="&lt;b&gt;QQZ01628.1&lt;/b&gt;&lt;br&gt;PKS&lt;br&gt;Location: 69223 - 58283" locus_tag="QQZ01628.1" class="clusterblast-orf" id="dummy-31_h31_3_25"  />
</g>
<g id="a31_0026"  >
<polygon points="431,85 436,80 552,80 552,90 436,90 431,85 " style="fill:white; stroke-width:1; stroke:black; " description="&lt;b&gt;QQZ01627.1&lt;/b&gt;&lt;br&gt;PKS&lt;br&gt;Location: 58281 - 38512" locus_tag="QQZ01627.1" class="clusterblast-orf" id="dummy-31_h31_3_26"  />
</g>
<g id="a31_0027"  >
<polygon points="552,85 557,80 664,80 664,90 557,90 552,85 " style="fill:white; stroke-width:1; stroke:black; " description="&lt;b&gt;QQZ01626.1&lt;/b&gt;&lt;br&gt;PKS&lt;br&gt;Location: 38417 - 20214" locus_tag="QQZ01626.1" class="clusterblast-orf" id="dummy-31_h31_3_27"  />
</g>
<g id="a31_0028"  >
<polygon points="665,85 670,80 672,80 672,90 670,90 665,85 " style="fill:white; stroke-width:1; stroke:black; " description="&lt;b&gt;QQZ01625.1&lt;/b&gt;&lt;br&gt;arylcarboxylate reductase&lt;br&gt;Location: 19916 - 18849" locus_tag="QQZ01625.1" class="clusterblast-orf" id="dummy-31_h31_3_28"  />
</g>
<g id="a31_0029"  >
<polygon points="672,85 677,80 678,80 678,90 677,90 672,85 " style="fill:white; stroke-width:1; stroke:black; " description="&lt;b&gt;QQZ01624.1&lt;/b&gt;&lt;br&gt;malonyl transferase&lt;br&gt;Location: 18852 - 17881" locus_tag="QQZ01624.1" class="clusterblast-orf" id="dummy-31_h31_3_29"  />
</g>
<g id="a31_0030"  >
<polygon points="679,85 684,80 687,80 687,90 684,90 679,85 " style="fill:white; stroke-width:1; stroke:black; " description="&lt;b&gt;QQZ01623.1&lt;/b&gt;&lt;br&gt;5-aminolevulinate synthase&lt;br&gt;Location: 17687 - 16440" locus_tag="QQZ01623.1" class="clusterblast-orf" id="dummy-31_h31_3_30"  />
</g>
<g id="a31_0031"  >
<polygon points="688,90 693,90 698,85 693,80 688,80 688,90 " style="fill:white; stroke-width:1; stroke:black; " description="&lt;b&gt;QQZ01622.1&lt;/b&gt;&lt;br&gt;amide synthase&lt;br&gt;Location: 16179 - 14638" locus_tag="QQZ01622.1" class="clusterblast-orf" id="dummy-31_h31_3_31"  />
</g>
<g id="a31_0032"  >
<polygon points="698,90 702,90 707,85 702,80 698,80 698,90 " style="fill:white; stroke-width:1; stroke:black; " description="&lt;b&gt;QQZ01621.1&lt;/b&gt;&lt;br&gt;long-chain fatty acid--CoA ligase&lt;br&gt;Location: 14641 - 13100" locus_tag="QQZ01621.1" class="clusterblast-orf" id="dummy-31_h31_3_32"  />
</g>
<g id="a31_0033"  >
<polygon points="708,85 713,80 714,80 714,90 713,90 708,85 " style="fill:white; stroke-width:1; stroke:black; " description="&lt;b&gt;QQZ01620.1&lt;/b&gt;&lt;br&gt;PHB depolymerase family esterase&lt;br&gt;Location: 12931 - 11939" locus_tag="QQZ01620.1" class="clusterblast-orf" id="dummy-31_h31_3_33"  />
</g>
<g id="a31_0034"  >
<polygon points="714,85 719,80 719,80 719,90 719,90 714,85 " style="fill:white; stroke-width:1; stroke:black; " description="&lt;b&gt;QQZ01619.1&lt;/b&gt;&lt;br&gt;SGNH hydrolase&lt;br&gt;Location: 11900 - 11118" locus_tag="QQZ01619.1" class="clusterblast-orf" id="dummy-31_h31_3_34"  />
</g>
<g id="a31_0035"  >
<polygon points="720,85 723,80 723,90 720,85 " style="fill:white; stroke-width:1; stroke:black; " description="&lt;b&gt;QQZ01618.1&lt;/b&gt;&lt;br&gt;GNAT family N-acetyltransferase&lt;br&gt;Location: 10949 - 10443" locus_tag="QQZ01618.1" class="clusterblast-orf" id="dummy-31_h31_3_35"  />
</g>
<g id="a31_0036"  >
<polygon points="724,85 729,80 733,80 733,90 729,90 724,85 " style="fill:white; stroke-width:1; stroke:black; " description="&lt;b&gt;QQZ01617.1&lt;/b&gt;&lt;br&gt;gamma-aminobutyraldehyde dehydrogenase&lt;br&gt;Location: 10354 - 8906" locus_tag="QQZ01617.1" class="clusterblast-orf" id="dummy-31_h31_3_36"  />
</g>
<g id="a31_0037"  >
<polygon points="733,85 735,80 735,90 733,85 " style="fill:white; stroke-width:1; stroke:black; " description="&lt;b&gt;QQZ01616.1&lt;/b&gt;&lt;br&gt;ketosteroid isomerase&lt;br&gt;Location: 8909 - 8502" locus_tag="QQZ01616.1" class="clusterblast-orf" id="dummy-31_h31_3_37"  />
</g>
<g id="a31_0038"  >
<polygon points="735,85 739,80 739,90 735,85 " style="fill:white; stroke-width:1; stroke:black; " description="&lt;b&gt;QQZ01615.1&lt;/b&gt;&lt;br&gt;cyclase family protein&lt;br&gt;Location: 8475 - 7831" locus_tag="QQZ01615.1" class="clusterblast-orf" id="dummy-31_h31_3_38"  />
</g>
<g id="a31_0039"  >
<polygon points="739,85 744,80 749,80 749,90 744,90 739,85 " style="fill:white; stroke-width:1; stroke:black; " description="&lt;b&gt;QQZ01614.1&lt;/b&gt;&lt;br&gt;nitrate reductase&lt;br&gt;Location: 7823 - 6282" locus_tag="QQZ01614.1" class="clusterblast-orf" id="dummy-31_h31_3_39"  />
</g>
<g id="a31_0040"  >
<polygon points="749,85 754,80 754,80 754,90 754,90 749,85 " style="fill:white; stroke-width:1; stroke:black; " description="&lt;b&gt;QQZ01613.1&lt;/b&gt;&lt;br&gt;agmatinase&lt;br&gt;Location: 6289 - 5327" locus_tag="QQZ01613.1" class="clusterblast-orf" id="dummy-31_h31_3_40"  />
</g>
<g id="a31_0041"  >
<polygon points="755,90 759,90 764,85 759,80 755,80 755,90 " style="fill:white; stroke-width:1; stroke:black; " description="&lt;b&gt;QQZ01612.1&lt;/b&gt;&lt;br&gt;PucR family transcriptional regulator&lt;br&gt;Location: 5215 - 3755" locus_tag="QQZ01612.1" class="clusterblast-orf" id="dummy-31_h31_3_41"  />
</g>
<g id="a31_0042"  >
<polygon points="765,85 770,80 770,80 770,90 770,90 765,85 " style="fill:white; stroke-width:1; stroke:black; " description="&lt;b&gt;QQZ01611.1&lt;/b&gt;&lt;br&gt;methyltransferase&lt;br&gt;Location: 3626 - 2820" locus_tag="QQZ01611.1" class="clusterblast-orf" id="dummy-31_h31_3_42"  />
</g>
<g id="a31_0043"  >
<polygon points="771,85 776,80 780,80 780,90 776,90 771,85 " style="fill:white; stroke-width:1; stroke:black; " description="&lt;b&gt;QQZ01610.1&lt;/b&gt;&lt;br&gt;PucR family transcriptional regulator&lt;br&gt;Location: 2611 - 1220" locus_tag="QQZ01610.1" class="clusterblast-orf" id="dummy-31_h31_3_43"  />
</g>
</svg>
