<svg xmlns="http://www.w3.org/2000/svg" xmlns:xlink="http://www.w3.org/1999/xlink" version="1.1" x="0" y="0" height="230" width="800" viewBox="0 0 800 230" preserveAspectRatio="none"  >
<g label="Query sequence" class="clusterblast-cluster"  >
<text x="5" y="20" class="clusterblast-acc"  >
Query sequence</text>
<line x1="10" y1="35" x2="778.0" y2="35" style="stroke-width:1; stroke:grey; "  />
<polygon points="39,35 44,30 50,30 50,40 44,40 39,35 " style="fill:white; stroke-width:1; stroke:black; " description="&lt;b&gt;LLPMBPKK_02624&lt;/b&gt;&lt;br&gt;esterase&lt;br&gt;Location: 3040870 - 3042052" locus_tag="LLPMBPKK_02624" class="clusterblast-orf" id="dummy-14_q0_0_all"  />
<polygon points="50,35 55,30 61,30 61,40 55,40 50,35 " style="fill:white; stroke-width:1; stroke:black; " description="&lt;b&gt;LLPMBPKK_02625&lt;/b&gt;&lt;br&gt;Bcr/CflA family efflux MFS transporter&lt;br&gt;Location: 3041991 - 3043305" locus_tag="LLPMBPKK_02625" class="clusterblast-orf" id="dummy-14_q1_0_all"  />
<polygon points="62,40 67,40 72,35 67,30 62,30 62,40 " style="fill:white; stroke-width:1; stroke:black; " description="&lt;b&gt;LLPMBPKK_02626&lt;/b&gt;&lt;br&gt;Gfo/Idh/MocA family oxidoreductase&lt;br&gt;Location: 3043420 - 3044488" locus_tag="LLPMBPKK_02626" class="clusterblast-orf" id="dummy-14_q2_0_all"  />
<polygon points="73,40 74,40 79,35 74,30 73,30 73,40 " style="fill:white; stroke-width:1; stroke:black; " description="&lt;b&gt;LLPMBPKK_02627&lt;/b&gt;&lt;br&gt;SDR family oxidoreductase&lt;br&gt;Location: 3044544 - 3045303" locus_tag="LLPMBPKK_02627" class="clusterblast-orf" id="dummy-14_q3_0_all"  />
<polygon points="81,35 86,30 92,30 92,40 86,40 81,35 " style="fill:white; stroke-width:1; stroke:black; " description="&lt;b&gt;LLPMBPKK_02628&lt;/b&gt;&lt;br&gt;D-alanyl-D-alanine carboxypeptidase&lt;br&gt;Location: 3045532 - 3046732" locus_tag="LLPMBPKK_02628" class="clusterblast-orf" id="dummy-14_q4_0_all"  />
<polygon points="94,35 99,30 103,30 103,40 99,40 94,35 " style="fill:white; stroke-width:1; stroke:black; " description="&lt;b&gt;LLPMBPKK_02629&lt;/b&gt;&lt;br&gt;aldo/keto reductase&lt;br&gt;Location: 3046922 - 3047903" locus_tag="LLPMBPKK_02629" class="clusterblast-orf" id="dummy-14_q5_0_all"  />
<polygon points="103,35 106,30 106,40 103,35 " style="fill:white; stroke-width:1; stroke:black; " description="&lt;b&gt;LLPMBPKK_02630&lt;/b&gt;&lt;br&gt;hypothetical protein&lt;br&gt;Location: 3047957 - 3048284" locus_tag="LLPMBPKK_02630" class="clusterblast-orf" id="dummy-14_q6_0_all"  />
<polygon points="107,40 107,40 112,35 107,30 107,30 107,40 " style="fill:white; stroke-width:1; stroke:black; " description="&lt;b&gt;LLPMBPKK_02631&lt;/b&gt;&lt;br&gt;DoxX family membrane protein&lt;br&gt;Location: 3048412 - 3048958" locus_tag="LLPMBPKK_02631" class="clusterblast-orf" id="dummy-14_q7_0_all"  />
<polygon points="141,40 143,40 148,35 143,30 141,30 141,40 " style="fill:white; stroke-width:1; stroke:black; " description="&lt;b&gt;LLPMBPKK_02633&lt;/b&gt;&lt;br&gt;SARP family pathway specific regulatory protein&lt;br&gt;Location: 3052124 - 3052937" locus_tag="LLPMBPKK_02633" class="clusterblast-orf" id="dummy-14_q8_0_all"  />
<polygon points="148,40 149,40 154,35 149,30 148,30 148,40 " style="fill:white; stroke-width:1; stroke:black; " description="&lt;b&gt;LLPMBPKK_02634&lt;/b&gt;&lt;br&gt;hypothetical protein&lt;br&gt;Location: 3052984 - 3053599" locus_tag="LLPMBPKK_02634" class="clusterblast-orf" id="dummy-14_q9_0_all"  />
<polygon points="155,35 160,30 160,30 160,40 160,40 155,35 " style="fill:white; stroke-width:1; stroke:black; " description="&lt;b&gt;LLPMBPKK_02635&lt;/b&gt;&lt;br&gt;response regulator transcription factor&lt;br&gt;Location: 3053664 - 3054273" locus_tag="LLPMBPKK_02635" class="clusterblast-orf" id="dummy-14_q10_0_all"  />
<polygon points="161,35 166,30 172,30 172,40 166,40 161,35 " style="fill:white; stroke-width:1; stroke:black; " description="&lt;b&gt;LLPMBPKK_02636&lt;/b&gt;&lt;br&gt;two-component system histidine kinase&lt;br&gt;Location: 3054353 - 3055583" locus_tag="LLPMBPKK_02636" class="clusterblast-orf" id="dummy-14_q11_0_all"  />
<polygon points="173,35 178,30 179,30 179,40 178,40 173,35 " style="fill:white; stroke-width:1; stroke:black; " description="&lt;b&gt;LLPMBPKK_02637&lt;/b&gt;&lt;br&gt;response regulator transcription factor&lt;br&gt;Location: 3055699 - 3056347" locus_tag="LLPMBPKK_02637" class="clusterblast-orf" id="dummy-14_q12_0_all"  />
<polygon points="179,35 184,30 190,30 190,40 184,40 179,35 " style="fill:white; stroke-width:1; stroke:black; " description="&lt;b&gt;LLPMBPKK_02638&lt;/b&gt;&lt;br&gt;sensor histidine kinase&lt;br&gt;Location: 3056404 - 3057598" locus_tag="LLPMBPKK_02638" class="clusterblast-orf" id="dummy-14_q13_0_all"  />
<polygon points="190,35 195,30 210,30 210,40 195,40 190,35 " style="fill:#d81515; stroke-width:1; stroke:black; " description="&lt;b&gt;LLPMBPKK_02639&lt;/b&gt;&lt;br&gt;membrane protein&lt;br&gt;Location: 3057650 - 3059855" locus_tag="LLPMBPKK_02639" class="clusterblast-orf" id="dummy-14_q14_0_all"  />
<polygon points="211,35 216,30 219,30 219,40 216,40 211,35 " style="fill:#5cd815; stroke-width:1; stroke:black; " description="&lt;b&gt;LLPMBPKK_02640&lt;/b&gt;&lt;br&gt;kinase&lt;br&gt;Location: 3059942 - 3060836" locus_tag="LLPMBPKK_02640" class="clusterblast-orf" id="dummy-14_q15_0_all"  />
<polygon points="219,35 224,30 249,30 249,40 224,40 219,35 " style="fill:#15c7d8; stroke-width:1; stroke:black; " description="&lt;b&gt;LLPMBPKK_02641&lt;/b&gt;&lt;br&gt;amino acid adenylation domain-containing protein&lt;br&gt;Location: 3060832 - 3064153" locus_tag="LLPMBPKK_02641" class="clusterblast-orf" id="dummy-14_q16_0_all"  />
<polygon points="249,35 254,30 260,30 260,40 254,40 249,35 " style="fill:#8015d8; stroke-width:1; stroke:black; " description="&lt;b&gt;LLPMBPKK_02642&lt;/b&gt;&lt;br&gt;argininosuccinate lyase&lt;br&gt;Location: 3064149 - 3065394" locus_tag="LLPMBPKK_02642" class="clusterblast-orf" id="dummy-14_q17_0_all"  />
<polygon points="261,35 266,30 274,30 274,40 266,40 261,35 " style="fill:#d83915; stroke-width:1; stroke:black; " description="&lt;b&gt;LLPMBPKK_02643&lt;/b&gt;&lt;br&gt;argininosuccinate lyase&lt;br&gt;Location: 3065465 - 3066932" locus_tag="LLPMBPKK_02643" class="clusterblast-orf" id="dummy-14_q18_0_all"  />
<polygon points="274,35 279,30 284,30 284,40 279,40 274,35 " style="fill:#39d815; stroke-width:1; stroke:black; " description="&lt;b&gt;LLPMBPKK_02644&lt;/b&gt;&lt;br&gt;cystathionine beta-synthase/cysteine synthase&lt;br&gt;Location: 3066928 - 3068008" locus_tag="LLPMBPKK_02644" class="clusterblast-orf" id="dummy-14_q19_0_all"  />
<polygon points="286,40 287,40 292,35 287,30 286,30 286,40 " style="fill:#15a3d8; stroke-width:1; stroke:black; " description="&lt;b&gt;LLPMBPKK_02645&lt;/b&gt;&lt;br&gt;thioesterase&lt;br&gt;Location: 3068211 - 3068961" locus_tag="LLPMBPKK_02645" class="clusterblast-orf" id="dummy-14_q20_0_all"  />
<polygon points="293,35 298,30 305,30 305,40 298,40 293,35 " style="fill:#a315d8; stroke-width:1; stroke:black; " description="&lt;b&gt;LLPMBPKK_02646&lt;/b&gt;&lt;br&gt;3-deoxy-7-phosphoheptulonate synthase class II&lt;br&gt;Location: 3068987 - 3070364" locus_tag="LLPMBPKK_02646" class="clusterblast-orf" id="dummy-14_q21_0_all"  />
<polygon points="307,40 316,40 321,35 316,30 307,30 307,40 " style="fill:#d85c15; stroke-width:1; stroke:black; " description="&lt;b&gt;LLPMBPKK_02647&lt;/b&gt;&lt;br&gt;anthranilate synthase component I family protein&lt;br&gt;Location: 3070592 - 3072113" locus_tag="LLPMBPKK_02647" class="clusterblast-orf" id="dummy-14_q22_0_all"  />
<polygon points="321,40 321,40 326,35 321,30 321,30 321,40 " style="fill:#15d815; stroke-width:1; stroke:black; " description="&lt;b&gt;LLPMBPKK_02648&lt;/b&gt;&lt;br&gt;aminodeoxychorismate/anthranilate synthasecomponent II&lt;br&gt;Location: 3072127 - 3072709" locus_tag="LLPMBPKK_02648" class="clusterblast-orf" id="dummy-14_q23_0_all"  />
<polygon points="326,35 331,30 339,30 339,40 331,40 326,35 " style="fill:#1580d8; stroke-width:1; stroke:black; " description="&lt;b&gt;LLPMBPKK_02649&lt;/b&gt;&lt;br&gt;PLP-dependent aminotransferase family protein&lt;br&gt;Location: 3072714 - 3074097" locus_tag="LLPMBPKK_02649" class="clusterblast-orf" id="dummy-14_q24_0_all"  />
<polygon points="340,40 344,40 349,35 344,30 340,30 340,40 " style="fill:#c715d8; stroke-width:1; stroke:black; " description="&lt;b&gt;LLPMBPKK_02650&lt;/b&gt;&lt;br&gt;anthranilate phosphoribosyltransferase&lt;br&gt;Location: 3074247 - 3075312" locus_tag="LLPMBPKK_02650" class="clusterblast-orf" id="dummy-14_q25_0_all"  />
<polygon points="351,35 356,30 359,30 359,40 356,40 351,35 " style="fill:#d88015; stroke-width:1; stroke:black; " description="&lt;b&gt;LLPMBPKK_02651&lt;/b&gt;&lt;br&gt;indole-3-glycerol-phosphate synthase&lt;br&gt;Location: 3075536 - 3076322" locus_tag="LLPMBPKK_02651" class="clusterblast-orf" id="dummy-14_q26_0_all"  />
<polygon points="359,35 364,30 368,30 368,40 364,40 359,35 " style="fill:#15d839; stroke-width:1; stroke:black; " description="&lt;b&gt;LLPMBPKK_02652&lt;/b&gt;&lt;br&gt;TauD/TfdA family dioxygenase&lt;br&gt;Location: 3076408 - 3077359" locus_tag="LLPMBPKK_02652" class="clusterblast-orf" id="dummy-14_q27_0_all"  />
<polygon points="368,35 373,30 379,30 379,40 373,40 368,35 " style="fill:#155cd8; stroke-width:1; stroke:black; " description="&lt;b&gt;LLPMBPKK_02653&lt;/b&gt;&lt;br&gt;cytochrome P450&lt;br&gt;Location: 3077360 - 3078608" locus_tag="LLPMBPKK_02653" class="clusterblast-orf" id="dummy-14_q28_0_all"  />
<polygon points="379,35 384,30 387,30 387,40 384,40 379,35 " style="fill:#d815c7; stroke-width:1; stroke:black; " description="&lt;b&gt;LLPMBPKK_02654&lt;/b&gt;&lt;br&gt;ABC transporter&lt;br&gt;Location: 3078625 - 3079501" locus_tag="LLPMBPKK_02654" class="clusterblast-orf" id="dummy-14_q29_0_all"  />
<polygon points="389,35 394,30 491,30 491,40 394,40 389,35 " style="fill:#d8a315; stroke-width:1; stroke:black; " description="&lt;b&gt;LLPMBPKK_02655&lt;/b&gt;&lt;br&gt;non-ribosomal peptide synthetase&lt;br&gt;Location: 3079676 - 3091022" locus_tag="LLPMBPKK_02655" class="clusterblast-orf" id="dummy-14_q30_0_all"  />
<polygon points="492,35 497,30 498,30 498,40 497,40 492,35 " style="fill:#15d85c; stroke-width:1; stroke:black; " description="&lt;b&gt;LLPMBPKK_02656&lt;/b&gt;&lt;br&gt;2-hydroxychromene-2-carboxylate isomerase&lt;br&gt;Location: 3091108 - 3091813" locus_tag="LLPMBPKK_02656" class="clusterblast-orf" id="dummy-14_q31_0_all"  />
<polygon points="498,35 503,30 505,30 505,40 503,40 498,35 " style="fill:#1539d8; stroke-width:1; stroke:black; " description="&lt;b&gt;LLPMBPKK_02657&lt;/b&gt;&lt;br&gt;SDR family oxidoreductase&lt;br&gt;Location: 3091863 - 3092610" locus_tag="LLPMBPKK_02657" class="clusterblast-orf" id="dummy-14_q32_0_all"  />
<polygon points="506,35 511,30 516,30 516,40 511,40 506,35 " style="fill:#d815a3; stroke-width:1; stroke:black; " description="&lt;b&gt;LLPMBPKK_02658&lt;/b&gt;&lt;br&gt;3-oxoacyl-ACP synthase I&lt;br&gt;Location: 3092672 - 3093761" locus_tag="LLPMBPKK_02658" class="clusterblast-orf" id="dummy-14_q33_0_all"  />
<polygon points="516,35 521,30 527,30 527,40 521,40 516,35 " style="fill:#d8c715; stroke-width:1; stroke:black; " description="&lt;b&gt;LLPMBPKK_02659&lt;/b&gt;&lt;br&gt;beta-ketoacyl-[acyl-carrier-protein] synthasefamily protein&lt;br&gt;Location: 3093760 - 3095032" locus_tag="LLPMBPKK_02659" class="clusterblast-orf" id="dummy-14_q34_0_all"  />
<polygon points="527,35 530,30 530,40 527,35 " style="fill:#15d880; stroke-width:1; stroke:black; " description="&lt;b&gt;LLPMBPKK_02660&lt;/b&gt;&lt;br&gt;acyl carrier protein&lt;br&gt;Location: 3095064 - 3095343" locus_tag="LLPMBPKK_02660" class="clusterblast-orf" id="dummy-14_q35_0_all"  />
<polygon points="530,35 535,30 539,30 539,40 535,40 530,35 " style="fill:#1515d8; stroke-width:1; stroke:black; " description="&lt;b&gt;LLPMBPKK_02661&lt;/b&gt;&lt;br&gt;LysR family transcriptional regulator&lt;br&gt;Location: 3095421 - 3096372" locus_tag="LLPMBPKK_02661" class="clusterblast-orf" id="dummy-14_q36_0_all"  />
<polygon points="542,35 547,30 549,30 549,40 547,40 542,35 " style="fill:#d81580; stroke-width:1; stroke:black; " description="&lt;b&gt;LLPMBPKK_02662&lt;/b&gt;&lt;br&gt;SARP family transcriptional regulator&lt;br&gt;Location: 3096695 - 3097481" locus_tag="LLPMBPKK_02662" class="clusterblast-orf" id="dummy-14_q37_0_all"  />
<polygon points="552,40 561,40 566,35 561,30 552,30 552,40 " style="fill:#c7d815; stroke-width:1; stroke:black; " description="&lt;b&gt;LLPMBPKK_02663&lt;/b&gt;&lt;br&gt;tryptophan 7-halogenase&lt;br&gt;Location: 3097785 - 3099336" locus_tag="LLPMBPKK_02663" class="clusterblast-orf" id="dummy-14_q38_0_all"  />
<polygon points="566,40 573,40 578,35 573,30 566,30 566,40 " style="fill:#15d8a3; stroke-width:1; stroke:black; " description="&lt;b&gt;LLPMBPKK_02664&lt;/b&gt;&lt;br&gt;cation/H(+) antiporter&lt;br&gt;Location: 3099363 - 3100656" locus_tag="LLPMBPKK_02664" class="clusterblast-orf" id="dummy-14_q39_0_all"  />
<polygon points="578,40 582,35 578,30 578,40 " style="fill:#3915d8; stroke-width:1; stroke:black; " description="&lt;b&gt;LLPMBPKK_02665&lt;/b&gt;&lt;br&gt;flavin reductase&lt;br&gt;Location: 3100652 - 3101177" locus_tag="LLPMBPKK_02665" class="clusterblast-orf" id="dummy-14_q40_0_all"  />
<polygon points="583,40 585,40 590,35 585,30 583,30 583,40 " style="fill:#d8155c; stroke-width:1; stroke:black; " description="&lt;b&gt;LLPMBPKK_02666&lt;/b&gt;&lt;br&gt;peptide ABC transporter ATPase&lt;br&gt;Location: 3101265 - 3102063" locus_tag="LLPMBPKK_02666" class="clusterblast-orf" id="dummy-14_q41_0_all"  />
<polygon points="590,40 608,40 613,35 608,30 590,30 590,40 " style="fill:#a3d815; stroke-width:1; stroke:black; " description="&lt;b&gt;LLPMBPKK_02667&lt;/b&gt;&lt;br&gt;ABC transporter permease&lt;br&gt;Location: 3102059 - 3104591" locus_tag="LLPMBPKK_02667" class="clusterblast-orf" id="dummy-14_q42_0_all"  />
<polygon points="614,35 619,30 623,30 623,40 619,40 614,35 " style="fill:#15d8c7; stroke-width:1; stroke:black; " description="&lt;b&gt;LLPMBPKK_02668&lt;/b&gt;&lt;br&gt;transcriptional regulator&lt;br&gt;Location: 3104670 - 3105693" locus_tag="LLPMBPKK_02668" class="clusterblast-orf" id="dummy-14_q43_0_all"  />
<polygon points="624,35 629,30 632,30 632,40 629,40 624,35 " style="fill:#5c15d8; stroke-width:1; stroke:black; " description="&lt;b&gt;LLPMBPKK_02669&lt;/b&gt;&lt;br&gt;multidrug ABC transporter ATPase&lt;br&gt;Location: 3105771 - 3106719" locus_tag="LLPMBPKK_02669" class="clusterblast-orf" id="dummy-14_q44_0_all"  />
<polygon points="632,35 634,30 634,40 632,35 " style="fill:#d81539; stroke-width:1; stroke:black; " description="&lt;b&gt;LLPMBPKK_02670&lt;/b&gt;&lt;br&gt;MbtH family protein&lt;br&gt;Location: 3106752 - 3106974" locus_tag="LLPMBPKK_02670" class="clusterblast-orf" id="dummy-14_q45_0_all"  />
<polygon points="635,35 640,30 650,30 650,40 640,40 635,35 " style="fill:#80d815; stroke-width:1; stroke:black; " description="&lt;b&gt;LLPMBPKK_02671&lt;/b&gt;&lt;br&gt;non-ribosomal peptide synthetase&lt;br&gt;Location: 3107091 - 3108651" locus_tag="LLPMBPKK_02671" class="clusterblast-orf" id="dummy-14_q46_0_all"  />
<polygon points="652,35 657,30 658,30 658,40 657,40 652,35 " style="fill:white; stroke-width:1; stroke:black; " description="&lt;b&gt;LLPMBPKK_02672&lt;/b&gt;&lt;br&gt;4'-phosphopantetheinyl transferase superfamilyprotein&lt;br&gt;Location: 3108909 - 3109626" locus_tag="LLPMBPKK_02672" class="clusterblast-orf" id="dummy-14_q47_0_all"  />
<polygon points="658,35 663,30 667,30 667,40 663,40 658,35 " style="fill:white; stroke-width:1; stroke:black; " description="&lt;b&gt;LLPMBPKK_02673&lt;/b&gt;&lt;br&gt;alpha/beta hydrolase fold protein&lt;br&gt;Location: 3109622 - 3110603" locus_tag="LLPMBPKK_02673" class="clusterblast-orf" id="dummy-14_q48_0_all"  />
<polygon points="667,35 672,30 673,30 673,40 672,40 667,35 " style="fill:white; stroke-width:1; stroke:black; " description="&lt;b&gt;LLPMBPKK_02674&lt;/b&gt;&lt;br&gt;tryptophan 2,3-dioxygenase&lt;br&gt;Location: 3110599 - 3111292" locus_tag="LLPMBPKK_02674" class="clusterblast-orf" id="dummy-14_q49_0_all"  />
<polygon points="676,40 678,35 676,30 676,40 " style="fill:white; stroke-width:1; stroke:black; " description="&lt;b&gt;LLPMBPKK_02675&lt;/b&gt;&lt;br&gt;hypothetical protein&lt;br&gt;Location: 3111645 - 3111846" locus_tag="LLPMBPKK_02675" class="clusterblast-orf" id="dummy-14_q50_0_all"  />
<polygon points="678,40 695,40 700,35 695,30 678,30 678,40 " style="fill:white; stroke-width:1; stroke:black; " description="&lt;b&gt;LLPMBPKK_02676&lt;/b&gt;&lt;br&gt;TOMM precursor leader peptide-binding protein&lt;br&gt;Location: 3111842 - 3114203" locus_tag="LLPMBPKK_02676" class="clusterblast-orf" id="dummy-14_q51_0_all"  />
<polygon points="700,40 704,35 700,30 700,40 " style="fill:white; stroke-width:1; stroke:black; " description="&lt;b&gt;LLPMBPKK_02677&lt;/b&gt;&lt;br&gt;hypothetical protein&lt;br&gt;Location: 3114308 - 3114755" locus_tag="LLPMBPKK_02677" class="clusterblast-orf" id="dummy-14_q52_0_all"  />
<polygon points="706,40 706,40 711,35 706,30 706,30 706,40 " style="fill:white; stroke-width:1; stroke:black; " description="&lt;b&gt;LLPMBPKK_02678&lt;/b&gt;&lt;br&gt;NUDIX domain-containing protein&lt;br&gt;Location: 3114939 - 3115461" locus_tag="LLPMBPKK_02678" class="clusterblast-orf" id="dummy-14_q53_0_all"  />
<polygon points="715,35 720,30 723,30 723,40 720,40 715,35 " style="fill:white; stroke-width:1; stroke:black; " description="&lt;b&gt;LLPMBPKK_02679&lt;/b&gt;&lt;br&gt;integral membrane protein&lt;br&gt;Location: 3115906 - 3116836" locus_tag="LLPMBPKK_02679" class="clusterblast-orf" id="dummy-14_q54_0_all"  />
<polygon points="723,35 728,30 731,30 731,40 728,40 723,35 " style="fill:white; stroke-width:1; stroke:black; " description="&lt;b&gt;LLPMBPKK_02680&lt;/b&gt;&lt;br&gt;AraC family transcriptional regulator&lt;br&gt;Location: 3116832 - 3117684" locus_tag="LLPMBPKK_02680" class="clusterblast-orf" id="dummy-14_q55_0_all"  />
<polygon points="733,40 735,40 740,35 735,30 733,30 733,40 " style="fill:white; stroke-width:1; stroke:black; " description="&lt;b&gt;LLPMBPKK_02681&lt;/b&gt;&lt;br&gt;MerR family transcriptional regulator&lt;br&gt;Location: 3117924 - 3118671" locus_tag="LLPMBPKK_02681" class="clusterblast-orf" id="dummy-14_q56_0_all"  />
</g>
<g label="BGC0000429" description="BGC0000429_c1: skyllamycin A/skyllamycin B (18% of genes show similarity), Polyketide+NRP:Cyclic depsipeptide" class="clusterblast-cluster"  >
<text x="5" y="70" class="clusterblast-acc"  >
<a xlink:href="https://mibig.secondarymetabolites.org/go/BGC0000429/1" target="_blank">BGC0000429</a>:                                                      skyllamycin A/skyllamycin B (18% of genes show similarity), Polyketide+NRP:Cyclic depsipeptide</text>
<line x1="10" y1="85" x2="778.0" y2="85" style="stroke-width:1; stroke:grey; "  />
</g>
<g id="a14_000"  >
<polygon points="0,85 2,80 2,90 0,85 " style="fill:white; stroke-width:1; stroke:black; " description="&lt;b&gt;AEA30292.1&lt;/b&gt;&lt;br&gt;putative DNA polymerase III&lt;br&gt;Location: 86806 - 86556" locus_tag="AEA30292.1" class="clusterblast-orf" id="dummy-14_h14_6_0"  />
</g>
<g id="a14_001"  >
<polygon points="8,90 13,90 18,85 13,80 8,80 8,90 " style="fill:white; stroke-width:1; stroke:black; " description="&lt;b&gt;AEA30291.1&lt;/b&gt;&lt;br&gt;putative DNA-binding protein&lt;br&gt;Location: 85858 - 84713" locus_tag="AEA30291.1" class="clusterblast-orf" id="dummy-14_h14_6_1"  />
</g>
<g id="a14_002"  >
<polygon points="28,90 31,90 36,85 31,80 28,80 28,90 " style="fill:white; stroke-width:1; stroke:black; " description="&lt;b&gt;AEA30290.1&lt;/b&gt;&lt;br&gt;putative LuxR-family transcriptional regulator&lt;br&gt;Location: 83590 - 82799" locus_tag="AEA30290.1" class="clusterblast-orf" id="dummy-14_h14_6_2"  />
</g>
<g id="a14_003"  >
<polygon points="37,90 39,90 44,85 39,80 37,80 37,90 " style="fill:white; stroke-width:1; stroke:black; " description="&lt;b&gt;AEA30289.1&lt;/b&gt;&lt;br&gt;putative LuxR-family transcriptional regulator&lt;br&gt;Location: 82651 - 81812" locus_tag="AEA30289.1" class="clusterblast-orf" id="dummy-14_h14_6_3"  />
</g>
<g id="a14_004"  >
<polygon points="48,90 49,90 54,85 49,80 48,80 48,90 " style="fill:white; stroke-width:1; stroke:black; " description="&lt;b&gt;AEA30288.1&lt;/b&gt;&lt;br&gt;putative IclR-family transcriptional regulator&lt;br&gt;Location: 81394 - 80717" locus_tag="AEA30288.1" class="clusterblast-orf" id="dummy-14_h14_6_4"  />
</g>
<g id="a14_005"  >
<polygon points="55,90 67,90 72,85 67,80 55,80 55,90 " style="fill:white; stroke-width:1; stroke:black; " description="&lt;b&gt;AEA30287.1&lt;/b&gt;&lt;br&gt;putative AfsR-like transcriptional regulator&lt;br&gt;Location: 80688 - 78748" locus_tag="AEA30287.1" class="clusterblast-orf" id="dummy-14_h14_6_5"  />
</g>
<g id="a14_006"  >
<polygon points="78,90 80,90 85,85 80,80 78,80 78,90 " style="fill:white; stroke-width:1; stroke:black; " description="&lt;b&gt;AEA30286.1&lt;/b&gt;&lt;br&gt;putative IclR-family transcriptional regulator&lt;br&gt;Location: 78055 - 77324" locus_tag="AEA30286.1" class="clusterblast-orf" id="dummy-14_h14_6_6"  />
</g>
<g id="a14_007"  >
<polygon points="91,90 95,85 91,80 91,90 " style="fill:white; stroke-width:1; stroke:black; " description="&lt;b&gt;AEA30285.1&lt;/b&gt;&lt;br&gt;glutamate mutase subunit A&lt;br&gt;Location: 76663 - 76193" locus_tag="AEA30285.1" class="clusterblast-orf" id="dummy-14_h14_6_7"  />
</g>
<g id="a14_008"  >
<polygon points="95,90 102,90 107,85 102,80 95,80 95,90 " style="fill:white; stroke-width:1; stroke:black; " description="&lt;b&gt;AEA30284.1&lt;/b&gt;&lt;br&gt;glutamate mutase subunit B&lt;br&gt;Location: 76196 - 74880" locus_tag="AEA30284.1" class="clusterblast-orf" id="dummy-14_h14_6_8"  />
</g>
<g id="a14_009"  >
<polygon points="108,85 113,80 113,80 113,90 113,90 108,85 " style="fill:white; stroke-width:1; stroke:black; " description="&lt;b&gt;AEA30283.1&lt;/b&gt;&lt;br&gt;putative flavin reductase&lt;br&gt;Location: 74789 - 74223" locus_tag="AEA30283.1" class="clusterblast-orf" id="dummy-14_h14_6_9"  />
</g>
<g id="a14_0010"  >
<polygon points="113,85 118,80 123,80 123,90 118,90 113,85 " style="fill:white; stroke-width:1; stroke:black; " description="&lt;b&gt;AEA30282.1&lt;/b&gt;&lt;br&gt;flavin-dependent monooxygenase&lt;br&gt;Location: 74186 - 73116" locus_tag="AEA30282.1" class="clusterblast-orf" id="dummy-14_h14_6_10"  />
</g>
<g id="a14_0011"  >
<polygon points="123,85 128,80 131,80 131,90 128,90 123,85 " style="fill:white; stroke-width:1; stroke:black; " description="&lt;b&gt;AEA30281.1&lt;/b&gt;&lt;br&gt;putative ABC transporter&lt;br&gt;Location: 73031 - 72237" locus_tag="AEA30281.1" class="clusterblast-orf" id="dummy-14_h14_6_11"  />
</g>
<g id="a14_0012"  >
<polygon points="131,85 136,80 140,80 140,90 136,90 131,85 " style="fill:white; stroke-width:1; stroke:black; " description="&lt;b&gt;AEA30280.1&lt;/b&gt;&lt;br&gt;O-methyltransferase&lt;br&gt;Location: 72223 - 71195" locus_tag="AEA30280.1" class="clusterblast-orf" id="dummy-14_h14_6_12"  />
</g>
<g id="a14_0013"  >
<polygon points="142,85 147,80 149,80 149,90 147,90 142,85 " style="fill:white; stroke-width:1; stroke:black; " description="&lt;b&gt;AEA30279.1&lt;/b&gt;&lt;br&gt;putative ABC transporter&lt;br&gt;Location: 71025 - 70237" locus_tag="AEA30279.1" class="clusterblast-orf" id="dummy-14_h14_6_13"  />
</g>
<g id="a14_0014"  >
<polygon points="149,85 154,80 157,80 157,90 154,90 149,85 " style="fill:#5c15d8; stroke-width:1; stroke:black; " description="&lt;b&gt;AEA30278.1&lt;/b&gt;&lt;br&gt;putative ABC transporter&lt;br&gt;Location: 70240 - 69263&lt;br&gt;&lt;br&gt;&lt;b&gt;BlastP hit with LLPMBPKK_02669&lt;/b&gt;&lt;br&gt;Percentage identity: 61&lt;br&gt;Percentage coverage: 99&lt;br&gt;BLAST bit score: 344&lt;br&gt;E-value: 1.75e-118" locus_tag="AEA30278.1" class="clusterblast-orf" id="dummy-14_h14_6_14"  />
</g>
<g id="a14_0015"  >
<polygon points="161,90 161,90 166,85 161,80 161,80 161,90 " style="fill:white; stroke-width:1; stroke:black; " description="&lt;b&gt;AEA30277.1&lt;/b&gt;&lt;br&gt;hypothetical protein&lt;br&gt;Location: 68863 - 68342" locus_tag="AEA30277.1" class="clusterblast-orf" id="dummy-14_h14_6_15"  />
</g>
<g id="a14_0016"  >
<polygon points="166,85 171,80 173,80 173,90 171,90 166,85 " style="fill:white; stroke-width:1; stroke:black; " description="&lt;b&gt;AEA30276.1&lt;/b&gt;&lt;br&gt;putative type II thioesterase&lt;br&gt;Location: 68322 - 67549" locus_tag="AEA30276.1" class="clusterblast-orf" id="dummy-14_h14_6_16"  />
</g>
<g id="a14_0017"  >
<polygon points="173,85 178,80 184,80 184,90 178,90 173,85 " style="fill:#155cd8; stroke-width:1; stroke:black; " description="&lt;b&gt;AEA30275.1&lt;/b&gt;&lt;br&gt;P450 monooxygenase&lt;br&gt;Location: 67552 - 66281&lt;br&gt;&lt;br&gt;&lt;b&gt;BlastP hit with LLPMBPKK_02653&lt;/b&gt;&lt;br&gt;Percentage identity: 57&lt;br&gt;Percentage coverage: 95&lt;br&gt;BLAST bit score: 468&lt;br&gt;E-value: 4.15e-164" locus_tag="AEA30275.1" class="clusterblast-orf" id="dummy-14_h14_6_17"  />
</g>
<g id="a14_0018"  >
<polygon points="185,85 190,80 290,80 290,90 190,90 185,85 " style="fill:white; stroke-width:1; stroke:black; " description="&lt;b&gt;AEA30274.1&lt;/b&gt;&lt;br&gt;peptide synthetase&lt;br&gt;Location: 66241 - 54509" locus_tag="AEA30274.1" class="clusterblast-orf" id="dummy-14_h14_6_18"  />
</g>
<g id="a14_0019"  >
<polygon points="290,85 295,80 418,80 418,90 295,90 290,85 " style="fill:#d8a315; stroke-width:1; stroke:black; " description="&lt;b&gt;AEA30273.1&lt;/b&gt;&lt;br&gt;peptide synthetase&lt;br&gt;Location: 54515 - 40329&lt;br&gt;&lt;br&gt;&lt;b&gt;BlastP hit with LLPMBPKK_02655&lt;/b&gt;&lt;br&gt;Percentage identity: 47&lt;br&gt;Percentage coverage: 45&lt;br&gt;BLAST bit score: 1364&lt;br&gt;E-value: 0.0" locus_tag="AEA30273.1" class="clusterblast-orf" id="dummy-14_h14_6_19"  />
</g>
<g id="a14_0020"  >
<polygon points="418,85 423,80 546,80 546,90 423,90 418,85 " style="fill:white; stroke-width:1; stroke:black; " description="&lt;b&gt;AEA30272.1&lt;/b&gt;&lt;br&gt;peptide synthetase&lt;br&gt;Location: 40332 - 26089" locus_tag="AEA30272.1" class="clusterblast-orf" id="dummy-14_h14_6_20"  />
</g>
<g id="a14_0021"  >
<polygon points="548,85 553,80 563,80 563,90 553,90 548,85 " style="fill:white; stroke-width:1; stroke:black; " description="&lt;b&gt;AEA30271.1&lt;/b&gt;&lt;br&gt;putative oxidoreductase&lt;br&gt;Location: 25910 - 24243" locus_tag="AEA30271.1" class="clusterblast-orf" id="dummy-14_h14_6_21"  />
</g>
<g id="a14_0022"  >
<polygon points="564,85 569,80 570,80 570,90 569,90 564,85 " style="fill:#15d85c; stroke-width:1; stroke:black; " description="&lt;b&gt;AEA30270.1&lt;/b&gt;&lt;br&gt;putative isomerase&lt;br&gt;Location: 24145 - 23435&lt;br&gt;&lt;br&gt;&lt;b&gt;BlastP hit with LLPMBPKK_02656&lt;/b&gt;&lt;br&gt;Percentage identity: 51&lt;br&gt;Percentage coverage: 100&lt;br&gt;BLAST bit score: 243&lt;br&gt;E-value: 3.5e-81" locus_tag="AEA30270.1" class="clusterblast-orf" id="dummy-14_h14_6_22"  />
</g>
<g id="a14_0023"  >
<polygon points="570,85 575,80 577,80 577,90 575,90 570,85 " style="fill:#1539d8; stroke-width:1; stroke:black; " description="&lt;b&gt;AEA30269.1&lt;/b&gt;&lt;br&gt;putative 3-oxoacyl-ACP reductase&lt;br&gt;Location: 23393 - 22647&lt;br&gt;&lt;br&gt;&lt;b&gt;BlastP hit with LLPMBPKK_02657&lt;/b&gt;&lt;br&gt;Percentage identity: 58&lt;br&gt;Percentage coverage: 100&lt;br&gt;BLAST bit score: 270&lt;br&gt;E-value: 1.48e-91" locus_tag="AEA30269.1" class="clusterblast-orf" id="dummy-14_h14_6_23"  />
</g>
<g id="a14_0024"  >
<polygon points="577,85 582,80 582,80 582,90 582,90 577,85 " style="fill:white; stroke-width:1; stroke:black; " description="&lt;b&gt;AEA30268.1&lt;/b&gt;&lt;br&gt;putative 3-hydroxyacyl-ACP dehydratase&lt;br&gt;Location: 22625 - 22137" locus_tag="AEA30268.1" class="clusterblast-orf" id="dummy-14_h14_6_24"  />
</g>
<g id="a14_0025"  >
<polygon points="582,85 585,80 585,90 582,85 " style="fill:white; stroke-width:1; stroke:black; " description="&lt;b&gt;AEA30267.1&lt;/b&gt;&lt;br&gt;putative dehydratase&lt;br&gt;Location: 22140 - 21751" locus_tag="AEA30267.1" class="clusterblast-orf" id="dummy-14_h14_6_25"  />
</g>
<g id="a14_0026"  >
<polygon points="586,85 588,80 588,90 586,85 " style="fill:white; stroke-width:1; stroke:black; " description="&lt;b&gt;AEA30266.1&lt;/b&gt;&lt;br&gt;putative acyl carrier protein&lt;br&gt;Location: 21697 - 21449" locus_tag="AEA30266.1" class="clusterblast-orf" id="dummy-14_h14_6_26"  />
</g>
<g id="a14_0027"  >
<polygon points="588,85 593,80 598,80 598,90 593,90 588,85 " style="fill:#d815a3; stroke-width:1; stroke:black; " description="&lt;b&gt;AEA30265.1&lt;/b&gt;&lt;br&gt;putative 3-oxoacyl-ACP synthase I&lt;br&gt;Location: 21389 - 20286&lt;br&gt;&lt;br&gt;&lt;b&gt;BlastP hit with LLPMBPKK_02658&lt;/b&gt;&lt;br&gt;Percentage identity: 49&lt;br&gt;Percentage coverage: 98&lt;br&gt;BLAST bit score: 293&lt;br&gt;E-value: 3.46e-97" locus_tag="AEA30265.1" class="clusterblast-orf" id="dummy-14_h14_6_27"  />
</g>
<g id="a14_0028"  >
<polygon points="599,85 604,80 608,80 608,90 604,90 599,85 " style="fill:white; stroke-width:1; stroke:black; " description="&lt;b&gt;AEA30264.1&lt;/b&gt;&lt;br&gt;putative thioesterase&lt;br&gt;Location: 20257 - 19217" locus_tag="AEA30264.1" class="clusterblast-orf" id="dummy-14_h14_6_28"  />
</g>
<g id="a14_0029"  >
<polygon points="608,85 613,80 615,80 615,90 613,90 608,85 " style="fill:white; stroke-width:1; stroke:black; " description="&lt;b&gt;AEA30263.1&lt;/b&gt;&lt;br&gt;putative hydrolase&lt;br&gt;Location: 19211 - 18393" locus_tag="AEA30263.1" class="clusterblast-orf" id="dummy-14_h14_6_29"  />
</g>
<g id="a14_0030"  >
<polygon points="616,85 621,80 624,80 624,90 621,90 616,85 " style="fill:white; stroke-width:1; stroke:black; " description="&lt;b&gt;AEA30262.1&lt;/b&gt;&lt;br&gt;putative 3-oxoacyl-ACP synthase I&lt;br&gt;Location: 18348 - 17386" locus_tag="AEA30262.1" class="clusterblast-orf" id="dummy-14_h14_6_30"  />
</g>
<g id="a14_0031"  >
<polygon points="624,85 629,80 635,80 635,90 629,90 624,85 " style="fill:white; stroke-width:1; stroke:black; " description="&lt;b&gt;AEA30261.1&lt;/b&gt;&lt;br&gt;putative 3-oxoacyl-ACP synthase II&lt;br&gt;Location: 17389 - 16256" locus_tag="AEA30261.1" class="clusterblast-orf" id="dummy-14_h14_6_31"  />
</g>
<g id="a14_0032"  >
<polygon points="634,85 639,80 646,80 646,90 639,90 634,85 " style="fill:#d8c715; stroke-width:1; stroke:black; " description="&lt;b&gt;AEA30260.1&lt;/b&gt;&lt;br&gt;putative 3-oxoacyl-ACP synthase II&lt;br&gt;Location: 16259 - 15003&lt;br&gt;&lt;br&gt;&lt;b&gt;BlastP hit with LLPMBPKK_02659&lt;/b&gt;&lt;br&gt;Percentage identity: 68&lt;br&gt;Percentage coverage: 94&lt;br&gt;BLAST bit score: 550&lt;br&gt;E-value: 3e-196" locus_tag="AEA30260.1" class="clusterblast-orf" id="dummy-14_h14_6_32"  />
</g>
<g id="a14_0033"  >
<polygon points="646,85 649,80 649,90 646,85 " style="fill:#15d880; stroke-width:1; stroke:black; " description="&lt;b&gt;AEA30259.1&lt;/b&gt;&lt;br&gt;putative acyl carrier protein&lt;br&gt;Location: 14950 - 14696&lt;br&gt;&lt;br&gt;&lt;b&gt;BlastP hit with LLPMBPKK_02660&lt;/b&gt;&lt;br&gt;Percentage identity: 60&lt;br&gt;Percentage coverage: 92&lt;br&gt;BLAST bit score: 88&lt;br&gt;E-value: 2.43e-24" locus_tag="AEA30259.1" class="clusterblast-orf" id="dummy-14_h14_6_33"  />
</g>
<g id="a14_0034"  >
<polygon points="652,90 654,85 652,80 652,90 " style="fill:#d81539; stroke-width:1; stroke:black; " description="&lt;b&gt;AEA30258.1&lt;/b&gt;&lt;br&gt;putative MbtH-like protein&lt;br&gt;Location: 14261 - 14040&lt;br&gt;&lt;br&gt;&lt;b&gt;BlastP hit with LLPMBPKK_02670&lt;/b&gt;&lt;br&gt;Percentage identity: 61&lt;br&gt;Percentage coverage: 85&lt;br&gt;BLAST bit score: 94&lt;br&gt;E-value: 3.1e-27" locus_tag="AEA30258.1" class="clusterblast-orf" id="dummy-14_h14_6_34"  />
</g>
<g id="a14_0035"  >
<polygon points="655,85 660,80 673,80 673,90 660,90 655,85 " style="fill:white; stroke-width:1; stroke:black; " description="&lt;b&gt;AEA30257.1&lt;/b&gt;&lt;br&gt;putative ABC1-family protein kinase&lt;br&gt;Location: 13949 - 11985" locus_tag="AEA30257.1" class="clusterblast-orf" id="dummy-14_h14_6_35"  />
</g>
<g id="a14_0036"  >
<polygon points="673,85 678,80 682,80 682,90 678,90 673,85 " style="fill:white; stroke-width:1; stroke:black; " description="&lt;b&gt;AEA30256.1&lt;/b&gt;&lt;br&gt;putative ACP-acyltransferase&lt;br&gt;Location: 11932 - 11015" locus_tag="AEA30256.1" class="clusterblast-orf" id="dummy-14_h14_6_36"  />
</g>
<g id="a14_0037"  >
<polygon points="687,90 692,90 697,85 692,80 687,80 687,90 " style="fill:white; stroke-width:1; stroke:black; " description="&lt;b&gt;AEA30255.1&lt;/b&gt;&lt;br&gt;putative isoprenyl diphosphate synthase&lt;br&gt;Location: 10375 - 9332" locus_tag="AEA30255.1" class="clusterblast-orf" id="dummy-14_h14_6_37"  />
</g>
<g id="a14_0038"  >
<polygon points="697,90 706,90 711,85 706,80 697,80 697,90 " style="fill:white; stroke-width:1; stroke:black; " description="&lt;b&gt;AEA30254.1&lt;/b&gt;&lt;br&gt;putative carboxyltransferase&lt;br&gt;Location: 9338 - 7755" locus_tag="AEA30254.1" class="clusterblast-orf" id="dummy-14_h14_6_38"  />
</g>
<g id="a14_0039"  >
<polygon points="713,85 718,80 726,80 726,90 718,90 713,85 " style="fill:white; stroke-width:1; stroke:black; " description="&lt;b&gt;AEA30253.1&lt;/b&gt;&lt;br&gt;putative integrin-like protein&lt;br&gt;Location: 7495 - 6119" locus_tag="AEA30253.1" class="clusterblast-orf" id="dummy-14_h14_6_39"  />
</g>
<g id="a14_0040"  >
<polygon points="727,85 729,80 729,90 727,85 " style="fill:white; stroke-width:1; stroke:black; " description="&lt;b&gt;AEA30252.1&lt;/b&gt;&lt;br&gt;hypothetical protein&lt;br&gt;Location: 5963 - 5727" locus_tag="AEA30252.1" class="clusterblast-orf" id="dummy-14_h14_6_40"  />
</g>
<g id="a14_0041"  >
<polygon points="729,85 734,80 737,80 737,90 734,90 729,85 " style="fill:white; stroke-width:1; stroke:black; " description="&lt;b&gt;AEA30251.1&lt;/b&gt;&lt;br&gt;putative DNA-binding protein&lt;br&gt;Location: 5730 - 4894" locus_tag="AEA30251.1" class="clusterblast-orf" id="dummy-14_h14_6_41"  />
</g>
<g id="a14_0042"  >
<polygon points="738,90 742,85 738,80 738,90 " style="fill:white; stroke-width:1; stroke:black; " description="&lt;b&gt;AEA30250.1&lt;/b&gt;&lt;br&gt;hypothetical protein&lt;br&gt;Location: 4737 - 4330" locus_tag="AEA30250.1" class="clusterblast-orf" id="dummy-14_h14_6_42"  />
</g>
<g id="a14_0043"  >
<polygon points="742,85 747,80 747,80 747,90 747,90 742,85 " style="fill:white; stroke-width:1; stroke:black; " description="&lt;b&gt;AEA30249.1&lt;/b&gt;&lt;br&gt;putative N-acetyltransferase&lt;br&gt;Location: 4341 - 3724" locus_tag="AEA30249.1" class="clusterblast-orf" id="dummy-14_h14_6_43"  />
</g>
<g id="a14_0044"  >
<polygon points="749,90 750,90 755,85 750,80 749,80 749,90 " style="fill:white; stroke-width:1; stroke:black; " description="&lt;b&gt;AEA30248.1&lt;/b&gt;&lt;br&gt;putative isomerase&lt;br&gt;Location: 3499 - 2843" locus_tag="AEA30248.1" class="clusterblast-orf" id="dummy-14_h14_6_44"  />
</g>
<g id="a14_0045"  >
<polygon points="755,90 760,90 765,85 760,80 755,80 755,90 " style="fill:white; stroke-width:1; stroke:black; " description="&lt;b&gt;AEA30247.1&lt;/b&gt;&lt;br&gt;putative oxidoreductase&lt;br&gt;Location: 2841 - 1723" locus_tag="AEA30247.1" class="clusterblast-orf" id="dummy-14_h14_6_45"  />
</g>
<g id="a14_0046"  >
<polygon points="767,90 771,85 767,80 767,90 " style="fill:white; stroke-width:1; stroke:black; " description="&lt;b&gt;AEA30246.1&lt;/b&gt;&lt;br&gt;putative cytosine/adenosine deaminase&lt;br&gt;Location: 1572 - 1093" locus_tag="AEA30246.1" class="clusterblast-orf" id="dummy-14_h14_6_46"  />
</g>
<g id="a14_0047"  >
<polygon points="772,90 775,85 772,80 772,90 " style="fill:white; stroke-width:1; stroke:black; " description="&lt;b&gt;AEA30244.1&lt;/b&gt;&lt;br&gt;putative SMR-type multi-drug efflux transporter&lt;br&gt;Location: 982 - 662" locus_tag="AEA30244.1" class="clusterblast-orf" id="dummy-14_h14_6_47"  />
</g>
<g id="a14_0048"  >
<polygon points="776,90 780,85 776,80 776,90 " style="fill:white; stroke-width:1; stroke:black; " description="&lt;b&gt;AEA30245.1&lt;/b&gt;&lt;br&gt;putative SMR-type multi-drug efflux transporter&lt;br&gt;Location: 561 - 148" locus_tag="AEA30245.1" class="clusterblast-orf" id="dummy-14_h14_6_48"  />
</g>
</svg>
