<svg xmlns="http://www.w3.org/2000/svg" xmlns:xlink="http://www.w3.org/1999/xlink" version="1.1" x="0" y="0" height="230" width="800" viewBox="0 0 800 230" preserveAspectRatio="none"  >
<g label="Query sequence" class="clusterblast-cluster"  >
<text x="5" y="20" class="clusterblast-acc"  >
Query sequence</text>
<line x1="10" y1="35" x2="778.0" y2="35" style="stroke-width:1; stroke:grey; "  />
<polygon points="308,40 322,40 327,35 322,30 308,30 308,40 " style="fill:white; stroke-width:1; stroke:black; " description="&lt;b&gt;LLPMBPKK_07646&lt;/b&gt;&lt;br&gt;CHAT domain protein&lt;br&gt;Location: 8902584 - 8907312" locus_tag="LLPMBPKK_07646" class="clusterblast-orf" id="dummy-35_q0_0_all"  />
<polygon points="329,40 332,35 329,30 329,40 " style="fill:white; stroke-width:1; stroke:black; " description="&lt;b&gt;LLPMBPKK_07647&lt;/b&gt;&lt;br&gt;trypsin-like serine protease&lt;br&gt;Location: 8907570 - 8908341" locus_tag="LLPMBPKK_07647" class="clusterblast-orf" id="dummy-35_q1_0_all"  />
<polygon points="332,35 333,30 333,40 332,35 " style="fill:white; stroke-width:1; stroke:black; " description="&lt;b&gt;LLPMBPKK_07648&lt;/b&gt;&lt;br&gt;hypothetical protein&lt;br&gt;Location: 8908431 - 8908731" locus_tag="LLPMBPKK_07648" class="clusterblast-orf" id="dummy-35_q2_0_all"  />
<polygon points="333,35 337,30 337,40 333,35 " style="fill:white; stroke-width:1; stroke:black; " description="&lt;b&gt;LLPMBPKK_07649&lt;/b&gt;&lt;br&gt;nucleoside-diphosphate sugar epimerase&lt;br&gt;Location: 8908760 - 8909630" locus_tag="LLPMBPKK_07649" class="clusterblast-orf" id="dummy-35_q3_0_all"  />
<polygon points="338,35 340,30 340,40 338,35 " style="fill:white; stroke-width:1; stroke:black; " description="&lt;b&gt;LLPMBPKK_07650&lt;/b&gt;&lt;br&gt;NAD-dependent epimerase/dehydratase&lt;br&gt;Location: 8909896 - 8910538" locus_tag="LLPMBPKK_07650" class="clusterblast-orf" id="dummy-35_q4_0_all"  />
<polygon points="341,40 345,35 341,30 341,40 " style="fill:white; stroke-width:1; stroke:black; " description="&lt;b&gt;LLPMBPKK_07651&lt;/b&gt;&lt;br&gt;AraC family transcriptional regulator&lt;br&gt;Location: 8910722 - 8911637" locus_tag="LLPMBPKK_07651" class="clusterblast-orf" id="dummy-35_q5_0_all"  />
<polygon points="345,40 346,35 345,30 345,40 " style="fill:white; stroke-width:1; stroke:black; " description="&lt;b&gt;LLPMBPKK_07652&lt;/b&gt;&lt;br&gt;hypothetical protein&lt;br&gt;Location: 8911633 - 8911795" locus_tag="LLPMBPKK_07652" class="clusterblast-orf" id="dummy-35_q6_0_all"  />
<polygon points="346,40 348,35 346,30 346,40 " style="fill:white; stroke-width:1; stroke:black; " description="&lt;b&gt;LLPMBPKK_07653&lt;/b&gt;&lt;br&gt;acetyltransferase&lt;br&gt;Location: 8911878 - 8912385" locus_tag="LLPMBPKK_07653" class="clusterblast-orf" id="dummy-35_q7_0_all"  />
<polygon points="348,35 349,30 349,40 348,35 " style="fill:white; stroke-width:1; stroke:black; " description="&lt;b&gt;LLPMBPKK_07654&lt;/b&gt;&lt;br&gt;hypothetical protein&lt;br&gt;Location: 8912474 - 8912750" locus_tag="LLPMBPKK_07654" class="clusterblast-orf" id="dummy-35_q8_0_all"  />
<polygon points="349,40 350,35 349,30 349,40 " style="fill:white; stroke-width:1; stroke:black; " description="&lt;b&gt;LLPMBPKK_07655&lt;/b&gt;&lt;br&gt;hypothetical protein&lt;br&gt;Location: 8912769 - 8912967" locus_tag="LLPMBPKK_07655" class="clusterblast-orf" id="dummy-35_q9_0_all"  />
<polygon points="351,35 353,30 353,40 351,35 " style="fill:white; stroke-width:1; stroke:black; " description="&lt;b&gt;LLPMBPKK_07656&lt;/b&gt;&lt;br&gt;SUKH-4 immunity protein&lt;br&gt;Location: 8913045 - 8913663" locus_tag="LLPMBPKK_07656" class="clusterblast-orf" id="dummy-35_q10_0_all"  />
<polygon points="354,35 358,30 358,40 354,35 " style="fill:white; stroke-width:1; stroke:black; " description="&lt;b&gt;LLPMBPKK_07657&lt;/b&gt;&lt;br&gt;type I glyceraldehyde-3-phosphate dehydrogenase&lt;br&gt;Location: 8913910 - 8914909" locus_tag="LLPMBPKK_07657" class="clusterblast-orf" id="dummy-35_q11_0_all"  />
<polygon points="359,35 362,30 362,40 359,35 " style="fill:#d81515; stroke-width:1; stroke:black; " description="&lt;b&gt;LLPMBPKK_07658&lt;/b&gt;&lt;br&gt;helix-turn-helix domain-containing protein&lt;br&gt;Location: 8915051 - 8916008" locus_tag="LLPMBPKK_07658" class="clusterblast-orf" id="dummy-35_q12_0_all"  />
<polygon points="363,40 365,35 363,30 363,40 " style="fill:white; stroke-width:1; stroke:black; " description="&lt;b&gt;LLPMBPKK_07659&lt;/b&gt;&lt;br&gt;hypothetical protein&lt;br&gt;Location: 8916122 - 8916722" locus_tag="LLPMBPKK_07659" class="clusterblast-orf" id="dummy-35_q13_0_all"  />
<polygon points="366,35 367,30 367,40 366,35 " style="fill:white; stroke-width:1; stroke:black; " description="&lt;b&gt;LLPMBPKK_07660&lt;/b&gt;&lt;br&gt;hypothetical protein&lt;br&gt;Location: 8916870 - 8917101" locus_tag="LLPMBPKK_07660" class="clusterblast-orf" id="dummy-35_q14_0_all"  />
<polygon points="368,35 369,30 369,40 368,35 " style="fill:white; stroke-width:1; stroke:black; " description="&lt;b&gt;LLPMBPKK_07661&lt;/b&gt;&lt;br&gt;hypothetical protein&lt;br&gt;Location: 8917453 - 8917699" locus_tag="LLPMBPKK_07661" class="clusterblast-orf" id="dummy-35_q15_0_all"  />
<polygon points="371,40 371,40 376,35 371,30 371,30 371,40 " style="fill:white; stroke-width:1; stroke:black; " description="&lt;b&gt;LLPMBPKK_07662&lt;/b&gt;&lt;br&gt;PAS domain-containing protein&lt;br&gt;Location: 8918036 - 8919302" locus_tag="LLPMBPKK_07662" class="clusterblast-orf" id="dummy-35_q16_0_all"  />
<polygon points="377,40 381,40 386,35 381,30 377,30 377,40 " style="fill:white; stroke-width:1; stroke:black; " description="&lt;b&gt;LLPMBPKK_07663&lt;/b&gt;&lt;br&gt;GAF domain-containing protein&lt;br&gt;Location: 8919599 - 8921762" locus_tag="LLPMBPKK_07663" class="clusterblast-orf" id="dummy-35_q17_0_all"  />
<polygon points="386,35 391,30 391,30 391,40 391,40 386,35 " style="fill:#15d815; stroke-width:1; stroke:black; " description="&lt;b&gt;LLPMBPKK_07664&lt;/b&gt;&lt;br&gt;polyketide synthase&lt;br&gt;Location: 8921899 - 8923087" locus_tag="LLPMBPKK_07664" class="clusterblast-orf" id="dummy-35_q18_0_all"  />
<polygon points="393,35 394,30 394,40 393,35 " style="fill:white; stroke-width:1; stroke:black; " description="&lt;b&gt;LLPMBPKK_07665&lt;/b&gt;&lt;br&gt;antibiotic biosynthesis monooxygenase&lt;br&gt;Location: 8923483 - 8923816" locus_tag="LLPMBPKK_07665" class="clusterblast-orf" id="dummy-35_q19_0_all"  />
<polygon points="395,35 400,30 406,30 406,40 400,40 395,35 " style="fill:white; stroke-width:1; stroke:black; " description="&lt;b&gt;LLPMBPKK_07666&lt;/b&gt;&lt;br&gt;GAF domain-containing protein&lt;br&gt;Location: 8924003 - 8926706" locus_tag="LLPMBPKK_07666" class="clusterblast-orf" id="dummy-35_q20_0_all"  />
<polygon points="407,40 411,35 407,30 407,40 " style="fill:white; stroke-width:1; stroke:black; " description="&lt;b&gt;LLPMBPKK_07667&lt;/b&gt;&lt;br&gt;serine/threonine-protein phosphatase&lt;br&gt;Location: 8927096 - 8928152" locus_tag="LLPMBPKK_07667" class="clusterblast-orf" id="dummy-35_q21_0_all"  />
<polygon points="412,35 416,30 416,40 412,35 " style="fill:white; stroke-width:1; stroke:black; " description="&lt;b&gt;LLPMBPKK_07668&lt;/b&gt;&lt;br&gt;PAS domain-containing protein&lt;br&gt;Location: 8928234 - 8929401" locus_tag="LLPMBPKK_07668" class="clusterblast-orf" id="dummy-35_q22_0_all"  />
<polygon points="422,40 425,35 422,30 422,40 " style="fill:white; stroke-width:1; stroke:black; " description="&lt;b&gt;LLPMBPKK_07669&lt;/b&gt;&lt;br&gt;PadR family transcriptional regulator&lt;br&gt;Location: 8930863 - 8931451" locus_tag="LLPMBPKK_07669" class="clusterblast-orf" id="dummy-35_q23_0_all"  />
<polygon points="425,40 427,40 432,35 427,30 425,30 425,40 " style="fill:white; stroke-width:1; stroke:black; " description="&lt;b&gt;LLPMBPKK_07670&lt;/b&gt;&lt;br&gt;acyl-CoA dehydrogenase&lt;br&gt;Location: 8931616 - 8933341" locus_tag="LLPMBPKK_07670" class="clusterblast-orf" id="dummy-35_q24_0_all"  />
<polygon points="434,40 437,35 434,30 434,40 " style="fill:white; stroke-width:1; stroke:black; " description="&lt;b&gt;LLPMBPKK_07671&lt;/b&gt;&lt;br&gt;hypothetical protein&lt;br&gt;Location: 8933684 - 8934527" locus_tag="LLPMBPKK_07671" class="clusterblast-orf" id="dummy-35_q25_0_all"  />
<polygon points="437,40 438,35 437,30 437,40 " style="fill:white; stroke-width:1; stroke:black; " description="&lt;b&gt;LLPMBPKK_07672&lt;/b&gt;&lt;br&gt;hypothetical protein&lt;br&gt;Location: 8934573 - 8934774" locus_tag="LLPMBPKK_07672" class="clusterblast-orf" id="dummy-35_q26_0_all"  />
<polygon points="439,40 439,40 444,35 439,30 439,30 439,40 " style="fill:white; stroke-width:1; stroke:black; " description="&lt;b&gt;LLPMBPKK_07673&lt;/b&gt;&lt;br&gt;oxidoreductase&lt;br&gt;Location: 8934937 - 8936233" locus_tag="LLPMBPKK_07673" class="clusterblast-orf" id="dummy-35_q27_0_all"  />
<polygon points="444,40 448,35 444,30 444,40 " style="fill:white; stroke-width:1; stroke:black; " description="&lt;b&gt;LLPMBPKK_07674&lt;/b&gt;&lt;br&gt;sigma-70 family RNA polymerase sigma factor&lt;br&gt;Location: 8936251 - 8937205" locus_tag="LLPMBPKK_07674" class="clusterblast-orf" id="dummy-35_q28_0_all"  />
<polygon points="449,35 454,30 454,30 454,40 454,40 449,35 " style="fill:#1515d8; stroke-width:1; stroke:black; " description="&lt;b&gt;LLPMBPKK_07675&lt;/b&gt;&lt;br&gt;glycosyl transferase family protein&lt;br&gt;Location: 8937383 - 8938619" locus_tag="LLPMBPKK_07675" class="clusterblast-orf" id="dummy-35_q29_0_all"  />
<polygon points="456,40 456,40 461,35 456,30 456,30 456,40 " style="fill:white; stroke-width:1; stroke:black; " description="&lt;b&gt;LLPMBPKK_07676&lt;/b&gt;&lt;br&gt;hypothetical protein&lt;br&gt;Location: 8939287 - 8940421" locus_tag="LLPMBPKK_07676" class="clusterblast-orf" id="dummy-35_q30_0_all"  />
<polygon points="462,40 464,35 462,30 462,40 " style="fill:white; stroke-width:1; stroke:black; " description="&lt;b&gt;LLPMBPKK_07677&lt;/b&gt;&lt;br&gt;hypothetical protein&lt;br&gt;Location: 8940785 - 8941319" locus_tag="LLPMBPKK_07677" class="clusterblast-orf" id="dummy-35_q31_0_all"  />
<polygon points="465,40 466,40 471,35 466,30 465,30 465,40 " style="fill:white; stroke-width:1; stroke:black; " description="&lt;b&gt;LLPMBPKK_07678&lt;/b&gt;&lt;br&gt;hypothetical protein&lt;br&gt;Location: 8941473 - 8942874" locus_tag="LLPMBPKK_07678" class="clusterblast-orf" id="dummy-35_q32_0_all"  />
</g>
<g label="BGC0001877" description="BGC0001877_c1: cyphomycin (2% of genes show similarity), Polyketide" class="clusterblast-cluster"  >
<text x="5" y="70" class="clusterblast-acc"  >
<a xlink:href="https://mibig.secondarymetabolites.org/go/BGC0001877/1" target="_blank">BGC0001877</a>:                                                                       cyphomycin (2% of genes show similarity), Polyketide</text>
<line x1="10" y1="85" x2="778.0" y2="85" style="stroke-width:1; stroke:grey; "  />
</g>
<g id="a35_000"  >
<polygon points="0,85 5,80 8,80 8,90 5,90 0,85 " style="fill:white; stroke-width:1; stroke:black; " description="&lt;b&gt;FS847_02095&lt;/b&gt;&lt;br&gt;SpoIIE family protein phosphatase&lt;br&gt;Location: 193719 - 191635" locus_tag="FS847_02095" class="clusterblast-orf" id="dummy-35_h35_2_0"  />
</g>
<g id="a35_001"  >
<polygon points="9,85 14,80 14,80 14,90 14,90 9,85 " style="fill:white; stroke-width:1; stroke:black; " description="&lt;b&gt;FS847_02090&lt;/b&gt;&lt;br&gt;HAMP domain-containing histidine kinase&lt;br&gt;Location: 191430 - 190147" locus_tag="FS847_02090" class="clusterblast-orf" id="dummy-35_h35_2_1"  />
</g>
<g id="a35_002"  >
<polygon points="14,85 16,80 16,90 14,85 " style="fill:white; stroke-width:1; stroke:black; " description="&lt;b&gt;FS847_02085&lt;/b&gt;&lt;br&gt;hypothetical protein&lt;br&gt;Location: 190150 - 189671" locus_tag="FS847_02085" class="clusterblast-orf" id="dummy-35_h35_2_2"  />
</g>
<g id="a35_003"  >
<polygon points="19,85 21,80 21,90 19,85 " style="fill:white; stroke-width:1; stroke:black; " description="&lt;b&gt;FS847_02080&lt;/b&gt;&lt;br&gt;hypothetical protein&lt;br&gt;Location: 188943 - 188443" locus_tag="FS847_02080" class="clusterblast-orf" id="dummy-35_h35_2_3"  />
</g>
<g id="a35_004"  >
<polygon points="22,85 23,80 23,90 22,85 " style="fill:white; stroke-width:1; stroke:black; " description="&lt;b&gt;FS847_02075&lt;/b&gt;&lt;br&gt;hypothetical protein&lt;br&gt;Location: 188104 - 187886" locus_tag="FS847_02075" class="clusterblast-orf" id="dummy-35_h35_2_4"  />
</g>
<g id="a35_005"  >
<polygon points="24,90 27,85 24,80 24,90 " style="fill:white; stroke-width:1; stroke:black; " description="&lt;b&gt;FS847_02070&lt;/b&gt;&lt;br&gt;4'-phosphopantetheinyl transferase superfamily protein&lt;br&gt;Location: 187513 - 186797" locus_tag="FS847_02070" class="clusterblast-orf" id="dummy-35_h35_2_5"  />
</g>
<g id="a35_006"  >
<polygon points="28,85 33,80 41,80 41,90 33,90 28,85 " style="fill:white; stroke-width:1; stroke:black; " description="&lt;b&gt;FS847_02065&lt;/b&gt;&lt;br&gt;AAA family ATPase&lt;br&gt;Location: 186701 - 183480" locus_tag="FS847_02065" class="clusterblast-orf" id="dummy-35_h35_2_6"  />
</g>
<g id="a35_007"  >
<polygon points="44,85 46,80 46,90 44,85 " style="fill:white; stroke-width:1; stroke:black; " description="&lt;b&gt;FS847_02060&lt;/b&gt;&lt;br&gt;LuxR family transcriptional regulator&lt;br&gt;Location: 182790 - 182050" locus_tag="FS847_02060" class="clusterblast-orf" id="dummy-35_h35_2_7"  />
</g>
<g id="a35_008"  >
<polygon points="48,85 53,80 60,80 60,90 53,90 48,85 " style="fill:white; stroke-width:1; stroke:black; " description="&lt;b&gt;FS847_02055&lt;/b&gt;&lt;br&gt;AAA family ATPase&lt;br&gt;Location: 181596 - 178777" locus_tag="FS847_02055" class="clusterblast-orf" id="dummy-35_h35_2_8"  />
</g>
<g id="a35_009"  >
<polygon points="64,90 67,85 64,80 64,90 " style="fill:white; stroke-width:1; stroke:black; " description="&lt;b&gt;FS847_02050&lt;/b&gt;&lt;br&gt;FadR family transcriptional regulator&lt;br&gt;Location: 177739 - 176966" locus_tag="FS847_02050" class="clusterblast-orf" id="dummy-35_h35_2_9"  />
</g>
<g id="a35_0010"  >
<polygon points="67,90 70,85 67,80 67,90 " style="fill:white; stroke-width:1; stroke:black; " description="&lt;b&gt;FS847_02045&lt;/b&gt;&lt;br&gt;TetR family transcriptional regulator&lt;br&gt;Location: 176939 - 176295" locus_tag="FS847_02045" class="clusterblast-orf" id="dummy-35_h35_2_10"  />
</g>
<g id="a35_0011"  >
<polygon points="70,85 75,80 76,80 76,90 75,90 70,85 " style="fill:white; stroke-width:1; stroke:black; " description="&lt;b&gt;FS847_02040&lt;/b&gt;&lt;br&gt;NDP-hexose 2,3-dehydratase&lt;br&gt;Location: 176115 - 174703" locus_tag="FS847_02040" class="clusterblast-orf" id="dummy-35_h35_2_11"  />
</g>
<g id="a35_0012"  >
<polygon points="78,90 124,90 129,85 124,80 78,80 78,90 " style="fill:white; stroke-width:1; stroke:black; " description="&lt;b&gt;FS847_02035&lt;/b&gt;&lt;br&gt;SDR family NAD(P)-dependent oxidoreductase&lt;br&gt;Location: 174339 - 161608" locus_tag="FS847_02035" class="clusterblast-orf" id="dummy-35_h35_2_12"  />
</g>
<g id="a35_0013"  >
<polygon points="129,90 184,90 189,85 184,80 129,80 129,90 " style="fill:white; stroke-width:1; stroke:black; " description="&lt;b&gt;FS847_02030&lt;/b&gt;&lt;br&gt;SDR family NAD(P)-dependent oxidoreductase&lt;br&gt;Location: 161561 - 146724" locus_tag="FS847_02030" class="clusterblast-orf" id="dummy-35_h35_2_13"  />
</g>
<g id="a35_0014"  >
<polygon points="189,85 192,80 192,90 189,85 " style="fill:white; stroke-width:1; stroke:black; " description="&lt;b&gt;FS847_02025&lt;/b&gt;&lt;br&gt;TetR family transcriptional regulator&lt;br&gt;Location: 146544 - 145894" locus_tag="FS847_02025" class="clusterblast-orf" id="dummy-35_h35_2_14"  />
</g>
<g id="a35_0015"  >
<polygon points="193,90 201,90 206,85 201,80 193,80 193,90 " style="fill:white; stroke-width:1; stroke:black; " description="&lt;b&gt;FS847_02020&lt;/b&gt;&lt;br&gt;cytochrome P450&lt;br&gt;Location: 145756 - 142550" locus_tag="FS847_02020" class="clusterblast-orf" id="dummy-35_h35_2_15"  />
</g>
<g id="a35_0016"  >
<polygon points="206,85 210,80 210,90 206,85 " style="fill:#d81515; stroke-width:1; stroke:black; " description="&lt;b&gt;FS847_02015&lt;/b&gt;&lt;br&gt;helix-turn-helix domain-containing protein&lt;br&gt;Location: 142489 - 141503&lt;br&gt;&lt;br&gt;&lt;b&gt;BlastP hit with LLPMBPKK_07658&lt;/b&gt;&lt;br&gt;Percentage identity: 47&lt;br&gt;Percentage coverage: 98&lt;br&gt;BLAST bit score: 248&lt;br&gt;E-value: 9.81e-81" locus_tag="FS847_02015" class="clusterblast-orf" id="dummy-35_h35_2_16"  />
</g>
<g id="a35_0017"  >
<polygon points="210,90 214,85 210,80 210,90 " style="fill:white; stroke-width:1; stroke:black; " description="&lt;b&gt;FS847_02010&lt;/b&gt;&lt;br&gt;NADP-dependent oxidoreductase&lt;br&gt;Location: 141389 - 140373" locus_tag="FS847_02010" class="clusterblast-orf" id="dummy-35_h35_2_17"  />
</g>
<g id="a35_0018"  >
<polygon points="215,85 216,80 216,90 215,85 " style="fill:white; stroke-width:1; stroke:black; " description="&lt;b&gt;FS847_02005&lt;/b&gt;&lt;br&gt;hypothetical protein&lt;br&gt;Location: 140318 - 139917" locus_tag="FS847_02005" class="clusterblast-orf" id="dummy-35_h35_2_18"  />
</g>
<g id="a35_0019"  >
<polygon points="216,85 221,80 221,80 221,90 221,90 216,85 " style="fill:white; stroke-width:1; stroke:black; " description="&lt;b&gt;FS847_02000&lt;/b&gt;&lt;br&gt;molybdopterin-dependent oxidoreductase&lt;br&gt;Location: 139920 - 138784" locus_tag="FS847_02000" class="clusterblast-orf" id="dummy-35_h35_2_19"  />
</g>
<g id="a35_0020"  >
<polygon points="222,90 265,90 270,85 265,80 222,80 222,90 " style="fill:white; stroke-width:1; stroke:black; " description="&lt;b&gt;FS847_01995&lt;/b&gt;&lt;br&gt;SDR family NAD(P)-dependent oxidoreductase&lt;br&gt;Location: 138368 - 126510" locus_tag="FS847_01995" class="clusterblast-orf" id="dummy-35_h35_2_20"  />
</g>
<g id="a35_0021"  >
<polygon points="270,90 329,90 334,85 329,80 270,80 270,90 " style="fill:white; stroke-width:1; stroke:black; " description="&lt;b&gt;FS847_01990&lt;/b&gt;&lt;br&gt;SDR family NAD(P)-dependent oxidoreductase&lt;br&gt;Location: 126451 - 110696" locus_tag="FS847_01990" class="clusterblast-orf" id="dummy-35_h35_2_21"  />
</g>
<g id="a35_0022"  >
<polygon points="334,90 340,90 345,85 340,80 334,80 334,90 " style="fill:white; stroke-width:1; stroke:black; " description="&lt;b&gt;FS847_01985&lt;/b&gt;&lt;br&gt;type I polyketide synthase&lt;br&gt;Location: 110646 - 107908" locus_tag="FS847_01985" class="clusterblast-orf" id="dummy-35_h35_2_22"  />
</g>
<g id="a35_0023"  >
<polygon points="363,90 363,90 368,85 363,80 363,80 363,90 " style="fill:white; stroke-width:1; stroke:black; " description="&lt;b&gt;FS847_01980&lt;/b&gt;&lt;br&gt;SDR family NAD(P)-dependent oxidoreductase&lt;br&gt;Location: 103539 - 102178" locus_tag="FS847_01980" class="clusterblast-orf" id="dummy-35_h35_2_23"  />
</g>
<g id="a35_0024"  >
<polygon points="369,90 371,90 376,85 371,80 369,80 369,90 " style="fill:white; stroke-width:1; stroke:black; " description="&lt;b&gt;FS847_01975&lt;/b&gt;&lt;br&gt;type I polyketide synthase&lt;br&gt;Location: 101859 - 100309" locus_tag="FS847_01975" class="clusterblast-orf" id="dummy-35_h35_2_24"  />
</g>
<g id="a35_0025"  >
<polygon points="377,90 380,90 385,85 380,80 377,80 377,90 " style="fill:white; stroke-width:1; stroke:black; " description="&lt;b&gt;FS847_01970&lt;/b&gt;&lt;br&gt;acyltransferase domain-containing protein&lt;br&gt;Location: 99960 - 98062" locus_tag="FS847_01970" class="clusterblast-orf" id="dummy-35_h35_2_25"  />
</g>
<g id="a35_0026"  >
<polygon points="387,90 431,90 436,85 431,80 387,80 387,90 " style="fill:white; stroke-width:1; stroke:black; " description="&lt;b&gt;FS847_01965&lt;/b&gt;&lt;br&gt;SDR family NAD(P)-dependent oxidoreductase&lt;br&gt;Location: 97395 - 85258" locus_tag="FS847_01965" class="clusterblast-orf" id="dummy-35_h35_2_26"  />
</g>
<g id="a35_0027"  >
<polygon points="436,90 495,90 500,85 495,80 436,80 436,90 " style="fill:white; stroke-width:1; stroke:black; " description="&lt;b&gt;FS847_01960&lt;/b&gt;&lt;br&gt;SDR family NAD(P)-dependent oxidoreductase&lt;br&gt;Location: 85212 - 69445" locus_tag="FS847_01960" class="clusterblast-orf" id="dummy-35_h35_2_27"  />
</g>
<g id="a35_0028"  >
<polygon points="500,90 539,90 544,85 539,80 500,80 500,90 " style="fill:white; stroke-width:1; stroke:black; " description="&lt;b&gt;FS847_01955&lt;/b&gt;&lt;br&gt;SDR family NAD(P)-dependent oxidoreductase&lt;br&gt;Location: 69398 - 58464" locus_tag="FS847_01955" class="clusterblast-orf" id="dummy-35_h35_2_28"  />
</g>
<g id="a35_0029"  >
<polygon points="545,90 546,85 545,80 545,90 " style="fill:white; stroke-width:1; stroke:black; " description="&lt;b&gt;FS847_01950&lt;/b&gt;&lt;br&gt;ferredoxin&lt;br&gt;Location: 58285 - 58082" locus_tag="FS847_01950" class="clusterblast-orf" id="dummy-35_h35_2_29"  />
</g>
<g id="a35_0030"  >
<polygon points="546,85 550,80 550,90 546,85 " style="fill:white; stroke-width:1; stroke:black; " description="&lt;b&gt;FS847_01945&lt;/b&gt;&lt;br&gt;cytochrome P450&lt;br&gt;Location: 58052 - 56913" locus_tag="FS847_01945" class="clusterblast-orf" id="dummy-35_h35_2_30"  />
</g>
<g id="a35_0031"  >
<polygon points="552,90 552,90 557,85 552,80 552,80 552,90 " style="fill:white; stroke-width:1; stroke:black; " description="&lt;b&gt;FS847_01940&lt;/b&gt;&lt;br&gt;activator-dependent family glycosyltransferase&lt;br&gt;Location: 56420 - 55164" locus_tag="FS847_01940" class="clusterblast-orf" id="dummy-35_h35_2_31"  />
</g>
<g id="a35_0032"  >
<polygon points="558,90 562,85 558,80 558,90 " style="fill:white; stroke-width:1; stroke:black; " description="&lt;b&gt;FS847_01935&lt;/b&gt;&lt;br&gt;glucose-1-phosphate thymidylyltransferase&lt;br&gt;Location: 55097 - 54030" locus_tag="FS847_01935" class="clusterblast-orf" id="dummy-35_h35_2_32"  />
</g>
<g id="a35_0033"  >
<polygon points="562,90 566,85 562,80 562,90 " style="fill:white; stroke-width:1; stroke:black; " description="&lt;b&gt;FS847_01930&lt;/b&gt;&lt;br&gt;dTDP-glucose 4,6-dehydratase&lt;br&gt;Location: 53928 - 52927" locus_tag="FS847_01930" class="clusterblast-orf" id="dummy-35_h35_2_33"  />
</g>
<g id="a35_0034"  >
<polygon points="567,90 570,85 567,80 567,90 " style="fill:white; stroke-width:1; stroke:black; " description="&lt;b&gt;FS847_01925&lt;/b&gt;&lt;br&gt;NAD(P)-dependent oxidoreductase&lt;br&gt;Location: 52876 - 51914" locus_tag="FS847_01925" class="clusterblast-orf" id="dummy-35_h35_2_34"  />
</g>
<g id="a35_0035"  >
<polygon points="571,90 571,90 576,85 571,80 571,80 571,90 " style="fill:white; stroke-width:1; stroke:black; " description="&lt;b&gt;FS847_01920&lt;/b&gt;&lt;br&gt;glycosyl transferase&lt;br&gt;Location: 51776 - 50583" locus_tag="FS847_01920" class="clusterblast-orf" id="dummy-35_h35_2_35"  />
</g>
<g id="a35_0036"  >
<polygon points="576,85 581,80 581,80 581,90 581,90 576,85 " style="fill:white; stroke-width:1; stroke:black; " description="&lt;b&gt;FS847_01915&lt;/b&gt;&lt;br&gt;lipopolysaccharide biosynthesis protein RfbH&lt;br&gt;Location: 50495 - 49194" locus_tag="FS847_01915" class="clusterblast-orf" id="dummy-35_h35_2_36"  />
</g>
<g id="a35_0037"  >
<polygon points="584,90 607,90 612,85 607,80 584,80 584,90 " style="fill:white; stroke-width:1; stroke:black; " description="&lt;b&gt;FS847_01910&lt;/b&gt;&lt;br&gt;AMP-binding protein&lt;br&gt;Location: 48664 - 41507" locus_tag="FS847_01910" class="clusterblast-orf" id="dummy-35_h35_2_37"  />
</g>
<g id="a35_0038"  >
<polygon points="612,90 612,90 617,85 612,80 612,80 612,90 " style="fill:white; stroke-width:1; stroke:black; " description="&lt;b&gt;FS847_01905&lt;/b&gt;&lt;br&gt;3-oxoacyl-ACP synthase&lt;br&gt;Location: 41478 - 40441" locus_tag="FS847_01905" class="clusterblast-orf" id="dummy-35_h35_2_38"  />
</g>
<g id="a35_0039"  >
<polygon points="617,90 619,85 617,80 617,90 " style="fill:white; stroke-width:1; stroke:black; " description="&lt;b&gt;FS847_01900&lt;/b&gt;&lt;br&gt;cold shock domain-containing protein&lt;br&gt;Location: 40252 - 39818" locus_tag="FS847_01900" class="clusterblast-orf" id="dummy-35_h35_2_39"  />
</g>
<g id="a35_0040"  >
<polygon points="619,90 620,85 619,80 619,90 " style="fill:white; stroke-width:1; stroke:black; " description="&lt;b&gt;FS847_01895&lt;/b&gt;&lt;br&gt;transposase&lt;br&gt;Location: 39965 - 39519" locus_tag="FS847_01895" class="clusterblast-orf" id="dummy-35_h35_2_40"  />
</g>
<g id="a35_0041"  >
<polygon points="621,90 623,85 621,80 621,90 " style="fill:white; stroke-width:1; stroke:black; " description="&lt;b&gt;FS847_01890&lt;/b&gt;&lt;br&gt;hypothetical protein&lt;br&gt;Location: 39284 - 38985" locus_tag="FS847_01890" class="clusterblast-orf" id="dummy-35_h35_2_41"  />
</g>
<g id="a35_0042"  >
<polygon points="623,90 624,85 623,80 623,90 " style="fill:white; stroke-width:1; stroke:black; " description="&lt;b&gt;FS847_01885&lt;/b&gt;&lt;br&gt;transposase&lt;br&gt;Location: 38834 - 38610" locus_tag="FS847_01885" class="clusterblast-orf" id="dummy-35_h35_2_42"  />
</g>
<g id="a35_0043"  >
<polygon points="625,85 629,80 629,90 625,85 " style="fill:white; stroke-width:1; stroke:black; " description="&lt;b&gt;FS847_01880&lt;/b&gt;&lt;br&gt;glycosyl transferase&lt;br&gt;Location: 38475 - 37282" locus_tag="FS847_01880" class="clusterblast-orf" id="dummy-35_h35_2_43"  />
</g>
<g id="a35_0044"  >
<polygon points="629,85 633,80 633,90 629,85 " style="fill:white; stroke-width:1; stroke:black; " description="&lt;b&gt;FS847_01875&lt;/b&gt;&lt;br&gt;SAM-dependent methyltransferase&lt;br&gt;Location: 37272 - 36403" locus_tag="FS847_01875" class="clusterblast-orf" id="dummy-35_h35_2_44"  />
</g>
<g id="a35_0045"  >
<polygon points="633,85 638,80 638,80 638,90 638,90 633,85 " style="fill:white; stroke-width:1; stroke:black; " description="&lt;b&gt;FS847_01870&lt;/b&gt;&lt;br&gt;amidohydrolase family protein&lt;br&gt;Location: 36326 - 35034" locus_tag="FS847_01870" class="clusterblast-orf" id="dummy-35_h35_2_45"  />
</g>
<g id="a35_0046"  >
<polygon points="639,85 642,80 642,90 639,85 " style="fill:white; stroke-width:1; stroke:black; " description="&lt;b&gt;FS847_01865&lt;/b&gt;&lt;br&gt;hypothetical protein&lt;br&gt;Location: 35017 - 34100" locus_tag="FS847_01865" class="clusterblast-orf" id="dummy-35_h35_2_46"  />
</g>
<g id="a35_0047"  >
<polygon points="642,85 645,80 645,90 642,85 " style="fill:white; stroke-width:1; stroke:black; " description="&lt;b&gt;FS847_01860&lt;/b&gt;&lt;br&gt;nitroreductase family protein&lt;br&gt;Location: 34112 - 33462" locus_tag="FS847_01860" class="clusterblast-orf" id="dummy-35_h35_2_47"  />
</g>
<g id="a35_0048"  >
<polygon points="645,85 649,80 649,90 645,85 " style="fill:white; stroke-width:1; stroke:black; " description="&lt;b&gt;FS847_01855&lt;/b&gt;&lt;br&gt;A-factor biosynthesis protein&lt;br&gt;Location: 33460 - 32483" locus_tag="FS847_01855" class="clusterblast-orf" id="dummy-35_h35_2_48"  />
</g>
<g id="a35_0049"  >
<polygon points="649,85 653,80 653,90 649,85 " style="fill:white; stroke-width:1; stroke:black; " description="&lt;b&gt;FS847_01850&lt;/b&gt;&lt;br&gt;nucleoside-diphosphate kinase&lt;br&gt;Location: 32467 - 31472" locus_tag="FS847_01850" class="clusterblast-orf" id="dummy-35_h35_2_49"  />
</g>
<g id="a35_0050"  >
<polygon points="653,85 658,80 658,80 658,90 658,90 653,85 " style="fill:white; stroke-width:1; stroke:black; " description="&lt;b&gt;FS847_01845&lt;/b&gt;&lt;br&gt;SDR family oxidoreductase&lt;br&gt;Location: 31475 - 30291" locus_tag="FS847_01845" class="clusterblast-orf" id="dummy-35_h35_2_50"  />
</g>
<g id="a35_0051"  >
<polygon points="658,85 663,80 665,80 665,90 663,90 658,85 " style="fill:white; stroke-width:1; stroke:black; " description="&lt;b&gt;FS847_01840&lt;/b&gt;&lt;br&gt;hypothetical protein&lt;br&gt;Location: 30161 - 28506" locus_tag="FS847_01840" class="clusterblast-orf" id="dummy-35_h35_2_51"  />
</g>
<g id="a35_0052"  >
<polygon points="665,85 670,80 676,80 676,90 670,90 665,85 " style="fill:white; stroke-width:1; stroke:black; " description="&lt;b&gt;FS847_01835&lt;/b&gt;&lt;br&gt;phosphoenolpyruvate synthase&lt;br&gt;Location: 28509 - 25738" locus_tag="FS847_01835" class="clusterblast-orf" id="dummy-35_h35_2_52"  />
</g>
<g id="a35_0053"  >
<polygon points="677,90 678,90 683,85 678,80 677,80 677,90 " style="fill:white; stroke-width:1; stroke:black; " description="&lt;b&gt;FS847_01830&lt;/b&gt;&lt;br&gt;cytochrome P450&lt;br&gt;Location: 25381 - 23987" locus_tag="FS847_01830" class="clusterblast-orf" id="dummy-35_h35_2_53"  />
</g>
<g id="a35_0054"  >
<polygon points="683,85 688,80 688,80 688,90 688,90 683,85 " style="fill:white; stroke-width:1; stroke:black; " description="&lt;b&gt;FS847_01825&lt;/b&gt;&lt;br&gt;MFS transporter&lt;br&gt;Location: 23886 - 22624" locus_tag="FS847_01825" class="clusterblast-orf" id="dummy-35_h35_2_54"  />
</g>
<g id="a35_0055"  >
<polygon points="689,90 693,85 689,80 689,90 " style="fill:white; stroke-width:1; stroke:black; " description="&lt;b&gt;FS847_01820&lt;/b&gt;&lt;br&gt;LysR family transcriptional regulator&lt;br&gt;Location: 22491 - 21565" locus_tag="FS847_01820" class="clusterblast-orf" id="dummy-35_h35_2_55"  />
</g>
<g id="a35_0056"  >
<polygon points="693,85 697,80 697,90 693,85 " style="fill:white; stroke-width:1; stroke:black; " description="&lt;b&gt;FS847_01815&lt;/b&gt;&lt;br&gt;HD domain-containing protein&lt;br&gt;Location: 21499 - 20540" locus_tag="FS847_01815" class="clusterblast-orf" id="dummy-35_h35_2_56"  />
</g>
<g id="a35_0057"  >
<polygon points="698,90 702,85 698,80 698,90 " style="fill:white; stroke-width:1; stroke:black; " description="&lt;b&gt;FS847_01810&lt;/b&gt;&lt;br&gt;EamA family transporter&lt;br&gt;Location: 20186 - 19251" locus_tag="FS847_01810" class="clusterblast-orf" id="dummy-35_h35_2_57"  />
</g>
<g id="a35_0058"  >
<polygon points="702,90 712,90 717,85 712,80 702,80 702,90 " style="fill:white; stroke-width:1; stroke:black; " description="&lt;b&gt;FS847_01805&lt;/b&gt;&lt;br&gt;amino acid adenylation domain-containing protein&lt;br&gt;Location: 19242 - 15427" locus_tag="FS847_01805" class="clusterblast-orf" id="dummy-35_h35_2_58"  />
</g>
<g id="a35_0059"  >
<polygon points="718,90 719,85 718,80 718,90 " style="fill:white; stroke-width:1; stroke:black; " description="&lt;b&gt;FS847_01800&lt;/b&gt;&lt;br&gt;tautomerase pptA&lt;br&gt;Location: 15377 - 15144" locus_tag="FS847_01800" class="clusterblast-orf" id="dummy-35_h35_2_59"  />
</g>
<g id="a35_0060"  >
<polygon points="719,85 722,80 722,90 719,85 " style="fill:white; stroke-width:1; stroke:black; " description="&lt;b&gt;FS847_01795&lt;/b&gt;&lt;br&gt;ABC transporter permease&lt;br&gt;Location: 15062 - 14307" locus_tag="FS847_01795" class="clusterblast-orf" id="dummy-35_h35_2_60"  />
</g>
<g id="a35_0061"  >
<polygon points="722,85 726,80 726,90 722,85 " style="fill:white; stroke-width:1; stroke:black; " description="&lt;b&gt;FS847_01790&lt;/b&gt;&lt;br&gt;ATP-binding cassette domain-containing protein&lt;br&gt;Location: 14185 - 13403" locus_tag="FS847_01790" class="clusterblast-orf" id="dummy-35_h35_2_61"  />
</g>
<g id="a35_0062"  >
<polygon points="726,85 730,80 730,90 726,85 " style="fill:white; stroke-width:1; stroke:black; " description="&lt;b&gt;FS847_01785&lt;/b&gt;&lt;br&gt;NAD(P)-dependent oxidoreductase&lt;br&gt;Location: 13214 - 12267" locus_tag="FS847_01785" class="clusterblast-orf" id="dummy-35_h35_2_62"  />
</g>
<g id="a35_0063"  >
<polygon points="730,85 733,80 733,90 730,85 " style="fill:white; stroke-width:1; stroke:black; " description="&lt;b&gt;FS847_01780&lt;/b&gt;&lt;br&gt;dTDP-4-keto-6-deoxy-D-glucose epimerase&lt;br&gt;Location: 12218 - 11580" locus_tag="FS847_01780" class="clusterblast-orf" id="dummy-35_h35_2_63"  />
</g>
<g id="a35_0064"  >
<polygon points="734,85 739,80 739,80 739,90 739,90 734,85 " style="fill:white; stroke-width:1; stroke:black; " description="&lt;b&gt;FS847_01775&lt;/b&gt;&lt;br&gt;class I SAM-dependent methyltransferase&lt;br&gt;Location: 11275 - 10043" locus_tag="FS847_01775" class="clusterblast-orf" id="dummy-35_h35_2_64"  />
</g>
<g id="a35_0065"  >
<polygon points="741,90 744,85 741,80 741,90 " style="fill:white; stroke-width:1; stroke:black; " description="&lt;b&gt;FS847_01770&lt;/b&gt;&lt;br&gt;hypothetical protein&lt;br&gt;Location: 9638 - 8907" locus_tag="FS847_01770" class="clusterblast-orf" id="dummy-35_h35_2_65"  />
</g>
<g id="a35_0066"  >
<polygon points="745,90 745,90 750,85 745,80 745,80 745,90 " style="fill:white; stroke-width:1; stroke:black; " description="&lt;b&gt;FS847_01765&lt;/b&gt;&lt;br&gt;sulfotransferase&lt;br&gt;Location: 8649 - 7360" locus_tag="FS847_01765" class="clusterblast-orf" id="dummy-35_h35_2_66"  />
</g>
<g id="a35_0067"  >
<polygon points="750,90 752,85 750,80 750,90 " style="fill:white; stroke-width:1; stroke:black; " description="&lt;b&gt;FS847_01760&lt;/b&gt;&lt;br&gt;adenylyl-sulfate kinase&lt;br&gt;Location: 7358 - 6720" locus_tag="FS847_01760" class="clusterblast-orf" id="dummy-35_h35_2_67"  />
</g>
<g id="a35_0068"  >
<polygon points="753,85 758,80 758,80 758,90 758,90 753,85 " style="fill:#1515d8; stroke-width:1; stroke:black; " description="&lt;b&gt;FS847_01755&lt;/b&gt;&lt;br&gt;glycosyltransferase family 1 protein&lt;br&gt;Location: 6674 - 5421&lt;br&gt;&lt;br&gt;&lt;b&gt;BlastP hit with LLPMBPKK_07675&lt;/b&gt;&lt;br&gt;Percentage identity: 67&lt;br&gt;Percentage coverage: 100&lt;br&gt;BLAST bit score: 504&lt;br&gt;E-value: 1.1e-178" locus_tag="FS847_01755" class="clusterblast-orf" id="dummy-35_h35_2_68"  />
</g>
<g id="a35_0069"  >
<polygon points="759,90 762,85 759,80 759,90 " style="fill:white; stroke-width:1; stroke:black; " description="&lt;b&gt;FS847_01750&lt;/b&gt;&lt;br&gt;TetR family transcriptional regulator&lt;br&gt;Location: 5130 - 4447" locus_tag="FS847_01750" class="clusterblast-orf" id="dummy-35_h35_2_69"  />
</g>
<g id="a35_0070"  >
<polygon points="762,90 762,90 767,85 762,80 762,80 762,90 " style="fill:white; stroke-width:1; stroke:black; " description="&lt;b&gt;FS847_01745&lt;/b&gt;&lt;br&gt;serine hydrolase&lt;br&gt;Location: 4322 - 3108" locus_tag="FS847_01745" class="clusterblast-orf" id="dummy-35_h35_2_70"  />
</g>
<g id="a35_0071"  >
<polygon points="767,85 772,80 779,80 779,90 772,90 767,85 " style="fill:white; stroke-width:1; stroke:black; " description="&lt;b&gt;FS847_01740&lt;/b&gt;&lt;br&gt;non-ribosomal peptide synthetase&lt;br&gt;Location: 3120 - 1" locus_tag="FS847_01740" class="clusterblast-orf" id="dummy-35_h35_2_71"  />
</g>
</svg>
