<svg xmlns="http://www.w3.org/2000/svg" xmlns:xlink="http://www.w3.org/1999/xlink" version="1.1" x="0" y="0" height="230" width="800" viewBox="0 0 800 230" preserveAspectRatio="none"  >
<g label="Query sequence" class="clusterblast-cluster"  >
<text x="5" y="20" class="clusterblast-acc"  >
Query sequence</text>
<line x1="10" y1="35" x2="778.0" y2="35" style="stroke-width:1; stroke:grey; "  />
<polygon points="0,40 4,35 0,30 0,40 " style="fill:white; stroke-width:1; stroke:black; " description="&lt;b&gt;LLPMBPKK_07507&lt;/b&gt;&lt;br&gt;hypothetical protein&lt;br&gt;Location: 8732495 - 8732864" locus_tag="LLPMBPKK_07507" class="clusterblast-orf" id="dummy-33_q0_0_all"  />
<polygon points="7,40 54,40 59,35 54,30 7,30 7,40 " style="fill:white; stroke-width:1; stroke:black; " description="&lt;b&gt;LLPMBPKK_07508&lt;/b&gt;&lt;br&gt;WD-40 repeat-containing protein&lt;br&gt;Location: 8733081 - 8736987" locus_tag="LLPMBPKK_07508" class="clusterblast-orf" id="dummy-33_q1_0_all"  />
<polygon points="61,40 67,40 72,35 67,30 61,30 61,40 " style="fill:white; stroke-width:1; stroke:black; " description="&lt;b&gt;LLPMBPKK_07509&lt;/b&gt;&lt;br&gt;peptidoglycan endopeptidase&lt;br&gt;Location: 8737128 - 8737989" locus_tag="LLPMBPKK_07509" class="clusterblast-orf" id="dummy-33_q2_0_all"  />
<polygon points="72,35 77,30 101,30 101,40 77,40 72,35 " style="fill:white; stroke-width:1; stroke:black; " description="&lt;b&gt;LLPMBPKK_07510&lt;/b&gt;&lt;br&gt;ATPase AAA&lt;br&gt;Location: 8738008 - 8740192" locus_tag="LLPMBPKK_07510" class="clusterblast-orf" id="dummy-33_q3_0_all"  />
<polygon points="102,35 107,30 117,30 117,40 107,40 102,35 " style="fill:white; stroke-width:1; stroke:black; " description="&lt;b&gt;LLPMBPKK_07511&lt;/b&gt;&lt;br&gt;glycosyl transferase family protein&lt;br&gt;Location: 8740272 - 8741436" locus_tag="LLPMBPKK_07511" class="clusterblast-orf" id="dummy-33_q4_0_all"  />
<polygon points="121,40 145,40 150,35 145,30 121,30 121,40 " style="fill:white; stroke-width:1; stroke:black; " description="&lt;b&gt;LLPMBPKK_07512&lt;/b&gt;&lt;br&gt;FUSC family protein&lt;br&gt;Location: 8741744 - 8743895" locus_tag="LLPMBPKK_07512" class="clusterblast-orf" id="dummy-33_q5_0_all"  />
<polygon points="153,35 157,30 157,40 153,35 " style="fill:white; stroke-width:1; stroke:black; " description="&lt;b&gt;LLPMBPKK_07513&lt;/b&gt;&lt;br&gt;non-ribosomal peptide synthetase&lt;br&gt;Location: 8744146 - 8744440" locus_tag="LLPMBPKK_07513" class="clusterblast-orf" id="dummy-33_q6_0_all"  />
<polygon points="157,35 162,30 175,30 175,40 162,40 157,35 " style="fill:white; stroke-width:1; stroke:black; " description="&lt;b&gt;LLPMBPKK_07514&lt;/b&gt;&lt;br&gt;non-ribosomal peptide synthetase&lt;br&gt;Location: 8744486 - 8745854" locus_tag="LLPMBPKK_07514" class="clusterblast-orf" id="dummy-33_q7_0_all"  />
<polygon points="178,40 206,40 211,35 206,30 178,30 178,40 " style="fill:white; stroke-width:1; stroke:black; " description="&lt;b&gt;LLPMBPKK_07515&lt;/b&gt;&lt;br&gt;hybrid non-ribosomal peptide synthetase/type Ipolyketide synthase&lt;br&gt;Location: 8746075 - 8748553" locus_tag="LLPMBPKK_07515" class="clusterblast-orf" id="dummy-33_q8_0_all"  />
<polygon points="212,35 217,30 231,30 231,40 217,40 212,35 " style="fill:white; stroke-width:1; stroke:black; " description="&lt;b&gt;LLPMBPKK_07516&lt;/b&gt;&lt;br&gt;non-ribosomal peptide synthetase&lt;br&gt;Location: 8748619 - 8750095" locus_tag="LLPMBPKK_07516" class="clusterblast-orf" id="dummy-33_q9_0_all"  />
<polygon points="232,35 237,30 246,30 246,40 237,40 232,35 " style="fill:white; stroke-width:1; stroke:black; " description="&lt;b&gt;LLPMBPKK_07517&lt;/b&gt;&lt;br&gt;oxygenase&lt;br&gt;Location: 8750165 - 8751242" locus_tag="LLPMBPKK_07517" class="clusterblast-orf" id="dummy-33_q10_0_all"  />
<polygon points="247,35 252,30 259,30 259,40 252,40 247,35 " style="fill:#d81515; stroke-width:1; stroke:black; " description="&lt;b&gt;LLPMBPKK_07518&lt;/b&gt;&lt;br&gt;GNAT family N-acetyltransferase&lt;br&gt;Location: 8751295 - 8752240" locus_tag="LLPMBPKK_07518" class="clusterblast-orf" id="dummy-33_q11_0_all"  />
<polygon points="261,35 266,30 305,30 305,40 266,40 261,35 " style="fill:white; stroke-width:1; stroke:black; " description="&lt;b&gt;LLPMBPKK_07519&lt;/b&gt;&lt;br&gt;non-ribosomal peptide synthetase&lt;br&gt;Location: 8752332 - 8755725" locus_tag="LLPMBPKK_07519" class="clusterblast-orf" id="dummy-33_q12_0_all"  />
<polygon points="312,40 316,40 321,35 316,30 312,30 312,40 " style="fill:white; stroke-width:1; stroke:black; " description="&lt;b&gt;LLPMBPKK_07520&lt;/b&gt;&lt;br&gt;thioesterase&lt;br&gt;Location: 8756208 - 8756943" locus_tag="LLPMBPKK_07520" class="clusterblast-orf" id="dummy-33_q13_0_all"  />
<polygon points="321,40 361,40 366,35 361,30 321,30 321,40 " style="fill:#77d815; stroke-width:1; stroke:black; " description="&lt;b&gt;LLPMBPKK_07521&lt;/b&gt;&lt;br&gt;non-ribosomal peptide synthetase&lt;br&gt;Location: 8756935 - 8760343" locus_tag="LLPMBPKK_07521" class="clusterblast-orf" id="dummy-33_q14_0_all"  />
<polygon points="366,40 424,40 429,35 424,30 366,30 366,40 " style="fill:#15d8d8; stroke-width:1; stroke:black; " description="&lt;b&gt;LLPMBPKK_07522&lt;/b&gt;&lt;br&gt;non-ribosomal peptide synthetase&lt;br&gt;Location: 8760339 - 8765136" locus_tag="LLPMBPKK_07522" class="clusterblast-orf" id="dummy-33_q15_0_all"  />
<polygon points="429,40 496,40 501,35 496,30 429,30 429,40 " style="fill:#7715d8; stroke-width:1; stroke:black; " description="&lt;b&gt;LLPMBPKK_07523&lt;/b&gt;&lt;br&gt;non-ribosomal peptide synthetase&lt;br&gt;Location: 8765132 - 8770556" locus_tag="LLPMBPKK_07523" class="clusterblast-orf" id="dummy-33_q16_0_all"  />
<polygon points="504,40 507,35 504,30 504,40 " style="fill:#d8a715; stroke-width:1; stroke:black; " description="&lt;b&gt;LLPMBPKK_07524&lt;/b&gt;&lt;br&gt;MbtH protein&lt;br&gt;Location: 8770838 - 8771039" locus_tag="LLPMBPKK_07524" class="clusterblast-orf" id="dummy-33_q17_0_all"  />
<polygon points="508,40 527,40 532,35 527,30 508,30 508,40 " style="fill:#15d846; stroke-width:1; stroke:black; " description="&lt;b&gt;LLPMBPKK_07525&lt;/b&gt;&lt;br&gt;non-ribosomal peptide synthetase&lt;br&gt;Location: 8771117 - 8772950" locus_tag="LLPMBPKK_07525" class="clusterblast-orf" id="dummy-33_q18_0_all"  />
<polygon points="532,40 540,40 545,35 540,30 532,30 532,40 " style="fill:#1546d8; stroke-width:1; stroke:black; " description="&lt;b&gt;LLPMBPKK_07526&lt;/b&gt;&lt;br&gt;Phytanoyl-CoA dioxygenase (PhyH)&lt;br&gt;Location: 8772946 - 8773906" locus_tag="LLPMBPKK_07526" class="clusterblast-orf" id="dummy-33_q19_0_all"  />
<polygon points="551,40 556,40 561,35 556,30 551,30 551,40 " style="fill:#d815a7; stroke-width:1; stroke:black; " description="&lt;b&gt;LLPMBPKK_07527&lt;/b&gt;&lt;br&gt;Putative aminoacrylate hydrolase RutD&lt;br&gt;Location: 8774383 - 8775121" locus_tag="LLPMBPKK_07527" class="clusterblast-orf" id="dummy-33_q20_0_all"  />
<polygon points="561,40 575,40 580,35 575,30 561,30 561,40 " style="fill:white; stroke-width:1; stroke:black; " description="&lt;b&gt;LLPMBPKK_07528&lt;/b&gt;&lt;br&gt;Methyltransferase FkbM domain protein&lt;br&gt;Location: 8775117 - 8776557" locus_tag="LLPMBPKK_07528" class="clusterblast-orf" id="dummy-33_q21_0_all"  />
<polygon points="579,40 584,40 589,35 584,30 579,30 579,40 " style="fill:white; stroke-width:1; stroke:black; " description="&lt;b&gt;LLPMBPKK_07529&lt;/b&gt;&lt;br&gt;thioesterase&lt;br&gt;Location: 8776553 - 8777294" locus_tag="LLPMBPKK_07529" class="clusterblast-orf" id="dummy-33_q22_0_all"  />
<polygon points="589,40 600,40 605,35 600,30 589,30 589,40 " style="fill:white; stroke-width:1; stroke:black; " description="&lt;b&gt;LLPMBPKK_07530&lt;/b&gt;&lt;br&gt;acyl-CoA dehydrogenase&lt;br&gt;Location: 8777290 - 8778463" locus_tag="LLPMBPKK_07530" class="clusterblast-orf" id="dummy-33_q23_0_all"  />
<polygon points="605,35 610,30 637,30 637,40 610,40 605,35 " style="fill:white; stroke-width:1; stroke:black; " description="&lt;b&gt;LLPMBPKK_07531&lt;/b&gt;&lt;br&gt;LuxR family transcriptional regulator&lt;br&gt;Location: 8778497 - 8780918" locus_tag="LLPMBPKK_07531" class="clusterblast-orf" id="dummy-33_q24_0_all"  />
<polygon points="645,40 654,40 659,35 654,30 645,30 645,40 " style="fill:white; stroke-width:1; stroke:black; " description="&lt;b&gt;LLPMBPKK_07532&lt;/b&gt;&lt;br&gt;Glyoxylate/hydroxypyruvate reductase B&lt;br&gt;Location: 8781546 - 8782569" locus_tag="LLPMBPKK_07532" class="clusterblast-orf" id="dummy-33_q25_0_all"  />
<polygon points="659,40 670,40 675,35 670,30 659,30 659,40 " style="fill:white; stroke-width:1; stroke:black; " description="&lt;b&gt;LLPMBPKK_07533&lt;/b&gt;&lt;br&gt;L-lysine 2,3-aminomutase&lt;br&gt;Location: 8782622 - 8783804" locus_tag="LLPMBPKK_07533" class="clusterblast-orf" id="dummy-33_q26_0_all"  />
<polygon points="676,40 686,40 691,35 686,30 676,30 676,40 " style="fill:white; stroke-width:1; stroke:black; " description="&lt;b&gt;LLPMBPKK_07534&lt;/b&gt;&lt;br&gt;Iron-containing redox enzyme&lt;br&gt;Location: 8783871 - 8784996" locus_tag="LLPMBPKK_07534" class="clusterblast-orf" id="dummy-33_q27_0_all"  />
<polygon points="691,40 699,40 704,35 699,30 691,30 691,40 " style="fill:white; stroke-width:1; stroke:black; " description="&lt;b&gt;LLPMBPKK_07535&lt;/b&gt;&lt;br&gt;aminotransferase&lt;br&gt;Location: 8784992 - 8786054" locus_tag="LLPMBPKK_07535" class="clusterblast-orf" id="dummy-33_q28_0_all"  />
<polygon points="706,40 716,40 721,35 716,30 706,30 706,40 " style="fill:white; stroke-width:1; stroke:black; " description="&lt;b&gt;LLPMBPKK_07536&lt;/b&gt;&lt;br&gt;S-adenosylmethionine synthetase&lt;br&gt;Location: 8786138 - 8787302" locus_tag="LLPMBPKK_07536" class="clusterblast-orf" id="dummy-33_q29_0_all"  />
<polygon points="722,40 733,40 738,35 733,30 722,30 722,40 " style="fill:white; stroke-width:1; stroke:black; " description="&lt;b&gt;LLPMBPKK_07537&lt;/b&gt;&lt;br&gt;pyridoxal phosphate-dependent aminotransferase&lt;br&gt;Location: 8787396 - 8788569" locus_tag="LLPMBPKK_07537" class="clusterblast-orf" id="dummy-33_q30_0_all"  />
<polygon points="739,35 744,30 747,30 747,40 744,40 739,35 " style="fill:white; stroke-width:1; stroke:black; " description="&lt;b&gt;LLPMBPKK_07538&lt;/b&gt;&lt;br&gt;PadR family transcriptional regulator&lt;br&gt;Location: 8788700 - 8789276" locus_tag="LLPMBPKK_07538" class="clusterblast-orf" id="dummy-33_q31_0_all"  />
<polygon points="749,40 749,40 754,35 749,30 749,30 749,40 " style="fill:white; stroke-width:1; stroke:black; " description="&lt;b&gt;LLPMBPKK_07539&lt;/b&gt;&lt;br&gt;nuclear transport factor 2 family protein&lt;br&gt;Location: 8789412 - 8789799" locus_tag="LLPMBPKK_07539" class="clusterblast-orf" id="dummy-33_q32_0_all"  />
<polygon points="755,40 758,35 755,30 755,40 " style="fill:white; stroke-width:1; stroke:black; " description="&lt;b&gt;LLPMBPKK_07540&lt;/b&gt;&lt;br&gt;hypothetical protein&lt;br&gt;Location: 8789875 - 8790142" locus_tag="LLPMBPKK_07540" class="clusterblast-orf" id="dummy-33_q33_0_all"  />
<polygon points="759,40 759,40 764,35 759,30 759,30 759,40 " style="fill:white; stroke-width:1; stroke:black; " description="&lt;b&gt;LLPMBPKK_07541&lt;/b&gt;&lt;br&gt;TIGR03618 family F420-dependent PPOX class oxidoreductase&lt;br&gt;Location: 8790172 - 8790610" locus_tag="LLPMBPKK_07541" class="clusterblast-orf" id="dummy-33_q34_0_all"  />
<polygon points="765,35 770,30 780,30 780,40 770,40 765,35 " style="fill:white; stroke-width:1; stroke:black; " description="&lt;b&gt;LLPMBPKK_07542&lt;/b&gt;&lt;br&gt;cellulose binding protein&lt;br&gt;Location: 8790662 - 8791763" locus_tag="LLPMBPKK_07542" class="clusterblast-orf" id="dummy-33_q35_0_all"  />
</g>
<g label="BGC0002563" description="BGC0002563_c1: gramibactin B (14% of genes show similarity), NRP" class="clusterblast-cluster"  >
<text x="5" y="70" class="clusterblast-acc"  >
<a xlink:href="https://mibig.secondarymetabolites.org/go/BGC0002563/1" target="_blank">BGC0002563</a>:                                                                    gramibactin B (14% of genes show similarity), NRP</text>
<line x1="10" y1="85" x2="778.0" y2="85" style="stroke-width:1; stroke:grey; "  />
</g>
<g id="a33_000"  >
<polygon points="111,90 114,85 111,80 111,90 " style="fill:#d8a715; stroke-width:1; stroke:black; " description="&lt;b&gt;CUJ87_10455&lt;/b&gt;&lt;br&gt;MbtH family protein&lt;br&gt;Location: 42293 - 42060&lt;br&gt;&lt;br&gt;&lt;b&gt;BlastP hit with LLPMBPKK_07524&lt;/b&gt;&lt;br&gt;Percentage identity: 64&lt;br&gt;Percentage coverage: 85&lt;br&gt;BLAST bit score: 81&lt;br&gt;E-value: 3.95e-22" locus_tag="CUJ87_10455" class="clusterblast-orf" id="dummy-33_h33_10_0"  />
</g>
<g id="a33_001"  >
<polygon points="115,90 120,90 125,85 120,80 115,80 115,90 " style="fill:white; stroke-width:1; stroke:black; " description="&lt;b&gt;CUJ87_10450&lt;/b&gt;&lt;br&gt;thioesterase&lt;br&gt;Location: 42041 - 41232" locus_tag="CUJ87_10450" class="clusterblast-orf" id="dummy-33_h33_10_1"  />
</g>
<g id="a33_002"  >
<polygon points="126,90 140,90 145,85 140,80 126,80 126,90 " style="fill:white; stroke-width:1; stroke:black; " description="&lt;b&gt;CUJ87_10445&lt;/b&gt;&lt;br&gt;peptide synthetase&lt;br&gt;Location: 41131 - 39695" locus_tag="CUJ87_10445" class="clusterblast-orf" id="dummy-33_h33_10_2"  />
</g>
<g id="a33_003"  >
<polygon points="148,90 155,90 160,85 155,80 148,80 148,90 " style="fill:white; stroke-width:1; stroke:black; " description="&lt;b&gt;CUJ87_10440&lt;/b&gt;&lt;br&gt;YqcI/YcgG family protein&lt;br&gt;Location: 39501 - 38599" locus_tag="CUJ87_10440" class="clusterblast-orf" id="dummy-33_h33_10_3"  />
</g>
<g id="a33_004"  >
<polygon points="161,90 178,90 183,85 178,80 161,80 161,90 " style="fill:white; stroke-width:1; stroke:black; " description="&lt;b&gt;CUJ87_10435&lt;/b&gt;&lt;br&gt;cyclic peptide export ABC transporter&lt;br&gt;Location: 38497 - 36851" locus_tag="CUJ87_10435" class="clusterblast-orf" id="dummy-33_h33_10_4"  />
</g>
<g id="a33_005"  >
<polygon points="183,90 189,90 194,85 189,80 183,80 183,90 " style="fill:white; stroke-width:1; stroke:black; " description="&lt;b&gt;CUJ87_10430&lt;/b&gt;&lt;br&gt;iron-hydroxamate transporter ATP-binding subunit&lt;br&gt;Location: 36833 - 36015" locus_tag="CUJ87_10430" class="clusterblast-orf" id="dummy-33_h33_10_5"  />
</g>
<g id="a33_006"  >
<polygon points="196,90 241,90 246,85 241,80 196,80 196,90 " style="fill:white; stroke-width:1; stroke:black; " description="&lt;b&gt;CUJ87_10425&lt;/b&gt;&lt;br&gt;AMP-dependent synthetase&lt;br&gt;Location: 35859 - 32038" locus_tag="CUJ87_10425" class="clusterblast-orf" id="dummy-33_h33_10_6"  />
</g>
<g id="a33_007"  >
<polygon points="247,90 465,90 470,85 465,80 247,80 247,90 " style="fill:#15d846; stroke-width:1; stroke:black; " description="&lt;b&gt;CUJ87_10420&lt;/b&gt;&lt;br&gt;non-ribosomal peptide synthetase&lt;br&gt;Location: 31946 - 15027&lt;br&gt;&lt;br&gt;&lt;b&gt;BlastP hit with LLPMBPKK_07525&lt;/b&gt;&lt;br&gt;Percentage identity: 46&lt;br&gt;Percentage coverage: 94&lt;br&gt;BLAST bit score: 408&lt;br&gt;E-value: 3.04e-125" locus_tag="CUJ87_10420" class="clusterblast-orf" id="dummy-33_h33_10_7"  />
</g>
<g id="a33_008"  >
<polygon points="471,90 541,90 546,85 541,80 471,80 471,90 " style="fill:white; stroke-width:1; stroke:black; " description="&lt;b&gt;CUJ87_10415&lt;/b&gt;&lt;br&gt;non-ribosomal peptide synthetase&lt;br&gt;Location: 14961 - 9226" locus_tag="CUJ87_10415" class="clusterblast-orf" id="dummy-33_h33_10_8"  />
</g>
<g id="a33_009"  >
<polygon points="549,90 573,90 578,85 573,80 549,80 549,90 " style="fill:white; stroke-width:1; stroke:black; " description="&lt;b&gt;CUJ87_10410&lt;/b&gt;&lt;br&gt;TonB-dependent siderophore receptor&lt;br&gt;Location: 9017 - 6825" locus_tag="CUJ87_10410" class="clusterblast-orf" id="dummy-33_h33_10_9"  />
</g>
<g id="a33_0010"  >
<polygon points="579,90 586,90 591,85 586,80 579,80 579,90 " style="fill:white; stroke-width:1; stroke:black; " description="&lt;b&gt;CUJ87_10405&lt;/b&gt;&lt;br&gt;ABC transporter substrate-binding protein&lt;br&gt;Location: 6778 - 5831" locus_tag="CUJ87_10405" class="clusterblast-orf" id="dummy-33_h33_10_10"  />
</g>
<g id="a33_0011"  >
<polygon points="591,90 612,90 617,85 612,80 591,80 591,90 " style="fill:white; stroke-width:1; stroke:black; " description="&lt;b&gt;CUJ87_10400&lt;/b&gt;&lt;br&gt;Fe(3+)-hydroxamate ABC transporter permease FhuB&lt;br&gt;Location: 5834 - 3843" locus_tag="CUJ87_10400" class="clusterblast-orf" id="dummy-33_h33_10_11"  />
</g>
<g id="a33_0012"  >
<polygon points="619,85 624,80 647,80 647,90 624,90 619,85 " style="fill:white; stroke-width:1; stroke:black; " description="&lt;b&gt;CUJ87_10395&lt;/b&gt;&lt;br&gt;TonB-dependent siderophore receptor&lt;br&gt;Location: 3716 - 1554" locus_tag="CUJ87_10395" class="clusterblast-orf" id="dummy-33_h33_10_12"  />
</g>
<g id="a33_0013"  >
<polygon points="651,90 663,90 668,85 663,80 651,80 651,90 " style="fill:white; stroke-width:1; stroke:black; " description="&lt;b&gt;CUJ87_10390&lt;/b&gt;&lt;br&gt;MFS transporter&lt;br&gt;Location: 1281 - 1" locus_tag="CUJ87_10390" class="clusterblast-orf" id="dummy-33_h33_10_13"  />
</g>
</svg>
