<svg xmlns="http://www.w3.org/2000/svg" xmlns:xlink="http://www.w3.org/1999/xlink" version="1.1" x="0" y="0" height="230" width="800" viewBox="0 0 800 230" preserveAspectRatio="none"  >
<g label="Query sequence" class="clusterblast-cluster"  >
<text x="5" y="20" class="clusterblast-acc"  >
Query sequence</text>
<line x1="10" y1="35" x2="778.0" y2="35" style="stroke-width:1; stroke:grey; "  />
<polygon points="57,40 65,40 70,35 65,30 57,30 57,40 " style="fill:white; stroke-width:1; stroke:black; " description="&lt;b&gt;LLPMBPKK_05373&lt;/b&gt;&lt;br&gt;hypothetical protein&lt;br&gt;Location: 6119913 - 6120729" locus_tag="LLPMBPKK_05373" class="clusterblast-orf" id="dummy-20_q0_0_all"  />
<polygon points="76,40 95,40 100,35 95,30 76,30 76,40 " style="fill:white; stroke-width:1; stroke:black; " description="&lt;b&gt;LLPMBPKK_05374&lt;/b&gt;&lt;br&gt;amino acid permease&lt;br&gt;Location: 6121100 - 6122573" locus_tag="LLPMBPKK_05374" class="clusterblast-orf" id="dummy-20_q1_0_all"  />
<polygon points="106,40 109,35 106,30 106,40 " style="fill:white; stroke-width:1; stroke:black; " description="&lt;b&gt;LLPMBPKK_05375&lt;/b&gt;&lt;br&gt;hypothetical protein&lt;br&gt;Location: 6122987 - 6123137" locus_tag="LLPMBPKK_05375" class="clusterblast-orf" id="dummy-20_q2_0_all"  />
<polygon points="112,40 113,40 118,35 113,30 112,30 112,40 " style="fill:white; stroke-width:1; stroke:black; " description="&lt;b&gt;LLPMBPKK_05376&lt;/b&gt;&lt;br&gt;hypothetical protein&lt;br&gt;Location: 6123339 - 6123723" locus_tag="LLPMBPKK_05376" class="clusterblast-orf" id="dummy-20_q3_0_all"  />
<polygon points="120,40 134,40 139,35 134,30 120,30 120,40 " style="fill:white; stroke-width:1; stroke:black; " description="&lt;b&gt;LLPMBPKK_05377&lt;/b&gt;&lt;br&gt;cytochrome P450&lt;br&gt;Location: 6123827 - 6125027" locus_tag="LLPMBPKK_05377" class="clusterblast-orf" id="dummy-20_q4_0_all"  />
<polygon points="143,40 163,40 168,35 163,30 143,30 143,40 " style="fill:white; stroke-width:1; stroke:black; " description="&lt;b&gt;LLPMBPKK_05378&lt;/b&gt;&lt;br&gt;solute-binding transport lipoprotein&lt;br&gt;Location: 6125331 - 6126897" locus_tag="LLPMBPKK_05378" class="clusterblast-orf" id="dummy-20_q5_0_all"  />
<polygon points="169,35 174,30 215,30 215,40 174,40 169,35 " style="fill:#d81515; stroke-width:1; stroke:black; " description="&lt;b&gt;LLPMBPKK_05379&lt;/b&gt;&lt;br&gt;non-ribosomal peptide synthetase&lt;br&gt;Location: 6126958 - 6129811" locus_tag="LLPMBPKK_05379" class="clusterblast-orf" id="dummy-20_q6_0_all"  />
<polygon points="219,40 276,40 281,35 276,30 219,30 219,40 " style="fill:#4dd815; stroke-width:1; stroke:black; " description="&lt;b&gt;LLPMBPKK_05380&lt;/b&gt;&lt;br&gt;non-ribosomal peptide synthetase&lt;br&gt;Location: 6130070 - 6134009" locus_tag="LLPMBPKK_05380" class="clusterblast-orf" id="dummy-20_q7_0_all"  />
<polygon points="284,40 434,40 439,35 434,30 284,30 284,40 " style="fill:#1585d8; stroke-width:1; stroke:black; " description="&lt;b&gt;LLPMBPKK_05381&lt;/b&gt;&lt;br&gt;non-ribosomal peptide synthetase/polyketidesynthase&lt;br&gt;Location: 6134151 - 6143928" locus_tag="LLPMBPKK_05381" class="clusterblast-orf" id="dummy-20_q8_0_all"  />
<polygon points="439,40 452,40 457,35 452,30 439,30 439,40 " style="fill:#d815bc; stroke-width:1; stroke:black; " description="&lt;b&gt;LLPMBPKK_05382&lt;/b&gt;&lt;br&gt;GSCFA family protein&lt;br&gt;Location: 6143938 - 6145072" locus_tag="LLPMBPKK_05382" class="clusterblast-orf" id="dummy-20_q9_0_all"  />
<polygon points="457,40 464,40 469,35 464,30 457,30 457,40 " style="fill:#d8bc15; stroke-width:1; stroke:black; " description="&lt;b&gt;LLPMBPKK_05383&lt;/b&gt;&lt;br&gt;hypothetical protein&lt;br&gt;Location: 6145037 - 6145817" locus_tag="LLPMBPKK_05383" class="clusterblast-orf" id="dummy-20_q10_0_all"  />
<polygon points="470,40 479,40 484,35 479,30 470,30 470,40 " style="fill:#15d885; stroke-width:1; stroke:black; " description="&lt;b&gt;LLPMBPKK_05384&lt;/b&gt;&lt;br&gt;taurine dioxygenase&lt;br&gt;Location: 6145894 - 6146770" locus_tag="LLPMBPKK_05384" class="clusterblast-orf" id="dummy-20_q11_0_all"  />
<polygon points="484,35 489,30 498,30 498,40 489,40 484,35 " style="fill:#4d15d8; stroke-width:1; stroke:black; " description="&lt;b&gt;LLPMBPKK_05385&lt;/b&gt;&lt;br&gt;hypothetical protein&lt;br&gt;Location: 6146782 - 6147661" locus_tag="LLPMBPKK_05385" class="clusterblast-orf" id="dummy-20_q12_0_all"  />
<polygon points="501,40 522,40 527,35 522,30 501,30 501,40 " style="fill:white; stroke-width:1; stroke:black; " description="&lt;b&gt;LLPMBPKK_05386&lt;/b&gt;&lt;br&gt;hypothetical protein&lt;br&gt;Location: 6147847 - 6149494" locus_tag="LLPMBPKK_05386" class="clusterblast-orf" id="dummy-20_q13_0_all"  />
<polygon points="531,40 573,40 578,35 573,30 531,30 531,40 " style="fill:white; stroke-width:1; stroke:black; " description="&lt;b&gt;LLPMBPKK_05387&lt;/b&gt;&lt;br&gt;Alginate lyase&lt;br&gt;Location: 6149718 - 6152715" locus_tag="LLPMBPKK_05387" class="clusterblast-orf" id="dummy-20_q14_0_all"  />
<polygon points="580,35 585,30 613,30 613,40 585,40 580,35 " style="fill:white; stroke-width:1; stroke:black; " description="&lt;b&gt;LLPMBPKK_05388&lt;/b&gt;&lt;br&gt;Lytic transglycosylase&lt;br&gt;Location: 6152790 - 6154881" locus_tag="LLPMBPKK_05388" class="clusterblast-orf" id="dummy-20_q15_0_all"  />
<polygon points="619,40 657,40 662,35 657,30 619,30 619,40 " style="fill:white; stroke-width:1; stroke:black; " description="&lt;b&gt;LLPMBPKK_05389&lt;/b&gt;&lt;br&gt;hypothetical protein&lt;br&gt;Location: 6155246 - 6157967" locus_tag="LLPMBPKK_05389" class="clusterblast-orf" id="dummy-20_q16_0_all"  />
<polygon points="680,40 680,40 685,35 680,30 680,30 680,40 " style="fill:white; stroke-width:1; stroke:black; " description="&lt;b&gt;LLPMBPKK_05390&lt;/b&gt;&lt;br&gt;D-mannose binding lectin&lt;br&gt;Location: 6159084 - 6159405" locus_tag="LLPMBPKK_05390" class="clusterblast-orf" id="dummy-20_q17_0_all"  />
<polygon points="684,35 689,30 722,30 722,40 689,40 684,35 " style="fill:white; stroke-width:1; stroke:black; " description="&lt;b&gt;LLPMBPKK_05391&lt;/b&gt;&lt;br&gt;hypothetical protein&lt;br&gt;Location: 6159385 - 6161743" locus_tag="LLPMBPKK_05391" class="clusterblast-orf" id="dummy-20_q18_0_all"  />
</g>
<g label="BGC0001641" description="BGC0001641_c1: kolossin (100% of genes show similarity), NRP" class="clusterblast-cluster"  >
<text x="5" y="70" class="clusterblast-acc"  >
<a xlink:href="https://mibig.secondarymetabolites.org/go/BGC0001641/1" target="_blank">BGC0001641</a>:                                                                         kolossin (100% of genes show similarity), NRP</text>
<line x1="10" y1="85" x2="778.0" y2="85" style="stroke-width:1; stroke:grey; "  />
</g>
<g id="a20_000"  >
<polygon points="0,90 775,90 780,85 775,80 0,80 0,90 " style="fill:#4dd815; stroke-width:1; stroke:black; " description="&lt;b&gt;PLU_RS13235&lt;/b&gt;&lt;br&gt;non-ribosomal peptide synthetase&lt;br&gt;Location: 49104 - 1&lt;br&gt;&lt;br&gt;&lt;b&gt;BlastP hit with LLPMBPKK_05380&lt;/b&gt;&lt;br&gt;Percentage identity: 49&lt;br&gt;Percentage coverage: 81&lt;br&gt;BLAST bit score: 860&lt;br&gt;E-value: 1.6e-271" locus_tag="PLU_RS13235" class="clusterblast-orf" id="dummy-20_h20_7_0"  />
</g>
</svg>
