<svg xmlns="http://www.w3.org/2000/svg" xmlns:xlink="http://www.w3.org/1999/xlink" version="1.1" x="0" y="0" height="230" width="800" viewBox="0 0 800 230" preserveAspectRatio="none"  >
<g label="Query sequence" class="clusterblast-cluster"  >
<text x="5" y="20" class="clusterblast-acc"  >
Query sequence</text>
<line x1="10" y1="35" x2="778.0" y2="35" style="stroke-width:1; stroke:grey; "  />
<polygon points="0,40 10,40 15,35 10,30 0,30 0,40 " style="fill:white; stroke-width:1; stroke:black; " description="&lt;b&gt;LLPMBPKK_05373&lt;/b&gt;&lt;br&gt;hypothetical protein&lt;br&gt;Location: 6119913 - 6120729" locus_tag="LLPMBPKK_05373" class="clusterblast-orf" id="dummy-20_q0_0_all"  />
<polygon points="22,40 44,40 49,35 44,30 22,30 22,40 " style="fill:white; stroke-width:1; stroke:black; " description="&lt;b&gt;LLPMBPKK_05374&lt;/b&gt;&lt;br&gt;amino acid permease&lt;br&gt;Location: 6121100 - 6122573" locus_tag="LLPMBPKK_05374" class="clusterblast-orf" id="dummy-20_q1_0_all"  />
<polygon points="57,40 60,35 57,30 57,40 " style="fill:white; stroke-width:1; stroke:black; " description="&lt;b&gt;LLPMBPKK_05375&lt;/b&gt;&lt;br&gt;hypothetical protein&lt;br&gt;Location: 6122987 - 6123137" locus_tag="LLPMBPKK_05375" class="clusterblast-orf" id="dummy-20_q2_0_all"  />
<polygon points="64,40 66,40 71,35 66,30 64,30 64,40 " style="fill:white; stroke-width:1; stroke:black; " description="&lt;b&gt;LLPMBPKK_05376&lt;/b&gt;&lt;br&gt;hypothetical protein&lt;br&gt;Location: 6123339 - 6123723" locus_tag="LLPMBPKK_05376" class="clusterblast-orf" id="dummy-20_q3_0_all"  />
<polygon points="73,40 90,40 95,35 90,30 73,30 73,40 " style="fill:white; stroke-width:1; stroke:black; " description="&lt;b&gt;LLPMBPKK_05377&lt;/b&gt;&lt;br&gt;cytochrome P450&lt;br&gt;Location: 6123827 - 6125027" locus_tag="LLPMBPKK_05377" class="clusterblast-orf" id="dummy-20_q4_0_all"  />
<polygon points="101,40 125,40 130,35 125,30 101,30 101,40 " style="fill:white; stroke-width:1; stroke:black; " description="&lt;b&gt;LLPMBPKK_05378&lt;/b&gt;&lt;br&gt;solute-binding transport lipoprotein&lt;br&gt;Location: 6125331 - 6126897" locus_tag="LLPMBPKK_05378" class="clusterblast-orf" id="dummy-20_q5_0_all"  />
<polygon points="131,35 136,30 184,30 184,40 136,40 131,35 " style="fill:#d81515; stroke-width:1; stroke:black; " description="&lt;b&gt;LLPMBPKK_05379&lt;/b&gt;&lt;br&gt;non-ribosomal peptide synthetase&lt;br&gt;Location: 6126958 - 6129811" locus_tag="LLPMBPKK_05379" class="clusterblast-orf" id="dummy-20_q6_0_all"  />
<polygon points="189,40 258,40 263,35 258,30 189,30 189,40 " style="fill:#4dd815; stroke-width:1; stroke:black; " description="&lt;b&gt;LLPMBPKK_05380&lt;/b&gt;&lt;br&gt;non-ribosomal peptide synthetase&lt;br&gt;Location: 6130070 - 6134009" locus_tag="LLPMBPKK_05380" class="clusterblast-orf" id="dummy-20_q7_0_all"  />
<polygon points="265,40 442,40 447,35 442,30 265,30 265,40 " style="fill:#1585d8; stroke-width:1; stroke:black; " description="&lt;b&gt;LLPMBPKK_05381&lt;/b&gt;&lt;br&gt;non-ribosomal peptide synthetase/polyketidesynthase&lt;br&gt;Location: 6134151 - 6143928" locus_tag="LLPMBPKK_05381" class="clusterblast-orf" id="dummy-20_q8_0_all"  />
<polygon points="448,40 464,40 469,35 464,30 448,30 448,40 " style="fill:#d815bc; stroke-width:1; stroke:black; " description="&lt;b&gt;LLPMBPKK_05382&lt;/b&gt;&lt;br&gt;GSCFA family protein&lt;br&gt;Location: 6143938 - 6145072" locus_tag="LLPMBPKK_05382" class="clusterblast-orf" id="dummy-20_q9_0_all"  />
<polygon points="468,40 478,40 483,35 478,30 468,30 468,40 " style="fill:#d8bc15; stroke-width:1; stroke:black; " description="&lt;b&gt;LLPMBPKK_05383&lt;/b&gt;&lt;br&gt;hypothetical protein&lt;br&gt;Location: 6145037 - 6145817" locus_tag="LLPMBPKK_05383" class="clusterblast-orf" id="dummy-20_q10_0_all"  />
<polygon points="484,40 495,40 500,35 495,30 484,30 484,40 " style="fill:#15d885; stroke-width:1; stroke:black; " description="&lt;b&gt;LLPMBPKK_05384&lt;/b&gt;&lt;br&gt;taurine dioxygenase&lt;br&gt;Location: 6145894 - 6146770" locus_tag="LLPMBPKK_05384" class="clusterblast-orf" id="dummy-20_q11_0_all"  />
<polygon points="501,35 506,30 517,30 517,40 506,40 501,35 " style="fill:#4d15d8; stroke-width:1; stroke:black; " description="&lt;b&gt;LLPMBPKK_05385&lt;/b&gt;&lt;br&gt;hypothetical protein&lt;br&gt;Location: 6146782 - 6147661" locus_tag="LLPMBPKK_05385" class="clusterblast-orf" id="dummy-20_q12_0_all"  />
<polygon points="521,40 546,40 551,35 546,30 521,30 521,40 " style="fill:white; stroke-width:1; stroke:black; " description="&lt;b&gt;LLPMBPKK_05386&lt;/b&gt;&lt;br&gt;hypothetical protein&lt;br&gt;Location: 6147847 - 6149494" locus_tag="LLPMBPKK_05386" class="clusterblast-orf" id="dummy-20_q13_0_all"  />
<polygon points="555,40 606,40 611,35 606,30 555,30 555,40 " style="fill:white; stroke-width:1; stroke:black; " description="&lt;b&gt;LLPMBPKK_05387&lt;/b&gt;&lt;br&gt;Alginate lyase&lt;br&gt;Location: 6149718 - 6152715" locus_tag="LLPMBPKK_05387" class="clusterblast-orf" id="dummy-20_q14_0_all"  />
<polygon points="613,35 618,30 652,30 652,40 618,40 613,35 " style="fill:white; stroke-width:1; stroke:black; " description="&lt;b&gt;LLPMBPKK_05388&lt;/b&gt;&lt;br&gt;Lytic transglycosylase&lt;br&gt;Location: 6152790 - 6154881" locus_tag="LLPMBPKK_05388" class="clusterblast-orf" id="dummy-20_q15_0_all"  />
<polygon points="659,40 704,40 709,35 704,30 659,30 659,40 " style="fill:white; stroke-width:1; stroke:black; " description="&lt;b&gt;LLPMBPKK_05389&lt;/b&gt;&lt;br&gt;hypothetical protein&lt;br&gt;Location: 6155246 - 6157967" locus_tag="LLPMBPKK_05389" class="clusterblast-orf" id="dummy-20_q16_0_all"  />
<polygon points="730,40 731,40 736,35 731,30 730,30 730,40 " style="fill:white; stroke-width:1; stroke:black; " description="&lt;b&gt;LLPMBPKK_05390&lt;/b&gt;&lt;br&gt;D-mannose binding lectin&lt;br&gt;Location: 6159084 - 6159405" locus_tag="LLPMBPKK_05390" class="clusterblast-orf" id="dummy-20_q17_0_all"  />
<polygon points="736,35 741,30 780,30 780,40 741,40 736,35 " style="fill:white; stroke-width:1; stroke:black; " description="&lt;b&gt;LLPMBPKK_05391&lt;/b&gt;&lt;br&gt;hypothetical protein&lt;br&gt;Location: 6159385 - 6161743" locus_tag="LLPMBPKK_05391" class="clusterblast-orf" id="dummy-20_q18_0_all"  />
</g>
<g label="BGC0000715" description="BGC0000715_c1: actinospectacin (11% of genes show similarity), Saccharide" class="clusterblast-cluster"  >
<text x="5" y="70" class="clusterblast-acc"  >
<a xlink:href="https://mibig.secondarymetabolites.org/go/BGC0000715/1" target="_blank">BGC0000715</a>:                                                                  actinospectacin (11% of genes show similarity), Saccharide</text>
<line x1="10" y1="85" x2="778.0" y2="85" style="stroke-width:1; stroke:grey; "  />
</g>
<g id="a20_000"  >
<polygon points="222,90 231,90 236,85 231,80 222,80 222,90 " style="fill:#15d885; stroke-width:1; stroke:black; " description="&lt;b&gt;ABW87795.1&lt;/b&gt;&lt;br&gt;unknown&lt;br&gt;Location: 1 - 744&lt;br&gt;&lt;br&gt;&lt;b&gt;BlastP hit with LLPMBPKK_05384&lt;/b&gt;&lt;br&gt;Percentage identity: 65&lt;br&gt;Percentage coverage: 85&lt;br&gt;BLAST bit score: 341&lt;br&gt;E-value: 8.02e-119" locus_tag="ABW87795.1" class="clusterblast-orf" id="dummy-20_h20_10_0"  />
</g>
<g id="a20_001"  >
<polygon points="237,85 242,80 252,80 252,90 242,90 237,85 " style="fill:#4d15d8; stroke-width:1; stroke:black; " description="&lt;b&gt;ABW87796.1&lt;/b&gt;&lt;br&gt;SpcZ&lt;br&gt;Location: 803 - 1606&lt;br&gt;&lt;br&gt;&lt;b&gt;BlastP hit with LLPMBPKK_05385&lt;/b&gt;&lt;br&gt;Percentage identity: 52&lt;br&gt;Percentage coverage: 78&lt;br&gt;BLAST bit score: 121&lt;br&gt;E-value: 1.85e-32" locus_tag="ABW87796.1" class="clusterblast-orf" id="dummy-20_h20_10_1"  />
</g>
<g id="a20_002"  >
<polygon points="253,85 258,80 272,80 272,90 258,90 253,85 " style="fill:white; stroke-width:1; stroke:black; " description="&lt;b&gt;ABW87797.1&lt;/b&gt;&lt;br&gt;SpcN&lt;br&gt;Location: 1685 - 2683" locus_tag="ABW87797.1" class="clusterblast-orf" id="dummy-20_h20_10_2"  />
</g>
<g id="a20_003"  >
<polygon points="272,85 277,80 296,80 296,90 277,90 272,85 " style="fill:white; stroke-width:1; stroke:black; " description="&lt;b&gt;ABW87798.1&lt;/b&gt;&lt;br&gt;SpcT&lt;br&gt;Location: 2693 - 3985" locus_tag="ABW87798.1" class="clusterblast-orf" id="dummy-20_h20_10_3"  />
</g>
<g id="a20_004"  >
<polygon points="296,85 301,80 311,80 311,90 301,90 296,85 " style="fill:white; stroke-width:1; stroke:black; " description="&lt;b&gt;ABW87799.1&lt;/b&gt;&lt;br&gt;SpcA&lt;br&gt;Location: 3990 - 4784" locus_tag="ABW87799.1" class="clusterblast-orf" id="dummy-20_h20_10_4"  />
</g>
<g id="a20_005"  >
<polygon points="318,90 334,90 339,85 334,80 318,80 318,90 " style="fill:white; stroke-width:1; stroke:black; " description="&lt;b&gt;ABW87800.1&lt;/b&gt;&lt;br&gt;SpcB&lt;br&gt;Location: 5159 - 6283" locus_tag="ABW87800.1" class="clusterblast-orf" id="dummy-20_h20_10_5"  />
</g>
<g id="a20_006"  >
<polygon points="341,90 361,90 366,85 361,80 341,80 341,90 " style="fill:white; stroke-width:1; stroke:black; " description="&lt;b&gt;ABW87801.1&lt;/b&gt;&lt;br&gt;SpcS1&lt;br&gt;Location: 6389 - 7717" locus_tag="ABW87801.1" class="clusterblast-orf" id="dummy-20_h20_10_6"  />
</g>
<g id="a20_007"  >
<polygon points="366,90 376,90 381,85 376,80 366,80 366,90 " style="fill:white; stroke-width:1; stroke:black; " description="&lt;b&gt;ABW87802.1&lt;/b&gt;&lt;br&gt;SpeD&lt;br&gt;Location: 7759 - 8559" locus_tag="ABW87802.1" class="clusterblast-orf" id="dummy-20_h20_10_7"  />
</g>
<g id="a20_008"  >
<polygon points="382,90 399,90 404,85 399,80 382,80 382,90 " style="fill:white; stroke-width:1; stroke:black; " description="&lt;b&gt;ABW87803.1&lt;/b&gt;&lt;br&gt;SpeX&lt;br&gt;Location: 8571 - 9761" locus_tag="ABW87803.1" class="clusterblast-orf" id="dummy-20_h20_10_8"  />
</g>
<g id="a20_009"  >
<polygon points="405,90 425,90 430,85 425,80 405,80 405,90 " style="fill:white; stroke-width:1; stroke:black; " description="&lt;b&gt;ABW87804.1&lt;/b&gt;&lt;br&gt;SpcS2&lt;br&gt;Location: 9828 - 11147" locus_tag="ABW87804.1" class="clusterblast-orf" id="dummy-20_h20_10_9"  />
</g>
<g id="a20_0010"  >
<polygon points="430,90 442,90 447,85 442,80 430,80 430,90 " style="fill:white; stroke-width:1; stroke:black; " description="&lt;b&gt;ABW87805.1&lt;/b&gt;&lt;br&gt;SpeY&lt;br&gt;Location: 11144 - 12052" locus_tag="ABW87805.1" class="clusterblast-orf" id="dummy-20_h20_10_10"  />
</g>
<g id="a20_0011"  >
<polygon points="447,90 458,90 463,85 458,80 447,80 447,90 " style="fill:white; stroke-width:1; stroke:black; " description="&lt;b&gt;ABW87806.1&lt;/b&gt;&lt;br&gt;SpcG&lt;br&gt;Location: 12054 - 12935" locus_tag="ABW87806.1" class="clusterblast-orf" id="dummy-20_h20_10_11"  />
</g>
<g id="a20_0012"  >
<polygon points="463,90 473,90 478,85 473,80 463,80 463,90 " style="fill:white; stroke-width:1; stroke:black; " description="&lt;b&gt;ABW87807.1&lt;/b&gt;&lt;br&gt;SpcM&lt;br&gt;Location: 12932 - 13735" locus_tag="ABW87807.1" class="clusterblast-orf" id="dummy-20_h20_10_12"  />
</g>
<g id="a20_0013"  >
<polygon points="479,85 484,80 498,80 498,90 484,90 479,85 " style="fill:white; stroke-width:1; stroke:black; " description="&lt;b&gt;ABW87808.1&lt;/b&gt;&lt;br&gt;SpeH&lt;br&gt;Location: 13801 - 14838" locus_tag="ABW87808.1" class="clusterblast-orf" id="dummy-20_h20_10_13"  />
</g>
<g id="a20_0014"  >
<polygon points="503,90 515,90 520,85 515,80 503,80 503,90 " style="fill:white; stroke-width:1; stroke:black; " description="&lt;b&gt;ABW87809.1&lt;/b&gt;&lt;br&gt;SpeI&lt;br&gt;Location: 15059 - 15988" locus_tag="ABW87809.1" class="clusterblast-orf" id="dummy-20_h20_10_14"  />
</g>
<g id="a20_0015"  >
<polygon points="520,85 525,80 539,80 539,90 525,90 520,85 " style="fill:white; stroke-width:1; stroke:black; " description="&lt;b&gt;ABW87810.1&lt;/b&gt;&lt;br&gt;SpcE&lt;br&gt;Location: 16018 - 17010" locus_tag="ABW87810.1" class="clusterblast-orf" id="dummy-20_h20_10_15"  />
</g>
<g id="a20_0016"  >
<polygon points="541,90 552,90 557,85 552,80 541,80 541,90 " style="fill:white; stroke-width:1; stroke:black; " description="&lt;b&gt;ABW87811.1&lt;/b&gt;&lt;br&gt;SpcD&lt;br&gt;Location: 17109 - 17984" locus_tag="ABW87811.1" class="clusterblast-orf" id="dummy-20_h20_10_16"  />
</g>
</svg>
