<svg xmlns="http://www.w3.org/2000/svg" xmlns:xlink="http://www.w3.org/1999/xlink" version="1.1" x="0" y="0" height="230" width="800" viewBox="0 0 800 230" preserveAspectRatio="none"  >
<g label="Query sequence" class="clusterblast-cluster"  >
<text x="5" y="20" class="clusterblast-acc"  >
Query sequence</text>
<line x1="10" y1="35" x2="778.0" y2="35" style="stroke-width:1; stroke:grey; "  />
<polygon points="0,40 58,40 63,35 58,30 0,30 0,40 " style="fill:#d81515; stroke-width:1; stroke:black; " description="&lt;b&gt;LLPMBPKK_03166&lt;/b&gt;&lt;br&gt;siderophore-interacting protein&lt;br&gt;Location: 3676866 - 3677721" locus_tag="LLPMBPKK_03166" class="clusterblast-orf" id="dummy-16_q0_0_all"  />
<polygon points="72,40 174,40 179,35 174,30 72,30 72,40 " style="fill:#15d863; stroke-width:1; stroke:black; " description="&lt;b&gt;LLPMBPKK_03167&lt;/b&gt;&lt;br&gt;lysine decarboxylase DesA&lt;br&gt;Location: 3677843 - 3679310" locus_tag="LLPMBPKK_03167" class="clusterblast-orf" id="dummy-16_q1_0_all"  />
<polygon points="178,40 267,40 272,35 267,30 178,30 178,40 " style="fill:#1563d8; stroke-width:1; stroke:black; " description="&lt;b&gt;LLPMBPKK_03168&lt;/b&gt;&lt;br&gt;alcaligin biosynthesis protein&lt;br&gt;Location: 3679293 - 3680571" locus_tag="LLPMBPKK_03168" class="clusterblast-orf" id="dummy-16_q2_0_all"  />
<polygon points="271,40 305,40 310,35 305,30 271,30 271,40 " style="fill:#b115d8; stroke-width:1; stroke:black; " description="&lt;b&gt;LLPMBPKK_03169&lt;/b&gt;&lt;br&gt;N-acetyltransferase&lt;br&gt;Location: 3680567 - 3681095" locus_tag="LLPMBPKK_03169" class="clusterblast-orf" id="dummy-16_q3_0_all"  />
<polygon points="310,40 435,40 440,35 435,30 310,30 310,40 " style="fill:#b1d815; stroke-width:1; stroke:black; " description="&lt;b&gt;LLPMBPKK_03170&lt;/b&gt;&lt;br&gt;desferrioxamine E synthetase monomer&lt;br&gt;Location: 3681091 - 3682864" locus_tag="LLPMBPKK_03170" class="clusterblast-orf" id="dummy-16_q4_0_all"  />
<polygon points="445,35 450,30 562,30 562,40 450,40 445,35 " style="fill:white; stroke-width:1; stroke:black; " description="&lt;b&gt;LLPMBPKK_03171&lt;/b&gt;&lt;br&gt;beta-N-acetylhexosaminidase&lt;br&gt;Location: 3682928 - 3684527" locus_tag="LLPMBPKK_03171" class="clusterblast-orf" id="dummy-16_q5_0_all"  />
<polygon points="569,40 628,40 633,35 628,30 569,30 569,40 " style="fill:white; stroke-width:1; stroke:black; " description="&lt;b&gt;LLPMBPKK_03172&lt;/b&gt;&lt;br&gt;hypothetical protein&lt;br&gt;Location: 3684625 - 3685498" locus_tag="LLPMBPKK_03172" class="clusterblast-orf" id="dummy-16_q6_0_all"  />
<polygon points="634,35 639,30 749,30 749,40 639,40 634,35 " style="fill:white; stroke-width:1; stroke:black; " description="&lt;b&gt;LLPMBPKK_03173&lt;/b&gt;&lt;br&gt;metallophosphoesterase family protein&lt;br&gt;Location: 3685520 - 3687086" locus_tag="LLPMBPKK_03173" class="clusterblast-orf" id="dummy-16_q7_0_all"  />
<polygon points="761,40 775,40 780,35 775,30 761,30 761,40 " style="fill:white; stroke-width:1; stroke:black; " description="&lt;b&gt;LLPMBPKK_03174&lt;/b&gt;&lt;br&gt;hypothetical protein&lt;br&gt;Location: 3687251 - 3687509" locus_tag="LLPMBPKK_03174" class="clusterblast-orf" id="dummy-16_q8_0_all"  />
</g>
<g label="BGC0002620" description="BGC0002620_c1: fulvivirgamide A2/fulvivirgamide B2/fulvivirgamide B3/fulvivir... (50% of genes show similarity), Other" class="clusterblast-cluster"  >
<text x="5" y="70" class="clusterblast-acc"  >
<a xlink:href="https://mibig.secondarymetabolites.org/go/BGC0002620/1" target="_blank">BGC0002620</a>:          fulvivirgamide A2/fulvivirgamide B2/fulvivirgamide B3/fulvivirgamide B4 (50% of genes show similarity), Other</text>
<line x1="10" y1="85" x2="778.0" y2="85" style="stroke-width:1; stroke:grey; "  />
</g>
<g id="a16_000"  >
<polygon points="104,90 212,90 217,85 212,80 104,80 104,90 " style="fill:#15d863; stroke-width:1; stroke:black; " description="&lt;b&gt;QHG11726.1&lt;/b&gt;&lt;br&gt;putative pyridoxal-dependent decarboxylase&lt;br&gt;Location: 1 - 1539&lt;br&gt;&lt;br&gt;&lt;b&gt;BlastP hit with LLPMBPKK_03167&lt;/b&gt;&lt;br&gt;Percentage identity: 49&lt;br&gt;Percentage coverage: 97&lt;br&gt;BLAST bit score: 454&lt;br&gt;E-value: 3.39e-156" locus_tag="QHG11726.1" class="clusterblast-orf" id="dummy-16_h16_9_0"  />
</g>
<g id="a16_001"  >
<polygon points="217,90 310,90 315,85 310,80 217,80 217,90 " style="fill:#1563d8; stroke-width:1; stroke:black; " description="&lt;b&gt;QHG11727.1&lt;/b&gt;&lt;br&gt;putative monooxygenase&lt;br&gt;Location: 1542 - 2882&lt;br&gt;&lt;br&gt;&lt;b&gt;BlastP hit with LLPMBPKK_03168&lt;/b&gt;&lt;br&gt;Percentage identity: 55&lt;br&gt;Percentage coverage: 100&lt;br&gt;BLAST bit score: 491&lt;br&gt;E-value: 7.44e-173" locus_tag="QHG11727.1" class="clusterblast-orf" id="dummy-16_h16_9_1"  />
</g>
<g id="a16_002"  >
<polygon points="315,90 396,90 401,85 396,80 315,80 315,90 " style="fill:white; stroke-width:1; stroke:black; " description="&lt;b&gt;QHG11728.1&lt;/b&gt;&lt;br&gt;putative major facilitator superfamily permease&lt;br&gt;Location: 2879 - 4054" locus_tag="QHG11728.1" class="clusterblast-orf" id="dummy-16_h16_9_2"  />
</g>
<g id="a16_003"  >
<polygon points="402,90 441,90 446,85 441,80 402,80 402,90 " style="fill:white; stroke-width:1; stroke:black; " description="&lt;b&gt;QHG11729.1&lt;/b&gt;&lt;br&gt;putative acyl CoA acyltransferase&lt;br&gt;Location: 4071 - 4670" locus_tag="QHG11729.1" class="clusterblast-orf" id="dummy-16_h16_9_3"  />
</g>
<g id="a16_004"  >
<polygon points="447,90 576,90 581,85 576,80 447,80 447,90 " style="fill:#b1d815; stroke-width:1; stroke:black; " description="&lt;b&gt;QHG11730.1&lt;/b&gt;&lt;br&gt;putative ATP-dependent siderophore synthetase&lt;br&gt;Location: 4690 - 6510&lt;br&gt;&lt;br&gt;&lt;b&gt;BlastP hit with LLPMBPKK_03170&lt;/b&gt;&lt;br&gt;Percentage identity: 52&lt;br&gt;Percentage coverage: 100&lt;br&gt;BLAST bit score: 646&lt;br&gt;E-value: 9.53e-229" locus_tag="QHG11730.1" class="clusterblast-orf" id="dummy-16_h16_9_4"  />
</g>
<g id="a16_005"  >
<polygon points="584,90 670,90 675,85 670,80 584,80 584,90 " style="fill:white; stroke-width:1; stroke:black; " description="&lt;b&gt;QHG11731.1&lt;/b&gt;&lt;br&gt;acyl transferase&lt;br&gt;Location: 6556 - 7797" locus_tag="QHG11731.1" class="clusterblast-orf" id="dummy-16_h16_9_5"  />
</g>
</svg>
