<svg xmlns="http://www.w3.org/2000/svg" xmlns:xlink="http://www.w3.org/1999/xlink" version="1.1" x="0" y="0" height="230" width="800" viewBox="0 0 800 230" preserveAspectRatio="none"  >
<g label="Query sequence" class="clusterblast-cluster"  >
<text x="5" y="20" class="clusterblast-acc"  >
Query sequence</text>
<line x1="10" y1="35" x2="778.0" y2="35" style="stroke-width:1; stroke:grey; "  />
<polygon points="0,40 3,40 8,35 3,30 0,30 0,40 " style="fill:white; stroke-width:1; stroke:black; " description="&lt;b&gt;LLPMBPKK_06896&lt;/b&gt;&lt;br&gt;oxidoreductase&lt;br&gt;Location: 7938673 - 7939900" locus_tag="LLPMBPKK_06896" class="clusterblast-orf" id="dummy-30_q0_0_all"  />
<polygon points="9,35 14,30 14,30 14,40 14,40 9,35 " style="fill:white; stroke-width:1; stroke:black; " description="&lt;b&gt;LLPMBPKK_06897&lt;/b&gt;&lt;br&gt;crotonase/enoyl-CoA hydratase family protein&lt;br&gt;Location: 7939930 - 7940695" locus_tag="LLPMBPKK_06897" class="clusterblast-orf" id="dummy-30_q1_0_all"  />
<polygon points="14,35 19,30 21,30 21,40 19,40 14,35 " style="fill:white; stroke-width:1; stroke:black; " description="&lt;b&gt;LLPMBPKK_06898&lt;/b&gt;&lt;br&gt;flippase-like domain-containing protein&lt;br&gt;Location: 7940739 - 7941705" locus_tag="LLPMBPKK_06898" class="clusterblast-orf" id="dummy-30_q2_0_all"  />
<polygon points="22,40 30,40 35,35 30,30 22,30 22,40 " style="fill:white; stroke-width:1; stroke:black; " description="&lt;b&gt;LLPMBPKK_06899&lt;/b&gt;&lt;br&gt;ABC transporter ATP-binding protein&lt;br&gt;Location: 7941795 - 7943691" locus_tag="LLPMBPKK_06899" class="clusterblast-orf" id="dummy-30_q3_0_all"  />
<polygon points="36,35 41,30 52,30 52,40 41,40 36,35 " style="fill:white; stroke-width:1; stroke:black; " description="&lt;b&gt;LLPMBPKK_06900&lt;/b&gt;&lt;br&gt;HEAT repeats&lt;br&gt;Location: 7943772 - 7945989" locus_tag="LLPMBPKK_06900" class="clusterblast-orf" id="dummy-30_q4_0_all"  />
<polygon points="53,40 55,35 53,30 53,40 " style="fill:white; stroke-width:1; stroke:black; " description="&lt;b&gt;LLPMBPKK_06901&lt;/b&gt;&lt;br&gt;hypothetical protein&lt;br&gt;Location: 7946220 - 7946388" locus_tag="LLPMBPKK_06901" class="clusterblast-orf" id="dummy-30_q5_0_all"  />
<polygon points="55,40 59,35 55,30 55,40 " style="fill:white; stroke-width:1; stroke:black; " description="&lt;b&gt;LLPMBPKK_06902&lt;/b&gt;&lt;br&gt;2Fe-2S iron-sulfur cluster bindingdomain-containing protein&lt;br&gt;Location: 7946482 - 7947019" locus_tag="LLPMBPKK_06902" class="clusterblast-orf" id="dummy-30_q6_0_all"  />
<polygon points="59,40 62,40 67,35 62,30 59,30 59,40 " style="fill:white; stroke-width:1; stroke:black; " description="&lt;b&gt;LLPMBPKK_06903&lt;/b&gt;&lt;br&gt;FAD binding domain in molybdopterindehydrogenase&lt;br&gt;Location: 7947019 - 7948141" locus_tag="LLPMBPKK_06903" class="clusterblast-orf" id="dummy-30_q7_0_all"  />
<polygon points="67,40 77,40 82,35 77,30 67,30 67,40 " style="fill:white; stroke-width:1; stroke:black; " description="&lt;b&gt;LLPMBPKK_06904&lt;/b&gt;&lt;br&gt;xanthine dehydrogenase family protein molybdopterin-binding subunit&lt;br&gt;Location: 7948137 - 7950219" locus_tag="LLPMBPKK_06904" class="clusterblast-orf" id="dummy-30_q8_0_all"  />
<polygon points="82,40 94,40 99,35 94,30 82,30 82,40 " style="fill:white; stroke-width:1; stroke:black; " description="&lt;b&gt;LLPMBPKK_06905&lt;/b&gt;&lt;br&gt;glycoside hydrolase family 65 protein&lt;br&gt;Location: 7950221 - 7952591" locus_tag="LLPMBPKK_06905" class="clusterblast-orf" id="dummy-30_q9_0_all"  />
<polygon points="100,40 101,40 106,35 101,30 100,30 100,40 " style="fill:white; stroke-width:1; stroke:black; " description="&lt;b&gt;LLPMBPKK_06906&lt;/b&gt;&lt;br&gt;response regulator transcription factor&lt;br&gt;Location: 7952728 - 7953538" locus_tag="LLPMBPKK_06906" class="clusterblast-orf" id="dummy-30_q10_0_all"  />
<polygon points="112,40 116,40 121,35 116,30 112,30 112,40 " style="fill:#d81515; stroke-width:1; stroke:black; " description="&lt;b&gt;LLPMBPKK_06907&lt;/b&gt;&lt;br&gt;LuxR family transcriptional regulator&lt;br&gt;Location: 7954435 - 7955656" locus_tag="LLPMBPKK_06907" class="clusterblast-orf" id="dummy-30_q11_0_all"  />
<polygon points="122,40 122,40 127,35 122,30 122,30 122,40 " style="fill:#67d815; stroke-width:1; stroke:black; " description="&lt;b&gt;LLPMBPKK_06908&lt;/b&gt;&lt;br&gt;FMN-dependent NADH-azoreductase&lt;br&gt;Location: 7955880 - 7956528" locus_tag="LLPMBPKK_06908" class="clusterblast-orf" id="dummy-30_q12_0_all"  />
<polygon points="127,40 131,40 136,35 131,30 127,30 127,40 " style="fill:#15b9d8; stroke-width:1; stroke:black; " description="&lt;b&gt;LLPMBPKK_06909&lt;/b&gt;&lt;br&gt;cytochrome P450&lt;br&gt;Location: 7956524 - 7957718" locus_tag="LLPMBPKK_06909" class="clusterblast-orf" id="dummy-30_q13_0_all"  />
<polygon points="139,40 256,40 261,35 256,30 139,30 139,40 " style="fill:#a515d8; stroke-width:1; stroke:black; " description="&lt;b&gt;LLPMBPKK_06910&lt;/b&gt;&lt;br&gt;2-succinylbenzoate--CoA ligase&lt;br&gt;Location: 7958211 - 7975215" locus_tag="LLPMBPKK_06910" class="clusterblast-orf" id="dummy-30_q14_0_all"  />
<polygon points="261,40 370,40 375,35 370,30 261,30 261,40 " style="fill:#a515d8; stroke-width:1; stroke:black; " description="&lt;b&gt;LLPMBPKK_06911&lt;/b&gt;&lt;br&gt;rifamycin polyketide synthase&lt;br&gt;Location: 7975249 - 7991275" locus_tag="LLPMBPKK_06911" class="clusterblast-orf" id="dummy-30_q15_0_all"  />
<polygon points="376,40 484,40 489,35 484,30 376,30 376,40 " style="fill:#a515d8; stroke-width:1; stroke:black; " description="&lt;b&gt;LLPMBPKK_06912&lt;/b&gt;&lt;br&gt;rifamycin polyketide synthase&lt;br&gt;Location: 7991321 - 8007224" locus_tag="LLPMBPKK_06912" class="clusterblast-orf" id="dummy-30_q16_0_all"  />
<polygon points="490,40 515,40 520,35 515,30 490,30 490,40 " style="fill:#a515d8; stroke-width:1; stroke:black; " description="&lt;b&gt;LLPMBPKK_06913&lt;/b&gt;&lt;br&gt;rifamycin polyketide synthase&lt;br&gt;Location: 8007313 - 8011516" locus_tag="LLPMBPKK_06913" class="clusterblast-orf" id="dummy-30_q17_0_all"  />
<polygon points="522,40 563,40 568,35 563,30 522,30 522,40 " style="fill:#a515d8; stroke-width:1; stroke:black; " description="&lt;b&gt;LLPMBPKK_06914&lt;/b&gt;&lt;br&gt;rifamycin polyketide synthase&lt;br&gt;Location: 8011776 - 8018199" locus_tag="LLPMBPKK_06914" class="clusterblast-orf" id="dummy-30_q18_0_all"  />
<polygon points="568,40 639,40 644,35 639,30 568,30 568,40 " style="fill:#a515d8; stroke-width:1; stroke:black; " description="&lt;b&gt;LLPMBPKK_06915&lt;/b&gt;&lt;br&gt;rifamycin polyketide synthase&lt;br&gt;Location: 8018229 - 8028825" locus_tag="LLPMBPKK_06915" class="clusterblast-orf" id="dummy-30_q19_0_all"  />
<polygon points="646,40 647,35 646,30 646,40 " style="fill:#a515d8; stroke-width:1; stroke:black; " description="&lt;b&gt;LLPMBPKK_06916&lt;/b&gt;&lt;br&gt;rifamycin polyketide synthase&lt;br&gt;Location: 8029097 - 8029349" locus_tag="LLPMBPKK_06916" class="clusterblast-orf" id="dummy-30_q20_0_all"  />
<polygon points="648,40 648,40 653,35 648,30 648,30 648,40 " style="fill:#d85315; stroke-width:1; stroke:black; " description="&lt;b&gt;LLPMBPKK_06917&lt;/b&gt;&lt;br&gt;N-acetyltransferase/amide synthase&lt;br&gt;Location: 8029392 - 8030199" locus_tag="LLPMBPKK_06917" class="clusterblast-orf" id="dummy-30_q21_0_all"  />
<polygon points="654,40 658,40 663,35 658,30 654,30 654,40 " style="fill:#2ad815; stroke-width:1; stroke:black; " description="&lt;b&gt;LLPMBPKK_06918&lt;/b&gt;&lt;br&gt;electron transfer oxidoreductase&lt;br&gt;Location: 8030255 - 8031599" locus_tag="LLPMBPKK_06918" class="clusterblast-orf" id="dummy-30_q22_0_all"  />
<polygon points="664,40 667,40 672,35 667,30 664,30 664,40 " style="fill:#157cd8; stroke-width:1; stroke:black; " description="&lt;b&gt;LLPMBPKK_06919&lt;/b&gt;&lt;br&gt;3-dehydroquinate synthase&lt;br&gt;Location: 8031746 - 8032823" locus_tag="LLPMBPKK_06919" class="clusterblast-orf" id="dummy-30_q23_0_all"  />
<polygon points="672,40 677,40 682,35 677,30 672,30 672,40 " style="fill:#d815ce; stroke-width:1; stroke:black; " description="&lt;b&gt;LLPMBPKK_06920&lt;/b&gt;&lt;br&gt;aminoDAHP synthase&lt;br&gt;Location: 8032819 - 8034238" locus_tag="LLPMBPKK_06920" class="clusterblast-orf" id="dummy-30_q24_0_all"  />
<polygon points="682,40 683,40 688,35 683,30 682,30 682,40 " style="fill:#d89015; stroke-width:1; stroke:black; " description="&lt;b&gt;LLPMBPKK_06921&lt;/b&gt;&lt;br&gt;aminoquinate dehydrogenase&lt;br&gt;Location: 8034234 - 8035077" locus_tag="LLPMBPKK_06921" class="clusterblast-orf" id="dummy-30_q25_0_all"  />
<polygon points="689,40 693,40 698,35 693,30 689,30 689,40 " style="fill:#15d83e; stroke-width:1; stroke:black; " description="&lt;b&gt;LLPMBPKK_06922&lt;/b&gt;&lt;br&gt;3-amino-5-hydroxybenzoate synthase&lt;br&gt;Location: 8035247 - 8036408" locus_tag="LLPMBPKK_06922" class="clusterblast-orf" id="dummy-30_q26_0_all"  />
<polygon points="698,40 701,40 706,35 701,30 698,30 698,40 " style="fill:#153ed8; stroke-width:1; stroke:black; " description="&lt;b&gt;LLPMBPKK_06923&lt;/b&gt;&lt;br&gt;oxidoreductase RifL&lt;br&gt;Location: 8036404 - 8037499" locus_tag="LLPMBPKK_06923" class="clusterblast-orf" id="dummy-30_q27_0_all"  />
<polygon points="706,40 706,40 711,35 706,30 706,30 706,40 " style="fill:#d81590; stroke-width:1; stroke:black; " description="&lt;b&gt;LLPMBPKK_06924&lt;/b&gt;&lt;br&gt;phosphoglycolate phosphatase&lt;br&gt;Location: 8037506 - 8038202" locus_tag="LLPMBPKK_06924" class="clusterblast-orf" id="dummy-30_q28_0_all"  />
<polygon points="711,40 712,40 717,35 712,30 711,30 711,40 " style="fill:#d8ce15; stroke-width:1; stroke:black; " description="&lt;b&gt;LLPMBPKK_06925&lt;/b&gt;&lt;br&gt;kanosamine kinase&lt;br&gt;Location: 8038204 - 8039122" locus_tag="LLPMBPKK_06925" class="clusterblast-orf" id="dummy-30_q29_0_all"  />
<polygon points="719,35 724,30 731,30 731,40 724,40 719,35 " style="fill:#15d87c; stroke-width:1; stroke:black; " description="&lt;b&gt;LLPMBPKK_06926&lt;/b&gt;&lt;br&gt;3-(3-hydroxyphenyl)propionate hydroxylase&lt;br&gt;Location: 8039408 - 8041073" locus_tag="LLPMBPKK_06926" class="clusterblast-orf" id="dummy-30_q30_0_all"  />
<polygon points="733,40 733,40 738,35 733,30 733,30 733,40 " style="fill:#2a15d8; stroke-width:1; stroke:black; " description="&lt;b&gt;LLPMBPKK_06927&lt;/b&gt;&lt;br&gt;oleoyl-(acyl-carrier-protein) hydrolase&lt;br&gt;Location: 8041281 - 8042055" locus_tag="LLPMBPKK_06927" class="clusterblast-orf" id="dummy-30_q31_0_all"  />
<polygon points="738,40 743,40 748,35 743,30 738,30 738,40 " style="fill:#d81553; stroke-width:1; stroke:black; " description="&lt;b&gt;LLPMBPKK_06928&lt;/b&gt;&lt;br&gt;cation/H(+) antiporter&lt;br&gt;Location: 8042087 - 8043482" locus_tag="LLPMBPKK_06928" class="clusterblast-orf" id="dummy-30_q32_0_all"  />
<polygon points="748,40 751,35 748,30 748,40 " style="fill:#a5d815; stroke-width:1; stroke:black; " description="&lt;b&gt;LLPMBPKK_06929&lt;/b&gt;&lt;br&gt;aminoDHQ dehydratase&lt;br&gt;Location: 8043478 - 8043919" locus_tag="LLPMBPKK_06929" class="clusterblast-orf" id="dummy-30_q33_0_all"  />
<polygon points="752,40 752,40 757,35 752,30 752,30 752,40 " style="fill:#15d8b9; stroke-width:1; stroke:black; " description="&lt;b&gt;LLPMBPKK_06930&lt;/b&gt;&lt;br&gt;alpha/beta hydrolase&lt;br&gt;Location: 8043968 - 8044661" locus_tag="LLPMBPKK_06930" class="clusterblast-orf" id="dummy-30_q34_0_all"  />
<polygon points="757,40 757,40 762,35 757,30 757,30 757,40 " style="fill:#6715d8; stroke-width:1; stroke:black; " description="&lt;b&gt;LLPMBPKK_06931&lt;/b&gt;&lt;br&gt;Activator of Hsp90 ATPase -like protein&lt;br&gt;Location: 8044713 - 8045403" locus_tag="LLPMBPKK_06931" class="clusterblast-orf" id="dummy-30_q35_0_all"  />
<polygon points="763,40 765,35 763,30 763,40 " style="fill:white; stroke-width:1; stroke:black; " description="&lt;b&gt;LLPMBPKK_06932&lt;/b&gt;&lt;br&gt;hypothetical protein&lt;br&gt;Location: 8045491 - 8045839" locus_tag="LLPMBPKK_06932" class="clusterblast-orf" id="dummy-30_q36_0_all"  />
<polygon points="767,40 768,35 767,30 767,40 " style="fill:white; stroke-width:1; stroke:black; " description="&lt;b&gt;LLPMBPKK_06933&lt;/b&gt;&lt;br&gt;K(+)-transporting ATPase subunit F&lt;br&gt;Location: 8046102 - 8046192" locus_tag="LLPMBPKK_06933" class="clusterblast-orf" id="dummy-30_q37_0_all"  />
<polygon points="768,40 775,40 780,35 775,30 768,30 768,40 " style="fill:white; stroke-width:1; stroke:black; " description="&lt;b&gt;LLPMBPKK_06934&lt;/b&gt;&lt;br&gt;potassium-transporting ATPase subunit KdpA&lt;br&gt;Location: 8046200 - 8047862" locus_tag="LLPMBPKK_06934" class="clusterblast-orf" id="dummy-30_q38_0_all"  />
</g>
<g label="BGC0000106" description="BGC0000106_c1: naphthomycin A (71% of genes show similarity), Polyketide" class="clusterblast-cluster"  >
<text x="5" y="70" class="clusterblast-acc"  >
<a xlink:href="https://mibig.secondarymetabolites.org/go/BGC0000106/1" target="_blank">BGC0000106</a>:                                                                   naphthomycin A (71% of genes show similarity), Polyketide</text>
<line x1="10" y1="85" x2="778.0" y2="85" style="stroke-width:1; stroke:grey; "  />
</g>
<g id="a30_000"  >
<polygon points="11,90 19,90 24,85 19,80 11,80 11,90 " style="fill:white; stroke-width:1; stroke:black; " description="&lt;b&gt;ADM46349.1&lt;/b&gt;&lt;br&gt;ATP/GTP-binding protein&lt;br&gt;Location: 1 - 1730" locus_tag="ADM46349.1" class="clusterblast-orf" id="dummy-30_h30_1_0"  />
</g>
<g id="a30_001"  >
<polygon points="25,90 35,90 40,85 35,80 25,80 25,90 " style="fill:white; stroke-width:1; stroke:black; " description="&lt;b&gt;ADM46350.1&lt;/b&gt;&lt;br&gt;ATP/GTP-binding protein&lt;br&gt;Location: 1897 - 4032" locus_tag="ADM46350.1" class="clusterblast-orf" id="dummy-30_h30_1_1"  />
</g>
<g id="a30_002"  >
<polygon points="41,85 42,80 42,90 41,85 " style="fill:white; stroke-width:1; stroke:black; " description="&lt;b&gt;ADM46351.1&lt;/b&gt;&lt;br&gt;hypothetical protein&lt;br&gt;Location: 4107 - 4250" locus_tag="ADM46351.1" class="clusterblast-orf" id="dummy-30_h30_1_2"  />
</g>
<g id="a30_003"  >
<polygon points="45,85 47,80 47,90 45,85 " style="fill:white; stroke-width:1; stroke:black; " description="&lt;b&gt;ADM46352.1&lt;/b&gt;&lt;br&gt;protoporphyrinogen oxidase&lt;br&gt;Location: 4714 - 5007" locus_tag="ADM46352.1" class="clusterblast-orf" id="dummy-30_h30_1_3"  />
</g>
<g id="a30_004"  >
<polygon points="60,90 64,90 69,85 64,80 60,80 60,90 " style="fill:#d81515; stroke-width:1; stroke:black; " description="&lt;b&gt;ADM46353.1&lt;/b&gt;&lt;br&gt;transcriptional regulator&lt;br&gt;Location: 6855 - 8072&lt;br&gt;&lt;br&gt;&lt;b&gt;BlastP hit with LLPMBPKK_06907&lt;/b&gt;&lt;br&gt;Percentage identity: 86&lt;br&gt;Percentage coverage: 100&lt;br&gt;BLAST bit score: 645&lt;br&gt;E-value: 1.8e-234" locus_tag="ADM46353.1" class="clusterblast-orf" id="dummy-30_h30_1_4"  />
</g>
<g id="a30_005"  >
<polygon points="71,90 75,85 71,80 71,90 " style="fill:#67d815; stroke-width:1; stroke:black; " description="&lt;b&gt;ADM46354.1&lt;/b&gt;&lt;br&gt;acyl carrier protein phosphodiesterase&lt;br&gt;Location: 8300 - 8935&lt;br&gt;&lt;br&gt;&lt;b&gt;BlastP hit with LLPMBPKK_06908&lt;/b&gt;&lt;br&gt;Percentage identity: 91&lt;br&gt;Percentage coverage: 98&lt;br&gt;BLAST bit score: 400&lt;br&gt;E-value: 4.07e-144" locus_tag="ADM46354.1" class="clusterblast-orf" id="dummy-30_h30_1_5"  />
</g>
<g id="a30_006"  >
<polygon points="76,90 79,90 84,85 79,80 76,80 76,90 " style="fill:#15b9d8; stroke-width:1; stroke:black; " description="&lt;b&gt;ADM46355.1&lt;/b&gt;&lt;br&gt;cytochrome P450-like protein&lt;br&gt;Location: 9033 - 10226&lt;br&gt;&lt;br&gt;&lt;b&gt;BlastP hit with LLPMBPKK_06909&lt;/b&gt;&lt;br&gt;Percentage identity: 92&lt;br&gt;Percentage coverage: 100&lt;br&gt;BLAST bit score: 744&lt;br&gt;E-value: 4.67e-274" locus_tag="ADM46355.1" class="clusterblast-orf" id="dummy-30_h30_1_6"  />
</g>
<g id="a30_007"  >
<polygon points="87,90 204,90 209,85 204,80 87,80 87,90 " style="fill:#a515d8; stroke-width:1; stroke:black; " description="&lt;b&gt;ADM46356.1&lt;/b&gt;&lt;br&gt;polyketide synthase&lt;br&gt;Location: 10604 - 27700&lt;br&gt;&lt;br&gt;&lt;b&gt;BlastP hit with LLPMBPKK_06910&lt;/b&gt;&lt;br&gt;Percentage identity: 85&lt;br&gt;Percentage coverage: 101&lt;br&gt;BLAST bit score: 9181&lt;br&gt;E-value: 0.0&lt;br&gt;&lt;br&gt;&lt;b&gt;BlastP hit with LLPMBPKK_06911&lt;/b&gt;&lt;br&gt;Percentage identity: 50&lt;br&gt;Percentage coverage: 84&lt;br&gt;BLAST bit score: 3524&lt;br&gt;E-value: 0.0&lt;br&gt;&lt;br&gt;&lt;b&gt;BlastP hit with LLPMBPKK_06913&lt;/b&gt;&lt;br&gt;Percentage identity: 69&lt;br&gt;Percentage coverage: 95&lt;br&gt;BLAST bit score: 1608&lt;br&gt;E-value: 0.0&lt;br&gt;&lt;br&gt;&lt;b&gt;BlastP hit with LLPMBPKK_06914&lt;/b&gt;&lt;br&gt;Percentage identity: 51&lt;br&gt;Percentage coverage: 96&lt;br&gt;BLAST bit score: 1649&lt;br&gt;E-value: 0.0&lt;br&gt;&lt;br&gt;&lt;b&gt;BlastP hit with LLPMBPKK_06915&lt;/b&gt;&lt;br&gt;Percentage identity: 52&lt;br&gt;Percentage coverage: 86&lt;br&gt;BLAST bit score: 2530&lt;br&gt;E-value: 0.0" locus_tag="ADM46356.1" class="clusterblast-orf" id="dummy-30_h30_1_7"  />
</g>
<g id="a30_008"  >
<polygon points="210,90 319,90 324,85 319,80 210,80 210,90 " style="fill:#a515d8; stroke-width:1; stroke:black; " description="&lt;b&gt;ADM46357.1&lt;/b&gt;&lt;br&gt;polyketide synthase&lt;br&gt;Location: 27735 - 43754&lt;br&gt;&lt;br&gt;&lt;b&gt;BlastP hit with LLPMBPKK_06910&lt;/b&gt;&lt;br&gt;Percentage identity: 51&lt;br&gt;Percentage coverage: 79&lt;br&gt;BLAST bit score: 3580&lt;br&gt;E-value: 0.0&lt;br&gt;&lt;br&gt;&lt;b&gt;BlastP hit with LLPMBPKK_06911&lt;/b&gt;&lt;br&gt;Percentage identity: 89&lt;br&gt;Percentage coverage: 100&lt;br&gt;BLAST bit score: 9005&lt;br&gt;E-value: 0.0&lt;br&gt;&lt;br&gt;&lt;b&gt;BlastP hit with LLPMBPKK_06912&lt;/b&gt;&lt;br&gt;Percentage identity: 66&lt;br&gt;Percentage coverage: 101&lt;br&gt;BLAST bit score: 6411&lt;br&gt;E-value: 0.0&lt;br&gt;&lt;br&gt;&lt;b&gt;BlastP hit with LLPMBPKK_06913&lt;/b&gt;&lt;br&gt;Percentage identity: 70&lt;br&gt;Percentage coverage: 95&lt;br&gt;BLAST bit score: 1718&lt;br&gt;E-value: 0.0&lt;br&gt;&lt;br&gt;&lt;b&gt;BlastP hit with LLPMBPKK_06914&lt;/b&gt;&lt;br&gt;Percentage identity: 70&lt;br&gt;Percentage coverage: 100&lt;br&gt;BLAST bit score: 2750&lt;br&gt;E-value: 0.0&lt;br&gt;&lt;br&gt;&lt;b&gt;BlastP hit with LLPMBPKK_06915&lt;/b&gt;&lt;br&gt;Percentage identity: 61&lt;br&gt;Percentage coverage: 101&lt;br&gt;BLAST bit score: 3765&lt;br&gt;E-value: 0.0&lt;br&gt;&lt;br&gt;&lt;b&gt;BlastP hit with LLPMBPKK_06916&lt;/b&gt;&lt;br&gt;Percentage identity: 52&lt;br&gt;Percentage coverage: 90&lt;br&gt;BLAST bit score: 76&lt;br&gt;E-value: 1.69e-17" locus_tag="ADM46357.1" class="clusterblast-orf" id="dummy-30_h30_1_8"  />
</g>
<g id="a30_009"  >
<polygon points="324,90 433,90 438,85 433,80 324,80 324,90 " style="fill:#a515d8; stroke-width:1; stroke:black; " description="&lt;b&gt;ADM46358.1&lt;/b&gt;&lt;br&gt;polyketide synthase&lt;br&gt;Location: 43801 - 59766&lt;br&gt;&lt;br&gt;&lt;b&gt;BlastP hit with LLPMBPKK_06910&lt;/b&gt;&lt;br&gt;Percentage identity: 60&lt;br&gt;Percentage coverage: 55&lt;br&gt;BLAST bit score: 3153&lt;br&gt;E-value: 0.0&lt;br&gt;&lt;br&gt;&lt;b&gt;BlastP hit with LLPMBPKK_06911&lt;/b&gt;&lt;br&gt;Percentage identity: 66&lt;br&gt;Percentage coverage: 101&lt;br&gt;BLAST bit score: 6387&lt;br&gt;E-value: 0.0&lt;br&gt;&lt;br&gt;&lt;b&gt;BlastP hit with LLPMBPKK_06912&lt;/b&gt;&lt;br&gt;Percentage identity: 86&lt;br&gt;Percentage coverage: 101&lt;br&gt;BLAST bit score: 8640&lt;br&gt;E-value: 0.0&lt;br&gt;&lt;br&gt;&lt;b&gt;BlastP hit with LLPMBPKK_06913&lt;/b&gt;&lt;br&gt;Percentage identity: 73&lt;br&gt;Percentage coverage: 96&lt;br&gt;BLAST bit score: 1806&lt;br&gt;E-value: 0.0&lt;br&gt;&lt;br&gt;&lt;b&gt;BlastP hit with LLPMBPKK_06914&lt;/b&gt;&lt;br&gt;Percentage identity: 72&lt;br&gt;Percentage coverage: 97&lt;br&gt;BLAST bit score: 2711&lt;br&gt;E-value: 0.0&lt;br&gt;&lt;br&gt;&lt;b&gt;BlastP hit with LLPMBPKK_06915&lt;/b&gt;&lt;br&gt;Percentage identity: 65&lt;br&gt;Percentage coverage: 101&lt;br&gt;BLAST bit score: 4152&lt;br&gt;E-value: 0.0" locus_tag="ADM46358.1" class="clusterblast-orf" id="dummy-30_h30_1_9"  />
</g>
<g id="a30_0010"  >
<polygon points="439,90 512,90 517,85 512,80 439,80 439,90 " style="fill:#a515d8; stroke-width:1; stroke:black; " description="&lt;b&gt;ADM46359.1&lt;/b&gt;&lt;br&gt;polyketide synthase&lt;br&gt;Location: 59868 - 70733&lt;br&gt;&lt;br&gt;&lt;b&gt;BlastP hit with LLPMBPKK_06910&lt;/b&gt;&lt;br&gt;Percentage identity: 61&lt;br&gt;Percentage coverage: 53&lt;br&gt;BLAST bit score: 3052&lt;br&gt;E-value: 0.0&lt;br&gt;&lt;br&gt;&lt;b&gt;BlastP hit with LLPMBPKK_06911&lt;/b&gt;&lt;br&gt;Percentage identity: 70&lt;br&gt;Percentage coverage: 68&lt;br&gt;BLAST bit score: 4619&lt;br&gt;E-value: 0.0&lt;br&gt;&lt;br&gt;&lt;b&gt;BlastP hit with LLPMBPKK_06912&lt;/b&gt;&lt;br&gt;Percentage identity: 73&lt;br&gt;Percentage coverage: 67&lt;br&gt;BLAST bit score: 4674&lt;br&gt;E-value: 0.0&lt;br&gt;&lt;br&gt;&lt;b&gt;BlastP hit with LLPMBPKK_06913&lt;/b&gt;&lt;br&gt;Percentage identity: 88&lt;br&gt;Percentage coverage: 97&lt;br&gt;BLAST bit score: 2264&lt;br&gt;E-value: 0.0&lt;br&gt;&lt;br&gt;&lt;b&gt;BlastP hit with LLPMBPKK_06914&lt;/b&gt;&lt;br&gt;Percentage identity: 88&lt;br&gt;Percentage coverage: 101&lt;br&gt;BLAST bit score: 3579&lt;br&gt;E-value: 0.0&lt;br&gt;&lt;br&gt;&lt;b&gt;BlastP hit with LLPMBPKK_06915&lt;/b&gt;&lt;br&gt;Percentage identity: 61&lt;br&gt;Percentage coverage: 102&lt;br&gt;BLAST bit score: 3907&lt;br&gt;E-value: 0.0" locus_tag="ADM46359.1" class="clusterblast-orf" id="dummy-30_h30_1_10"  />
</g>
<g id="a30_0011"  >
<polygon points="517,90 588,90 593,85 588,80 517,80 517,90 " style="fill:#a515d8; stroke-width:1; stroke:black; " description="&lt;b&gt;ADM46360.1&lt;/b&gt;&lt;br&gt;polyketide synthase&lt;br&gt;Location: 70764 - 81365&lt;br&gt;&lt;br&gt;&lt;b&gt;BlastP hit with LLPMBPKK_06910&lt;/b&gt;&lt;br&gt;Percentage identity: 52&lt;br&gt;Percentage coverage: 48&lt;br&gt;BLAST bit score: 2240&lt;br&gt;E-value: 0.0&lt;br&gt;&lt;br&gt;&lt;b&gt;BlastP hit with LLPMBPKK_06911&lt;/b&gt;&lt;br&gt;Percentage identity: 58&lt;br&gt;Percentage coverage: 68&lt;br&gt;BLAST bit score: 3638&lt;br&gt;E-value: 0.0&lt;br&gt;&lt;br&gt;&lt;b&gt;BlastP hit with LLPMBPKK_06912&lt;/b&gt;&lt;br&gt;Percentage identity: 67&lt;br&gt;Percentage coverage: 68&lt;br&gt;BLAST bit score: 4354&lt;br&gt;E-value: 0.0&lt;br&gt;&lt;br&gt;&lt;b&gt;BlastP hit with LLPMBPKK_06913&lt;/b&gt;&lt;br&gt;Percentage identity: 66&lt;br&gt;Percentage coverage: 98&lt;br&gt;BLAST bit score: 1654&lt;br&gt;E-value: 0.0&lt;br&gt;&lt;br&gt;&lt;b&gt;BlastP hit with LLPMBPKK_06914&lt;/b&gt;&lt;br&gt;Percentage identity: 71&lt;br&gt;Percentage coverage: 81&lt;br&gt;BLAST bit score: 2263&lt;br&gt;E-value: 0.0&lt;br&gt;&lt;br&gt;&lt;b&gt;BlastP hit with LLPMBPKK_06915&lt;/b&gt;&lt;br&gt;Percentage identity: 75&lt;br&gt;Percentage coverage: 101&lt;br&gt;BLAST bit score: 4861&lt;br&gt;E-value: 0.0&lt;br&gt;&lt;br&gt;&lt;b&gt;BlastP hit with LLPMBPKK_06916&lt;/b&gt;&lt;br&gt;Percentage identity: 83&lt;br&gt;Percentage coverage: 98&lt;br&gt;BLAST bit score: 134&lt;br&gt;E-value: 3.54e-38" locus_tag="ADM46360.1" class="clusterblast-orf" id="dummy-30_h30_1_11"  />
</g>
<g id="a30_0012"  >
<polygon points="593,90 594,90 599,85 594,80 593,80 593,90 " style="fill:#d85315; stroke-width:1; stroke:black; " description="&lt;b&gt;ADM46361.1&lt;/b&gt;&lt;br&gt;amide synthase&lt;br&gt;Location: 81409 - 82278&lt;br&gt;&lt;br&gt;&lt;b&gt;BlastP hit with LLPMBPKK_06917&lt;/b&gt;&lt;br&gt;Percentage identity: 78&lt;br&gt;Percentage coverage: 107&lt;br&gt;BLAST bit score: 449&lt;br&gt;E-value: 5.07e-161" locus_tag="ADM46361.1" class="clusterblast-orf" id="dummy-30_h30_1_12"  />
</g>
<g id="a30_0013"  >
<polygon points="600,90 604,90 609,85 604,80 600,80 600,90 " style="fill:#2ad815; stroke-width:1; stroke:black; " description="&lt;b&gt;ADM46362.1&lt;/b&gt;&lt;br&gt;halogenase&lt;br&gt;Location: 82335 - 83678&lt;br&gt;&lt;br&gt;&lt;b&gt;BlastP hit with LLPMBPKK_06918&lt;/b&gt;&lt;br&gt;Percentage identity: 89&lt;br&gt;Percentage coverage: 100&lt;br&gt;BLAST bit score: 820&lt;br&gt;E-value: 2.19e-302" locus_tag="ADM46362.1" class="clusterblast-orf" id="dummy-30_h30_1_13"  />
</g>
<g id="a30_0014"  >
<polygon points="610,90 613,90 618,85 613,80 610,80 610,90 " style="fill:#157cd8; stroke-width:1; stroke:black; " description="&lt;b&gt;ADM46363.1&lt;/b&gt;&lt;br&gt;3-dehydroquinate synthase&lt;br&gt;Location: 83802 - 84863&lt;br&gt;&lt;br&gt;&lt;b&gt;BlastP hit with LLPMBPKK_06919&lt;/b&gt;&lt;br&gt;Percentage identity: 90&lt;br&gt;Percentage coverage: 94&lt;br&gt;BLAST bit score: 602&lt;br&gt;E-value: 6.39e-219" locus_tag="ADM46363.1" class="clusterblast-orf" id="dummy-30_h30_1_14"  />
</g>
<g id="a30_0015"  >
<polygon points="618,90 623,90 628,85 623,80 618,80 618,90 " style="fill:#d815ce; stroke-width:1; stroke:black; " description="&lt;b&gt;ADM46364.1&lt;/b&gt;&lt;br&gt;DAHP synthase&lt;br&gt;Location: 84896 - 86332&lt;br&gt;&lt;br&gt;&lt;b&gt;BlastP hit with LLPMBPKK_06920&lt;/b&gt;&lt;br&gt;Percentage identity: 81&lt;br&gt;Percentage coverage: 100&lt;br&gt;BLAST bit score: 762&lt;br&gt;E-value: 1.89e-278" locus_tag="ADM46364.1" class="clusterblast-orf" id="dummy-30_h30_1_15"  />
</g>
<g id="a30_0016"  >
<polygon points="628,90 629,90 634,85 629,80 628,80 628,90 " style="fill:#d89015; stroke-width:1; stroke:black; " description="&lt;b&gt;ADM46365.1&lt;/b&gt;&lt;br&gt;shikimate/quinate dehydrogenase&lt;br&gt;Location: 86329 - 87174&lt;br&gt;&lt;br&gt;&lt;b&gt;BlastP hit with LLPMBPKK_06921&lt;/b&gt;&lt;br&gt;Percentage identity: 87&lt;br&gt;Percentage coverage: 100&lt;br&gt;BLAST bit score: 474&lt;br&gt;E-value: 7.69e-171" locus_tag="ADM46365.1" class="clusterblast-orf" id="dummy-30_h30_1_16"  />
</g>
<g id="a30_0017"  >
<polygon points="635,90 639,90 644,85 639,80 635,80 635,90 " style="fill:#15d83e; stroke-width:1; stroke:black; " description="&lt;b&gt;ADM46366.1&lt;/b&gt;&lt;br&gt;3-amino-5-hydroxybenzoic acid synthase&lt;br&gt;Location: 87338 - 88498&lt;br&gt;&lt;br&gt;&lt;b&gt;BlastP hit with LLPMBPKK_06922&lt;/b&gt;&lt;br&gt;Percentage identity: 86&lt;br&gt;Percentage coverage: 100&lt;br&gt;BLAST bit score: 671&lt;br&gt;E-value: 3.58e-245" locus_tag="ADM46366.1" class="clusterblast-orf" id="dummy-30_h30_1_17"  />
</g>
<g id="a30_0018"  >
<polygon points="644,90 646,90 651,85 646,80 644,80 644,90 " style="fill:#153ed8; stroke-width:1; stroke:black; " description="&lt;b&gt;ADM46367.1&lt;/b&gt;&lt;br&gt;oxidoreductase&lt;br&gt;Location: 88495 - 89589&lt;br&gt;&lt;br&gt;&lt;b&gt;BlastP hit with LLPMBPKK_06923&lt;/b&gt;&lt;br&gt;Percentage identity: 86&lt;br&gt;Percentage coverage: 100&lt;br&gt;BLAST bit score: 603&lt;br&gt;E-value: 4.25e-219" locus_tag="ADM46367.1" class="clusterblast-orf" id="dummy-30_h30_1_18"  />
</g>
<g id="a30_0019"  >
<polygon points="651,90 651,90 656,85 651,80 651,80 651,90 " style="fill:#d81590; stroke-width:1; stroke:black; " description="&lt;b&gt;ADM46368.1&lt;/b&gt;&lt;br&gt;phosphatase&lt;br&gt;Location: 89597 - 90292&lt;br&gt;&lt;br&gt;&lt;b&gt;BlastP hit with LLPMBPKK_06924&lt;/b&gt;&lt;br&gt;Percentage identity: 94&lt;br&gt;Percentage coverage: 100&lt;br&gt;BLAST bit score: 417&lt;br&gt;E-value: 6.31e-150" locus_tag="ADM46368.1" class="clusterblast-orf" id="dummy-30_h30_1_19"  />
</g>
<g id="a30_0020"  >
<polygon points="656,90 658,90 663,85 658,80 656,80 656,90 " style="fill:#d8ce15; stroke-width:1; stroke:black; " description="&lt;b&gt;ADM46369.1&lt;/b&gt;&lt;br&gt;glucose kinase&lt;br&gt;Location: 90295 - 91215&lt;br&gt;&lt;br&gt;&lt;b&gt;BlastP hit with LLPMBPKK_06925&lt;/b&gt;&lt;br&gt;Percentage identity: 83&lt;br&gt;Percentage coverage: 100&lt;br&gt;BLAST bit score: 509&lt;br&gt;E-value: 3.52e-184" locus_tag="ADM46369.1" class="clusterblast-orf" id="dummy-30_h30_1_20"  />
</g>
<g id="a30_0021"  >
<polygon points="664,85 669,80 676,80 676,90 669,90 664,85 " style="fill:#15d87c; stroke-width:1; stroke:black; " description="&lt;b&gt;ADM46370.1&lt;/b&gt;&lt;br&gt;FAD-dependent oxidoreductase&lt;br&gt;Location: 91304 - 93061&lt;br&gt;&lt;br&gt;&lt;b&gt;BlastP hit with LLPMBPKK_06926&lt;/b&gt;&lt;br&gt;Percentage identity: 86&lt;br&gt;Percentage coverage: 101&lt;br&gt;BLAST bit score: 937&lt;br&gt;E-value: 0.0" locus_tag="ADM46370.1" class="clusterblast-orf" id="dummy-30_h30_1_21"  />
</g>
<g id="a30_0022"  >
<polygon points="677,90 678,90 683,85 678,80 677,80 677,90 " style="fill:#2a15d8; stroke-width:1; stroke:black; " description="&lt;b&gt;ADM46371.1&lt;/b&gt;&lt;br&gt;thioesterase&lt;br&gt;Location: 93194 - 93967&lt;br&gt;&lt;br&gt;&lt;b&gt;BlastP hit with LLPMBPKK_06927&lt;/b&gt;&lt;br&gt;Percentage identity: 91&lt;br&gt;Percentage coverage: 100&lt;br&gt;BLAST bit score: 473&lt;br&gt;E-value: 2.58e-171" locus_tag="ADM46371.1" class="clusterblast-orf" id="dummy-30_h30_1_22"  />
</g>
<g id="a30_0023"  >
<polygon points="683,90 688,90 693,85 688,80 683,80 683,90 " style="fill:#d81553; stroke-width:1; stroke:black; " description="&lt;b&gt;ADM46372.1&lt;/b&gt;&lt;br&gt;membrane ion antiporter&lt;br&gt;Location: 94001 - 95386&lt;br&gt;&lt;br&gt;&lt;b&gt;BlastP hit with LLPMBPKK_06928&lt;/b&gt;&lt;br&gt;Percentage identity: 84&lt;br&gt;Percentage coverage: 97&lt;br&gt;BLAST bit score: 674&lt;br&gt;E-value: 3.69e-244" locus_tag="ADM46372.1" class="clusterblast-orf" id="dummy-30_h30_1_23"  />
</g>
<g id="a30_0024"  >
<polygon points="693,90 696,85 693,80 693,90 " style="fill:#a5d815; stroke-width:1; stroke:black; " description="&lt;b&gt;ADM46373.1&lt;/b&gt;&lt;br&gt;aminodehydroquinate dehydratase&lt;br&gt;Location: 95383 - 95823&lt;br&gt;&lt;br&gt;&lt;b&gt;BlastP hit with LLPMBPKK_06929&lt;/b&gt;&lt;br&gt;Percentage identity: 93&lt;br&gt;Percentage coverage: 99&lt;br&gt;BLAST bit score: 278&lt;br&gt;E-value: 7.73e-98" locus_tag="ADM46373.1" class="clusterblast-orf" id="dummy-30_h30_1_24"  />
</g>
<g id="a30_0025"  >
<polygon points="696,90 696,90 701,85 696,80 696,80 696,90 " style="fill:#15d8b9; stroke-width:1; stroke:black; " description="&lt;b&gt;ADM46374.1&lt;/b&gt;&lt;br&gt;putative alpha/beta fold family protein&lt;br&gt;Location: 95894 - 96586&lt;br&gt;&lt;br&gt;&lt;b&gt;BlastP hit with LLPMBPKK_06930&lt;/b&gt;&lt;br&gt;Percentage identity: 90&lt;br&gt;Percentage coverage: 100&lt;br&gt;BLAST bit score: 420&lt;br&gt;E-value: 2.48e-151" locus_tag="ADM46374.1" class="clusterblast-orf" id="dummy-30_h30_1_25"  />
</g>
<g id="a30_0026"  >
<polygon points="702,90 706,85 702,80 702,90 " style="fill:#6715d8; stroke-width:1; stroke:black; " description="&lt;b&gt;ADM46375.1&lt;/b&gt;&lt;br&gt;activator of Hsp90 ATPase&lt;br&gt;Location: 96664 - 97227&lt;br&gt;&lt;br&gt;&lt;b&gt;BlastP hit with LLPMBPKK_06931&lt;/b&gt;&lt;br&gt;Percentage identity: 85&lt;br&gt;Percentage coverage: 71&lt;br&gt;BLAST bit score: 284&lt;br&gt;E-value: 4.37e-98" locus_tag="ADM46375.1" class="clusterblast-orf" id="dummy-30_h30_1_26"  />
</g>
<g id="a30_0027"  >
<polygon points="707,85 712,80 717,80 717,90 712,90 707,85 " style="fill:white; stroke-width:1; stroke:black; " description="&lt;b&gt;ADM46376.1&lt;/b&gt;&lt;br&gt;metallopeptidase&lt;br&gt;Location: 97324 - 98754" locus_tag="ADM46376.1" class="clusterblast-orf" id="dummy-30_h30_1_27"  />
</g>
<g id="a30_0028"  >
<polygon points="718,90 719,90 724,85 719,80 718,80 718,90 " style="fill:white; stroke-width:1; stroke:black; " description="&lt;b&gt;ADM46377.1&lt;/b&gt;&lt;br&gt;gntr family transcriptional regulator&lt;br&gt;Location: 98931 - 99689" locus_tag="ADM46377.1" class="clusterblast-orf" id="dummy-30_h30_1_28"  />
</g>
<g id="a30_0029"  >
<polygon points="725,90 732,90 737,85 732,80 725,80 725,90 " style="fill:white; stroke-width:1; stroke:black; " description="&lt;b&gt;ADM46378.1&lt;/b&gt;&lt;br&gt;amino-acid permease transmembrane protein&lt;br&gt;Location: 99954 - 101543" locus_tag="ADM46378.1" class="clusterblast-orf" id="dummy-30_h30_1_29"  />
</g>
<g id="a30_0030"  >
<polygon points="740,90 743,85 740,80 740,90 " style="fill:white; stroke-width:1; stroke:black; " description="&lt;b&gt;ADM46379.1&lt;/b&gt;&lt;br&gt;hydrolase&lt;br&gt;Location: 101969 - 102385" locus_tag="ADM46379.1" class="clusterblast-orf" id="dummy-30_h30_1_30"  />
</g>
<g id="a30_0031"  >
<polygon points="749,90 763,90 768,85 763,80 749,80 749,90 " style="fill:white; stroke-width:1; stroke:black; " description="&lt;b&gt;ADM46380.1&lt;/b&gt;&lt;br&gt;magnesium or manganese-dependent protein phosphatase&lt;br&gt;Location: 103250 - 105862" locus_tag="ADM46380.1" class="clusterblast-orf" id="dummy-30_h30_1_31"  />
</g>
</svg>
