<svg xmlns="http://www.w3.org/2000/svg" xmlns:xlink="http://www.w3.org/1999/xlink" version="1.1" x="0" y="0" height="230" width="800" viewBox="0 0 800 230" preserveAspectRatio="none"  >
<g label="Query sequence" class="clusterblast-cluster"  >
<text x="5" y="20" class="clusterblast-acc"  >
Query sequence</text>
<line x1="10" y1="35" x2="778.0" y2="35" style="stroke-width:1; stroke:grey; "  />
<polygon points="0,35 5,30 19,30 19,40 5,40 0,35 " style="fill:#d81515; stroke-width:1; stroke:black; " description="&lt;b&gt;LLPMBPKK_00577&lt;/b&gt;&lt;br&gt;LysR family transcriptional regulator&lt;br&gt;Location: 754811 - 755753" locus_tag="LLPMBPKK_00577" class="clusterblast-orf" id="dummy-4_q0_0_all"  />
<polygon points="21,40 42,40 47,35 42,30 21,30 21,40 " style="fill:#15d815; stroke-width:1; stroke:black; " description="&lt;b&gt;LLPMBPKK_00578&lt;/b&gt;&lt;br&gt;MFS transporter multidrug efflux transporter&lt;br&gt;Location: 755886 - 757161" locus_tag="LLPMBPKK_00578" class="clusterblast-orf" id="dummy-4_q1_0_all"  />
<polygon points="51,40 67,40 72,35 67,30 51,30 51,40 " style="fill:white; stroke-width:1; stroke:black; " description="&lt;b&gt;LLPMBPKK_00579&lt;/b&gt;&lt;br&gt;VWA domain-containing protein&lt;br&gt;Location: 757388 - 758429" locus_tag="LLPMBPKK_00579" class="clusterblast-orf" id="dummy-4_q2_0_all"  />
<polygon points="74,35 79,30 83,30 83,40 79,40 74,35 " style="fill:white; stroke-width:1; stroke:black; " description="&lt;b&gt;LLPMBPKK_00580&lt;/b&gt;&lt;br&gt;hypothetical protein&lt;br&gt;Location: 758543 - 758969" locus_tag="LLPMBPKK_00580" class="clusterblast-orf" id="dummy-4_q3_0_all"  />
<polygon points="89,35 94,30 108,30 108,40 94,40 89,35 " style="fill:white; stroke-width:1; stroke:black; " description="&lt;b&gt;LLPMBPKK_00581&lt;/b&gt;&lt;br&gt;Ribosomal protein S6--L-glutamate ligase&lt;br&gt;Location: 759296 - 760241" locus_tag="LLPMBPKK_00581" class="clusterblast-orf" id="dummy-4_q4_0_all"  />
<polygon points="112,35 117,30 127,30 127,40 117,40 112,35 " style="fill:white; stroke-width:1; stroke:black; " description="&lt;b&gt;LLPMBPKK_00582&lt;/b&gt;&lt;br&gt;Ubiquinone biosynthesis O-methyltransferase&lt;br&gt;Location: 760461 - 761205" locus_tag="LLPMBPKK_00582" class="clusterblast-orf" id="dummy-4_q5_0_all"  />
<polygon points="135,35 140,30 190,30 190,40 140,40 135,35 " style="fill:white; stroke-width:1; stroke:black; " description="&lt;b&gt;LLPMBPKK_00583&lt;/b&gt;&lt;br&gt;Phosphoesterase family protein&lt;br&gt;Location: 761589 - 764340" locus_tag="LLPMBPKK_00583" class="clusterblast-orf" id="dummy-4_q6_0_all"  />
<polygon points="191,35 196,30 218,30 218,40 196,40 191,35 " style="fill:white; stroke-width:1; stroke:black; " description="&lt;b&gt;LLPMBPKK_00584&lt;/b&gt;&lt;br&gt;ABC transporter permease&lt;br&gt;Location: 764404 - 765772" locus_tag="LLPMBPKK_00584" class="clusterblast-orf" id="dummy-4_q7_0_all"  />
<polygon points="218,35 223,30 240,30 240,40 223,40 218,35 " style="fill:white; stroke-width:1; stroke:black; " description="&lt;b&gt;LLPMBPKK_00585&lt;/b&gt;&lt;br&gt;ABC transporter ATP-binding protein&lt;br&gt;Location: 765768 - 766875" locus_tag="LLPMBPKK_00585" class="clusterblast-orf" id="dummy-4_q8_0_all"  />
<polygon points="249,35 254,30 262,30 262,40 254,40 249,35 " style="fill:#1515d8; stroke-width:1; stroke:black; " description="&lt;b&gt;LLPMBPKK_00586&lt;/b&gt;&lt;br&gt;two component system DNA binding responseregulator&lt;br&gt;Location: 767325 - 767961" locus_tag="LLPMBPKK_00586" class="clusterblast-orf" id="dummy-4_q9_0_all"  />
<polygon points="262,35 267,30 287,30 287,40 267,40 262,35 " style="fill:#d815d8; stroke-width:1; stroke:black; " description="&lt;b&gt;LLPMBPKK_00587&lt;/b&gt;&lt;br&gt;two component system histidine kinase&lt;br&gt;Location: 767957 - 769229" locus_tag="LLPMBPKK_00587" class="clusterblast-orf" id="dummy-4_q10_0_all"  />
<polygon points="293,40 310,40 315,35 310,30 293,30 293,40 " style="fill:white; stroke-width:1; stroke:black; " description="&lt;b&gt;LLPMBPKK_00588&lt;/b&gt;&lt;br&gt;ABC transporter&lt;br&gt;Location: 769497 - 770595" locus_tag="LLPMBPKK_00588" class="clusterblast-orf" id="dummy-4_q11_0_all"  />
<polygon points="315,40 323,40 328,35 323,30 315,30 315,40 " style="fill:white; stroke-width:1; stroke:black; " description="&lt;b&gt;LLPMBPKK_00589&lt;/b&gt;&lt;br&gt;ABC transporter ATP-binding protein&lt;br&gt;Location: 770591 - 771275" locus_tag="LLPMBPKK_00589" class="clusterblast-orf" id="dummy-4_q12_0_all"  />
<polygon points="331,40 339,40 344,35 339,30 331,30 331,40 " style="fill:white; stroke-width:1; stroke:black; " description="&lt;b&gt;LLPMBPKK_00590&lt;/b&gt;&lt;br&gt;hypothetical protein&lt;br&gt;Location: 771430 - 772081" locus_tag="LLPMBPKK_00590" class="clusterblast-orf" id="dummy-4_q13_0_all"  />
<polygon points="346,40 375,40 380,35 375,30 346,30 346,40 " style="fill:white; stroke-width:1; stroke:black; " description="&lt;b&gt;LLPMBPKK_00591&lt;/b&gt;&lt;br&gt;Serine/threonine-protein kinase PknD&lt;br&gt;Location: 772151 - 773846" locus_tag="LLPMBPKK_00591" class="clusterblast-orf" id="dummy-4_q14_0_all"  />
<polygon points="380,35 385,30 393,30 393,40 385,40 380,35 " style="fill:white; stroke-width:1; stroke:black; " description="&lt;b&gt;LLPMBPKK_00592&lt;/b&gt;&lt;br&gt;hypothetical protein&lt;br&gt;Location: 773882 - 774539" locus_tag="LLPMBPKK_00592" class="clusterblast-orf" id="dummy-4_q15_0_all"  />
<polygon points="397,35 402,30 418,30 418,40 402,40 397,35 " style="fill:#d8d815; stroke-width:1; stroke:black; " description="&lt;b&gt;LLPMBPKK_00593&lt;/b&gt;&lt;br&gt;1,3,6,8-tetrahydroxynaphthalene synthase&lt;br&gt;Location: 774701 - 775748" locus_tag="LLPMBPKK_00593" class="clusterblast-orf" id="dummy-4_q16_0_all"  />
<polygon points="420,35 425,30 440,30 440,40 425,40 420,35 " style="fill:#15d8d8; stroke-width:1; stroke:black; " description="&lt;b&gt;LLPMBPKK_00594&lt;/b&gt;&lt;br&gt;MmyB-like transcription regulator ligand bindingdomain protein&lt;br&gt;Location: 775864 - 776848" locus_tag="LLPMBPKK_00594" class="clusterblast-orf" id="dummy-4_q17_0_all"  />
<polygon points="445,35 450,30 461,30 461,40 450,40 445,35 " style="fill:white; stroke-width:1; stroke:black; " description="&lt;b&gt;LLPMBPKK_00595&lt;/b&gt;&lt;br&gt;aminoglycoside phosphotransferase&lt;br&gt;Location: 777119 - 777935" locus_tag="LLPMBPKK_00595" class="clusterblast-orf" id="dummy-4_q18_0_all"  />
<polygon points="468,40 478,40 483,35 478,30 468,30 468,40 " style="fill:white; stroke-width:1; stroke:black; " description="&lt;b&gt;LLPMBPKK_00596&lt;/b&gt;&lt;br&gt;hypothetical protein&lt;br&gt;Location: 778299 - 779046" locus_tag="LLPMBPKK_00596" class="clusterblast-orf" id="dummy-4_q19_0_all"  />
<polygon points="492,35 497,30 516,30 516,40 497,40 492,35 " style="fill:white; stroke-width:1; stroke:black; " description="&lt;b&gt;LLPMBPKK_00597&lt;/b&gt;&lt;br&gt;cytochrome P450 hydroxylase&lt;br&gt;Location: 779472 - 780702" locus_tag="LLPMBPKK_00597" class="clusterblast-orf" id="dummy-4_q20_0_all"  />
<polygon points="519,35 524,30 526,30 526,40 524,40 519,35 " style="fill:white; stroke-width:1; stroke:black; " description="&lt;b&gt;LLPMBPKK_00598&lt;/b&gt;&lt;br&gt;hypothetical protein&lt;br&gt;Location: 780838 - 781204" locus_tag="LLPMBPKK_00598" class="clusterblast-orf" id="dummy-4_q21_0_all"  />
<polygon points="533,40 545,40 550,35 545,30 533,30 533,40 " style="fill:white; stroke-width:1; stroke:black; " description="&lt;b&gt;LLPMBPKK_00599&lt;/b&gt;&lt;br&gt;helix-turn-helix domain-containing protein&lt;br&gt;Location: 781514 - 782399" locus_tag="LLPMBPKK_00599" class="clusterblast-orf" id="dummy-4_q22_0_all"  />
<polygon points="551,35 556,30 578,30 578,40 556,40 551,35 " style="fill:white; stroke-width:1; stroke:black; " description="&lt;b&gt;LLPMBPKK_00600&lt;/b&gt;&lt;br&gt;beta-glucosidase&lt;br&gt;Location: 782423 - 783803" locus_tag="LLPMBPKK_00600" class="clusterblast-orf" id="dummy-4_q23_0_all"  />
<polygon points="579,35 584,30 595,30 595,40 584,40 579,35 " style="fill:white; stroke-width:1; stroke:black; " description="&lt;b&gt;LLPMBPKK_00601&lt;/b&gt;&lt;br&gt;sugar transport integral membrane protein&lt;br&gt;Location: 783820 - 784654" locus_tag="LLPMBPKK_00601" class="clusterblast-orf" id="dummy-4_q24_0_all"  />
<polygon points="595,35 600,30 614,30 614,40 600,40 595,35 " style="fill:white; stroke-width:1; stroke:black; " description="&lt;b&gt;LLPMBPKK_00602&lt;/b&gt;&lt;br&gt;sugar transport integral membrane protein&lt;br&gt;Location: 784660 - 785605" locus_tag="LLPMBPKK_00602" class="clusterblast-orf" id="dummy-4_q25_0_all"  />
<polygon points="615,35 620,30 639,30 639,40 620,40 615,35 " style="fill:white; stroke-width:1; stroke:black; " description="&lt;b&gt;LLPMBPKK_00603&lt;/b&gt;&lt;br&gt;sugar transport sugar binding protein&lt;br&gt;Location: 785616 - 786855" locus_tag="LLPMBPKK_00603" class="clusterblast-orf" id="dummy-4_q26_0_all"  />
<polygon points="645,40 685,40 690,35 685,30 645,30 645,40 " style="fill:white; stroke-width:1; stroke:black; " description="&lt;b&gt;LLPMBPKK_00604&lt;/b&gt;&lt;br&gt;alpha-xylosidase&lt;br&gt;Location: 787137 - 789408" locus_tag="LLPMBPKK_00604" class="clusterblast-orf" id="dummy-4_q27_0_all"  />
<polygon points="694,35 699,30 716,30 716,40 699,40 694,35 " style="fill:white; stroke-width:1; stroke:black; " description="&lt;b&gt;LLPMBPKK_00605&lt;/b&gt;&lt;br&gt;oxidoreductase&lt;br&gt;Location: 789603 - 790680" locus_tag="LLPMBPKK_00605" class="clusterblast-orf" id="dummy-4_q28_0_all"  />
<polygon points="718,40 724,40 729,35 724,30 718,30 718,40 " style="fill:white; stroke-width:1; stroke:black; " description="&lt;b&gt;LLPMBPKK_00606&lt;/b&gt;&lt;br&gt;transcriptional regulator&lt;br&gt;Location: 790784 - 791372" locus_tag="LLPMBPKK_00606" class="clusterblast-orf" id="dummy-4_q29_0_all"  />
<polygon points="731,40 737,40 742,35 737,30 731,30 731,40 " style="fill:white; stroke-width:1; stroke:black; " description="&lt;b&gt;LLPMBPKK_00607&lt;/b&gt;&lt;br&gt;N-acetyltransferase&lt;br&gt;Location: 791433 - 792000" locus_tag="LLPMBPKK_00607" class="clusterblast-orf" id="dummy-4_q30_0_all"  />
<polygon points="743,40 755,40 760,35 755,30 743,30 743,40 " style="fill:white; stroke-width:1; stroke:black; " description="&lt;b&gt;LLPMBPKK_00608&lt;/b&gt;&lt;br&gt;hypothetical protein&lt;br&gt;Location: 792060 - 792918" locus_tag="LLPMBPKK_00608" class="clusterblast-orf" id="dummy-4_q31_0_all"  />
<polygon points="761,35 766,30 780,30 780,40 766,40 761,35 " style="fill:white; stroke-width:1; stroke:black; " description="&lt;b&gt;LLPMBPKK_00609&lt;/b&gt;&lt;br&gt;transcriptional regulator&lt;br&gt;Location: 792948 - 793893" locus_tag="LLPMBPKK_00609" class="clusterblast-orf" id="dummy-4_q32_0_all"  />
</g>
<g label="BGC0001905" description="BGC0001905_c1: violapyrone B (28% of genes show similarity), Polyketide" class="clusterblast-cluster"  >
<text x="5" y="70" class="clusterblast-acc"  >
<a xlink:href="https://mibig.secondarymetabolites.org/go/BGC0001905/1" target="_blank">BGC0001905</a>:                                                                    violapyrone B (28% of genes show similarity), Polyketide</text>
<line x1="10" y1="85" x2="778.0" y2="85" style="stroke-width:1; stroke:grey; "  />
</g>
<g id="a4_000"  >
<polygon points="352,90 352,90 357,85 352,80 352,80 352,90 " style="fill:white; stroke-width:1; stroke:black; " description="&lt;b&gt;AMN08997.1&lt;/b&gt;&lt;br&gt;hypothetical protein&lt;br&gt;Location: 1 - 267" locus_tag="AMN08997.1" class="clusterblast-orf" id="dummy-4_h4_1_0"  />
</g>
<g id="a4_001"  >
<polygon points="357,90 361,85 357,80 357,90 " style="fill:white; stroke-width:1; stroke:black; " description="&lt;b&gt;AMN08998.1&lt;/b&gt;&lt;br&gt;hypothetical protein&lt;br&gt;Location: 275 - 466" locus_tag="AMN08998.1" class="clusterblast-orf" id="dummy-4_h4_1_1"  />
</g>
<g id="a4_002"  >
<polygon points="362,90 366,85 362,80 362,90 " style="fill:white; stroke-width:1; stroke:black; " description="&lt;b&gt;AMN08999.1&lt;/b&gt;&lt;br&gt;hypothetical protein&lt;br&gt;Location: 513 - 725" locus_tag="AMN08999.1" class="clusterblast-orf" id="dummy-4_h4_1_2"  />
</g>
<g id="a4_003"  >
<polygon points="365,85 370,80 386,80 386,90 370,90 365,85 " style="fill:#d8d815; stroke-width:1; stroke:black; " description="&lt;b&gt;AMN09000.1&lt;/b&gt;&lt;br&gt;polyketide synthase&lt;br&gt;Location: 688 - 1740&lt;br&gt;&lt;br&gt;&lt;b&gt;BlastP hit with LLPMBPKK_00593&lt;/b&gt;&lt;br&gt;Percentage identity: 63&lt;br&gt;Percentage coverage: 100&lt;br&gt;BLAST bit score: 437&lt;br&gt;E-value: 3.67e-154" locus_tag="AMN09000.1" class="clusterblast-orf" id="dummy-4_h4_1_3"  />
</g>
<g id="a4_004"  >
<polygon points="390,85 395,80 406,80 406,90 395,90 390,85 " style="fill:#15d8d8; stroke-width:1; stroke:black; " description="&lt;b&gt;AMN09001.1&lt;/b&gt;&lt;br&gt;transcriptional regulator&lt;br&gt;Location: 1907 - 2725&lt;br&gt;&lt;br&gt;&lt;b&gt;BlastP hit with LLPMBPKK_00594&lt;/b&gt;&lt;br&gt;Percentage identity: 62&lt;br&gt;Percentage coverage: 83&lt;br&gt;BLAST bit score: 347&lt;br&gt;E-value: 3.85e-120" locus_tag="AMN09001.1" class="clusterblast-orf" id="dummy-4_h4_1_4"  />
</g>
<g id="a4_005"  >
<polygon points="413,85 418,80 423,80 423,90 418,90 413,85 " style="fill:white; stroke-width:1; stroke:black; " description="&lt;b&gt;AMN09002.1&lt;/b&gt;&lt;br&gt;hypothetical protein&lt;br&gt;Location: 3100 - 3576" locus_tag="AMN09002.1" class="clusterblast-orf" id="dummy-4_h4_1_5"  />
</g>
<g id="a4_006"  >
<polygon points="423,85 427,80 427,90 423,85 " style="fill:white; stroke-width:1; stroke:black; " description="&lt;b&gt;AMN09003.1&lt;/b&gt;&lt;br&gt;hypothetical protein&lt;br&gt;Location: 3573 - 3803" locus_tag="AMN09003.1" class="clusterblast-orf" id="dummy-4_h4_1_6"  />
</g>
</svg>
