<svg xmlns="http://www.w3.org/2000/svg" xmlns:xlink="http://www.w3.org/1999/xlink" version="1.1" x="0" y="0" height="230" width="800" viewBox="0 0 800 230" preserveAspectRatio="none"  >
<g label="Query sequence" class="clusterblast-cluster"  >
<text x="5" y="20" class="clusterblast-acc"  >
Query sequence</text>
<line x1="10" y1="35" x2="778.0" y2="35" style="stroke-width:1; stroke:grey; "  />
<polygon points="147,35 152,30 165,30 165,40 152,40 147,35 " style="fill:white; stroke-width:1; stroke:black; " description="&lt;b&gt;LLPMBPKK_06758&lt;/b&gt;&lt;br&gt;cation transporter&lt;br&gt;Location: 7791080 - 7792022" locus_tag="LLPMBPKK_06758" class="clusterblast-orf" id="dummy-29_q0_0_all"  />
<polygon points="169,35 174,30 187,30 187,40 174,40 169,35 " style="fill:white; stroke-width:1; stroke:black; " description="&lt;b&gt;LLPMBPKK_06759&lt;/b&gt;&lt;br&gt;UDP-glucose 4-epimerase GalE&lt;br&gt;Location: 7792229 - 7793201" locus_tag="LLPMBPKK_06759" class="clusterblast-orf" id="dummy-29_q1_0_all"  />
<polygon points="192,40 222,40 227,35 222,30 192,30 192,40 " style="fill:white; stroke-width:1; stroke:black; " description="&lt;b&gt;LLPMBPKK_06760&lt;/b&gt;&lt;br&gt;CDP-alcohol phosphatidyltransferase familyprotein&lt;br&gt;Location: 7793467 - 7795288" locus_tag="LLPMBPKK_06760" class="clusterblast-orf" id="dummy-29_q2_0_all"  />
<polygon points="227,40 236,40 241,35 236,30 227,30 227,40 " style="fill:#d81515; stroke-width:1; stroke:black; " description="&lt;b&gt;LLPMBPKK_06761&lt;/b&gt;&lt;br&gt;phosphocholine cytidylyltransferase familyprotein&lt;br&gt;Location: 7795284 - 7796037" locus_tag="LLPMBPKK_06761" class="clusterblast-orf" id="dummy-29_q3_0_all"  />
<polygon points="241,40 256,40 261,35 256,30 241,30 241,40 " style="fill:#4dd815; stroke-width:1; stroke:black; " description="&lt;b&gt;LLPMBPKK_06762&lt;/b&gt;&lt;br&gt;iron-containing alcohol dehydrogenase familyprotein&lt;br&gt;Location: 7796024 - 7797086" locus_tag="LLPMBPKK_06762" class="clusterblast-orf" id="dummy-29_q4_0_all"  />
<polygon points="262,40 270,40 275,35 270,30 262,30 262,40 " style="fill:white; stroke-width:1; stroke:black; " description="&lt;b&gt;LLPMBPKK_06763&lt;/b&gt;&lt;br&gt;transferase&lt;br&gt;Location: 7797159 - 7797843" locus_tag="LLPMBPKK_06763" class="clusterblast-orf" id="dummy-29_q5_0_all"  />
<polygon points="276,40 287,40 292,35 287,30 276,30 276,40 " style="fill:white; stroke-width:1; stroke:black; " description="&lt;b&gt;LLPMBPKK_06764&lt;/b&gt;&lt;br&gt;glycosyltransferase family 2 protein&lt;br&gt;Location: 7797851 - 7798724" locus_tag="LLPMBPKK_06764" class="clusterblast-orf" id="dummy-29_q6_0_all"  />
<polygon points="294,40 307,40 312,35 307,30 294,30 294,40 " style="fill:white; stroke-width:1; stroke:black; " description="&lt;b&gt;LLPMBPKK_06765&lt;/b&gt;&lt;br&gt;ABC transporter&lt;br&gt;Location: 7798813 - 7799743" locus_tag="LLPMBPKK_06765" class="clusterblast-orf" id="dummy-29_q7_0_all"  />
<polygon points="311,40 321,40 326,35 321,30 311,30 311,40 " style="fill:white; stroke-width:1; stroke:black; " description="&lt;b&gt;LLPMBPKK_06766&lt;/b&gt;&lt;br&gt;ABC transporter ATP-binding protein&lt;br&gt;Location: 7799735 - 7800524" locus_tag="LLPMBPKK_06766" class="clusterblast-orf" id="dummy-29_q8_0_all"  />
<polygon points="333,40 345,40 350,35 345,30 333,30 333,40 " style="fill:#1585d8; stroke-width:1; stroke:black; " description="&lt;b&gt;LLPMBPKK_06767&lt;/b&gt;&lt;br&gt;squalene synthase HpnC&lt;br&gt;Location: 7800884 - 7801781" locus_tag="LLPMBPKK_06767" class="clusterblast-orf" id="dummy-29_q9_0_all"  />
<polygon points="350,40 364,40 369,35 364,30 350,30 350,40 " style="fill:#a115d8; stroke-width:1; stroke:black; " description="&lt;b&gt;LLPMBPKK_06768&lt;/b&gt;&lt;br&gt;presqualene diphosphate synthase HpnD&lt;br&gt;Location: 7801777 - 7802740" locus_tag="LLPMBPKK_06768" class="clusterblast-orf" id="dummy-29_q10_0_all"  />
<polygon points="373,40 395,40 400,35 395,30 373,30 373,40 " style="fill:#d86915; stroke-width:1; stroke:black; " description="&lt;b&gt;LLPMBPKK_06769&lt;/b&gt;&lt;br&gt;FAD-dependent oxidoreductase&lt;br&gt;Location: 7802978 - 7804406" locus_tag="LLPMBPKK_06769" class="clusterblast-orf" id="dummy-29_q11_0_all"  />
<polygon points="400,40 417,40 422,35 417,30 400,30 400,40 " style="fill:#15d831; stroke-width:1; stroke:black; " description="&lt;b&gt;LLPMBPKK_06770&lt;/b&gt;&lt;br&gt;polyprenyl synthetase family protein&lt;br&gt;Location: 7804405 - 7805539" locus_tag="LLPMBPKK_06770" class="clusterblast-orf" id="dummy-29_q12_0_all"  />
<polygon points="424,40 458,40 463,35 458,30 424,30 424,40 " style="fill:#1531d8; stroke-width:1; stroke:black; " description="&lt;b&gt;LLPMBPKK_06771&lt;/b&gt;&lt;br&gt;squalene--hopene cyclase&lt;br&gt;Location: 7805655 - 7807686" locus_tag="LLPMBPKK_06771" class="clusterblast-orf" id="dummy-29_q13_0_all"  />
<polygon points="463,40 470,40 475,35 470,30 463,30 463,40 " style="fill:#d815bc; stroke-width:1; stroke:black; " description="&lt;b&gt;LLPMBPKK_06772&lt;/b&gt;&lt;br&gt;lipoprotein&lt;br&gt;Location: 7807682 - 7808324" locus_tag="LLPMBPKK_06772" class="clusterblast-orf" id="dummy-29_q14_0_all"  />
<polygon points="475,40 489,40 494,35 489,30 475,30 475,40 " style="fill:#d8bc15; stroke-width:1; stroke:black; " description="&lt;b&gt;LLPMBPKK_06773&lt;/b&gt;&lt;br&gt;adenosyl-hopene transferase HpnH&lt;br&gt;Location: 7808329 - 7809352" locus_tag="LLPMBPKK_06773" class="clusterblast-orf" id="dummy-29_q15_0_all"  />
<polygon points="495,40 511,40 516,35 511,30 495,30 495,40 " style="fill:#15d885; stroke-width:1; stroke:black; " description="&lt;b&gt;LLPMBPKK_06774&lt;/b&gt;&lt;br&gt;flavodoxin-dependent (E)-4-hydroxy-3-methylbut-2-enyl-diphosphate synthase&lt;br&gt;Location: 7809356 - 7810484" locus_tag="LLPMBPKK_06774" class="clusterblast-orf" id="dummy-29_q16_0_all"  />
<polygon points="517,40 548,40 553,35 548,30 517,30 517,40 " style="fill:#4d15d8; stroke-width:1; stroke:black; " description="&lt;b&gt;LLPMBPKK_06775&lt;/b&gt;&lt;br&gt;1-deoxy-D-xylulose-5-phosphate synthase&lt;br&gt;Location: 7810521 - 7812420" locus_tag="LLPMBPKK_06775" class="clusterblast-orf" id="dummy-29_q17_0_all"  />
<polygon points="553,40 574,40 579,35 574,30 553,30 553,40 " style="fill:#d81569; stroke-width:1; stroke:black; " description="&lt;b&gt;LLPMBPKK_06776&lt;/b&gt;&lt;br&gt;aspartate aminotransferase family protein&lt;br&gt;Location: 7812416 - 7813802" locus_tag="LLPMBPKK_06776" class="clusterblast-orf" id="dummy-29_q18_0_all"  />
<polygon points="579,35 584,30 585,30 585,40 584,40 579,35 " style="fill:white; stroke-width:1; stroke:black; " description="&lt;b&gt;LLPMBPKK_06777&lt;/b&gt;&lt;br&gt;hypothetical protein&lt;br&gt;Location: 7813812 - 7814088" locus_tag="LLPMBPKK_06777" class="clusterblast-orf" id="dummy-29_q19_0_all"  />
<polygon points="587,40 594,40 599,35 594,30 587,30 587,40 " style="fill:#a1d815; stroke-width:1; stroke:black; " description="&lt;b&gt;LLPMBPKK_06778&lt;/b&gt;&lt;br&gt;XRE family transcriptional regulator&lt;br&gt;Location: 7814226 - 7814856" locus_tag="LLPMBPKK_06778" class="clusterblast-orf" id="dummy-29_q20_0_all"  />
<polygon points="599,40 601,35 599,30 599,40 " style="fill:#15d8d8; stroke-width:1; stroke:black; " description="&lt;b&gt;LLPMBPKK_06779&lt;/b&gt;&lt;br&gt;small hydrophobic hypothetical protein&lt;br&gt;Location: 7814852 - 7814975" locus_tag="LLPMBPKK_06779" class="clusterblast-orf" id="dummy-29_q21_0_all"  />
<polygon points="602,40 612,40 617,35 612,30 602,30 602,40 " style="fill:white; stroke-width:1; stroke:black; " description="&lt;b&gt;LLPMBPKK_06780&lt;/b&gt;&lt;br&gt;hypothetical protein&lt;br&gt;Location: 7815004 - 7815805" locus_tag="LLPMBPKK_06780" class="clusterblast-orf" id="dummy-29_q22_0_all"  />
<polygon points="618,35 623,30 633,30 633,40 623,40 618,35 " style="fill:white; stroke-width:1; stroke:black; " description="&lt;b&gt;LLPMBPKK_06781&lt;/b&gt;&lt;br&gt;tyrosine-protein phosphatase&lt;br&gt;Location: 7815818 - 7816616" locus_tag="LLPMBPKK_06781" class="clusterblast-orf" id="dummy-29_q23_0_all"  />
</g>
<g label="BGC0001140" description="BGC0001140_c1: platensimycin/platencin/thioplatensimycin/thioplatencin (8% of genes show similarity), Terpene" class="clusterblast-cluster"  >
<text x="5" y="70" class="clusterblast-acc"  >
<a xlink:href="https://mibig.secondarymetabolites.org/go/BGC0001140/1" target="_blank">BGC0001140</a>:                          platensimycin/platencin/thioplatensimycin/thioplatencin (8% of genes show similarity), Terpene</text>
<line x1="10" y1="85" x2="778.0" y2="85" style="stroke-width:1; stroke:grey; "  />
</g>
<g id="a29_000"  >
<polygon points="0,85 5,80 14,80 14,90 5,90 0,85 " style="fill:white; stroke-width:1; stroke:black; " description="&lt;b&gt;ACO31265.1&lt;/b&gt;&lt;br&gt;Ptm01&lt;br&gt;Location: 98 - 862" locus_tag="ACO31265.1" class="clusterblast-orf" id="dummy-29_h29_5_0"  />
</g>
<g id="a29_001"  >
<polygon points="14,85 19,80 25,80 25,90 19,90 14,85 " style="fill:white; stroke-width:1; stroke:black; " description="&lt;b&gt;ACO31266.1&lt;/b&gt;&lt;br&gt;PtmU1&lt;br&gt;Location: 859 - 1413" locus_tag="ACO31266.1" class="clusterblast-orf" id="dummy-29_h29_5_1"  />
</g>
<g id="a29_002"  >
<polygon points="26,90 46,90 51,85 46,80 26,80 26,90 " style="fill:white; stroke-width:1; stroke:black; " description="&lt;b&gt;ACO31267.1&lt;/b&gt;&lt;br&gt;PtmA1&lt;br&gt;Location: 1500 - 2804" locus_tag="ACO31267.1" class="clusterblast-orf" id="dummy-29_h29_5_2"  />
</g>
<g id="a29_003"  >
<polygon points="51,90 59,90 64,85 59,80 51,80 51,90 " style="fill:white; stroke-width:1; stroke:black; " description="&lt;b&gt;ACO31268.1&lt;/b&gt;&lt;br&gt;PtmU2&lt;br&gt;Location: 2801 - 3511" locus_tag="ACO31268.1" class="clusterblast-orf" id="dummy-29_h29_5_3"  />
</g>
<g id="a29_004"  >
<polygon points="65,85 70,80 73,80 73,90 70,90 65,85 " style="fill:white; stroke-width:1; stroke:black; " description="&lt;b&gt;ACO31269.1&lt;/b&gt;&lt;br&gt;PtmR2&lt;br&gt;Location: 3557 - 3958" locus_tag="ACO31269.1" class="clusterblast-orf" id="dummy-29_h29_5_4"  />
</g>
<g id="a29_005"  >
<polygon points="73,85 78,80 95,80 95,90 78,90 73,85 " style="fill:white; stroke-width:1; stroke:black; " description="&lt;b&gt;ACO31270.1&lt;/b&gt;&lt;br&gt;PtmD&lt;br&gt;Location: 3958 - 5115" locus_tag="ACO31270.1" class="clusterblast-orf" id="dummy-29_h29_5_5"  />
</g>
<g id="a29_006"  >
<polygon points="95,85 100,80 125,80 125,90 100,90 95,85 " style="fill:white; stroke-width:1; stroke:black; " description="&lt;b&gt;ACO31271.1&lt;/b&gt;&lt;br&gt;PtmA2&lt;br&gt;Location: 5117 - 6685" locus_tag="ACO31271.1" class="clusterblast-orf" id="dummy-29_h29_5_6"  />
</g>
<g id="a29_007"  >
<polygon points="125,85 130,80 146,80 146,90 130,90 125,85 " style="fill:white; stroke-width:1; stroke:black; " description="&lt;b&gt;ACO31272.1&lt;/b&gt;&lt;br&gt;PtmU3&lt;br&gt;Location: 6714 - 7796" locus_tag="ACO31272.1" class="clusterblast-orf" id="dummy-29_h29_5_7"  />
</g>
<g id="a29_008"  >
<polygon points="148,85 153,80 164,80 164,90 153,90 148,85 " style="fill:white; stroke-width:1; stroke:black; " description="&lt;b&gt;ACO31273.1&lt;/b&gt;&lt;br&gt;PtmH&lt;br&gt;Location: 7878 - 8732" locus_tag="ACO31273.1" class="clusterblast-orf" id="dummy-29_h29_5_8"  />
</g>
<g id="a29_009"  >
<polygon points="165,85 170,80 183,80 183,90 170,90 165,85 " style="fill:white; stroke-width:1; stroke:black; " description="&lt;b&gt;ACO31274.1&lt;/b&gt;&lt;br&gt;PtmT1&lt;br&gt;Location: 8797 - 9723" locus_tag="ACO31274.1" class="clusterblast-orf" id="dummy-29_h29_5_9"  />
</g>
<g id="a29_0010"  >
<polygon points="183,85 188,80 208,80 208,90 188,90 183,85 " style="fill:white; stroke-width:1; stroke:black; " description="&lt;b&gt;ACO31275.1&lt;/b&gt;&lt;br&gt;PtmO2&lt;br&gt;Location: 9720 - 11042" locus_tag="ACO31275.1" class="clusterblast-orf" id="dummy-29_h29_5_10"  />
</g>
<g id="a29_0011"  >
<polygon points="208,85 213,80 238,80 238,90 213,90 208,85 " style="fill:white; stroke-width:1; stroke:black; " description="&lt;b&gt;ACO31276.1&lt;/b&gt;&lt;br&gt;PtmT2&lt;br&gt;Location: 11042 - 12643" locus_tag="ACO31276.1" class="clusterblast-orf" id="dummy-29_h29_5_11"  />
</g>
<g id="a29_0012"  >
<polygon points="241,90 252,90 257,85 252,80 241,80 241,90 " style="fill:white; stroke-width:1; stroke:black; " description="&lt;b&gt;ACO31277.1&lt;/b&gt;&lt;br&gt;PtmO3&lt;br&gt;Location: 12781 - 13638" locus_tag="ACO31277.1" class="clusterblast-orf" id="dummy-29_h29_5_12"  />
</g>
<g id="a29_0013"  >
<polygon points="257,90 274,90 279,85 274,80 257,80 257,90 " style="fill:white; stroke-width:1; stroke:black; " description="&lt;b&gt;ACO31278.1&lt;/b&gt;&lt;br&gt;PtmO4&lt;br&gt;Location: 13638 - 14804" locus_tag="ACO31278.1" class="clusterblast-orf" id="dummy-29_h29_5_13"  />
</g>
<g id="a29_0014"  >
<polygon points="279,90 292,90 297,85 292,80 279,80 279,90 " style="fill:white; stroke-width:1; stroke:black; " description="&lt;b&gt;ACO31279.1&lt;/b&gt;&lt;br&gt;PtmT3&lt;br&gt;Location: 14801 - 15730" locus_tag="ACO31279.1" class="clusterblast-orf" id="dummy-29_h29_5_14"  />
</g>
<g id="a29_0015"  >
<polygon points="298,90 317,90 322,85 317,80 298,80 298,90 " style="fill:white; stroke-width:1; stroke:black; " description="&lt;b&gt;ACO31280.1&lt;/b&gt;&lt;br&gt;PtmO5&lt;br&gt;Location: 15771 - 17063" locus_tag="ACO31280.1" class="clusterblast-orf" id="dummy-29_h29_5_15"  />
</g>
<g id="a29_0016"  >
<polygon points="322,90 338,90 343,85 338,80 322,80 322,90 " style="fill:white; stroke-width:1; stroke:black; " description="&lt;b&gt;ACO31281.1&lt;/b&gt;&lt;br&gt;PtmR3&lt;br&gt;Location: 17060 - 18127" locus_tag="ACO31281.1" class="clusterblast-orf" id="dummy-29_h29_5_16"  />
</g>
<g id="a29_0017"  >
<polygon points="344,90 355,90 360,85 355,80 344,80 344,90 " style="fill:white; stroke-width:1; stroke:black; " description="&lt;b&gt;ACO31282.1&lt;/b&gt;&lt;br&gt;PtmO6&lt;br&gt;Location: 18215 - 19057" locus_tag="ACO31282.1" class="clusterblast-orf" id="dummy-29_h29_5_17"  />
</g>
<g id="a29_0018"  >
<polygon points="361,90 376,90 381,85 376,80 361,80 361,90 " style="fill:#15d831; stroke-width:1; stroke:black; " description="&lt;b&gt;ACO31283.1&lt;/b&gt;&lt;br&gt;GGDP synthase&lt;br&gt;Location: 19114 - 20160&lt;br&gt;&lt;br&gt;&lt;b&gt;BlastP hit with LLPMBPKK_06770&lt;/b&gt;&lt;br&gt;Percentage identity: 47&lt;br&gt;Percentage coverage: 88&lt;br&gt;BLAST bit score: 266&lt;br&gt;E-value: 2.2e-86" locus_tag="ACO31283.1" class="clusterblast-orf" id="dummy-29_h29_5_18"  />
</g>
<g id="a29_0019"  >
<polygon points="381,90 402,90 407,85 402,80 381,80 381,90 " style="fill:white; stroke-width:1; stroke:black; " description="&lt;b&gt;ACO31284.1&lt;/b&gt;&lt;br&gt;HMBDP reductase&lt;br&gt;Location: 20160 - 21506" locus_tag="ACO31284.1" class="clusterblast-orf" id="dummy-29_h29_5_19"  />
</g>
<g id="a29_0020"  >
<polygon points="407,90 423,90 428,85 423,80 407,80 407,90 " style="fill:#15d885; stroke-width:1; stroke:black; " description="&lt;b&gt;ACO31285.1&lt;/b&gt;&lt;br&gt;HMBDP synthase&lt;br&gt;Location: 21514 - 22614&lt;br&gt;&lt;br&gt;&lt;b&gt;BlastP hit with LLPMBPKK_06774&lt;/b&gt;&lt;br&gt;Percentage identity: 82&lt;br&gt;Percentage coverage: 93&lt;br&gt;BLAST bit score: 559&lt;br&gt;E-value: 1.13e-201" locus_tag="ACO31285.1" class="clusterblast-orf" id="dummy-29_h29_5_20"  />
</g>
<g id="a29_0021"  >
<polygon points="428,90 456,90 461,85 456,80 428,80 428,90 " style="fill:#4d15d8; stroke-width:1; stroke:black; " description="&lt;b&gt;ACO31286.1&lt;/b&gt;&lt;br&gt;DXP synthase&lt;br&gt;Location: 22601 - 24364&lt;br&gt;&lt;br&gt;&lt;b&gt;BlastP hit with LLPMBPKK_06775&lt;/b&gt;&lt;br&gt;Percentage identity: 59&lt;br&gt;Percentage coverage: 98&lt;br&gt;BLAST bit score: 677&lt;br&gt;E-value: 1.19e-240" locus_tag="ACO31286.1" class="clusterblast-orf" id="dummy-29_h29_5_21"  />
</g>
<g id="a29_0022"  >
<polygon points="463,90 474,90 479,85 474,80 463,80 463,90 " style="fill:white; stroke-width:1; stroke:black; " description="&lt;b&gt;ACO31287.1&lt;/b&gt;&lt;br&gt;ADHOHP synthase&lt;br&gt;Location: 24442 - 25275" locus_tag="ACO31287.1" class="clusterblast-orf" id="dummy-29_h29_5_22"  />
</g>
<g id="a29_0023"  >
<polygon points="480,90 496,90 501,85 496,80 480,80 480,90 " style="fill:white; stroke-width:1; stroke:black; " description="&lt;b&gt;ACO31288.1&lt;/b&gt;&lt;br&gt;ADHOHP synthase&lt;br&gt;Location: 25327 - 26433" locus_tag="ACO31288.1" class="clusterblast-orf" id="dummy-29_h29_5_23"  />
</g>
<g id="a29_0024"  >
<polygon points="501,90 519,90 524,85 519,80 501,80 501,90 " style="fill:white; stroke-width:1; stroke:black; " description="&lt;b&gt;ACO31289.1&lt;/b&gt;&lt;br&gt;PtmB3&lt;br&gt;Location: 26439 - 27629" locus_tag="ACO31289.1" class="clusterblast-orf" id="dummy-29_h29_5_24"  />
</g>
<g id="a29_0025"  >
<polygon points="525,90 536,90 541,85 536,80 525,80 525,90 " style="fill:white; stroke-width:1; stroke:black; " description="&lt;b&gt;ACO31290.1&lt;/b&gt;&lt;br&gt;PtmC&lt;br&gt;Location: 27688 - 28563" locus_tag="ACO31290.1" class="clusterblast-orf" id="dummy-29_h29_5_25"  />
</g>
<g id="a29_0026"  >
<polygon points="543,85 548,80 570,80 570,90 548,90 543,85 " style="fill:white; stroke-width:1; stroke:black; " description="&lt;b&gt;ACO31291.1&lt;/b&gt;&lt;br&gt;PtmP1&lt;br&gt;Location: 28649 - 30073" locus_tag="ACO31291.1" class="clusterblast-orf" id="dummy-29_h29_5_26"  />
</g>
<g id="a29_0027"  >
<polygon points="571,90 590,90 595,85 590,80 571,80 571,90 " style="fill:white; stroke-width:1; stroke:black; " description="&lt;b&gt;ACO31292.1&lt;/b&gt;&lt;br&gt;PtmP2&lt;br&gt;Location: 30145 - 31389" locus_tag="ACO31292.1" class="clusterblast-orf" id="dummy-29_h29_5_27"  />
</g>
<g id="a29_0028"  >
<polygon points="595,90 608,90 613,85 608,80 595,80 595,90 " style="fill:white; stroke-width:1; stroke:black; " description="&lt;b&gt;ACO31293.1&lt;/b&gt;&lt;br&gt;PtmO7&lt;br&gt;Location: 31404 - 32309" locus_tag="ACO31293.1" class="clusterblast-orf" id="dummy-29_h29_5_28"  />
</g>
<g id="a29_0029"  >
<polygon points="613,85 618,80 627,80 627,90 618,90 613,85 " style="fill:white; stroke-width:1; stroke:black; " description="&lt;b&gt;ACO31294.1&lt;/b&gt;&lt;br&gt;PtmR1&lt;br&gt;Location: 32342 - 33058" locus_tag="ACO31294.1" class="clusterblast-orf" id="dummy-29_h29_5_29"  />
</g>
<g id="a29_0030"  >
<polygon points="632,90 643,90 648,85 643,80 632,80 632,90 " style="fill:white; stroke-width:1; stroke:black; " description="&lt;b&gt;ACO31295.1&lt;/b&gt;&lt;br&gt;PtmO8&lt;br&gt;Location: 33350 - 34186" locus_tag="ACO31295.1" class="clusterblast-orf" id="dummy-29_h29_5_30"  />
</g>
<g id="a29_0031"  >
<polygon points="648,90 677,90 682,85 677,80 648,80 648,90 " style="fill:white; stroke-width:1; stroke:black; " description="&lt;b&gt;ACO31296.1&lt;/b&gt;&lt;br&gt;PtmU4&lt;br&gt;Location: 34183 - 35973" locus_tag="ACO31296.1" class="clusterblast-orf" id="dummy-29_h29_5_31"  />
</g>
<g id="a29_0032"  >
<polygon points="683,90 708,90 713,85 708,80 683,80 683,90 " style="fill:white; stroke-width:1; stroke:black; " description="&lt;b&gt;ACO31297.1&lt;/b&gt;&lt;br&gt;PtmA3&lt;br&gt;Location: 36012 - 37595" locus_tag="ACO31297.1" class="clusterblast-orf" id="dummy-29_h29_5_32"  />
</g>
<g id="a29_0033"  >
<polygon points="716,90 735,90 740,85 735,80 716,80 716,90 " style="fill:white; stroke-width:1; stroke:black; " description="&lt;b&gt;ACS13710.1&lt;/b&gt;&lt;br&gt;Resistance gene&lt;br&gt;Location: 37763 - 38977" locus_tag="ACS13710.1" class="clusterblast-orf" id="dummy-29_h29_5_33"  />
</g>
<g id="a29_0034"  >
<polygon points="742,90 768,90 773,85 768,80 742,80 742,90 " style="fill:white; stroke-width:1; stroke:black; " description="&lt;b&gt;ACS13711.1&lt;/b&gt;&lt;br&gt;PtmP4&lt;br&gt;Location: 39095 - 40717" locus_tag="ACS13711.1" class="clusterblast-orf" id="dummy-29_h29_5_34"  />
</g>
<g id="a29_0035"  >
<polygon points="773,90 775,90 780,85 775,80 773,80 773,90 " style="fill:white; stroke-width:1; stroke:black; " description="&lt;b&gt;ACS13712.1&lt;/b&gt;&lt;br&gt;PtmO9&lt;br&gt;Location: 40741 - 41076" locus_tag="ACS13712.1" class="clusterblast-orf" id="dummy-29_h29_5_35"  />
</g>
</svg>
