<svg xmlns="http://www.w3.org/2000/svg" xmlns:xlink="http://www.w3.org/1999/xlink" version="1.1" x="0" y="0" height="230" width="800" viewBox="0 0 800 230" preserveAspectRatio="none"  >
<g label="Query sequence" class="clusterblast-cluster"  >
<text x="5" y="20" class="clusterblast-acc"  >
Query sequence</text>
<line x1="10" y1="35" x2="778.0" y2="35" style="stroke-width:1; stroke:grey; "  />
<polygon points="0,35 5,30 11,30 11,40 5,40 0,35 " style="fill:white; stroke-width:1; stroke:black; " description="&lt;b&gt;LLPMBPKK_02624&lt;/b&gt;&lt;br&gt;esterase&lt;br&gt;Location: 3040870 - 3042052" locus_tag="LLPMBPKK_02624" class="clusterblast-orf" id="dummy-14_q0_0_all"  />
<polygon points="11,35 16,30 24,30 24,40 16,40 11,35 " style="fill:white; stroke-width:1; stroke:black; " description="&lt;b&gt;LLPMBPKK_02625&lt;/b&gt;&lt;br&gt;Bcr/CflA family efflux MFS transporter&lt;br&gt;Location: 3041991 - 3043305" locus_tag="LLPMBPKK_02625" class="clusterblast-orf" id="dummy-14_q1_0_all"  />
<polygon points="25,40 31,40 36,35 31,30 25,30 25,40 " style="fill:white; stroke-width:1; stroke:black; " description="&lt;b&gt;LLPMBPKK_02626&lt;/b&gt;&lt;br&gt;Gfo/Idh/MocA family oxidoreductase&lt;br&gt;Location: 3043420 - 3044488" locus_tag="LLPMBPKK_02626" class="clusterblast-orf" id="dummy-14_q2_0_all"  />
<polygon points="36,40 39,40 44,35 39,30 36,30 36,40 " style="fill:white; stroke-width:1; stroke:black; " description="&lt;b&gt;LLPMBPKK_02627&lt;/b&gt;&lt;br&gt;SDR family oxidoreductase&lt;br&gt;Location: 3044544 - 3045303" locus_tag="LLPMBPKK_02627" class="clusterblast-orf" id="dummy-14_q3_0_all"  />
<polygon points="46,35 51,30 58,30 58,40 51,40 46,35 " style="fill:white; stroke-width:1; stroke:black; " description="&lt;b&gt;LLPMBPKK_02628&lt;/b&gt;&lt;br&gt;D-alanyl-D-alanine carboxypeptidase&lt;br&gt;Location: 3045532 - 3046732" locus_tag="LLPMBPKK_02628" class="clusterblast-orf" id="dummy-14_q4_0_all"  />
<polygon points="60,35 65,30 70,30 70,40 65,40 60,35 " style="fill:white; stroke-width:1; stroke:black; " description="&lt;b&gt;LLPMBPKK_02629&lt;/b&gt;&lt;br&gt;aldo/keto reductase&lt;br&gt;Location: 3046922 - 3047903" locus_tag="LLPMBPKK_02629" class="clusterblast-orf" id="dummy-14_q5_0_all"  />
<polygon points="71,35 74,30 74,40 71,35 " style="fill:white; stroke-width:1; stroke:black; " description="&lt;b&gt;LLPMBPKK_02630&lt;/b&gt;&lt;br&gt;hypothetical protein&lt;br&gt;Location: 3047957 - 3048284" locus_tag="LLPMBPKK_02630" class="clusterblast-orf" id="dummy-14_q6_0_all"  />
<polygon points="75,40 76,40 81,35 76,30 75,30 75,40 " style="fill:white; stroke-width:1; stroke:black; " description="&lt;b&gt;LLPMBPKK_02631&lt;/b&gt;&lt;br&gt;DoxX family membrane protein&lt;br&gt;Location: 3048412 - 3048958" locus_tag="LLPMBPKK_02631" class="clusterblast-orf" id="dummy-14_q7_0_all"  />
<polygon points="112,40 116,40 121,35 116,30 112,30 112,40 " style="fill:white; stroke-width:1; stroke:black; " description="&lt;b&gt;LLPMBPKK_02633&lt;/b&gt;&lt;br&gt;SARP family pathway specific regulatory protein&lt;br&gt;Location: 3052124 - 3052937" locus_tag="LLPMBPKK_02633" class="clusterblast-orf" id="dummy-14_q8_0_all"  />
<polygon points="121,40 122,40 127,35 122,30 121,30 121,40 " style="fill:white; stroke-width:1; stroke:black; " description="&lt;b&gt;LLPMBPKK_02634&lt;/b&gt;&lt;br&gt;hypothetical protein&lt;br&gt;Location: 3052984 - 3053599" locus_tag="LLPMBPKK_02634" class="clusterblast-orf" id="dummy-14_q9_0_all"  />
<polygon points="128,35 133,30 134,30 134,40 133,40 128,35 " style="fill:white; stroke-width:1; stroke:black; " description="&lt;b&gt;LLPMBPKK_02635&lt;/b&gt;&lt;br&gt;response regulator transcription factor&lt;br&gt;Location: 3053664 - 3054273" locus_tag="LLPMBPKK_02635" class="clusterblast-orf" id="dummy-14_q10_0_all"  />
<polygon points="135,35 140,30 147,30 147,40 140,40 135,35 " style="fill:white; stroke-width:1; stroke:black; " description="&lt;b&gt;LLPMBPKK_02636&lt;/b&gt;&lt;br&gt;two-component system histidine kinase&lt;br&gt;Location: 3054353 - 3055583" locus_tag="LLPMBPKK_02636" class="clusterblast-orf" id="dummy-14_q11_0_all"  />
<polygon points="148,35 153,30 155,30 155,40 153,40 148,35 " style="fill:white; stroke-width:1; stroke:black; " description="&lt;b&gt;LLPMBPKK_02637&lt;/b&gt;&lt;br&gt;response regulator transcription factor&lt;br&gt;Location: 3055699 - 3056347" locus_tag="LLPMBPKK_02637" class="clusterblast-orf" id="dummy-14_q12_0_all"  />
<polygon points="155,35 160,30 167,30 167,40 160,40 155,35 " style="fill:white; stroke-width:1; stroke:black; " description="&lt;b&gt;LLPMBPKK_02638&lt;/b&gt;&lt;br&gt;sensor histidine kinase&lt;br&gt;Location: 3056404 - 3057598" locus_tag="LLPMBPKK_02638" class="clusterblast-orf" id="dummy-14_q13_0_all"  />
<polygon points="168,35 173,30 190,30 190,40 173,40 168,35 " style="fill:#d81515; stroke-width:1; stroke:black; " description="&lt;b&gt;LLPMBPKK_02639&lt;/b&gt;&lt;br&gt;membrane protein&lt;br&gt;Location: 3057650 - 3059855" locus_tag="LLPMBPKK_02639" class="clusterblast-orf" id="dummy-14_q14_0_all"  />
<polygon points="191,35 196,30 200,30 200,40 196,40 191,35 " style="fill:#5cd815; stroke-width:1; stroke:black; " description="&lt;b&gt;LLPMBPKK_02640&lt;/b&gt;&lt;br&gt;kinase&lt;br&gt;Location: 3059942 - 3060836" locus_tag="LLPMBPKK_02640" class="clusterblast-orf" id="dummy-14_q15_0_all"  />
<polygon points="200,35 205,30 233,30 233,40 205,40 200,35 " style="fill:#15c7d8; stroke-width:1; stroke:black; " description="&lt;b&gt;LLPMBPKK_02641&lt;/b&gt;&lt;br&gt;amino acid adenylation domain-containing protein&lt;br&gt;Location: 3060832 - 3064153" locus_tag="LLPMBPKK_02641" class="clusterblast-orf" id="dummy-14_q16_0_all"  />
<polygon points="233,35 238,30 245,30 245,40 238,40 233,35 " style="fill:#8015d8; stroke-width:1; stroke:black; " description="&lt;b&gt;LLPMBPKK_02642&lt;/b&gt;&lt;br&gt;argininosuccinate lyase&lt;br&gt;Location: 3064149 - 3065394" locus_tag="LLPMBPKK_02642" class="clusterblast-orf" id="dummy-14_q17_0_all"  />
<polygon points="246,35 251,30 261,30 261,40 251,40 246,35 " style="fill:#d83915; stroke-width:1; stroke:black; " description="&lt;b&gt;LLPMBPKK_02643&lt;/b&gt;&lt;br&gt;argininosuccinate lyase&lt;br&gt;Location: 3065465 - 3066932" locus_tag="LLPMBPKK_02643" class="clusterblast-orf" id="dummy-14_q18_0_all"  />
<polygon points="261,35 266,30 272,30 272,40 266,40 261,35 " style="fill:#39d815; stroke-width:1; stroke:black; " description="&lt;b&gt;LLPMBPKK_02644&lt;/b&gt;&lt;br&gt;cystathionine beta-synthase/cysteine synthase&lt;br&gt;Location: 3066928 - 3068008" locus_tag="LLPMBPKK_02644" class="clusterblast-orf" id="dummy-14_q19_0_all"  />
<polygon points="274,40 276,40 281,35 276,30 274,30 274,40 " style="fill:#15a3d8; stroke-width:1; stroke:black; " description="&lt;b&gt;LLPMBPKK_02645&lt;/b&gt;&lt;br&gt;thioesterase&lt;br&gt;Location: 3068211 - 3068961" locus_tag="LLPMBPKK_02645" class="clusterblast-orf" id="dummy-14_q20_0_all"  />
<polygon points="281,35 286,30 295,30 295,40 286,40 281,35 " style="fill:#a315d8; stroke-width:1; stroke:black; " description="&lt;b&gt;LLPMBPKK_02646&lt;/b&gt;&lt;br&gt;3-deoxy-7-phosphoheptulonate synthase class II&lt;br&gt;Location: 3068987 - 3070364" locus_tag="LLPMBPKK_02646" class="clusterblast-orf" id="dummy-14_q21_0_all"  />
<polygon points="298,40 308,40 313,35 308,30 298,30 298,40 " style="fill:#d85c15; stroke-width:1; stroke:black; " description="&lt;b&gt;LLPMBPKK_02647&lt;/b&gt;&lt;br&gt;anthranilate synthase component I family protein&lt;br&gt;Location: 3070592 - 3072113" locus_tag="LLPMBPKK_02647" class="clusterblast-orf" id="dummy-14_q22_0_all"  />
<polygon points="313,40 314,40 319,35 314,30 313,30 313,40 " style="fill:#15d815; stroke-width:1; stroke:black; " description="&lt;b&gt;LLPMBPKK_02648&lt;/b&gt;&lt;br&gt;aminodeoxychorismate/anthranilate synthasecomponent II&lt;br&gt;Location: 3072127 - 3072709" locus_tag="LLPMBPKK_02648" class="clusterblast-orf" id="dummy-14_q23_0_all"  />
<polygon points="319,35 324,30 333,30 333,40 324,40 319,35 " style="fill:#1580d8; stroke-width:1; stroke:black; " description="&lt;b&gt;LLPMBPKK_02649&lt;/b&gt;&lt;br&gt;PLP-dependent aminotransferase family protein&lt;br&gt;Location: 3072714 - 3074097" locus_tag="LLPMBPKK_02649" class="clusterblast-orf" id="dummy-14_q24_0_all"  />
<polygon points="334,40 340,40 345,35 340,30 334,30 334,40 " style="fill:#c715d8; stroke-width:1; stroke:black; " description="&lt;b&gt;LLPMBPKK_02650&lt;/b&gt;&lt;br&gt;anthranilate phosphoribosyltransferase&lt;br&gt;Location: 3074247 - 3075312" locus_tag="LLPMBPKK_02650" class="clusterblast-orf" id="dummy-14_q25_0_all"  />
<polygon points="347,35 352,30 355,30 355,40 352,40 347,35 " style="fill:#d88015; stroke-width:1; stroke:black; " description="&lt;b&gt;LLPMBPKK_02651&lt;/b&gt;&lt;br&gt;indole-3-glycerol-phosphate synthase&lt;br&gt;Location: 3075536 - 3076322" locus_tag="LLPMBPKK_02651" class="clusterblast-orf" id="dummy-14_q26_0_all"  />
<polygon points="356,35 361,30 365,30 365,40 361,40 356,35 " style="fill:#15d839; stroke-width:1; stroke:black; " description="&lt;b&gt;LLPMBPKK_02652&lt;/b&gt;&lt;br&gt;TauD/TfdA family dioxygenase&lt;br&gt;Location: 3076408 - 3077359" locus_tag="LLPMBPKK_02652" class="clusterblast-orf" id="dummy-14_q27_0_all"  />
<polygon points="365,35 370,30 378,30 378,40 370,40 365,35 " style="fill:#155cd8; stroke-width:1; stroke:black; " description="&lt;b&gt;LLPMBPKK_02653&lt;/b&gt;&lt;br&gt;cytochrome P450&lt;br&gt;Location: 3077360 - 3078608" locus_tag="LLPMBPKK_02653" class="clusterblast-orf" id="dummy-14_q28_0_all"  />
<polygon points="378,35 383,30 387,30 387,40 383,40 378,35 " style="fill:#d815c7; stroke-width:1; stroke:black; " description="&lt;b&gt;LLPMBPKK_02654&lt;/b&gt;&lt;br&gt;ABC transporter&lt;br&gt;Location: 3078625 - 3079501" locus_tag="LLPMBPKK_02654" class="clusterblast-orf" id="dummy-14_q29_0_all"  />
<polygon points="389,35 394,30 502,30 502,40 394,40 389,35 " style="fill:#d8a315; stroke-width:1; stroke:black; " description="&lt;b&gt;LLPMBPKK_02655&lt;/b&gt;&lt;br&gt;non-ribosomal peptide synthetase&lt;br&gt;Location: 3079676 - 3091022" locus_tag="LLPMBPKK_02655" class="clusterblast-orf" id="dummy-14_q30_0_all"  />
<polygon points="503,35 508,30 510,30 510,40 508,40 503,35 " style="fill:#15d85c; stroke-width:1; stroke:black; " description="&lt;b&gt;LLPMBPKK_02656&lt;/b&gt;&lt;br&gt;2-hydroxychromene-2-carboxylate isomerase&lt;br&gt;Location: 3091108 - 3091813" locus_tag="LLPMBPKK_02656" class="clusterblast-orf" id="dummy-14_q31_0_all"  />
<polygon points="511,35 516,30 518,30 518,40 516,40 511,35 " style="fill:#1539d8; stroke-width:1; stroke:black; " description="&lt;b&gt;LLPMBPKK_02657&lt;/b&gt;&lt;br&gt;SDR family oxidoreductase&lt;br&gt;Location: 3091863 - 3092610" locus_tag="LLPMBPKK_02657" class="clusterblast-orf" id="dummy-14_q32_0_all"  />
<polygon points="519,35 524,30 530,30 530,40 524,40 519,35 " style="fill:#d815a3; stroke-width:1; stroke:black; " description="&lt;b&gt;LLPMBPKK_02658&lt;/b&gt;&lt;br&gt;3-oxoacyl-ACP synthase I&lt;br&gt;Location: 3092672 - 3093761" locus_tag="LLPMBPKK_02658" class="clusterblast-orf" id="dummy-14_q33_0_all"  />
<polygon points="530,35 535,30 543,30 543,40 535,40 530,35 " style="fill:#d8c715; stroke-width:1; stroke:black; " description="&lt;b&gt;LLPMBPKK_02659&lt;/b&gt;&lt;br&gt;beta-ketoacyl-[acyl-carrier-protein] synthasefamily protein&lt;br&gt;Location: 3093760 - 3095032" locus_tag="LLPMBPKK_02659" class="clusterblast-orf" id="dummy-14_q34_0_all"  />
<polygon points="543,35 546,30 546,40 543,35 " style="fill:#15d880; stroke-width:1; stroke:black; " description="&lt;b&gt;LLPMBPKK_02660&lt;/b&gt;&lt;br&gt;acyl carrier protein&lt;br&gt;Location: 3095064 - 3095343" locus_tag="LLPMBPKK_02660" class="clusterblast-orf" id="dummy-14_q35_0_all"  />
<polygon points="547,35 552,30 556,30 556,40 552,40 547,35 " style="fill:#1515d8; stroke-width:1; stroke:black; " description="&lt;b&gt;LLPMBPKK_02661&lt;/b&gt;&lt;br&gt;LysR family transcriptional regulator&lt;br&gt;Location: 3095421 - 3096372" locus_tag="LLPMBPKK_02661" class="clusterblast-orf" id="dummy-14_q36_0_all"  />
<polygon points="559,35 564,30 567,30 567,40 564,40 559,35 " style="fill:#d81580; stroke-width:1; stroke:black; " description="&lt;b&gt;LLPMBPKK_02662&lt;/b&gt;&lt;br&gt;SARP family transcriptional regulator&lt;br&gt;Location: 3096695 - 3097481" locus_tag="LLPMBPKK_02662" class="clusterblast-orf" id="dummy-14_q37_0_all"  />
<polygon points="570,40 581,40 586,35 581,30 570,30 570,40 " style="fill:#c7d815; stroke-width:1; stroke:black; " description="&lt;b&gt;LLPMBPKK_02663&lt;/b&gt;&lt;br&gt;tryptophan 7-halogenase&lt;br&gt;Location: 3097785 - 3099336" locus_tag="LLPMBPKK_02663" class="clusterblast-orf" id="dummy-14_q38_0_all"  />
<polygon points="586,40 594,40 599,35 594,30 586,30 586,40 " style="fill:#15d8a3; stroke-width:1; stroke:black; " description="&lt;b&gt;LLPMBPKK_02664&lt;/b&gt;&lt;br&gt;cation/H(+) antiporter&lt;br&gt;Location: 3099363 - 3100656" locus_tag="LLPMBPKK_02664" class="clusterblast-orf" id="dummy-14_q39_0_all"  />
<polygon points="599,40 599,40 604,35 599,30 599,30 599,40 " style="fill:#3915d8; stroke-width:1; stroke:black; " description="&lt;b&gt;LLPMBPKK_02665&lt;/b&gt;&lt;br&gt;flavin reductase&lt;br&gt;Location: 3100652 - 3101177" locus_tag="LLPMBPKK_02665" class="clusterblast-orf" id="dummy-14_q40_0_all"  />
<polygon points="605,40 608,40 613,35 608,30 605,30 605,40 " style="fill:#d8155c; stroke-width:1; stroke:black; " description="&lt;b&gt;LLPMBPKK_02666&lt;/b&gt;&lt;br&gt;peptide ABC transporter ATPase&lt;br&gt;Location: 3101265 - 3102063" locus_tag="LLPMBPKK_02666" class="clusterblast-orf" id="dummy-14_q41_0_all"  />
<polygon points="613,40 633,40 638,35 633,30 613,30 613,40 " style="fill:#a3d815; stroke-width:1; stroke:black; " description="&lt;b&gt;LLPMBPKK_02667&lt;/b&gt;&lt;br&gt;ABC transporter permease&lt;br&gt;Location: 3102059 - 3104591" locus_tag="LLPMBPKK_02667" class="clusterblast-orf" id="dummy-14_q42_0_all"  />
<polygon points="639,35 644,30 649,30 649,40 644,40 639,35 " style="fill:#15d8c7; stroke-width:1; stroke:black; " description="&lt;b&gt;LLPMBPKK_02668&lt;/b&gt;&lt;br&gt;transcriptional regulator&lt;br&gt;Location: 3104670 - 3105693" locus_tag="LLPMBPKK_02668" class="clusterblast-orf" id="dummy-14_q43_0_all"  />
<polygon points="650,35 655,30 660,30 660,40 655,40 650,35 " style="fill:#5c15d8; stroke-width:1; stroke:black; " description="&lt;b&gt;LLPMBPKK_02669&lt;/b&gt;&lt;br&gt;multidrug ABC transporter ATPase&lt;br&gt;Location: 3105771 - 3106719" locus_tag="LLPMBPKK_02669" class="clusterblast-orf" id="dummy-14_q44_0_all"  />
<polygon points="660,35 662,30 662,40 660,35 " style="fill:#d81539; stroke-width:1; stroke:black; " description="&lt;b&gt;LLPMBPKK_02670&lt;/b&gt;&lt;br&gt;MbtH family protein&lt;br&gt;Location: 3106752 - 3106974" locus_tag="LLPMBPKK_02670" class="clusterblast-orf" id="dummy-14_q45_0_all"  />
<polygon points="664,35 669,30 679,30 679,40 669,40 664,35 " style="fill:#80d815; stroke-width:1; stroke:black; " description="&lt;b&gt;LLPMBPKK_02671&lt;/b&gt;&lt;br&gt;non-ribosomal peptide synthetase&lt;br&gt;Location: 3107091 - 3108651" locus_tag="LLPMBPKK_02671" class="clusterblast-orf" id="dummy-14_q46_0_all"  />
<polygon points="682,35 687,30 689,30 689,40 687,40 682,35 " style="fill:white; stroke-width:1; stroke:black; " description="&lt;b&gt;LLPMBPKK_02672&lt;/b&gt;&lt;br&gt;4'-phosphopantetheinyl transferase superfamilyprotein&lt;br&gt;Location: 3108909 - 3109626" locus_tag="LLPMBPKK_02672" class="clusterblast-orf" id="dummy-14_q47_0_all"  />
<polygon points="689,35 694,30 699,30 699,40 694,40 689,35 " style="fill:white; stroke-width:1; stroke:black; " description="&lt;b&gt;LLPMBPKK_02673&lt;/b&gt;&lt;br&gt;alpha/beta hydrolase fold protein&lt;br&gt;Location: 3109622 - 3110603" locus_tag="LLPMBPKK_02673" class="clusterblast-orf" id="dummy-14_q48_0_all"  />
<polygon points="699,35 704,30 706,30 706,40 704,40 699,35 " style="fill:white; stroke-width:1; stroke:black; " description="&lt;b&gt;LLPMBPKK_02674&lt;/b&gt;&lt;br&gt;tryptophan 2,3-dioxygenase&lt;br&gt;Location: 3110599 - 3111292" locus_tag="LLPMBPKK_02674" class="clusterblast-orf" id="dummy-14_q49_0_all"  />
<polygon points="709,40 711,35 709,30 709,40 " style="fill:white; stroke-width:1; stroke:black; " description="&lt;b&gt;LLPMBPKK_02675&lt;/b&gt;&lt;br&gt;hypothetical protein&lt;br&gt;Location: 3111645 - 3111846" locus_tag="LLPMBPKK_02675" class="clusterblast-orf" id="dummy-14_q50_0_all"  />
<polygon points="711,40 730,40 735,35 730,30 711,30 711,40 " style="fill:white; stroke-width:1; stroke:black; " description="&lt;b&gt;LLPMBPKK_02676&lt;/b&gt;&lt;br&gt;TOMM precursor leader peptide-binding protein&lt;br&gt;Location: 3111842 - 3114203" locus_tag="LLPMBPKK_02676" class="clusterblast-orf" id="dummy-14_q51_0_all"  />
<polygon points="736,40 740,35 736,30 736,40 " style="fill:white; stroke-width:1; stroke:black; " description="&lt;b&gt;LLPMBPKK_02677&lt;/b&gt;&lt;br&gt;hypothetical protein&lt;br&gt;Location: 3114308 - 3114755" locus_tag="LLPMBPKK_02677" class="clusterblast-orf" id="dummy-14_q52_0_all"  />
<polygon points="742,40 742,40 747,35 742,30 742,30 742,40 " style="fill:white; stroke-width:1; stroke:black; " description="&lt;b&gt;LLPMBPKK_02678&lt;/b&gt;&lt;br&gt;NUDIX domain-containing protein&lt;br&gt;Location: 3114939 - 3115461" locus_tag="LLPMBPKK_02678" class="clusterblast-orf" id="dummy-14_q53_0_all"  />
<polygon points="752,35 757,30 761,30 761,40 757,40 752,35 " style="fill:white; stroke-width:1; stroke:black; " description="&lt;b&gt;LLPMBPKK_02679&lt;/b&gt;&lt;br&gt;integral membrane protein&lt;br&gt;Location: 3115906 - 3116836" locus_tag="LLPMBPKK_02679" class="clusterblast-orf" id="dummy-14_q54_0_all"  />
<polygon points="761,35 766,30 770,30 770,40 766,40 761,35 " style="fill:white; stroke-width:1; stroke:black; " description="&lt;b&gt;LLPMBPKK_02680&lt;/b&gt;&lt;br&gt;AraC family transcriptional regulator&lt;br&gt;Location: 3116832 - 3117684" locus_tag="LLPMBPKK_02680" class="clusterblast-orf" id="dummy-14_q55_0_all"  />
<polygon points="772,40 775,40 780,35 775,30 772,30 772,40 " style="fill:white; stroke-width:1; stroke:black; " description="&lt;b&gt;LLPMBPKK_02681&lt;/b&gt;&lt;br&gt;MerR family transcriptional regulator&lt;br&gt;Location: 3117924 - 3118671" locus_tag="LLPMBPKK_02681" class="clusterblast-orf" id="dummy-14_q56_0_all"  />
</g>
<g label="BGC0002014" description="BGC0002014_c1: pepticinnamin E (29% of genes show similarity), NRP+Polyketide" class="clusterblast-cluster"  >
<text x="5" y="70" class="clusterblast-acc"  >
<a xlink:href="https://mibig.secondarymetabolites.org/go/BGC0002014/1" target="_blank">BGC0002014</a>:                                                                  pepticinnamin E (29% of genes show similarity), NRP+Polyketide</text>
<line x1="10" y1="85" x2="778.0" y2="85" style="stroke-width:1; stroke:grey; "  />
</g>
<g id="a14_000"  >
<polygon points="165,85 170,80 179,80 179,90 170,90 165,85 " style="fill:white; stroke-width:1; stroke:black; " description="&lt;b&gt;OK006_RS36610&lt;/b&gt;&lt;br&gt;cation:proton antiporter&lt;br&gt;Location: 44694 - 43351" locus_tag="OK006_RS36610" class="clusterblast-orf" id="dummy-14_h14_9_0"  />
</g>
<g id="a14_001"  >
<polygon points="181,85 186,80 296,80 296,90 186,90 181,85 " style="fill:white; stroke-width:1; stroke:black; " description="&lt;b&gt;OK006_RS36605&lt;/b&gt;&lt;br&gt;non-ribosomal peptide synthetase&lt;br&gt;Location: 43095 - 31663" locus_tag="OK006_RS36605" class="clusterblast-orf" id="dummy-14_h14_9_1"  />
</g>
<g id="a14_002"  >
<polygon points="300,90 304,85 300,80 300,90 " style="fill:white; stroke-width:1; stroke:black; " description="&lt;b&gt;OK006_RS36600&lt;/b&gt;&lt;br&gt;DUF6191 domain-containing protein&lt;br&gt;Location: 31231 - 30830" locus_tag="OK006_RS36600" class="clusterblast-orf" id="dummy-14_h14_9_2"  />
</g>
<g id="a14_003"  >
<polygon points="308,90 308,90 313,85 308,80 308,80 308,90 " style="fill:white; stroke-width:1; stroke:black; " description="&lt;b&gt;OK006_RS36595&lt;/b&gt;&lt;br&gt;DUF3995 domain-containing protein&lt;br&gt;Location: 30512 - 30018" locus_tag="OK006_RS36595" class="clusterblast-orf" id="dummy-14_h14_9_3"  />
</g>
<g id="a14_004"  >
<polygon points="314,90 322,90 327,85 322,80 314,80 314,90 " style="fill:white; stroke-width:1; stroke:black; " description="&lt;b&gt;OK006_RS36590&lt;/b&gt;&lt;br&gt;NB-ARC domain-containing protein&lt;br&gt;Location: 29877 - 28555" locus_tag="OK006_RS36590" class="clusterblast-orf" id="dummy-14_h14_9_4"  />
</g>
<g id="a14_005"  >
<polygon points="327,85 332,80 333,80 333,90 332,90 327,85 " style="fill:white; stroke-width:1; stroke:black; " description="&lt;b&gt;OK006_RS36585&lt;/b&gt;&lt;br&gt;hypothetical protein&lt;br&gt;Location: 28537 - 27998" locus_tag="OK006_RS36585" class="clusterblast-orf" id="dummy-14_h14_9_5"  />
</g>
<g id="a14_006"  >
<polygon points="333,85 337,80 337,90 333,85 " style="fill:white; stroke-width:1; stroke:black; " description="&lt;b&gt;OK006_RS58495&lt;/b&gt;&lt;br&gt;hypothetical protein&lt;br&gt;Location: 28001 - 27552" locus_tag="OK006_RS58495" class="clusterblast-orf" id="dummy-14_h14_9_6"  />
</g>
<g id="a14_007"  >
<polygon points="337,85 341,80 341,90 337,85 " style="fill:white; stroke-width:1; stroke:black; " description="&lt;b&gt;OK006_RS58490&lt;/b&gt;&lt;br&gt;DsrE family protein&lt;br&gt;Location: 27555 - 27172" locus_tag="OK006_RS58490" class="clusterblast-orf" id="dummy-14_h14_9_7"  />
</g>
<g id="a14_008"  >
<polygon points="341,85 345,80 345,90 341,85 " style="fill:white; stroke-width:1; stroke:black; " description="&lt;b&gt;OK006_RS36570&lt;/b&gt;&lt;br&gt;DsrE family protein&lt;br&gt;Location: 27171 - 26758" locus_tag="OK006_RS36570" class="clusterblast-orf" id="dummy-14_h14_9_8"  />
</g>
<g id="a14_009"  >
<polygon points="345,85 349,80 349,90 345,85 " style="fill:white; stroke-width:1; stroke:black; " description="&lt;b&gt;OK006_RS36565&lt;/b&gt;&lt;br&gt;hypothetical protein&lt;br&gt;Location: 26755 - 26420" locus_tag="OK006_RS36565" class="clusterblast-orf" id="dummy-14_h14_9_9"  />
</g>
<g id="a14_0010"  >
<polygon points="349,85 351,80 351,90 349,85 " style="fill:white; stroke-width:1; stroke:black; " description="&lt;b&gt;OK006_RS36560&lt;/b&gt;&lt;br&gt;acyl carrier protein&lt;br&gt;Location: 26423 - 26166" locus_tag="OK006_RS36560" class="clusterblast-orf" id="dummy-14_h14_9_10"  />
</g>
<g id="a14_0011"  >
<polygon points="352,85 357,80 359,80 359,90 357,90 352,85 " style="fill:#15d85c; stroke-width:1; stroke:black; " description="&lt;b&gt;OK006_RS36555&lt;/b&gt;&lt;br&gt;DsbA family protein&lt;br&gt;Location: 26124 - 25408&lt;br&gt;&lt;br&gt;&lt;b&gt;BlastP hit with LLPMBPKK_02656&lt;/b&gt;&lt;br&gt;Percentage identity: 50&lt;br&gt;Percentage coverage: 103&lt;br&gt;BLAST bit score: 242&lt;br&gt;E-value: 1.07e-80" locus_tag="OK006_RS36555" class="clusterblast-orf" id="dummy-14_h14_9_11"  />
</g>
<g id="a14_0012"  >
<polygon points="359,85 364,80 367,80 367,90 364,90 359,85 " style="fill:#1539d8; stroke-width:1; stroke:black; " description="&lt;b&gt;OK006_RS36550&lt;/b&gt;&lt;br&gt;3-oxoacyl-ACP reductase FabG&lt;br&gt;Location: 25380 - 24634&lt;br&gt;&lt;br&gt;&lt;b&gt;BlastP hit with LLPMBPKK_02657&lt;/b&gt;&lt;br&gt;Percentage identity: 55&lt;br&gt;Percentage coverage: 99&lt;br&gt;BLAST bit score: 261&lt;br&gt;E-value: 9.19e-88" locus_tag="OK006_RS36550" class="clusterblast-orf" id="dummy-14_h14_9_12"  />
</g>
<g id="a14_0013"  >
<polygon points="367,85 372,80 378,80 378,90 372,90 367,85 " style="fill:#d815a3; stroke-width:1; stroke:black; " description="&lt;b&gt;OK006_RS36545&lt;/b&gt;&lt;br&gt;hypothetical protein&lt;br&gt;Location: 24549 - 23506&lt;br&gt;&lt;br&gt;&lt;b&gt;BlastP hit with LLPMBPKK_02658&lt;/b&gt;&lt;br&gt;Percentage identity: 46&lt;br&gt;Percentage coverage: 99&lt;br&gt;BLAST bit score: 257&lt;br&gt;E-value: 3.74e-83" locus_tag="OK006_RS36545" class="clusterblast-orf" id="dummy-14_h14_9_13"  />
</g>
<g id="a14_0014"  >
<polygon points="378,85 383,80 388,80 388,90 383,90 378,85 " style="fill:white; stroke-width:1; stroke:black; " description="&lt;b&gt;OK006_RS36540&lt;/b&gt;&lt;br&gt;hypothetical protein&lt;br&gt;Location: 23509 - 22499" locus_tag="OK006_RS36540" class="clusterblast-orf" id="dummy-14_h14_9_14"  />
</g>
<g id="a14_0015"  >
<polygon points="388,85 393,80 397,80 397,90 393,90 388,85 " style="fill:white; stroke-width:1; stroke:black; " description="&lt;b&gt;OK006_RS36535&lt;/b&gt;&lt;br&gt;alpha/beta hydrolase&lt;br&gt;Location: 22499 - 21612" locus_tag="OK006_RS36535" class="clusterblast-orf" id="dummy-14_h14_9_15"  />
</g>
<g id="a14_0016"  >
<polygon points="397,85 402,80 407,80 407,90 402,90 397,85 " style="fill:white; stroke-width:1; stroke:black; " description="&lt;b&gt;OK006_RS36530&lt;/b&gt;&lt;br&gt;hypothetical protein&lt;br&gt;Location: 21615 - 20617" locus_tag="OK006_RS36530" class="clusterblast-orf" id="dummy-14_h14_9_16"  />
</g>
<g id="a14_0017"  >
<polygon points="407,85 412,80 418,80 418,90 412,90 407,85 " style="fill:white; stroke-width:1; stroke:black; " description="&lt;b&gt;OK006_RS36525&lt;/b&gt;&lt;br&gt;3-oxoacyl-ACP synthase&lt;br&gt;Location: 20620 - 19478" locus_tag="OK006_RS36525" class="clusterblast-orf" id="dummy-14_h14_9_17"  />
</g>
<g id="a14_0018"  >
<polygon points="418,85 423,80 431,80 431,90 423,90 418,85 " style="fill:#d8c715; stroke-width:1; stroke:black; " description="&lt;b&gt;OK006_RS36520&lt;/b&gt;&lt;br&gt;beta-ketoacyl-[acyl-carrier-protein] synthase family protein&lt;br&gt;Location: 19481 - 18255&lt;br&gt;&lt;br&gt;&lt;b&gt;BlastP hit with LLPMBPKK_02659&lt;/b&gt;&lt;br&gt;Percentage identity: 66&lt;br&gt;Percentage coverage: 94&lt;br&gt;BLAST bit score: 526&lt;br&gt;E-value: 3.91e-187" locus_tag="OK006_RS36520" class="clusterblast-orf" id="dummy-14_h14_9_18"  />
</g>
<g id="a14_0019"  >
<polygon points="431,85 433,80 433,90 431,85 " style="fill:#15d880; stroke-width:1; stroke:black; " description="&lt;b&gt;OK006_RS36515&lt;/b&gt;&lt;br&gt;acyl carrier protein&lt;br&gt;Location: 18224 - 17967&lt;br&gt;&lt;br&gt;&lt;b&gt;BlastP hit with LLPMBPKK_02660&lt;/b&gt;&lt;br&gt;Percentage identity: 60&lt;br&gt;Percentage coverage: 73&lt;br&gt;BLAST bit score: 77&lt;br&gt;E-value: 6.38e-20" locus_tag="OK006_RS36515" class="clusterblast-orf" id="dummy-14_h14_9_19"  />
</g>
<g id="a14_0020"  >
<polygon points="436,90 439,90 444,85 439,80 436,80 436,90 " style="fill:white; stroke-width:1; stroke:black; " description="&lt;b&gt;OK006_RS36510&lt;/b&gt;&lt;br&gt;hypothetical protein&lt;br&gt;Location: 17694 - 16936" locus_tag="OK006_RS36510" class="clusterblast-orf" id="dummy-14_h14_9_20"  />
</g>
<g id="a14_0021"  >
<polygon points="444,90 446,90 451,85 446,80 444,80 444,90 " style="fill:white; stroke-width:1; stroke:black; " description="&lt;b&gt;OK006_RS36505&lt;/b&gt;&lt;br&gt;class I SAM-dependent methyltransferase&lt;br&gt;Location: 16898 - 16236" locus_tag="OK006_RS36505" class="clusterblast-orf" id="dummy-14_h14_9_21"  />
</g>
<g id="a14_0022"  >
<polygon points="451,85 456,80 468,80 468,90 456,90 451,85 " style="fill:white; stroke-width:1; stroke:black; " description="&lt;b&gt;OK006_RS36500&lt;/b&gt;&lt;br&gt;NAD(P)/FAD-dependent oxidoreductase&lt;br&gt;Location: 16213 - 14501" locus_tag="OK006_RS36500" class="clusterblast-orf" id="dummy-14_h14_9_22"  />
</g>
<g id="a14_0023"  >
<polygon points="468,85 473,80 479,80 479,90 473,90 468,85 " style="fill:#d815a3; stroke-width:1; stroke:black; " description="&lt;b&gt;OK006_RS36495&lt;/b&gt;&lt;br&gt;hypothetical protein&lt;br&gt;Location: 14504 - 13428&lt;br&gt;&lt;br&gt;&lt;b&gt;BlastP hit with LLPMBPKK_02658&lt;/b&gt;&lt;br&gt;Percentage identity: 49&lt;br&gt;Percentage coverage: 99&lt;br&gt;BLAST bit score: 271&lt;br&gt;E-value: 1.01e-88" locus_tag="OK006_RS36495" class="clusterblast-orf" id="dummy-14_h14_9_23"  />
</g>
<g id="a14_0024"  >
<polygon points="479,85 484,80 491,80 491,90 484,90 479,85 " style="fill:#d8c715; stroke-width:1; stroke:black; " description="&lt;b&gt;OK006_RS36490&lt;/b&gt;&lt;br&gt;beta-ketoacyl-[acyl-carrier-protein] synthase family protein&lt;br&gt;Location: 13431 - 12190&lt;br&gt;&lt;br&gt;&lt;b&gt;BlastP hit with LLPMBPKK_02659&lt;/b&gt;&lt;br&gt;Percentage identity: 66&lt;br&gt;Percentage coverage: 95&lt;br&gt;BLAST bit score: 529&lt;br&gt;E-value: 2.84e-188" locus_tag="OK006_RS36490" class="clusterblast-orf" id="dummy-14_h14_9_24"  />
</g>
<g id="a14_0025"  >
<polygon points="493,90 498,90 503,85 498,80 493,80 493,90 " style="fill:#5c15d8; stroke-width:1; stroke:black; " description="&lt;b&gt;OK006_RS36485&lt;/b&gt;&lt;br&gt;ATP-binding cassette domain-containing protein&lt;br&gt;Location: 12024 - 11038&lt;br&gt;&lt;br&gt;&lt;b&gt;BlastP hit with LLPMBPKK_02669&lt;/b&gt;&lt;br&gt;Percentage identity: 60&lt;br&gt;Percentage coverage: 96&lt;br&gt;BLAST bit score: 339&lt;br&gt;E-value: 2.57e-116" locus_tag="OK006_RS36485" class="clusterblast-orf" id="dummy-14_h14_9_25"  />
</g>
<g id="a14_0026"  >
<polygon points="503,90 506,90 511,85 506,80 503,80 503,90 " style="fill:white; stroke-width:1; stroke:black; " description="&lt;b&gt;OK006_RS36480&lt;/b&gt;&lt;br&gt;ABC transporter permease&lt;br&gt;Location: 11041 - 10238" locus_tag="OK006_RS36480" class="clusterblast-orf" id="dummy-14_h14_9_26"  />
</g>
<g id="a14_0027"  >
<polygon points="512,85 517,80 517,80 517,90 517,90 512,85 " style="fill:white; stroke-width:1; stroke:black; " description="&lt;b&gt;OK006_RS36475&lt;/b&gt;&lt;br&gt;enediyne antibiotic chromoprotein&lt;br&gt;Location: 10109 - 9666" locus_tag="OK006_RS36475" class="clusterblast-orf" id="dummy-14_h14_9_27"  />
</g>
<g id="a14_0028"  >
<polygon points="520,90 522,85 520,80 520,90 " style="fill:#d81539; stroke-width:1; stroke:black; " description="&lt;b&gt;OK006_RS36470&lt;/b&gt;&lt;br&gt;MbtH family protein&lt;br&gt;Location: 9355 - 9152&lt;br&gt;&lt;br&gt;&lt;b&gt;BlastP hit with LLPMBPKK_02670&lt;/b&gt;&lt;br&gt;Percentage identity: 67&lt;br&gt;Percentage coverage: 86&lt;br&gt;BLAST bit score: 103&lt;br&gt;E-value: 8.2e-31" locus_tag="OK006_RS36470" class="clusterblast-orf" id="dummy-14_h14_9_28"  />
</g>
<g id="a14_0029"  >
<polygon points="522,90 593,90 598,85 593,80 522,80 522,90 " style="fill:white; stroke-width:1; stroke:black; " description="&lt;b&gt;OK006_RS36465&lt;/b&gt;&lt;br&gt;non-ribosomal peptide synthetase&lt;br&gt;Location: 9109 - 1577" locus_tag="OK006_RS36465" class="clusterblast-orf" id="dummy-14_h14_9_29"  />
</g>
<g id="a14_0030"  >
<polygon points="598,90 609,90 614,85 609,80 598,80 598,90 " style="fill:white; stroke-width:1; stroke:black; " description="&lt;b&gt;OK006_RS36460&lt;/b&gt;&lt;br&gt;tryptophan 7-halogenase&lt;br&gt;Location: 1569 - 1" locus_tag="OK006_RS36460" class="clusterblast-orf" id="dummy-14_h14_9_30"  />
</g>
</svg>
