<svg xmlns="http://www.w3.org/2000/svg" xmlns:xlink="http://www.w3.org/1999/xlink" version="1.1" x="0" y="0" height="230" width="800" viewBox="0 0 800 230" preserveAspectRatio="none"  >
<g label="Query sequence" class="clusterblast-cluster"  >
<text x="5" y="20" class="clusterblast-acc"  >
Query sequence</text>
<line x1="10" y1="35" x2="778.0" y2="35" style="stroke-width:1; stroke:grey; "  />
<polygon points="0,35 5,30 11,30 11,40 5,40 0,35 " style="fill:white; stroke-width:1; stroke:black; " description="&lt;b&gt;LLPMBPKK_02624&lt;/b&gt;&lt;br&gt;esterase&lt;br&gt;Location: 3040870 - 3042052" locus_tag="LLPMBPKK_02624" class="clusterblast-orf" id="dummy-14_q0_0_all"  />
<polygon points="11,35 16,30 24,30 24,40 16,40 11,35 " style="fill:white; stroke-width:1; stroke:black; " description="&lt;b&gt;LLPMBPKK_02625&lt;/b&gt;&lt;br&gt;Bcr/CflA family efflux MFS transporter&lt;br&gt;Location: 3041991 - 3043305" locus_tag="LLPMBPKK_02625" class="clusterblast-orf" id="dummy-14_q1_0_all"  />
<polygon points="25,40 31,40 36,35 31,30 25,30 25,40 " style="fill:white; stroke-width:1; stroke:black; " description="&lt;b&gt;LLPMBPKK_02626&lt;/b&gt;&lt;br&gt;Gfo/Idh/MocA family oxidoreductase&lt;br&gt;Location: 3043420 - 3044488" locus_tag="LLPMBPKK_02626" class="clusterblast-orf" id="dummy-14_q2_0_all"  />
<polygon points="36,40 39,40 44,35 39,30 36,30 36,40 " style="fill:white; stroke-width:1; stroke:black; " description="&lt;b&gt;LLPMBPKK_02627&lt;/b&gt;&lt;br&gt;SDR family oxidoreductase&lt;br&gt;Location: 3044544 - 3045303" locus_tag="LLPMBPKK_02627" class="clusterblast-orf" id="dummy-14_q3_0_all"  />
<polygon points="46,35 51,30 58,30 58,40 51,40 46,35 " style="fill:white; stroke-width:1; stroke:black; " description="&lt;b&gt;LLPMBPKK_02628&lt;/b&gt;&lt;br&gt;D-alanyl-D-alanine carboxypeptidase&lt;br&gt;Location: 3045532 - 3046732" locus_tag="LLPMBPKK_02628" class="clusterblast-orf" id="dummy-14_q4_0_all"  />
<polygon points="60,35 65,30 70,30 70,40 65,40 60,35 " style="fill:white; stroke-width:1; stroke:black; " description="&lt;b&gt;LLPMBPKK_02629&lt;/b&gt;&lt;br&gt;aldo/keto reductase&lt;br&gt;Location: 3046922 - 3047903" locus_tag="LLPMBPKK_02629" class="clusterblast-orf" id="dummy-14_q5_0_all"  />
<polygon points="71,35 74,30 74,40 71,35 " style="fill:white; stroke-width:1; stroke:black; " description="&lt;b&gt;LLPMBPKK_02630&lt;/b&gt;&lt;br&gt;hypothetical protein&lt;br&gt;Location: 3047957 - 3048284" locus_tag="LLPMBPKK_02630" class="clusterblast-orf" id="dummy-14_q6_0_all"  />
<polygon points="75,40 76,40 81,35 76,30 75,30 75,40 " style="fill:white; stroke-width:1; stroke:black; " description="&lt;b&gt;LLPMBPKK_02631&lt;/b&gt;&lt;br&gt;DoxX family membrane protein&lt;br&gt;Location: 3048412 - 3048958" locus_tag="LLPMBPKK_02631" class="clusterblast-orf" id="dummy-14_q7_0_all"  />
<polygon points="112,40 116,40 121,35 116,30 112,30 112,40 " style="fill:white; stroke-width:1; stroke:black; " description="&lt;b&gt;LLPMBPKK_02633&lt;/b&gt;&lt;br&gt;SARP family pathway specific regulatory protein&lt;br&gt;Location: 3052124 - 3052937" locus_tag="LLPMBPKK_02633" class="clusterblast-orf" id="dummy-14_q8_0_all"  />
<polygon points="121,40 122,40 127,35 122,30 121,30 121,40 " style="fill:white; stroke-width:1; stroke:black; " description="&lt;b&gt;LLPMBPKK_02634&lt;/b&gt;&lt;br&gt;hypothetical protein&lt;br&gt;Location: 3052984 - 3053599" locus_tag="LLPMBPKK_02634" class="clusterblast-orf" id="dummy-14_q9_0_all"  />
<polygon points="128,35 133,30 134,30 134,40 133,40 128,35 " style="fill:white; stroke-width:1; stroke:black; " description="&lt;b&gt;LLPMBPKK_02635&lt;/b&gt;&lt;br&gt;response regulator transcription factor&lt;br&gt;Location: 3053664 - 3054273" locus_tag="LLPMBPKK_02635" class="clusterblast-orf" id="dummy-14_q10_0_all"  />
<polygon points="135,35 140,30 147,30 147,40 140,40 135,35 " style="fill:white; stroke-width:1; stroke:black; " description="&lt;b&gt;LLPMBPKK_02636&lt;/b&gt;&lt;br&gt;two-component system histidine kinase&lt;br&gt;Location: 3054353 - 3055583" locus_tag="LLPMBPKK_02636" class="clusterblast-orf" id="dummy-14_q11_0_all"  />
<polygon points="148,35 153,30 155,30 155,40 153,40 148,35 " style="fill:white; stroke-width:1; stroke:black; " description="&lt;b&gt;LLPMBPKK_02637&lt;/b&gt;&lt;br&gt;response regulator transcription factor&lt;br&gt;Location: 3055699 - 3056347" locus_tag="LLPMBPKK_02637" class="clusterblast-orf" id="dummy-14_q12_0_all"  />
<polygon points="155,35 160,30 167,30 167,40 160,40 155,35 " style="fill:white; stroke-width:1; stroke:black; " description="&lt;b&gt;LLPMBPKK_02638&lt;/b&gt;&lt;br&gt;sensor histidine kinase&lt;br&gt;Location: 3056404 - 3057598" locus_tag="LLPMBPKK_02638" class="clusterblast-orf" id="dummy-14_q13_0_all"  />
<polygon points="168,35 173,30 190,30 190,40 173,40 168,35 " style="fill:#d81515; stroke-width:1; stroke:black; " description="&lt;b&gt;LLPMBPKK_02639&lt;/b&gt;&lt;br&gt;membrane protein&lt;br&gt;Location: 3057650 - 3059855" locus_tag="LLPMBPKK_02639" class="clusterblast-orf" id="dummy-14_q14_0_all"  />
<polygon points="191,35 196,30 200,30 200,40 196,40 191,35 " style="fill:#5cd815; stroke-width:1; stroke:black; " description="&lt;b&gt;LLPMBPKK_02640&lt;/b&gt;&lt;br&gt;kinase&lt;br&gt;Location: 3059942 - 3060836" locus_tag="LLPMBPKK_02640" class="clusterblast-orf" id="dummy-14_q15_0_all"  />
<polygon points="200,35 205,30 233,30 233,40 205,40 200,35 " style="fill:#15c7d8; stroke-width:1; stroke:black; " description="&lt;b&gt;LLPMBPKK_02641&lt;/b&gt;&lt;br&gt;amino acid adenylation domain-containing protein&lt;br&gt;Location: 3060832 - 3064153" locus_tag="LLPMBPKK_02641" class="clusterblast-orf" id="dummy-14_q16_0_all"  />
<polygon points="233,35 238,30 245,30 245,40 238,40 233,35 " style="fill:#8015d8; stroke-width:1; stroke:black; " description="&lt;b&gt;LLPMBPKK_02642&lt;/b&gt;&lt;br&gt;argininosuccinate lyase&lt;br&gt;Location: 3064149 - 3065394" locus_tag="LLPMBPKK_02642" class="clusterblast-orf" id="dummy-14_q17_0_all"  />
<polygon points="246,35 251,30 261,30 261,40 251,40 246,35 " style="fill:#d83915; stroke-width:1; stroke:black; " description="&lt;b&gt;LLPMBPKK_02643&lt;/b&gt;&lt;br&gt;argininosuccinate lyase&lt;br&gt;Location: 3065465 - 3066932" locus_tag="LLPMBPKK_02643" class="clusterblast-orf" id="dummy-14_q18_0_all"  />
<polygon points="261,35 266,30 272,30 272,40 266,40 261,35 " style="fill:#39d815; stroke-width:1; stroke:black; " description="&lt;b&gt;LLPMBPKK_02644&lt;/b&gt;&lt;br&gt;cystathionine beta-synthase/cysteine synthase&lt;br&gt;Location: 3066928 - 3068008" locus_tag="LLPMBPKK_02644" class="clusterblast-orf" id="dummy-14_q19_0_all"  />
<polygon points="274,40 276,40 281,35 276,30 274,30 274,40 " style="fill:#15a3d8; stroke-width:1; stroke:black; " description="&lt;b&gt;LLPMBPKK_02645&lt;/b&gt;&lt;br&gt;thioesterase&lt;br&gt;Location: 3068211 - 3068961" locus_tag="LLPMBPKK_02645" class="clusterblast-orf" id="dummy-14_q20_0_all"  />
<polygon points="281,35 286,30 295,30 295,40 286,40 281,35 " style="fill:#a315d8; stroke-width:1; stroke:black; " description="&lt;b&gt;LLPMBPKK_02646&lt;/b&gt;&lt;br&gt;3-deoxy-7-phosphoheptulonate synthase class II&lt;br&gt;Location: 3068987 - 3070364" locus_tag="LLPMBPKK_02646" class="clusterblast-orf" id="dummy-14_q21_0_all"  />
<polygon points="298,40 308,40 313,35 308,30 298,30 298,40 " style="fill:#d85c15; stroke-width:1; stroke:black; " description="&lt;b&gt;LLPMBPKK_02647&lt;/b&gt;&lt;br&gt;anthranilate synthase component I family protein&lt;br&gt;Location: 3070592 - 3072113" locus_tag="LLPMBPKK_02647" class="clusterblast-orf" id="dummy-14_q22_0_all"  />
<polygon points="313,40 314,40 319,35 314,30 313,30 313,40 " style="fill:#15d815; stroke-width:1; stroke:black; " description="&lt;b&gt;LLPMBPKK_02648&lt;/b&gt;&lt;br&gt;aminodeoxychorismate/anthranilate synthasecomponent II&lt;br&gt;Location: 3072127 - 3072709" locus_tag="LLPMBPKK_02648" class="clusterblast-orf" id="dummy-14_q23_0_all"  />
<polygon points="319,35 324,30 333,30 333,40 324,40 319,35 " style="fill:#1580d8; stroke-width:1; stroke:black; " description="&lt;b&gt;LLPMBPKK_02649&lt;/b&gt;&lt;br&gt;PLP-dependent aminotransferase family protein&lt;br&gt;Location: 3072714 - 3074097" locus_tag="LLPMBPKK_02649" class="clusterblast-orf" id="dummy-14_q24_0_all"  />
<polygon points="334,40 340,40 345,35 340,30 334,30 334,40 " style="fill:#c715d8; stroke-width:1; stroke:black; " description="&lt;b&gt;LLPMBPKK_02650&lt;/b&gt;&lt;br&gt;anthranilate phosphoribosyltransferase&lt;br&gt;Location: 3074247 - 3075312" locus_tag="LLPMBPKK_02650" class="clusterblast-orf" id="dummy-14_q25_0_all"  />
<polygon points="347,35 352,30 355,30 355,40 352,40 347,35 " style="fill:#d88015; stroke-width:1; stroke:black; " description="&lt;b&gt;LLPMBPKK_02651&lt;/b&gt;&lt;br&gt;indole-3-glycerol-phosphate synthase&lt;br&gt;Location: 3075536 - 3076322" locus_tag="LLPMBPKK_02651" class="clusterblast-orf" id="dummy-14_q26_0_all"  />
<polygon points="356,35 361,30 365,30 365,40 361,40 356,35 " style="fill:#15d839; stroke-width:1; stroke:black; " description="&lt;b&gt;LLPMBPKK_02652&lt;/b&gt;&lt;br&gt;TauD/TfdA family dioxygenase&lt;br&gt;Location: 3076408 - 3077359" locus_tag="LLPMBPKK_02652" class="clusterblast-orf" id="dummy-14_q27_0_all"  />
<polygon points="365,35 370,30 378,30 378,40 370,40 365,35 " style="fill:#155cd8; stroke-width:1; stroke:black; " description="&lt;b&gt;LLPMBPKK_02653&lt;/b&gt;&lt;br&gt;cytochrome P450&lt;br&gt;Location: 3077360 - 3078608" locus_tag="LLPMBPKK_02653" class="clusterblast-orf" id="dummy-14_q28_0_all"  />
<polygon points="378,35 383,30 387,30 387,40 383,40 378,35 " style="fill:#d815c7; stroke-width:1; stroke:black; " description="&lt;b&gt;LLPMBPKK_02654&lt;/b&gt;&lt;br&gt;ABC transporter&lt;br&gt;Location: 3078625 - 3079501" locus_tag="LLPMBPKK_02654" class="clusterblast-orf" id="dummy-14_q29_0_all"  />
<polygon points="389,35 394,30 502,30 502,40 394,40 389,35 " style="fill:#d8a315; stroke-width:1; stroke:black; " description="&lt;b&gt;LLPMBPKK_02655&lt;/b&gt;&lt;br&gt;non-ribosomal peptide synthetase&lt;br&gt;Location: 3079676 - 3091022" locus_tag="LLPMBPKK_02655" class="clusterblast-orf" id="dummy-14_q30_0_all"  />
<polygon points="503,35 508,30 510,30 510,40 508,40 503,35 " style="fill:#15d85c; stroke-width:1; stroke:black; " description="&lt;b&gt;LLPMBPKK_02656&lt;/b&gt;&lt;br&gt;2-hydroxychromene-2-carboxylate isomerase&lt;br&gt;Location: 3091108 - 3091813" locus_tag="LLPMBPKK_02656" class="clusterblast-orf" id="dummy-14_q31_0_all"  />
<polygon points="511,35 516,30 518,30 518,40 516,40 511,35 " style="fill:#1539d8; stroke-width:1; stroke:black; " description="&lt;b&gt;LLPMBPKK_02657&lt;/b&gt;&lt;br&gt;SDR family oxidoreductase&lt;br&gt;Location: 3091863 - 3092610" locus_tag="LLPMBPKK_02657" class="clusterblast-orf" id="dummy-14_q32_0_all"  />
<polygon points="519,35 524,30 530,30 530,40 524,40 519,35 " style="fill:#d815a3; stroke-width:1; stroke:black; " description="&lt;b&gt;LLPMBPKK_02658&lt;/b&gt;&lt;br&gt;3-oxoacyl-ACP synthase I&lt;br&gt;Location: 3092672 - 3093761" locus_tag="LLPMBPKK_02658" class="clusterblast-orf" id="dummy-14_q33_0_all"  />
<polygon points="530,35 535,30 543,30 543,40 535,40 530,35 " style="fill:#d8c715; stroke-width:1; stroke:black; " description="&lt;b&gt;LLPMBPKK_02659&lt;/b&gt;&lt;br&gt;beta-ketoacyl-[acyl-carrier-protein] synthasefamily protein&lt;br&gt;Location: 3093760 - 3095032" locus_tag="LLPMBPKK_02659" class="clusterblast-orf" id="dummy-14_q34_0_all"  />
<polygon points="543,35 546,30 546,40 543,35 " style="fill:#15d880; stroke-width:1; stroke:black; " description="&lt;b&gt;LLPMBPKK_02660&lt;/b&gt;&lt;br&gt;acyl carrier protein&lt;br&gt;Location: 3095064 - 3095343" locus_tag="LLPMBPKK_02660" class="clusterblast-orf" id="dummy-14_q35_0_all"  />
<polygon points="547,35 552,30 556,30 556,40 552,40 547,35 " style="fill:#1515d8; stroke-width:1; stroke:black; " description="&lt;b&gt;LLPMBPKK_02661&lt;/b&gt;&lt;br&gt;LysR family transcriptional regulator&lt;br&gt;Location: 3095421 - 3096372" locus_tag="LLPMBPKK_02661" class="clusterblast-orf" id="dummy-14_q36_0_all"  />
<polygon points="559,35 564,30 567,30 567,40 564,40 559,35 " style="fill:#d81580; stroke-width:1; stroke:black; " description="&lt;b&gt;LLPMBPKK_02662&lt;/b&gt;&lt;br&gt;SARP family transcriptional regulator&lt;br&gt;Location: 3096695 - 3097481" locus_tag="LLPMBPKK_02662" class="clusterblast-orf" id="dummy-14_q37_0_all"  />
<polygon points="570,40 581,40 586,35 581,30 570,30 570,40 " style="fill:#c7d815; stroke-width:1; stroke:black; " description="&lt;b&gt;LLPMBPKK_02663&lt;/b&gt;&lt;br&gt;tryptophan 7-halogenase&lt;br&gt;Location: 3097785 - 3099336" locus_tag="LLPMBPKK_02663" class="clusterblast-orf" id="dummy-14_q38_0_all"  />
<polygon points="586,40 594,40 599,35 594,30 586,30 586,40 " style="fill:#15d8a3; stroke-width:1; stroke:black; " description="&lt;b&gt;LLPMBPKK_02664&lt;/b&gt;&lt;br&gt;cation/H(+) antiporter&lt;br&gt;Location: 3099363 - 3100656" locus_tag="LLPMBPKK_02664" class="clusterblast-orf" id="dummy-14_q39_0_all"  />
<polygon points="599,40 599,40 604,35 599,30 599,30 599,40 " style="fill:#3915d8; stroke-width:1; stroke:black; " description="&lt;b&gt;LLPMBPKK_02665&lt;/b&gt;&lt;br&gt;flavin reductase&lt;br&gt;Location: 3100652 - 3101177" locus_tag="LLPMBPKK_02665" class="clusterblast-orf" id="dummy-14_q40_0_all"  />
<polygon points="605,40 608,40 613,35 608,30 605,30 605,40 " style="fill:#d8155c; stroke-width:1; stroke:black; " description="&lt;b&gt;LLPMBPKK_02666&lt;/b&gt;&lt;br&gt;peptide ABC transporter ATPase&lt;br&gt;Location: 3101265 - 3102063" locus_tag="LLPMBPKK_02666" class="clusterblast-orf" id="dummy-14_q41_0_all"  />
<polygon points="613,40 633,40 638,35 633,30 613,30 613,40 " style="fill:#a3d815; stroke-width:1; stroke:black; " description="&lt;b&gt;LLPMBPKK_02667&lt;/b&gt;&lt;br&gt;ABC transporter permease&lt;br&gt;Location: 3102059 - 3104591" locus_tag="LLPMBPKK_02667" class="clusterblast-orf" id="dummy-14_q42_0_all"  />
<polygon points="639,35 644,30 649,30 649,40 644,40 639,35 " style="fill:#15d8c7; stroke-width:1; stroke:black; " description="&lt;b&gt;LLPMBPKK_02668&lt;/b&gt;&lt;br&gt;transcriptional regulator&lt;br&gt;Location: 3104670 - 3105693" locus_tag="LLPMBPKK_02668" class="clusterblast-orf" id="dummy-14_q43_0_all"  />
<polygon points="650,35 655,30 660,30 660,40 655,40 650,35 " style="fill:#5c15d8; stroke-width:1; stroke:black; " description="&lt;b&gt;LLPMBPKK_02669&lt;/b&gt;&lt;br&gt;multidrug ABC transporter ATPase&lt;br&gt;Location: 3105771 - 3106719" locus_tag="LLPMBPKK_02669" class="clusterblast-orf" id="dummy-14_q44_0_all"  />
<polygon points="660,35 662,30 662,40 660,35 " style="fill:#d81539; stroke-width:1; stroke:black; " description="&lt;b&gt;LLPMBPKK_02670&lt;/b&gt;&lt;br&gt;MbtH family protein&lt;br&gt;Location: 3106752 - 3106974" locus_tag="LLPMBPKK_02670" class="clusterblast-orf" id="dummy-14_q45_0_all"  />
<polygon points="664,35 669,30 679,30 679,40 669,40 664,35 " style="fill:#80d815; stroke-width:1; stroke:black; " description="&lt;b&gt;LLPMBPKK_02671&lt;/b&gt;&lt;br&gt;non-ribosomal peptide synthetase&lt;br&gt;Location: 3107091 - 3108651" locus_tag="LLPMBPKK_02671" class="clusterblast-orf" id="dummy-14_q46_0_all"  />
<polygon points="682,35 687,30 689,30 689,40 687,40 682,35 " style="fill:white; stroke-width:1; stroke:black; " description="&lt;b&gt;LLPMBPKK_02672&lt;/b&gt;&lt;br&gt;4'-phosphopantetheinyl transferase superfamilyprotein&lt;br&gt;Location: 3108909 - 3109626" locus_tag="LLPMBPKK_02672" class="clusterblast-orf" id="dummy-14_q47_0_all"  />
<polygon points="689,35 694,30 699,30 699,40 694,40 689,35 " style="fill:white; stroke-width:1; stroke:black; " description="&lt;b&gt;LLPMBPKK_02673&lt;/b&gt;&lt;br&gt;alpha/beta hydrolase fold protein&lt;br&gt;Location: 3109622 - 3110603" locus_tag="LLPMBPKK_02673" class="clusterblast-orf" id="dummy-14_q48_0_all"  />
<polygon points="699,35 704,30 706,30 706,40 704,40 699,35 " style="fill:white; stroke-width:1; stroke:black; " description="&lt;b&gt;LLPMBPKK_02674&lt;/b&gt;&lt;br&gt;tryptophan 2,3-dioxygenase&lt;br&gt;Location: 3110599 - 3111292" locus_tag="LLPMBPKK_02674" class="clusterblast-orf" id="dummy-14_q49_0_all"  />
<polygon points="709,40 711,35 709,30 709,40 " style="fill:white; stroke-width:1; stroke:black; " description="&lt;b&gt;LLPMBPKK_02675&lt;/b&gt;&lt;br&gt;hypothetical protein&lt;br&gt;Location: 3111645 - 3111846" locus_tag="LLPMBPKK_02675" class="clusterblast-orf" id="dummy-14_q50_0_all"  />
<polygon points="711,40 730,40 735,35 730,30 711,30 711,40 " style="fill:white; stroke-width:1; stroke:black; " description="&lt;b&gt;LLPMBPKK_02676&lt;/b&gt;&lt;br&gt;TOMM precursor leader peptide-binding protein&lt;br&gt;Location: 3111842 - 3114203" locus_tag="LLPMBPKK_02676" class="clusterblast-orf" id="dummy-14_q51_0_all"  />
<polygon points="736,40 740,35 736,30 736,40 " style="fill:white; stroke-width:1; stroke:black; " description="&lt;b&gt;LLPMBPKK_02677&lt;/b&gt;&lt;br&gt;hypothetical protein&lt;br&gt;Location: 3114308 - 3114755" locus_tag="LLPMBPKK_02677" class="clusterblast-orf" id="dummy-14_q52_0_all"  />
<polygon points="742,40 742,40 747,35 742,30 742,30 742,40 " style="fill:white; stroke-width:1; stroke:black; " description="&lt;b&gt;LLPMBPKK_02678&lt;/b&gt;&lt;br&gt;NUDIX domain-containing protein&lt;br&gt;Location: 3114939 - 3115461" locus_tag="LLPMBPKK_02678" class="clusterblast-orf" id="dummy-14_q53_0_all"  />
<polygon points="752,35 757,30 761,30 761,40 757,40 752,35 " style="fill:white; stroke-width:1; stroke:black; " description="&lt;b&gt;LLPMBPKK_02679&lt;/b&gt;&lt;br&gt;integral membrane protein&lt;br&gt;Location: 3115906 - 3116836" locus_tag="LLPMBPKK_02679" class="clusterblast-orf" id="dummy-14_q54_0_all"  />
<polygon points="761,35 766,30 770,30 770,40 766,40 761,35 " style="fill:white; stroke-width:1; stroke:black; " description="&lt;b&gt;LLPMBPKK_02680&lt;/b&gt;&lt;br&gt;AraC family transcriptional regulator&lt;br&gt;Location: 3116832 - 3117684" locus_tag="LLPMBPKK_02680" class="clusterblast-orf" id="dummy-14_q55_0_all"  />
<polygon points="772,40 775,40 780,35 775,30 772,30 772,40 " style="fill:white; stroke-width:1; stroke:black; " description="&lt;b&gt;LLPMBPKK_02681&lt;/b&gt;&lt;br&gt;MerR family transcriptional regulator&lt;br&gt;Location: 3117924 - 3118671" locus_tag="LLPMBPKK_02681" class="clusterblast-orf" id="dummy-14_q56_0_all"  />
</g>
<g label="BGC0001975" description="BGC0001975_c1: atratumycin (26% of genes show similarity), NRP" class="clusterblast-cluster"  >
<text x="5" y="70" class="clusterblast-acc"  >
<a xlink:href="https://mibig.secondarymetabolites.org/go/BGC0001975/1" target="_blank">BGC0001975</a>:                                                                      atratumycin (26% of genes show similarity), NRP</text>
<line x1="10" y1="85" x2="778.0" y2="85" style="stroke-width:1; stroke:grey; "  />
</g>
<g id="a14_000"  >
<polygon points="42,85 47,80 55,80 55,90 47,90 42,85 " style="fill:white; stroke-width:1; stroke:black; " description="&lt;b&gt;QBG38797.1&lt;/b&gt;&lt;br&gt;ErfK/YbiS/YcfS/YnhG family protein&lt;br&gt;Location: 69292 - 68048" locus_tag="QBG38797.1" class="clusterblast-orf" id="dummy-14_h14_4_0"  />
</g>
<g id="a14_001"  >
<polygon points="57,85 61,80 61,90 57,85 " style="fill:white; stroke-width:1; stroke:black; " description="&lt;b&gt;QBG38796.1&lt;/b&gt;&lt;br&gt;hypothetical protein&lt;br&gt;Location: 67795 - 67427" locus_tag="QBG38796.1" class="clusterblast-orf" id="dummy-14_h14_4_1"  />
</g>
<g id="a14_002"  >
<polygon points="62,90 65,85 62,80 62,90 " style="fill:white; stroke-width:1; stroke:black; " description="&lt;b&gt;QBG38795.1&lt;/b&gt;&lt;br&gt;hypothetical protein&lt;br&gt;Location: 67273 - 66986" locus_tag="QBG38795.1" class="clusterblast-orf" id="dummy-14_h14_4_2"  />
</g>
<g id="a14_003"  >
<polygon points="68,90 71,85 68,80 68,90 " style="fill:white; stroke-width:1; stroke:black; " description="&lt;b&gt;QBG38794.1&lt;/b&gt;&lt;br&gt;Atr32&lt;br&gt;Location: 66755 - 66372" locus_tag="QBG38794.1" class="clusterblast-orf" id="dummy-14_h14_4_3"  />
</g>
<g id="a14_004"  >
<polygon points="70,85 75,80 90,80 90,90 75,90 70,85 " style="fill:white; stroke-width:1; stroke:black; " description="&lt;b&gt;QBG38793.1&lt;/b&gt;&lt;br&gt;Atr32&lt;br&gt;Location: 66474 - 64471" locus_tag="QBG38793.1" class="clusterblast-orf" id="dummy-14_h14_4_4"  />
</g>
<g id="a14_005"  >
<polygon points="92,85 97,80 102,80 102,90 97,90 92,85 " style="fill:white; stroke-width:1; stroke:black; " description="&lt;b&gt;QBG38792.1&lt;/b&gt;&lt;br&gt;Atr31&lt;br&gt;Location: 64312 - 63287" locus_tag="QBG38792.1" class="clusterblast-orf" id="dummy-14_h14_4_5"  />
</g>
<g id="a14_006"  >
<polygon points="105,85 110,80 113,80 113,90 110,90 105,85 " style="fill:white; stroke-width:1; stroke:black; " description="&lt;b&gt;QBG38791.1&lt;/b&gt;&lt;br&gt;Atr30&lt;br&gt;Location: 62992 - 62204" locus_tag="QBG38791.1" class="clusterblast-orf" id="dummy-14_h14_4_6"  />
</g>
<g id="a14_007"  >
<polygon points="113,85 118,80 123,80 123,90 118,90 113,85 " style="fill:#5c15d8; stroke-width:1; stroke:black; " description="&lt;b&gt;QBG38790.1&lt;/b&gt;&lt;br&gt;Atr29&lt;br&gt;Location: 62207 - 61251&lt;br&gt;&lt;br&gt;&lt;b&gt;BlastP hit with LLPMBPKK_02669&lt;/b&gt;&lt;br&gt;Percentage identity: 63&lt;br&gt;Percentage coverage: 98&lt;br&gt;BLAST bit score: 361&lt;br&gt;E-value: 4.12e-125" locus_tag="QBG38790.1" class="clusterblast-orf" id="dummy-14_h14_4_7"  />
</g>
<g id="a14_008"  >
<polygon points="123,85 127,80 127,90 123,85 " style="fill:white; stroke-width:1; stroke:black; " description="&lt;b&gt;QBG38789.1&lt;/b&gt;&lt;br&gt;Atr28&lt;br&gt;Location: 61254 - 60790" locus_tag="QBG38789.1" class="clusterblast-orf" id="dummy-14_h14_4_8"  />
</g>
<g id="a14_009"  >
<polygon points="128,85 133,80 140,80 140,90 133,90 128,85 " style="fill:#155cd8; stroke-width:1; stroke:black; " description="&lt;b&gt;QBG38788.1&lt;/b&gt;&lt;br&gt;Atr27&lt;br&gt;Location: 60761 - 59490&lt;br&gt;&lt;br&gt;&lt;b&gt;BlastP hit with LLPMBPKK_02653&lt;/b&gt;&lt;br&gt;Percentage identity: 59&lt;br&gt;Percentage coverage: 96&lt;br&gt;BLAST bit score: 471&lt;br&gt;E-value: 2.54e-165" locus_tag="QBG38788.1" class="clusterblast-orf" id="dummy-14_h14_4_9"  />
</g>
<g id="a14_0010"  >
<polygon points="141,85 144,80 144,90 141,85 " style="fill:white; stroke-width:1; stroke:black; " description="&lt;b&gt;QBG38787.1&lt;/b&gt;&lt;br&gt;Atr26&lt;br&gt;Location: 59432 - 59106" locus_tag="QBG38787.1" class="clusterblast-orf" id="dummy-14_h14_4_10"  />
</g>
<g id="a14_0011"  >
<polygon points="144,85 149,80 154,80 154,90 149,90 144,85 " style="fill:white; stroke-width:1; stroke:black; " description="&lt;b&gt;QBG38786.1&lt;/b&gt;&lt;br&gt;Atr25&lt;br&gt;Location: 59106 - 58135" locus_tag="QBG38786.1" class="clusterblast-orf" id="dummy-14_h14_4_11"  />
</g>
<g id="a14_0012"  >
<polygon points="154,85 156,80 156,90 154,85 " style="fill:white; stroke-width:1; stroke:black; " description="&lt;b&gt;QBG38785.1&lt;/b&gt;&lt;br&gt;Atr24&lt;br&gt;Location: 58138 - 57899" locus_tag="QBG38785.1" class="clusterblast-orf" id="dummy-14_h14_4_12"  />
</g>
<g id="a14_0013"  >
<polygon points="161,90 302,90 307,85 302,80 161,80 161,90 " style="fill:white; stroke-width:1; stroke:black; " description="&lt;b&gt;QBG38784.1&lt;/b&gt;&lt;br&gt;Atr23&lt;br&gt;Location: 57465 - 42898" locus_tag="QBG38784.1" class="clusterblast-orf" id="dummy-14_h14_4_13"  />
</g>
<g id="a14_0014"  >
<polygon points="307,90 413,90 418,85 413,80 307,80 307,90 " style="fill:#d8a315; stroke-width:1; stroke:black; " description="&lt;b&gt;QBG38783.1&lt;/b&gt;&lt;br&gt;Atr22&lt;br&gt;Location: 42898 - 31820&lt;br&gt;&lt;br&gt;&lt;b&gt;BlastP hit with LLPMBPKK_02655&lt;/b&gt;&lt;br&gt;Percentage identity: 46&lt;br&gt;Percentage coverage: 51&lt;br&gt;BLAST bit score: 1419&lt;br&gt;E-value: 0.0" locus_tag="QBG38783.1" class="clusterblast-orf" id="dummy-14_h14_4_14"  />
</g>
<g id="a14_0015"  >
<polygon points="418,90 531,90 536,85 531,80 418,80 418,90 " style="fill:white; stroke-width:1; stroke:black; " description="&lt;b&gt;QBG38782.1&lt;/b&gt;&lt;br&gt;Atr21&lt;br&gt;Location: 31823 - 20025" locus_tag="QBG38782.1" class="clusterblast-orf" id="dummy-14_h14_4_15"  />
</g>
<g id="a14_0016"  >
<polygon points="536,90 538,85 536,80 536,90 " style="fill:#d81539; stroke-width:1; stroke:black; " description="&lt;b&gt;QBG38781.1&lt;/b&gt;&lt;br&gt;Atr20&lt;br&gt;Location: 20028 - 19837&lt;br&gt;&lt;br&gt;&lt;b&gt;BlastP hit with LLPMBPKK_02670&lt;/b&gt;&lt;br&gt;Percentage identity: 52&lt;br&gt;Percentage coverage: 88&lt;br&gt;BLAST bit score: 74&lt;br&gt;E-value: 2.87e-19" locus_tag="QBG38781.1" class="clusterblast-orf" id="dummy-14_h14_4_16"  />
</g>
<g id="a14_0017"  >
<polygon points="540,90 540,90 545,85 540,80 540,80 540,90 " style="fill:white; stroke-width:1; stroke:black; " description="&lt;b&gt;QBG38780.1&lt;/b&gt;&lt;br&gt;Atr19&lt;br&gt;Location: 19663 - 19100" locus_tag="QBG38780.1" class="clusterblast-orf" id="dummy-14_h14_4_17"  />
</g>
<g id="a14_0018"  >
<polygon points="549,85 554,80 554,80 554,90 554,90 549,85 " style="fill:white; stroke-width:1; stroke:black; " description="&lt;b&gt;QBG38779.1&lt;/b&gt;&lt;br&gt;Atr18&lt;br&gt;Location: 18776 - 18288" locus_tag="QBG38779.1" class="clusterblast-orf" id="dummy-14_h14_4_18"  />
</g>
<g id="a14_0019"  >
<polygon points="556,85 558,80 558,90 556,85 " style="fill:#d81539; stroke-width:1; stroke:black; " description="&lt;b&gt;QBG38778.1&lt;/b&gt;&lt;br&gt;Atr17&lt;br&gt;Location: 18023 - 17811&lt;br&gt;&lt;br&gt;&lt;b&gt;BlastP hit with LLPMBPKK_02670&lt;/b&gt;&lt;br&gt;Percentage identity: 57&lt;br&gt;Percentage coverage: 85&lt;br&gt;BLAST bit score: 89&lt;br&gt;E-value: 3.9e-25" locus_tag="QBG38778.1" class="clusterblast-orf" id="dummy-14_h14_4_19"  />
</g>
<g id="a14_0020"  >
<polygon points="559,85 564,80 565,80 565,90 564,90 559,85 " style="fill:#15d85c; stroke-width:1; stroke:black; " description="&lt;b&gt;QBG38777.1&lt;/b&gt;&lt;br&gt;Atr16&lt;br&gt;Location: 17760 - 17140&lt;br&gt;&lt;br&gt;&lt;b&gt;BlastP hit with LLPMBPKK_02656&lt;/b&gt;&lt;br&gt;Percentage identity: 54&lt;br&gt;Percentage coverage: 85&lt;br&gt;BLAST bit score: 242&lt;br&gt;E-value: 2.62e-81" locus_tag="QBG38777.1" class="clusterblast-orf" id="dummy-14_h14_4_20"  />
</g>
<g id="a14_0021"  >
<polygon points="566,85 571,80 573,80 573,90 571,90 566,85 " style="fill:#1539d8; stroke-width:1; stroke:black; " description="&lt;b&gt;QBG38776.1&lt;/b&gt;&lt;br&gt;Atr15&lt;br&gt;Location: 17054 - 16308&lt;br&gt;&lt;br&gt;&lt;b&gt;BlastP hit with LLPMBPKK_02657&lt;/b&gt;&lt;br&gt;Percentage identity: 59&lt;br&gt;Percentage coverage: 97&lt;br&gt;BLAST bit score: 278&lt;br&gt;E-value: 9.59e-95" locus_tag="QBG38776.1" class="clusterblast-orf" id="dummy-14_h14_4_21"  />
</g>
<g id="a14_0022"  >
<polygon points="573,85 578,80 578,80 578,90 578,90 573,85 " style="fill:white; stroke-width:1; stroke:black; " description="&lt;b&gt;QBG38775.1&lt;/b&gt;&lt;br&gt;Atr14&lt;br&gt;Location: 16298 - 15819" locus_tag="QBG38775.1" class="clusterblast-orf" id="dummy-14_h14_4_22"  />
</g>
<g id="a14_0023"  >
<polygon points="578,85 583,80 583,80 583,90 583,90 578,85 " style="fill:white; stroke-width:1; stroke:black; " description="&lt;b&gt;QBG38774.1&lt;/b&gt;&lt;br&gt;Atr13&lt;br&gt;Location: 15822 - 15364" locus_tag="QBG38774.1" class="clusterblast-orf" id="dummy-14_h14_4_23"  />
</g>
<g id="a14_0024"  >
<polygon points="583,85 585,80 585,90 583,85 " style="fill:white; stroke-width:1; stroke:black; " description="&lt;b&gt;QBG38773.1&lt;/b&gt;&lt;br&gt;Atr12&lt;br&gt;Location: 15364 - 15125" locus_tag="QBG38773.1" class="clusterblast-orf" id="dummy-14_h14_4_24"  />
</g>
<g id="a14_0025"  >
<polygon points="586,85 591,80 597,80 597,90 591,90 586,85 " style="fill:#d815a3; stroke-width:1; stroke:black; " description="&lt;b&gt;QBG38772.1&lt;/b&gt;&lt;br&gt;Atr11&lt;br&gt;Location: 15062 - 13962&lt;br&gt;&lt;br&gt;&lt;b&gt;BlastP hit with LLPMBPKK_02658&lt;/b&gt;&lt;br&gt;Percentage identity: 47&lt;br&gt;Percentage coverage: 99&lt;br&gt;BLAST bit score: 271&lt;br&gt;E-value: 2.58e-88" locus_tag="QBG38772.1" class="clusterblast-orf" id="dummy-14_h14_4_25"  />
</g>
<g id="a14_0026"  >
<polygon points="599,85 604,80 609,80 609,90 604,90 599,85 " style="fill:white; stroke-width:1; stroke:black; " description="&lt;b&gt;QBG38771.1&lt;/b&gt;&lt;br&gt;Atr10&lt;br&gt;Location: 13717 - 12746" locus_tag="QBG38771.1" class="clusterblast-orf" id="dummy-14_h14_4_26"  />
</g>
<g id="a14_0027"  >
<polygon points="609,85 614,80 618,80 618,90 614,90 609,85 " style="fill:white; stroke-width:1; stroke:black; " description="&lt;b&gt;QBG38770.1&lt;/b&gt;&lt;br&gt;Atr9&lt;br&gt;Location: 12749 - 11898" locus_tag="QBG38770.1" class="clusterblast-orf" id="dummy-14_h14_4_27"  />
</g>
<g id="a14_0028"  >
<polygon points="618,85 623,80 627,80 627,90 623,90 618,85 " style="fill:white; stroke-width:1; stroke:black; " description="&lt;b&gt;QBG38769.1&lt;/b&gt;&lt;br&gt;Atr8&lt;br&gt;Location: 11898 - 10945" locus_tag="QBG38769.1" class="clusterblast-orf" id="dummy-14_h14_4_28"  />
</g>
<g id="a14_0029"  >
<polygon points="627,85 632,80 639,80 639,90 632,90 627,85 " style="fill:white; stroke-width:1; stroke:black; " description="&lt;b&gt;QBG38768.1&lt;/b&gt;&lt;br&gt;Atr7&lt;br&gt;Location: 10948 - 9803" locus_tag="QBG38768.1" class="clusterblast-orf" id="dummy-14_h14_4_29"  />
</g>
<g id="a14_0030"  >
<polygon points="639,85 644,80 651,80 651,90 644,90 639,85 " style="fill:#d8c715; stroke-width:1; stroke:black; " description="&lt;b&gt;QBG38767.1&lt;/b&gt;&lt;br&gt;Atr6&lt;br&gt;Location: 9809 - 8547&lt;br&gt;&lt;br&gt;&lt;b&gt;BlastP hit with LLPMBPKK_02659&lt;/b&gt;&lt;br&gt;Percentage identity: 70&lt;br&gt;Percentage coverage: 95&lt;br&gt;BLAST bit score: 557&lt;br&gt;E-value: 4.17e-199" locus_tag="QBG38767.1" class="clusterblast-orf" id="dummy-14_h14_4_30"  />
</g>
<g id="a14_0031"  >
<polygon points="652,85 654,80 654,90 652,85 " style="fill:#15d880; stroke-width:1; stroke:black; " description="&lt;b&gt;QBG38766.1&lt;/b&gt;&lt;br&gt;Atr5&lt;br&gt;Location: 8486 - 8232&lt;br&gt;&lt;br&gt;&lt;b&gt;BlastP hit with LLPMBPKK_02660&lt;/b&gt;&lt;br&gt;Percentage identity: 65&lt;br&gt;Percentage coverage: 74&lt;br&gt;BLAST bit score: 84&lt;br&gt;E-value: 1.14e-22" locus_tag="QBG38766.1" class="clusterblast-orf" id="dummy-14_h14_4_31"  />
</g>
<g id="a14_0032"  >
<polygon points="657,85 662,80 665,80 665,90 662,90 657,85 " style="fill:white; stroke-width:1; stroke:black; " description="&lt;b&gt;QBG38765.1&lt;/b&gt;&lt;br&gt;Atr4&lt;br&gt;Location: 7934 - 7167" locus_tag="QBG38765.1" class="clusterblast-orf" id="dummy-14_h14_4_32"  />
</g>
<g id="a14_0033"  >
<polygon points="665,85 670,80 674,80 674,90 670,90 665,85 " style="fill:white; stroke-width:1; stroke:black; " description="&lt;b&gt;QBG38764.1&lt;/b&gt;&lt;br&gt;Atr3&lt;br&gt;Location: 7164 - 6274" locus_tag="QBG38764.1" class="clusterblast-orf" id="dummy-14_h14_4_33"  />
</g>
<g id="a14_0034"  >
<polygon points="677,85 682,80 687,80 687,90 682,90 677,85 " style="fill:white; stroke-width:1; stroke:black; " description="&lt;b&gt;QBG38763.1&lt;/b&gt;&lt;br&gt;Atr2&lt;br&gt;Location: 5946 - 4969" locus_tag="QBG38763.1" class="clusterblast-orf" id="dummy-14_h14_4_34"  />
</g>
<g id="a14_0035"  >
<polygon points="687,85 692,80 696,80 696,90 692,90 687,85 " style="fill:white; stroke-width:1; stroke:black; " description="&lt;b&gt;QBG38762.1&lt;/b&gt;&lt;br&gt;Atr1&lt;br&gt;Location: 4972 - 4058" locus_tag="QBG38762.1" class="clusterblast-orf" id="dummy-14_h14_4_35"  />
</g>
<g id="a14_0036"  >
<polygon points="713,85 717,80 717,90 713,85 " style="fill:white; stroke-width:1; stroke:black; " description="&lt;b&gt;QBG38761.1&lt;/b&gt;&lt;br&gt;IS481 family transposase&lt;br&gt;Location: 2377 - 1973" locus_tag="QBG38761.1" class="clusterblast-orf" id="dummy-14_h14_4_36"  />
</g>
<g id="a14_0037"  >
<polygon points="721,85 726,80 737,80 737,90 726,90 721,85 " style="fill:white; stroke-width:1; stroke:black; " description="&lt;b&gt;QBG38760.1&lt;/b&gt;&lt;br&gt;histidine ammonia-lyase&lt;br&gt;Location: 1551 - 1" locus_tag="QBG38760.1" class="clusterblast-orf" id="dummy-14_h14_4_37"  />
</g>
</svg>
