<svg xmlns="http://www.w3.org/2000/svg" xmlns:xlink="http://www.w3.org/1999/xlink" version="1.1" x="0" y="0" height="230" width="800" viewBox="0 0 800 230" preserveAspectRatio="none"  >
<g label="Query sequence" class="clusterblast-cluster"  >
<text x="5" y="20" class="clusterblast-acc"  >
Query sequence</text>
<line x1="10" y1="35" x2="778.0" y2="35" style="stroke-width:1; stroke:grey; "  />
<polygon points="6,40 16,40 21,35 16,30 6,30 6,40 " style="fill:white; stroke-width:1; stroke:black; " description="&lt;b&gt;LLPMBPKK_05373&lt;/b&gt;&lt;br&gt;hypothetical protein&lt;br&gt;Location: 6119913 - 6120729" locus_tag="LLPMBPKK_05373" class="clusterblast-orf" id="dummy-20_q0_0_all"  />
<polygon points="28,40 50,40 55,35 50,30 28,30 28,40 " style="fill:white; stroke-width:1; stroke:black; " description="&lt;b&gt;LLPMBPKK_05374&lt;/b&gt;&lt;br&gt;amino acid permease&lt;br&gt;Location: 6121100 - 6122573" locus_tag="LLPMBPKK_05374" class="clusterblast-orf" id="dummy-20_q1_0_all"  />
<polygon points="63,40 65,35 63,30 63,40 " style="fill:white; stroke-width:1; stroke:black; " description="&lt;b&gt;LLPMBPKK_05375&lt;/b&gt;&lt;br&gt;hypothetical protein&lt;br&gt;Location: 6122987 - 6123137" locus_tag="LLPMBPKK_05375" class="clusterblast-orf" id="dummy-20_q2_0_all"  />
<polygon points="69,40 71,40 76,35 71,30 69,30 69,40 " style="fill:white; stroke-width:1; stroke:black; " description="&lt;b&gt;LLPMBPKK_05376&lt;/b&gt;&lt;br&gt;hypothetical protein&lt;br&gt;Location: 6123339 - 6123723" locus_tag="LLPMBPKK_05376" class="clusterblast-orf" id="dummy-20_q3_0_all"  />
<polygon points="78,40 95,40 100,35 95,30 78,30 78,40 " style="fill:white; stroke-width:1; stroke:black; " description="&lt;b&gt;LLPMBPKK_05377&lt;/b&gt;&lt;br&gt;cytochrome P450&lt;br&gt;Location: 6123827 - 6125027" locus_tag="LLPMBPKK_05377" class="clusterblast-orf" id="dummy-20_q4_0_all"  />
<polygon points="105,40 129,40 134,35 129,30 105,30 105,40 " style="fill:white; stroke-width:1; stroke:black; " description="&lt;b&gt;LLPMBPKK_05378&lt;/b&gt;&lt;br&gt;solute-binding transport lipoprotein&lt;br&gt;Location: 6125331 - 6126897" locus_tag="LLPMBPKK_05378" class="clusterblast-orf" id="dummy-20_q5_0_all"  />
<polygon points="135,35 140,30 188,30 188,40 140,40 135,35 " style="fill:#d81515; stroke-width:1; stroke:black; " description="&lt;b&gt;LLPMBPKK_05379&lt;/b&gt;&lt;br&gt;non-ribosomal peptide synthetase&lt;br&gt;Location: 6126958 - 6129811" locus_tag="LLPMBPKK_05379" class="clusterblast-orf" id="dummy-20_q6_0_all"  />
<polygon points="192,40 260,40 265,35 260,30 192,30 192,40 " style="fill:#4dd815; stroke-width:1; stroke:black; " description="&lt;b&gt;LLPMBPKK_05380&lt;/b&gt;&lt;br&gt;non-ribosomal peptide synthetase&lt;br&gt;Location: 6130070 - 6134009" locus_tag="LLPMBPKK_05380" class="clusterblast-orf" id="dummy-20_q7_0_all"  />
<polygon points="267,40 442,40 447,35 442,30 267,30 267,40 " style="fill:#1585d8; stroke-width:1; stroke:black; " description="&lt;b&gt;LLPMBPKK_05381&lt;/b&gt;&lt;br&gt;non-ribosomal peptide synthetase/polyketidesynthase&lt;br&gt;Location: 6134151 - 6143928" locus_tag="LLPMBPKK_05381" class="clusterblast-orf" id="dummy-20_q8_0_all"  />
<polygon points="447,40 463,40 468,35 463,30 447,30 447,40 " style="fill:#d815bc; stroke-width:1; stroke:black; " description="&lt;b&gt;LLPMBPKK_05382&lt;/b&gt;&lt;br&gt;GSCFA family protein&lt;br&gt;Location: 6143938 - 6145072" locus_tag="LLPMBPKK_05382" class="clusterblast-orf" id="dummy-20_q9_0_all"  />
<polygon points="467,40 476,40 481,35 476,30 467,30 467,40 " style="fill:#d8bc15; stroke-width:1; stroke:black; " description="&lt;b&gt;LLPMBPKK_05383&lt;/b&gt;&lt;br&gt;hypothetical protein&lt;br&gt;Location: 6145037 - 6145817" locus_tag="LLPMBPKK_05383" class="clusterblast-orf" id="dummy-20_q10_0_all"  />
<polygon points="483,40 494,40 499,35 494,30 483,30 483,40 " style="fill:#15d885; stroke-width:1; stroke:black; " description="&lt;b&gt;LLPMBPKK_05384&lt;/b&gt;&lt;br&gt;taurine dioxygenase&lt;br&gt;Location: 6145894 - 6146770" locus_tag="LLPMBPKK_05384" class="clusterblast-orf" id="dummy-20_q11_0_all"  />
<polygon points="499,35 504,30 515,30 515,40 504,40 499,35 " style="fill:#4d15d8; stroke-width:1; stroke:black; " description="&lt;b&gt;LLPMBPKK_05385&lt;/b&gt;&lt;br&gt;hypothetical protein&lt;br&gt;Location: 6146782 - 6147661" locus_tag="LLPMBPKK_05385" class="clusterblast-orf" id="dummy-20_q12_0_all"  />
<polygon points="518,40 544,40 549,35 544,30 518,30 518,40 " style="fill:white; stroke-width:1; stroke:black; " description="&lt;b&gt;LLPMBPKK_05386&lt;/b&gt;&lt;br&gt;hypothetical protein&lt;br&gt;Location: 6147847 - 6149494" locus_tag="LLPMBPKK_05386" class="clusterblast-orf" id="dummy-20_q13_0_all"  />
<polygon points="553,40 603,40 608,35 603,30 553,30 553,40 " style="fill:white; stroke-width:1; stroke:black; " description="&lt;b&gt;LLPMBPKK_05387&lt;/b&gt;&lt;br&gt;Alginate lyase&lt;br&gt;Location: 6149718 - 6152715" locus_tag="LLPMBPKK_05387" class="clusterblast-orf" id="dummy-20_q14_0_all"  />
<polygon points="609,35 614,30 647,30 647,40 614,40 609,35 " style="fill:white; stroke-width:1; stroke:black; " description="&lt;b&gt;LLPMBPKK_05388&lt;/b&gt;&lt;br&gt;Lytic transglycosylase&lt;br&gt;Location: 6152790 - 6154881" locus_tag="LLPMBPKK_05388" class="clusterblast-orf" id="dummy-20_q15_0_all"  />
<polygon points="654,40 699,40 704,35 699,30 654,30 654,40 " style="fill:white; stroke-width:1; stroke:black; " description="&lt;b&gt;LLPMBPKK_05389&lt;/b&gt;&lt;br&gt;hypothetical protein&lt;br&gt;Location: 6155246 - 6157967" locus_tag="LLPMBPKK_05389" class="clusterblast-orf" id="dummy-20_q16_0_all"  />
<polygon points="724,40 725,40 730,35 725,30 724,30 724,40 " style="fill:white; stroke-width:1; stroke:black; " description="&lt;b&gt;LLPMBPKK_05390&lt;/b&gt;&lt;br&gt;D-mannose binding lectin&lt;br&gt;Location: 6159084 - 6159405" locus_tag="LLPMBPKK_05390" class="clusterblast-orf" id="dummy-20_q17_0_all"  />
<polygon points="730,35 735,30 773,30 773,40 735,40 730,35 " style="fill:white; stroke-width:1; stroke:black; " description="&lt;b&gt;LLPMBPKK_05391&lt;/b&gt;&lt;br&gt;hypothetical protein&lt;br&gt;Location: 6159385 - 6161743" locus_tag="LLPMBPKK_05391" class="clusterblast-orf" id="dummy-20_q18_0_all"  />
</g>
<g label="BGC0002503" description="BGC0002503_c1: chitinimide B/chitinimide F/chitinimide D/chitinimide A/chitin... (58% of genes show similarity), NRP+Polyketide" class="clusterblast-cluster"  >
<text x="5" y="70" class="clusterblast-acc"  >
<a xlink:href="https://mibig.secondarymetabolites.org/go/BGC0002503/1" target="_blank">BGC0002503</a>: chitinimide B/chitinimide F/chitinimide D/chitinimide A/chitinimide C/chitinimide E/chitinimide G (58% of genes show similarity), NRP+Polyketide</text>
<line x1="10" y1="85" x2="778.0" y2="85" style="stroke-width:1; stroke:grey; "  />
</g>
<g id="a20_000"  >
<polygon points="0,90 4,85 0,80 0,90 " style="fill:white; stroke-width:1; stroke:black; " description="&lt;b&gt;QPB41095.1&lt;/b&gt;&lt;br&gt;MbtH family NRPS accessory protein&lt;br&gt;Location: 3125 - 3373" locus_tag="QPB41095.1" class="clusterblast-orf" id="dummy-20_h20_3_0"  />
</g>
<g id="a20_001"  >
<polygon points="9,90 156,90 161,85 156,80 9,80 9,90 " style="fill:#4dd815; stroke-width:1; stroke:black; " description="&lt;b&gt;QPB41096.1&lt;/b&gt;&lt;br&gt;non-ribosomal peptide synthetase&lt;br&gt;Location: 3636 - 11924&lt;br&gt;&lt;br&gt;&lt;b&gt;BlastP hit with LLPMBPKK_05380&lt;/b&gt;&lt;br&gt;Percentage identity: 51&lt;br&gt;Percentage coverage: 46&lt;br&gt;BLAST bit score: 479&lt;br&gt;E-value: 1.44e-141" locus_tag="QPB41096.1" class="clusterblast-orf" id="dummy-20_h20_3_1"  />
</g>
<g id="a20_002"  >
<polygon points="161,90 408,90 413,85 408,80 161,80 161,90 " style="fill:#4dd815; stroke-width:1; stroke:black; " description="&lt;b&gt;QPB41097.1&lt;/b&gt;&lt;br&gt;non-ribosomal peptide synthetase&lt;br&gt;Location: 11953 - 25668&lt;br&gt;&lt;br&gt;&lt;b&gt;BlastP hit with LLPMBPKK_05380&lt;/b&gt;&lt;br&gt;Percentage identity: 54&lt;br&gt;Percentage coverage: 80&lt;br&gt;BLAST bit score: 981&lt;br&gt;E-value: 8.28e-314" locus_tag="QPB41097.1" class="clusterblast-orf" id="dummy-20_h20_3_2"  />
</g>
<g id="a20_003"  >
<polygon points="413,90 484,90 489,85 484,80 413,80 413,90 " style="fill:#4dd815; stroke-width:1; stroke:black; " description="&lt;b&gt;QPB41098.1&lt;/b&gt;&lt;br&gt;non-ribosomal peptide synthetase&lt;br&gt;Location: 25665 - 29813&lt;br&gt;&lt;br&gt;&lt;b&gt;BlastP hit with LLPMBPKK_05380&lt;/b&gt;&lt;br&gt;Percentage identity: 51&lt;br&gt;Percentage coverage: 99&lt;br&gt;BLAST bit score: 1139&lt;br&gt;E-value: 0.0" locus_tag="QPB41098.1" class="clusterblast-orf" id="dummy-20_h20_3_3"  />
</g>
<g id="a20_004"  >
<polygon points="489,90 655,90 660,85 655,80 489,80 489,90 " style="fill:#1585d8; stroke-width:1; stroke:black; " description="&lt;b&gt;QPB41099.1&lt;/b&gt;&lt;br&gt;non-ribosomal peptide synthetase&lt;br&gt;Location: 29813 - 39121&lt;br&gt;&lt;br&gt;&lt;b&gt;BlastP hit with LLPMBPKK_05381&lt;/b&gt;&lt;br&gt;Percentage identity: 63&lt;br&gt;Percentage coverage: 97&lt;br&gt;BLAST bit score: 3613&lt;br&gt;E-value: 0.0" locus_tag="QPB41099.1" class="clusterblast-orf" id="dummy-20_h20_3_4"  />
</g>
<g id="a20_005"  >
<polygon points="669,90 681,90 686,85 681,80 669,80 669,90 " style="fill:white; stroke-width:1; stroke:black; " description="&lt;b&gt;QPB41100.1&lt;/b&gt;&lt;br&gt;sterol desaturase family protein&lt;br&gt;Location: 39649 - 40542" locus_tag="QPB41100.1" class="clusterblast-orf" id="dummy-20_h20_3_5"  />
</g>
<g id="a20_006"  >
<polygon points="686,90 694,90 699,85 694,80 686,80 686,90 " style="fill:white; stroke-width:1; stroke:black; " description="&lt;b&gt;QPB41101.1&lt;/b&gt;&lt;br&gt;4'-phosphopantetheinyl transferase superfamily protein&lt;br&gt;Location: 40539 - 41264" locus_tag="QPB41101.1" class="clusterblast-orf" id="dummy-20_h20_3_6"  />
</g>
<g id="a20_007"  >
<polygon points="700,90 710,90 715,85 710,80 700,80 700,90 " style="fill:white; stroke-width:1; stroke:black; " description="&lt;b&gt;QPB41102.1&lt;/b&gt;&lt;br&gt;thioesterase/alpha/beta fold hydrolase&lt;br&gt;Location: 41330 - 42115" locus_tag="QPB41102.1" class="clusterblast-orf" id="dummy-20_h20_3_7"  />
</g>
<g id="a20_008"  >
<polygon points="714,90 729,90 734,85 729,80 714,80 714,90 " style="fill:#d815bc; stroke-width:1; stroke:black; " description="&lt;b&gt;QPB41103.1&lt;/b&gt;&lt;br&gt;GSCFA domain-containing protein&lt;br&gt;Location: 42112 - 43167&lt;br&gt;&lt;br&gt;&lt;b&gt;BlastP hit with LLPMBPKK_05382&lt;/b&gt;&lt;br&gt;Percentage identity: 63&lt;br&gt;Percentage coverage: 95&lt;br&gt;BLAST bit score: 442&lt;br&gt;E-value: 8.49e-156" locus_tag="QPB41103.1" class="clusterblast-orf" id="dummy-20_h20_3_8"  />
</g>
<g id="a20_009"  >
<polygon points="735,90 743,90 748,85 743,80 735,80 735,90 " style="fill:#d8bc15; stroke-width:1; stroke:black; " description="&lt;b&gt;QPB41104.1&lt;/b&gt;&lt;br&gt;hypothetical protein&lt;br&gt;Location: 43240 - 43947&lt;br&gt;&lt;br&gt;&lt;b&gt;BlastP hit with LLPMBPKK_05383&lt;/b&gt;&lt;br&gt;Percentage identity: 64&lt;br&gt;Percentage coverage: 90&lt;br&gt;BLAST bit score: 287&lt;br&gt;E-value: 4.26e-98" locus_tag="QPB41104.1" class="clusterblast-orf" id="dummy-20_h20_3_9"  />
</g>
<g id="a20_0010"  >
<polygon points="750,90 761,90 766,85 761,80 750,80 750,90 " style="fill:#15d885; stroke-width:1; stroke:black; " description="&lt;b&gt;QPB41105.1&lt;/b&gt;&lt;br&gt;taurine dioxygenase&lt;br&gt;Location: 44059 - 44934&lt;br&gt;&lt;br&gt;&lt;b&gt;BlastP hit with LLPMBPKK_05384&lt;/b&gt;&lt;br&gt;Percentage identity: 68&lt;br&gt;Percentage coverage: 100&lt;br&gt;BLAST bit score: 416&lt;br&gt;E-value: 1.17e-147" locus_tag="QPB41105.1" class="clusterblast-orf" id="dummy-20_h20_3_10"  />
</g>
<g id="a20_0011"  >
<polygon points="768,85 773,80 780,80 780,90 773,90 768,85 " style="fill:white; stroke-width:1; stroke:black; " description="&lt;b&gt;QPB41106.1&lt;/b&gt;&lt;br&gt;hypothetical protein&lt;br&gt;Location: 45054 - 45659" locus_tag="QPB41106.1" class="clusterblast-orf" id="dummy-20_h20_3_11"  />
</g>
</svg>
