<svg xmlns="http://www.w3.org/2000/svg" xmlns:xlink="http://www.w3.org/1999/xlink" version="1.1" x="0" y="0" height="230" width="800" viewBox="0 0 800 230" preserveAspectRatio="none"  >
<g label="Query sequence" class="clusterblast-cluster"  >
<text x="5" y="20" class="clusterblast-acc"  >
Query sequence</text>
<line x1="10" y1="35" x2="778.0" y2="35" style="stroke-width:1; stroke:grey; "  />
<polygon points="145,35 150,30 153,30 153,40 150,40 145,35 " style="fill:white; stroke-width:1; stroke:black; " description="&lt;b&gt;LLPMBPKK_02624&lt;/b&gt;&lt;br&gt;esterase&lt;br&gt;Location: 3040870 - 3042052" locus_tag="LLPMBPKK_02624" class="clusterblast-orf" id="dummy-14_q0_0_all"  />
<polygon points="152,35 157,30 161,30 161,40 157,40 152,35 " style="fill:white; stroke-width:1; stroke:black; " description="&lt;b&gt;LLPMBPKK_02625&lt;/b&gt;&lt;br&gt;Bcr/CflA family efflux MFS transporter&lt;br&gt;Location: 3041991 - 3043305" locus_tag="LLPMBPKK_02625" class="clusterblast-orf" id="dummy-14_q1_0_all"  />
<polygon points="161,40 163,40 168,35 163,30 161,30 161,40 " style="fill:white; stroke-width:1; stroke:black; " description="&lt;b&gt;LLPMBPKK_02626&lt;/b&gt;&lt;br&gt;Gfo/Idh/MocA family oxidoreductase&lt;br&gt;Location: 3043420 - 3044488" locus_tag="LLPMBPKK_02626" class="clusterblast-orf" id="dummy-14_q2_0_all"  />
<polygon points="168,40 168,40 173,35 168,30 168,30 168,40 " style="fill:white; stroke-width:1; stroke:black; " description="&lt;b&gt;LLPMBPKK_02627&lt;/b&gt;&lt;br&gt;SDR family oxidoreductase&lt;br&gt;Location: 3044544 - 3045303" locus_tag="LLPMBPKK_02627" class="clusterblast-orf" id="dummy-14_q3_0_all"  />
<polygon points="174,35 179,30 182,30 182,40 179,40 174,35 " style="fill:white; stroke-width:1; stroke:black; " description="&lt;b&gt;LLPMBPKK_02628&lt;/b&gt;&lt;br&gt;D-alanyl-D-alanine carboxypeptidase&lt;br&gt;Location: 3045532 - 3046732" locus_tag="LLPMBPKK_02628" class="clusterblast-orf" id="dummy-14_q4_0_all"  />
<polygon points="183,35 188,30 189,30 189,40 188,40 183,35 " style="fill:white; stroke-width:1; stroke:black; " description="&lt;b&gt;LLPMBPKK_02629&lt;/b&gt;&lt;br&gt;aldo/keto reductase&lt;br&gt;Location: 3046922 - 3047903" locus_tag="LLPMBPKK_02629" class="clusterblast-orf" id="dummy-14_q5_0_all"  />
<polygon points="190,35 192,30 192,40 190,35 " style="fill:white; stroke-width:1; stroke:black; " description="&lt;b&gt;LLPMBPKK_02630&lt;/b&gt;&lt;br&gt;hypothetical protein&lt;br&gt;Location: 3047957 - 3048284" locus_tag="LLPMBPKK_02630" class="clusterblast-orf" id="dummy-14_q6_0_all"  />
<polygon points="193,40 196,35 193,30 193,40 " style="fill:white; stroke-width:1; stroke:black; " description="&lt;b&gt;LLPMBPKK_02631&lt;/b&gt;&lt;br&gt;DoxX family membrane protein&lt;br&gt;Location: 3048412 - 3048958" locus_tag="LLPMBPKK_02631" class="clusterblast-orf" id="dummy-14_q7_0_all"  />
<polygon points="216,40 216,40 221,35 216,30 216,30 216,40 " style="fill:white; stroke-width:1; stroke:black; " description="&lt;b&gt;LLPMBPKK_02633&lt;/b&gt;&lt;br&gt;SARP family pathway specific regulatory protein&lt;br&gt;Location: 3052124 - 3052937" locus_tag="LLPMBPKK_02633" class="clusterblast-orf" id="dummy-14_q8_0_all"  />
<polygon points="221,40 225,35 221,30 221,40 " style="fill:white; stroke-width:1; stroke:black; " description="&lt;b&gt;LLPMBPKK_02634&lt;/b&gt;&lt;br&gt;hypothetical protein&lt;br&gt;Location: 3052984 - 3053599" locus_tag="LLPMBPKK_02634" class="clusterblast-orf" id="dummy-14_q9_0_all"  />
<polygon points="226,35 229,30 229,40 226,35 " style="fill:white; stroke-width:1; stroke:black; " description="&lt;b&gt;LLPMBPKK_02635&lt;/b&gt;&lt;br&gt;response regulator transcription factor&lt;br&gt;Location: 3053664 - 3054273" locus_tag="LLPMBPKK_02635" class="clusterblast-orf" id="dummy-14_q10_0_all"  />
<polygon points="230,35 235,30 238,30 238,40 235,40 230,35 " style="fill:white; stroke-width:1; stroke:black; " description="&lt;b&gt;LLPMBPKK_02636&lt;/b&gt;&lt;br&gt;two-component system histidine kinase&lt;br&gt;Location: 3054353 - 3055583" locus_tag="LLPMBPKK_02636" class="clusterblast-orf" id="dummy-14_q11_0_all"  />
<polygon points="238,35 242,30 242,40 238,35 " style="fill:white; stroke-width:1; stroke:black; " description="&lt;b&gt;LLPMBPKK_02637&lt;/b&gt;&lt;br&gt;response regulator transcription factor&lt;br&gt;Location: 3055699 - 3056347" locus_tag="LLPMBPKK_02637" class="clusterblast-orf" id="dummy-14_q12_0_all"  />
<polygon points="243,35 248,30 250,30 250,40 248,40 243,35 " style="fill:white; stroke-width:1; stroke:black; " description="&lt;b&gt;LLPMBPKK_02638&lt;/b&gt;&lt;br&gt;sensor histidine kinase&lt;br&gt;Location: 3056404 - 3057598" locus_tag="LLPMBPKK_02638" class="clusterblast-orf" id="dummy-14_q13_0_all"  />
<polygon points="251,35 256,30 264,30 264,40 256,40 251,35 " style="fill:#d81515; stroke-width:1; stroke:black; " description="&lt;b&gt;LLPMBPKK_02639&lt;/b&gt;&lt;br&gt;membrane protein&lt;br&gt;Location: 3057650 - 3059855" locus_tag="LLPMBPKK_02639" class="clusterblast-orf" id="dummy-14_q14_0_all"  />
<polygon points="265,35 270,30 271,30 271,40 270,40 265,35 " style="fill:#5cd815; stroke-width:1; stroke:black; " description="&lt;b&gt;LLPMBPKK_02640&lt;/b&gt;&lt;br&gt;kinase&lt;br&gt;Location: 3059942 - 3060836" locus_tag="LLPMBPKK_02640" class="clusterblast-orf" id="dummy-14_q15_0_all"  />
<polygon points="271,35 276,30 291,30 291,40 276,40 271,35 " style="fill:#15c7d8; stroke-width:1; stroke:black; " description="&lt;b&gt;LLPMBPKK_02641&lt;/b&gt;&lt;br&gt;amino acid adenylation domain-containing protein&lt;br&gt;Location: 3060832 - 3064153" locus_tag="LLPMBPKK_02641" class="clusterblast-orf" id="dummy-14_q16_0_all"  />
<polygon points="291,35 296,30 299,30 299,40 296,40 291,35 " style="fill:#8015d8; stroke-width:1; stroke:black; " description="&lt;b&gt;LLPMBPKK_02642&lt;/b&gt;&lt;br&gt;argininosuccinate lyase&lt;br&gt;Location: 3064149 - 3065394" locus_tag="LLPMBPKK_02642" class="clusterblast-orf" id="dummy-14_q17_0_all"  />
<polygon points="300,35 305,30 309,30 309,40 305,40 300,35 " style="fill:#d83915; stroke-width:1; stroke:black; " description="&lt;b&gt;LLPMBPKK_02643&lt;/b&gt;&lt;br&gt;argininosuccinate lyase&lt;br&gt;Location: 3065465 - 3066932" locus_tag="LLPMBPKK_02643" class="clusterblast-orf" id="dummy-14_q18_0_all"  />
<polygon points="309,35 314,30 316,30 316,40 314,40 309,35 " style="fill:#39d815; stroke-width:1; stroke:black; " description="&lt;b&gt;LLPMBPKK_02644&lt;/b&gt;&lt;br&gt;cystathionine beta-synthase/cysteine synthase&lt;br&gt;Location: 3066928 - 3068008" locus_tag="LLPMBPKK_02644" class="clusterblast-orf" id="dummy-14_q19_0_all"  />
<polygon points="317,40 317,40 322,35 317,30 317,30 317,40 " style="fill:#15a3d8; stroke-width:1; stroke:black; " description="&lt;b&gt;LLPMBPKK_02645&lt;/b&gt;&lt;br&gt;thioesterase&lt;br&gt;Location: 3068211 - 3068961" locus_tag="LLPMBPKK_02645" class="clusterblast-orf" id="dummy-14_q20_0_all"  />
<polygon points="322,35 327,30 330,30 330,40 327,40 322,35 " style="fill:#a315d8; stroke-width:1; stroke:black; " description="&lt;b&gt;LLPMBPKK_02646&lt;/b&gt;&lt;br&gt;3-deoxy-7-phosphoheptulonate synthase class II&lt;br&gt;Location: 3068987 - 3070364" locus_tag="LLPMBPKK_02646" class="clusterblast-orf" id="dummy-14_q21_0_all"  />
<polygon points="332,40 336,40 341,35 336,30 332,30 332,40 " style="fill:#d85c15; stroke-width:1; stroke:black; " description="&lt;b&gt;LLPMBPKK_02647&lt;/b&gt;&lt;br&gt;anthranilate synthase component I family protein&lt;br&gt;Location: 3070592 - 3072113" locus_tag="LLPMBPKK_02647" class="clusterblast-orf" id="dummy-14_q22_0_all"  />
<polygon points="342,40 345,35 342,30 342,40 " style="fill:#15d815; stroke-width:1; stroke:black; " description="&lt;b&gt;LLPMBPKK_02648&lt;/b&gt;&lt;br&gt;aminodeoxychorismate/anthranilate synthasecomponent II&lt;br&gt;Location: 3072127 - 3072709" locus_tag="LLPMBPKK_02648" class="clusterblast-orf" id="dummy-14_q23_0_all"  />
<polygon points="345,35 350,30 354,30 354,40 350,40 345,35 " style="fill:#1580d8; stroke-width:1; stroke:black; " description="&lt;b&gt;LLPMBPKK_02649&lt;/b&gt;&lt;br&gt;PLP-dependent aminotransferase family protein&lt;br&gt;Location: 3072714 - 3074097" locus_tag="LLPMBPKK_02649" class="clusterblast-orf" id="dummy-14_q24_0_all"  />
<polygon points="355,40 357,40 362,35 357,30 355,30 355,40 " style="fill:#c715d8; stroke-width:1; stroke:black; " description="&lt;b&gt;LLPMBPKK_02650&lt;/b&gt;&lt;br&gt;anthranilate phosphoribosyltransferase&lt;br&gt;Location: 3074247 - 3075312" locus_tag="LLPMBPKK_02650" class="clusterblast-orf" id="dummy-14_q25_0_all"  />
<polygon points="363,35 368,30 368,30 368,40 368,40 363,35 " style="fill:#d88015; stroke-width:1; stroke:black; " description="&lt;b&gt;LLPMBPKK_02651&lt;/b&gt;&lt;br&gt;indole-3-glycerol-phosphate synthase&lt;br&gt;Location: 3075536 - 3076322" locus_tag="LLPMBPKK_02651" class="clusterblast-orf" id="dummy-14_q26_0_all"  />
<polygon points="368,35 373,30 374,30 374,40 373,40 368,35 " style="fill:#15d839; stroke-width:1; stroke:black; " description="&lt;b&gt;LLPMBPKK_02652&lt;/b&gt;&lt;br&gt;TauD/TfdA family dioxygenase&lt;br&gt;Location: 3076408 - 3077359" locus_tag="LLPMBPKK_02652" class="clusterblast-orf" id="dummy-14_q27_0_all"  />
<polygon points="374,35 379,30 382,30 382,40 379,40 374,35 " style="fill:#155cd8; stroke-width:1; stroke:black; " description="&lt;b&gt;LLPMBPKK_02653&lt;/b&gt;&lt;br&gt;cytochrome P450&lt;br&gt;Location: 3077360 - 3078608" locus_tag="LLPMBPKK_02653" class="clusterblast-orf" id="dummy-14_q28_0_all"  />
<polygon points="382,35 387,30 388,30 388,40 387,40 382,35 " style="fill:#d815c7; stroke-width:1; stroke:black; " description="&lt;b&gt;LLPMBPKK_02654&lt;/b&gt;&lt;br&gt;ABC transporter&lt;br&gt;Location: 3078625 - 3079501" locus_tag="LLPMBPKK_02654" class="clusterblast-orf" id="dummy-14_q29_0_all"  />
<polygon points="389,35 394,30 460,30 460,40 394,40 389,35 " style="fill:#d8a315; stroke-width:1; stroke:black; " description="&lt;b&gt;LLPMBPKK_02655&lt;/b&gt;&lt;br&gt;non-ribosomal peptide synthetase&lt;br&gt;Location: 3079676 - 3091022" locus_tag="LLPMBPKK_02655" class="clusterblast-orf" id="dummy-14_q30_0_all"  />
<polygon points="461,35 465,30 465,40 461,35 " style="fill:#15d85c; stroke-width:1; stroke:black; " description="&lt;b&gt;LLPMBPKK_02656&lt;/b&gt;&lt;br&gt;2-hydroxychromene-2-carboxylate isomerase&lt;br&gt;Location: 3091108 - 3091813" locus_tag="LLPMBPKK_02656" class="clusterblast-orf" id="dummy-14_q31_0_all"  />
<polygon points="466,35 470,30 470,40 466,35 " style="fill:#1539d8; stroke-width:1; stroke:black; " description="&lt;b&gt;LLPMBPKK_02657&lt;/b&gt;&lt;br&gt;SDR family oxidoreductase&lt;br&gt;Location: 3091863 - 3092610" locus_tag="LLPMBPKK_02657" class="clusterblast-orf" id="dummy-14_q32_0_all"  />
<polygon points="471,35 476,30 477,30 477,40 476,40 471,35 " style="fill:#d815a3; stroke-width:1; stroke:black; " description="&lt;b&gt;LLPMBPKK_02658&lt;/b&gt;&lt;br&gt;3-oxoacyl-ACP synthase I&lt;br&gt;Location: 3092672 - 3093761" locus_tag="LLPMBPKK_02658" class="clusterblast-orf" id="dummy-14_q33_0_all"  />
<polygon points="477,35 482,30 485,30 485,40 482,40 477,35 " style="fill:#d8c715; stroke-width:1; stroke:black; " description="&lt;b&gt;LLPMBPKK_02659&lt;/b&gt;&lt;br&gt;beta-ketoacyl-[acyl-carrier-protein] synthasefamily protein&lt;br&gt;Location: 3093760 - 3095032" locus_tag="LLPMBPKK_02659" class="clusterblast-orf" id="dummy-14_q34_0_all"  />
<polygon points="486,35 487,30 487,40 486,35 " style="fill:#15d880; stroke-width:1; stroke:black; " description="&lt;b&gt;LLPMBPKK_02660&lt;/b&gt;&lt;br&gt;acyl carrier protein&lt;br&gt;Location: 3095064 - 3095343" locus_tag="LLPMBPKK_02660" class="clusterblast-orf" id="dummy-14_q35_0_all"  />
<polygon points="488,35 493,30 494,30 494,40 493,40 488,35 " style="fill:#1515d8; stroke-width:1; stroke:black; " description="&lt;b&gt;LLPMBPKK_02661&lt;/b&gt;&lt;br&gt;LysR family transcriptional regulator&lt;br&gt;Location: 3095421 - 3096372" locus_tag="LLPMBPKK_02661" class="clusterblast-orf" id="dummy-14_q36_0_all"  />
<polygon points="496,35 501,30 501,30 501,40 501,40 496,35 " style="fill:#d81580; stroke-width:1; stroke:black; " description="&lt;b&gt;LLPMBPKK_02662&lt;/b&gt;&lt;br&gt;SARP family transcriptional regulator&lt;br&gt;Location: 3096695 - 3097481" locus_tag="LLPMBPKK_02662" class="clusterblast-orf" id="dummy-14_q37_0_all"  />
<polygon points="503,40 507,40 512,35 507,30 503,30 503,40 " style="fill:#c7d815; stroke-width:1; stroke:black; " description="&lt;b&gt;LLPMBPKK_02663&lt;/b&gt;&lt;br&gt;tryptophan 7-halogenase&lt;br&gt;Location: 3097785 - 3099336" locus_tag="LLPMBPKK_02663" class="clusterblast-orf" id="dummy-14_q38_0_all"  />
<polygon points="513,40 516,40 521,35 516,30 513,30 513,40 " style="fill:#15d8a3; stroke-width:1; stroke:black; " description="&lt;b&gt;LLPMBPKK_02664&lt;/b&gt;&lt;br&gt;cation/H(+) antiporter&lt;br&gt;Location: 3099363 - 3100656" locus_tag="LLPMBPKK_02664" class="clusterblast-orf" id="dummy-14_q39_0_all"  />
<polygon points="521,40 524,35 521,30 521,40 " style="fill:#3915d8; stroke-width:1; stroke:black; " description="&lt;b&gt;LLPMBPKK_02665&lt;/b&gt;&lt;br&gt;flavin reductase&lt;br&gt;Location: 3100652 - 3101177" locus_tag="LLPMBPKK_02665" class="clusterblast-orf" id="dummy-14_q40_0_all"  />
<polygon points="525,40 525,40 530,35 525,30 525,30 525,40 " style="fill:#d8155c; stroke-width:1; stroke:black; " description="&lt;b&gt;LLPMBPKK_02666&lt;/b&gt;&lt;br&gt;peptide ABC transporter ATPase&lt;br&gt;Location: 3101265 - 3102063" locus_tag="LLPMBPKK_02666" class="clusterblast-orf" id="dummy-14_q41_0_all"  />
<polygon points="530,40 540,40 545,35 540,30 530,30 530,40 " style="fill:#a3d815; stroke-width:1; stroke:black; " description="&lt;b&gt;LLPMBPKK_02667&lt;/b&gt;&lt;br&gt;ABC transporter permease&lt;br&gt;Location: 3102059 - 3104591" locus_tag="LLPMBPKK_02667" class="clusterblast-orf" id="dummy-14_q42_0_all"  />
<polygon points="546,35 551,30 552,30 552,40 551,40 546,35 " style="fill:#15d8c7; stroke-width:1; stroke:black; " description="&lt;b&gt;LLPMBPKK_02668&lt;/b&gt;&lt;br&gt;transcriptional regulator&lt;br&gt;Location: 3104670 - 3105693" locus_tag="LLPMBPKK_02668" class="clusterblast-orf" id="dummy-14_q43_0_all"  />
<polygon points="553,35 558,30 559,30 559,40 558,40 553,35 " style="fill:#5c15d8; stroke-width:1; stroke:black; " description="&lt;b&gt;LLPMBPKK_02669&lt;/b&gt;&lt;br&gt;multidrug ABC transporter ATPase&lt;br&gt;Location: 3105771 - 3106719" locus_tag="LLPMBPKK_02669" class="clusterblast-orf" id="dummy-14_q44_0_all"  />
<polygon points="559,35 560,30 560,40 559,35 " style="fill:#d81539; stroke-width:1; stroke:black; " description="&lt;b&gt;LLPMBPKK_02670&lt;/b&gt;&lt;br&gt;MbtH family protein&lt;br&gt;Location: 3106752 - 3106974" locus_tag="LLPMBPKK_02670" class="clusterblast-orf" id="dummy-14_q45_0_all"  />
<polygon points="561,35 566,30 571,30 571,40 566,40 561,35 " style="fill:#80d815; stroke-width:1; stroke:black; " description="&lt;b&gt;LLPMBPKK_02671&lt;/b&gt;&lt;br&gt;non-ribosomal peptide synthetase&lt;br&gt;Location: 3107091 - 3108651" locus_tag="LLPMBPKK_02671" class="clusterblast-orf" id="dummy-14_q46_0_all"  />
<polygon points="573,35 577,30 577,40 573,35 " style="fill:white; stroke-width:1; stroke:black; " description="&lt;b&gt;LLPMBPKK_02672&lt;/b&gt;&lt;br&gt;4'-phosphopantetheinyl transferase superfamilyprotein&lt;br&gt;Location: 3108909 - 3109626" locus_tag="LLPMBPKK_02672" class="clusterblast-orf" id="dummy-14_q47_0_all"  />
<polygon points="577,35 582,30 583,30 583,40 582,40 577,35 " style="fill:white; stroke-width:1; stroke:black; " description="&lt;b&gt;LLPMBPKK_02673&lt;/b&gt;&lt;br&gt;alpha/beta hydrolase fold protein&lt;br&gt;Location: 3109622 - 3110603" locus_tag="LLPMBPKK_02673" class="clusterblast-orf" id="dummy-14_q48_0_all"  />
<polygon points="583,35 588,30 588,30 588,40 588,40 583,35 " style="fill:white; stroke-width:1; stroke:black; " description="&lt;b&gt;LLPMBPKK_02674&lt;/b&gt;&lt;br&gt;tryptophan 2,3-dioxygenase&lt;br&gt;Location: 3110599 - 3111292" locus_tag="LLPMBPKK_02674" class="clusterblast-orf" id="dummy-14_q49_0_all"  />
<polygon points="590,40 591,35 590,30 590,40 " style="fill:white; stroke-width:1; stroke:black; " description="&lt;b&gt;LLPMBPKK_02675&lt;/b&gt;&lt;br&gt;hypothetical protein&lt;br&gt;Location: 3111645 - 3111846" locus_tag="LLPMBPKK_02675" class="clusterblast-orf" id="dummy-14_q50_0_all"  />
<polygon points="591,40 601,40 606,35 601,30 591,30 591,40 " style="fill:white; stroke-width:1; stroke:black; " description="&lt;b&gt;LLPMBPKK_02676&lt;/b&gt;&lt;br&gt;TOMM precursor leader peptide-binding protein&lt;br&gt;Location: 3111842 - 3114203" locus_tag="LLPMBPKK_02676" class="clusterblast-orf" id="dummy-14_q51_0_all"  />
<polygon points="607,40 609,35 607,30 607,40 " style="fill:white; stroke-width:1; stroke:black; " description="&lt;b&gt;LLPMBPKK_02677&lt;/b&gt;&lt;br&gt;hypothetical protein&lt;br&gt;Location: 3114308 - 3114755" locus_tag="LLPMBPKK_02677" class="clusterblast-orf" id="dummy-14_q52_0_all"  />
<polygon points="610,40 614,35 610,30 610,40 " style="fill:white; stroke-width:1; stroke:black; " description="&lt;b&gt;LLPMBPKK_02678&lt;/b&gt;&lt;br&gt;NUDIX domain-containing protein&lt;br&gt;Location: 3114939 - 3115461" locus_tag="LLPMBPKK_02678" class="clusterblast-orf" id="dummy-14_q53_0_all"  />
<polygon points="617,35 622,30 622,30 622,40 622,40 617,35 " style="fill:white; stroke-width:1; stroke:black; " description="&lt;b&gt;LLPMBPKK_02679&lt;/b&gt;&lt;br&gt;integral membrane protein&lt;br&gt;Location: 3115906 - 3116836" locus_tag="LLPMBPKK_02679" class="clusterblast-orf" id="dummy-14_q54_0_all"  />
<polygon points="622,35 627,30 628,30 628,40 627,40 622,35 " style="fill:white; stroke-width:1; stroke:black; " description="&lt;b&gt;LLPMBPKK_02680&lt;/b&gt;&lt;br&gt;AraC family transcriptional regulator&lt;br&gt;Location: 3116832 - 3117684" locus_tag="LLPMBPKK_02680" class="clusterblast-orf" id="dummy-14_q55_0_all"  />
<polygon points="629,40 629,40 634,35 629,30 629,30 629,40 " style="fill:white; stroke-width:1; stroke:black; " description="&lt;b&gt;LLPMBPKK_02681&lt;/b&gt;&lt;br&gt;MerR family transcriptional regulator&lt;br&gt;Location: 3117924 - 3118671" locus_tag="LLPMBPKK_02681" class="clusterblast-orf" id="dummy-14_q56_0_all"  />
</g>
<g label="BGC0002676" description="BGC0002676_c1: skyllamycin D/skyllamycin E (13% of genes show similarity), NRP" class="clusterblast-cluster"  >
<text x="5" y="70" class="clusterblast-acc"  >
<a xlink:href="https://mibig.secondarymetabolites.org/go/BGC0002676/1" target="_blank">BGC0002676</a>:                                                      skyllamycin D/skyllamycin E (13% of genes show similarity), NRP</text>
<line x1="10" y1="85" x2="778.0" y2="85" style="stroke-width:1; stroke:grey; "  />
</g>
<g id="a14_000"  >
<polygon points="0,85 1,80 1,90 0,85 " style="fill:white; stroke-width:1; stroke:black; " description="&lt;b&gt;KZO11_19295&lt;/b&gt;&lt;br&gt;DUF1876 domain-containing protein&lt;br&gt;Location: 1 - 273" locus_tag="KZO11_19295" class="clusterblast-orf" id="dummy-14_h14_3_0"  />
</g>
<g id="a14_001"  >
<polygon points="1,85 6,80 7,80 7,90 6,90 1,85 " style="fill:white; stroke-width:1; stroke:black; " description="&lt;b&gt;KZO11_19300&lt;/b&gt;&lt;br&gt;diacylglycerol kinase&lt;br&gt;Location: 307 - 1188" locus_tag="KZO11_19300" class="clusterblast-orf" id="dummy-14_h14_3_1"  />
</g>
<g id="a14_002"  >
<polygon points="8,90 11,90 16,85 11,80 8,80 8,90 " style="fill:white; stroke-width:1; stroke:black; " description="&lt;b&gt;KZO11_19305&lt;/b&gt;&lt;br&gt;adenylosuccinate synthase&lt;br&gt;Location: 1374 - 2657" locus_tag="KZO11_19305" class="clusterblast-orf" id="dummy-14_h14_3_2"  />
</g>
<g id="a14_003"  >
<polygon points="18,85 23,80 27,80 27,90 23,90 18,85 " style="fill:white; stroke-width:1; stroke:black; " description="&lt;b&gt;KZO11_19310&lt;/b&gt;&lt;br&gt;MFS transporter&lt;br&gt;Location: 2963 - 4417" locus_tag="KZO11_19310" class="clusterblast-orf" id="dummy-14_h14_3_3"  />
</g>
<g id="a14_004"  >
<polygon points="31,90 33,85 31,80 31,90 " style="fill:white; stroke-width:1; stroke:black; " description="&lt;b&gt;KZO11_19315&lt;/b&gt;&lt;br&gt;helix-turn-helix transcriptional regulator&lt;br&gt;Location: 5028 - 5378" locus_tag="KZO11_19315" class="clusterblast-orf" id="dummy-14_h14_3_4"  />
</g>
<g id="a14_005"  >
<polygon points="34,90 38,85 34,80 34,90 " style="fill:white; stroke-width:1; stroke:black; " description="&lt;b&gt;KZO11_19320&lt;/b&gt;&lt;br&gt;TetR/AcrR family transcriptional regulator&lt;br&gt;Location: 5441 - 6169" locus_tag="KZO11_19320" class="clusterblast-orf" id="dummy-14_h14_3_5"  />
</g>
<g id="a14_006"  >
<polygon points="41,90 45,90 50,85 45,80 41,80 41,90 " style="fill:white; stroke-width:1; stroke:black; " description="&lt;b&gt;KZO11_19325&lt;/b&gt;&lt;br&gt;MFS transporter&lt;br&gt;Location: 6561 - 8000" locus_tag="KZO11_19325" class="clusterblast-orf" id="dummy-14_h14_3_6"  />
</g>
<g id="a14_007"  >
<polygon points="50,90 56,90 61,85 56,80 50,80 50,90 " style="fill:white; stroke-width:1; stroke:black; " description="&lt;b&gt;KZO11_19330&lt;/b&gt;&lt;br&gt;ABC transporter ATP-binding protein/permease&lt;br&gt;Location: 8039 - 9829" locus_tag="KZO11_19330" class="clusterblast-orf" id="dummy-14_h14_3_7"  />
</g>
<g id="a14_008"  >
<polygon points="62,90 67,90 72,85 67,80 62,80 62,90 " style="fill:white; stroke-width:1; stroke:black; " description="&lt;b&gt;KZO11_19335&lt;/b&gt;&lt;br&gt;ABC transporter ATP-binding protein/permease&lt;br&gt;Location: 9914 - 11593" locus_tag="KZO11_19335" class="clusterblast-orf" id="dummy-14_h14_3_8"  />
</g>
<g id="a14_009"  >
<polygon points="73,85 78,80 78,80 78,90 78,90 73,85 " style="fill:white; stroke-width:1; stroke:black; " description="&lt;b&gt;KZO11_19340&lt;/b&gt;&lt;br&gt;alpha/beta hydrolase&lt;br&gt;Location: 11635 - 12429" locus_tag="KZO11_19340" class="clusterblast-orf" id="dummy-14_h14_3_9"  />
</g>
<g id="a14_0010"  >
<polygon points="78,85 83,80 85,80 85,90 83,90 78,85 " style="fill:white; stroke-width:1; stroke:black; " description="&lt;b&gt;KZO11_19345&lt;/b&gt;&lt;br&gt;acyl-CoA/acyl-ACP dehydrogenase&lt;br&gt;Location: 12463 - 13650" locus_tag="KZO11_19345" class="clusterblast-orf" id="dummy-14_h14_3_10"  />
</g>
<g id="a14_0011"  >
<polygon points="86,85 91,80 93,80 93,90 91,90 86,85 " style="fill:white; stroke-width:1; stroke:black; " description="&lt;b&gt;KZO11_19350&lt;/b&gt;&lt;br&gt;acyl-CoA dehydrogenase&lt;br&gt;Location: 13777 - 14928" locus_tag="KZO11_19350" class="clusterblast-orf" id="dummy-14_h14_3_11"  />
</g>
<g id="a14_0012"  >
<polygon points="93,85 95,80 95,90 93,85 " style="fill:white; stroke-width:1; stroke:black; " description="&lt;b&gt;KZO11_19355&lt;/b&gt;&lt;br&gt;acyl carrier protein&lt;br&gt;Location: 14925 - 15203" locus_tag="KZO11_19355" class="clusterblast-orf" id="dummy-14_h14_3_12"  />
</g>
<g id="a14_0013"  >
<polygon points="95,85 100,80 105,80 105,90 100,90 95,85 " style="fill:white; stroke-width:1; stroke:black; " description="&lt;b&gt;KZO11_19360&lt;/b&gt;&lt;br&gt;amino acid adenylation domain-containing protein&lt;br&gt;Location: 15187 - 16740" locus_tag="KZO11_19360" class="clusterblast-orf" id="dummy-14_h14_3_13"  />
</g>
<g id="a14_0014"  >
<polygon points="105,85 110,80 115,80 115,90 110,90 105,85 " style="fill:white; stroke-width:1; stroke:black; " description="&lt;b&gt;KZO11_19365&lt;/b&gt;&lt;br&gt;AMP-binding protein&lt;br&gt;Location: 16737 - 18368" locus_tag="KZO11_19365" class="clusterblast-orf" id="dummy-14_h14_3_14"  />
</g>
<g id="a14_0015"  >
<polygon points="118,90 135,90 140,85 135,80 118,80 118,90 " style="fill:white; stroke-width:1; stroke:black; " description="&lt;b&gt;KZO11_19370&lt;/b&gt;&lt;br&gt;amino acid adenylation domain-containing protein&lt;br&gt;Location: 18873 - 22415" locus_tag="KZO11_19370" class="clusterblast-orf" id="dummy-14_h14_3_15"  />
</g>
<g id="a14_0016"  >
<polygon points="141,90 145,90 150,85 145,80 141,80 141,90 " style="fill:white; stroke-width:1; stroke:black; " description="&lt;b&gt;KZO11_19375&lt;/b&gt;&lt;br&gt;hypothetical protein&lt;br&gt;Location: 22535 - 23944" locus_tag="KZO11_19375" class="clusterblast-orf" id="dummy-14_h14_3_16"  />
</g>
<g id="a14_0017"  >
<polygon points="151,90 155,85 151,80 151,90 " style="fill:white; stroke-width:1; stroke:black; " description="&lt;b&gt;KZO11_19380&lt;/b&gt;&lt;br&gt;YqcI/YcgG family protein&lt;br&gt;Location: 24061 - 24771" locus_tag="KZO11_19380" class="clusterblast-orf" id="dummy-14_h14_3_17"  />
</g>
<g id="a14_0018"  >
<polygon points="155,90 172,90 177,85 172,80 155,80 155,90 " style="fill:white; stroke-width:1; stroke:black; " description="&lt;b&gt;KZO11_19385&lt;/b&gt;&lt;br&gt;amino acid adenylation domain-containing protein&lt;br&gt;Location: 24764 - 28222" locus_tag="KZO11_19385" class="clusterblast-orf" id="dummy-14_h14_3_18"  />
</g>
<g id="a14_0019"  >
<polygon points="177,90 199,90 204,85 199,80 177,80 177,90 " style="fill:white; stroke-width:1; stroke:black; " description="&lt;b&gt;KZO11_19390&lt;/b&gt;&lt;br&gt;acyltransferase domain-containing protein&lt;br&gt;Location: 28219 - 32535" locus_tag="KZO11_19390" class="clusterblast-orf" id="dummy-14_h14_3_19"  />
</g>
<g id="a14_0020"  >
<polygon points="204,90 205,90 210,85 205,80 204,80 204,90 " style="fill:white; stroke-width:1; stroke:black; " description="&lt;b&gt;KZO11_19395&lt;/b&gt;&lt;br&gt;hypothetical protein&lt;br&gt;Location: 32532 - 33551" locus_tag="KZO11_19395" class="clusterblast-orf" id="dummy-14_h14_3_20"  />
</g>
<g id="a14_0021"  >
<polygon points="212,90 215,85 212,80 212,90 " style="fill:#3915d8; stroke-width:1; stroke:black; " description="&lt;b&gt;KZO11_19400&lt;/b&gt;&lt;br&gt;flavin reductase family protein&lt;br&gt;Location: 33787 - 34278&lt;br&gt;&lt;br&gt;&lt;b&gt;BlastP hit with LLPMBPKK_02665&lt;/b&gt;&lt;br&gt;Percentage identity: 56&lt;br&gt;Percentage coverage: 86&lt;br&gt;BLAST bit score: 169&lt;br&gt;E-value: 6.96e-54" locus_tag="KZO11_19400" class="clusterblast-orf" id="dummy-14_h14_3_21"  />
</g>
<g id="a14_0022"  >
<polygon points="216,90 216,90 221,85 216,80 216,80 216,90 " style="fill:white; stroke-width:1; stroke:black; " description="&lt;b&gt;KZO11_19405&lt;/b&gt;&lt;br&gt;chitinase&lt;br&gt;Location: 34498 - 35319" locus_tag="KZO11_19405" class="clusterblast-orf" id="dummy-14_h14_3_22"  />
</g>
<g id="a14_0023"  >
<polygon points="223,90 224,90 229,85 224,80 223,80 223,90 " style="fill:white; stroke-width:1; stroke:black; " description="&lt;b&gt;KZO11_19410&lt;/b&gt;&lt;br&gt;chitinase&lt;br&gt;Location: 35624 - 36508" locus_tag="KZO11_19410" class="clusterblast-orf" id="dummy-14_h14_3_23"  />
</g>
<g id="a14_0024"  >
<polygon points="230,85 235,80 237,80 237,90 235,90 230,85 " style="fill:white; stroke-width:1; stroke:black; " description="&lt;b&gt;KZO11_19415&lt;/b&gt;&lt;br&gt;DNA polymerase III subunit beta&lt;br&gt;Location: 36626 - 37741" locus_tag="KZO11_19415" class="clusterblast-orf" id="dummy-14_h14_3_24"  />
</g>
<g id="a14_0025"  >
<polygon points="239,90 243,90 248,85 243,80 239,80 239,90 " style="fill:white; stroke-width:1; stroke:black; " description="&lt;b&gt;KZO11_19420&lt;/b&gt;&lt;br&gt;helix-turn-helix domain-containing protein&lt;br&gt;Location: 38120 - 39592" locus_tag="KZO11_19420" class="clusterblast-orf" id="dummy-14_h14_3_25"  />
</g>
<g id="a14_0026"  >
<polygon points="256,90 260,85 256,80 256,90 " style="fill:white; stroke-width:1; stroke:black; " description="&lt;b&gt;KZO11_19425&lt;/b&gt;&lt;br&gt;LuxR family transcriptional regulator&lt;br&gt;Location: 40761 - 41504" locus_tag="KZO11_19425" class="clusterblast-orf" id="dummy-14_h14_3_26"  />
</g>
<g id="a14_0027"  >
<polygon points="262,90 266,85 262,80 262,90 " style="fill:white; stroke-width:1; stroke:black; " description="&lt;b&gt;KZO11_19430&lt;/b&gt;&lt;br&gt;LuxR family transcriptional regulator&lt;br&gt;Location: 41724 - 42491" locus_tag="KZO11_19430" class="clusterblast-orf" id="dummy-14_h14_3_27"  />
</g>
<g id="a14_0028"  >
<polygon points="268,90 268,90 273,85 268,80 268,80 268,90 " style="fill:white; stroke-width:1; stroke:black; " description="&lt;b&gt;KZO11_19435&lt;/b&gt;&lt;br&gt;helix-turn-helix domain-containing protein&lt;br&gt;Location: 42732 - 43586" locus_tag="KZO11_19435" class="clusterblast-orf" id="dummy-14_h14_3_28"  />
</g>
<g id="a14_0029"  >
<polygon points="273,90 281,90 286,85 281,80 273,80 273,90 " style="fill:white; stroke-width:1; stroke:black; " description="&lt;b&gt;KZO11_19440&lt;/b&gt;&lt;br&gt;transcriptional regulator&lt;br&gt;Location: 43615 - 45558" locus_tag="KZO11_19440" class="clusterblast-orf" id="dummy-14_h14_3_29"  />
</g>
<g id="a14_0030"  >
<polygon points="287,85 288,80 288,90 287,85 " style="fill:white; stroke-width:1; stroke:black; " description="&lt;b&gt;KZO11_19445&lt;/b&gt;&lt;br&gt;hypothetical protein&lt;br&gt;Location: 45705 - 45914" locus_tag="KZO11_19445" class="clusterblast-orf" id="dummy-14_h14_3_30"  />
</g>
<g id="a14_0031"  >
<polygon points="290,90 290,90 295,85 290,80 290,80 290,90 " style="fill:white; stroke-width:1; stroke:black; " description="&lt;b&gt;KZO11_19450&lt;/b&gt;&lt;br&gt;helix-turn-helix domain-containing protein&lt;br&gt;Location: 46304 - 47011" locus_tag="KZO11_19450" class="clusterblast-orf" id="dummy-14_h14_3_31"  />
</g>
<g id="a14_0032"  >
<polygon points="296,90 298,85 296,80 296,90 " style="fill:white; stroke-width:1; stroke:black; " description="&lt;b&gt;KZO11_19455&lt;/b&gt;&lt;br&gt;LysR family transcriptional regulator&lt;br&gt;Location: 47274 - 47558" locus_tag="KZO11_19455" class="clusterblast-orf" id="dummy-14_h14_3_32"  />
</g>
<g id="a14_0033"  >
<polygon points="299,90 302,85 299,80 299,90 " style="fill:white; stroke-width:1; stroke:black; " description="&lt;b&gt;KZO11_19460&lt;/b&gt;&lt;br&gt;cobalamin-dependent protein&lt;br&gt;Location: 47690 - 48139" locus_tag="KZO11_19460" class="clusterblast-orf" id="dummy-14_h14_3_33"  />
</g>
<g id="a14_0034"  >
<polygon points="302,90 305,90 310,85 305,80 302,80 302,90 " style="fill:white; stroke-width:1; stroke:black; " description="&lt;b&gt;KZO11_19465&lt;/b&gt;&lt;br&gt;methylaspartate mutase&lt;br&gt;Location: 48136 - 49452" locus_tag="KZO11_19465" class="clusterblast-orf" id="dummy-14_h14_3_34"  />
</g>
<g id="a14_0035"  >
<polygon points="311,85 314,80 314,90 311,85 " style="fill:white; stroke-width:1; stroke:black; " description="&lt;b&gt;KZO11_19470&lt;/b&gt;&lt;br&gt;flavin reductase family protein&lt;br&gt;Location: 49544 - 50068" locus_tag="KZO11_19470" class="clusterblast-orf" id="dummy-14_h14_3_35"  />
</g>
<g id="a14_0036"  >
<polygon points="314,85 319,80 321,80 321,90 319,90 314,85 " style="fill:white; stroke-width:1; stroke:black; " description="&lt;b&gt;KZO11_19475&lt;/b&gt;&lt;br&gt;LLM class flavin-dependent oxidoreductase&lt;br&gt;Location: 50147 - 51217" locus_tag="KZO11_19475" class="clusterblast-orf" id="dummy-14_h14_3_36"  />
</g>
<g id="a14_0037"  >
<polygon points="322,85 327,80 327,80 327,90 327,90 322,85 " style="fill:white; stroke-width:1; stroke:black; " description="&lt;b&gt;KZO11_19480&lt;/b&gt;&lt;br&gt;ABC transporter permease&lt;br&gt;Location: 51302 - 52096" locus_tag="KZO11_19480" class="clusterblast-orf" id="dummy-14_h14_3_37"  />
</g>
<g id="a14_0038"  >
<polygon points="327,85 332,80 334,80 334,90 332,90 327,85 " style="fill:white; stroke-width:1; stroke:black; " description="&lt;b&gt;KZO11_19485&lt;/b&gt;&lt;br&gt;methyltransferase domain-containing protein&lt;br&gt;Location: 52110 - 53261" locus_tag="KZO11_19485" class="clusterblast-orf" id="dummy-14_h14_3_38"  />
</g>
<g id="a14_0039"  >
<polygon points="334,85 339,80 339,80 339,90 339,90 334,85 " style="fill:white; stroke-width:1; stroke:black; " description="&lt;b&gt;KZO11_19490&lt;/b&gt;&lt;br&gt;ABC transporter permease&lt;br&gt;Location: 53308 - 54096" locus_tag="KZO11_19490" class="clusterblast-orf" id="dummy-14_h14_3_39"  />
</g>
<g id="a14_0040"  >
<polygon points="339,85 344,80 345,80 345,90 344,90 339,85 " style="fill:#5c15d8; stroke-width:1; stroke:black; " description="&lt;b&gt;KZO11_19495&lt;/b&gt;&lt;br&gt;ATP-binding cassette domain-containing protein&lt;br&gt;Location: 54093 - 55070&lt;br&gt;&lt;br&gt;&lt;b&gt;BlastP hit with LLPMBPKK_02669&lt;/b&gt;&lt;br&gt;Percentage identity: 61&lt;br&gt;Percentage coverage: 99&lt;br&gt;BLAST bit score: 344&lt;br&gt;E-value: 1.75e-118" locus_tag="KZO11_19495" class="clusterblast-orf" id="dummy-14_h14_3_40"  />
</g>
<g id="a14_0041"  >
<polygon points="347,90 351,85 347,80 347,90 " style="fill:white; stroke-width:1; stroke:black; " description="&lt;b&gt;KZO11_19500&lt;/b&gt;&lt;br&gt;DUF3995 domain-containing protein&lt;br&gt;Location: 55335 - 55991" locus_tag="KZO11_19500" class="clusterblast-orf" id="dummy-14_h14_3_41"  />
</g>
<g id="a14_0042"  >
<polygon points="351,85 355,80 355,90 351,85 " style="fill:white; stroke-width:1; stroke:black; " description="&lt;b&gt;KZO11_19505&lt;/b&gt;&lt;br&gt;alpha/beta fold hydrolase&lt;br&gt;Location: 56011 - 56676" locus_tag="KZO11_19505" class="clusterblast-orf" id="dummy-14_h14_3_42"  />
</g>
<g id="a14_0043"  >
<polygon points="356,85 361,80 364,80 364,90 361,90 356,85 " style="fill:#155cd8; stroke-width:1; stroke:black; " description="&lt;b&gt;KZO11_19510&lt;/b&gt;&lt;br&gt;cytochrome P450&lt;br&gt;Location: 56781 - 58052&lt;br&gt;&lt;br&gt;&lt;b&gt;BlastP hit with LLPMBPKK_02653&lt;/b&gt;&lt;br&gt;Percentage identity: 56&lt;br&gt;Percentage coverage: 95&lt;br&gt;BLAST bit score: 466&lt;br&gt;E-value: 1.68e-163" locus_tag="KZO11_19510" class="clusterblast-orf" id="dummy-14_h14_3_43"  />
</g>
<g id="a14_0044"  >
<polygon points="364,85 369,80 438,80 438,90 369,90 364,85 " style="fill:white; stroke-width:1; stroke:black; " description="&lt;b&gt;KZO11_19515&lt;/b&gt;&lt;br&gt;amino acid adenylation domain-containing protein&lt;br&gt;Location: 58092 - 69818" locus_tag="KZO11_19515" class="clusterblast-orf" id="dummy-14_h14_3_44"  />
</g>
<g id="a14_0045"  >
<polygon points="438,85 443,80 527,80 527,90 443,90 438,85 " style="fill:#d8a315; stroke-width:1; stroke:black; " description="&lt;b&gt;KZO11_19520&lt;/b&gt;&lt;br&gt;amino acid adenylation domain-containing protein&lt;br&gt;Location: 69812 - 83998&lt;br&gt;&lt;br&gt;&lt;b&gt;BlastP hit with LLPMBPKK_02655&lt;/b&gt;&lt;br&gt;Percentage identity: 47&lt;br&gt;Percentage coverage: 45&lt;br&gt;BLAST bit score: 1363&lt;br&gt;E-value: 0.0" locus_tag="KZO11_19520" class="clusterblast-orf" id="dummy-14_h14_3_45"  />
</g>
<g id="a14_0046"  >
<polygon points="527,85 532,80 617,80 617,90 532,90 527,85 " style="fill:white; stroke-width:1; stroke:black; " description="&lt;b&gt;KZO11_19525&lt;/b&gt;&lt;br&gt;amino acid adenylation domain-containing protein&lt;br&gt;Location: 83995 - 98238" locus_tag="KZO11_19525" class="clusterblast-orf" id="dummy-14_h14_3_46"  />
</g>
<g id="a14_0047"  >
<polygon points="618,85 623,80 628,80 628,90 623,90 618,85 " style="fill:white; stroke-width:1; stroke:black; " description="&lt;b&gt;KZO11_19530&lt;/b&gt;&lt;br&gt;NAD(P)/FAD-dependent oxidoreductase&lt;br&gt;Location: 98417 - 100084" locus_tag="KZO11_19530" class="clusterblast-orf" id="dummy-14_h14_3_47"  />
</g>
<g id="a14_0048"  >
<polygon points="629,85 633,80 633,90 629,85 " style="fill:#15d85c; stroke-width:1; stroke:black; " description="&lt;b&gt;KZO11_19535&lt;/b&gt;&lt;br&gt;DsbA family protein&lt;br&gt;Location: 100182 - 100892&lt;br&gt;&lt;br&gt;&lt;b&gt;BlastP hit with LLPMBPKK_02656&lt;/b&gt;&lt;br&gt;Percentage identity: 51&lt;br&gt;Percentage coverage: 100&lt;br&gt;BLAST bit score: 242&lt;br&gt;E-value: 7.05e-81" locus_tag="KZO11_19535" class="clusterblast-orf" id="dummy-14_h14_3_48"  />
</g>
<g id="a14_0049"  >
<polygon points="633,85 638,80 638,80 638,90 638,90 633,85 " style="fill:#1539d8; stroke-width:1; stroke:black; " description="&lt;b&gt;KZO11_19540&lt;/b&gt;&lt;br&gt;3-oxoacyl-[acyl-carrier-protein] reductase&lt;br&gt;Location: 100934 - 101680&lt;br&gt;&lt;br&gt;&lt;b&gt;BlastP hit with LLPMBPKK_02657&lt;/b&gt;&lt;br&gt;Percentage identity: 58&lt;br&gt;Percentage coverage: 100&lt;br&gt;BLAST bit score: 270&lt;br&gt;E-value: 2.1e-91" locus_tag="KZO11_19540" class="clusterblast-orf" id="dummy-14_h14_3_49"  />
</g>
<g id="a14_0050"  >
<polygon points="638,85 641,80 641,90 638,85 " style="fill:white; stroke-width:1; stroke:black; " description="&lt;b&gt;KZO11_19545&lt;/b&gt;&lt;br&gt;beta-hydroxyacyl-ACP dehydratase&lt;br&gt;Location: 101702 - 102190" locus_tag="KZO11_19545" class="clusterblast-orf" id="dummy-14_h14_3_50"  />
</g>
<g id="a14_0051"  >
<polygon points="641,85 644,80 644,90 641,85 " style="fill:white; stroke-width:1; stroke:black; " description="&lt;b&gt;KZO11_19550&lt;/b&gt;&lt;br&gt;hypothetical protein&lt;br&gt;Location: 102187 - 102633" locus_tag="KZO11_19550" class="clusterblast-orf" id="dummy-14_h14_3_51"  />
</g>
<g id="a14_0052"  >
<polygon points="644,85 646,80 646,90 644,85 " style="fill:white; stroke-width:1; stroke:black; " description="&lt;b&gt;KZO11_19555&lt;/b&gt;&lt;br&gt;acyl carrier protein&lt;br&gt;Location: 102630 - 102878" locus_tag="KZO11_19555" class="clusterblast-orf" id="dummy-14_h14_3_52"  />
</g>
<g id="a14_0053"  >
<polygon points="646,85 651,80 653,80 653,90 651,90 646,85 " style="fill:#d815a3; stroke-width:1; stroke:black; " description="&lt;b&gt;KZO11_19560&lt;/b&gt;&lt;br&gt;3-oxoacyl-ACP synthase&lt;br&gt;Location: 102938 - 104041&lt;br&gt;&lt;br&gt;&lt;b&gt;BlastP hit with LLPMBPKK_02658&lt;/b&gt;&lt;br&gt;Percentage identity: 49&lt;br&gt;Percentage coverage: 98&lt;br&gt;BLAST bit score: 294&lt;br&gt;E-value: 2.44e-97" locus_tag="KZO11_19560" class="clusterblast-orf" id="dummy-14_h14_3_53"  />
</g>
<g id="a14_0054"  >
<polygon points="653,85 658,80 660,80 660,90 658,90 653,85 " style="fill:white; stroke-width:1; stroke:black; " description="&lt;b&gt;KZO11_19565&lt;/b&gt;&lt;br&gt;thioesterase family protein&lt;br&gt;Location: 104070 - 105110" locus_tag="KZO11_19565" class="clusterblast-orf" id="dummy-14_h14_3_54"  />
</g>
<g id="a14_0055"  >
<polygon points="660,85 665,80 665,80 665,90 665,90 660,85 " style="fill:white; stroke-width:1; stroke:black; " description="&lt;b&gt;KZO11_19570&lt;/b&gt;&lt;br&gt;alpha/beta hydrolase&lt;br&gt;Location: 105116 - 106006" locus_tag="KZO11_19570" class="clusterblast-orf" id="dummy-14_h14_3_55"  />
</g>
<g id="a14_0056"  >
<polygon points="665,85 670,80 671,80 671,90 670,90 665,85 " style="fill:white; stroke-width:1; stroke:black; " description="&lt;b&gt;KZO11_19575&lt;/b&gt;&lt;br&gt;3-oxoacyl-ACP synthase&lt;br&gt;Location: 106003 - 106965" locus_tag="KZO11_19575" class="clusterblast-orf" id="dummy-14_h14_3_56"  />
</g>
<g id="a14_0057"  >
<polygon points="671,85 676,80 678,80 678,90 676,90 671,85 " style="fill:white; stroke-width:1; stroke:black; " description="&lt;b&gt;KZO11_19580&lt;/b&gt;&lt;br&gt;3-oxoacyl-ACP synthase&lt;br&gt;Location: 106962 - 108095" locus_tag="KZO11_19580" class="clusterblast-orf" id="dummy-14_h14_3_57"  />
</g>
<g id="a14_0058"  >
<polygon points="678,85 683,80 686,80 686,90 683,90 678,85 " style="fill:#d8c715; stroke-width:1; stroke:black; " description="&lt;b&gt;KZO11_19585&lt;/b&gt;&lt;br&gt;beta-ketoacyl-[acyl-carrier-protein] synthase family protein&lt;br&gt;Location: 108092 - 109348&lt;br&gt;&lt;br&gt;&lt;b&gt;BlastP hit with LLPMBPKK_02659&lt;/b&gt;&lt;br&gt;Percentage identity: 68&lt;br&gt;Percentage coverage: 94&lt;br&gt;BLAST bit score: 550&lt;br&gt;E-value: 3e-196" locus_tag="KZO11_19585" class="clusterblast-orf" id="dummy-14_h14_3_58"  />
</g>
<g id="a14_0059"  >
<polygon points="687,85 688,80 688,90 687,85 " style="fill:#15d880; stroke-width:1; stroke:black; " description="&lt;b&gt;KZO11_19590&lt;/b&gt;&lt;br&gt;acyl carrier protein&lt;br&gt;Location: 109401 - 109655&lt;br&gt;&lt;br&gt;&lt;b&gt;BlastP hit with LLPMBPKK_02660&lt;/b&gt;&lt;br&gt;Percentage identity: 60&lt;br&gt;Percentage coverage: 92&lt;br&gt;BLAST bit score: 88&lt;br&gt;E-value: 2.43e-24" locus_tag="KZO11_19590" class="clusterblast-orf" id="dummy-14_h14_3_59"  />
</g>
<g id="a14_0060"  >
<polygon points="691,90 692,85 691,80 691,90 " style="fill:#d81539; stroke-width:1; stroke:black; " description="&lt;b&gt;KZO11_19595&lt;/b&gt;&lt;br&gt;MbtH family protein&lt;br&gt;Location: 110089 - 110310&lt;br&gt;&lt;br&gt;&lt;b&gt;BlastP hit with LLPMBPKK_02670&lt;/b&gt;&lt;br&gt;Percentage identity: 61&lt;br&gt;Percentage coverage: 85&lt;br&gt;BLAST bit score: 94&lt;br&gt;E-value: 3.1e-27" locus_tag="KZO11_19595" class="clusterblast-orf" id="dummy-14_h14_3_60"  />
</g>
<g id="a14_0061"  >
<polygon points="693,85 698,80 705,80 705,90 698,90 693,85 " style="fill:white; stroke-width:1; stroke:black; " description="&lt;b&gt;KZO11_19600&lt;/b&gt;&lt;br&gt;AarF/ABC1/UbiB kinase family protein&lt;br&gt;Location: 110401 - 112362" locus_tag="KZO11_19600" class="clusterblast-orf" id="dummy-14_h14_3_61"  />
</g>
<g id="a14_0062"  >
<polygon points="706,85 711,80 711,80 711,90 711,90 706,85 " style="fill:white; stroke-width:1; stroke:black; " description="&lt;b&gt;KZO11_19605&lt;/b&gt;&lt;br&gt;ACP S-malonyltransferase&lt;br&gt;Location: 112418 - 113335" locus_tag="KZO11_19605" class="clusterblast-orf" id="dummy-14_h14_3_62"  />
</g>
<g id="a14_0063"  >
<polygon points="715,90 717,90 722,85 717,80 715,80 715,90 " style="fill:white; stroke-width:1; stroke:black; " description="&lt;b&gt;KZO11_19610&lt;/b&gt;&lt;br&gt;polyprenyl synthetase family protein&lt;br&gt;Location: 113975 - 115018" locus_tag="KZO11_19610" class="clusterblast-orf" id="dummy-14_h14_3_63"  />
</g>
<g id="a14_0064"  >
<polygon points="722,90 727,90 732,85 727,80 722,80 722,90 " style="fill:white; stroke-width:1; stroke:black; " description="&lt;b&gt;KZO11_19615&lt;/b&gt;&lt;br&gt;acyl-CoA carboxylase subunit beta&lt;br&gt;Location: 115048 - 116595" locus_tag="KZO11_19615" class="clusterblast-orf" id="dummy-14_h14_3_64"  />
</g>
<g id="a14_0065"  >
<polygon points="732,90 733,85 732,80 732,90 " style="fill:white; stroke-width:1; stroke:black; " description="&lt;b&gt;KZO11_19620&lt;/b&gt;&lt;br&gt;acyl-CoA carboxylase subunit epsilon&lt;br&gt;Location: 116592 - 116804" locus_tag="KZO11_19620" class="clusterblast-orf" id="dummy-14_h14_3_65"  />
</g>
<g id="a14_0066"  >
<polygon points="733,85 738,80 742,80 742,90 738,90 733,85 " style="fill:white; stroke-width:1; stroke:black; " description="&lt;b&gt;KZO11_19625&lt;/b&gt;&lt;br&gt;FG-GAP repeat protein&lt;br&gt;Location: 116842 - 118278" locus_tag="KZO11_19625" class="clusterblast-orf" id="dummy-14_h14_3_66"  />
</g>
<g id="a14_0067"  >
<polygon points="743,85 745,80 745,90 743,85 " style="fill:white; stroke-width:1; stroke:black; " description="&lt;b&gt;KZO11_19630&lt;/b&gt;&lt;br&gt;DUF397 domain-containing protein&lt;br&gt;Location: 118371 - 118607" locus_tag="KZO11_19630" class="clusterblast-orf" id="dummy-14_h14_3_67"  />
</g>
<g id="a14_0068"  >
<polygon points="744,85 749,80 750,80 750,90 749,90 744,85 " style="fill:white; stroke-width:1; stroke:black; " description="&lt;b&gt;KZO11_19635&lt;/b&gt;&lt;br&gt;helix-turn-helix transcriptional regulator&lt;br&gt;Location: 118604 - 119440" locus_tag="KZO11_19635" class="clusterblast-orf" id="dummy-14_h14_3_68"  />
</g>
<g id="a14_0069"  >
<polygon points="751,90 753,85 751,80 751,90 " style="fill:white; stroke-width:1; stroke:black; " description="&lt;b&gt;KZO11_19640&lt;/b&gt;&lt;br&gt;hypothetical protein&lt;br&gt;Location: 119597 - 120004" locus_tag="KZO11_19640" class="clusterblast-orf" id="dummy-14_h14_3_69"  />
</g>
<g id="a14_0070"  >
<polygon points="753,85 757,80 757,90 753,85 " style="fill:white; stroke-width:1; stroke:black; " description="&lt;b&gt;KZO11_19645&lt;/b&gt;&lt;br&gt;GNAT family N-acetyltransferase&lt;br&gt;Location: 119993 - 120610" locus_tag="KZO11_19645" class="clusterblast-orf" id="dummy-14_h14_3_70"  />
</g>
<g id="a14_0071"  >
<polygon points="758,90 758,90 763,85 758,80 758,80 758,90 " style="fill:white; stroke-width:1; stroke:black; " description="&lt;b&gt;KZO11_19650&lt;/b&gt;&lt;br&gt;DsbA family oxidoreductase&lt;br&gt;Location: 120835 - 121491" locus_tag="KZO11_19650" class="clusterblast-orf" id="dummy-14_h14_3_71"  />
</g>
<g id="a14_0072"  >
<polygon points="763,90 765,90 770,85 765,80 763,80 763,90 " style="fill:white; stroke-width:1; stroke:black; " description="&lt;b&gt;KZO11_19655&lt;/b&gt;&lt;br&gt;NADH:flavin oxidoreductase&lt;br&gt;Location: 121538 - 122623" locus_tag="KZO11_19655" class="clusterblast-orf" id="dummy-14_h14_3_72"  />
</g>
<g id="a14_0073"  >
<polygon points="771,90 774,85 771,80 771,90 " style="fill:white; stroke-width:1; stroke:black; " description="&lt;b&gt;KZO11_19660&lt;/b&gt;&lt;br&gt;nucleoside deaminase&lt;br&gt;Location: 122774 - 123253" locus_tag="KZO11_19660" class="clusterblast-orf" id="dummy-14_h14_3_73"  />
</g>
<g id="a14_0074"  >
<polygon points="774,90 776,85 774,80 774,90 " style="fill:white; stroke-width:1; stroke:black; " description="&lt;b&gt;KZO11_19665&lt;/b&gt;&lt;br&gt;multidrug efflux SMR transporter&lt;br&gt;Location: 123345 - 123665" locus_tag="KZO11_19665" class="clusterblast-orf" id="dummy-14_h14_3_74"  />
</g>
<g id="a14_0075"  >
<polygon points="777,90 780,85 777,80 777,90 " style="fill:white; stroke-width:1; stroke:black; " description="&lt;b&gt;KZO11_19670&lt;/b&gt;&lt;br&gt;multidrug efflux SMR transporter&lt;br&gt;Location: 123766 - 124179" locus_tag="KZO11_19670" class="clusterblast-orf" id="dummy-14_h14_3_75"  />
</g>
</svg>
