<svg xmlns="http://www.w3.org/2000/svg" xmlns:xlink="http://www.w3.org/1999/xlink" version="1.1" x="0" y="0" height="230" width="800" viewBox="0 0 800 230" preserveAspectRatio="none"  >
<g label="Query sequence" class="clusterblast-cluster"  >
<text x="5" y="20" class="clusterblast-acc"  >
Query sequence</text>
<line x1="10" y1="35" x2="778.0" y2="35" style="stroke-width:1; stroke:grey; "  />
<polygon points="0,35 4,30 4,40 0,35 " style="fill:white; stroke-width:1; stroke:black; " description="&lt;b&gt;LLPMBPKK_00521&lt;/b&gt;&lt;br&gt;FMN reductase&lt;br&gt;Location: 626718 - 627333" locus_tag="LLPMBPKK_00521" class="clusterblast-orf" id="dummy-3_q0_0_all"  />
<polygon points="4,35 9,30 13,30 13,40 9,40 4,35 " style="fill:white; stroke-width:1; stroke:black; " description="&lt;b&gt;LLPMBPKK_00522&lt;/b&gt;&lt;br&gt;LLM class flavin-dependent oxidoreductase&lt;br&gt;Location: 627329 - 628415" locus_tag="LLPMBPKK_00522" class="clusterblast-orf" id="dummy-3_q1_0_all"  />
<polygon points="14,35 19,30 21,30 21,40 19,40 14,35 " style="fill:white; stroke-width:1; stroke:black; " description="&lt;b&gt;LLPMBPKK_00523&lt;/b&gt;&lt;br&gt;non-heme bromoperoxidase BPO-A2&lt;br&gt;Location: 628614 - 629451" locus_tag="LLPMBPKK_00523" class="clusterblast-orf" id="dummy-3_q2_0_all"  />
<polygon points="25,40 27,40 32,35 27,30 25,30 25,40 " style="fill:white; stroke-width:1; stroke:black; " description="&lt;b&gt;LLPMBPKK_00524&lt;/b&gt;&lt;br&gt;MerR family DNA-binding transcriptionalregulator&lt;br&gt;Location: 629924 - 630884" locus_tag="LLPMBPKK_00524" class="clusterblast-orf" id="dummy-3_q3_0_all"  />
<polygon points="33,40 33,40 38,35 33,30 33,30 33,40 " style="fill:white; stroke-width:1; stroke:black; " description="&lt;b&gt;LLPMBPKK_00525&lt;/b&gt;&lt;br&gt;transcriptional regulator&lt;br&gt;Location: 630968 - 631613" locus_tag="LLPMBPKK_00525" class="clusterblast-orf" id="dummy-3_q4_0_all"  />
<polygon points="40,40 44,35 40,30 40,40 " style="fill:white; stroke-width:1; stroke:black; " description="&lt;b&gt;LLPMBPKK_00526&lt;/b&gt;&lt;br&gt;hypothetical protein&lt;br&gt;Location: 631916 - 632405" locus_tag="LLPMBPKK_00526" class="clusterblast-orf" id="dummy-3_q5_0_all"  />
<polygon points="45,40 45,40 50,35 45,30 45,30 45,40 " style="fill:white; stroke-width:1; stroke:black; " description="&lt;b&gt;LLPMBPKK_00527&lt;/b&gt;&lt;br&gt;class F sortase&lt;br&gt;Location: 632574 - 633225" locus_tag="LLPMBPKK_00527" class="clusterblast-orf" id="dummy-3_q6_0_all"  />
<polygon points="52,40 79,40 84,35 79,30 52,30 52,40 " style="fill:white; stroke-width:1; stroke:black; " description="&lt;b&gt;LLPMBPKK_00528&lt;/b&gt;&lt;br&gt;hypothetical protein&lt;br&gt;Location: 633383 - 637448" locus_tag="LLPMBPKK_00528" class="clusterblast-orf" id="dummy-3_q7_0_all"  />
<polygon points="85,40 87,35 85,30 85,40 " style="fill:white; stroke-width:1; stroke:black; " description="&lt;b&gt;LLPMBPKK_00529&lt;/b&gt;&lt;br&gt;hypothetical protein&lt;br&gt;Location: 637581 - 637950" locus_tag="LLPMBPKK_00529" class="clusterblast-orf" id="dummy-3_q8_0_all"  />
<polygon points="90,40 90,40 95,35 90,30 90,30 90,40 " style="fill:white; stroke-width:1; stroke:black; " description="&lt;b&gt;LLPMBPKK_00530&lt;/b&gt;&lt;br&gt;hypothetical protein&lt;br&gt;Location: 638304 - 638916" locus_tag="LLPMBPKK_00530" class="clusterblast-orf" id="dummy-3_q9_0_all"  />
<polygon points="96,35 101,30 115,30 115,40 101,40 96,35 " style="fill:white; stroke-width:1; stroke:black; " description="&lt;b&gt;LLPMBPKK_00531&lt;/b&gt;&lt;br&gt;glycoside hydrolase family 65 protein&lt;br&gt;Location: 639041 - 641441" locus_tag="LLPMBPKK_00531" class="clusterblast-orf" id="dummy-3_q10_0_all"  />
<polygon points="115,35 120,30 121,30 121,40 120,40 115,35 " style="fill:white; stroke-width:1; stroke:black; " description="&lt;b&gt;LLPMBPKK_00532&lt;/b&gt;&lt;br&gt;hydrolase&lt;br&gt;Location: 641437 - 642181" locus_tag="LLPMBPKK_00532" class="clusterblast-orf" id="dummy-3_q11_0_all"  />
<polygon points="124,35 129,30 131,30 131,40 129,40 124,35 " style="fill:white; stroke-width:1; stroke:black; " description="&lt;b&gt;LLPMBPKK_00533&lt;/b&gt;&lt;br&gt;hypothetical protein&lt;br&gt;Location: 642596 - 643553" locus_tag="LLPMBPKK_00533" class="clusterblast-orf" id="dummy-3_q12_0_all"  />
<polygon points="133,40 134,40 139,35 134,30 133,30 133,40 " style="fill:white; stroke-width:1; stroke:black; " description="&lt;b&gt;LLPMBPKK_00534&lt;/b&gt;&lt;br&gt;lipoprotein&lt;br&gt;Location: 643768 - 644509" locus_tag="LLPMBPKK_00534" class="clusterblast-orf" id="dummy-3_q13_0_all"  />
<polygon points="140,35 145,30 149,30 149,40 145,40 140,35 " style="fill:white; stroke-width:1; stroke:black; " description="&lt;b&gt;LLPMBPKK_00535&lt;/b&gt;&lt;br&gt;oxidoreductase&lt;br&gt;Location: 644721 - 645858" locus_tag="LLPMBPKK_00535" class="clusterblast-orf" id="dummy-3_q14_0_all"  />
<polygon points="151,40 154,35 151,30 151,40 " style="fill:white; stroke-width:1; stroke:black; " description="&lt;b&gt;LLPMBPKK_00536&lt;/b&gt;&lt;br&gt;hypothetical protein&lt;br&gt;Location: 646074 - 646482" locus_tag="LLPMBPKK_00536" class="clusterblast-orf" id="dummy-3_q15_0_all"  />
<polygon points="155,35 160,30 170,30 170,40 160,40 155,35 " style="fill:#d81515; stroke-width:1; stroke:black; " description="&lt;b&gt;LLPMBPKK_00537&lt;/b&gt;&lt;br&gt;ACP S-malonyltransferase&lt;br&gt;Location: 646632 - 648510" locus_tag="LLPMBPKK_00537" class="clusterblast-orf" id="dummy-3_q16_0_all"  />
<polygon points="170,35 175,30 188,30 188,40 175,40 170,35 " style="fill:#d81515; stroke-width:1; stroke:black; " description="&lt;b&gt;LLPMBPKK_00538&lt;/b&gt;&lt;br&gt;1,4-dihydroxy-2-naphthoyl-CoA synthase&lt;br&gt;Location: 648514 - 650752" locus_tag="LLPMBPKK_00538" class="clusterblast-orf" id="dummy-3_q17_0_all"  />
<polygon points="187,35 192,30 197,30 197,40 192,40 187,35 " style="fill:#15d863; stroke-width:1; stroke:black; " description="&lt;b&gt;LLPMBPKK_00539&lt;/b&gt;&lt;br&gt;Polyketide biosynthesis3-hydroxy-3-methylglutaryl-ACP synthase PksG&lt;br&gt;Location: 650739 - 652002" locus_tag="LLPMBPKK_00539" class="clusterblast-orf" id="dummy-3_q18_0_all"  />
<polygon points="197,35 202,30 207,30 207,40 202,40 197,35 " style="fill:#1563d8; stroke-width:1; stroke:black; " description="&lt;b&gt;LLPMBPKK_00540&lt;/b&gt;&lt;br&gt;3-oxoacyl-ACP synthase&lt;br&gt;Location: 652007 - 653243" locus_tag="LLPMBPKK_00540" class="clusterblast-orf" id="dummy-3_q19_0_all"  />
<polygon points="207,35 209,30 209,40 207,35 " style="fill:#b115d8; stroke-width:1; stroke:black; " description="&lt;b&gt;LLPMBPKK_00541&lt;/b&gt;&lt;br&gt;Polyketide biosynthesis acyl-carrier-proteinAcpK&lt;br&gt;Location: 653244 - 653508" locus_tag="LLPMBPKK_00541" class="clusterblast-orf" id="dummy-3_q20_0_all"  />
<polygon points="209,35 214,30 281,30 281,40 214,40 209,35 " style="fill:white; stroke-width:1; stroke:black; " description="&lt;b&gt;LLPMBPKK_00542&lt;/b&gt;&lt;br&gt;D-alanine--poly(phosphoribitol) ligase subunit 1&lt;br&gt;Location: 653546 - 662720" locus_tag="LLPMBPKK_00542" class="clusterblast-orf" id="dummy-3_q21_0_all"  />
<polygon points="281,35 286,30 341,30 341,40 286,40 281,35 " style="fill:white; stroke-width:1; stroke:black; " description="&lt;b&gt;LLPMBPKK_00543&lt;/b&gt;&lt;br&gt;non-ribosomal peptide synthetase&lt;br&gt;Location: 662716 - 670306" locus_tag="LLPMBPKK_00543" class="clusterblast-orf" id="dummy-3_q22_0_all"  />
<polygon points="340,35 345,30 453,30 453,40 345,40 340,35 " style="fill:white; stroke-width:1; stroke:black; " description="&lt;b&gt;LLPMBPKK_00544&lt;/b&gt;&lt;br&gt;Acyl carrier protein&lt;br&gt;Location: 670302 - 684732" locus_tag="LLPMBPKK_00544" class="clusterblast-orf" id="dummy-3_q23_0_all"  />
<polygon points="453,35 458,30 627,30 627,40 458,40 453,35 " style="fill:white; stroke-width:1; stroke:black; " description="&lt;b&gt;LLPMBPKK_00545&lt;/b&gt;&lt;br&gt;D-alanine--poly(phosphoribitol) ligase subunit 1&lt;br&gt;Location: 684728 - 706898" locus_tag="LLPMBPKK_00545" class="clusterblast-orf" id="dummy-3_q24_0_all"  />
<polygon points="628,35 633,30 672,30 672,40 633,40 628,35 " style="fill:white; stroke-width:1; stroke:black; " description="&lt;b&gt;LLPMBPKK_00546&lt;/b&gt;&lt;br&gt;hypothetical protein&lt;br&gt;Location: 707071 - 712630" locus_tag="LLPMBPKK_00546" class="clusterblast-orf" id="dummy-3_q25_0_all"  />
<polygon points="671,35 676,30 741,30 741,40 676,40 671,35 " style="fill:white; stroke-width:1; stroke:black; " description="&lt;b&gt;LLPMBPKK_00547&lt;/b&gt;&lt;br&gt;hypothetical protein&lt;br&gt;Location: 712613 - 721484" locus_tag="LLPMBPKK_00547" class="clusterblast-orf" id="dummy-3_q26_0_all"  />
<polygon points="743,40 745,40 750,35 745,30 743,30 743,40 " style="fill:white; stroke-width:1; stroke:black; " description="&lt;b&gt;LLPMBPKK_00548&lt;/b&gt;&lt;br&gt;thioesterase&lt;br&gt;Location: 721801 - 722650" locus_tag="LLPMBPKK_00548" class="clusterblast-orf" id="dummy-3_q27_0_all"  />
<polygon points="751,40 757,40 762,35 757,30 751,30 751,40 " style="fill:white; stroke-width:1; stroke:black; " description="&lt;b&gt;LLPMBPKK_00549&lt;/b&gt;&lt;br&gt;amidase&lt;br&gt;Location: 722786 - 724211" locus_tag="LLPMBPKK_00549" class="clusterblast-orf" id="dummy-3_q28_0_all"  />
<polygon points="764,40 769,40 774,35 769,30 764,30 764,40 " style="fill:white; stroke-width:1; stroke:black; " description="&lt;b&gt;LLPMBPKK_00550&lt;/b&gt;&lt;br&gt;Pentapeptide repeats (8 copies)&lt;br&gt;Location: 724442 - 725738" locus_tag="LLPMBPKK_00550" class="clusterblast-orf" id="dummy-3_q29_0_all"  />
<polygon points="774,35 779,30 780,30 780,40 779,40 774,35 " style="fill:#b1d815; stroke-width:1; stroke:black; " description="&lt;b&gt;LLPMBPKK_00551&lt;/b&gt;&lt;br&gt;4'-phosphopantetheinyl transferase superfamilyprotein&lt;br&gt;Location: 725715 - 726438" locus_tag="LLPMBPKK_00551" class="clusterblast-orf" id="dummy-3_q30_0_all"  />
</g>
<g label="BGC0002385" description="BGC0002385_c1: dumulmycin/shuangdaolide A/shuangdaolide C/shuangdaolide B/shu... (28% of genes show similarity), Polyketide" class="clusterblast-cluster"  >
<text x="5" y="70" class="clusterblast-acc"  >
<a xlink:href="https://mibig.secondarymetabolites.org/go/BGC0002385/1" target="_blank">BGC0002385</a>:       dumulmycin/shuangdaolide A/shuangdaolide C/shuangdaolide B/shuangdaolide D (28% of genes show similarity), Polyketide</text>
<line x1="10" y1="85" x2="778.0" y2="85" style="stroke-width:1; stroke:grey; "  />
</g>
<g id="a3_000"  >
<polygon points="54,85 59,80 67,80 67,90 59,90 54,85 " style="fill:white; stroke-width:1; stroke:black; " description="&lt;b&gt;QZA73320.1&lt;/b&gt;&lt;br&gt;multicopper oxidase family protein&lt;br&gt;Location: 86005 - 84350" locus_tag="QZA73320.1" class="clusterblast-orf" id="dummy-3_h3_3_0"  />
</g>
<g id="a3_001"  >
<polygon points="77,85 82,80 108,80 108,90 82,90 77,85 " style="fill:white; stroke-width:1; stroke:black; " description="&lt;b&gt;QZA73319.1&lt;/b&gt;&lt;br&gt;SDR family oxidoreductase&lt;br&gt;Location: 82989 - 79090" locus_tag="QZA73319.1" class="clusterblast-orf" id="dummy-3_h3_3_1"  />
</g>
<g id="a3_002"  >
<polygon points="108,85 113,80 115,80 115,90 113,90 108,85 " style="fill:white; stroke-width:1; stroke:black; " description="&lt;b&gt;QZA73318.1&lt;/b&gt;&lt;br&gt;SDR family oxidoreductase&lt;br&gt;Location: 79025 - 78162" locus_tag="QZA73318.1" class="clusterblast-orf" id="dummy-3_h3_3_2"  />
</g>
<g id="a3_003"  >
<polygon points="115,85 120,80 123,80 123,90 120,90 115,85 " style="fill:white; stroke-width:1; stroke:black; " description="&lt;b&gt;QZA73317.1&lt;/b&gt;&lt;br&gt;malonyl CoA-acyl carrier protein transacylase&lt;br&gt;Location: 78127 - 77162" locus_tag="QZA73317.1" class="clusterblast-orf" id="dummy-3_h3_3_3"  />
</g>
<g id="a3_004"  >
<polygon points="123,85 128,80 133,80 133,90 128,90 123,85 " style="fill:#1563d8; stroke-width:1; stroke:black; " description="&lt;b&gt;QZA73316.1&lt;/b&gt;&lt;br&gt;beta-ketoacyl synthase&lt;br&gt;Location: 77112 - 75865&lt;br&gt;&lt;br&gt;&lt;b&gt;BlastP hit with LLPMBPKK_00540&lt;/b&gt;&lt;br&gt;Percentage identity: 62&lt;br&gt;Percentage coverage: 100&lt;br&gt;BLAST bit score: 489&lt;br&gt;E-value: 8.56e-173" locus_tag="QZA73316.1" class="clusterblast-orf" id="dummy-3_h3_3_4"  />
</g>
<g id="a3_005"  >
<polygon points="133,85 135,80 135,90 133,85 " style="fill:#b115d8; stroke-width:1; stroke:black; " description="&lt;b&gt;QZA73315.1&lt;/b&gt;&lt;br&gt;acyl carrier protein&lt;br&gt;Location: 75884 - 75639&lt;br&gt;&lt;br&gt;&lt;b&gt;BlastP hit with LLPMBPKK_00541&lt;/b&gt;&lt;br&gt;Percentage identity: 50&lt;br&gt;Percentage coverage: 92&lt;br&gt;BLAST bit score: 81&lt;br&gt;E-value: 2.04e-21" locus_tag="QZA73315.1" class="clusterblast-orf" id="dummy-3_h3_3_5"  />
</g>
<g id="a3_006"  >
<polygon points="135,85 140,80 141,80 141,90 140,90 135,85 " style="fill:white; stroke-width:1; stroke:black; " description="&lt;b&gt;QZA73314.1&lt;/b&gt;&lt;br&gt;enoyl-CoA hydratase&lt;br&gt;Location: 75634 - 74882" locus_tag="QZA73314.1" class="clusterblast-orf" id="dummy-3_h3_3_6"  />
</g>
<g id="a3_007"  >
<polygon points="141,85 146,80 147,80 147,90 146,90 141,85 " style="fill:white; stroke-width:1; stroke:black; " description="&lt;b&gt;QZA73313.1&lt;/b&gt;&lt;br&gt;enoyl-CoA hydratase/isomerase&lt;br&gt;Location: 74879 - 74094" locus_tag="QZA73313.1" class="clusterblast-orf" id="dummy-3_h3_3_7"  />
</g>
<g id="a3_008"  >
<polygon points="147,85 152,80 157,80 157,90 152,90 147,85 " style="fill:#15d863; stroke-width:1; stroke:black; " description="&lt;b&gt;QZA73312.1&lt;/b&gt;&lt;br&gt;hydroxymethylglutaryl-CoA synthase&lt;br&gt;Location: 74106 - 72847&lt;br&gt;&lt;br&gt;&lt;b&gt;BlastP hit with LLPMBPKK_00539&lt;/b&gt;&lt;br&gt;Percentage identity: 63&lt;br&gt;Percentage coverage: 100&lt;br&gt;BLAST bit score: 549&lt;br&gt;E-value: 5.58e-196" locus_tag="QZA73312.1" class="clusterblast-orf" id="dummy-3_h3_3_8"  />
</g>
<g id="a3_009"  >
<polygon points="157,85 162,80 166,80 166,90 162,90 157,85 " style="fill:#d81515; stroke-width:1; stroke:black; " description="&lt;b&gt;QZA73311.1&lt;/b&gt;&lt;br&gt;malonyl CoA-acyl carrier protein transacylase&lt;br&gt;Location: 72805 - 71714&lt;br&gt;&lt;br&gt;&lt;b&gt;BlastP hit with LLPMBPKK_00537&lt;/b&gt;&lt;br&gt;Percentage identity: 49&lt;br&gt;Percentage coverage: 45&lt;br&gt;BLAST bit score: 261&lt;br&gt;E-value: 2.39e-81" locus_tag="QZA73311.1" class="clusterblast-orf" id="dummy-3_h3_3_9"  />
</g>
<g id="a3_0010"  >
<polygon points="166,85 171,80 177,80 177,90 171,90 166,85 " style="fill:#d81515; stroke-width:1; stroke:black; " description="&lt;b&gt;QZA73310.1&lt;/b&gt;&lt;br&gt;2-nitropropane dioxygenase&lt;br&gt;Location: 71623 - 70262&lt;br&gt;&lt;br&gt;&lt;b&gt;BlastP hit with LLPMBPKK_00538&lt;/b&gt;&lt;br&gt;Percentage identity: 54&lt;br&gt;Percentage coverage: 59&lt;br&gt;BLAST bit score: 439&lt;br&gt;E-value: 1.11e-147" locus_tag="QZA73310.1" class="clusterblast-orf" id="dummy-3_h3_3_10"  />
</g>
<g id="a3_0011"  >
<polygon points="177,85 182,80 249,80 249,90 182,90 177,85 " style="fill:white; stroke-width:1; stroke:black; " description="&lt;b&gt;QZA73309.1&lt;/b&gt;&lt;br&gt;type I polyketide synthase&lt;br&gt;Location: 70265 - 61050" locus_tag="QZA73309.1" class="clusterblast-orf" id="dummy-3_h3_3_11"  />
</g>
<g id="a3_0012"  >
<polygon points="249,85 254,80 319,80 319,90 254,90 249,85 " style="fill:white; stroke-width:1; stroke:black; " description="&lt;b&gt;QZA73308.1&lt;/b&gt;&lt;br&gt;type I polyketide synthase&lt;br&gt;Location: 61048 - 52073" locus_tag="QZA73308.1" class="clusterblast-orf" id="dummy-3_h3_3_12"  />
</g>
<g id="a3_0013"  >
<polygon points="319,85 324,80 385,80 385,90 324,90 319,85 " style="fill:white; stroke-width:1; stroke:black; " description="&lt;b&gt;QZA73307.1&lt;/b&gt;&lt;br&gt;type I polyketide synthase&lt;br&gt;Location: 52080 - 43615" locus_tag="QZA73307.1" class="clusterblast-orf" id="dummy-3_h3_3_13"  />
</g>
<g id="a3_0014"  >
<polygon points="385,85 390,80 492,80 492,90 390,90 385,85 " style="fill:white; stroke-width:1; stroke:black; " description="&lt;b&gt;QZA73306.1&lt;/b&gt;&lt;br&gt;type I polyketide synthase&lt;br&gt;Location: 43618 - 29942" locus_tag="QZA73306.1" class="clusterblast-orf" id="dummy-3_h3_3_14"  />
</g>
<g id="a3_0015"  >
<polygon points="492,85 497,80 675,80 675,90 497,90 492,85 " style="fill:white; stroke-width:1; stroke:black; " description="&lt;b&gt;QZA73305.1&lt;/b&gt;&lt;br&gt;type I polyketide synthase&lt;br&gt;Location: 29939 - 6582" locus_tag="QZA73305.1" class="clusterblast-orf" id="dummy-3_h3_3_15"  />
</g>
<g id="a3_0016"  >
<polygon points="679,85 682,80 682,90 679,85 " style="fill:white; stroke-width:1; stroke:black; " description="&lt;b&gt;QZA73304.1&lt;/b&gt;&lt;br&gt;DUF4180 domain-containing protein&lt;br&gt;Location: 6039 - 5656" locus_tag="QZA73304.1" class="clusterblast-orf" id="dummy-3_h3_3_16"  />
</g>
<g id="a3_0017"  >
<polygon points="688,90 693,90 698,85 693,80 688,80 688,90 " style="fill:white; stroke-width:1; stroke:black; " description="&lt;b&gt;QZA73303.1&lt;/b&gt;&lt;br&gt;cytochrome P450&lt;br&gt;Location: 4946 - 3717" locus_tag="QZA73303.1" class="clusterblast-orf" id="dummy-3_h3_3_17"  />
</g>
<g id="a3_0018"  >
<polygon points="700,90 701,90 706,85 701,80 700,80 700,90 " style="fill:#b1d815; stroke-width:1; stroke:black; " description="&lt;b&gt;QZA73302.1&lt;/b&gt;&lt;br&gt;4'-phosphopantetheinyl transferase&lt;br&gt;Location: 3359 - 2685&lt;br&gt;&lt;br&gt;&lt;b&gt;BlastP hit with LLPMBPKK_00551&lt;/b&gt;&lt;br&gt;Percentage identity: 49&lt;br&gt;Percentage coverage: 94&lt;br&gt;BLAST bit score: 204&lt;br&gt;E-value: 8.38e-66" locus_tag="QZA73302.1" class="clusterblast-orf" id="dummy-3_h3_3_18"  />
</g>
<g id="a3_0019"  >
<polygon points="707,90 708,90 713,85 708,80 707,80 707,90 " style="fill:white; stroke-width:1; stroke:black; " description="&lt;b&gt;QZA73301.1&lt;/b&gt;&lt;br&gt;putative endonuclease&lt;br&gt;Location: 2481 - 1783" locus_tag="QZA73301.1" class="clusterblast-orf" id="dummy-3_h3_3_19"  />
</g>
<g id="a3_0020"  >
<polygon points="717,90 720,90 725,85 720,80 717,80 717,90 " style="fill:white; stroke-width:1; stroke:black; " description="&lt;b&gt;QZA73300.1&lt;/b&gt;&lt;br&gt;peptidase M23&lt;br&gt;Location: 1281 - 190" locus_tag="QZA73300.1" class="clusterblast-orf" id="dummy-3_h3_3_20"  />
</g>
</svg>
