<svg xmlns="http://www.w3.org/2000/svg" xmlns:xlink="http://www.w3.org/1999/xlink" version="1.1" x="0" y="0" height="230" width="800" viewBox="0 0 800 230" preserveAspectRatio="none"  >
<g label="Query sequence" class="clusterblast-cluster"  >
<text x="5" y="20" class="clusterblast-acc"  >
Query sequence</text>
<line x1="10" y1="35" x2="778.0" y2="35" style="stroke-width:1; stroke:grey; "  />
<polygon points="333,40 336,40 341,35 336,30 333,30 333,40 " style="fill:white; stroke-width:1; stroke:black; " description="&lt;b&gt;LLPMBPKK_00843&lt;/b&gt;&lt;br&gt;hypothetical protein&lt;br&gt;Location: 1055682 - 1056348" locus_tag="LLPMBPKK_00843" class="clusterblast-orf" id="dummy-7_q0_0_all"  />
<polygon points="342,40 342,40 347,35 342,30 342,30 342,40 " style="fill:white; stroke-width:1; stroke:black; " description="&lt;b&gt;LLPMBPKK_00844&lt;/b&gt;&lt;br&gt;VOC family protein&lt;br&gt;Location: 1056519 - 1056945" locus_tag="LLPMBPKK_00844" class="clusterblast-orf" id="dummy-7_q1_0_all"  />
<polygon points="348,35 353,30 354,30 354,40 353,40 348,35 " style="fill:white; stroke-width:1; stroke:black; " description="&lt;b&gt;LLPMBPKK_00845&lt;/b&gt;&lt;br&gt;integral membrane protein&lt;br&gt;Location: 1057026 - 1057557" locus_tag="LLPMBPKK_00845" class="clusterblast-orf" id="dummy-7_q2_0_all"  />
<polygon points="355,35 360,30 366,30 366,40 360,40 355,35 " style="fill:white; stroke-width:1; stroke:black; " description="&lt;b&gt;LLPMBPKK_00846&lt;/b&gt;&lt;br&gt;aldo/keto reductase&lt;br&gt;Location: 1057609 - 1058593" locus_tag="LLPMBPKK_00846" class="clusterblast-orf" id="dummy-7_q3_0_all"  />
<polygon points="369,35 374,30 383,30 383,40 374,40 369,35 " style="fill:#d81515; stroke-width:1; stroke:black; " description="&lt;b&gt;LLPMBPKK_00847&lt;/b&gt;&lt;br&gt;FAD-binding monooxygenase&lt;br&gt;Location: 1058831 - 1060028" locus_tag="LLPMBPKK_00847" class="clusterblast-orf" id="dummy-7_q4_0_all"  />
<polygon points="387,40 391,35 387,30 387,40 " style="fill:#77d815; stroke-width:1; stroke:black; " description="&lt;b&gt;LLPMBPKK_00848&lt;/b&gt;&lt;br&gt;Tyrosinase co-factor MelC1&lt;br&gt;Location: 1060366 - 1060744" locus_tag="LLPMBPKK_00848" class="clusterblast-orf" id="dummy-7_q5_0_all"  />
<polygon points="391,40 396,40 401,35 396,30 391,30 391,40 " style="fill:#15d8d8; stroke-width:1; stroke:black; " description="&lt;b&gt;LLPMBPKK_00849&lt;/b&gt;&lt;br&gt;tyrosinase family protein&lt;br&gt;Location: 1060778 - 1061600" locus_tag="LLPMBPKK_00849" class="clusterblast-orf" id="dummy-7_q6_0_all"  />
<polygon points="401,35 406,30 409,30 409,40 406,40 401,35 " style="fill:#7715d8; stroke-width:1; stroke:black; " description="&lt;b&gt;LLPMBPKK_00850&lt;/b&gt;&lt;br&gt;ribonuclease HI&lt;br&gt;Location: 1061600 - 1062320" locus_tag="LLPMBPKK_00850" class="clusterblast-orf" id="dummy-7_q7_0_all"  />
<polygon points="410,35 415,30 419,30 419,40 415,40 410,35 " style="fill:white; stroke-width:1; stroke:black; " description="&lt;b&gt;LLPMBPKK_00851&lt;/b&gt;&lt;br&gt;VOC family protein&lt;br&gt;Location: 1062354 - 1063149" locus_tag="LLPMBPKK_00851" class="clusterblast-orf" id="dummy-7_q8_0_all"  />
<polygon points="420,35 425,30 426,30 426,40 425,40 420,35 " style="fill:white; stroke-width:1; stroke:black; " description="&lt;b&gt;LLPMBPKK_00852&lt;/b&gt;&lt;br&gt;DNA-binding protein&lt;br&gt;Location: 1063287 - 1063770" locus_tag="LLPMBPKK_00852" class="clusterblast-orf" id="dummy-7_q9_0_all"  />
<polygon points="429,35 433,30 433,40 429,35 " style="fill:white; stroke-width:1; stroke:black; " description="&lt;b&gt;LLPMBPKK_00853&lt;/b&gt;&lt;br&gt;XRE family transcriptional regulator&lt;br&gt;Location: 1064011 - 1064404" locus_tag="LLPMBPKK_00853" class="clusterblast-orf" id="dummy-7_q10_0_all"  />
<polygon points="436,40 441,40 446,35 441,30 436,30 436,40 " style="fill:white; stroke-width:1; stroke:black; " description="&lt;b&gt;LLPMBPKK_00854&lt;/b&gt;&lt;br&gt;RNA polymerase sigma factor SigF&lt;br&gt;Location: 1064671 - 1065562" locus_tag="LLPMBPKK_00854" class="clusterblast-orf" id="dummy-7_q11_0_all"  />
</g>
<g label="BGC0000700" description="BGC0000700_c1: istamycin (2% of genes show similarity), Saccharide" class="clusterblast-cluster"  >
<text x="5" y="70" class="clusterblast-acc"  >
<a xlink:href="https://mibig.secondarymetabolites.org/go/BGC0000700/1" target="_blank">BGC0000700</a>:                                                                        istamycin (2% of genes show similarity), Saccharide</text>
<line x1="10" y1="85" x2="778.0" y2="85" style="stroke-width:1; stroke:grey; "  />
</g>
<g id="a7_000"  >
<polygon points="0,90 6,90 11,85 6,80 0,80 0,90 " style="fill:white; stroke-width:1; stroke:black; " description="&lt;b&gt;CAH60126.1&lt;/b&gt;&lt;br&gt;putative transport permease&lt;br&gt;Location: 1 - 967" locus_tag="CAH60126.1" class="clusterblast-orf" id="dummy-7_h7_2_0"  />
</g>
<g id="a7_001"  >
<polygon points="11,90 17,90 22,85 17,80 11,80 11,90 " style="fill:white; stroke-width:1; stroke:black; " description="&lt;b&gt;CAH60127.1&lt;/b&gt;&lt;br&gt;putative adenine glycosylase&lt;br&gt;Location: 1011 - 1955" locus_tag="CAH60127.1" class="clusterblast-orf" id="dummy-7_h7_2_1"  />
</g>
<g id="a7_002"  >
<polygon points="23,90 29,90 34,85 29,80 23,80 23,90 " style="fill:white; stroke-width:1; stroke:black; " description="&lt;b&gt;CAH60128.1&lt;/b&gt;&lt;br&gt;putative RNA polymerase ECF-subfamily sigma factor&lt;br&gt;Location: 2006 - 2971" locus_tag="CAH60128.1" class="clusterblast-orf" id="dummy-7_h7_2_2"  />
</g>
<g id="a7_003"  >
<polygon points="36,90 39,90 44,85 39,80 36,80 36,90 " style="fill:white; stroke-width:1; stroke:black; " description="&lt;b&gt;CAH60129.1&lt;/b&gt;&lt;br&gt;hypothetical protein&lt;br&gt;Location: 3220 - 3840" locus_tag="CAH60129.1" class="clusterblast-orf" id="dummy-7_h7_2_3"  />
</g>
<g id="a7_004"  >
<polygon points="44,90 47,90 52,85 47,80 44,80 44,90 " style="fill:white; stroke-width:1; stroke:black; " description="&lt;b&gt;CAH60130.1&lt;/b&gt;&lt;br&gt;putative two-component response regulator&lt;br&gt;Location: 3860 - 4564" locus_tag="CAH60130.1" class="clusterblast-orf" id="dummy-7_h7_2_4"  />
</g>
<g id="a7_005"  >
<polygon points="53,90 64,90 69,85 64,80 53,80 53,90 " style="fill:white; stroke-width:1; stroke:black; " description="&lt;b&gt;CAH60131.1&lt;/b&gt;&lt;br&gt;putative two-component system sensor kinase&lt;br&gt;Location: 4693 - 6027" locus_tag="CAH60131.1" class="clusterblast-orf" id="dummy-7_h7_2_5"  />
</g>
<g id="a7_006"  >
<polygon points="69,85 74,80 77,80 77,90 74,90 69,85 " style="fill:white; stroke-width:1; stroke:black; " description="&lt;b&gt;CAH60132.1&lt;/b&gt;&lt;br&gt;putative peptidase&lt;br&gt;Location: 6068 - 6784" locus_tag="CAH60132.1" class="clusterblast-orf" id="dummy-7_h7_2_6"  />
</g>
<g id="a7_007"  >
<polygon points="84,85 89,80 113,80 113,90 89,90 84,85 " style="fill:white; stroke-width:1; stroke:black; " description="&lt;b&gt;CAH60133.1&lt;/b&gt;&lt;br&gt;putative Clp-family ATP-binding protease&lt;br&gt;Location: 7361 - 9886" locus_tag="CAH60133.1" class="clusterblast-orf" id="dummy-7_h7_2_7"  />
</g>
<g id="a7_008"  >
<polygon points="118,90 121,90 126,85 121,80 118,80 118,90 " style="fill:white; stroke-width:1; stroke:black; " description="&lt;b&gt;CAH60134.1&lt;/b&gt;&lt;br&gt;proline-rich protein&lt;br&gt;Location: 10317 - 11030" locus_tag="CAH60134.1" class="clusterblast-orf" id="dummy-7_h7_2_8"  />
</g>
<g id="a7_009"  >
<polygon points="132,85 134,80 134,90 132,85 " style="fill:white; stroke-width:1; stroke:black; " description="&lt;b&gt;CAH60135.1&lt;/b&gt;&lt;br&gt;&lt;br&gt;Location: 11513 - 11731" locus_tag="CAH60135.1" class="clusterblast-orf" id="dummy-7_h7_2_9"  />
</g>
<g id="a7_0010"  >
<polygon points="134,85 139,80 156,80 156,90 139,90 134,85 " style="fill:white; stroke-width:1; stroke:black; " description="&lt;b&gt;CAH60136.1&lt;/b&gt;&lt;br&gt;putative plasmid transfer protein&lt;br&gt;Location: 11752 - 13602" locus_tag="CAH60136.1" class="clusterblast-orf" id="dummy-7_h7_2_10"  />
</g>
<g id="a7_0011"  >
<polygon points="157,85 160,80 160,90 157,85 " style="fill:white; stroke-width:1; stroke:black; " description="&lt;b&gt;CAH60137.1&lt;/b&gt;&lt;br&gt;hypothetical protein&lt;br&gt;Location: 13694 - 13954" locus_tag="CAH60137.1" class="clusterblast-orf" id="dummy-7_h7_2_11"  />
</g>
<g id="a7_0012"  >
<polygon points="160,85 163,80 163,90 160,85 " style="fill:white; stroke-width:1; stroke:black; " description="&lt;b&gt;CAH60138.1&lt;/b&gt;&lt;br&gt;hypothetical protein&lt;br&gt;Location: 13966 - 14268" locus_tag="CAH60138.1" class="clusterblast-orf" id="dummy-7_h7_2_12"  />
</g>
<g id="a7_0013"  >
<polygon points="164,85 168,80 168,90 164,85 " style="fill:white; stroke-width:1; stroke:black; " description="&lt;b&gt;CAH60139.1&lt;/b&gt;&lt;br&gt;hypothetical protein&lt;br&gt;Location: 14312 - 14647" locus_tag="CAH60139.1" class="clusterblast-orf" id="dummy-7_h7_2_13"  />
</g>
<g id="a7_0014"  >
<polygon points="168,85 173,80 180,80 180,90 173,90 168,85 " style="fill:white; stroke-width:1; stroke:black; " description="&lt;b&gt;CAH60140.1&lt;/b&gt;&lt;br&gt;putative conjugal transfer protein&lt;br&gt;Location: 14644 - 15705" locus_tag="CAH60140.1" class="clusterblast-orf" id="dummy-7_h7_2_14"  />
</g>
<g id="a7_0015"  >
<polygon points="181,85 184,80 184,90 181,85 " style="fill:white; stroke-width:1; stroke:black; " description="&lt;b&gt;CAH60141.1&lt;/b&gt;&lt;br&gt;hypothetical protein&lt;br&gt;Location: 15768 - 16049" locus_tag="CAH60141.1" class="clusterblast-orf" id="dummy-7_h7_2_15"  />
</g>
<g id="a7_0016"  >
<polygon points="184,85 187,80 187,90 184,85 " style="fill:white; stroke-width:1; stroke:black; " description="&lt;b&gt;CAH60142.1&lt;/b&gt;&lt;br&gt;hypothetical protein&lt;br&gt;Location: 16046 - 16312" locus_tag="CAH60142.1" class="clusterblast-orf" id="dummy-7_h7_2_16"  />
</g>
<g id="a7_0017"  >
<polygon points="188,85 191,80 191,90 188,85 " style="fill:white; stroke-width:1; stroke:black; " description="&lt;b&gt;CAH60143.1&lt;/b&gt;&lt;br&gt;&lt;br&gt;Location: 16452 - 16667" locus_tag="CAH60143.1" class="clusterblast-orf" id="dummy-7_h7_2_17"  />
</g>
<g id="a7_0018"  >
<polygon points="197,90 201,90 206,85 201,80 197,80 197,90 " style="fill:white; stroke-width:1; stroke:black; " description="&lt;b&gt;CAH60144.1&lt;/b&gt;&lt;br&gt;putative GntR-family transcriptional regulator&lt;br&gt;Location: 17236 - 17991" locus_tag="CAH60144.1" class="clusterblast-orf" id="dummy-7_h7_2_18"  />
</g>
<g id="a7_0019"  >
<polygon points="206,90 209,90 214,85 209,80 206,80 206,90 " style="fill:white; stroke-width:1; stroke:black; " description="&lt;b&gt;CAH60145.1&lt;/b&gt;&lt;br&gt;putative ATP/GTP-binding protein&lt;br&gt;Location: 17988 - 18677" locus_tag="CAH60145.1" class="clusterblast-orf" id="dummy-7_h7_2_19"  />
</g>
<g id="a7_0020"  >
<polygon points="217,85 222,80 230,80 230,90 222,90 217,85 " style="fill:white; stroke-width:1; stroke:black; " description="&lt;b&gt;CAH60146.1&lt;/b&gt;&lt;br&gt;IssA protein&lt;br&gt;Location: 18896 - 20062" locus_tag="CAH60146.1" class="clusterblast-orf" id="dummy-7_h7_2_20"  />
</g>
<g id="a7_0021"  >
<polygon points="233,90 234,90 239,85 234,80 233,80 233,90 " style="fill:white; stroke-width:1; stroke:black; " description="&lt;b&gt;CAH60147.1&lt;/b&gt;&lt;br&gt;16S rRNA methyltransferase&lt;br&gt;Location: 20325 - 20807" locus_tag="CAH60147.1" class="clusterblast-orf" id="dummy-7_h7_2_21"  />
</g>
<g id="a7_0022"  >
<polygon points="239,85 244,80 253,80 253,90 244,90 239,85 " style="fill:white; stroke-width:1; stroke:black; " description="&lt;b&gt;CAH60148.1&lt;/b&gt;&lt;br&gt;IstA protein&lt;br&gt;Location: 20834 - 22027" locus_tag="CAH60148.1" class="clusterblast-orf" id="dummy-7_h7_2_22"  />
</g>
<g id="a7_0023"  >
<polygon points="254,85 259,80 263,80 263,90 259,90 254,85 " style="fill:white; stroke-width:1; stroke:black; " description="&lt;b&gt;CAH60149.1&lt;/b&gt;&lt;br&gt;putative amidase, AGA deacetylase&lt;br&gt;Location: 22189 - 22905" locus_tag="CAH60149.1" class="clusterblast-orf" id="dummy-7_h7_2_23"  />
</g>
<g id="a7_0024"  >
<polygon points="264,85 269,80 273,80 273,90 269,90 264,85 " style="fill:white; stroke-width:1; stroke:black; " description="&lt;b&gt;CAH60150.1&lt;/b&gt;&lt;br&gt;putative phosphotransferase&lt;br&gt;Location: 23010 - 23831" locus_tag="CAH60150.1" class="clusterblast-orf" id="dummy-7_h7_2_24"  />
</g>
<g id="a7_0025"  >
<polygon points="273,85 278,80 289,80 289,90 278,90 273,85 " style="fill:white; stroke-width:1; stroke:black; " description="&lt;b&gt;CAH60151.1&lt;/b&gt;&lt;br&gt;putative AGA 6'-aminotransferase&lt;br&gt;Location: 23833 - 25179" locus_tag="CAH60151.1" class="clusterblast-orf" id="dummy-7_h7_2_25"  />
</g>
<g id="a7_0026"  >
<polygon points="289,85 294,80 310,80 310,90 294,90 289,85 " style="fill:white; stroke-width:1; stroke:black; " description="&lt;b&gt;CAH60152.1&lt;/b&gt;&lt;br&gt;putative efflux protein&lt;br&gt;Location: 25180 - 27045" locus_tag="CAH60152.1" class="clusterblast-orf" id="dummy-7_h7_2_26"  />
</g>
<g id="a7_0027"  >
<polygon points="310,85 315,80 315,80 315,90 315,90 310,85 " style="fill:white; stroke-width:1; stroke:black; " description="&lt;b&gt;CAH60153.1&lt;/b&gt;&lt;br&gt;IstF protein&lt;br&gt;Location: 27056 - 27463" locus_tag="CAH60153.1" class="clusterblast-orf" id="dummy-7_h7_2_27"  />
</g>
<g id="a7_0028"  >
<polygon points="315,85 320,80 324,80 324,90 320,90 315,85 " style="fill:white; stroke-width:1; stroke:black; " description="&lt;b&gt;CAH60154.1&lt;/b&gt;&lt;br&gt;putative N-methyltransferase&lt;br&gt;Location: 27460 - 28293" locus_tag="CAH60154.1" class="clusterblast-orf" id="dummy-7_h7_2_28"  />
</g>
<g id="a7_0029"  >
<polygon points="325,85 330,80 342,80 342,90 330,90 325,85 " style="fill:white; stroke-width:1; stroke:black; " description="&lt;b&gt;CAH60155.1&lt;/b&gt;&lt;br&gt;putative N-formimidoyl istamycin A synthase&lt;br&gt;Location: 28339 - 29793" locus_tag="CAH60155.1" class="clusterblast-orf" id="dummy-7_h7_2_29"  />
</g>
<g id="a7_0030"  >
<polygon points="347,90 363,90 368,85 363,80 347,80 347,90 " style="fill:white; stroke-width:1; stroke:black; " description="&lt;b&gt;CAH60156.1&lt;/b&gt;&lt;br&gt;putative component of transmembrane efflux complex&lt;br&gt;Location: 30290 - 32068" locus_tag="CAH60156.1" class="clusterblast-orf" id="dummy-7_h7_2_30"  />
</g>
<g id="a7_0031"  >
<polygon points="368,90 374,90 379,85 374,80 368,80 368,90 " style="fill:white; stroke-width:1; stroke:black; " description="&lt;b&gt;CAH60157.1&lt;/b&gt;&lt;br&gt;putative glucose-6-phosphate 1-dehydrogenase&lt;br&gt;Location: 32077 - 33039" locus_tag="CAH60157.1" class="clusterblast-orf" id="dummy-7_h7_2_31"  />
</g>
<g id="a7_0032"  >
<polygon points="381,85 386,80 399,80 399,90 386,90 381,85 " style="fill:white; stroke-width:1; stroke:black; " description="&lt;b&gt;CAH60158.1&lt;/b&gt;&lt;br&gt;putative sugar alcohol dehydrogenase&lt;br&gt;Location: 33212 - 34765" locus_tag="CAH60158.1" class="clusterblast-orf" id="dummy-7_h7_2_32"  />
</g>
<g id="a7_0033"  >
<polygon points="400,85 405,80 414,80 414,90 405,90 400,85 " style="fill:white; stroke-width:1; stroke:black; " description="&lt;b&gt;CAH60159.1&lt;/b&gt;&lt;br&gt;2-deoxy-scyllo-inosose synthase&lt;br&gt;Location: 34846 - 36060" locus_tag="CAH60159.1" class="clusterblast-orf" id="dummy-7_h7_2_33"  />
</g>
<g id="a7_0034"  >
<polygon points="414,85 419,80 426,80 426,90 419,90 414,85 " style="fill:white; stroke-width:1; stroke:black; " description="&lt;b&gt;CAH60160.1&lt;/b&gt;&lt;br&gt;putative metallo cofactor biosynthesis protein&lt;br&gt;Location: 36122 - 37168" locus_tag="CAH60160.1" class="clusterblast-orf" id="dummy-7_h7_2_34"  />
</g>
<g id="a7_0035"  >
<polygon points="427,85 432,80 438,80 438,90 432,90 427,85 " style="fill:white; stroke-width:1; stroke:black; " description="&lt;b&gt;CAH60161.1&lt;/b&gt;&lt;br&gt;putative epimerase&lt;br&gt;Location: 37183 - 38166" locus_tag="CAH60161.1" class="clusterblast-orf" id="dummy-7_h7_2_35"  />
</g>
<g id="a7_0036"  >
<polygon points="440,90 452,90 457,85 452,80 440,80 440,90 " style="fill:white; stroke-width:1; stroke:black; " description="&lt;b&gt;CAH60162.2&lt;/b&gt;&lt;br&gt;putative transmembrane efflux protein&lt;br&gt;Location: 38385 - 39836" locus_tag="CAH60162.2" class="clusterblast-orf" id="dummy-7_h7_2_36"  />
</g>
<g id="a7_0037"  >
<polygon points="458,85 463,80 472,80 472,90 463,90 458,85 " style="fill:white; stroke-width:1; stroke:black; " description="&lt;b&gt;CAI59976.1&lt;/b&gt;&lt;br&gt;putative 2-deoxy-scyllo-inosose aminotransferase&lt;br&gt;Location: 39883 - 41157" locus_tag="CAI59976.1" class="clusterblast-orf" id="dummy-7_h7_2_37"  />
</g>
<g id="a7_0038"  >
<polygon points="473,85 478,80 482,80 482,90 478,90 473,85 " style="fill:white; stroke-width:1; stroke:black; " description="&lt;b&gt;CAI59977.1&lt;/b&gt;&lt;br&gt;putative methyltransferase&lt;br&gt;Location: 41218 - 41991" locus_tag="CAI59977.1" class="clusterblast-orf" id="dummy-7_h7_2_38"  />
</g>
<g id="a7_0039"  >
<polygon points="482,85 487,80 487,80 487,90 487,90 482,85 " style="fill:white; stroke-width:1; stroke:black; " description="&lt;b&gt;CAI59978.1&lt;/b&gt;&lt;br&gt;hypothetical protein&lt;br&gt;Location: 42006 - 42458" locus_tag="CAI59978.1" class="clusterblast-orf" id="dummy-7_h7_2_39"  />
</g>
<g id="a7_0040"  >
<polygon points="491,90 501,90 506,85 501,80 491,80 491,90 " style="fill:white; stroke-width:1; stroke:black; " description="&lt;b&gt;CAI59979.1&lt;/b&gt;&lt;br&gt;putative NDP-D-glucosaminyltransferase&lt;br&gt;Location: 42761 - 44056" locus_tag="CAI59979.1" class="clusterblast-orf" id="dummy-7_h7_2_40"  />
</g>
<g id="a7_0041"  >
<polygon points="508,90 516,90 521,85 516,80 508,80 508,90 " style="fill:white; stroke-width:1; stroke:black; " description="&lt;b&gt;CAI59980.1&lt;/b&gt;&lt;br&gt;putative (Fe-S) oxidoreductase&lt;br&gt;Location: 44248 - 45405" locus_tag="CAI59980.1" class="clusterblast-orf" id="dummy-7_h7_2_41"  />
</g>
<g id="a7_0042"  >
<polygon points="521,90 525,90 530,85 525,80 521,80 521,90 " style="fill:white; stroke-width:1; stroke:black; " description="&lt;b&gt;CAI59981.1&lt;/b&gt;&lt;br&gt;putative methyltransferase&lt;br&gt;Location: 45433 - 46176" locus_tag="CAI59981.1" class="clusterblast-orf" id="dummy-7_h7_2_42"  />
</g>
<g id="a7_0043"  >
<polygon points="530,90 536,90 541,85 536,80 530,80 530,90 " style="fill:white; stroke-width:1; stroke:black; " description="&lt;b&gt;CAI59982.1&lt;/b&gt;&lt;br&gt;putative dehydrogenase&lt;br&gt;Location: 46185 - 47180" locus_tag="CAI59982.1" class="clusterblast-orf" id="dummy-7_h7_2_43"  />
</g>
<g id="a7_0044"  >
<polygon points="542,90 543,90 548,85 543,80 542,80 542,90 " style="fill:white; stroke-width:1; stroke:black; " description="&lt;b&gt;CAI59983.1&lt;/b&gt;&lt;br&gt;putative tRNA/mRNA methyltransferase&lt;br&gt;Location: 47229 - 47723" locus_tag="CAI59983.1" class="clusterblast-orf" id="dummy-7_h7_2_44"  />
</g>
<g id="a7_0045"  >
<polygon points="548,85 553,80 564,80 564,90 553,90 548,85 " style="fill:white; stroke-width:1; stroke:black; " description="&lt;b&gt;CAI59984.1&lt;/b&gt;&lt;br&gt;putative transcriptional regulatory protein&lt;br&gt;Location: 47725 - 49140" locus_tag="CAI59984.1" class="clusterblast-orf" id="dummy-7_h7_2_45"  />
</g>
<g id="a7_0046"  >
<polygon points="564,90 567,90 572,85 567,80 564,80 564,90 " style="fill:white; stroke-width:1; stroke:black; " description="&lt;b&gt;CAI59985.1&lt;/b&gt;&lt;br&gt;putative translocator&lt;br&gt;Location: 49162 - 49830" locus_tag="CAI59985.1" class="clusterblast-orf" id="dummy-7_h7_2_46"  />
</g>
<g id="a7_0047"  >
<polygon points="572,85 577,80 580,80 580,90 577,90 572,85 " style="fill:white; stroke-width:1; stroke:black; " description="&lt;b&gt;CAI59986.1&lt;/b&gt;&lt;br&gt;putative integral membrane protein&lt;br&gt;Location: 49873 - 50532" locus_tag="CAI59986.1" class="clusterblast-orf" id="dummy-7_h7_2_47"  />
</g>
<g id="a7_0048"  >
<polygon points="580,85 585,80 586,80 586,90 585,90 580,85 " style="fill:white; stroke-width:1; stroke:black; " description="&lt;b&gt;CAI59987.1&lt;/b&gt;&lt;br&gt;hypothetical protein&lt;br&gt;Location: 50534 - 51037" locus_tag="CAI59987.1" class="clusterblast-orf" id="dummy-7_h7_2_48"  />
</g>
<g id="a7_0049"  >
<polygon points="586,90 589,90 594,85 589,80 586,80 586,90 " style="fill:#77d815; stroke-width:1; stroke:black; " description="&lt;b&gt;CAI59988.1&lt;/b&gt;&lt;br&gt;putative tyrosinase co-factor protein&lt;br&gt;Location: 51063 - 51713&lt;br&gt;&lt;br&gt;&lt;b&gt;BlastP hit with LLPMBPKK_00848&lt;/b&gt;&lt;br&gt;Percentage identity: 47&lt;br&gt;Percentage coverage: 62&lt;br&gt;BLAST bit score: 67&lt;br&gt;E-value: 1.83e-14" locus_tag="CAI59988.1" class="clusterblast-orf" id="dummy-7_h7_2_49"  />
</g>
<g id="a7_0050"  >
<polygon points="593,90 598,90 603,85 598,80 593,80 593,90 " style="fill:#15d8d8; stroke-width:1; stroke:black; " description="&lt;b&gt;CAI59989.1&lt;/b&gt;&lt;br&gt;putative tyrosinase&lt;br&gt;Location: 51700 - 52566&lt;br&gt;&lt;br&gt;&lt;b&gt;BlastP hit with LLPMBPKK_00849&lt;/b&gt;&lt;br&gt;Percentage identity: 49&lt;br&gt;Percentage coverage: 105&lt;br&gt;BLAST bit score: 270&lt;br&gt;E-value: 1.96e-90" locus_tag="CAI59989.1" class="clusterblast-orf" id="dummy-7_h7_2_50"  />
</g>
<g id="a7_0051"  >
<polygon points="604,85 609,80 609,80 609,90 609,90 604,85 " style="fill:white; stroke-width:1; stroke:black; " description="&lt;b&gt;CAI59990.1&lt;/b&gt;&lt;br&gt;putative small membrane protein&lt;br&gt;Location: 52657 - 53064" locus_tag="CAI59990.1" class="clusterblast-orf" id="dummy-7_h7_2_51"  />
</g>
<g id="a7_0052"  >
<polygon points="621,85 624,80 624,90 621,85 " style="fill:white; stroke-width:1; stroke:black; " description="&lt;b&gt;CAI59991.1&lt;/b&gt;&lt;br&gt;putative membrane protein&lt;br&gt;Location: 54071 - 54346" locus_tag="CAI59991.1" class="clusterblast-orf" id="dummy-7_h7_2_52"  />
</g>
<g id="a7_0053"  >
<polygon points="626,85 631,80 632,80 632,90 631,90 626,85 " style="fill:white; stroke-width:1; stroke:black; " description="&lt;b&gt;CAI59992.1&lt;/b&gt;&lt;br&gt;hypothetical protein&lt;br&gt;Location: 54549 - 55097" locus_tag="CAI59992.1" class="clusterblast-orf" id="dummy-7_h7_2_53"  />
</g>
<g id="a7_0054"  >
<polygon points="642,90 642,90 647,85 642,80 642,80 642,90 " style="fill:white; stroke-width:1; stroke:black; " description="&lt;b&gt;CAI59993.1&lt;/b&gt;&lt;br&gt;hypothetical protein&lt;br&gt;Location: 55946 - 56332" locus_tag="CAI59993.1" class="clusterblast-orf" id="dummy-7_h7_2_54"  />
</g>
<g id="a7_0055"  >
<polygon points="647,90 653,90 658,85 653,80 647,80 647,90 " style="fill:white; stroke-width:1; stroke:black; " description="&lt;b&gt;CAI59994.1&lt;/b&gt;&lt;br&gt;hypothetical protein&lt;br&gt;Location: 56336 - 57331" locus_tag="CAI59994.1" class="clusterblast-orf" id="dummy-7_h7_2_55"  />
</g>
<g id="a7_0056"  >
<polygon points="658,90 667,90 672,85 667,80 658,80 658,90 " style="fill:white; stroke-width:1; stroke:black; " description="&lt;b&gt;CAI59995.1&lt;/b&gt;&lt;br&gt;hypothetical protein&lt;br&gt;Location: 57309 - 58508" locus_tag="CAI59995.1" class="clusterblast-orf" id="dummy-7_h7_2_56"  />
</g>
<g id="a7_0057"  >
<polygon points="674,85 679,80 687,80 687,90 679,90 674,85 " style="fill:white; stroke-width:1; stroke:black; " description="&lt;b&gt;CAI59996.1&lt;/b&gt;&lt;br&gt;hypothetical protein&lt;br&gt;Location: 58692 - 59861" locus_tag="CAI59996.1" class="clusterblast-orf" id="dummy-7_h7_2_57"  />
</g>
<g id="a7_0058"  >
<polygon points="689,85 694,80 697,80 697,90 694,90 689,85 " style="fill:white; stroke-width:1; stroke:black; " description="&lt;b&gt;CAI59997.1&lt;/b&gt;&lt;br&gt;hypothetical protein&lt;br&gt;Location: 60003 - 60695" locus_tag="CAI59997.1" class="clusterblast-orf" id="dummy-7_h7_2_58"  />
</g>
<g id="a7_0059"  >
<polygon points="697,85 702,80 734,80 734,90 702,90 697,85 " style="fill:white; stroke-width:1; stroke:black; " description="&lt;b&gt;CAI59998.1&lt;/b&gt;&lt;br&gt;putative transposase&lt;br&gt;Location: 60702 - 63899" locus_tag="CAI59998.1" class="clusterblast-orf" id="dummy-7_h7_2_59"  />
</g>
<g id="a7_0060"  >
<polygon points="735,90 737,90 742,85 737,80 735,80 735,90 " style="fill:white; stroke-width:1; stroke:black; " description="&lt;b&gt;CAI59999.1&lt;/b&gt;&lt;br&gt;putative hsp18 transcriptional regulator&lt;br&gt;Location: 64046 - 64678" locus_tag="CAI59999.1" class="clusterblast-orf" id="dummy-7_h7_2_60"  />
</g>
<g id="a7_0061"  >
<polygon points="743,90 747,85 743,80 743,90 " style="fill:white; stroke-width:1; stroke:black; " description="&lt;b&gt;CAI60000.1&lt;/b&gt;&lt;br&gt;hypothetical protein&lt;br&gt;Location: 64746 - 65105" locus_tag="CAI60000.1" class="clusterblast-orf" id="dummy-7_h7_2_61"  />
</g>
<g id="a7_0062"  >
<polygon points="749,90 752,85 749,80 749,90 " style="fill:white; stroke-width:1; stroke:black; " description="&lt;b&gt;CAI60001.1&lt;/b&gt;&lt;br&gt;hypothetical protein&lt;br&gt;Location: 65243 - 65521" locus_tag="CAI60001.1" class="clusterblast-orf" id="dummy-7_h7_2_62"  />
</g>
<g id="a7_0063"  >
<polygon points="754,90 755,90 760,85 755,80 754,80 754,90 " style="fill:white; stroke-width:1; stroke:black; " description="&lt;b&gt;CAI60002.1&lt;/b&gt;&lt;br&gt;putative citrate lyase beta chain&lt;br&gt;Location: 65640 - 66224" locus_tag="CAI60002.1" class="clusterblast-orf" id="dummy-7_h7_2_63"  />
</g>
<g id="a7_0064"  >
<polygon points="761,85 766,80 767,80 767,90 766,90 761,85 " style="fill:white; stroke-width:1; stroke:black; " description="&lt;b&gt;CAI60003.1&lt;/b&gt;&lt;br&gt;putative methyltransferase&lt;br&gt;Location: 66298 - 66807" locus_tag="CAI60003.1" class="clusterblast-orf" id="dummy-7_h7_2_64"  />
</g>
<g id="a7_0065"  >
<polygon points="768,85 773,80 774,80 774,90 773,90 768,85 " style="fill:white; stroke-width:1; stroke:black; " description="&lt;b&gt;CAI60004.1&lt;/b&gt;&lt;br&gt;putative recombination protein&lt;br&gt;Location: 66942 - 67391" locus_tag="CAI60004.1" class="clusterblast-orf" id="dummy-7_h7_2_65"  />
</g>
<g id="a7_0066"  >
<polygon points="774,85 779,80 780,80 780,90 779,90 774,85 " style="fill:white; stroke-width:1; stroke:black; " description="&lt;b&gt;CAI60005.1&lt;/b&gt;&lt;br&gt;putative resolvase/invertase&lt;br&gt;Location: 67391 - 67903" locus_tag="CAI60005.1" class="clusterblast-orf" id="dummy-7_h7_2_66"  />
</g>
</svg>
