<svg xmlns="http://www.w3.org/2000/svg" xmlns:xlink="http://www.w3.org/1999/xlink" version="1.1" x="0" y="0" height="230" width="800" viewBox="0 0 800 230" preserveAspectRatio="none"  >
<g label="Query sequence" class="clusterblast-cluster"  >
<text x="5" y="20" class="clusterblast-acc"  >
Query sequence</text>
<line x1="10" y1="35" x2="778.0" y2="35" style="stroke-width:1; stroke:grey; "  />
<polygon points="171,35 176,30 180,30 180,40 176,40 171,35 " style="fill:white; stroke-width:1; stroke:black; " description="&lt;b&gt;LLPMBPKK_06036&lt;/b&gt;&lt;br&gt;regulator&lt;br&gt;Location: 6961541 - 6962354" locus_tag="LLPMBPKK_06036" class="clusterblast-orf" id="dummy-24_q0_0_all"  />
<polygon points="180,35 185,30 197,30 197,40 185,40 180,35 " style="fill:white; stroke-width:1; stroke:black; " description="&lt;b&gt;LLPMBPKK_06037&lt;/b&gt;&lt;br&gt;fatty acid-CoA ligase&lt;br&gt;Location: 6962369 - 6963962" locus_tag="LLPMBPKK_06037" class="clusterblast-orf" id="dummy-24_q1_0_all"  />
<polygon points="200,40 207,40 212,35 207,30 200,30 200,40 " style="fill:#d81515; stroke-width:1; stroke:black; " description="&lt;b&gt;LLPMBPKK_06038&lt;/b&gt;&lt;br&gt;acyl-CoA dehydrogenase&lt;br&gt;Location: 6964166 - 6965297" locus_tag="LLPMBPKK_06038" class="clusterblast-orf" id="dummy-24_q2_0_all"  />
<polygon points="212,40 216,35 212,30 212,40 " style="fill:#77d815; stroke-width:1; stroke:black; " description="&lt;b&gt;LLPMBPKK_06039&lt;/b&gt;&lt;br&gt;RidA family protein&lt;br&gt;Location: 6965293 - 6965692" locus_tag="LLPMBPKK_06039" class="clusterblast-orf" id="dummy-24_q3_0_all"  />
<polygon points="218,40 222,35 218,30 218,40 " style="fill:#15d8d8; stroke-width:1; stroke:black; " description="&lt;b&gt;LLPMBPKK_06040&lt;/b&gt;&lt;br&gt;hypothetical protein&lt;br&gt;Location: 6965837 - 6966263" locus_tag="LLPMBPKK_06040" class="clusterblast-orf" id="dummy-24_q4_0_all"  />
<polygon points="222,35 227,30 231,30 231,40 227,40 222,35 " style="fill:white; stroke-width:1; stroke:black; " description="&lt;b&gt;LLPMBPKK_06041&lt;/b&gt;&lt;br&gt;GntR family transcriptional regulator&lt;br&gt;Location: 6966249 - 6967074" locus_tag="LLPMBPKK_06041" class="clusterblast-orf" id="dummy-24_q5_0_all"  />
<polygon points="234,40 243,40 248,35 243,30 234,30 234,40 " style="fill:white; stroke-width:1; stroke:black; " description="&lt;b&gt;LLPMBPKK_06042&lt;/b&gt;&lt;br&gt;extracellular solute-binding protein&lt;br&gt;Location: 6967376 - 6968654" locus_tag="LLPMBPKK_06042" class="clusterblast-orf" id="dummy-24_q6_0_all"  />
<polygon points="249,40 255,40 260,35 255,30 249,30 249,40 " style="fill:white; stroke-width:1; stroke:black; " description="&lt;b&gt;LLPMBPKK_06043&lt;/b&gt;&lt;br&gt;sugar ABC transporter permease&lt;br&gt;Location: 6968732 - 6969731" locus_tag="LLPMBPKK_06043" class="clusterblast-orf" id="dummy-24_q7_0_all"  />
<polygon points="260,40 263,40 268,35 263,30 260,30 260,40 " style="fill:white; stroke-width:1; stroke:black; " description="&lt;b&gt;LLPMBPKK_06044&lt;/b&gt;&lt;br&gt;carbohydrate ABC transporter permease&lt;br&gt;Location: 6969727 - 6970558" locus_tag="LLPMBPKK_06044" class="clusterblast-orf" id="dummy-24_q8_0_all"  />
<polygon points="268,40 280,40 285,35 280,30 268,30 268,40 " style="fill:#7715d8; stroke-width:1; stroke:black; " description="&lt;b&gt;LLPMBPKK_06045&lt;/b&gt;&lt;br&gt;glycoside hydrolase family 3 protein&lt;br&gt;Location: 6970554 - 6972078" locus_tag="LLPMBPKK_06045" class="clusterblast-orf" id="dummy-24_q9_0_all"  />
<polygon points="286,40 292,40 297,35 292,30 286,30 286,40 " style="fill:#d87715; stroke-width:1; stroke:black; " description="&lt;b&gt;LLPMBPKK_06046&lt;/b&gt;&lt;br&gt;phytanoyl-CoA dioxygenase&lt;br&gt;Location: 6972182 - 6973214" locus_tag="LLPMBPKK_06046" class="clusterblast-orf" id="dummy-24_q10_0_all"  />
<polygon points="297,40 306,40 311,35 306,30 297,30 297,40 " style="fill:#15d815; stroke-width:1; stroke:black; " description="&lt;b&gt;LLPMBPKK_06047&lt;/b&gt;&lt;br&gt;hypothetical protein&lt;br&gt;Location: 6973210 - 6974500" locus_tag="LLPMBPKK_06047" class="clusterblast-orf" id="dummy-24_q11_0_all"  />
<polygon points="311,40 319,40 324,35 319,30 311,30 311,40 " style="fill:#1577d8; stroke-width:1; stroke:black; " description="&lt;b&gt;LLPMBPKK_06048&lt;/b&gt;&lt;br&gt;lysine/ornithine decarboxylase&lt;br&gt;Location: 6974496 - 6975660" locus_tag="LLPMBPKK_06048" class="clusterblast-orf" id="dummy-24_q12_0_all"  />
<polygon points="329,40 337,40 342,35 337,30 329,30 329,40 " style="fill:#d815d8; stroke-width:1; stroke:black; " description="&lt;b&gt;LLPMBPKK_06049&lt;/b&gt;&lt;br&gt;MFS transporter&lt;br&gt;Location: 6976160 - 6977330" locus_tag="LLPMBPKK_06049" class="clusterblast-orf" id="dummy-24_q13_0_all"  />
<polygon points="342,35 347,30 353,30 353,40 347,40 342,35 " style="fill:#d8d815; stroke-width:1; stroke:black; " description="&lt;b&gt;LLPMBPKK_06050&lt;/b&gt;&lt;br&gt;2,3-diaminopropionate biosynthesis protein SbnA&lt;br&gt;Location: 6977345 - 6978368" locus_tag="LLPMBPKK_06050" class="clusterblast-orf" id="dummy-24_q14_0_all"  />
<polygon points="353,35 358,30 365,30 365,40 358,40 353,35 " style="fill:#15d877; stroke-width:1; stroke:black; " description="&lt;b&gt;LLPMBPKK_06051&lt;/b&gt;&lt;br&gt;2,3-diaminopropionate biosynthesis protein SbnB&lt;br&gt;Location: 6978404 - 6979475" locus_tag="LLPMBPKK_06051" class="clusterblast-orf" id="dummy-24_q15_0_all"  />
<polygon points="365,35 370,30 375,30 375,40 370,40 365,35 " style="fill:#1515d8; stroke-width:1; stroke:black; " description="&lt;b&gt;LLPMBPKK_06052&lt;/b&gt;&lt;br&gt;TauD/TfdA family dioxygenase&lt;br&gt;Location: 6979471 - 6980476" locus_tag="LLPMBPKK_06052" class="clusterblast-orf" id="dummy-24_q16_0_all"  />
<polygon points="376,35 381,30 411,30 411,40 381,40 376,35 " style="fill:#1515d8; stroke-width:1; stroke:black; " description="&lt;b&gt;LLPMBPKK_06053&lt;/b&gt;&lt;br&gt;amino acid adenylation domain-containing protein&lt;br&gt;Location: 6980520 - 6983772" locus_tag="LLPMBPKK_06053" class="clusterblast-orf" id="dummy-24_q17_0_all"  />
<polygon points="411,35 416,30 435,30 435,40 416,40 411,35 " style="fill:white; stroke-width:1; stroke:black; " description="&lt;b&gt;LLPMBPKK_06054&lt;/b&gt;&lt;br&gt;NRPS protein&lt;br&gt;Location: 6983785 - 6985963" locus_tag="LLPMBPKK_06054" class="clusterblast-orf" id="dummy-24_q18_0_all"  />
<polygon points="441,35 446,30 452,30 452,40 446,40 441,35 " style="fill:#d81577; stroke-width:1; stroke:black; " description="&lt;b&gt;LLPMBPKK_06055&lt;/b&gt;&lt;br&gt;dTDP-glucose 4,6-dehydratase&lt;br&gt;Location: 6986554 - 6987574" locus_tag="LLPMBPKK_06055" class="clusterblast-orf" id="dummy-24_q19_0_all"  />
<polygon points="454,35 459,30 470,30 470,40 459,40 454,35 " style="fill:white; stroke-width:1; stroke:black; " description="&lt;b&gt;LLPMBPKK_06056&lt;/b&gt;&lt;br&gt;UDP-N-acetylglucosamine1-carboxyvinyltransferase&lt;br&gt;Location: 6987749 - 6989279" locus_tag="LLPMBPKK_06056" class="clusterblast-orf" id="dummy-24_q20_0_all"  />
<polygon points="473,40 475,40 480,35 475,30 473,30 473,40 " style="fill:white; stroke-width:1; stroke:black; " description="&lt;b&gt;LLPMBPKK_06057&lt;/b&gt;&lt;br&gt;hypothetical protein&lt;br&gt;Location: 6989484 - 6990201" locus_tag="LLPMBPKK_06057" class="clusterblast-orf" id="dummy-24_q21_0_all"  />
<polygon points="483,40 507,40 512,35 507,30 483,30 483,40 " style="fill:white; stroke-width:1; stroke:black; " description="&lt;b&gt;LLPMBPKK_06058&lt;/b&gt;&lt;br&gt;aconitate hydratase AcnA&lt;br&gt;Location: 6990422 - 6993140" locus_tag="LLPMBPKK_06058" class="clusterblast-orf" id="dummy-24_q22_0_all"  />
<polygon points="514,35 519,30 543,30 543,40 519,40 514,35 " style="fill:white; stroke-width:1; stroke:black; " description="&lt;b&gt;LLPMBPKK_06059&lt;/b&gt;&lt;br&gt;GAF domain-containing protein&lt;br&gt;Location: 6993277 - 6995971" locus_tag="LLPMBPKK_06059" class="clusterblast-orf" id="dummy-24_q23_0_all"  />
<polygon points="544,35 549,30 564,30 564,40 549,40 544,35 " style="fill:white; stroke-width:1; stroke:black; " description="&lt;b&gt;LLPMBPKK_06060&lt;/b&gt;&lt;br&gt;molecular chaperone DnaK&lt;br&gt;Location: 6996080 - 6997961" locus_tag="LLPMBPKK_06060" class="clusterblast-orf" id="dummy-24_q24_0_all"  />
<polygon points="573,40 603,40 608,35 603,30 573,30 573,40 " style="fill:white; stroke-width:1; stroke:black; " description="&lt;b&gt;LLPMBPKK_06061&lt;/b&gt;&lt;br&gt;glycoside hydrolase family 92 protein&lt;br&gt;Location: 6998760 - 7002030" locus_tag="LLPMBPKK_06061" class="clusterblast-orf" id="dummy-24_q25_0_all"  />
</g>
<g label="BGC0001448" description="BGC0001448_c1: malacidin A/malacidin B (5% of genes show similarity), NRP:Lipopeptide:Ca+-dependent lipopeptide" class="clusterblast-cluster"  >
<text x="5" y="70" class="clusterblast-acc"  >
<a xlink:href="https://mibig.secondarymetabolites.org/go/BGC0001448/1" target="_blank">BGC0001448</a>:                                                          malacidin A/malacidin B (5% of genes show similarity), NRP:Lipopeptide:Ca+-dependent lipopeptide</text>
<line x1="10" y1="85" x2="778.0" y2="85" style="stroke-width:1; stroke:grey; "  />
</g>
<g id="a24_000"  >
<polygon points="0,85 4,80 4,90 0,85 " style="fill:white; stroke-width:1; stroke:black; " description="&lt;b&gt;ARU08060.1&lt;/b&gt;&lt;br&gt;hypothetical protein&lt;br&gt;Location: 1 - 459" locus_tag="ARU08060.1" class="clusterblast-orf" id="dummy-24_h24_6_0"  />
</g>
<g id="a24_001"  >
<polygon points="4,85 9,80 13,80 13,90 9,90 4,85 " style="fill:white; stroke-width:1; stroke:black; " description="&lt;b&gt;ARU08061.1&lt;/b&gt;&lt;br&gt;hypothetical protein&lt;br&gt;Location: 459 - 1232" locus_tag="ARU08061.1" class="clusterblast-orf" id="dummy-24_h24_6_1"  />
</g>
<g id="a24_002"  >
<polygon points="13,85 18,80 23,80 23,90 18,90 13,85 " style="fill:white; stroke-width:1; stroke:black; " description="&lt;b&gt;ARU08062.1&lt;/b&gt;&lt;br&gt;hypothetical protein&lt;br&gt;Location: 1271 - 2197" locus_tag="ARU08062.1" class="clusterblast-orf" id="dummy-24_h24_6_2"  />
</g>
<g id="a24_003"  >
<polygon points="26,90 55,90 60,85 55,80 26,80 26,90 " style="fill:#1515d8; stroke-width:1; stroke:black; " description="&lt;b&gt;ARU08063.1&lt;/b&gt;&lt;br&gt;mlcA&lt;br&gt;Location: 2471 - 5602&lt;br&gt;&lt;br&gt;&lt;b&gt;BlastP hit with LLPMBPKK_06053&lt;/b&gt;&lt;br&gt;Percentage identity: 49&lt;br&gt;Percentage coverage: 97&lt;br&gt;BLAST bit score: 876&lt;br&gt;E-value: 5.44e-305" locus_tag="ARU08063.1" class="clusterblast-orf" id="dummy-24_h24_6_3"  />
</g>
<g id="a24_004"  >
<polygon points="60,90 64,90 69,85 64,80 60,80 60,90 " style="fill:white; stroke-width:1; stroke:black; " description="&lt;b&gt;ARU08064.1&lt;/b&gt;&lt;br&gt;mlcB&lt;br&gt;Location: 5593 - 6489" locus_tag="ARU08064.1" class="clusterblast-orf" id="dummy-24_h24_6_4"  />
</g>
<g id="a24_005"  >
<polygon points="70,90 75,90 80,85 75,80 70,80 70,90 " style="fill:white; stroke-width:1; stroke:black; " description="&lt;b&gt;ARU08065.1&lt;/b&gt;&lt;br&gt;mlcC&lt;br&gt;Location: 6507 - 7445" locus_tag="ARU08065.1" class="clusterblast-orf" id="dummy-24_h24_6_5"  />
</g>
<g id="a24_006"  >
<polygon points="80,85 85,80 89,80 89,90 85,90 80,85 " style="fill:white; stroke-width:1; stroke:black; " description="&lt;b&gt;ARU08066.1&lt;/b&gt;&lt;br&gt;mlcD&lt;br&gt;Location: 7504 - 8319" locus_tag="ARU08066.1" class="clusterblast-orf" id="dummy-24_h24_6_6"  />
</g>
<g id="a24_007"  >
<polygon points="89,85 94,80 102,80 102,90 94,90 89,85 " style="fill:white; stroke-width:1; stroke:black; " description="&lt;b&gt;ARU08067.1&lt;/b&gt;&lt;br&gt;mlcE&lt;br&gt;Location: 8316 - 9533" locus_tag="ARU08067.1" class="clusterblast-orf" id="dummy-24_h24_6_7"  />
</g>
<g id="a24_008"  >
<polygon points="102,85 107,80 108,80 108,90 107,90 102,85 " style="fill:white; stroke-width:1; stroke:black; " description="&lt;b&gt;ARU08068.1&lt;/b&gt;&lt;br&gt;mlcF&lt;br&gt;Location: 9539 - 10012" locus_tag="ARU08068.1" class="clusterblast-orf" id="dummy-24_h24_6_8"  />
</g>
<g id="a24_009"  >
<polygon points="110,90 124,90 129,85 124,80 110,80 110,90 " style="fill:white; stroke-width:1; stroke:black; " description="&lt;b&gt;ARU08069.1&lt;/b&gt;&lt;br&gt;mlcG&lt;br&gt;Location: 10224 - 11987" locus_tag="ARU08069.1" class="clusterblast-orf" id="dummy-24_h24_6_9"  />
</g>
<g id="a24_0010"  >
<polygon points="129,90 139,90 144,85 139,80 129,80 129,90 " style="fill:white; stroke-width:1; stroke:black; " description="&lt;b&gt;ARU08070.1&lt;/b&gt;&lt;br&gt;mlcH&lt;br&gt;Location: 11987 - 13420" locus_tag="ARU08070.1" class="clusterblast-orf" id="dummy-24_h24_6_10"  />
</g>
<g id="a24_0011"  >
<polygon points="144,90 156,90 161,85 156,80 144,80 144,90 " style="fill:white; stroke-width:1; stroke:black; " description="&lt;b&gt;ARU08071.1&lt;/b&gt;&lt;br&gt;mlcI&lt;br&gt;Location: 13417 - 15012" locus_tag="ARU08071.1" class="clusterblast-orf" id="dummy-24_h24_6_11"  />
</g>
<g id="a24_0012"  >
<polygon points="162,90 164,85 162,80 162,90 " style="fill:white; stroke-width:1; stroke:black; " description="&lt;b&gt;ARU08072.1&lt;/b&gt;&lt;br&gt;mlcJ&lt;br&gt;Location: 15023 - 15292" locus_tag="ARU08072.1" class="clusterblast-orf" id="dummy-24_h24_6_12"  />
</g>
<g id="a24_0013"  >
<polygon points="165,90 259,90 264,85 259,80 165,80 165,90 " style="fill:white; stroke-width:1; stroke:black; " description="&lt;b&gt;ARU08073.1&lt;/b&gt;&lt;br&gt;mlcK&lt;br&gt;Location: 15319 - 24513" locus_tag="ARU08073.1" class="clusterblast-orf" id="dummy-24_h24_6_13"  />
</g>
<g id="a24_0014"  >
<polygon points="264,90 441,90 446,85 441,80 264,80 264,90 " style="fill:white; stroke-width:1; stroke:black; " description="&lt;b&gt;ARU08074.1&lt;/b&gt;&lt;br&gt;mlcL&lt;br&gt;Location: 24510 - 41396" locus_tag="ARU08074.1" class="clusterblast-orf" id="dummy-24_h24_6_14"  />
</g>
<g id="a24_0015"  >
<polygon points="446,90 515,90 520,85 515,80 446,80 446,90 " style="fill:white; stroke-width:1; stroke:black; " description="&lt;b&gt;ARU08075.1&lt;/b&gt;&lt;br&gt;mlcM&lt;br&gt;Location: 41401 - 48243" locus_tag="ARU08075.1" class="clusterblast-orf" id="dummy-24_h24_6_15"  />
</g>
<g id="a24_0016"  >
<polygon points="520,85 525,80 533,80 533,90 525,90 520,85 " style="fill:white; stroke-width:1; stroke:black; " description="&lt;b&gt;ARU08076.1&lt;/b&gt;&lt;br&gt;hypothetical protein&lt;br&gt;Location: 48218 - 49435" locus_tag="ARU08076.1" class="clusterblast-orf" id="dummy-24_h24_6_16"  />
</g>
<g id="a24_0017"  >
<polygon points="533,85 536,80 536,90 533,85 " style="fill:white; stroke-width:1; stroke:black; " description="&lt;b&gt;ARU08077.1&lt;/b&gt;&lt;br&gt;hypothetical protein&lt;br&gt;Location: 49495 - 49689" locus_tag="ARU08077.1" class="clusterblast-orf" id="dummy-24_h24_6_17"  />
</g>
<g id="a24_0018"  >
<polygon points="536,85 541,80 543,80 543,90 541,90 536,85 " style="fill:white; stroke-width:1; stroke:black; " description="&lt;b&gt;ARU08078.1&lt;/b&gt;&lt;br&gt;hypothetical protein&lt;br&gt;Location: 49752 - 50345" locus_tag="ARU08078.1" class="clusterblast-orf" id="dummy-24_h24_6_18"  />
</g>
<g id="a24_0019"  >
<polygon points="545,90 546,90 551,85 546,80 545,80 545,90 " style="fill:white; stroke-width:1; stroke:black; " description="&lt;b&gt;ARU08079.1&lt;/b&gt;&lt;br&gt;hypothetical protein&lt;br&gt;Location: 50606 - 51100" locus_tag="ARU08079.1" class="clusterblast-orf" id="dummy-24_h24_6_19"  />
</g>
<g id="a24_0020"  >
<polygon points="552,90 556,90 561,85 556,80 552,80 552,90 " style="fill:white; stroke-width:1; stroke:black; " description="&lt;b&gt;ARU08080.1&lt;/b&gt;&lt;br&gt;hypothetical protein&lt;br&gt;Location: 51182 - 52045" locus_tag="ARU08080.1" class="clusterblast-orf" id="dummy-24_h24_6_20"  />
</g>
<g id="a24_0021"  >
<polygon points="561,85 565,80 565,90 561,85 " style="fill:white; stroke-width:1; stroke:black; " description="&lt;b&gt;ARU08081.1&lt;/b&gt;&lt;br&gt;hypothetical protein&lt;br&gt;Location: 52042 - 52446" locus_tag="ARU08081.1" class="clusterblast-orf" id="dummy-24_h24_6_21"  />
</g>
<g id="a24_0022"  >
<polygon points="566,85 571,80 575,80 575,90 571,90 566,85 " style="fill:#1515d8; stroke-width:1; stroke:black; " description="&lt;b&gt;ARU08082.1&lt;/b&gt;&lt;br&gt;mlcN&lt;br&gt;Location: 52469 - 53380&lt;br&gt;&lt;br&gt;&lt;b&gt;BlastP hit with LLPMBPKK_06052&lt;/b&gt;&lt;br&gt;Percentage identity: 54&lt;br&gt;Percentage coverage: 88&lt;br&gt;BLAST bit score: 324&lt;br&gt;E-value: 1.82e-110" locus_tag="ARU08082.1" class="clusterblast-orf" id="dummy-24_h24_6_22"  />
</g>
<g id="a24_0023"  >
<polygon points="575,85 580,80 585,80 585,90 580,90 575,85 " style="fill:white; stroke-width:1; stroke:black; " description="&lt;b&gt;ARU08083.1&lt;/b&gt;&lt;br&gt;mlcO&lt;br&gt;Location: 53377 - 54312" locus_tag="ARU08083.1" class="clusterblast-orf" id="dummy-24_h24_6_23"  />
</g>
<g id="a24_0024"  >
<polygon points="586,85 591,80 595,80 595,90 591,90 586,85 " style="fill:white; stroke-width:1; stroke:black; " description="&lt;b&gt;ARU08084.1&lt;/b&gt;&lt;br&gt;mlcP&lt;br&gt;Location: 54377 - 55243" locus_tag="ARU08084.1" class="clusterblast-orf" id="dummy-24_h24_6_24"  />
</g>
<g id="a24_0025"  >
<polygon points="595,90 598,85 595,80 595,90 " style="fill:white; stroke-width:1; stroke:black; " description="&lt;b&gt;ARU08085.1&lt;/b&gt;&lt;br&gt;hypothetical protein&lt;br&gt;Location: 55242 - 55457" locus_tag="ARU08085.1" class="clusterblast-orf" id="dummy-24_h24_6_25"  />
</g>
<g id="a24_0026"  >
<polygon points="598,85 603,80 610,80 610,90 603,90 598,85 " style="fill:white; stroke-width:1; stroke:black; " description="&lt;b&gt;ARU08086.1&lt;/b&gt;&lt;br&gt;mlcQ&lt;br&gt;Location: 55515 - 56600" locus_tag="ARU08086.1" class="clusterblast-orf" id="dummy-24_h24_6_26"  />
</g>
<g id="a24_0027"  >
<polygon points="610,85 615,80 619,80 619,90 615,90 610,85 " style="fill:white; stroke-width:1; stroke:black; " description="&lt;b&gt;ARU08087.1&lt;/b&gt;&lt;br&gt;mlcR&lt;br&gt;Location: 56597 - 57397" locus_tag="ARU08087.1" class="clusterblast-orf" id="dummy-24_h24_6_27"  />
</g>
<g id="a24_0028"  >
<polygon points="619,85 624,80 643,80 643,90 624,90 619,85 " style="fill:white; stroke-width:1; stroke:black; " description="&lt;b&gt;ARU08088.1&lt;/b&gt;&lt;br&gt;mlcS&lt;br&gt;Location: 57408 - 59663" locus_tag="ARU08088.1" class="clusterblast-orf" id="dummy-24_h24_6_28"  />
</g>
<g id="a24_0029"  >
<polygon points="643,85 648,80 662,80 662,90 648,90 643,85 " style="fill:white; stroke-width:1; stroke:black; " description="&lt;b&gt;ARU08089.1&lt;/b&gt;&lt;br&gt;mlcT&lt;br&gt;Location: 59660 - 61381" locus_tag="ARU08089.1" class="clusterblast-orf" id="dummy-24_h24_6_29"  />
</g>
<g id="a24_0030"  >
<polygon points="668,90 671,85 668,80 668,90 " style="fill:white; stroke-width:1; stroke:black; " description="&lt;b&gt;ARU08090.1&lt;/b&gt;&lt;br&gt;mlcU&lt;br&gt;Location: 62005 - 62271" locus_tag="ARU08090.1" class="clusterblast-orf" id="dummy-24_h24_6_30"  />
</g>
<g id="a24_0031"  >
<polygon points="672,90 675,85 672,80 672,90 " style="fill:white; stroke-width:1; stroke:black; " description="&lt;b&gt;ARU08091.1&lt;/b&gt;&lt;br&gt;mlcV&lt;br&gt;Location: 62354 - 62572" locus_tag="ARU08091.1" class="clusterblast-orf" id="dummy-24_h24_6_31"  />
</g>
<g id="a24_0032"  >
<polygon points="676,90 677,90 682,85 677,80 676,80 676,90 " style="fill:white; stroke-width:1; stroke:black; " description="&lt;b&gt;ARU08092.1&lt;/b&gt;&lt;br&gt;hypothetical protein&lt;br&gt;Location: 62712 - 63257" locus_tag="ARU08092.1" class="clusterblast-orf" id="dummy-24_h24_6_32"  />
</g>
<g id="a24_0033"  >
<polygon points="682,90 685,90 690,85 685,80 682,80 682,90 " style="fill:white; stroke-width:1; stroke:black; " description="&lt;b&gt;ARU08093.1&lt;/b&gt;&lt;br&gt;mlcW&lt;br&gt;Location: 63298 - 63984" locus_tag="ARU08093.1" class="clusterblast-orf" id="dummy-24_h24_6_33"  />
</g>
<g id="a24_0034"  >
<polygon points="690,90 694,90 699,85 694,80 690,80 690,90 " style="fill:white; stroke-width:1; stroke:black; " description="&lt;b&gt;ARU08094.1&lt;/b&gt;&lt;br&gt;hypothetical protein&lt;br&gt;Location: 64023 - 64817" locus_tag="ARU08094.1" class="clusterblast-orf" id="dummy-24_h24_6_34"  />
</g>
<g id="a24_0035"  >
<polygon points="699,90 704,90 709,85 704,80 699,80 699,90 " style="fill:white; stroke-width:1; stroke:black; " description="&lt;b&gt;ARU08095.1&lt;/b&gt;&lt;br&gt;mlcX&lt;br&gt;Location: 64814 - 65797" locus_tag="ARU08095.1" class="clusterblast-orf" id="dummy-24_h24_6_35"  />
</g>
<g id="a24_0036"  >
<polygon points="716,90 744,90 749,85 744,80 716,80 716,90 " style="fill:white; stroke-width:1; stroke:black; " description="&lt;b&gt;ARU08096.1&lt;/b&gt;&lt;br&gt;mlcY&lt;br&gt;Location: 66442 - 69489" locus_tag="ARU08096.1" class="clusterblast-orf" id="dummy-24_h24_6_36"  />
</g>
<g id="a24_0037"  >
<polygon points="753,85 758,80 765,80 765,90 758,90 753,85 " style="fill:white; stroke-width:1; stroke:black; " description="&lt;b&gt;ARU08097.1&lt;/b&gt;&lt;br&gt;hypothetical protein&lt;br&gt;Location: 69828 - 70919" locus_tag="ARU08097.1" class="clusterblast-orf" id="dummy-24_h24_6_37"  />
</g>
<g id="a24_0038"  >
<polygon points="765,85 770,80 780,80 780,90 770,90 765,85 " style="fill:white; stroke-width:1; stroke:black; " description="&lt;b&gt;ARU08098.1&lt;/b&gt;&lt;br&gt;hypothetical protein&lt;br&gt;Location: 70916 - 72298" locus_tag="ARU08098.1" class="clusterblast-orf" id="dummy-24_h24_6_38"  />
</g>
</svg>
