<svg xmlns="http://www.w3.org/2000/svg" xmlns:xlink="http://www.w3.org/1999/xlink" version="1.1" x="0" y="0" height="150" width="800" viewBox="0 0 800 150" preserveAspectRatio="none"  >
<g label="Query sequence" class="clusterblast-cluster"  >
<text x="5" y="20" class="clusterblast-acc"  >
Query sequence</text>
<line x1="10" y1="35" x2="778.0" y2="35" style="stroke-width:1; stroke:grey; "  />
<polygon points="83,35 88,30 123,30 123,40 88,40 83,35 " style="fill:#d81515; stroke-width:1; stroke:black; " description="&lt;b&gt;LLPMBPKK_05260&lt;/b&gt;&lt;br&gt;3-phosphoshikimate 1-carboxyvinyltransferase&lt;br&gt;Location: 5937298 - 5938615" locus_tag="LLPMBPKK_05260" class="clusterblast-orf" id="knownclusterblast-19_q0_0_all"  />
<polygon points="124,35 129,30 146,30 146,40 129,40 124,35 " style="fill:#15d815; stroke-width:1; stroke:black; " description="&lt;b&gt;LLPMBPKK_05261&lt;/b&gt;&lt;br&gt;M50 family peptidase&lt;br&gt;Location: 5938643 - 5939366" locus_tag="LLPMBPKK_05261" class="clusterblast-orf" id="knownclusterblast-19_q1_0_all"  />
<polygon points="147,40 167,40 172,35 167,30 147,30 147,40 " style="fill:#1515d8; stroke-width:1; stroke:black; " description="&lt;b&gt;LLPMBPKK_05262&lt;/b&gt;&lt;br&gt;SOS response-associated peptidase&lt;br&gt;Location: 5939416 - 5940232" locus_tag="LLPMBPKK_05262" class="clusterblast-orf" id="knownclusterblast-19_q2_0_all"  />
<polygon points="172,40 186,40 191,35 186,30 172,30 172,40 " style="fill:#d815d8; stroke-width:1; stroke:black; " description="&lt;b&gt;LLPMBPKK_05263&lt;/b&gt;&lt;br&gt;alpha/beta hydrolase&lt;br&gt;Location: 5940233 - 5940860" locus_tag="LLPMBPKK_05263" class="clusterblast-orf" id="knownclusterblast-19_q3_0_all"  />
<polygon points="194,40 217,40 222,35 217,30 194,30 194,40 " style="fill:white; stroke-width:1; stroke:black; " description="&lt;b&gt;LLPMBPKK_05264&lt;/b&gt;&lt;br&gt;sigma-70 family RNA polymerase sigma factor&lt;br&gt;Location: 5940951 - 5941866" locus_tag="LLPMBPKK_05264" class="clusterblast-orf" id="knownclusterblast-19_q4_0_all"  />
<polygon points="221,40 226,40 231,35 226,30 221,30 221,40 " style="fill:white; stroke-width:1; stroke:black; " description="&lt;b&gt;LLPMBPKK_05265&lt;/b&gt;&lt;br&gt;mycothiol system anti-sigma-R factor&lt;br&gt;Location: 5941862 - 5942174" locus_tag="LLPMBPKK_05265" class="clusterblast-orf" id="knownclusterblast-19_q5_0_all"  />
<polygon points="235,40 270,40 275,35 270,30 235,30 235,40 " style="fill:white; stroke-width:1; stroke:black; " description="&lt;b&gt;LLPMBPKK_05266&lt;/b&gt;&lt;br&gt;HD-GYP domain-containing protein&lt;br&gt;Location: 5942319 - 5943624" locus_tag="LLPMBPKK_05266" class="clusterblast-orf" id="knownclusterblast-19_q6_0_all"  />
<polygon points="275,40 310,40 315,35 310,30 275,30 275,40 " style="fill:white; stroke-width:1; stroke:black; " description="&lt;b&gt;LLPMBPKK_05267&lt;/b&gt;&lt;br&gt;lipoprotein&lt;br&gt;Location: 5943620 - 5944949" locus_tag="LLPMBPKK_05267" class="clusterblast-orf" id="knownclusterblast-19_q7_0_all"  />
<polygon points="318,40 343,40 348,35 343,30 318,30 318,40 " style="fill:white; stroke-width:1; stroke:black; " description="&lt;b&gt;LLPMBPKK_05268&lt;/b&gt;&lt;br&gt;hypothetical protein&lt;br&gt;Location: 5945047 - 5946028" locus_tag="LLPMBPKK_05268" class="clusterblast-orf" id="knownclusterblast-19_q8_0_all"  />
<polygon points="350,40 364,40 369,35 364,30 350,30 350,40 " style="fill:white; stroke-width:1; stroke:black; " description="&lt;b&gt;LLPMBPKK_05269&lt;/b&gt;&lt;br&gt;peptide deformylase&lt;br&gt;Location: 5946090 - 5946741" locus_tag="LLPMBPKK_05269" class="clusterblast-orf" id="knownclusterblast-19_q9_0_all"  />
<polygon points="383,40 406,40 411,35 406,30 383,30 383,40 " style="fill:#d8d815; stroke-width:1; stroke:black; " description="&lt;b&gt;LLPMBPKK_05270&lt;/b&gt;&lt;br&gt;multidrug MFS transporter&lt;br&gt;Location: 5947195 - 5948119" locus_tag="LLPMBPKK_05270" class="clusterblast-orf" id="knownclusterblast-19_q10_0_all"  />
<polygon points="411,40 448,40 453,35 448,30 411,30 411,40 " style="fill:#15d8d8; stroke-width:1; stroke:black; " description="&lt;b&gt;LLPMBPKK_05271&lt;/b&gt;&lt;br&gt;cytochrome P450&lt;br&gt;Location: 5948115 - 5949504" locus_tag="LLPMBPKK_05271" class="clusterblast-orf" id="knownclusterblast-19_q11_0_all"  />
<polygon points="454,35 459,30 483,30 483,40 459,40 454,35 " style="fill:white; stroke-width:1; stroke:black; " description="&lt;b&gt;LLPMBPKK_05272&lt;/b&gt;&lt;br&gt;AraC family transcription regulator&lt;br&gt;Location: 5949523 - 5950486" locus_tag="LLPMBPKK_05272" class="clusterblast-orf" id="knownclusterblast-19_q12_0_all"  />
<polygon points="486,40 487,40 492,35 487,30 486,30 486,40 " style="fill:white; stroke-width:1; stroke:black; " description="&lt;b&gt;LLPMBPKK_05273&lt;/b&gt;&lt;br&gt;hypothetical protein&lt;br&gt;Location: 5950580 - 5950793" locus_tag="LLPMBPKK_05273" class="clusterblast-orf" id="knownclusterblast-19_q13_0_all"  />
<polygon points="495,35 500,30 526,30 526,40 500,40 495,35 " style="fill:white; stroke-width:1; stroke:black; " description="&lt;b&gt;LLPMBPKK_05274&lt;/b&gt;&lt;br&gt;ribonucleoside-diphosphate reductase&lt;br&gt;Location: 5950874 - 5951888" locus_tag="LLPMBPKK_05274" class="clusterblast-orf" id="knownclusterblast-19_q14_0_all"  />
<polygon points="612,35 617,30 661,30 661,40 617,40 612,35 " style="fill:white; stroke-width:1; stroke:black; " description="&lt;b&gt;LLPMBPKK_05276&lt;/b&gt;&lt;br&gt;sodium:solute symporter family protein&lt;br&gt;Location: 5954725 - 5956354" locus_tag="LLPMBPKK_05276" class="clusterblast-orf" id="knownclusterblast-19_q15_0_all"  />
<polygon points="661,35 666,30 669,30 669,40 666,40 661,35 " style="fill:white; stroke-width:1; stroke:black; " description="&lt;b&gt;LLPMBPKK_05277&lt;/b&gt;&lt;br&gt;hypothetical protein&lt;br&gt;Location: 5956350 - 5956614" locus_tag="LLPMBPKK_05277" class="clusterblast-orf" id="knownclusterblast-19_q16_0_all"  />
<polygon points="674,35 679,30 697,30 697,40 679,40 674,35 " style="fill:white; stroke-width:1; stroke:black; " description="&lt;b&gt;LLPMBPKK_05278&lt;/b&gt;&lt;br&gt;GntR family transcriptional regulator&lt;br&gt;Location: 5956761 - 5957523" locus_tag="LLPMBPKK_05278" class="clusterblast-orf" id="knownclusterblast-19_q17_0_all"  />
</g>
<g label="BGC0000660" description="BGC0000660_c1: albaflavenone (100% of genes show similarity), Terpene" class="clusterblast-cluster"  >
<text x="5" y="70" class="clusterblast-acc"  >
<a xlink:href="https://mibig.secondarymetabolites.org/go/BGC0000660/1" target="_blank">BGC0000660</a>:                                                                    albaflavenone (100% of genes show similarity), Terpene</text>
<line x1="10" y1="85" x2="778.0" y2="85" style="stroke-width:1; stroke:grey; "  />
</g>
<g id="a19_000"  >
<polygon points="352,90 380,90 385,85 380,80 352,80 352,90 " style="fill:#d8d815; stroke-width:1; stroke:black; " description="&lt;b&gt;CAB94607.1&lt;/b&gt;&lt;br&gt;putative lyase&lt;br&gt;Location: 1 - 1086&lt;br&gt;&lt;br&gt;&lt;b&gt;BlastP hit with LLPMBPKK_05270&lt;/b&gt;&lt;br&gt;Percentage identity: 83&lt;br&gt;Percentage coverage: 100&lt;br&gt;BLAST bit score: 526&lt;br&gt;E-value: 5.6e-190" locus_tag="CAB94607.1" class="clusterblast-orf" id="knownclusterblast-19_all_19_1_0"  />
</g>
<g id="a19_001"  >
<polygon points="385,90 422,90 427,85 422,80 385,80 385,90 " style="fill:#15d8d8; stroke-width:1; stroke:black; " description="&lt;b&gt;CAB94608.1&lt;/b&gt;&lt;br&gt;putative cytochrome P450&lt;br&gt;Location: 1083 - 2468&lt;br&gt;&lt;br&gt;&lt;b&gt;BlastP hit with LLPMBPKK_05271&lt;/b&gt;&lt;br&gt;Percentage identity: 81&lt;br&gt;Percentage coverage: 99&lt;br&gt;BLAST bit score: 754&lt;br&gt;E-value: 1.06e-275" locus_tag="CAB94608.1" class="clusterblast-orf" id="knownclusterblast-19_all_19_1_1"  />
</g>
<g label="BGC0002012" description="BGC0002012_c1: julichrome Q3-3/julichrome Q3-5 (14% of genes show similarity), Polyketide" class="clusterblast-cluster"  >
<text x="5" y="120" class="clusterblast-acc"  >
<a xlink:href="https://mibig.secondarymetabolites.org/go/BGC0002012/1" target="_blank">BGC0002012</a>:                                                  julichrome Q3-3/julichrome Q3-5 (14% of genes show similarity), Polyketide</text>
<line x1="10" y1="135" x2="778.0" y2="135" style="stroke-width:1; stroke:grey; "  />
</g>
<g id="a19_000"  >
<polygon points="0,135 5,130 12,130 12,140 5,140 0,135 " style="fill:white; stroke-width:1; stroke:black; " description="&lt;b&gt;STAFG_RS30595&lt;/b&gt;&lt;br&gt;transcriptional repressor&lt;br&gt;Location: 1 - 417" locus_tag="STAFG_RS30595" class="clusterblast-orf" id="knownclusterblast-19_all_19_2_0"  />
</g>
<g id="a19_001"  >
<polygon points="17,135 22,130 28,130 28,140 22,140 17,135 " style="fill:white; stroke-width:1; stroke:black; " description="&lt;b&gt;STAFG_RS30600&lt;/b&gt;&lt;br&gt;CBS domain-containing protein&lt;br&gt;Location: 564 - 956" locus_tag="STAFG_RS30600" class="clusterblast-orf" id="knownclusterblast-19_all_19_2_1"  />
</g>
<g id="a19_002"  >
<polygon points="34,135 39,130 58,130 58,140 39,140 34,135 " style="fill:white; stroke-width:1; stroke:black; " description="&lt;b&gt;STAFG_RS30605&lt;/b&gt;&lt;br&gt;histidinol-phosphatase&lt;br&gt;Location: 1134 - 1934" locus_tag="STAFG_RS30605" class="clusterblast-orf" id="knownclusterblast-19_all_19_2_2"  />
</g>
<g id="a19_003"  >
<polygon points="64,140 78,140 83,135 78,130 64,130 64,140 " style="fill:white; stroke-width:1; stroke:black; " description="&lt;b&gt;STAFG_RS30610&lt;/b&gt;&lt;br&gt;TetR/AcrR family transcriptional regulator&lt;br&gt;Location: 2138 - 2746" locus_tag="STAFG_RS30610" class="clusterblast-orf" id="knownclusterblast-19_all_19_2_3"  />
</g>
<g id="a19_004"  >
<polygon points="83,135 88,130 93,130 93,140 88,140 83,135 " style="fill:white; stroke-width:1; stroke:black; " description="&lt;b&gt;STAFG_RS30615&lt;/b&gt;&lt;br&gt;multidrug efflux SMR transporter&lt;br&gt;Location: 2754 - 3077" locus_tag="STAFG_RS30615" class="clusterblast-orf" id="knownclusterblast-19_all_19_2_4"  />
</g>
<g id="a19_005"  >
<polygon points="97,135 102,130 128,130 128,140 102,140 97,135 " style="fill:white; stroke-width:1; stroke:black; " description="&lt;b&gt;STAFG_RS30620&lt;/b&gt;&lt;br&gt;ribosome small subunit-dependent GTPase A&lt;br&gt;Location: 3225 - 4235" locus_tag="STAFG_RS30620" class="clusterblast-orf" id="knownclusterblast-19_all_19_2_5"  />
</g>
<g id="a19_006"  >
<polygon points="129,135 134,130 168,130 168,140 134,140 129,135 " style="fill:#d81515; stroke-width:1; stroke:black; " description="&lt;b&gt;STAFG_RS30625&lt;/b&gt;&lt;br&gt;3-phosphoshikimate 1-carboxyvinyltransferase&lt;br&gt;Location: 4253 - 5569&lt;br&gt;&lt;br&gt;&lt;b&gt;BlastP hit with LLPMBPKK_05260&lt;/b&gt;&lt;br&gt;Percentage identity: 94&lt;br&gt;Percentage coverage: 100&lt;br&gt;BLAST bit score: 834&lt;br&gt;E-value: 3.55e-308" locus_tag="STAFG_RS30625" class="clusterblast-orf" id="knownclusterblast-19_all_19_2_6"  />
</g>
<g id="a19_007"  >
<polygon points="171,135 176,130 194,130 194,140 176,140 171,135 " style="fill:#15d815; stroke-width:1; stroke:black; " description="&lt;b&gt;STAFG_RS30630&lt;/b&gt;&lt;br&gt;M50 family metallopeptidase&lt;br&gt;Location: 5667 - 6401&lt;br&gt;&lt;br&gt;&lt;b&gt;BlastP hit with LLPMBPKK_05261&lt;/b&gt;&lt;br&gt;Percentage identity: 83&lt;br&gt;Percentage coverage: 98&lt;br&gt;BLAST bit score: 382&lt;br&gt;E-value: 5.23e-136" locus_tag="STAFG_RS30630" class="clusterblast-orf" id="knownclusterblast-19_all_19_2_7"  />
</g>
<g id="a19_008"  >
<polygon points="199,135 204,130 225,130 225,140 204,140 199,135 " style="fill:white; stroke-width:1; stroke:black; " description="&lt;b&gt;STAFG_RS30635&lt;/b&gt;&lt;br&gt;NAD(P)H-binding protein&lt;br&gt;Location: 6573 - 7427" locus_tag="STAFG_RS30635" class="clusterblast-orf" id="knownclusterblast-19_all_19_2_8"  />
</g>
<g id="a19_009"  >
<polygon points="227,135 232,130 272,130 272,140 232,140 227,135 " style="fill:white; stroke-width:1; stroke:black; " description="&lt;b&gt;STAFG_RS30640&lt;/b&gt;&lt;br&gt;FAD-dependent oxidoreductase&lt;br&gt;Location: 7508 - 8968" locus_tag="STAFG_RS30640" class="clusterblast-orf" id="knownclusterblast-19_all_19_2_9"  />
</g>
<g id="a19_0010"  >
<polygon points="277,135 282,130 314,130 314,140 282,140 277,135 " style="fill:white; stroke-width:1; stroke:black; " description="&lt;b&gt;STAFG_RS30645&lt;/b&gt;&lt;br&gt;hypothetical protein&lt;br&gt;Location: 9153 - 10361" locus_tag="STAFG_RS30645" class="clusterblast-orf" id="knownclusterblast-19_all_19_2_10"  />
</g>
<g id="a19_0011"  >
<polygon points="314,135 319,130 344,130 344,140 319,140 314,135 " style="fill:white; stroke-width:1; stroke:black; " description="&lt;b&gt;STAFG_RS30650&lt;/b&gt;&lt;br&gt;LLM class F420-dependent oxidoreductase&lt;br&gt;Location: 10358 - 11365" locus_tag="STAFG_RS30650" class="clusterblast-orf" id="knownclusterblast-19_all_19_2_11"  />
</g>
<g id="a19_0012"  >
<polygon points="345,135 350,130 382,130 382,140 350,140 345,135 " style="fill:white; stroke-width:1; stroke:black; " description="&lt;b&gt;STAFG_RS30655&lt;/b&gt;&lt;br&gt;cytochrome P450&lt;br&gt;Location: 11377 - 12603" locus_tag="STAFG_RS30655" class="clusterblast-orf" id="knownclusterblast-19_all_19_2_12"  />
</g>
<g id="a19_0013"  >
<polygon points="387,135 392,130 409,130 409,140 392,140 387,135 " style="fill:white; stroke-width:1; stroke:black; " description="&lt;b&gt;STAFG_RS30660&lt;/b&gt;&lt;br&gt;TetR/AcrR family transcriptional regulator C-terminal domain-containing protein&lt;br&gt;Location: 12778 - 13482" locus_tag="STAFG_RS30660" class="clusterblast-orf" id="knownclusterblast-19_all_19_2_13"  />
</g>
<g id="a19_0014"  >
<polygon points="416,140 456,140 461,135 456,130 416,130 416,140 " style="fill:white; stroke-width:1; stroke:black; " description="&lt;b&gt;STAFG_RS30665&lt;/b&gt;&lt;br&gt;MFS transporter&lt;br&gt;Location: 13732 - 15195" locus_tag="STAFG_RS30665" class="clusterblast-orf" id="knownclusterblast-19_all_19_2_14"  />
</g>
<g id="a19_0015"  >
<polygon points="472,140 491,140 496,135 491,130 472,130 472,140 " style="fill:white; stroke-width:1; stroke:black; " description="&lt;b&gt;STAFG_RS30670&lt;/b&gt;&lt;br&gt;response regulator transcription factor&lt;br&gt;Location: 15562 - 16368" locus_tag="STAFG_RS30670" class="clusterblast-orf" id="knownclusterblast-19_all_19_2_15"  />
</g>
<g id="a19_0016"  >
<polygon points="504,140 519,140 524,135 519,130 504,130 504,140 " style="fill:white; stroke-width:1; stroke:black; " description="&lt;b&gt;STAFG_RS50090&lt;/b&gt;&lt;br&gt;TcmI family type II polyketide cyclase&lt;br&gt;Location: 16626 - 17297" locus_tag="STAFG_RS50090" class="clusterblast-orf" id="knownclusterblast-19_all_19_2_16"  />
</g>
<g id="a19_0017"  >
<polygon points="524,140 558,140 563,135 558,130 524,130 524,140 " style="fill:white; stroke-width:1; stroke:black; " description="&lt;b&gt;STAFG_RS30680&lt;/b&gt;&lt;br&gt;beta-ketoacyl-[acyl-carrier-protein] synthase family protein&lt;br&gt;Location: 17294 - 18565" locus_tag="STAFG_RS30680" class="clusterblast-orf" id="knownclusterblast-19_all_19_2_17"  />
</g>
<g id="a19_0018"  >
<polygon points="563,140 594,140 599,135 594,130 563,130 563,140 " style="fill:white; stroke-width:1; stroke:black; " description="&lt;b&gt;STAFG_RS30685&lt;/b&gt;&lt;br&gt;ketosynthase chain-length factor&lt;br&gt;Location: 18562 - 19755" locus_tag="STAFG_RS30685" class="clusterblast-orf" id="knownclusterblast-19_all_19_2_18"  />
</g>
<g id="a19_0019"  >
<polygon points="601,140 604,140 609,135 604,130 601,130 601,140 " style="fill:white; stroke-width:1; stroke:black; " description="&lt;b&gt;STAFG_RS30690&lt;/b&gt;&lt;br&gt;acyl carrier protein&lt;br&gt;Location: 19836 - 20099" locus_tag="STAFG_RS30690" class="clusterblast-orf" id="knownclusterblast-19_all_19_2_19"  />
</g>
<g id="a19_0020"  >
<polygon points="611,140 630,140 635,135 630,130 611,130 611,140 " style="fill:white; stroke-width:1; stroke:black; " description="&lt;b&gt;STAFG_RS30695&lt;/b&gt;&lt;br&gt;SDR family NAD(P)-dependent oxidoreductase&lt;br&gt;Location: 20152 - 20937" locus_tag="STAFG_RS30695" class="clusterblast-orf" id="knownclusterblast-19_all_19_2_20"  />
</g>
<g id="a19_0021"  >
<polygon points="636,140 660,140 665,135 660,130 636,130 636,140 " style="fill:white; stroke-width:1; stroke:black; " description="&lt;b&gt;STAFG_RS30700&lt;/b&gt;&lt;br&gt;aromatase/cyclase&lt;br&gt;Location: 20966 - 21916" locus_tag="STAFG_RS30700" class="clusterblast-orf" id="knownclusterblast-19_all_19_2_21"  />
</g>
<g id="a19_0022"  >
<polygon points="664,140 687,140 692,135 687,130 664,130 664,140 " style="fill:white; stroke-width:1; stroke:black; " description="&lt;b&gt;STAFG_RS30705&lt;/b&gt;&lt;br&gt;alpha/beta hydrolase&lt;br&gt;Location: 21913 - 22821" locus_tag="STAFG_RS30705" class="clusterblast-orf" id="knownclusterblast-19_all_19_2_22"  />
</g>
<g id="a19_0023"  >
<polygon points="692,140 699,140 704,135 699,130 692,130 692,140 " style="fill:white; stroke-width:1; stroke:black; " description="&lt;b&gt;STAFG_RS30710&lt;/b&gt;&lt;br&gt;lipocalin-like domain-containing protein&lt;br&gt;Location: 22818 - 23219" locus_tag="STAFG_RS30710" class="clusterblast-orf" id="knownclusterblast-19_all_19_2_23"  />
</g>
<g id="a19_0024"  >
<polygon points="704,140 705,140 710,135 705,130 704,130 704,140 " style="fill:white; stroke-width:1; stroke:black; " description="&lt;b&gt;STAFG_RS54195&lt;/b&gt;&lt;br&gt;hypothetical protein&lt;br&gt;Location: 23216 - 23407" locus_tag="STAFG_RS54195" class="clusterblast-orf" id="knownclusterblast-19_all_19_2_24"  />
</g>
<g id="a19_0025"  >
<polygon points="710,140 727,140 732,135 727,130 710,130 710,140 " style="fill:white; stroke-width:1; stroke:black; " description="&lt;b&gt;STAFG_RS48165&lt;/b&gt;&lt;br&gt;4'-phosphopantetheinyl transferase superfamily protein&lt;br&gt;Location: 23404 - 24138" locus_tag="STAFG_RS48165" class="clusterblast-orf" id="knownclusterblast-19_all_19_2_25"  />
</g>
<g id="a19_0026"  >
<polygon points="735,140 755,140 760,135 755,130 735,130 735,140 " style="fill:#1515d8; stroke-width:1; stroke:black; " description="&lt;b&gt;STAFG_RS30725&lt;/b&gt;&lt;br&gt;SOS response-associated peptidase&lt;br&gt;Location: 24230 - 25045&lt;br&gt;&lt;br&gt;&lt;b&gt;BlastP hit with LLPMBPKK_05262&lt;/b&gt;&lt;br&gt;Percentage identity: 91&lt;br&gt;Percentage coverage: 100&lt;br&gt;BLAST bit score: 529&lt;br&gt;E-value: 5.98e-193" locus_tag="STAFG_RS30725" class="clusterblast-orf" id="knownclusterblast-19_all_19_2_26"  />
</g>
<g id="a19_0027"  >
<polygon points="760,140 775,140 780,135 775,130 760,130 760,140 " style="fill:#d815d8; stroke-width:1; stroke:black; " description="&lt;b&gt;STAFG_RS30730&lt;/b&gt;&lt;br&gt;hydrolase&lt;br&gt;Location: 25056 - 25703&lt;br&gt;&lt;br&gt;&lt;b&gt;BlastP hit with LLPMBPKK_05263&lt;/b&gt;&lt;br&gt;Percentage identity: 83&lt;br&gt;Percentage coverage: 99&lt;br&gt;BLAST bit score: 354&lt;br&gt;E-value: 9.79e-126" locus_tag="STAFG_RS30730" class="clusterblast-orf" id="knownclusterblast-19_all_19_2_27"  />
</g>
</svg>
