<svg xmlns="http://www.w3.org/2000/svg" xmlns:xlink="http://www.w3.org/1999/xlink" version="1.1" x="0" y="0" height="230" width="800" viewBox="0 0 800 230" preserveAspectRatio="none"  >
<g label="Query sequence" class="clusterblast-cluster"  >
<text x="5" y="20" class="clusterblast-acc"  >
Query sequence</text>
<line x1="10" y1="35" x2="778.0" y2="35" style="stroke-width:1; stroke:grey; "  />
<polygon points="0,35 5,30 7,30 7,40 5,40 0,35 " style="fill:white; stroke-width:1; stroke:black; " description="&lt;b&gt;LLPMBPKK_02177&lt;/b&gt;&lt;br&gt;5-dehydro-4-deoxyglucarate dehydratase&lt;br&gt;Location: 2510113 - 2511055" locus_tag="LLPMBPKK_02177" class="clusterblast-orf" id="dummy-12_q0_0_all"  />
<polygon points="9,40 11,40 16,35 11,30 9,30 9,40 " style="fill:white; stroke-width:1; stroke:black; " description="&lt;b&gt;LLPMBPKK_02178&lt;/b&gt;&lt;br&gt;NAD(P)-dependent oxidoreductase&lt;br&gt;Location: 2511287 - 2512097" locus_tag="LLPMBPKK_02178" class="clusterblast-orf" id="dummy-12_q1_0_all"  />
<polygon points="18,40 20,40 25,35 20,30 18,30 18,40 " style="fill:#d81515; stroke-width:1; stroke:black; " description="&lt;b&gt;LLPMBPKK_02179&lt;/b&gt;&lt;br&gt;DeoR/GlpR transcriptional regulator&lt;br&gt;Location: 2512373 - 2513186" locus_tag="LLPMBPKK_02179" class="clusterblast-orf" id="dummy-12_q2_0_all"  />
<polygon points="25,40 32,40 37,35 32,30 25,30 25,40 " style="fill:#15d815; stroke-width:1; stroke:black; " description="&lt;b&gt;LLPMBPKK_02180&lt;/b&gt;&lt;br&gt;sugar ABC transporter substrate-binding protein&lt;br&gt;Location: 2513275 - 2514646" locus_tag="LLPMBPKK_02180" class="clusterblast-orf" id="dummy-12_q3_0_all"  />
<polygon points="36,40 39,40 44,35 39,30 36,30 36,40 " style="fill:#1597d8; stroke-width:1; stroke:black; " description="&lt;b&gt;LLPMBPKK_02181&lt;/b&gt;&lt;br&gt;sugar ABC transporter permease&lt;br&gt;Location: 2514642 - 2515581" locus_tag="LLPMBPKK_02181" class="clusterblast-orf" id="dummy-12_q4_0_all"  />
<polygon points="44,40 46,40 51,35 46,30 44,30 44,40 " style="fill:#9715d8; stroke-width:1; stroke:black; " description="&lt;b&gt;LLPMBPKK_02182&lt;/b&gt;&lt;br&gt;integral membrane sugar transport protein&lt;br&gt;Location: 2515577 - 2516405" locus_tag="LLPMBPKK_02182" class="clusterblast-orf" id="dummy-12_q5_0_all"  />
<polygon points="51,40 54,40 59,35 54,30 51,30 51,40 " style="fill:#d89715; stroke-width:1; stroke:black; " description="&lt;b&gt;LLPMBPKK_02183&lt;/b&gt;&lt;br&gt;alcohol dehydrogenase&lt;br&gt;Location: 2516401 - 2517391" locus_tag="LLPMBPKK_02183" class="clusterblast-orf" id="dummy-12_q6_0_all"  />
<polygon points="59,40 64,40 69,35 64,30 59,30 59,40 " style="fill:white; stroke-width:1; stroke:black; " description="&lt;b&gt;LLPMBPKK_02184&lt;/b&gt;&lt;br&gt;transport-associated protein&lt;br&gt;Location: 2517461 - 2518685" locus_tag="LLPMBPKK_02184" class="clusterblast-orf" id="dummy-12_q7_0_all"  />
<polygon points="70,35 74,30 74,40 70,35 " style="fill:white; stroke-width:1; stroke:black; " description="&lt;b&gt;LLPMBPKK_02185&lt;/b&gt;&lt;br&gt;TetR/AcrR family transcriptional regulator&lt;br&gt;Location: 2518732 - 2519305" locus_tag="LLPMBPKK_02185" class="clusterblast-orf" id="dummy-12_q8_0_all"  />
<polygon points="75,35 80,30 87,30 87,40 80,40 75,35 " style="fill:white; stroke-width:1; stroke:black; " description="&lt;b&gt;LLPMBPKK_02186&lt;/b&gt;&lt;br&gt;hypothetical protein&lt;br&gt;Location: 2519411 - 2520863" locus_tag="LLPMBPKK_02186" class="clusterblast-orf" id="dummy-12_q9_0_all"  />
<polygon points="89,35 94,30 101,30 101,40 94,40 89,35 " style="fill:white; stroke-width:1; stroke:black; " description="&lt;b&gt;LLPMBPKK_02187&lt;/b&gt;&lt;br&gt;plasmid pRiA4b ORF-3 family protein&lt;br&gt;Location: 2521087 - 2522512" locus_tag="LLPMBPKK_02187" class="clusterblast-orf" id="dummy-12_q10_0_all"  />
<polygon points="103,40 113,40 118,35 113,30 103,30 103,40 " style="fill:white; stroke-width:1; stroke:black; " description="&lt;b&gt;LLPMBPKK_02188&lt;/b&gt;&lt;br&gt;large secreted protein&lt;br&gt;Location: 2522777 - 2524604" locus_tag="LLPMBPKK_02188" class="clusterblast-orf" id="dummy-12_q11_0_all"  />
<polygon points="118,35 123,30 123,30 123,40 123,40 118,35 " style="fill:white; stroke-width:1; stroke:black; " description="&lt;b&gt;LLPMBPKK_02189&lt;/b&gt;&lt;br&gt;hypothetical protein&lt;br&gt;Location: 2524691 - 2525225" locus_tag="LLPMBPKK_02189" class="clusterblast-orf" id="dummy-12_q12_0_all"  />
<polygon points="124,40 126,40 131,35 126,30 124,30 124,40 " style="fill:white; stroke-width:1; stroke:black; " description="&lt;b&gt;LLPMBPKK_02190&lt;/b&gt;&lt;br&gt;4-hydroxy-tetrahydrodipicolinate synthase&lt;br&gt;Location: 2525357 - 2526257" locus_tag="LLPMBPKK_02190" class="clusterblast-orf" id="dummy-12_q13_0_all"  />
<polygon points="131,35 136,30 143,30 143,40 136,40 131,35 " style="fill:#15d897; stroke-width:1; stroke:black; " description="&lt;b&gt;LLPMBPKK_02191&lt;/b&gt;&lt;br&gt;FAD-dependent oxidoreductase&lt;br&gt;Location: 2526267 - 2527743" locus_tag="LLPMBPKK_02191" class="clusterblast-orf" id="dummy-12_q14_0_all"  />
<polygon points="143,35 148,30 152,30 152,40 148,40 143,35 " style="fill:white; stroke-width:1; stroke:black; " description="&lt;b&gt;LLPMBPKK_02192&lt;/b&gt;&lt;br&gt;O-methyltransferase&lt;br&gt;Location: 2527739 - 2528768" locus_tag="LLPMBPKK_02192" class="clusterblast-orf" id="dummy-12_q15_0_all"  />
<polygon points="152,35 157,30 159,30 159,40 157,40 152,35 " style="fill:white; stroke-width:1; stroke:black; " description="&lt;b&gt;LLPMBPKK_02193&lt;/b&gt;&lt;br&gt;NAD(P)-dependent oxidoreductase&lt;br&gt;Location: 2528764 - 2529733" locus_tag="LLPMBPKK_02193" class="clusterblast-orf" id="dummy-12_q16_0_all"  />
<polygon points="159,35 164,30 183,30 183,40 164,40 159,35 " style="fill:white; stroke-width:1; stroke:black; " description="&lt;b&gt;LLPMBPKK_02194&lt;/b&gt;&lt;br&gt;alpha/beta fold hydrolase&lt;br&gt;Location: 2529725 - 2532581" locus_tag="LLPMBPKK_02194" class="clusterblast-orf" id="dummy-12_q17_0_all"  />
<polygon points="183,35 188,30 193,30 193,40 188,40 183,35 " style="fill:white; stroke-width:1; stroke:black; " description="&lt;b&gt;LLPMBPKK_02195&lt;/b&gt;&lt;br&gt;FAD-dependent oxidoreductase&lt;br&gt;Location: 2532577 - 2533861" locus_tag="LLPMBPKK_02195" class="clusterblast-orf" id="dummy-12_q18_0_all"  />
<polygon points="193,35 195,30 195,40 193,35 " style="fill:#1515d8; stroke-width:1; stroke:black; " description="&lt;b&gt;LLPMBPKK_02196&lt;/b&gt;&lt;br&gt;ferredoxin&lt;br&gt;Location: 2533875 - 2534070" locus_tag="LLPMBPKK_02196" class="clusterblast-orf" id="dummy-12_q19_0_all"  />
<polygon points="195,35 200,30 202,30 202,40 200,40 195,35 " style="fill:white; stroke-width:1; stroke:black; " description="&lt;b&gt;LLPMBPKK_02197&lt;/b&gt;&lt;br&gt;regulatory protein&lt;br&gt;Location: 2534081 - 2534903" locus_tag="LLPMBPKK_02197" class="clusterblast-orf" id="dummy-12_q20_0_all"  />
<polygon points="202,35 207,30 215,30 215,40 207,40 202,35 " style="fill:white; stroke-width:1; stroke:black; " description="&lt;b&gt;LLPMBPKK_02198&lt;/b&gt;&lt;br&gt;3-(3-hydroxy-phenyl)propionate/3-hydroxycinnamica cid hydroxylase&lt;br&gt;Location: 2534968 - 2536612" locus_tag="LLPMBPKK_02198" class="clusterblast-orf" id="dummy-12_q21_0_all"  />
<polygon points="216,35 221,30 224,30 224,40 221,40 216,35 " style="fill:white; stroke-width:1; stroke:black; " description="&lt;b&gt;LLPMBPKK_02199&lt;/b&gt;&lt;br&gt;oxidoreductase&lt;br&gt;Location: 2536626 - 2537607" locus_tag="LLPMBPKK_02199" class="clusterblast-orf" id="dummy-12_q22_0_all"  />
<polygon points="226,40 226,40 231,35 226,30 226,30 226,40 " style="fill:white; stroke-width:1; stroke:black; " description="&lt;b&gt;LLPMBPKK_02200&lt;/b&gt;&lt;br&gt;hypothetical protein&lt;br&gt;Location: 2537952 - 2538570" locus_tag="LLPMBPKK_02200" class="clusterblast-orf" id="dummy-12_q23_0_all"  />
<polygon points="233,40 295,40 300,35 295,30 233,30 233,40 " style="fill:#d81597; stroke-width:1; stroke:black; " description="&lt;b&gt;LLPMBPKK_02201&lt;/b&gt;&lt;br&gt;hypothetical protein&lt;br&gt;Location: 2538786 - 2547030" locus_tag="LLPMBPKK_02201" class="clusterblast-orf" id="dummy-12_q24_0_all"  />
<polygon points="301,40 396,40 401,35 396,30 301,30 301,40 " style="fill:#d81597; stroke-width:1; stroke:black; " description="&lt;b&gt;LLPMBPKK_02202&lt;/b&gt;&lt;br&gt;type I polyketide synthase&lt;br&gt;Location: 2547086 - 2559347" locus_tag="LLPMBPKK_02202" class="clusterblast-orf" id="dummy-12_q25_0_all"  />
<polygon points="401,40 436,40 441,35 436,30 401,30 401,40 " style="fill:#d81597; stroke-width:1; stroke:black; " description="&lt;b&gt;LLPMBPKK_02203&lt;/b&gt;&lt;br&gt;type I polyketide synthase&lt;br&gt;Location: 2559378 - 2564334" locus_tag="LLPMBPKK_02203" class="clusterblast-orf" id="dummy-12_q26_0_all"  />
<polygon points="441,40 484,40 489,35 484,30 441,30 441,40 " style="fill:#d81597; stroke-width:1; stroke:black; " description="&lt;b&gt;LLPMBPKK_02204&lt;/b&gt;&lt;br&gt;type I polyketide synthase&lt;br&gt;Location: 2564330 - 2570150" locus_tag="LLPMBPKK_02204" class="clusterblast-orf" id="dummy-12_q27_0_all"  />
<polygon points="489,40 535,40 540,35 535,30 489,30 489,40 " style="fill:#d81597; stroke-width:1; stroke:black; " description="&lt;b&gt;LLPMBPKK_02205&lt;/b&gt;&lt;br&gt;type I polyketide synthase&lt;br&gt;Location: 2570188 - 2576428" locus_tag="LLPMBPKK_02205" class="clusterblast-orf" id="dummy-12_q28_0_all"  />
<polygon points="540,40 545,40 550,35 545,30 540,30 540,40 " style="fill:white; stroke-width:1; stroke:black; " description="&lt;b&gt;LLPMBPKK_02206&lt;/b&gt;&lt;br&gt;cytochrome P450&lt;br&gt;Location: 2576482 - 2577718" locus_tag="LLPMBPKK_02206" class="clusterblast-orf" id="dummy-12_q29_0_all"  />
<polygon points="551,40 554,35 551,30 551,40 " style="fill:white; stroke-width:1; stroke:black; " description="&lt;b&gt;LLPMBPKK_02207&lt;/b&gt;&lt;br&gt;SnoaL-like domain protein&lt;br&gt;Location: 2577757 - 2578228" locus_tag="LLPMBPKK_02207" class="clusterblast-orf" id="dummy-12_q30_0_all"  />
<polygon points="555,40 557,40 562,35 557,30 555,30 555,40 " style="fill:white; stroke-width:1; stroke:black; " description="&lt;b&gt;LLPMBPKK_02208&lt;/b&gt;&lt;br&gt;SDR family oxidoreductase&lt;br&gt;Location: 2578309 - 2579110" locus_tag="LLPMBPKK_02208" class="clusterblast-orf" id="dummy-12_q31_0_all"  />
<polygon points="562,35 567,30 573,30 573,40 567,40 562,35 " style="fill:white; stroke-width:1; stroke:black; " description="&lt;b&gt;LLPMBPKK_02209&lt;/b&gt;&lt;br&gt;Bacterial regulatory proteins, luxR family&lt;br&gt;Location: 2579160 - 2580513" locus_tag="LLPMBPKK_02209" class="clusterblast-orf" id="dummy-12_q32_0_all"  />
<polygon points="577,40 582,40 587,35 582,30 577,30 577,40 " style="fill:white; stroke-width:1; stroke:black; " description="&lt;b&gt;LLPMBPKK_02210&lt;/b&gt;&lt;br&gt;transcriptional regulator&lt;br&gt;Location: 2581050 - 2582205" locus_tag="LLPMBPKK_02210" class="clusterblast-orf" id="dummy-12_q33_0_all"  />
<polygon points="587,40 589,40 594,35 589,30 587,30 587,40 " style="fill:white; stroke-width:1; stroke:black; " description="&lt;b&gt;LLPMBPKK_02211&lt;/b&gt;&lt;br&gt;3-oxoacyl-ACP reductase&lt;br&gt;Location: 2582238 - 2583024" locus_tag="LLPMBPKK_02211" class="clusterblast-orf" id="dummy-12_q34_0_all"  />
<polygon points="594,35 599,30 608,30 608,40 599,40 594,35 " style="fill:white; stroke-width:1; stroke:black; " description="&lt;b&gt;LLPMBPKK_02212&lt;/b&gt;&lt;br&gt;biotin/lipoyl-binding protein&lt;br&gt;Location: 2583043 - 2584816" locus_tag="LLPMBPKK_02212" class="clusterblast-orf" id="dummy-12_q35_0_all"  />
<polygon points="608,35 613,30 614,30 614,40 613,40 608,35 " style="fill:#97d815; stroke-width:1; stroke:black; " description="&lt;b&gt;LLPMBPKK_02213&lt;/b&gt;&lt;br&gt;4'-phosphopantetheinyl transferase superfamilyprotein&lt;br&gt;Location: 2584821 - 2585505" locus_tag="LLPMBPKK_02213" class="clusterblast-orf" id="dummy-12_q36_0_all"  />
<polygon points="614,35 619,30 622,30 622,40 619,40 614,35 " style="fill:white; stroke-width:1; stroke:black; " description="&lt;b&gt;LLPMBPKK_02214&lt;/b&gt;&lt;br&gt;3-oxoacyl-ACP synthase&lt;br&gt;Location: 2585497 - 2586580" locus_tag="LLPMBPKK_02214" class="clusterblast-orf" id="dummy-12_q37_0_all"  />
<polygon points="624,40 627,35 624,30 624,40 " style="fill:white; stroke-width:1; stroke:black; " description="&lt;b&gt;LLPMBPKK_02215&lt;/b&gt;&lt;br&gt;acyl carrier protein&lt;br&gt;Location: 2586825 - 2587098" locus_tag="LLPMBPKK_02215" class="clusterblast-orf" id="dummy-12_q38_0_all"  />
<polygon points="627,40 632,40 637,35 632,30 627,30 627,40 " style="fill:white; stroke-width:1; stroke:black; " description="&lt;b&gt;LLPMBPKK_02216&lt;/b&gt;&lt;br&gt;beta-ketoacyl-[acyl-carrier-protein] synthasefamily protein&lt;br&gt;Location: 2587090 - 2588317" locus_tag="LLPMBPKK_02216" class="clusterblast-orf" id="dummy-12_q39_0_all"  />
<polygon points="637,40 642,40 647,35 642,30 637,30 637,40 " style="fill:white; stroke-width:1; stroke:black; " description="&lt;b&gt;LLPMBPKK_02217&lt;/b&gt;&lt;br&gt;hypothetical protein&lt;br&gt;Location: 2588313 - 2589528" locus_tag="LLPMBPKK_02217" class="clusterblast-orf" id="dummy-12_q40_0_all"  />
<polygon points="648,40 649,40 654,35 649,30 648,30 648,40 " style="fill:white; stroke-width:1; stroke:black; " description="&lt;b&gt;LLPMBPKK_02218&lt;/b&gt;&lt;br&gt;transcriptional regulator&lt;br&gt;Location: 2589718 - 2590441" locus_tag="LLPMBPKK_02218" class="clusterblast-orf" id="dummy-12_q41_0_all"  />
<polygon points="653,35 658,30 660,30 660,40 658,40 653,35 " style="fill:white; stroke-width:1; stroke:black; " description="&lt;b&gt;LLPMBPKK_02219&lt;/b&gt;&lt;br&gt;short-chain dehydrogenase/reductase SDR&lt;br&gt;Location: 2590380 - 2591151" locus_tag="LLPMBPKK_02219" class="clusterblast-orf" id="dummy-12_q42_0_all"  />
<polygon points="660,35 665,30 667,30 667,40 665,40 660,35 " style="fill:white; stroke-width:1; stroke:black; " description="&lt;b&gt;LLPMBPKK_02220&lt;/b&gt;&lt;br&gt;butenolide phosphate reductase BprA&lt;br&gt;Location: 2591216 - 2592101" locus_tag="LLPMBPKK_02220" class="clusterblast-orf" id="dummy-12_q43_0_all"  />
<polygon points="667,35 672,30 673,30 673,40 672,40 667,35 " style="fill:white; stroke-width:1; stroke:black; " description="&lt;b&gt;LLPMBPKK_02221&lt;/b&gt;&lt;br&gt;TetR/AcrR family transcriptional regulator&lt;br&gt;Location: 2592097 - 2592727" locus_tag="LLPMBPKK_02221" class="clusterblast-orf" id="dummy-12_q44_0_all"  />
<polygon points="674,40 676,40 681,35 676,30 674,30 674,40 " style="fill:white; stroke-width:1; stroke:black; " description="&lt;b&gt;LLPMBPKK_02222&lt;/b&gt;&lt;br&gt;ScbA protein&lt;br&gt;Location: 2592851 - 2593775" locus_tag="LLPMBPKK_02222" class="clusterblast-orf" id="dummy-12_q45_0_all"  />
<polygon points="682,35 687,30 689,30 689,40 687,40 682,35 " style="fill:white; stroke-width:1; stroke:black; " description="&lt;b&gt;LLPMBPKK_02223&lt;/b&gt;&lt;br&gt;type 11 methyltransferase&lt;br&gt;Location: 2593908 - 2594754" locus_tag="LLPMBPKK_02223" class="clusterblast-orf" id="dummy-12_q46_0_all"  />
<polygon points="690,35 695,30 703,30 703,40 695,40 690,35 " style="fill:white; stroke-width:1; stroke:black; " description="&lt;b&gt;LLPMBPKK_02224&lt;/b&gt;&lt;br&gt;DHA2 family efflux MFS transporter permeasesubunit&lt;br&gt;Location: 2594904 - 2596410" locus_tag="LLPMBPKK_02224" class="clusterblast-orf" id="dummy-12_q47_0_all"  />
<polygon points="704,40 704,40 709,35 704,30 704,30 704,40 " style="fill:white; stroke-width:1; stroke:black; " description="&lt;b&gt;LLPMBPKK_02225&lt;/b&gt;&lt;br&gt;TetR family transcriptional regulator&lt;br&gt;Location: 2596528 - 2597149" locus_tag="LLPMBPKK_02225" class="clusterblast-orf" id="dummy-12_q48_0_all"  />
<polygon points="710,40 713,40 718,35 713,30 710,30 710,40 " style="fill:white; stroke-width:1; stroke:black; " description="&lt;b&gt;LLPMBPKK_02226&lt;/b&gt;&lt;br&gt;gamma-butyrolactone biosynthesis protein&lt;br&gt;Location: 2597336 - 2598362" locus_tag="LLPMBPKK_02226" class="clusterblast-orf" id="dummy-12_q49_0_all"  />
<polygon points="719,40 720,40 725,35 720,30 719,30 719,40 " style="fill:white; stroke-width:1; stroke:black; " description="&lt;b&gt;LLPMBPKK_02227&lt;/b&gt;&lt;br&gt;3-oxoacyl-[acyl-carrier-protein] reductase&lt;br&gt;Location: 2598410 - 2599115" locus_tag="LLPMBPKK_02227" class="clusterblast-orf" id="dummy-12_q50_0_all"  />
<polygon points="725,40 725,40 730,35 725,30 725,30 725,40 " style="fill:white; stroke-width:1; stroke:black; " description="&lt;b&gt;LLPMBPKK_02228&lt;/b&gt;&lt;br&gt;HAD family phosphatase&lt;br&gt;Location: 2599150 - 2599816" locus_tag="LLPMBPKK_02228" class="clusterblast-orf" id="dummy-12_q51_0_all"  />
<polygon points="731,40 734,40 739,35 734,30 731,30 731,40 " style="fill:white; stroke-width:1; stroke:black; " description="&lt;b&gt;LLPMBPKK_02229&lt;/b&gt;&lt;br&gt;hypothetical protein&lt;br&gt;Location: 2599848 - 2600850" locus_tag="LLPMBPKK_02229" class="clusterblast-orf" id="dummy-12_q52_0_all"  />
<polygon points="740,35 745,30 748,30 748,40 745,40 740,35 " style="fill:white; stroke-width:1; stroke:black; " description="&lt;b&gt;LLPMBPKK_02230&lt;/b&gt;&lt;br&gt;2,3,4,5-tetrahydropyridine-2,6-dicarboxylate N-succinyltransferase&lt;br&gt;Location: 2600980 - 2601967" locus_tag="LLPMBPKK_02230" class="clusterblast-orf" id="dummy-12_q53_0_all"  />
<polygon points="748,35 753,30 753,30 753,40 753,40 748,35 " style="fill:white; stroke-width:1; stroke:black; " description="&lt;b&gt;LLPMBPKK_02231&lt;/b&gt;&lt;br&gt;TetR family transcriptional regulator&lt;br&gt;Location: 2602031 - 2602568" locus_tag="LLPMBPKK_02231" class="clusterblast-orf" id="dummy-12_q54_0_all"  />
<polygon points="753,35 755,30 755,40 753,35 " style="fill:white; stroke-width:1; stroke:black; " description="&lt;b&gt;LLPMBPKK_02232&lt;/b&gt;&lt;br&gt;multidrug efflux SMR transporter&lt;br&gt;Location: 2602567 - 2602891" locus_tag="LLPMBPKK_02232" class="clusterblast-orf" id="dummy-12_q55_0_all"  />
<polygon points="756,40 757,40 762,35 757,30 756,30 756,40 " style="fill:white; stroke-width:1; stroke:black; " description="&lt;b&gt;LLPMBPKK_02233&lt;/b&gt;&lt;br&gt;alpha-L-arabinofuranosidase&lt;br&gt;Location: 2602997 - 2603738" locus_tag="LLPMBPKK_02233" class="clusterblast-orf" id="dummy-12_q56_0_all"  />
<polygon points="763,35 765,30 765,40 763,35 " style="fill:white; stroke-width:1; stroke:black; " description="&lt;b&gt;LLPMBPKK_02234&lt;/b&gt;&lt;br&gt;metal-sulfur cluster assembly factor&lt;br&gt;Location: 2603794 - 2604127" locus_tag="LLPMBPKK_02234" class="clusterblast-orf" id="dummy-12_q57_0_all"  />
<polygon points="765,35 769,30 769,40 765,35 " style="fill:white; stroke-width:1; stroke:black; " description="&lt;b&gt;LLPMBPKK_02235&lt;/b&gt;&lt;br&gt;SUF system NifU family Fe-S cluster assemblyprotein&lt;br&gt;Location: 2604123 - 2604576" locus_tag="LLPMBPKK_02235" class="clusterblast-orf" id="dummy-12_q58_0_all"  />
<polygon points="769,35 774,30 780,30 780,40 774,40 769,35 " style="fill:white; stroke-width:1; stroke:black; " description="&lt;b&gt;LLPMBPKK_02236&lt;/b&gt;&lt;br&gt;cysteine desulfurase&lt;br&gt;Location: 2604607 - 2605864" locus_tag="LLPMBPKK_02236" class="clusterblast-orf" id="dummy-12_q59_0_all"  />
</g>
<g label="BGC0001215" description="BGC0001215_c1: conglobatin (10% of genes show similarity), NRP" class="clusterblast-cluster"  >
<text x="5" y="70" class="clusterblast-acc"  >
<a xlink:href="https://mibig.secondarymetabolites.org/go/BGC0001215/1" target="_blank">BGC0001215</a>:                                                                      conglobatin (10% of genes show similarity), NRP</text>
<line x1="10" y1="85" x2="778.0" y2="85" style="stroke-width:1; stroke:grey; "  />
</g>
<g id="a12_000"  >
<polygon points="223,85 226,80 226,90 223,85 " style="fill:white; stroke-width:1; stroke:black; " description="&lt;b&gt;CRI73806.1&lt;/b&gt;&lt;br&gt;hypothetical protein&lt;br&gt;Location: 41097 - 40633" locus_tag="CRI73806.1" class="clusterblast-orf" id="dummy-12_h12_6_0"  />
</g>
<g id="a12_001"  >
<polygon points="228,85 232,80 232,90 228,85 " style="fill:white; stroke-width:1; stroke:black; " description="&lt;b&gt;CRI73805.1&lt;/b&gt;&lt;br&gt;hypothetical protein&lt;br&gt;Location: 40402 - 40007" locus_tag="CRI73805.1" class="clusterblast-orf" id="dummy-12_h12_6_1"  />
</g>
<g id="a12_002"  >
<polygon points="232,85 234,80 234,90 232,85 " style="fill:white; stroke-width:1; stroke:black; " description="&lt;b&gt;CRI73804.1&lt;/b&gt;&lt;br&gt;hypothetical protein&lt;br&gt;Location: 39981 - 39745" locus_tag="CRI73804.1" class="clusterblast-orf" id="dummy-12_h12_6_2"  />
</g>
<g id="a12_003"  >
<polygon points="237,85 241,80 241,90 237,85 " style="fill:white; stroke-width:1; stroke:black; " description="&lt;b&gt;CRI73803.1&lt;/b&gt;&lt;br&gt;LuxR family transcriptional regulator&lt;br&gt;Location: 39382 - 38795" locus_tag="CRI73803.1" class="clusterblast-orf" id="dummy-12_h12_6_3"  />
</g>
<g id="a12_004"  >
<polygon points="242,85 247,80 263,80 263,90 247,90 242,85 " style="fill:white; stroke-width:1; stroke:black; " description="&lt;b&gt;CRI73802.1&lt;/b&gt;&lt;br&gt;CongB protein&lt;br&gt;Location: 38681 - 36114" locus_tag="CRI73802.1" class="clusterblast-orf" id="dummy-12_h12_6_4"  />
</g>
<g id="a12_005"  >
<polygon points="263,85 268,80 273,80 273,90 268,90 263,85 " style="fill:white; stroke-width:1; stroke:black; " description="&lt;b&gt;CRI73801.1&lt;/b&gt;&lt;br&gt;hypothetical protein&lt;br&gt;Location: 36093 - 34963" locus_tag="CRI73801.1" class="clusterblast-orf" id="dummy-12_h12_6_5"  />
</g>
<g id="a12_006"  >
<polygon points="273,85 278,80 302,80 302,90 278,90 273,85 " style="fill:white; stroke-width:1; stroke:black; " description="&lt;b&gt;CRI73800.1&lt;/b&gt;&lt;br&gt;loading module of NRPS-PKS&lt;br&gt;Location: 34947 - 31318" locus_tag="CRI73800.1" class="clusterblast-orf" id="dummy-12_h12_6_6"  />
</g>
<g id="a12_007"  >
<polygon points="305,90 409,90 414,85 409,80 305,80 305,90 " style="fill:#d81597; stroke-width:1; stroke:black; " description="&lt;b&gt;CRI73799.1&lt;/b&gt;&lt;br&gt;CongC protein&lt;br&gt;Location: 30943 - 17597&lt;br&gt;&lt;br&gt;&lt;b&gt;BlastP hit with LLPMBPKK_02201&lt;/b&gt;&lt;br&gt;Percentage identity: 54&lt;br&gt;Percentage coverage: 60&lt;br&gt;BLAST bit score: 1484&lt;br&gt;E-value: 0.0&lt;br&gt;&lt;br&gt;&lt;b&gt;BlastP hit with LLPMBPKK_02203&lt;/b&gt;&lt;br&gt;Percentage identity: 49&lt;br&gt;Percentage coverage: 96&lt;br&gt;BLAST bit score: 1252&lt;br&gt;E-value: 0.0" locus_tag="CRI73799.1" class="clusterblast-orf" id="dummy-12_h12_6_7"  />
</g>
<g id="a12_008"  >
<polygon points="414,90 461,90 466,85 461,80 414,80 414,90 " style="fill:#d81597; stroke-width:1; stroke:black; " description="&lt;b&gt;CRI73798.1&lt;/b&gt;&lt;br&gt;CongD protein&lt;br&gt;Location: 17564 - 11190&lt;br&gt;&lt;br&gt;&lt;b&gt;BlastP hit with LLPMBPKK_02202&lt;/b&gt;&lt;br&gt;Percentage identity: 51&lt;br&gt;Percentage coverage: 47&lt;br&gt;BLAST bit score: 1600&lt;br&gt;E-value: 0.0&lt;br&gt;&lt;br&gt;&lt;b&gt;BlastP hit with LLPMBPKK_02204&lt;/b&gt;&lt;br&gt;Percentage identity: 51&lt;br&gt;Percentage coverage: 102&lt;br&gt;BLAST bit score: 1603&lt;br&gt;E-value: 0.0&lt;br&gt;&lt;br&gt;&lt;b&gt;BlastP hit with LLPMBPKK_02205&lt;/b&gt;&lt;br&gt;Percentage identity: 48&lt;br&gt;Percentage coverage: 103&lt;br&gt;BLAST bit score: 1592&lt;br&gt;E-value: 0.0" locus_tag="CRI73798.1" class="clusterblast-orf" id="dummy-12_h12_6_8"  />
</g>
<g id="a12_009"  >
<polygon points="469,90 474,90 479,85 474,80 469,80 469,90 " style="fill:white; stroke-width:1; stroke:black; " description="&lt;b&gt;CRI73797.1&lt;/b&gt;&lt;br&gt;glutamate dehydrogenase&lt;br&gt;Location: 10908 - 9577" locus_tag="CRI73797.1" class="clusterblast-orf" id="dummy-12_h12_6_9"  />
</g>
<g id="a12_0010"  >
<polygon points="481,85 486,80 489,80 489,90 486,90 481,85 " style="fill:white; stroke-width:1; stroke:black; " description="&lt;b&gt;CRI73796.1&lt;/b&gt;&lt;br&gt;short-chain dehydrogenase/reductase SDR&lt;br&gt;Location: 9325 - 8375" locus_tag="CRI73796.1" class="clusterblast-orf" id="dummy-12_h12_6_10"  />
</g>
<g id="a12_0011"  >
<polygon points="490,90 494,85 490,80 490,90 " style="fill:white; stroke-width:1; stroke:black; " description="&lt;b&gt;CRI73795.1&lt;/b&gt;&lt;br&gt;putative transcriptional regulator, MerR family&lt;br&gt;Location: 8320 - 7829" locus_tag="CRI73795.1" class="clusterblast-orf" id="dummy-12_h12_6_11"  />
</g>
<g id="a12_0012"  >
<polygon points="495,90 495,90 500,85 495,80 495,80 495,90 " style="fill:white; stroke-width:1; stroke:black; " description="&lt;b&gt;CRI73794.1&lt;/b&gt;&lt;br&gt;putative methyltransferase&lt;br&gt;Location: 7653 - 7003" locus_tag="CRI73794.1" class="clusterblast-orf" id="dummy-12_h12_6_12"  />
</g>
<g id="a12_0013"  >
<polygon points="503,85 508,80 512,80 512,90 508,90 503,85 " style="fill:white; stroke-width:1; stroke:black; " description="&lt;b&gt;CRI73793.1&lt;/b&gt;&lt;br&gt;hypothetical protein&lt;br&gt;Location: 6728 - 5628" locus_tag="CRI73793.1" class="clusterblast-orf" id="dummy-12_h12_6_13"  />
</g>
<g id="a12_0014"  >
<polygon points="512,85 517,80 520,80 520,90 517,90 512,85 " style="fill:white; stroke-width:1; stroke:black; " description="&lt;b&gt;CRI73792.1&lt;/b&gt;&lt;br&gt;hypothetical protein&lt;br&gt;Location: 5625 - 4576" locus_tag="CRI73792.1" class="clusterblast-orf" id="dummy-12_h12_6_14"  />
</g>
<g id="a12_0015"  >
<polygon points="521,85 526,80 526,80 526,90 526,90 521,85 " style="fill:white; stroke-width:1; stroke:black; " description="&lt;b&gt;CRI73791.1&lt;/b&gt;&lt;br&gt;transcriptional regulator, TetR family&lt;br&gt;Location: 4430 - 3807" locus_tag="CRI73791.1" class="clusterblast-orf" id="dummy-12_h12_6_15"  />
</g>
<g id="a12_0016"  >
<polygon points="529,90 533,90 538,85 533,80 529,80 529,90 " style="fill:white; stroke-width:1; stroke:black; " description="&lt;b&gt;CRI73790.1&lt;/b&gt;&lt;br&gt;L-threonine 3-dehydrogenase&lt;br&gt;Location: 3447 - 2419" locus_tag="CRI73790.1" class="clusterblast-orf" id="dummy-12_h12_6_16"  />
</g>
<g id="a12_0017"  >
<polygon points="538,90 543,90 548,85 543,80 538,80 538,90 " style="fill:white; stroke-width:1; stroke:black; " description="&lt;b&gt;CRI73789.1&lt;/b&gt;&lt;br&gt;glycine acetyltransferase&lt;br&gt;Location: 2390 - 1191" locus_tag="CRI73789.1" class="clusterblast-orf" id="dummy-12_h12_6_17"  />
</g>
<g id="a12_0018"  >
<polygon points="548,90 551,90 556,85 551,80 548,80 548,90 " style="fill:white; stroke-width:1; stroke:black; " description="&lt;b&gt;CRI73788.1&lt;/b&gt;&lt;br&gt;LysR family transcriptional regulator&lt;br&gt;Location: 1134 - 136" locus_tag="CRI73788.1" class="clusterblast-orf" id="dummy-12_h12_6_18"  />
</g>
</svg>
