<svg xmlns="http://www.w3.org/2000/svg" xmlns:xlink="http://www.w3.org/1999/xlink" version="1.1" x="0" y="0" height="230" width="800" viewBox="0 0 800 230" preserveAspectRatio="none"  >
<g label="Query sequence" class="clusterblast-cluster"  >
<text x="5" y="20" class="clusterblast-acc"  >
Query sequence</text>
<line x1="10" y1="35" x2="778.0" y2="35" style="stroke-width:1; stroke:grey; "  />
<polygon points="0,35 4,30 4,40 0,35 " style="fill:white; stroke-width:1; stroke:black; " description="&lt;b&gt;LLPMBPKK_00521&lt;/b&gt;&lt;br&gt;FMN reductase&lt;br&gt;Location: 626718 - 627333" locus_tag="LLPMBPKK_00521" class="clusterblast-orf" id="dummy-3_q0_0_all"  />
<polygon points="4,35 9,30 13,30 13,40 9,40 4,35 " style="fill:white; stroke-width:1; stroke:black; " description="&lt;b&gt;LLPMBPKK_00522&lt;/b&gt;&lt;br&gt;LLM class flavin-dependent oxidoreductase&lt;br&gt;Location: 627329 - 628415" locus_tag="LLPMBPKK_00522" class="clusterblast-orf" id="dummy-3_q1_0_all"  />
<polygon points="14,35 19,30 21,30 21,40 19,40 14,35 " style="fill:white; stroke-width:1; stroke:black; " description="&lt;b&gt;LLPMBPKK_00523&lt;/b&gt;&lt;br&gt;non-heme bromoperoxidase BPO-A2&lt;br&gt;Location: 628614 - 629451" locus_tag="LLPMBPKK_00523" class="clusterblast-orf" id="dummy-3_q2_0_all"  />
<polygon points="25,40 27,40 32,35 27,30 25,30 25,40 " style="fill:white; stroke-width:1; stroke:black; " description="&lt;b&gt;LLPMBPKK_00524&lt;/b&gt;&lt;br&gt;MerR family DNA-binding transcriptionalregulator&lt;br&gt;Location: 629924 - 630884" locus_tag="LLPMBPKK_00524" class="clusterblast-orf" id="dummy-3_q3_0_all"  />
<polygon points="33,40 33,40 38,35 33,30 33,30 33,40 " style="fill:white; stroke-width:1; stroke:black; " description="&lt;b&gt;LLPMBPKK_00525&lt;/b&gt;&lt;br&gt;transcriptional regulator&lt;br&gt;Location: 630968 - 631613" locus_tag="LLPMBPKK_00525" class="clusterblast-orf" id="dummy-3_q4_0_all"  />
<polygon points="40,40 44,35 40,30 40,40 " style="fill:white; stroke-width:1; stroke:black; " description="&lt;b&gt;LLPMBPKK_00526&lt;/b&gt;&lt;br&gt;hypothetical protein&lt;br&gt;Location: 631916 - 632405" locus_tag="LLPMBPKK_00526" class="clusterblast-orf" id="dummy-3_q5_0_all"  />
<polygon points="45,40 45,40 50,35 45,30 45,30 45,40 " style="fill:white; stroke-width:1; stroke:black; " description="&lt;b&gt;LLPMBPKK_00527&lt;/b&gt;&lt;br&gt;class F sortase&lt;br&gt;Location: 632574 - 633225" locus_tag="LLPMBPKK_00527" class="clusterblast-orf" id="dummy-3_q6_0_all"  />
<polygon points="52,40 79,40 84,35 79,30 52,30 52,40 " style="fill:white; stroke-width:1; stroke:black; " description="&lt;b&gt;LLPMBPKK_00528&lt;/b&gt;&lt;br&gt;hypothetical protein&lt;br&gt;Location: 633383 - 637448" locus_tag="LLPMBPKK_00528" class="clusterblast-orf" id="dummy-3_q7_0_all"  />
<polygon points="85,40 87,35 85,30 85,40 " style="fill:white; stroke-width:1; stroke:black; " description="&lt;b&gt;LLPMBPKK_00529&lt;/b&gt;&lt;br&gt;hypothetical protein&lt;br&gt;Location: 637581 - 637950" locus_tag="LLPMBPKK_00529" class="clusterblast-orf" id="dummy-3_q8_0_all"  />
<polygon points="90,40 90,40 95,35 90,30 90,30 90,40 " style="fill:white; stroke-width:1; stroke:black; " description="&lt;b&gt;LLPMBPKK_00530&lt;/b&gt;&lt;br&gt;hypothetical protein&lt;br&gt;Location: 638304 - 638916" locus_tag="LLPMBPKK_00530" class="clusterblast-orf" id="dummy-3_q9_0_all"  />
<polygon points="96,35 101,30 115,30 115,40 101,40 96,35 " style="fill:white; stroke-width:1; stroke:black; " description="&lt;b&gt;LLPMBPKK_00531&lt;/b&gt;&lt;br&gt;glycoside hydrolase family 65 protein&lt;br&gt;Location: 639041 - 641441" locus_tag="LLPMBPKK_00531" class="clusterblast-orf" id="dummy-3_q10_0_all"  />
<polygon points="115,35 120,30 121,30 121,40 120,40 115,35 " style="fill:white; stroke-width:1; stroke:black; " description="&lt;b&gt;LLPMBPKK_00532&lt;/b&gt;&lt;br&gt;hydrolase&lt;br&gt;Location: 641437 - 642181" locus_tag="LLPMBPKK_00532" class="clusterblast-orf" id="dummy-3_q11_0_all"  />
<polygon points="124,35 129,30 131,30 131,40 129,40 124,35 " style="fill:white; stroke-width:1; stroke:black; " description="&lt;b&gt;LLPMBPKK_00533&lt;/b&gt;&lt;br&gt;hypothetical protein&lt;br&gt;Location: 642596 - 643553" locus_tag="LLPMBPKK_00533" class="clusterblast-orf" id="dummy-3_q12_0_all"  />
<polygon points="133,40 134,40 139,35 134,30 133,30 133,40 " style="fill:white; stroke-width:1; stroke:black; " description="&lt;b&gt;LLPMBPKK_00534&lt;/b&gt;&lt;br&gt;lipoprotein&lt;br&gt;Location: 643768 - 644509" locus_tag="LLPMBPKK_00534" class="clusterblast-orf" id="dummy-3_q13_0_all"  />
<polygon points="140,35 145,30 149,30 149,40 145,40 140,35 " style="fill:white; stroke-width:1; stroke:black; " description="&lt;b&gt;LLPMBPKK_00535&lt;/b&gt;&lt;br&gt;oxidoreductase&lt;br&gt;Location: 644721 - 645858" locus_tag="LLPMBPKK_00535" class="clusterblast-orf" id="dummy-3_q14_0_all"  />
<polygon points="151,40 154,35 151,30 151,40 " style="fill:white; stroke-width:1; stroke:black; " description="&lt;b&gt;LLPMBPKK_00536&lt;/b&gt;&lt;br&gt;hypothetical protein&lt;br&gt;Location: 646074 - 646482" locus_tag="LLPMBPKK_00536" class="clusterblast-orf" id="dummy-3_q15_0_all"  />
<polygon points="155,35 160,30 170,30 170,40 160,40 155,35 " style="fill:#d81515; stroke-width:1; stroke:black; " description="&lt;b&gt;LLPMBPKK_00537&lt;/b&gt;&lt;br&gt;ACP S-malonyltransferase&lt;br&gt;Location: 646632 - 648510" locus_tag="LLPMBPKK_00537" class="clusterblast-orf" id="dummy-3_q16_0_all"  />
<polygon points="170,35 175,30 188,30 188,40 175,40 170,35 " style="fill:#d81515; stroke-width:1; stroke:black; " description="&lt;b&gt;LLPMBPKK_00538&lt;/b&gt;&lt;br&gt;1,4-dihydroxy-2-naphthoyl-CoA synthase&lt;br&gt;Location: 648514 - 650752" locus_tag="LLPMBPKK_00538" class="clusterblast-orf" id="dummy-3_q17_0_all"  />
<polygon points="187,35 192,30 197,30 197,40 192,40 187,35 " style="fill:#15d863; stroke-width:1; stroke:black; " description="&lt;b&gt;LLPMBPKK_00539&lt;/b&gt;&lt;br&gt;Polyketide biosynthesis3-hydroxy-3-methylglutaryl-ACP synthase PksG&lt;br&gt;Location: 650739 - 652002" locus_tag="LLPMBPKK_00539" class="clusterblast-orf" id="dummy-3_q18_0_all"  />
<polygon points="197,35 202,30 207,30 207,40 202,40 197,35 " style="fill:#1563d8; stroke-width:1; stroke:black; " description="&lt;b&gt;LLPMBPKK_00540&lt;/b&gt;&lt;br&gt;3-oxoacyl-ACP synthase&lt;br&gt;Location: 652007 - 653243" locus_tag="LLPMBPKK_00540" class="clusterblast-orf" id="dummy-3_q19_0_all"  />
<polygon points="207,35 209,30 209,40 207,35 " style="fill:#b115d8; stroke-width:1; stroke:black; " description="&lt;b&gt;LLPMBPKK_00541&lt;/b&gt;&lt;br&gt;Polyketide biosynthesis acyl-carrier-proteinAcpK&lt;br&gt;Location: 653244 - 653508" locus_tag="LLPMBPKK_00541" class="clusterblast-orf" id="dummy-3_q20_0_all"  />
<polygon points="209,35 214,30 281,30 281,40 214,40 209,35 " style="fill:white; stroke-width:1; stroke:black; " description="&lt;b&gt;LLPMBPKK_00542&lt;/b&gt;&lt;br&gt;D-alanine--poly(phosphoribitol) ligase subunit 1&lt;br&gt;Location: 653546 - 662720" locus_tag="LLPMBPKK_00542" class="clusterblast-orf" id="dummy-3_q21_0_all"  />
<polygon points="281,35 286,30 341,30 341,40 286,40 281,35 " style="fill:white; stroke-width:1; stroke:black; " description="&lt;b&gt;LLPMBPKK_00543&lt;/b&gt;&lt;br&gt;non-ribosomal peptide synthetase&lt;br&gt;Location: 662716 - 670306" locus_tag="LLPMBPKK_00543" class="clusterblast-orf" id="dummy-3_q22_0_all"  />
<polygon points="340,35 345,30 453,30 453,40 345,40 340,35 " style="fill:white; stroke-width:1; stroke:black; " description="&lt;b&gt;LLPMBPKK_00544&lt;/b&gt;&lt;br&gt;Acyl carrier protein&lt;br&gt;Location: 670302 - 684732" locus_tag="LLPMBPKK_00544" class="clusterblast-orf" id="dummy-3_q23_0_all"  />
<polygon points="453,35 458,30 627,30 627,40 458,40 453,35 " style="fill:white; stroke-width:1; stroke:black; " description="&lt;b&gt;LLPMBPKK_00545&lt;/b&gt;&lt;br&gt;D-alanine--poly(phosphoribitol) ligase subunit 1&lt;br&gt;Location: 684728 - 706898" locus_tag="LLPMBPKK_00545" class="clusterblast-orf" id="dummy-3_q24_0_all"  />
<polygon points="628,35 633,30 672,30 672,40 633,40 628,35 " style="fill:white; stroke-width:1; stroke:black; " description="&lt;b&gt;LLPMBPKK_00546&lt;/b&gt;&lt;br&gt;hypothetical protein&lt;br&gt;Location: 707071 - 712630" locus_tag="LLPMBPKK_00546" class="clusterblast-orf" id="dummy-3_q25_0_all"  />
<polygon points="671,35 676,30 741,30 741,40 676,40 671,35 " style="fill:white; stroke-width:1; stroke:black; " description="&lt;b&gt;LLPMBPKK_00547&lt;/b&gt;&lt;br&gt;hypothetical protein&lt;br&gt;Location: 712613 - 721484" locus_tag="LLPMBPKK_00547" class="clusterblast-orf" id="dummy-3_q26_0_all"  />
<polygon points="743,40 745,40 750,35 745,30 743,30 743,40 " style="fill:white; stroke-width:1; stroke:black; " description="&lt;b&gt;LLPMBPKK_00548&lt;/b&gt;&lt;br&gt;thioesterase&lt;br&gt;Location: 721801 - 722650" locus_tag="LLPMBPKK_00548" class="clusterblast-orf" id="dummy-3_q27_0_all"  />
<polygon points="751,40 757,40 762,35 757,30 751,30 751,40 " style="fill:white; stroke-width:1; stroke:black; " description="&lt;b&gt;LLPMBPKK_00549&lt;/b&gt;&lt;br&gt;amidase&lt;br&gt;Location: 722786 - 724211" locus_tag="LLPMBPKK_00549" class="clusterblast-orf" id="dummy-3_q28_0_all"  />
<polygon points="764,40 769,40 774,35 769,30 764,30 764,40 " style="fill:white; stroke-width:1; stroke:black; " description="&lt;b&gt;LLPMBPKK_00550&lt;/b&gt;&lt;br&gt;Pentapeptide repeats (8 copies)&lt;br&gt;Location: 724442 - 725738" locus_tag="LLPMBPKK_00550" class="clusterblast-orf" id="dummy-3_q29_0_all"  />
<polygon points="774,35 779,30 780,30 780,40 779,40 774,35 " style="fill:#b1d815; stroke-width:1; stroke:black; " description="&lt;b&gt;LLPMBPKK_00551&lt;/b&gt;&lt;br&gt;4'-phosphopantetheinyl transferase superfamilyprotein&lt;br&gt;Location: 725715 - 726438" locus_tag="LLPMBPKK_00551" class="clusterblast-orf" id="dummy-3_q30_0_all"  />
</g>
<g label="BGC0000182" description="BGC0000182_c1: pseudomonic acid A (11% of genes show similarity), Polyketide:Iterative type I polyketide+Polyketide:Trans-AT type I polyketide" class="clusterblast-cluster"  >
<text x="5" y="70" class="clusterblast-acc"  >
<a xlink:href="https://mibig.secondarymetabolites.org/go/BGC0000182/1" target="_blank">BGC0000182</a>:                                                               pseudomonic acid A (11% of genes show similarity), Polyketide:Iterative type I polyketide+Polyketide:Trans-AT type I polyketide</text>
<line x1="10" y1="85" x2="778.0" y2="85" style="stroke-width:1; stroke:grey; "  />
</g>
<g id="a3_000"  >
<polygon points="99,90 103,85 99,80 99,90 " style="fill:white; stroke-width:1; stroke:black; " description="&lt;b&gt;AAK28505.1&lt;/b&gt;&lt;br&gt;MupI&lt;br&gt;Location: 74486 - 73911" locus_tag="AAK28505.1" class="clusterblast-orf" id="dummy-3_h3_5_0"  />
</g>
<g id="a3_001"  >
<polygon points="103,85 108,80 115,80 115,90 108,90 103,85 " style="fill:white; stroke-width:1; stroke:black; " description="&lt;b&gt;AAM12940.1&lt;/b&gt;&lt;br&gt;MupX&lt;br&gt;Location: 73918 - 72380" locus_tag="AAM12940.1" class="clusterblast-orf" id="dummy-3_h3_5_1"  />
</g>
<g id="a3_002"  >
<polygon points="116,85 121,80 121,80 121,90 121,90 116,85 " style="fill:white; stroke-width:1; stroke:black; " description="&lt;b&gt;AAK28504.1&lt;/b&gt;&lt;br&gt;MupR&lt;br&gt;Location: 72342 - 71638" locus_tag="AAK28504.1" class="clusterblast-orf" id="dummy-3_h3_5_2"  />
</g>
<g id="a3_003"  >
<polygon points="123,85 128,80 134,80 134,90 128,90 123,85 " style="fill:white; stroke-width:1; stroke:black; " description="&lt;b&gt;AAM12939.1&lt;/b&gt;&lt;br&gt;MupW&lt;br&gt;Location: 71446 - 70055" locus_tag="AAM12939.1" class="clusterblast-orf" id="dummy-3_h3_5_3"  />
</g>
<g id="a3_004"  >
<polygon points="134,85 139,80 149,80 149,90 139,90 134,85 " style="fill:white; stroke-width:1; stroke:black; " description="&lt;b&gt;AAM12938.1&lt;/b&gt;&lt;br&gt;MupV&lt;br&gt;Location: 70015 - 68027" locus_tag="AAM12938.1" class="clusterblast-orf" id="dummy-3_h3_5_4"  />
</g>
<g id="a3_005"  >
<polygon points="150,85 155,80 162,80 162,90 155,90 150,85 " style="fill:white; stroke-width:1; stroke:black; " description="&lt;b&gt;AAM12937.1&lt;/b&gt;&lt;br&gt;MupU&lt;br&gt;Location: 67992 - 66415" locus_tag="AAM12937.1" class="clusterblast-orf" id="dummy-3_h3_5_5"  />
</g>
<g id="a3_006"  >
<polygon points="163,85 165,80 165,90 163,85 " style="fill:white; stroke-width:1; stroke:black; " description="&lt;b&gt;AAM12936.1&lt;/b&gt;&lt;br&gt;MupT&lt;br&gt;Location: 66345 - 65995" locus_tag="AAM12936.1" class="clusterblast-orf" id="dummy-3_h3_5_6"  />
</g>
<g id="a3_007"  >
<polygon points="166,85 167,80 167,90 166,85 " style="fill:white; stroke-width:1; stroke:black; " description="&lt;b&gt;AAM12935.1&lt;/b&gt;&lt;br&gt;MacpE&lt;br&gt;Location: 65972 - 65730" locus_tag="AAM12935.1" class="clusterblast-orf" id="dummy-3_h3_5_7"  />
</g>
<g id="a3_008"  >
<polygon points="169,85 174,80 186,80 186,90 174,90 169,85 " style="fill:white; stroke-width:1; stroke:black; " description="&lt;b&gt;AAM12934.1&lt;/b&gt;&lt;br&gt;MmpF&lt;br&gt;Location: 65585 - 63348" locus_tag="AAM12934.1" class="clusterblast-orf" id="dummy-3_h3_5_8"  />
</g>
<g id="a3_009"  >
<polygon points="186,85 189,80 189,90 186,85 " style="fill:white; stroke-width:1; stroke:black; " description="&lt;b&gt;AAM12933.1&lt;/b&gt;&lt;br&gt;MacpD&lt;br&gt;Location: 63351 - 63031" locus_tag="AAM12933.1" class="clusterblast-orf" id="dummy-3_h3_5_9"  />
</g>
<g id="a3_0010"  >
<polygon points="189,85 194,80 195,80 195,90 194,90 189,85 " style="fill:white; stroke-width:1; stroke:black; " description="&lt;b&gt;AAM12932.1&lt;/b&gt;&lt;br&gt;MupS&lt;br&gt;Location: 63037 - 62264" locus_tag="AAM12932.1" class="clusterblast-orf" id="dummy-3_h3_5_10"  />
</g>
<g id="a3_0011"  >
<polygon points="195,85 200,80 205,80 205,90 200,90 195,85 " style="fill:white; stroke-width:1; stroke:black; " description="&lt;b&gt;AAM12931.1&lt;/b&gt;&lt;br&gt;MupQ&lt;br&gt;Location: 62267 - 60912" locus_tag="AAM12931.1" class="clusterblast-orf" id="dummy-3_h3_5_11"  />
</g>
<g id="a3_0012"  >
<polygon points="206,85 211,80 213,80 213,90 211,90 206,85 " style="fill:white; stroke-width:1; stroke:black; " description="&lt;b&gt;AAM12930.2&lt;/b&gt;&lt;br&gt;MupP&lt;br&gt;Location: 60864 - 59935" locus_tag="AAM12930.2" class="clusterblast-orf" id="dummy-3_h3_5_12"  />
</g>
<g id="a3_0013"  >
<polygon points="213,85 218,80 223,80 223,90 218,90 213,85 " style="fill:white; stroke-width:1; stroke:black; " description="&lt;b&gt;AAM12929.2&lt;/b&gt;&lt;br&gt;MupO&lt;br&gt;Location: 59938 - 58574" locus_tag="AAM12929.2" class="clusterblast-orf" id="dummy-3_h3_5_13"  />
</g>
<g id="a3_0014"  >
<polygon points="224,85 229,80 231,80 231,90 229,90 224,85 " style="fill:white; stroke-width:1; stroke:black; " description="&lt;b&gt;AAM12928.2&lt;/b&gt;&lt;br&gt;MupN&lt;br&gt;Location: 58448 - 57597" locus_tag="AAM12928.2" class="clusterblast-orf" id="dummy-3_h3_5_14"  />
</g>
<g id="a3_0015"  >
<polygon points="232,85 237,80 256,80 256,90 237,90 232,85 " style="fill:white; stroke-width:1; stroke:black; " description="&lt;b&gt;AAM12927.2&lt;/b&gt;&lt;br&gt;MupM&lt;br&gt;Location: 57536 - 54444" locus_tag="AAM12927.2" class="clusterblast-orf" id="dummy-3_h3_5_15"  />
</g>
<g id="a3_0016"  >
<polygon points="256,85 261,80 264,80 264,90 261,90 256,85 " style="fill:white; stroke-width:1; stroke:black; " description="&lt;b&gt;AAM12926.1&lt;/b&gt;&lt;br&gt;MupL&lt;br&gt;Location: 54361 - 53423" locus_tag="AAM12926.1" class="clusterblast-orf" id="dummy-3_h3_5_16"  />
</g>
<g id="a3_0017"  >
<polygon points="264,85 269,80 292,80 292,90 269,90 264,85 " style="fill:white; stroke-width:1; stroke:black; " description="&lt;b&gt;AAM12925.2&lt;/b&gt;&lt;br&gt;MmpE&lt;br&gt;Location: 53377 - 49802" locus_tag="AAM12925.2" class="clusterblast-orf" id="dummy-3_h3_5_17"  />
</g>
<g id="a3_0018"  >
<polygon points="292,85 297,80 298,80 298,90 297,90 292,85 " style="fill:white; stroke-width:1; stroke:black; " description="&lt;b&gt;AAM12924.1&lt;/b&gt;&lt;br&gt;MupK&lt;br&gt;Location: 49790 - 49047" locus_tag="AAM12924.1" class="clusterblast-orf" id="dummy-3_h3_5_18"  />
</g>
<g id="a3_0019"  >
<polygon points="298,85 303,80 304,80 304,90 303,90 298,85 " style="fill:white; stroke-width:1; stroke:black; " description="&lt;b&gt;AAM12923.1&lt;/b&gt;&lt;br&gt;MupJ&lt;br&gt;Location: 48993 - 48226" locus_tag="AAM12923.1" class="clusterblast-orf" id="dummy-3_h3_5_19"  />
</g>
<g id="a3_0020"  >
<polygon points="304,85 309,80 314,80 314,90 309,90 304,85 " style="fill:#15d863; stroke-width:1; stroke:black; " description="&lt;b&gt;AAM12922.1&lt;/b&gt;&lt;br&gt;MupH&lt;br&gt;Location: 48229 - 46964&lt;br&gt;&lt;br&gt;&lt;b&gt;BlastP hit with LLPMBPKK_00539&lt;/b&gt;&lt;br&gt;Percentage identity: 64&lt;br&gt;Percentage coverage: 99&lt;br&gt;BLAST bit score: 535&lt;br&gt;E-value: 1.77e-190" locus_tag="AAM12922.1" class="clusterblast-orf" id="dummy-3_h3_5_20"  />
</g>
<g id="a3_0021"  >
<polygon points="314,85 319,80 324,80 324,90 319,90 314,85 " style="fill:#1563d8; stroke-width:1; stroke:black; " description="&lt;b&gt;AAM12921.1&lt;/b&gt;&lt;br&gt;MupG&lt;br&gt;Location: 46967 - 45729&lt;br&gt;&lt;br&gt;&lt;b&gt;BlastP hit with LLPMBPKK_00540&lt;/b&gt;&lt;br&gt;Percentage identity: 51&lt;br&gt;Percentage coverage: 98&lt;br&gt;BLAST bit score: 410&lt;br&gt;E-value: 9.5e-142" locus_tag="AAM12921.1" class="clusterblast-orf" id="dummy-3_h3_5_21"  />
</g>
<g id="a3_0022"  >
<polygon points="324,85 326,80 326,90 324,85 " style="fill:#b115d8; stroke-width:1; stroke:black; " description="&lt;b&gt;AAM12920.1&lt;/b&gt;&lt;br&gt;MacpC&lt;br&gt;Location: 45742 - 45506&lt;br&gt;&lt;br&gt;&lt;b&gt;BlastP hit with LLPMBPKK_00541&lt;/b&gt;&lt;br&gt;Percentage identity: 49&lt;br&gt;Percentage coverage: 90&lt;br&gt;BLAST bit score: 68&lt;br&gt;E-value: 1.37e-16" locus_tag="AAM12920.1" class="clusterblast-orf" id="dummy-3_h3_5_22"  />
</g>
<g id="a3_0023"  >
<polygon points="327,90 330,90 335,85 330,80 327,80 327,90 " style="fill:white; stroke-width:1; stroke:black; " description="&lt;b&gt;AAM12919.1&lt;/b&gt;&lt;br&gt;MupF&lt;br&gt;Location: 45344 - 44334" locus_tag="AAM12919.1" class="clusterblast-orf" id="dummy-3_h3_5_23"  />
</g>
<g id="a3_0024"  >
<polygon points="335,85 337,80 337,90 335,85 " style="fill:white; stroke-width:1; stroke:black; " description="&lt;b&gt;AAM12918.1&lt;/b&gt;&lt;br&gt;MacpB&lt;br&gt;Location: 44313 - 44062" locus_tag="AAM12918.1" class="clusterblast-orf" id="dummy-3_h3_5_24"  />
</g>
<g id="a3_0025"  >
<polygon points="337,85 342,80 345,80 345,90 342,90 337,85 " style="fill:white; stroke-width:1; stroke:black; " description="&lt;b&gt;AAM12917.1&lt;/b&gt;&lt;br&gt;MupE&lt;br&gt;Location: 44005 - 42983" locus_tag="AAM12917.1" class="clusterblast-orf" id="dummy-3_h3_5_25"  />
</g>
<g id="a3_0026"  >
<polygon points="346,85 351,80 351,80 351,90 351,90 346,85 " style="fill:white; stroke-width:1; stroke:black; " description="&lt;b&gt;AAM12916.1&lt;/b&gt;&lt;br&gt;MupD&lt;br&gt;Location: 42959 - 42216" locus_tag="AAM12916.1" class="clusterblast-orf" id="dummy-3_h3_5_26"  />
</g>
<g id="a3_0027"  >
<polygon points="352,85 354,80 354,90 352,85 " style="fill:white; stroke-width:1; stroke:black; " description="&lt;b&gt;AAM12915.1&lt;/b&gt;&lt;br&gt;MacpA&lt;br&gt;Location: 42175 - 41870" locus_tag="AAM12915.1" class="clusterblast-orf" id="dummy-3_h3_5_27"  />
</g>
<g id="a3_0028"  >
<polygon points="354,85 359,80 365,80 365,90 359,90 354,85 " style="fill:white; stroke-width:1; stroke:black; " description="&lt;b&gt;AAM12914.1&lt;/b&gt;&lt;br&gt;MupC&lt;br&gt;Location: 41818 - 40523" locus_tag="AAM12914.1" class="clusterblast-orf" id="dummy-3_h3_5_28"  />
</g>
<g id="a3_0029"  >
<polygon points="365,85 370,80 518,80 518,90 370,90 365,85 " style="fill:white; stroke-width:1; stroke:black; " description="&lt;b&gt;AAM12913.2&lt;/b&gt;&lt;br&gt;MmpD&lt;br&gt;Location: 40526 - 20958" locus_tag="AAM12913.2" class="clusterblast-orf" id="dummy-3_h3_5_29"  />
</g>
<g id="a3_0030"  >
<polygon points="518,85 523,80 544,80 544,90 523,90 518,85 " style="fill:#d81515; stroke-width:1; stroke:black; " description="&lt;b&gt;AAM12912.1&lt;/b&gt;&lt;br&gt;MmpC&lt;br&gt;Location: 20961 - 17629&lt;br&gt;&lt;br&gt;&lt;b&gt;BlastP hit with LLPMBPKK_00537&lt;/b&gt;&lt;br&gt;Percentage identity: 53&lt;br&gt;Percentage coverage: 47&lt;br&gt;BLAST bit score: 283&lt;br&gt;E-value: 4.23e-83&lt;br&gt;&lt;br&gt;&lt;b&gt;BlastP hit with LLPMBPKK_00538&lt;/b&gt;&lt;br&gt;Percentage identity: 54&lt;br&gt;Percentage coverage: 60&lt;br&gt;BLAST bit score: 456&lt;br&gt;E-value: 3.27e-146" locus_tag="AAM12912.1" class="clusterblast-orf" id="dummy-3_h3_5_30"  />
</g>
<g id="a3_0031"  >
<polygon points="544,85 549,80 593,80 593,90 549,90 544,85 " style="fill:white; stroke-width:1; stroke:black; " description="&lt;b&gt;AAM12911.1&lt;/b&gt;&lt;br&gt;MmpB&lt;br&gt;Location: 17555 - 11325" locus_tag="AAM12911.1" class="clusterblast-orf" id="dummy-3_h3_5_31"  />
</g>
<g id="a3_0032"  >
<polygon points="594,85 599,80 601,80 601,90 599,90 594,85 " style="fill:white; stroke-width:1; stroke:black; " description="&lt;b&gt;AAM12910.1&lt;/b&gt;&lt;br&gt;MupB&lt;br&gt;Location: 11183 - 10278" locus_tag="AAM12910.1" class="clusterblast-orf" id="dummy-3_h3_5_32"  />
</g>
<g id="a3_0033"  >
<polygon points="601,85 606,80 668,80 668,90 606,90 601,85 " style="fill:white; stroke-width:1; stroke:black; " description="&lt;b&gt;AAM12909.2&lt;/b&gt;&lt;br&gt;MmpA&lt;br&gt;Location: 10243 - 1706" locus_tag="AAM12909.2" class="clusterblast-orf" id="dummy-3_h3_5_33"  />
</g>
<g id="a3_0034"  >
<polygon points="668,85 673,80 677,80 677,90 673,90 668,85 " style="fill:white; stroke-width:1; stroke:black; " description="&lt;b&gt;AAK28503.1&lt;/b&gt;&lt;br&gt;MupA&lt;br&gt;Location: 1709 - 600" locus_tag="AAK28503.1" class="clusterblast-orf" id="dummy-3_h3_5_34"  />
</g>
<g id="a3_0035"  >
<polygon points="677,85 680,80 680,90 677,85 " style="fill:white; stroke-width:1; stroke:black; " description="&lt;b&gt;AFD33556.1&lt;/b&gt;&lt;br&gt;MupZ&lt;br&gt;Location: 569 - 201" locus_tag="AFD33556.1" class="clusterblast-orf" id="dummy-3_h3_5_35"  />
</g>
</svg>
