<svg xmlns="http://www.w3.org/2000/svg" xmlns:xlink="http://www.w3.org/1999/xlink" version="1.1" x="0" y="0" height="230" width="800" viewBox="0 0 800 230" preserveAspectRatio="none"  >
<g label="Query sequence" class="clusterblast-cluster"  >
<text x="5" y="20" class="clusterblast-acc"  >
Query sequence</text>
<line x1="10" y1="35" x2="778.0" y2="35" style="stroke-width:1; stroke:grey; "  />
<polygon points="58,40 58,40 63,35 58,30 58,30 58,40 " style="fill:white; stroke-width:1; stroke:black; " description="&lt;b&gt;LLPMBPKK_07507&lt;/b&gt;&lt;br&gt;hypothetical protein&lt;br&gt;Location: 8732495 - 8732864" locus_tag="LLPMBPKK_07507" class="clusterblast-orf" id="dummy-33_q0_0_all"  />
<polygon points="65,40 104,40 109,35 104,30 65,30 65,40 " style="fill:white; stroke-width:1; stroke:black; " description="&lt;b&gt;LLPMBPKK_07508&lt;/b&gt;&lt;br&gt;WD-40 repeat-containing protein&lt;br&gt;Location: 8733081 - 8736987" locus_tag="LLPMBPKK_07508" class="clusterblast-orf" id="dummy-33_q1_0_all"  />
<polygon points="110,40 115,40 120,35 115,30 110,30 110,40 " style="fill:white; stroke-width:1; stroke:black; " description="&lt;b&gt;LLPMBPKK_07509&lt;/b&gt;&lt;br&gt;peptidoglycan endopeptidase&lt;br&gt;Location: 8737128 - 8737989" locus_tag="LLPMBPKK_07509" class="clusterblast-orf" id="dummy-33_q2_0_all"  />
<polygon points="120,35 125,30 144,30 144,40 125,40 120,35 " style="fill:white; stroke-width:1; stroke:black; " description="&lt;b&gt;LLPMBPKK_07510&lt;/b&gt;&lt;br&gt;ATPase AAA&lt;br&gt;Location: 8738008 - 8740192" locus_tag="LLPMBPKK_07510" class="clusterblast-orf" id="dummy-33_q3_0_all"  />
<polygon points="145,35 150,30 158,30 158,40 150,40 145,35 " style="fill:white; stroke-width:1; stroke:black; " description="&lt;b&gt;LLPMBPKK_07511&lt;/b&gt;&lt;br&gt;glycosyl transferase family protein&lt;br&gt;Location: 8740272 - 8741436" locus_tag="LLPMBPKK_07511" class="clusterblast-orf" id="dummy-33_q4_0_all"  />
<polygon points="162,40 181,40 186,35 181,30 162,30 162,40 " style="fill:white; stroke-width:1; stroke:black; " description="&lt;b&gt;LLPMBPKK_07512&lt;/b&gt;&lt;br&gt;FUSC family protein&lt;br&gt;Location: 8741744 - 8743895" locus_tag="LLPMBPKK_07512" class="clusterblast-orf" id="dummy-33_q5_0_all"  />
<polygon points="189,35 192,30 192,40 189,35 " style="fill:white; stroke-width:1; stroke:black; " description="&lt;b&gt;LLPMBPKK_07513&lt;/b&gt;&lt;br&gt;non-ribosomal peptide synthetase&lt;br&gt;Location: 8744146 - 8744440" locus_tag="LLPMBPKK_07513" class="clusterblast-orf" id="dummy-33_q6_0_all"  />
<polygon points="192,35 197,30 208,30 208,40 197,40 192,35 " style="fill:white; stroke-width:1; stroke:black; " description="&lt;b&gt;LLPMBPKK_07514&lt;/b&gt;&lt;br&gt;non-ribosomal peptide synthetase&lt;br&gt;Location: 8744486 - 8745854" locus_tag="LLPMBPKK_07514" class="clusterblast-orf" id="dummy-33_q7_0_all"  />
<polygon points="210,40 233,40 238,35 233,30 210,30 210,40 " style="fill:white; stroke-width:1; stroke:black; " description="&lt;b&gt;LLPMBPKK_07515&lt;/b&gt;&lt;br&gt;hybrid non-ribosomal peptide synthetase/type Ipolyketide synthase&lt;br&gt;Location: 8746075 - 8748553" locus_tag="LLPMBPKK_07515" class="clusterblast-orf" id="dummy-33_q8_0_all"  />
<polygon points="239,35 244,30 255,30 255,40 244,40 239,35 " style="fill:white; stroke-width:1; stroke:black; " description="&lt;b&gt;LLPMBPKK_07516&lt;/b&gt;&lt;br&gt;non-ribosomal peptide synthetase&lt;br&gt;Location: 8748619 - 8750095" locus_tag="LLPMBPKK_07516" class="clusterblast-orf" id="dummy-33_q9_0_all"  />
<polygon points="256,35 261,30 268,30 268,40 261,40 256,35 " style="fill:white; stroke-width:1; stroke:black; " description="&lt;b&gt;LLPMBPKK_07517&lt;/b&gt;&lt;br&gt;oxygenase&lt;br&gt;Location: 8750165 - 8751242" locus_tag="LLPMBPKK_07517" class="clusterblast-orf" id="dummy-33_q10_0_all"  />
<polygon points="269,35 274,30 279,30 279,40 274,40 269,35 " style="fill:#d81515; stroke-width:1; stroke:black; " description="&lt;b&gt;LLPMBPKK_07518&lt;/b&gt;&lt;br&gt;GNAT family N-acetyltransferase&lt;br&gt;Location: 8751295 - 8752240" locus_tag="LLPMBPKK_07518" class="clusterblast-orf" id="dummy-33_q11_0_all"  />
<polygon points="280,35 285,30 318,30 318,40 285,40 280,35 " style="fill:white; stroke-width:1; stroke:black; " description="&lt;b&gt;LLPMBPKK_07519&lt;/b&gt;&lt;br&gt;non-ribosomal peptide synthetase&lt;br&gt;Location: 8752332 - 8755725" locus_tag="LLPMBPKK_07519" class="clusterblast-orf" id="dummy-33_q12_0_all"  />
<polygon points="323,40 327,40 332,35 327,30 323,30 323,40 " style="fill:white; stroke-width:1; stroke:black; " description="&lt;b&gt;LLPMBPKK_07520&lt;/b&gt;&lt;br&gt;thioesterase&lt;br&gt;Location: 8756208 - 8756943" locus_tag="LLPMBPKK_07520" class="clusterblast-orf" id="dummy-33_q13_0_all"  />
<polygon points="332,40 365,40 370,35 365,30 332,30 332,40 " style="fill:#77d815; stroke-width:1; stroke:black; " description="&lt;b&gt;LLPMBPKK_07521&lt;/b&gt;&lt;br&gt;non-ribosomal peptide synthetase&lt;br&gt;Location: 8756935 - 8760343" locus_tag="LLPMBPKK_07521" class="clusterblast-orf" id="dummy-33_q14_0_all"  />
<polygon points="370,40 418,40 423,35 418,30 370,30 370,40 " style="fill:#15d8d8; stroke-width:1; stroke:black; " description="&lt;b&gt;LLPMBPKK_07522&lt;/b&gt;&lt;br&gt;non-ribosomal peptide synthetase&lt;br&gt;Location: 8760339 - 8765136" locus_tag="LLPMBPKK_07522" class="clusterblast-orf" id="dummy-33_q15_0_all"  />
<polygon points="423,40 479,40 484,35 479,30 423,30 423,40 " style="fill:#7715d8; stroke-width:1; stroke:black; " description="&lt;b&gt;LLPMBPKK_07523&lt;/b&gt;&lt;br&gt;non-ribosomal peptide synthetase&lt;br&gt;Location: 8765132 - 8770556" locus_tag="LLPMBPKK_07523" class="clusterblast-orf" id="dummy-33_q16_0_all"  />
<polygon points="487,40 489,35 487,30 487,40 " style="fill:#d8a715; stroke-width:1; stroke:black; " description="&lt;b&gt;LLPMBPKK_07524&lt;/b&gt;&lt;br&gt;MbtH protein&lt;br&gt;Location: 8770838 - 8771039" locus_tag="LLPMBPKK_07524" class="clusterblast-orf" id="dummy-33_q17_0_all"  />
<polygon points="490,40 506,40 511,35 506,30 490,30 490,40 " style="fill:#15d846; stroke-width:1; stroke:black; " description="&lt;b&gt;LLPMBPKK_07525&lt;/b&gt;&lt;br&gt;non-ribosomal peptide synthetase&lt;br&gt;Location: 8771117 - 8772950" locus_tag="LLPMBPKK_07525" class="clusterblast-orf" id="dummy-33_q18_0_all"  />
<polygon points="510,40 516,40 521,35 516,30 510,30 510,40 " style="fill:#1546d8; stroke-width:1; stroke:black; " description="&lt;b&gt;LLPMBPKK_07526&lt;/b&gt;&lt;br&gt;Phytanoyl-CoA dioxygenase (PhyH)&lt;br&gt;Location: 8772946 - 8773906" locus_tag="LLPMBPKK_07526" class="clusterblast-orf" id="dummy-33_q19_0_all"  />
<polygon points="527,40 530,40 535,35 530,30 527,30 527,40 " style="fill:#d815a7; stroke-width:1; stroke:black; " description="&lt;b&gt;LLPMBPKK_07527&lt;/b&gt;&lt;br&gt;Putative aminoacrylate hydrolase RutD&lt;br&gt;Location: 8774383 - 8775121" locus_tag="LLPMBPKK_07527" class="clusterblast-orf" id="dummy-33_q20_0_all"  />
<polygon points="535,40 546,40 551,35 546,30 535,30 535,40 " style="fill:white; stroke-width:1; stroke:black; " description="&lt;b&gt;LLPMBPKK_07528&lt;/b&gt;&lt;br&gt;Methyltransferase FkbM domain protein&lt;br&gt;Location: 8775117 - 8776557" locus_tag="LLPMBPKK_07528" class="clusterblast-orf" id="dummy-33_q21_0_all"  />
<polygon points="551,40 554,40 559,35 554,30 551,30 551,40 " style="fill:white; stroke-width:1; stroke:black; " description="&lt;b&gt;LLPMBPKK_07529&lt;/b&gt;&lt;br&gt;thioesterase&lt;br&gt;Location: 8776553 - 8777294" locus_tag="LLPMBPKK_07529" class="clusterblast-orf" id="dummy-33_q22_0_all"  />
<polygon points="559,40 567,40 572,35 567,30 559,30 559,40 " style="fill:white; stroke-width:1; stroke:black; " description="&lt;b&gt;LLPMBPKK_07530&lt;/b&gt;&lt;br&gt;acyl-CoA dehydrogenase&lt;br&gt;Location: 8777290 - 8778463" locus_tag="LLPMBPKK_07530" class="clusterblast-orf" id="dummy-33_q23_0_all"  />
<polygon points="573,35 578,30 600,30 600,40 578,40 573,35 " style="fill:white; stroke-width:1; stroke:black; " description="&lt;b&gt;LLPMBPKK_07531&lt;/b&gt;&lt;br&gt;LuxR family transcriptional regulator&lt;br&gt;Location: 8778497 - 8780918" locus_tag="LLPMBPKK_07531" class="clusterblast-orf" id="dummy-33_q24_0_all"  />
<polygon points="607,40 613,40 618,35 613,30 607,30 607,40 " style="fill:white; stroke-width:1; stroke:black; " description="&lt;b&gt;LLPMBPKK_07532&lt;/b&gt;&lt;br&gt;Glyoxylate/hydroxypyruvate reductase B&lt;br&gt;Location: 8781546 - 8782569" locus_tag="LLPMBPKK_07532" class="clusterblast-orf" id="dummy-33_q25_0_all"  />
<polygon points="619,40 627,40 632,35 627,30 619,30 619,40 " style="fill:white; stroke-width:1; stroke:black; " description="&lt;b&gt;LLPMBPKK_07533&lt;/b&gt;&lt;br&gt;L-lysine 2,3-aminomutase&lt;br&gt;Location: 8782622 - 8783804" locus_tag="LLPMBPKK_07533" class="clusterblast-orf" id="dummy-33_q26_0_all"  />
<polygon points="633,40 640,40 645,35 640,30 633,30 633,40 " style="fill:white; stroke-width:1; stroke:black; " description="&lt;b&gt;LLPMBPKK_07534&lt;/b&gt;&lt;br&gt;Iron-containing redox enzyme&lt;br&gt;Location: 8783871 - 8784996" locus_tag="LLPMBPKK_07534" class="clusterblast-orf" id="dummy-33_q27_0_all"  />
<polygon points="645,40 652,40 657,35 652,30 645,30 645,40 " style="fill:white; stroke-width:1; stroke:black; " description="&lt;b&gt;LLPMBPKK_07535&lt;/b&gt;&lt;br&gt;aminotransferase&lt;br&gt;Location: 8784992 - 8786054" locus_tag="LLPMBPKK_07535" class="clusterblast-orf" id="dummy-33_q28_0_all"  />
<polygon points="658,40 666,40 671,35 666,30 658,30 658,40 " style="fill:white; stroke-width:1; stroke:black; " description="&lt;b&gt;LLPMBPKK_07536&lt;/b&gt;&lt;br&gt;S-adenosylmethionine synthetase&lt;br&gt;Location: 8786138 - 8787302" locus_tag="LLPMBPKK_07536" class="clusterblast-orf" id="dummy-33_q29_0_all"  />
<polygon points="672,40 680,40 685,35 680,30 672,30 672,40 " style="fill:white; stroke-width:1; stroke:black; " description="&lt;b&gt;LLPMBPKK_07537&lt;/b&gt;&lt;br&gt;pyridoxal phosphate-dependent aminotransferase&lt;br&gt;Location: 8787396 - 8788569" locus_tag="LLPMBPKK_07537" class="clusterblast-orf" id="dummy-33_q30_0_all"  />
<polygon points="687,35 692,30 693,30 693,40 692,40 687,35 " style="fill:white; stroke-width:1; stroke:black; " description="&lt;b&gt;LLPMBPKK_07538&lt;/b&gt;&lt;br&gt;PadR family transcriptional regulator&lt;br&gt;Location: 8788700 - 8789276" locus_tag="LLPMBPKK_07538" class="clusterblast-orf" id="dummy-33_q31_0_all"  />
<polygon points="694,40 694,40 699,35 694,30 694,30 694,40 " style="fill:white; stroke-width:1; stroke:black; " description="&lt;b&gt;LLPMBPKK_07539&lt;/b&gt;&lt;br&gt;nuclear transport factor 2 family protein&lt;br&gt;Location: 8789412 - 8789799" locus_tag="LLPMBPKK_07539" class="clusterblast-orf" id="dummy-33_q32_0_all"  />
<polygon points="700,40 703,35 700,30 700,40 " style="fill:white; stroke-width:1; stroke:black; " description="&lt;b&gt;LLPMBPKK_07540&lt;/b&gt;&lt;br&gt;hypothetical protein&lt;br&gt;Location: 8789875 - 8790142" locus_tag="LLPMBPKK_07540" class="clusterblast-orf" id="dummy-33_q33_0_all"  />
<polygon points="703,40 703,40 708,35 703,30 703,30 703,40 " style="fill:white; stroke-width:1; stroke:black; " description="&lt;b&gt;LLPMBPKK_07541&lt;/b&gt;&lt;br&gt;TIGR03618 family F420-dependent PPOX class oxidoreductase&lt;br&gt;Location: 8790172 - 8790610" locus_tag="LLPMBPKK_07541" class="clusterblast-orf" id="dummy-33_q34_0_all"  />
<polygon points="708,35 713,30 721,30 721,40 713,40 708,35 " style="fill:white; stroke-width:1; stroke:black; " description="&lt;b&gt;LLPMBPKK_07542&lt;/b&gt;&lt;br&gt;cellulose binding protein&lt;br&gt;Location: 8790662 - 8791763" locus_tag="LLPMBPKK_07542" class="clusterblast-orf" id="dummy-33_q35_0_all"  />
</g>
<g label="BGC0001853" description="BGC0001853_c1: largimiycin 38/largimycin 39 (8% of genes show similarity), NRP+Polyketide:Modular type I polyketide" class="clusterblast-cluster"  >
<text x="5" y="70" class="clusterblast-acc"  >
<a xlink:href="https://mibig.secondarymetabolites.org/go/BGC0001853/1" target="_blank">BGC0001853</a>:                                                     largimiycin 38/largimycin 39 (8% of genes show similarity), NRP+Polyketide:Modular type I polyketide</text>
<line x1="10" y1="85" x2="778.0" y2="85" style="stroke-width:1; stroke:grey; "  />
</g>
<g id="a33_000"  >
<polygon points="0,85 5,80 17,80 17,90 5,90 0,85 " style="fill:white; stroke-width:1; stroke:black; " description="&lt;b&gt;ctg3_1&lt;/b&gt;&lt;br&gt;&lt;br&gt;Location: 1 - 1530" locus_tag="ctg3_1" class="clusterblast-orf" id="dummy-33_h33_1_0"  />
</g>
<g id="a33_001"  >
<polygon points="18,90 20,90 25,85 20,80 18,80 18,90 " style="fill:white; stroke-width:1; stroke:black; " description="&lt;b&gt;ctg3_2&lt;/b&gt;&lt;br&gt;&lt;br&gt;Location: 1687 - 2304" locus_tag="ctg3_2" class="clusterblast-orf" id="dummy-33_h33_1_1"  />
</g>
<g id="a33_002"  >
<polygon points="27,85 32,80 32,80 32,90 32,90 27,85 " style="fill:white; stroke-width:1; stroke:black; " description="&lt;b&gt;ctg3_3&lt;/b&gt;&lt;br&gt;&lt;br&gt;Location: 2506 - 2928" locus_tag="ctg3_3" class="clusterblast-orf" id="dummy-33_h33_1_2"  />
</g>
<g id="a33_003"  >
<polygon points="39,90 49,90 54,85 49,80 39,80 39,90 " style="fill:white; stroke-width:1; stroke:black; " description="&lt;b&gt;ctg3_4&lt;/b&gt;&lt;br&gt;&lt;br&gt;Location: 3553 - 4911" locus_tag="ctg3_4" class="clusterblast-orf" id="dummy-33_h33_1_3"  />
</g>
<g id="a33_004"  >
<polygon points="63,90 65,90 70,85 65,80 63,80 63,90 " style="fill:white; stroke-width:1; stroke:black; " description="&lt;b&gt;ctg3_5&lt;/b&gt;&lt;br&gt;&lt;br&gt;Location: 5671 - 6339" locus_tag="ctg3_5" class="clusterblast-orf" id="dummy-33_h33_1_4"  />
</g>
<g id="a33_005"  >
<polygon points="70,85 75,80 79,80 79,90 75,90 70,85 " style="fill:white; stroke-width:1; stroke:black; " description="&lt;b&gt;ctg3_6&lt;/b&gt;&lt;br&gt;&lt;br&gt;Location: 6321 - 7073" locus_tag="ctg3_6" class="clusterblast-orf" id="dummy-33_h33_1_5"  />
</g>
<g id="a33_006"  >
<polygon points="79,85 84,80 93,80 93,90 84,90 79,85 " style="fill:white; stroke-width:1; stroke:black; " description="&lt;b&gt;ctg3_7&lt;/b&gt;&lt;br&gt;&lt;br&gt;Location: 7084 - 8385" locus_tag="ctg3_7" class="clusterblast-orf" id="dummy-33_h33_1_6"  />
</g>
<g id="a33_007"  >
<polygon points="97,90 100,90 105,85 100,80 97,80 97,90 " style="fill:white; stroke-width:1; stroke:black; " description="&lt;b&gt;ctg3_8&lt;/b&gt;&lt;br&gt;&lt;br&gt;Location: 8715 - 9473" locus_tag="ctg3_8" class="clusterblast-orf" id="dummy-33_h33_1_7"  />
</g>
<g id="a33_008"  >
<polygon points="106,90 116,90 121,85 116,80 106,80 106,90 " style="fill:white; stroke-width:1; stroke:black; " description="&lt;b&gt;ctg3_9&lt;/b&gt;&lt;br&gt;&lt;br&gt;Location: 9544 - 10857" locus_tag="ctg3_9" class="clusterblast-orf" id="dummy-33_h33_1_8"  />
</g>
<g id="a33_009"  >
<polygon points="122,90 127,90 132,85 127,80 122,80 122,90 " style="fill:white; stroke-width:1; stroke:black; " description="&lt;b&gt;ctg3_10&lt;/b&gt;&lt;br&gt;&lt;br&gt;Location: 10928 - 11845" locus_tag="ctg3_10" class="clusterblast-orf" id="dummy-33_h33_1_9"  />
</g>
<g id="a33_0010"  >
<polygon points="132,90 140,90 145,85 140,80 132,80 132,90 " style="fill:white; stroke-width:1; stroke:black; " description="&lt;b&gt;ctg3_11&lt;/b&gt;&lt;br&gt;&lt;br&gt;Location: 11829 - 13061" locus_tag="ctg3_11" class="clusterblast-orf" id="dummy-33_h33_1_10"  />
</g>
<g id="a33_0011"  >
<polygon points="145,90 149,90 154,85 149,80 145,80 145,90 " style="fill:white; stroke-width:1; stroke:black; " description="&lt;b&gt;ctg3_12&lt;/b&gt;&lt;br&gt;&lt;br&gt;Location: 13066 - 13857" locus_tag="ctg3_12" class="clusterblast-orf" id="dummy-33_h33_1_11"  />
</g>
<g id="a33_0012"  >
<polygon points="154,90 176,90 181,85 176,80 154,80 154,90 " style="fill:white; stroke-width:1; stroke:black; " description="&lt;b&gt;ctg3_13&lt;/b&gt;&lt;br&gt;&lt;br&gt;Location: 13854 - 16250" locus_tag="ctg3_13" class="clusterblast-orf" id="dummy-33_h33_1_12"  />
</g>
<g id="a33_0013"  >
<polygon points="182,90 188,90 193,85 188,80 182,80 182,90 " style="fill:white; stroke-width:1; stroke:black; " description="&lt;b&gt;ctg3_14&lt;/b&gt;&lt;br&gt;&lt;br&gt;Location: 16353 - 17303" locus_tag="ctg3_14" class="clusterblast-orf" id="dummy-33_h33_1_13"  />
</g>
<g id="a33_0014"  >
<polygon points="194,90 209,90 214,85 209,80 194,80 194,90 " style="fill:#15d846; stroke-width:1; stroke:black; " description="&lt;b&gt;ctg3_15&lt;/b&gt;&lt;br&gt;&lt;br&gt;Location: 17365 - 19164&lt;br&gt;&lt;br&gt;&lt;b&gt;BlastP hit with LLPMBPKK_07525&lt;/b&gt;&lt;br&gt;Percentage identity: 50&lt;br&gt;Percentage coverage: 99&lt;br&gt;BLAST bit score: 510&lt;br&gt;E-value: 5.36e-175" locus_tag="ctg3_15" class="clusterblast-orf" id="dummy-33_h33_1_14"  />
</g>
<g id="a33_0015"  >
<polygon points="214,90 219,90 224,85 219,80 214,80 214,90 " style="fill:#1546d8; stroke-width:1; stroke:black; " description="&lt;b&gt;ctg3_16&lt;/b&gt;&lt;br&gt;&lt;br&gt;Location: 19185 - 20129&lt;br&gt;&lt;br&gt;&lt;b&gt;BlastP hit with LLPMBPKK_07526&lt;/b&gt;&lt;br&gt;Percentage identity: 71&lt;br&gt;Percentage coverage: 97&lt;br&gt;BLAST bit score: 467&lt;br&gt;E-value: 6.5e-167" locus_tag="ctg3_16" class="clusterblast-orf" id="dummy-33_h33_1_15"  />
</g>
<g id="a33_0016"  >
<polygon points="225,90 233,90 238,85 233,80 225,80 225,90 " style="fill:#d815a7; stroke-width:1; stroke:black; " description="&lt;b&gt;ctg3_17&lt;/b&gt;&lt;br&gt;&lt;br&gt;Location: 20165 - 21340&lt;br&gt;&lt;br&gt;&lt;b&gt;BlastP hit with LLPMBPKK_07527&lt;/b&gt;&lt;br&gt;Percentage identity: 46&lt;br&gt;Percentage coverage: 98&lt;br&gt;BLAST bit score: 202&lt;br&gt;E-value: 4.89e-63" locus_tag="ctg3_17" class="clusterblast-orf" id="dummy-33_h33_1_16"  />
</g>
<g id="a33_0017"  >
<polygon points="238,90 377,90 382,85 377,80 238,80 238,90 " style="fill:white; stroke-width:1; stroke:black; " description="&lt;b&gt;ctg3_18&lt;/b&gt;&lt;br&gt;&lt;br&gt;Location: 21353 - 34219" locus_tag="ctg3_18" class="clusterblast-orf" id="dummy-33_h33_1_17"  />
</g>
<g id="a33_0018"  >
<polygon points="382,90 623,90 628,85 623,80 382,80 382,90 " style="fill:white; stroke-width:1; stroke:black; " description="&lt;b&gt;ctg3_19&lt;/b&gt;&lt;br&gt;&lt;br&gt;Location: 34216 - 56238" locus_tag="ctg3_19" class="clusterblast-orf" id="dummy-33_h33_1_18"  />
</g>
<g id="a33_0019"  >
<polygon points="628,90 634,90 639,85 634,80 628,80 628,90 " style="fill:white; stroke-width:1; stroke:black; " description="&lt;b&gt;ctg3_20&lt;/b&gt;&lt;br&gt;&lt;br&gt;Location: 56238 - 57227" locus_tag="ctg3_20" class="clusterblast-orf" id="dummy-33_h33_1_19"  />
</g>
<g id="a33_0020"  >
<polygon points="639,90 642,85 639,80 639,90 " style="fill:white; stroke-width:1; stroke:black; " description="&lt;b&gt;ctg3_21&lt;/b&gt;&lt;br&gt;&lt;br&gt;Location: 57211 - 57474" locus_tag="ctg3_21" class="clusterblast-orf" id="dummy-33_h33_1_20"  />
</g>
<g id="a33_0021"  >
<polygon points="642,90 650,90 655,85 650,80 642,80 642,90 " style="fill:white; stroke-width:1; stroke:black; " description="&lt;b&gt;ctg3_22&lt;/b&gt;&lt;br&gt;&lt;br&gt;Location: 57471 - 58709" locus_tag="ctg3_22" class="clusterblast-orf" id="dummy-33_h33_1_21"  />
</g>
<g id="a33_0022"  >
<polygon points="656,90 658,85 656,80 656,90 " style="fill:white; stroke-width:1; stroke:black; " description="&lt;b&gt;ctg3_23&lt;/b&gt;&lt;br&gt;&lt;br&gt;Location: 58722 - 58964" locus_tag="ctg3_23" class="clusterblast-orf" id="dummy-33_h33_1_22"  />
</g>
<g id="a33_0023"  >
<polygon points="658,90 668,90 673,85 668,80 658,80 658,90 " style="fill:white; stroke-width:1; stroke:black; " description="&lt;b&gt;ctg3_24&lt;/b&gt;&lt;br&gt;&lt;br&gt;Location: 58961 - 60232" locus_tag="ctg3_24" class="clusterblast-orf" id="dummy-33_h33_1_23"  />
</g>
<g id="a33_0024"  >
<polygon points="673,90 676,90 681,85 676,80 673,80 673,90 " style="fill:white; stroke-width:1; stroke:black; " description="&lt;b&gt;ctg3_25&lt;/b&gt;&lt;br&gt;&lt;br&gt;Location: 60234 - 60995" locus_tag="ctg3_25" class="clusterblast-orf" id="dummy-33_h33_1_24"  />
</g>
<g id="a33_0025"  >
<polygon points="681,90 684,90 689,85 684,80 681,80 681,90 " style="fill:white; stroke-width:1; stroke:black; " description="&lt;b&gt;ctg3_26&lt;/b&gt;&lt;br&gt;&lt;br&gt;Location: 60992 - 61711" locus_tag="ctg3_26" class="clusterblast-orf" id="dummy-33_h33_1_25"  />
</g>
<g id="a33_0026"  >
<polygon points="690,85 694,80 694,90 690,85 " style="fill:white; stroke-width:1; stroke:black; " description="&lt;b&gt;ctg3_27&lt;/b&gt;&lt;br&gt;&lt;br&gt;Location: 61762 - 62160" locus_tag="ctg3_27" class="clusterblast-orf" id="dummy-33_h33_1_26"  />
</g>
<g id="a33_0027"  >
<polygon points="696,90 707,90 712,85 707,80 696,80 696,90 " style="fill:white; stroke-width:1; stroke:black; " description="&lt;b&gt;ctg3_28&lt;/b&gt;&lt;br&gt;&lt;br&gt;Location: 62314 - 63777" locus_tag="ctg3_28" class="clusterblast-orf" id="dummy-33_h33_1_27"  />
</g>
<g id="a33_0028"  >
<polygon points="714,90 717,85 714,80 714,90 " style="fill:white; stroke-width:1; stroke:black; " description="&lt;b&gt;ctg3_29&lt;/b&gt;&lt;br&gt;&lt;br&gt;Location: 63908 - 64240" locus_tag="ctg3_29" class="clusterblast-orf" id="dummy-33_h33_1_28"  />
</g>
<g id="a33_0029"  >
<polygon points="717,90 719,90 724,85 719,80 717,80 717,90 " style="fill:white; stroke-width:1; stroke:black; " description="&lt;b&gt;ctg3_30&lt;/b&gt;&lt;br&gt;&lt;br&gt;Location: 64230 - 64835" locus_tag="ctg3_30" class="clusterblast-orf" id="dummy-33_h33_1_29"  />
</g>
<g id="a33_0030"  >
<polygon points="725,90 734,90 739,85 734,80 725,80 725,90 " style="fill:white; stroke-width:1; stroke:black; " description="&lt;b&gt;ctg3_31&lt;/b&gt;&lt;br&gt;&lt;br&gt;Location: 64961 - 66148" locus_tag="ctg3_31" class="clusterblast-orf" id="dummy-33_h33_1_30"  />
</g>
<g id="a33_0031"  >
<polygon points="741,85 742,80 742,90 741,85 " style="fill:white; stroke-width:1; stroke:black; " description="&lt;b&gt;ctg3_32&lt;/b&gt;&lt;br&gt;&lt;br&gt;Location: 66321 - 66413" locus_tag="ctg3_32" class="clusterblast-orf" id="dummy-33_h33_1_31"  />
</g>
<g id="a33_0032"  >
<polygon points="743,90 747,85 743,80 743,90 " style="fill:white; stroke-width:1; stroke:black; " description="&lt;b&gt;ctg3_33&lt;/b&gt;&lt;br&gt;&lt;br&gt;Location: 66507 - 66872" locus_tag="ctg3_33" class="clusterblast-orf" id="dummy-33_h33_1_32"  />
</g>
<g id="a33_0033"  >
<polygon points="749,90 760,90 765,85 760,80 749,80 749,90 " style="fill:white; stroke-width:1; stroke:black; " description="&lt;b&gt;ctg3_34&lt;/b&gt;&lt;br&gt;&lt;br&gt;Location: 67043 - 68527" locus_tag="ctg3_34" class="clusterblast-orf" id="dummy-33_h33_1_33"  />
</g>
<g id="a33_0034"  >
<polygon points="766,90 775,90 780,85 775,80 766,80 766,90 " style="fill:white; stroke-width:1; stroke:black; " description="&lt;b&gt;ctg3_35&lt;/b&gt;&lt;br&gt;&lt;br&gt;Location: 68563 - 69807" locus_tag="ctg3_35" class="clusterblast-orf" id="dummy-33_h33_1_34"  />
</g>
</svg>
