<svg xmlns="http://www.w3.org/2000/svg" xmlns:xlink="http://www.w3.org/1999/xlink" version="1.1" x="0" y="0" height="230" width="800" viewBox="0 0 800 230" preserveAspectRatio="none"  >
<g label="Query sequence" class="clusterblast-cluster"  >
<text x="5" y="20" class="clusterblast-acc"  >
Query sequence</text>
<line x1="10" y1="35" x2="778.0" y2="35" style="stroke-width:1; stroke:grey; "  />
<polygon points="0,40 4,35 0,30 0,40 " style="fill:white; stroke-width:1; stroke:black; " description="&lt;b&gt;LLPMBPKK_07507&lt;/b&gt;&lt;br&gt;hypothetical protein&lt;br&gt;Location: 8732495 - 8732864" locus_tag="LLPMBPKK_07507" class="clusterblast-orf" id="dummy-33_q0_0_all"  />
<polygon points="7,40 54,40 59,35 54,30 7,30 7,40 " style="fill:white; stroke-width:1; stroke:black; " description="&lt;b&gt;LLPMBPKK_07508&lt;/b&gt;&lt;br&gt;WD-40 repeat-containing protein&lt;br&gt;Location: 8733081 - 8736987" locus_tag="LLPMBPKK_07508" class="clusterblast-orf" id="dummy-33_q1_0_all"  />
<polygon points="61,40 67,40 72,35 67,30 61,30 61,40 " style="fill:white; stroke-width:1; stroke:black; " description="&lt;b&gt;LLPMBPKK_07509&lt;/b&gt;&lt;br&gt;peptidoglycan endopeptidase&lt;br&gt;Location: 8737128 - 8737989" locus_tag="LLPMBPKK_07509" class="clusterblast-orf" id="dummy-33_q2_0_all"  />
<polygon points="72,35 77,30 101,30 101,40 77,40 72,35 " style="fill:white; stroke-width:1; stroke:black; " description="&lt;b&gt;LLPMBPKK_07510&lt;/b&gt;&lt;br&gt;ATPase AAA&lt;br&gt;Location: 8738008 - 8740192" locus_tag="LLPMBPKK_07510" class="clusterblast-orf" id="dummy-33_q3_0_all"  />
<polygon points="102,35 107,30 117,30 117,40 107,40 102,35 " style="fill:white; stroke-width:1; stroke:black; " description="&lt;b&gt;LLPMBPKK_07511&lt;/b&gt;&lt;br&gt;glycosyl transferase family protein&lt;br&gt;Location: 8740272 - 8741436" locus_tag="LLPMBPKK_07511" class="clusterblast-orf" id="dummy-33_q4_0_all"  />
<polygon points="121,40 145,40 150,35 145,30 121,30 121,40 " style="fill:white; stroke-width:1; stroke:black; " description="&lt;b&gt;LLPMBPKK_07512&lt;/b&gt;&lt;br&gt;FUSC family protein&lt;br&gt;Location: 8741744 - 8743895" locus_tag="LLPMBPKK_07512" class="clusterblast-orf" id="dummy-33_q5_0_all"  />
<polygon points="153,35 157,30 157,40 153,35 " style="fill:white; stroke-width:1; stroke:black; " description="&lt;b&gt;LLPMBPKK_07513&lt;/b&gt;&lt;br&gt;non-ribosomal peptide synthetase&lt;br&gt;Location: 8744146 - 8744440" locus_tag="LLPMBPKK_07513" class="clusterblast-orf" id="dummy-33_q6_0_all"  />
<polygon points="157,35 162,30 175,30 175,40 162,40 157,35 " style="fill:white; stroke-width:1; stroke:black; " description="&lt;b&gt;LLPMBPKK_07514&lt;/b&gt;&lt;br&gt;non-ribosomal peptide synthetase&lt;br&gt;Location: 8744486 - 8745854" locus_tag="LLPMBPKK_07514" class="clusterblast-orf" id="dummy-33_q7_0_all"  />
<polygon points="178,40 206,40 211,35 206,30 178,30 178,40 " style="fill:white; stroke-width:1; stroke:black; " description="&lt;b&gt;LLPMBPKK_07515&lt;/b&gt;&lt;br&gt;hybrid non-ribosomal peptide synthetase/type Ipolyketide synthase&lt;br&gt;Location: 8746075 - 8748553" locus_tag="LLPMBPKK_07515" class="clusterblast-orf" id="dummy-33_q8_0_all"  />
<polygon points="212,35 217,30 231,30 231,40 217,40 212,35 " style="fill:white; stroke-width:1; stroke:black; " description="&lt;b&gt;LLPMBPKK_07516&lt;/b&gt;&lt;br&gt;non-ribosomal peptide synthetase&lt;br&gt;Location: 8748619 - 8750095" locus_tag="LLPMBPKK_07516" class="clusterblast-orf" id="dummy-33_q9_0_all"  />
<polygon points="232,35 237,30 246,30 246,40 237,40 232,35 " style="fill:white; stroke-width:1; stroke:black; " description="&lt;b&gt;LLPMBPKK_07517&lt;/b&gt;&lt;br&gt;oxygenase&lt;br&gt;Location: 8750165 - 8751242" locus_tag="LLPMBPKK_07517" class="clusterblast-orf" id="dummy-33_q10_0_all"  />
<polygon points="247,35 252,30 259,30 259,40 252,40 247,35 " style="fill:#d81515; stroke-width:1; stroke:black; " description="&lt;b&gt;LLPMBPKK_07518&lt;/b&gt;&lt;br&gt;GNAT family N-acetyltransferase&lt;br&gt;Location: 8751295 - 8752240" locus_tag="LLPMBPKK_07518" class="clusterblast-orf" id="dummy-33_q11_0_all"  />
<polygon points="261,35 266,30 305,30 305,40 266,40 261,35 " style="fill:white; stroke-width:1; stroke:black; " description="&lt;b&gt;LLPMBPKK_07519&lt;/b&gt;&lt;br&gt;non-ribosomal peptide synthetase&lt;br&gt;Location: 8752332 - 8755725" locus_tag="LLPMBPKK_07519" class="clusterblast-orf" id="dummy-33_q12_0_all"  />
<polygon points="312,40 316,40 321,35 316,30 312,30 312,40 " style="fill:white; stroke-width:1; stroke:black; " description="&lt;b&gt;LLPMBPKK_07520&lt;/b&gt;&lt;br&gt;thioesterase&lt;br&gt;Location: 8756208 - 8756943" locus_tag="LLPMBPKK_07520" class="clusterblast-orf" id="dummy-33_q13_0_all"  />
<polygon points="321,40 361,40 366,35 361,30 321,30 321,40 " style="fill:#77d815; stroke-width:1; stroke:black; " description="&lt;b&gt;LLPMBPKK_07521&lt;/b&gt;&lt;br&gt;non-ribosomal peptide synthetase&lt;br&gt;Location: 8756935 - 8760343" locus_tag="LLPMBPKK_07521" class="clusterblast-orf" id="dummy-33_q14_0_all"  />
<polygon points="366,40 424,40 429,35 424,30 366,30 366,40 " style="fill:#15d8d8; stroke-width:1; stroke:black; " description="&lt;b&gt;LLPMBPKK_07522&lt;/b&gt;&lt;br&gt;non-ribosomal peptide synthetase&lt;br&gt;Location: 8760339 - 8765136" locus_tag="LLPMBPKK_07522" class="clusterblast-orf" id="dummy-33_q15_0_all"  />
<polygon points="429,40 496,40 501,35 496,30 429,30 429,40 " style="fill:#7715d8; stroke-width:1; stroke:black; " description="&lt;b&gt;LLPMBPKK_07523&lt;/b&gt;&lt;br&gt;non-ribosomal peptide synthetase&lt;br&gt;Location: 8765132 - 8770556" locus_tag="LLPMBPKK_07523" class="clusterblast-orf" id="dummy-33_q16_0_all"  />
<polygon points="504,40 507,35 504,30 504,40 " style="fill:#d8a715; stroke-width:1; stroke:black; " description="&lt;b&gt;LLPMBPKK_07524&lt;/b&gt;&lt;br&gt;MbtH protein&lt;br&gt;Location: 8770838 - 8771039" locus_tag="LLPMBPKK_07524" class="clusterblast-orf" id="dummy-33_q17_0_all"  />
<polygon points="508,40 527,40 532,35 527,30 508,30 508,40 " style="fill:#15d846; stroke-width:1; stroke:black; " description="&lt;b&gt;LLPMBPKK_07525&lt;/b&gt;&lt;br&gt;non-ribosomal peptide synthetase&lt;br&gt;Location: 8771117 - 8772950" locus_tag="LLPMBPKK_07525" class="clusterblast-orf" id="dummy-33_q18_0_all"  />
<polygon points="532,40 540,40 545,35 540,30 532,30 532,40 " style="fill:#1546d8; stroke-width:1; stroke:black; " description="&lt;b&gt;LLPMBPKK_07526&lt;/b&gt;&lt;br&gt;Phytanoyl-CoA dioxygenase (PhyH)&lt;br&gt;Location: 8772946 - 8773906" locus_tag="LLPMBPKK_07526" class="clusterblast-orf" id="dummy-33_q19_0_all"  />
<polygon points="551,40 556,40 561,35 556,30 551,30 551,40 " style="fill:#d815a7; stroke-width:1; stroke:black; " description="&lt;b&gt;LLPMBPKK_07527&lt;/b&gt;&lt;br&gt;Putative aminoacrylate hydrolase RutD&lt;br&gt;Location: 8774383 - 8775121" locus_tag="LLPMBPKK_07527" class="clusterblast-orf" id="dummy-33_q20_0_all"  />
<polygon points="561,40 575,40 580,35 575,30 561,30 561,40 " style="fill:white; stroke-width:1; stroke:black; " description="&lt;b&gt;LLPMBPKK_07528&lt;/b&gt;&lt;br&gt;Methyltransferase FkbM domain protein&lt;br&gt;Location: 8775117 - 8776557" locus_tag="LLPMBPKK_07528" class="clusterblast-orf" id="dummy-33_q21_0_all"  />
<polygon points="579,40 584,40 589,35 584,30 579,30 579,40 " style="fill:white; stroke-width:1; stroke:black; " description="&lt;b&gt;LLPMBPKK_07529&lt;/b&gt;&lt;br&gt;thioesterase&lt;br&gt;Location: 8776553 - 8777294" locus_tag="LLPMBPKK_07529" class="clusterblast-orf" id="dummy-33_q22_0_all"  />
<polygon points="589,40 600,40 605,35 600,30 589,30 589,40 " style="fill:white; stroke-width:1; stroke:black; " description="&lt;b&gt;LLPMBPKK_07530&lt;/b&gt;&lt;br&gt;acyl-CoA dehydrogenase&lt;br&gt;Location: 8777290 - 8778463" locus_tag="LLPMBPKK_07530" class="clusterblast-orf" id="dummy-33_q23_0_all"  />
<polygon points="605,35 610,30 637,30 637,40 610,40 605,35 " style="fill:white; stroke-width:1; stroke:black; " description="&lt;b&gt;LLPMBPKK_07531&lt;/b&gt;&lt;br&gt;LuxR family transcriptional regulator&lt;br&gt;Location: 8778497 - 8780918" locus_tag="LLPMBPKK_07531" class="clusterblast-orf" id="dummy-33_q24_0_all"  />
<polygon points="645,40 654,40 659,35 654,30 645,30 645,40 " style="fill:white; stroke-width:1; stroke:black; " description="&lt;b&gt;LLPMBPKK_07532&lt;/b&gt;&lt;br&gt;Glyoxylate/hydroxypyruvate reductase B&lt;br&gt;Location: 8781546 - 8782569" locus_tag="LLPMBPKK_07532" class="clusterblast-orf" id="dummy-33_q25_0_all"  />
<polygon points="659,40 670,40 675,35 670,30 659,30 659,40 " style="fill:white; stroke-width:1; stroke:black; " description="&lt;b&gt;LLPMBPKK_07533&lt;/b&gt;&lt;br&gt;L-lysine 2,3-aminomutase&lt;br&gt;Location: 8782622 - 8783804" locus_tag="LLPMBPKK_07533" class="clusterblast-orf" id="dummy-33_q26_0_all"  />
<polygon points="676,40 686,40 691,35 686,30 676,30 676,40 " style="fill:white; stroke-width:1; stroke:black; " description="&lt;b&gt;LLPMBPKK_07534&lt;/b&gt;&lt;br&gt;Iron-containing redox enzyme&lt;br&gt;Location: 8783871 - 8784996" locus_tag="LLPMBPKK_07534" class="clusterblast-orf" id="dummy-33_q27_0_all"  />
<polygon points="691,40 699,40 704,35 699,30 691,30 691,40 " style="fill:white; stroke-width:1; stroke:black; " description="&lt;b&gt;LLPMBPKK_07535&lt;/b&gt;&lt;br&gt;aminotransferase&lt;br&gt;Location: 8784992 - 8786054" locus_tag="LLPMBPKK_07535" class="clusterblast-orf" id="dummy-33_q28_0_all"  />
<polygon points="706,40 716,40 721,35 716,30 706,30 706,40 " style="fill:white; stroke-width:1; stroke:black; " description="&lt;b&gt;LLPMBPKK_07536&lt;/b&gt;&lt;br&gt;S-adenosylmethionine synthetase&lt;br&gt;Location: 8786138 - 8787302" locus_tag="LLPMBPKK_07536" class="clusterblast-orf" id="dummy-33_q29_0_all"  />
<polygon points="722,40 733,40 738,35 733,30 722,30 722,40 " style="fill:white; stroke-width:1; stroke:black; " description="&lt;b&gt;LLPMBPKK_07537&lt;/b&gt;&lt;br&gt;pyridoxal phosphate-dependent aminotransferase&lt;br&gt;Location: 8787396 - 8788569" locus_tag="LLPMBPKK_07537" class="clusterblast-orf" id="dummy-33_q30_0_all"  />
<polygon points="739,35 744,30 747,30 747,40 744,40 739,35 " style="fill:white; stroke-width:1; stroke:black; " description="&lt;b&gt;LLPMBPKK_07538&lt;/b&gt;&lt;br&gt;PadR family transcriptional regulator&lt;br&gt;Location: 8788700 - 8789276" locus_tag="LLPMBPKK_07538" class="clusterblast-orf" id="dummy-33_q31_0_all"  />
<polygon points="749,40 749,40 754,35 749,30 749,30 749,40 " style="fill:white; stroke-width:1; stroke:black; " description="&lt;b&gt;LLPMBPKK_07539&lt;/b&gt;&lt;br&gt;nuclear transport factor 2 family protein&lt;br&gt;Location: 8789412 - 8789799" locus_tag="LLPMBPKK_07539" class="clusterblast-orf" id="dummy-33_q32_0_all"  />
<polygon points="755,40 758,35 755,30 755,40 " style="fill:white; stroke-width:1; stroke:black; " description="&lt;b&gt;LLPMBPKK_07540&lt;/b&gt;&lt;br&gt;hypothetical protein&lt;br&gt;Location: 8789875 - 8790142" locus_tag="LLPMBPKK_07540" class="clusterblast-orf" id="dummy-33_q33_0_all"  />
<polygon points="759,40 759,40 764,35 759,30 759,30 759,40 " style="fill:white; stroke-width:1; stroke:black; " description="&lt;b&gt;LLPMBPKK_07541&lt;/b&gt;&lt;br&gt;TIGR03618 family F420-dependent PPOX class oxidoreductase&lt;br&gt;Location: 8790172 - 8790610" locus_tag="LLPMBPKK_07541" class="clusterblast-orf" id="dummy-33_q34_0_all"  />
<polygon points="765,35 770,30 780,30 780,40 770,40 765,35 " style="fill:white; stroke-width:1; stroke:black; " description="&lt;b&gt;LLPMBPKK_07542&lt;/b&gt;&lt;br&gt;cellulose binding protein&lt;br&gt;Location: 8790662 - 8791763" locus_tag="LLPMBPKK_07542" class="clusterblast-orf" id="dummy-33_q35_0_all"  />
</g>
<g label="BGC0002417" description="BGC0002417_c1: variochelin A/variochelin B (10% of genes show similarity), NRP+Polyketide" class="clusterblast-cluster"  >
<text x="5" y="70" class="clusterblast-acc"  >
<a xlink:href="https://mibig.secondarymetabolites.org/go/BGC0002417/1" target="_blank">BGC0002417</a>:                                                      variochelin A/variochelin B (10% of genes show similarity), NRP+Polyketide</text>
<line x1="10" y1="85" x2="778.0" y2="85" style="stroke-width:1; stroke:grey; "  />
</g>
<g id="a33_000"  >
<polygon points="137,90 139,90 144,85 139,80 137,80 137,90 " style="fill:white; stroke-width:1; stroke:black; " description="&lt;b&gt;VAPA_1c38770&lt;/b&gt;&lt;br&gt;putative RNA polymerase sigma factor, sigma-70 family&lt;br&gt;Location: 38337 - 37792" locus_tag="VAPA_1c38770" class="clusterblast-orf" id="dummy-33_h33_9_0"  />
</g>
<g id="a33_001"  >
<polygon points="146,90 148,85 146,80 146,90 " style="fill:white; stroke-width:1; stroke:black; " description="&lt;b&gt;VAPA_1c38760&lt;/b&gt;&lt;br&gt;putative anti-FecI sigma factor FecR&lt;br&gt;Location: 37695 - 37492" locus_tag="VAPA_1c38760" class="clusterblast-orf" id="dummy-33_h33_9_1"  />
</g>
<g id="a33_002"  >
<polygon points="150,90 153,85 150,80 150,90 " style="fill:#d8a715; stroke-width:1; stroke:black; " description="&lt;b&gt;VAPA_1c38750&lt;/b&gt;&lt;br&gt;MbtH domain-containing protein&lt;br&gt;Location: 37391 - 37134&lt;br&gt;&lt;br&gt;&lt;b&gt;BlastP hit with LLPMBPKK_07524&lt;/b&gt;&lt;br&gt;Percentage identity: 52&lt;br&gt;Percentage coverage: 95&lt;br&gt;BLAST bit score: 66&lt;br&gt;E-value: 4.21e-16" locus_tag="VAPA_1c38750" class="clusterblast-orf" id="dummy-33_h33_9_2"  />
</g>
<g id="a33_003"  >
<polygon points="153,90 158,90 163,85 158,80 153,80 153,90 " style="fill:white; stroke-width:1; stroke:black; " description="&lt;b&gt;VAPA_1c38740&lt;/b&gt;&lt;br&gt;thioesterase domain-containing protein&lt;br&gt;Location: 37128 - 36391" locus_tag="VAPA_1c38740" class="clusterblast-orf" id="dummy-33_h33_9_3"  />
</g>
<g id="a33_004"  >
<polygon points="163,90 167,90 172,85 167,80 163,80 163,90 " style="fill:white; stroke-width:1; stroke:black; " description="&lt;b&gt;VAPA_1c38730&lt;/b&gt;&lt;br&gt;putative 4'-phosphopantetheinyl transferase&lt;br&gt;Location: 36413 - 35724" locus_tag="VAPA_1c38730" class="clusterblast-orf" id="dummy-33_h33_9_4"  />
</g>
<g id="a33_005"  >
<polygon points="172,90 180,90 185,85 180,80 172,80 172,90 " style="fill:white; stroke-width:1; stroke:black; " description="&lt;b&gt;VAPA_1c38720&lt;/b&gt;&lt;br&gt;putative alpha-ketoglutarate-dependent taurine dioxygenase TauD&lt;br&gt;Location: 35727 - 34735" locus_tag="VAPA_1c38720" class="clusterblast-orf" id="dummy-33_h33_9_5"  />
</g>
<g id="a33_006"  >
<polygon points="185,90 250,90 255,85 250,80 185,80 185,90 " style="fill:white; stroke-width:1; stroke:black; " description="&lt;b&gt;VAPA_1c38710&lt;/b&gt;&lt;br&gt;putative non-ribosomal peptide synthetase&lt;br&gt;Location: 34714 - 29399" locus_tag="VAPA_1c38710" class="clusterblast-orf" id="dummy-33_h33_9_6"  />
</g>
<g id="a33_007"  >
<polygon points="255,90 310,90 315,85 310,80 255,80 255,90 " style="fill:white; stroke-width:1; stroke:black; " description="&lt;b&gt;VAPA_1c38700&lt;/b&gt;&lt;br&gt;putative polyketide synthase&lt;br&gt;Location: 29397 - 24835" locus_tag="VAPA_1c38700" class="clusterblast-orf" id="dummy-33_h33_9_7"  />
</g>
<g id="a33_008"  >
<polygon points="315,90 354,90 359,85 354,80 315,80 315,90 " style="fill:white; stroke-width:1; stroke:black; " description="&lt;b&gt;VAPA_1c38690&lt;/b&gt;&lt;br&gt;putative non-ribosomal peptide synthetase&lt;br&gt;Location: 24838 - 21497" locus_tag="VAPA_1c38690" class="clusterblast-orf" id="dummy-33_h33_9_8"  />
</g>
<g id="a33_009"  >
<polygon points="359,90 458,90 463,85 458,80 359,80 359,90 " style="fill:#15d846; stroke-width:1; stroke:black; " description="&lt;b&gt;VAPA_1c38680&lt;/b&gt;&lt;br&gt;putative non-ribosomal peptide synthetase&lt;br&gt;Location: 21497 - 13620&lt;br&gt;&lt;br&gt;&lt;b&gt;BlastP hit with LLPMBPKK_07525&lt;/b&gt;&lt;br&gt;Percentage identity: 46&lt;br&gt;Percentage coverage: 96&lt;br&gt;BLAST bit score: 434&lt;br&gt;E-value: 3.16e-134" locus_tag="VAPA_1c38680" class="clusterblast-orf" id="dummy-33_h33_9_9"  />
</g>
<g id="a33_0010"  >
<polygon points="462,90 511,90 516,85 511,80 462,80 462,90 " style="fill:white; stroke-width:1; stroke:black; " description="&lt;b&gt;VAPA_1c38670&lt;/b&gt;&lt;br&gt;putative non-ribosomal peptide synthetase&lt;br&gt;Location: 13623 - 9550" locus_tag="VAPA_1c38670" class="clusterblast-orf" id="dummy-33_h33_9_10"  />
</g>
<g id="a33_0011"  >
<polygon points="517,85 522,80 546,80 546,90 522,90 517,85 " style="fill:white; stroke-width:1; stroke:black; " description="&lt;b&gt;VAPA_1c38660&lt;/b&gt;&lt;br&gt;putative plug domain-containing TonB-dependent receptor&lt;br&gt;Location: 9472 - 7304" locus_tag="VAPA_1c38660" class="clusterblast-orf" id="dummy-33_h33_9_11"  />
</g>
<g id="a33_0012"  >
<polygon points="548,85 553,80 566,80 566,90 553,90 548,85 " style="fill:white; stroke-width:1; stroke:black; " description="&lt;b&gt;VAPA_1c38650&lt;/b&gt;&lt;br&gt;putative monooxygenase&lt;br&gt;Location: 7141 - 5789" locus_tag="VAPA_1c38650" class="clusterblast-orf" id="dummy-33_h33_9_12"  />
</g>
<g id="a33_0013"  >
<polygon points="566,85 571,80 580,80 580,90 571,90 566,85 " style="fill:white; stroke-width:1; stroke:black; " description="&lt;b&gt;VAPA_1c38640&lt;/b&gt;&lt;br&gt;GNAT domain-containing protein&lt;br&gt;Location: 5746 - 4712" locus_tag="VAPA_1c38640" class="clusterblast-orf" id="dummy-33_h33_9_13"  />
</g>
<g id="a33_0014"  >
<polygon points="580,85 585,80 591,80 591,90 585,90 580,85 " style="fill:white; stroke-width:1; stroke:black; " description="&lt;b&gt;VAPA_1c38630&lt;/b&gt;&lt;br&gt;putative formyl transferase&lt;br&gt;Location: 4715 - 3870" locus_tag="VAPA_1c38630" class="clusterblast-orf" id="dummy-33_h33_9_14"  />
</g>
<g id="a33_0015"  >
<polygon points="592,85 597,80 603,80 603,90 597,90 592,85 " style="fill:white; stroke-width:1; stroke:black; " description="&lt;b&gt;VAPA_1c38620&lt;/b&gt;&lt;br&gt;putative ferric iron reductase&lt;br&gt;Location: 3769 - 2924" locus_tag="VAPA_1c38620" class="clusterblast-orf" id="dummy-33_h33_9_15"  />
</g>
<g id="a33_0016"  >
<polygon points="605,90 622,90 627,85 622,80 605,80 605,90 " style="fill:white; stroke-width:1; stroke:black; " description="&lt;b&gt;VAPA_1c38610&lt;/b&gt;&lt;br&gt;cyclic peptide transporter&lt;br&gt;Location: 2790 - 1099" locus_tag="VAPA_1c38610" class="clusterblast-orf" id="dummy-33_h33_9_16"  />
</g>
<g id="a33_0017"  >
<polygon points="627,90 630,85 627,80 627,90 " style="fill:white; stroke-width:1; stroke:black; " description="&lt;b&gt;VAPA_1c38600&lt;/b&gt;&lt;br&gt;hypothetical protein&lt;br&gt;Location: 1102 - 866" locus_tag="VAPA_1c38600" class="clusterblast-orf" id="dummy-33_h33_9_17"  />
</g>
<g id="a33_0018"  >
<polygon points="631,85 633,80 633,90 631,85 " style="fill:white; stroke-width:1; stroke:black; " description="&lt;b&gt;VAPA_1c38590&lt;/b&gt;&lt;br&gt;putative anti-FecI sigma factor FecR&lt;br&gt;Location: 855 - 637" locus_tag="VAPA_1c38590" class="clusterblast-orf" id="dummy-33_h33_9_18"  />
</g>
<g id="a33_0019"  >
<polygon points="634,85 639,80 642,80 642,90 639,90 634,85 " style="fill:white; stroke-width:1; stroke:black; " description="&lt;b&gt;VAPA_1c38580&lt;/b&gt;&lt;br&gt;RNA polymerase sigma factor, sigma-70 family&lt;br&gt;Location: 621 - 1" locus_tag="VAPA_1c38580" class="clusterblast-orf" id="dummy-33_h33_9_19"  />
</g>
</svg>
