<svg xmlns="http://www.w3.org/2000/svg" xmlns:xlink="http://www.w3.org/1999/xlink" version="1.1" x="0" y="0" height="100" width="800" viewBox="0 0 800 100" preserveAspectRatio="none"  >
<g label="Query sequence" class="clusterblast-cluster"  >
<text x="5" y="20" class="clusterblast-acc"  >
Query sequence</text>
<line x1="10" y1="35" x2="778.0" y2="35" style="stroke-width:1; stroke:grey; "  />
<polygon points="316,35 321,30 322,30 322,40 321,40 316,35 " style="fill:white; stroke-width:1; stroke:black; " description="&lt;b&gt;LLPMBPKK_08068&lt;/b&gt;&lt;br&gt;ACP S-malonyltransferase&lt;br&gt;Location: 9457019 - 9457946" locus_tag="LLPMBPKK_08068" class="clusterblast-orf" id="knownclusterblast-39_q0_0_all"  />
<polygon points="323,40 325,35 323,30 323,40 " style="fill:white; stroke-width:1; stroke:black; " description="&lt;b&gt;LLPMBPKK_08069&lt;/b&gt;&lt;br&gt;hypothetical protein&lt;br&gt;Location: 9458205 - 9458562" locus_tag="LLPMBPKK_08069" class="clusterblast-orf" id="knownclusterblast-39_q1_0_all"  />
<polygon points="327,40 330,35 327,30 327,40 " style="fill:white; stroke-width:1; stroke:black; " description="&lt;b&gt;LLPMBPKK_08070&lt;/b&gt;&lt;br&gt;hypothetical protein&lt;br&gt;Location: 9458801 - 9459233" locus_tag="LLPMBPKK_08070" class="clusterblast-orf" id="knownclusterblast-39_q2_0_all"  />
<polygon points="334,35 337,30 337,40 334,35 " style="fill:white; stroke-width:1; stroke:black; " description="&lt;b&gt;LLPMBPKK_08071&lt;/b&gt;&lt;br&gt;acetyltransferase&lt;br&gt;Location: 9459949 - 9460507" locus_tag="LLPMBPKK_08071" class="clusterblast-orf" id="knownclusterblast-39_q3_0_all"  />
<polygon points="337,35 342,30 343,30 343,40 342,40 337,35 " style="fill:white; stroke-width:1; stroke:black; " description="&lt;b&gt;LLPMBPKK_08072&lt;/b&gt;&lt;br&gt;transcriptional regulator&lt;br&gt;Location: 9460503 - 9461412" locus_tag="LLPMBPKK_08072" class="clusterblast-orf" id="knownclusterblast-39_q4_0_all"  />
<polygon points="347,40 350,35 347,30 347,40 " style="fill:white; stroke-width:1; stroke:black; " description="&lt;b&gt;LLPMBPKK_08073&lt;/b&gt;&lt;br&gt;hypothetical protein&lt;br&gt;Location: 9462062 - 9462605" locus_tag="LLPMBPKK_08073" class="clusterblast-orf" id="knownclusterblast-39_q5_0_all"  />
<polygon points="350,40 354,35 350,30 350,40 " style="fill:white; stroke-width:1; stroke:black; " description="&lt;b&gt;LLPMBPKK_08074&lt;/b&gt;&lt;br&gt;hypothetical protein&lt;br&gt;Location: 9462601 - 9463198" locus_tag="LLPMBPKK_08074" class="clusterblast-orf" id="knownclusterblast-39_q6_0_all"  />
<polygon points="355,40 358,35 355,30 355,40 " style="fill:white; stroke-width:1; stroke:black; " description="&lt;b&gt;LLPMBPKK_08075&lt;/b&gt;&lt;br&gt;hypothetical protein&lt;br&gt;Location: 9463384 - 9463831" locus_tag="LLPMBPKK_08075" class="clusterblast-orf" id="knownclusterblast-39_q7_0_all"  />
<polygon points="358,40 361,35 358,30 358,40 " style="fill:white; stroke-width:1; stroke:black; " description="&lt;b&gt;LLPMBPKK_08076&lt;/b&gt;&lt;br&gt;hypothetical protein&lt;br&gt;Location: 9463874 - 9464306" locus_tag="LLPMBPKK_08076" class="clusterblast-orf" id="knownclusterblast-39_q8_0_all"  />
<polygon points="361,40 361,40 366,35 361,30 361,30 361,40 " style="fill:white; stroke-width:1; stroke:black; " description="&lt;b&gt;LLPMBPKK_08077&lt;/b&gt;&lt;br&gt;hypothetical protein&lt;br&gt;Location: 9464308 - 9465136" locus_tag="LLPMBPKK_08077" class="clusterblast-orf" id="knownclusterblast-39_q9_0_all"  />
<polygon points="368,40 370,40 375,35 370,30 368,30 368,40 " style="fill:white; stroke-width:1; stroke:black; " description="&lt;b&gt;LLPMBPKK_08078&lt;/b&gt;&lt;br&gt;methyltransferase, FxLD system&lt;br&gt;Location: 9465426 - 9466674" locus_tag="LLPMBPKK_08078" class="clusterblast-orf" id="knownclusterblast-39_q10_0_all"  />
<polygon points="376,40 377,35 376,30 376,40 " style="fill:white; stroke-width:1; stroke:black; " description="&lt;b&gt;LLPMBPKK_08079&lt;/b&gt;&lt;br&gt;hypothetical protein&lt;br&gt;Location: 9466739 - 9466934" locus_tag="LLPMBPKK_08079" class="clusterblast-orf" id="knownclusterblast-39_q11_0_all"  />
<polygon points="377,40 391,40 396,35 391,30 377,30 377,40 " style="fill:white; stroke-width:1; stroke:black; " description="&lt;b&gt;LLPMBPKK_08080&lt;/b&gt;&lt;br&gt;lantibiotic dehydratase&lt;br&gt;Location: 9467004 - 9470028" locus_tag="LLPMBPKK_08080" class="clusterblast-orf" id="knownclusterblast-39_q12_0_all"  />
<polygon points="396,40 398,40 403,35 398,30 396,30 396,40 " style="fill:white; stroke-width:1; stroke:black; " description="&lt;b&gt;LLPMBPKK_08081&lt;/b&gt;&lt;br&gt;lanthionine synthetase&lt;br&gt;Location: 9470024 - 9471173" locus_tag="LLPMBPKK_08081" class="clusterblast-orf" id="knownclusterblast-39_q13_0_all"  />
<polygon points="403,40 406,35 403,30 403,40 " style="fill:white; stroke-width:1; stroke:black; " description="&lt;b&gt;LLPMBPKK_08082&lt;/b&gt;&lt;br&gt;hypothetical protein&lt;br&gt;Location: 9471186 - 9471645" locus_tag="LLPMBPKK_08082" class="clusterblast-orf" id="knownclusterblast-39_q14_0_all"  />
<polygon points="406,40 409,35 406,30 406,40 " style="fill:white; stroke-width:1; stroke:black; " description="&lt;b&gt;LLPMBPKK_08083&lt;/b&gt;&lt;br&gt;methyltransferase&lt;br&gt;Location: 9471617 - 9472142" locus_tag="LLPMBPKK_08083" class="clusterblast-orf" id="knownclusterblast-39_q15_0_all"  />
<polygon points="410,35 414,30 414,40 410,35 " style="fill:white; stroke-width:1; stroke:black; " description="&lt;b&gt;LLPMBPKK_08084&lt;/b&gt;&lt;br&gt;hypothetical protein&lt;br&gt;Location: 9472302 - 9472926" locus_tag="LLPMBPKK_08084" class="clusterblast-orf" id="knownclusterblast-39_q16_0_all"  />
<polygon points="416,40 420,35 416,30 416,40 " style="fill:white; stroke-width:1; stroke:black; " description="&lt;b&gt;LLPMBPKK_08085&lt;/b&gt;&lt;br&gt;IS5 family transposase&lt;br&gt;Location: 9473333 - 9473852" locus_tag="LLPMBPKK_08085" class="clusterblast-orf" id="knownclusterblast-39_q17_0_all"  />
<polygon points="420,40 422,35 420,30 420,40 " style="fill:white; stroke-width:1; stroke:black; " description="&lt;b&gt;LLPMBPKK_08086&lt;/b&gt;&lt;br&gt;SMI1/KNR4 family protein&lt;br&gt;Location: 9473862 - 9474300" locus_tag="LLPMBPKK_08086" class="clusterblast-orf" id="knownclusterblast-39_q18_0_all"  />
<polygon points="423,40 426,35 423,30 423,40 " style="fill:#d81515; stroke-width:1; stroke:black; " description="&lt;b&gt;LLPMBPKK_08087&lt;/b&gt;&lt;br&gt;transposase&lt;br&gt;Location: 9474389 - 9474830" locus_tag="LLPMBPKK_08087" class="clusterblast-orf" id="knownclusterblast-39_q19_0_all"  />
<polygon points="427,40 428,35 427,30 427,40 " style="fill:#15d8d8; stroke-width:1; stroke:black; " description="&lt;b&gt;LLPMBPKK_08088&lt;/b&gt;&lt;br&gt;transposase&lt;br&gt;Location: 9475031 - 9475232" locus_tag="LLPMBPKK_08088" class="clusterblast-orf" id="knownclusterblast-39_q20_0_all"  />
<polygon points="428,40 431,35 428,30 428,40 " style="fill:white; stroke-width:1; stroke:black; " description="&lt;b&gt;LLPMBPKK_08089&lt;/b&gt;&lt;br&gt;hypothetical protein&lt;br&gt;Location: 9475307 - 9475664" locus_tag="LLPMBPKK_08089" class="clusterblast-orf" id="knownclusterblast-39_q21_0_all"  />
<polygon points="434,35 436,30 436,40 434,35 " style="fill:white; stroke-width:1; stroke:black; " description="&lt;b&gt;LLPMBPKK_08090&lt;/b&gt;&lt;br&gt;hypothetical protein&lt;br&gt;Location: 9476175 - 9476541" locus_tag="LLPMBPKK_08090" class="clusterblast-orf" id="knownclusterblast-39_q22_0_all"  />
<polygon points="437,40 437,40 442,35 437,30 437,30 437,40 " style="fill:white; stroke-width:1; stroke:black; " description="&lt;b&gt;LLPMBPKK_08091&lt;/b&gt;&lt;br&gt;LysR family transcriptional regulator&lt;br&gt;Location: 9476639 - 9477536" locus_tag="LLPMBPKK_08091" class="clusterblast-orf" id="knownclusterblast-39_q23_0_all"  />
<polygon points="444,35 445,30 445,40 444,35 " style="fill:white; stroke-width:1; stroke:black; " description="&lt;b&gt;LLPMBPKK_08092&lt;/b&gt;&lt;br&gt;hypothetical protein&lt;br&gt;Location: 9477787 - 9478042" locus_tag="LLPMBPKK_08092" class="clusterblast-orf" id="knownclusterblast-39_q24_0_all"  />
<polygon points="447,35 452,30 454,30 454,40 452,40 447,35 " style="fill:white; stroke-width:1; stroke:black; " description="&lt;b&gt;LLPMBPKK_08093&lt;/b&gt;&lt;br&gt;acyl-CoA dehydrogenase&lt;br&gt;Location: 9478324 - 9479530" locus_tag="LLPMBPKK_08093" class="clusterblast-orf" id="knownclusterblast-39_q25_0_all"  />
<polygon points="460,35 461,30 461,40 460,35 " style="fill:white; stroke-width:1; stroke:black; " description="&lt;b&gt;LLPMBPKK_08094&lt;/b&gt;&lt;br&gt;hypothetical protein&lt;br&gt;Location: 9480423 - 9480603" locus_tag="LLPMBPKK_08094" class="clusterblast-orf" id="knownclusterblast-39_q26_0_all"  />
<polygon points="462,40 463,35 462,30 462,40 " style="fill:white; stroke-width:1; stroke:black; " description="&lt;b&gt;LLPMBPKK_08095&lt;/b&gt;&lt;br&gt;hypothetical protein&lt;br&gt;Location: 9480704 - 9480947" locus_tag="LLPMBPKK_08095" class="clusterblast-orf" id="knownclusterblast-39_q27_0_all"  />
</g>
<g label="BGC0000291" description="BGC0000291_c1: A54145 (3% of genes show similarity), NRP" class="clusterblast-cluster"  >
<text x="5" y="70" class="clusterblast-acc"  >
<a xlink:href="https://mibig.secondarymetabolites.org/go/BGC0000291/1" target="_blank">BGC0000291</a>:                                                                           A54145 (3% of genes show similarity), NRP</text>
<line x1="10" y1="85" x2="778.0" y2="85" style="stroke-width:1; stroke:grey; "  />
</g>
<g id="a39_000"  >
<polygon points="0,90 0,90 5,85 0,80 0,80 0,90 " style="fill:white; stroke-width:1; stroke:black; " description="&lt;b&gt;AAZ23044.1&lt;/b&gt;&lt;br&gt;hypothetical protein&lt;br&gt;Location: 1 - 851" locus_tag="AAZ23044.1" class="clusterblast-orf" id="knownclusterblast-39_all_39_1_0"  />
</g>
<g id="a39_001"  >
<polygon points="5,90 10,90 15,85 10,80 5,80 5,90 " style="fill:white; stroke-width:1; stroke:black; " description="&lt;b&gt;AAZ23045.1&lt;/b&gt;&lt;br&gt;probable p-aminobenzoyl-glutamate transporter&lt;br&gt;Location: 848 - 2473" locus_tag="AAZ23045.1" class="clusterblast-orf" id="knownclusterblast-39_all_39_1_1"  />
</g>
<g id="a39_002"  >
<polygon points="20,85 25,80 30,80 30,90 25,90 20,85 " style="fill:white; stroke-width:1; stroke:black; " description="&lt;b&gt;AAZ23046.1&lt;/b&gt;&lt;br&gt;probable histidine ammonia-lyase&lt;br&gt;Location: 3365 - 4900" locus_tag="AAZ23046.1" class="clusterblast-orf" id="knownclusterblast-39_all_39_1_2"  />
</g>
<g id="a39_003"  >
<polygon points="31,90 35,85 31,80 31,90 " style="fill:white; stroke-width:1; stroke:black; " description="&lt;b&gt;AAZ23047.1&lt;/b&gt;&lt;br&gt;transcriptional regulator&lt;br&gt;Location: 5048 - 5815" locus_tag="AAZ23047.1" class="clusterblast-orf" id="knownclusterblast-39_all_39_1_3"  />
</g>
<g id="a39_004"  >
<polygon points="41,90 41,90 46,85 41,80 41,80 41,90 " style="fill:white; stroke-width:1; stroke:black; " description="&lt;b&gt;AAZ23048.1&lt;/b&gt;&lt;br&gt;probable hydrolase&lt;br&gt;Location: 6739 - 7635" locus_tag="AAZ23048.1" class="clusterblast-orf" id="knownclusterblast-39_all_39_1_4"  />
</g>
<g id="a39_005"  >
<polygon points="55,90 56,90 61,85 56,80 55,80 55,90 " style="fill:white; stroke-width:1; stroke:black; " description="&lt;b&gt;AAZ23049.1&lt;/b&gt;&lt;br&gt;possible oxidoreductase&lt;br&gt;Location: 8966 - 10024" locus_tag="AAZ23049.1" class="clusterblast-orf" id="knownclusterblast-39_all_39_1_5"  />
</g>
<g id="a39_006"  >
<polygon points="61,90 64,85 61,80 61,90 " style="fill:white; stroke-width:1; stroke:black; " description="&lt;b&gt;AAZ23050.1&lt;/b&gt;&lt;br&gt;hypothetical protein&lt;br&gt;Location: 10027 - 10467" locus_tag="AAZ23050.1" class="clusterblast-orf" id="knownclusterblast-39_all_39_1_6"  />
</g>
<g id="a39_007"  >
<polygon points="69,85 74,80 79,80 79,90 74,90 69,85 " style="fill:white; stroke-width:1; stroke:black; " description="&lt;b&gt;AAZ23051.1&lt;/b&gt;&lt;br&gt;probable sugar kinase&lt;br&gt;Location: 11363 - 12862" locus_tag="AAZ23051.1" class="clusterblast-orf" id="knownclusterblast-39_all_39_1_7"  />
</g>
<g id="a39_008"  >
<polygon points="80,85 85,80 92,80 92,90 85,90 80,85 " style="fill:white; stroke-width:1; stroke:black; " description="&lt;b&gt;AAZ23052.1&lt;/b&gt;&lt;br&gt;probable dehydrogenase&lt;br&gt;Location: 13059 - 15098" locus_tag="AAZ23052.1" class="clusterblast-orf" id="knownclusterblast-39_all_39_1_8"  />
</g>
<g id="a39_009"  >
<polygon points="93,85 98,80 100,80 100,90 98,90 93,85 " style="fill:white; stroke-width:1; stroke:black; " description="&lt;b&gt;AAZ23053.1&lt;/b&gt;&lt;br&gt;probable sugar isomerase&lt;br&gt;Location: 15190 - 16359" locus_tag="AAZ23053.1" class="clusterblast-orf" id="knownclusterblast-39_all_39_1_9"  />
</g>
<g id="a39_0010"  >
<polygon points="113,90 113,90 118,85 113,80 113,80 113,90 " style="fill:white; stroke-width:1; stroke:black; " description="&lt;b&gt;AAZ23054.1&lt;/b&gt;&lt;br&gt;hypothetical protein&lt;br&gt;Location: 18507 - 19304" locus_tag="AAZ23054.1" class="clusterblast-orf" id="knownclusterblast-39_all_39_1_10"  />
</g>
<g id="a39_0011"  >
<polygon points="118,85 123,80 125,80 125,90 123,90 118,85 " style="fill:white; stroke-width:1; stroke:black; " description="&lt;b&gt;AAZ23055.1&lt;/b&gt;&lt;br&gt;hypothetical protein&lt;br&gt;Location: 19323 - 20366" locus_tag="AAZ23055.1" class="clusterblast-orf" id="knownclusterblast-39_all_39_1_11"  />
</g>
<g id="a39_0012"  >
<polygon points="127,85 132,80 134,80 134,90 132,90 127,85 " style="fill:white; stroke-width:1; stroke:black; " description="&lt;b&gt;AAZ23056.1&lt;/b&gt;&lt;br&gt;hypothetical protein&lt;br&gt;Location: 20753 - 21838" locus_tag="AAZ23056.1" class="clusterblast-orf" id="knownclusterblast-39_all_39_1_12"  />
</g>
<g id="a39_0013"  >
<polygon points="134,85 139,80 142,80 142,90 139,90 134,85 " style="fill:white; stroke-width:1; stroke:black; " description="&lt;b&gt;AAZ23057.1&lt;/b&gt;&lt;br&gt;probable integral membrane protein&lt;br&gt;Location: 21918 - 23210" locus_tag="AAZ23057.1" class="clusterblast-orf" id="knownclusterblast-39_all_39_1_13"  />
</g>
<g id="a39_0014"  >
<polygon points="142,85 147,80 149,80 149,90 147,90 142,85 " style="fill:white; stroke-width:1; stroke:black; " description="&lt;b&gt;AAZ23058.1&lt;/b&gt;&lt;br&gt;probable secreted protein&lt;br&gt;Location: 23207 - 24364" locus_tag="AAZ23058.1" class="clusterblast-orf" id="knownclusterblast-39_all_39_1_14"  />
</g>
<g id="a39_0015"  >
<polygon points="151,85 155,80 155,90 151,85 " style="fill:white; stroke-width:1; stroke:black; " description="&lt;b&gt;AAZ23059.1&lt;/b&gt;&lt;br&gt;probable putative response regulator&lt;br&gt;Location: 24542 - 25225" locus_tag="AAZ23059.1" class="clusterblast-orf" id="knownclusterblast-39_all_39_1_15"  />
</g>
<g id="a39_0016"  >
<polygon points="155,85 160,80 163,80 163,90 160,90 155,85 " style="fill:white; stroke-width:1; stroke:black; " description="&lt;b&gt;AAZ23060.1&lt;/b&gt;&lt;br&gt;probable sensor kinase&lt;br&gt;Location: 25222 - 26619" locus_tag="AAZ23060.1" class="clusterblast-orf" id="knownclusterblast-39_all_39_1_16"  />
</g>
<g id="a39_0017"  >
<polygon points="164,85 169,80 174,80 174,90 169,90 164,85 " style="fill:white; stroke-width:1; stroke:black; " description="&lt;b&gt;AAZ23061.1&lt;/b&gt;&lt;br&gt;probable D-aminoacylase&lt;br&gt;Location: 26669 - 28321" locus_tag="AAZ23061.1" class="clusterblast-orf" id="knownclusterblast-39_all_39_1_17"  />
</g>
<g id="a39_0018"  >
<polygon points="174,85 179,80 183,80 183,90 179,90 174,85 " style="fill:white; stroke-width:1; stroke:black; " description="&lt;b&gt;AAZ23062.1&lt;/b&gt;&lt;br&gt;possible permease&lt;br&gt;Location: 28359 - 29798" locus_tag="AAZ23062.1" class="clusterblast-orf" id="knownclusterblast-39_all_39_1_18"  />
</g>
<g id="a39_0019"  >
<polygon points="183,85 188,80 192,80 192,90 188,90 183,85 " style="fill:white; stroke-width:1; stroke:black; " description="&lt;b&gt;AAZ23063.1&lt;/b&gt;&lt;br&gt;probable decarboxylase&lt;br&gt;Location: 29795 - 31207" locus_tag="AAZ23063.1" class="clusterblast-orf" id="knownclusterblast-39_all_39_1_19"  />
</g>
<g id="a39_0020"  >
<polygon points="192,85 197,80 203,80 203,90 197,90 192,85 " style="fill:white; stroke-width:1; stroke:black; " description="&lt;b&gt;AAZ23064.1&lt;/b&gt;&lt;br&gt;possible DNA-binding protein&lt;br&gt;Location: 31333 - 33018" locus_tag="AAZ23064.1" class="clusterblast-orf" id="knownclusterblast-39_all_39_1_20"  />
</g>
<g id="a39_0021"  >
<polygon points="203,85 208,80 211,80 211,90 208,90 203,85 " style="fill:white; stroke-width:1; stroke:black; " description="&lt;b&gt;AAZ23065.1&lt;/b&gt;&lt;br&gt;hypothetical protein&lt;br&gt;Location: 33118 - 34419" locus_tag="AAZ23065.1" class="clusterblast-orf" id="knownclusterblast-39_all_39_1_21"  />
</g>
<g id="a39_0022"  >
<polygon points="211,90 215,85 211,80 211,90 " style="fill:white; stroke-width:1; stroke:black; " description="&lt;b&gt;AAZ23066.1&lt;/b&gt;&lt;br&gt;hypothetical protein&lt;br&gt;Location: 34423 - 35001" locus_tag="AAZ23066.1" class="clusterblast-orf" id="knownclusterblast-39_all_39_1_22"  />
</g>
<g id="a39_0023"  >
<polygon points="215,90 218,85 215,80 215,90 " style="fill:white; stroke-width:1; stroke:black; " description="&lt;b&gt;AAZ23067.1&lt;/b&gt;&lt;br&gt;hypothetical protein&lt;br&gt;Location: 34950 - 35426" locus_tag="AAZ23067.1" class="clusterblast-orf" id="knownclusterblast-39_all_39_1_23"  />
</g>
<g id="a39_0024"  >
<polygon points="218,85 223,80 227,80 227,90 223,90 218,85 " style="fill:white; stroke-width:1; stroke:black; " description="&lt;b&gt;AAZ23068.1&lt;/b&gt;&lt;br&gt;hypothetical protein&lt;br&gt;Location: 35510 - 36931" locus_tag="AAZ23068.1" class="clusterblast-orf" id="knownclusterblast-39_all_39_1_24"  />
</g>
<g id="a39_0025"  >
<polygon points="229,90 229,90 234,85 229,80 229,80 229,90 " style="fill:white; stroke-width:1; stroke:black; " description="&lt;b&gt;AAZ23069.1&lt;/b&gt;&lt;br&gt;hypothetical protein&lt;br&gt;Location: 37360 - 38181" locus_tag="AAZ23069.1" class="clusterblast-orf" id="knownclusterblast-39_all_39_1_25"  />
</g>
<g id="a39_0026"  >
<polygon points="235,85 239,80 239,90 235,85 " style="fill:white; stroke-width:1; stroke:black; " description="&lt;b&gt;AAZ23070.1&lt;/b&gt;&lt;br&gt;possible response regulator&lt;br&gt;Location: 38233 - 38958" locus_tag="AAZ23070.1" class="clusterblast-orf" id="knownclusterblast-39_all_39_1_26"  />
</g>
<g id="a39_0027"  >
<polygon points="239,85 244,80 244,80 244,90 244,90 239,85 " style="fill:white; stroke-width:1; stroke:black; " description="&lt;b&gt;AAZ23071.1&lt;/b&gt;&lt;br&gt;possible sensor kinase&lt;br&gt;Location: 38955 - 39803" locus_tag="AAZ23071.1" class="clusterblast-orf" id="knownclusterblast-39_all_39_1_27"  />
</g>
<g id="a39_0028"  >
<polygon points="245,90 245,90 250,85 245,80 245,80 245,90 " style="fill:white; stroke-width:1; stroke:black; " description="&lt;b&gt;AAZ23072.1&lt;/b&gt;&lt;br&gt;hypothetical protein&lt;br&gt;Location: 39941 - 40651" locus_tag="AAZ23072.1" class="clusterblast-orf" id="knownclusterblast-39_all_39_1_28"  />
</g>
<g id="a39_0029"  >
<polygon points="250,90 259,90 264,85 259,80 250,80 250,90 " style="fill:white; stroke-width:1; stroke:black; " description="&lt;b&gt;AAZ23073.1&lt;/b&gt;&lt;br&gt;hypothetical protein&lt;br&gt;Location: 40648 - 42957" locus_tag="AAZ23073.1" class="clusterblast-orf" id="knownclusterblast-39_all_39_1_29"  />
</g>
<g id="a39_0030"  >
<polygon points="268,90 276,90 281,85 276,80 268,80 268,90 " style="fill:white; stroke-width:1; stroke:black; " description="&lt;b&gt;AAZ23074.1&lt;/b&gt;&lt;br&gt;acyl-CoA ligase&lt;br&gt;Location: 43616 - 45814" locus_tag="AAZ23074.1" class="clusterblast-orf" id="knownclusterblast-39_all_39_1_30"  />
</g>
<g id="a39_0031"  >
<polygon points="282,90 393,90 398,85 393,80 282,80 282,90 " style="fill:white; stroke-width:1; stroke:black; " description="&lt;b&gt;AAZ23075.1&lt;/b&gt;&lt;br&gt;peptide synthetase&lt;br&gt;Location: 45924 - 64802" locus_tag="AAZ23075.1" class="clusterblast-orf" id="knownclusterblast-39_all_39_1_31"  />
</g>
<g id="a39_0032"  >
<polygon points="398,90 433,90 438,85 433,80 398,80 398,90 " style="fill:white; stroke-width:1; stroke:black; " description="&lt;b&gt;AAZ23076.1&lt;/b&gt;&lt;br&gt;peptide synthetase&lt;br&gt;Location: 64799 - 71230" locus_tag="AAZ23076.1" class="clusterblast-orf" id="knownclusterblast-39_all_39_1_32"  />
</g>
<g id="a39_0033"  >
<polygon points="438,90 530,90 535,85 530,80 438,80 438,90 " style="fill:white; stroke-width:1; stroke:black; " description="&lt;b&gt;AAZ23077.1&lt;/b&gt;&lt;br&gt;peptide synthetase&lt;br&gt;Location: 71227 - 86967" locus_tag="AAZ23077.1" class="clusterblast-orf" id="knownclusterblast-39_all_39_1_33"  />
</g>
<g id="a39_0034"  >
<polygon points="535,90 574,90 579,85 574,80 535,80 535,90 " style="fill:white; stroke-width:1; stroke:black; " description="&lt;b&gt;AAZ23078.1&lt;/b&gt;&lt;br&gt;peptide synthetase&lt;br&gt;Location: 86967 - 94121" locus_tag="AAZ23078.1" class="clusterblast-orf" id="knownclusterblast-39_all_39_1_34"  />
</g>
<g id="a39_0035"  >
<polygon points="579,90 580,85 579,80 579,90 " style="fill:white; stroke-width:1; stroke:black; " description="&lt;b&gt;AAZ23079.1&lt;/b&gt;&lt;br&gt;hypothetical protein&lt;br&gt;Location: 94118 - 94360" locus_tag="AAZ23079.1" class="clusterblast-orf" id="knownclusterblast-39_all_39_1_35"  />
</g>
<g id="a39_0036"  >
<polygon points="581,90 581,90 586,85 581,80 581,80 581,90 " style="fill:white; stroke-width:1; stroke:black; " description="&lt;b&gt;AAZ23080.1&lt;/b&gt;&lt;br&gt;possible thioesterase&lt;br&gt;Location: 94443 - 95237" locus_tag="AAZ23080.1" class="clusterblast-orf" id="knownclusterblast-39_all_39_1_36"  />
</g>
<g id="a39_0037"  >
<polygon points="586,90 587,90 592,85 587,80 586,80 586,90 " style="fill:white; stroke-width:1; stroke:black; " description="&lt;b&gt;AAZ23081.1&lt;/b&gt;&lt;br&gt;hypothetical protein&lt;br&gt;Location: 95249 - 96244" locus_tag="AAZ23081.1" class="clusterblast-orf" id="knownclusterblast-39_all_39_1_37"  />
</g>
<g id="a39_0038"  >
<polygon points="592,90 592,90 597,85 592,80 592,80 592,90 " style="fill:white; stroke-width:1; stroke:black; " description="&lt;b&gt;AAZ23082.1&lt;/b&gt;&lt;br&gt;possible O-methyltransferase&lt;br&gt;Location: 96241 - 97029" locus_tag="AAZ23082.1" class="clusterblast-orf" id="knownclusterblast-39_all_39_1_38"  />
</g>
<g id="a39_0039"  >
<polygon points="597,90 598,90 603,85 598,80 597,80 597,90 " style="fill:white; stroke-width:1; stroke:black; " description="&lt;b&gt;AAZ23083.1&lt;/b&gt;&lt;br&gt;possible hydrolase&lt;br&gt;Location: 97099 - 98058" locus_tag="AAZ23083.1" class="clusterblast-orf" id="knownclusterblast-39_all_39_1_39"  />
</g>
<g id="a39_0040"  >
<polygon points="603,90 605,90 610,85 605,80 603,80 603,90 " style="fill:white; stroke-width:1; stroke:black; " description="&lt;b&gt;AAZ23084.1&lt;/b&gt;&lt;br&gt;possible ABC transporter&lt;br&gt;Location: 98058 - 99119" locus_tag="AAZ23084.1" class="clusterblast-orf" id="knownclusterblast-39_all_39_1_40"  />
</g>
<g id="a39_0041"  >
<polygon points="610,90 610,90 615,85 610,80 610,80 610,90 " style="fill:white; stroke-width:1; stroke:black; " description="&lt;b&gt;AAZ23085.1&lt;/b&gt;&lt;br&gt;possible ABC transporter permease&lt;br&gt;Location: 99116 - 99964" locus_tag="AAZ23085.1" class="clusterblast-orf" id="knownclusterblast-39_all_39_1_41"  />
</g>
<g id="a39_0042"  >
<polygon points="615,85 619,80 619,90 615,85 " style="fill:white; stroke-width:1; stroke:black; " description="&lt;b&gt;AAZ23086.1&lt;/b&gt;&lt;br&gt;hypothetical protein&lt;br&gt;Location: 100029 - 100649" locus_tag="AAZ23086.1" class="clusterblast-orf" id="knownclusterblast-39_all_39_1_42"  />
</g>
<g id="a39_0043"  >
<polygon points="624,90 626,90 631,85 626,80 624,80 624,90 " style="fill:white; stroke-width:1; stroke:black; " description="&lt;b&gt;AAZ23087.1&lt;/b&gt;&lt;br&gt;possible methyltransferase&lt;br&gt;Location: 101479 - 102537" locus_tag="AAZ23087.1" class="clusterblast-orf" id="knownclusterblast-39_all_39_1_43"  />
</g>
<g id="a39_0044"  >
<polygon points="641,90 642,90 647,85 642,80 641,80 641,90 " style="fill:white; stroke-width:1; stroke:black; " description="&lt;b&gt;AAZ23088.1&lt;/b&gt;&lt;br&gt;possible regulator&lt;br&gt;Location: 104185 - 105123" locus_tag="AAZ23088.1" class="clusterblast-orf" id="knownclusterblast-39_all_39_1_44"  />
</g>
<g id="a39_0045"  >
<polygon points="648,90 650,85 648,80 648,90 " style="fill:white; stroke-width:1; stroke:black; " description="&lt;b&gt;AAZ23089.1&lt;/b&gt;&lt;br&gt;hypothetical protein&lt;br&gt;Location: 105287 - 105697" locus_tag="AAZ23089.1" class="clusterblast-orf" id="knownclusterblast-39_all_39_1_45"  />
</g>
<g id="a39_0046"  >
<polygon points="650,85 651,80 651,90 650,85 " style="fill:white; stroke-width:1; stroke:black; " description="&lt;b&gt;AAZ23090.1&lt;/b&gt;&lt;br&gt;hypothetical protein&lt;br&gt;Location: 105694 - 105879" locus_tag="AAZ23090.1" class="clusterblast-orf" id="knownclusterblast-39_all_39_1_46"  />
</g>
<g id="a39_0047"  >
<polygon points="654,85 659,80 660,80 660,90 659,90 654,85 " style="fill:white; stroke-width:1; stroke:black; " description="&lt;b&gt;AAZ23091.1&lt;/b&gt;&lt;br&gt;possible transposase&lt;br&gt;Location: 106395 - 107252" locus_tag="AAZ23091.1" class="clusterblast-orf" id="knownclusterblast-39_all_39_1_47"  />
</g>
<g id="a39_0048"  >
<polygon points="681,85 686,80 694,80 694,90 686,90 681,85 " style="fill:white; stroke-width:1; stroke:black; " description="&lt;b&gt;AAZ23092.1&lt;/b&gt;&lt;br&gt;possible protein kinase&lt;br&gt;Location: 110701 - 112812" locus_tag="AAZ23092.1" class="clusterblast-orf" id="knownclusterblast-39_all_39_1_48"  />
</g>
<g id="a39_0049"  >
<polygon points="694,85 696,80 696,90 694,85 " style="fill:white; stroke-width:1; stroke:black; " description="&lt;b&gt;AAZ23093.1&lt;/b&gt;&lt;br&gt;hypothetical protein&lt;br&gt;Location: 112824 - 113243" locus_tag="AAZ23093.1" class="clusterblast-orf" id="knownclusterblast-39_all_39_1_49"  />
</g>
<g id="a39_0050"  >
<polygon points="701,85 705,80 705,90 701,85 " style="fill:white; stroke-width:1; stroke:black; " description="&lt;b&gt;AAZ23094.1&lt;/b&gt;&lt;br&gt;possible transposase&lt;br&gt;Location: 113931 - 114662" locus_tag="AAZ23094.1" class="clusterblast-orf" id="knownclusterblast-39_all_39_1_50"  />
</g>
<g id="a39_0051"  >
<polygon points="726,90 730,90 735,85 730,80 726,80 726,90 " style="fill:white; stroke-width:1; stroke:black; " description="&lt;b&gt;AAZ23095.1&lt;/b&gt;&lt;br&gt;possible DNA helicase&lt;br&gt;Location: 118101 - 119465" locus_tag="AAZ23095.1" class="clusterblast-orf" id="knownclusterblast-39_all_39_1_51"  />
</g>
<g id="a39_0052"  >
<polygon points="732,85 737,80 738,80 738,90 737,90 732,85 " style="fill:white; stroke-width:1; stroke:black; " description="&lt;b&gt;AAZ23096.1&lt;/b&gt;&lt;br&gt;hypothetical protein&lt;br&gt;Location: 118989 - 120017" locus_tag="AAZ23096.1" class="clusterblast-orf" id="knownclusterblast-39_all_39_1_52"  />
</g>
<g id="a39_0053"  >
<polygon points="738,85 743,80 743,80 743,90 743,90 738,85 " style="fill:white; stroke-width:1; stroke:black; " description="&lt;b&gt;AAZ23097.1&lt;/b&gt;&lt;br&gt;hypothetical protein&lt;br&gt;Location: 120066 - 120731" locus_tag="AAZ23097.1" class="clusterblast-orf" id="knownclusterblast-39_all_39_1_53"  />
</g>
<g id="a39_0054"  >
<polygon points="748,90 750,85 748,80 748,90 " style="fill:white; stroke-width:1; stroke:black; " description="&lt;b&gt;AAZ23098.1&lt;/b&gt;&lt;br&gt;hypothetical protein&lt;br&gt;Location: 121573 - 121971" locus_tag="AAZ23098.1" class="clusterblast-orf" id="knownclusterblast-39_all_39_1_54"  />
</g>
<g id="a39_0055"  >
<polygon points="752,85 757,80 758,80 758,90 757,90 752,85 " style="fill:white; stroke-width:1; stroke:black; " description="&lt;b&gt;AAZ23099.1&lt;/b&gt;&lt;br&gt;probable transposase&lt;br&gt;Location: 122339 - 123214" locus_tag="AAZ23099.1" class="clusterblast-orf" id="knownclusterblast-39_all_39_1_55"  />
</g>
<g id="a39_0056"  >
<polygon points="759,90 761,85 759,80 759,90 " style="fill:white; stroke-width:1; stroke:black; " description="&lt;b&gt;AAZ23100.1&lt;/b&gt;&lt;br&gt;hypothetical protein&lt;br&gt;Location: 123359 - 123673" locus_tag="AAZ23100.1" class="clusterblast-orf" id="knownclusterblast-39_all_39_1_56"  />
</g>
<g id="a39_0057"  >
<polygon points="762,90 765,85 762,80 762,90 " style="fill:#d81515; stroke-width:1; stroke:black; " description="&lt;b&gt;AAZ23101.1&lt;/b&gt;&lt;br&gt;possible transposase&lt;br&gt;Location: 123917 - 124387&lt;br&gt;&lt;br&gt;&lt;b&gt;BlastP hit with LLPMBPKK_08087&lt;/b&gt;&lt;br&gt;Percentage identity: 66&lt;br&gt;Percentage coverage: 86&lt;br&gt;BLAST bit score: 177&lt;br&gt;E-value: 8.8e-58" locus_tag="AAZ23101.1" class="clusterblast-orf" id="knownclusterblast-39_all_39_1_57"  />
</g>
<g id="a39_0058"  >
<polygon points="765,90 767,85 765,80 765,90 " style="fill:#15d8d8; stroke-width:1; stroke:black; " description="&lt;b&gt;AAZ23102.1&lt;/b&gt;&lt;br&gt;possible transposase&lt;br&gt;Location: 124378 - 124752&lt;br&gt;&lt;br&gt;&lt;b&gt;BlastP hit with LLPMBPKK_08088&lt;/b&gt;&lt;br&gt;Percentage identity: 72&lt;br&gt;Percentage coverage: 98&lt;br&gt;BLAST bit score: 108&lt;br&gt;E-value: 2.27e-32" locus_tag="AAZ23102.1" class="clusterblast-orf" id="knownclusterblast-39_all_39_1_58"  />
</g>
<g id="a39_0059"  >
<polygon points="774,90 775,90 780,85 775,80 774,80 774,90 " style="fill:white; stroke-width:1; stroke:black; " description="&lt;b&gt;AAZ23103.1&lt;/b&gt;&lt;br&gt;hypothetical protein&lt;br&gt;Location: 125782 - 126729" locus_tag="AAZ23103.1" class="clusterblast-orf" id="knownclusterblast-39_all_39_1_59"  />
</g>
</svg>
