<svg xmlns="http://www.w3.org/2000/svg" xmlns:xlink="http://www.w3.org/1999/xlink" version="1.1" x="0" y="0" height="230" width="800" viewBox="0 0 800 230" preserveAspectRatio="none"  >
<g label="Query sequence" class="clusterblast-cluster"  >
<text x="5" y="20" class="clusterblast-acc"  >
Query sequence</text>
<line x1="10" y1="35" x2="778.0" y2="35" style="stroke-width:1; stroke:grey; "  />
<polygon points="110,35 115,30 130,30 130,40 115,40 110,35 " style="fill:white; stroke-width:1; stroke:black; " description="&lt;b&gt;LLPMBPKK_06758&lt;/b&gt;&lt;br&gt;cation transporter&lt;br&gt;Location: 7791080 - 7792022" locus_tag="LLPMBPKK_06758" class="clusterblast-orf" id="dummy-29_q0_0_all"  />
<polygon points="135,35 140,30 156,30 156,40 140,40 135,35 " style="fill:white; stroke-width:1; stroke:black; " description="&lt;b&gt;LLPMBPKK_06759&lt;/b&gt;&lt;br&gt;UDP-glucose 4-epimerase GalE&lt;br&gt;Location: 7792229 - 7793201" locus_tag="LLPMBPKK_06759" class="clusterblast-orf" id="dummy-29_q1_0_all"  />
<polygon points="162,40 197,40 202,35 197,30 162,30 162,40 " style="fill:white; stroke-width:1; stroke:black; " description="&lt;b&gt;LLPMBPKK_06760&lt;/b&gt;&lt;br&gt;CDP-alcohol phosphatidyltransferase familyprotein&lt;br&gt;Location: 7793467 - 7795288" locus_tag="LLPMBPKK_06760" class="clusterblast-orf" id="dummy-29_q2_0_all"  />
<polygon points="202,40 213,40 218,35 213,30 202,30 202,40 " style="fill:#d81515; stroke-width:1; stroke:black; " description="&lt;b&gt;LLPMBPKK_06761&lt;/b&gt;&lt;br&gt;phosphocholine cytidylyltransferase familyprotein&lt;br&gt;Location: 7795284 - 7796037" locus_tag="LLPMBPKK_06761" class="clusterblast-orf" id="dummy-29_q3_0_all"  />
<polygon points="218,40 236,40 241,35 236,30 218,30 218,40 " style="fill:#4dd815; stroke-width:1; stroke:black; " description="&lt;b&gt;LLPMBPKK_06762&lt;/b&gt;&lt;br&gt;iron-containing alcohol dehydrogenase familyprotein&lt;br&gt;Location: 7796024 - 7797086" locus_tag="LLPMBPKK_06762" class="clusterblast-orf" id="dummy-29_q4_0_all"  />
<polygon points="243,40 253,40 258,35 253,30 243,30 243,40 " style="fill:white; stroke-width:1; stroke:black; " description="&lt;b&gt;LLPMBPKK_06763&lt;/b&gt;&lt;br&gt;transferase&lt;br&gt;Location: 7797159 - 7797843" locus_tag="LLPMBPKK_06763" class="clusterblast-orf" id="dummy-29_q5_0_all"  />
<polygon points="258,40 272,40 277,35 272,30 258,30 258,40 " style="fill:white; stroke-width:1; stroke:black; " description="&lt;b&gt;LLPMBPKK_06764&lt;/b&gt;&lt;br&gt;glycosyltransferase family 2 protein&lt;br&gt;Location: 7797851 - 7798724" locus_tag="LLPMBPKK_06764" class="clusterblast-orf" id="dummy-29_q6_0_all"  />
<polygon points="279,40 295,40 300,35 295,30 279,30 279,40 " style="fill:white; stroke-width:1; stroke:black; " description="&lt;b&gt;LLPMBPKK_06765&lt;/b&gt;&lt;br&gt;ABC transporter&lt;br&gt;Location: 7798813 - 7799743" locus_tag="LLPMBPKK_06765" class="clusterblast-orf" id="dummy-29_q7_0_all"  />
<polygon points="300,40 312,40 317,35 312,30 300,30 300,40 " style="fill:white; stroke-width:1; stroke:black; " description="&lt;b&gt;LLPMBPKK_06766&lt;/b&gt;&lt;br&gt;ABC transporter ATP-binding protein&lt;br&gt;Location: 7799735 - 7800524" locus_tag="LLPMBPKK_06766" class="clusterblast-orf" id="dummy-29_q8_0_all"  />
<polygon points="325,40 339,40 344,35 339,30 325,30 325,40 " style="fill:#1585d8; stroke-width:1; stroke:black; " description="&lt;b&gt;LLPMBPKK_06767&lt;/b&gt;&lt;br&gt;squalene synthase HpnC&lt;br&gt;Location: 7800884 - 7801781" locus_tag="LLPMBPKK_06767" class="clusterblast-orf" id="dummy-29_q9_0_all"  />
<polygon points="344,40 360,40 365,35 360,30 344,30 344,40 " style="fill:#a115d8; stroke-width:1; stroke:black; " description="&lt;b&gt;LLPMBPKK_06768&lt;/b&gt;&lt;br&gt;presqualene diphosphate synthase HpnD&lt;br&gt;Location: 7801777 - 7802740" locus_tag="LLPMBPKK_06768" class="clusterblast-orf" id="dummy-29_q10_0_all"  />
<polygon points="371,40 397,40 402,35 397,30 371,30 371,40 " style="fill:#d86915; stroke-width:1; stroke:black; " description="&lt;b&gt;LLPMBPKK_06769&lt;/b&gt;&lt;br&gt;FAD-dependent oxidoreductase&lt;br&gt;Location: 7802978 - 7804406" locus_tag="LLPMBPKK_06769" class="clusterblast-orf" id="dummy-29_q11_0_all"  />
<polygon points="402,40 422,40 427,35 422,30 402,30 402,40 " style="fill:#15d831; stroke-width:1; stroke:black; " description="&lt;b&gt;LLPMBPKK_06770&lt;/b&gt;&lt;br&gt;polyprenyl synthetase family protein&lt;br&gt;Location: 7804405 - 7805539" locus_tag="LLPMBPKK_06770" class="clusterblast-orf" id="dummy-29_q12_0_all"  />
<polygon points="429,40 469,40 474,35 469,30 429,30 429,40 " style="fill:#1531d8; stroke-width:1; stroke:black; " description="&lt;b&gt;LLPMBPKK_06771&lt;/b&gt;&lt;br&gt;squalene--hopene cyclase&lt;br&gt;Location: 7805655 - 7807686" locus_tag="LLPMBPKK_06771" class="clusterblast-orf" id="dummy-29_q13_0_all"  />
<polygon points="474,40 483,40 488,35 483,30 474,30 474,40 " style="fill:#d815bc; stroke-width:1; stroke:black; " description="&lt;b&gt;LLPMBPKK_06772&lt;/b&gt;&lt;br&gt;lipoprotein&lt;br&gt;Location: 7807682 - 7808324" locus_tag="LLPMBPKK_06772" class="clusterblast-orf" id="dummy-29_q14_0_all"  />
<polygon points="488,40 505,40 510,35 505,30 488,30 488,40 " style="fill:#d8bc15; stroke-width:1; stroke:black; " description="&lt;b&gt;LLPMBPKK_06773&lt;/b&gt;&lt;br&gt;adenosyl-hopene transferase HpnH&lt;br&gt;Location: 7808329 - 7809352" locus_tag="LLPMBPKK_06773" class="clusterblast-orf" id="dummy-29_q15_0_all"  />
<polygon points="510,40 530,40 535,35 530,30 510,30 510,40 " style="fill:#15d885; stroke-width:1; stroke:black; " description="&lt;b&gt;LLPMBPKK_06774&lt;/b&gt;&lt;br&gt;flavodoxin-dependent (E)-4-hydroxy-3-methylbut-2-enyl-diphosphate synthase&lt;br&gt;Location: 7809356 - 7810484" locus_tag="LLPMBPKK_06774" class="clusterblast-orf" id="dummy-29_q16_0_all"  />
<polygon points="536,40 573,40 578,35 573,30 536,30 536,40 " style="fill:#4d15d8; stroke-width:1; stroke:black; " description="&lt;b&gt;LLPMBPKK_06775&lt;/b&gt;&lt;br&gt;1-deoxy-D-xylulose-5-phosphate synthase&lt;br&gt;Location: 7810521 - 7812420" locus_tag="LLPMBPKK_06775" class="clusterblast-orf" id="dummy-29_q17_0_all"  />
<polygon points="578,40 603,40 608,35 603,30 578,30 578,40 " style="fill:#d81569; stroke-width:1; stroke:black; " description="&lt;b&gt;LLPMBPKK_06776&lt;/b&gt;&lt;br&gt;aspartate aminotransferase family protein&lt;br&gt;Location: 7812416 - 7813802" locus_tag="LLPMBPKK_06776" class="clusterblast-orf" id="dummy-29_q18_0_all"  />
<polygon points="608,35 613,30 614,30 614,40 613,40 608,35 " style="fill:white; stroke-width:1; stroke:black; " description="&lt;b&gt;LLPMBPKK_06777&lt;/b&gt;&lt;br&gt;hypothetical protein&lt;br&gt;Location: 7813812 - 7814088" locus_tag="LLPMBPKK_06777" class="clusterblast-orf" id="dummy-29_q19_0_all"  />
<polygon points="617,40 626,40 631,35 626,30 617,30 617,40 " style="fill:#a1d815; stroke-width:1; stroke:black; " description="&lt;b&gt;LLPMBPKK_06778&lt;/b&gt;&lt;br&gt;XRE family transcriptional regulator&lt;br&gt;Location: 7814226 - 7814856" locus_tag="LLPMBPKK_06778" class="clusterblast-orf" id="dummy-29_q20_0_all"  />
<polygon points="631,40 634,35 631,30 631,40 " style="fill:#15d8d8; stroke-width:1; stroke:black; " description="&lt;b&gt;LLPMBPKK_06779&lt;/b&gt;&lt;br&gt;small hydrophobic hypothetical protein&lt;br&gt;Location: 7814852 - 7814975" locus_tag="LLPMBPKK_06779" class="clusterblast-orf" id="dummy-29_q21_0_all"  />
<polygon points="634,40 647,40 652,35 647,30 634,30 634,40 " style="fill:white; stroke-width:1; stroke:black; " description="&lt;b&gt;LLPMBPKK_06780&lt;/b&gt;&lt;br&gt;hypothetical protein&lt;br&gt;Location: 7815004 - 7815805" locus_tag="LLPMBPKK_06780" class="clusterblast-orf" id="dummy-29_q22_0_all"  />
<polygon points="652,35 657,30 670,30 670,40 657,40 652,35 " style="fill:white; stroke-width:1; stroke:black; " description="&lt;b&gt;LLPMBPKK_06781&lt;/b&gt;&lt;br&gt;tyrosine-protein phosphatase&lt;br&gt;Location: 7815818 - 7816616" locus_tag="LLPMBPKK_06781" class="clusterblast-orf" id="dummy-29_q23_0_all"  />
</g>
<g label="BGC0001156" description="BGC0001156_c1: platencin (9% of genes show similarity), Terpene" class="clusterblast-cluster"  >
<text x="5" y="70" class="clusterblast-acc"  >
<a xlink:href="https://mibig.secondarymetabolites.org/go/BGC0001156/1" target="_blank">BGC0001156</a>:                                                                        platencin (9% of genes show similarity), Terpene</text>
<line x1="10" y1="85" x2="778.0" y2="85" style="stroke-width:1; stroke:grey; "  />
</g>
<g id="a29_000"  >
<polygon points="0,85 5,80 16,80 16,90 5,90 0,85 " style="fill:white; stroke-width:1; stroke:black; " description="&lt;b&gt;ADD83002.1&lt;/b&gt;&lt;br&gt;PtnO1&lt;br&gt;Location: 95 - 859" locus_tag="ADD83002.1" class="clusterblast-orf" id="dummy-29_h29_4_0"  />
</g>
<g id="a29_001"  >
<polygon points="16,85 21,80 29,80 29,90 21,90 16,85 " style="fill:white; stroke-width:1; stroke:black; " description="&lt;b&gt;ADD83017.1&lt;/b&gt;&lt;br&gt;PtnU1&lt;br&gt;Location: 856 - 1419" locus_tag="ADD83017.1" class="clusterblast-orf" id="dummy-29_h29_4_1"  />
</g>
<g id="a29_002"  >
<polygon points="30,90 54,90 59,85 54,80 30,80 30,90 " style="fill:white; stroke-width:1; stroke:black; " description="&lt;b&gt;ADD82990.1&lt;/b&gt;&lt;br&gt;PtnA1&lt;br&gt;Location: 1497 - 2801" locus_tag="ADD82990.1" class="clusterblast-orf" id="dummy-29_h29_4_2"  />
</g>
<g id="a29_003"  >
<polygon points="59,90 69,90 74,85 69,80 59,80 59,90 " style="fill:white; stroke-width:1; stroke:black; " description="&lt;b&gt;ADD83018.1&lt;/b&gt;&lt;br&gt;PtnU2&lt;br&gt;Location: 2798 - 3508" locus_tag="ADD83018.1" class="clusterblast-orf" id="dummy-29_h29_4_3"  />
</g>
<g id="a29_004"  >
<polygon points="75,85 80,80 84,80 84,90 80,90 75,85 " style="fill:white; stroke-width:1; stroke:black; " description="&lt;b&gt;ADD83013.1&lt;/b&gt;&lt;br&gt;PtnR2&lt;br&gt;Location: 3555 - 3956" locus_tag="ADD83013.1" class="clusterblast-orf" id="dummy-29_h29_4_4"  />
</g>
<g id="a29_005"  >
<polygon points="84,85 89,80 110,80 110,90 89,90 84,85 " style="fill:white; stroke-width:1; stroke:black; " description="&lt;b&gt;ADD82997.1&lt;/b&gt;&lt;br&gt;PtnD&lt;br&gt;Location: 3956 - 5113" locus_tag="ADD82997.1" class="clusterblast-orf" id="dummy-29_h29_4_5"  />
</g>
<g id="a29_006"  >
<polygon points="110,85 115,80 144,80 144,90 115,90 110,85 " style="fill:white; stroke-width:1; stroke:black; " description="&lt;b&gt;ADD82991.1&lt;/b&gt;&lt;br&gt;PtnA2&lt;br&gt;Location: 5115 - 6683" locus_tag="ADD82991.1" class="clusterblast-orf" id="dummy-29_h29_4_6"  />
</g>
<g id="a29_007"  >
<polygon points="145,85 150,80 168,80 168,90 150,90 145,85 " style="fill:white; stroke-width:1; stroke:black; " description="&lt;b&gt;ADD83019.1&lt;/b&gt;&lt;br&gt;PtnU3&lt;br&gt;Location: 6712 - 7782" locus_tag="ADD83019.1" class="clusterblast-orf" id="dummy-29_h29_4_7"  />
</g>
<g id="a29_008"  >
<polygon points="170,85 175,80 189,80 189,90 175,90 170,85 " style="fill:white; stroke-width:1; stroke:black; " description="&lt;b&gt;ADD82998.1&lt;/b&gt;&lt;br&gt;PtnH&lt;br&gt;Location: 7878 - 8732" locus_tag="ADD82998.1" class="clusterblast-orf" id="dummy-29_h29_4_8"  />
</g>
<g id="a29_009"  >
<polygon points="190,85 195,80 211,80 211,90 195,90 190,85 " style="fill:white; stroke-width:1; stroke:black; " description="&lt;b&gt;ADD83014.1&lt;/b&gt;&lt;br&gt;PtnT1&lt;br&gt;Location: 8796 - 9722" locus_tag="ADD83014.1" class="clusterblast-orf" id="dummy-29_h29_4_9"  />
</g>
<g id="a29_0010"  >
<polygon points="211,85 216,80 240,80 240,90 216,90 211,85 " style="fill:white; stroke-width:1; stroke:black; " description="&lt;b&gt;ADD83003.1&lt;/b&gt;&lt;br&gt;PtnO2&lt;br&gt;Location: 9719 - 11044" locus_tag="ADD83003.1" class="clusterblast-orf" id="dummy-29_h29_4_10"  />
</g>
<g id="a29_0011"  >
<polygon points="240,85 245,80 275,80 275,90 245,90 240,85 " style="fill:white; stroke-width:1; stroke:black; " description="&lt;b&gt;ADD83015.1&lt;/b&gt;&lt;br&gt;PtnT2&lt;br&gt;Location: 11044 - 12645" locus_tag="ADD83015.1" class="clusterblast-orf" id="dummy-29_h29_4_11"  />
</g>
<g id="a29_0012"  >
<polygon points="278,90 291,90 296,85 291,80 278,80 278,90 " style="fill:white; stroke-width:1; stroke:black; " description="&lt;b&gt;ADD83004.1&lt;/b&gt;&lt;br&gt;PtnO6&lt;br&gt;Location: 12784 - 13626" locus_tag="ADD83004.1" class="clusterblast-orf" id="dummy-29_h29_4_12"  />
</g>
<g id="a29_0013"  >
<polygon points="298,90 316,90 321,85 316,80 298,80 298,90 " style="fill:#15d831; stroke-width:1; stroke:black; " description="&lt;b&gt;ADD83016.1&lt;/b&gt;&lt;br&gt;GGPP synthease&lt;br&gt;Location: 13694 - 14740&lt;br&gt;&lt;br&gt;&lt;b&gt;BlastP hit with LLPMBPKK_06770&lt;/b&gt;&lt;br&gt;Percentage identity: 47&lt;br&gt;Percentage coverage: 88&lt;br&gt;BLAST bit score: 268&lt;br&gt;E-value: 1.95e-87" locus_tag="ADD83016.1" class="clusterblast-orf" id="dummy-29_h29_4_13"  />
</g>
<g id="a29_0014"  >
<polygon points="321,90 345,90 350,85 345,80 321,80 321,90 " style="fill:white; stroke-width:1; stroke:black; " description="&lt;b&gt;ADD82999.1&lt;/b&gt;&lt;br&gt;HMBDP reductase&lt;br&gt;Location: 14740 - 16086" locus_tag="ADD82999.1" class="clusterblast-orf" id="dummy-29_h29_4_14"  />
</g>
<g id="a29_0015"  >
<polygon points="350,90 369,90 374,85 369,80 350,80 350,90 " style="fill:#15d885; stroke-width:1; stroke:black; " description="&lt;b&gt;ADD83000.1&lt;/b&gt;&lt;br&gt;HMBDP synthase&lt;br&gt;Location: 16094 - 17194&lt;br&gt;&lt;br&gt;&lt;b&gt;BlastP hit with LLPMBPKK_06774&lt;/b&gt;&lt;br&gt;Percentage identity: 82&lt;br&gt;Percentage coverage: 93&lt;br&gt;BLAST bit score: 557&lt;br&gt;E-value: 6.51e-201" locus_tag="ADD83000.1" class="clusterblast-orf" id="dummy-29_h29_4_15"  />
</g>
<g id="a29_0016"  >
<polygon points="374,90 408,90 413,85 408,80 374,80 374,90 " style="fill:#4d15d8; stroke-width:1; stroke:black; " description="&lt;b&gt;ADD83001.1&lt;/b&gt;&lt;br&gt;DXP synthase&lt;br&gt;Location: 17181 - 18944&lt;br&gt;&lt;br&gt;&lt;b&gt;BlastP hit with LLPMBPKK_06775&lt;/b&gt;&lt;br&gt;Percentage identity: 59&lt;br&gt;Percentage coverage: 98&lt;br&gt;BLAST bit score: 680&lt;br&gt;E-value: 1.47e-241" locus_tag="ADD83001.1" class="clusterblast-orf" id="dummy-29_h29_4_16"  />
</g>
<g id="a29_0017"  >
<polygon points="414,90 428,90 433,85 428,80 414,80 414,90 " style="fill:white; stroke-width:1; stroke:black; " description="&lt;b&gt;ADD82993.1&lt;/b&gt;&lt;br&gt;ADHOHP synthase&lt;br&gt;Location: 19022 - 19855" locus_tag="ADD82993.1" class="clusterblast-orf" id="dummy-29_h29_4_17"  />
</g>
<g id="a29_0018"  >
<polygon points="434,90 453,90 458,85 453,80 434,80 434,90 " style="fill:white; stroke-width:1; stroke:black; " description="&lt;b&gt;ADD82994.1&lt;/b&gt;&lt;br&gt;3,4-AHBA synthase&lt;br&gt;Location: 19908 - 21014" locus_tag="ADD82994.1" class="clusterblast-orf" id="dummy-29_h29_4_18"  />
</g>
<g id="a29_0019"  >
<polygon points="458,90 479,90 484,85 479,80 458,80 458,90 " style="fill:white; stroke-width:1; stroke:black; " description="&lt;b&gt;ADD82995.1&lt;/b&gt;&lt;br&gt;PtnB3&lt;br&gt;Location: 21020 - 22210" locus_tag="ADD82995.1" class="clusterblast-orf" id="dummy-29_h29_4_19"  />
</g>
<g id="a29_0020"  >
<polygon points="486,90 500,90 505,85 500,80 486,80 486,90 " style="fill:white; stroke-width:1; stroke:black; " description="&lt;b&gt;ADD82996.1&lt;/b&gt;&lt;br&gt;PtnC&lt;br&gt;Location: 22289 - 23164" locus_tag="ADD82996.1" class="clusterblast-orf" id="dummy-29_h29_4_20"  />
</g>
<g id="a29_0021"  >
<polygon points="507,85 512,80 538,80 538,90 512,90 507,85 " style="fill:white; stroke-width:1; stroke:black; " description="&lt;b&gt;ADD83008.1&lt;/b&gt;&lt;br&gt;PtnP1&lt;br&gt;Location: 23246 - 24670" locus_tag="ADD83008.1" class="clusterblast-orf" id="dummy-29_h29_4_21"  />
</g>
<g id="a29_0022"  >
<polygon points="540,90 562,90 567,85 562,80 540,80 540,90 " style="fill:white; stroke-width:1; stroke:black; " description="&lt;b&gt;ADD83009.1&lt;/b&gt;&lt;br&gt;PtnP2&lt;br&gt;Location: 24743 - 25987" locus_tag="ADD83009.1" class="clusterblast-orf" id="dummy-29_h29_4_22"  />
</g>
<g id="a29_0023"  >
<polygon points="568,90 582,90 587,85 582,80 568,80 568,90 " style="fill:white; stroke-width:1; stroke:black; " description="&lt;b&gt;ADD83005.1&lt;/b&gt;&lt;br&gt;PtnO7&lt;br&gt;Location: 26002 - 26907" locus_tag="ADD83005.1" class="clusterblast-orf" id="dummy-29_h29_4_23"  />
</g>
<g id="a29_0024"  >
<polygon points="588,85 593,80 604,80 604,90 593,90 588,85 " style="fill:white; stroke-width:1; stroke:black; " description="&lt;b&gt;ADD83012.1&lt;/b&gt;&lt;br&gt;PtnR1&lt;br&gt;Location: 26940 - 27656" locus_tag="ADD83012.1" class="clusterblast-orf" id="dummy-29_h29_4_24"  />
</g>
<g id="a29_0025"  >
<polygon points="610,90 624,90 629,85 624,80 610,80 610,90 " style="fill:white; stroke-width:1; stroke:black; " description="&lt;b&gt;ADD83006.1&lt;/b&gt;&lt;br&gt;PtnO8&lt;br&gt;Location: 27948 - 28784" locus_tag="ADD83006.1" class="clusterblast-orf" id="dummy-29_h29_4_25"  />
</g>
<g id="a29_0026"  >
<polygon points="628,90 663,90 668,85 663,80 628,80 628,90 " style="fill:white; stroke-width:1; stroke:black; " description="&lt;b&gt;ADD83020.1&lt;/b&gt;&lt;br&gt;PtnU4&lt;br&gt;Location: 28781 - 30571" locus_tag="ADD83020.1" class="clusterblast-orf" id="dummy-29_h29_4_26"  />
</g>
<g id="a29_0027"  >
<polygon points="669,90 698,90 703,85 698,80 669,80 669,90 " style="fill:white; stroke-width:1; stroke:black; " description="&lt;b&gt;ADD82992.1&lt;/b&gt;&lt;br&gt;PtnA3&lt;br&gt;Location: 30610 - 32190" locus_tag="ADD82992.1" class="clusterblast-orf" id="dummy-29_h29_4_27"  />
</g>
<g id="a29_0028"  >
<polygon points="707,90 729,90 734,85 729,80 707,80 707,90 " style="fill:white; stroke-width:1; stroke:black; " description="&lt;b&gt;ADD83010.1&lt;/b&gt;&lt;br&gt;PtnP3&lt;br&gt;Location: 32358 - 33572" locus_tag="ADD83010.1" class="clusterblast-orf" id="dummy-29_h29_4_28"  />
</g>
<g id="a29_0029"  >
<polygon points="736,90 767,90 772,85 767,80 736,80 736,90 " style="fill:white; stroke-width:1; stroke:black; " description="&lt;b&gt;ADD83011.1&lt;/b&gt;&lt;br&gt;PtnP4&lt;br&gt;Location: 33690 - 35312" locus_tag="ADD83011.1" class="clusterblast-orf" id="dummy-29_h29_4_29"  />
</g>
<g id="a29_0030"  >
<polygon points="772,90 775,90 780,85 775,80 772,80 772,90 " style="fill:white; stroke-width:1; stroke:black; " description="&lt;b&gt;ADD83007.1&lt;/b&gt;&lt;br&gt;PtnO9&lt;br&gt;Location: 35335 - 35670" locus_tag="ADD83007.1" class="clusterblast-orf" id="dummy-29_h29_4_30"  />
</g>
</svg>
