<svg xmlns="http://www.w3.org/2000/svg" xmlns:xlink="http://www.w3.org/1999/xlink" version="1.1" x="0" y="0" height="230" width="800" viewBox="0 0 800 230" preserveAspectRatio="none"  >
<g label="Query sequence" class="clusterblast-cluster"  >
<text x="5" y="20" class="clusterblast-acc"  >
Query sequence</text>
<line x1="10" y1="35" x2="778.0" y2="35" style="stroke-width:1; stroke:grey; "  />
<polygon points="0,40 41,40 46,35 41,30 0,30 0,40 " style="fill:white; stroke-width:1; stroke:black; " description="&lt;b&gt;LLPMBPKK_00615&lt;/b&gt;&lt;br&gt;FAD dependent oxidoreductase&lt;br&gt;Location: 800069 - 801479" locus_tag="LLPMBPKK_00615" class="clusterblast-orf" id="dummy-5_q0_0_all"  />
<polygon points="51,40 71,40 76,35 71,30 51,30 51,40 " style="fill:white; stroke-width:1; stroke:black; " description="&lt;b&gt;LLPMBPKK_00616&lt;/b&gt;&lt;br&gt;glycosyl hydrolase family protein&lt;br&gt;Location: 801635 - 802406" locus_tag="LLPMBPKK_00616" class="clusterblast-orf" id="dummy-5_q1_0_all"  />
<polygon points="77,35 82,30 85,30 85,40 82,40 77,35 " style="fill:white; stroke-width:1; stroke:black; " description="&lt;b&gt;LLPMBPKK_00617&lt;/b&gt;&lt;br&gt;hypothetical protein&lt;br&gt;Location: 802441 - 802687" locus_tag="LLPMBPKK_00617" class="clusterblast-orf" id="dummy-5_q2_0_all"  />
<polygon points="95,35 100,30 111,30 111,40 100,40 95,35 " style="fill:white; stroke-width:1; stroke:black; " description="&lt;b&gt;LLPMBPKK_00618&lt;/b&gt;&lt;br&gt;hypothetical protein&lt;br&gt;Location: 803018 - 803495" locus_tag="LLPMBPKK_00618" class="clusterblast-orf" id="dummy-5_q3_0_all"  />
<polygon points="112,35 117,30 141,30 141,40 117,40 112,35 " style="fill:white; stroke-width:1; stroke:black; " description="&lt;b&gt;LLPMBPKK_00619&lt;/b&gt;&lt;br&gt;SDR family oxidoreductase&lt;br&gt;Location: 803536 - 804418" locus_tag="LLPMBPKK_00619" class="clusterblast-orf" id="dummy-5_q4_0_all"  />
<polygon points="143,35 148,30 158,30 158,40 148,40 143,35 " style="fill:white; stroke-width:1; stroke:black; " description="&lt;b&gt;LLPMBPKK_00620&lt;/b&gt;&lt;br&gt;hypothetical protein&lt;br&gt;Location: 804480 - 804933" locus_tag="LLPMBPKK_00620" class="clusterblast-orf" id="dummy-5_q5_0_all"  />
<polygon points="160,35 165,30 213,30 213,40 165,40 160,35 " style="fill:white; stroke-width:1; stroke:black; " description="&lt;b&gt;LLPMBPKK_00621&lt;/b&gt;&lt;br&gt;dehydrogenase&lt;br&gt;Location: 805025 - 806645" locus_tag="LLPMBPKK_00621" class="clusterblast-orf" id="dummy-5_q6_0_all"  />
<polygon points="213,35 218,30 229,30 229,40 218,40 213,35 " style="fill:white; stroke-width:1; stroke:black; " description="&lt;b&gt;LLPMBPKK_00622&lt;/b&gt;&lt;br&gt;SRPBCC family protein&lt;br&gt;Location: 806637 - 807132" locus_tag="LLPMBPKK_00622" class="clusterblast-orf" id="dummy-5_q7_0_all"  />
<polygon points="237,35 242,30 288,30 288,40 242,40 237,35 " style="fill:#d81515; stroke-width:1; stroke:black; " description="&lt;b&gt;LLPMBPKK_00623&lt;/b&gt;&lt;br&gt;FAD-dependent oxidoreductase&lt;br&gt;Location: 807384 - 808953" locus_tag="LLPMBPKK_00623" class="clusterblast-orf" id="dummy-5_q8_0_all"  />
<polygon points="288,35 293,30 311,30 311,40 293,40 288,35 " style="fill:#15d815; stroke-width:1; stroke:black; " description="&lt;b&gt;LLPMBPKK_00624&lt;/b&gt;&lt;br&gt;methyltransferase domain-containing protein&lt;br&gt;Location: 808949 - 809669" locus_tag="LLPMBPKK_00624" class="clusterblast-orf" id="dummy-5_q9_0_all"  />
<polygon points="311,35 316,30 351,30 351,40 316,40 311,35 " style="fill:#1515d8; stroke-width:1; stroke:black; " description="&lt;b&gt;LLPMBPKK_00625&lt;/b&gt;&lt;br&gt;lycopene cyclase&lt;br&gt;Location: 809665 - 810889" locus_tag="LLPMBPKK_00625" class="clusterblast-orf" id="dummy-5_q10_0_all"  />
<polygon points="363,40 369,40 374,35 369,30 363,30 363,40 " style="fill:white; stroke-width:1; stroke:black; " description="&lt;b&gt;LLPMBPKK_00626&lt;/b&gt;&lt;br&gt;hypothetical protein&lt;br&gt;Location: 811279 - 811597" locus_tag="LLPMBPKK_00626" class="clusterblast-orf" id="dummy-5_q11_0_all"  />
<polygon points="373,40 418,40 423,35 418,30 373,30 373,40 " style="fill:#d815d8; stroke-width:1; stroke:black; " description="&lt;b&gt;LLPMBPKK_00627&lt;/b&gt;&lt;br&gt;phytoene desaturase&lt;br&gt;Location: 811593 - 813132" locus_tag="LLPMBPKK_00627" class="clusterblast-orf" id="dummy-5_q12_0_all"  />
<polygon points="423,40 451,40 456,35 451,30 423,30 423,40 " style="fill:#d8d815; stroke-width:1; stroke:black; " description="&lt;b&gt;LLPMBPKK_00628&lt;/b&gt;&lt;br&gt;phytoene/squalene synthase family protein&lt;br&gt;Location: 813128 - 814148" locus_tag="LLPMBPKK_00628" class="clusterblast-orf" id="dummy-5_q13_0_all"  />
<polygon points="456,40 486,40 491,35 486,30 456,30 456,40 " style="fill:#15d8d8; stroke-width:1; stroke:black; " description="&lt;b&gt;LLPMBPKK_00629&lt;/b&gt;&lt;br&gt;Rieske (2Fe-2S) protein&lt;br&gt;Location: 814144 - 815218" locus_tag="LLPMBPKK_00629" class="clusterblast-orf" id="dummy-5_q14_0_all"  />
<polygon points="497,40 500,40 505,35 500,30 497,30 497,40 " style="fill:white; stroke-width:1; stroke:black; " description="&lt;b&gt;LLPMBPKK_00630&lt;/b&gt;&lt;br&gt;hypothetical protein&lt;br&gt;Location: 815393 - 815654" locus_tag="LLPMBPKK_00630" class="clusterblast-orf" id="dummy-5_q15_0_all"  />
<polygon points="510,40 529,40 534,35 529,30 510,30 510,40 " style="fill:white; stroke-width:1; stroke:black; " description="&lt;b&gt;LLPMBPKK_00631&lt;/b&gt;&lt;br&gt;hypothetical protein&lt;br&gt;Location: 815792 - 816557" locus_tag="LLPMBPKK_00631" class="clusterblast-orf" id="dummy-5_q16_0_all"  />
<polygon points="533,40 556,40 561,35 556,30 533,30 533,40 " style="fill:white; stroke-width:1; stroke:black; " description="&lt;b&gt;LLPMBPKK_00632&lt;/b&gt;&lt;br&gt;MFS transporter&lt;br&gt;Location: 816508 - 817375" locus_tag="LLPMBPKK_00632" class="clusterblast-orf" id="dummy-5_q17_0_all"  />
<polygon points="573,40 575,40 580,35 575,30 573,30 573,40 " style="fill:white; stroke-width:1; stroke:black; " description="&lt;b&gt;LLPMBPKK_00633&lt;/b&gt;&lt;br&gt;hypothetical protein&lt;br&gt;Location: 817740 - 817956" locus_tag="LLPMBPKK_00633" class="clusterblast-orf" id="dummy-5_q18_0_all"  />
<polygon points="583,40 592,40 597,35 592,30 583,30 583,40 " style="fill:white; stroke-width:1; stroke:black; " description="&lt;b&gt;LLPMBPKK_00634&lt;/b&gt;&lt;br&gt;pyridoxamine 5'-phosphate oxidase&lt;br&gt;Location: 818072 - 818498" locus_tag="LLPMBPKK_00634" class="clusterblast-orf" id="dummy-5_q19_0_all"  />
<polygon points="601,35 606,30 620,30 620,40 606,40 601,35 " style="fill:white; stroke-width:1; stroke:black; " description="&lt;b&gt;LLPMBPKK_00635&lt;/b&gt;&lt;br&gt;hypothetical protein&lt;br&gt;Location: 818617 - 819214" locus_tag="LLPMBPKK_00635" class="clusterblast-orf" id="dummy-5_q20_0_all"  />
<polygon points="623,35 628,30 701,30 701,40 628,40 623,35 " style="fill:white; stroke-width:1; stroke:black; " description="&lt;b&gt;LLPMBPKK_00636&lt;/b&gt;&lt;br&gt;glycoside hydrolase family 2&lt;br&gt;Location: 819302 - 821684" locus_tag="LLPMBPKK_00636" class="clusterblast-orf" id="dummy-5_q21_0_all"  />
<polygon points="705,35 710,30 744,30 744,40 710,40 705,35 " style="fill:white; stroke-width:1; stroke:black; " description="&lt;b&gt;LLPMBPKK_00637&lt;/b&gt;&lt;br&gt;S1 family peptidase&lt;br&gt;Location: 821812 - 823036" locus_tag="LLPMBPKK_00637" class="clusterblast-orf" id="dummy-5_q22_0_all"  />
<polygon points="756,40 775,40 780,35 775,30 756,30 756,40 " style="fill:white; stroke-width:1; stroke:black; " description="&lt;b&gt;LLPMBPKK_00638&lt;/b&gt;&lt;br&gt;dienelactone hydrolase family protein&lt;br&gt;Location: 823403 - 824129" locus_tag="LLPMBPKK_00638" class="clusterblast-orf" id="dummy-5_q23_0_all"  />
</g>
<g label="BGC0000633" description="BGC0000633_c1: carotenoid (54% of genes show similarity), Terpene" class="clusterblast-cluster"  >
<text x="5" y="70" class="clusterblast-acc"  >
<a xlink:href="https://mibig.secondarymetabolites.org/go/BGC0000633/1" target="_blank">BGC0000633</a>:                                                                       carotenoid (54% of genes show similarity), Terpene</text>
<line x1="10" y1="85" x2="778.0" y2="85" style="stroke-width:1; stroke:grey; "  />
</g>
<g id="a5_000"  >
<polygon points="158,90 165,90 170,85 165,80 158,80 158,90 " style="fill:white; stroke-width:1; stroke:black; " description="&lt;b&gt;BAB69138.1&lt;/b&gt;&lt;br&gt;hypothetical protein&lt;br&gt;Location: 1 - 363" locus_tag="BAB69138.1" class="clusterblast-orf" id="dummy-5_h5_1_0"  />
</g>
<g id="a5_001"  >
<polygon points="172,85 177,80 189,80 189,90 177,90 172,85 " style="fill:white; stroke-width:1; stroke:black; " description="&lt;b&gt;BAB69139.1&lt;/b&gt;&lt;br&gt;integral membrane protein&lt;br&gt;Location: 419 - 967" locus_tag="BAB69139.1" class="clusterblast-orf" id="dummy-5_h5_1_1"  />
</g>
<g id="a5_002"  >
<polygon points="194,85 199,80 243,80 243,90 199,90 194,85 " style="fill:#d81515; stroke-width:1; stroke:black; " description="&lt;b&gt;BAB69140.1&lt;/b&gt;&lt;br&gt;phytoene desaturase&lt;br&gt;Location: 1122 - 2624&lt;br&gt;&lt;br&gt;&lt;b&gt;BlastP hit with LLPMBPKK_00623&lt;/b&gt;&lt;br&gt;Percentage identity: 75&lt;br&gt;Percentage coverage: 95&lt;br&gt;BLAST bit score: 741&lt;br&gt;E-value: 7.03e-269" locus_tag="BAB69140.1" class="clusterblast-orf" id="dummy-5_h5_1_2"  />
</g>
<g id="a5_003"  >
<polygon points="245,85 250,80 268,80 268,90 250,90 245,85 " style="fill:#15d815; stroke-width:1; stroke:black; " description="&lt;b&gt;BAB69141.1&lt;/b&gt;&lt;br&gt;methyltransferase&lt;br&gt;Location: 2678 - 3409&lt;br&gt;&lt;br&gt;&lt;b&gt;BlastP hit with LLPMBPKK_00624&lt;/b&gt;&lt;br&gt;Percentage identity: 74&lt;br&gt;Percentage coverage: 98&lt;br&gt;BLAST bit score: 346&lt;br&gt;E-value: 9.95e-122" locus_tag="BAB69141.1" class="clusterblast-orf" id="dummy-5_h5_1_3"  />
</g>
<g id="a5_004"  >
<polygon points="270,85 275,80 314,80 314,90 275,90 270,85 " style="fill:#1515d8; stroke-width:1; stroke:black; " description="&lt;b&gt;BAB69142.1&lt;/b&gt;&lt;br&gt;lycopene cyclase&lt;br&gt;Location: 3453 - 4799&lt;br&gt;&lt;br&gt;&lt;b&gt;BlastP hit with LLPMBPKK_00625&lt;/b&gt;&lt;br&gt;Percentage identity: 73&lt;br&gt;Percentage coverage: 97&lt;br&gt;BLAST bit score: 561&lt;br&gt;E-value: 1.31e-200" locus_tag="BAB69142.1" class="clusterblast-orf" id="dummy-5_h5_1_4"  />
</g>
<g id="a5_005"  >
<polygon points="322,90 354,90 359,85 354,80 322,80 322,90 " style="fill:white; stroke-width:1; stroke:black; " description="&lt;b&gt;BAB69143.1&lt;/b&gt;&lt;br&gt;geranylgeranyl pyrophosphase synthase&lt;br&gt;Location: 5061 - 6200" locus_tag="BAB69143.1" class="clusterblast-orf" id="dummy-5_h5_1_5"  />
</g>
<g id="a5_006"  >
<polygon points="359,90 404,90 409,85 404,80 359,80 359,90 " style="fill:#d815d8; stroke-width:1; stroke:black; " description="&lt;b&gt;BAB69144.1&lt;/b&gt;&lt;br&gt;phytoene synthase&lt;br&gt;Location: 6197 - 7738&lt;br&gt;&lt;br&gt;&lt;b&gt;BlastP hit with LLPMBPKK_00627&lt;/b&gt;&lt;br&gt;Percentage identity: 84&lt;br&gt;Percentage coverage: 100&lt;br&gt;BLAST bit score: 841&lt;br&gt;E-value: 2.94e-308" locus_tag="BAB69144.1" class="clusterblast-orf" id="dummy-5_h5_1_6"  />
</g>
<g id="a5_007"  >
<polygon points="409,90 437,90 442,85 437,80 409,80 409,90 " style="fill:#d8d815; stroke-width:1; stroke:black; " description="&lt;b&gt;BAB69145.1&lt;/b&gt;&lt;br&gt;phytoene synthase&lt;br&gt;Location: 7735 - 8763&lt;br&gt;&lt;br&gt;&lt;b&gt;BlastP hit with LLPMBPKK_00628&lt;/b&gt;&lt;br&gt;Percentage identity: 77&lt;br&gt;Percentage coverage: 94&lt;br&gt;BLAST bit score: 478&lt;br&gt;E-value: 2.12e-170" locus_tag="BAB69145.1" class="clusterblast-orf" id="dummy-5_h5_1_7"  />
</g>
<g id="a5_008"  >
<polygon points="442,90 472,90 477,85 472,80 442,80 442,90 " style="fill:#15d8d8; stroke-width:1; stroke:black; " description="&lt;b&gt;BAB69146.1&lt;/b&gt;&lt;br&gt;methyltransferase&lt;br&gt;Location: 8760 - 9839&lt;br&gt;&lt;br&gt;&lt;b&gt;BlastP hit with LLPMBPKK_00629&lt;/b&gt;&lt;br&gt;Percentage identity: 72&lt;br&gt;Percentage coverage: 100&lt;br&gt;BLAST bit score: 500&lt;br&gt;E-value: 8.3e-179" locus_tag="BAB69146.1" class="clusterblast-orf" id="dummy-5_h5_1_8"  />
</g>
<g id="a5_009"  >
<polygon points="484,85 489,80 552,80 552,90 489,90 484,85 " style="fill:white; stroke-width:1; stroke:black; " description="&lt;b&gt;BAB69147.1&lt;/b&gt;&lt;br&gt;secreted protein&lt;br&gt;Location: 10060 - 12159" locus_tag="BAB69147.1" class="clusterblast-orf" id="dummy-5_h5_1_9"  />
</g>
<g id="a5_0010"  >
<polygon points="555,85 560,80 621,80 621,90 560,90 555,85 " style="fill:white; stroke-width:1; stroke:black; " description="&lt;b&gt;BAB69148.1&lt;/b&gt;&lt;br&gt;beta-galactosidase&lt;br&gt;Location: 12242 - 14284" locus_tag="BAB69148.1" class="clusterblast-orf" id="dummy-5_h5_1_10"  />
</g>
</svg>
