<svg xmlns="http://www.w3.org/2000/svg" xmlns:xlink="http://www.w3.org/1999/xlink" version="1.1" x="0" y="0" height="230" width="800" viewBox="0 0 800 230" preserveAspectRatio="none"  >
<g label="Query sequence" class="clusterblast-cluster"  >
<text x="5" y="20" class="clusterblast-acc"  >
Query sequence</text>
<line x1="10" y1="35" x2="778.0" y2="35" style="stroke-width:1; stroke:grey; "  />
<polygon points="76,35 81,30 87,30 87,40 81,40 76,35 " style="fill:white; stroke-width:1; stroke:black; " description="&lt;b&gt;LLPMBPKK_04016&lt;/b&gt;&lt;br&gt;TrmH family RNA methyltransferase&lt;br&gt;Location: 4616085 - 4616826" locus_tag="LLPMBPKK_04016" class="clusterblast-orf" id="dummy-18_q0_0_all"  />
<polygon points="87,35 92,30 104,30 104,40 92,40 87,35 " style="fill:white; stroke-width:1; stroke:black; " description="&lt;b&gt;LLPMBPKK_04017&lt;/b&gt;&lt;br&gt;HTTM domain-containing protein&lt;br&gt;Location: 4616822 - 4618034" locus_tag="LLPMBPKK_04017" class="clusterblast-orf" id="dummy-18_q1_0_all"  />
<polygon points="104,35 109,30 115,30 115,40 109,40 104,35 " style="fill:white; stroke-width:1; stroke:black; " description="&lt;b&gt;LLPMBPKK_04018&lt;/b&gt;&lt;br&gt;hypothetical protein&lt;br&gt;Location: 4618030 - 4618855" locus_tag="LLPMBPKK_04018" class="clusterblast-orf" id="dummy-18_q2_0_all"  />
<polygon points="121,40 130,40 135,35 130,30 121,30 121,40 " style="fill:white; stroke-width:1; stroke:black; " description="&lt;b&gt;LLPMBPKK_04019&lt;/b&gt;&lt;br&gt;1,2-phenylacetyl-CoA epoxidase subunit A&lt;br&gt;Location: 4619266 - 4620283" locus_tag="LLPMBPKK_04019" class="clusterblast-orf" id="dummy-18_q3_0_all"  />
<polygon points="135,40 139,35 135,30 135,40 " style="fill:white; stroke-width:1; stroke:black; " description="&lt;b&gt;LLPMBPKK_04020&lt;/b&gt;&lt;br&gt;1,2-phenylacetyl-CoA epoxidase subunit B&lt;br&gt;Location: 4620279 - 4620567" locus_tag="LLPMBPKK_04020" class="clusterblast-orf" id="dummy-18_q4_0_all"  />
<polygon points="139,40 145,40 150,35 145,30 139,30 139,40 " style="fill:white; stroke-width:1; stroke:black; " description="&lt;b&gt;LLPMBPKK_04021&lt;/b&gt;&lt;br&gt;phenylacetate-CoA oxygenase subunit PaaI&lt;br&gt;Location: 4620563 - 4621316" locus_tag="LLPMBPKK_04021" class="clusterblast-orf" id="dummy-18_q5_0_all"  />
<polygon points="150,40 152,40 157,35 152,30 150,30 150,40 " style="fill:white; stroke-width:1; stroke:black; " description="&lt;b&gt;LLPMBPKK_04022&lt;/b&gt;&lt;br&gt;phenylacetate-CoA oxygenase subunit PaaJ&lt;br&gt;Location: 4621309 - 4621843" locus_tag="LLPMBPKK_04022" class="clusterblast-orf" id="dummy-18_q6_0_all"  />
<polygon points="157,40 167,40 172,35 167,30 157,30 157,40 " style="fill:white; stroke-width:1; stroke:black; " description="&lt;b&gt;LLPMBPKK_04023&lt;/b&gt;&lt;br&gt;2Fe-2S iron-sulfur cluster bindingdomain-containing protein&lt;br&gt;Location: 4621842 - 4622907" locus_tag="LLPMBPKK_04023" class="clusterblast-orf" id="dummy-18_q7_0_all"  />
<polygon points="176,40 187,40 192,35 187,30 176,30 176,40 " style="fill:white; stroke-width:1; stroke:black; " description="&lt;b&gt;LLPMBPKK_04024&lt;/b&gt;&lt;br&gt;acyl-CoA dehydrogenase&lt;br&gt;Location: 4623126 - 4624269" locus_tag="LLPMBPKK_04024" class="clusterblast-orf" id="dummy-18_q8_0_all"  />
<polygon points="192,35 197,30 197,30 197,40 197,40 192,35 " style="fill:white; stroke-width:1; stroke:black; " description="&lt;b&gt;LLPMBPKK_04025&lt;/b&gt;&lt;br&gt;rhodanese-like domain-containing protein&lt;br&gt;Location: 4624288 - 4624618" locus_tag="LLPMBPKK_04025" class="clusterblast-orf" id="dummy-18_q9_0_all"  />
<polygon points="197,35 202,30 211,30 211,40 202,40 197,35 " style="fill:white; stroke-width:1; stroke:black; " description="&lt;b&gt;LLPMBPKK_04026&lt;/b&gt;&lt;br&gt;hypothetical protein&lt;br&gt;Location: 4624666 - 4625623" locus_tag="LLPMBPKK_04026" class="clusterblast-orf" id="dummy-18_q10_0_all"  />
<polygon points="211,35 216,30 232,30 232,40 216,40 211,35 " style="fill:white; stroke-width:1; stroke:black; " description="&lt;b&gt;LLPMBPKK_04027&lt;/b&gt;&lt;br&gt;hypothetical protein&lt;br&gt;Location: 4625648 - 4627106" locus_tag="LLPMBPKK_04027" class="clusterblast-orf" id="dummy-18_q11_0_all"  />
<polygon points="234,35 239,30 244,30 244,40 239,40 234,35 " style="fill:#d81515; stroke-width:1; stroke:black; " description="&lt;b&gt;LLPMBPKK_04028&lt;/b&gt;&lt;br&gt;2-hydroxychromene-2-carboxylate isomerase&lt;br&gt;Location: 4627295 - 4627997" locus_tag="LLPMBPKK_04028" class="clusterblast-orf" id="dummy-18_q12_0_all"  />
<polygon points="245,35 250,30 255,30 255,40 250,40 245,35 " style="fill:#63d815; stroke-width:1; stroke:black; " description="&lt;b&gt;LLPMBPKK_04029&lt;/b&gt;&lt;br&gt;SDR family oxidoreductase&lt;br&gt;Location: 4628056 - 4628800" locus_tag="LLPMBPKK_04029" class="clusterblast-orf" id="dummy-18_q13_0_all"  />
<polygon points="255,35 260,30 269,30 269,40 260,40 255,35 " style="fill:#15b1d8; stroke-width:1; stroke:black; " description="&lt;b&gt;LLPMBPKK_04030&lt;/b&gt;&lt;br&gt;FabA-like domain protein&lt;br&gt;Location: 4628796 - 4629738" locus_tag="LLPMBPKK_04030" class="clusterblast-orf" id="dummy-18_q14_0_all"  />
<polygon points="269,35 272,30 272,40 269,35 " style="fill:#b115d8; stroke-width:1; stroke:black; " description="&lt;b&gt;LLPMBPKK_04031&lt;/b&gt;&lt;br&gt;acyl carrier protein&lt;br&gt;Location: 4629737 - 4629995" locus_tag="LLPMBPKK_04031" class="clusterblast-orf" id="dummy-18_q15_0_all"  />
<polygon points="273,35 278,30 289,30 289,40 278,40 273,35 " style="fill:#d86315; stroke-width:1; stroke:black; " description="&lt;b&gt;LLPMBPKK_04032&lt;/b&gt;&lt;br&gt;3-oxoacyl-ACP synthase&lt;br&gt;Location: 4630070 - 4631171" locus_tag="LLPMBPKK_04032" class="clusterblast-orf" id="dummy-18_q16_0_all"  />
<polygon points="290,35 295,30 295,30 295,40 295,40 290,35 " style="fill:white; stroke-width:1; stroke:black; " description="&lt;b&gt;LLPMBPKK_04033&lt;/b&gt;&lt;br&gt;hypothetical protein&lt;br&gt;Location: 4631222 - 4631618" locus_tag="LLPMBPKK_04033" class="clusterblast-orf" id="dummy-18_q17_0_all"  />
<polygon points="295,35 300,30 301,30 301,40 300,40 295,35 " style="fill:#15d815; stroke-width:1; stroke:black; " description="&lt;b&gt;LLPMBPKK_04034&lt;/b&gt;&lt;br&gt;hypothetical protein&lt;br&gt;Location: 4631621 - 4632029" locus_tag="LLPMBPKK_04034" class="clusterblast-orf" id="dummy-18_q18_0_all"  />
<polygon points="301,35 306,30 306,30 306,40 306,40 301,35 " style="fill:white; stroke-width:1; stroke:black; " description="&lt;b&gt;LLPMBPKK_04035&lt;/b&gt;&lt;br&gt;hypothetical protein&lt;br&gt;Location: 4632028 - 4632352" locus_tag="LLPMBPKK_04035" class="clusterblast-orf" id="dummy-18_q19_0_all"  />
<polygon points="306,35 311,30 320,30 320,40 311,40 306,35 " style="fill:#1563d8; stroke-width:1; stroke:black; " description="&lt;b&gt;LLPMBPKK_04036&lt;/b&gt;&lt;br&gt;hypothetical protein&lt;br&gt;Location: 4632361 - 4633366" locus_tag="LLPMBPKK_04036" class="clusterblast-orf" id="dummy-18_q20_0_all"  />
<polygon points="320,35 325,30 331,30 331,40 325,40 320,35 " style="fill:white; stroke-width:1; stroke:black; " description="&lt;b&gt;LLPMBPKK_04037&lt;/b&gt;&lt;br&gt;alpha/beta hydrolase&lt;br&gt;Location: 4633362 - 4634178" locus_tag="LLPMBPKK_04037" class="clusterblast-orf" id="dummy-18_q21_0_all"  />
<polygon points="331,35 336,30 345,30 345,40 336,40 331,35 " style="fill:#d815b1; stroke-width:1; stroke:black; " description="&lt;b&gt;LLPMBPKK_04038&lt;/b&gt;&lt;br&gt;3-oxoacyl-ACP synthase I&lt;br&gt;Location: 4634174 - 4635173" locus_tag="LLPMBPKK_04038" class="clusterblast-orf" id="dummy-18_q22_0_all"  />
<polygon points="345,35 350,30 362,30 362,40 350,40 345,35 " style="fill:#d8b115; stroke-width:1; stroke:black; " description="&lt;b&gt;LLPMBPKK_04039&lt;/b&gt;&lt;br&gt;3-oxoacyl-ACP synthase&lt;br&gt;Location: 4635172 - 4636348" locus_tag="LLPMBPKK_04039" class="clusterblast-orf" id="dummy-18_q23_0_all"  />
<polygon points="362,35 367,30 379,30 379,40 367,40 362,35 " style="fill:#15d863; stroke-width:1; stroke:black; " description="&lt;b&gt;LLPMBPKK_04040&lt;/b&gt;&lt;br&gt;beta-ketoacyl-[acyl-carrier-protein] synthasefamily protein&lt;br&gt;Location: 4636344 - 4637580" locus_tag="LLPMBPKK_04040" class="clusterblast-orf" id="dummy-18_q24_0_all"  />
<polygon points="380,35 383,30 383,40 380,35 " style="fill:#1515d8; stroke-width:1; stroke:black; " description="&lt;b&gt;LLPMBPKK_04041&lt;/b&gt;&lt;br&gt;acyl carrier protein&lt;br&gt;Location: 4637613 - 4637859" locus_tag="LLPMBPKK_04041" class="clusterblast-orf" id="dummy-18_q25_0_all"  />
<polygon points="385,35 390,30 396,30 396,40 390,40 385,35 " style="fill:white; stroke-width:1; stroke:black; " description="&lt;b&gt;LLPMBPKK_04042&lt;/b&gt;&lt;br&gt;LuxR family transcriptional regulator&lt;br&gt;Location: 4637995 - 4638787" locus_tag="LLPMBPKK_04042" class="clusterblast-orf" id="dummy-18_q26_0_all"  />
<polygon points="398,35 403,30 419,30 419,40 403,40 398,35 " style="fill:white; stroke-width:1; stroke:black; " description="&lt;b&gt;LLPMBPKK_04043&lt;/b&gt;&lt;br&gt;hypothetical protein&lt;br&gt;Location: 4638934 - 4640428" locus_tag="LLPMBPKK_04043" class="clusterblast-orf" id="dummy-18_q27_0_all"  />
<polygon points="420,35 425,30 473,30 473,40 425,40 420,35 " style="fill:white; stroke-width:1; stroke:black; " description="&lt;b&gt;LLPMBPKK_04044&lt;/b&gt;&lt;br&gt;[acyl-carrier-protein] S-malonyltransferase&lt;br&gt;Location: 4640501 - 4644239" locus_tag="LLPMBPKK_04044" class="clusterblast-orf" id="dummy-18_q28_0_all"  />
<polygon points="477,35 482,30 486,30 486,40 482,40 477,35 " style="fill:#d81563; stroke-width:1; stroke:black; " description="&lt;b&gt;LLPMBPKK_04045&lt;/b&gt;&lt;br&gt;gamma-butyrolactone binding protein&lt;br&gt;Location: 4644533 - 4645160" locus_tag="LLPMBPKK_04045" class="clusterblast-orf" id="dummy-18_q29_0_all"  />
<polygon points="488,35 493,30 499,30 499,40 493,40 488,35 " style="fill:#b1d815; stroke-width:1; stroke:black; " description="&lt;b&gt;LLPMBPKK_04046&lt;/b&gt;&lt;br&gt;response regulator transcription factor&lt;br&gt;Location: 4645316 - 4646048" locus_tag="LLPMBPKK_04046" class="clusterblast-orf" id="dummy-18_q30_0_all"  />
<polygon points="504,40 513,40 518,35 513,30 504,30 504,40 " style="fill:#15d8b1; stroke-width:1; stroke:black; " description="&lt;b&gt;LLPMBPKK_04047&lt;/b&gt;&lt;br&gt;ScbA protein&lt;br&gt;Location: 4646437 - 4647397" locus_tag="LLPMBPKK_04047" class="clusterblast-orf" id="dummy-18_q31_0_all"  />
<polygon points="518,40 526,40 531,35 526,30 518,30 518,40 " style="fill:#6315d8; stroke-width:1; stroke:black; " description="&lt;b&gt;LLPMBPKK_04048&lt;/b&gt;&lt;br&gt;2-alkyl-3-oxoalkanoate reductase&lt;br&gt;Location: 4647446 - 4648376" locus_tag="LLPMBPKK_04048" class="clusterblast-orf" id="dummy-18_q32_0_all"  />
<polygon points="531,35 536,30 548,30 548,40 536,40 531,35 " style="fill:white; stroke-width:1; stroke:black; " description="&lt;b&gt;LLPMBPKK_04049&lt;/b&gt;&lt;br&gt;pyrroloquinoline quinone biosynthesis proteinPqqE&lt;br&gt;Location: 4648378 - 4649575" locus_tag="LLPMBPKK_04049" class="clusterblast-orf" id="dummy-18_q33_0_all"  />
<polygon points="548,35 552,30 552,40 548,35 " style="fill:white; stroke-width:1; stroke:black; " description="&lt;b&gt;LLPMBPKK_04050&lt;/b&gt;&lt;br&gt;pyrroloquinoline quinone biosynthesis peptidechaperone PqqD&lt;br&gt;Location: 4649571 - 4649877" locus_tag="LLPMBPKK_04050" class="clusterblast-orf" id="dummy-18_q34_0_all"  />
<polygon points="552,35 557,30 563,30 563,40 557,40 552,35 " style="fill:white; stroke-width:1; stroke:black; " description="&lt;b&gt;LLPMBPKK_04051&lt;/b&gt;&lt;br&gt;pyrroloquinoline quinone biosynthesis proteinPqqC&lt;br&gt;Location: 4649876 - 4650611" locus_tag="LLPMBPKK_04051" class="clusterblast-orf" id="dummy-18_q35_0_all"  />
<polygon points="563,35 568,30 576,30 576,40 568,40 563,35 " style="fill:white; stroke-width:1; stroke:black; " description="&lt;b&gt;LLPMBPKK_04052&lt;/b&gt;&lt;br&gt;pyrroloquinoline quinone biosynthesis proteinPqqB&lt;br&gt;Location: 4650607 - 4651522" locus_tag="LLPMBPKK_04052" class="clusterblast-orf" id="dummy-18_q36_0_all"  />
<polygon points="576,35 578,30 578,40 576,35 " style="fill:white; stroke-width:1; stroke:black; " description="&lt;b&gt;LLPMBPKK_04053&lt;/b&gt;&lt;br&gt;hypothetical protein&lt;br&gt;Location: 4651529 - 4651667" locus_tag="LLPMBPKK_04053" class="clusterblast-orf" id="dummy-18_q37_0_all"  />
<polygon points="579,35 584,30 595,30 595,40 584,40 579,35 " style="fill:white; stroke-width:1; stroke:black; " description="&lt;b&gt;LLPMBPKK_04054&lt;/b&gt;&lt;br&gt;oxidoreductase&lt;br&gt;Location: 4651746 - 4652868" locus_tag="LLPMBPKK_04054" class="clusterblast-orf" id="dummy-18_q38_0_all"  />
<polygon points="596,35 601,30 619,30 619,40 601,40 596,35 " style="fill:white; stroke-width:1; stroke:black; " description="&lt;b&gt;LLPMBPKK_04055&lt;/b&gt;&lt;br&gt;hypothetical protein&lt;br&gt;Location: 4652956 - 4654618" locus_tag="LLPMBPKK_04055" class="clusterblast-orf" id="dummy-18_q39_0_all"  />
<polygon points="620,40 625,40 630,35 625,30 620,30 620,40 " style="fill:white; stroke-width:1; stroke:black; " description="&lt;b&gt;LLPMBPKK_04056&lt;/b&gt;&lt;br&gt;CDP-alcohol phosphatidyltransferase familyprotein&lt;br&gt;Location: 4654650 - 4655355" locus_tag="LLPMBPKK_04056" class="clusterblast-orf" id="dummy-18_q40_0_all"  />
<polygon points="628,35 633,30 636,30 636,40 633,40 628,35 " style="fill:white; stroke-width:1; stroke:black; " description="&lt;b&gt;LLPMBPKK_04057&lt;/b&gt;&lt;br&gt;Bifunctional protein HldE&lt;br&gt;Location: 4655244 - 4655793" locus_tag="LLPMBPKK_04057" class="clusterblast-orf" id="dummy-18_q41_0_all"  />
<polygon points="636,35 641,30 656,30 656,40 641,40 636,35 " style="fill:white; stroke-width:1; stroke:black; " description="&lt;b&gt;LLPMBPKK_04058&lt;/b&gt;&lt;br&gt;LamG domain-containing protein&lt;br&gt;Location: 4655789 - 4657256" locus_tag="LLPMBPKK_04058" class="clusterblast-orf" id="dummy-18_q42_0_all"  />
<polygon points="659,35 664,30 681,30 681,40 664,40 659,35 " style="fill:white; stroke-width:1; stroke:black; " description="&lt;b&gt;LLPMBPKK_04059&lt;/b&gt;&lt;br&gt;Polysaccharide biosynthesis protein&lt;br&gt;Location: 4657434 - 4658967" locus_tag="LLPMBPKK_04059" class="clusterblast-orf" id="dummy-18_q43_0_all"  />
<polygon points="681,35 686,30 703,30 703,40 686,40 681,35 " style="fill:white; stroke-width:1; stroke:black; " description="&lt;b&gt;LLPMBPKK_04060&lt;/b&gt;&lt;br&gt;hypothetical protein&lt;br&gt;Location: 4658963 - 4660556" locus_tag="LLPMBPKK_04060" class="clusterblast-orf" id="dummy-18_q44_0_all"  />
</g>
<g label="BGC0001297" description="BGC0001297_c1: WS9326 (22% of genes show similarity), NRP" class="clusterblast-cluster"  >
<text x="5" y="70" class="clusterblast-acc"  >
<a xlink:href="https://mibig.secondarymetabolites.org/go/BGC0001297/1" target="_blank">BGC0001297</a>:                                                                           WS9326 (22% of genes show similarity), NRP</text>
<line x1="10" y1="85" x2="778.0" y2="85" style="stroke-width:1; stroke:grey; "  />
</g>
<g id="a18_000"  >
<polygon points="0,85 5,80 11,80 11,90 5,90 0,85 " style="fill:white; stroke-width:1; stroke:black; " description="&lt;b&gt;ALG65296.1&lt;/b&gt;&lt;br&gt;Cal40&lt;br&gt;Location: 49 - 891" locus_tag="ALG65296.1" class="clusterblast-orf" id="dummy-18_h18_5_0"  />
</g>
<g id="a18_001"  >
<polygon points="12,85 17,80 25,80 25,90 17,90 12,85 " style="fill:white; stroke-width:1; stroke:black; " description="&lt;b&gt;ALG65297.1&lt;/b&gt;&lt;br&gt;Cal39&lt;br&gt;Location: 929 - 1885" locus_tag="ALG65297.1" class="clusterblast-orf" id="dummy-18_h18_5_1"  />
</g>
<g id="a18_002"  >
<polygon points="27,85 32,80 34,80 34,90 32,90 27,85 " style="fill:white; stroke-width:1; stroke:black; " description="&lt;b&gt;ALG65298.1&lt;/b&gt;&lt;br&gt;Cal38&lt;br&gt;Location: 1989 - 2525" locus_tag="ALG65298.1" class="clusterblast-orf" id="dummy-18_h18_5_2"  />
</g>
<g id="a18_003"  >
<polygon points="34,85 39,80 45,80 45,90 39,90 34,85 " style="fill:#63d815; stroke-width:1; stroke:black; " description="&lt;b&gt;ALG65299.1&lt;/b&gt;&lt;br&gt;Cal37&lt;br&gt;Location: 2525 - 3271&lt;br&gt;&lt;br&gt;&lt;b&gt;BlastP hit with LLPMBPKK_04029&lt;/b&gt;&lt;br&gt;Percentage identity: 62&lt;br&gt;Percentage coverage: 100&lt;br&gt;BLAST bit score: 294&lt;br&gt;E-value: 5.47e-101" locus_tag="ALG65299.1" class="clusterblast-orf" id="dummy-18_h18_5_3"  />
</g>
<g id="a18_004"  >
<polygon points="46,85 51,80 53,80 53,90 51,90 46,85 " style="fill:white; stroke-width:1; stroke:black; " description="&lt;b&gt;ALG65300.1&lt;/b&gt;&lt;br&gt;Cal36&lt;br&gt;Location: 3345 - 3824" locus_tag="ALG65300.1" class="clusterblast-orf" id="dummy-18_h18_5_4"  />
</g>
<g id="a18_005"  >
<polygon points="53,85 58,80 58,80 58,90 58,90 53,85 " style="fill:white; stroke-width:1; stroke:black; " description="&lt;b&gt;ALG65301.1&lt;/b&gt;&lt;br&gt;Cal35&lt;br&gt;Location: 3818 - 4219" locus_tag="ALG65301.1" class="clusterblast-orf" id="dummy-18_h18_5_5"  />
</g>
<g id="a18_006"  >
<polygon points="58,85 62,80 62,90 58,85 " style="fill:white; stroke-width:1; stroke:black; " description="&lt;b&gt;ALG65302.1&lt;/b&gt;&lt;br&gt;Cal34&lt;br&gt;Location: 4216 - 4479" locus_tag="ALG65302.1" class="clusterblast-orf" id="dummy-18_h18_5_6"  />
</g>
<g id="a18_007"  >
<polygon points="64,85 69,80 79,80 79,90 69,90 64,85 " style="fill:#d86315; stroke-width:1; stroke:black; " description="&lt;b&gt;ALG65303.1&lt;/b&gt;&lt;br&gt;Cal33&lt;br&gt;Location: 4599 - 5714&lt;br&gt;&lt;br&gt;&lt;b&gt;BlastP hit with LLPMBPKK_04032&lt;/b&gt;&lt;br&gt;Percentage identity: 51&lt;br&gt;Percentage coverage: 98&lt;br&gt;BLAST bit score: 297&lt;br&gt;E-value: 1.4e-98" locus_tag="ALG65303.1" class="clusterblast-orf" id="dummy-18_h18_5_7"  />
</g>
<g id="a18_008"  >
<polygon points="81,85 86,80 94,80 94,90 86,90 81,85 " style="fill:#d815b1; stroke-width:1; stroke:black; " description="&lt;b&gt;ALG65304.1&lt;/b&gt;&lt;br&gt;Cal32&lt;br&gt;Location: 5815 - 6759&lt;br&gt;&lt;br&gt;&lt;b&gt;BlastP hit with LLPMBPKK_04038&lt;/b&gt;&lt;br&gt;Percentage identity: 50&lt;br&gt;Percentage coverage: 96&lt;br&gt;BLAST bit score: 255&lt;br&gt;E-value: 1.98e-83" locus_tag="ALG65304.1" class="clusterblast-orf" id="dummy-18_h18_5_8"  />
</g>
<g id="a18_009"  >
<polygon points="94,85 99,80 110,80 110,90 99,90 94,85 " style="fill:#d8b115; stroke-width:1; stroke:black; " description="&lt;b&gt;ALG65305.1&lt;/b&gt;&lt;br&gt;Cal31&lt;br&gt;Location: 6759 - 7898&lt;br&gt;&lt;br&gt;&lt;b&gt;BlastP hit with LLPMBPKK_04039&lt;/b&gt;&lt;br&gt;Percentage identity: 57&lt;br&gt;Percentage coverage: 97&lt;br&gt;BLAST bit score: 397&lt;br&gt;E-value: 2.13e-137" locus_tag="ALG65305.1" class="clusterblast-orf" id="dummy-18_h18_5_9"  />
</g>
<g id="a18_0010"  >
<polygon points="110,85 115,80 128,80 128,90 115,90 110,85 " style="fill:#15d863; stroke-width:1; stroke:black; " description="&lt;b&gt;ALG65306.1&lt;/b&gt;&lt;br&gt;Cal30&lt;br&gt;Location: 7895 - 9145&lt;br&gt;&lt;br&gt;&lt;b&gt;BlastP hit with LLPMBPKK_04040&lt;/b&gt;&lt;br&gt;Percentage identity: 66&lt;br&gt;Percentage coverage: 99&lt;br&gt;BLAST bit score: 536&lt;br&gt;E-value: 5.23e-191" locus_tag="ALG65306.1" class="clusterblast-orf" id="dummy-18_h18_5_10"  />
</g>
<g id="a18_0011"  >
<polygon points="129,85 133,80 133,90 129,85 " style="fill:#1515d8; stroke-width:1; stroke:black; " description="&lt;b&gt;ALG65307.1&lt;/b&gt;&lt;br&gt;Cal29&lt;br&gt;Location: 9267 - 9527&lt;br&gt;&lt;br&gt;&lt;b&gt;BlastP hit with LLPMBPKK_04041&lt;/b&gt;&lt;br&gt;Percentage identity: 68&lt;br&gt;Percentage coverage: 89&lt;br&gt;BLAST bit score: 98&lt;br&gt;E-value: 1.84e-28" locus_tag="ALG65307.1" class="clusterblast-orf" id="dummy-18_h18_5_11"  />
</g>
<g id="a18_0012"  >
<polygon points="135,85 140,80 159,80 159,90 140,90 135,85 " style="fill:white; stroke-width:1; stroke:black; " description="&lt;b&gt;ALG65308.1&lt;/b&gt;&lt;br&gt;Cal28&lt;br&gt;Location: 9670 - 11394" locus_tag="ALG65308.1" class="clusterblast-orf" id="dummy-18_h18_5_12"  />
</g>
<g id="a18_0013"  >
<polygon points="161,85 166,80 171,80 171,90 166,90 161,85 " style="fill:#d81515; stroke-width:1; stroke:black; " description="&lt;b&gt;ALG65309.1&lt;/b&gt;&lt;br&gt;Cal27&lt;br&gt;Location: 11480 - 12205&lt;br&gt;&lt;br&gt;&lt;b&gt;BlastP hit with LLPMBPKK_04028&lt;/b&gt;&lt;br&gt;Percentage identity: 53&lt;br&gt;Percentage coverage: 101&lt;br&gt;BLAST bit score: 260&lt;br&gt;E-value: 8.38e-88" locus_tag="ALG65309.1" class="clusterblast-orf" id="dummy-18_h18_5_13"  />
</g>
<g id="a18_0014"  >
<polygon points="171,85 176,80 185,80 185,90 176,90 171,85 " style="fill:#1563d8; stroke-width:1; stroke:black; " description="&lt;b&gt;ALG65310.1&lt;/b&gt;&lt;br&gt;Cal26&lt;br&gt;Location: 12234 - 13235&lt;br&gt;&lt;br&gt;&lt;b&gt;BlastP hit with LLPMBPKK_04036&lt;/b&gt;&lt;br&gt;Percentage identity: 52&lt;br&gt;Percentage coverage: 98&lt;br&gt;BLAST bit score: 311&lt;br&gt;E-value: 3.45e-105" locus_tag="ALG65310.1" class="clusterblast-orf" id="dummy-18_h18_5_14"  />
</g>
<g id="a18_0015"  >
<polygon points="186,85 191,80 197,80 197,90 191,90 186,85 " style="fill:white; stroke-width:1; stroke:black; " description="&lt;b&gt;ALG65311.1&lt;/b&gt;&lt;br&gt;Cal25&lt;br&gt;Location: 13252 - 14076" locus_tag="ALG65311.1" class="clusterblast-orf" id="dummy-18_h18_5_15"  />
</g>
<g id="a18_0016"  >
<polygon points="203,85 208,80 220,80 220,90 208,90 203,85 " style="fill:white; stroke-width:1; stroke:black; " description="&lt;b&gt;ALG65312.1&lt;/b&gt;&lt;br&gt;Cal24&lt;br&gt;Location: 14497 - 15699" locus_tag="ALG65312.1" class="clusterblast-orf" id="dummy-18_h18_5_16"  />
</g>
<g id="a18_0017"  >
<polygon points="220,85 225,80 245,80 245,90 225,90 220,85 " style="fill:white; stroke-width:1; stroke:black; " description="&lt;b&gt;ALG65313.1&lt;/b&gt;&lt;br&gt;Cal23&lt;br&gt;Location: 15696 - 17498" locus_tag="ALG65313.1" class="clusterblast-orf" id="dummy-18_h18_5_17"  />
</g>
<g id="a18_0018"  >
<polygon points="246,85 251,80 287,80 287,90 251,90 246,85 " style="fill:white; stroke-width:1; stroke:black; " description="&lt;b&gt;ALG65314.1&lt;/b&gt;&lt;br&gt;Cal22&lt;br&gt;Location: 17542 - 20478" locus_tag="ALG65314.1" class="clusterblast-orf" id="dummy-18_h18_5_18"  />
</g>
<g id="a18_0019"  >
<polygon points="288,85 293,80 299,80 299,90 293,90 288,85 " style="fill:white; stroke-width:1; stroke:black; " description="&lt;b&gt;ALG65315.1&lt;/b&gt;&lt;br&gt;Cal21&lt;br&gt;Location: 20503 - 21330" locus_tag="ALG65315.1" class="clusterblast-orf" id="dummy-18_h18_5_19"  />
</g>
<g id="a18_0020"  >
<polygon points="300,85 305,80 310,80 310,90 305,90 300,85 " style="fill:white; stroke-width:1; stroke:black; " description="&lt;b&gt;ALG65316.1&lt;/b&gt;&lt;br&gt;Cal20&lt;br&gt;Location: 21378 - 22079" locus_tag="ALG65316.1" class="clusterblast-orf" id="dummy-18_h18_5_20"  />
</g>
<g id="a18_0021"  >
<polygon points="311,85 316,80 391,80 391,90 316,90 311,85 " style="fill:white; stroke-width:1; stroke:black; " description="&lt;b&gt;ALG65317.1&lt;/b&gt;&lt;br&gt;Cal19&lt;br&gt;Location: 22137 - 27815" locus_tag="ALG65317.1" class="clusterblast-orf" id="dummy-18_h18_5_21"  />
</g>
<g id="a18_0022"  >
<polygon points="391,85 396,80 500,80 500,90 396,90 391,85 " style="fill:white; stroke-width:1; stroke:black; " description="&lt;b&gt;ALG65318.1&lt;/b&gt;&lt;br&gt;Cal18&lt;br&gt;Location: 27812 - 35542" locus_tag="ALG65318.1" class="clusterblast-orf" id="dummy-18_h18_5_22"  />
</g>
<g id="a18_0023"  >
<polygon points="500,85 505,80 608,80 608,90 505,90 500,85 " style="fill:white; stroke-width:1; stroke:black; " description="&lt;b&gt;ALG65319.1&lt;/b&gt;&lt;br&gt;Cal17&lt;br&gt;Location: 35546 - 43249" locus_tag="ALG65319.1" class="clusterblast-orf" id="dummy-18_h18_5_23"  />
</g>
<g id="a18_0024"  >
<polygon points="612,90 624,90 629,85 624,80 612,80 612,90 " style="fill:white; stroke-width:1; stroke:black; " description="&lt;b&gt;ALG65320.1&lt;/b&gt;&lt;br&gt;Cal16&lt;br&gt;Location: 43526 - 44749" locus_tag="ALG65320.1" class="clusterblast-orf" id="dummy-18_h18_5_24"  />
</g>
<g id="a18_0025"  >
<polygon points="629,90 632,85 629,80 629,90 " style="fill:white; stroke-width:1; stroke:black; " description="&lt;b&gt;ALG65321.1&lt;/b&gt;&lt;br&gt;Cal15&lt;br&gt;Location: 44755 - 44952" locus_tag="ALG65321.1" class="clusterblast-orf" id="dummy-18_h18_5_25"  />
</g>
<g id="a18_0026"  >
<polygon points="634,90 640,90 645,85 640,80 634,80 634,90 " style="fill:white; stroke-width:1; stroke:black; " description="&lt;b&gt;ALG65322.1&lt;/b&gt;&lt;br&gt;Cal14&lt;br&gt;Location: 45084 - 45857" locus_tag="ALG65322.1" class="clusterblast-orf" id="dummy-18_h18_5_26"  />
</g>
<g id="a18_0027"  >
<polygon points="646,85 651,80 659,80 659,90 651,90 646,85 " style="fill:white; stroke-width:1; stroke:black; " description="&lt;b&gt;ALG65323.1&lt;/b&gt;&lt;br&gt;Cal13&lt;br&gt;Location: 45928 - 46872" locus_tag="ALG65323.1" class="clusterblast-orf" id="dummy-18_h18_5_27"  />
</g>
<g id="a18_0028"  >
<polygon points="659,85 664,80 665,80 665,90 664,90 659,85 " style="fill:white; stroke-width:1; stroke:black; " description="&lt;b&gt;ALG65324.1&lt;/b&gt;&lt;br&gt;Cal12&lt;br&gt;Location: 46869 - 47291" locus_tag="ALG65324.1" class="clusterblast-orf" id="dummy-18_h18_5_28"  />
</g>
<g id="a18_0029"  >
<polygon points="665,85 670,80 671,80 671,90 670,90 665,85 " style="fill:white; stroke-width:1; stroke:black; " description="&lt;b&gt;ALG65325.1&lt;/b&gt;&lt;br&gt;Cal11&lt;br&gt;Location: 47291 - 47701" locus_tag="ALG65325.1" class="clusterblast-orf" id="dummy-18_h18_5_29"  />
</g>
<g id="a18_0030"  >
<polygon points="671,85 676,80 676,80 676,90 676,90 671,85 " style="fill:white; stroke-width:1; stroke:black; " description="&lt;b&gt;ALG65326.1&lt;/b&gt;&lt;br&gt;Cal10&lt;br&gt;Location: 47701 - 48072" locus_tag="ALG65326.1" class="clusterblast-orf" id="dummy-18_h18_5_30"  />
</g>
<g id="a18_0031"  >
<polygon points="676,85 680,80 680,90 676,85 " style="fill:#b115d8; stroke-width:1; stroke:black; " description="&lt;b&gt;ALG65327.1&lt;/b&gt;&lt;br&gt;Cal9&lt;br&gt;Location: 48072 - 48323&lt;br&gt;&lt;br&gt;&lt;b&gt;BlastP hit with LLPMBPKK_04031&lt;/b&gt;&lt;br&gt;Percentage identity: 48&lt;br&gt;Percentage coverage: 95&lt;br&gt;BLAST bit score: 72&lt;br&gt;E-value: 6.23e-18" locus_tag="ALG65327.1" class="clusterblast-orf" id="dummy-18_h18_5_31"  />
</g>
<g id="a18_0032"  >
<polygon points="683,90 695,90 700,85 695,80 683,80 683,90 " style="fill:white; stroke-width:1; stroke:black; " description="&lt;b&gt;ALG65328.1&lt;/b&gt;&lt;br&gt;Cal8&lt;br&gt;Location: 48540 - 49781" locus_tag="ALG65328.1" class="clusterblast-orf" id="dummy-18_h18_5_32"  />
</g>
<g id="a18_0033"  >
<polygon points="700,90 709,90 714,85 709,80 700,80 700,90 " style="fill:white; stroke-width:1; stroke:black; " description="&lt;b&gt;ALG65329.1&lt;/b&gt;&lt;br&gt;Cal7&lt;br&gt;Location: 49778 - 50782" locus_tag="ALG65329.1" class="clusterblast-orf" id="dummy-18_h18_5_33"  />
</g>
<g id="a18_0034"  >
<polygon points="715,90 724,90 729,85 724,80 715,80 715,90 " style="fill:white; stroke-width:1; stroke:black; " description="&lt;b&gt;ALG65330.1&lt;/b&gt;&lt;br&gt;Cal6&lt;br&gt;Location: 50852 - 51811" locus_tag="ALG65330.1" class="clusterblast-orf" id="dummy-18_h18_5_34"  />
</g>
<g id="a18_0035"  >
<polygon points="730,85 735,80 741,80 741,90 735,90 730,85 " style="fill:white; stroke-width:1; stroke:black; " description="&lt;b&gt;ALG65331.1&lt;/b&gt;&lt;br&gt;Cal5&lt;br&gt;Location: 51908 - 52696" locus_tag="ALG65331.1" class="clusterblast-orf" id="dummy-18_h18_5_35"  />
</g>
<g id="a18_0036"  >
<polygon points="741,85 745,80 745,90 741,85 " style="fill:white; stroke-width:1; stroke:black; " description="&lt;b&gt;ALG65332.1&lt;/b&gt;&lt;br&gt;Cal4&lt;br&gt;Location: 52701 - 52919" locus_tag="ALG65332.1" class="clusterblast-orf" id="dummy-18_h18_5_36"  />
</g>
<g id="a18_0037"  >
<polygon points="745,85 749,80 749,90 745,85 " style="fill:white; stroke-width:1; stroke:black; " description="&lt;b&gt;ALG65333.1&lt;/b&gt;&lt;br&gt;Cal3&lt;br&gt;Location: 52967 - 53206" locus_tag="ALG65333.1" class="clusterblast-orf" id="dummy-18_h18_5_37"  />
</g>
<g id="a18_0038"  >
<polygon points="753,85 758,80 762,80 762,90 758,90 753,85 " style="fill:white; stroke-width:1; stroke:black; " description="&lt;b&gt;ALG65334.1&lt;/b&gt;&lt;br&gt;Cal2&lt;br&gt;Location: 53526 - 54170" locus_tag="ALG65334.1" class="clusterblast-orf" id="dummy-18_h18_5_38"  />
</g>
<g id="a18_0039"  >
<polygon points="762,85 767,80 780,80 780,90 767,90 762,85 " style="fill:white; stroke-width:1; stroke:black; " description="&lt;b&gt;ALG65335.1&lt;/b&gt;&lt;br&gt;Cal1&lt;br&gt;Location: 54161 - 55402" locus_tag="ALG65335.1" class="clusterblast-orf" id="dummy-18_h18_5_39"  />
</g>
</svg>
