<svg xmlns="http://www.w3.org/2000/svg" xmlns:xlink="http://www.w3.org/1999/xlink" version="1.1" x="0" y="0" height="230" width="800" viewBox="0 0 800 230" preserveAspectRatio="none"  >
<g label="Query sequence" class="clusterblast-cluster"  >
<text x="5" y="20" class="clusterblast-acc"  >
Query sequence</text>
<line x1="10" y1="35" x2="778.0" y2="35" style="stroke-width:1; stroke:grey; "  />
<polygon points="90,40 97,40 102,35 97,30 90,30 90,40 " style="fill:white; stroke-width:1; stroke:black; " description="&lt;b&gt;LLPMBPKK_00703&lt;/b&gt;&lt;br&gt;hypothetical protein&lt;br&gt;Location: 897958 - 898738" locus_tag="LLPMBPKK_00703" class="clusterblast-orf" id="dummy-6_q0_0_all"  />
<polygon points="102,35 107,30 127,30 127,40 107,40 102,35 " style="fill:white; stroke-width:1; stroke:black; " description="&lt;b&gt;LLPMBPKK_00704&lt;/b&gt;&lt;br&gt;LytR family transcriptional regulator&lt;br&gt;Location: 898753 - 900469" locus_tag="LLPMBPKK_00704" class="clusterblast-orf" id="dummy-6_q1_0_all"  />
<polygon points="130,35 135,30 145,30 145,40 135,40 130,35 " style="fill:white; stroke-width:1; stroke:black; " description="&lt;b&gt;LLPMBPKK_00705&lt;/b&gt;&lt;br&gt;urea transporter&lt;br&gt;Location: 900632 - 901688" locus_tag="LLPMBPKK_00705" class="clusterblast-orf" id="dummy-6_q2_0_all"  />
<polygon points="147,35 152,30 167,30 167,40 152,40 147,35 " style="fill:white; stroke-width:1; stroke:black; " description="&lt;b&gt;LLPMBPKK_00706&lt;/b&gt;&lt;br&gt;hypothetical protein&lt;br&gt;Location: 901826 - 903119" locus_tag="LLPMBPKK_00706" class="clusterblast-orf" id="dummy-6_q3_0_all"  />
<polygon points="170,40 170,40 175,35 170,30 170,30 170,40 " style="fill:white; stroke-width:1; stroke:black; " description="&lt;b&gt;LLPMBPKK_00707&lt;/b&gt;&lt;br&gt;anti-sigma factor antagonist&lt;br&gt;Location: 903353 - 903722" locus_tag="LLPMBPKK_00707" class="clusterblast-orf" id="dummy-6_q4_0_all"  />
<polygon points="180,40 182,40 187,35 182,30 180,30 180,40 " style="fill:white; stroke-width:1; stroke:black; " description="&lt;b&gt;LLPMBPKK_00708&lt;/b&gt;&lt;br&gt;transcription elongation factor GreA&lt;br&gt;Location: 904045 - 904504" locus_tag="LLPMBPKK_00708" class="clusterblast-orf" id="dummy-6_q5_0_all"  />
<polygon points="188,35 193,30 225,30 225,40 193,40 188,35 " style="fill:white; stroke-width:1; stroke:black; " description="&lt;b&gt;LLPMBPKK_00709&lt;/b&gt;&lt;br&gt;chaperone&lt;br&gt;Location: 904558 - 907072" locus_tag="LLPMBPKK_00709" class="clusterblast-orf" id="dummy-6_q6_0_all"  />
<polygon points="239,35 244,30 245,30 245,40 244,40 239,35 " style="fill:white; stroke-width:1; stroke:black; " description="&lt;b&gt;LLPMBPKK_00710&lt;/b&gt;&lt;br&gt;hypothetical protein&lt;br&gt;Location: 908016 - 908409" locus_tag="LLPMBPKK_00710" class="clusterblast-orf" id="dummy-6_q7_0_all"  />
<polygon points="246,35 251,30 259,30 259,40 251,40 246,35 " style="fill:white; stroke-width:1; stroke:black; " description="&lt;b&gt;LLPMBPKK_00711&lt;/b&gt;&lt;br&gt;YegS/Rv2252/BmrU family lipid kinase&lt;br&gt;Location: 908465 - 909347" locus_tag="LLPMBPKK_00711" class="clusterblast-orf" id="dummy-6_q8_0_all"  />
<polygon points="259,35 264,30 283,30 283,40 264,40 259,35 " style="fill:white; stroke-width:1; stroke:black; " description="&lt;b&gt;LLPMBPKK_00712&lt;/b&gt;&lt;br&gt;FAD-binding oxidoreductase&lt;br&gt;Location: 909389 - 910982" locus_tag="LLPMBPKK_00712" class="clusterblast-orf" id="dummy-6_q9_0_all"  />
<polygon points="285,40 290,40 295,35 290,30 285,30 285,40 " style="fill:white; stroke-width:1; stroke:black; " description="&lt;b&gt;LLPMBPKK_00713&lt;/b&gt;&lt;br&gt;TetR/AcrR family transcriptional regulator&lt;br&gt;Location: 911123 - 911771" locus_tag="LLPMBPKK_00713" class="clusterblast-orf" id="dummy-6_q10_0_all"  />
<polygon points="295,40 313,40 318,35 313,30 295,30 295,40 " style="fill:white; stroke-width:1; stroke:black; " description="&lt;b&gt;LLPMBPKK_00714&lt;/b&gt;&lt;br&gt;glycerol-3-phosphate dehydrogenase/oxidase&lt;br&gt;Location: 911767 - 913342" locus_tag="LLPMBPKK_00714" class="clusterblast-orf" id="dummy-6_q11_0_all"  />
<polygon points="323,40 342,40 347,35 342,30 323,30 323,40 " style="fill:#d81515; stroke-width:1; stroke:black; " description="&lt;b&gt;LLPMBPKK_00715&lt;/b&gt;&lt;br&gt;tryptophan 7-halogenase&lt;br&gt;Location: 913711 - 915334" locus_tag="LLPMBPKK_00715" class="clusterblast-orf" id="dummy-6_q12_0_all"  />
<polygon points="347,40 351,40 356,35 351,30 347,30 347,40 " style="fill:#15d815; stroke-width:1; stroke:black; " description="&lt;b&gt;LLPMBPKK_00716&lt;/b&gt;&lt;br&gt;flavin reductase&lt;br&gt;Location: 915323 - 915887" locus_tag="LLPMBPKK_00716" class="clusterblast-orf" id="dummy-6_q13_0_all"  />
<polygon points="355,40 367,40 372,35 367,30 355,30 355,40 " style="fill:white; stroke-width:1; stroke:black; " description="&lt;b&gt;LLPMBPKK_00717&lt;/b&gt;&lt;br&gt;hypothetical protein&lt;br&gt;Location: 915883 - 917014" locus_tag="LLPMBPKK_00717" class="clusterblast-orf" id="dummy-6_q14_0_all"  />
<polygon points="374,40 394,40 399,35 394,30 374,30 374,40 " style="fill:#1515d8; stroke-width:1; stroke:black; " description="&lt;b&gt;LLPMBPKK_00718&lt;/b&gt;&lt;br&gt;CDA peptide synthetase III&lt;br&gt;Location: 917154 - 918852" locus_tag="LLPMBPKK_00718" class="clusterblast-orf" id="dummy-6_q15_0_all"  />
<polygon points="399,40 406,40 411,35 406,30 399,30 399,40 " style="fill:#d815d8; stroke-width:1; stroke:black; " description="&lt;b&gt;LLPMBPKK_00719&lt;/b&gt;&lt;br&gt;thioesterase&lt;br&gt;Location: 918851 - 919604" locus_tag="LLPMBPKK_00719" class="clusterblast-orf" id="dummy-6_q16_0_all"  />
<polygon points="410,40 423,40 428,35 423,30 410,30 410,40 " style="fill:#d8d815; stroke-width:1; stroke:black; " description="&lt;b&gt;LLPMBPKK_00720&lt;/b&gt;&lt;br&gt;cytochrome P450&lt;br&gt;Location: 919593 - 920790" locus_tag="LLPMBPKK_00720" class="clusterblast-orf" id="dummy-6_q17_0_all"  />
<polygon points="429,40 429,40 434,35 429,30 429,30 429,40 " style="fill:white; stroke-width:1; stroke:black; " description="&lt;b&gt;LLPMBPKK_00721&lt;/b&gt;&lt;br&gt;YCII-related domain protein&lt;br&gt;Location: 920854 - 921169" locus_tag="LLPMBPKK_00721" class="clusterblast-orf" id="dummy-6_q18_0_all"  />
<polygon points="434,40 446,40 451,35 446,30 434,30 434,40 " style="fill:white; stroke-width:1; stroke:black; " description="&lt;b&gt;LLPMBPKK_00722&lt;/b&gt;&lt;br&gt;hydrolase&lt;br&gt;Location: 921165 - 922353" locus_tag="LLPMBPKK_00722" class="clusterblast-orf" id="dummy-6_q19_0_all"  />
<polygon points="451,40 458,40 463,35 458,30 451,30 451,40 " style="fill:white; stroke-width:1; stroke:black; " description="&lt;b&gt;LLPMBPKK_00723&lt;/b&gt;&lt;br&gt;3-oxoacyl-[acyl-carrier-protein] reductase&lt;br&gt;Location: 922345 - 923146" locus_tag="LLPMBPKK_00723" class="clusterblast-orf" id="dummy-6_q20_0_all"  />
<polygon points="463,40 477,40 482,35 477,30 463,30 463,40 " style="fill:white; stroke-width:1; stroke:black; " description="&lt;b&gt;LLPMBPKK_00724&lt;/b&gt;&lt;br&gt;ATP-grasp domain protein&lt;br&gt;Location: 923161 - 924427" locus_tag="LLPMBPKK_00724" class="clusterblast-orf" id="dummy-6_q21_0_all"  />
<polygon points="482,40 495,40 500,35 495,30 482,30 482,40 " style="fill:white; stroke-width:1; stroke:black; " description="&lt;b&gt;LLPMBPKK_00725&lt;/b&gt;&lt;br&gt;pyridoxal-phosphate dependent enzyme&lt;br&gt;Location: 924438 - 925662" locus_tag="LLPMBPKK_00725" class="clusterblast-orf" id="dummy-6_q22_0_all"  />
<polygon points="500,40 515,40 520,35 515,30 500,30 500,40 " style="fill:white; stroke-width:1; stroke:black; " description="&lt;b&gt;LLPMBPKK_00726&lt;/b&gt;&lt;br&gt;MFS transporter&lt;br&gt;Location: 925667 - 927008" locus_tag="LLPMBPKK_00726" class="clusterblast-orf" id="dummy-6_q23_0_all"  />
<polygon points="520,40 535,40 540,35 535,30 520,30 520,40 " style="fill:white; stroke-width:1; stroke:black; " description="&lt;b&gt;LLPMBPKK_00727&lt;/b&gt;&lt;br&gt;transporter monovalent cation:proton antiporter-2(CPA2) family protein&lt;br&gt;Location: 927009 - 928332" locus_tag="LLPMBPKK_00727" class="clusterblast-orf" id="dummy-6_q24_0_all"  />
<polygon points="540,35 545,30 562,30 562,40 545,40 540,35 " style="fill:white; stroke-width:1; stroke:black; " description="&lt;b&gt;LLPMBPKK_00728&lt;/b&gt;&lt;br&gt;Outer membrane protein assembly factor BamB&lt;br&gt;Location: 928352 - 929804" locus_tag="LLPMBPKK_00728" class="clusterblast-orf" id="dummy-6_q25_0_all"  />
<polygon points="565,35 570,30 575,30 575,40 570,40 565,35 " style="fill:white; stroke-width:1; stroke:black; " description="&lt;b&gt;LLPMBPKK_00729&lt;/b&gt;&lt;br&gt;TetR family transcriptional regulator&lt;br&gt;Location: 930052 - 930694" locus_tag="LLPMBPKK_00729" class="clusterblast-orf" id="dummy-6_q26_0_all"  />
<polygon points="577,40 584,40 589,35 584,30 577,30 577,40 " style="fill:white; stroke-width:1; stroke:black; " description="&lt;b&gt;LLPMBPKK_00730&lt;/b&gt;&lt;br&gt;oxidoreductase&lt;br&gt;Location: 930855 - 931641" locus_tag="LLPMBPKK_00730" class="clusterblast-orf" id="dummy-6_q27_0_all"  />
<polygon points="589,35 594,30 613,30 613,40 594,40 589,35 " style="fill:white; stroke-width:1; stroke:black; " description="&lt;b&gt;LLPMBPKK_00731&lt;/b&gt;&lt;br&gt;ABC-F family ATP-binding cassettedomain-containing protein&lt;br&gt;Location: 931668 - 933291" locus_tag="LLPMBPKK_00731" class="clusterblast-orf" id="dummy-6_q28_0_all"  />
<polygon points="617,35 622,30 622,30 622,40 622,40 617,35 " style="fill:white; stroke-width:1; stroke:black; " description="&lt;b&gt;LLPMBPKK_00732&lt;/b&gt;&lt;br&gt;hypothetical protein&lt;br&gt;Location: 933575 - 933890" locus_tag="LLPMBPKK_00732" class="clusterblast-orf" id="dummy-6_q29_0_all"  />
<polygon points="627,35 632,30 637,30 637,40 632,40 627,35 " style="fill:white; stroke-width:1; stroke:black; " description="&lt;b&gt;LLPMBPKK_00733&lt;/b&gt;&lt;br&gt;SDR family NAD(P)-dependent oxidoreductase&lt;br&gt;Location: 934205 - 934910" locus_tag="LLPMBPKK_00733" class="clusterblast-orf" id="dummy-6_q30_0_all"  />
<polygon points="640,40 651,40 656,35 651,30 640,30 640,40 " style="fill:white; stroke-width:1; stroke:black; " description="&lt;b&gt;LLPMBPKK_00734&lt;/b&gt;&lt;br&gt;4Fe-4S ferredoxin&lt;br&gt;Location: 935072 - 936182" locus_tag="LLPMBPKK_00734" class="clusterblast-orf" id="dummy-6_q31_0_all"  />
<polygon points="662,40 669,40 674,35 669,30 662,30 662,40 " style="fill:#15d8d8; stroke-width:1; stroke:black; " description="&lt;b&gt;LLPMBPKK_00735&lt;/b&gt;&lt;br&gt;SAM-dependent methyltransferase&lt;br&gt;Location: 936572 - 937370" locus_tag="LLPMBPKK_00735" class="clusterblast-orf" id="dummy-6_q32_0_all"  />
<polygon points="675,35 680,30 689,30 689,40 680,40 675,35 " style="fill:white; stroke-width:1; stroke:black; " description="&lt;b&gt;LLPMBPKK_00736&lt;/b&gt;&lt;br&gt;hypothetical protein&lt;br&gt;Location: 937433 - 938423" locus_tag="LLPMBPKK_00736" class="clusterblast-orf" id="dummy-6_q33_0_all"  />
</g>
<g label="BGC0002426" description="BGC0002426_c1: deschlorosvetamycin A/svetamycin H/svetamycin A (4% of genes show similarity), NRP" class="clusterblast-cluster"  >
<text x="5" y="70" class="clusterblast-acc"  >
<a xlink:href="https://mibig.secondarymetabolites.org/go/BGC0002426/1" target="_blank">BGC0002426</a>:                                  deschlorosvetamycin A/svetamycin H/svetamycin A (4% of genes show similarity), NRP</text>
<line x1="10" y1="85" x2="778.0" y2="85" style="stroke-width:1; stroke:grey; "  />
</g>
<g id="a6_000"  >
<polygon points="0,90 6,90 11,85 6,80 0,80 0,90 " style="fill:white; stroke-width:1; stroke:black; " description="&lt;b&gt;QXL90809.1&lt;/b&gt;&lt;br&gt;hypothetical protein&lt;br&gt;Location: 126 - 935" locus_tag="QXL90809.1" class="clusterblast-orf" id="dummy-6_h6_3_0"  />
</g>
<g id="a6_001"  >
<polygon points="11,90 22,90 27,85 22,80 11,80 11,90 " style="fill:white; stroke-width:1; stroke:black; " description="&lt;b&gt;QXL90810.1&lt;/b&gt;&lt;br&gt;hypothetical protein&lt;br&gt;Location: 932 - 1999" locus_tag="QXL90810.1" class="clusterblast-orf" id="dummy-6_h6_3_1"  />
</g>
<g id="a6_002"  >
<polygon points="30,90 42,90 47,85 42,80 30,80 30,90 " style="fill:white; stroke-width:1; stroke:black; " description="&lt;b&gt;QXL90811.1&lt;/b&gt;&lt;br&gt;hypothetical protein&lt;br&gt;Location: 2155 - 3336" locus_tag="QXL90811.1" class="clusterblast-orf" id="dummy-6_h6_3_2"  />
</g>
<g id="a6_003"  >
<polygon points="48,90 54,90 59,85 54,80 48,80 48,90 " style="fill:white; stroke-width:1; stroke:black; " description="&lt;b&gt;QXL90812.1&lt;/b&gt;&lt;br&gt;L,D-transpeptidase&lt;br&gt;Location: 3382 - 4137" locus_tag="QXL90812.1" class="clusterblast-orf" id="dummy-6_h6_3_3"  />
</g>
<g id="a6_004"  >
<polygon points="62,90 80,90 85,85 80,80 62,80 62,90 " style="fill:white; stroke-width:1; stroke:black; " description="&lt;b&gt;QXL90813.1&lt;/b&gt;&lt;br&gt;sigma-70 family RNA polymerase sigma factor&lt;br&gt;Location: 4334 - 5893" locus_tag="QXL90813.1" class="clusterblast-orf" id="dummy-6_h6_3_4"  />
</g>
<g id="a6_005"  >
<polygon points="85,85 90,80 101,80 101,90 90,90 85,85 " style="fill:white; stroke-width:1; stroke:black; " description="&lt;b&gt;QXL90814.1&lt;/b&gt;&lt;br&gt;AsnC family transcriptional regulator&lt;br&gt;Location: 5921 - 6991" locus_tag="QXL90814.1" class="clusterblast-orf" id="dummy-6_h6_3_5"  />
</g>
<g id="a6_006"  >
<polygon points="104,90 119,90 124,85 119,80 104,80 104,90 " style="fill:white; stroke-width:1; stroke:black; " description="&lt;b&gt;QXL90815.1&lt;/b&gt;&lt;br&gt;MFS transporter&lt;br&gt;Location: 7176 - 8567" locus_tag="QXL90815.1" class="clusterblast-orf" id="dummy-6_h6_3_6"  />
</g>
<g id="a6_007"  >
<polygon points="124,90 137,90 142,85 137,80 124,80 124,90 " style="fill:white; stroke-width:1; stroke:black; " description="&lt;b&gt;QXL90816.1&lt;/b&gt;&lt;br&gt;amidohydrolase&lt;br&gt;Location: 8564 - 9775" locus_tag="QXL90816.1" class="clusterblast-orf" id="dummy-6_h6_3_7"  />
</g>
<g id="a6_008"  >
<polygon points="143,90 149,90 154,85 149,80 143,80 143,90 " style="fill:white; stroke-width:1; stroke:black; " description="&lt;b&gt;QXL90817.1&lt;/b&gt;&lt;br&gt;DeoR/GlpR transcriptional regulator&lt;br&gt;Location: 9795 - 10580" locus_tag="QXL90817.1" class="clusterblast-orf" id="dummy-6_h6_3_8"  />
</g>
<g id="a6_009"  >
<polygon points="155,90 155,90 160,85 155,80 155,80 155,90 " style="fill:white; stroke-width:1; stroke:black; " description="&lt;b&gt;QXL90818.1&lt;/b&gt;&lt;br&gt;hypothetical protein&lt;br&gt;Location: 10614 - 10991" locus_tag="QXL90818.1" class="clusterblast-orf" id="dummy-6_h6_3_9"  />
</g>
<g id="a6_0010"  >
<polygon points="160,90 165,90 170,85 165,80 160,80 160,90 " style="fill:white; stroke-width:1; stroke:black; " description="&lt;b&gt;QXL90819.1&lt;/b&gt;&lt;br&gt;NUDIX domain-containing protein&lt;br&gt;Location: 10988 - 11656" locus_tag="QXL90819.1" class="clusterblast-orf" id="dummy-6_h6_3_10"  />
</g>
<g id="a6_0011"  >
<polygon points="171,90 179,90 184,85 179,80 171,80 171,90 " style="fill:white; stroke-width:1; stroke:black; " description="&lt;b&gt;QXL90820.1&lt;/b&gt;&lt;br&gt;NAD(P)-dependent oxidoreductase&lt;br&gt;Location: 11683 - 12561" locus_tag="QXL90820.1" class="clusterblast-orf" id="dummy-6_h6_3_11"  />
</g>
<g id="a6_0012"  >
<polygon points="184,85 189,80 202,80 202,90 189,90 184,85 " style="fill:white; stroke-width:1; stroke:black; " description="&lt;b&gt;QXL90821.1&lt;/b&gt;&lt;br&gt;cytochrome P450&lt;br&gt;Location: 12583 - 13800" locus_tag="QXL90821.1" class="clusterblast-orf" id="dummy-6_h6_3_12"  />
</g>
<g id="a6_0013"  >
<polygon points="203,85 208,80 227,80 227,90 208,90 203,85 " style="fill:white; stroke-width:1; stroke:black; " description="&lt;b&gt;QXL90822.1&lt;/b&gt;&lt;br&gt;FAD-binding monooxygenase&lt;br&gt;Location: 13854 - 15473" locus_tag="QXL90822.1" class="clusterblast-orf" id="dummy-6_h6_3_13"  />
</g>
<g id="a6_0014"  >
<polygon points="231,90 237,90 242,85 237,80 231,80 231,90 " style="fill:white; stroke-width:1; stroke:black; " description="&lt;b&gt;QXL90823.1&lt;/b&gt;&lt;br&gt;methyltransferase&lt;br&gt;Location: 15791 - 16525" locus_tag="QXL90823.1" class="clusterblast-orf" id="dummy-6_h6_3_14"  />
</g>
<g id="a6_0015"  >
<polygon points="243,85 248,80 267,80 267,90 248,90 243,85 " style="fill:white; stroke-width:1; stroke:black; " description="&lt;b&gt;QXL90824.1&lt;/b&gt;&lt;br&gt;FAD-dependent monooxygenase&lt;br&gt;Location: 16555 - 18186" locus_tag="QXL90824.1" class="clusterblast-orf" id="dummy-6_h6_3_15"  />
</g>
<g id="a6_0016"  >
<polygon points="267,85 272,80 278,80 278,90 272,90 267,85 " style="fill:white; stroke-width:1; stroke:black; " description="&lt;b&gt;QXL90825.1&lt;/b&gt;&lt;br&gt;methyltransferase&lt;br&gt;Location: 18186 - 18932" locus_tag="QXL90825.1" class="clusterblast-orf" id="dummy-6_h6_3_16"  />
</g>
<g id="a6_0017"  >
<polygon points="286,85 291,80 295,80 295,90 291,90 286,85 " style="fill:white; stroke-width:1; stroke:black; " description="&lt;b&gt;QXL90826.1&lt;/b&gt;&lt;br&gt;TetR family transcriptional regulator&lt;br&gt;Location: 19489 - 20079" locus_tag="QXL90826.1" class="clusterblast-orf" id="dummy-6_h6_3_17"  />
</g>
<g id="a6_0018"  >
<polygon points="296,90 315,90 320,85 315,80 296,80 296,90 " style="fill:white; stroke-width:1; stroke:black; " description="&lt;b&gt;QXL90827.1&lt;/b&gt;&lt;br&gt;MFS transporter&lt;br&gt;Location: 20160 - 21752" locus_tag="QXL90827.1" class="clusterblast-orf" id="dummy-6_h6_3_18"  />
</g>
<g id="a6_0019"  >
<polygon points="326,90 332,90 337,85 332,80 326,80 326,90 " style="fill:white; stroke-width:1; stroke:black; " description="&lt;b&gt;QXL90828.1&lt;/b&gt;&lt;br&gt;glyoxalase&lt;br&gt;Location: 22192 - 22932" locus_tag="QXL90828.1" class="clusterblast-orf" id="dummy-6_h6_3_19"  />
</g>
<g id="a6_0020"  >
<polygon points="338,85 343,80 354,80 354,90 343,90 338,85 " style="fill:white; stroke-width:1; stroke:black; " description="&lt;b&gt;QXL90829.1&lt;/b&gt;&lt;br&gt;O-methyltransferase&lt;br&gt;Location: 23004 - 24038" locus_tag="QXL90829.1" class="clusterblast-orf" id="dummy-6_h6_3_20"  />
</g>
<g id="a6_0021"  >
<polygon points="354,85 359,80 365,80 365,90 359,90 354,85 " style="fill:white; stroke-width:1; stroke:black; " description="&lt;b&gt;QXL90830.1&lt;/b&gt;&lt;br&gt;3-oxoacyl-(acyl-carrier protein) reductase&lt;br&gt;Location: 24103 - 24801" locus_tag="QXL90830.1" class="clusterblast-orf" id="dummy-6_h6_3_21"  />
</g>
<g id="a6_0022"  >
<polygon points="365,85 370,80 384,80 384,90 370,90 365,85 " style="fill:white; stroke-width:1; stroke:black; " description="&lt;b&gt;QXL90831.1&lt;/b&gt;&lt;br&gt;potassium transporter&lt;br&gt;Location: 24785 - 26122" locus_tag="QXL90831.1" class="clusterblast-orf" id="dummy-6_h6_3_22"  />
</g>
<g id="a6_0023"  >
<polygon points="384,85 389,80 403,80 403,90 389,90 384,85 " style="fill:white; stroke-width:1; stroke:black; " description="&lt;b&gt;QXL90832.1&lt;/b&gt;&lt;br&gt;halogenase&lt;br&gt;Location: 26122 - 27399" locus_tag="QXL90832.1" class="clusterblast-orf" id="dummy-6_h6_3_23"  />
</g>
<g id="a6_0024"  >
<polygon points="404,85 409,80 409,80 409,90 409,90 404,85 " style="fill:white; stroke-width:1; stroke:black; " description="&lt;b&gt;QXL90833.1&lt;/b&gt;&lt;br&gt;cyclase&lt;br&gt;Location: 27443 - 27799" locus_tag="QXL90833.1" class="clusterblast-orf" id="dummy-6_h6_3_24"  />
</g>
<g id="a6_0025"  >
<polygon points="409,85 414,80 416,80 416,90 414,90 409,85 " style="fill:white; stroke-width:1; stroke:black; " description="&lt;b&gt;QXL90834.1&lt;/b&gt;&lt;br&gt;polyketide cyclase&lt;br&gt;Location: 27796 - 28287" locus_tag="QXL90834.1" class="clusterblast-orf" id="dummy-6_h6_3_25"  />
</g>
<g id="a6_0026"  >
<polygon points="416,85 420,80 420,90 416,85 " style="fill:white; stroke-width:1; stroke:black; " description="&lt;b&gt;QXL90835.1&lt;/b&gt;&lt;br&gt;putative acyl carrier protein&lt;br&gt;Location: 28284 - 28523" locus_tag="QXL90835.1" class="clusterblast-orf" id="dummy-6_h6_3_26"  />
</g>
<g id="a6_0027"  >
<polygon points="420,85 425,80 439,80 439,90 425,90 420,85 " style="fill:white; stroke-width:1; stroke:black; " description="&lt;b&gt;QXL90836.1&lt;/b&gt;&lt;br&gt;keto-acyl synthase beta&lt;br&gt;Location: 28560 - 29819" locus_tag="QXL90836.1" class="clusterblast-orf" id="dummy-6_h6_3_27"  />
</g>
<g id="a6_0028"  >
<polygon points="439,85 444,80 458,80 458,90 444,90 439,85 " style="fill:white; stroke-width:1; stroke:black; " description="&lt;b&gt;QXL90837.1&lt;/b&gt;&lt;br&gt;polyketide beta-ketoacyl synthase alpha&lt;br&gt;Location: 29816 - 31081" locus_tag="QXL90837.1" class="clusterblast-orf" id="dummy-6_h6_3_28"  />
</g>
<g id="a6_0029"  >
<polygon points="458,85 463,80 464,80 464,90 463,90 458,85 " style="fill:white; stroke-width:1; stroke:black; " description="&lt;b&gt;QXL90838.1&lt;/b&gt;&lt;br&gt;polyketide WhiE II&lt;br&gt;Location: 31078 - 31479" locus_tag="QXL90838.1" class="clusterblast-orf" id="dummy-6_h6_3_29"  />
</g>
<g id="a6_0030"  >
<polygon points="464,85 469,80 474,80 474,90 469,90 464,85 " style="fill:white; stroke-width:1; stroke:black; " description="&lt;b&gt;QXL90839.1&lt;/b&gt;&lt;br&gt;WhiE protein&lt;br&gt;Location: 31476 - 32153" locus_tag="QXL90839.1" class="clusterblast-orf" id="dummy-6_h6_3_30"  />
</g>
<g id="a6_0031"  >
<polygon points="475,85 480,80 497,80 497,90 480,90 475,85 " style="fill:white; stroke-width:1; stroke:black; " description="&lt;b&gt;QXL90840.1&lt;/b&gt;&lt;br&gt;MFS transporter&lt;br&gt;Location: 32272 - 33747" locus_tag="QXL90840.1" class="clusterblast-orf" id="dummy-6_h6_3_31"  />
</g>
<g id="a6_0032"  >
<polygon points="499,90 504,90 509,85 504,80 499,80 499,90 " style="fill:white; stroke-width:1; stroke:black; " description="&lt;b&gt;QXL90841.1&lt;/b&gt;&lt;br&gt;transcriptional regulator TetR family&lt;br&gt;Location: 33862 - 34527" locus_tag="QXL90841.1" class="clusterblast-orf" id="dummy-6_h6_3_32"  />
</g>
<g id="a6_0033"  >
<polygon points="508,90 519,90 524,85 519,80 508,80 508,90 " style="fill:white; stroke-width:1; stroke:black; " description="&lt;b&gt;QXL90842.1&lt;/b&gt;&lt;br&gt;methyltransferase&lt;br&gt;Location: 34490 - 35545" locus_tag="QXL90842.1" class="clusterblast-orf" id="dummy-6_h6_3_33"  />
</g>
<g id="a6_0034"  >
<polygon points="524,85 529,80 566,80 566,90 529,90 524,85 " style="fill:white; stroke-width:1; stroke:black; " description="&lt;b&gt;QXL90843.1&lt;/b&gt;&lt;br&gt;LuxR family transcriptional regulator&lt;br&gt;Location: 35571 - 38414" locus_tag="QXL90843.1" class="clusterblast-orf" id="dummy-6_h6_3_34"  />
</g>
<g id="a6_0035"  >
<polygon points="569,85 574,80 597,80 597,90 574,90 569,85 " style="fill:white; stroke-width:1; stroke:black; " description="&lt;b&gt;QXL90844.1&lt;/b&gt;&lt;br&gt;AfsR/SARP family transcriptional regulator&lt;br&gt;Location: 38571 - 40472" locus_tag="QXL90844.1" class="clusterblast-orf" id="dummy-6_h6_3_35"  />
</g>
<g id="a6_0036"  >
<polygon points="599,85 604,80 618,80 618,90 604,90 599,85 " style="fill:white; stroke-width:1; stroke:black; " description="&lt;b&gt;QXL90845.1&lt;/b&gt;&lt;br&gt;RebP-like cytochrome P450&lt;br&gt;Location: 40623 - 41891" locus_tag="QXL90845.1" class="clusterblast-orf" id="dummy-6_h6_3_36"  />
</g>
<g id="a6_0037"  >
<polygon points="618,85 623,80 666,80 666,90 623,90 618,85 " style="fill:white; stroke-width:1; stroke:black; " description="&lt;b&gt;QXL90846.1&lt;/b&gt;&lt;br&gt;chromopyrolic acid synthase&lt;br&gt;Location: 41916 - 45134" locus_tag="QXL90846.1" class="clusterblast-orf" id="dummy-6_h6_3_37"  />
</g>
<g id="a6_0038"  >
<polygon points="666,85 671,80 687,80 687,90 671,90 666,85 " style="fill:white; stroke-width:1; stroke:black; " description="&lt;b&gt;QXL90847.1&lt;/b&gt;&lt;br&gt;FAD-dependent oxidoreductase&lt;br&gt;Location: 45131 - 46594" locus_tag="QXL90847.1" class="clusterblast-orf" id="dummy-6_h6_3_38"  />
</g>
<g id="a6_0039"  >
<polygon points="691,90 710,90 715,85 710,80 691,80 691,90 " style="fill:#d81515; stroke-width:1; stroke:black; " description="&lt;b&gt;QXL90848.1&lt;/b&gt;&lt;br&gt;BabH2 tryptophan 7-halogenase&lt;br&gt;Location: 46837 - 48426&lt;br&gt;&lt;br&gt;&lt;b&gt;BlastP hit with LLPMBPKK_00715&lt;/b&gt;&lt;br&gt;Percentage identity: 66&lt;br&gt;Percentage coverage: 98&lt;br&gt;BLAST bit score: 757&lt;br&gt;E-value: 2.37e-274" locus_tag="QXL90848.1" class="clusterblast-orf" id="dummy-6_h6_3_39"  />
</g>
<g id="a6_0040"  >
<polygon points="715,90 717,90 722,85 717,80 715,80 715,90 " style="fill:#15d815; stroke-width:1; stroke:black; " description="&lt;b&gt;QXL90849.1&lt;/b&gt;&lt;br&gt;flavin reductase family protein&lt;br&gt;Location: 48423 - 48950&lt;br&gt;&lt;br&gt;&lt;b&gt;BlastP hit with LLPMBPKK_00716&lt;/b&gt;&lt;br&gt;Percentage identity: 48&lt;br&gt;Percentage coverage: 86&lt;br&gt;BLAST bit score: 137&lt;br&gt;E-value: 4.11e-41" locus_tag="QXL90849.1" class="clusterblast-orf" id="dummy-6_h6_3_40"  />
</g>
<g id="a6_0041"  >
<polygon points="722,85 727,80 733,80 733,90 727,90 722,85 " style="fill:white; stroke-width:1; stroke:black; " description="&lt;b&gt;QXL90850.1&lt;/b&gt;&lt;br&gt;alpha/beta hydrolase&lt;br&gt;Location: 48956 - 49639" locus_tag="QXL90850.1" class="clusterblast-orf" id="dummy-6_h6_3_41"  />
</g>
<g id="a6_0042"  >
<polygon points="732,85 737,80 740,80 740,90 737,90 732,85 " style="fill:white; stroke-width:1; stroke:black; " description="&lt;b&gt;QXL90851.1&lt;/b&gt;&lt;br&gt;SnoaL-like domain-containing protein&lt;br&gt;Location: 49636 - 50124" locus_tag="QXL90851.1" class="clusterblast-orf" id="dummy-6_h6_3_42"  />
</g>
<g id="a6_0043"  >
<polygon points="741,85 746,80 755,80 755,90 746,90 741,85 " style="fill:white; stroke-width:1; stroke:black; " description="&lt;b&gt;QXL90852.1&lt;/b&gt;&lt;br&gt;zinc-binding dehydrogenase&lt;br&gt;Location: 50186 - 51133" locus_tag="QXL90852.1" class="clusterblast-orf" id="dummy-6_h6_3_43"  />
</g>
<g id="a6_0044"  >
<polygon points="757,85 762,80 766,80 766,90 762,90 757,85 " style="fill:white; stroke-width:1; stroke:black; " description="&lt;b&gt;QXL90853.1&lt;/b&gt;&lt;br&gt;TetR family transcriptional regulator&lt;br&gt;Location: 51269 - 51901" locus_tag="QXL90853.1" class="clusterblast-orf" id="dummy-6_h6_3_44"  />
</g>
<g id="a6_0045"  >
<polygon points="770,90 771,90 776,85 771,80 770,80 770,90 " style="fill:white; stroke-width:1; stroke:black; " description="&lt;b&gt;QXL90854.1&lt;/b&gt;&lt;br&gt;hypothetical protein&lt;br&gt;Location: 52200 - 52559" locus_tag="QXL90854.1" class="clusterblast-orf" id="dummy-6_h6_3_45"  />
</g>
<g id="a6_0046"  >
<polygon points="776,90 780,85 776,80 776,90 " style="fill:white; stroke-width:1; stroke:black; " description="&lt;b&gt;QXL90855.1&lt;/b&gt;&lt;br&gt;hypothetical protein&lt;br&gt;Location: 52594 - 52812" locus_tag="QXL90855.1" class="clusterblast-orf" id="dummy-6_h6_3_46"  />
</g>
</svg>
