<svg xmlns="http://www.w3.org/2000/svg" xmlns:xlink="http://www.w3.org/1999/xlink" version="1.1" x="0" y="0" height="230" width="800" viewBox="0 0 800 230" preserveAspectRatio="none"  >
<g label="Query sequence" class="clusterblast-cluster"  >
<text x="5" y="20" class="clusterblast-acc"  >
Query sequence</text>
<line x1="10" y1="35" x2="778.0" y2="35" style="stroke-width:1; stroke:grey; "  />
<polygon points="0,35 5,30 73,30 73,40 5,40 0,35 " style="fill:white; stroke-width:1; stroke:black; " description="&lt;b&gt;LLPMBPKK_02136&lt;/b&gt;&lt;br&gt;transporter substrate-binding domain-containingprotein&lt;br&gt;Location: 2469208 - 2470057" locus_tag="LLPMBPKK_02136" class="clusterblast-orf" id="dummy-11_q0_0_all"  />
<polygon points="86,40 176,40 181,35 176,30 86,30 86,40 " style="fill:white; stroke-width:1; stroke:black; " description="&lt;b&gt;LLPMBPKK_02137&lt;/b&gt;&lt;br&gt;alanine--glyoxylate aminotransferase familyprotein&lt;br&gt;Location: 2470207 - 2471308" locus_tag="LLPMBPKK_02137" class="clusterblast-orf" id="dummy-11_q1_0_all"  />
<polygon points="208,40 247,40 252,35 247,30 208,30 208,40 " style="fill:#d81515; stroke-width:1; stroke:black; " description="&lt;b&gt;LLPMBPKK_02138&lt;/b&gt;&lt;br&gt;diaminobutyrate acetyltransferase&lt;br&gt;Location: 2471624 - 2472143" locus_tag="LLPMBPKK_02138" class="clusterblast-orf" id="dummy-11_q2_0_all"  />
<polygon points="253,40 357,40 362,35 357,30 253,30 253,40 " style="fill:#77d815; stroke-width:1; stroke:black; " description="&lt;b&gt;LLPMBPKK_02139&lt;/b&gt;&lt;br&gt;diaminobutyrate--2-oxoglutarate transaminase&lt;br&gt;Location: 2472156 - 2473428" locus_tag="LLPMBPKK_02139" class="clusterblast-orf" id="dummy-11_q3_0_all"  />
<polygon points="364,40 394,40 399,35 394,30 364,30 364,40 " style="fill:#15d8d8; stroke-width:1; stroke:black; " description="&lt;b&gt;LLPMBPKK_02140&lt;/b&gt;&lt;br&gt;ectoine synthase&lt;br&gt;Location: 2473451 - 2473856" locus_tag="LLPMBPKK_02140" class="clusterblast-orf" id="dummy-11_q4_0_all"  />
<polygon points="400,40 471,40 476,35 471,30 400,30 400,40 " style="fill:#7715d8; stroke-width:1; stroke:black; " description="&lt;b&gt;LLPMBPKK_02141&lt;/b&gt;&lt;br&gt;ectoine hydroxylase&lt;br&gt;Location: 2473861 - 2474755" locus_tag="LLPMBPKK_02141" class="clusterblast-orf" id="dummy-11_q5_0_all"  />
<polygon points="485,35 490,30 576,30 576,40 490,40 485,35 " style="fill:white; stroke-width:1; stroke:black; " description="&lt;b&gt;LLPMBPKK_02142&lt;/b&gt;&lt;br&gt;aminotransferase class V-fold PLP-dependentenzyme&lt;br&gt;Location: 2474859 - 2475921" locus_tag="LLPMBPKK_02142" class="clusterblast-orf" id="dummy-11_q6_0_all"  />
<polygon points="585,35 590,30 647,30 647,40 590,40 585,35 " style="fill:white; stroke-width:1; stroke:black; " description="&lt;b&gt;LLPMBPKK_02143&lt;/b&gt;&lt;br&gt;DsbA family oxidoreductase&lt;br&gt;Location: 2476018 - 2476744" locus_tag="LLPMBPKK_02143" class="clusterblast-orf" id="dummy-11_q7_0_all"  />
<polygon points="653,35 658,30 697,30 697,40 658,40 653,35 " style="fill:white; stroke-width:1; stroke:black; " description="&lt;b&gt;LLPMBPKK_02144&lt;/b&gt;&lt;br&gt;GNAT family N-acetyltransferase&lt;br&gt;Location: 2476819 - 2477326" locus_tag="LLPMBPKK_02144" class="clusterblast-orf" id="dummy-11_q8_0_all"  />
<polygon points="696,35 701,30 780,30 780,40 701,40 696,35 " style="fill:white; stroke-width:1; stroke:black; " description="&lt;b&gt;LLPMBPKK_02145&lt;/b&gt;&lt;br&gt;helix-turn-helix domain-containing protein&lt;br&gt;Location: 2477322 - 2478300" locus_tag="LLPMBPKK_02145" class="clusterblast-orf" id="dummy-11_q9_0_all"  />
</g>
<g label="BGC0000860" description="BGC0000860_c1: ectoine (40% of genes show similarity), Other" class="clusterblast-cluster"  >
<text x="5" y="70" class="clusterblast-acc"  >
<a xlink:href="https://mibig.secondarymetabolites.org/go/BGC0000860/1" target="_blank">BGC0000860</a>:                                                                          ectoine (40% of genes show similarity), Other</text>
<line x1="10" y1="85" x2="778.0" y2="85" style="stroke-width:1; stroke:grey; "  />
</g>
<g id="a11_000"  >
<polygon points="200,85 205,80 247,80 247,90 205,90 200,85 " style="fill:white; stroke-width:1; stroke:black; " description="&lt;b&gt;ADA71973.1&lt;/b&gt;&lt;br&gt;MarR family transcriptional regulator&lt;br&gt;Location: 711 - 1265" locus_tag="ADA71973.1" class="clusterblast-orf" id="dummy-11_h11_5_0"  />
</g>
<g id="a11_001"  >
<polygon points="262,90 304,90 309,85 304,80 262,80 262,90 " style="fill:white; stroke-width:1; stroke:black; " description="&lt;b&gt;ADA71974.1&lt;/b&gt;&lt;br&gt;L-2,4-diaminobutyric acid acetyltransferase&lt;br&gt;Location: 1441 - 1986" locus_tag="ADA71974.1" class="clusterblast-orf" id="dummy-11_h11_5_1"  />
</g>
<g id="a11_002"  >
<polygon points="314,90 420,90 425,85 420,80 314,80 314,90 " style="fill:#77d815; stroke-width:1; stroke:black; " description="&lt;b&gt;ADA71975.1&lt;/b&gt;&lt;br&gt;L-2,4-diaminobutyrate transaminase&lt;br&gt;Location: 2042 - 3334&lt;br&gt;&lt;br&gt;&lt;b&gt;BlastP hit with LLPMBPKK_02139&lt;/b&gt;&lt;br&gt;Percentage identity: 48&lt;br&gt;Percentage coverage: 98&lt;br&gt;BLAST bit score: 399&lt;br&gt;E-value: 6.55e-137" locus_tag="ADA71975.1" class="clusterblast-orf" id="dummy-11_h11_5_2"  />
</g>
<g id="a11_003"  >
<polygon points="425,90 454,90 459,85 454,80 425,80 425,90 " style="fill:#15d8d8; stroke-width:1; stroke:black; " description="&lt;b&gt;ADA71976.1&lt;/b&gt;&lt;br&gt;L-ectoine synthase&lt;br&gt;Location: 3342 - 3737&lt;br&gt;&lt;br&gt;&lt;b&gt;BlastP hit with LLPMBPKK_02140&lt;/b&gt;&lt;br&gt;Percentage identity: 46&lt;br&gt;Percentage coverage: 97&lt;br&gt;BLAST bit score: 121&lt;br&gt;E-value: 2.75e-36" locus_tag="ADA71976.1" class="clusterblast-orf" id="dummy-11_h11_5_3"  />
</g>
<g id="a11_004"  >
<polygon points="460,90 574,90 579,85 574,80 460,80 460,90 " style="fill:white; stroke-width:1; stroke:black; " description="&lt;b&gt;ADA71977.1&lt;/b&gt;&lt;br&gt;aspartokinase&lt;br&gt;Location: 3740 - 5134" locus_tag="ADA71977.1" class="clusterblast-orf" id="dummy-11_h11_5_4"  />
</g>
</svg>
