<svg xmlns="http://www.w3.org/2000/svg" xmlns:xlink="http://www.w3.org/1999/xlink" version="1.1" x="0" y="0" height="230" width="800" viewBox="0 0 800 230" preserveAspectRatio="none"  >
<g label="Query sequence" class="clusterblast-cluster"  >
<text x="5" y="20" class="clusterblast-acc"  >
Query sequence</text>
<line x1="10" y1="35" x2="778.0" y2="35" style="stroke-width:1; stroke:grey; "  />
<polygon points="14,35 19,30 29,30 29,40 19,40 14,35 " style="fill:white; stroke-width:1; stroke:black; " description="&lt;b&gt;LLPMBPKK_06036&lt;/b&gt;&lt;br&gt;regulator&lt;br&gt;Location: 6961541 - 6962354" locus_tag="LLPMBPKK_06036" class="clusterblast-orf" id="dummy-24_q0_0_all"  />
<polygon points="29,35 34,30 59,30 59,40 34,40 29,35 " style="fill:white; stroke-width:1; stroke:black; " description="&lt;b&gt;LLPMBPKK_06037&lt;/b&gt;&lt;br&gt;fatty acid-CoA ligase&lt;br&gt;Location: 6962369 - 6963962" locus_tag="LLPMBPKK_06037" class="clusterblast-orf" id="dummy-24_q1_0_all"  />
<polygon points="62,40 78,40 83,35 78,30 62,30 62,40 " style="fill:#d81515; stroke-width:1; stroke:black; " description="&lt;b&gt;LLPMBPKK_06038&lt;/b&gt;&lt;br&gt;acyl-CoA dehydrogenase&lt;br&gt;Location: 6964166 - 6965297" locus_tag="LLPMBPKK_06038" class="clusterblast-orf" id="dummy-24_q2_0_all"  />
<polygon points="83,40 86,40 91,35 86,30 83,30 83,40 " style="fill:#77d815; stroke-width:1; stroke:black; " description="&lt;b&gt;LLPMBPKK_06039&lt;/b&gt;&lt;br&gt;RidA family protein&lt;br&gt;Location: 6965293 - 6965692" locus_tag="LLPMBPKK_06039" class="clusterblast-orf" id="dummy-24_q3_0_all"  />
<polygon points="93,40 96,40 101,35 96,30 93,30 93,40 " style="fill:#15d8d8; stroke-width:1; stroke:black; " description="&lt;b&gt;LLPMBPKK_06040&lt;/b&gt;&lt;br&gt;hypothetical protein&lt;br&gt;Location: 6965837 - 6966263" locus_tag="LLPMBPKK_06040" class="clusterblast-orf" id="dummy-24_q4_0_all"  />
<polygon points="101,35 106,30 116,30 116,40 106,40 101,35 " style="fill:white; stroke-width:1; stroke:black; " description="&lt;b&gt;LLPMBPKK_06041&lt;/b&gt;&lt;br&gt;GntR family transcriptional regulator&lt;br&gt;Location: 6966249 - 6967074" locus_tag="LLPMBPKK_06041" class="clusterblast-orf" id="dummy-24_q5_0_all"  />
<polygon points="122,40 141,40 146,35 141,30 122,30 122,40 " style="fill:white; stroke-width:1; stroke:black; " description="&lt;b&gt;LLPMBPKK_06042&lt;/b&gt;&lt;br&gt;extracellular solute-binding protein&lt;br&gt;Location: 6967376 - 6968654" locus_tag="LLPMBPKK_06042" class="clusterblast-orf" id="dummy-24_q6_0_all"  />
<polygon points="147,40 161,40 166,35 161,30 147,30 147,40 " style="fill:white; stroke-width:1; stroke:black; " description="&lt;b&gt;LLPMBPKK_06043&lt;/b&gt;&lt;br&gt;sugar ABC transporter permease&lt;br&gt;Location: 6968732 - 6969731" locus_tag="LLPMBPKK_06043" class="clusterblast-orf" id="dummy-24_q7_0_all"  />
<polygon points="166,40 176,40 181,35 176,30 166,30 166,40 " style="fill:white; stroke-width:1; stroke:black; " description="&lt;b&gt;LLPMBPKK_06044&lt;/b&gt;&lt;br&gt;carbohydrate ABC transporter permease&lt;br&gt;Location: 6969727 - 6970558" locus_tag="LLPMBPKK_06044" class="clusterblast-orf" id="dummy-24_q8_0_all"  />
<polygon points="181,40 204,40 209,35 204,30 181,30 181,40 " style="fill:#7715d8; stroke-width:1; stroke:black; " description="&lt;b&gt;LLPMBPKK_06045&lt;/b&gt;&lt;br&gt;glycoside hydrolase family 3 protein&lt;br&gt;Location: 6970554 - 6972078" locus_tag="LLPMBPKK_06045" class="clusterblast-orf" id="dummy-24_q9_0_all"  />
<polygon points="211,40 225,40 230,35 225,30 211,30 211,40 " style="fill:#d87715; stroke-width:1; stroke:black; " description="&lt;b&gt;LLPMBPKK_06046&lt;/b&gt;&lt;br&gt;phytanoyl-CoA dioxygenase&lt;br&gt;Location: 6972182 - 6973214" locus_tag="LLPMBPKK_06046" class="clusterblast-orf" id="dummy-24_q10_0_all"  />
<polygon points="230,40 249,40 254,35 249,30 230,30 230,40 " style="fill:#15d815; stroke-width:1; stroke:black; " description="&lt;b&gt;LLPMBPKK_06047&lt;/b&gt;&lt;br&gt;hypothetical protein&lt;br&gt;Location: 6973210 - 6974500" locus_tag="LLPMBPKK_06047" class="clusterblast-orf" id="dummy-24_q11_0_all"  />
<polygon points="254,40 271,40 276,35 271,30 254,30 254,40 " style="fill:#1577d8; stroke-width:1; stroke:black; " description="&lt;b&gt;LLPMBPKK_06048&lt;/b&gt;&lt;br&gt;lysine/ornithine decarboxylase&lt;br&gt;Location: 6974496 - 6975660" locus_tag="LLPMBPKK_06048" class="clusterblast-orf" id="dummy-24_q12_0_all"  />
<polygon points="285,40 302,40 307,35 302,30 285,30 285,40 " style="fill:#d815d8; stroke-width:1; stroke:black; " description="&lt;b&gt;LLPMBPKK_06049&lt;/b&gt;&lt;br&gt;MFS transporter&lt;br&gt;Location: 6976160 - 6977330" locus_tag="LLPMBPKK_06049" class="clusterblast-orf" id="dummy-24_q13_0_all"  />
<polygon points="307,35 312,30 326,30 326,40 312,40 307,35 " style="fill:#d8d815; stroke-width:1; stroke:black; " description="&lt;b&gt;LLPMBPKK_06050&lt;/b&gt;&lt;br&gt;2,3-diaminopropionate biosynthesis protein SbnA&lt;br&gt;Location: 6977345 - 6978368" locus_tag="LLPMBPKK_06050" class="clusterblast-orf" id="dummy-24_q14_0_all"  />
<polygon points="327,35 332,30 347,30 347,40 332,40 327,35 " style="fill:#15d877; stroke-width:1; stroke:black; " description="&lt;b&gt;LLPMBPKK_06051&lt;/b&gt;&lt;br&gt;2,3-diaminopropionate biosynthesis protein SbnB&lt;br&gt;Location: 6978404 - 6979475" locus_tag="LLPMBPKK_06051" class="clusterblast-orf" id="dummy-24_q15_0_all"  />
<polygon points="347,35 352,30 365,30 365,40 352,40 347,35 " style="fill:#1515d8; stroke-width:1; stroke:black; " description="&lt;b&gt;LLPMBPKK_06052&lt;/b&gt;&lt;br&gt;TauD/TfdA family dioxygenase&lt;br&gt;Location: 6979471 - 6980476" locus_tag="LLPMBPKK_06052" class="clusterblast-orf" id="dummy-24_q16_0_all"  />
<polygon points="366,35 371,30 427,30 427,40 371,40 366,35 " style="fill:#1515d8; stroke-width:1; stroke:black; " description="&lt;b&gt;LLPMBPKK_06053&lt;/b&gt;&lt;br&gt;amino acid adenylation domain-containing protein&lt;br&gt;Location: 6980520 - 6983772" locus_tag="LLPMBPKK_06053" class="clusterblast-orf" id="dummy-24_q17_0_all"  />
<polygon points="427,35 432,30 467,30 467,40 432,40 427,35 " style="fill:white; stroke-width:1; stroke:black; " description="&lt;b&gt;LLPMBPKK_06054&lt;/b&gt;&lt;br&gt;NRPS protein&lt;br&gt;Location: 6983785 - 6985963" locus_tag="LLPMBPKK_06054" class="clusterblast-orf" id="dummy-24_q18_0_all"  />
<polygon points="478,35 483,30 497,30 497,40 483,40 478,35 " style="fill:#d81577; stroke-width:1; stroke:black; " description="&lt;b&gt;LLPMBPKK_06055&lt;/b&gt;&lt;br&gt;dTDP-glucose 4,6-dehydratase&lt;br&gt;Location: 6986554 - 6987574" locus_tag="LLPMBPKK_06055" class="clusterblast-orf" id="dummy-24_q19_0_all"  />
<polygon points="500,35 505,30 529,30 529,40 505,40 500,35 " style="fill:white; stroke-width:1; stroke:black; " description="&lt;b&gt;LLPMBPKK_06056&lt;/b&gt;&lt;br&gt;UDP-N-acetylglucosamine1-carboxyvinyltransferase&lt;br&gt;Location: 6987749 - 6989279" locus_tag="LLPMBPKK_06056" class="clusterblast-orf" id="dummy-24_q20_0_all"  />
<polygon points="533,40 541,40 546,35 541,30 533,30 533,40 " style="fill:white; stroke-width:1; stroke:black; " description="&lt;b&gt;LLPMBPKK_06057&lt;/b&gt;&lt;br&gt;hypothetical protein&lt;br&gt;Location: 6989484 - 6990201" locus_tag="LLPMBPKK_06057" class="clusterblast-orf" id="dummy-24_q21_0_all"  />
<polygon points="550,40 596,40 601,35 596,30 550,30 550,40 " style="fill:white; stroke-width:1; stroke:black; " description="&lt;b&gt;LLPMBPKK_06058&lt;/b&gt;&lt;br&gt;aconitate hydratase AcnA&lt;br&gt;Location: 6990422 - 6993140" locus_tag="LLPMBPKK_06058" class="clusterblast-orf" id="dummy-24_q22_0_all"  />
<polygon points="603,35 608,30 653,30 653,40 608,40 603,35 " style="fill:white; stroke-width:1; stroke:black; " description="&lt;b&gt;LLPMBPKK_06059&lt;/b&gt;&lt;br&gt;GAF domain-containing protein&lt;br&gt;Location: 6993277 - 6995971" locus_tag="LLPMBPKK_06059" class="clusterblast-orf" id="dummy-24_q23_0_all"  />
<polygon points="655,35 660,30 690,30 690,40 660,40 655,35 " style="fill:white; stroke-width:1; stroke:black; " description="&lt;b&gt;LLPMBPKK_06060&lt;/b&gt;&lt;br&gt;molecular chaperone DnaK&lt;br&gt;Location: 6996080 - 6997961" locus_tag="LLPMBPKK_06060" class="clusterblast-orf" id="dummy-24_q24_0_all"  />
<polygon points="705,40 761,40 766,35 761,30 705,30 705,40 " style="fill:white; stroke-width:1; stroke:black; " description="&lt;b&gt;LLPMBPKK_06061&lt;/b&gt;&lt;br&gt;glycoside hydrolase family 92 protein&lt;br&gt;Location: 6998760 - 7002030" locus_tag="LLPMBPKK_06061" class="clusterblast-orf" id="dummy-24_q25_0_all"  />
</g>
<g label="BGC0000376" description="BGC0000376_c1: JBIR-34/JBIR-35 (12% of genes show similarity), NRP" class="clusterblast-cluster"  >
<text x="5" y="70" class="clusterblast-acc"  >
<a xlink:href="https://mibig.secondarymetabolites.org/go/BGC0000376/1" target="_blank">BGC0000376</a>:                                                                  JBIR-34/JBIR-35 (12% of genes show similarity), NRP</text>
<line x1="10" y1="85" x2="778.0" y2="85" style="stroke-width:1; stroke:grey; "  />
</g>
<g id="a24_000"  >
<polygon points="0,90 16,90 21,85 16,80 0,80 0,90 " style="fill:#d81515; stroke-width:1; stroke:black; " description="&lt;b&gt;BAP16705.1&lt;/b&gt;&lt;br&gt;Acyl-CoA dehydrogenase&lt;br&gt;Location: 42112 - 40952&lt;br&gt;&lt;br&gt;&lt;b&gt;BlastP hit with LLPMBPKK_06038&lt;/b&gt;&lt;br&gt;Percentage identity: 82&lt;br&gt;Percentage coverage: 102&lt;br&gt;BLAST bit score: 590&lt;br&gt;E-value: 1.62e-213" locus_tag="BAP16705.1" class="clusterblast-orf" id="dummy-24_h24_8_0"  />
</g>
<g id="a24_001"  >
<polygon points="21,90 24,90 29,85 24,80 21,80 21,90 " style="fill:#77d815; stroke-width:1; stroke:black; " description="&lt;b&gt;BAP16704.1&lt;/b&gt;&lt;br&gt;endoribonuclease L-PSP family protein&lt;br&gt;Location: 40955 - 40533&lt;br&gt;&lt;br&gt;&lt;b&gt;BlastP hit with LLPMBPKK_06039&lt;/b&gt;&lt;br&gt;Percentage identity: 85&lt;br&gt;Percentage coverage: 97&lt;br&gt;BLAST bit score: 214&lt;br&gt;E-value: 5.12e-73" locus_tag="BAP16704.1" class="clusterblast-orf" id="dummy-24_h24_8_1"  />
</g>
<g id="a24_002"  >
<polygon points="32,90 35,90 40,85 35,80 32,80 32,90 " style="fill:#15d8d8; stroke-width:1; stroke:black; " description="&lt;b&gt;BAP16703.1&lt;/b&gt;&lt;br&gt;hypothetical protein&lt;br&gt;Location: 40381 - 39935&lt;br&gt;&lt;br&gt;&lt;b&gt;BlastP hit with LLPMBPKK_06040&lt;/b&gt;&lt;br&gt;Percentage identity: 49&lt;br&gt;Percentage coverage: 106&lt;br&gt;BLAST bit score: 111&lt;br&gt;E-value: 5e-32" locus_tag="BAP16703.1" class="clusterblast-orf" id="dummy-24_h24_8_2"  />
</g>
<g id="a24_003"  >
<polygon points="58,90 70,90 75,85 70,80 58,80 58,90 " style="fill:white; stroke-width:1; stroke:black; " description="&lt;b&gt;BAP16702.1&lt;/b&gt;&lt;br&gt;LysR family transcriptional regulator&lt;br&gt;Location: 38958 - 38038" locus_tag="BAP16702.1" class="clusterblast-orf" id="dummy-24_h24_8_3"  />
</g>
<g id="a24_004"  >
<polygon points="75,90 90,90 95,85 90,80 75,80 75,90 " style="fill:white; stroke-width:1; stroke:black; " description="&lt;b&gt;BAP16701.1&lt;/b&gt;&lt;br&gt;L-Threonine aldolase&lt;br&gt;Location: 38041 - 36947" locus_tag="BAP16701.1" class="clusterblast-orf" id="dummy-24_h24_8_4"  />
</g>
<g id="a24_005"  >
<polygon points="96,90 113,90 118,85 113,80 96,80 96,90 " style="fill:white; stroke-width:1; stroke:black; " description="&lt;b&gt;BAP16700.1&lt;/b&gt;&lt;br&gt;hypothetical protein&lt;br&gt;Location: 36910 - 35738" locus_tag="BAP16700.1" class="clusterblast-orf" id="dummy-24_h24_8_5"  />
</g>
<g id="a24_006"  >
<polygon points="119,90 218,90 223,85 218,80 119,80 119,90 " style="fill:white; stroke-width:1; stroke:black; " description="&lt;b&gt;BAP16699.1&lt;/b&gt;&lt;br&gt;nonribosomal peptide synthetase&lt;br&gt;Location: 35677 - 30071" locus_tag="BAP16699.1" class="clusterblast-orf" id="dummy-24_h24_8_6"  />
</g>
<g id="a24_007"  >
<polygon points="225,90 247,90 252,85 247,80 225,80 225,90 " style="fill:white; stroke-width:1; stroke:black; " description="&lt;b&gt;BAP16698.1&lt;/b&gt;&lt;br&gt;transmembrane transporter&lt;br&gt;Location: 29994 - 28531" locus_tag="BAP16698.1" class="clusterblast-orf" id="dummy-24_h24_8_7"  />
</g>
<g id="a24_008"  >
<polygon points="254,90 331,90 336,85 331,80 254,80 254,90 " style="fill:white; stroke-width:1; stroke:black; " description="&lt;b&gt;BAP16697.1&lt;/b&gt;&lt;br&gt;nonribosomal peptide synthetase&lt;br&gt;Location: 28396 - 24017" locus_tag="BAP16697.1" class="clusterblast-orf" id="dummy-24_h24_8_8"  />
</g>
<g id="a24_009"  >
<polygon points="336,85 341,80 354,80 354,90 341,90 336,85 " style="fill:white; stroke-width:1; stroke:black; " description="&lt;b&gt;BAP16696.1&lt;/b&gt;&lt;br&gt;transcriptional regulator&lt;br&gt;Location: 24000 - 23029" locus_tag="BAP16696.1" class="clusterblast-orf" id="dummy-24_h24_8_9"  />
</g>
<g id="a24_0010"  >
<polygon points="356,90 365,90 370,85 365,80 356,80 356,90 " style="fill:white; stroke-width:1; stroke:black; " description="&lt;b&gt;BAP16695.1&lt;/b&gt;&lt;br&gt;esterase&lt;br&gt;Location: 22931 - 22191" locus_tag="BAP16695.1" class="clusterblast-orf" id="dummy-24_h24_8_10"  />
</g>
<g id="a24_0011"  >
<polygon points="370,85 375,80 397,80 397,90 375,90 370,85 " style="fill:white; stroke-width:1; stroke:black; " description="&lt;b&gt;BAP16694.1&lt;/b&gt;&lt;br&gt;aldehyde dehydrogenase&lt;br&gt;Location: 22161 - 20689" locus_tag="BAP16694.1" class="clusterblast-orf" id="dummy-24_h24_8_11"  />
</g>
<g id="a24_0012"  >
<polygon points="400,90 458,90 463,85 458,80 400,80 400,90 " style="fill:white; stroke-width:1; stroke:black; " description="&lt;b&gt;BAP16693.1&lt;/b&gt;&lt;br&gt;nonribosomal peptide synthetase&lt;br&gt;Location: 20551 - 17168" locus_tag="BAP16693.1" class="clusterblast-orf" id="dummy-24_h24_8_12"  />
</g>
<g id="a24_0013"  >
<polygon points="466,90 484,90 489,85 484,80 466,80 466,90 " style="fill:white; stroke-width:1; stroke:black; " description="&lt;b&gt;BAP16692.1&lt;/b&gt;&lt;br&gt;alanine/alpha-methylserine hydroxymethyltransferase&lt;br&gt;Location: 17007 - 15784" locus_tag="BAP16692.1" class="clusterblast-orf" id="dummy-24_h24_8_13"  />
</g>
<g id="a24_0014"  >
<polygon points="490,90 509,90 514,85 509,80 490,80 490,90 " style="fill:white; stroke-width:1; stroke:black; " description="&lt;b&gt;BAP16691.1&lt;/b&gt;&lt;br&gt;integral membrane ion antiporter&lt;br&gt;Location: 15698 - 14427" locus_tag="BAP16691.1" class="clusterblast-orf" id="dummy-24_h24_8_14"  />
</g>
<g id="a24_0015"  >
<polygon points="518,85 523,80 530,80 530,90 523,90 518,85 " style="fill:white; stroke-width:1; stroke:black; " description="&lt;b&gt;BAP16690.1&lt;/b&gt;&lt;br&gt;hypothetical protein&lt;br&gt;Location: 14217 - 13561" locus_tag="BAP16690.1" class="clusterblast-orf" id="dummy-24_h24_8_15"  />
</g>
<g id="a24_0016"  >
<polygon points="533,85 538,80 616,80 616,90 538,90 533,85 " style="fill:white; stroke-width:1; stroke:black; " description="&lt;b&gt;BAP16689.1&lt;/b&gt;&lt;br&gt;nonribosomal peptide synthetase&lt;br&gt;Location: 13415 - 8925" locus_tag="BAP16689.1" class="clusterblast-orf" id="dummy-24_h24_8_16"  />
</g>
<g id="a24_0017"  >
<polygon points="616,85 621,80 626,80 626,90 621,90 616,85 " style="fill:white; stroke-width:1; stroke:black; " description="&lt;b&gt;BAP16688.1&lt;/b&gt;&lt;br&gt;flavin reductase&lt;br&gt;Location: 8925 - 8392" locus_tag="BAP16688.1" class="clusterblast-orf" id="dummy-24_h24_8_17"  />
</g>
<g id="a24_0018"  >
<polygon points="626,85 631,80 656,80 656,90 631,90 626,85 " style="fill:white; stroke-width:1; stroke:black; " description="&lt;b&gt;BAP16687.1&lt;/b&gt;&lt;br&gt;tryptophan 6-halogenase&lt;br&gt;Location: 8395 - 6743" locus_tag="BAP16687.1" class="clusterblast-orf" id="dummy-24_h24_8_18"  />
</g>
<g id="a24_0019"  >
<polygon points="657,85 662,80 680,80 680,90 662,90 657,85 " style="fill:white; stroke-width:1; stroke:black; " description="&lt;b&gt;BAP16686.1&lt;/b&gt;&lt;br&gt;cytochrome P450 monooxygenase&lt;br&gt;Location: 6697 - 5501" locus_tag="BAP16686.1" class="clusterblast-orf" id="dummy-24_h24_8_19"  />
</g>
<g id="a24_0020"  >
<polygon points="680,85 685,80 693,80 693,90 685,90 680,85 " style="fill:white; stroke-width:1; stroke:black; " description="&lt;b&gt;BAP16685.1&lt;/b&gt;&lt;br&gt;thioesterase&lt;br&gt;Location: 5504 - 4764" locus_tag="BAP16685.1" class="clusterblast-orf" id="dummy-24_h24_8_20"  />
</g>
<g id="a24_0021"  >
<polygon points="693,85 698,80 726,80 726,90 698,90 693,85 " style="fill:white; stroke-width:1; stroke:black; " description="&lt;b&gt;BAP16684.1&lt;/b&gt;&lt;br&gt;nonribosomal peptide synthetase&lt;br&gt;Location: 4767 - 3001" locus_tag="BAP16684.1" class="clusterblast-orf" id="dummy-24_h24_8_21"  />
</g>
<g id="a24_0022"  >
<polygon points="726,85 731,80 742,80 742,90 731,90 726,85 " style="fill:white; stroke-width:1; stroke:black; " description="&lt;b&gt;BAP16683.1&lt;/b&gt;&lt;br&gt;SARP family transcriptional regulator&lt;br&gt;Location: 3004 - 2135" locus_tag="BAP16683.1" class="clusterblast-orf" id="dummy-24_h24_8_22"  />
</g>
<g id="a24_0023"  >
<polygon points="759,85 764,80 780,80 780,90 764,90 759,85 " style="fill:white; stroke-width:1; stroke:black; " description="&lt;b&gt;BAP16682.1&lt;/b&gt;&lt;br&gt;metalloprotease&lt;br&gt;Location: 1227 - 121" locus_tag="BAP16682.1" class="clusterblast-orf" id="dummy-24_h24_8_23"  />
</g>
</svg>
