<svg xmlns="http://www.w3.org/2000/svg" xmlns:xlink="http://www.w3.org/1999/xlink" version="1.1" x="0" y="0" height="230" width="800" viewBox="0 0 800 230" preserveAspectRatio="none"  >
<g label="Query sequence" class="clusterblast-cluster"  >
<text x="5" y="20" class="clusterblast-acc"  >
Query sequence</text>
<line x1="10" y1="35" x2="778.0" y2="35" style="stroke-width:1; stroke:grey; "  />
<polygon points="0,35 5,30 73,30 73,40 5,40 0,35 " style="fill:white; stroke-width:1; stroke:black; " description="&lt;b&gt;LLPMBPKK_02136&lt;/b&gt;&lt;br&gt;transporter substrate-binding domain-containingprotein&lt;br&gt;Location: 2469208 - 2470057" locus_tag="LLPMBPKK_02136" class="clusterblast-orf" id="dummy-11_q0_0_all"  />
<polygon points="86,40 176,40 181,35 176,30 86,30 86,40 " style="fill:white; stroke-width:1; stroke:black; " description="&lt;b&gt;LLPMBPKK_02137&lt;/b&gt;&lt;br&gt;alanine--glyoxylate aminotransferase familyprotein&lt;br&gt;Location: 2470207 - 2471308" locus_tag="LLPMBPKK_02137" class="clusterblast-orf" id="dummy-11_q1_0_all"  />
<polygon points="208,40 247,40 252,35 247,30 208,30 208,40 " style="fill:#d81515; stroke-width:1; stroke:black; " description="&lt;b&gt;LLPMBPKK_02138&lt;/b&gt;&lt;br&gt;diaminobutyrate acetyltransferase&lt;br&gt;Location: 2471624 - 2472143" locus_tag="LLPMBPKK_02138" class="clusterblast-orf" id="dummy-11_q2_0_all"  />
<polygon points="253,40 357,40 362,35 357,30 253,30 253,40 " style="fill:#77d815; stroke-width:1; stroke:black; " description="&lt;b&gt;LLPMBPKK_02139&lt;/b&gt;&lt;br&gt;diaminobutyrate--2-oxoglutarate transaminase&lt;br&gt;Location: 2472156 - 2473428" locus_tag="LLPMBPKK_02139" class="clusterblast-orf" id="dummy-11_q3_0_all"  />
<polygon points="364,40 394,40 399,35 394,30 364,30 364,40 " style="fill:#15d8d8; stroke-width:1; stroke:black; " description="&lt;b&gt;LLPMBPKK_02140&lt;/b&gt;&lt;br&gt;ectoine synthase&lt;br&gt;Location: 2473451 - 2473856" locus_tag="LLPMBPKK_02140" class="clusterblast-orf" id="dummy-11_q4_0_all"  />
<polygon points="400,40 471,40 476,35 471,30 400,30 400,40 " style="fill:#7715d8; stroke-width:1; stroke:black; " description="&lt;b&gt;LLPMBPKK_02141&lt;/b&gt;&lt;br&gt;ectoine hydroxylase&lt;br&gt;Location: 2473861 - 2474755" locus_tag="LLPMBPKK_02141" class="clusterblast-orf" id="dummy-11_q5_0_all"  />
<polygon points="485,35 490,30 576,30 576,40 490,40 485,35 " style="fill:white; stroke-width:1; stroke:black; " description="&lt;b&gt;LLPMBPKK_02142&lt;/b&gt;&lt;br&gt;aminotransferase class V-fold PLP-dependentenzyme&lt;br&gt;Location: 2474859 - 2475921" locus_tag="LLPMBPKK_02142" class="clusterblast-orf" id="dummy-11_q6_0_all"  />
<polygon points="585,35 590,30 647,30 647,40 590,40 585,35 " style="fill:white; stroke-width:1; stroke:black; " description="&lt;b&gt;LLPMBPKK_02143&lt;/b&gt;&lt;br&gt;DsbA family oxidoreductase&lt;br&gt;Location: 2476018 - 2476744" locus_tag="LLPMBPKK_02143" class="clusterblast-orf" id="dummy-11_q7_0_all"  />
<polygon points="653,35 658,30 697,30 697,40 658,40 653,35 " style="fill:white; stroke-width:1; stroke:black; " description="&lt;b&gt;LLPMBPKK_02144&lt;/b&gt;&lt;br&gt;GNAT family N-acetyltransferase&lt;br&gt;Location: 2476819 - 2477326" locus_tag="LLPMBPKK_02144" class="clusterblast-orf" id="dummy-11_q8_0_all"  />
<polygon points="696,35 701,30 780,30 780,40 701,40 696,35 " style="fill:white; stroke-width:1; stroke:black; " description="&lt;b&gt;LLPMBPKK_02145&lt;/b&gt;&lt;br&gt;helix-turn-helix domain-containing protein&lt;br&gt;Location: 2477322 - 2478300" locus_tag="LLPMBPKK_02145" class="clusterblast-orf" id="dummy-11_q9_0_all"  />
</g>
<g label="BGC0000854" description="BGC0000854_c1: ectoine (33% of genes show similarity), Other" class="clusterblast-cluster"  >
<text x="5" y="70" class="clusterblast-acc"  >
<a xlink:href="https://mibig.secondarymetabolites.org/go/BGC0000854/1" target="_blank">BGC0000854</a>:                                                                          ectoine (33% of genes show similarity), Other</text>
<line x1="10" y1="85" x2="778.0" y2="85" style="stroke-width:1; stroke:grey; "  />
</g>
<g id="a11_000"  >
<polygon points="130,85 135,80 177,80 177,90 135,90 130,85 " style="fill:white; stroke-width:1; stroke:black; " description="&lt;b&gt;ACP19701.1&lt;/b&gt;&lt;br&gt;transcriptional regulator MarR family&lt;br&gt;Location: 839 - 1381" locus_tag="ACP19701.1" class="clusterblast-orf" id="dummy-11_h11_6_0"  />
</g>
<g id="a11_001"  >
<polygon points="205,90 244,90 249,85 244,80 205,80 205,90 " style="fill:white; stroke-width:1; stroke:black; " description="&lt;b&gt;AAY96770.1&lt;/b&gt;&lt;br&gt;L-2,4-diaminobutyrat acetyltransferase&lt;br&gt;Location: 1709 - 2227" locus_tag="AAY96770.1" class="clusterblast-orf" id="dummy-11_h11_6_1"  />
</g>
<g id="a11_002"  >
<polygon points="253,90 362,90 367,85 362,80 253,80 253,90 " style="fill:#77d815; stroke-width:1; stroke:black; " description="&lt;b&gt;AAY96771.1&lt;/b&gt;&lt;br&gt;L-2,4-diaminobutyrat transaminase&lt;br&gt;Location: 2270 - 3601&lt;br&gt;&lt;br&gt;&lt;b&gt;BlastP hit with LLPMBPKK_02139&lt;/b&gt;&lt;br&gt;Percentage identity: 55&lt;br&gt;Percentage coverage: 98&lt;br&gt;BLAST bit score: 470&lt;br&gt;E-value: 1.94e-164" locus_tag="AAY96771.1" class="clusterblast-orf" id="dummy-11_h11_6_2"  />
</g>
<g id="a11_003"  >
<polygon points="372,90 401,90 406,85 401,80 372,80 372,90 " style="fill:white; stroke-width:1; stroke:black; " description="&lt;b&gt;AAY96772.1&lt;/b&gt;&lt;br&gt;ectoine synthase&lt;br&gt;Location: 3652 - 4056" locus_tag="AAY96772.1" class="clusterblast-orf" id="dummy-11_h11_6_3"  />
</g>
<g id="a11_004"  >
<polygon points="412,90 530,90 535,85 530,80 412,80 412,90 " style="fill:white; stroke-width:1; stroke:black; " description="&lt;b&gt;AAY96773.1&lt;/b&gt;&lt;br&gt;aspartokinase&lt;br&gt;Location: 4117 - 5559" locus_tag="AAY96773.1" class="clusterblast-orf" id="dummy-11_h11_6_4"  />
</g>
<g id="a11_005"  >
<polygon points="566,90 644,90 649,85 644,80 566,80 566,90 " style="fill:#7715d8; stroke-width:1; stroke:black; " description="&lt;b&gt;AAY96769.2&lt;/b&gt;&lt;br&gt;putative ectoine hydroxylase&lt;br&gt;Location: 5920 - 6879&lt;br&gt;&lt;br&gt;&lt;b&gt;BlastP hit with LLPMBPKK_02141&lt;/b&gt;&lt;br&gt;Percentage identity: 49&lt;br&gt;Percentage coverage: 97&lt;br&gt;BLAST bit score: 280&lt;br&gt;E-value: 1.48e-93" locus_tag="AAY96769.2" class="clusterblast-orf" id="dummy-11_h11_6_5"  />
</g>
</svg>
