<svg xmlns="http://www.w3.org/2000/svg" xmlns:xlink="http://www.w3.org/1999/xlink" version="1.1" x="0" y="0" height="230" width="800" viewBox="0 0 800 230" preserveAspectRatio="none"  >
<g label="Query sequence" class="clusterblast-cluster"  >
<text x="5" y="20" class="clusterblast-acc"  >
Query sequence</text>
<line x1="10" y1="35" x2="778.0" y2="35" style="stroke-width:1; stroke:grey; "  />
<polygon points="159,35 164,30 168,30 168,40 164,40 159,35 " style="fill:white; stroke-width:1; stroke:black; " description="&lt;b&gt;LLPMBPKK_06036&lt;/b&gt;&lt;br&gt;regulator&lt;br&gt;Location: 6961541 - 6962354" locus_tag="LLPMBPKK_06036" class="clusterblast-orf" id="dummy-24_q0_0_all"  />
<polygon points="169,35 174,30 187,30 187,40 174,40 169,35 " style="fill:white; stroke-width:1; stroke:black; " description="&lt;b&gt;LLPMBPKK_06037&lt;/b&gt;&lt;br&gt;fatty acid-CoA ligase&lt;br&gt;Location: 6962369 - 6963962" locus_tag="LLPMBPKK_06037" class="clusterblast-orf" id="dummy-24_q1_0_all"  />
<polygon points="189,40 197,40 202,35 197,30 189,30 189,40 " style="fill:#d81515; stroke-width:1; stroke:black; " description="&lt;b&gt;LLPMBPKK_06038&lt;/b&gt;&lt;br&gt;acyl-CoA dehydrogenase&lt;br&gt;Location: 6964166 - 6965297" locus_tag="LLPMBPKK_06038" class="clusterblast-orf" id="dummy-24_q2_0_all"  />
<polygon points="202,40 206,35 202,30 202,40 " style="fill:#77d815; stroke-width:1; stroke:black; " description="&lt;b&gt;LLPMBPKK_06039&lt;/b&gt;&lt;br&gt;RidA family protein&lt;br&gt;Location: 6965293 - 6965692" locus_tag="LLPMBPKK_06039" class="clusterblast-orf" id="dummy-24_q3_0_all"  />
<polygon points="208,40 208,40 213,35 208,30 208,30 208,40 " style="fill:#15d8d8; stroke-width:1; stroke:black; " description="&lt;b&gt;LLPMBPKK_06040&lt;/b&gt;&lt;br&gt;hypothetical protein&lt;br&gt;Location: 6965837 - 6966263" locus_tag="LLPMBPKK_06040" class="clusterblast-orf" id="dummy-24_q4_0_all"  />
<polygon points="213,35 218,30 222,30 222,40 218,40 213,35 " style="fill:white; stroke-width:1; stroke:black; " description="&lt;b&gt;LLPMBPKK_06041&lt;/b&gt;&lt;br&gt;GntR family transcriptional regulator&lt;br&gt;Location: 6966249 - 6967074" locus_tag="LLPMBPKK_06041" class="clusterblast-orf" id="dummy-24_q5_0_all"  />
<polygon points="226,40 235,40 240,35 235,30 226,30 226,40 " style="fill:white; stroke-width:1; stroke:black; " description="&lt;b&gt;LLPMBPKK_06042&lt;/b&gt;&lt;br&gt;extracellular solute-binding protein&lt;br&gt;Location: 6967376 - 6968654" locus_tag="LLPMBPKK_06042" class="clusterblast-orf" id="dummy-24_q6_0_all"  />
<polygon points="241,40 247,40 252,35 247,30 241,30 241,40 " style="fill:white; stroke-width:1; stroke:black; " description="&lt;b&gt;LLPMBPKK_06043&lt;/b&gt;&lt;br&gt;sugar ABC transporter permease&lt;br&gt;Location: 6968732 - 6969731" locus_tag="LLPMBPKK_06043" class="clusterblast-orf" id="dummy-24_q7_0_all"  />
<polygon points="252,40 257,40 262,35 257,30 252,30 252,40 " style="fill:white; stroke-width:1; stroke:black; " description="&lt;b&gt;LLPMBPKK_06044&lt;/b&gt;&lt;br&gt;carbohydrate ABC transporter permease&lt;br&gt;Location: 6969727 - 6970558" locus_tag="LLPMBPKK_06044" class="clusterblast-orf" id="dummy-24_q8_0_all"  />
<polygon points="262,40 274,40 279,35 274,30 262,30 262,40 " style="fill:#7715d8; stroke-width:1; stroke:black; " description="&lt;b&gt;LLPMBPKK_06045&lt;/b&gt;&lt;br&gt;glycoside hydrolase family 3 protein&lt;br&gt;Location: 6970554 - 6972078" locus_tag="LLPMBPKK_06045" class="clusterblast-orf" id="dummy-24_q9_0_all"  />
<polygon points="280,40 287,40 292,35 287,30 280,30 280,40 " style="fill:#d87715; stroke-width:1; stroke:black; " description="&lt;b&gt;LLPMBPKK_06046&lt;/b&gt;&lt;br&gt;phytanoyl-CoA dioxygenase&lt;br&gt;Location: 6972182 - 6973214" locus_tag="LLPMBPKK_06046" class="clusterblast-orf" id="dummy-24_q10_0_all"  />
<polygon points="292,40 302,40 307,35 302,30 292,30 292,40 " style="fill:#15d815; stroke-width:1; stroke:black; " description="&lt;b&gt;LLPMBPKK_06047&lt;/b&gt;&lt;br&gt;hypothetical protein&lt;br&gt;Location: 6973210 - 6974500" locus_tag="LLPMBPKK_06047" class="clusterblast-orf" id="dummy-24_q11_0_all"  />
<polygon points="307,40 315,40 320,35 315,30 307,30 307,40 " style="fill:#1577d8; stroke-width:1; stroke:black; " description="&lt;b&gt;LLPMBPKK_06048&lt;/b&gt;&lt;br&gt;lysine/ornithine decarboxylase&lt;br&gt;Location: 6974496 - 6975660" locus_tag="LLPMBPKK_06048" class="clusterblast-orf" id="dummy-24_q12_0_all"  />
<polygon points="326,40 334,40 339,35 334,30 326,30 326,40 " style="fill:#d815d8; stroke-width:1; stroke:black; " description="&lt;b&gt;LLPMBPKK_06049&lt;/b&gt;&lt;br&gt;MFS transporter&lt;br&gt;Location: 6976160 - 6977330" locus_tag="LLPMBPKK_06049" class="clusterblast-orf" id="dummy-24_q13_0_all"  />
<polygon points="339,35 344,30 351,30 351,40 344,40 339,35 " style="fill:#d8d815; stroke-width:1; stroke:black; " description="&lt;b&gt;LLPMBPKK_06050&lt;/b&gt;&lt;br&gt;2,3-diaminopropionate biosynthesis protein SbnA&lt;br&gt;Location: 6977345 - 6978368" locus_tag="LLPMBPKK_06050" class="clusterblast-orf" id="dummy-24_q14_0_all"  />
<polygon points="351,35 356,30 363,30 363,40 356,40 351,35 " style="fill:#15d877; stroke-width:1; stroke:black; " description="&lt;b&gt;LLPMBPKK_06051&lt;/b&gt;&lt;br&gt;2,3-diaminopropionate biosynthesis protein SbnB&lt;br&gt;Location: 6978404 - 6979475" locus_tag="LLPMBPKK_06051" class="clusterblast-orf" id="dummy-24_q15_0_all"  />
<polygon points="363,35 368,30 375,30 375,40 368,40 363,35 " style="fill:#1515d8; stroke-width:1; stroke:black; " description="&lt;b&gt;LLPMBPKK_06052&lt;/b&gt;&lt;br&gt;TauD/TfdA family dioxygenase&lt;br&gt;Location: 6979471 - 6980476" locus_tag="LLPMBPKK_06052" class="clusterblast-orf" id="dummy-24_q16_0_all"  />
<polygon points="375,35 380,30 412,30 412,40 380,40 375,35 " style="fill:#1515d8; stroke-width:1; stroke:black; " description="&lt;b&gt;LLPMBPKK_06053&lt;/b&gt;&lt;br&gt;amino acid adenylation domain-containing protein&lt;br&gt;Location: 6980520 - 6983772" locus_tag="LLPMBPKK_06053" class="clusterblast-orf" id="dummy-24_q17_0_all"  />
<polygon points="412,35 417,30 437,30 437,40 417,40 412,35 " style="fill:white; stroke-width:1; stroke:black; " description="&lt;b&gt;LLPMBPKK_06054&lt;/b&gt;&lt;br&gt;NRPS protein&lt;br&gt;Location: 6983785 - 6985963" locus_tag="LLPMBPKK_06054" class="clusterblast-orf" id="dummy-24_q18_0_all"  />
<polygon points="444,35 449,30 455,30 455,40 449,40 444,35 " style="fill:#d81577; stroke-width:1; stroke:black; " description="&lt;b&gt;LLPMBPKK_06055&lt;/b&gt;&lt;br&gt;dTDP-glucose 4,6-dehydratase&lt;br&gt;Location: 6986554 - 6987574" locus_tag="LLPMBPKK_06055" class="clusterblast-orf" id="dummy-24_q19_0_all"  />
<polygon points="457,35 462,30 475,30 475,40 462,40 457,35 " style="fill:white; stroke-width:1; stroke:black; " description="&lt;b&gt;LLPMBPKK_06056&lt;/b&gt;&lt;br&gt;UDP-N-acetylglucosamine1-carboxyvinyltransferase&lt;br&gt;Location: 6987749 - 6989279" locus_tag="LLPMBPKK_06056" class="clusterblast-orf" id="dummy-24_q20_0_all"  />
<polygon points="477,40 480,40 485,35 480,30 477,30 477,40 " style="fill:white; stroke-width:1; stroke:black; " description="&lt;b&gt;LLPMBPKK_06057&lt;/b&gt;&lt;br&gt;hypothetical protein&lt;br&gt;Location: 6989484 - 6990201" locus_tag="LLPMBPKK_06057" class="clusterblast-orf" id="dummy-24_q21_0_all"  />
<polygon points="488,40 514,40 519,35 514,30 488,30 488,40 " style="fill:white; stroke-width:1; stroke:black; " description="&lt;b&gt;LLPMBPKK_06058&lt;/b&gt;&lt;br&gt;aconitate hydratase AcnA&lt;br&gt;Location: 6990422 - 6993140" locus_tag="LLPMBPKK_06058" class="clusterblast-orf" id="dummy-24_q22_0_all"  />
<polygon points="520,35 525,30 551,30 551,40 525,40 520,35 " style="fill:white; stroke-width:1; stroke:black; " description="&lt;b&gt;LLPMBPKK_06059&lt;/b&gt;&lt;br&gt;GAF domain-containing protein&lt;br&gt;Location: 6993277 - 6995971" locus_tag="LLPMBPKK_06059" class="clusterblast-orf" id="dummy-24_q23_0_all"  />
<polygon points="552,35 557,30 574,30 574,40 557,40 552,35 " style="fill:white; stroke-width:1; stroke:black; " description="&lt;b&gt;LLPMBPKK_06060&lt;/b&gt;&lt;br&gt;molecular chaperone DnaK&lt;br&gt;Location: 6996080 - 6997961" locus_tag="LLPMBPKK_06060" class="clusterblast-orf" id="dummy-24_q24_0_all"  />
<polygon points="583,40 615,40 620,35 615,30 583,30 583,40 " style="fill:white; stroke-width:1; stroke:black; " description="&lt;b&gt;LLPMBPKK_06061&lt;/b&gt;&lt;br&gt;glycoside hydrolase family 92 protein&lt;br&gt;Location: 6998760 - 7002030" locus_tag="LLPMBPKK_06061" class="clusterblast-orf" id="dummy-24_q25_0_all"  />
</g>
<g label="BGC0002100" description="BGC0002100_c1: colibrimycin (3% of genes show similarity), NRP+Other" class="clusterblast-cluster"  >
<text x="5" y="70" class="clusterblast-acc"  >
<a xlink:href="https://mibig.secondarymetabolites.org/go/BGC0002100/1" target="_blank">BGC0002100</a>:                                                                     colibrimycin (3% of genes show similarity), NRP+Other</text>
<line x1="10" y1="85" x2="778.0" y2="85" style="stroke-width:1; stroke:grey; "  />
</g>
<g id="a24_000"  >
<polygon points="0,90 4,90 9,85 4,80 0,80 0,90 " style="fill:white; stroke-width:1; stroke:black; " description="&lt;b&gt;DBP21_21800&lt;/b&gt;&lt;br&gt;C40 family peptidase&lt;br&gt;Location: 68543 - 67698" locus_tag="DBP21_21800" class="clusterblast-orf" id="dummy-24_h24_9_0"  />
</g>
<g id="a24_001"  >
<polygon points="9,85 14,80 23,80 23,90 14,90 9,85 " style="fill:white; stroke-width:1; stroke:black; " description="&lt;b&gt;DBP21_21795&lt;/b&gt;&lt;br&gt;MFS transporter&lt;br&gt;Location: 67696 - 66452" locus_tag="DBP21_21795" class="clusterblast-orf" id="dummy-24_h24_9_1"  />
</g>
<g id="a24_002"  >
<polygon points="32,85 37,80 40,80 40,90 37,90 32,85 " style="fill:white; stroke-width:1; stroke:black; " description="&lt;b&gt;DBP21_21790&lt;/b&gt;&lt;br&gt;metallophosphoesterase&lt;br&gt;Location: 65708 - 64971" locus_tag="DBP21_21790" class="clusterblast-orf" id="dummy-24_h24_9_2"  />
</g>
<g id="a24_003"  >
<polygon points="41,90 43,90 48,85 43,80 41,80 41,90 " style="fill:white; stroke-width:1; stroke:black; " description="&lt;b&gt;DBP21_21785&lt;/b&gt;&lt;br&gt;CGNR zinc finger domain-containing protein&lt;br&gt;Location: 64861 - 64238" locus_tag="DBP21_21785" class="clusterblast-orf" id="dummy-24_h24_9_3"  />
</g>
<g id="a24_004"  >
<polygon points="49,85 54,80 64,80 64,90 54,90 49,85 " style="fill:white; stroke-width:1; stroke:black; " description="&lt;b&gt;DBP21_21780&lt;/b&gt;&lt;br&gt;geranylgeranyl reductase family protein&lt;br&gt;Location: 64165 - 62882" locus_tag="DBP21_21780" class="clusterblast-orf" id="dummy-24_h24_9_4"  />
</g>
<g id="a24_005"  >
<polygon points="65,90 66,90 71,85 66,80 65,80 65,90 " style="fill:white; stroke-width:1; stroke:black; " description="&lt;b&gt;DBP21_21775&lt;/b&gt;&lt;br&gt;GNAT family N-acetyltransferase&lt;br&gt;Location: 62784 - 62257" locus_tag="DBP21_21775" class="clusterblast-orf" id="dummy-24_h24_9_5"  />
</g>
<g id="a24_006"  >
<polygon points="71,85 76,80 79,80 79,90 76,90 71,85 " style="fill:white; stroke-width:1; stroke:black; " description="&lt;b&gt;DBP21_21770&lt;/b&gt;&lt;br&gt;demethylmenaquinone methyltransferase&lt;br&gt;Location: 62241 - 61549" locus_tag="DBP21_21770" class="clusterblast-orf" id="dummy-24_h24_9_6"  />
</g>
<g id="a24_007"  >
<polygon points="82,90 83,90 88,85 83,80 82,80 82,90 " style="fill:white; stroke-width:1; stroke:black; " description="&lt;b&gt;DBP21_21765&lt;/b&gt;&lt;br&gt;SigE family RNA polymerase sigma factor&lt;br&gt;Location: 61293 - 60784" locus_tag="DBP21_21765" class="clusterblast-orf" id="dummy-24_h24_9_7"  />
</g>
<g id="a24_008"  >
<polygon points="88,90 88,90 93,85 88,80 88,80 88,90 " style="fill:white; stroke-width:1; stroke:black; " description="&lt;b&gt;DBP21_21760&lt;/b&gt;&lt;br&gt;hypothetical protein&lt;br&gt;Location: 60773 - 60285" locus_tag="DBP21_21760" class="clusterblast-orf" id="dummy-24_h24_9_8"  />
</g>
<g id="a24_009"  >
<polygon points="94,90 101,90 106,85 101,80 94,80 94,90 " style="fill:white; stroke-width:1; stroke:black; " description="&lt;b&gt;DBP21_21755&lt;/b&gt;&lt;br&gt;DUF3152 domain-containing protein&lt;br&gt;Location: 60267 - 59224" locus_tag="DBP21_21755" class="clusterblast-orf" id="dummy-24_h24_9_9"  />
</g>
<g id="a24_0010"  >
<polygon points="106,85 111,80 113,80 113,90 111,90 106,85 " style="fill:white; stroke-width:1; stroke:black; " description="&lt;b&gt;DBP21_21750&lt;/b&gt;&lt;br&gt;hypothetical protein&lt;br&gt;Location: 59202 - 58543" locus_tag="DBP21_21750" class="clusterblast-orf" id="dummy-24_h24_9_10"  />
</g>
<g id="a24_0011"  >
<polygon points="113,85 118,80 127,80 127,90 118,90 113,85 " style="fill:white; stroke-width:1; stroke:black; " description="&lt;b&gt;DBP21_21745&lt;/b&gt;&lt;br&gt;dehypoxanthine futalosine cyclase&lt;br&gt;Location: 58535 - 57336" locus_tag="DBP21_21745" class="clusterblast-orf" id="dummy-24_h24_9_11"  />
</g>
<g id="a24_0012"  >
<polygon points="128,85 133,80 151,80 151,90 133,90 128,85 " style="fill:white; stroke-width:1; stroke:black; " description="&lt;b&gt;DBP21_21740&lt;/b&gt;&lt;br&gt;serine/threonine protein kinase&lt;br&gt;Location: 57264 - 55228" locus_tag="DBP21_21740" class="clusterblast-orf" id="dummy-24_h24_9_12"  />
</g>
<g id="a24_0013"  >
<polygon points="154,85 159,80 164,80 164,90 159,90 154,85 " style="fill:white; stroke-width:1; stroke:black; " description="&lt;b&gt;DBP21_21735&lt;/b&gt;&lt;br&gt;menaquinone biosynthesis protein&lt;br&gt;Location: 54934 - 54053" locus_tag="DBP21_21735" class="clusterblast-orf" id="dummy-24_h24_9_13"  />
</g>
<g id="a24_0014"  >
<polygon points="168,90 170,85 168,80 168,90 " style="fill:white; stroke-width:1; stroke:black; " description="&lt;b&gt;DBP21_21730&lt;/b&gt;&lt;br&gt;cold-shock protein&lt;br&gt;Location: 53766 - 53563" locus_tag="DBP21_21730" class="clusterblast-orf" id="dummy-24_h24_9_14"  />
</g>
<g id="a24_0015"  >
<polygon points="172,90 176,90 181,85 176,80 172,80 172,90 " style="fill:white; stroke-width:1; stroke:black; " description="&lt;b&gt;DBP21_21725&lt;/b&gt;&lt;br&gt;MerR family transcriptional regulator&lt;br&gt;Location: 53408 - 52581" locus_tag="DBP21_21725" class="clusterblast-orf" id="dummy-24_h24_9_15"  />
</g>
<g id="a24_0016"  >
<polygon points="182,85 187,80 196,80 196,90 187,90 182,85 " style="fill:white; stroke-width:1; stroke:black; " description="&lt;b&gt;DBP21_21720&lt;/b&gt;&lt;br&gt;amidohydrolase&lt;br&gt;Location: 52467 - 51247" locus_tag="DBP21_21720" class="clusterblast-orf" id="dummy-24_h24_9_16"  />
</g>
<g id="a24_0017"  >
<polygon points="200,90 229,90 234,85 229,80 200,80 200,90 " style="fill:white; stroke-width:1; stroke:black; " description="&lt;b&gt;DBP21_21715&lt;/b&gt;&lt;br&gt;tetratricopeptide repeat protein&lt;br&gt;Location: 50933 - 47973" locus_tag="DBP21_21715" class="clusterblast-orf" id="dummy-24_h24_9_17"  />
</g>
<g id="a24_0018"  >
<polygon points="240,90 243,90 248,85 243,80 240,80 240,90 " style="fill:white; stroke-width:1; stroke:black; " description="&lt;b&gt;DBP21_21710&lt;/b&gt;&lt;br&gt;thioesterase&lt;br&gt;Location: 47438 - 46713" locus_tag="DBP21_21710" class="clusterblast-orf" id="dummy-24_h24_9_18"  />
</g>
<g id="a24_0019"  >
<polygon points="248,85 253,80 263,80 263,90 253,90 248,85 " style="fill:white; stroke-width:1; stroke:black; " description="&lt;b&gt;DBP21_21705&lt;/b&gt;&lt;br&gt;3-deoxy-7-phosphoheptulonate synthase class II&lt;br&gt;Location: 46738 - 45347" locus_tag="DBP21_21705" class="clusterblast-orf" id="dummy-24_h24_9_19"  />
</g>
<g id="a24_0020"  >
<polygon points="267,90 279,90 284,85 279,80 267,80 267,90 " style="fill:white; stroke-width:1; stroke:black; " description="&lt;b&gt;DBP21_21700&lt;/b&gt;&lt;br&gt;anthranilate synthase component I family protein&lt;br&gt;Location: 45040 - 43520" locus_tag="DBP21_21700" class="clusterblast-orf" id="dummy-24_h24_9_20"  />
</g>
<g id="a24_0021"  >
<polygon points="285,90 287,90 292,85 287,80 285,80 285,90 " style="fill:white; stroke-width:1; stroke:black; " description="&lt;b&gt;DBP21_21695&lt;/b&gt;&lt;br&gt;aminodeoxychorismate/anthranilate synthase component II&lt;br&gt;Location: 43472 - 42840" locus_tag="DBP21_21695" class="clusterblast-orf" id="dummy-24_h24_9_21"  />
</g>
<g id="a24_0022"  >
<polygon points="292,85 297,80 308,80 308,90 297,90 292,85 " style="fill:white; stroke-width:1; stroke:black; " description="&lt;b&gt;DBP21_21690&lt;/b&gt;&lt;br&gt;PLP-dependent aminotransferase family protein&lt;br&gt;Location: 42853 - 41465" locus_tag="DBP21_21690" class="clusterblast-orf" id="dummy-24_h24_9_22"  />
</g>
<g id="a24_0023"  >
<polygon points="309,90 316,90 321,85 316,80 309,80 309,90 " style="fill:white; stroke-width:1; stroke:black; " description="&lt;b&gt;DBP21_21685&lt;/b&gt;&lt;br&gt;anthranilate phosphoribosyltransferase&lt;br&gt;Location: 41350 - 40286" locus_tag="DBP21_21685" class="clusterblast-orf" id="dummy-24_h24_9_23"  />
</g>
<g id="a24_0024"  >
<polygon points="321,85 326,80 330,80 330,90 326,90 321,85 " style="fill:white; stroke-width:1; stroke:black; " description="&lt;b&gt;DBP21_21680&lt;/b&gt;&lt;br&gt;indole-3-glycerol phosphate synthase TrpC&lt;br&gt;Location: 40314 - 39502" locus_tag="DBP21_21680" class="clusterblast-orf" id="dummy-24_h24_9_24"  />
</g>
<g id="a24_0025"  >
<polygon points="332,90 337,90 342,85 337,80 332,80 332,90 " style="fill:white; stroke-width:1; stroke:black; " description="&lt;b&gt;DBP21_21675&lt;/b&gt;&lt;br&gt;FkbM family methyltransferase&lt;br&gt;Location: 39336 - 38449" locus_tag="DBP21_21675" class="clusterblast-orf" id="dummy-24_h24_9_25"  />
</g>
<g id="a24_0026"  >
<polygon points="343,85 348,80 354,80 354,90 348,90 343,85 " style="fill:white; stroke-width:1; stroke:black; " description="&lt;b&gt;DBP21_21670&lt;/b&gt;&lt;br&gt;TauD/TfdA family dioxygenase&lt;br&gt;Location: 38390 - 37413" locus_tag="DBP21_21670" class="clusterblast-orf" id="dummy-24_h24_9_26"  />
</g>
<g id="a24_0027"  >
<polygon points="354,85 359,80 368,80 368,90 359,90 354,85 " style="fill:white; stroke-width:1; stroke:black; " description="&lt;b&gt;DBP21_21665&lt;/b&gt;&lt;br&gt;cytochrome P450&lt;br&gt;Location: 37429 - 36182" locus_tag="DBP21_21665" class="clusterblast-orf" id="dummy-24_h24_9_27"  />
</g>
<g id="a24_0028"  >
<polygon points="368,85 373,80 377,80 377,90 373,90 368,85 " style="fill:white; stroke-width:1; stroke:black; " description="&lt;b&gt;DBP21_21660&lt;/b&gt;&lt;br&gt;ABC transporter permease&lt;br&gt;Location: 36155 - 35376" locus_tag="DBP21_21660" class="clusterblast-orf" id="dummy-24_h24_9_28"  />
</g>
<g id="a24_0029"  >
<polygon points="378,85 383,80 506,80 506,90 383,90 378,85 " style="fill:white; stroke-width:1; stroke:black; " description="&lt;b&gt;DBP21_21655&lt;/b&gt;&lt;br&gt;non-ribosomal peptide synthetase&lt;br&gt;Location: 35265 - 24049" locus_tag="DBP21_21655" class="clusterblast-orf" id="dummy-24_h24_9_29"  />
</g>
<g id="a24_0030"  >
<polygon points="507,85 512,80 515,80 515,90 512,90 507,85 " style="fill:white; stroke-width:1; stroke:black; " description="&lt;b&gt;DBP21_21650&lt;/b&gt;&lt;br&gt;DsbA family protein&lt;br&gt;Location: 23916 - 23212" locus_tag="DBP21_21650" class="clusterblast-orf" id="dummy-24_h24_9_30"  />
</g>
<g id="a24_0031"  >
<polygon points="517,85 522,80 525,80 525,90 522,90 517,85 " style="fill:white; stroke-width:1; stroke:black; " description="&lt;b&gt;DBP21_21645&lt;/b&gt;&lt;br&gt;3-oxoacyl-ACP reductase FabG&lt;br&gt;Location: 23093 - 22347" locus_tag="DBP21_21645" class="clusterblast-orf" id="dummy-24_h24_9_31"  />
</g>
<g id="a24_0032"  >
<polygon points="527,85 532,80 539,80 539,90 532,90 527,85 " style="fill:white; stroke-width:1; stroke:black; " description="&lt;b&gt;DBP21_21640&lt;/b&gt;&lt;br&gt;3-oxoacyl-ACP synthase&lt;br&gt;Location: 22232 - 21144" locus_tag="DBP21_21640" class="clusterblast-orf" id="dummy-24_h24_9_32"  />
</g>
<g id="a24_0033"  >
<polygon points="539,85 544,80 553,80 553,90 544,90 539,85 " style="fill:white; stroke-width:1; stroke:black; " description="&lt;b&gt;DBP21_21635&lt;/b&gt;&lt;br&gt;beta-ketoacyl-[acyl-carrier-protein] synthase family protein&lt;br&gt;Location: 21144 - 19912" locus_tag="DBP21_21635" class="clusterblast-orf" id="dummy-24_h24_9_33"  />
</g>
<g id="a24_0034"  >
<polygon points="553,85 556,80 556,90 553,85 " style="fill:white; stroke-width:1; stroke:black; " description="&lt;b&gt;DBP21_21630&lt;/b&gt;&lt;br&gt;acyl carrier protein&lt;br&gt;Location: 19882 - 19604" locus_tag="DBP21_21630" class="clusterblast-orf" id="dummy-24_h24_9_34"  />
</g>
<g id="a24_0035"  >
<polygon points="558,85 563,80 569,80 569,90 563,90 558,85 " style="fill:white; stroke-width:1; stroke:black; " description="&lt;b&gt;DBP21_21625&lt;/b&gt;&lt;br&gt;LysR family transcriptional regulator&lt;br&gt;Location: 19495 - 18521" locus_tag="DBP21_21625" class="clusterblast-orf" id="dummy-24_h24_9_35"  />
</g>
<g id="a24_0036"  >
<polygon points="571,85 576,80 580,80 580,90 576,90 571,85 " style="fill:white; stroke-width:1; stroke:black; " description="&lt;b&gt;DBP21_21620&lt;/b&gt;&lt;br&gt;AfsR/SARP family transcriptional regulator&lt;br&gt;Location: 18304 - 17507" locus_tag="DBP21_21620" class="clusterblast-orf" id="dummy-24_h24_9_36"  />
</g>
<g id="a24_0037"  >
<polygon points="582,85 587,80 607,80 607,90 587,90 582,85 " style="fill:white; stroke-width:1; stroke:black; " description="&lt;b&gt;DBP21_21615&lt;/b&gt;&lt;br&gt;MMPL family transporter&lt;br&gt;Location: 17335 - 15158" locus_tag="DBP21_21615" class="clusterblast-orf" id="dummy-24_h24_9_37"  />
</g>
<g id="a24_0038"  >
<polygon points="611,85 616,80 622,80 622,90 616,90 611,85 " style="fill:#d8d815; stroke-width:1; stroke:black; " description="&lt;b&gt;DBP21_21610&lt;/b&gt;&lt;br&gt;2,3-diaminopropionate biosynthesis protein SbnA&lt;br&gt;Location: 14834 - 13857&lt;br&gt;&lt;br&gt;&lt;b&gt;BlastP hit with LLPMBPKK_06050&lt;/b&gt;&lt;br&gt;Percentage identity: 66&lt;br&gt;Percentage coverage: 94&lt;br&gt;BLAST bit score: 436&lt;br&gt;E-value: 4.54e-154" locus_tag="DBP21_21610" class="clusterblast-orf" id="dummy-24_h24_9_38"  />
</g>
<g id="a24_0039"  >
<polygon points="622,85 627,80 634,80 634,90 627,90 622,85 " style="fill:#15d877; stroke-width:1; stroke:black; " description="&lt;b&gt;DBP21_21605&lt;/b&gt;&lt;br&gt;2,3-diaminopropionate biosynthesis protein SbnB&lt;br&gt;Location: 13841 - 12780&lt;br&gt;&lt;br&gt;&lt;b&gt;BlastP hit with LLPMBPKK_06051&lt;/b&gt;&lt;br&gt;Percentage identity: 71&lt;br&gt;Percentage coverage: 95&lt;br&gt;BLAST bit score: 507&lt;br&gt;E-value: 1.67e-181" locus_tag="DBP21_21605" class="clusterblast-orf" id="dummy-24_h24_9_39"  />
</g>
<g id="a24_0040"  >
<polygon points="637,90 650,90 655,85 650,80 637,80 637,90 " style="fill:white; stroke-width:1; stroke:black; " description="&lt;b&gt;DBP21_21600&lt;/b&gt;&lt;br&gt;Tryptophan-7-halogenase&lt;br&gt;Location: 12545 - 10902" locus_tag="DBP21_21600" class="clusterblast-orf" id="dummy-24_h24_9_40"  />
</g>
<g id="a24_0041"  >
<polygon points="656,90 666,90 671,85 666,80 656,80 656,90 " style="fill:white; stroke-width:1; stroke:black; " description="&lt;b&gt;DBP21_21595&lt;/b&gt;&lt;br&gt;Na/H antiporter&lt;br&gt;Location: 10877 - 9576" locus_tag="DBP21_21595" class="clusterblast-orf" id="dummy-24_h24_9_41"  />
</g>
<g id="a24_0042"  >
<polygon points="671,90 671,90 676,85 671,80 671,80 671,90 " style="fill:white; stroke-width:1; stroke:black; " description="&lt;b&gt;DBP21_21590&lt;/b&gt;&lt;br&gt;Flavin reductase&lt;br&gt;Location: 9579 - 9064" locus_tag="DBP21_21590" class="clusterblast-orf" id="dummy-24_h24_9_42"  />
</g>
<g id="a24_0043"  >
<polygon points="679,90 682,85 679,80 679,90 " style="fill:white; stroke-width:1; stroke:black; " description="&lt;b&gt;DBP21_21585&lt;/b&gt;&lt;br&gt;ArsR transcriptional regulator&lt;br&gt;Location: 8859 - 8533" locus_tag="DBP21_21585" class="clusterblast-orf" id="dummy-24_h24_9_43"  />
</g>
<g id="a24_0044"  >
<polygon points="682,90 685,85 682,80 682,90 " style="fill:white; stroke-width:1; stroke:black; " description="&lt;b&gt;DBP21_21580&lt;/b&gt;&lt;br&gt;Hypothetical protein&lt;br&gt;Location: 8536 - 8303" locus_tag="DBP21_21580" class="clusterblast-orf" id="dummy-24_h24_9_44"  />
</g>
<g id="a24_0045"  >
<polygon points="685,90 689,90 694,85 689,80 685,80 685,90 " style="fill:white; stroke-width:1; stroke:black; " description="&lt;b&gt;DBP21_21575&lt;/b&gt;&lt;br&gt;Hypothetical protein&lt;br&gt;Location: 8306 - 7521" locus_tag="DBP21_21575" class="clusterblast-orf" id="dummy-24_h24_9_45"  />
</g>
<g id="a24_0046"  >
<polygon points="694,90 698,90 703,85 698,80 694,80 694,90 " style="fill:white; stroke-width:1; stroke:black; " description="&lt;b&gt;DBP21_21570&lt;/b&gt;&lt;br&gt;ABC transporter ATP binding&lt;br&gt;Location: 7524 - 6718" locus_tag="DBP21_21570" class="clusterblast-orf" id="dummy-24_h24_9_46"  />
</g>
<g id="a24_0047"  >
<polygon points="703,90 727,90 732,85 727,80 703,80 703,90 " style="fill:white; stroke-width:1; stroke:black; " description="&lt;b&gt;DBP21_21565&lt;/b&gt;&lt;br&gt;ABC transporter ATP binding&lt;br&gt;Location: 6721 - 4190" locus_tag="DBP21_21565" class="clusterblast-orf" id="dummy-24_h24_9_47"  />
</g>
<g id="a24_0048"  >
<polygon points="733,85 738,80 746,80 746,90 738,90 733,85 " style="fill:white; stroke-width:1; stroke:black; " description="&lt;b&gt;DBP21_21560&lt;/b&gt;&lt;br&gt;ArsR Transcriptional regulator&lt;br&gt;Location: 4064 - 2937" locus_tag="DBP21_21560" class="clusterblast-orf" id="dummy-24_h24_9_48"  />
</g>
<g id="a24_0049"  >
<polygon points="747,85 752,80 757,80 757,90 752,90 747,85 " style="fill:white; stroke-width:1; stroke:black; " description="&lt;b&gt;DBP21_21555&lt;/b&gt;&lt;br&gt;ABC transporter ATP binding&lt;br&gt;Location: 2888 - 1956" locus_tag="DBP21_21555" class="clusterblast-orf" id="dummy-24_h24_9_49"  />
</g>
<g id="a24_0050"  >
<polygon points="758,85 760,80 760,90 758,85 " style="fill:white; stroke-width:1; stroke:black; " description="&lt;b&gt;DBP21_21550&lt;/b&gt;&lt;br&gt;MbtH family protein&lt;br&gt;Location: 1914 - 1696" locus_tag="DBP21_21550" class="clusterblast-orf" id="dummy-24_h24_9_50"  />
</g>
<g id="a24_0051"  >
<polygon points="762,85 767,80 780,80 780,90 767,90 762,85 " style="fill:white; stroke-width:1; stroke:black; " description="&lt;b&gt;DBP21_21545&lt;/b&gt;&lt;br&gt;Adenylation-domain-containg protein&lt;br&gt;Location: 1557 - 1" locus_tag="DBP21_21545" class="clusterblast-orf" id="dummy-24_h24_9_51"  />
</g>
</svg>
