<svg xmlns="http://www.w3.org/2000/svg" xmlns:xlink="http://www.w3.org/1999/xlink" version="1.1" x="0" y="0" height="230" width="800" viewBox="0 0 800 230" preserveAspectRatio="none"  >
<g label="Query sequence" class="clusterblast-cluster"  >
<text x="5" y="20" class="clusterblast-acc"  >
Query sequence</text>
<line x1="10" y1="35" x2="778.0" y2="35" style="stroke-width:1; stroke:grey; "  />
<polygon points="34,40 60,40 65,35 60,30 34,30 34,40 " style="fill:#d81515; stroke-width:1; stroke:black; " description="&lt;b&gt;LLPMBPKK_07717&lt;/b&gt;&lt;br&gt;pullulanase-type alpha-1,6-glucosidase&lt;br&gt;Location: 8991840 - 8994999" locus_tag="LLPMBPKK_07717" class="clusterblast-orf" id="dummy-36_q0_0_all"  />
<polygon points="66,35 71,30 91,30 91,40 71,40 66,35 " style="fill:#d81515; stroke-width:1; stroke:black; " description="&lt;b&gt;LLPMBPKK_07718&lt;/b&gt;&lt;br&gt;pullulanase-type alpha-1,6-glucosidase&lt;br&gt;Location: 8995078 - 8997751" locus_tag="LLPMBPKK_07718" class="clusterblast-orf" id="dummy-36_q1_0_all"  />
<polygon points="96,40 104,40 109,35 104,30 96,30 96,40 " style="fill:#33d815; stroke-width:1; stroke:black; " description="&lt;b&gt;LLPMBPKK_07719&lt;/b&gt;&lt;br&gt;extracellular solute-binding protein&lt;br&gt;Location: 8998268 - 8999558" locus_tag="LLPMBPKK_07719" class="clusterblast-orf" id="dummy-36_q2_0_all"  />
<polygon points="110,40 115,40 120,35 115,30 110,30 110,40 " style="fill:#15abd8; stroke-width:1; stroke:black; " description="&lt;b&gt;LLPMBPKK_07720&lt;/b&gt;&lt;br&gt;maltose permease&lt;br&gt;Location: 8999690 - 9000686" locus_tag="LLPMBPKK_07720" class="clusterblast-orf" id="dummy-36_q3_0_all"  />
<polygon points="120,40 124,40 129,35 124,30 120,30 120,40 " style="fill:#8d15d8; stroke-width:1; stroke:black; " description="&lt;b&gt;LLPMBPKK_07721&lt;/b&gt;&lt;br&gt;maltose permease&lt;br&gt;Location: 9000699 - 9001614" locus_tag="LLPMBPKK_07721" class="clusterblast-orf" id="dummy-36_q4_0_all"  />
<polygon points="129,40 141,40 146,35 141,30 129,30 129,40 " style="fill:#d86f15; stroke-width:1; stroke:black; " description="&lt;b&gt;LLPMBPKK_07722&lt;/b&gt;&lt;br&gt;alpha-glucosidase&lt;br&gt;Location: 9001610 - 9003362" locus_tag="LLPMBPKK_07722" class="clusterblast-orf" id="dummy-36_q5_0_all"  />
<polygon points="146,40 151,40 156,35 151,30 146,30 146,40 " style="fill:#15d851; stroke-width:1; stroke:black; " description="&lt;b&gt;LLPMBPKK_07723&lt;/b&gt;&lt;br&gt;LacI family transcriptional regulator&lt;br&gt;Location: 9003363 - 9004425" locus_tag="LLPMBPKK_07723" class="clusterblast-orf" id="dummy-36_q6_0_all"  />
<polygon points="157,40 158,35 157,30 157,40 " style="fill:white; stroke-width:1; stroke:black; " description="&lt;b&gt;LLPMBPKK_07724&lt;/b&gt;&lt;br&gt;hypothetical protein&lt;br&gt;Location: 9004577 - 9004700" locus_tag="LLPMBPKK_07724" class="clusterblast-orf" id="dummy-36_q7_0_all"  />
<polygon points="159,40 161,35 159,30 159,40 " style="fill:white; stroke-width:1; stroke:black; " description="&lt;b&gt;LLPMBPKK_07725&lt;/b&gt;&lt;br&gt;hypothetical protein&lt;br&gt;Location: 9004800 - 9004929" locus_tag="LLPMBPKK_07725" class="clusterblast-orf" id="dummy-36_q8_0_all"  />
<polygon points="162,40 167,40 172,35 167,30 162,30 162,40 " style="fill:white; stroke-width:1; stroke:black; " description="&lt;b&gt;LLPMBPKK_07726&lt;/b&gt;&lt;br&gt;oxidoreductase&lt;br&gt;Location: 9005064 - 9006144" locus_tag="LLPMBPKK_07726" class="clusterblast-orf" id="dummy-36_q9_0_all"  />
<polygon points="172,35 177,30 181,30 181,40 177,40 172,35 " style="fill:white; stroke-width:1; stroke:black; " description="&lt;b&gt;LLPMBPKK_07727&lt;/b&gt;&lt;br&gt;LysR family transcriptional regulator&lt;br&gt;Location: 9006159 - 9007041" locus_tag="LLPMBPKK_07727" class="clusterblast-orf" id="dummy-36_q10_0_all"  />
<polygon points="182,40 191,40 196,35 191,30 182,30 182,40 " style="fill:white; stroke-width:1; stroke:black; " description="&lt;b&gt;LLPMBPKK_07728&lt;/b&gt;&lt;br&gt;MFS transporter methylenomycin A resistanceprotein&lt;br&gt;Location: 9007177 - 9008548" locus_tag="LLPMBPKK_07728" class="clusterblast-orf" id="dummy-36_q11_0_all"  />
<polygon points="198,35 203,30 203,30 203,40 203,40 198,35 " style="fill:white; stroke-width:1; stroke:black; " description="&lt;b&gt;LLPMBPKK_07729&lt;/b&gt;&lt;br&gt;hypothetical protein&lt;br&gt;Location: 9008762 - 9009290" locus_tag="LLPMBPKK_07729" class="clusterblast-orf" id="dummy-36_q12_0_all"  />
<polygon points="205,40 206,40 211,35 206,30 205,30 205,40 " style="fill:white; stroke-width:1; stroke:black; " description="&lt;b&gt;LLPMBPKK_07730&lt;/b&gt;&lt;br&gt;ArsR family transcriptional regulator&lt;br&gt;Location: 9009523 - 9010138" locus_tag="LLPMBPKK_07730" class="clusterblast-orf" id="dummy-36_q13_0_all"  />
<polygon points="211,40 220,40 225,35 220,30 211,30 211,40 " style="fill:white; stroke-width:1; stroke:black; " description="&lt;b&gt;LLPMBPKK_07731&lt;/b&gt;&lt;br&gt;MFS transporter&lt;br&gt;Location: 9010143 - 9011559" locus_tag="LLPMBPKK_07731" class="clusterblast-orf" id="dummy-36_q14_0_all"  />
<polygon points="227,40 287,40 292,35 287,30 227,30 227,40 " style="fill:white; stroke-width:1; stroke:black; " description="&lt;b&gt;LLPMBPKK_07732&lt;/b&gt;&lt;br&gt;non-ribosomal peptide synthetase&lt;br&gt;Location: 9011825 - 9018563" locus_tag="LLPMBPKK_07732" class="clusterblast-orf" id="dummy-36_q15_0_all"  />
<polygon points="293,40 364,40 369,35 364,30 293,30 293,40 " style="fill:white; stroke-width:1; stroke:black; " description="&lt;b&gt;LLPMBPKK_07733&lt;/b&gt;&lt;br&gt;CDA peptide synthetase II&lt;br&gt;Location: 9018610 - 9026488" locus_tag="LLPMBPKK_07733" class="clusterblast-orf" id="dummy-36_q16_0_all"  />
<polygon points="368,40 402,40 407,35 402,30 368,30 368,40 " style="fill:white; stroke-width:1; stroke:black; " description="&lt;b&gt;LLPMBPKK_07734&lt;/b&gt;&lt;br&gt;Linear gramicidin synthase subunit D&lt;br&gt;Location: 9026484 - 9030474" locus_tag="LLPMBPKK_07734" class="clusterblast-orf" id="dummy-36_q17_0_all"  />
<polygon points="411,35 416,30 421,30 421,40 416,40 411,35 " style="fill:#1551d8; stroke-width:1; stroke:black; " description="&lt;b&gt;LLPMBPKK_07735&lt;/b&gt;&lt;br&gt;2,3-diaminopropionate biosynthesis protein SbnB&lt;br&gt;Location: 9030936 - 9031944" locus_tag="LLPMBPKK_07735" class="clusterblast-orf" id="dummy-36_q18_0_all"  />
<polygon points="422,35 427,30 431,30 431,40 427,40 422,35 " style="fill:#d815c9; stroke-width:1; stroke:black; " description="&lt;b&gt;LLPMBPKK_07736&lt;/b&gt;&lt;br&gt;2,3-diaminopropionate biosynthesis protein SbnA&lt;br&gt;Location: 9031999 - 9032947" locus_tag="LLPMBPKK_07736" class="clusterblast-orf" id="dummy-36_q19_0_all"  />
<polygon points="431,35 436,30 443,30 443,40 436,40 431,35 " style="fill:#d8c915; stroke-width:1; stroke:black; " description="&lt;b&gt;LLPMBPKK_07737&lt;/b&gt;&lt;br&gt;ferredoxin-dependent glutamate synthase&lt;br&gt;Location: 9032943 - 9034170" locus_tag="LLPMBPKK_07737" class="clusterblast-orf" id="dummy-36_q20_0_all"  />
<polygon points="443,35 448,30 452,30 452,40 448,40 443,35 " style="fill:#15d8ab; stroke-width:1; stroke:black; " description="&lt;b&gt;LLPMBPKK_07738&lt;/b&gt;&lt;br&gt;asparaginyl-tRNA synthetase&lt;br&gt;Location: 9034166 - 9035180" locus_tag="LLPMBPKK_07738" class="clusterblast-orf" id="dummy-36_q21_0_all"  />
<polygon points="453,35 458,30 465,30 465,40 458,40 453,35 " style="fill:#3315d8; stroke-width:1; stroke:black; " description="&lt;b&gt;LLPMBPKK_07739&lt;/b&gt;&lt;br&gt;methylaspartate/glutamate mutase E subunit&lt;br&gt;Location: 9035253 - 9036537" locus_tag="LLPMBPKK_07739" class="clusterblast-orf" id="dummy-36_q22_0_all"  />
<polygon points="465,35 470,30 470,30 470,40 470,40 465,35 " style="fill:#d8156f; stroke-width:1; stroke:black; " description="&lt;b&gt;LLPMBPKK_07740&lt;/b&gt;&lt;br&gt;Glutamate mutase sigma subunit&lt;br&gt;Location: 9036523 - 9036994" locus_tag="LLPMBPKK_07740" class="clusterblast-orf" id="dummy-36_q23_0_all"  />
<polygon points="473,40 554,40 559,35 554,30 473,30 473,40 " style="fill:white; stroke-width:1; stroke:black; " description="&lt;b&gt;LLPMBPKK_07741&lt;/b&gt;&lt;br&gt;CDA peptide synthetase II&lt;br&gt;Location: 9037363 - 9046276" locus_tag="LLPMBPKK_07741" class="clusterblast-orf" id="dummy-36_q24_0_all"  />
<polygon points="560,35 565,30 570,30 570,40 565,40 560,35 " style="fill:white; stroke-width:1; stroke:black; " description="&lt;b&gt;LLPMBPKK_07742&lt;/b&gt;&lt;br&gt;erythropoiesis-stimulating protein&lt;br&gt;Location: 9046365 - 9047361" locus_tag="LLPMBPKK_07742" class="clusterblast-orf" id="dummy-36_q25_0_all"  />
<polygon points="574,35 576,30 576,40 574,35 " style="fill:white; stroke-width:1; stroke:black; " description="&lt;b&gt;allorf_9047820_9047999&lt;/b&gt;&lt;br&gt;allorf 9047820 9047999&lt;br&gt;Location: 9047819 - 9047999" locus_tag="allorf_9047820_9047999" class="clusterblast-orf" id="dummy-36_q26_0_all"  />
<polygon points="576,40 577,35 576,30 576,40 " style="fill:white; stroke-width:1; stroke:black; " description="&lt;b&gt;allorf_9047981_9048157&lt;/b&gt;&lt;br&gt;allorf 9047981 9048157&lt;br&gt;Location: 9047980 - 9048157" locus_tag="allorf_9047981_9048157" class="clusterblast-orf" id="dummy-36_q27_0_all"  />
<polygon points="578,40 580,35 578,30 578,40 " style="fill:white; stroke-width:1; stroke:black; " description="&lt;b&gt;LLPMBPKK_07743&lt;/b&gt;&lt;br&gt;hypothetical protein&lt;br&gt;Location: 9048233 - 9048440" locus_tag="LLPMBPKK_07743" class="clusterblast-orf" id="dummy-36_q28_0_all"  />
<polygon points="581,35 586,30 609,30 609,40 586,40 581,35 " style="fill:white; stroke-width:1; stroke:black; " description="&lt;b&gt;LLPMBPKK_07744&lt;/b&gt;&lt;br&gt;helix-turn-helix transcriptional regulator&lt;br&gt;Location: 9048498 - 9051414" locus_tag="LLPMBPKK_07744" class="clusterblast-orf" id="dummy-36_q29_0_all"  />
<polygon points="611,35 616,30 644,30 644,40 616,40 611,35 " style="fill:white; stroke-width:1; stroke:black; " description="&lt;b&gt;LLPMBPKK_07745&lt;/b&gt;&lt;br&gt;hypothetical protein&lt;br&gt;Location: 9051644 - 9055031" locus_tag="LLPMBPKK_07745" class="clusterblast-orf" id="dummy-36_q30_0_all"  />
<polygon points="645,35 650,30 652,30 652,40 650,40 645,35 " style="fill:white; stroke-width:1; stroke:black; " description="&lt;b&gt;LLPMBPKK_07746&lt;/b&gt;&lt;br&gt;Peptidase family S51&lt;br&gt;Location: 9055188 - 9055935" locus_tag="LLPMBPKK_07746" class="clusterblast-orf" id="dummy-36_q31_0_all"  />
<polygon points="656,40 658,35 656,30 656,40 " style="fill:white; stroke-width:1; stroke:black; " description="&lt;b&gt;LLPMBPKK_07747&lt;/b&gt;&lt;br&gt;hypothetical protein&lt;br&gt;Location: 9056342 - 9056489" locus_tag="LLPMBPKK_07747" class="clusterblast-orf" id="dummy-36_q32_0_all"  />
<polygon points="658,40 665,40 670,35 665,30 658,30 658,40 " style="fill:white; stroke-width:1; stroke:black; " description="&lt;b&gt;LLPMBPKK_07748&lt;/b&gt;&lt;br&gt;acyl-CoA dehydrogenase&lt;br&gt;Location: 9056485 - 9057709" locus_tag="LLPMBPKK_07748" class="clusterblast-orf" id="dummy-36_q33_0_all"  />
<polygon points="670,40 674,35 670,30 670,40 " style="fill:#8dd815; stroke-width:1; stroke:black; " description="&lt;b&gt;LLPMBPKK_07749&lt;/b&gt;&lt;br&gt;Rrf2 family transcriptional regulator&lt;br&gt;Location: 9057758 - 9058217" locus_tag="LLPMBPKK_07749" class="clusterblast-orf" id="dummy-36_q34_0_all"  />
<polygon points="675,40 676,35 675,30 675,40 " style="fill:white; stroke-width:1; stroke:black; " description="&lt;b&gt;allorf_9058228_9058356&lt;/b&gt;&lt;br&gt;allorf 9058228 9058356&lt;br&gt;Location: 9058227 - 9058356" locus_tag="allorf_9058228_9058356" class="clusterblast-orf" id="dummy-36_q35_0_all"  />
<polygon points="679,40 683,40 688,35 683,30 679,30 679,40 " style="fill:white; stroke-width:1; stroke:black; " description="&lt;b&gt;LLPMBPKK_07750&lt;/b&gt;&lt;br&gt;TauD/TfdA family dioxygenase&lt;br&gt;Location: 9058726 - 9059623" locus_tag="LLPMBPKK_07750" class="clusterblast-orf" id="dummy-36_q36_0_all"  />
<polygon points="688,40 692,40 697,35 692,30 688,30 688,40 " style="fill:white; stroke-width:1; stroke:black; " description="&lt;b&gt;LLPMBPKK_07751&lt;/b&gt;&lt;br&gt;ABC transporter permease&lt;br&gt;Location: 9059619 - 9060513" locus_tag="LLPMBPKK_07751" class="clusterblast-orf" id="dummy-36_q37_0_all"  />
<polygon points="697,40 699,40 704,35 699,30 697,30 697,40 " style="fill:white; stroke-width:1; stroke:black; " description="&lt;b&gt;LLPMBPKK_07752&lt;/b&gt;&lt;br&gt;ABC transporter ATP-binding protein&lt;br&gt;Location: 9060509 - 9061241" locus_tag="LLPMBPKK_07752" class="clusterblast-orf" id="dummy-36_q38_0_all"  />
<polygon points="704,40 709,40 714,35 709,30 704,30 704,40 " style="fill:white; stroke-width:1; stroke:black; " description="&lt;b&gt;LLPMBPKK_07753&lt;/b&gt;&lt;br&gt;aliphatic sulfonate ABC transportersubstrate-binding protein&lt;br&gt;Location: 9061287 - 9062346" locus_tag="LLPMBPKK_07753" class="clusterblast-orf" id="dummy-36_q39_0_all"  />
<polygon points="714,40 722,40 727,35 722,30 714,30 714,40 " style="fill:white; stroke-width:1; stroke:black; " description="&lt;b&gt;LLPMBPKK_07754&lt;/b&gt;&lt;br&gt;LLM class flavin-dependent oxidoreductase&lt;br&gt;Location: 9062342 - 9063707" locus_tag="LLPMBPKK_07754" class="clusterblast-orf" id="dummy-36_q40_0_all"  />
<polygon points="729,40 733,35 729,30 729,40 " style="fill:white; stroke-width:1; stroke:black; " description="&lt;b&gt;LLPMBPKK_07755&lt;/b&gt;&lt;br&gt;pyridoxamine 5'-phosphate oxidase family protein&lt;br&gt;Location: 9063851 - 9064313" locus_tag="LLPMBPKK_07755" class="clusterblast-orf" id="dummy-36_q41_0_all"  />
<polygon points="737,40 740,40 745,35 740,30 737,30 737,40 " style="fill:white; stroke-width:1; stroke:black; " description="&lt;b&gt;LLPMBPKK_07756&lt;/b&gt;&lt;br&gt;hypothetical protein&lt;br&gt;Location: 9064662 - 9065508" locus_tag="LLPMBPKK_07756" class="clusterblast-orf" id="dummy-36_q42_0_all"  />
</g>
<g label="BGC0001046" description="BGC0001046_c1: streptolydigin (10% of genes show similarity), NRP+Polyketide:Modular type I polyketide+Saccharide:Hybrid/tailoring saccharide" class="clusterblast-cluster"  >
<text x="5" y="70" class="clusterblast-acc"  >
<a xlink:href="https://mibig.secondarymetabolites.org/go/BGC0001046/1" target="_blank">BGC0001046</a>:                                                                   streptolydigin (10% of genes show similarity), NRP+Polyketide:Modular type I polyketide+Saccharide:Hybrid/tailoring saccharide</text>
<line x1="10" y1="85" x2="778.0" y2="85" style="stroke-width:1; stroke:grey; "  />
</g>
<g id="a36_000"  >
<polygon points="0,85 4,80 4,90 0,85 " style="fill:white; stroke-width:1; stroke:black; " description="&lt;b&gt;CBA11591.1&lt;/b&gt;&lt;br&gt;hypothetical protein&lt;br&gt;Location: 80893 - 80468" locus_tag="CBA11591.1" class="clusterblast-orf" id="dummy-36_h36_4_0"  />
</g>
<g id="a36_001"  >
<polygon points="4,85 9,80 10,80 10,90 9,90 4,85 " style="fill:white; stroke-width:1; stroke:black; " description="&lt;b&gt;CBA11590.1&lt;/b&gt;&lt;br&gt;putative TetR-family transcriptional regulator&lt;br&gt;Location: 80457 - 79840" locus_tag="CBA11590.1" class="clusterblast-orf" id="dummy-36_h36_4_1"  />
</g>
<g id="a36_002"  >
<polygon points="12,90 15,85 12,80 12,90 " style="fill:white; stroke-width:1; stroke:black; " description="&lt;b&gt;CBA11589.1&lt;/b&gt;&lt;br&gt;hypothetical protein&lt;br&gt;Location: 79632 - 79234" locus_tag="CBA11589.1" class="clusterblast-orf" id="dummy-36_h36_4_2"  />
</g>
<g id="a36_003"  >
<polygon points="16,85 21,80 23,80 23,90 21,90 16,85 " style="fill:white; stroke-width:1; stroke:black; " description="&lt;b&gt;CBA11588.1&lt;/b&gt;&lt;br&gt;putative hydrolase&lt;br&gt;Location: 79205 - 78477" locus_tag="CBA11588.1" class="clusterblast-orf" id="dummy-36_h36_4_3"  />
</g>
<g id="a36_004"  >
<polygon points="23,85 28,80 29,80 29,90 28,90 23,85 " style="fill:white; stroke-width:1; stroke:black; " description="&lt;b&gt;CBA11587.1&lt;/b&gt;&lt;br&gt;putative integral membrane protein&lt;br&gt;Location: 78480 - 77818" locus_tag="CBA11587.1" class="clusterblast-orf" id="dummy-36_h36_4_4"  />
</g>
<g id="a36_005"  >
<polygon points="30,85 35,80 39,80 39,90 35,90 30,85 " style="fill:white; stroke-width:1; stroke:black; " description="&lt;b&gt;CBA11586.1&lt;/b&gt;&lt;br&gt;putative integral membrane protein&lt;br&gt;Location: 77776 - 76841" locus_tag="CBA11586.1" class="clusterblast-orf" id="dummy-36_h36_4_5"  />
</g>
<g id="a36_006"  >
<polygon points="41,85 46,80 48,80 48,90 46,90 41,85 " style="fill:white; stroke-width:1; stroke:black; " description="&lt;b&gt;CBA11585.1&lt;/b&gt;&lt;br&gt;putative integral membrane protein&lt;br&gt;Location: 76637 - 75897" locus_tag="CBA11585.1" class="clusterblast-orf" id="dummy-36_h36_4_6"  />
</g>
<g id="a36_007"  >
<polygon points="53,90 226,90 231,85 226,80 53,80 53,90 " style="fill:white; stroke-width:1; stroke:black; " description="&lt;b&gt;CBA11584.1&lt;/b&gt;&lt;br&gt;polyketide synthase type I&lt;br&gt;Location: 75380 - 56865" locus_tag="CBA11584.1" class="clusterblast-orf" id="dummy-36_h36_4_7"  />
</g>
<g id="a36_008"  >
<polygon points="232,90 328,90 333,85 328,80 232,80 232,90 " style="fill:white; stroke-width:1; stroke:black; " description="&lt;b&gt;CBA11583.1&lt;/b&gt;&lt;br&gt;polyketide synthase type I&lt;br&gt;Location: 56758 - 46319" locus_tag="CBA11583.1" class="clusterblast-orf" id="dummy-36_h36_4_8"  />
</g>
<g id="a36_009"  >
<polygon points="334,90 429,90 434,85 429,80 334,80 334,90 " style="fill:white; stroke-width:1; stroke:black; " description="&lt;b&gt;CBA11582.1&lt;/b&gt;&lt;br&gt;polyketide synthase type I&lt;br&gt;Location: 46154 - 35811" locus_tag="CBA11582.1" class="clusterblast-orf" id="dummy-36_h36_4_9"  />
</g>
<g id="a36_0010"  >
<polygon points="434,90 437,90 442,85 437,80 434,80 434,90 " style="fill:white; stroke-width:1; stroke:black; " description="&lt;b&gt;CBA11581.1&lt;/b&gt;&lt;br&gt;thioesterase type II&lt;br&gt;Location: 35814 - 35032" locus_tag="CBA11581.1" class="clusterblast-orf" id="dummy-36_h36_4_10"  />
</g>
<g id="a36_0011"  >
<polygon points="442,90 445,90 450,85 445,80 442,80 442,90 " style="fill:white; stroke-width:1; stroke:black; " description="&lt;b&gt;CBA11580.1&lt;/b&gt;&lt;br&gt;putative secreted hydrolase&lt;br&gt;Location: 35035 - 34133" locus_tag="CBA11580.1" class="clusterblast-orf" id="dummy-36_h36_4_11"  />
</g>
<g id="a36_0012"  >
<polygon points="450,90 460,90 465,85 460,80 450,80 450,90 " style="fill:white; stroke-width:1; stroke:black; " description="&lt;b&gt;CBA11579.1&lt;/b&gt;&lt;br&gt;putative ent-copalyl diphosphate synthase&lt;br&gt;Location: 34136 - 32589" locus_tag="CBA11579.1" class="clusterblast-orf" id="dummy-36_h36_4_12"  />
</g>
<g id="a36_0013"  >
<polygon points="466,85 471,80 478,80 478,90 471,90 466,85 " style="fill:white; stroke-width:1; stroke:black; " description="&lt;b&gt;CBA11578.1&lt;/b&gt;&lt;br&gt;cytochrome P450&lt;br&gt;Location: 32538 - 31294" locus_tag="CBA11578.1" class="clusterblast-orf" id="dummy-36_h36_4_13"  />
</g>
<g id="a36_0014"  >
<polygon points="479,85 484,80 494,80 494,90 484,90 479,85 " style="fill:white; stroke-width:1; stroke:black; " description="&lt;b&gt;CBA11577.1&lt;/b&gt;&lt;br&gt;putative transport integral membrain protein&lt;br&gt;Location: 31172 - 29625" locus_tag="CBA11577.1" class="clusterblast-orf" id="dummy-36_h36_4_14"  />
</g>
<g id="a36_0015"  >
<polygon points="495,90 496,90 501,85 496,80 495,80 495,90 " style="fill:white; stroke-width:1; stroke:black; " description="&lt;b&gt;CBA11576.1&lt;/b&gt;&lt;br&gt;TetR-family transcriptional regulator&lt;br&gt;Location: 29524 - 28862" locus_tag="CBA11576.1" class="clusterblast-orf" id="dummy-36_h36_4_15"  />
</g>
<g id="a36_0016"  >
<polygon points="502,85 507,80 523,80 523,90 507,90 502,85 " style="fill:white; stroke-width:1; stroke:black; " description="&lt;b&gt;CBA11575.1&lt;/b&gt;&lt;br&gt;putative ATP/GTP binding-protein&lt;br&gt;Location: 28749 - 26650" locus_tag="CBA11575.1" class="clusterblast-orf" id="dummy-36_h36_4_16"  />
</g>
<g id="a36_0017"  >
<polygon points="526,90 530,85 526,80 526,90 " style="fill:#d8156f; stroke-width:1; stroke:black; " description="&lt;b&gt;CBA11574.1&lt;/b&gt;&lt;br&gt;glutamate mutase subunit&lt;br&gt;Location: 26303 - 25842&lt;br&gt;&lt;br&gt;&lt;b&gt;BlastP hit with LLPMBPKK_07740&lt;/b&gt;&lt;br&gt;Percentage identity: 50&lt;br&gt;Percentage coverage: 83&lt;br&gt;BLAST bit score: 115&lt;br&gt;E-value: 2.13e-33" locus_tag="CBA11574.1" class="clusterblast-orf" id="dummy-36_h36_4_17"  />
</g>
<g id="a36_0018"  >
<polygon points="530,90 538,90 543,85 538,80 530,80 530,90 " style="fill:#3315d8; stroke-width:1; stroke:black; " description="&lt;b&gt;CBA11573.1&lt;/b&gt;&lt;br&gt;glutamate mutase-E chain&lt;br&gt;Location: 25845 - 24496&lt;br&gt;&lt;br&gt;&lt;b&gt;BlastP hit with LLPMBPKK_07739&lt;/b&gt;&lt;br&gt;Percentage identity: 60&lt;br&gt;Percentage coverage: 98&lt;br&gt;BLAST bit score: 454&lt;br&gt;E-value: 4.54e-158" locus_tag="CBA11573.1" class="clusterblast-orf" id="dummy-36_h36_4_18"  />
</g>
<g id="a36_0019"  >
<polygon points="543,90 549,90 554,85 549,80 543,80 543,90 " style="fill:white; stroke-width:1; stroke:black; " description="&lt;b&gt;CBA11572.1&lt;/b&gt;&lt;br&gt;NDP-glucose synthase&lt;br&gt;Location: 24499 - 23432" locus_tag="CBA11572.1" class="clusterblast-orf" id="dummy-36_h36_4_19"  />
</g>
<g id="a36_0020"  >
<polygon points="554,90 558,90 563,85 558,80 554,80 554,90 " style="fill:white; stroke-width:1; stroke:black; " description="&lt;b&gt;CBA11571.1&lt;/b&gt;&lt;br&gt;NDP-glucose-4,6-dehydratase&lt;br&gt;Location: 23435 - 22449" locus_tag="CBA11571.1" class="clusterblast-orf" id="dummy-36_h36_4_20"  />
</g>
<g id="a36_0021"  >
<polygon points="564,85 569,80 581,80 581,90 569,90 564,85 " style="fill:white; stroke-width:1; stroke:black; " description="&lt;b&gt;CBA11570.1&lt;/b&gt;&lt;br&gt;non-ribosomal peptide synthetase&lt;br&gt;Location: 22301 - 20598" locus_tag="CBA11570.1" class="clusterblast-orf" id="dummy-36_h36_4_21"  />
</g>
<g id="a36_0022"  >
<polygon points="581,85 586,80 594,80 594,90 586,90 581,85 " style="fill:#d8c915; stroke-width:1; stroke:black; " description="&lt;b&gt;CBA11569.1&lt;/b&gt;&lt;br&gt;ferredoxin-dependent glutamate synthase&lt;br&gt;Location: 20601 - 19279&lt;br&gt;&lt;br&gt;&lt;b&gt;BlastP hit with LLPMBPKK_07737&lt;/b&gt;&lt;br&gt;Percentage identity: 62&lt;br&gt;Percentage coverage: 102&lt;br&gt;BLAST bit score: 475&lt;br&gt;E-value: 7.54e-167" locus_tag="CBA11569.1" class="clusterblast-orf" id="dummy-36_h36_4_22"  />
</g>
<g id="a36_0023"  >
<polygon points="594,85 599,80 603,80 603,90 599,90 594,85 " style="fill:#15d8ab; stroke-width:1; stroke:black; " description="&lt;b&gt;CBA11568.1&lt;/b&gt;&lt;br&gt;asparaginyl-tRNA synthetase-like&lt;br&gt;Location: 19282 - 18302&lt;br&gt;&lt;br&gt;&lt;b&gt;BlastP hit with LLPMBPKK_07738&lt;/b&gt;&lt;br&gt;Percentage identity: 66&lt;br&gt;Percentage coverage: 95&lt;br&gt;BLAST bit score: 422&lt;br&gt;E-value: 8.77e-149" locus_tag="CBA11568.1" class="clusterblast-orf" id="dummy-36_h36_4_23"  />
</g>
<g id="a36_0024"  >
<polygon points="610,85 615,80 621,80 621,90 615,90 610,85 " style="fill:white; stroke-width:1; stroke:black; " description="&lt;b&gt;CBA11567.1&lt;/b&gt;&lt;br&gt;glycosyltransferase&lt;br&gt;Location: 17577 - 16402" locus_tag="CBA11567.1" class="clusterblast-orf" id="dummy-36_h36_4_24"  />
</g>
<g id="a36_0025"  >
<polygon points="623,90 627,90 632,85 627,80 623,80 623,90 " style="fill:white; stroke-width:1; stroke:black; " description="&lt;b&gt;CBA11566.1&lt;/b&gt;&lt;br&gt;putative secreted hydrolase&lt;br&gt;Location: 16193 - 15339" locus_tag="CBA11566.1" class="clusterblast-orf" id="dummy-36_h36_4_25"  />
</g>
<g id="a36_0026"  >
<polygon points="632,90 639,90 644,85 639,80 632,80 632,90 " style="fill:white; stroke-width:1; stroke:black; " description="&lt;b&gt;CBA11565.1&lt;/b&gt;&lt;br&gt;cytochrome P450&lt;br&gt;Location: 15342 - 14101" locus_tag="CBA11565.1" class="clusterblast-orf" id="dummy-36_h36_4_26"  />
</g>
<g id="a36_0027"  >
<polygon points="644,90 652,90 657,85 652,80 644,80 644,90 " style="fill:white; stroke-width:1; stroke:black; " description="&lt;b&gt;CBA11564.1&lt;/b&gt;&lt;br&gt;NDP-hexose-2,3-dehydratase&lt;br&gt;Location: 14104 - 12752" locus_tag="CBA11564.1" class="clusterblast-orf" id="dummy-36_h36_4_27"  />
</g>
<g id="a36_0028"  >
<polygon points="657,90 661,90 666,85 661,80 657,80 657,90 " style="fill:white; stroke-width:1; stroke:black; " description="&lt;b&gt;CBA11563.1&lt;/b&gt;&lt;br&gt;NDP-hexose-3-ketoreductase&lt;br&gt;Location: 12755 - 11739" locus_tag="CBA11563.1" class="clusterblast-orf" id="dummy-36_h36_4_28"  />
</g>
<g id="a36_0029"  >
<polygon points="666,90 671,90 676,85 671,80 666,80 666,90 " style="fill:white; stroke-width:1; stroke:black; " description="&lt;b&gt;CBA11562.1&lt;/b&gt;&lt;br&gt;NDP-4-keto-6-deoxyhexose reductase&lt;br&gt;Location: 11742 - 10720" locus_tag="CBA11562.1" class="clusterblast-orf" id="dummy-36_h36_4_29"  />
</g>
<g id="a36_0030"  >
<polygon points="676,90 684,90 689,85 684,80 676,80 676,90 " style="fill:white; stroke-width:1; stroke:black; " description="&lt;b&gt;CBA11561.1&lt;/b&gt;&lt;br&gt;NDP-hexose-3,4-dehydratase&lt;br&gt;Location: 10709 - 9405" locus_tag="CBA11561.1" class="clusterblast-orf" id="dummy-36_h36_4_30"  />
</g>
<g id="a36_0031"  >
<polygon points="689,90 690,90 695,85 690,80 689,80 689,90 " style="fill:white; stroke-width:1; stroke:black; " description="&lt;b&gt;CBA11560.1&lt;/b&gt;&lt;br&gt;NDP-hexose-3,5-epimerase&lt;br&gt;Location: 9423 - 8767" locus_tag="CBA11560.1" class="clusterblast-orf" id="dummy-36_h36_4_31"  />
</g>
<g id="a36_0032"  >
<polygon points="696,90 703,90 708,85 703,80 696,80 696,90 " style="fill:white; stroke-width:1; stroke:black; " description="&lt;b&gt;CBA11559.1&lt;/b&gt;&lt;br&gt;methyltransferase&lt;br&gt;Location: 8672 - 7392" locus_tag="CBA11559.1" class="clusterblast-orf" id="dummy-36_h36_4_32"  />
</g>
<g id="a36_0033"  >
<polygon points="709,90 712,90 717,85 712,80 709,80 709,90 " style="fill:white; stroke-width:1; stroke:black; " description="&lt;b&gt;CBA11558.1&lt;/b&gt;&lt;br&gt;hypothetical protein&lt;br&gt;Location: 7337 - 6495" locus_tag="CBA11558.1" class="clusterblast-orf" id="dummy-36_h36_4_33"  />
</g>
<g id="a36_0034"  >
<polygon points="717,90 733,90 738,85 733,80 717,80 717,90 " style="fill:white; stroke-width:1; stroke:black; " description="&lt;b&gt;CBA11557.1&lt;/b&gt;&lt;br&gt;non-ribosomal peptide synthetase&lt;br&gt;Location: 6441 - 4318" locus_tag="CBA11557.1" class="clusterblast-orf" id="dummy-36_h36_4_34"  />
</g>
<g id="a36_0035"  >
<polygon points="738,85 743,80 766,80 766,90 743,90 738,85 " style="fill:white; stroke-width:1; stroke:black; " description="&lt;b&gt;CBA11556.1&lt;/b&gt;&lt;br&gt;LuxR-family transcriptional regulator&lt;br&gt;Location: 4260 - 1429" locus_tag="CBA11556.1" class="clusterblast-orf" id="dummy-36_h36_4_35"  />
</g>
<g id="a36_0036"  >
<polygon points="768,85 772,80 772,90 768,85 " style="fill:white; stroke-width:1; stroke:black; " description="&lt;b&gt;CBA11555.1&lt;/b&gt;&lt;br&gt;hypothetical protein&lt;br&gt;Location: 1194 - 808" locus_tag="CBA11555.1" class="clusterblast-orf" id="dummy-36_h36_4_36"  />
</g>
<g id="a36_0037"  >
<polygon points="775,85 780,80 780,80 780,90 780,90 775,85 " style="fill:white; stroke-width:1; stroke:black; " description="&lt;b&gt;CBA11554.1&lt;/b&gt;&lt;br&gt;putative glycerophosphoryl diester phosphodiesterase&lt;br&gt;Location: 438 - 1" locus_tag="CBA11554.1" class="clusterblast-orf" id="dummy-36_h36_4_37"  />
</g>
</svg>
