<svg xmlns="http://www.w3.org/2000/svg" xmlns:xlink="http://www.w3.org/1999/xlink" version="1.1" x="0" y="0" height="230" width="800" viewBox="0 0 800 230" preserveAspectRatio="none"  >
<g label="Query sequence" class="clusterblast-cluster"  >
<text x="5" y="20" class="clusterblast-acc"  >
Query sequence</text>
<line x1="10" y1="35" x2="778.0" y2="35" style="stroke-width:1; stroke:grey; "  />
<polygon points="37,40 62,40 67,35 62,30 37,30 37,40 " style="fill:#d81515; stroke-width:1; stroke:black; " description="&lt;b&gt;LLPMBPKK_07717&lt;/b&gt;&lt;br&gt;pullulanase-type alpha-1,6-glucosidase&lt;br&gt;Location: 8991840 - 8994999" locus_tag="LLPMBPKK_07717" class="clusterblast-orf" id="dummy-36_q0_0_all"  />
<polygon points="68,35 73,30 94,30 94,40 73,40 68,35 " style="fill:#d81515; stroke-width:1; stroke:black; " description="&lt;b&gt;LLPMBPKK_07718&lt;/b&gt;&lt;br&gt;pullulanase-type alpha-1,6-glucosidase&lt;br&gt;Location: 8995078 - 8997751" locus_tag="LLPMBPKK_07718" class="clusterblast-orf" id="dummy-36_q1_0_all"  />
<polygon points="99,40 106,40 111,35 106,30 99,30 99,40 " style="fill:#33d815; stroke-width:1; stroke:black; " description="&lt;b&gt;LLPMBPKK_07719&lt;/b&gt;&lt;br&gt;extracellular solute-binding protein&lt;br&gt;Location: 8998268 - 8999558" locus_tag="LLPMBPKK_07719" class="clusterblast-orf" id="dummy-36_q2_0_all"  />
<polygon points="112,40 117,40 122,35 117,30 112,30 112,40 " style="fill:#15abd8; stroke-width:1; stroke:black; " description="&lt;b&gt;LLPMBPKK_07720&lt;/b&gt;&lt;br&gt;maltose permease&lt;br&gt;Location: 8999690 - 9000686" locus_tag="LLPMBPKK_07720" class="clusterblast-orf" id="dummy-36_q3_0_all"  />
<polygon points="122,40 126,40 131,35 126,30 122,30 122,40 " style="fill:#8d15d8; stroke-width:1; stroke:black; " description="&lt;b&gt;LLPMBPKK_07721&lt;/b&gt;&lt;br&gt;maltose permease&lt;br&gt;Location: 9000699 - 9001614" locus_tag="LLPMBPKK_07721" class="clusterblast-orf" id="dummy-36_q4_0_all"  />
<polygon points="131,40 142,40 147,35 142,30 131,30 131,40 " style="fill:#d86f15; stroke-width:1; stroke:black; " description="&lt;b&gt;LLPMBPKK_07722&lt;/b&gt;&lt;br&gt;alpha-glucosidase&lt;br&gt;Location: 9001610 - 9003362" locus_tag="LLPMBPKK_07722" class="clusterblast-orf" id="dummy-36_q5_0_all"  />
<polygon points="147,40 153,40 158,35 153,30 147,30 147,40 " style="fill:#15d851; stroke-width:1; stroke:black; " description="&lt;b&gt;LLPMBPKK_07723&lt;/b&gt;&lt;br&gt;LacI family transcriptional regulator&lt;br&gt;Location: 9003363 - 9004425" locus_tag="LLPMBPKK_07723" class="clusterblast-orf" id="dummy-36_q6_0_all"  />
<polygon points="159,40 160,35 159,30 159,40 " style="fill:white; stroke-width:1; stroke:black; " description="&lt;b&gt;LLPMBPKK_07724&lt;/b&gt;&lt;br&gt;hypothetical protein&lt;br&gt;Location: 9004577 - 9004700" locus_tag="LLPMBPKK_07724" class="clusterblast-orf" id="dummy-36_q7_0_all"  />
<polygon points="161,40 162,35 161,30 161,40 " style="fill:white; stroke-width:1; stroke:black; " description="&lt;b&gt;LLPMBPKK_07725&lt;/b&gt;&lt;br&gt;hypothetical protein&lt;br&gt;Location: 9004800 - 9004929" locus_tag="LLPMBPKK_07725" class="clusterblast-orf" id="dummy-36_q8_0_all"  />
<polygon points="164,40 169,40 174,35 169,30 164,30 164,40 " style="fill:white; stroke-width:1; stroke:black; " description="&lt;b&gt;LLPMBPKK_07726&lt;/b&gt;&lt;br&gt;oxidoreductase&lt;br&gt;Location: 9005064 - 9006144" locus_tag="LLPMBPKK_07726" class="clusterblast-orf" id="dummy-36_q9_0_all"  />
<polygon points="174,35 179,30 183,30 183,40 179,40 174,35 " style="fill:white; stroke-width:1; stroke:black; " description="&lt;b&gt;LLPMBPKK_07727&lt;/b&gt;&lt;br&gt;LysR family transcriptional regulator&lt;br&gt;Location: 9006159 - 9007041" locus_tag="LLPMBPKK_07727" class="clusterblast-orf" id="dummy-36_q10_0_all"  />
<polygon points="184,40 192,40 197,35 192,30 184,30 184,40 " style="fill:white; stroke-width:1; stroke:black; " description="&lt;b&gt;LLPMBPKK_07728&lt;/b&gt;&lt;br&gt;MFS transporter methylenomycin A resistanceprotein&lt;br&gt;Location: 9007177 - 9008548" locus_tag="LLPMBPKK_07728" class="clusterblast-orf" id="dummy-36_q11_0_all"  />
<polygon points="199,35 204,30 204,30 204,40 204,40 199,35 " style="fill:white; stroke-width:1; stroke:black; " description="&lt;b&gt;LLPMBPKK_07729&lt;/b&gt;&lt;br&gt;hypothetical protein&lt;br&gt;Location: 9008762 - 9009290" locus_tag="LLPMBPKK_07729" class="clusterblast-orf" id="dummy-36_q12_0_all"  />
<polygon points="206,40 207,40 212,35 207,30 206,30 206,40 " style="fill:white; stroke-width:1; stroke:black; " description="&lt;b&gt;LLPMBPKK_07730&lt;/b&gt;&lt;br&gt;ArsR family transcriptional regulator&lt;br&gt;Location: 9009523 - 9010138" locus_tag="LLPMBPKK_07730" class="clusterblast-orf" id="dummy-36_q13_0_all"  />
<polygon points="212,40 221,40 226,35 221,30 212,30 212,40 " style="fill:white; stroke-width:1; stroke:black; " description="&lt;b&gt;LLPMBPKK_07731&lt;/b&gt;&lt;br&gt;MFS transporter&lt;br&gt;Location: 9010143 - 9011559" locus_tag="LLPMBPKK_07731" class="clusterblast-orf" id="dummy-36_q14_0_all"  />
<polygon points="228,40 288,40 293,35 288,30 228,30 228,40 " style="fill:white; stroke-width:1; stroke:black; " description="&lt;b&gt;LLPMBPKK_07732&lt;/b&gt;&lt;br&gt;non-ribosomal peptide synthetase&lt;br&gt;Location: 9011825 - 9018563" locus_tag="LLPMBPKK_07732" class="clusterblast-orf" id="dummy-36_q15_0_all"  />
<polygon points="293,40 364,40 369,35 364,30 293,30 293,40 " style="fill:white; stroke-width:1; stroke:black; " description="&lt;b&gt;LLPMBPKK_07733&lt;/b&gt;&lt;br&gt;CDA peptide synthetase II&lt;br&gt;Location: 9018610 - 9026488" locus_tag="LLPMBPKK_07733" class="clusterblast-orf" id="dummy-36_q16_0_all"  />
<polygon points="369,40 402,40 407,35 402,30 369,30 369,40 " style="fill:white; stroke-width:1; stroke:black; " description="&lt;b&gt;LLPMBPKK_07734&lt;/b&gt;&lt;br&gt;Linear gramicidin synthase subunit D&lt;br&gt;Location: 9026484 - 9030474" locus_tag="LLPMBPKK_07734" class="clusterblast-orf" id="dummy-36_q17_0_all"  />
<polygon points="411,35 416,30 421,30 421,40 416,40 411,35 " style="fill:#1551d8; stroke-width:1; stroke:black; " description="&lt;b&gt;LLPMBPKK_07735&lt;/b&gt;&lt;br&gt;2,3-diaminopropionate biosynthesis protein SbnB&lt;br&gt;Location: 9030936 - 9031944" locus_tag="LLPMBPKK_07735" class="clusterblast-orf" id="dummy-36_q18_0_all"  />
<polygon points="421,35 426,30 430,30 430,40 426,40 421,35 " style="fill:#d815c9; stroke-width:1; stroke:black; " description="&lt;b&gt;LLPMBPKK_07736&lt;/b&gt;&lt;br&gt;2,3-diaminopropionate biosynthesis protein SbnA&lt;br&gt;Location: 9031999 - 9032947" locus_tag="LLPMBPKK_07736" class="clusterblast-orf" id="dummy-36_q19_0_all"  />
<polygon points="430,35 435,30 442,30 442,40 435,40 430,35 " style="fill:#d8c915; stroke-width:1; stroke:black; " description="&lt;b&gt;LLPMBPKK_07737&lt;/b&gt;&lt;br&gt;ferredoxin-dependent glutamate synthase&lt;br&gt;Location: 9032943 - 9034170" locus_tag="LLPMBPKK_07737" class="clusterblast-orf" id="dummy-36_q20_0_all"  />
<polygon points="442,35 447,30 452,30 452,40 447,40 442,35 " style="fill:#15d8ab; stroke-width:1; stroke:black; " description="&lt;b&gt;LLPMBPKK_07738&lt;/b&gt;&lt;br&gt;asparaginyl-tRNA synthetase&lt;br&gt;Location: 9034166 - 9035180" locus_tag="LLPMBPKK_07738" class="clusterblast-orf" id="dummy-36_q21_0_all"  />
<polygon points="453,35 458,30 465,30 465,40 458,40 453,35 " style="fill:#3315d8; stroke-width:1; stroke:black; " description="&lt;b&gt;LLPMBPKK_07739&lt;/b&gt;&lt;br&gt;methylaspartate/glutamate mutase E subunit&lt;br&gt;Location: 9035253 - 9036537" locus_tag="LLPMBPKK_07739" class="clusterblast-orf" id="dummy-36_q22_0_all"  />
<polygon points="465,35 469,30 469,40 465,35 " style="fill:#d8156f; stroke-width:1; stroke:black; " description="&lt;b&gt;LLPMBPKK_07740&lt;/b&gt;&lt;br&gt;Glutamate mutase sigma subunit&lt;br&gt;Location: 9036523 - 9036994" locus_tag="LLPMBPKK_07740" class="clusterblast-orf" id="dummy-36_q23_0_all"  />
<polygon points="473,40 553,40 558,35 553,30 473,30 473,40 " style="fill:white; stroke-width:1; stroke:black; " description="&lt;b&gt;LLPMBPKK_07741&lt;/b&gt;&lt;br&gt;CDA peptide synthetase II&lt;br&gt;Location: 9037363 - 9046276" locus_tag="LLPMBPKK_07741" class="clusterblast-orf" id="dummy-36_q24_0_all"  />
<polygon points="559,35 564,30 568,30 568,40 564,40 559,35 " style="fill:white; stroke-width:1; stroke:black; " description="&lt;b&gt;LLPMBPKK_07742&lt;/b&gt;&lt;br&gt;erythropoiesis-stimulating protein&lt;br&gt;Location: 9046365 - 9047361" locus_tag="LLPMBPKK_07742" class="clusterblast-orf" id="dummy-36_q25_0_all"  />
<polygon points="573,35 574,30 574,40 573,35 " style="fill:white; stroke-width:1; stroke:black; " description="&lt;b&gt;allorf_9047820_9047999&lt;/b&gt;&lt;br&gt;allorf 9047820 9047999&lt;br&gt;Location: 9047819 - 9047999" locus_tag="allorf_9047820_9047999" class="clusterblast-orf" id="dummy-36_q26_0_all"  />
<polygon points="574,40 576,35 574,30 574,40 " style="fill:white; stroke-width:1; stroke:black; " description="&lt;b&gt;allorf_9047981_9048157&lt;/b&gt;&lt;br&gt;allorf 9047981 9048157&lt;br&gt;Location: 9047980 - 9048157" locus_tag="allorf_9047981_9048157" class="clusterblast-orf" id="dummy-36_q27_0_all"  />
<polygon points="577,40 579,35 577,30 577,40 " style="fill:white; stroke-width:1; stroke:black; " description="&lt;b&gt;LLPMBPKK_07743&lt;/b&gt;&lt;br&gt;hypothetical protein&lt;br&gt;Location: 9048233 - 9048440" locus_tag="LLPMBPKK_07743" class="clusterblast-orf" id="dummy-36_q28_0_all"  />
<polygon points="579,35 584,30 607,30 607,40 584,40 579,35 " style="fill:white; stroke-width:1; stroke:black; " description="&lt;b&gt;LLPMBPKK_07744&lt;/b&gt;&lt;br&gt;helix-turn-helix transcriptional regulator&lt;br&gt;Location: 9048498 - 9051414" locus_tag="LLPMBPKK_07744" class="clusterblast-orf" id="dummy-36_q29_0_all"  />
<polygon points="609,35 614,30 642,30 642,40 614,40 609,35 " style="fill:white; stroke-width:1; stroke:black; " description="&lt;b&gt;LLPMBPKK_07745&lt;/b&gt;&lt;br&gt;hypothetical protein&lt;br&gt;Location: 9051644 - 9055031" locus_tag="LLPMBPKK_07745" class="clusterblast-orf" id="dummy-36_q30_0_all"  />
<polygon points="643,35 648,30 650,30 650,40 648,40 643,35 " style="fill:white; stroke-width:1; stroke:black; " description="&lt;b&gt;LLPMBPKK_07746&lt;/b&gt;&lt;br&gt;Peptidase family S51&lt;br&gt;Location: 9055188 - 9055935" locus_tag="LLPMBPKK_07746" class="clusterblast-orf" id="dummy-36_q31_0_all"  />
<polygon points="654,40 656,35 654,30 654,40 " style="fill:white; stroke-width:1; stroke:black; " description="&lt;b&gt;LLPMBPKK_07747&lt;/b&gt;&lt;br&gt;hypothetical protein&lt;br&gt;Location: 9056342 - 9056489" locus_tag="LLPMBPKK_07747" class="clusterblast-orf" id="dummy-36_q32_0_all"  />
<polygon points="656,40 662,40 667,35 662,30 656,30 656,40 " style="fill:white; stroke-width:1; stroke:black; " description="&lt;b&gt;LLPMBPKK_07748&lt;/b&gt;&lt;br&gt;acyl-CoA dehydrogenase&lt;br&gt;Location: 9056485 - 9057709" locus_tag="LLPMBPKK_07748" class="clusterblast-orf" id="dummy-36_q33_0_all"  />
<polygon points="668,40 672,35 668,30 668,40 " style="fill:#8dd815; stroke-width:1; stroke:black; " description="&lt;b&gt;LLPMBPKK_07749&lt;/b&gt;&lt;br&gt;Rrf2 family transcriptional regulator&lt;br&gt;Location: 9057758 - 9058217" locus_tag="LLPMBPKK_07749" class="clusterblast-orf" id="dummy-36_q34_0_all"  />
<polygon points="672,40 674,35 672,30 672,40 " style="fill:white; stroke-width:1; stroke:black; " description="&lt;b&gt;allorf_9058228_9058356&lt;/b&gt;&lt;br&gt;allorf 9058228 9058356&lt;br&gt;Location: 9058227 - 9058356" locus_tag="allorf_9058228_9058356" class="clusterblast-orf" id="dummy-36_q35_0_all"  />
<polygon points="677,40 681,40 686,35 681,30 677,30 677,40 " style="fill:white; stroke-width:1; stroke:black; " description="&lt;b&gt;LLPMBPKK_07750&lt;/b&gt;&lt;br&gt;TauD/TfdA family dioxygenase&lt;br&gt;Location: 9058726 - 9059623" locus_tag="LLPMBPKK_07750" class="clusterblast-orf" id="dummy-36_q36_0_all"  />
<polygon points="686,40 689,40 694,35 689,30 686,30 686,40 " style="fill:white; stroke-width:1; stroke:black; " description="&lt;b&gt;LLPMBPKK_07751&lt;/b&gt;&lt;br&gt;ABC transporter permease&lt;br&gt;Location: 9059619 - 9060513" locus_tag="LLPMBPKK_07751" class="clusterblast-orf" id="dummy-36_q37_0_all"  />
<polygon points="694,40 696,40 701,35 696,30 694,30 694,40 " style="fill:white; stroke-width:1; stroke:black; " description="&lt;b&gt;LLPMBPKK_07752&lt;/b&gt;&lt;br&gt;ABC transporter ATP-binding protein&lt;br&gt;Location: 9060509 - 9061241" locus_tag="LLPMBPKK_07752" class="clusterblast-orf" id="dummy-36_q38_0_all"  />
<polygon points="702,40 707,40 712,35 707,30 702,30 702,40 " style="fill:white; stroke-width:1; stroke:black; " description="&lt;b&gt;LLPMBPKK_07753&lt;/b&gt;&lt;br&gt;aliphatic sulfonate ABC transportersubstrate-binding protein&lt;br&gt;Location: 9061287 - 9062346" locus_tag="LLPMBPKK_07753" class="clusterblast-orf" id="dummy-36_q39_0_all"  />
<polygon points="712,40 720,40 725,35 720,30 712,30 712,40 " style="fill:white; stroke-width:1; stroke:black; " description="&lt;b&gt;LLPMBPKK_07754&lt;/b&gt;&lt;br&gt;LLM class flavin-dependent oxidoreductase&lt;br&gt;Location: 9062342 - 9063707" locus_tag="LLPMBPKK_07754" class="clusterblast-orf" id="dummy-36_q40_0_all"  />
<polygon points="726,40 726,40 731,35 726,30 726,30 726,40 " style="fill:white; stroke-width:1; stroke:black; " description="&lt;b&gt;LLPMBPKK_07755&lt;/b&gt;&lt;br&gt;pyridoxamine 5'-phosphate oxidase family protein&lt;br&gt;Location: 9063851 - 9064313" locus_tag="LLPMBPKK_07755" class="clusterblast-orf" id="dummy-36_q41_0_all"  />
<polygon points="734,40 737,40 742,35 737,30 734,30 734,40 " style="fill:white; stroke-width:1; stroke:black; " description="&lt;b&gt;LLPMBPKK_07756&lt;/b&gt;&lt;br&gt;hypothetical protein&lt;br&gt;Location: 9064662 - 9065508" locus_tag="LLPMBPKK_07756" class="clusterblast-orf" id="dummy-36_q42_0_all"  />
</g>
<g label="BGC0002078" description="BGC0002078_c1: omnipeptin (10% of genes show similarity), NRP:Cyclic depsipeptide" class="clusterblast-cluster"  >
<text x="5" y="70" class="clusterblast-acc"  >
<a xlink:href="https://mibig.secondarymetabolites.org/go/BGC0002078/1" target="_blank">BGC0002078</a>:                                                                       omnipeptin (10% of genes show similarity), NRP:Cyclic depsipeptide</text>
<line x1="10" y1="85" x2="778.0" y2="85" style="stroke-width:1; stroke:grey; "  />
</g>
<g id="a36_000"  >
<polygon points="0,85 4,80 4,90 0,85 " style="fill:white; stroke-width:1; stroke:black; " description="&lt;b&gt;QEO74976.1&lt;/b&gt;&lt;br&gt;omn1&lt;br&gt;Location: 1 - 486" locus_tag="QEO74976.1" class="clusterblast-orf" id="dummy-36_h36_3_0"  />
</g>
<g id="a36_001"  >
<polygon points="4,85 9,80 16,80 16,90 9,90 4,85 " style="fill:white; stroke-width:1; stroke:black; " description="&lt;b&gt;QEO74977.1&lt;/b&gt;&lt;br&gt;omn2&lt;br&gt;Location: 483 - 1775" locus_tag="QEO74977.1" class="clusterblast-orf" id="dummy-36_h36_3_1"  />
</g>
<g id="a36_002"  >
<polygon points="17,85 22,80 32,80 32,90 22,90 17,85 " style="fill:white; stroke-width:1; stroke:black; " description="&lt;b&gt;QEO74978.1&lt;/b&gt;&lt;br&gt;omn3&lt;br&gt;Location: 1782 - 3347" locus_tag="QEO74978.1" class="clusterblast-orf" id="dummy-36_h36_3_2"  />
</g>
<g id="a36_003"  >
<polygon points="34,90 45,90 50,85 45,80 34,80 34,90 " style="fill:white; stroke-width:1; stroke:black; " description="&lt;b&gt;QEO74979.1&lt;/b&gt;&lt;br&gt;omn4&lt;br&gt;Location: 3606 - 5264" locus_tag="QEO74979.1" class="clusterblast-orf" id="dummy-36_h36_3_3"  />
</g>
<g id="a36_004"  >
<polygon points="50,90 52,85 50,80 50,90 " style="fill:white; stroke-width:1; stroke:black; " description="&lt;b&gt;QEO74980.1&lt;/b&gt;&lt;br&gt;omn5&lt;br&gt;Location: 5261 - 5512" locus_tag="QEO74980.1" class="clusterblast-orf" id="dummy-36_h36_3_4"  />
</g>
<g id="a36_005"  >
<polygon points="52,90 176,90 181,85 176,80 52,80 52,90 " style="fill:white; stroke-width:1; stroke:black; " description="&lt;b&gt;QEO74981.1&lt;/b&gt;&lt;br&gt;omn6&lt;br&gt;Location: 5514 - 18995" locus_tag="QEO74981.1" class="clusterblast-orf" id="dummy-36_h36_3_5"  />
</g>
<g id="a36_006"  >
<polygon points="181,90 364,90 369,85 364,80 181,80 181,90 " style="fill:white; stroke-width:1; stroke:black; " description="&lt;b&gt;QEO74982.1&lt;/b&gt;&lt;br&gt;omn7&lt;br&gt;Location: 18992 - 38623" locus_tag="QEO74982.1" class="clusterblast-orf" id="dummy-36_h36_3_6"  />
</g>
<g id="a36_007"  >
<polygon points="369,90 430,90 435,85 430,80 369,80 369,90 " style="fill:white; stroke-width:1; stroke:black; " description="&lt;b&gt;QEO74983.1&lt;/b&gt;&lt;br&gt;omn8&lt;br&gt;Location: 38625 - 45518" locus_tag="QEO74983.1" class="clusterblast-orf" id="dummy-36_h36_3_7"  />
</g>
<g id="a36_008"  >
<polygon points="435,90 437,85 435,80 435,90 " style="fill:white; stroke-width:1; stroke:black; " description="&lt;b&gt;QEO74984.1&lt;/b&gt;&lt;br&gt;omn9&lt;br&gt;Location: 45536 - 45760" locus_tag="QEO74984.1" class="clusterblast-orf" id="dummy-36_h36_3_8"  />
</g>
<g id="a36_009"  >
<polygon points="438,90 455,90 460,85 455,80 438,80 438,90 " style="fill:white; stroke-width:1; stroke:black; " description="&lt;b&gt;QEO74985.1&lt;/b&gt;&lt;br&gt;omn10&lt;br&gt;Location: 45853 - 48186" locus_tag="QEO74985.1" class="clusterblast-orf" id="dummy-36_h36_3_9"  />
</g>
<g id="a36_0010"  >
<polygon points="461,90 463,90 468,85 463,80 461,80 461,90 " style="fill:white; stroke-width:1; stroke:black; " description="&lt;b&gt;QEO74986.1&lt;/b&gt;&lt;br&gt;omn11&lt;br&gt;Location: 48190 - 48987" locus_tag="QEO74986.1" class="clusterblast-orf" id="dummy-36_h36_3_10"  />
</g>
<g id="a36_0011"  >
<polygon points="468,90 474,90 479,85 474,80 468,80 468,90 " style="fill:white; stroke-width:1; stroke:black; " description="&lt;b&gt;QEO74987.1&lt;/b&gt;&lt;br&gt;omn12&lt;br&gt;Location: 48996 - 50168" locus_tag="QEO74987.1" class="clusterblast-orf" id="dummy-36_h36_3_11"  />
</g>
<g id="a36_0012"  >
<polygon points="479,90 491,90 496,85 491,80 479,80 479,90 " style="fill:white; stroke-width:1; stroke:black; " description="&lt;b&gt;QEO74988.1&lt;/b&gt;&lt;br&gt;omn13&lt;br&gt;Location: 50165 - 51874" locus_tag="QEO74988.1" class="clusterblast-orf" id="dummy-36_h36_3_12"  />
</g>
<g id="a36_0013"  >
<polygon points="495,85 500,80 503,80 503,90 500,90 495,85 " style="fill:white; stroke-width:1; stroke:black; " description="&lt;b&gt;QEO74989.1&lt;/b&gt;&lt;br&gt;omn14&lt;br&gt;Location: 51839 - 52615" locus_tag="QEO74989.1" class="clusterblast-orf" id="dummy-36_h36_3_13"  />
</g>
<g id="a36_0014"  >
<polygon points="503,85 508,80 512,80 512,90 508,90 503,85 " style="fill:white; stroke-width:1; stroke:black; " description="&lt;b&gt;QEO74990.1&lt;/b&gt;&lt;br&gt;omn15&lt;br&gt;Location: 52615 - 53553" locus_tag="QEO74990.1" class="clusterblast-orf" id="dummy-36_h36_3_14"  />
</g>
<g id="a36_0015"  >
<polygon points="512,85 517,80 523,80 523,90 517,90 512,85 " style="fill:#d8c915; stroke-width:1; stroke:black; " description="&lt;b&gt;QEO74991.1&lt;/b&gt;&lt;br&gt;omn16&lt;br&gt;Location: 53543 - 54766&lt;br&gt;&lt;br&gt;&lt;b&gt;BlastP hit with LLPMBPKK_07737&lt;/b&gt;&lt;br&gt;Percentage identity: 63&lt;br&gt;Percentage coverage: 99&lt;br&gt;BLAST bit score: 469&lt;br&gt;E-value: 4.53e-165" locus_tag="QEO74991.1" class="clusterblast-orf" id="dummy-36_h36_3_15"  />
</g>
<g id="a36_0016"  >
<polygon points="523,85 528,80 533,80 533,90 528,90 523,85 " style="fill:#15d8ab; stroke-width:1; stroke:black; " description="&lt;b&gt;QEO74992.1&lt;/b&gt;&lt;br&gt;omn17&lt;br&gt;Location: 54763 - 55737&lt;br&gt;&lt;br&gt;&lt;b&gt;BlastP hit with LLPMBPKK_07738&lt;/b&gt;&lt;br&gt;Percentage identity: 64&lt;br&gt;Percentage coverage: 95&lt;br&gt;BLAST bit score: 407&lt;br&gt;E-value: 4.87e-143" locus_tag="QEO74992.1" class="clusterblast-orf" id="dummy-36_h36_3_16"  />
</g>
<g id="a36_0017"  >
<polygon points="533,85 538,80 544,80 544,90 538,90 533,85 " style="fill:#3315d8; stroke-width:1; stroke:black; " description="&lt;b&gt;QEO74993.1&lt;/b&gt;&lt;br&gt;omn18&lt;br&gt;Location: 55749 - 56957&lt;br&gt;&lt;br&gt;&lt;b&gt;BlastP hit with LLPMBPKK_07739&lt;/b&gt;&lt;br&gt;Percentage identity: 59&lt;br&gt;Percentage coverage: 96&lt;br&gt;BLAST bit score: 418&lt;br&gt;E-value: 1.6e-144" locus_tag="QEO74993.1" class="clusterblast-orf" id="dummy-36_h36_3_17"  />
</g>
<g id="a36_0018"  >
<polygon points="544,85 548,80 548,90 544,85 " style="fill:#d8156f; stroke-width:1; stroke:black; " description="&lt;b&gt;QEO74994.1&lt;/b&gt;&lt;br&gt;omn19&lt;br&gt;Location: 56954 - 57385&lt;br&gt;&lt;br&gt;&lt;b&gt;BlastP hit with LLPMBPKK_07740&lt;/b&gt;&lt;br&gt;Percentage identity: 48&lt;br&gt;Percentage coverage: 85&lt;br&gt;BLAST bit score: 112&lt;br&gt;E-value: 3.66e-32" locus_tag="QEO74994.1" class="clusterblast-orf" id="dummy-36_h36_3_18"  />
</g>
<g id="a36_0019"  >
<polygon points="548,85 553,80 557,80 557,90 553,90 548,85 " style="fill:white; stroke-width:1; stroke:black; " description="&lt;b&gt;QEO74995.1&lt;/b&gt;&lt;br&gt;omn20&lt;br&gt;Location: 57363 - 58250" locus_tag="QEO74995.1" class="clusterblast-orf" id="dummy-36_h36_3_19"  />
</g>
<g id="a36_0020"  >
<polygon points="558,85 563,80 584,80 584,90 563,90 558,85 " style="fill:white; stroke-width:1; stroke:black; " description="&lt;b&gt;QEO74996.1&lt;/b&gt;&lt;br&gt;omn21&lt;br&gt;Location: 58412 - 61141" locus_tag="QEO74996.1" class="clusterblast-orf" id="dummy-36_h36_3_20"  />
</g>
<g id="a36_0021"  >
<polygon points="586,85 591,80 610,80 610,90 591,90 586,85 " style="fill:white; stroke-width:1; stroke:black; " description="&lt;b&gt;QEO74997.1&lt;/b&gt;&lt;br&gt;omn22&lt;br&gt;Location: 61352 - 63781" locus_tag="QEO74997.1" class="clusterblast-orf" id="dummy-36_h36_3_21"  />
</g>
<g id="a36_0022"  >
<polygon points="610,85 615,80 616,80 616,90 615,90 610,85 " style="fill:white; stroke-width:1; stroke:black; " description="&lt;b&gt;QEO74998.1&lt;/b&gt;&lt;br&gt;omn23&lt;br&gt;Location: 63775 - 64494" locus_tag="QEO74998.1" class="clusterblast-orf" id="dummy-36_h36_3_22"  />
</g>
<g id="a36_0023"  >
<polygon points="618,90 624,90 629,85 624,80 618,80 618,90 " style="fill:white; stroke-width:1; stroke:black; " description="&lt;b&gt;QEO74999.1&lt;/b&gt;&lt;br&gt;omn24&lt;br&gt;Location: 64628 - 65824" locus_tag="QEO74999.1" class="clusterblast-orf" id="dummy-36_h36_3_23"  />
</g>
<g id="a36_0024"  >
<polygon points="629,90 630,90 635,85 630,80 629,80 629,90 " style="fill:white; stroke-width:1; stroke:black; " description="&lt;b&gt;QEO75000.1&lt;/b&gt;&lt;br&gt;omn25&lt;br&gt;Location: 65797 - 66468" locus_tag="QEO75000.1" class="clusterblast-orf" id="dummy-36_h36_3_24"  />
</g>
<g id="a36_0025"  >
<polygon points="636,85 641,80 647,80 647,90 641,90 636,85 " style="fill:white; stroke-width:1; stroke:black; " description="&lt;b&gt;QEO75001.1&lt;/b&gt;&lt;br&gt;omn26&lt;br&gt;Location: 66539 - 67726" locus_tag="QEO75001.1" class="clusterblast-orf" id="dummy-36_h36_3_25"  />
</g>
<g id="a36_0026"  >
<polygon points="649,90 652,90 657,85 652,80 649,80 649,90 " style="fill:white; stroke-width:1; stroke:black; " description="&lt;b&gt;QEO75002.1&lt;/b&gt;&lt;br&gt;omn27&lt;br&gt;Location: 67882 - 68736" locus_tag="QEO75002.1" class="clusterblast-orf" id="dummy-36_h36_3_26"  />
</g>
<g id="a36_0027"  >
<polygon points="657,90 660,90 665,85 660,80 657,80 657,90 " style="fill:white; stroke-width:1; stroke:black; " description="&lt;b&gt;QEO75003.1&lt;/b&gt;&lt;br&gt;omn28&lt;br&gt;Location: 68759 - 69556" locus_tag="QEO75003.1" class="clusterblast-orf" id="dummy-36_h36_3_27"  />
</g>
<g id="a36_0028"  >
<polygon points="665,90 670,90 675,85 670,80 665,80 665,90 " style="fill:white; stroke-width:1; stroke:black; " description="&lt;b&gt;QEO75004.1&lt;/b&gt;&lt;br&gt;omn29&lt;br&gt;Location: 69553 - 70629" locus_tag="QEO75004.1" class="clusterblast-orf" id="dummy-36_h36_3_28"  />
</g>
<g id="a36_0029"  >
<polygon points="675,90 681,90 686,85 681,80 675,80 675,90 " style="fill:white; stroke-width:1; stroke:black; " description="&lt;b&gt;QEO75005.1&lt;/b&gt;&lt;br&gt;omn30&lt;br&gt;Location: 70626 - 71777" locus_tag="QEO75005.1" class="clusterblast-orf" id="dummy-36_h36_3_29"  />
</g>
<g id="a36_0030"  >
<polygon points="686,90 689,90 694,85 689,80 686,80 686,90 " style="fill:white; stroke-width:1; stroke:black; " description="&lt;b&gt;QEO75006.1&lt;/b&gt;&lt;br&gt;omn31&lt;br&gt;Location: 71771 - 72586" locus_tag="QEO75006.1" class="clusterblast-orf" id="dummy-36_h36_3_30"  />
</g>
<g id="a36_0031"  >
<polygon points="694,90 703,90 708,85 703,80 694,80 694,90 " style="fill:white; stroke-width:1; stroke:black; " description="&lt;b&gt;QEO75007.1&lt;/b&gt;&lt;br&gt;omn32&lt;br&gt;Location: 72583 - 74031" locus_tag="QEO75007.1" class="clusterblast-orf" id="dummy-36_h36_3_31"  />
</g>
<g id="a36_0032"  >
<polygon points="708,90 711,90 716,85 711,80 708,80 708,90 " style="fill:white; stroke-width:1; stroke:black; " description="&lt;b&gt;QEO75008.1&lt;/b&gt;&lt;br&gt;omn33&lt;br&gt;Location: 74028 - 74879" locus_tag="QEO75008.1" class="clusterblast-orf" id="dummy-36_h36_3_32"  />
</g>
<g id="a36_0033"  >
<polygon points="716,90 721,90 726,85 721,80 716,80 716,90 " style="fill:white; stroke-width:1; stroke:black; " description="&lt;b&gt;QEO75009.1&lt;/b&gt;&lt;br&gt;omn34&lt;br&gt;Location: 74876 - 75937" locus_tag="QEO75009.1" class="clusterblast-orf" id="dummy-36_h36_3_33"  />
</g>
<g id="a36_0034"  >
<polygon points="726,90 734,90 739,85 734,80 726,80 726,90 " style="fill:white; stroke-width:1; stroke:black; " description="&lt;b&gt;QEO75010.1&lt;/b&gt;&lt;br&gt;omn35&lt;br&gt;Location: 75934 - 77295" locus_tag="QEO75010.1" class="clusterblast-orf" id="dummy-36_h36_3_34"  />
</g>
<g id="a36_0035"  >
<polygon points="740,90 742,90 747,85 742,80 740,80 740,90 " style="fill:white; stroke-width:1; stroke:black; " description="&lt;b&gt;QEO75011.1&lt;/b&gt;&lt;br&gt;omn36&lt;br&gt;Location: 77395 - 78189" locus_tag="QEO75011.1" class="clusterblast-orf" id="dummy-36_h36_3_35"  />
</g>
<g id="a36_0036"  >
<polygon points="748,90 749,90 754,85 749,80 748,80 748,90 " style="fill:white; stroke-width:1; stroke:black; " description="&lt;b&gt;QEO75012.1&lt;/b&gt;&lt;br&gt;omn37&lt;br&gt;Location: 78193 - 78828" locus_tag="QEO75012.1" class="clusterblast-orf" id="dummy-36_h36_3_36"  />
</g>
<g id="a36_0037"  >
<polygon points="753,85 758,80 759,80 759,90 758,90 753,85 " style="fill:white; stroke-width:1; stroke:black; " description="&lt;b&gt;QEO75013.1&lt;/b&gt;&lt;br&gt;omn38&lt;br&gt;Location: 78806 - 79417" locus_tag="QEO75013.1" class="clusterblast-orf" id="dummy-36_h36_3_37"  />
</g>
<g id="a36_0038"  >
<polygon points="761,90 765,90 770,85 765,80 761,80 761,90 " style="fill:white; stroke-width:1; stroke:black; " description="&lt;b&gt;QEO75014.1&lt;/b&gt;&lt;br&gt;omn39&lt;br&gt;Location: 79564 - 80526" locus_tag="QEO75014.1" class="clusterblast-orf" id="dummy-36_h36_3_38"  />
</g>
<g id="a36_0039"  >
<polygon points="770,90 775,90 780,85 775,80 770,80 770,90 " style="fill:white; stroke-width:1; stroke:black; " description="&lt;b&gt;QEO75015.1&lt;/b&gt;&lt;br&gt;omn40&lt;br&gt;Location: 80590 - 81534" locus_tag="QEO75015.1" class="clusterblast-orf" id="dummy-36_h36_3_39"  />
</g>
</svg>
