<svg xmlns="http://www.w3.org/2000/svg" xmlns:xlink="http://www.w3.org/1999/xlink" version="1.1" x="0" y="0" height="230" width="800" viewBox="0 0 800 230" preserveAspectRatio="none"  >
<g label="Query sequence" class="clusterblast-cluster"  >
<text x="5" y="20" class="clusterblast-acc"  >
Query sequence</text>
<line x1="10" y1="35" x2="778.0" y2="35" style="stroke-width:1; stroke:grey; "  />
<polygon points="2,35 7,30 15,30 15,40 7,40 2,35 " style="fill:white; stroke-width:1; stroke:black; " description="&lt;b&gt;LLPMBPKK_04016&lt;/b&gt;&lt;br&gt;TrmH family RNA methyltransferase&lt;br&gt;Location: 4616085 - 4616826" locus_tag="LLPMBPKK_04016" class="clusterblast-orf" id="dummy-18_q0_0_all"  />
<polygon points="14,35 19,30 36,30 36,40 19,40 14,35 " style="fill:white; stroke-width:1; stroke:black; " description="&lt;b&gt;LLPMBPKK_04017&lt;/b&gt;&lt;br&gt;HTTM domain-containing protein&lt;br&gt;Location: 4616822 - 4618034" locus_tag="LLPMBPKK_04017" class="clusterblast-orf" id="dummy-18_q1_0_all"  />
<polygon points="36,35 41,30 50,30 50,40 41,40 36,35 " style="fill:white; stroke-width:1; stroke:black; " description="&lt;b&gt;LLPMBPKK_04018&lt;/b&gt;&lt;br&gt;hypothetical protein&lt;br&gt;Location: 4618030 - 4618855" locus_tag="LLPMBPKK_04018" class="clusterblast-orf" id="dummy-18_q2_0_all"  />
<polygon points="57,40 70,40 75,35 70,30 57,30 57,40 " style="fill:white; stroke-width:1; stroke:black; " description="&lt;b&gt;LLPMBPKK_04019&lt;/b&gt;&lt;br&gt;1,2-phenylacetyl-CoA epoxidase subunit A&lt;br&gt;Location: 4619266 - 4620283" locus_tag="LLPMBPKK_04019" class="clusterblast-orf" id="dummy-18_q3_0_all"  />
<polygon points="75,40 75,40 80,35 75,30 75,30 75,40 " style="fill:white; stroke-width:1; stroke:black; " description="&lt;b&gt;LLPMBPKK_04020&lt;/b&gt;&lt;br&gt;1,2-phenylacetyl-CoA epoxidase subunit B&lt;br&gt;Location: 4620279 - 4620567" locus_tag="LLPMBPKK_04020" class="clusterblast-orf" id="dummy-18_q4_0_all"  />
<polygon points="80,40 88,40 93,35 88,30 80,30 80,40 " style="fill:white; stroke-width:1; stroke:black; " description="&lt;b&gt;LLPMBPKK_04021&lt;/b&gt;&lt;br&gt;phenylacetate-CoA oxygenase subunit PaaI&lt;br&gt;Location: 4620563 - 4621316" locus_tag="LLPMBPKK_04021" class="clusterblast-orf" id="dummy-18_q5_0_all"  />
<polygon points="93,40 97,40 102,35 97,30 93,30 93,40 " style="fill:white; stroke-width:1; stroke:black; " description="&lt;b&gt;LLPMBPKK_04022&lt;/b&gt;&lt;br&gt;phenylacetate-CoA oxygenase subunit PaaJ&lt;br&gt;Location: 4621309 - 4621843" locus_tag="LLPMBPKK_04022" class="clusterblast-orf" id="dummy-18_q6_0_all"  />
<polygon points="102,40 116,40 121,35 116,30 102,30 102,40 " style="fill:white; stroke-width:1; stroke:black; " description="&lt;b&gt;LLPMBPKK_04023&lt;/b&gt;&lt;br&gt;2Fe-2S iron-sulfur cluster bindingdomain-containing protein&lt;br&gt;Location: 4621842 - 4622907" locus_tag="LLPMBPKK_04023" class="clusterblast-orf" id="dummy-18_q7_0_all"  />
<polygon points="124,40 139,40 144,35 139,30 124,30 124,40 " style="fill:white; stroke-width:1; stroke:black; " description="&lt;b&gt;LLPMBPKK_04024&lt;/b&gt;&lt;br&gt;acyl-CoA dehydrogenase&lt;br&gt;Location: 4623126 - 4624269" locus_tag="LLPMBPKK_04024" class="clusterblast-orf" id="dummy-18_q8_0_all"  />
<polygon points="145,35 150,30 151,30 151,40 150,40 145,35 " style="fill:white; stroke-width:1; stroke:black; " description="&lt;b&gt;LLPMBPKK_04025&lt;/b&gt;&lt;br&gt;rhodanese-like domain-containing protein&lt;br&gt;Location: 4624288 - 4624618" locus_tag="LLPMBPKK_04025" class="clusterblast-orf" id="dummy-18_q9_0_all"  />
<polygon points="151,35 156,30 168,30 168,40 156,40 151,35 " style="fill:white; stroke-width:1; stroke:black; " description="&lt;b&gt;LLPMBPKK_04026&lt;/b&gt;&lt;br&gt;hypothetical protein&lt;br&gt;Location: 4624666 - 4625623" locus_tag="LLPMBPKK_04026" class="clusterblast-orf" id="dummy-18_q10_0_all"  />
<polygon points="169,35 174,30 194,30 194,40 174,40 169,35 " style="fill:white; stroke-width:1; stroke:black; " description="&lt;b&gt;LLPMBPKK_04027&lt;/b&gt;&lt;br&gt;hypothetical protein&lt;br&gt;Location: 4625648 - 4627106" locus_tag="LLPMBPKK_04027" class="clusterblast-orf" id="dummy-18_q11_0_all"  />
<polygon points="197,35 202,30 210,30 210,40 202,40 197,35 " style="fill:#d81515; stroke-width:1; stroke:black; " description="&lt;b&gt;LLPMBPKK_04028&lt;/b&gt;&lt;br&gt;2-hydroxychromene-2-carboxylate isomerase&lt;br&gt;Location: 4627295 - 4627997" locus_tag="LLPMBPKK_04028" class="clusterblast-orf" id="dummy-18_q12_0_all"  />
<polygon points="211,35 216,30 224,30 224,40 216,40 211,35 " style="fill:#63d815; stroke-width:1; stroke:black; " description="&lt;b&gt;LLPMBPKK_04029&lt;/b&gt;&lt;br&gt;SDR family oxidoreductase&lt;br&gt;Location: 4628056 - 4628800" locus_tag="LLPMBPKK_04029" class="clusterblast-orf" id="dummy-18_q13_0_all"  />
<polygon points="223,35 228,30 240,30 240,40 228,40 223,35 " style="fill:#15b1d8; stroke-width:1; stroke:black; " description="&lt;b&gt;LLPMBPKK_04030&lt;/b&gt;&lt;br&gt;FabA-like domain protein&lt;br&gt;Location: 4628796 - 4629738" locus_tag="LLPMBPKK_04030" class="clusterblast-orf" id="dummy-18_q14_0_all"  />
<polygon points="240,35 244,30 244,40 240,35 " style="fill:#b115d8; stroke-width:1; stroke:black; " description="&lt;b&gt;LLPMBPKK_04031&lt;/b&gt;&lt;br&gt;acyl carrier protein&lt;br&gt;Location: 4629737 - 4629995" locus_tag="LLPMBPKK_04031" class="clusterblast-orf" id="dummy-18_q15_0_all"  />
<polygon points="246,35 251,30 265,30 265,40 251,40 246,35 " style="fill:#d86315; stroke-width:1; stroke:black; " description="&lt;b&gt;LLPMBPKK_04032&lt;/b&gt;&lt;br&gt;3-oxoacyl-ACP synthase&lt;br&gt;Location: 4630070 - 4631171" locus_tag="LLPMBPKK_04032" class="clusterblast-orf" id="dummy-18_q16_0_all"  />
<polygon points="266,35 271,30 273,30 273,40 271,40 266,35 " style="fill:white; stroke-width:1; stroke:black; " description="&lt;b&gt;LLPMBPKK_04033&lt;/b&gt;&lt;br&gt;hypothetical protein&lt;br&gt;Location: 4631222 - 4631618" locus_tag="LLPMBPKK_04033" class="clusterblast-orf" id="dummy-18_q17_0_all"  />
<polygon points="273,35 278,30 280,30 280,40 278,40 273,35 " style="fill:#15d815; stroke-width:1; stroke:black; " description="&lt;b&gt;LLPMBPKK_04034&lt;/b&gt;&lt;br&gt;hypothetical protein&lt;br&gt;Location: 4631621 - 4632029" locus_tag="LLPMBPKK_04034" class="clusterblast-orf" id="dummy-18_q18_0_all"  />
<polygon points="280,35 285,30 286,30 286,40 285,40 280,35 " style="fill:white; stroke-width:1; stroke:black; " description="&lt;b&gt;LLPMBPKK_04035&lt;/b&gt;&lt;br&gt;hypothetical protein&lt;br&gt;Location: 4632028 - 4632352" locus_tag="LLPMBPKK_04035" class="clusterblast-orf" id="dummy-18_q19_0_all"  />
<polygon points="286,35 291,30 303,30 303,40 291,40 286,35 " style="fill:#1563d8; stroke-width:1; stroke:black; " description="&lt;b&gt;LLPMBPKK_04036&lt;/b&gt;&lt;br&gt;hypothetical protein&lt;br&gt;Location: 4632361 - 4633366" locus_tag="LLPMBPKK_04036" class="clusterblast-orf" id="dummy-18_q20_0_all"  />
<polygon points="303,35 308,30 317,30 317,40 308,40 303,35 " style="fill:white; stroke-width:1; stroke:black; " description="&lt;b&gt;LLPMBPKK_04037&lt;/b&gt;&lt;br&gt;alpha/beta hydrolase&lt;br&gt;Location: 4633362 - 4634178" locus_tag="LLPMBPKK_04037" class="clusterblast-orf" id="dummy-18_q21_0_all"  />
<polygon points="317,35 322,30 335,30 335,40 322,40 317,35 " style="fill:#d815b1; stroke-width:1; stroke:black; " description="&lt;b&gt;LLPMBPKK_04038&lt;/b&gt;&lt;br&gt;3-oxoacyl-ACP synthase I&lt;br&gt;Location: 4634174 - 4635173" locus_tag="LLPMBPKK_04038" class="clusterblast-orf" id="dummy-18_q22_0_all"  />
<polygon points="335,35 340,30 355,30 355,40 340,40 335,35 " style="fill:#d8b115; stroke-width:1; stroke:black; " description="&lt;b&gt;LLPMBPKK_04039&lt;/b&gt;&lt;br&gt;3-oxoacyl-ACP synthase&lt;br&gt;Location: 4635172 - 4636348" locus_tag="LLPMBPKK_04039" class="clusterblast-orf" id="dummy-18_q23_0_all"  />
<polygon points="355,35 360,30 377,30 377,40 360,40 355,35 " style="fill:#15d863; stroke-width:1; stroke:black; " description="&lt;b&gt;LLPMBPKK_04040&lt;/b&gt;&lt;br&gt;beta-ketoacyl-[acyl-carrier-protein] synthasefamily protein&lt;br&gt;Location: 4636344 - 4637580" locus_tag="LLPMBPKK_04040" class="clusterblast-orf" id="dummy-18_q24_0_all"  />
<polygon points="377,35 382,30 382,30 382,40 382,40 377,35 " style="fill:#1515d8; stroke-width:1; stroke:black; " description="&lt;b&gt;LLPMBPKK_04041&lt;/b&gt;&lt;br&gt;acyl carrier protein&lt;br&gt;Location: 4637613 - 4637859" locus_tag="LLPMBPKK_04041" class="clusterblast-orf" id="dummy-18_q25_0_all"  />
<polygon points="384,35 389,30 398,30 398,40 389,40 384,35 " style="fill:white; stroke-width:1; stroke:black; " description="&lt;b&gt;LLPMBPKK_04042&lt;/b&gt;&lt;br&gt;LuxR family transcriptional regulator&lt;br&gt;Location: 4637995 - 4638787" locus_tag="LLPMBPKK_04042" class="clusterblast-orf" id="dummy-18_q26_0_all"  />
<polygon points="400,35 405,30 426,30 426,40 405,40 400,35 " style="fill:white; stroke-width:1; stroke:black; " description="&lt;b&gt;LLPMBPKK_04043&lt;/b&gt;&lt;br&gt;hypothetical protein&lt;br&gt;Location: 4638934 - 4640428" locus_tag="LLPMBPKK_04043" class="clusterblast-orf" id="dummy-18_q27_0_all"  />
<polygon points="428,35 433,30 493,30 493,40 433,40 428,35 " style="fill:white; stroke-width:1; stroke:black; " description="&lt;b&gt;LLPMBPKK_04044&lt;/b&gt;&lt;br&gt;[acyl-carrier-protein] S-malonyltransferase&lt;br&gt;Location: 4640501 - 4644239" locus_tag="LLPMBPKK_04044" class="clusterblast-orf" id="dummy-18_q28_0_all"  />
<polygon points="498,35 503,30 509,30 509,40 503,40 498,35 " style="fill:#d81563; stroke-width:1; stroke:black; " description="&lt;b&gt;LLPMBPKK_04045&lt;/b&gt;&lt;br&gt;gamma-butyrolactone binding protein&lt;br&gt;Location: 4644533 - 4645160" locus_tag="LLPMBPKK_04045" class="clusterblast-orf" id="dummy-18_q29_0_all"  />
<polygon points="512,35 517,30 525,30 525,40 517,40 512,35 " style="fill:#b1d815; stroke-width:1; stroke:black; " description="&lt;b&gt;LLPMBPKK_04046&lt;/b&gt;&lt;br&gt;response regulator transcription factor&lt;br&gt;Location: 4645316 - 4646048" locus_tag="LLPMBPKK_04046" class="clusterblast-orf" id="dummy-18_q30_0_all"  />
<polygon points="531,40 543,40 548,35 543,30 531,30 531,40 " style="fill:#15d8b1; stroke-width:1; stroke:black; " description="&lt;b&gt;LLPMBPKK_04047&lt;/b&gt;&lt;br&gt;ScbA protein&lt;br&gt;Location: 4646437 - 4647397" locus_tag="LLPMBPKK_04047" class="clusterblast-orf" id="dummy-18_q31_0_all"  />
<polygon points="549,40 560,40 565,35 560,30 549,30 549,40 " style="fill:#6315d8; stroke-width:1; stroke:black; " description="&lt;b&gt;LLPMBPKK_04048&lt;/b&gt;&lt;br&gt;2-alkyl-3-oxoalkanoate reductase&lt;br&gt;Location: 4647446 - 4648376" locus_tag="LLPMBPKK_04048" class="clusterblast-orf" id="dummy-18_q32_0_all"  />
<polygon points="565,35 570,30 586,30 586,40 570,40 565,35 " style="fill:white; stroke-width:1; stroke:black; " description="&lt;b&gt;LLPMBPKK_04049&lt;/b&gt;&lt;br&gt;pyrroloquinoline quinone biosynthesis proteinPqqE&lt;br&gt;Location: 4648378 - 4649575" locus_tag="LLPMBPKK_04049" class="clusterblast-orf" id="dummy-18_q33_0_all"  />
<polygon points="586,35 591,30 591,30 591,40 591,40 586,35 " style="fill:white; stroke-width:1; stroke:black; " description="&lt;b&gt;LLPMBPKK_04050&lt;/b&gt;&lt;br&gt;pyrroloquinoline quinone biosynthesis peptidechaperone PqqD&lt;br&gt;Location: 4649571 - 4649877" locus_tag="LLPMBPKK_04050" class="clusterblast-orf" id="dummy-18_q34_0_all"  />
<polygon points="591,35 596,30 604,30 604,40 596,40 591,35 " style="fill:white; stroke-width:1; stroke:black; " description="&lt;b&gt;LLPMBPKK_04051&lt;/b&gt;&lt;br&gt;pyrroloquinoline quinone biosynthesis proteinPqqC&lt;br&gt;Location: 4649876 - 4650611" locus_tag="LLPMBPKK_04051" class="clusterblast-orf" id="dummy-18_q35_0_all"  />
<polygon points="604,35 609,30 620,30 620,40 609,40 604,35 " style="fill:white; stroke-width:1; stroke:black; " description="&lt;b&gt;LLPMBPKK_04052&lt;/b&gt;&lt;br&gt;pyrroloquinoline quinone biosynthesis proteinPqqB&lt;br&gt;Location: 4650607 - 4651522" locus_tag="LLPMBPKK_04052" class="clusterblast-orf" id="dummy-18_q36_0_all"  />
<polygon points="620,35 623,30 623,40 620,35 " style="fill:white; stroke-width:1; stroke:black; " description="&lt;b&gt;LLPMBPKK_04053&lt;/b&gt;&lt;br&gt;hypothetical protein&lt;br&gt;Location: 4651529 - 4651667" locus_tag="LLPMBPKK_04053" class="clusterblast-orf" id="dummy-18_q37_0_all"  />
<polygon points="624,35 629,30 644,30 644,40 629,40 624,35 " style="fill:white; stroke-width:1; stroke:black; " description="&lt;b&gt;LLPMBPKK_04054&lt;/b&gt;&lt;br&gt;oxidoreductase&lt;br&gt;Location: 4651746 - 4652868" locus_tag="LLPMBPKK_04054" class="clusterblast-orf" id="dummy-18_q38_0_all"  />
<polygon points="645,35 650,30 674,30 674,40 650,40 645,35 " style="fill:white; stroke-width:1; stroke:black; " description="&lt;b&gt;LLPMBPKK_04055&lt;/b&gt;&lt;br&gt;hypothetical protein&lt;br&gt;Location: 4652956 - 4654618" locus_tag="LLPMBPKK_04055" class="clusterblast-orf" id="dummy-18_q39_0_all"  />
<polygon points="675,40 682,40 687,35 682,30 675,30 675,40 " style="fill:white; stroke-width:1; stroke:black; " description="&lt;b&gt;LLPMBPKK_04056&lt;/b&gt;&lt;br&gt;CDP-alcohol phosphatidyltransferase familyprotein&lt;br&gt;Location: 4654650 - 4655355" locus_tag="LLPMBPKK_04056" class="clusterblast-orf" id="dummy-18_q40_0_all"  />
<polygon points="685,35 690,30 695,30 695,40 690,40 685,35 " style="fill:white; stroke-width:1; stroke:black; " description="&lt;b&gt;LLPMBPKK_04057&lt;/b&gt;&lt;br&gt;Bifunctional protein HldE&lt;br&gt;Location: 4655244 - 4655793" locus_tag="LLPMBPKK_04057" class="clusterblast-orf" id="dummy-18_q41_0_all"  />
<polygon points="695,35 700,30 720,30 720,40 700,40 695,35 " style="fill:white; stroke-width:1; stroke:black; " description="&lt;b&gt;LLPMBPKK_04058&lt;/b&gt;&lt;br&gt;LamG domain-containing protein&lt;br&gt;Location: 4655789 - 4657256" locus_tag="LLPMBPKK_04058" class="clusterblast-orf" id="dummy-18_q42_0_all"  />
<polygon points="723,35 728,30 750,30 750,40 728,40 723,35 " style="fill:white; stroke-width:1; stroke:black; " description="&lt;b&gt;LLPMBPKK_04059&lt;/b&gt;&lt;br&gt;Polysaccharide biosynthesis protein&lt;br&gt;Location: 4657434 - 4658967" locus_tag="LLPMBPKK_04059" class="clusterblast-orf" id="dummy-18_q43_0_all"  />
<polygon points="750,35 755,30 778,30 778,40 755,40 750,35 " style="fill:white; stroke-width:1; stroke:black; " description="&lt;b&gt;LLPMBPKK_04060&lt;/b&gt;&lt;br&gt;hypothetical protein&lt;br&gt;Location: 4658963 - 4660556" locus_tag="LLPMBPKK_04060" class="clusterblast-orf" id="dummy-18_q44_0_all"  />
</g>
<g label="BGC0002014" description="BGC0002014_c1: pepticinnamin E (32% of genes show similarity), NRP+Polyketide" class="clusterblast-cluster"  >
<text x="5" y="70" class="clusterblast-acc"  >
<a xlink:href="https://mibig.secondarymetabolites.org/go/BGC0002014/1" target="_blank">BGC0002014</a>:                                                                  pepticinnamin E (32% of genes show similarity), NRP+Polyketide</text>
<line x1="10" y1="85" x2="778.0" y2="85" style="stroke-width:1; stroke:grey; "  />
</g>
<g id="a18_000"  >
<polygon points="0,85 5,80 23,80 23,90 5,90 0,85 " style="fill:white; stroke-width:1; stroke:black; " description="&lt;b&gt;OK006_RS36610&lt;/b&gt;&lt;br&gt;cation:proton antiporter&lt;br&gt;Location: 44694 - 43351" locus_tag="OK006_RS36610" class="clusterblast-orf" id="dummy-18_h18_9_0"  />
</g>
<g id="a18_001"  >
<polygon points="27,85 32,80 227,80 227,90 32,90 27,85 " style="fill:white; stroke-width:1; stroke:black; " description="&lt;b&gt;OK006_RS36605&lt;/b&gt;&lt;br&gt;non-ribosomal peptide synthetase&lt;br&gt;Location: 43095 - 31663" locus_tag="OK006_RS36605" class="clusterblast-orf" id="dummy-18_h18_9_1"  />
</g>
<g id="a18_002"  >
<polygon points="234,90 236,90 241,85 236,80 234,80 234,90 " style="fill:white; stroke-width:1; stroke:black; " description="&lt;b&gt;OK006_RS36600&lt;/b&gt;&lt;br&gt;DUF6191 domain-containing protein&lt;br&gt;Location: 31231 - 30830" locus_tag="OK006_RS36600" class="clusterblast-orf" id="dummy-18_h18_9_2"  />
</g>
<g id="a18_003"  >
<polygon points="247,90 251,90 256,85 251,80 247,80 247,90 " style="fill:white; stroke-width:1; stroke:black; " description="&lt;b&gt;OK006_RS36595&lt;/b&gt;&lt;br&gt;DUF3995 domain-containing protein&lt;br&gt;Location: 30512 - 30018" locus_tag="OK006_RS36595" class="clusterblast-orf" id="dummy-18_h18_9_3"  />
</g>
<g id="a18_004"  >
<polygon points="258,90 276,90 281,85 276,80 258,80 258,90 " style="fill:white; stroke-width:1; stroke:black; " description="&lt;b&gt;OK006_RS36590&lt;/b&gt;&lt;br&gt;NB-ARC domain-containing protein&lt;br&gt;Location: 29877 - 28555" locus_tag="OK006_RS36590" class="clusterblast-orf" id="dummy-18_h18_9_4"  />
</g>
<g id="a18_005"  >
<polygon points="281,85 286,80 291,80 291,90 286,90 281,85 " style="fill:white; stroke-width:1; stroke:black; " description="&lt;b&gt;OK006_RS36585&lt;/b&gt;&lt;br&gt;hypothetical protein&lt;br&gt;Location: 28537 - 27998" locus_tag="OK006_RS36585" class="clusterblast-orf" id="dummy-18_h18_9_5"  />
</g>
<g id="a18_006"  >
<polygon points="291,85 296,80 299,80 299,90 296,90 291,85 " style="fill:white; stroke-width:1; stroke:black; " description="&lt;b&gt;OK006_RS58495&lt;/b&gt;&lt;br&gt;hypothetical protein&lt;br&gt;Location: 28001 - 27552" locus_tag="OK006_RS58495" class="clusterblast-orf" id="dummy-18_h18_9_6"  />
</g>
<g id="a18_007"  >
<polygon points="299,85 304,80 305,80 305,90 304,90 299,85 " style="fill:white; stroke-width:1; stroke:black; " description="&lt;b&gt;OK006_RS58490&lt;/b&gt;&lt;br&gt;DsrE family protein&lt;br&gt;Location: 27555 - 27172" locus_tag="OK006_RS58490" class="clusterblast-orf" id="dummy-18_h18_9_7"  />
</g>
<g id="a18_008"  >
<polygon points="305,85 310,80 313,80 313,90 310,90 305,85 " style="fill:white; stroke-width:1; stroke:black; " description="&lt;b&gt;OK006_RS36570&lt;/b&gt;&lt;br&gt;DsrE family protein&lt;br&gt;Location: 27171 - 26758" locus_tag="OK006_RS36570" class="clusterblast-orf" id="dummy-18_h18_9_8"  />
</g>
<g id="a18_009"  >
<polygon points="313,85 318,80 318,80 318,90 318,90 313,85 " style="fill:white; stroke-width:1; stroke:black; " description="&lt;b&gt;OK006_RS36565&lt;/b&gt;&lt;br&gt;hypothetical protein&lt;br&gt;Location: 26755 - 26420" locus_tag="OK006_RS36565" class="clusterblast-orf" id="dummy-18_h18_9_9"  />
</g>
<g id="a18_0010"  >
<polygon points="318,85 323,80 323,80 323,90 323,90 318,85 " style="fill:white; stroke-width:1; stroke:black; " description="&lt;b&gt;OK006_RS36560&lt;/b&gt;&lt;br&gt;acyl carrier protein&lt;br&gt;Location: 26423 - 26166" locus_tag="OK006_RS36560" class="clusterblast-orf" id="dummy-18_h18_9_10"  />
</g>
<g id="a18_0011"  >
<polygon points="324,85 329,80 336,80 336,90 329,90 324,85 " style="fill:#d81515; stroke-width:1; stroke:black; " description="&lt;b&gt;OK006_RS36555&lt;/b&gt;&lt;br&gt;DsbA family protein&lt;br&gt;Location: 26124 - 25408&lt;br&gt;&lt;br&gt;&lt;b&gt;BlastP hit with LLPMBPKK_04028&lt;/b&gt;&lt;br&gt;Percentage identity: 50&lt;br&gt;Percentage coverage: 102&lt;br&gt;BLAST bit score: 238&lt;br&gt;E-value: 4.79e-79" locus_tag="OK006_RS36555" class="clusterblast-orf" id="dummy-18_h18_9_11"  />
</g>
<g id="a18_0012"  >
<polygon points="337,85 342,80 350,80 350,90 342,90 337,85 " style="fill:#63d815; stroke-width:1; stroke:black; " description="&lt;b&gt;OK006_RS36550&lt;/b&gt;&lt;br&gt;3-oxoacyl-ACP reductase FabG&lt;br&gt;Location: 25380 - 24634&lt;br&gt;&lt;br&gt;&lt;b&gt;BlastP hit with LLPMBPKK_04029&lt;/b&gt;&lt;br&gt;Percentage identity: 56&lt;br&gt;Percentage coverage: 98&lt;br&gt;BLAST bit score: 262&lt;br&gt;E-value: 2.19e-88" locus_tag="OK006_RS36550" class="clusterblast-orf" id="dummy-18_h18_9_12"  />
</g>
<g id="a18_0013"  >
<polygon points="351,85 356,80 369,80 369,90 356,90 351,85 " style="fill:#d86315; stroke-width:1; stroke:black; " description="&lt;b&gt;OK006_RS36545&lt;/b&gt;&lt;br&gt;hypothetical protein&lt;br&gt;Location: 24549 - 23506&lt;br&gt;&lt;br&gt;&lt;b&gt;BlastP hit with LLPMBPKK_04032&lt;/b&gt;&lt;br&gt;Percentage identity: 46&lt;br&gt;Percentage coverage: 98&lt;br&gt;BLAST bit score: 248&lt;br&gt;E-value: 1.21e-79" locus_tag="OK006_RS36545" class="clusterblast-orf" id="dummy-18_h18_9_13"  />
</g>
<g id="a18_0014"  >
<polygon points="369,85 374,80 387,80 387,90 374,90 369,85 " style="fill:#1563d8; stroke-width:1; stroke:black; " description="&lt;b&gt;OK006_RS36540&lt;/b&gt;&lt;br&gt;hypothetical protein&lt;br&gt;Location: 23509 - 22499&lt;br&gt;&lt;br&gt;&lt;b&gt;BlastP hit with LLPMBPKK_04036&lt;/b&gt;&lt;br&gt;Percentage identity: 50&lt;br&gt;Percentage coverage: 99&lt;br&gt;BLAST bit score: 312&lt;br&gt;E-value: 2.69e-105" locus_tag="OK006_RS36540" class="clusterblast-orf" id="dummy-18_h18_9_14"  />
</g>
<g id="a18_0015"  >
<polygon points="387,85 392,80 402,80 402,90 392,90 387,85 " style="fill:white; stroke-width:1; stroke:black; " description="&lt;b&gt;OK006_RS36535&lt;/b&gt;&lt;br&gt;alpha/beta hydrolase&lt;br&gt;Location: 22499 - 21612" locus_tag="OK006_RS36535" class="clusterblast-orf" id="dummy-18_h18_9_15"  />
</g>
<g id="a18_0016"  >
<polygon points="402,85 407,80 420,80 420,90 407,90 402,85 " style="fill:#d815b1; stroke-width:1; stroke:black; " description="&lt;b&gt;OK006_RS36530&lt;/b&gt;&lt;br&gt;hypothetical protein&lt;br&gt;Location: 21615 - 20617&lt;br&gt;&lt;br&gt;&lt;b&gt;BlastP hit with LLPMBPKK_04038&lt;/b&gt;&lt;br&gt;Percentage identity: 51&lt;br&gt;Percentage coverage: 99&lt;br&gt;BLAST bit score: 249&lt;br&gt;E-value: 8.9e-81" locus_tag="OK006_RS36530" class="clusterblast-orf" id="dummy-18_h18_9_16"  />
</g>
<g id="a18_0017"  >
<polygon points="420,85 425,80 440,80 440,90 425,90 420,85 " style="fill:#d8b115; stroke-width:1; stroke:black; " description="&lt;b&gt;OK006_RS36525&lt;/b&gt;&lt;br&gt;3-oxoacyl-ACP synthase&lt;br&gt;Location: 20620 - 19478&lt;br&gt;&lt;br&gt;&lt;b&gt;BlastP hit with LLPMBPKK_04039&lt;/b&gt;&lt;br&gt;Percentage identity: 56&lt;br&gt;Percentage coverage: 97&lt;br&gt;BLAST bit score: 380&lt;br&gt;E-value: 1.44e-130" locus_tag="OK006_RS36525" class="clusterblast-orf" id="dummy-18_h18_9_17"  />
</g>
<g id="a18_0018"  >
<polygon points="440,85 445,80 461,80 461,90 445,90 440,85 " style="fill:#15d863; stroke-width:1; stroke:black; " description="&lt;b&gt;OK006_RS36520&lt;/b&gt;&lt;br&gt;beta-ketoacyl-[acyl-carrier-protein] synthase family protein&lt;br&gt;Location: 19481 - 18255&lt;br&gt;&lt;br&gt;&lt;b&gt;BlastP hit with LLPMBPKK_04040&lt;/b&gt;&lt;br&gt;Percentage identity: 69&lt;br&gt;Percentage coverage: 99&lt;br&gt;BLAST bit score: 548&lt;br&gt;E-value: 7.61e-196" locus_tag="OK006_RS36520" class="clusterblast-orf" id="dummy-18_h18_9_18"  />
</g>
<g id="a18_0019"  >
<polygon points="461,85 466,80 466,80 466,90 466,90 461,85 " style="fill:#1515d8; stroke-width:1; stroke:black; " description="&lt;b&gt;OK006_RS36515&lt;/b&gt;&lt;br&gt;acyl carrier protein&lt;br&gt;Location: 18224 - 17967&lt;br&gt;&lt;br&gt;&lt;b&gt;BlastP hit with LLPMBPKK_04041&lt;/b&gt;&lt;br&gt;Percentage identity: 64&lt;br&gt;Percentage coverage: 100&lt;br&gt;BLAST bit score: 97&lt;br&gt;E-value: 5.11e-28" locus_tag="OK006_RS36515" class="clusterblast-orf" id="dummy-18_h18_9_19"  />
</g>
<g id="a18_0020"  >
<polygon points="471,90 479,90 484,85 479,80 471,80 471,90 " style="fill:white; stroke-width:1; stroke:black; " description="&lt;b&gt;OK006_RS36510&lt;/b&gt;&lt;br&gt;hypothetical protein&lt;br&gt;Location: 17694 - 16936" locus_tag="OK006_RS36510" class="clusterblast-orf" id="dummy-18_h18_9_20"  />
</g>
<g id="a18_0021"  >
<polygon points="485,90 491,90 496,85 491,80 485,80 485,90 " style="fill:white; stroke-width:1; stroke:black; " description="&lt;b&gt;OK006_RS36505&lt;/b&gt;&lt;br&gt;class I SAM-dependent methyltransferase&lt;br&gt;Location: 16898 - 16236" locus_tag="OK006_RS36505" class="clusterblast-orf" id="dummy-18_h18_9_21"  />
</g>
<g id="a18_0022"  >
<polygon points="497,85 502,80 526,80 526,90 502,90 497,85 " style="fill:white; stroke-width:1; stroke:black; " description="&lt;b&gt;OK006_RS36500&lt;/b&gt;&lt;br&gt;NAD(P)/FAD-dependent oxidoreductase&lt;br&gt;Location: 16213 - 14501" locus_tag="OK006_RS36500" class="clusterblast-orf" id="dummy-18_h18_9_22"  />
</g>
<g id="a18_0023"  >
<polygon points="526,85 531,80 545,80 545,90 531,90 526,85 " style="fill:#d86315; stroke-width:1; stroke:black; " description="&lt;b&gt;OK006_RS36495&lt;/b&gt;&lt;br&gt;hypothetical protein&lt;br&gt;Location: 14504 - 13428&lt;br&gt;&lt;br&gt;&lt;b&gt;BlastP hit with LLPMBPKK_04032&lt;/b&gt;&lt;br&gt;Percentage identity: 54&lt;br&gt;Percentage coverage: 99&lt;br&gt;BLAST bit score: 309&lt;br&gt;E-value: 2.75e-103" locus_tag="OK006_RS36495" class="clusterblast-orf" id="dummy-18_h18_9_23"  />
</g>
<g id="a18_0024"  >
<polygon points="545,85 550,80 567,80 567,90 550,90 545,85 " style="fill:#15d863; stroke-width:1; stroke:black; " description="&lt;b&gt;OK006_RS36490&lt;/b&gt;&lt;br&gt;beta-ketoacyl-[acyl-carrier-protein] synthase family protein&lt;br&gt;Location: 13431 - 12190&lt;br&gt;&lt;br&gt;&lt;b&gt;BlastP hit with LLPMBPKK_04040&lt;/b&gt;&lt;br&gt;Percentage identity: 70&lt;br&gt;Percentage coverage: 97&lt;br&gt;BLAST bit score: 556&lt;br&gt;E-value: 5.85e-199" locus_tag="OK006_RS36490" class="clusterblast-orf" id="dummy-18_h18_9_24"  />
</g>
<g id="a18_0025"  >
<polygon points="570,90 582,90 587,85 582,80 570,80 570,90 " style="fill:white; stroke-width:1; stroke:black; " description="&lt;b&gt;OK006_RS36485&lt;/b&gt;&lt;br&gt;ATP-binding cassette domain-containing protein&lt;br&gt;Location: 12024 - 11038" locus_tag="OK006_RS36485" class="clusterblast-orf" id="dummy-18_h18_9_25"  />
</g>
<g id="a18_0026"  >
<polygon points="587,90 596,90 601,85 596,80 587,80 587,90 " style="fill:white; stroke-width:1; stroke:black; " description="&lt;b&gt;OK006_RS36480&lt;/b&gt;&lt;br&gt;ABC transporter permease&lt;br&gt;Location: 11041 - 10238" locus_tag="OK006_RS36480" class="clusterblast-orf" id="dummy-18_h18_9_26"  />
</g>
<g id="a18_0027"  >
<polygon points="603,85 608,80 611,80 611,90 608,90 603,85 " style="fill:white; stroke-width:1; stroke:black; " description="&lt;b&gt;OK006_RS36475&lt;/b&gt;&lt;br&gt;enediyne antibiotic chromoprotein&lt;br&gt;Location: 10109 - 9666" locus_tag="OK006_RS36475" class="clusterblast-orf" id="dummy-18_h18_9_27"  />
</g>
<g id="a18_0028"  >
<polygon points="616,90 620,85 616,80 616,90 " style="fill:white; stroke-width:1; stroke:black; " description="&lt;b&gt;OK006_RS36470&lt;/b&gt;&lt;br&gt;MbtH family protein&lt;br&gt;Location: 9355 - 9152" locus_tag="OK006_RS36470" class="clusterblast-orf" id="dummy-18_h18_9_28"  />
</g>
<g id="a18_0029"  >
<polygon points="621,90 747,90 752,85 747,80 621,80 621,90 " style="fill:white; stroke-width:1; stroke:black; " description="&lt;b&gt;OK006_RS36465&lt;/b&gt;&lt;br&gt;non-ribosomal peptide synthetase&lt;br&gt;Location: 9109 - 1577" locus_tag="OK006_RS36465" class="clusterblast-orf" id="dummy-18_h18_9_29"  />
</g>
<g id="a18_0030"  >
<polygon points="752,90 775,90 780,85 775,80 752,80 752,90 " style="fill:white; stroke-width:1; stroke:black; " description="&lt;b&gt;OK006_RS36460&lt;/b&gt;&lt;br&gt;tryptophan 7-halogenase&lt;br&gt;Location: 1569 - 1" locus_tag="OK006_RS36460" class="clusterblast-orf" id="dummy-18_h18_9_30"  />
</g>
</svg>
