<svg xmlns="http://www.w3.org/2000/svg" xmlns:xlink="http://www.w3.org/1999/xlink" version="1.1" x="0" y="0" height="230" width="800" viewBox="0 0 800 230" preserveAspectRatio="none"  >
<g label="Query sequence" class="clusterblast-cluster"  >
<text x="5" y="20" class="clusterblast-acc"  >
Query sequence</text>
<line x1="10" y1="35" x2="778.0" y2="35" style="stroke-width:1; stroke:grey; "  />
<polygon points="0,35 4,30 4,40 0,35 " style="fill:white; stroke-width:1; stroke:black; " description="&lt;b&gt;LLPMBPKK_00521&lt;/b&gt;&lt;br&gt;FMN reductase&lt;br&gt;Location: 626718 - 627333" locus_tag="LLPMBPKK_00521" class="clusterblast-orf" id="dummy-3_q0_0_all"  />
<polygon points="4,35 9,30 13,30 13,40 9,40 4,35 " style="fill:white; stroke-width:1; stroke:black; " description="&lt;b&gt;LLPMBPKK_00522&lt;/b&gt;&lt;br&gt;LLM class flavin-dependent oxidoreductase&lt;br&gt;Location: 627329 - 628415" locus_tag="LLPMBPKK_00522" class="clusterblast-orf" id="dummy-3_q1_0_all"  />
<polygon points="14,35 19,30 21,30 21,40 19,40 14,35 " style="fill:white; stroke-width:1; stroke:black; " description="&lt;b&gt;LLPMBPKK_00523&lt;/b&gt;&lt;br&gt;non-heme bromoperoxidase BPO-A2&lt;br&gt;Location: 628614 - 629451" locus_tag="LLPMBPKK_00523" class="clusterblast-orf" id="dummy-3_q2_0_all"  />
<polygon points="25,40 27,40 32,35 27,30 25,30 25,40 " style="fill:white; stroke-width:1; stroke:black; " description="&lt;b&gt;LLPMBPKK_00524&lt;/b&gt;&lt;br&gt;MerR family DNA-binding transcriptionalregulator&lt;br&gt;Location: 629924 - 630884" locus_tag="LLPMBPKK_00524" class="clusterblast-orf" id="dummy-3_q3_0_all"  />
<polygon points="33,40 33,40 38,35 33,30 33,30 33,40 " style="fill:white; stroke-width:1; stroke:black; " description="&lt;b&gt;LLPMBPKK_00525&lt;/b&gt;&lt;br&gt;transcriptional regulator&lt;br&gt;Location: 630968 - 631613" locus_tag="LLPMBPKK_00525" class="clusterblast-orf" id="dummy-3_q4_0_all"  />
<polygon points="40,40 44,35 40,30 40,40 " style="fill:white; stroke-width:1; stroke:black; " description="&lt;b&gt;LLPMBPKK_00526&lt;/b&gt;&lt;br&gt;hypothetical protein&lt;br&gt;Location: 631916 - 632405" locus_tag="LLPMBPKK_00526" class="clusterblast-orf" id="dummy-3_q5_0_all"  />
<polygon points="45,40 45,40 50,35 45,30 45,30 45,40 " style="fill:white; stroke-width:1; stroke:black; " description="&lt;b&gt;LLPMBPKK_00527&lt;/b&gt;&lt;br&gt;class F sortase&lt;br&gt;Location: 632574 - 633225" locus_tag="LLPMBPKK_00527" class="clusterblast-orf" id="dummy-3_q6_0_all"  />
<polygon points="52,40 79,40 84,35 79,30 52,30 52,40 " style="fill:white; stroke-width:1; stroke:black; " description="&lt;b&gt;LLPMBPKK_00528&lt;/b&gt;&lt;br&gt;hypothetical protein&lt;br&gt;Location: 633383 - 637448" locus_tag="LLPMBPKK_00528" class="clusterblast-orf" id="dummy-3_q7_0_all"  />
<polygon points="85,40 87,35 85,30 85,40 " style="fill:white; stroke-width:1; stroke:black; " description="&lt;b&gt;LLPMBPKK_00529&lt;/b&gt;&lt;br&gt;hypothetical protein&lt;br&gt;Location: 637581 - 637950" locus_tag="LLPMBPKK_00529" class="clusterblast-orf" id="dummy-3_q8_0_all"  />
<polygon points="90,40 90,40 95,35 90,30 90,30 90,40 " style="fill:white; stroke-width:1; stroke:black; " description="&lt;b&gt;LLPMBPKK_00530&lt;/b&gt;&lt;br&gt;hypothetical protein&lt;br&gt;Location: 638304 - 638916" locus_tag="LLPMBPKK_00530" class="clusterblast-orf" id="dummy-3_q9_0_all"  />
<polygon points="96,35 101,30 115,30 115,40 101,40 96,35 " style="fill:white; stroke-width:1; stroke:black; " description="&lt;b&gt;LLPMBPKK_00531&lt;/b&gt;&lt;br&gt;glycoside hydrolase family 65 protein&lt;br&gt;Location: 639041 - 641441" locus_tag="LLPMBPKK_00531" class="clusterblast-orf" id="dummy-3_q10_0_all"  />
<polygon points="115,35 120,30 121,30 121,40 120,40 115,35 " style="fill:white; stroke-width:1; stroke:black; " description="&lt;b&gt;LLPMBPKK_00532&lt;/b&gt;&lt;br&gt;hydrolase&lt;br&gt;Location: 641437 - 642181" locus_tag="LLPMBPKK_00532" class="clusterblast-orf" id="dummy-3_q11_0_all"  />
<polygon points="124,35 129,30 131,30 131,40 129,40 124,35 " style="fill:white; stroke-width:1; stroke:black; " description="&lt;b&gt;LLPMBPKK_00533&lt;/b&gt;&lt;br&gt;hypothetical protein&lt;br&gt;Location: 642596 - 643553" locus_tag="LLPMBPKK_00533" class="clusterblast-orf" id="dummy-3_q12_0_all"  />
<polygon points="133,40 134,40 139,35 134,30 133,30 133,40 " style="fill:white; stroke-width:1; stroke:black; " description="&lt;b&gt;LLPMBPKK_00534&lt;/b&gt;&lt;br&gt;lipoprotein&lt;br&gt;Location: 643768 - 644509" locus_tag="LLPMBPKK_00534" class="clusterblast-orf" id="dummy-3_q13_0_all"  />
<polygon points="140,35 145,30 149,30 149,40 145,40 140,35 " style="fill:white; stroke-width:1; stroke:black; " description="&lt;b&gt;LLPMBPKK_00535&lt;/b&gt;&lt;br&gt;oxidoreductase&lt;br&gt;Location: 644721 - 645858" locus_tag="LLPMBPKK_00535" class="clusterblast-orf" id="dummy-3_q14_0_all"  />
<polygon points="151,40 154,35 151,30 151,40 " style="fill:white; stroke-width:1; stroke:black; " description="&lt;b&gt;LLPMBPKK_00536&lt;/b&gt;&lt;br&gt;hypothetical protein&lt;br&gt;Location: 646074 - 646482" locus_tag="LLPMBPKK_00536" class="clusterblast-orf" id="dummy-3_q15_0_all"  />
<polygon points="155,35 160,30 170,30 170,40 160,40 155,35 " style="fill:#d81515; stroke-width:1; stroke:black; " description="&lt;b&gt;LLPMBPKK_00537&lt;/b&gt;&lt;br&gt;ACP S-malonyltransferase&lt;br&gt;Location: 646632 - 648510" locus_tag="LLPMBPKK_00537" class="clusterblast-orf" id="dummy-3_q16_0_all"  />
<polygon points="170,35 175,30 188,30 188,40 175,40 170,35 " style="fill:#d81515; stroke-width:1; stroke:black; " description="&lt;b&gt;LLPMBPKK_00538&lt;/b&gt;&lt;br&gt;1,4-dihydroxy-2-naphthoyl-CoA synthase&lt;br&gt;Location: 648514 - 650752" locus_tag="LLPMBPKK_00538" class="clusterblast-orf" id="dummy-3_q17_0_all"  />
<polygon points="187,35 192,30 197,30 197,40 192,40 187,35 " style="fill:#15d863; stroke-width:1; stroke:black; " description="&lt;b&gt;LLPMBPKK_00539&lt;/b&gt;&lt;br&gt;Polyketide biosynthesis3-hydroxy-3-methylglutaryl-ACP synthase PksG&lt;br&gt;Location: 650739 - 652002" locus_tag="LLPMBPKK_00539" class="clusterblast-orf" id="dummy-3_q18_0_all"  />
<polygon points="197,35 202,30 207,30 207,40 202,40 197,35 " style="fill:#1563d8; stroke-width:1; stroke:black; " description="&lt;b&gt;LLPMBPKK_00540&lt;/b&gt;&lt;br&gt;3-oxoacyl-ACP synthase&lt;br&gt;Location: 652007 - 653243" locus_tag="LLPMBPKK_00540" class="clusterblast-orf" id="dummy-3_q19_0_all"  />
<polygon points="207,35 209,30 209,40 207,35 " style="fill:#b115d8; stroke-width:1; stroke:black; " description="&lt;b&gt;LLPMBPKK_00541&lt;/b&gt;&lt;br&gt;Polyketide biosynthesis acyl-carrier-proteinAcpK&lt;br&gt;Location: 653244 - 653508" locus_tag="LLPMBPKK_00541" class="clusterblast-orf" id="dummy-3_q20_0_all"  />
<polygon points="209,35 214,30 281,30 281,40 214,40 209,35 " style="fill:white; stroke-width:1; stroke:black; " description="&lt;b&gt;LLPMBPKK_00542&lt;/b&gt;&lt;br&gt;D-alanine--poly(phosphoribitol) ligase subunit 1&lt;br&gt;Location: 653546 - 662720" locus_tag="LLPMBPKK_00542" class="clusterblast-orf" id="dummy-3_q21_0_all"  />
<polygon points="281,35 286,30 341,30 341,40 286,40 281,35 " style="fill:white; stroke-width:1; stroke:black; " description="&lt;b&gt;LLPMBPKK_00543&lt;/b&gt;&lt;br&gt;non-ribosomal peptide synthetase&lt;br&gt;Location: 662716 - 670306" locus_tag="LLPMBPKK_00543" class="clusterblast-orf" id="dummy-3_q22_0_all"  />
<polygon points="340,35 345,30 453,30 453,40 345,40 340,35 " style="fill:white; stroke-width:1; stroke:black; " description="&lt;b&gt;LLPMBPKK_00544&lt;/b&gt;&lt;br&gt;Acyl carrier protein&lt;br&gt;Location: 670302 - 684732" locus_tag="LLPMBPKK_00544" class="clusterblast-orf" id="dummy-3_q23_0_all"  />
<polygon points="453,35 458,30 627,30 627,40 458,40 453,35 " style="fill:white; stroke-width:1; stroke:black; " description="&lt;b&gt;LLPMBPKK_00545&lt;/b&gt;&lt;br&gt;D-alanine--poly(phosphoribitol) ligase subunit 1&lt;br&gt;Location: 684728 - 706898" locus_tag="LLPMBPKK_00545" class="clusterblast-orf" id="dummy-3_q24_0_all"  />
<polygon points="628,35 633,30 672,30 672,40 633,40 628,35 " style="fill:white; stroke-width:1; stroke:black; " description="&lt;b&gt;LLPMBPKK_00546&lt;/b&gt;&lt;br&gt;hypothetical protein&lt;br&gt;Location: 707071 - 712630" locus_tag="LLPMBPKK_00546" class="clusterblast-orf" id="dummy-3_q25_0_all"  />
<polygon points="671,35 676,30 741,30 741,40 676,40 671,35 " style="fill:white; stroke-width:1; stroke:black; " description="&lt;b&gt;LLPMBPKK_00547&lt;/b&gt;&lt;br&gt;hypothetical protein&lt;br&gt;Location: 712613 - 721484" locus_tag="LLPMBPKK_00547" class="clusterblast-orf" id="dummy-3_q26_0_all"  />
<polygon points="743,40 745,40 750,35 745,30 743,30 743,40 " style="fill:white; stroke-width:1; stroke:black; " description="&lt;b&gt;LLPMBPKK_00548&lt;/b&gt;&lt;br&gt;thioesterase&lt;br&gt;Location: 721801 - 722650" locus_tag="LLPMBPKK_00548" class="clusterblast-orf" id="dummy-3_q27_0_all"  />
<polygon points="751,40 757,40 762,35 757,30 751,30 751,40 " style="fill:white; stroke-width:1; stroke:black; " description="&lt;b&gt;LLPMBPKK_00549&lt;/b&gt;&lt;br&gt;amidase&lt;br&gt;Location: 722786 - 724211" locus_tag="LLPMBPKK_00549" class="clusterblast-orf" id="dummy-3_q28_0_all"  />
<polygon points="764,40 769,40 774,35 769,30 764,30 764,40 " style="fill:white; stroke-width:1; stroke:black; " description="&lt;b&gt;LLPMBPKK_00550&lt;/b&gt;&lt;br&gt;Pentapeptide repeats (8 copies)&lt;br&gt;Location: 724442 - 725738" locus_tag="LLPMBPKK_00550" class="clusterblast-orf" id="dummy-3_q29_0_all"  />
<polygon points="774,35 779,30 780,30 780,40 779,40 774,35 " style="fill:#b1d815; stroke-width:1; stroke:black; " description="&lt;b&gt;LLPMBPKK_00551&lt;/b&gt;&lt;br&gt;4'-phosphopantetheinyl transferase superfamilyprotein&lt;br&gt;Location: 725715 - 726438" locus_tag="LLPMBPKK_00551" class="clusterblast-orf" id="dummy-3_q30_0_all"  />
</g>
<g label="BGC0002055" description="BGC0002055_c1: mycalamide A (25% of genes show similarity), NRP+Polyketide:Trans-AT type I polyketide" class="clusterblast-cluster"  >
<text x="5" y="70" class="clusterblast-acc"  >
<a xlink:href="https://mibig.secondarymetabolites.org/go/BGC0002055/1" target="_blank">BGC0002055</a>:                                                                     mycalamide A (25% of genes show similarity), NRP+Polyketide:Trans-AT type I polyketide</text>
<line x1="10" y1="85" x2="778.0" y2="85" style="stroke-width:1; stroke:grey; "  />
</g>
<g id="a3_000"  >
<polygon points="51,85 56,80 214,80 214,90 56,90 51,85 " style="fill:white; stroke-width:1; stroke:black; " description="&lt;b&gt;mycH&lt;/b&gt;&lt;br&gt;polyketide synthase&lt;br&gt;Location: 1 - 20757" locus_tag="mycH" class="clusterblast-orf" id="dummy-3_h3_2_0"  />
</g>
<g id="a3_001"  >
<polygon points="214,85 219,80 224,80 224,90 219,90 214,85 " style="fill:white; stroke-width:1; stroke:black; " description="&lt;b&gt;mycG&lt;/b&gt;&lt;br&gt;mono-oxygenase&lt;br&gt;Location: 20770 - 22071" locus_tag="mycG" class="clusterblast-orf" id="dummy-3_h3_2_1"  />
</g>
<g id="a3_002"  >
<polygon points="225,85 230,80 441,80 441,90 230,90 225,85 " style="fill:white; stroke-width:1; stroke:black; " description="&lt;b&gt;mycF&lt;/b&gt;&lt;br&gt;polyketide synthase&lt;br&gt;Location: 22132 - 49857" locus_tag="mycF" class="clusterblast-orf" id="dummy-3_h3_2_2"  />
</g>
<g id="a3_003"  >
<polygon points="443,85 448,80 449,80 449,90 448,90 443,85 " style="fill:white; stroke-width:1; stroke:black; " description="&lt;b&gt;mycE&lt;/b&gt;&lt;br&gt;methyltransferase&lt;br&gt;Location: 50070 - 50879" locus_tag="mycE" class="clusterblast-orf" id="dummy-3_h3_2_3"  />
</g>
<g id="a3_004"  >
<polygon points="450,85 455,80 458,80 458,90 455,90 450,85 " style="fill:white; stroke-width:1; stroke:black; " description="&lt;b&gt;mycK2&lt;/b&gt;&lt;br&gt;&lt;br&gt;Location: 50970 - 51989" locus_tag="mycK2" class="clusterblast-orf" id="dummy-3_h3_2_4"  />
</g>
<g id="a3_005"  >
<polygon points="460,85 465,80 466,80 466,90 465,90 460,85 " style="fill:white; stroke-width:1; stroke:black; " description="&lt;b&gt;mycT&lt;/b&gt;&lt;br&gt;di-oxygenase&lt;br&gt;Location: 52236 - 52964" locus_tag="mycT" class="clusterblast-orf" id="dummy-3_h3_2_5"  />
</g>
<g id="a3_006"  >
<polygon points="466,85 471,80 474,80 474,90 471,90 466,85 " style="fill:white; stroke-width:1; stroke:black; " description="&lt;b&gt;mycA&lt;/b&gt;&lt;br&gt;methyltransferase&lt;br&gt;Location: 53009 - 54055" locus_tag="mycA" class="clusterblast-orf" id="dummy-3_h3_2_6"  />
</g>
<g id="a3_007"  >
<polygon points="475,90 479,90 484,85 479,80 475,80 475,90 " style="fill:white; stroke-width:1; stroke:black; " description="&lt;b&gt;mycK1&lt;/b&gt;&lt;br&gt;&lt;br&gt;Location: 54207 - 55244" locus_tag="mycK1" class="clusterblast-orf" id="dummy-3_h3_2_7"  />
</g>
<g id="a3_008"  >
<polygon points="486,85 491,80 495,80 495,90 491,90 486,85 " style="fill:white; stroke-width:1; stroke:black; " description="&lt;b&gt;mycJ&lt;/b&gt;&lt;br&gt;mono-oxygenase&lt;br&gt;Location: 55575 - 56702" locus_tag="mycJ" class="clusterblast-orf" id="dummy-3_h3_2_8"  />
</g>
<g id="a3_009"  >
<polygon points="495,85 500,80 632,80 632,90 500,90 495,85 " style="fill:white; stroke-width:1; stroke:black; " description="&lt;b&gt;mycI&lt;/b&gt;&lt;br&gt;polyketide synthase&lt;br&gt;Location: 56713 - 74160" locus_tag="mycI" class="clusterblast-orf" id="dummy-3_h3_2_9"  />
</g>
<g id="a3_0010"  >
<polygon points="632,85 637,80 643,80 643,90 637,90 632,85 " style="fill:#d81515; stroke-width:1; stroke:black; " description="&lt;b&gt;mycB&lt;/b&gt;&lt;br&gt;enoyl reductase&lt;br&gt;Location: 74210 - 75568&lt;br&gt;&lt;br&gt;&lt;b&gt;BlastP hit with LLPMBPKK_00538&lt;/b&gt;&lt;br&gt;Percentage identity: 50&lt;br&gt;Percentage coverage: 59&lt;br&gt;BLAST bit score: 441&lt;br&gt;E-value: 1.91e-148" locus_tag="mycB" class="clusterblast-orf" id="dummy-3_h3_2_10"  />
</g>
<g id="a3_0011"  >
<polygon points="646,90 650,90 655,85 650,80 646,80 646,90 " style="fill:#d81515; stroke-width:1; stroke:black; " description="&lt;b&gt;mycD&lt;/b&gt;&lt;br&gt;acyltransferase&lt;br&gt;Location: 76057 - 77184&lt;br&gt;&lt;br&gt;&lt;b&gt;BlastP hit with LLPMBPKK_00537&lt;/b&gt;&lt;br&gt;Percentage identity: 46&lt;br&gt;Percentage coverage: 45&lt;br&gt;BLAST bit score: 246&lt;br&gt;E-value: 1.34e-75" locus_tag="mycD" class="clusterblast-orf" id="dummy-3_h3_2_11"  />
</g>
<g id="a3_0012"  >
<polygon points="658,90 660,90 665,85 660,80 658,80 658,90 " style="fill:white; stroke-width:1; stroke:black; " description="&lt;b&gt;mycS&lt;/b&gt;&lt;br&gt;&lt;br&gt;Location: 77533 - 78402" locus_tag="mycS" class="clusterblast-orf" id="dummy-3_h3_2_12"  />
</g>
<g id="a3_0013"  >
<polygon points="669,90 677,90 682,85 677,80 669,80 669,90 " style="fill:white; stroke-width:1; stroke:black; " description="&lt;b&gt;mycR&lt;/b&gt;&lt;br&gt;transporter&lt;br&gt;Location: 78919 - 80580" locus_tag="mycR" class="clusterblast-orf" id="dummy-3_h3_2_13"  />
</g>
<g id="a3_0014"  >
<polygon points="682,90 685,90 690,85 685,80 682,80 682,90 " style="fill:white; stroke-width:1; stroke:black; " description="&lt;b&gt;mycQ&lt;/b&gt;&lt;br&gt;&lt;br&gt;Location: 80577 - 81617" locus_tag="mycQ" class="clusterblast-orf" id="dummy-3_h3_2_14"  />
</g>
<g id="a3_0015"  >
<polygon points="691,85 696,80 699,80 699,90 696,90 691,85 " style="fill:white; stroke-width:1; stroke:black; " description="&lt;b&gt;mycC&lt;/b&gt;&lt;br&gt;acyltransferase&lt;br&gt;Location: 81749 - 82753" locus_tag="mycC" class="clusterblast-orf" id="dummy-3_h3_2_15"  />
</g>
<g id="a3_0016"  >
<polygon points="700,85 705,80 706,80 706,90 705,90 700,85 " style="fill:white; stroke-width:1; stroke:black; " description="&lt;b&gt;mycL&lt;/b&gt;&lt;br&gt;enoyl-CoA hydratase&lt;br&gt;Location: 82852 - 83634" locus_tag="mycL" class="clusterblast-orf" id="dummy-3_h3_2_16"  />
</g>
<g id="a3_0017"  >
<polygon points="706,85 711,80 716,80 716,90 711,90 706,85 " style="fill:#15d863; stroke-width:1; stroke:black; " description="&lt;b&gt;mycP&lt;/b&gt;&lt;br&gt;3-hydroxy-3-methylglutaryl-CoA synthase&lt;br&gt;Location: 83631 - 84896&lt;br&gt;&lt;br&gt;&lt;b&gt;BlastP hit with LLPMBPKK_00539&lt;/b&gt;&lt;br&gt;Percentage identity: 65&lt;br&gt;Percentage coverage: 99&lt;br&gt;BLAST bit score: 567&lt;br&gt;E-value: 4.29e-203" locus_tag="mycP" class="clusterblast-orf" id="dummy-3_h3_2_17"  />
</g>
<g id="a3_0018"  >
<polygon points="716,85 721,80 726,80 726,90 721,90 716,85 " style="fill:#1563d8; stroke-width:1; stroke:black; " description="&lt;b&gt;mycM&lt;/b&gt;&lt;br&gt;ketosynthase&lt;br&gt;Location: 84955 - 86202&lt;br&gt;&lt;br&gt;&lt;b&gt;BlastP hit with LLPMBPKK_00540&lt;/b&gt;&lt;br&gt;Percentage identity: 52&lt;br&gt;Percentage coverage: 98&lt;br&gt;BLAST bit score: 415&lt;br&gt;E-value: 1.6e-143" locus_tag="mycM" class="clusterblast-orf" id="dummy-3_h3_2_18"  />
</g>
<g id="a3_0019"  >
<polygon points="726,85 728,80 728,90 726,85 " style="fill:#b115d8; stroke-width:1; stroke:black; " description="&lt;b&gt;mycN&lt;/b&gt;&lt;br&gt;acyl carrier protein&lt;br&gt;Location: 86189 - 86428&lt;br&gt;&lt;br&gt;&lt;b&gt;BlastP hit with LLPMBPKK_00541&lt;/b&gt;&lt;br&gt;Percentage identity: 54&lt;br&gt;Percentage coverage: 90&lt;br&gt;BLAST bit score: 82&lt;br&gt;E-value: 4.76e-22" locus_tag="mycN" class="clusterblast-orf" id="dummy-3_h3_2_19"  />
</g>
</svg>
