<svg xmlns="http://www.w3.org/2000/svg" xmlns:xlink="http://www.w3.org/1999/xlink" version="1.1" x="0" y="0" height="230" width="800" viewBox="0 0 800 230" preserveAspectRatio="none"  >
<g label="Query sequence" class="clusterblast-cluster"  >
<text x="5" y="20" class="clusterblast-acc"  >
Query sequence</text>
<line x1="10" y1="35" x2="778.0" y2="35" style="stroke-width:1; stroke:grey; "  />
<polygon points="260,35 265,30 265,30 265,40 265,40 260,35 " style="fill:white; stroke-width:1; stroke:black; " description="&lt;b&gt;LLPMBPKK_06036&lt;/b&gt;&lt;br&gt;regulator&lt;br&gt;Location: 6961541 - 6962354" locus_tag="LLPMBPKK_06036" class="clusterblast-orf" id="dummy-24_q0_0_all"  />
<polygon points="265,35 270,30 275,30 275,40 270,40 265,35 " style="fill:white; stroke-width:1; stroke:black; " description="&lt;b&gt;LLPMBPKK_06037&lt;/b&gt;&lt;br&gt;fatty acid-CoA ligase&lt;br&gt;Location: 6962369 - 6963962" locus_tag="LLPMBPKK_06037" class="clusterblast-orf" id="dummy-24_q1_0_all"  />
<polygon points="276,40 279,40 284,35 279,30 276,30 276,40 " style="fill:#d81515; stroke-width:1; stroke:black; " description="&lt;b&gt;LLPMBPKK_06038&lt;/b&gt;&lt;br&gt;acyl-CoA dehydrogenase&lt;br&gt;Location: 6964166 - 6965297" locus_tag="LLPMBPKK_06038" class="clusterblast-orf" id="dummy-24_q2_0_all"  />
<polygon points="284,40 286,35 284,30 284,40 " style="fill:#77d815; stroke-width:1; stroke:black; " description="&lt;b&gt;LLPMBPKK_06039&lt;/b&gt;&lt;br&gt;RidA family protein&lt;br&gt;Location: 6965293 - 6965692" locus_tag="LLPMBPKK_06039" class="clusterblast-orf" id="dummy-24_q3_0_all"  />
<polygon points="287,40 290,35 287,30 287,40 " style="fill:#15d8d8; stroke-width:1; stroke:black; " description="&lt;b&gt;LLPMBPKK_06040&lt;/b&gt;&lt;br&gt;hypothetical protein&lt;br&gt;Location: 6965837 - 6966263" locus_tag="LLPMBPKK_06040" class="clusterblast-orf" id="dummy-24_q4_0_all"  />
<polygon points="290,35 295,30 295,30 295,40 295,40 290,35 " style="fill:white; stroke-width:1; stroke:black; " description="&lt;b&gt;LLPMBPKK_06041&lt;/b&gt;&lt;br&gt;GntR family transcriptional regulator&lt;br&gt;Location: 6966249 - 6967074" locus_tag="LLPMBPKK_06041" class="clusterblast-orf" id="dummy-24_q5_0_all"  />
<polygon points="297,40 300,40 305,35 300,30 297,30 297,40 " style="fill:white; stroke-width:1; stroke:black; " description="&lt;b&gt;LLPMBPKK_06042&lt;/b&gt;&lt;br&gt;extracellular solute-binding protein&lt;br&gt;Location: 6967376 - 6968654" locus_tag="LLPMBPKK_06042" class="clusterblast-orf" id="dummy-24_q6_0_all"  />
<polygon points="306,40 307,40 312,35 307,30 306,30 306,40 " style="fill:white; stroke-width:1; stroke:black; " description="&lt;b&gt;LLPMBPKK_06043&lt;/b&gt;&lt;br&gt;sugar ABC transporter permease&lt;br&gt;Location: 6968732 - 6969731" locus_tag="LLPMBPKK_06043" class="clusterblast-orf" id="dummy-24_q7_0_all"  />
<polygon points="312,40 312,40 317,35 312,30 312,30 312,40 " style="fill:white; stroke-width:1; stroke:black; " description="&lt;b&gt;LLPMBPKK_06044&lt;/b&gt;&lt;br&gt;carbohydrate ABC transporter permease&lt;br&gt;Location: 6969727 - 6970558" locus_tag="LLPMBPKK_06044" class="clusterblast-orf" id="dummy-24_q8_0_all"  />
<polygon points="317,40 322,40 327,35 322,30 317,30 317,40 " style="fill:#7715d8; stroke-width:1; stroke:black; " description="&lt;b&gt;LLPMBPKK_06045&lt;/b&gt;&lt;br&gt;glycoside hydrolase family 3 protein&lt;br&gt;Location: 6970554 - 6972078" locus_tag="LLPMBPKK_06045" class="clusterblast-orf" id="dummy-24_q9_0_all"  />
<polygon points="328,40 330,40 335,35 330,30 328,30 328,40 " style="fill:#d87715; stroke-width:1; stroke:black; " description="&lt;b&gt;LLPMBPKK_06046&lt;/b&gt;&lt;br&gt;phytanoyl-CoA dioxygenase&lt;br&gt;Location: 6972182 - 6973214" locus_tag="LLPMBPKK_06046" class="clusterblast-orf" id="dummy-24_q10_0_all"  />
<polygon points="335,40 338,40 343,35 338,30 335,30 335,40 " style="fill:#15d815; stroke-width:1; stroke:black; " description="&lt;b&gt;LLPMBPKK_06047&lt;/b&gt;&lt;br&gt;hypothetical protein&lt;br&gt;Location: 6973210 - 6974500" locus_tag="LLPMBPKK_06047" class="clusterblast-orf" id="dummy-24_q11_0_all"  />
<polygon points="343,40 345,40 350,35 345,30 343,30 343,40 " style="fill:#1577d8; stroke-width:1; stroke:black; " description="&lt;b&gt;LLPMBPKK_06048&lt;/b&gt;&lt;br&gt;lysine/ornithine decarboxylase&lt;br&gt;Location: 6974496 - 6975660" locus_tag="LLPMBPKK_06048" class="clusterblast-orf" id="dummy-24_q12_0_all"  />
<polygon points="353,40 356,40 361,35 356,30 353,30 353,40 " style="fill:#d815d8; stroke-width:1; stroke:black; " description="&lt;b&gt;LLPMBPKK_06049&lt;/b&gt;&lt;br&gt;MFS transporter&lt;br&gt;Location: 6976160 - 6977330" locus_tag="LLPMBPKK_06049" class="clusterblast-orf" id="dummy-24_q13_0_all"  />
<polygon points="361,35 366,30 368,30 368,40 366,40 361,35 " style="fill:#d8d815; stroke-width:1; stroke:black; " description="&lt;b&gt;LLPMBPKK_06050&lt;/b&gt;&lt;br&gt;2,3-diaminopropionate biosynthesis protein SbnA&lt;br&gt;Location: 6977345 - 6978368" locus_tag="LLPMBPKK_06050" class="clusterblast-orf" id="dummy-24_q14_0_all"  />
<polygon points="368,35 373,30 375,30 375,40 373,40 368,35 " style="fill:#15d877; stroke-width:1; stroke:black; " description="&lt;b&gt;LLPMBPKK_06051&lt;/b&gt;&lt;br&gt;2,3-diaminopropionate biosynthesis protein SbnB&lt;br&gt;Location: 6978404 - 6979475" locus_tag="LLPMBPKK_06051" class="clusterblast-orf" id="dummy-24_q15_0_all"  />
<polygon points="375,35 380,30 381,30 381,40 380,40 375,35 " style="fill:#1515d8; stroke-width:1; stroke:black; " description="&lt;b&gt;LLPMBPKK_06052&lt;/b&gt;&lt;br&gt;TauD/TfdA family dioxygenase&lt;br&gt;Location: 6979471 - 6980476" locus_tag="LLPMBPKK_06052" class="clusterblast-orf" id="dummy-24_q16_0_all"  />
<polygon points="381,35 386,30 402,30 402,40 386,40 381,35 " style="fill:#1515d8; stroke-width:1; stroke:black; " description="&lt;b&gt;LLPMBPKK_06053&lt;/b&gt;&lt;br&gt;amino acid adenylation domain-containing protein&lt;br&gt;Location: 6980520 - 6983772" locus_tag="LLPMBPKK_06053" class="clusterblast-orf" id="dummy-24_q17_0_all"  />
<polygon points="402,35 407,30 416,30 416,40 407,40 402,35 " style="fill:white; stroke-width:1; stroke:black; " description="&lt;b&gt;LLPMBPKK_06054&lt;/b&gt;&lt;br&gt;NRPS protein&lt;br&gt;Location: 6983785 - 6985963" locus_tag="LLPMBPKK_06054" class="clusterblast-orf" id="dummy-24_q18_0_all"  />
<polygon points="420,35 425,30 427,30 427,40 425,40 420,35 " style="fill:#d81577; stroke-width:1; stroke:black; " description="&lt;b&gt;LLPMBPKK_06055&lt;/b&gt;&lt;br&gt;dTDP-glucose 4,6-dehydratase&lt;br&gt;Location: 6986554 - 6987574" locus_tag="LLPMBPKK_06055" class="clusterblast-orf" id="dummy-24_q19_0_all"  />
<polygon points="428,35 433,30 438,30 438,40 433,40 428,35 " style="fill:white; stroke-width:1; stroke:black; " description="&lt;b&gt;LLPMBPKK_06056&lt;/b&gt;&lt;br&gt;UDP-N-acetylglucosamine1-carboxyvinyltransferase&lt;br&gt;Location: 6987749 - 6989279" locus_tag="LLPMBPKK_06056" class="clusterblast-orf" id="dummy-24_q20_0_all"  />
<polygon points="439,40 439,40 444,35 439,30 439,30 439,40 " style="fill:white; stroke-width:1; stroke:black; " description="&lt;b&gt;LLPMBPKK_06057&lt;/b&gt;&lt;br&gt;hypothetical protein&lt;br&gt;Location: 6989484 - 6990201" locus_tag="LLPMBPKK_06057" class="clusterblast-orf" id="dummy-24_q21_0_all"  />
<polygon points="445,40 457,40 462,35 457,30 445,30 445,40 " style="fill:white; stroke-width:1; stroke:black; " description="&lt;b&gt;LLPMBPKK_06058&lt;/b&gt;&lt;br&gt;aconitate hydratase AcnA&lt;br&gt;Location: 6990422 - 6993140" locus_tag="LLPMBPKK_06058" class="clusterblast-orf" id="dummy-24_q22_0_all"  />
<polygon points="463,35 468,30 481,30 481,40 468,40 463,35 " style="fill:white; stroke-width:1; stroke:black; " description="&lt;b&gt;LLPMBPKK_06059&lt;/b&gt;&lt;br&gt;GAF domain-containing protein&lt;br&gt;Location: 6993277 - 6995971" locus_tag="LLPMBPKK_06059" class="clusterblast-orf" id="dummy-24_q23_0_all"  />
<polygon points="481,35 486,30 493,30 493,40 486,40 481,35 " style="fill:white; stroke-width:1; stroke:black; " description="&lt;b&gt;LLPMBPKK_06060&lt;/b&gt;&lt;br&gt;molecular chaperone DnaK&lt;br&gt;Location: 6996080 - 6997961" locus_tag="LLPMBPKK_06060" class="clusterblast-orf" id="dummy-24_q24_0_all"  />
<polygon points="499,40 515,40 520,35 515,30 499,30 499,40 " style="fill:white; stroke-width:1; stroke:black; " description="&lt;b&gt;LLPMBPKK_06061&lt;/b&gt;&lt;br&gt;glycoside hydrolase family 92 protein&lt;br&gt;Location: 6998760 - 7002030" locus_tag="LLPMBPKK_06061" class="clusterblast-orf" id="dummy-24_q25_0_all"  />
</g>
<g label="BGC0002430" description="BGC0002430_c1: gausemycin A/gausemycin B (2% of genes show similarity), NRP+Saccharide" class="clusterblast-cluster"  >
<text x="5" y="70" class="clusterblast-acc"  >
<a xlink:href="https://mibig.secondarymetabolites.org/go/BGC0002430/1" target="_blank">BGC0002430</a>:                                                        gausemycin A/gausemycin B (2% of genes show similarity), NRP+Saccharide</text>
<line x1="10" y1="85" x2="778.0" y2="85" style="stroke-width:1; stroke:grey; "  />
</g>
<g id="a24_000"  >
<polygon points="0,90 2,90 7,85 2,80 0,80 0,90 " style="fill:white; stroke-width:1; stroke:black; " description="&lt;b&gt;QWT72257.1&lt;/b&gt;&lt;br&gt;calcineurin&lt;br&gt;Location: 1 - 1215" locus_tag="QWT72257.1" class="clusterblast-orf" id="dummy-24_h24_7_0"  />
</g>
<g id="a24_001"  >
<polygon points="7,85 12,80 14,80 14,90 12,90 7,85 " style="fill:white; stroke-width:1; stroke:black; " description="&lt;b&gt;QWT72258.1&lt;/b&gt;&lt;br&gt;alcohol dehydrogenase&lt;br&gt;Location: 1208 - 2257" locus_tag="QWT72258.1" class="clusterblast-orf" id="dummy-24_h24_7_1"  />
</g>
<g id="a24_002"  >
<polygon points="15,90 16,90 21,85 16,80 15,80 15,90 " style="fill:white; stroke-width:1; stroke:black; " description="&lt;b&gt;QWT72259.1&lt;/b&gt;&lt;br&gt;hypothetical protein&lt;br&gt;Location: 2422 - 3342" locus_tag="QWT72259.1" class="clusterblast-orf" id="dummy-24_h24_7_2"  />
</g>
<g id="a24_003"  >
<polygon points="21,90 22,90 27,85 22,80 21,80 21,90 " style="fill:white; stroke-width:1; stroke:black; " description="&lt;b&gt;QWT72260.1&lt;/b&gt;&lt;br&gt;Ku protein&lt;br&gt;Location: 3342 - 4274" locus_tag="QWT72260.1" class="clusterblast-orf" id="dummy-24_h24_7_3"  />
</g>
<g id="a24_004"  >
<polygon points="28,85 30,80 30,90 28,85 " style="fill:white; stroke-width:1; stroke:black; " description="&lt;b&gt;QWT72261.1&lt;/b&gt;&lt;br&gt;hypothetical protein&lt;br&gt;Location: 4366 - 4692" locus_tag="QWT72261.1" class="clusterblast-orf" id="dummy-24_h24_7_4"  />
</g>
<g id="a24_005"  >
<polygon points="30,85 35,80 37,80 37,90 35,90 30,85 " style="fill:white; stroke-width:1; stroke:black; " description="&lt;b&gt;QWT72262.1&lt;/b&gt;&lt;br&gt;SDR family oxidoreductase&lt;br&gt;Location: 4759 - 5772" locus_tag="QWT72262.1" class="clusterblast-orf" id="dummy-24_h24_7_5"  />
</g>
<g id="a24_006"  >
<polygon points="37,85 42,80 45,80 45,90 42,90 37,85 " style="fill:white; stroke-width:1; stroke:black; " description="&lt;b&gt;QWT72263.1&lt;/b&gt;&lt;br&gt;Zn-dependent alcohol dehydrogenase&lt;br&gt;Location: 5833 - 7017" locus_tag="QWT72263.1" class="clusterblast-orf" id="dummy-24_h24_7_6"  />
</g>
<g id="a24_007"  >
<polygon points="47,85 48,80 48,90 47,85 " style="fill:white; stroke-width:1; stroke:black; " description="&lt;b&gt;QWT72264.1&lt;/b&gt;&lt;br&gt;CsbD family protein&lt;br&gt;Location: 7341 - 7514" locus_tag="QWT72264.1" class="clusterblast-orf" id="dummy-24_h24_7_7"  />
</g>
<g id="a24_008"  >
<polygon points="49,85 54,80 55,80 55,90 54,90 49,85 " style="fill:white; stroke-width:1; stroke:black; " description="&lt;b&gt;QWT72265.1&lt;/b&gt;&lt;br&gt;hypothetical protein&lt;br&gt;Location: 7668 - 8651" locus_tag="QWT72265.1" class="clusterblast-orf" id="dummy-24_h24_7_8"  />
</g>
<g id="a24_009"  >
<polygon points="56,85 61,80 62,80 62,90 61,90 56,85 " style="fill:white; stroke-width:1; stroke:black; " description="&lt;b&gt;QWT72266.1&lt;/b&gt;&lt;br&gt;SDR family oxidoreductase&lt;br&gt;Location: 8815 - 9786" locus_tag="QWT72266.1" class="clusterblast-orf" id="dummy-24_h24_7_9"  />
</g>
<g id="a24_0010"  >
<polygon points="64,90 67,90 72,85 67,80 64,80 64,90 " style="fill:white; stroke-width:1; stroke:black; " description="&lt;b&gt;QWT72267.1&lt;/b&gt;&lt;br&gt;acyl-CoA dehydrogenase&lt;br&gt;Location: 10116 - 11279" locus_tag="QWT72267.1" class="clusterblast-orf" id="dummy-24_h24_7_10"  />
</g>
<g id="a24_0011"  >
<polygon points="72,85 77,80 78,80 78,90 77,90 72,85 " style="fill:white; stroke-width:1; stroke:black; " description="&lt;b&gt;QWT72268.1&lt;/b&gt;&lt;br&gt;hypothetical protein&lt;br&gt;Location: 11283 - 12209" locus_tag="QWT72268.1" class="clusterblast-orf" id="dummy-24_h24_7_11"  />
</g>
<g id="a24_0012"  >
<polygon points="78,85 83,80 84,80 84,90 83,90 78,85 " style="fill:white; stroke-width:1; stroke:black; " description="&lt;b&gt;QWT72269.1&lt;/b&gt;&lt;br&gt;isocitrate/isopropylmalate dehydrogenase family protein&lt;br&gt;Location: 12206 - 13240" locus_tag="QWT72269.1" class="clusterblast-orf" id="dummy-24_h24_7_12"  />
</g>
<g id="a24_0013"  >
<polygon points="85,85 88,80 88,90 85,85 " style="fill:white; stroke-width:1; stroke:black; " description="&lt;b&gt;QWT72270.1&lt;/b&gt;&lt;br&gt;3-isopropylmalate dehydratase small subunit&lt;br&gt;Location: 13256 - 13861" locus_tag="QWT72270.1" class="clusterblast-orf" id="dummy-24_h24_7_13"  />
</g>
<g id="a24_0014"  >
<polygon points="89,85 94,80 98,80 98,90 94,90 89,85 " style="fill:white; stroke-width:1; stroke:black; " description="&lt;b&gt;QWT72271.1&lt;/b&gt;&lt;br&gt;3-isopropylmalate dehydratase large subunit&lt;br&gt;Location: 13914 - 15308" locus_tag="QWT72271.1" class="clusterblast-orf" id="dummy-24_h24_7_14"  />
</g>
<g id="a24_0015"  >
<polygon points="98,85 103,80 105,80 105,90 103,90 98,85 " style="fill:white; stroke-width:1; stroke:black; " description="&lt;b&gt;QWT72272.1&lt;/b&gt;&lt;br&gt;pyruvate carboxyltransferase&lt;br&gt;Location: 15305 - 16489" locus_tag="QWT72272.1" class="clusterblast-orf" id="dummy-24_h24_7_15"  />
</g>
<g id="a24_0016"  >
<polygon points="107,90 109,90 114,85 109,80 107,80 107,90 " style="fill:white; stroke-width:1; stroke:black; " description="&lt;b&gt;QWT72273.1&lt;/b&gt;&lt;br&gt;glycosyltransferase&lt;br&gt;Location: 16730 - 17785" locus_tag="QWT72273.1" class="clusterblast-orf" id="dummy-24_h24_7_16"  />
</g>
<g id="a24_0017"  >
<polygon points="115,90 116,90 121,85 116,80 115,80 115,90 " style="fill:white; stroke-width:1; stroke:black; " description="&lt;b&gt;QWT72274.1&lt;/b&gt;&lt;br&gt;winged helix-turn-helix transcriptional regulator&lt;br&gt;Location: 17994 - 18896" locus_tag="QWT72274.1" class="clusterblast-orf" id="dummy-24_h24_7_17"  />
</g>
<g id="a24_0018"  >
<polygon points="121,90 128,90 133,85 128,80 121,80 121,90 " style="fill:white; stroke-width:1; stroke:black; " description="&lt;b&gt;QWT72275.1&lt;/b&gt;&lt;br&gt;fatty acyl-AMP ligase&lt;br&gt;Location: 18981 - 20795" locus_tag="QWT72275.1" class="clusterblast-orf" id="dummy-24_h24_7_18"  />
</g>
<g id="a24_0019"  >
<polygon points="133,90 139,90 144,85 139,80 133,80 133,90 " style="fill:white; stroke-width:1; stroke:black; " description="&lt;b&gt;QWT72276.1&lt;/b&gt;&lt;br&gt;acyl-CoA dehydrogenase&lt;br&gt;Location: 20792 - 22498" locus_tag="QWT72276.1" class="clusterblast-orf" id="dummy-24_h24_7_19"  />
</g>
<g id="a24_0020"  >
<polygon points="144,90 150,90 155,85 150,80 144,80 144,90 " style="fill:white; stroke-width:1; stroke:black; " description="&lt;b&gt;QWT72277.1&lt;/b&gt;&lt;br&gt;acyl-CoA dehydrogenase&lt;br&gt;Location: 22495 - 24240" locus_tag="QWT72277.1" class="clusterblast-orf" id="dummy-24_h24_7_20"  />
</g>
<g id="a24_0021"  >
<polygon points="156,90 157,85 156,80 156,90 " style="fill:white; stroke-width:1; stroke:black; " description="&lt;b&gt;QWT72278.1&lt;/b&gt;&lt;br&gt;hypothetical protein&lt;br&gt;Location: 24305 - 24568" locus_tag="QWT72278.1" class="clusterblast-orf" id="dummy-24_h24_7_21"  />
</g>
<g id="a24_0022"  >
<polygon points="158,90 315,90 320,85 315,80 158,80 158,90 " style="fill:white; stroke-width:1; stroke:black; " description="&lt;b&gt;QWT72279.1&lt;/b&gt;&lt;br&gt;non-ribosomal peptide synthetase&lt;br&gt;Location: 24626 - 49969" locus_tag="QWT72279.1" class="clusterblast-orf" id="dummy-24_h24_7_22"  />
</g>
<g id="a24_0023"  >
<polygon points="321,90 324,90 329,85 324,80 321,80 321,90 " style="fill:white; stroke-width:1; stroke:black; " description="&lt;b&gt;QWT72280.1&lt;/b&gt;&lt;br&gt;cytochrome P450&lt;br&gt;Location: 50071 - 51357" locus_tag="QWT72280.1" class="clusterblast-orf" id="dummy-24_h24_7_23"  />
</g>
<g id="a24_0024"  >
<polygon points="329,90 330,90 335,85 330,80 329,80 329,90 " style="fill:white; stroke-width:1; stroke:black; " description="&lt;b&gt;QWT72281.1&lt;/b&gt;&lt;br&gt;TauD/TfdA family dioxygenase&lt;br&gt;Location: 51382 - 52338" locus_tag="QWT72281.1" class="clusterblast-orf" id="dummy-24_h24_7_24"  />
</g>
<g id="a24_0025"  >
<polygon points="336,90 338,90 343,85 338,80 336,80 336,90 " style="fill:white; stroke-width:1; stroke:black; " description="&lt;b&gt;QWT72282.1&lt;/b&gt;&lt;br&gt;pyridoxal phosphate-dependent aminotransferase&lt;br&gt;Location: 52370 - 53551" locus_tag="QWT72282.1" class="clusterblast-orf" id="dummy-24_h24_7_25"  />
</g>
<g id="a24_0026"  >
<polygon points="343,90 351,90 356,85 351,80 343,80 343,90 " style="fill:white; stroke-width:1; stroke:black; " description="&lt;b&gt;QWT72283.1&lt;/b&gt;&lt;br&gt;ABC transporter ATP-binding protein&lt;br&gt;Location: 53560 - 55482" locus_tag="QWT72283.1" class="clusterblast-orf" id="dummy-24_h24_7_26"  />
</g>
<g id="a24_0027"  >
<polygon points="356,90 360,90 365,85 360,80 356,80 356,90 " style="fill:white; stroke-width:1; stroke:black; " description="&lt;b&gt;QWT72284.1&lt;/b&gt;&lt;br&gt;hypothetical protein&lt;br&gt;Location: 55479 - 56933" locus_tag="QWT72284.1" class="clusterblast-orf" id="dummy-24_h24_7_27"  />
</g>
<g id="a24_0028"  >
<polygon points="365,85 369,80 369,90 365,85 " style="fill:white; stroke-width:1; stroke:black; " description="&lt;b&gt;QWT72285.1&lt;/b&gt;&lt;br&gt;response regulator transcription factor&lt;br&gt;Location: 56954 - 57613" locus_tag="QWT72285.1" class="clusterblast-orf" id="dummy-24_h24_7_28"  />
</g>
<g id="a24_0029"  >
<polygon points="371,90 372,90 377,85 372,80 371,80 371,90 " style="fill:white; stroke-width:1; stroke:black; " description="&lt;b&gt;QWT72286.1&lt;/b&gt;&lt;br&gt;ABC transporter ATP-binding protein&lt;br&gt;Location: 57817 - 58776" locus_tag="QWT72286.1" class="clusterblast-orf" id="dummy-24_h24_7_29"  />
</g>
<g id="a24_0030"  >
<polygon points="377,90 377,90 382,85 377,80 377,80 377,90 " style="fill:white; stroke-width:1; stroke:black; " description="&lt;b&gt;QWT72287.1&lt;/b&gt;&lt;br&gt;ABC transporter permease&lt;br&gt;Location: 58781 - 59584" locus_tag="QWT72287.1" class="clusterblast-orf" id="dummy-24_h24_7_30"  />
</g>
<g id="a24_0031"  >
<polygon points="385,90 387,90 392,85 387,80 385,80 385,90 " style="fill:white; stroke-width:1; stroke:black; " description="&lt;b&gt;QWT72288.1&lt;/b&gt;&lt;br&gt;winged helix-turn-helix transcriptional regulator&lt;br&gt;Location: 60080 - 61081" locus_tag="QWT72288.1" class="clusterblast-orf" id="dummy-24_h24_7_31"  />
</g>
<g id="a24_0032"  >
<polygon points="392,85 395,80 395,90 392,85 " style="fill:white; stroke-width:1; stroke:black; " description="&lt;b&gt;QWT72289.1&lt;/b&gt;&lt;br&gt;flavin reductase family protein&lt;br&gt;Location: 61111 - 61620" locus_tag="QWT72289.1" class="clusterblast-orf" id="dummy-24_h24_7_32"  />
</g>
<g id="a24_0033"  >
<polygon points="397,90 398,85 397,80 397,90 " style="fill:white; stroke-width:1; stroke:black; " description="&lt;b&gt;QWT72290.1&lt;/b&gt;&lt;br&gt;MbtH family protein&lt;br&gt;Location: 61886 - 62098" locus_tag="QWT72290.1" class="clusterblast-orf" id="dummy-24_h24_7_33"  />
</g>
<g id="a24_0034"  >
<polygon points="399,90 414,90 419,85 414,80 399,80 399,90 " style="fill:#1515d8; stroke-width:1; stroke:black; " description="&lt;b&gt;QWT72291.1&lt;/b&gt;&lt;br&gt;amino acid adenylation domain-containing protein&lt;br&gt;Location: 62280 - 65432&lt;br&gt;&lt;br&gt;&lt;b&gt;BlastP hit with LLPMBPKK_06053&lt;/b&gt;&lt;br&gt;Percentage identity: 51&lt;br&gt;Percentage coverage: 95&lt;br&gt;BLAST bit score: 870&lt;br&gt;E-value: 2.49e-302" locus_tag="QWT72291.1" class="clusterblast-orf" id="dummy-24_h24_7_34"  />
</g>
<g id="a24_0035"  >
<polygon points="421,90 528,90 533,85 528,80 421,80 421,90 " style="fill:white; stroke-width:1; stroke:black; " description="&lt;b&gt;QWT72292.1&lt;/b&gt;&lt;br&gt;putative non-ribosomal peptide synthetase&lt;br&gt;Location: 65711 - 83146" locus_tag="QWT72292.1" class="clusterblast-orf" id="dummy-24_h24_7_35"  />
</g>
<g id="a24_0036"  >
<polygon points="533,90 575,90 580,85 575,80 533,80 533,90 " style="fill:white; stroke-width:1; stroke:black; " description="&lt;b&gt;QWT72293.1&lt;/b&gt;&lt;br&gt;non-ribosomal peptide synthetase&lt;br&gt;Location: 83143 - 90369" locus_tag="QWT72293.1" class="clusterblast-orf" id="dummy-24_h24_7_36"  />
</g>
<g id="a24_0037"  >
<polygon points="579,85 584,80 590,80 590,90 584,90 579,85 " style="fill:white; stroke-width:1; stroke:black; " description="&lt;b&gt;QWT72294.1&lt;/b&gt;&lt;br&gt;histidine kinase&lt;br&gt;Location: 90309 - 91949" locus_tag="QWT72294.1" class="clusterblast-orf" id="dummy-24_h24_7_37"  />
</g>
<g id="a24_0038"  >
<polygon points="591,90 593,85 591,80 591,90 " style="fill:white; stroke-width:1; stroke:black; " description="&lt;b&gt;QWT72295.1&lt;/b&gt;&lt;br&gt;argininosuccinate lyase&lt;br&gt;Location: 92209 - 92424" locus_tag="QWT72295.1" class="clusterblast-orf" id="dummy-24_h24_7_38"  />
</g>
<g id="a24_0039"  >
<polygon points="593,90 594,90 599,85 594,80 593,80 593,90 " style="fill:white; stroke-width:1; stroke:black; " description="&lt;b&gt;QWT72296.1&lt;/b&gt;&lt;br&gt;kinase&lt;br&gt;Location: 92418 - 93329" locus_tag="QWT72296.1" class="clusterblast-orf" id="dummy-24_h24_7_39"  />
</g>
<g id="a24_0040"  >
<polygon points="599,85 604,80 605,80 605,90 604,90 599,85 " style="fill:#1515d8; stroke-width:1; stroke:black; " description="&lt;b&gt;QWT72297.1&lt;/b&gt;&lt;br&gt;hypothetical protein&lt;br&gt;Location: 93402 - 94388&lt;br&gt;&lt;br&gt;&lt;b&gt;BlastP hit with LLPMBPKK_06052&lt;/b&gt;&lt;br&gt;Percentage identity: 51&lt;br&gt;Percentage coverage: 87&lt;br&gt;BLAST bit score: 308&lt;br&gt;E-value: 4.76e-104" locus_tag="QWT72297.1" class="clusterblast-orf" id="dummy-24_h24_7_40"  />
</g>
<g id="a24_0041"  >
<polygon points="607,90 607,90 612,85 607,80 607,80 607,90 " style="fill:white; stroke-width:1; stroke:black; " description="&lt;b&gt;QWT72298.1&lt;/b&gt;&lt;br&gt;alpha/beta hydrolase&lt;br&gt;Location: 94571 - 95419" locus_tag="QWT72298.1" class="clusterblast-orf" id="dummy-24_h24_7_41"  />
</g>
<g id="a24_0042"  >
<polygon points="612,90 612,90 617,85 612,80 612,80 612,90 " style="fill:white; stroke-width:1; stroke:black; " description="&lt;b&gt;QWT72299.1&lt;/b&gt;&lt;br&gt;tryptophan 2,3-dioxygenase&lt;br&gt;Location: 95416 - 96144" locus_tag="QWT72299.1" class="clusterblast-orf" id="dummy-24_h24_7_42"  />
</g>
<g id="a24_0043"  >
<polygon points="619,90 624,90 629,85 624,80 619,80 619,90 " style="fill:white; stroke-width:1; stroke:black; " description="&lt;b&gt;QWT72300.1&lt;/b&gt;&lt;br&gt;tryptophan 7-halogenase&lt;br&gt;Location: 96457 - 98055" locus_tag="QWT72300.1" class="clusterblast-orf" id="dummy-24_h24_7_43"  />
</g>
<g id="a24_0044"  >
<polygon points="629,90 632,90 637,85 632,80 629,80 629,90 " style="fill:white; stroke-width:1; stroke:black; " description="&lt;b&gt;QWT72301.1&lt;/b&gt;&lt;br&gt;cation/H(+) antiporter&lt;br&gt;Location: 98077 - 99366" locus_tag="QWT72301.1" class="clusterblast-orf" id="dummy-24_h24_7_44"  />
</g>
<g id="a24_0045"  >
<polygon points="637,90 640,90 645,85 640,80 637,80 637,90 " style="fill:white; stroke-width:1; stroke:black; " description="&lt;b&gt;QWT72302.1&lt;/b&gt;&lt;br&gt;decarboxylase&lt;br&gt;Location: 99373 - 100626" locus_tag="QWT72302.1" class="clusterblast-orf" id="dummy-24_h24_7_45"  />
</g>
<g id="a24_0046"  >
<polygon points="646,85 649,80 649,90 646,85 " style="fill:white; stroke-width:1; stroke:black; " description="&lt;b&gt;QWT72303.1&lt;/b&gt;&lt;br&gt;NUDIX domain-containing protein&lt;br&gt;Location: 100661 - 101122" locus_tag="QWT72303.1" class="clusterblast-orf" id="dummy-24_h24_7_46"  />
</g>
<g id="a24_0047"  >
<polygon points="649,85 654,80 659,80 659,90 654,90 649,85 " style="fill:white; stroke-width:1; stroke:black; " description="&lt;b&gt;QWT72304.1&lt;/b&gt;&lt;br&gt;long-chain fatty acid--CoA ligase&lt;br&gt;Location: 101169 - 102692" locus_tag="QWT72304.1" class="clusterblast-orf" id="dummy-24_h24_7_47"  />
</g>
<g id="a24_0048"  >
<polygon points="659,85 664,80 665,80 665,90 664,90 659,85 " style="fill:white; stroke-width:1; stroke:black; " description="&lt;b&gt;QWT72305.1&lt;/b&gt;&lt;br&gt;aminoglycoside phosphotransferase family protein&lt;br&gt;Location: 102705 - 103757" locus_tag="QWT72305.1" class="clusterblast-orf" id="dummy-24_h24_7_48"  />
</g>
<g id="a24_0049"  >
<polygon points="665,85 670,80 673,80 673,90 670,90 665,85 " style="fill:white; stroke-width:1; stroke:black; " description="&lt;b&gt;QWT72306.1&lt;/b&gt;&lt;br&gt;hypothetical protein&lt;br&gt;Location: 103754 - 104947" locus_tag="QWT72306.1" class="clusterblast-orf" id="dummy-24_h24_7_49"  />
</g>
<g id="a24_0050"  >
<polygon points="673,85 678,80 678,80 678,90 678,90 673,85 " style="fill:white; stroke-width:1; stroke:black; " description="&lt;b&gt;QWT72307.1&lt;/b&gt;&lt;br&gt;hypothetical protein&lt;br&gt;Location: 105002 - 105643" locus_tag="QWT72307.1" class="clusterblast-orf" id="dummy-24_h24_7_50"  />
</g>
<g id="a24_0051"  >
<polygon points="678,85 683,80 683,80 683,90 683,90 678,85 " style="fill:white; stroke-width:1; stroke:black; " description="&lt;b&gt;QWT72308.1&lt;/b&gt;&lt;br&gt;class I SAM-dependent methyltransferase&lt;br&gt;Location: 105669 - 106472" locus_tag="QWT72308.1" class="clusterblast-orf" id="dummy-24_h24_7_51"  />
</g>
<g id="a24_0052"  >
<polygon points="683,85 688,80 689,80 689,90 688,90 683,85 " style="fill:white; stroke-width:1; stroke:black; " description="&lt;b&gt;QWT72309.1&lt;/b&gt;&lt;br&gt;hypothetical protein SMALA 6641&lt;br&gt;Location: 106466 - 107470" locus_tag="QWT72309.1" class="clusterblast-orf" id="dummy-24_h24_7_52"  />
</g>
<g id="a24_0053"  >
<polygon points="692,90 693,90 698,85 693,80 692,80 692,90 " style="fill:white; stroke-width:1; stroke:black; " description="&lt;b&gt;QWT72310.1&lt;/b&gt;&lt;br&gt;aldo/keto reductase&lt;br&gt;Location: 107850 - 108836" locus_tag="QWT72310.1" class="clusterblast-orf" id="dummy-24_h24_7_53"  />
</g>
<g id="a24_0054"  >
<polygon points="699,90 703,85 699,80 699,90 " style="fill:white; stroke-width:1; stroke:black; " description="&lt;b&gt;QWT72311.1&lt;/b&gt;&lt;br&gt;glucose 1-dehydrogenase&lt;br&gt;Location: 108899 - 109669" locus_tag="QWT72311.1" class="clusterblast-orf" id="dummy-24_h24_7_54"  />
</g>
<g id="a24_0055"  >
<polygon points="704,90 706,90 711,85 706,80 704,80 704,90 " style="fill:white; stroke-width:1; stroke:black; " description="&lt;b&gt;QWT72312.1&lt;/b&gt;&lt;br&gt;myo-inositol-1-phosphate synthase&lt;br&gt;Location: 109732 - 110808" locus_tag="QWT72312.1" class="clusterblast-orf" id="dummy-24_h24_7_55"  />
</g>
<g id="a24_0056"  >
<polygon points="711,90 711,90 716,85 711,80 711,80 711,90 " style="fill:white; stroke-width:1; stroke:black; " description="&lt;b&gt;QWT72313.1&lt;/b&gt;&lt;br&gt;histidinol-phosphatase&lt;br&gt;Location: 110815 - 111618" locus_tag="QWT72313.1" class="clusterblast-orf" id="dummy-24_h24_7_56"  />
</g>
<g id="a24_0057"  >
<polygon points="716,90 719,90 724,85 719,80 716,80 716,90 " style="fill:white; stroke-width:1; stroke:black; " description="&lt;b&gt;QWT72314.1&lt;/b&gt;&lt;br&gt;S-adenosylmethionine synthetase&lt;br&gt;Location: 111660 - 112877" locus_tag="QWT72314.1" class="clusterblast-orf" id="dummy-24_h24_7_57"  />
</g>
<g id="a24_0058"  >
<polygon points="724,90 726,90 731,85 726,80 724,80 724,90 " style="fill:white; stroke-width:1; stroke:black; " description="&lt;b&gt;QWT72315.1&lt;/b&gt;&lt;br&gt;hypothetical protein&lt;br&gt;Location: 112871 - 113893" locus_tag="QWT72315.1" class="clusterblast-orf" id="dummy-24_h24_7_58"  />
</g>
<g id="a24_0059"  >
<polygon points="731,90 734,85 731,80 731,90 " style="fill:white; stroke-width:1; stroke:black; " description="&lt;b&gt;QWT72316.1&lt;/b&gt;&lt;br&gt;hypothetical protein&lt;br&gt;Location: 113890 - 114456" locus_tag="QWT72316.1" class="clusterblast-orf" id="dummy-24_h24_7_59"  />
</g>
<g id="a24_0060"  >
<polygon points="734,90 737,90 742,85 737,80 734,80 734,90 " style="fill:white; stroke-width:1; stroke:black; " description="&lt;b&gt;QWT72317.1&lt;/b&gt;&lt;br&gt;DegT/DnrJ/EryC1/StrS family aminotransferase&lt;br&gt;Location: 114449 - 115726" locus_tag="QWT72317.1" class="clusterblast-orf" id="dummy-24_h24_7_60"  />
</g>
<g id="a24_0061"  >
<polygon points="742,90 746,85 742,80 742,90 " style="fill:white; stroke-width:1; stroke:black; " description="&lt;b&gt;QWT72318.1&lt;/b&gt;&lt;br&gt;NUDIX domain-containing protein&lt;br&gt;Location: 115741 - 116232" locus_tag="QWT72318.1" class="clusterblast-orf" id="dummy-24_h24_7_61"  />
</g>
<g id="a24_0062"  >
<polygon points="746,85 750,80 750,90 746,85 " style="fill:white; stroke-width:1; stroke:black; " description="&lt;b&gt;QWT72319.1&lt;/b&gt;&lt;br&gt;class I SAM-dependent methyltransferase&lt;br&gt;Location: 116262 - 116996" locus_tag="QWT72319.1" class="clusterblast-orf" id="dummy-24_h24_7_62"  />
</g>
<g id="a24_0063"  >
<polygon points="751,90 753,85 751,80 751,90 " style="fill:white; stroke-width:1; stroke:black; " description="&lt;b&gt;QWT72320.1&lt;/b&gt;&lt;br&gt;hypothetical protein&lt;br&gt;Location: 117123 - 117446" locus_tag="QWT72320.1" class="clusterblast-orf" id="dummy-24_h24_7_63"  />
</g>
<g id="a24_0064"  >
<polygon points="754,90 754,90 759,85 754,80 754,80 754,90 " style="fill:white; stroke-width:1; stroke:black; " description="&lt;b&gt;QWT72321.1&lt;/b&gt;&lt;br&gt;HAD hydrolase family protein&lt;br&gt;Location: 117512 - 118261" locus_tag="QWT72321.1" class="clusterblast-orf" id="dummy-24_h24_7_64"  />
</g>
<g id="a24_0065"  >
<polygon points="759,85 764,80 765,80 765,90 764,90 759,85 " style="fill:white; stroke-width:1; stroke:black; " description="&lt;b&gt;QWT72322.1&lt;/b&gt;&lt;br&gt;UDP-glucose 4-epimerase&lt;br&gt;Location: 118273 - 119295" locus_tag="QWT72322.1" class="clusterblast-orf" id="dummy-24_h24_7_65"  />
</g>
<g id="a24_0066"  >
<polygon points="766,90 767,90 772,85 767,80 766,80 766,90 " style="fill:white; stroke-width:1; stroke:black; " description="&lt;b&gt;QWT72323.1&lt;/b&gt;&lt;br&gt;hypothetical protein&lt;br&gt;Location: 119477 - 120388" locus_tag="QWT72323.1" class="clusterblast-orf" id="dummy-24_h24_7_66"  />
</g>
<g id="a24_0067"  >
<polygon points="772,90 775,90 780,85 775,80 772,80 772,90 " style="fill:white; stroke-width:1; stroke:black; " description="&lt;b&gt;QWT72324.1&lt;/b&gt;&lt;br&gt;hypothetical protein&lt;br&gt;Location: 120388 - 121518" locus_tag="QWT72324.1" class="clusterblast-orf" id="dummy-24_h24_7_67"  />
</g>
</svg>
