<svg xmlns="http://www.w3.org/2000/svg" xmlns:xlink="http://www.w3.org/1999/xlink" version="1.1" x="0" y="0" height="230" width="800" viewBox="0 0 800 230" preserveAspectRatio="none"  >
<g label="Query sequence" class="clusterblast-cluster"  >
<text x="5" y="20" class="clusterblast-acc"  >
Query sequence</text>
<line x1="10" y1="35" x2="778.0" y2="35" style="stroke-width:1; stroke:grey; "  />
<polygon points="0,40 10,40 15,35 10,30 0,30 0,40 " style="fill:white; stroke-width:1; stroke:black; " description="&lt;b&gt;LLPMBPKK_00703&lt;/b&gt;&lt;br&gt;hypothetical protein&lt;br&gt;Location: 897958 - 898738" locus_tag="LLPMBPKK_00703" class="clusterblast-orf" id="dummy-6_q0_0_all"  />
<polygon points="15,35 20,30 48,30 48,40 20,40 15,35 " style="fill:white; stroke-width:1; stroke:black; " description="&lt;b&gt;LLPMBPKK_00704&lt;/b&gt;&lt;br&gt;LytR family transcriptional regulator&lt;br&gt;Location: 898753 - 900469" locus_tag="LLPMBPKK_00704" class="clusterblast-orf" id="dummy-6_q1_0_all"  />
<polygon points="51,35 56,30 72,30 72,40 56,40 51,35 " style="fill:white; stroke-width:1; stroke:black; " description="&lt;b&gt;LLPMBPKK_00705&lt;/b&gt;&lt;br&gt;urea transporter&lt;br&gt;Location: 900632 - 901688" locus_tag="LLPMBPKK_00705" class="clusterblast-orf" id="dummy-6_q2_0_all"  />
<polygon points="74,35 79,30 99,30 99,40 79,40 74,35 " style="fill:white; stroke-width:1; stroke:black; " description="&lt;b&gt;LLPMBPKK_00706&lt;/b&gt;&lt;br&gt;hypothetical protein&lt;br&gt;Location: 901826 - 903119" locus_tag="LLPMBPKK_00706" class="clusterblast-orf" id="dummy-6_q3_0_all"  />
<polygon points="104,40 106,40 111,35 106,30 104,30 104,40 " style="fill:white; stroke-width:1; stroke:black; " description="&lt;b&gt;LLPMBPKK_00707&lt;/b&gt;&lt;br&gt;anti-sigma factor antagonist&lt;br&gt;Location: 903353 - 903722" locus_tag="LLPMBPKK_00707" class="clusterblast-orf" id="dummy-6_q4_0_all"  />
<polygon points="117,40 121,40 126,35 121,30 117,30 117,40 " style="fill:white; stroke-width:1; stroke:black; " description="&lt;b&gt;LLPMBPKK_00708&lt;/b&gt;&lt;br&gt;transcription elongation factor GreA&lt;br&gt;Location: 904045 - 904504" locus_tag="LLPMBPKK_00708" class="clusterblast-orf" id="dummy-6_q5_0_all"  />
<polygon points="127,35 132,30 175,30 175,40 132,40 127,35 " style="fill:white; stroke-width:1; stroke:black; " description="&lt;b&gt;LLPMBPKK_00709&lt;/b&gt;&lt;br&gt;chaperone&lt;br&gt;Location: 904558 - 907072" locus_tag="LLPMBPKK_00709" class="clusterblast-orf" id="dummy-6_q6_0_all"  />
<polygon points="194,35 199,30 201,30 201,40 199,40 194,35 " style="fill:white; stroke-width:1; stroke:black; " description="&lt;b&gt;LLPMBPKK_00710&lt;/b&gt;&lt;br&gt;hypothetical protein&lt;br&gt;Location: 908016 - 908409" locus_tag="LLPMBPKK_00710" class="clusterblast-orf" id="dummy-6_q7_0_all"  />
<polygon points="202,35 207,30 219,30 219,40 207,40 202,35 " style="fill:white; stroke-width:1; stroke:black; " description="&lt;b&gt;LLPMBPKK_00711&lt;/b&gt;&lt;br&gt;YegS/Rv2252/BmrU family lipid kinase&lt;br&gt;Location: 908465 - 909347" locus_tag="LLPMBPKK_00711" class="clusterblast-orf" id="dummy-6_q8_0_all"  />
<polygon points="220,35 225,30 251,30 251,40 225,40 220,35 " style="fill:white; stroke-width:1; stroke:black; " description="&lt;b&gt;LLPMBPKK_00712&lt;/b&gt;&lt;br&gt;FAD-binding oxidoreductase&lt;br&gt;Location: 909389 - 910982" locus_tag="LLPMBPKK_00712" class="clusterblast-orf" id="dummy-6_q9_0_all"  />
<polygon points="253,40 261,40 266,35 261,30 253,30 253,40 " style="fill:white; stroke-width:1; stroke:black; " description="&lt;b&gt;LLPMBPKK_00713&lt;/b&gt;&lt;br&gt;TetR/AcrR family transcriptional regulator&lt;br&gt;Location: 911123 - 911771" locus_tag="LLPMBPKK_00713" class="clusterblast-orf" id="dummy-6_q10_0_all"  />
<polygon points="266,40 291,40 296,35 291,30 266,30 266,40 " style="fill:white; stroke-width:1; stroke:black; " description="&lt;b&gt;LLPMBPKK_00714&lt;/b&gt;&lt;br&gt;glycerol-3-phosphate dehydrogenase/oxidase&lt;br&gt;Location: 911767 - 913342" locus_tag="LLPMBPKK_00714" class="clusterblast-orf" id="dummy-6_q11_0_all"  />
<polygon points="303,40 330,40 335,35 330,30 303,30 303,40 " style="fill:#d81515; stroke-width:1; stroke:black; " description="&lt;b&gt;LLPMBPKK_00715&lt;/b&gt;&lt;br&gt;tryptophan 7-halogenase&lt;br&gt;Location: 913711 - 915334" locus_tag="LLPMBPKK_00715" class="clusterblast-orf" id="dummy-6_q12_0_all"  />
<polygon points="334,40 340,40 345,35 340,30 334,30 334,40 " style="fill:#15d815; stroke-width:1; stroke:black; " description="&lt;b&gt;LLPMBPKK_00716&lt;/b&gt;&lt;br&gt;flavin reductase&lt;br&gt;Location: 915323 - 915887" locus_tag="LLPMBPKK_00716" class="clusterblast-orf" id="dummy-6_q13_0_all"  />
<polygon points="345,40 362,40 367,35 362,30 345,30 345,40 " style="fill:white; stroke-width:1; stroke:black; " description="&lt;b&gt;LLPMBPKK_00717&lt;/b&gt;&lt;br&gt;hypothetical protein&lt;br&gt;Location: 915883 - 917014" locus_tag="LLPMBPKK_00717" class="clusterblast-orf" id="dummy-6_q14_0_all"  />
<polygon points="370,40 397,40 402,35 397,30 370,30 370,40 " style="fill:#1515d8; stroke-width:1; stroke:black; " description="&lt;b&gt;LLPMBPKK_00718&lt;/b&gt;&lt;br&gt;CDA peptide synthetase III&lt;br&gt;Location: 917154 - 918852" locus_tag="LLPMBPKK_00718" class="clusterblast-orf" id="dummy-6_q15_0_all"  />
<polygon points="402,40 412,40 417,35 412,30 402,30 402,40 " style="fill:#d815d8; stroke-width:1; stroke:black; " description="&lt;b&gt;LLPMBPKK_00719&lt;/b&gt;&lt;br&gt;thioesterase&lt;br&gt;Location: 918851 - 919604" locus_tag="LLPMBPKK_00719" class="clusterblast-orf" id="dummy-6_q16_0_all"  />
<polygon points="417,40 435,40 440,35 435,30 417,30 417,40 " style="fill:#d8d815; stroke-width:1; stroke:black; " description="&lt;b&gt;LLPMBPKK_00720&lt;/b&gt;&lt;br&gt;cytochrome P450&lt;br&gt;Location: 919593 - 920790" locus_tag="LLPMBPKK_00720" class="clusterblast-orf" id="dummy-6_q17_0_all"  />
<polygon points="441,40 442,40 447,35 442,30 441,30 441,40 " style="fill:white; stroke-width:1; stroke:black; " description="&lt;b&gt;LLPMBPKK_00721&lt;/b&gt;&lt;br&gt;YCII-related domain protein&lt;br&gt;Location: 920854 - 921169" locus_tag="LLPMBPKK_00721" class="clusterblast-orf" id="dummy-6_q18_0_all"  />
<polygon points="447,40 465,40 470,35 465,30 447,30 447,40 " style="fill:white; stroke-width:1; stroke:black; " description="&lt;b&gt;LLPMBPKK_00722&lt;/b&gt;&lt;br&gt;hydrolase&lt;br&gt;Location: 921165 - 922353" locus_tag="LLPMBPKK_00722" class="clusterblast-orf" id="dummy-6_q19_0_all"  />
<polygon points="470,40 480,40 485,35 480,30 470,30 470,40 " style="fill:white; stroke-width:1; stroke:black; " description="&lt;b&gt;LLPMBPKK_00723&lt;/b&gt;&lt;br&gt;3-oxoacyl-[acyl-carrier-protein] reductase&lt;br&gt;Location: 922345 - 923146" locus_tag="LLPMBPKK_00723" class="clusterblast-orf" id="dummy-6_q20_0_all"  />
<polygon points="486,40 505,40 510,35 505,30 486,30 486,40 " style="fill:white; stroke-width:1; stroke:black; " description="&lt;b&gt;LLPMBPKK_00724&lt;/b&gt;&lt;br&gt;ATP-grasp domain protein&lt;br&gt;Location: 923161 - 924427" locus_tag="LLPMBPKK_00724" class="clusterblast-orf" id="dummy-6_q21_0_all"  />
<polygon points="510,40 529,40 534,35 529,30 510,30 510,40 " style="fill:white; stroke-width:1; stroke:black; " description="&lt;b&gt;LLPMBPKK_00725&lt;/b&gt;&lt;br&gt;pyridoxal-phosphate dependent enzyme&lt;br&gt;Location: 924438 - 925662" locus_tag="LLPMBPKK_00725" class="clusterblast-orf" id="dummy-6_q22_0_all"  />
<polygon points="534,40 555,40 560,35 555,30 534,30 534,40 " style="fill:white; stroke-width:1; stroke:black; " description="&lt;b&gt;LLPMBPKK_00726&lt;/b&gt;&lt;br&gt;MFS transporter&lt;br&gt;Location: 925667 - 927008" locus_tag="LLPMBPKK_00726" class="clusterblast-orf" id="dummy-6_q23_0_all"  />
<polygon points="560,40 580,40 585,35 580,30 560,30 560,40 " style="fill:white; stroke-width:1; stroke:black; " description="&lt;b&gt;LLPMBPKK_00727&lt;/b&gt;&lt;br&gt;transporter monovalent cation:proton antiporter-2(CPA2) family protein&lt;br&gt;Location: 927009 - 928332" locus_tag="LLPMBPKK_00727" class="clusterblast-orf" id="dummy-6_q24_0_all"  />
<polygon points="586,35 591,30 614,30 614,40 591,40 586,35 " style="fill:white; stroke-width:1; stroke:black; " description="&lt;b&gt;LLPMBPKK_00728&lt;/b&gt;&lt;br&gt;Outer membrane protein assembly factor BamB&lt;br&gt;Location: 928352 - 929804" locus_tag="LLPMBPKK_00728" class="clusterblast-orf" id="dummy-6_q25_0_all"  />
<polygon points="618,35 623,30 631,30 631,40 623,40 618,35 " style="fill:white; stroke-width:1; stroke:black; " description="&lt;b&gt;LLPMBPKK_00729&lt;/b&gt;&lt;br&gt;TetR family transcriptional regulator&lt;br&gt;Location: 930052 - 930694" locus_tag="LLPMBPKK_00729" class="clusterblast-orf" id="dummy-6_q26_0_all"  />
<polygon points="634,40 644,40 649,35 644,30 634,30 634,40 " style="fill:white; stroke-width:1; stroke:black; " description="&lt;b&gt;LLPMBPKK_00730&lt;/b&gt;&lt;br&gt;oxidoreductase&lt;br&gt;Location: 930855 - 931641" locus_tag="LLPMBPKK_00730" class="clusterblast-orf" id="dummy-6_q27_0_all"  />
<polygon points="649,35 654,30 681,30 681,40 654,40 649,35 " style="fill:white; stroke-width:1; stroke:black; " description="&lt;b&gt;LLPMBPKK_00731&lt;/b&gt;&lt;br&gt;ABC-F family ATP-binding cassettedomain-containing protein&lt;br&gt;Location: 931668 - 933291" locus_tag="LLPMBPKK_00731" class="clusterblast-orf" id="dummy-6_q28_0_all"  />
<polygon points="686,35 691,30 692,30 692,40 691,40 686,35 " style="fill:white; stroke-width:1; stroke:black; " description="&lt;b&gt;LLPMBPKK_00732&lt;/b&gt;&lt;br&gt;hypothetical protein&lt;br&gt;Location: 933575 - 933890" locus_tag="LLPMBPKK_00732" class="clusterblast-orf" id="dummy-6_q29_0_all"  />
<polygon points="698,35 703,30 712,30 712,40 703,40 698,35 " style="fill:white; stroke-width:1; stroke:black; " description="&lt;b&gt;LLPMBPKK_00733&lt;/b&gt;&lt;br&gt;SDR family NAD(P)-dependent oxidoreductase&lt;br&gt;Location: 934205 - 934910" locus_tag="LLPMBPKK_00733" class="clusterblast-orf" id="dummy-6_q30_0_all"  />
<polygon points="715,40 731,40 736,35 731,30 715,30 715,40 " style="fill:white; stroke-width:1; stroke:black; " description="&lt;b&gt;LLPMBPKK_00734&lt;/b&gt;&lt;br&gt;4Fe-4S ferredoxin&lt;br&gt;Location: 935072 - 936182" locus_tag="LLPMBPKK_00734" class="clusterblast-orf" id="dummy-6_q31_0_all"  />
<polygon points="744,40 754,40 759,35 754,30 744,30 744,40 " style="fill:#15d8d8; stroke-width:1; stroke:black; " description="&lt;b&gt;LLPMBPKK_00735&lt;/b&gt;&lt;br&gt;SAM-dependent methyltransferase&lt;br&gt;Location: 936572 - 937370" locus_tag="LLPMBPKK_00735" class="clusterblast-orf" id="dummy-6_q32_0_all"  />
<polygon points="761,35 766,30 780,30 780,40 766,40 761,35 " style="fill:white; stroke-width:1; stroke:black; " description="&lt;b&gt;LLPMBPKK_00736&lt;/b&gt;&lt;br&gt;hypothetical protein&lt;br&gt;Location: 937433 - 938423" locus_tag="LLPMBPKK_00736" class="clusterblast-orf" id="dummy-6_q33_0_all"  />
</g>
<g label="BGC0001335" description="BGC0001335_c1: borregomycin A/borregomycin B/borregomycin C/borregomycin D (11% of genes show similarity), Alkaloid" class="clusterblast-cluster"  >
<text x="5" y="70" class="clusterblast-acc"  >
<a xlink:href="https://mibig.secondarymetabolites.org/go/BGC0001335/1" target="_blank">BGC0001335</a>:                      borregomycin A/borregomycin B/borregomycin C/borregomycin D (11% of genes show similarity), Alkaloid</text>
<line x1="10" y1="85" x2="778.0" y2="85" style="stroke-width:1; stroke:grey; "  />
</g>
<g id="a6_000"  >
<polygon points="138,85 143,80 168,80 168,90 143,90 138,85 " style="fill:#15d8d8; stroke-width:1; stroke:black; " description="&lt;b&gt;AGI62227.1&lt;/b&gt;&lt;br&gt;methyltransferase&lt;br&gt;Location: 26123 - 24561&lt;br&gt;&lt;br&gt;&lt;b&gt;BlastP hit with LLPMBPKK_00735&lt;/b&gt;&lt;br&gt;Percentage identity: 46&lt;br&gt;Percentage coverage: 89&lt;br&gt;BLAST bit score: 172&lt;br&gt;E-value: 3.57e-50" locus_tag="AGI62227.1" class="clusterblast-orf" id="dummy-6_h6_4_0"  />
</g>
<g id="a6_001"  >
<polygon points="169,85 174,80 183,80 183,90 174,90 169,85 " style="fill:white; stroke-width:1; stroke:black; " description="&lt;b&gt;AGI62226.1&lt;/b&gt;&lt;br&gt;methyltransferase&lt;br&gt;Location: 24487 - 23759" locus_tag="AGI62226.1" class="clusterblast-orf" id="dummy-6_h6_4_1"  />
</g>
<g id="a6_002"  >
<polygon points="190,90 217,90 222,85 217,80 190,80 190,90 " style="fill:white; stroke-width:1; stroke:black; " description="&lt;b&gt;AGI62225.1&lt;/b&gt;&lt;br&gt;AbeX1-like monooxygenase&lt;br&gt;Location: 23396 - 21729" locus_tag="AGI62225.1" class="clusterblast-orf" id="dummy-6_h6_4_2"  />
</g>
<g id="a6_003"  >
<polygon points="228,90 247,90 252,85 247,80 228,80 228,90 " style="fill:white; stroke-width:1; stroke:black; " description="&lt;b&gt;AGI62224.1&lt;/b&gt;&lt;br&gt;cytochrome P450&lt;br&gt;Location: 21439 - 20204" locus_tag="AGI62224.1" class="clusterblast-orf" id="dummy-6_h6_4_3"  />
</g>
<g id="a6_004"  >
<polygon points="255,90 292,90 297,85 292,80 255,80 255,90 " style="fill:white; stroke-width:1; stroke:black; " description="&lt;b&gt;AGI62223.1&lt;/b&gt;&lt;br&gt;putative drug exporter&lt;br&gt;Location: 20017 - 17852" locus_tag="AGI62223.1" class="clusterblast-orf" id="dummy-6_h6_4_4"  />
</g>
<g id="a6_005"  >
<polygon points="299,85 304,80 305,80 305,90 304,90 299,85 " style="fill:white; stroke-width:1; stroke:black; " description="&lt;b&gt;AGI62222.1&lt;/b&gt;&lt;br&gt;monooxygenase-like protein&lt;br&gt;Location: 17781 - 17467" locus_tag="AGI62222.1" class="clusterblast-orf" id="dummy-6_h6_4_5"  />
</g>
<g id="a6_006"  >
<polygon points="306,85 311,80 315,80 315,90 311,90 306,85 " style="fill:white; stroke-width:1; stroke:black; " description="&lt;b&gt;AGI62221.1&lt;/b&gt;&lt;br&gt;hypothetical protein&lt;br&gt;Location: 17396 - 16935" locus_tag="AGI62221.1" class="clusterblast-orf" id="dummy-6_h6_4_6"  />
</g>
<g id="a6_007"  >
<polygon points="317,85 322,80 341,80 341,90 322,90 317,85 " style="fill:white; stroke-width:1; stroke:black; " description="&lt;b&gt;AGI62220.1&lt;/b&gt;&lt;br&gt;AbeX2-like monooxygenase&lt;br&gt;Location: 16843 - 15590" locus_tag="AGI62220.1" class="clusterblast-orf" id="dummy-6_h6_4_7"  />
</g>
<g id="a6_008"  >
<polygon points="342,85 347,80 373,80 373,90 347,90 342,85 " style="fill:white; stroke-width:1; stroke:black; " description="&lt;b&gt;AGI62219.1&lt;/b&gt;&lt;br&gt;RebC-like monooxygenase&lt;br&gt;Location: 15541 - 13925" locus_tag="AGI62219.1" class="clusterblast-orf" id="dummy-6_h6_4_8"  />
</g>
<g id="a6_009"  >
<polygon points="379,90 388,90 393,85 388,80 379,80 379,90 " style="fill:white; stroke-width:1; stroke:black; " description="&lt;b&gt;AGI62218.1&lt;/b&gt;&lt;br&gt;methyltransferase borM1&lt;br&gt;Location: 13601 - 12855" locus_tag="AGI62218.1" class="clusterblast-orf" id="dummy-6_h6_4_9"  />
</g>
<g id="a6_0010"  >
<polygon points="394,90 420,90 425,85 420,80 394,80 394,90 " style="fill:#d81515; stroke-width:1; stroke:black; " description="&lt;b&gt;AGI62217.1&lt;/b&gt;&lt;br&gt;tryptophan 6-halogenase&lt;br&gt;Location: 12828 - 11239&lt;br&gt;&lt;br&gt;&lt;b&gt;BlastP hit with LLPMBPKK_00715&lt;/b&gt;&lt;br&gt;Percentage identity: 64&lt;br&gt;Percentage coverage: 98&lt;br&gt;BLAST bit score: 733&lt;br&gt;E-value: 4.48e-265" locus_tag="AGI62217.1" class="clusterblast-orf" id="dummy-6_h6_4_10"  />
</g>
<g id="a6_0011"  >
<polygon points="425,90 431,90 436,85 431,80 425,80 425,90 " style="fill:white; stroke-width:1; stroke:black; " description="&lt;b&gt;AGI62216.1&lt;/b&gt;&lt;br&gt;flavin reductase&lt;br&gt;Location: 11226 - 10636" locus_tag="AGI62216.1" class="clusterblast-orf" id="dummy-6_h6_4_11"  />
</g>
<g id="a6_0012"  >
<polygon points="436,85 441,80 450,80 450,90 441,90 436,85 " style="fill:white; stroke-width:1; stroke:black; " description="&lt;b&gt;AGI62215.1&lt;/b&gt;&lt;br&gt;putative ATP-binding ABC transporter&lt;br&gt;Location: 10675 - 9899" locus_tag="AGI62215.1" class="clusterblast-orf" id="dummy-6_h6_4_12"  />
</g>
<g id="a6_0013"  >
<polygon points="450,85 455,80 461,80 461,90 455,90 450,85 " style="fill:white; stroke-width:1; stroke:black; " description="&lt;b&gt;AGI62214.1&lt;/b&gt;&lt;br&gt;putative ATP-binding ABC transporter&lt;br&gt;Location: 9902 - 9378" locus_tag="AGI62214.1" class="clusterblast-orf" id="dummy-6_h6_4_13"  />
</g>
<g id="a6_0014"  >
<polygon points="466,90 489,90 494,85 489,80 466,80 466,90 " style="fill:white; stroke-width:1; stroke:black; " description="&lt;b&gt;AGI62213.1&lt;/b&gt;&lt;br&gt;tryptophan oxidase&lt;br&gt;Location: 9102 - 7660" locus_tag="AGI62213.1" class="clusterblast-orf" id="dummy-6_h6_4_14"  />
</g>
<g id="a6_0015"  >
<polygon points="494,90 552,90 557,85 552,80 494,80 494,90 " style="fill:white; stroke-width:1; stroke:black; " description="&lt;b&gt;AGI62212.1&lt;/b&gt;&lt;br&gt;chromopyrrolic acid synthase&lt;br&gt;Location: 7645 - 4355" locus_tag="AGI62212.1" class="clusterblast-orf" id="dummy-6_h6_4_15"  />
</g>
<g id="a6_0016"  >
<polygon points="559,90 578,90 583,85 578,80 559,80 559,90 " style="fill:white; stroke-width:1; stroke:black; " description="&lt;b&gt;AGI62211.1&lt;/b&gt;&lt;br&gt;RebP-like cytochrome P450&lt;br&gt;Location: 4284 - 3019" locus_tag="AGI62211.1" class="clusterblast-orf" id="dummy-6_h6_4_16"  />
</g>
<g id="a6_0017"  >
<polygon points="586,85 591,80 641,80 641,90 591,90 586,85 " style="fill:white; stroke-width:1; stroke:black; " description="&lt;b&gt;AGI62210.1&lt;/b&gt;&lt;br&gt;transcriptional regulatory protein&lt;br&gt;Location: 2877 - 1" locus_tag="AGI62210.1" class="clusterblast-orf" id="dummy-6_h6_4_17"  />
</g>
</svg>
