<svg xmlns="http://www.w3.org/2000/svg" xmlns:xlink="http://www.w3.org/1999/xlink" version="1.1" x="0" y="0" height="230" width="800" viewBox="0 0 800 230" preserveAspectRatio="none"  >
<g label="Query sequence" class="clusterblast-cluster"  >
<text x="5" y="20" class="clusterblast-acc"  >
Query sequence</text>
<line x1="10" y1="35" x2="778.0" y2="35" style="stroke-width:1; stroke:grey; "  />
<polygon points="70,35 75,30 76,30 76,40 75,40 70,35 " style="fill:white; stroke-width:1; stroke:black; " description="&lt;b&gt;LLPMBPKK_02177&lt;/b&gt;&lt;br&gt;5-dehydro-4-deoxyglucarate dehydratase&lt;br&gt;Location: 2510113 - 2511055" locus_tag="LLPMBPKK_02177" class="clusterblast-orf" id="dummy-12_q0_0_all"  />
<polygon points="78,40 78,40 83,35 78,30 78,30 78,40 " style="fill:white; stroke-width:1; stroke:black; " description="&lt;b&gt;LLPMBPKK_02178&lt;/b&gt;&lt;br&gt;NAD(P)-dependent oxidoreductase&lt;br&gt;Location: 2511287 - 2512097" locus_tag="LLPMBPKK_02178" class="clusterblast-orf" id="dummy-12_q1_0_all"  />
<polygon points="85,40 86,40 91,35 86,30 85,30 85,40 " style="fill:#d81515; stroke-width:1; stroke:black; " description="&lt;b&gt;LLPMBPKK_02179&lt;/b&gt;&lt;br&gt;DeoR/GlpR transcriptional regulator&lt;br&gt;Location: 2512373 - 2513186" locus_tag="LLPMBPKK_02179" class="clusterblast-orf" id="dummy-12_q2_0_all"  />
<polygon points="91,40 95,40 100,35 95,30 91,30 91,40 " style="fill:#15d815; stroke-width:1; stroke:black; " description="&lt;b&gt;LLPMBPKK_02180&lt;/b&gt;&lt;br&gt;sugar ABC transporter substrate-binding protein&lt;br&gt;Location: 2513275 - 2514646" locus_tag="LLPMBPKK_02180" class="clusterblast-orf" id="dummy-12_q3_0_all"  />
<polygon points="100,40 101,40 106,35 101,30 100,30 100,40 " style="fill:#1597d8; stroke-width:1; stroke:black; " description="&lt;b&gt;LLPMBPKK_02181&lt;/b&gt;&lt;br&gt;sugar ABC transporter permease&lt;br&gt;Location: 2514642 - 2515581" locus_tag="LLPMBPKK_02181" class="clusterblast-orf" id="dummy-12_q4_0_all"  />
<polygon points="106,40 107,40 112,35 107,30 106,30 106,40 " style="fill:#9715d8; stroke-width:1; stroke:black; " description="&lt;b&gt;LLPMBPKK_02182&lt;/b&gt;&lt;br&gt;integral membrane sugar transport protein&lt;br&gt;Location: 2515577 - 2516405" locus_tag="LLPMBPKK_02182" class="clusterblast-orf" id="dummy-12_q5_0_all"  />
<polygon points="112,40 114,40 119,35 114,30 112,30 112,40 " style="fill:#d89715; stroke-width:1; stroke:black; " description="&lt;b&gt;LLPMBPKK_02183&lt;/b&gt;&lt;br&gt;alcohol dehydrogenase&lt;br&gt;Location: 2516401 - 2517391" locus_tag="LLPMBPKK_02183" class="clusterblast-orf" id="dummy-12_q6_0_all"  />
<polygon points="119,40 122,40 127,35 122,30 119,30 119,40 " style="fill:white; stroke-width:1; stroke:black; " description="&lt;b&gt;LLPMBPKK_02184&lt;/b&gt;&lt;br&gt;transport-associated protein&lt;br&gt;Location: 2517461 - 2518685" locus_tag="LLPMBPKK_02184" class="clusterblast-orf" id="dummy-12_q7_0_all"  />
<polygon points="128,35 131,30 131,40 128,35 " style="fill:white; stroke-width:1; stroke:black; " description="&lt;b&gt;LLPMBPKK_02185&lt;/b&gt;&lt;br&gt;TetR/AcrR family transcriptional regulator&lt;br&gt;Location: 2518732 - 2519305" locus_tag="LLPMBPKK_02185" class="clusterblast-orf" id="dummy-12_q8_0_all"  />
<polygon points="132,35 137,30 142,30 142,40 137,40 132,35 " style="fill:white; stroke-width:1; stroke:black; " description="&lt;b&gt;LLPMBPKK_02186&lt;/b&gt;&lt;br&gt;hypothetical protein&lt;br&gt;Location: 2519411 - 2520863" locus_tag="LLPMBPKK_02186" class="clusterblast-orf" id="dummy-12_q9_0_all"  />
<polygon points="143,35 148,30 153,30 153,40 148,40 143,35 " style="fill:white; stroke-width:1; stroke:black; " description="&lt;b&gt;LLPMBPKK_02187&lt;/b&gt;&lt;br&gt;plasmid pRiA4b ORF-3 family protein&lt;br&gt;Location: 2521087 - 2522512" locus_tag="LLPMBPKK_02187" class="clusterblast-orf" id="dummy-12_q10_0_all"  />
<polygon points="155,40 162,40 167,35 162,30 155,30 155,40 " style="fill:white; stroke-width:1; stroke:black; " description="&lt;b&gt;LLPMBPKK_02188&lt;/b&gt;&lt;br&gt;large secreted protein&lt;br&gt;Location: 2522777 - 2524604" locus_tag="LLPMBPKK_02188" class="clusterblast-orf" id="dummy-12_q11_0_all"  />
<polygon points="167,35 171,30 171,40 167,35 " style="fill:white; stroke-width:1; stroke:black; " description="&lt;b&gt;LLPMBPKK_02189&lt;/b&gt;&lt;br&gt;hypothetical protein&lt;br&gt;Location: 2524691 - 2525225" locus_tag="LLPMBPKK_02189" class="clusterblast-orf" id="dummy-12_q12_0_all"  />
<polygon points="172,40 173,40 178,35 173,30 172,30 172,40 " style="fill:white; stroke-width:1; stroke:black; " description="&lt;b&gt;LLPMBPKK_02190&lt;/b&gt;&lt;br&gt;4-hydroxy-tetrahydrodipicolinate synthase&lt;br&gt;Location: 2525357 - 2526257" locus_tag="LLPMBPKK_02190" class="clusterblast-orf" id="dummy-12_q13_0_all"  />
<polygon points="178,35 183,30 188,30 188,40 183,40 178,35 " style="fill:#15d897; stroke-width:1; stroke:black; " description="&lt;b&gt;LLPMBPKK_02191&lt;/b&gt;&lt;br&gt;FAD-dependent oxidoreductase&lt;br&gt;Location: 2526267 - 2527743" locus_tag="LLPMBPKK_02191" class="clusterblast-orf" id="dummy-12_q14_0_all"  />
<polygon points="188,35 193,30 195,30 195,40 193,40 188,35 " style="fill:white; stroke-width:1; stroke:black; " description="&lt;b&gt;LLPMBPKK_02192&lt;/b&gt;&lt;br&gt;O-methyltransferase&lt;br&gt;Location: 2527739 - 2528768" locus_tag="LLPMBPKK_02192" class="clusterblast-orf" id="dummy-12_q15_0_all"  />
<polygon points="194,35 199,30 201,30 201,40 199,40 194,35 " style="fill:white; stroke-width:1; stroke:black; " description="&lt;b&gt;LLPMBPKK_02193&lt;/b&gt;&lt;br&gt;NAD(P)-dependent oxidoreductase&lt;br&gt;Location: 2528764 - 2529733" locus_tag="LLPMBPKK_02193" class="clusterblast-orf" id="dummy-12_q16_0_all"  />
<polygon points="201,35 206,30 220,30 220,40 206,40 201,35 " style="fill:white; stroke-width:1; stroke:black; " description="&lt;b&gt;LLPMBPKK_02194&lt;/b&gt;&lt;br&gt;alpha/beta fold hydrolase&lt;br&gt;Location: 2529725 - 2532581" locus_tag="LLPMBPKK_02194" class="clusterblast-orf" id="dummy-12_q17_0_all"  />
<polygon points="220,35 225,30 229,30 229,40 225,40 220,35 " style="fill:white; stroke-width:1; stroke:black; " description="&lt;b&gt;LLPMBPKK_02195&lt;/b&gt;&lt;br&gt;FAD-dependent oxidoreductase&lt;br&gt;Location: 2532577 - 2533861" locus_tag="LLPMBPKK_02195" class="clusterblast-orf" id="dummy-12_q18_0_all"  />
<polygon points="229,35 230,30 230,40 229,35 " style="fill:#1515d8; stroke-width:1; stroke:black; " description="&lt;b&gt;LLPMBPKK_02196&lt;/b&gt;&lt;br&gt;ferredoxin&lt;br&gt;Location: 2533875 - 2534070" locus_tag="LLPMBPKK_02196" class="clusterblast-orf" id="dummy-12_q19_0_all"  />
<polygon points="230,35 235,30 235,30 235,40 235,40 230,35 " style="fill:white; stroke-width:1; stroke:black; " description="&lt;b&gt;LLPMBPKK_02197&lt;/b&gt;&lt;br&gt;regulatory protein&lt;br&gt;Location: 2534081 - 2534903" locus_tag="LLPMBPKK_02197" class="clusterblast-orf" id="dummy-12_q20_0_all"  />
<polygon points="236,35 241,30 247,30 247,40 241,40 236,35 " style="fill:white; stroke-width:1; stroke:black; " description="&lt;b&gt;LLPMBPKK_02198&lt;/b&gt;&lt;br&gt;3-(3-hydroxy-phenyl)propionate/3-hydroxycinnamica cid hydroxylase&lt;br&gt;Location: 2534968 - 2536612" locus_tag="LLPMBPKK_02198" class="clusterblast-orf" id="dummy-12_q21_0_all"  />
<polygon points="247,35 252,30 254,30 254,40 252,40 247,35 " style="fill:white; stroke-width:1; stroke:black; " description="&lt;b&gt;LLPMBPKK_02199&lt;/b&gt;&lt;br&gt;oxidoreductase&lt;br&gt;Location: 2536626 - 2537607" locus_tag="LLPMBPKK_02199" class="clusterblast-orf" id="dummy-12_q22_0_all"  />
<polygon points="256,40 260,35 256,30 256,40 " style="fill:white; stroke-width:1; stroke:black; " description="&lt;b&gt;LLPMBPKK_02200&lt;/b&gt;&lt;br&gt;hypothetical protein&lt;br&gt;Location: 2537952 - 2538570" locus_tag="LLPMBPKK_02200" class="clusterblast-orf" id="dummy-12_q23_0_all"  />
<polygon points="261,40 311,40 316,35 311,30 261,30 261,40 " style="fill:#d81597; stroke-width:1; stroke:black; " description="&lt;b&gt;LLPMBPKK_02201&lt;/b&gt;&lt;br&gt;hypothetical protein&lt;br&gt;Location: 2538786 - 2547030" locus_tag="LLPMBPKK_02201" class="clusterblast-orf" id="dummy-12_q24_0_all"  />
<polygon points="317,40 394,40 399,35 394,30 317,30 317,40 " style="fill:#d81597; stroke-width:1; stroke:black; " description="&lt;b&gt;LLPMBPKK_02202&lt;/b&gt;&lt;br&gt;type I polyketide synthase&lt;br&gt;Location: 2547086 - 2559347" locus_tag="LLPMBPKK_02202" class="clusterblast-orf" id="dummy-12_q25_0_all"  />
<polygon points="399,40 427,40 432,35 427,30 399,30 399,40 " style="fill:#d81597; stroke-width:1; stroke:black; " description="&lt;b&gt;LLPMBPKK_02203&lt;/b&gt;&lt;br&gt;type I polyketide synthase&lt;br&gt;Location: 2559378 - 2564334" locus_tag="LLPMBPKK_02203" class="clusterblast-orf" id="dummy-12_q26_0_all"  />
<polygon points="432,40 466,40 471,35 466,30 432,30 432,40 " style="fill:#d81597; stroke-width:1; stroke:black; " description="&lt;b&gt;LLPMBPKK_02204&lt;/b&gt;&lt;br&gt;type I polyketide synthase&lt;br&gt;Location: 2564330 - 2570150" locus_tag="LLPMBPKK_02204" class="clusterblast-orf" id="dummy-12_q27_0_all"  />
<polygon points="471,40 508,40 513,35 508,30 471,30 471,40 " style="fill:#d81597; stroke-width:1; stroke:black; " description="&lt;b&gt;LLPMBPKK_02205&lt;/b&gt;&lt;br&gt;type I polyketide synthase&lt;br&gt;Location: 2570188 - 2576428" locus_tag="LLPMBPKK_02205" class="clusterblast-orf" id="dummy-12_q28_0_all"  />
<polygon points="513,40 516,40 521,35 516,30 513,30 513,40 " style="fill:white; stroke-width:1; stroke:black; " description="&lt;b&gt;LLPMBPKK_02206&lt;/b&gt;&lt;br&gt;cytochrome P450&lt;br&gt;Location: 2576482 - 2577718" locus_tag="LLPMBPKK_02206" class="clusterblast-orf" id="dummy-12_q29_0_all"  />
<polygon points="522,40 525,35 522,30 522,40 " style="fill:white; stroke-width:1; stroke:black; " description="&lt;b&gt;LLPMBPKK_02207&lt;/b&gt;&lt;br&gt;SnoaL-like domain protein&lt;br&gt;Location: 2577757 - 2578228" locus_tag="LLPMBPKK_02207" class="clusterblast-orf" id="dummy-12_q30_0_all"  />
<polygon points="525,40 526,40 531,35 526,30 525,30 525,40 " style="fill:white; stroke-width:1; stroke:black; " description="&lt;b&gt;LLPMBPKK_02208&lt;/b&gt;&lt;br&gt;SDR family oxidoreductase&lt;br&gt;Location: 2578309 - 2579110" locus_tag="LLPMBPKK_02208" class="clusterblast-orf" id="dummy-12_q31_0_all"  />
<polygon points="531,35 536,30 540,30 540,40 536,40 531,35 " style="fill:white; stroke-width:1; stroke:black; " description="&lt;b&gt;LLPMBPKK_02209&lt;/b&gt;&lt;br&gt;Bacterial regulatory proteins, luxR family&lt;br&gt;Location: 2579160 - 2580513" locus_tag="LLPMBPKK_02209" class="clusterblast-orf" id="dummy-12_q32_0_all"  />
<polygon points="543,40 546,40 551,35 546,30 543,30 543,40 " style="fill:white; stroke-width:1; stroke:black; " description="&lt;b&gt;LLPMBPKK_02210&lt;/b&gt;&lt;br&gt;transcriptional regulator&lt;br&gt;Location: 2581050 - 2582205" locus_tag="LLPMBPKK_02210" class="clusterblast-orf" id="dummy-12_q33_0_all"  />
<polygon points="551,40 552,40 557,35 552,30 551,30 551,40 " style="fill:white; stroke-width:1; stroke:black; " description="&lt;b&gt;LLPMBPKK_02211&lt;/b&gt;&lt;br&gt;3-oxoacyl-ACP reductase&lt;br&gt;Location: 2582238 - 2583024" locus_tag="LLPMBPKK_02211" class="clusterblast-orf" id="dummy-12_q34_0_all"  />
<polygon points="557,35 562,30 569,30 569,40 562,40 557,35 " style="fill:white; stroke-width:1; stroke:black; " description="&lt;b&gt;LLPMBPKK_02212&lt;/b&gt;&lt;br&gt;biotin/lipoyl-binding protein&lt;br&gt;Location: 2583043 - 2584816" locus_tag="LLPMBPKK_02212" class="clusterblast-orf" id="dummy-12_q35_0_all"  />
<polygon points="569,35 573,30 573,40 569,35 " style="fill:#97d815; stroke-width:1; stroke:black; " description="&lt;b&gt;LLPMBPKK_02213&lt;/b&gt;&lt;br&gt;4'-phosphopantetheinyl transferase superfamilyprotein&lt;br&gt;Location: 2584821 - 2585505" locus_tag="LLPMBPKK_02213" class="clusterblast-orf" id="dummy-12_q36_0_all"  />
<polygon points="573,35 578,30 580,30 580,40 578,40 573,35 " style="fill:white; stroke-width:1; stroke:black; " description="&lt;b&gt;LLPMBPKK_02214&lt;/b&gt;&lt;br&gt;3-oxoacyl-ACP synthase&lt;br&gt;Location: 2585497 - 2586580" locus_tag="LLPMBPKK_02214" class="clusterblast-orf" id="dummy-12_q37_0_all"  />
<polygon points="582,40 584,35 582,30 582,40 " style="fill:white; stroke-width:1; stroke:black; " description="&lt;b&gt;LLPMBPKK_02215&lt;/b&gt;&lt;br&gt;acyl carrier protein&lt;br&gt;Location: 2586825 - 2587098" locus_tag="LLPMBPKK_02215" class="clusterblast-orf" id="dummy-12_q38_0_all"  />
<polygon points="584,40 587,40 592,35 587,30 584,30 584,40 " style="fill:white; stroke-width:1; stroke:black; " description="&lt;b&gt;LLPMBPKK_02216&lt;/b&gt;&lt;br&gt;beta-ketoacyl-[acyl-carrier-protein] synthasefamily protein&lt;br&gt;Location: 2587090 - 2588317" locus_tag="LLPMBPKK_02216" class="clusterblast-orf" id="dummy-12_q39_0_all"  />
<polygon points="592,40 595,40 600,35 595,30 592,30 592,40 " style="fill:white; stroke-width:1; stroke:black; " description="&lt;b&gt;LLPMBPKK_02217&lt;/b&gt;&lt;br&gt;hypothetical protein&lt;br&gt;Location: 2588313 - 2589528" locus_tag="LLPMBPKK_02217" class="clusterblast-orf" id="dummy-12_q40_0_all"  />
<polygon points="601,40 601,40 606,35 601,30 601,30 601,40 " style="fill:white; stroke-width:1; stroke:black; " description="&lt;b&gt;LLPMBPKK_02218&lt;/b&gt;&lt;br&gt;transcriptional regulator&lt;br&gt;Location: 2589718 - 2590441" locus_tag="LLPMBPKK_02218" class="clusterblast-orf" id="dummy-12_q41_0_all"  />
<polygon points="606,35 611,30 611,30 611,40 611,40 606,35 " style="fill:white; stroke-width:1; stroke:black; " description="&lt;b&gt;LLPMBPKK_02219&lt;/b&gt;&lt;br&gt;short-chain dehydrogenase/reductase SDR&lt;br&gt;Location: 2590380 - 2591151" locus_tag="LLPMBPKK_02219" class="clusterblast-orf" id="dummy-12_q42_0_all"  />
<polygon points="611,35 616,30 617,30 617,40 616,40 611,35 " style="fill:white; stroke-width:1; stroke:black; " description="&lt;b&gt;LLPMBPKK_02220&lt;/b&gt;&lt;br&gt;butenolide phosphate reductase BprA&lt;br&gt;Location: 2591216 - 2592101" locus_tag="LLPMBPKK_02220" class="clusterblast-orf" id="dummy-12_q43_0_all"  />
<polygon points="617,35 621,30 621,40 617,35 " style="fill:white; stroke-width:1; stroke:black; " description="&lt;b&gt;LLPMBPKK_02221&lt;/b&gt;&lt;br&gt;TetR/AcrR family transcriptional regulator&lt;br&gt;Location: 2592097 - 2592727" locus_tag="LLPMBPKK_02221" class="clusterblast-orf" id="dummy-12_q44_0_all"  />
<polygon points="622,40 623,40 628,35 623,30 622,30 622,40 " style="fill:white; stroke-width:1; stroke:black; " description="&lt;b&gt;LLPMBPKK_02222&lt;/b&gt;&lt;br&gt;ScbA protein&lt;br&gt;Location: 2592851 - 2593775" locus_tag="LLPMBPKK_02222" class="clusterblast-orf" id="dummy-12_q45_0_all"  />
<polygon points="629,35 634,30 635,30 635,40 634,40 629,35 " style="fill:white; stroke-width:1; stroke:black; " description="&lt;b&gt;LLPMBPKK_02223&lt;/b&gt;&lt;br&gt;type 11 methyltransferase&lt;br&gt;Location: 2593908 - 2594754" locus_tag="LLPMBPKK_02223" class="clusterblast-orf" id="dummy-12_q46_0_all"  />
<polygon points="636,35 641,30 646,30 646,40 641,40 636,35 " style="fill:white; stroke-width:1; stroke:black; " description="&lt;b&gt;LLPMBPKK_02224&lt;/b&gt;&lt;br&gt;DHA2 family efflux MFS transporter permeasesubunit&lt;br&gt;Location: 2594904 - 2596410" locus_tag="LLPMBPKK_02224" class="clusterblast-orf" id="dummy-12_q47_0_all"  />
<polygon points="647,40 651,35 647,30 647,40 " style="fill:white; stroke-width:1; stroke:black; " description="&lt;b&gt;LLPMBPKK_02225&lt;/b&gt;&lt;br&gt;TetR family transcriptional regulator&lt;br&gt;Location: 2596528 - 2597149" locus_tag="LLPMBPKK_02225" class="clusterblast-orf" id="dummy-12_q48_0_all"  />
<polygon points="652,40 654,40 659,35 654,30 652,30 652,40 " style="fill:white; stroke-width:1; stroke:black; " description="&lt;b&gt;LLPMBPKK_02226&lt;/b&gt;&lt;br&gt;gamma-butyrolactone biosynthesis protein&lt;br&gt;Location: 2597336 - 2598362" locus_tag="LLPMBPKK_02226" class="clusterblast-orf" id="dummy-12_q49_0_all"  />
<polygon points="659,40 659,40 664,35 659,30 659,30 659,40 " style="fill:white; stroke-width:1; stroke:black; " description="&lt;b&gt;LLPMBPKK_02227&lt;/b&gt;&lt;br&gt;3-oxoacyl-[acyl-carrier-protein] reductase&lt;br&gt;Location: 2598410 - 2599115" locus_tag="LLPMBPKK_02227" class="clusterblast-orf" id="dummy-12_q50_0_all"  />
<polygon points="664,40 664,40 669,35 664,30 664,30 664,40 " style="fill:white; stroke-width:1; stroke:black; " description="&lt;b&gt;LLPMBPKK_02228&lt;/b&gt;&lt;br&gt;HAD family phosphatase&lt;br&gt;Location: 2599150 - 2599816" locus_tag="LLPMBPKK_02228" class="clusterblast-orf" id="dummy-12_q51_0_all"  />
<polygon points="669,40 671,40 676,35 671,30 669,30 669,40 " style="fill:white; stroke-width:1; stroke:black; " description="&lt;b&gt;LLPMBPKK_02229&lt;/b&gt;&lt;br&gt;hypothetical protein&lt;br&gt;Location: 2599848 - 2600850" locus_tag="LLPMBPKK_02229" class="clusterblast-orf" id="dummy-12_q52_0_all"  />
<polygon points="677,35 682,30 683,30 683,40 682,40 677,35 " style="fill:white; stroke-width:1; stroke:black; " description="&lt;b&gt;LLPMBPKK_02230&lt;/b&gt;&lt;br&gt;2,3,4,5-tetrahydropyridine-2,6-dicarboxylate N-succinyltransferase&lt;br&gt;Location: 2600980 - 2601967" locus_tag="LLPMBPKK_02230" class="clusterblast-orf" id="dummy-12_q53_0_all"  />
<polygon points="684,35 687,30 687,40 684,35 " style="fill:white; stroke-width:1; stroke:black; " description="&lt;b&gt;LLPMBPKK_02231&lt;/b&gt;&lt;br&gt;TetR family transcriptional regulator&lt;br&gt;Location: 2602031 - 2602568" locus_tag="LLPMBPKK_02231" class="clusterblast-orf" id="dummy-12_q54_0_all"  />
<polygon points="687,35 689,30 689,40 687,35 " style="fill:white; stroke-width:1; stroke:black; " description="&lt;b&gt;LLPMBPKK_02232&lt;/b&gt;&lt;br&gt;multidrug efflux SMR transporter&lt;br&gt;Location: 2602567 - 2602891" locus_tag="LLPMBPKK_02232" class="clusterblast-orf" id="dummy-12_q55_0_all"  />
<polygon points="690,40 690,40 695,35 690,30 690,30 690,40 " style="fill:white; stroke-width:1; stroke:black; " description="&lt;b&gt;LLPMBPKK_02233&lt;/b&gt;&lt;br&gt;alpha-L-arabinofuranosidase&lt;br&gt;Location: 2602997 - 2603738" locus_tag="LLPMBPKK_02233" class="clusterblast-orf" id="dummy-12_q56_0_all"  />
<polygon points="695,35 698,30 698,40 695,35 " style="fill:white; stroke-width:1; stroke:black; " description="&lt;b&gt;LLPMBPKK_02234&lt;/b&gt;&lt;br&gt;metal-sulfur cluster assembly factor&lt;br&gt;Location: 2603794 - 2604127" locus_tag="LLPMBPKK_02234" class="clusterblast-orf" id="dummy-12_q57_0_all"  />
<polygon points="698,35 701,30 701,40 698,35 " style="fill:white; stroke-width:1; stroke:black; " description="&lt;b&gt;LLPMBPKK_02235&lt;/b&gt;&lt;br&gt;SUF system NifU family Fe-S cluster assemblyprotein&lt;br&gt;Location: 2604123 - 2604576" locus_tag="LLPMBPKK_02235" class="clusterblast-orf" id="dummy-12_q58_0_all"  />
<polygon points="701,35 706,30 709,30 709,40 706,40 701,35 " style="fill:white; stroke-width:1; stroke:black; " description="&lt;b&gt;LLPMBPKK_02236&lt;/b&gt;&lt;br&gt;cysteine desulfurase&lt;br&gt;Location: 2604607 - 2605864" locus_tag="LLPMBPKK_02236" class="clusterblast-orf" id="dummy-12_q59_0_all"  />
</g>
<g label="BGC0001013" description="BGC0001013_c1: meridamycin (11% of genes show similarity), NRP+Polyketide" class="clusterblast-cluster"  >
<text x="5" y="70" class="clusterblast-acc"  >
<a xlink:href="https://mibig.secondarymetabolites.org/go/BGC0001013/1" target="_blank">BGC0001013</a>:                                                                      meridamycin (11% of genes show similarity), NRP+Polyketide</text>
<line x1="10" y1="85" x2="778.0" y2="85" style="stroke-width:1; stroke:grey; "  />
</g>
<g id="a12_000"  >
<polygon points="0,90 3,85 0,80 0,90 " style="fill:white; stroke-width:1; stroke:black; " description="&lt;b&gt;ctg1_orf1&lt;/b&gt;&lt;br&gt;&lt;br&gt;Location: 1 - 585" locus_tag="ctg1_orf1" class="clusterblast-orf" id="dummy-12_h12_7_0"  />
</g>
<g id="a12_001"  >
<polygon points="0,90 4,85 0,80 0,90 " style="fill:white; stroke-width:1; stroke:black; " description="&lt;b&gt;ctg1_orf16&lt;/b&gt;&lt;br&gt;&lt;br&gt;Location: 115 - 702" locus_tag="ctg1_orf16" class="clusterblast-orf" id="dummy-12_h12_7_1"  />
</g>
<g id="a12_002"  >
<polygon points="3,90 5,90 10,85 5,80 3,80 3,90 " style="fill:white; stroke-width:1; stroke:black; " description="&lt;b&gt;ctg1_orf2&lt;/b&gt;&lt;br&gt;&lt;br&gt;Location: 589 - 1530" locus_tag="ctg1_orf2" class="clusterblast-orf" id="dummy-12_h12_7_2"  />
</g>
<g id="a12_003"  >
<polygon points="5,90 7,90 12,85 7,80 5,80 5,90 " style="fill:white; stroke-width:1; stroke:black; " description="&lt;b&gt;ctg1_orf17&lt;/b&gt;&lt;br&gt;&lt;br&gt;Location: 865 - 1812" locus_tag="ctg1_orf17" class="clusterblast-orf" id="dummy-12_h12_7_3"  />
</g>
<g id="a12_004"  >
<polygon points="11,90 36,90 41,85 36,80 11,80 11,90 " style="fill:white; stroke-width:1; stroke:black; " description="&lt;b&gt;ctg1_orf3&lt;/b&gt;&lt;br&gt;&lt;br&gt;Location: 1782 - 6170" locus_tag="ctg1_orf3" class="clusterblast-orf" id="dummy-12_h12_7_4"  />
</g>
<g id="a12_005"  >
<polygon points="13,90 17,90 22,85 17,80 13,80 13,90 " style="fill:white; stroke-width:1; stroke:black; " description="&lt;b&gt;ctg1_orf18&lt;/b&gt;&lt;br&gt;&lt;br&gt;Location: 2069 - 3409" locus_tag="ctg1_orf18" class="clusterblast-orf" id="dummy-12_h12_7_5"  />
</g>
<g id="a12_006"  >
<polygon points="23,90 25,90 30,85 25,80 23,80 23,90 " style="fill:white; stroke-width:1; stroke:black; " description="&lt;b&gt;ctg1_orf19&lt;/b&gt;&lt;br&gt;&lt;br&gt;Location: 3548 - 4573" locus_tag="ctg1_orf19" class="clusterblast-orf" id="dummy-12_h12_7_6"  />
</g>
<g id="a12_007"  >
<polygon points="31,90 130,90 135,85 130,80 31,80 31,90 " style="fill:#d81597; stroke-width:1; stroke:black; " description="&lt;b&gt;ctg1_orf20&lt;/b&gt;&lt;br&gt;&lt;br&gt;Location: 4729 - 20232&lt;br&gt;&lt;br&gt;&lt;b&gt;BlastP hit with LLPMBPKK_02201&lt;/b&gt;&lt;br&gt;Percentage identity: 49&lt;br&gt;Percentage coverage: 99&lt;br&gt;BLAST bit score: 2171&lt;br&gt;E-value: 0.0&lt;br&gt;&lt;br&gt;&lt;b&gt;BlastP hit with LLPMBPKK_02203&lt;/b&gt;&lt;br&gt;Percentage identity: 50&lt;br&gt;Percentage coverage: 102&lt;br&gt;BLAST bit score: 1344&lt;br&gt;E-value: 0.0&lt;br&gt;&lt;br&gt;&lt;b&gt;BlastP hit with LLPMBPKK_02204&lt;/b&gt;&lt;br&gt;Percentage identity: 49&lt;br&gt;Percentage coverage: 98&lt;br&gt;BLAST bit score: 1470&lt;br&gt;E-value: 0.0" locus_tag="ctg1_orf20" class="clusterblast-orf" id="dummy-12_h12_7_7"  />
</g>
<g id="a12_008"  >
<polygon points="41,90 67,90 72,85 67,80 41,80 41,90 " style="fill:white; stroke-width:1; stroke:black; " description="&lt;b&gt;ctg1_orf4&lt;/b&gt;&lt;br&gt;&lt;br&gt;Location: 6284 - 10861" locus_tag="ctg1_orf4" class="clusterblast-orf" id="dummy-12_h12_7_8"  />
</g>
<g id="a12_009"  >
<polygon points="72,90 72,90 77,85 72,80 72,80 72,90 " style="fill:white; stroke-width:1; stroke:black; " description="&lt;b&gt;ctg1_orf5&lt;/b&gt;&lt;br&gt;&lt;br&gt;Location: 10872 - 11597" locus_tag="ctg1_orf5" class="clusterblast-orf" id="dummy-12_h12_7_9"  />
</g>
<g id="a12_0010"  >
<polygon points="77,90 79,85 77,80 77,90 " style="fill:white; stroke-width:1; stroke:black; " description="&lt;b&gt;ctg1_orf6&lt;/b&gt;&lt;br&gt;&lt;br&gt;Location: 11629 - 11943" locus_tag="ctg1_orf6" class="clusterblast-orf" id="dummy-12_h12_7_10"  />
</g>
<g id="a12_0011"  >
<polygon points="80,90 82,85 80,80 80,90 " style="fill:white; stroke-width:1; stroke:black; " description="&lt;b&gt;ctg1_orf7&lt;/b&gt;&lt;br&gt;&lt;br&gt;Location: 12016 - 12315" locus_tag="ctg1_orf7" class="clusterblast-orf" id="dummy-12_h12_7_11"  />
</g>
<g id="a12_0012"  >
<polygon points="83,90 84,90 89,85 84,80 83,80 83,90 " style="fill:white; stroke-width:1; stroke:black; " description="&lt;b&gt;ctg1_orf8&lt;/b&gt;&lt;br&gt;&lt;br&gt;Location: 12534 - 13403" locus_tag="ctg1_orf8" class="clusterblast-orf" id="dummy-12_h12_7_12"  />
</g>
<g id="a12_0013"  >
<polygon points="90,90 94,90 99,85 94,80 90,80 90,90 " style="fill:white; stroke-width:1; stroke:black; " description="&lt;b&gt;ctg1_orf9&lt;/b&gt;&lt;br&gt;&lt;br&gt;Location: 13633 - 14859" locus_tag="ctg1_orf9" class="clusterblast-orf" id="dummy-12_h12_7_13"  />
</g>
<g id="a12_0014"  >
<polygon points="101,90 102,90 107,85 102,80 101,80 101,90 " style="fill:white; stroke-width:1; stroke:black; " description="&lt;b&gt;ctg1_orf10&lt;/b&gt;&lt;br&gt;&lt;br&gt;Location: 15266 - 16168" locus_tag="ctg1_orf10" class="clusterblast-orf" id="dummy-12_h12_7_14"  />
</g>
<g id="a12_0015"  >
<polygon points="109,90 111,85 109,80 109,90 " style="fill:white; stroke-width:1; stroke:black; " description="&lt;b&gt;ctg1_orf11&lt;/b&gt;&lt;br&gt;&lt;br&gt;Location: 16391 - 16678" locus_tag="ctg1_orf11" class="clusterblast-orf" id="dummy-12_h12_7_15"  />
</g>
<g id="a12_0016"  >
<polygon points="112,90 112,90 117,85 112,80 112,80 112,90 " style="fill:white; stroke-width:1; stroke:black; " description="&lt;b&gt;ctg1_orf12&lt;/b&gt;&lt;br&gt;&lt;br&gt;Location: 16794 - 17654" locus_tag="ctg1_orf12" class="clusterblast-orf" id="dummy-12_h12_7_16"  />
</g>
<g id="a12_0017"  >
<polygon points="118,90 122,85 118,80 118,90 " style="fill:white; stroke-width:1; stroke:black; " description="&lt;b&gt;ctg1_orf13&lt;/b&gt;&lt;br&gt;&lt;br&gt;Location: 17770 - 18426" locus_tag="ctg1_orf13" class="clusterblast-orf" id="dummy-12_h12_7_17"  />
</g>
<g id="a12_0018"  >
<polygon points="123,90 125,85 123,80 123,90 " style="fill:white; stroke-width:1; stroke:black; " description="&lt;b&gt;ctg1_orf14&lt;/b&gt;&lt;br&gt;&lt;br&gt;Location: 18540 - 18857" locus_tag="ctg1_orf14" class="clusterblast-orf" id="dummy-12_h12_7_18"  />
</g>
<g id="a12_0019"  >
<polygon points="132,90 169,90 174,85 169,80 132,80 132,90 " style="fill:white; stroke-width:1; stroke:black; " description="&lt;b&gt;ctg1_orf15&lt;/b&gt;&lt;br&gt;&lt;br&gt;Location: 19900 - 26181" locus_tag="ctg1_orf15" class="clusterblast-orf" id="dummy-12_h12_7_19"  />
</g>
<g id="a12_0020"  >
<polygon points="135,90 136,85 135,80 135,90 " style="fill:#d81597; stroke-width:1; stroke:black; " description="&lt;b&gt;ctg1_orf21&lt;/b&gt;&lt;br&gt;&lt;br&gt;Location: 20229 - 20438&lt;br&gt;&lt;br&gt;&lt;b&gt;BlastP hit with LLPMBPKK_02202&lt;/b&gt;&lt;br&gt;Percentage identity: 51&lt;br&gt;Percentage coverage: 99&lt;br&gt;BLAST bit score: 3393&lt;br&gt;E-value: 0.0&lt;br&gt;&lt;br&gt;&lt;b&gt;BlastP hit with LLPMBPKK_02203&lt;/b&gt;&lt;br&gt;Percentage identity: 49&lt;br&gt;Percentage coverage: 97&lt;br&gt;BLAST bit score: 1204&lt;br&gt;E-value: 0.0&lt;br&gt;&lt;br&gt;&lt;b&gt;BlastP hit with LLPMBPKK_02204&lt;/b&gt;&lt;br&gt;Percentage identity: 50&lt;br&gt;Percentage coverage: 99&lt;br&gt;BLAST bit score: 1551&lt;br&gt;E-value: 0.0&lt;br&gt;&lt;br&gt;&lt;b&gt;BlastP hit with LLPMBPKK_02205&lt;/b&gt;&lt;br&gt;Percentage identity: 49&lt;br&gt;Percentage coverage: 86&lt;br&gt;BLAST bit score: 1404&lt;br&gt;E-value: 0.0" locus_tag="ctg1_orf21" class="clusterblast-orf" id="dummy-12_h12_7_20"  />
</g>
<g id="a12_0021"  >
<polygon points="137,90 144,90 149,85 144,80 137,80 137,90 " style="fill:#d81597; stroke-width:1; stroke:black; " description="&lt;b&gt;ctg1_orf22&lt;/b&gt;&lt;br&gt;&lt;br&gt;Location: 20583 - 22415&lt;br&gt;&lt;br&gt;&lt;b&gt;BlastP hit with LLPMBPKK_02203&lt;/b&gt;&lt;br&gt;Percentage identity: 51&lt;br&gt;Percentage coverage: 96&lt;br&gt;BLAST bit score: 1326&lt;br&gt;E-value: 0.0" locus_tag="ctg1_orf22" class="clusterblast-orf" id="dummy-12_h12_7_21"  />
</g>
<g id="a12_0022"  >
<polygon points="149,90 156,90 161,85 156,80 149,80 149,90 " style="fill:#d81597; stroke-width:1; stroke:black; " description="&lt;b&gt;ctg1_orf23&lt;/b&gt;&lt;br&gt;&lt;br&gt;Location: 22471 - 24183&lt;br&gt;&lt;br&gt;&lt;b&gt;BlastP hit with LLPMBPKK_02202&lt;/b&gt;&lt;br&gt;Percentage identity: 48&lt;br&gt;Percentage coverage: 73&lt;br&gt;BLAST bit score: 2267&lt;br&gt;E-value: 0.0&lt;br&gt;&lt;br&gt;&lt;b&gt;BlastP hit with LLPMBPKK_02203&lt;/b&gt;&lt;br&gt;Percentage identity: 61&lt;br&gt;Percentage coverage: 57&lt;br&gt;BLAST bit score: 1030&lt;br&gt;E-value: 0.0&lt;br&gt;&lt;br&gt;&lt;b&gt;BlastP hit with LLPMBPKK_02204&lt;/b&gt;&lt;br&gt;Percentage identity: 48&lt;br&gt;Percentage coverage: 64&lt;br&gt;BLAST bit score: 988&lt;br&gt;E-value: 7.43e-314&lt;br&gt;&lt;br&gt;&lt;b&gt;BlastP hit with LLPMBPKK_02205&lt;/b&gt;&lt;br&gt;Percentage identity: 51&lt;br&gt;Percentage coverage: 76&lt;br&gt;BLAST bit score: 1297&lt;br&gt;E-value: 0.0" locus_tag="ctg1_orf23" class="clusterblast-orf" id="dummy-12_h12_7_22"  />
</g>
<g id="a12_0023"  >
<polygon points="163,90 164,90 169,85 164,80 163,80 163,90 " style="fill:white; stroke-width:1; stroke:black; " description="&lt;b&gt;ctg1_orf24&lt;/b&gt;&lt;br&gt;&lt;br&gt;Location: 24470 - 25465" locus_tag="ctg1_orf24" class="clusterblast-orf" id="dummy-12_h12_7_23"  />
</g>
<g id="a12_0024"  >
<polygon points="169,90 172,90 177,85 172,80 169,80 169,90 " style="fill:white; stroke-width:1; stroke:black; " description="&lt;b&gt;ctg1_orf25&lt;/b&gt;&lt;br&gt;&lt;br&gt;Location: 25462 - 26601" locus_tag="ctg1_orf25" class="clusterblast-orf" id="dummy-12_h12_7_24"  />
</g>
<g id="a12_0025"  >
<polygon points="177,90 178,90 183,85 178,80 177,80 177,90 " style="fill:white; stroke-width:1; stroke:black; " description="&lt;b&gt;ctg1_orf26&lt;/b&gt;&lt;br&gt;&lt;br&gt;Location: 26598 - 27476" locus_tag="ctg1_orf26" class="clusterblast-orf" id="dummy-12_h12_7_25"  />
</g>
<g id="a12_0026"  >
<polygon points="183,90 189,90 194,85 189,80 183,80 183,90 " style="fill:white; stroke-width:1; stroke:black; " description="&lt;b&gt;ctg1_orf27&lt;/b&gt;&lt;br&gt;&lt;br&gt;Location: 27494 - 29074" locus_tag="ctg1_orf27" class="clusterblast-orf" id="dummy-12_h12_7_26"  />
</g>
<g id="a12_0027"  >
<polygon points="195,90 199,85 195,80 195,90 " style="fill:white; stroke-width:1; stroke:black; " description="&lt;b&gt;ctg1_orf28&lt;/b&gt;&lt;br&gt;&lt;br&gt;Location: 29355 - 29921" locus_tag="ctg1_orf28" class="clusterblast-orf" id="dummy-12_h12_7_27"  />
</g>
<g id="a12_0028"  >
<polygon points="306,90 308,90 313,85 308,80 306,80 306,90 " style="fill:white; stroke-width:1; stroke:black; " description="&lt;b&gt;ctg1_orf29&lt;/b&gt;&lt;br&gt;&lt;br&gt;Location: 45848 - 46969" locus_tag="ctg1_orf29" class="clusterblast-orf" id="dummy-12_h12_7_28"  />
</g>
<g id="a12_0029"  >
<polygon points="315,90 315,90 320,85 315,80 315,80 315,90 " style="fill:white; stroke-width:1; stroke:black; " description="&lt;b&gt;ctg1_orf30&lt;/b&gt;&lt;br&gt;&lt;br&gt;Location: 47199 - 48008" locus_tag="ctg1_orf30" class="clusterblast-orf" id="dummy-12_h12_7_29"  />
</g>
<g id="a12_0030"  >
<polygon points="320,90 322,90 327,85 322,80 320,80 320,90 " style="fill:white; stroke-width:1; stroke:black; " description="&lt;b&gt;ctg1_orf31&lt;/b&gt;&lt;br&gt;&lt;br&gt;Location: 48005 - 49075" locus_tag="ctg1_orf31" class="clusterblast-orf" id="dummy-12_h12_7_30"  />
</g>
<g id="a12_0031"  >
<polygon points="327,90 329,90 334,85 329,80 327,80 327,90 " style="fill:white; stroke-width:1; stroke:black; " description="&lt;b&gt;ctg1_orf32&lt;/b&gt;&lt;br&gt;&lt;br&gt;Location: 49072 - 50085" locus_tag="ctg1_orf32" class="clusterblast-orf" id="dummy-12_h12_7_31"  />
</g>
<g id="a12_0032"  >
<polygon points="335,90 337,90 342,85 337,80 335,80 335,90 " style="fill:white; stroke-width:1; stroke:black; " description="&lt;b&gt;ctg1_orf33&lt;/b&gt;&lt;br&gt;&lt;br&gt;Location: 50268 - 51269" locus_tag="ctg1_orf33" class="clusterblast-orf" id="dummy-12_h12_7_32"  />
</g>
<g id="a12_0033"  >
<polygon points="343,90 343,90 348,85 343,80 343,80 343,90 " style="fill:white; stroke-width:1; stroke:black; " description="&lt;b&gt;ctg1_orf34&lt;/b&gt;&lt;br&gt;&lt;br&gt;Location: 51484 - 52260" locus_tag="ctg1_orf34" class="clusterblast-orf" id="dummy-12_h12_7_33"  />
</g>
<g id="a12_0034"  >
<polygon points="350,90 353,85 350,80 350,90 " style="fill:white; stroke-width:1; stroke:black; " description="&lt;b&gt;ctg1_orf35&lt;/b&gt;&lt;br&gt;&lt;br&gt;Location: 52517 - 52897" locus_tag="ctg1_orf35" class="clusterblast-orf" id="dummy-12_h12_7_34"  />
</g>
<g id="a12_0035"  >
<polygon points="353,90 354,90 359,85 354,80 353,80 353,90 " style="fill:white; stroke-width:1; stroke:black; " description="&lt;b&gt;ctg1_orf36&lt;/b&gt;&lt;br&gt;&lt;br&gt;Location: 52958 - 53785" locus_tag="ctg1_orf36" class="clusterblast-orf" id="dummy-12_h12_7_35"  />
</g>
<g id="a12_0036"  >
<polygon points="360,90 364,85 360,80 360,90 " style="fill:white; stroke-width:1; stroke:black; " description="&lt;b&gt;ctg1_orf37&lt;/b&gt;&lt;br&gt;&lt;br&gt;Location: 54012 - 54671" locus_tag="ctg1_orf37" class="clusterblast-orf" id="dummy-12_h12_7_36"  />
</g>
<g id="a12_0037"  >
<polygon points="742,90 745,85 742,80 742,90 " style="fill:white; stroke-width:1; stroke:black; " description="&lt;b&gt;ctg1_orf38&lt;/b&gt;&lt;br&gt;&lt;br&gt;Location: 111218 - 111718" locus_tag="ctg1_orf38" class="clusterblast-orf" id="dummy-12_h12_7_37"  />
</g>
<g id="a12_0038"  >
<polygon points="745,90 750,90 755,85 750,80 745,80 745,90 " style="fill:#15d897; stroke-width:1; stroke:black; " description="&lt;b&gt;ctg1_orf39&lt;/b&gt;&lt;br&gt;&lt;br&gt;Location: 111715 - 113226&lt;br&gt;&lt;br&gt;&lt;b&gt;BlastP hit with LLPMBPKK_02191&lt;/b&gt;&lt;br&gt;Percentage identity: 47&lt;br&gt;Percentage coverage: 96&lt;br&gt;BLAST bit score: 344&lt;br&gt;E-value: 3.37e-113" locus_tag="ctg1_orf39" class="clusterblast-orf" id="dummy-12_h12_7_38"  />
</g>
<g id="a12_0039"  >
<polygon points="756,90 759,85 756,80 756,90 " style="fill:white; stroke-width:1; stroke:black; " description="&lt;b&gt;ctg1_orf40&lt;/b&gt;&lt;br&gt;&lt;br&gt;Location: 113276 - 113734" locus_tag="ctg1_orf40" class="clusterblast-orf" id="dummy-12_h12_7_39"  />
</g>
<g id="a12_0040"  >
<polygon points="760,90 771,90 776,85 771,80 760,80 760,90 " style="fill:white; stroke-width:1; stroke:black; " description="&lt;b&gt;ctg1_orf41&lt;/b&gt;&lt;br&gt;&lt;br&gt;Location: 113916 - 116315" locus_tag="ctg1_orf41" class="clusterblast-orf" id="dummy-12_h12_7_40"  />
</g>
<g id="a12_0041"  >
<polygon points="777,90 780,85 777,80 777,90 " style="fill:white; stroke-width:1; stroke:black; " description="&lt;b&gt;ctg1_orf42&lt;/b&gt;&lt;br&gt;&lt;br&gt;Location: 116442 - 116855" locus_tag="ctg1_orf42" class="clusterblast-orf" id="dummy-12_h12_7_41"  />
</g>
</svg>
