<svg xmlns="http://www.w3.org/2000/svg" xmlns:xlink="http://www.w3.org/1999/xlink" version="1.1" x="0" y="0" height="230" width="800" viewBox="0 0 800 230" preserveAspectRatio="none"  >
<g label="Query sequence" class="clusterblast-cluster"  >
<text x="5" y="20" class="clusterblast-acc"  >
Query sequence</text>
<line x1="10" y1="35" x2="778.0" y2="35" style="stroke-width:1; stroke:grey; "  />
<polygon points="217,35 222,30 241,30 241,40 222,40 217,35 " style="fill:white; stroke-width:1; stroke:black; " description="&lt;b&gt;LLPMBPKK_05989&lt;/b&gt;&lt;br&gt;ATP-dependent RNA helicase RhlB&lt;br&gt;Location: 6863825 - 6869177" locus_tag="LLPMBPKK_05989" class="clusterblast-orf" id="dummy-22_q0_0_all"  />
<polygon points="241,35 245,30 245,40 241,35 " style="fill:white; stroke-width:1; stroke:black; " description="&lt;b&gt;LLPMBPKK_05990&lt;/b&gt;&lt;br&gt;serine/threonine protein kinase&lt;br&gt;Location: 6869173 - 6870160" locus_tag="LLPMBPKK_05990" class="clusterblast-orf" id="dummy-22_q1_0_all"  />
<polygon points="247,40 248,40 253,35 248,30 247,30 247,40 " style="fill:white; stroke-width:1; stroke:black; " description="&lt;b&gt;LLPMBPKK_05991&lt;/b&gt;&lt;br&gt;transmembrane transport protein&lt;br&gt;Location: 6870631 - 6871927" locus_tag="LLPMBPKK_05991" class="clusterblast-orf" id="dummy-22_q2_0_all"  />
<polygon points="253,40 257,35 253,30 253,40 " style="fill:white; stroke-width:1; stroke:black; " description="&lt;b&gt;LLPMBPKK_05992&lt;/b&gt;&lt;br&gt;Bacterial regulatory proteins, luxR family&lt;br&gt;Location: 6872042 - 6872930" locus_tag="LLPMBPKK_05992" class="clusterblast-orf" id="dummy-22_q3_0_all"  />
<polygon points="259,40 263,35 259,30 259,40 " style="fill:white; stroke-width:1; stroke:black; " description="&lt;b&gt;LLPMBPKK_05993&lt;/b&gt;&lt;br&gt;hypothetical protein&lt;br&gt;Location: 6873290 - 6874082" locus_tag="LLPMBPKK_05993" class="clusterblast-orf" id="dummy-22_q4_0_all"  />
<polygon points="263,40 266,40 271,35 266,30 263,30 263,40 " style="fill:white; stroke-width:1; stroke:black; " description="&lt;b&gt;LLPMBPKK_05994&lt;/b&gt;&lt;br&gt;asparagine synthase (glutamine-hydrolyzing)&lt;br&gt;Location: 6874081 - 6875923" locus_tag="LLPMBPKK_05994" class="clusterblast-orf" id="dummy-22_q5_0_all"  />
<polygon points="271,40 273,35 271,30 271,40 " style="fill:white; stroke-width:1; stroke:black; " description="&lt;b&gt;LLPMBPKK_05995&lt;/b&gt;&lt;br&gt;flavin reductase&lt;br&gt;Location: 6875919 - 6876489" locus_tag="LLPMBPKK_05995" class="clusterblast-orf" id="dummy-22_q6_0_all"  />
<polygon points="273,40 275,40 280,35 275,30 273,30 273,40 " style="fill:white; stroke-width:1; stroke:black; " description="&lt;b&gt;LLPMBPKK_05996&lt;/b&gt;&lt;br&gt;Anthranilate 3-monooxygenase oxygenase component&lt;br&gt;Location: 6876485 - 6877997" locus_tag="LLPMBPKK_05996" class="clusterblast-orf" id="dummy-22_q7_0_all"  />
<polygon points="280,40 284,35 280,30 280,40 " style="fill:white; stroke-width:1; stroke:black; " description="&lt;b&gt;LLPMBPKK_05997&lt;/b&gt;&lt;br&gt;hypothetical protein&lt;br&gt;Location: 6877993 - 6878839" locus_tag="LLPMBPKK_05997" class="clusterblast-orf" id="dummy-22_q8_0_all"  />
<polygon points="284,40 288,35 284,30 284,40 " style="fill:white; stroke-width:1; stroke:black; " description="&lt;b&gt;LLPMBPKK_05998&lt;/b&gt;&lt;br&gt;DNA-binding protein, mmyb&lt;br&gt;Location: 6878957 - 6879821" locus_tag="LLPMBPKK_05998" class="clusterblast-orf" id="dummy-22_q9_0_all"  />
<polygon points="288,35 293,30 294,30 294,40 293,40 288,35 " style="fill:white; stroke-width:1; stroke:black; " description="&lt;b&gt;LLPMBPKK_05999&lt;/b&gt;&lt;br&gt;Purine efflux pump PbuE&lt;br&gt;Location: 6879898 - 6881158" locus_tag="LLPMBPKK_05999" class="clusterblast-orf" id="dummy-22_q10_0_all"  />
<polygon points="295,40 295,40 300,35 295,30 295,30 295,40 " style="fill:white; stroke-width:1; stroke:black; " description="&lt;b&gt;LLPMBPKK_06000&lt;/b&gt;&lt;br&gt;luciferase family protein&lt;br&gt;Location: 6881385 - 6882399" locus_tag="LLPMBPKK_06000" class="clusterblast-orf" id="dummy-22_q11_0_all"  />
<polygon points="300,40 301,35 300,30 300,40 " style="fill:white; stroke-width:1; stroke:black; " description="&lt;b&gt;LLPMBPKK_06001&lt;/b&gt;&lt;br&gt;Class-II DAHP synthetase family protein&lt;br&gt;Location: 6882429 - 6882633" locus_tag="LLPMBPKK_06001" class="clusterblast-orf" id="dummy-22_q12_0_all"  />
<polygon points="301,40 304,35 301,30 301,40 " style="fill:white; stroke-width:1; stroke:black; " description="&lt;b&gt;LLPMBPKK_06002&lt;/b&gt;&lt;br&gt;methylenetetrahydrofolate reductase [NAD(P)H]&lt;br&gt;Location: 6882629 - 6883403" locus_tag="LLPMBPKK_06002" class="clusterblast-orf" id="dummy-22_q13_0_all"  />
<polygon points="304,40 374,40 379,35 374,30 304,30 304,40 " style="fill:#d81515; stroke-width:1; stroke:black; " description="&lt;b&gt;LLPMBPKK_06003&lt;/b&gt;&lt;br&gt;3-ketoacyl-CoA thiolase&lt;br&gt;Location: 6883432 - 6900247" locus_tag="LLPMBPKK_06003" class="clusterblast-orf" id="dummy-22_q14_0_all"  />
<polygon points="379,40 418,40 423,35 418,30 379,30 379,40 " style="fill:#d81515; stroke-width:1; stroke:black; " description="&lt;b&gt;LLPMBPKK_06004&lt;/b&gt;&lt;br&gt;3-ketoacyl-CoA thiolase&lt;br&gt;Location: 6900327 - 6910182" locus_tag="LLPMBPKK_06004" class="clusterblast-orf" id="dummy-22_q15_0_all"  />
<polygon points="423,40 471,40 476,35 471,30 423,30 423,40 " style="fill:#d81515; stroke-width:1; stroke:black; " description="&lt;b&gt;LLPMBPKK_06005&lt;/b&gt;&lt;br&gt;hypothetical protein&lt;br&gt;Location: 6910181 - 6922112" locus_tag="LLPMBPKK_06005" class="clusterblast-orf" id="dummy-22_q16_0_all"  />
<polygon points="476,40 478,35 476,30 476,40 " style="fill:white; stroke-width:1; stroke:black; " description="&lt;b&gt;LLPMBPKK_06006&lt;/b&gt;&lt;br&gt;SnoaL-like domain protein&lt;br&gt;Location: 6922113 - 6922569" locus_tag="LLPMBPKK_06006" class="clusterblast-orf" id="dummy-22_q17_0_all"  />
<polygon points="479,35 484,30 498,30 498,40 484,40 479,35 " style="fill:white; stroke-width:1; stroke:black; " description="&lt;b&gt;LLPMBPKK_06007&lt;/b&gt;&lt;br&gt;Chaperone protein HtpG&lt;br&gt;Location: 6922635 - 6926934" locus_tag="LLPMBPKK_06007" class="clusterblast-orf" id="dummy-22_q18_0_all"  />
<polygon points="498,35 499,30 499,40 498,35 " style="fill:white; stroke-width:1; stroke:black; " description="&lt;b&gt;LLPMBPKK_06008&lt;/b&gt;&lt;br&gt;hypothetical protein&lt;br&gt;Location: 6926930 - 6927302" locus_tag="LLPMBPKK_06008" class="clusterblast-orf" id="dummy-22_q19_0_all"  />
<polygon points="500,35 505,30 505,30 505,40 505,40 500,35 " style="fill:#3cd815; stroke-width:1; stroke:black; " description="&lt;b&gt;LLPMBPKK_06009&lt;/b&gt;&lt;br&gt;methylmalonyl Co-A mutase-associated GTPase MeaB&lt;br&gt;Location: 6927450 - 6928455" locus_tag="LLPMBPKK_06009" class="clusterblast-orf" id="dummy-22_q20_0_all"  />
<polygon points="505,35 510,30 514,30 514,40 510,40 505,35 " style="fill:#1563d8; stroke-width:1; stroke:black; " description="&lt;b&gt;LLPMBPKK_06010&lt;/b&gt;&lt;br&gt;methylmalonyl-CoA mutase&lt;br&gt;Location: 6928462 - 6930637" locus_tag="LLPMBPKK_06010" class="clusterblast-orf" id="dummy-22_q21_0_all"  />
<polygon points="514,35 519,30 522,30 522,40 519,40 514,35 " style="fill:#b115d8; stroke-width:1; stroke:black; " description="&lt;b&gt;LLPMBPKK_06011&lt;/b&gt;&lt;br&gt;methylmalonyl-CoA mutase subunit beta&lt;br&gt;Location: 6930636 - 6932445" locus_tag="LLPMBPKK_06011" class="clusterblast-orf" id="dummy-22_q22_0_all"  />
<polygon points="525,35 530,30 533,30 533,40 530,40 525,35 " style="fill:white; stroke-width:1; stroke:black; " description="&lt;b&gt;LLPMBPKK_06012&lt;/b&gt;&lt;br&gt;membrane protein&lt;br&gt;Location: 6933033 - 6934752" locus_tag="LLPMBPKK_06012" class="clusterblast-orf" id="dummy-22_q23_0_all"  />
<polygon points="534,40 536,35 534,30 534,40 " style="fill:#d88a15; stroke-width:1; stroke:black; " description="&lt;b&gt;LLPMBPKK_06013&lt;/b&gt;&lt;br&gt;cell division protein SepF&lt;br&gt;Location: 6935033 - 6935423" locus_tag="LLPMBPKK_06013" class="clusterblast-orf" id="dummy-22_q24_0_all"  />
<polygon points="536,40 537,40 542,35 537,30 536,30 536,40 " style="fill:#15d863; stroke-width:1; stroke:black; " description="&lt;b&gt;LLPMBPKK_06014&lt;/b&gt;&lt;br&gt;bldA-regulated nucleotide-binding protein&lt;br&gt;Location: 6935571 - 6936765" locus_tag="LLPMBPKK_06014" class="clusterblast-orf" id="dummy-22_q25_0_all"  />
<polygon points="541,40 543,35 541,30 541,40 " style="fill:#3c15d8; stroke-width:1; stroke:black; " description="&lt;b&gt;LLPMBPKK_06015&lt;/b&gt;&lt;br&gt;nucleotide pyrophosphohydrolase&lt;br&gt;Location: 6936761 - 6937127" locus_tag="LLPMBPKK_06015" class="clusterblast-orf" id="dummy-22_q26_0_all"  />
<polygon points="544,40 546,35 544,30 544,40 " style="fill:#d8158a; stroke-width:1; stroke:black; " description="&lt;b&gt;LLPMBPKK_06016&lt;/b&gt;&lt;br&gt;hypothetical protein&lt;br&gt;Location: 6937300 - 6937786" locus_tag="LLPMBPKK_06016" class="clusterblast-orf" id="dummy-22_q27_0_all"  />
<polygon points="546,35 547,30 547,40 546,35 " style="fill:#b1d815; stroke-width:1; stroke:black; " description="&lt;b&gt;LLPMBPKK_06017&lt;/b&gt;&lt;br&gt;hypothetical protein&lt;br&gt;Location: 6937822 - 6938002" locus_tag="LLPMBPKK_06017" class="clusterblast-orf" id="dummy-22_q28_0_all"  />
<polygon points="548,40 552,35 548,30 548,40 " style="fill:#15d8d8; stroke-width:1; stroke:black; " description="&lt;b&gt;LLPMBPKK_06018&lt;/b&gt;&lt;br&gt;LLM class F420-dependent oxidoreductase&lt;br&gt;Location: 6938239 - 6939163" locus_tag="LLPMBPKK_06018" class="clusterblast-orf" id="dummy-22_q29_0_all"  />
<polygon points="553,35 557,30 557,40 553,35 " style="fill:white; stroke-width:1; stroke:black; " description="&lt;b&gt;LLPMBPKK_06019&lt;/b&gt;&lt;br&gt;D-alanyl-D-alanine carboxypeptidase&lt;br&gt;Location: 6939363 - 6940320" locus_tag="LLPMBPKK_06019" class="clusterblast-orf" id="dummy-22_q30_0_all"  />
<polygon points="558,40 562,35 558,30 558,40 " style="fill:white; stroke-width:1; stroke:black; " description="&lt;b&gt;LLPMBPKK_06020&lt;/b&gt;&lt;br&gt;hypothetical protein&lt;br&gt;Location: 6940433 - 6941423" locus_tag="LLPMBPKK_06020" class="clusterblast-orf" id="dummy-22_q31_0_all"  />
</g>
<g label="BGC0002072" description="BGC0002072_c1: linearmycin A/linearmycin B/linearmycin C/linearmycin C (25% of genes show similarity), Polyketide:Modular type I polyketide" class="clusterblast-cluster"  >
<text x="5" y="70" class="clusterblast-acc"  >
<a xlink:href="https://mibig.secondarymetabolites.org/go/BGC0002072/1" target="_blank">BGC0002072</a>:                          linearmycin A/linearmycin B/linearmycin C/linearmycin C (25% of genes show similarity), Polyketide:Modular type I polyketide</text>
<line x1="10" y1="85" x2="778.0" y2="85" style="stroke-width:1; stroke:grey; "  />
</g>
<g id="a22_000"  >
<polygon points="0,90 7,90 12,85 7,80 0,80 0,90 " style="fill:white; stroke-width:1; stroke:black; " description="&lt;b&gt;M444_04880&lt;/b&gt;&lt;br&gt;transcriptional regulator&lt;br&gt;Location: 175247 - 172383" locus_tag="M444_04880" class="clusterblast-orf" id="dummy-22_h22_4_0"  />
</g>
<g id="a22_001"  >
<polygon points="13,85 15,80 15,90 13,85 " style="fill:white; stroke-width:1; stroke:black; " description="&lt;b&gt;M444_04875&lt;/b&gt;&lt;br&gt;LuxR family transcriptional regulator&lt;br&gt;Location: 172313 - 171753" locus_tag="M444_04875" class="clusterblast-orf" id="dummy-22_h22_4_1"  />
</g>
<g id="a22_002"  >
<polygon points="15,85 20,80 21,80 21,90 20,90 15,85 " style="fill:white; stroke-width:1; stroke:black; " description="&lt;b&gt;M444_04870&lt;/b&gt;&lt;br&gt;histidine kinase&lt;br&gt;Location: 171688 - 170393" locus_tag="M444_04870" class="clusterblast-orf" id="dummy-22_h22_4_2"  />
</g>
<g id="a22_003"  >
<polygon points="22,90 24,85 22,80 22,90 " style="fill:white; stroke-width:1; stroke:black; " description="&lt;b&gt;M444_04865&lt;/b&gt;&lt;br&gt;LnyE&lt;br&gt;Location: 170227 - 169694" locus_tag="M444_04865" class="clusterblast-orf" id="dummy-22_h22_4_3"  />
</g>
<g id="a22_004"  >
<polygon points="24,90 27,85 24,80 24,90 " style="fill:white; stroke-width:1; stroke:black; " description="&lt;b&gt;M444_04860&lt;/b&gt;&lt;br&gt;membrane protein&lt;br&gt;Location: 169631 - 169131" locus_tag="M444_04860" class="clusterblast-orf" id="dummy-22_h22_4_4"  />
</g>
<g id="a22_005"  >
<polygon points="27,90 29,90 34,85 29,80 27,80 27,90 " style="fill:white; stroke-width:1; stroke:black; " description="&lt;b&gt;M444_04855&lt;/b&gt;&lt;br&gt;membrane protein&lt;br&gt;Location: 169134 - 167584" locus_tag="M444_04855" class="clusterblast-orf" id="dummy-22_h22_4_5"  />
</g>
<g id="a22_006"  >
<polygon points="35,90 183,90 188,85 183,80 35,80 35,90 " style="fill:#d81515; stroke-width:1; stroke:black; " description="&lt;b&gt;M444_04850&lt;/b&gt;&lt;br&gt;polyketide synthase&lt;br&gt;Location: 167268 - 132832&lt;br&gt;&lt;br&gt;&lt;b&gt;BlastP hit with LLPMBPKK_06003&lt;/b&gt;&lt;br&gt;Percentage identity: 47&lt;br&gt;Percentage coverage: 91&lt;br&gt;BLAST bit score: 3592&lt;br&gt;E-value: 0.0&lt;br&gt;&lt;br&gt;&lt;b&gt;BlastP hit with LLPMBPKK_06004&lt;/b&gt;&lt;br&gt;Percentage identity: 47&lt;br&gt;Percentage coverage: 105&lt;br&gt;BLAST bit score: 2426&lt;br&gt;E-value: 0.0&lt;br&gt;&lt;br&gt;&lt;b&gt;BlastP hit with LLPMBPKK_06005&lt;/b&gt;&lt;br&gt;Percentage identity: 54&lt;br&gt;Percentage coverage: 72&lt;br&gt;BLAST bit score: 2657&lt;br&gt;E-value: 0.0" locus_tag="M444_04850" class="clusterblast-orf" id="dummy-22_h22_4_6"  />
</g>
<g id="a22_007"  >
<polygon points="189,90 230,90 235,85 230,80 189,80 189,90 " style="fill:#d81515; stroke-width:1; stroke:black; " description="&lt;b&gt;M444_04845&lt;/b&gt;&lt;br&gt;polyketide synthase&lt;br&gt;Location: 132667 - 122360&lt;br&gt;&lt;br&gt;&lt;b&gt;BlastP hit with LLPMBPKK_06003&lt;/b&gt;&lt;br&gt;Percentage identity: 47&lt;br&gt;Percentage coverage: 65&lt;br&gt;BLAST bit score: 2379&lt;br&gt;E-value: 0.0&lt;br&gt;&lt;br&gt;&lt;b&gt;BlastP hit with LLPMBPKK_06005&lt;/b&gt;&lt;br&gt;Percentage identity: 49&lt;br&gt;Percentage coverage: 94&lt;br&gt;BLAST bit score: 2702&lt;br&gt;E-value: 0.0" locus_tag="M444_04845" class="clusterblast-orf" id="dummy-22_h22_4_7"  />
</g>
<g id="a22_008"  >
<polygon points="235,90 319,90 324,85 319,80 235,80 235,90 " style="fill:#d81515; stroke-width:1; stroke:black; " description="&lt;b&gt;M444_04840&lt;/b&gt;&lt;br&gt;polyketide synthase&lt;br&gt;Location: 122335 - 102302&lt;br&gt;&lt;br&gt;&lt;b&gt;BlastP hit with LLPMBPKK_06004&lt;/b&gt;&lt;br&gt;Percentage identity: 47&lt;br&gt;Percentage coverage: 105&lt;br&gt;BLAST bit score: 2366&lt;br&gt;E-value: 0.0&lt;br&gt;&lt;br&gt;&lt;b&gt;BlastP hit with LLPMBPKK_06005&lt;/b&gt;&lt;br&gt;Percentage identity: 47&lt;br&gt;Percentage coverage: 94&lt;br&gt;BLAST bit score: 2650&lt;br&gt;E-value: 0.0" locus_tag="M444_04840" class="clusterblast-orf" id="dummy-22_h22_4_8"  />
</g>
<g id="a22_009"  >
<polygon points="325,90 342,90 347,85 342,80 325,80 325,90 " style="fill:white; stroke-width:1; stroke:black; " description="&lt;b&gt;M444_04835&lt;/b&gt;&lt;br&gt;polyketide synthase&lt;br&gt;Location: 102179 - 97281" locus_tag="M444_04835" class="clusterblast-orf" id="dummy-22_h22_4_9"  />
</g>
<g id="a22_0010"  >
<polygon points="348,90 412,90 417,85 412,80 348,80 348,90 " style="fill:#d81515; stroke-width:1; stroke:black; " description="&lt;b&gt;M444_04830&lt;/b&gt;&lt;br&gt;polyketide synthase&lt;br&gt;Location: 97027 - 81371&lt;br&gt;&lt;br&gt;&lt;b&gt;BlastP hit with LLPMBPKK_06003&lt;/b&gt;&lt;br&gt;Percentage identity: 48&lt;br&gt;Percentage coverage: 93&lt;br&gt;BLAST bit score: 3958&lt;br&gt;E-value: 0.0&lt;br&gt;&lt;br&gt;&lt;b&gt;BlastP hit with LLPMBPKK_06005&lt;/b&gt;&lt;br&gt;Percentage identity: 53&lt;br&gt;Percentage coverage: 95&lt;br&gt;BLAST bit score: 3280&lt;br&gt;E-value: 0.0" locus_tag="M444_04830" class="clusterblast-orf" id="dummy-22_h22_4_10"  />
</g>
<g id="a22_0011"  >
<polygon points="418,90 485,90 490,85 485,80 418,80 418,90 " style="fill:#d81515; stroke-width:1; stroke:black; " description="&lt;b&gt;M444_04825&lt;/b&gt;&lt;br&gt;polyketide synthase&lt;br&gt;Location: 81285 - 65095&lt;br&gt;&lt;br&gt;&lt;b&gt;BlastP hit with LLPMBPKK_06003&lt;/b&gt;&lt;br&gt;Percentage identity: 46&lt;br&gt;Percentage coverage: 96&lt;br&gt;BLAST bit score: 3679&lt;br&gt;E-value: 0.0&lt;br&gt;&lt;br&gt;&lt;b&gt;BlastP hit with LLPMBPKK_06005&lt;/b&gt;&lt;br&gt;Percentage identity: 53&lt;br&gt;Percentage coverage: 95&lt;br&gt;BLAST bit score: 3285&lt;br&gt;E-value: 0.0" locus_tag="M444_04825" class="clusterblast-orf" id="dummy-22_h22_4_11"  />
</g>
<g id="a22_0012"  >
<polygon points="490,90 528,90 533,85 528,80 490,80 490,90 " style="fill:white; stroke-width:1; stroke:black; " description="&lt;b&gt;M444_04820&lt;/b&gt;&lt;br&gt;polyketide synthase&lt;br&gt;Location: 65000 - 55389" locus_tag="M444_04820" class="clusterblast-orf" id="dummy-22_h22_4_12"  />
</g>
<g id="a22_0013"  >
<polygon points="533,90 628,90 633,85 628,80 533,80 533,90 " style="fill:#d81515; stroke-width:1; stroke:black; " description="&lt;b&gt;M444_04815&lt;/b&gt;&lt;br&gt;polyketide synthase&lt;br&gt;Location: 55326 - 32857&lt;br&gt;&lt;br&gt;&lt;b&gt;BlastP hit with LLPMBPKK_06005&lt;/b&gt;&lt;br&gt;Percentage identity: 54&lt;br&gt;Percentage coverage: 93&lt;br&gt;BLAST bit score: 3295&lt;br&gt;E-value: 0.0" locus_tag="M444_04815" class="clusterblast-orf" id="dummy-22_h22_4_13"  />
</g>
<g id="a22_0014"  >
<polygon points="634,90 703,90 708,85 703,80 634,80 634,90 " style="fill:#d81515; stroke-width:1; stroke:black; " description="&lt;b&gt;M444_04810&lt;/b&gt;&lt;br&gt;polyketide synthase&lt;br&gt;Location: 32789 - 15984&lt;br&gt;&lt;br&gt;&lt;b&gt;BlastP hit with LLPMBPKK_06005&lt;/b&gt;&lt;br&gt;Percentage identity: 53&lt;br&gt;Percentage coverage: 94&lt;br&gt;BLAST bit score: 3252&lt;br&gt;E-value: 0.0" locus_tag="M444_04810" class="clusterblast-orf" id="dummy-22_h22_4_14"  />
</g>
<g id="a22_0015"  >
<polygon points="709,85 713,80 713,90 709,85 " style="fill:white; stroke-width:1; stroke:black; " description="&lt;b&gt;M444_04805&lt;/b&gt;&lt;br&gt;ACP S-malonyltransferase&lt;br&gt;Location: 15879 - 14842" locus_tag="M444_04805" class="clusterblast-orf" id="dummy-22_h22_4_15"  />
</g>
<g id="a22_0016"  >
<polygon points="714,85 718,80 718,90 714,85 " style="fill:white; stroke-width:1; stroke:black; " description="&lt;b&gt;M444_04800&lt;/b&gt;&lt;br&gt;ABC transporter&lt;br&gt;Location: 14678 - 13908" locus_tag="M444_04800" class="clusterblast-orf" id="dummy-22_h22_4_16"  />
</g>
<g id="a22_0017"  >
<polygon points="718,85 723,80 723,80 723,90 723,90 718,85 " style="fill:white; stroke-width:1; stroke:black; " description="&lt;b&gt;M444_04795&lt;/b&gt;&lt;br&gt;daunorubicin ABC transporter ATPase&lt;br&gt;Location: 13809 - 12745" locus_tag="M444_04795" class="clusterblast-orf" id="dummy-22_h22_4_17"  />
</g>
<g id="a22_0018"  >
<polygon points="724,90 727,85 724,80 724,90 " style="fill:white; stroke-width:1; stroke:black; " description="&lt;b&gt;M444_04790&lt;/b&gt;&lt;br&gt;glucose-1-phosphate thymidylyltransferase&lt;br&gt;Location: 12420 - 11848" locus_tag="M444_04790" class="clusterblast-orf" id="dummy-22_h22_4_18"  />
</g>
<g id="a22_0019"  >
<polygon points="727,90 730,85 727,80 727,90 " style="fill:white; stroke-width:1; stroke:black; " description="&lt;b&gt;M444_04785&lt;/b&gt;&lt;br&gt;thioesterase&lt;br&gt;Location: 11710 - 11117" locus_tag="M444_04785" class="clusterblast-orf" id="dummy-22_h22_4_19"  />
</g>
<g id="a22_0020"  >
<polygon points="730,90 732,90 737,85 732,80 730,80 730,90 " style="fill:white; stroke-width:1; stroke:black; " description="&lt;b&gt;M444_04780&lt;/b&gt;&lt;br&gt;acyl--CoA ligase&lt;br&gt;Location: 11033 - 9621" locus_tag="M444_04780" class="clusterblast-orf" id="dummy-22_h22_4_20"  />
</g>
<g id="a22_0021"  >
<polygon points="737,85 742,80 744,80 744,90 742,90 737,85 " style="fill:white; stroke-width:1; stroke:black; " description="&lt;b&gt;M444_04775&lt;/b&gt;&lt;br&gt;amine oxidase&lt;br&gt;Location: 9527 - 7866" locus_tag="M444_04775" class="clusterblast-orf" id="dummy-22_h22_4_21"  />
</g>
<g id="a22_0022"  >
<polygon points="745,85 749,80 749,90 745,85 " style="fill:white; stroke-width:1; stroke:black; " description="&lt;b&gt;M444_04770&lt;/b&gt;&lt;br&gt;4'-phosphopantetheinyl transferase&lt;br&gt;Location: 7674 - 6931" locus_tag="M444_04770" class="clusterblast-orf" id="dummy-22_h22_4_22"  />
</g>
<g id="a22_0023"  >
<polygon points="749,85 753,80 753,90 749,85 " style="fill:white; stroke-width:1; stroke:black; " description="&lt;b&gt;M444_04765&lt;/b&gt;&lt;br&gt;metallophosphoesterase&lt;br&gt;Location: 6934 - 6038" locus_tag="M444_04765" class="clusterblast-orf" id="dummy-22_h22_4_23"  />
</g>
<g id="a22_0024"  >
<polygon points="753,85 758,80 766,80 766,90 758,90 753,85 " style="fill:white; stroke-width:1; stroke:black; " description="&lt;b&gt;M444_04760&lt;/b&gt;&lt;br&gt;transcriptional regulator&lt;br&gt;Location: 6057 - 3139" locus_tag="M444_04760" class="clusterblast-orf" id="dummy-22_h22_4_24"  />
</g>
<g id="a22_0025"  >
<polygon points="768,90 770,90 775,85 770,80 768,80 768,90 " style="fill:white; stroke-width:1; stroke:black; " description="&lt;b&gt;M444_04755&lt;/b&gt;&lt;br&gt;methylmalonyl-CoA carboxyltransferase&lt;br&gt;Location: 2653 - 1097" locus_tag="M444_04755" class="clusterblast-orf" id="dummy-22_h22_4_25"  />
</g>
<g id="a22_0026"  >
<polygon points="775,90 775,90 780,85 775,80 775,80 775,90 " style="fill:white; stroke-width:1; stroke:black; " description="&lt;b&gt;M444_04750&lt;/b&gt;&lt;br&gt;agmatinase&lt;br&gt;Location: 990 - 1" locus_tag="M444_04750" class="clusterblast-orf" id="dummy-22_h22_4_26"  />
</g>
</svg>
