<svg xmlns="http://www.w3.org/2000/svg" xmlns:xlink="http://www.w3.org/1999/xlink" version="1.1" x="0" y="0" height="230" width="800" viewBox="0 0 800 230" preserveAspectRatio="none"  >
<g label="Query sequence" class="clusterblast-cluster"  >
<text x="5" y="20" class="clusterblast-acc"  >
Query sequence</text>
<line x1="10" y1="35" x2="778.0" y2="35" style="stroke-width:1; stroke:grey; "  />
<polygon points="0,35 5,30 7,30 7,40 5,40 0,35 " style="fill:white; stroke-width:1; stroke:black; " description="&lt;b&gt;LLPMBPKK_02177&lt;/b&gt;&lt;br&gt;5-dehydro-4-deoxyglucarate dehydratase&lt;br&gt;Location: 2510113 - 2511055" locus_tag="LLPMBPKK_02177" class="clusterblast-orf" id="dummy-12_q0_0_all"  />
<polygon points="9,40 11,40 16,35 11,30 9,30 9,40 " style="fill:white; stroke-width:1; stroke:black; " description="&lt;b&gt;LLPMBPKK_02178&lt;/b&gt;&lt;br&gt;NAD(P)-dependent oxidoreductase&lt;br&gt;Location: 2511287 - 2512097" locus_tag="LLPMBPKK_02178" class="clusterblast-orf" id="dummy-12_q1_0_all"  />
<polygon points="18,40 20,40 25,35 20,30 18,30 18,40 " style="fill:#d81515; stroke-width:1; stroke:black; " description="&lt;b&gt;LLPMBPKK_02179&lt;/b&gt;&lt;br&gt;DeoR/GlpR transcriptional regulator&lt;br&gt;Location: 2512373 - 2513186" locus_tag="LLPMBPKK_02179" class="clusterblast-orf" id="dummy-12_q2_0_all"  />
<polygon points="25,40 32,40 37,35 32,30 25,30 25,40 " style="fill:#15d815; stroke-width:1; stroke:black; " description="&lt;b&gt;LLPMBPKK_02180&lt;/b&gt;&lt;br&gt;sugar ABC transporter substrate-binding protein&lt;br&gt;Location: 2513275 - 2514646" locus_tag="LLPMBPKK_02180" class="clusterblast-orf" id="dummy-12_q3_0_all"  />
<polygon points="36,40 39,40 44,35 39,30 36,30 36,40 " style="fill:#1597d8; stroke-width:1; stroke:black; " description="&lt;b&gt;LLPMBPKK_02181&lt;/b&gt;&lt;br&gt;sugar ABC transporter permease&lt;br&gt;Location: 2514642 - 2515581" locus_tag="LLPMBPKK_02181" class="clusterblast-orf" id="dummy-12_q4_0_all"  />
<polygon points="44,40 46,40 51,35 46,30 44,30 44,40 " style="fill:#9715d8; stroke-width:1; stroke:black; " description="&lt;b&gt;LLPMBPKK_02182&lt;/b&gt;&lt;br&gt;integral membrane sugar transport protein&lt;br&gt;Location: 2515577 - 2516405" locus_tag="LLPMBPKK_02182" class="clusterblast-orf" id="dummy-12_q5_0_all"  />
<polygon points="51,40 54,40 59,35 54,30 51,30 51,40 " style="fill:#d89715; stroke-width:1; stroke:black; " description="&lt;b&gt;LLPMBPKK_02183&lt;/b&gt;&lt;br&gt;alcohol dehydrogenase&lt;br&gt;Location: 2516401 - 2517391" locus_tag="LLPMBPKK_02183" class="clusterblast-orf" id="dummy-12_q6_0_all"  />
<polygon points="59,40 64,40 69,35 64,30 59,30 59,40 " style="fill:white; stroke-width:1; stroke:black; " description="&lt;b&gt;LLPMBPKK_02184&lt;/b&gt;&lt;br&gt;transport-associated protein&lt;br&gt;Location: 2517461 - 2518685" locus_tag="LLPMBPKK_02184" class="clusterblast-orf" id="dummy-12_q7_0_all"  />
<polygon points="70,35 74,30 74,40 70,35 " style="fill:white; stroke-width:1; stroke:black; " description="&lt;b&gt;LLPMBPKK_02185&lt;/b&gt;&lt;br&gt;TetR/AcrR family transcriptional regulator&lt;br&gt;Location: 2518732 - 2519305" locus_tag="LLPMBPKK_02185" class="clusterblast-orf" id="dummy-12_q8_0_all"  />
<polygon points="75,35 80,30 87,30 87,40 80,40 75,35 " style="fill:white; stroke-width:1; stroke:black; " description="&lt;b&gt;LLPMBPKK_02186&lt;/b&gt;&lt;br&gt;hypothetical protein&lt;br&gt;Location: 2519411 - 2520863" locus_tag="LLPMBPKK_02186" class="clusterblast-orf" id="dummy-12_q9_0_all"  />
<polygon points="89,35 94,30 101,30 101,40 94,40 89,35 " style="fill:white; stroke-width:1; stroke:black; " description="&lt;b&gt;LLPMBPKK_02187&lt;/b&gt;&lt;br&gt;plasmid pRiA4b ORF-3 family protein&lt;br&gt;Location: 2521087 - 2522512" locus_tag="LLPMBPKK_02187" class="clusterblast-orf" id="dummy-12_q10_0_all"  />
<polygon points="103,40 113,40 118,35 113,30 103,30 103,40 " style="fill:white; stroke-width:1; stroke:black; " description="&lt;b&gt;LLPMBPKK_02188&lt;/b&gt;&lt;br&gt;large secreted protein&lt;br&gt;Location: 2522777 - 2524604" locus_tag="LLPMBPKK_02188" class="clusterblast-orf" id="dummy-12_q11_0_all"  />
<polygon points="118,35 123,30 123,30 123,40 123,40 118,35 " style="fill:white; stroke-width:1; stroke:black; " description="&lt;b&gt;LLPMBPKK_02189&lt;/b&gt;&lt;br&gt;hypothetical protein&lt;br&gt;Location: 2524691 - 2525225" locus_tag="LLPMBPKK_02189" class="clusterblast-orf" id="dummy-12_q12_0_all"  />
<polygon points="124,40 126,40 131,35 126,30 124,30 124,40 " style="fill:white; stroke-width:1; stroke:black; " description="&lt;b&gt;LLPMBPKK_02190&lt;/b&gt;&lt;br&gt;4-hydroxy-tetrahydrodipicolinate synthase&lt;br&gt;Location: 2525357 - 2526257" locus_tag="LLPMBPKK_02190" class="clusterblast-orf" id="dummy-12_q13_0_all"  />
<polygon points="131,35 136,30 143,30 143,40 136,40 131,35 " style="fill:#15d897; stroke-width:1; stroke:black; " description="&lt;b&gt;LLPMBPKK_02191&lt;/b&gt;&lt;br&gt;FAD-dependent oxidoreductase&lt;br&gt;Location: 2526267 - 2527743" locus_tag="LLPMBPKK_02191" class="clusterblast-orf" id="dummy-12_q14_0_all"  />
<polygon points="143,35 148,30 152,30 152,40 148,40 143,35 " style="fill:white; stroke-width:1; stroke:black; " description="&lt;b&gt;LLPMBPKK_02192&lt;/b&gt;&lt;br&gt;O-methyltransferase&lt;br&gt;Location: 2527739 - 2528768" locus_tag="LLPMBPKK_02192" class="clusterblast-orf" id="dummy-12_q15_0_all"  />
<polygon points="152,35 157,30 159,30 159,40 157,40 152,35 " style="fill:white; stroke-width:1; stroke:black; " description="&lt;b&gt;LLPMBPKK_02193&lt;/b&gt;&lt;br&gt;NAD(P)-dependent oxidoreductase&lt;br&gt;Location: 2528764 - 2529733" locus_tag="LLPMBPKK_02193" class="clusterblast-orf" id="dummy-12_q16_0_all"  />
<polygon points="159,35 164,30 183,30 183,40 164,40 159,35 " style="fill:white; stroke-width:1; stroke:black; " description="&lt;b&gt;LLPMBPKK_02194&lt;/b&gt;&lt;br&gt;alpha/beta fold hydrolase&lt;br&gt;Location: 2529725 - 2532581" locus_tag="LLPMBPKK_02194" class="clusterblast-orf" id="dummy-12_q17_0_all"  />
<polygon points="183,35 188,30 193,30 193,40 188,40 183,35 " style="fill:white; stroke-width:1; stroke:black; " description="&lt;b&gt;LLPMBPKK_02195&lt;/b&gt;&lt;br&gt;FAD-dependent oxidoreductase&lt;br&gt;Location: 2532577 - 2533861" locus_tag="LLPMBPKK_02195" class="clusterblast-orf" id="dummy-12_q18_0_all"  />
<polygon points="193,35 195,30 195,40 193,35 " style="fill:#1515d8; stroke-width:1; stroke:black; " description="&lt;b&gt;LLPMBPKK_02196&lt;/b&gt;&lt;br&gt;ferredoxin&lt;br&gt;Location: 2533875 - 2534070" locus_tag="LLPMBPKK_02196" class="clusterblast-orf" id="dummy-12_q19_0_all"  />
<polygon points="195,35 200,30 202,30 202,40 200,40 195,35 " style="fill:white; stroke-width:1; stroke:black; " description="&lt;b&gt;LLPMBPKK_02197&lt;/b&gt;&lt;br&gt;regulatory protein&lt;br&gt;Location: 2534081 - 2534903" locus_tag="LLPMBPKK_02197" class="clusterblast-orf" id="dummy-12_q20_0_all"  />
<polygon points="202,35 207,30 215,30 215,40 207,40 202,35 " style="fill:white; stroke-width:1; stroke:black; " description="&lt;b&gt;LLPMBPKK_02198&lt;/b&gt;&lt;br&gt;3-(3-hydroxy-phenyl)propionate/3-hydroxycinnamica cid hydroxylase&lt;br&gt;Location: 2534968 - 2536612" locus_tag="LLPMBPKK_02198" class="clusterblast-orf" id="dummy-12_q21_0_all"  />
<polygon points="216,35 221,30 224,30 224,40 221,40 216,35 " style="fill:white; stroke-width:1; stroke:black; " description="&lt;b&gt;LLPMBPKK_02199&lt;/b&gt;&lt;br&gt;oxidoreductase&lt;br&gt;Location: 2536626 - 2537607" locus_tag="LLPMBPKK_02199" class="clusterblast-orf" id="dummy-12_q22_0_all"  />
<polygon points="226,40 226,40 231,35 226,30 226,30 226,40 " style="fill:white; stroke-width:1; stroke:black; " description="&lt;b&gt;LLPMBPKK_02200&lt;/b&gt;&lt;br&gt;hypothetical protein&lt;br&gt;Location: 2537952 - 2538570" locus_tag="LLPMBPKK_02200" class="clusterblast-orf" id="dummy-12_q23_0_all"  />
<polygon points="233,40 295,40 300,35 295,30 233,30 233,40 " style="fill:#d81597; stroke-width:1; stroke:black; " description="&lt;b&gt;LLPMBPKK_02201&lt;/b&gt;&lt;br&gt;hypothetical protein&lt;br&gt;Location: 2538786 - 2547030" locus_tag="LLPMBPKK_02201" class="clusterblast-orf" id="dummy-12_q24_0_all"  />
<polygon points="301,40 396,40 401,35 396,30 301,30 301,40 " style="fill:#d81597; stroke-width:1; stroke:black; " description="&lt;b&gt;LLPMBPKK_02202&lt;/b&gt;&lt;br&gt;type I polyketide synthase&lt;br&gt;Location: 2547086 - 2559347" locus_tag="LLPMBPKK_02202" class="clusterblast-orf" id="dummy-12_q25_0_all"  />
<polygon points="401,40 436,40 441,35 436,30 401,30 401,40 " style="fill:#d81597; stroke-width:1; stroke:black; " description="&lt;b&gt;LLPMBPKK_02203&lt;/b&gt;&lt;br&gt;type I polyketide synthase&lt;br&gt;Location: 2559378 - 2564334" locus_tag="LLPMBPKK_02203" class="clusterblast-orf" id="dummy-12_q26_0_all"  />
<polygon points="441,40 484,40 489,35 484,30 441,30 441,40 " style="fill:#d81597; stroke-width:1; stroke:black; " description="&lt;b&gt;LLPMBPKK_02204&lt;/b&gt;&lt;br&gt;type I polyketide synthase&lt;br&gt;Location: 2564330 - 2570150" locus_tag="LLPMBPKK_02204" class="clusterblast-orf" id="dummy-12_q27_0_all"  />
<polygon points="489,40 535,40 540,35 535,30 489,30 489,40 " style="fill:#d81597; stroke-width:1; stroke:black; " description="&lt;b&gt;LLPMBPKK_02205&lt;/b&gt;&lt;br&gt;type I polyketide synthase&lt;br&gt;Location: 2570188 - 2576428" locus_tag="LLPMBPKK_02205" class="clusterblast-orf" id="dummy-12_q28_0_all"  />
<polygon points="540,40 545,40 550,35 545,30 540,30 540,40 " style="fill:white; stroke-width:1; stroke:black; " description="&lt;b&gt;LLPMBPKK_02206&lt;/b&gt;&lt;br&gt;cytochrome P450&lt;br&gt;Location: 2576482 - 2577718" locus_tag="LLPMBPKK_02206" class="clusterblast-orf" id="dummy-12_q29_0_all"  />
<polygon points="551,40 554,35 551,30 551,40 " style="fill:white; stroke-width:1; stroke:black; " description="&lt;b&gt;LLPMBPKK_02207&lt;/b&gt;&lt;br&gt;SnoaL-like domain protein&lt;br&gt;Location: 2577757 - 2578228" locus_tag="LLPMBPKK_02207" class="clusterblast-orf" id="dummy-12_q30_0_all"  />
<polygon points="555,40 557,40 562,35 557,30 555,30 555,40 " style="fill:white; stroke-width:1; stroke:black; " description="&lt;b&gt;LLPMBPKK_02208&lt;/b&gt;&lt;br&gt;SDR family oxidoreductase&lt;br&gt;Location: 2578309 - 2579110" locus_tag="LLPMBPKK_02208" class="clusterblast-orf" id="dummy-12_q31_0_all"  />
<polygon points="562,35 567,30 573,30 573,40 567,40 562,35 " style="fill:white; stroke-width:1; stroke:black; " description="&lt;b&gt;LLPMBPKK_02209&lt;/b&gt;&lt;br&gt;Bacterial regulatory proteins, luxR family&lt;br&gt;Location: 2579160 - 2580513" locus_tag="LLPMBPKK_02209" class="clusterblast-orf" id="dummy-12_q32_0_all"  />
<polygon points="577,40 582,40 587,35 582,30 577,30 577,40 " style="fill:white; stroke-width:1; stroke:black; " description="&lt;b&gt;LLPMBPKK_02210&lt;/b&gt;&lt;br&gt;transcriptional regulator&lt;br&gt;Location: 2581050 - 2582205" locus_tag="LLPMBPKK_02210" class="clusterblast-orf" id="dummy-12_q33_0_all"  />
<polygon points="587,40 589,40 594,35 589,30 587,30 587,40 " style="fill:white; stroke-width:1; stroke:black; " description="&lt;b&gt;LLPMBPKK_02211&lt;/b&gt;&lt;br&gt;3-oxoacyl-ACP reductase&lt;br&gt;Location: 2582238 - 2583024" locus_tag="LLPMBPKK_02211" class="clusterblast-orf" id="dummy-12_q34_0_all"  />
<polygon points="594,35 599,30 608,30 608,40 599,40 594,35 " style="fill:white; stroke-width:1; stroke:black; " description="&lt;b&gt;LLPMBPKK_02212&lt;/b&gt;&lt;br&gt;biotin/lipoyl-binding protein&lt;br&gt;Location: 2583043 - 2584816" locus_tag="LLPMBPKK_02212" class="clusterblast-orf" id="dummy-12_q35_0_all"  />
<polygon points="608,35 613,30 614,30 614,40 613,40 608,35 " style="fill:#97d815; stroke-width:1; stroke:black; " description="&lt;b&gt;LLPMBPKK_02213&lt;/b&gt;&lt;br&gt;4'-phosphopantetheinyl transferase superfamilyprotein&lt;br&gt;Location: 2584821 - 2585505" locus_tag="LLPMBPKK_02213" class="clusterblast-orf" id="dummy-12_q36_0_all"  />
<polygon points="614,35 619,30 622,30 622,40 619,40 614,35 " style="fill:white; stroke-width:1; stroke:black; " description="&lt;b&gt;LLPMBPKK_02214&lt;/b&gt;&lt;br&gt;3-oxoacyl-ACP synthase&lt;br&gt;Location: 2585497 - 2586580" locus_tag="LLPMBPKK_02214" class="clusterblast-orf" id="dummy-12_q37_0_all"  />
<polygon points="624,40 627,35 624,30 624,40 " style="fill:white; stroke-width:1; stroke:black; " description="&lt;b&gt;LLPMBPKK_02215&lt;/b&gt;&lt;br&gt;acyl carrier protein&lt;br&gt;Location: 2586825 - 2587098" locus_tag="LLPMBPKK_02215" class="clusterblast-orf" id="dummy-12_q38_0_all"  />
<polygon points="627,40 632,40 637,35 632,30 627,30 627,40 " style="fill:white; stroke-width:1; stroke:black; " description="&lt;b&gt;LLPMBPKK_02216&lt;/b&gt;&lt;br&gt;beta-ketoacyl-[acyl-carrier-protein] synthasefamily protein&lt;br&gt;Location: 2587090 - 2588317" locus_tag="LLPMBPKK_02216" class="clusterblast-orf" id="dummy-12_q39_0_all"  />
<polygon points="637,40 642,40 647,35 642,30 637,30 637,40 " style="fill:white; stroke-width:1; stroke:black; " description="&lt;b&gt;LLPMBPKK_02217&lt;/b&gt;&lt;br&gt;hypothetical protein&lt;br&gt;Location: 2588313 - 2589528" locus_tag="LLPMBPKK_02217" class="clusterblast-orf" id="dummy-12_q40_0_all"  />
<polygon points="648,40 649,40 654,35 649,30 648,30 648,40 " style="fill:white; stroke-width:1; stroke:black; " description="&lt;b&gt;LLPMBPKK_02218&lt;/b&gt;&lt;br&gt;transcriptional regulator&lt;br&gt;Location: 2589718 - 2590441" locus_tag="LLPMBPKK_02218" class="clusterblast-orf" id="dummy-12_q41_0_all"  />
<polygon points="653,35 658,30 660,30 660,40 658,40 653,35 " style="fill:white; stroke-width:1; stroke:black; " description="&lt;b&gt;LLPMBPKK_02219&lt;/b&gt;&lt;br&gt;short-chain dehydrogenase/reductase SDR&lt;br&gt;Location: 2590380 - 2591151" locus_tag="LLPMBPKK_02219" class="clusterblast-orf" id="dummy-12_q42_0_all"  />
<polygon points="660,35 665,30 667,30 667,40 665,40 660,35 " style="fill:white; stroke-width:1; stroke:black; " description="&lt;b&gt;LLPMBPKK_02220&lt;/b&gt;&lt;br&gt;butenolide phosphate reductase BprA&lt;br&gt;Location: 2591216 - 2592101" locus_tag="LLPMBPKK_02220" class="clusterblast-orf" id="dummy-12_q43_0_all"  />
<polygon points="667,35 672,30 673,30 673,40 672,40 667,35 " style="fill:white; stroke-width:1; stroke:black; " description="&lt;b&gt;LLPMBPKK_02221&lt;/b&gt;&lt;br&gt;TetR/AcrR family transcriptional regulator&lt;br&gt;Location: 2592097 - 2592727" locus_tag="LLPMBPKK_02221" class="clusterblast-orf" id="dummy-12_q44_0_all"  />
<polygon points="674,40 676,40 681,35 676,30 674,30 674,40 " style="fill:white; stroke-width:1; stroke:black; " description="&lt;b&gt;LLPMBPKK_02222&lt;/b&gt;&lt;br&gt;ScbA protein&lt;br&gt;Location: 2592851 - 2593775" locus_tag="LLPMBPKK_02222" class="clusterblast-orf" id="dummy-12_q45_0_all"  />
<polygon points="682,35 687,30 689,30 689,40 687,40 682,35 " style="fill:white; stroke-width:1; stroke:black; " description="&lt;b&gt;LLPMBPKK_02223&lt;/b&gt;&lt;br&gt;type 11 methyltransferase&lt;br&gt;Location: 2593908 - 2594754" locus_tag="LLPMBPKK_02223" class="clusterblast-orf" id="dummy-12_q46_0_all"  />
<polygon points="690,35 695,30 703,30 703,40 695,40 690,35 " style="fill:white; stroke-width:1; stroke:black; " description="&lt;b&gt;LLPMBPKK_02224&lt;/b&gt;&lt;br&gt;DHA2 family efflux MFS transporter permeasesubunit&lt;br&gt;Location: 2594904 - 2596410" locus_tag="LLPMBPKK_02224" class="clusterblast-orf" id="dummy-12_q47_0_all"  />
<polygon points="704,40 704,40 709,35 704,30 704,30 704,40 " style="fill:white; stroke-width:1; stroke:black; " description="&lt;b&gt;LLPMBPKK_02225&lt;/b&gt;&lt;br&gt;TetR family transcriptional regulator&lt;br&gt;Location: 2596528 - 2597149" locus_tag="LLPMBPKK_02225" class="clusterblast-orf" id="dummy-12_q48_0_all"  />
<polygon points="710,40 713,40 718,35 713,30 710,30 710,40 " style="fill:white; stroke-width:1; stroke:black; " description="&lt;b&gt;LLPMBPKK_02226&lt;/b&gt;&lt;br&gt;gamma-butyrolactone biosynthesis protein&lt;br&gt;Location: 2597336 - 2598362" locus_tag="LLPMBPKK_02226" class="clusterblast-orf" id="dummy-12_q49_0_all"  />
<polygon points="719,40 720,40 725,35 720,30 719,30 719,40 " style="fill:white; stroke-width:1; stroke:black; " description="&lt;b&gt;LLPMBPKK_02227&lt;/b&gt;&lt;br&gt;3-oxoacyl-[acyl-carrier-protein] reductase&lt;br&gt;Location: 2598410 - 2599115" locus_tag="LLPMBPKK_02227" class="clusterblast-orf" id="dummy-12_q50_0_all"  />
<polygon points="725,40 725,40 730,35 725,30 725,30 725,40 " style="fill:white; stroke-width:1; stroke:black; " description="&lt;b&gt;LLPMBPKK_02228&lt;/b&gt;&lt;br&gt;HAD family phosphatase&lt;br&gt;Location: 2599150 - 2599816" locus_tag="LLPMBPKK_02228" class="clusterblast-orf" id="dummy-12_q51_0_all"  />
<polygon points="731,40 734,40 739,35 734,30 731,30 731,40 " style="fill:white; stroke-width:1; stroke:black; " description="&lt;b&gt;LLPMBPKK_02229&lt;/b&gt;&lt;br&gt;hypothetical protein&lt;br&gt;Location: 2599848 - 2600850" locus_tag="LLPMBPKK_02229" class="clusterblast-orf" id="dummy-12_q52_0_all"  />
<polygon points="740,35 745,30 748,30 748,40 745,40 740,35 " style="fill:white; stroke-width:1; stroke:black; " description="&lt;b&gt;LLPMBPKK_02230&lt;/b&gt;&lt;br&gt;2,3,4,5-tetrahydropyridine-2,6-dicarboxylate N-succinyltransferase&lt;br&gt;Location: 2600980 - 2601967" locus_tag="LLPMBPKK_02230" class="clusterblast-orf" id="dummy-12_q53_0_all"  />
<polygon points="748,35 753,30 753,30 753,40 753,40 748,35 " style="fill:white; stroke-width:1; stroke:black; " description="&lt;b&gt;LLPMBPKK_02231&lt;/b&gt;&lt;br&gt;TetR family transcriptional regulator&lt;br&gt;Location: 2602031 - 2602568" locus_tag="LLPMBPKK_02231" class="clusterblast-orf" id="dummy-12_q54_0_all"  />
<polygon points="753,35 755,30 755,40 753,35 " style="fill:white; stroke-width:1; stroke:black; " description="&lt;b&gt;LLPMBPKK_02232&lt;/b&gt;&lt;br&gt;multidrug efflux SMR transporter&lt;br&gt;Location: 2602567 - 2602891" locus_tag="LLPMBPKK_02232" class="clusterblast-orf" id="dummy-12_q55_0_all"  />
<polygon points="756,40 757,40 762,35 757,30 756,30 756,40 " style="fill:white; stroke-width:1; stroke:black; " description="&lt;b&gt;LLPMBPKK_02233&lt;/b&gt;&lt;br&gt;alpha-L-arabinofuranosidase&lt;br&gt;Location: 2602997 - 2603738" locus_tag="LLPMBPKK_02233" class="clusterblast-orf" id="dummy-12_q56_0_all"  />
<polygon points="763,35 765,30 765,40 763,35 " style="fill:white; stroke-width:1; stroke:black; " description="&lt;b&gt;LLPMBPKK_02234&lt;/b&gt;&lt;br&gt;metal-sulfur cluster assembly factor&lt;br&gt;Location: 2603794 - 2604127" locus_tag="LLPMBPKK_02234" class="clusterblast-orf" id="dummy-12_q57_0_all"  />
<polygon points="765,35 769,30 769,40 765,35 " style="fill:white; stroke-width:1; stroke:black; " description="&lt;b&gt;LLPMBPKK_02235&lt;/b&gt;&lt;br&gt;SUF system NifU family Fe-S cluster assemblyprotein&lt;br&gt;Location: 2604123 - 2604576" locus_tag="LLPMBPKK_02235" class="clusterblast-orf" id="dummy-12_q58_0_all"  />
<polygon points="769,35 774,30 780,30 780,40 774,40 769,35 " style="fill:white; stroke-width:1; stroke:black; " description="&lt;b&gt;LLPMBPKK_02236&lt;/b&gt;&lt;br&gt;cysteine desulfurase&lt;br&gt;Location: 2604607 - 2605864" locus_tag="LLPMBPKK_02236" class="clusterblast-orf" id="dummy-12_q59_0_all"  />
</g>
<g label="BGC0001052" description="BGC0001052_c1: tirandamycin (26% of genes show similarity), NRP+Polyketide:Modular type I polyketide" class="clusterblast-cluster"  >
<text x="5" y="70" class="clusterblast-acc"  >
<a xlink:href="https://mibig.secondarymetabolites.org/go/BGC0001052/1" target="_blank">BGC0001052</a>:                                                                     tirandamycin (26% of genes show similarity), NRP+Polyketide:Modular type I polyketide</text>
<line x1="10" y1="85" x2="778.0" y2="85" style="stroke-width:1; stroke:grey; "  />
</g>
<g id="a12_000"  >
<polygon points="163,85 168,80 169,80 169,90 168,90 163,85 " style="fill:#97d815; stroke-width:1; stroke:black; " description="&lt;b&gt;ADC79635.1&lt;/b&gt;&lt;br&gt;TamM&lt;br&gt;Location: 1 - 636&lt;br&gt;&lt;br&gt;&lt;b&gt;BlastP hit with LLPMBPKK_02213&lt;/b&gt;&lt;br&gt;Percentage identity: 47&lt;br&gt;Percentage coverage: 86&lt;br&gt;BLAST bit score: 153&lt;br&gt;E-value: 2.11e-46" locus_tag="ADC79635.1" class="clusterblast-orf" id="dummy-12_h12_9_0"  />
</g>
<g id="a12_001"  >
<polygon points="170,90 177,90 182,85 177,80 170,80 170,90 " style="fill:white; stroke-width:1; stroke:black; " description="&lt;b&gt;ADC79636.1&lt;/b&gt;&lt;br&gt;TamL&lt;br&gt;Location: 770 - 2272" locus_tag="ADC79636.1" class="clusterblast-orf" id="dummy-12_h12_9_1"  />
</g>
<g id="a12_002"  >
<polygon points="184,90 321,90 326,85 321,80 184,80 184,90 " style="fill:#d81597; stroke-width:1; stroke:black; " description="&lt;b&gt;ADC79637.1&lt;/b&gt;&lt;br&gt;TamAI&lt;br&gt;Location: 2478 - 19964&lt;br&gt;&lt;br&gt;&lt;b&gt;BlastP hit with LLPMBPKK_02201&lt;/b&gt;&lt;br&gt;Percentage identity: 51&lt;br&gt;Percentage coverage: 99&lt;br&gt;BLAST bit score: 2278&lt;br&gt;E-value: 0.0&lt;br&gt;&lt;br&gt;&lt;b&gt;BlastP hit with LLPMBPKK_02203&lt;/b&gt;&lt;br&gt;Percentage identity: 51&lt;br&gt;Percentage coverage: 95&lt;br&gt;BLAST bit score: 1344&lt;br&gt;E-value: 0.0&lt;br&gt;&lt;br&gt;&lt;b&gt;BlastP hit with LLPMBPKK_02204&lt;/b&gt;&lt;br&gt;Percentage identity: 50&lt;br&gt;Percentage coverage: 100&lt;br&gt;BLAST bit score: 1577&lt;br&gt;E-value: 0.0&lt;br&gt;&lt;br&gt;&lt;b&gt;BlastP hit with LLPMBPKK_02205&lt;/b&gt;&lt;br&gt;Percentage identity: 49&lt;br&gt;Percentage coverage: 85&lt;br&gt;BLAST bit score: 1432&lt;br&gt;E-value: 0.0" locus_tag="ADC79637.1" class="clusterblast-orf" id="dummy-12_h12_9_2"  />
</g>
<g id="a12_003"  >
<polygon points="327,90 404,90 409,85 404,80 327,80 327,90 " style="fill:#d81597; stroke-width:1; stroke:black; " description="&lt;b&gt;ADC79638.1&lt;/b&gt;&lt;br&gt;TamAII&lt;br&gt;Location: 20104 - 30201&lt;br&gt;&lt;br&gt;&lt;b&gt;BlastP hit with LLPMBPKK_02201&lt;/b&gt;&lt;br&gt;Percentage identity: 52&lt;br&gt;Percentage coverage: 57&lt;br&gt;BLAST bit score: 1402&lt;br&gt;E-value: 0.0&lt;br&gt;&lt;br&gt;&lt;b&gt;BlastP hit with LLPMBPKK_02203&lt;/b&gt;&lt;br&gt;Percentage identity: 49&lt;br&gt;Percentage coverage: 96&lt;br&gt;BLAST bit score: 1234&lt;br&gt;E-value: 0.0&lt;br&gt;&lt;br&gt;&lt;b&gt;BlastP hit with LLPMBPKK_02204&lt;/b&gt;&lt;br&gt;Percentage identity: 49&lt;br&gt;Percentage coverage: 96&lt;br&gt;BLAST bit score: 1469&lt;br&gt;E-value: 0.0&lt;br&gt;&lt;br&gt;&lt;b&gt;BlastP hit with LLPMBPKK_02205&lt;/b&gt;&lt;br&gt;Percentage identity: 48&lt;br&gt;Percentage coverage: 85&lt;br&gt;BLAST bit score: 1418&lt;br&gt;E-value: 0.0" locus_tag="ADC79638.1" class="clusterblast-orf" id="dummy-12_h12_9_3"  />
</g>
<g id="a12_004"  >
<polygon points="409,90 473,90 478,85 473,80 409,80 409,90 " style="fill:#d81597; stroke-width:1; stroke:black; " description="&lt;b&gt;ADC79639.1&lt;/b&gt;&lt;br&gt;TamAIII&lt;br&gt;Location: 30206 - 38611&lt;br&gt;&lt;br&gt;&lt;b&gt;BlastP hit with LLPMBPKK_02202&lt;/b&gt;&lt;br&gt;Percentage identity: 48&lt;br&gt;Percentage coverage: 75&lt;br&gt;BLAST bit score: 2382&lt;br&gt;E-value: 0.0&lt;br&gt;&lt;br&gt;&lt;b&gt;BlastP hit with LLPMBPKK_02203&lt;/b&gt;&lt;br&gt;Percentage identity: 60&lt;br&gt;Percentage coverage: 57&lt;br&gt;BLAST bit score: 1030&lt;br&gt;E-value: 0.0&lt;br&gt;&lt;br&gt;&lt;b&gt;BlastP hit with LLPMBPKK_02204&lt;/b&gt;&lt;br&gt;Percentage identity: 46&lt;br&gt;Percentage coverage: 97&lt;br&gt;BLAST bit score: 1337&lt;br&gt;E-value: 0.0&lt;br&gt;&lt;br&gt;&lt;b&gt;BlastP hit with LLPMBPKK_02205&lt;/b&gt;&lt;br&gt;Percentage identity: 53&lt;br&gt;Percentage coverage: 88&lt;br&gt;BLAST bit score: 1594&lt;br&gt;E-value: 0.0" locus_tag="ADC79639.1" class="clusterblast-orf" id="dummy-12_h12_9_4"  />
</g>
<g id="a12_005"  >
<polygon points="478,90 479,90 484,85 479,80 478,80 478,90 " style="fill:white; stroke-width:1; stroke:black; " description="&lt;b&gt;ADC79640.1&lt;/b&gt;&lt;br&gt;TamB&lt;br&gt;Location: 38608 - 39384" locus_tag="ADC79640.1" class="clusterblast-orf" id="dummy-12_h12_9_5"  />
</g>
<g id="a12_006"  >
<polygon points="486,90 488,90 493,85 488,80 486,80 486,90 " style="fill:white; stroke-width:1; stroke:black; " description="&lt;b&gt;ADC79641.1&lt;/b&gt;&lt;br&gt;TamC&lt;br&gt;Location: 39576 - 40406" locus_tag="ADC79641.1" class="clusterblast-orf" id="dummy-12_h12_9_6"  />
</g>
<g id="a12_007"  >
<polygon points="493,90 514,90 519,85 514,80 493,80 493,90 " style="fill:white; stroke-width:1; stroke:black; " description="&lt;b&gt;ADC79642.1&lt;/b&gt;&lt;br&gt;TamD&lt;br&gt;Location: 40523 - 43678" locus_tag="ADC79642.1" class="clusterblast-orf" id="dummy-12_h12_9_7"  />
</g>
<g id="a12_008"  >
<polygon points="519,90 521,90 526,85 521,80 519,80 519,90 " style="fill:white; stroke-width:1; stroke:black; " description="&lt;b&gt;ADC79643.1&lt;/b&gt;&lt;br&gt;TamE&lt;br&gt;Location: 43702 - 44532" locus_tag="ADC79643.1" class="clusterblast-orf" id="dummy-12_h12_9_8"  />
</g>
<g id="a12_009"  >
<polygon points="526,90 534,90 539,85 534,80 526,80 526,90 " style="fill:white; stroke-width:1; stroke:black; " description="&lt;b&gt;ADC79644.1&lt;/b&gt;&lt;br&gt;TamF&lt;br&gt;Location: 44529 - 46067" locus_tag="ADC79644.1" class="clusterblast-orf" id="dummy-12_h12_9_9"  />
</g>
<g id="a12_0010"  >
<polygon points="543,90 555,90 560,85 555,80 543,80 543,90 " style="fill:white; stroke-width:1; stroke:black; " description="&lt;b&gt;ADC79645.1&lt;/b&gt;&lt;br&gt;TamG&lt;br&gt;Location: 46558 - 48651" locus_tag="ADC79645.1" class="clusterblast-orf" id="dummy-12_h12_9_10"  />
</g>
<g id="a12_0011"  >
<polygon points="562,90 580,90 585,85 580,80 562,80 562,90 " style="fill:white; stroke-width:1; stroke:black; " description="&lt;b&gt;ADC79646.1&lt;/b&gt;&lt;br&gt;TamH&lt;br&gt;Location: 48917 - 51730" locus_tag="ADC79646.1" class="clusterblast-orf" id="dummy-12_h12_9_11"  />
</g>
<g id="a12_0012"  >
<polygon points="584,85 589,80 594,80 594,90 589,90 584,85 " style="fill:white; stroke-width:1; stroke:black; " description="&lt;b&gt;ADC79647.1&lt;/b&gt;&lt;br&gt;TamI&lt;br&gt;Location: 51684 - 52925" locus_tag="ADC79647.1" class="clusterblast-orf" id="dummy-12_h12_9_12"  />
</g>
<g id="a12_0013"  >
<polygon points="597,85 602,80 609,80 609,90 602,90 597,85 " style="fill:white; stroke-width:1; stroke:black; " description="&lt;b&gt;ADC79648.1&lt;/b&gt;&lt;br&gt;TamJ&lt;br&gt;Location: 53232 - 54728" locus_tag="ADC79648.1" class="clusterblast-orf" id="dummy-12_h12_9_13"  />
</g>
<g id="a12_0014"  >
<polygon points="610,90 611,90 616,85 611,80 610,80 610,90 " style="fill:white; stroke-width:1; stroke:black; " description="&lt;b&gt;ADC79649.1&lt;/b&gt;&lt;br&gt;TamK&lt;br&gt;Location: 54890 - 55522" locus_tag="ADC79649.1" class="clusterblast-orf" id="dummy-12_h12_9_14"  />
</g>
</svg>
