<svg xmlns="http://www.w3.org/2000/svg" xmlns:xlink="http://www.w3.org/1999/xlink" version="1.1" x="0" y="0" height="230" width="800" viewBox="0 0 800 230" preserveAspectRatio="none"  >
<g label="Query sequence" class="clusterblast-cluster"  >
<text x="5" y="20" class="clusterblast-acc"  >
Query sequence</text>
<line x1="10" y1="35" x2="778.0" y2="35" style="stroke-width:1; stroke:grey; "  />
<polygon points="0,40 6,40 11,35 6,30 0,30 0,40 " style="fill:white; stroke-width:1; stroke:black; " description="&lt;b&gt;LLPMBPKK_02512&lt;/b&gt;&lt;br&gt;PDZ domain-containing protein&lt;br&gt;Location: 2919122 - 2920202" locus_tag="LLPMBPKK_02512" class="clusterblast-orf" id="dummy-13_q0_0_all"  />
<polygon points="12,35 14,30 14,40 12,35 " style="fill:white; stroke-width:1; stroke:black; " description="&lt;b&gt;LLPMBPKK_02513&lt;/b&gt;&lt;br&gt;hypothetical protein&lt;br&gt;Location: 2920239 - 2920449" locus_tag="LLPMBPKK_02513" class="clusterblast-orf" id="dummy-13_q1_0_all"  />
<polygon points="15,40 23,40 28,35 23,30 15,30 15,40 " style="fill:white; stroke-width:1; stroke:black; " description="&lt;b&gt;LLPMBPKK_02514&lt;/b&gt;&lt;br&gt;bifunctional adenosylcobinamide kinase/adenosylcobinamide-phosphate guanylyltransferase&lt;br&gt;Location: 2920541 - 2921732" locus_tag="LLPMBPKK_02514" class="clusterblast-orf" id="dummy-13_q2_0_all"  />
<polygon points="30,35 35,30 41,30 41,40 35,40 30,35 " style="fill:white; stroke-width:1; stroke:black; " description="&lt;b&gt;LLPMBPKK_02515&lt;/b&gt;&lt;br&gt;class I SAM-dependent methyltransferase&lt;br&gt;Location: 2921902 - 2922886" locus_tag="LLPMBPKK_02515" class="clusterblast-orf" id="dummy-13_q3_0_all"  />
<polygon points="42,40 49,40 54,35 49,30 42,30 42,40 " style="fill:white; stroke-width:1; stroke:black; " description="&lt;b&gt;LLPMBPKK_02516&lt;/b&gt;&lt;br&gt;nicotinate-nucleotide--dimethylbenzimidazole phosphoribosyltransferase&lt;br&gt;Location: 2923019 - 2924108" locus_tag="LLPMBPKK_02516" class="clusterblast-orf" id="dummy-13_q4_0_all"  />
<polygon points="56,40 73,40 78,35 73,30 56,30 56,40 " style="fill:white; stroke-width:1; stroke:black; " description="&lt;b&gt;LLPMBPKK_02517&lt;/b&gt;&lt;br&gt;hypothetical protein&lt;br&gt;Location: 2924277 - 2926305" locus_tag="LLPMBPKK_02517" class="clusterblast-orf" id="dummy-13_q5_0_all"  />
<polygon points="78,40 82,40 87,35 82,30 78,30 78,40 " style="fill:white; stroke-width:1; stroke:black; " description="&lt;b&gt;LLPMBPKK_02518&lt;/b&gt;&lt;br&gt;hypothetical protein&lt;br&gt;Location: 2926329 - 2927133" locus_tag="LLPMBPKK_02518" class="clusterblast-orf" id="dummy-13_q6_0_all"  />
<polygon points="87,35 92,30 95,30 95,40 92,40 87,35 " style="fill:white; stroke-width:1; stroke:black; " description="&lt;b&gt;LLPMBPKK_02519&lt;/b&gt;&lt;br&gt;integral membrane protein&lt;br&gt;Location: 2927072 - 2927837" locus_tag="LLPMBPKK_02519" class="clusterblast-orf" id="dummy-13_q7_0_all"  />
<polygon points="96,40 99,40 104,35 99,30 96,30 96,40 " style="fill:white; stroke-width:1; stroke:black; " description="&lt;b&gt;LLPMBPKK_02520&lt;/b&gt;&lt;br&gt;adenosylcobinamide-GDP ribazoletransferase&lt;br&gt;Location: 2927897 - 2928659" locus_tag="LLPMBPKK_02520" class="clusterblast-orf" id="dummy-13_q8_0_all"  />
<polygon points="107,40 119,40 124,35 119,30 107,30 107,40 " style="fill:white; stroke-width:1; stroke:black; " description="&lt;b&gt;LLPMBPKK_02521&lt;/b&gt;&lt;br&gt;leucyl aminopeptidase&lt;br&gt;Location: 2928959 - 2930513" locus_tag="LLPMBPKK_02521" class="clusterblast-orf" id="dummy-13_q9_0_all"  />
<polygon points="127,40 138,40 143,35 138,30 127,30 127,40 " style="fill:white; stroke-width:1; stroke:black; " description="&lt;b&gt;LLPMBPKK_02522&lt;/b&gt;&lt;br&gt;dihydrolipoyl dehydrogenase&lt;br&gt;Location: 2930804 - 2932193" locus_tag="LLPMBPKK_02522" class="clusterblast-orf" id="dummy-13_q10_0_all"  />
<polygon points="143,40 158,40 163,35 158,30 143,30 143,40 " style="fill:white; stroke-width:1; stroke:black; " description="&lt;b&gt;LLPMBPKK_02523&lt;/b&gt;&lt;br&gt;2-oxoglutarate dehydrogenase, E2 component, dihydrolipoamide succinyltransferase&lt;br&gt;Location: 2932255 - 2934061" locus_tag="LLPMBPKK_02523" class="clusterblast-orf" id="dummy-13_q11_0_all"  />
<polygon points="165,40 167,40 172,35 167,30 165,30 165,40 " style="fill:white; stroke-width:1; stroke:black; " description="&lt;b&gt;LLPMBPKK_02524&lt;/b&gt;&lt;br&gt;GntR family transcriptional regulator&lt;br&gt;Location: 2934234 - 2934858" locus_tag="LLPMBPKK_02524" class="clusterblast-orf" id="dummy-13_q12_0_all"  />
<polygon points="175,40 199,40 204,35 199,30 175,30 175,40 " style="fill:white; stroke-width:1; stroke:black; " description="&lt;b&gt;LLPMBPKK_02525&lt;/b&gt;&lt;br&gt;pyruvate dehydrogenase (acetyl-transferring),homodimeric type&lt;br&gt;Location: 2935137 - 2937840" locus_tag="LLPMBPKK_02525" class="clusterblast-orf" id="dummy-13_q13_0_all"  />
<polygon points="205,40 211,40 216,35 211,30 205,30 205,40 " style="fill:white; stroke-width:1; stroke:black; " description="&lt;b&gt;LLPMBPKK_02526&lt;/b&gt;&lt;br&gt;YafY family transcriptional regulator&lt;br&gt;Location: 2937898 - 2938885" locus_tag="LLPMBPKK_02526" class="clusterblast-orf" id="dummy-13_q14_0_all"  />
<polygon points="217,40 217,40 222,35 217,30 217,30 217,40 " style="fill:white; stroke-width:1; stroke:black; " description="&lt;b&gt;LLPMBPKK_02527&lt;/b&gt;&lt;br&gt;hypothetical protein&lt;br&gt;Location: 2938940 - 2939459" locus_tag="LLPMBPKK_02527" class="clusterblast-orf" id="dummy-13_q15_0_all"  />
<polygon points="224,35 229,30 234,30 234,40 229,40 224,35 " style="fill:white; stroke-width:1; stroke:black; " description="&lt;b&gt;LLPMBPKK_02528&lt;/b&gt;&lt;br&gt;coenzyme F420-dependent N5,N10-methenyltetrahydromethanopterin reductase&lt;br&gt;Location: 2939635 - 2940553" locus_tag="LLPMBPKK_02528" class="clusterblast-orf" id="dummy-13_q16_0_all"  />
<polygon points="237,40 245,40 250,35 245,30 237,30 237,40 " style="fill:white; stroke-width:1; stroke:black; " description="&lt;b&gt;LLPMBPKK_02529&lt;/b&gt;&lt;br&gt;MarP family serine protease&lt;br&gt;Location: 2940801 - 2941983" locus_tag="LLPMBPKK_02529" class="clusterblast-orf" id="dummy-13_q17_0_all"  />
<polygon points="250,35 255,30 256,30 256,40 255,40 250,35 " style="fill:white; stroke-width:1; stroke:black; " description="&lt;b&gt;LLPMBPKK_02530&lt;/b&gt;&lt;br&gt;GNAT family N-acetyltransferase&lt;br&gt;Location: 2942015 - 2942504" locus_tag="LLPMBPKK_02530" class="clusterblast-orf" id="dummy-13_q18_0_all"  />
<polygon points="256,40 261,40 266,35 261,30 256,30 256,40 " style="fill:white; stroke-width:1; stroke:black; " description="&lt;b&gt;LLPMBPKK_02531&lt;/b&gt;&lt;br&gt;TIGR01777 family protein&lt;br&gt;Location: 2942578 - 2943475" locus_tag="LLPMBPKK_02531" class="clusterblast-orf" id="dummy-13_q19_0_all"  />
<polygon points="268,40 278,40 283,35 278,30 268,30 268,40 " style="fill:white; stroke-width:1; stroke:black; " description="&lt;b&gt;LLPMBPKK_02532&lt;/b&gt;&lt;br&gt;FAD-dependent oxidoreductase&lt;br&gt;Location: 2943643 - 2945008" locus_tag="LLPMBPKK_02532" class="clusterblast-orf" id="dummy-13_q20_0_all"  />
<polygon points="284,35 289,30 300,30 300,40 289,40 284,35 " style="fill:white; stroke-width:1; stroke:black; " description="&lt;b&gt;LLPMBPKK_02533&lt;/b&gt;&lt;br&gt;regulator&lt;br&gt;Location: 2945077 - 2946523" locus_tag="LLPMBPKK_02533" class="clusterblast-orf" id="dummy-13_q21_0_all"  />
<polygon points="302,40 306,40 311,35 306,30 302,30 302,40 " style="fill:white; stroke-width:1; stroke:black; " description="&lt;b&gt;LLPMBPKK_02534&lt;/b&gt;&lt;br&gt;lipoyl(octanoyl) transferase LipB&lt;br&gt;Location: 2946763 - 2947561" locus_tag="LLPMBPKK_02534" class="clusterblast-orf" id="dummy-13_q22_0_all"  />
<polygon points="312,40 318,40 323,35 318,30 312,30 312,40 " style="fill:white; stroke-width:1; stroke:black; " description="&lt;b&gt;LLPMBPKK_02535&lt;/b&gt;&lt;br&gt;lipoyl synthase&lt;br&gt;Location: 2947675 - 2948641" locus_tag="LLPMBPKK_02535" class="clusterblast-orf" id="dummy-13_q23_0_all"  />
<polygon points="325,40 327,35 325,30 325,40 " style="fill:white; stroke-width:1; stroke:black; " description="&lt;b&gt;LLPMBPKK_02536&lt;/b&gt;&lt;br&gt;hypothetical protein&lt;br&gt;Location: 2948870 - 2949068" locus_tag="LLPMBPKK_02536" class="clusterblast-orf" id="dummy-13_q24_0_all"  />
<polygon points="328,40 331,40 336,35 331,30 328,30 328,40 " style="fill:white; stroke-width:1; stroke:black; " description="&lt;b&gt;LLPMBPKK_02537&lt;/b&gt;&lt;br&gt;hypothetical protein&lt;br&gt;Location: 2949148 - 2949850" locus_tag="LLPMBPKK_02537" class="clusterblast-orf" id="dummy-13_q25_0_all"  />
<polygon points="338,40 345,40 350,35 345,30 338,30 338,40 " style="fill:#d81515; stroke-width:1; stroke:black; " description="&lt;b&gt;LLPMBPKK_02538&lt;/b&gt;&lt;br&gt;hypothetical protein&lt;br&gt;Location: 2950017 - 2951142" locus_tag="LLPMBPKK_02538" class="clusterblast-orf" id="dummy-13_q26_0_all"  />
<polygon points="351,40 357,40 362,35 357,30 351,30 351,40 " style="fill:#3cd815; stroke-width:1; stroke:black; " description="&lt;b&gt;LLPMBPKK_02539&lt;/b&gt;&lt;br&gt;methyltransferase&lt;br&gt;Location: 2951185 - 2952250" locus_tag="LLPMBPKK_02539" class="clusterblast-orf" id="dummy-13_q27_0_all"  />
<polygon points="364,35 367,30 367,40 364,35 " style="fill:#1563d8; stroke-width:1; stroke:black; " description="&lt;b&gt;LLPMBPKK_02540&lt;/b&gt;&lt;br&gt;TcmI family type II polyketide cyclase&lt;br&gt;Location: 2952376 - 2952700" locus_tag="LLPMBPKK_02540" class="clusterblast-orf" id="dummy-13_q28_0_all"  />
<polygon points="367,35 372,30 373,30 373,40 372,40 367,35 " style="fill:#b115d8; stroke-width:1; stroke:black; " description="&lt;b&gt;LLPMBPKK_02541&lt;/b&gt;&lt;br&gt;PKSA cyclase I&lt;br&gt;Location: 2952721 - 2953201" locus_tag="LLPMBPKK_02541" class="clusterblast-orf" id="dummy-13_q29_0_all"  />
<polygon points="373,35 375,30 375,40 373,35 " style="fill:#d88a15; stroke-width:1; stroke:black; " description="&lt;b&gt;LLPMBPKK_02542&lt;/b&gt;&lt;br&gt;acyl carrier protein&lt;br&gt;Location: 2953202 - 2953457" locus_tag="LLPMBPKK_02542" class="clusterblast-orf" id="dummy-13_q30_0_all"  />
<polygon points="376,35 381,30 389,30 389,40 381,40 376,35 " style="fill:#15d863; stroke-width:1; stroke:black; " description="&lt;b&gt;LLPMBPKK_02543&lt;/b&gt;&lt;br&gt;PKSA beta-ketoacylsynthase subunit beta&lt;br&gt;Location: 2953497 - 2954742" locus_tag="LLPMBPKK_02543" class="clusterblast-orf" id="dummy-13_q31_0_all"  />
<polygon points="390,35 395,30 403,30 403,40 395,40 390,35 " style="fill:#3c15d8; stroke-width:1; stroke:black; " description="&lt;b&gt;LLPMBPKK_02544&lt;/b&gt;&lt;br&gt;beta-ketoacyl-[acyl-carrier-protein] synthasefamily protein&lt;br&gt;Location: 2954749 - 2956009" locus_tag="LLPMBPKK_02544" class="clusterblast-orf" id="dummy-13_q32_0_all"  />
<polygon points="403,35 408,30 408,30 408,40 408,40 403,35 " style="fill:#d8158a; stroke-width:1; stroke:black; " description="&lt;b&gt;LLPMBPKK_02545&lt;/b&gt;&lt;br&gt;cupin domain-containing protein&lt;br&gt;Location: 2956005 - 2956425" locus_tag="LLPMBPKK_02545" class="clusterblast-orf" id="dummy-13_q33_0_all"  />
<polygon points="408,35 413,30 420,30 420,40 413,40 408,35 " style="fill:#b1d815; stroke-width:1; stroke:black; " description="&lt;b&gt;LLPMBPKK_02546&lt;/b&gt;&lt;br&gt;protein in whiE locus&lt;br&gt;Location: 2956460 - 2957549" locus_tag="LLPMBPKK_02546" class="clusterblast-orf" id="dummy-13_q34_0_all"  />
<polygon points="422,40 436,40 441,35 436,30 422,30 422,40 " style="fill:#15d8d8; stroke-width:1; stroke:black; " description="&lt;b&gt;LLPMBPKK_02547&lt;/b&gt;&lt;br&gt;polyketide hydroxylase&lt;br&gt;Location: 2957749 - 2959408" locus_tag="LLPMBPKK_02547" class="clusterblast-orf" id="dummy-13_q35_0_all"  />
<polygon points="442,35 447,30 447,30 447,40 447,40 442,35 " style="fill:white; stroke-width:1; stroke:black; " description="&lt;b&gt;LLPMBPKK_02548&lt;/b&gt;&lt;br&gt;RDD family protein&lt;br&gt;Location: 2959558 - 2959975" locus_tag="LLPMBPKK_02548" class="clusterblast-orf" id="dummy-13_q36_0_all"  />
<polygon points="450,40 460,40 465,35 460,30 450,30 450,40 " style="fill:white; stroke-width:1; stroke:black; " description="&lt;b&gt;LLPMBPKK_02549&lt;/b&gt;&lt;br&gt;type I glutamate--ammonia ligase&lt;br&gt;Location: 2960236 - 2961646" locus_tag="LLPMBPKK_02549" class="clusterblast-orf" id="dummy-13_q37_0_all"  />
<polygon points="467,35 472,30 473,30 473,40 472,40 467,35 " style="fill:white; stroke-width:1; stroke:black; " description="&lt;b&gt;LLPMBPKK_02550&lt;/b&gt;&lt;br&gt;isochorismatase&lt;br&gt;Location: 2961811 - 2962402" locus_tag="LLPMBPKK_02550" class="clusterblast-orf" id="dummy-13_q38_0_all"  />
<polygon points="475,40 481,40 486,35 481,30 475,30 475,40 " style="fill:white; stroke-width:1; stroke:black; " description="&lt;b&gt;LLPMBPKK_02551&lt;/b&gt;&lt;br&gt;transcriptional regulator&lt;br&gt;Location: 2962528 - 2963518" locus_tag="LLPMBPKK_02551" class="clusterblast-orf" id="dummy-13_q39_0_all"  />
<polygon points="487,40 489,35 487,30 487,40 " style="fill:white; stroke-width:1; stroke:black; " description="&lt;b&gt;LLPMBPKK_02552&lt;/b&gt;&lt;br&gt;hypothetical protein&lt;br&gt;Location: 2963626 - 2963881" locus_tag="LLPMBPKK_02552" class="clusterblast-orf" id="dummy-13_q40_0_all"  />
<polygon points="491,40 497,40 502,35 497,30 491,30 491,40 " style="fill:white; stroke-width:1; stroke:black; " description="&lt;b&gt;LLPMBPKK_02553&lt;/b&gt;&lt;br&gt;zinc metalloprotease HtpX&lt;br&gt;Location: 2964038 - 2964989" locus_tag="LLPMBPKK_02553" class="clusterblast-orf" id="dummy-13_q41_0_all"  />
<polygon points="502,40 503,40 508,35 503,30 502,30 502,40 " style="fill:white; stroke-width:1; stroke:black; " description="&lt;b&gt;LLPMBPKK_02554&lt;/b&gt;&lt;br&gt;hypothetical protein&lt;br&gt;Location: 2964992 - 2965577" locus_tag="LLPMBPKK_02554" class="clusterblast-orf" id="dummy-13_q42_0_all"  />
<polygon points="508,35 511,30 511,40 508,35 " style="fill:white; stroke-width:1; stroke:black; " description="&lt;b&gt;LLPMBPKK_02555&lt;/b&gt;&lt;br&gt;hypothetical protein&lt;br&gt;Location: 2965596 - 2965875" locus_tag="LLPMBPKK_02555" class="clusterblast-orf" id="dummy-13_q43_0_all"  />
<polygon points="514,35 517,30 517,40 514,35 " style="fill:white; stroke-width:1; stroke:black; " description="&lt;b&gt;LLPMBPKK_02556&lt;/b&gt;&lt;br&gt;hypothetical protein&lt;br&gt;Location: 2966081 - 2966396" locus_tag="LLPMBPKK_02556" class="clusterblast-orf" id="dummy-13_q44_0_all"  />
<polygon points="519,40 523,35 519,30 519,40 " style="fill:white; stroke-width:1; stroke:black; " description="&lt;b&gt;LLPMBPKK_02557&lt;/b&gt;&lt;br&gt;arsenate reductase family protein&lt;br&gt;Location: 2966616 - 2966985" locus_tag="LLPMBPKK_02557" class="clusterblast-orf" id="dummy-13_q45_0_all"  />
<polygon points="525,40 528,40 533,35 528,30 525,30 525,40 " style="fill:white; stroke-width:1; stroke:black; " description="&lt;b&gt;LLPMBPKK_02558&lt;/b&gt;&lt;br&gt;hypothetical protein&lt;br&gt;Location: 2967104 - 2967860" locus_tag="LLPMBPKK_02558" class="clusterblast-orf" id="dummy-13_q46_0_all"  />
<polygon points="536,40 542,40 547,35 542,30 536,30 536,40 " style="fill:white; stroke-width:1; stroke:black; " description="&lt;b&gt;LLPMBPKK_02559&lt;/b&gt;&lt;br&gt;glutamine synthetase&lt;br&gt;Location: 2968103 - 2969135" locus_tag="LLPMBPKK_02559" class="clusterblast-orf" id="dummy-13_q47_0_all"  />
<polygon points="552,40 554,40 559,35 554,30 552,30 552,40 " style="fill:white; stroke-width:1; stroke:black; " description="&lt;b&gt;LLPMBPKK_02560&lt;/b&gt;&lt;br&gt;winged helix family transcriptional regulator&lt;br&gt;Location: 2969627 - 2970203" locus_tag="LLPMBPKK_02560" class="clusterblast-orf" id="dummy-13_q48_0_all"  />
<polygon points="559,40 566,40 571,35 566,30 559,30 559,40 " style="fill:white; stroke-width:1; stroke:black; " description="&lt;b&gt;LLPMBPKK_02561&lt;/b&gt;&lt;br&gt;NAD-dependent epimerase/dehydratase familyprotein&lt;br&gt;Location: 2970263 - 2971310" locus_tag="LLPMBPKK_02561" class="clusterblast-orf" id="dummy-13_q49_0_all"  />
<polygon points="571,40 580,40 585,35 580,30 571,30 571,40 " style="fill:white; stroke-width:1; stroke:black; " description="&lt;b&gt;LLPMBPKK_02562&lt;/b&gt;&lt;br&gt;sensor histidine kinase&lt;br&gt;Location: 2971342 - 2972620" locus_tag="LLPMBPKK_02562" class="clusterblast-orf" id="dummy-13_q50_0_all"  />
<polygon points="585,40 587,40 592,35 587,30 585,30 585,40 " style="fill:white; stroke-width:1; stroke:black; " description="&lt;b&gt;LLPMBPKK_02563&lt;/b&gt;&lt;br&gt;response regulator transcription factor&lt;br&gt;Location: 2972604 - 2973258" locus_tag="LLPMBPKK_02563" class="clusterblast-orf" id="dummy-13_q51_0_all"  />
<polygon points="594,40 606,40 611,35 606,30 594,30 594,40 " style="fill:white; stroke-width:1; stroke:black; " description="&lt;b&gt;LLPMBPKK_02564&lt;/b&gt;&lt;br&gt;hypothetical protein&lt;br&gt;Location: 2973394 - 2974975" locus_tag="LLPMBPKK_02564" class="clusterblast-orf" id="dummy-13_q52_0_all"  />
<polygon points="612,35 617,30 617,30 617,40 617,40 612,35 " style="fill:white; stroke-width:1; stroke:black; " description="&lt;b&gt;LLPMBPKK_02565&lt;/b&gt;&lt;br&gt;hypothetical protein&lt;br&gt;Location: 2975053 - 2975491" locus_tag="LLPMBPKK_02565" class="clusterblast-orf" id="dummy-13_q53_0_all"  />
<polygon points="618,40 634,40 639,35 634,30 618,30 618,40 " style="fill:white; stroke-width:1; stroke:black; " description="&lt;b&gt;LLPMBPKK_02566&lt;/b&gt;&lt;br&gt;hypothetical protein&lt;br&gt;Location: 2975639 - 2977559" locus_tag="LLPMBPKK_02566" class="clusterblast-orf" id="dummy-13_q54_0_all"  />
<polygon points="640,40 645,40 650,35 645,30 640,30 640,40 " style="fill:white; stroke-width:1; stroke:black; " description="&lt;b&gt;LLPMBPKK_02567&lt;/b&gt;&lt;br&gt;metal-dependent hydrolase&lt;br&gt;Location: 2977628 - 2978507" locus_tag="LLPMBPKK_02567" class="clusterblast-orf" id="dummy-13_q55_0_all"  />
<polygon points="650,40 656,40 661,35 656,30 650,30 650,40 " style="fill:white; stroke-width:1; stroke:black; " description="&lt;b&gt;LLPMBPKK_02568&lt;/b&gt;&lt;br&gt;oxidoreductase&lt;br&gt;Location: 2978506 - 2979529" locus_tag="LLPMBPKK_02568" class="clusterblast-orf" id="dummy-13_q56_0_all"  />
<polygon points="661,40 664,40 669,35 664,30 661,30 661,40 " style="fill:white; stroke-width:1; stroke:black; " description="&lt;b&gt;LLPMBPKK_02569&lt;/b&gt;&lt;br&gt;TetR/AcrR family transcriptional regulator&lt;br&gt;Location: 2979589 - 2980255" locus_tag="LLPMBPKK_02569" class="clusterblast-orf" id="dummy-13_q57_0_all"  />
<polygon points="669,35 673,30 673,40 669,35 " style="fill:white; stroke-width:1; stroke:black; " description="&lt;b&gt;LLPMBPKK_02570&lt;/b&gt;&lt;br&gt;isomerase&lt;br&gt;Location: 2980262 - 2980625" locus_tag="LLPMBPKK_02570" class="clusterblast-orf" id="dummy-13_q58_0_all"  />
<polygon points="673,35 678,30 732,30 732,40 678,40 673,35 " style="fill:white; stroke-width:1; stroke:black; " description="&lt;b&gt;LLPMBPKK_02571&lt;/b&gt;&lt;br&gt;pullulanase-type alpha-1,6-glucosidase&lt;br&gt;Location: 2980657 - 2986063" locus_tag="LLPMBPKK_02571" class="clusterblast-orf" id="dummy-13_q59_0_all"  />
<polygon points="733,35 738,30 748,30 748,40 738,40 733,35 " style="fill:white; stroke-width:1; stroke:black; " description="&lt;b&gt;LLPMBPKK_02572&lt;/b&gt;&lt;br&gt;glycosidase&lt;br&gt;Location: 2986152 - 2987529" locus_tag="LLPMBPKK_02572" class="clusterblast-orf" id="dummy-13_q60_0_all"  />
<polygon points="750,35 755,30 769,30 769,40 755,40 750,35 " style="fill:white; stroke-width:1; stroke:black; " description="&lt;b&gt;LLPMBPKK_02573&lt;/b&gt;&lt;br&gt;glycoside hydrolase family 13 protein&lt;br&gt;Location: 2987683 - 2989390" locus_tag="LLPMBPKK_02573" class="clusterblast-orf" id="dummy-13_q61_0_all"  />
<polygon points="770,35 775,30 780,30 780,40 775,40 770,35 " style="fill:white; stroke-width:1; stroke:black; " description="&lt;b&gt;LLPMBPKK_02574&lt;/b&gt;&lt;br&gt;ABC transporter permease subunit&lt;br&gt;Location: 2989481 - 2990387" locus_tag="LLPMBPKK_02574" class="clusterblast-orf" id="dummy-13_q62_0_all"  />
</g>
<g label="BGC0002315" description="BGC0002315_c1: accramycin A (13% of genes show similarity), Polyketide" class="clusterblast-cluster"  >
<text x="5" y="70" class="clusterblast-acc"  >
<a xlink:href="https://mibig.secondarymetabolites.org/go/BGC0002315/1" target="_blank">BGC0002315</a>:                                                                     accramycin A (13% of genes show similarity), Polyketide</text>
<line x1="10" y1="85" x2="778.0" y2="85" style="stroke-width:1; stroke:grey; "  />
</g>
<g id="a13_000"  >
<polygon points="214,90 217,90 222,85 217,80 214,80 214,90 " style="fill:white; stroke-width:1; stroke:black; " description="&lt;b&gt;QKO28672.1&lt;/b&gt;&lt;br&gt;polyprenol-monophosphomannose synthase&lt;br&gt;Location: 752 - 1432" locus_tag="QKO28672.1" class="clusterblast-orf" id="dummy-13_h13_6_0"  />
</g>
<g id="a13_001"  >
<polygon points="222,90 224,90 229,85 224,80 222,80 222,90 " style="fill:white; stroke-width:1; stroke:black; " description="&lt;b&gt;QKO28673.1&lt;/b&gt;&lt;br&gt;glycosyl transferase&lt;br&gt;Location: 1429 - 2061" locus_tag="QKO28673.1" class="clusterblast-orf" id="dummy-13_h13_6_1"  />
</g>
<g id="a13_002"  >
<polygon points="229,90 231,90 236,85 231,80 229,80 229,90 " style="fill:white; stroke-width:1; stroke:black; " description="&lt;b&gt;QKO28707.1&lt;/b&gt;&lt;br&gt;methyl transferase&lt;br&gt;Location: 2058 - 2720" locus_tag="QKO28707.1" class="clusterblast-orf" id="dummy-13_h13_6_2"  />
</g>
<g id="a13_003"  >
<polygon points="236,85 238,80 238,90 236,85 " style="fill:white; stroke-width:1; stroke:black; " description="&lt;b&gt;QKO28674.1&lt;/b&gt;&lt;br&gt;hypothetical protein&lt;br&gt;Location: 2758 - 2940" locus_tag="QKO28674.1" class="clusterblast-orf" id="dummy-13_h13_6_3"  />
</g>
<g id="a13_004"  >
<polygon points="241,85 242,80 242,90 241,85 " style="fill:white; stroke-width:1; stroke:black; " description="&lt;b&gt;QKO28675.1&lt;/b&gt;&lt;br&gt;hypothetical protein&lt;br&gt;Location: 3146 - 3262" locus_tag="QKO28675.1" class="clusterblast-orf" id="dummy-13_h13_6_4"  />
</g>
<g id="a13_005"  >
<polygon points="242,85 246,80 246,90 242,85 " style="fill:white; stroke-width:1; stroke:black; " description="&lt;b&gt;QKO28676.1&lt;/b&gt;&lt;br&gt;transcriptional regulator&lt;br&gt;Location: 3280 - 3618" locus_tag="QKO28676.1" class="clusterblast-orf" id="dummy-13_h13_6_5"  />
</g>
<g id="a13_006"  >
<polygon points="246,90 252,90 257,85 252,80 246,80 246,90 " style="fill:white; stroke-width:1; stroke:black; " description="&lt;b&gt;QKO28677.1&lt;/b&gt;&lt;br&gt;3-hydroxyisobutyrate dehydrogenase&lt;br&gt;Location: 3687 - 4604" locus_tag="QKO28677.1" class="clusterblast-orf" id="dummy-13_h13_6_6"  />
</g>
<g id="a13_007"  >
<polygon points="258,90 262,90 267,85 262,80 258,80 258,90 " style="fill:white; stroke-width:1; stroke:black; " description="&lt;b&gt;QKO28678.1&lt;/b&gt;&lt;br&gt;transcriptional regulator, MerR family&lt;br&gt;Location: 4730 - 5557" locus_tag="QKO28678.1" class="clusterblast-orf" id="dummy-13_h13_6_7"  />
</g>
<g id="a13_008"  >
<polygon points="267,85 272,80 274,80 274,90 272,90 267,85 " style="fill:white; stroke-width:1; stroke:black; " description="&lt;b&gt;QKO28679.1&lt;/b&gt;&lt;br&gt;nucleotide phosphorylase&lt;br&gt;Location: 5589 - 6170" locus_tag="QKO28679.1" class="clusterblast-orf" id="dummy-13_h13_6_8"  />
</g>
<g id="a13_009"  >
<polygon points="276,90 276,90 281,85 276,80 276,80 276,90 " style="fill:white; stroke-width:1; stroke:black; " description="&lt;b&gt;QKO28680.1&lt;/b&gt;&lt;br&gt;VOC family protein&lt;br&gt;Location: 6384 - 6824" locus_tag="QKO28680.1" class="clusterblast-orf" id="dummy-13_h13_6_9"  />
</g>
<g id="a13_0010"  >
<polygon points="281,85 286,80 288,80 288,90 286,90 281,85 " style="fill:white; stroke-width:1; stroke:black; " description="&lt;b&gt;QPA18727.1&lt;/b&gt;&lt;br&gt;maleyl pyruvate isomerase family myco-thiol dependent enzyme&lt;br&gt;Location: 6866 - 7474" locus_tag="QPA18727.1" class="clusterblast-orf" id="dummy-13_h13_6_10"  />
</g>
<g id="a13_0011"  >
<polygon points="289,90 294,90 299,85 294,80 289,80 289,90 " style="fill:white; stroke-width:1; stroke:black; " description="&lt;b&gt;QKO28681.1&lt;/b&gt;&lt;br&gt;LysR family transcriptional regulator&lt;br&gt;Location: 7606 - 8517" locus_tag="QKO28681.1" class="clusterblast-orf" id="dummy-13_h13_6_11"  />
</g>
<g id="a13_0012"  >
<polygon points="302,90 305,85 302,80 302,90 " style="fill:white; stroke-width:1; stroke:black; " description="&lt;b&gt;QKO28682.1&lt;/b&gt;&lt;br&gt;hypothetical protein&lt;br&gt;Location: 8720 - 9046" locus_tag="QKO28682.1" class="clusterblast-orf" id="dummy-13_h13_6_12"  />
</g>
<g id="a13_0013"  >
<polygon points="306,85 311,80 311,80 311,90 311,90 306,85 " style="fill:white; stroke-width:1; stroke:black; " description="&lt;b&gt;QKO28683.1&lt;/b&gt;&lt;br&gt;hypothetical protein&lt;br&gt;Location: 9121 - 9543" locus_tag="QKO28683.1" class="clusterblast-orf" id="dummy-13_h13_6_13"  />
</g>
<g id="a13_0014"  >
<polygon points="311,85 316,80 323,80 323,90 316,90 311,85 " style="fill:white; stroke-width:1; stroke:black; " description="&lt;b&gt;QKO28684.1&lt;/b&gt;&lt;br&gt;molybdopterin-binding protein&lt;br&gt;Location: 9543 - 10703" locus_tag="QKO28684.1" class="clusterblast-orf" id="dummy-13_h13_6_14"  />
</g>
<g id="a13_0015"  >
<polygon points="324,90 335,90 340,85 335,80 324,80 324,90 " style="fill:white; stroke-width:1; stroke:black; " description="&lt;b&gt;QKO28685.1&lt;/b&gt;&lt;br&gt;hypothetical protein&lt;br&gt;Location: 10795 - 12237" locus_tag="QKO28685.1" class="clusterblast-orf" id="dummy-13_h13_6_15"  />
</g>
<g id="a13_0016"  >
<polygon points="340,90 351,90 356,85 351,80 340,80 340,90 " style="fill:white; stroke-width:1; stroke:black; " description="&lt;b&gt;QKO28686.1&lt;/b&gt;&lt;br&gt;ABC transporter ATP-binding protein&lt;br&gt;Location: 12234 - 13709" locus_tag="QKO28686.1" class="clusterblast-orf" id="dummy-13_h13_6_16"  />
</g>
<g id="a13_0017"  >
<polygon points="356,90 362,90 367,85 362,80 356,80 356,90 " style="fill:white; stroke-width:1; stroke:black; " description="&lt;b&gt;QKO28687.1&lt;/b&gt;&lt;br&gt;ABC transporter ATP-binding protein&lt;br&gt;Location: 13706 - 14665" locus_tag="QKO28687.1" class="clusterblast-orf" id="dummy-13_h13_6_17"  />
</g>
<g id="a13_0018"  >
<polygon points="368,90 372,85 368,80 368,90 " style="fill:white; stroke-width:1; stroke:black; " description="&lt;b&gt;QKO28688.1&lt;/b&gt;&lt;br&gt;Type II PKS cyclase&lt;br&gt;Location: 14769 - 15128" locus_tag="QKO28688.1" class="clusterblast-orf" id="dummy-13_h13_6_18"  />
</g>
<g id="a13_0019"  >
<polygon points="372,90 383,90 388,85 383,80 372,80 372,90 " style="fill:white; stroke-width:1; stroke:black; " description="&lt;b&gt;QKO28689.1&lt;/b&gt;&lt;br&gt;sodium/hydrogen exchanger&lt;br&gt;Location: 15125 - 16654" locus_tag="QKO28689.1" class="clusterblast-orf" id="dummy-13_h13_6_19"  />
</g>
<g id="a13_0020"  >
<polygon points="389,90 389,90 394,85 389,80 389,80 389,90 " style="fill:white; stroke-width:1; stroke:black; " description="&lt;b&gt;QKO28690.1&lt;/b&gt;&lt;br&gt;MarR family transcriptional regulator&lt;br&gt;Location: 16727 - 17164" locus_tag="QKO28690.1" class="clusterblast-orf" id="dummy-13_h13_6_20"  />
</g>
<g id="a13_0021"  >
<polygon points="398,90 404,90 409,85 404,80 398,80 398,90 " style="fill:white; stroke-width:1; stroke:black; " description="&lt;b&gt;QKO28691.1&lt;/b&gt;&lt;br&gt;sensor histidine kinase&lt;br&gt;Location: 17491 - 18570" locus_tag="QKO28691.1" class="clusterblast-orf" id="dummy-13_h13_6_21"  />
</g>
<g id="a13_0022"  >
<polygon points="409,90 412,90 417,85 412,80 409,80 409,90 " style="fill:white; stroke-width:1; stroke:black; " description="&lt;b&gt;QKO28692.1&lt;/b&gt;&lt;br&gt;LuxR family DNA-binding response regulator&lt;br&gt;Location: 18567 - 19250" locus_tag="QKO28692.1" class="clusterblast-orf" id="dummy-13_h13_6_22"  />
</g>
<g id="a13_0023"  >
<polygon points="416,85 421,80 421,80 421,90 421,90 416,85 " style="fill:#b115d8; stroke-width:1; stroke:black; " description="&lt;b&gt;QKO28693.1&lt;/b&gt;&lt;br&gt;cyclase/dehydrase&lt;br&gt;Location: 19207 - 19665&lt;br&gt;&lt;br&gt;&lt;b&gt;BlastP hit with LLPMBPKK_02541&lt;/b&gt;&lt;br&gt;Percentage identity: 66&lt;br&gt;Percentage coverage: 91&lt;br&gt;BLAST bit score: 219&lt;br&gt;E-value: 3.32e-74" locus_tag="QKO28693.1" class="clusterblast-orf" id="dummy-13_h13_6_23"  />
</g>
<g id="a13_0024"  >
<polygon points="421,85 425,80 425,90 421,85 " style="fill:white; stroke-width:1; stroke:black; " description="&lt;b&gt;QKO28694.1&lt;/b&gt;&lt;br&gt;acyl carrier protein&lt;br&gt;Location: 19662 - 19955" locus_tag="QKO28694.1" class="clusterblast-orf" id="dummy-13_h13_6_24"  />
</g>
<g id="a13_0025"  >
<polygon points="425,85 430,80 439,80 439,90 430,90 425,85 " style="fill:#15d863; stroke-width:1; stroke:black; " description="&lt;b&gt;QKO28695.1&lt;/b&gt;&lt;br&gt;beta-ketoacyl synthase&lt;br&gt;Location: 20001 - 21248&lt;br&gt;&lt;br&gt;&lt;b&gt;BlastP hit with LLPMBPKK_02543&lt;/b&gt;&lt;br&gt;Percentage identity: 55&lt;br&gt;Percentage coverage: 98&lt;br&gt;BLAST bit score: 394&lt;br&gt;E-value: 2.67e-135" locus_tag="QKO28695.1" class="clusterblast-orf" id="dummy-13_h13_6_25"  />
</g>
<g id="a13_0026"  >
<polygon points="439,85 444,80 453,80 453,90 444,90 439,85 " style="fill:#3c15d8; stroke-width:1; stroke:black; " description="&lt;b&gt;QKO28696.1&lt;/b&gt;&lt;br&gt;beta-ketoacyl synthase&lt;br&gt;Location: 21245 - 22525&lt;br&gt;&lt;br&gt;&lt;b&gt;BlastP hit with LLPMBPKK_02544&lt;/b&gt;&lt;br&gt;Percentage identity: 70&lt;br&gt;Percentage coverage: 99&lt;br&gt;BLAST bit score: 573&lt;br&gt;E-value: 1.29e-205" locus_tag="QKO28696.1" class="clusterblast-orf" id="dummy-13_h13_6_26"  />
</g>
<g id="a13_0027"  >
<polygon points="453,85 457,80 457,90 453,85 " style="fill:#d8158a; stroke-width:1; stroke:black; " description="&lt;b&gt;QKO28697.1&lt;/b&gt;&lt;br&gt;AraC family transcriptional regulator&lt;br&gt;Location: 22522 - 22917&lt;br&gt;&lt;br&gt;&lt;b&gt;BlastP hit with LLPMBPKK_02545&lt;/b&gt;&lt;br&gt;Percentage identity: 62&lt;br&gt;Percentage coverage: 87&lt;br&gt;BLAST bit score: 172&lt;br&gt;E-value: 2.88e-56" locus_tag="QKO28697.1" class="clusterblast-orf" id="dummy-13_h13_6_27"  />
</g>
<g id="a13_0028"  >
<polygon points="457,85 461,80 461,90 457,85 " style="fill:white; stroke-width:1; stroke:black; " description="&lt;b&gt;QKO28698.1&lt;/b&gt;&lt;br&gt;antibiotic biosynthesis monooxygenase&lt;br&gt;Location: 22940 - 23281" locus_tag="QKO28698.1" class="clusterblast-orf" id="dummy-13_h13_6_28"  />
</g>
<g id="a13_0029"  >
<polygon points="461,85 466,80 472,80 472,90 466,90 461,85 " style="fill:#3cd815; stroke-width:1; stroke:black; " description="&lt;b&gt;QKO28699.1&lt;/b&gt;&lt;br&gt;O-methyl transferase&lt;br&gt;Location: 23278 - 24330&lt;br&gt;&lt;br&gt;&lt;b&gt;BlastP hit with LLPMBPKK_02539&lt;/b&gt;&lt;br&gt;Percentage identity: 51&lt;br&gt;Percentage coverage: 93&lt;br&gt;BLAST bit score: 322&lt;br&gt;E-value: 7.14e-109" locus_tag="QKO28699.1" class="clusterblast-orf" id="dummy-13_h13_6_29"  />
</g>
<g id="a13_0030"  >
<polygon points="474,90 477,85 474,80 474,90 " style="fill:white; stroke-width:1; stroke:black; " description="&lt;b&gt;QKO28700.1&lt;/b&gt;&lt;br&gt;antibiotic biosynthesis monooxygenase&lt;br&gt;Location: 24446 - 24787" locus_tag="QKO28700.1" class="clusterblast-orf" id="dummy-13_h13_6_30"  />
</g>
<g id="a13_0031"  >
<polygon points="477,90 486,90 491,85 486,80 477,80 477,90 " style="fill:white; stroke-width:1; stroke:black; " description="&lt;b&gt;QKO28701.1&lt;/b&gt;&lt;br&gt;halogenase&lt;br&gt;Location: 24780 - 26072" locus_tag="QKO28701.1" class="clusterblast-orf" id="dummy-13_h13_6_31"  />
</g>
<g id="a13_0032"  >
<polygon points="491,90 498,90 503,85 498,80 491,80 491,90 " style="fill:white; stroke-width:1; stroke:black; " description="&lt;b&gt;QKO28702.1&lt;/b&gt;&lt;br&gt;O-methyl transferase&lt;br&gt;Location: 26069 - 27115" locus_tag="QKO28702.1" class="clusterblast-orf" id="dummy-13_h13_6_32"  />
</g>
<g id="a13_0033"  >
<polygon points="504,85 509,80 519,80 519,90 509,90 504,85 " style="fill:white; stroke-width:1; stroke:black; " description="&lt;b&gt;QKO28703.1&lt;/b&gt;&lt;br&gt;phenylalanine-specific permease&lt;br&gt;Location: 27175 - 28617" locus_tag="QKO28703.1" class="clusterblast-orf" id="dummy-13_h13_6_33"  />
</g>
<g id="a13_0034"  >
<polygon points="520,85 525,80 546,80 546,90 525,90 520,85 " style="fill:white; stroke-width:1; stroke:black; " description="&lt;b&gt;QKO28704.1&lt;/b&gt;&lt;br&gt;glycoside hydrolase family 92 protein&lt;br&gt;Location: 28714 - 31047" locus_tag="QKO28704.1" class="clusterblast-orf" id="dummy-13_h13_6_34"  />
</g>
<g id="a13_0035"  >
<polygon points="546,90 548,85 546,80 546,90 " style="fill:white; stroke-width:1; stroke:black; " description="&lt;b&gt;QKO28705.1&lt;/b&gt;&lt;br&gt;hypothetical protein&lt;br&gt;Location: 31066 - 31197" locus_tag="QKO28705.1" class="clusterblast-orf" id="dummy-13_h13_6_35"  />
</g>
<g id="a13_0036"  >
<polygon points="548,90 560,90 565,85 560,80 548,80 548,90 " style="fill:white; stroke-width:1; stroke:black; " description="&lt;b&gt;QKO28706.1&lt;/b&gt;&lt;br&gt;pyruvate oxidase/decarboxylase&lt;br&gt;Location: 31202 - 32755" locus_tag="QKO28706.1" class="clusterblast-orf" id="dummy-13_h13_6_36"  />
</g>
</svg>
