<svg xmlns="http://www.w3.org/2000/svg" xmlns:xlink="http://www.w3.org/1999/xlink" version="1.1" x="0" y="0" height="230" width="800" viewBox="0 0 800 230" preserveAspectRatio="none"  >
<g label="Query sequence" class="clusterblast-cluster"  >
<text x="5" y="20" class="clusterblast-acc"  >
Query sequence</text>
<line x1="10" y1="35" x2="778.0" y2="35" style="stroke-width:1; stroke:grey; "  />
<polygon points="48,35 53,30 59,30 59,40 53,40 48,35 " style="fill:white; stroke-width:1; stroke:black; " description="&lt;b&gt;LLPMBPKK_02624&lt;/b&gt;&lt;br&gt;esterase&lt;br&gt;Location: 3040870 - 3042052" locus_tag="LLPMBPKK_02624" class="clusterblast-orf" id="dummy-14_q0_0_all"  />
<polygon points="58,35 63,30 70,30 70,40 63,40 58,35 " style="fill:white; stroke-width:1; stroke:black; " description="&lt;b&gt;LLPMBPKK_02625&lt;/b&gt;&lt;br&gt;Bcr/CflA family efflux MFS transporter&lt;br&gt;Location: 3041991 - 3043305" locus_tag="LLPMBPKK_02625" class="clusterblast-orf" id="dummy-14_q1_0_all"  />
<polygon points="71,40 75,40 80,35 75,30 71,30 71,40 " style="fill:white; stroke-width:1; stroke:black; " description="&lt;b&gt;LLPMBPKK_02626&lt;/b&gt;&lt;br&gt;Gfo/Idh/MocA family oxidoreductase&lt;br&gt;Location: 3043420 - 3044488" locus_tag="LLPMBPKK_02626" class="clusterblast-orf" id="dummy-14_q2_0_all"  />
<polygon points="80,40 82,40 87,35 82,30 80,30 80,40 " style="fill:white; stroke-width:1; stroke:black; " description="&lt;b&gt;LLPMBPKK_02627&lt;/b&gt;&lt;br&gt;SDR family oxidoreductase&lt;br&gt;Location: 3044544 - 3045303" locus_tag="LLPMBPKK_02627" class="clusterblast-orf" id="dummy-14_q3_0_all"  />
<polygon points="89,35 94,30 100,30 100,40 94,40 89,35 " style="fill:white; stroke-width:1; stroke:black; " description="&lt;b&gt;LLPMBPKK_02628&lt;/b&gt;&lt;br&gt;D-alanyl-D-alanine carboxypeptidase&lt;br&gt;Location: 3045532 - 3046732" locus_tag="LLPMBPKK_02628" class="clusterblast-orf" id="dummy-14_q4_0_all"  />
<polygon points="101,35 106,30 110,30 110,40 106,40 101,35 " style="fill:white; stroke-width:1; stroke:black; " description="&lt;b&gt;LLPMBPKK_02629&lt;/b&gt;&lt;br&gt;aldo/keto reductase&lt;br&gt;Location: 3046922 - 3047903" locus_tag="LLPMBPKK_02629" class="clusterblast-orf" id="dummy-14_q5_0_all"  />
<polygon points="110,35 113,30 113,40 110,35 " style="fill:white; stroke-width:1; stroke:black; " description="&lt;b&gt;LLPMBPKK_02630&lt;/b&gt;&lt;br&gt;hypothetical protein&lt;br&gt;Location: 3047957 - 3048284" locus_tag="LLPMBPKK_02630" class="clusterblast-orf" id="dummy-14_q6_0_all"  />
<polygon points="114,40 114,40 119,35 114,30 114,30 114,40 " style="fill:white; stroke-width:1; stroke:black; " description="&lt;b&gt;LLPMBPKK_02631&lt;/b&gt;&lt;br&gt;DoxX family membrane protein&lt;br&gt;Location: 3048412 - 3048958" locus_tag="LLPMBPKK_02631" class="clusterblast-orf" id="dummy-14_q7_0_all"  />
<polygon points="147,40 149,40 154,35 149,30 147,30 147,40 " style="fill:white; stroke-width:1; stroke:black; " description="&lt;b&gt;LLPMBPKK_02633&lt;/b&gt;&lt;br&gt;SARP family pathway specific regulatory protein&lt;br&gt;Location: 3052124 - 3052937" locus_tag="LLPMBPKK_02633" class="clusterblast-orf" id="dummy-14_q8_0_all"  />
<polygon points="154,40 155,40 160,35 155,30 154,30 154,40 " style="fill:white; stroke-width:1; stroke:black; " description="&lt;b&gt;LLPMBPKK_02634&lt;/b&gt;&lt;br&gt;hypothetical protein&lt;br&gt;Location: 3052984 - 3053599" locus_tag="LLPMBPKK_02634" class="clusterblast-orf" id="dummy-14_q9_0_all"  />
<polygon points="160,35 165,30 166,30 166,40 165,40 160,35 " style="fill:white; stroke-width:1; stroke:black; " description="&lt;b&gt;LLPMBPKK_02635&lt;/b&gt;&lt;br&gt;response regulator transcription factor&lt;br&gt;Location: 3053664 - 3054273" locus_tag="LLPMBPKK_02635" class="clusterblast-orf" id="dummy-14_q10_0_all"  />
<polygon points="167,35 172,30 177,30 177,40 172,40 167,35 " style="fill:white; stroke-width:1; stroke:black; " description="&lt;b&gt;LLPMBPKK_02636&lt;/b&gt;&lt;br&gt;two-component system histidine kinase&lt;br&gt;Location: 3054353 - 3055583" locus_tag="LLPMBPKK_02636" class="clusterblast-orf" id="dummy-14_q11_0_all"  />
<polygon points="178,35 183,30 184,30 184,40 183,40 178,35 " style="fill:white; stroke-width:1; stroke:black; " description="&lt;b&gt;LLPMBPKK_02637&lt;/b&gt;&lt;br&gt;response regulator transcription factor&lt;br&gt;Location: 3055699 - 3056347" locus_tag="LLPMBPKK_02637" class="clusterblast-orf" id="dummy-14_q12_0_all"  />
<polygon points="185,35 190,30 195,30 195,40 190,40 185,35 " style="fill:white; stroke-width:1; stroke:black; " description="&lt;b&gt;LLPMBPKK_02638&lt;/b&gt;&lt;br&gt;sensor histidine kinase&lt;br&gt;Location: 3056404 - 3057598" locus_tag="LLPMBPKK_02638" class="clusterblast-orf" id="dummy-14_q13_0_all"  />
<polygon points="195,35 200,30 215,30 215,40 200,40 195,35 " style="fill:#d81515; stroke-width:1; stroke:black; " description="&lt;b&gt;LLPMBPKK_02639&lt;/b&gt;&lt;br&gt;membrane protein&lt;br&gt;Location: 3057650 - 3059855" locus_tag="LLPMBPKK_02639" class="clusterblast-orf" id="dummy-14_q14_0_all"  />
<polygon points="216,35 221,30 223,30 223,40 221,40 216,35 " style="fill:#5cd815; stroke-width:1; stroke:black; " description="&lt;b&gt;LLPMBPKK_02640&lt;/b&gt;&lt;br&gt;kinase&lt;br&gt;Location: 3059942 - 3060836" locus_tag="LLPMBPKK_02640" class="clusterblast-orf" id="dummy-14_q15_0_all"  />
<polygon points="223,35 228,30 253,30 253,40 228,40 223,35 " style="fill:#15c7d8; stroke-width:1; stroke:black; " description="&lt;b&gt;LLPMBPKK_02641&lt;/b&gt;&lt;br&gt;amino acid adenylation domain-containing protein&lt;br&gt;Location: 3060832 - 3064153" locus_tag="LLPMBPKK_02641" class="clusterblast-orf" id="dummy-14_q16_0_all"  />
<polygon points="252,35 257,30 263,30 263,40 257,40 252,35 " style="fill:#8015d8; stroke-width:1; stroke:black; " description="&lt;b&gt;LLPMBPKK_02642&lt;/b&gt;&lt;br&gt;argininosuccinate lyase&lt;br&gt;Location: 3064149 - 3065394" locus_tag="LLPMBPKK_02642" class="clusterblast-orf" id="dummy-14_q17_0_all"  />
<polygon points="264,35 269,30 277,30 277,40 269,40 264,35 " style="fill:#d83915; stroke-width:1; stroke:black; " description="&lt;b&gt;LLPMBPKK_02643&lt;/b&gt;&lt;br&gt;argininosuccinate lyase&lt;br&gt;Location: 3065465 - 3066932" locus_tag="LLPMBPKK_02643" class="clusterblast-orf" id="dummy-14_q18_0_all"  />
<polygon points="277,35 282,30 286,30 286,40 282,40 277,35 " style="fill:#39d815; stroke-width:1; stroke:black; " description="&lt;b&gt;LLPMBPKK_02644&lt;/b&gt;&lt;br&gt;cystathionine beta-synthase/cysteine synthase&lt;br&gt;Location: 3066928 - 3068008" locus_tag="LLPMBPKK_02644" class="clusterblast-orf" id="dummy-14_q19_0_all"  />
<polygon points="288,40 290,40 295,35 290,30 288,30 288,40 " style="fill:#15a3d8; stroke-width:1; stroke:black; " description="&lt;b&gt;LLPMBPKK_02645&lt;/b&gt;&lt;br&gt;thioesterase&lt;br&gt;Location: 3068211 - 3068961" locus_tag="LLPMBPKK_02645" class="clusterblast-orf" id="dummy-14_q20_0_all"  />
<polygon points="295,35 300,30 307,30 307,40 300,40 295,35 " style="fill:#a315d8; stroke-width:1; stroke:black; " description="&lt;b&gt;LLPMBPKK_02646&lt;/b&gt;&lt;br&gt;3-deoxy-7-phosphoheptulonate synthase class II&lt;br&gt;Location: 3068987 - 3070364" locus_tag="LLPMBPKK_02646" class="clusterblast-orf" id="dummy-14_q21_0_all"  />
<polygon points="309,40 317,40 322,35 317,30 309,30 309,40 " style="fill:#d85c15; stroke-width:1; stroke:black; " description="&lt;b&gt;LLPMBPKK_02647&lt;/b&gt;&lt;br&gt;anthranilate synthase component I family protein&lt;br&gt;Location: 3070592 - 3072113" locus_tag="LLPMBPKK_02647" class="clusterblast-orf" id="dummy-14_q22_0_all"  />
<polygon points="323,40 323,40 328,35 323,30 323,30 323,40 " style="fill:#15d815; stroke-width:1; stroke:black; " description="&lt;b&gt;LLPMBPKK_02648&lt;/b&gt;&lt;br&gt;aminodeoxychorismate/anthranilate synthasecomponent II&lt;br&gt;Location: 3072127 - 3072709" locus_tag="LLPMBPKK_02648" class="clusterblast-orf" id="dummy-14_q23_0_all"  />
<polygon points="328,35 333,30 340,30 340,40 333,40 328,35 " style="fill:#1580d8; stroke-width:1; stroke:black; " description="&lt;b&gt;LLPMBPKK_02649&lt;/b&gt;&lt;br&gt;PLP-dependent aminotransferase family protein&lt;br&gt;Location: 3072714 - 3074097" locus_tag="LLPMBPKK_02649" class="clusterblast-orf" id="dummy-14_q24_0_all"  />
<polygon points="341,40 345,40 350,35 345,30 341,30 341,40 " style="fill:#c715d8; stroke-width:1; stroke:black; " description="&lt;b&gt;LLPMBPKK_02650&lt;/b&gt;&lt;br&gt;anthranilate phosphoribosyltransferase&lt;br&gt;Location: 3074247 - 3075312" locus_tag="LLPMBPKK_02650" class="clusterblast-orf" id="dummy-14_q25_0_all"  />
<polygon points="352,35 357,30 359,30 359,40 357,40 352,35 " style="fill:#d88015; stroke-width:1; stroke:black; " description="&lt;b&gt;LLPMBPKK_02651&lt;/b&gt;&lt;br&gt;indole-3-glycerol-phosphate synthase&lt;br&gt;Location: 3075536 - 3076322" locus_tag="LLPMBPKK_02651" class="clusterblast-orf" id="dummy-14_q26_0_all"  />
<polygon points="360,35 365,30 368,30 368,40 365,40 360,35 " style="fill:#15d839; stroke-width:1; stroke:black; " description="&lt;b&gt;LLPMBPKK_02652&lt;/b&gt;&lt;br&gt;TauD/TfdA family dioxygenase&lt;br&gt;Location: 3076408 - 3077359" locus_tag="LLPMBPKK_02652" class="clusterblast-orf" id="dummy-14_q27_0_all"  />
<polygon points="368,35 373,30 379,30 379,40 373,40 368,35 " style="fill:#155cd8; stroke-width:1; stroke:black; " description="&lt;b&gt;LLPMBPKK_02653&lt;/b&gt;&lt;br&gt;cytochrome P450&lt;br&gt;Location: 3077360 - 3078608" locus_tag="LLPMBPKK_02653" class="clusterblast-orf" id="dummy-14_q28_0_all"  />
<polygon points="380,35 385,30 387,30 387,40 385,40 380,35 " style="fill:#d815c7; stroke-width:1; stroke:black; " description="&lt;b&gt;LLPMBPKK_02654&lt;/b&gt;&lt;br&gt;ABC transporter&lt;br&gt;Location: 3078625 - 3079501" locus_tag="LLPMBPKK_02654" class="clusterblast-orf" id="dummy-14_q29_0_all"  />
<polygon points="389,35 394,30 488,30 488,40 394,40 389,35 " style="fill:#d8a315; stroke-width:1; stroke:black; " description="&lt;b&gt;LLPMBPKK_02655&lt;/b&gt;&lt;br&gt;non-ribosomal peptide synthetase&lt;br&gt;Location: 3079676 - 3091022" locus_tag="LLPMBPKK_02655" class="clusterblast-orf" id="dummy-14_q30_0_all"  />
<polygon points="489,35 494,30 495,30 495,40 494,40 489,35 " style="fill:#15d85c; stroke-width:1; stroke:black; " description="&lt;b&gt;LLPMBPKK_02656&lt;/b&gt;&lt;br&gt;2-hydroxychromene-2-carboxylate isomerase&lt;br&gt;Location: 3091108 - 3091813" locus_tag="LLPMBPKK_02656" class="clusterblast-orf" id="dummy-14_q31_0_all"  />
<polygon points="496,35 501,30 502,30 502,40 501,40 496,35 " style="fill:#1539d8; stroke-width:1; stroke:black; " description="&lt;b&gt;LLPMBPKK_02657&lt;/b&gt;&lt;br&gt;SDR family oxidoreductase&lt;br&gt;Location: 3091863 - 3092610" locus_tag="LLPMBPKK_02657" class="clusterblast-orf" id="dummy-14_q32_0_all"  />
<polygon points="503,35 508,30 512,30 512,40 508,40 503,35 " style="fill:#d815a3; stroke-width:1; stroke:black; " description="&lt;b&gt;LLPMBPKK_02658&lt;/b&gt;&lt;br&gt;3-oxoacyl-ACP synthase I&lt;br&gt;Location: 3092672 - 3093761" locus_tag="LLPMBPKK_02658" class="clusterblast-orf" id="dummy-14_q33_0_all"  />
<polygon points="512,35 517,30 524,30 524,40 517,40 512,35 " style="fill:#d8c715; stroke-width:1; stroke:black; " description="&lt;b&gt;LLPMBPKK_02659&lt;/b&gt;&lt;br&gt;beta-ketoacyl-[acyl-carrier-protein] synthasefamily protein&lt;br&gt;Location: 3093760 - 3095032" locus_tag="LLPMBPKK_02659" class="clusterblast-orf" id="dummy-14_q34_0_all"  />
<polygon points="524,35 526,30 526,40 524,35 " style="fill:#15d880; stroke-width:1; stroke:black; " description="&lt;b&gt;LLPMBPKK_02660&lt;/b&gt;&lt;br&gt;acyl carrier protein&lt;br&gt;Location: 3095064 - 3095343" locus_tag="LLPMBPKK_02660" class="clusterblast-orf" id="dummy-14_q35_0_all"  />
<polygon points="527,35 532,30 535,30 535,40 532,40 527,35 " style="fill:#1515d8; stroke-width:1; stroke:black; " description="&lt;b&gt;LLPMBPKK_02661&lt;/b&gt;&lt;br&gt;LysR family transcriptional regulator&lt;br&gt;Location: 3095421 - 3096372" locus_tag="LLPMBPKK_02661" class="clusterblast-orf" id="dummy-14_q36_0_all"  />
<polygon points="538,35 543,30 545,30 545,40 543,40 538,35 " style="fill:#d81580; stroke-width:1; stroke:black; " description="&lt;b&gt;LLPMBPKK_02662&lt;/b&gt;&lt;br&gt;SARP family transcriptional regulator&lt;br&gt;Location: 3096695 - 3097481" locus_tag="LLPMBPKK_02662" class="clusterblast-orf" id="dummy-14_q37_0_all"  />
<polygon points="548,40 556,40 561,35 556,30 548,30 548,40 " style="fill:#c7d815; stroke-width:1; stroke:black; " description="&lt;b&gt;LLPMBPKK_02663&lt;/b&gt;&lt;br&gt;tryptophan 7-halogenase&lt;br&gt;Location: 3097785 - 3099336" locus_tag="LLPMBPKK_02663" class="clusterblast-orf" id="dummy-14_q38_0_all"  />
<polygon points="562,40 568,40 573,35 568,30 562,30 562,40 " style="fill:#15d8a3; stroke-width:1; stroke:black; " description="&lt;b&gt;LLPMBPKK_02664&lt;/b&gt;&lt;br&gt;cation/H(+) antiporter&lt;br&gt;Location: 3099363 - 3100656" locus_tag="LLPMBPKK_02664" class="clusterblast-orf" id="dummy-14_q39_0_all"  />
<polygon points="573,40 577,35 573,30 573,40 " style="fill:#3915d8; stroke-width:1; stroke:black; " description="&lt;b&gt;LLPMBPKK_02665&lt;/b&gt;&lt;br&gt;flavin reductase&lt;br&gt;Location: 3100652 - 3101177" locus_tag="LLPMBPKK_02665" class="clusterblast-orf" id="dummy-14_q40_0_all"  />
<polygon points="578,40 580,40 585,35 580,30 578,30 578,40 " style="fill:#d8155c; stroke-width:1; stroke:black; " description="&lt;b&gt;LLPMBPKK_02666&lt;/b&gt;&lt;br&gt;peptide ABC transporter ATPase&lt;br&gt;Location: 3101265 - 3102063" locus_tag="LLPMBPKK_02666" class="clusterblast-orf" id="dummy-14_q41_0_all"  />
<polygon points="585,40 602,40 607,35 602,30 585,30 585,40 " style="fill:#a3d815; stroke-width:1; stroke:black; " description="&lt;b&gt;LLPMBPKK_02667&lt;/b&gt;&lt;br&gt;ABC transporter permease&lt;br&gt;Location: 3102059 - 3104591" locus_tag="LLPMBPKK_02667" class="clusterblast-orf" id="dummy-14_q42_0_all"  />
<polygon points="608,35 613,30 617,30 617,40 613,40 608,35 " style="fill:#15d8c7; stroke-width:1; stroke:black; " description="&lt;b&gt;LLPMBPKK_02668&lt;/b&gt;&lt;br&gt;transcriptional regulator&lt;br&gt;Location: 3104670 - 3105693" locus_tag="LLPMBPKK_02668" class="clusterblast-orf" id="dummy-14_q43_0_all"  />
<polygon points="618,35 623,30 626,30 626,40 623,40 618,35 " style="fill:#5c15d8; stroke-width:1; stroke:black; " description="&lt;b&gt;LLPMBPKK_02669&lt;/b&gt;&lt;br&gt;multidrug ABC transporter ATPase&lt;br&gt;Location: 3105771 - 3106719" locus_tag="LLPMBPKK_02669" class="clusterblast-orf" id="dummy-14_q44_0_all"  />
<polygon points="626,35 628,30 628,40 626,35 " style="fill:#d81539; stroke-width:1; stroke:black; " description="&lt;b&gt;LLPMBPKK_02670&lt;/b&gt;&lt;br&gt;MbtH family protein&lt;br&gt;Location: 3106752 - 3106974" locus_tag="LLPMBPKK_02670" class="clusterblast-orf" id="dummy-14_q45_0_all"  />
<polygon points="629,35 634,30 643,30 643,40 634,40 629,35 " style="fill:#80d815; stroke-width:1; stroke:black; " description="&lt;b&gt;LLPMBPKK_02671&lt;/b&gt;&lt;br&gt;non-ribosomal peptide synthetase&lt;br&gt;Location: 3107091 - 3108651" locus_tag="LLPMBPKK_02671" class="clusterblast-orf" id="dummy-14_q46_0_all"  />
<polygon points="645,35 650,30 652,30 652,40 650,40 645,35 " style="fill:white; stroke-width:1; stroke:black; " description="&lt;b&gt;LLPMBPKK_02672&lt;/b&gt;&lt;br&gt;4'-phosphopantetheinyl transferase superfamilyprotein&lt;br&gt;Location: 3108909 - 3109626" locus_tag="LLPMBPKK_02672" class="clusterblast-orf" id="dummy-14_q47_0_all"  />
<polygon points="652,35 657,30 660,30 660,40 657,40 652,35 " style="fill:white; stroke-width:1; stroke:black; " description="&lt;b&gt;LLPMBPKK_02673&lt;/b&gt;&lt;br&gt;alpha/beta hydrolase fold protein&lt;br&gt;Location: 3109622 - 3110603" locus_tag="LLPMBPKK_02673" class="clusterblast-orf" id="dummy-14_q48_0_all"  />
<polygon points="660,35 665,30 666,30 666,40 665,40 660,35 " style="fill:white; stroke-width:1; stroke:black; " description="&lt;b&gt;LLPMBPKK_02674&lt;/b&gt;&lt;br&gt;tryptophan 2,3-dioxygenase&lt;br&gt;Location: 3110599 - 3111292" locus_tag="LLPMBPKK_02674" class="clusterblast-orf" id="dummy-14_q49_0_all"  />
<polygon points="669,40 671,35 669,30 669,40 " style="fill:white; stroke-width:1; stroke:black; " description="&lt;b&gt;LLPMBPKK_02675&lt;/b&gt;&lt;br&gt;hypothetical protein&lt;br&gt;Location: 3111645 - 3111846" locus_tag="LLPMBPKK_02675" class="clusterblast-orf" id="dummy-14_q50_0_all"  />
<polygon points="671,40 687,40 692,35 687,30 671,30 671,40 " style="fill:white; stroke-width:1; stroke:black; " description="&lt;b&gt;LLPMBPKK_02676&lt;/b&gt;&lt;br&gt;TOMM precursor leader peptide-binding protein&lt;br&gt;Location: 3111842 - 3114203" locus_tag="LLPMBPKK_02676" class="clusterblast-orf" id="dummy-14_q51_0_all"  />
<polygon points="693,40 697,35 693,30 693,40 " style="fill:white; stroke-width:1; stroke:black; " description="&lt;b&gt;LLPMBPKK_02677&lt;/b&gt;&lt;br&gt;hypothetical protein&lt;br&gt;Location: 3114308 - 3114755" locus_tag="LLPMBPKK_02677" class="clusterblast-orf" id="dummy-14_q52_0_all"  />
<polygon points="698,40 698,40 703,35 698,30 698,30 698,40 " style="fill:white; stroke-width:1; stroke:black; " description="&lt;b&gt;LLPMBPKK_02678&lt;/b&gt;&lt;br&gt;NUDIX domain-containing protein&lt;br&gt;Location: 3114939 - 3115461" locus_tag="LLPMBPKK_02678" class="clusterblast-orf" id="dummy-14_q53_0_all"  />
<polygon points="707,35 712,30 715,30 715,40 712,40 707,35 " style="fill:white; stroke-width:1; stroke:black; " description="&lt;b&gt;LLPMBPKK_02679&lt;/b&gt;&lt;br&gt;integral membrane protein&lt;br&gt;Location: 3115906 - 3116836" locus_tag="LLPMBPKK_02679" class="clusterblast-orf" id="dummy-14_q54_0_all"  />
<polygon points="715,35 720,30 722,30 722,40 720,40 715,35 " style="fill:white; stroke-width:1; stroke:black; " description="&lt;b&gt;LLPMBPKK_02680&lt;/b&gt;&lt;br&gt;AraC family transcriptional regulator&lt;br&gt;Location: 3116832 - 3117684" locus_tag="LLPMBPKK_02680" class="clusterblast-orf" id="dummy-14_q55_0_all"  />
<polygon points="724,40 726,40 731,35 726,30 724,30 724,40 " style="fill:white; stroke-width:1; stroke:black; " description="&lt;b&gt;LLPMBPKK_02681&lt;/b&gt;&lt;br&gt;MerR family transcriptional regulator&lt;br&gt;Location: 3117924 - 3118671" locus_tag="LLPMBPKK_02681" class="clusterblast-orf" id="dummy-14_q56_0_all"  />
</g>
<g label="BGC0000379" description="BGC0000379_c1: glycinocin A (16% of genes show similarity), NRP" class="clusterblast-cluster"  >
<text x="5" y="70" class="clusterblast-acc"  >
<a xlink:href="https://mibig.secondarymetabolites.org/go/BGC0000379/1" target="_blank">BGC0000379</a>:                                                                     glycinocin A (16% of genes show similarity), NRP</text>
<line x1="10" y1="85" x2="778.0" y2="85" style="stroke-width:1; stroke:grey; "  />
</g>
<g id="a14_000"  >
<polygon points="0,85 5,80 5,80 5,90 5,90 0,85 " style="fill:white; stroke-width:1; stroke:black; " description="&lt;b&gt;AEG64695.1&lt;/b&gt;&lt;br&gt;response regulator&lt;br&gt;Location: 88912 - 88235" locus_tag="AEG64695.1" class="clusterblast-orf" id="dummy-14_h14_7_0"  />
</g>
<g id="a14_001"  >
<polygon points="8,85 13,80 17,80 17,90 13,90 8,85 " style="fill:white; stroke-width:1; stroke:black; " description="&lt;b&gt;AEG64694.1&lt;/b&gt;&lt;br&gt;hypothetical protein&lt;br&gt;Location: 87937 - 86903" locus_tag="AEG64694.1" class="clusterblast-orf" id="dummy-14_h14_7_1"  />
</g>
<g id="a14_002"  >
<polygon points="19,85 24,80 25,80 25,90 24,90 19,85 " style="fill:white; stroke-width:1; stroke:black; " description="&lt;b&gt;AEG64693.1&lt;/b&gt;&lt;br&gt;two component system response regulator&lt;br&gt;Location: 86636 - 85953" locus_tag="AEG64693.1" class="clusterblast-orf" id="dummy-14_h14_7_2"  />
</g>
<g id="a14_003"  >
<polygon points="25,85 30,80 40,80 40,90 30,90 25,85 " style="fill:white; stroke-width:1; stroke:black; " description="&lt;b&gt;AEG64692.1&lt;/b&gt;&lt;br&gt;two component system histidine kinase&lt;br&gt;Location: 85956 - 84295" locus_tag="AEG64692.1" class="clusterblast-orf" id="dummy-14_h14_7_3"  />
</g>
<g id="a14_004"  >
<polygon points="41,90 45,90 50,85 45,80 41,80 41,90 " style="fill:white; stroke-width:1; stroke:black; " description="&lt;b&gt;AEF16038.1&lt;/b&gt;&lt;br&gt;hypothetical protein&lt;br&gt;Location: 84137 - 83181" locus_tag="AEF16038.1" class="clusterblast-orf" id="dummy-14_h14_7_4"  />
</g>
<g id="a14_005"  >
<polygon points="50,90 50,90 55,85 50,80 50,80 50,90 " style="fill:white; stroke-width:1; stroke:black; " description="&lt;b&gt;AEF16037.1&lt;/b&gt;&lt;br&gt;integral membrane protein&lt;br&gt;Location: 83184 - 82645" locus_tag="AEF16037.1" class="clusterblast-orf" id="dummy-14_h14_7_5"  />
</g>
<g id="a14_006"  >
<polygon points="55,90 63,90 68,85 63,80 55,80 55,90 " style="fill:white; stroke-width:1; stroke:black; " description="&lt;b&gt;AEF16036.1&lt;/b&gt;&lt;br&gt;integral membrane protein&lt;br&gt;Location: 82637 - 81132" locus_tag="AEF16036.1" class="clusterblast-orf" id="dummy-14_h14_7_6"  />
</g>
<g id="a14_007"  >
<polygon points="71,90 76,90 81,85 76,80 71,80 71,90 " style="fill:white; stroke-width:1; stroke:black; " description="&lt;b&gt;AEF16035.1&lt;/b&gt;&lt;br&gt;integral membrane protein&lt;br&gt;Location: 80737 - 79616" locus_tag="AEF16035.1" class="clusterblast-orf" id="dummy-14_h14_7_7"  />
</g>
<g id="a14_008"  >
<polygon points="82,90 93,90 98,85 93,80 82,80 82,90 " style="fill:white; stroke-width:1; stroke:black; " description="&lt;b&gt;AEF16034.1&lt;/b&gt;&lt;br&gt;VanW family protein&lt;br&gt;Location: 79493 - 77739" locus_tag="AEF16034.1" class="clusterblast-orf" id="dummy-14_h14_7_8"  />
</g>
<g id="a14_009"  >
<polygon points="98,90 100,90 105,85 100,80 98,80 98,90 " style="fill:white; stroke-width:1; stroke:black; " description="&lt;b&gt;AEF16033.1&lt;/b&gt;&lt;br&gt;hypothetical protein&lt;br&gt;Location: 77711 - 76908" locus_tag="AEF16033.1" class="clusterblast-orf" id="dummy-14_h14_7_9"  />
</g>
<g id="a14_0010"  >
<polygon points="105,90 111,90 116,85 111,80 105,80 105,90 " style="fill:white; stroke-width:1; stroke:black; " description="&lt;b&gt;AEF16032.1&lt;/b&gt;&lt;br&gt;regulatory protein D&lt;br&gt;Location: 76899 - 75613" locus_tag="AEF16032.1" class="clusterblast-orf" id="dummy-14_h14_7_10"  />
</g>
<g id="a14_0011"  >
<polygon points="116,90 117,90 122,85 117,80 116,80 116,90 " style="fill:white; stroke-width:1; stroke:black; " description="&lt;b&gt;AEF16031.1&lt;/b&gt;&lt;br&gt;regulatory protein C&lt;br&gt;Location: 75622 - 74978" locus_tag="AEF16031.1" class="clusterblast-orf" id="dummy-14_h14_7_11"  />
</g>
<g id="a14_0012"  >
<polygon points="124,85 129,80 133,80 133,90 129,90 124,85 " style="fill:white; stroke-width:1; stroke:black; " description="&lt;b&gt;AEF16030.1&lt;/b&gt;&lt;br&gt;lysine cyclodeaminase&lt;br&gt;Location: 74780 - 73752" locus_tag="AEF16030.1" class="clusterblast-orf" id="dummy-14_h14_7_12"  />
</g>
<g id="a14_0013"  >
<polygon points="135,90 150,90 155,85 150,80 135,80 135,90 " style="fill:#d81515; stroke-width:1; stroke:black; " description="&lt;b&gt;AEF16029.1&lt;/b&gt;&lt;br&gt;putative drug exporter&lt;br&gt;Location: 73497 - 71176&lt;br&gt;&lt;br&gt;&lt;b&gt;BlastP hit with LLPMBPKK_02639&lt;/b&gt;&lt;br&gt;Percentage identity: 47&lt;br&gt;Percentage coverage: 98&lt;br&gt;BLAST bit score: 542&lt;br&gt;E-value: 2.02e-183" locus_tag="AEF16029.1" class="clusterblast-orf" id="dummy-14_h14_7_13"  />
</g>
<g id="a14_0014"  >
<polygon points="156,85 161,80 163,80 163,90 161,90 156,85 " style="fill:white; stroke-width:1; stroke:black; " description="&lt;b&gt;AEF16028.1&lt;/b&gt;&lt;br&gt;LipE-like protein&lt;br&gt;Location: 71071 - 70265" locus_tag="AEF16028.1" class="clusterblast-orf" id="dummy-14_h14_7_14"  />
</g>
<g id="a14_0015"  >
<polygon points="164,85 166,80 166,90 164,85 " style="fill:#d81539; stroke-width:1; stroke:black; " description="&lt;b&gt;AEG64691.1&lt;/b&gt;&lt;br&gt;MbtH-like protein&lt;br&gt;Location: 70174 - 69950&lt;br&gt;&lt;br&gt;&lt;b&gt;BlastP hit with LLPMBPKK_02670&lt;/b&gt;&lt;br&gt;Percentage identity: 66&lt;br&gt;Percentage coverage: 85&lt;br&gt;BLAST bit score: 101&lt;br&gt;E-value: 4.04e-30" locus_tag="AEG64691.1" class="clusterblast-orf" id="dummy-14_h14_7_15"  />
</g>
<g id="a14_0016"  >
<polygon points="166,85 171,80 230,80 230,90 171,90 166,85 " style="fill:white; stroke-width:1; stroke:black; " description="&lt;b&gt;AEG64698.1&lt;/b&gt;&lt;br&gt;LpmD&lt;br&gt;Location: 69918 - 62701" locus_tag="AEG64698.1" class="clusterblast-orf" id="dummy-14_h14_7_16"  />
</g>
<g id="a14_0017"  >
<polygon points="230,85 235,80 408,80 408,90 235,90 230,85 " style="fill:white; stroke-width:1; stroke:black; " description="&lt;b&gt;AEG64697.1&lt;/b&gt;&lt;br&gt;LpmC&lt;br&gt;Location: 62701 - 42386" locus_tag="AEG64697.1" class="clusterblast-orf" id="dummy-14_h14_7_17"  />
</g>
<g id="a14_0018"  >
<polygon points="409,85 414,80 493,80 493,90 414,90 409,85 " style="fill:white; stroke-width:1; stroke:black; " description="&lt;b&gt;AEG64696.1&lt;/b&gt;&lt;br&gt;LpmB&lt;br&gt;Location: 42275 - 32712" locus_tag="AEG64696.1" class="clusterblast-orf" id="dummy-14_h14_7_18"  />
</g>
<g id="a14_0019"  >
<polygon points="494,85 497,80 497,90 494,85 " style="fill:white; stroke-width:1; stroke:black; " description="&lt;b&gt;AEF16024.1&lt;/b&gt;&lt;br&gt;acyl carrier protein&lt;br&gt;Location: 32542 - 32261" locus_tag="AEF16024.1" class="clusterblast-orf" id="dummy-14_h14_7_19"  />
</g>
<g id="a14_0020"  >
<polygon points="497,85 502,80 504,80 504,90 502,90 497,85 " style="fill:white; stroke-width:1; stroke:black; " description="&lt;b&gt;AEF16023.1&lt;/b&gt;&lt;br&gt;hypothetical protein&lt;br&gt;Location: 32240 - 31434" locus_tag="AEF16023.1" class="clusterblast-orf" id="dummy-14_h14_7_20"  />
</g>
<g id="a14_0021"  >
<polygon points="504,85 509,80 519,80 519,90 509,90 504,85 " style="fill:white; stroke-width:1; stroke:black; " description="&lt;b&gt;AEG64690.1&lt;/b&gt;&lt;br&gt;acyl-CoA dehydrogenase&lt;br&gt;Location: 31437 - 29698" locus_tag="AEG64690.1" class="clusterblast-orf" id="dummy-14_h14_7_21"  />
</g>
<g id="a14_0022"  >
<polygon points="519,85 524,80 535,80 535,90 524,90 519,85 " style="fill:white; stroke-width:1; stroke:black; " description="&lt;b&gt;AEF16021.1&lt;/b&gt;&lt;br&gt;acyl-CoA synthase&lt;br&gt;Location: 29701 - 27878" locus_tag="AEF16021.1" class="clusterblast-orf" id="dummy-14_h14_7_22"  />
</g>
<g id="a14_0023"  >
<polygon points="538,90 540,90 545,85 540,80 538,80 538,90 " style="fill:white; stroke-width:1; stroke:black; " description="&lt;b&gt;AEF16020.1&lt;/b&gt;&lt;br&gt;ABC transporter protein&lt;br&gt;Location: 27579 - 26737" locus_tag="AEF16020.1" class="clusterblast-orf" id="dummy-14_h14_7_23"  />
</g>
<g id="a14_0024"  >
<polygon points="546,90 549,90 554,85 549,80 546,80 546,90 " style="fill:white; stroke-width:1; stroke:black; " description="&lt;b&gt;AEF16019.1&lt;/b&gt;&lt;br&gt;regulatory protein B&lt;br&gt;Location: 26695 - 25748" locus_tag="AEF16019.1" class="clusterblast-orf" id="dummy-14_h14_7_24"  />
</g>
<g id="a14_0025"  >
<polygon points="555,85 560,80 580,80 580,90 560,90 555,85 " style="fill:#15c7d8; stroke-width:1; stroke:black; " description="&lt;b&gt;AEG64689.1&lt;/b&gt;&lt;br&gt;LpmA&lt;br&gt;Location: 25616 - 22788&lt;br&gt;&lt;br&gt;&lt;b&gt;BlastP hit with LLPMBPKK_02641&lt;/b&gt;&lt;br&gt;Percentage identity: 59&lt;br&gt;Percentage coverage: 84&lt;br&gt;BLAST bit score: 982&lt;br&gt;E-value: 0.0" locus_tag="AEG64689.1" class="clusterblast-orf" id="dummy-14_h14_7_25"  />
</g>
<g id="a14_0026"  >
<polygon points="580,85 585,80 591,80 591,90 585,90 580,85 " style="fill:#8015d8; stroke-width:1; stroke:black; " description="&lt;b&gt;AEG64688.1&lt;/b&gt;&lt;br&gt;diaminobutyric acid synthase C&lt;br&gt;Location: 22791 - 21517&lt;br&gt;&lt;br&gt;&lt;b&gt;BlastP hit with LLPMBPKK_02642&lt;/b&gt;&lt;br&gt;Percentage identity: 66&lt;br&gt;Percentage coverage: 98&lt;br&gt;BLAST bit score: 470&lt;br&gt;E-value: 5.09e-165" locus_tag="AEG64688.1" class="clusterblast-orf" id="dummy-14_h14_7_26"  />
</g>
<g id="a14_0027"  >
<polygon points="591,85 596,80 603,80 603,90 596,90 591,85 " style="fill:#d83915; stroke-width:1; stroke:black; " description="&lt;b&gt;AEG64687.1&lt;/b&gt;&lt;br&gt;diaminobutyric acid synthase B&lt;br&gt;Location: 21520 - 20102&lt;br&gt;&lt;br&gt;&lt;b&gt;BlastP hit with LLPMBPKK_02643&lt;/b&gt;&lt;br&gt;Percentage identity: 75&lt;br&gt;Percentage coverage: 94&lt;br&gt;BLAST bit score: 637&lt;br&gt;E-value: 7.83e-229" locus_tag="AEG64687.1" class="clusterblast-orf" id="dummy-14_h14_7_27"  />
</g>
<g id="a14_0028"  >
<polygon points="604,85 609,80 614,80 614,90 609,90 604,85 " style="fill:#39d815; stroke-width:1; stroke:black; " description="&lt;b&gt;AEG64686.1&lt;/b&gt;&lt;br&gt;diaminobutyric acid synthase A&lt;br&gt;Location: 20018 - 18942&lt;br&gt;&lt;br&gt;&lt;b&gt;BlastP hit with LLPMBPKK_02644&lt;/b&gt;&lt;br&gt;Percentage identity: 74&lt;br&gt;Percentage coverage: 98&lt;br&gt;BLAST bit score: 535&lt;br&gt;E-value: 2.49e-192" locus_tag="AEG64686.1" class="clusterblast-orf" id="dummy-14_h14_7_28"  />
</g>
<g id="a14_0029"  >
<polygon points="614,85 619,80 624,80 624,90 619,90 614,85 " style="fill:#5c15d8; stroke-width:1; stroke:black; " description="&lt;b&gt;AEG64685.1&lt;/b&gt;&lt;br&gt;Daunorubicin resistance ABC transporter ATPase subunit&lt;br&gt;Location: 18837 - 17743&lt;br&gt;&lt;br&gt;&lt;b&gt;BlastP hit with LLPMBPKK_02669&lt;/b&gt;&lt;br&gt;Percentage identity: 54&lt;br&gt;Percentage coverage: 97&lt;br&gt;BLAST bit score: 277&lt;br&gt;E-value: 1.87e-91" locus_tag="AEG64685.1" class="clusterblast-orf" id="dummy-14_h14_7_29"  />
</g>
<g id="a14_0030"  >
<polygon points="624,85 629,80 632,80 632,90 629,90 624,85 " style="fill:white; stroke-width:1; stroke:black; " description="&lt;b&gt;AEG64684.1&lt;/b&gt;&lt;br&gt;regulatory protein A&lt;br&gt;Location: 17719 - 16883" locus_tag="AEG64684.1" class="clusterblast-orf" id="dummy-14_h14_7_30"  />
</g>
<g id="a14_0031"  >
<polygon points="635,85 640,80 641,80 641,90 640,90 635,85 " style="fill:white; stroke-width:1; stroke:black; " description="&lt;b&gt;AEG64683.1&lt;/b&gt;&lt;br&gt;HAD superfamily (subfamily IIIB) phosphatase&lt;br&gt;Location: 16465 - 15806" locus_tag="AEG64683.1" class="clusterblast-orf" id="dummy-14_h14_7_31"  />
</g>
<g id="a14_0032"  >
<polygon points="645,90 648,90 653,85 648,80 645,80 645,90 " style="fill:white; stroke-width:1; stroke:black; " description="&lt;b&gt;AEG64682.1&lt;/b&gt;&lt;br&gt;LysR-type transcriptional regulator&lt;br&gt;Location: 15320 - 14403" locus_tag="AEG64682.1" class="clusterblast-orf" id="dummy-14_h14_7_32"  />
</g>
<g id="a14_0033"  >
<polygon points="655,90 657,90 662,85 657,80 655,80 655,90 " style="fill:white; stroke-width:1; stroke:black; " description="&lt;b&gt;AEG64681.1&lt;/b&gt;&lt;br&gt;2-deoxy-D-gluconate 3-dehydrogenase&lt;br&gt;Location: 14228 - 13386" locus_tag="AEG64681.1" class="clusterblast-orf" id="dummy-14_h14_7_33"  />
</g>
<g id="a14_0034"  >
<polygon points="662,90 669,90 674,85 669,80 662,80 662,90 " style="fill:white; stroke-width:1; stroke:black; " description="&lt;b&gt;AEG64680.1&lt;/b&gt;&lt;br&gt;NADH dehydrogenase&lt;br&gt;Location: 13379 - 12039" locus_tag="AEG64680.1" class="clusterblast-orf" id="dummy-14_h14_7_34"  />
</g>
<g id="a14_0035"  >
<polygon points="674,90 682,90 687,85 682,80 674,80 674,90 " style="fill:white; stroke-width:1; stroke:black; " description="&lt;b&gt;AEG64679.1&lt;/b&gt;&lt;br&gt;cytochrome bd-I oxidase subunit I&lt;br&gt;Location: 12010 - 10562" locus_tag="AEG64679.1" class="clusterblast-orf" id="dummy-14_h14_7_35"  />
</g>
<g id="a14_0036"  >
<polygon points="687,90 691,90 696,85 691,80 687,80 687,90 " style="fill:white; stroke-width:1; stroke:black; " description="&lt;b&gt;AEG64678.1&lt;/b&gt;&lt;br&gt;cytochrome d ubiquinol oxidase subunit II&lt;br&gt;Location: 10562 - 9522" locus_tag="AEG64678.1" class="clusterblast-orf" id="dummy-14_h14_7_36"  />
</g>
<g id="a14_0037"  >
<polygon points="696,85 701,80 710,80 710,90 701,90 696,85 " style="fill:white; stroke-width:1; stroke:black; " description="&lt;b&gt;AEG64677.1&lt;/b&gt;&lt;br&gt;putative choline dehydrogenase&lt;br&gt;Location: 9516 - 7936" locus_tag="AEG64677.1" class="clusterblast-orf" id="dummy-14_h14_7_37"  />
</g>
<g id="a14_0038"  >
<polygon points="711,85 716,80 719,80 719,90 716,90 711,85 " style="fill:white; stroke-width:1; stroke:black; " description="&lt;b&gt;AEG64676.1&lt;/b&gt;&lt;br&gt;cyclase&lt;br&gt;Location: 7854 - 6910" locus_tag="AEG64676.1" class="clusterblast-orf" id="dummy-14_h14_7_38"  />
</g>
<g id="a14_0039"  >
<polygon points="719,85 724,80 735,80 735,90 724,90 719,85 " style="fill:white; stroke-width:1; stroke:black; " description="&lt;b&gt;AEG64675.1&lt;/b&gt;&lt;br&gt;glycosyl hydrolase&lt;br&gt;Location: 6905 - 5088" locus_tag="AEG64675.1" class="clusterblast-orf" id="dummy-14_h14_7_39"  />
</g>
<g id="a14_0040"  >
<polygon points="737,90 740,90 745,85 740,80 737,80 737,90 " style="fill:white; stroke-width:1; stroke:black; " description="&lt;b&gt;AEG64674.1&lt;/b&gt;&lt;br&gt;integral membrane protein&lt;br&gt;Location: 4926 - 3976" locus_tag="AEG64674.1" class="clusterblast-orf" id="dummy-14_h14_7_40"  />
</g>
<g id="a14_0041"  >
<polygon points="745,90 756,90 761,85 756,80 745,80 745,90 " style="fill:white; stroke-width:1; stroke:black; " description="&lt;b&gt;AEG64673.1&lt;/b&gt;&lt;br&gt;sodium/hydrogen exchanger&lt;br&gt;Location: 3959 - 2193" locus_tag="AEG64673.1" class="clusterblast-orf" id="dummy-14_h14_7_41"  />
</g>
<g id="a14_0042"  >
<polygon points="763,90 775,90 780,85 775,80 763,80 763,90 " style="fill:white; stroke-width:1; stroke:black; " description="&lt;b&gt;AEG64672.1&lt;/b&gt;&lt;br&gt;ABC transporter-like protein&lt;br&gt;Location: 1925 - 36" locus_tag="AEG64672.1" class="clusterblast-orf" id="dummy-14_h14_7_42"  />
</g>
</svg>
