<svg xmlns="http://www.w3.org/2000/svg" xmlns:xlink="http://www.w3.org/1999/xlink" version="1.1" x="0" y="0" height="230" width="800" viewBox="0 0 800 230" preserveAspectRatio="none"  >
<g label="Query sequence" class="clusterblast-cluster"  >
<text x="5" y="20" class="clusterblast-acc"  >
Query sequence</text>
<line x1="10" y1="35" x2="778.0" y2="35" style="stroke-width:1; stroke:grey; "  />
<polygon points="231,40 240,40 245,35 240,30 231,30 231,40 " style="fill:white; stroke-width:1; stroke:black; " description="&lt;b&gt;LLPMBPKK_01488&lt;/b&gt;&lt;br&gt;AfsR-like regulator&lt;br&gt;Location: 1770624 - 1772943" locus_tag="LLPMBPKK_01488" class="clusterblast-orf" id="dummy-10_q0_0_all"  />
<polygon points="245,40 247,40 252,35 247,30 245,30 245,40 " style="fill:white; stroke-width:1; stroke:black; " description="&lt;b&gt;LLPMBPKK_01489&lt;/b&gt;&lt;br&gt;Radical SAM superfamily protein&lt;br&gt;Location: 1772939 - 1774100" locus_tag="LLPMBPKK_01489" class="clusterblast-orf" id="dummy-10_q1_0_all"  />
<polygon points="252,40 253,35 252,30 252,40 " style="fill:white; stroke-width:1; stroke:black; " description="&lt;b&gt;LLPMBPKK_01490&lt;/b&gt;&lt;br&gt;hypothetical protein&lt;br&gt;Location: 1774053 - 1774317" locus_tag="LLPMBPKK_01490" class="clusterblast-orf" id="dummy-10_q2_0_all"  />
<polygon points="253,35 257,30 257,40 253,35 " style="fill:#d81515; stroke-width:1; stroke:black; " description="&lt;b&gt;LLPMBPKK_01491&lt;/b&gt;&lt;br&gt;YigZ family protein&lt;br&gt;Location: 1774301 - 1774928" locus_tag="LLPMBPKK_01491" class="clusterblast-orf" id="dummy-10_q3_0_all"  />
<polygon points="257,35 260,30 260,40 257,35 " style="fill:#4dd815; stroke-width:1; stroke:black; " description="&lt;b&gt;LLPMBPKK_01492&lt;/b&gt;&lt;br&gt;histidine phosphatase family protein&lt;br&gt;Location: 1774963 - 1775509" locus_tag="LLPMBPKK_01492" class="clusterblast-orf" id="dummy-10_q4_0_all"  />
<polygon points="260,35 265,30 266,30 266,40 265,40 260,35 " style="fill:white; stroke-width:1; stroke:black; " description="&lt;b&gt;LLPMBPKK_01493&lt;/b&gt;&lt;br&gt;hypothetical protein&lt;br&gt;Location: 1775505 - 1776423" locus_tag="LLPMBPKK_01493" class="clusterblast-orf" id="dummy-10_q5_0_all"  />
<polygon points="267,40 269,35 267,30 267,40 " style="fill:#1585d8; stroke-width:1; stroke:black; " description="&lt;b&gt;LLPMBPKK_01494&lt;/b&gt;&lt;br&gt;CoA-binding domain-containing protein&lt;br&gt;Location: 1776564 - 1776972" locus_tag="LLPMBPKK_01494" class="clusterblast-orf" id="dummy-10_q6_0_all"  />
<polygon points="271,40 276,40 281,35 276,30 271,30 271,40 " style="fill:white; stroke-width:1; stroke:black; " description="&lt;b&gt;LLPMBPKK_01495&lt;/b&gt;&lt;br&gt;APC family permease&lt;br&gt;Location: 1777198 - 1778833" locus_tag="LLPMBPKK_01495" class="clusterblast-orf" id="dummy-10_q7_0_all"  />
<polygon points="281,40 284,40 289,35 284,30 281,30 281,40 " style="fill:white; stroke-width:1; stroke:black; " description="&lt;b&gt;LLPMBPKK_01496&lt;/b&gt;&lt;br&gt;4-hydroxybenzoate 3-monooxygenase&lt;br&gt;Location: 1778898 - 1780119" locus_tag="LLPMBPKK_01496" class="clusterblast-orf" id="dummy-10_q8_0_all"  />
<polygon points="289,35 291,30 291,40 289,35 " style="fill:white; stroke-width:1; stroke:black; " description="&lt;b&gt;LLPMBPKK_01497&lt;/b&gt;&lt;br&gt;regulatory protein&lt;br&gt;Location: 1780124 - 1780472" locus_tag="LLPMBPKK_01497" class="clusterblast-orf" id="dummy-10_q9_0_all"  />
<polygon points="291,40 293,40 298,35 293,30 291,30 291,40 " style="fill:white; stroke-width:1; stroke:black; " description="&lt;b&gt;LLPMBPKK_01498&lt;/b&gt;&lt;br&gt;cation transporter&lt;br&gt;Location: 1780545 - 1781577" locus_tag="LLPMBPKK_01498" class="clusterblast-orf" id="dummy-10_q10_0_all"  />
<polygon points="298,35 301,30 301,40 298,35 " style="fill:white; stroke-width:1; stroke:black; " description="&lt;b&gt;LLPMBPKK_01499&lt;/b&gt;&lt;br&gt;YbaK-like protein&lt;br&gt;Location: 1781647 - 1782208" locus_tag="LLPMBPKK_01499" class="clusterblast-orf" id="dummy-10_q11_0_all"  />
<polygon points="302,35 305,30 305,40 302,35 " style="fill:#a115d8; stroke-width:1; stroke:black; " description="&lt;b&gt;LLPMBPKK_01500&lt;/b&gt;&lt;br&gt;XRE family transcriptional regulator&lt;br&gt;Location: 1782251 - 1782824" locus_tag="LLPMBPKK_01500" class="clusterblast-orf" id="dummy-10_q12_0_all"  />
<polygon points="306,40 306,40 311,35 306,30 306,30 306,40 " style="fill:#d86915; stroke-width:1; stroke:black; " description="&lt;b&gt;LLPMBPKK_01501&lt;/b&gt;&lt;br&gt;DMT family transporter&lt;br&gt;Location: 1782933 - 1783791" locus_tag="LLPMBPKK_01501" class="clusterblast-orf" id="dummy-10_q13_0_all"  />
<polygon points="311,35 316,30 316,30 316,40 316,40 311,35 " style="fill:white; stroke-width:1; stroke:black; " description="&lt;b&gt;LLPMBPKK_01502&lt;/b&gt;&lt;br&gt;sugar acetyltransferase&lt;br&gt;Location: 1783812 - 1784577" locus_tag="LLPMBPKK_01502" class="clusterblast-orf" id="dummy-10_q14_0_all"  />
<polygon points="316,40 320,35 316,30 316,40 " style="fill:white; stroke-width:1; stroke:black; " description="&lt;b&gt;LLPMBPKK_01503&lt;/b&gt;&lt;br&gt;siderophore binding protein&lt;br&gt;Location: 1784686 - 1785214" locus_tag="LLPMBPKK_01503" class="clusterblast-orf" id="dummy-10_q15_0_all"  />
<polygon points="320,35 324,30 324,40 320,35 " style="fill:white; stroke-width:1; stroke:black; " description="&lt;b&gt;LLPMBPKK_01504&lt;/b&gt;&lt;br&gt;DedA family protein&lt;br&gt;Location: 1785231 - 1785876" locus_tag="LLPMBPKK_01504" class="clusterblast-orf" id="dummy-10_q16_0_all"  />
<polygon points="325,40 327,40 332,35 327,30 325,30 325,40 " style="fill:white; stroke-width:1; stroke:black; " description="&lt;b&gt;LLPMBPKK_01505&lt;/b&gt;&lt;br&gt;flippase-like domain-containing protein&lt;br&gt;Location: 1786135 - 1787215" locus_tag="LLPMBPKK_01505" class="clusterblast-orf" id="dummy-10_q17_0_all"  />
<polygon points="332,35 337,30 339,30 339,40 337,40 332,35 " style="fill:#15d831; stroke-width:1; stroke:black; " description="&lt;b&gt;LLPMBPKK_01506&lt;/b&gt;&lt;br&gt;class I SAM-dependent methyltransferase&lt;br&gt;Location: 1787237 - 1788320" locus_tag="LLPMBPKK_01506" class="clusterblast-orf" id="dummy-10_q18_0_all"  />
<polygon points="339,35 344,30 346,30 346,40 344,40 339,35 " style="fill:#1531d8; stroke-width:1; stroke:black; " description="&lt;b&gt;LLPMBPKK_01507&lt;/b&gt;&lt;br&gt;glycosyltransferase&lt;br&gt;Location: 1788316 - 1789498" locus_tag="LLPMBPKK_01507" class="clusterblast-orf" id="dummy-10_q19_0_all"  />
<polygon points="346,35 351,30 351,30 351,40 351,40 346,35 " style="fill:#d815bc; stroke-width:1; stroke:black; " description="&lt;b&gt;LLPMBPKK_01508&lt;/b&gt;&lt;br&gt;alpha/beta hydrolase&lt;br&gt;Location: 1789494 - 1790295" locus_tag="LLPMBPKK_01508" class="clusterblast-orf" id="dummy-10_q20_0_all"  />
<polygon points="351,35 353,30 353,40 351,35 " style="fill:#d8bc15; stroke-width:1; stroke:black; " description="&lt;b&gt;LLPMBPKK_01509&lt;/b&gt;&lt;br&gt;acyl carrier protein&lt;br&gt;Location: 1790298 - 1790619" locus_tag="LLPMBPKK_01509" class="clusterblast-orf" id="dummy-10_q21_0_all"  />
<polygon points="353,35 358,30 381,30 381,40 358,40 353,35 " style="fill:#15d885; stroke-width:1; stroke:black; " description="&lt;b&gt;LLPMBPKK_01510&lt;/b&gt;&lt;br&gt;type I polyketide synthase&lt;br&gt;Location: 1790615 - 1795274" locus_tag="LLPMBPKK_01510" class="clusterblast-orf" id="dummy-10_q22_0_all"  />
<polygon points="381,35 386,30 427,30 427,40 386,40 381,35 " style="fill:#4d15d8; stroke-width:1; stroke:black; " description="&lt;b&gt;LLPMBPKK_01511&lt;/b&gt;&lt;br&gt;hypothetical protein&lt;br&gt;Location: 1795275 - 1802793" locus_tag="LLPMBPKK_01511" class="clusterblast-orf" id="dummy-10_q23_0_all"  />
<polygon points="430,35 435,30 443,30 443,40 435,40 430,35 " style="fill:white; stroke-width:1; stroke:black; " description="&lt;b&gt;LLPMBPKK_01512&lt;/b&gt;&lt;br&gt;Ricin-type beta-trefoil lectin domain protein&lt;br&gt;Location: 1803271 - 1805356" locus_tag="LLPMBPKK_01512" class="clusterblast-orf" id="dummy-10_q24_0_all"  />
<polygon points="446,35 449,30 449,40 446,35 " style="fill:white; stroke-width:1; stroke:black; " description="&lt;b&gt;LLPMBPKK_01513&lt;/b&gt;&lt;br&gt;MFS transporter&lt;br&gt;Location: 1805884 - 1806463" locus_tag="LLPMBPKK_01513" class="clusterblast-orf" id="dummy-10_q25_0_all"  />
<polygon points="454,40 455,40 460,35 455,30 454,30 454,40 " style="fill:white; stroke-width:1; stroke:black; " description="&lt;b&gt;LLPMBPKK_01514&lt;/b&gt;&lt;br&gt;helix-turn-helix domain-containing protein&lt;br&gt;Location: 1807237 - 1808275" locus_tag="LLPMBPKK_01514" class="clusterblast-orf" id="dummy-10_q26_0_all"  />
<polygon points="461,35 466,30 466,30 466,40 466,40 461,35 " style="fill:#d81569; stroke-width:1; stroke:black; " description="&lt;b&gt;LLPMBPKK_01515&lt;/b&gt;&lt;br&gt;ectoine hydroxylase&lt;br&gt;Location: 1808329 - 1809220" locus_tag="LLPMBPKK_01515" class="clusterblast-orf" id="dummy-10_q27_0_all"  />
<polygon points="466,35 470,30 470,40 466,35 " style="fill:white; stroke-width:1; stroke:black; " description="&lt;b&gt;LLPMBPKK_01516&lt;/b&gt;&lt;br&gt;L-2,4-diaminobutyric acid acetyltransferase&lt;br&gt;Location: 1809216 - 1809768" locus_tag="LLPMBPKK_01516" class="clusterblast-orf" id="dummy-10_q28_0_all"  />
<polygon points="470,35 472,30 472,40 470,35 " style="fill:#a1d815; stroke-width:1; stroke:black; " description="&lt;b&gt;LLPMBPKK_01517&lt;/b&gt;&lt;br&gt;L-ectoine synthase&lt;br&gt;Location: 1809769 - 1810174" locus_tag="LLPMBPKK_01517" class="clusterblast-orf" id="dummy-10_q29_0_all"  />
<polygon points="473,35 477,30 477,40 473,35 " style="fill:#15d8d8; stroke-width:1; stroke:black; " description="&lt;b&gt;LLPMBPKK_01518&lt;/b&gt;&lt;br&gt;diaminobutyrate--2-oxoglutarate transaminase&lt;br&gt;Location: 1810283 - 1810940" locus_tag="LLPMBPKK_01518" class="clusterblast-orf" id="dummy-10_q30_0_all"  />
<polygon points="480,35 482,30 482,40 480,35 " style="fill:white; stroke-width:1; stroke:black; " description="&lt;b&gt;LLPMBPKK_01519&lt;/b&gt;&lt;br&gt;acyl carrier protein&lt;br&gt;Location: 1811552 - 1811816" locus_tag="LLPMBPKK_01519" class="clusterblast-orf" id="dummy-10_q31_0_all"  />
<polygon points="482,35 487,30 492,30 492,40 487,40 482,35 " style="fill:white; stroke-width:1; stroke:black; " description="&lt;b&gt;LLPMBPKK_01520&lt;/b&gt;&lt;br&gt;AMP-dependent synthetase&lt;br&gt;Location: 1811835 - 1813365" locus_tag="LLPMBPKK_01520" class="clusterblast-orf" id="dummy-10_q32_0_all"  />
<polygon points="492,35 497,30 498,30 498,40 497,40 492,35 " style="fill:white; stroke-width:1; stroke:black; " description="&lt;b&gt;LLPMBPKK_01521&lt;/b&gt;&lt;br&gt;4'-phosphopantetheinyl transferase superfamilyprotein&lt;br&gt;Location: 1813364 - 1814426" locus_tag="LLPMBPKK_01521" class="clusterblast-orf" id="dummy-10_q33_0_all"  />
<polygon points="498,35 503,30 506,30 506,40 503,40 498,35 " style="fill:white; stroke-width:1; stroke:black; " description="&lt;b&gt;LLPMBPKK_01522&lt;/b&gt;&lt;br&gt;diaminopimelate decarboxylase&lt;br&gt;Location: 1814422 - 1815715" locus_tag="LLPMBPKK_01522" class="clusterblast-orf" id="dummy-10_q34_0_all"  />
<polygon points="506,35 507,30 507,40 506,35 " style="fill:white; stroke-width:1; stroke:black; " description="&lt;b&gt;LLPMBPKK_01523&lt;/b&gt;&lt;br&gt;hypothetical protein&lt;br&gt;Location: 1815711 - 1815888" locus_tag="LLPMBPKK_01523" class="clusterblast-orf" id="dummy-10_q35_0_all"  />
<polygon points="508,35 509,30 509,40 508,35 " style="fill:white; stroke-width:1; stroke:black; " description="&lt;b&gt;LLPMBPKK_01524&lt;/b&gt;&lt;br&gt;hypothetical protein&lt;br&gt;Location: 1815987 - 1816305" locus_tag="LLPMBPKK_01524" class="clusterblast-orf" id="dummy-10_q36_0_all"  />
<polygon points="511,35 516,30 517,30 517,40 516,40 511,35 " style="fill:white; stroke-width:1; stroke:black; " description="&lt;b&gt;LLPMBPKK_01525&lt;/b&gt;&lt;br&gt;response regulator transcription factor&lt;br&gt;Location: 1816477 - 1817470" locus_tag="LLPMBPKK_01525" class="clusterblast-orf" id="dummy-10_q37_0_all"  />
<polygon points="518,35 521,30 521,40 518,35 " style="fill:white; stroke-width:1; stroke:black; " description="&lt;b&gt;LLPMBPKK_01526&lt;/b&gt;&lt;br&gt;hypothetical protein&lt;br&gt;Location: 1817672 - 1818152" locus_tag="LLPMBPKK_01526" class="clusterblast-orf" id="dummy-10_q38_0_all"  />
<polygon points="521,40 523,40 528,35 523,30 521,30 521,40 " style="fill:white; stroke-width:1; stroke:black; " description="&lt;b&gt;LLPMBPKK_01527&lt;/b&gt;&lt;br&gt;membrane protein&lt;br&gt;Location: 1818196 - 1819267" locus_tag="LLPMBPKK_01527" class="clusterblast-orf" id="dummy-10_q39_0_all"  />
<polygon points="528,40 531,40 536,35 531,30 528,30 528,40 " style="fill:white; stroke-width:1; stroke:black; " description="&lt;b&gt;LLPMBPKK_01528&lt;/b&gt;&lt;br&gt;MFS transporter&lt;br&gt;Location: 1819316 - 1820615" locus_tag="LLPMBPKK_01528" class="clusterblast-orf" id="dummy-10_q40_0_all"  />
<polygon points="536,35 541,30 541,30 541,40 541,40 536,35 " style="fill:white; stroke-width:1; stroke:black; " description="&lt;b&gt;LLPMBPKK_01529&lt;/b&gt;&lt;br&gt;spermidine synthase-like protein&lt;br&gt;Location: 1820576 - 1821422" locus_tag="LLPMBPKK_01529" class="clusterblast-orf" id="dummy-10_q41_0_all"  />
<polygon points="541,35 546,30 548,30 548,40 546,40 541,35 " style="fill:white; stroke-width:1; stroke:black; " description="&lt;b&gt;LLPMBPKK_01530&lt;/b&gt;&lt;br&gt;elongation factor Tu&lt;br&gt;Location: 1821525 - 1822695" locus_tag="LLPMBPKK_01530" class="clusterblast-orf" id="dummy-10_q42_0_all"  />
</g>
<g label="BGC0002497" description="BGC0002497_c1: hexacosalactone A (13% of genes show similarity), Other" class="clusterblast-cluster"  >
<text x="5" y="70" class="clusterblast-acc"  >
<a xlink:href="https://mibig.secondarymetabolites.org/go/BGC0002497/1" target="_blank">BGC0002497</a>:                                                                hexacosalactone A (13% of genes show similarity), Other</text>
<line x1="10" y1="85" x2="778.0" y2="85" style="stroke-width:1; stroke:grey; "  />
</g>
<g id="a10_000"  >
<polygon points="0,90 4,90 9,85 4,80 0,80 0,90 " style="fill:white; stroke-width:1; stroke:black; " description="&lt;b&gt;QQZ01653.1&lt;/b&gt;&lt;br&gt;MFS transporter&lt;br&gt;Location: 129025 - 127460" locus_tag="QQZ01653.1" class="clusterblast-orf" id="dummy-10_h10_1_0"  />
</g>
<g id="a10_001"  >
<polygon points="9,85 14,80 22,80 22,90 14,90 9,85 " style="fill:white; stroke-width:1; stroke:black; " description="&lt;b&gt;QQZ01652.1&lt;/b&gt;&lt;br&gt;ABC transporter&lt;br&gt;Location: 127440 - 125365" locus_tag="QQZ01652.1" class="clusterblast-orf" id="dummy-10_h10_1_1"  />
</g>
<g id="a10_002"  >
<polygon points="27,85 32,80 40,80 40,90 32,90 27,85 " style="fill:white; stroke-width:1; stroke:black; " description="&lt;b&gt;QQZ01651.1&lt;/b&gt;&lt;br&gt;ABC transporter&lt;br&gt;Location: 124573 - 122429" locus_tag="QQZ01651.1" class="clusterblast-orf" id="dummy-10_h10_1_2"  />
</g>
<g id="a10_003"  >
<polygon points="41,85 45,80 45,90 41,85 " style="fill:white; stroke-width:1; stroke:black; " description="&lt;b&gt;QQZ01650.1&lt;/b&gt;&lt;br&gt;HlyD family efflux transporter&lt;br&gt;Location: 122294 - 121488" locus_tag="QQZ01650.1" class="clusterblast-orf" id="dummy-10_h10_1_3"  />
</g>
<g id="a10_004"  >
<polygon points="50,85 55,80 57,80 57,90 55,90 50,85 " style="fill:white; stroke-width:1; stroke:black; " description="&lt;b&gt;QQZ01649.1&lt;/b&gt;&lt;br&gt;glutathionyl-hydroquinone reductase&lt;br&gt;Location: 120701 - 119673" locus_tag="QQZ01649.1" class="clusterblast-orf" id="dummy-10_h10_1_4"  />
</g>
<g id="a10_005"  >
<polygon points="59,85 64,80 69,80 69,90 64,90 59,85 " style="fill:white; stroke-width:1; stroke:black; " description="&lt;b&gt;QQZ01648.1&lt;/b&gt;&lt;br&gt;PucR family transcriptional regulator&lt;br&gt;Location: 119285 - 117657" locus_tag="QQZ01648.1" class="clusterblast-orf" id="dummy-10_h10_1_5"  />
</g>
<g id="a10_006"  >
<polygon points="71,85 74,80 74,90 71,85 " style="fill:white; stroke-width:1; stroke:black; " description="&lt;b&gt;QQZ01647.1&lt;/b&gt;&lt;br&gt;etR/AcrR family transcriptional regulator&lt;br&gt;Location: 117360 - 116752" locus_tag="QQZ01647.1" class="clusterblast-orf" id="dummy-10_h10_1_6"  />
</g>
<g id="a10_007"  >
<polygon points="75,90 78,90 83,85 78,80 75,80 75,90 " style="fill:white; stroke-width:1; stroke:black; " description="&lt;b&gt;QQZ01646.1&lt;/b&gt;&lt;br&gt;cytochrome P450&lt;br&gt;Location: 116579 - 115356" locus_tag="QQZ01646.1" class="clusterblast-orf" id="dummy-10_h10_1_7"  />
</g>
<g id="a10_008"  >
<polygon points="84,90 86,90 91,85 86,80 84,80 84,90 " style="fill:white; stroke-width:1; stroke:black; " description="&lt;b&gt;QQZ01645.1&lt;/b&gt;&lt;br&gt;amidase domain-containing protein&lt;br&gt;Location: 115228 - 114092" locus_tag="QQZ01645.1" class="clusterblast-orf" id="dummy-10_h10_1_8"  />
</g>
<g id="a10_009"  >
<polygon points="94,90 104,90 109,85 104,80 94,80 94,90 " style="fill:white; stroke-width:1; stroke:black; " description="&lt;b&gt;QQZ01644.1&lt;/b&gt;&lt;br&gt;glycosyl hydrolase&lt;br&gt;Location: 113600 - 111096" locus_tag="QQZ01644.1" class="clusterblast-orf" id="dummy-10_h10_1_9"  />
</g>
<g id="a10_0010"  >
<polygon points="110,90 114,85 110,80 110,90 " style="fill:white; stroke-width:1; stroke:black; " description="&lt;b&gt;QQZ01643.1&lt;/b&gt;&lt;br&gt;SDR family oxidoreductase&lt;br&gt;Location: 110980 - 110186" locus_tag="QQZ01643.1" class="clusterblast-orf" id="dummy-10_h10_1_10"  />
</g>
<g id="a10_0011"  >
<polygon points="115,85 120,80 120,80 120,90 120,90 115,85 " style="fill:white; stroke-width:1; stroke:black; " description="&lt;b&gt;QQZ01642.1&lt;/b&gt;&lt;br&gt;TIGR03943 family protein&lt;br&gt;Location: 110120 - 109347" locus_tag="QQZ01642.1" class="clusterblast-orf" id="dummy-10_h10_1_11"  />
</g>
<g id="a10_0012"  >
<polygon points="120,85 125,80 126,80 126,90 125,90 120,85 " style="fill:white; stroke-width:1; stroke:black; " description="&lt;b&gt;QQZ01641.1&lt;/b&gt;&lt;br&gt;permease&lt;br&gt;Location: 109350 - 108334" locus_tag="QQZ01641.1" class="clusterblast-orf" id="dummy-10_h10_1_12"  />
</g>
<g id="a10_0013"  >
<polygon points="126,85 131,80 133,80 133,90 131,90 126,85 " style="fill:#15d831; stroke-width:1; stroke:black; " description="&lt;b&gt;QQZ01640.1&lt;/b&gt;&lt;br&gt;glycosyltransferase&lt;br&gt;Location: 108292 - 107171&lt;br&gt;&lt;br&gt;&lt;b&gt;BlastP hit with LLPMBPKK_01506&lt;/b&gt;&lt;br&gt;Percentage identity: 66&lt;br&gt;Percentage coverage: 97&lt;br&gt;BLAST bit score: 465&lt;br&gt;E-value: 1.05e-164" locus_tag="QQZ01640.1" class="clusterblast-orf" id="dummy-10_h10_1_13"  />
</g>
<g id="a10_0014"  >
<polygon points="133,85 138,80 141,80 141,90 138,90 133,85 " style="fill:#1531d8; stroke-width:1; stroke:black; " description="&lt;b&gt;QQZ01639.1&lt;/b&gt;&lt;br&gt;glycosyltransferase&lt;br&gt;Location: 107174 - 105834&lt;br&gt;&lt;br&gt;&lt;b&gt;BlastP hit with LLPMBPKK_01507&lt;/b&gt;&lt;br&gt;Percentage identity: 65&lt;br&gt;Percentage coverage: 103&lt;br&gt;BLAST bit score: 488&lt;br&gt;E-value: 5.18e-172" locus_tag="QQZ01639.1" class="clusterblast-orf" id="dummy-10_h10_1_14"  />
</g>
<g id="a10_0015"  >
<polygon points="141,85 146,80 147,80 147,90 146,90 141,85 " style="fill:#d815bc; stroke-width:1; stroke:black; " description="&lt;b&gt;QQZ01638.1&lt;/b&gt;&lt;br&gt;alpha/beta hydrolase&lt;br&gt;Location: 105837 - 104905&lt;br&gt;&lt;br&gt;&lt;b&gt;BlastP hit with LLPMBPKK_01508&lt;/b&gt;&lt;br&gt;Percentage identity: 64&lt;br&gt;Percentage coverage: 91&lt;br&gt;BLAST bit score: 308&lt;br&gt;E-value: 3.08e-105" locus_tag="QQZ01638.1" class="clusterblast-orf" id="dummy-10_h10_1_15"  />
</g>
<g id="a10_0016"  >
<polygon points="147,85 149,80 149,90 147,85 " style="fill:#d8bc15; stroke-width:1; stroke:black; " description="&lt;b&gt;QQZ01637.1&lt;/b&gt;&lt;br&gt;acyl carrier protein&lt;br&gt;Location: 104901 - 104551&lt;br&gt;&lt;br&gt;&lt;b&gt;BlastP hit with LLPMBPKK_01509&lt;/b&gt;&lt;br&gt;Percentage identity: 56&lt;br&gt;Percentage coverage: 102&lt;br&gt;BLAST bit score: 111&lt;br&gt;E-value: 5.47e-33" locus_tag="QQZ01637.1" class="clusterblast-orf" id="dummy-10_h10_1_16"  />
</g>
<g id="a10_0017"  >
<polygon points="149,85 154,80 177,80 177,90 154,90 149,85 " style="fill:#15d885; stroke-width:1; stroke:black; " description="&lt;b&gt;QQZ01636.1&lt;/b&gt;&lt;br&gt;PKS&lt;br&gt;Location: 104554 - 99959&lt;br&gt;&lt;br&gt;&lt;b&gt;BlastP hit with LLPMBPKK_01510&lt;/b&gt;&lt;br&gt;Percentage identity: 65&lt;br&gt;Percentage coverage: 101&lt;br&gt;BLAST bit score: 1816&lt;br&gt;E-value: 0.0" locus_tag="QQZ01636.1" class="clusterblast-orf" id="dummy-10_h10_1_17"  />
</g>
<g id="a10_0018"  >
<polygon points="177,85 182,80 220,80 220,90 182,90 177,85 " style="fill:#4d15d8; stroke-width:1; stroke:black; " description="&lt;b&gt;QQZ01635.1&lt;/b&gt;&lt;br&gt;PKS&lt;br&gt;Location: 99962 - 92838&lt;br&gt;&lt;br&gt;&lt;b&gt;BlastP hit with LLPMBPKK_01511&lt;/b&gt;&lt;br&gt;Percentage identity: 61&lt;br&gt;Percentage coverage: 103&lt;br&gt;BLAST bit score: 2598&lt;br&gt;E-value: 0.0" locus_tag="QQZ01635.1" class="clusterblast-orf" id="dummy-10_h10_1_18"  />
</g>
<g id="a10_0019"  >
<polygon points="223,85 228,80 233,80 233,90 228,90 223,85 " style="fill:white; stroke-width:1; stroke:black; " description="&lt;b&gt;QQZ01634.1&lt;/b&gt;&lt;br&gt;ABC transporter&lt;br&gt;Location: 92431 - 90758" locus_tag="QQZ01634.1" class="clusterblast-orf" id="dummy-10_h10_1_19"  />
</g>
<g id="a10_0020"  >
<polygon points="236,90 240,85 236,80 236,90 " style="fill:white; stroke-width:1; stroke:black; " description="&lt;b&gt;QQZ01633.1&lt;/b&gt;&lt;br&gt;hypothetical protein&lt;br&gt;Location: 90305 - 89610" locus_tag="QQZ01633.1" class="clusterblast-orf" id="dummy-10_h10_1_20"  />
</g>
<g id="a10_0021"  >
<polygon points="241,85 245,80 245,90 241,85 " style="fill:white; stroke-width:1; stroke:black; " description="&lt;b&gt;QQZ01632.1&lt;/b&gt;&lt;br&gt;alpha/beta hydrolase&lt;br&gt;Location: 89535 - 88834" locus_tag="QQZ01632.1" class="clusterblast-orf" id="dummy-10_h10_1_21"  />
</g>
<g id="a10_0022"  >
<polygon points="246,85 251,80 251,80 251,90 251,90 246,85 " style="fill:white; stroke-width:1; stroke:black; " description="&lt;b&gt;QQZ01631.1&lt;/b&gt;&lt;br&gt;aldo/keto reductase&lt;br&gt;Location: 88700 - 87858" locus_tag="QQZ01631.1" class="clusterblast-orf" id="dummy-10_h10_1_22"  />
</g>
<g id="a10_0023"  >
<polygon points="252,85 257,80 257,80 257,90 257,90 252,85 " style="fill:white; stroke-width:1; stroke:black; " description="&lt;b&gt;QQZ01630.1&lt;/b&gt;&lt;br&gt;methyltransferase&lt;br&gt;Location: 87647 - 86799" locus_tag="QQZ01630.1" class="clusterblast-orf" id="dummy-10_h10_1_23"  />
</g>
<g id="a10_0024"  >
<polygon points="258,85 263,80 364,80 364,90 263,90 258,85 " style="fill:white; stroke-width:1; stroke:black; " description="&lt;b&gt;QQZ01629.1&lt;/b&gt;&lt;br&gt;PKS&lt;br&gt;Location: 86676 - 69292" locus_tag="QQZ01629.1" class="clusterblast-orf" id="dummy-10_h10_1_24"  />
</g>
<g id="a10_0025"  >
<polygon points="364,85 369,80 431,80 431,90 369,90 364,85 " style="fill:white; stroke-width:1; stroke:black; " description="&lt;b&gt;QQZ01628.1&lt;/b&gt;&lt;br&gt;PKS&lt;br&gt;Location: 69223 - 58283" locus_tag="QQZ01628.1" class="clusterblast-orf" id="dummy-10_h10_1_25"  />
</g>
<g id="a10_0026"  >
<polygon points="431,85 436,80 552,80 552,90 436,90 431,85 " style="fill:white; stroke-width:1; stroke:black; " description="&lt;b&gt;QQZ01627.1&lt;/b&gt;&lt;br&gt;PKS&lt;br&gt;Location: 58281 - 38512" locus_tag="QQZ01627.1" class="clusterblast-orf" id="dummy-10_h10_1_26"  />
</g>
<g id="a10_0027"  >
<polygon points="552,85 557,80 664,80 664,90 557,90 552,85 " style="fill:white; stroke-width:1; stroke:black; " description="&lt;b&gt;QQZ01626.1&lt;/b&gt;&lt;br&gt;PKS&lt;br&gt;Location: 38417 - 20214" locus_tag="QQZ01626.1" class="clusterblast-orf" id="dummy-10_h10_1_27"  />
</g>
<g id="a10_0028"  >
<polygon points="665,85 670,80 672,80 672,90 670,90 665,85 " style="fill:white; stroke-width:1; stroke:black; " description="&lt;b&gt;QQZ01625.1&lt;/b&gt;&lt;br&gt;arylcarboxylate reductase&lt;br&gt;Location: 19916 - 18849" locus_tag="QQZ01625.1" class="clusterblast-orf" id="dummy-10_h10_1_28"  />
</g>
<g id="a10_0029"  >
<polygon points="672,85 677,80 678,80 678,90 677,90 672,85 " style="fill:white; stroke-width:1; stroke:black; " description="&lt;b&gt;QQZ01624.1&lt;/b&gt;&lt;br&gt;malonyl transferase&lt;br&gt;Location: 18852 - 17881" locus_tag="QQZ01624.1" class="clusterblast-orf" id="dummy-10_h10_1_29"  />
</g>
<g id="a10_0030"  >
<polygon points="679,85 684,80 687,80 687,90 684,90 679,85 " style="fill:white; stroke-width:1; stroke:black; " description="&lt;b&gt;QQZ01623.1&lt;/b&gt;&lt;br&gt;5-aminolevulinate synthase&lt;br&gt;Location: 17687 - 16440" locus_tag="QQZ01623.1" class="clusterblast-orf" id="dummy-10_h10_1_30"  />
</g>
<g id="a10_0031"  >
<polygon points="688,90 693,90 698,85 693,80 688,80 688,90 " style="fill:white; stroke-width:1; stroke:black; " description="&lt;b&gt;QQZ01622.1&lt;/b&gt;&lt;br&gt;amide synthase&lt;br&gt;Location: 16179 - 14638" locus_tag="QQZ01622.1" class="clusterblast-orf" id="dummy-10_h10_1_31"  />
</g>
<g id="a10_0032"  >
<polygon points="698,90 702,90 707,85 702,80 698,80 698,90 " style="fill:white; stroke-width:1; stroke:black; " description="&lt;b&gt;QQZ01621.1&lt;/b&gt;&lt;br&gt;long-chain fatty acid--CoA ligase&lt;br&gt;Location: 14641 - 13100" locus_tag="QQZ01621.1" class="clusterblast-orf" id="dummy-10_h10_1_32"  />
</g>
<g id="a10_0033"  >
<polygon points="708,85 713,80 714,80 714,90 713,90 708,85 " style="fill:white; stroke-width:1; stroke:black; " description="&lt;b&gt;QQZ01620.1&lt;/b&gt;&lt;br&gt;PHB depolymerase family esterase&lt;br&gt;Location: 12931 - 11939" locus_tag="QQZ01620.1" class="clusterblast-orf" id="dummy-10_h10_1_33"  />
</g>
<g id="a10_0034"  >
<polygon points="714,85 719,80 719,80 719,90 719,90 714,85 " style="fill:white; stroke-width:1; stroke:black; " description="&lt;b&gt;QQZ01619.1&lt;/b&gt;&lt;br&gt;SGNH hydrolase&lt;br&gt;Location: 11900 - 11118" locus_tag="QQZ01619.1" class="clusterblast-orf" id="dummy-10_h10_1_34"  />
</g>
<g id="a10_0035"  >
<polygon points="720,85 723,80 723,90 720,85 " style="fill:white; stroke-width:1; stroke:black; " description="&lt;b&gt;QQZ01618.1&lt;/b&gt;&lt;br&gt;GNAT family N-acetyltransferase&lt;br&gt;Location: 10949 - 10443" locus_tag="QQZ01618.1" class="clusterblast-orf" id="dummy-10_h10_1_35"  />
</g>
<g id="a10_0036"  >
<polygon points="724,85 729,80 733,80 733,90 729,90 724,85 " style="fill:white; stroke-width:1; stroke:black; " description="&lt;b&gt;QQZ01617.1&lt;/b&gt;&lt;br&gt;gamma-aminobutyraldehyde dehydrogenase&lt;br&gt;Location: 10354 - 8906" locus_tag="QQZ01617.1" class="clusterblast-orf" id="dummy-10_h10_1_36"  />
</g>
<g id="a10_0037"  >
<polygon points="733,85 735,80 735,90 733,85 " style="fill:white; stroke-width:1; stroke:black; " description="&lt;b&gt;QQZ01616.1&lt;/b&gt;&lt;br&gt;ketosteroid isomerase&lt;br&gt;Location: 8909 - 8502" locus_tag="QQZ01616.1" class="clusterblast-orf" id="dummy-10_h10_1_37"  />
</g>
<g id="a10_0038"  >
<polygon points="735,85 739,80 739,90 735,85 " style="fill:white; stroke-width:1; stroke:black; " description="&lt;b&gt;QQZ01615.1&lt;/b&gt;&lt;br&gt;cyclase family protein&lt;br&gt;Location: 8475 - 7831" locus_tag="QQZ01615.1" class="clusterblast-orf" id="dummy-10_h10_1_38"  />
</g>
<g id="a10_0039"  >
<polygon points="739,85 744,80 749,80 749,90 744,90 739,85 " style="fill:white; stroke-width:1; stroke:black; " description="&lt;b&gt;QQZ01614.1&lt;/b&gt;&lt;br&gt;nitrate reductase&lt;br&gt;Location: 7823 - 6282" locus_tag="QQZ01614.1" class="clusterblast-orf" id="dummy-10_h10_1_39"  />
</g>
<g id="a10_0040"  >
<polygon points="749,85 754,80 754,80 754,90 754,90 749,85 " style="fill:white; stroke-width:1; stroke:black; " description="&lt;b&gt;QQZ01613.1&lt;/b&gt;&lt;br&gt;agmatinase&lt;br&gt;Location: 6289 - 5327" locus_tag="QQZ01613.1" class="clusterblast-orf" id="dummy-10_h10_1_40"  />
</g>
<g id="a10_0041"  >
<polygon points="755,90 759,90 764,85 759,80 755,80 755,90 " style="fill:white; stroke-width:1; stroke:black; " description="&lt;b&gt;QQZ01612.1&lt;/b&gt;&lt;br&gt;PucR family transcriptional regulator&lt;br&gt;Location: 5215 - 3755" locus_tag="QQZ01612.1" class="clusterblast-orf" id="dummy-10_h10_1_41"  />
</g>
<g id="a10_0042"  >
<polygon points="765,85 770,80 770,80 770,90 770,90 765,85 " style="fill:white; stroke-width:1; stroke:black; " description="&lt;b&gt;QQZ01611.1&lt;/b&gt;&lt;br&gt;methyltransferase&lt;br&gt;Location: 3626 - 2820" locus_tag="QQZ01611.1" class="clusterblast-orf" id="dummy-10_h10_1_42"  />
</g>
<g id="a10_0043"  >
<polygon points="771,85 776,80 780,80 780,90 776,90 771,85 " style="fill:white; stroke-width:1; stroke:black; " description="&lt;b&gt;QQZ01610.1&lt;/b&gt;&lt;br&gt;PucR family transcriptional regulator&lt;br&gt;Location: 2611 - 1220" locus_tag="QQZ01610.1" class="clusterblast-orf" id="dummy-10_h10_1_43"  />
</g>
</svg>
