<svg xmlns="http://www.w3.org/2000/svg" xmlns:xlink="http://www.w3.org/1999/xlink" version="1.1" x="0" y="0" height="230" width="800" viewBox="0 0 800 230" preserveAspectRatio="none"  >
<g label="Query sequence" class="clusterblast-cluster"  >
<text x="5" y="20" class="clusterblast-acc"  >
Query sequence</text>
<line x1="10" y1="35" x2="778.0" y2="35" style="stroke-width:1; stroke:grey; "  />
<polygon points="0,35 5,30 13,30 13,40 5,40 0,35 " style="fill:white; stroke-width:1; stroke:black; " description="&lt;b&gt;LLPMBPKK_04016&lt;/b&gt;&lt;br&gt;TrmH family RNA methyltransferase&lt;br&gt;Location: 4616085 - 4616826" locus_tag="LLPMBPKK_04016" class="clusterblast-orf" id="dummy-18_q0_0_all"  />
<polygon points="13,35 18,30 34,30 34,40 18,40 13,35 " style="fill:white; stroke-width:1; stroke:black; " description="&lt;b&gt;LLPMBPKK_04017&lt;/b&gt;&lt;br&gt;HTTM domain-containing protein&lt;br&gt;Location: 4616822 - 4618034" locus_tag="LLPMBPKK_04017" class="clusterblast-orf" id="dummy-18_q1_0_all"  />
<polygon points="34,35 39,30 48,30 48,40 39,40 34,35 " style="fill:white; stroke-width:1; stroke:black; " description="&lt;b&gt;LLPMBPKK_04018&lt;/b&gt;&lt;br&gt;hypothetical protein&lt;br&gt;Location: 4618030 - 4618855" locus_tag="LLPMBPKK_04018" class="clusterblast-orf" id="dummy-18_q2_0_all"  />
<polygon points="55,40 68,40 73,35 68,30 55,30 55,40 " style="fill:white; stroke-width:1; stroke:black; " description="&lt;b&gt;LLPMBPKK_04019&lt;/b&gt;&lt;br&gt;1,2-phenylacetyl-CoA epoxidase subunit A&lt;br&gt;Location: 4619266 - 4620283" locus_tag="LLPMBPKK_04019" class="clusterblast-orf" id="dummy-18_q3_0_all"  />
<polygon points="73,40 73,40 78,35 73,30 73,30 73,40 " style="fill:white; stroke-width:1; stroke:black; " description="&lt;b&gt;LLPMBPKK_04020&lt;/b&gt;&lt;br&gt;1,2-phenylacetyl-CoA epoxidase subunit B&lt;br&gt;Location: 4620279 - 4620567" locus_tag="LLPMBPKK_04020" class="clusterblast-orf" id="dummy-18_q4_0_all"  />
<polygon points="78,40 86,40 91,35 86,30 78,30 78,40 " style="fill:white; stroke-width:1; stroke:black; " description="&lt;b&gt;LLPMBPKK_04021&lt;/b&gt;&lt;br&gt;phenylacetate-CoA oxygenase subunit PaaI&lt;br&gt;Location: 4620563 - 4621316" locus_tag="LLPMBPKK_04021" class="clusterblast-orf" id="dummy-18_q5_0_all"  />
<polygon points="91,40 96,40 101,35 96,30 91,30 91,40 " style="fill:white; stroke-width:1; stroke:black; " description="&lt;b&gt;LLPMBPKK_04022&lt;/b&gt;&lt;br&gt;phenylacetate-CoA oxygenase subunit PaaJ&lt;br&gt;Location: 4621309 - 4621843" locus_tag="LLPMBPKK_04022" class="clusterblast-orf" id="dummy-18_q6_0_all"  />
<polygon points="101,40 114,40 119,35 114,30 101,30 101,40 " style="fill:white; stroke-width:1; stroke:black; " description="&lt;b&gt;LLPMBPKK_04023&lt;/b&gt;&lt;br&gt;2Fe-2S iron-sulfur cluster bindingdomain-containing protein&lt;br&gt;Location: 4621842 - 4622907" locus_tag="LLPMBPKK_04023" class="clusterblast-orf" id="dummy-18_q7_0_all"  />
<polygon points="123,40 138,40 143,35 138,30 123,30 123,40 " style="fill:white; stroke-width:1; stroke:black; " description="&lt;b&gt;LLPMBPKK_04024&lt;/b&gt;&lt;br&gt;acyl-CoA dehydrogenase&lt;br&gt;Location: 4623126 - 4624269" locus_tag="LLPMBPKK_04024" class="clusterblast-orf" id="dummy-18_q8_0_all"  />
<polygon points="144,35 149,30 149,30 149,40 149,40 144,35 " style="fill:white; stroke-width:1; stroke:black; " description="&lt;b&gt;LLPMBPKK_04025&lt;/b&gt;&lt;br&gt;rhodanese-like domain-containing protein&lt;br&gt;Location: 4624288 - 4624618" locus_tag="LLPMBPKK_04025" class="clusterblast-orf" id="dummy-18_q9_0_all"  />
<polygon points="150,35 155,30 167,30 167,40 155,40 150,35 " style="fill:white; stroke-width:1; stroke:black; " description="&lt;b&gt;LLPMBPKK_04026&lt;/b&gt;&lt;br&gt;hypothetical protein&lt;br&gt;Location: 4624666 - 4625623" locus_tag="LLPMBPKK_04026" class="clusterblast-orf" id="dummy-18_q10_0_all"  />
<polygon points="167,35 172,30 193,30 193,40 172,40 167,35 " style="fill:white; stroke-width:1; stroke:black; " description="&lt;b&gt;LLPMBPKK_04027&lt;/b&gt;&lt;br&gt;hypothetical protein&lt;br&gt;Location: 4625648 - 4627106" locus_tag="LLPMBPKK_04027" class="clusterblast-orf" id="dummy-18_q11_0_all"  />
<polygon points="196,35 201,30 209,30 209,40 201,40 196,35 " style="fill:#d81515; stroke-width:1; stroke:black; " description="&lt;b&gt;LLPMBPKK_04028&lt;/b&gt;&lt;br&gt;2-hydroxychromene-2-carboxylate isomerase&lt;br&gt;Location: 4627295 - 4627997" locus_tag="LLPMBPKK_04028" class="clusterblast-orf" id="dummy-18_q12_0_all"  />
<polygon points="210,35 215,30 223,30 223,40 215,40 210,35 " style="fill:#63d815; stroke-width:1; stroke:black; " description="&lt;b&gt;LLPMBPKK_04029&lt;/b&gt;&lt;br&gt;SDR family oxidoreductase&lt;br&gt;Location: 4628056 - 4628800" locus_tag="LLPMBPKK_04029" class="clusterblast-orf" id="dummy-18_q13_0_all"  />
<polygon points="223,35 228,30 239,30 239,40 228,40 223,35 " style="fill:#15b1d8; stroke-width:1; stroke:black; " description="&lt;b&gt;LLPMBPKK_04030&lt;/b&gt;&lt;br&gt;FabA-like domain protein&lt;br&gt;Location: 4628796 - 4629738" locus_tag="LLPMBPKK_04030" class="clusterblast-orf" id="dummy-18_q14_0_all"  />
<polygon points="239,35 244,30 244,30 244,40 244,40 239,35 " style="fill:#b115d8; stroke-width:1; stroke:black; " description="&lt;b&gt;LLPMBPKK_04031&lt;/b&gt;&lt;br&gt;acyl carrier protein&lt;br&gt;Location: 4629737 - 4629995" locus_tag="LLPMBPKK_04031" class="clusterblast-orf" id="dummy-18_q15_0_all"  />
<polygon points="245,35 250,30 264,30 264,40 250,40 245,35 " style="fill:#d86315; stroke-width:1; stroke:black; " description="&lt;b&gt;LLPMBPKK_04032&lt;/b&gt;&lt;br&gt;3-oxoacyl-ACP synthase&lt;br&gt;Location: 4630070 - 4631171" locus_tag="LLPMBPKK_04032" class="clusterblast-orf" id="dummy-18_q16_0_all"  />
<polygon points="265,35 270,30 272,30 272,40 270,40 265,35 " style="fill:white; stroke-width:1; stroke:black; " description="&lt;b&gt;LLPMBPKK_04033&lt;/b&gt;&lt;br&gt;hypothetical protein&lt;br&gt;Location: 4631222 - 4631618" locus_tag="LLPMBPKK_04033" class="clusterblast-orf" id="dummy-18_q17_0_all"  />
<polygon points="272,35 277,30 279,30 279,40 277,40 272,35 " style="fill:#15d815; stroke-width:1; stroke:black; " description="&lt;b&gt;LLPMBPKK_04034&lt;/b&gt;&lt;br&gt;hypothetical protein&lt;br&gt;Location: 4631621 - 4632029" locus_tag="LLPMBPKK_04034" class="clusterblast-orf" id="dummy-18_q18_0_all"  />
<polygon points="279,35 284,30 285,30 285,40 284,40 279,35 " style="fill:white; stroke-width:1; stroke:black; " description="&lt;b&gt;LLPMBPKK_04035&lt;/b&gt;&lt;br&gt;hypothetical protein&lt;br&gt;Location: 4632028 - 4632352" locus_tag="LLPMBPKK_04035" class="clusterblast-orf" id="dummy-18_q19_0_all"  />
<polygon points="285,35 290,30 303,30 303,40 290,40 285,35 " style="fill:#1563d8; stroke-width:1; stroke:black; " description="&lt;b&gt;LLPMBPKK_04036&lt;/b&gt;&lt;br&gt;hypothetical protein&lt;br&gt;Location: 4632361 - 4633366" locus_tag="LLPMBPKK_04036" class="clusterblast-orf" id="dummy-18_q20_0_all"  />
<polygon points="303,35 308,30 317,30 317,40 308,40 303,35 " style="fill:white; stroke-width:1; stroke:black; " description="&lt;b&gt;LLPMBPKK_04037&lt;/b&gt;&lt;br&gt;alpha/beta hydrolase&lt;br&gt;Location: 4633362 - 4634178" locus_tag="LLPMBPKK_04037" class="clusterblast-orf" id="dummy-18_q21_0_all"  />
<polygon points="317,35 322,30 334,30 334,40 322,40 317,35 " style="fill:#d815b1; stroke-width:1; stroke:black; " description="&lt;b&gt;LLPMBPKK_04038&lt;/b&gt;&lt;br&gt;3-oxoacyl-ACP synthase I&lt;br&gt;Location: 4634174 - 4635173" locus_tag="LLPMBPKK_04038" class="clusterblast-orf" id="dummy-18_q22_0_all"  />
<polygon points="334,35 339,30 355,30 355,40 339,40 334,35 " style="fill:#d8b115; stroke-width:1; stroke:black; " description="&lt;b&gt;LLPMBPKK_04039&lt;/b&gt;&lt;br&gt;3-oxoacyl-ACP synthase&lt;br&gt;Location: 4635172 - 4636348" locus_tag="LLPMBPKK_04039" class="clusterblast-orf" id="dummy-18_q23_0_all"  />
<polygon points="355,35 360,30 377,30 377,40 360,40 355,35 " style="fill:#15d863; stroke-width:1; stroke:black; " description="&lt;b&gt;LLPMBPKK_04040&lt;/b&gt;&lt;br&gt;beta-ketoacyl-[acyl-carrier-protein] synthasefamily protein&lt;br&gt;Location: 4636344 - 4637580" locus_tag="LLPMBPKK_04040" class="clusterblast-orf" id="dummy-18_q24_0_all"  />
<polygon points="377,35 382,30 382,30 382,40 382,40 377,35 " style="fill:#1515d8; stroke-width:1; stroke:black; " description="&lt;b&gt;LLPMBPKK_04041&lt;/b&gt;&lt;br&gt;acyl carrier protein&lt;br&gt;Location: 4637613 - 4637859" locus_tag="LLPMBPKK_04041" class="clusterblast-orf" id="dummy-18_q25_0_all"  />
<polygon points="384,35 389,30 398,30 398,40 389,40 384,35 " style="fill:white; stroke-width:1; stroke:black; " description="&lt;b&gt;LLPMBPKK_04042&lt;/b&gt;&lt;br&gt;LuxR family transcriptional regulator&lt;br&gt;Location: 4637995 - 4638787" locus_tag="LLPMBPKK_04042" class="clusterblast-orf" id="dummy-18_q26_0_all"  />
<polygon points="400,35 405,30 427,30 427,40 405,40 400,35 " style="fill:white; stroke-width:1; stroke:black; " description="&lt;b&gt;LLPMBPKK_04043&lt;/b&gt;&lt;br&gt;hypothetical protein&lt;br&gt;Location: 4638934 - 4640428" locus_tag="LLPMBPKK_04043" class="clusterblast-orf" id="dummy-18_q27_0_all"  />
<polygon points="428,35 433,30 493,30 493,40 433,40 428,35 " style="fill:white; stroke-width:1; stroke:black; " description="&lt;b&gt;LLPMBPKK_04044&lt;/b&gt;&lt;br&gt;[acyl-carrier-protein] S-malonyltransferase&lt;br&gt;Location: 4640501 - 4644239" locus_tag="LLPMBPKK_04044" class="clusterblast-orf" id="dummy-18_q28_0_all"  />
<polygon points="499,35 504,30 510,30 510,40 504,40 499,35 " style="fill:#d81563; stroke-width:1; stroke:black; " description="&lt;b&gt;LLPMBPKK_04045&lt;/b&gt;&lt;br&gt;gamma-butyrolactone binding protein&lt;br&gt;Location: 4644533 - 4645160" locus_tag="LLPMBPKK_04045" class="clusterblast-orf" id="dummy-18_q29_0_all"  />
<polygon points="512,35 517,30 525,30 525,40 517,40 512,35 " style="fill:#b1d815; stroke-width:1; stroke:black; " description="&lt;b&gt;LLPMBPKK_04046&lt;/b&gt;&lt;br&gt;response regulator transcription factor&lt;br&gt;Location: 4645316 - 4646048" locus_tag="LLPMBPKK_04046" class="clusterblast-orf" id="dummy-18_q30_0_all"  />
<polygon points="532,40 544,40 549,35 544,30 532,30 532,40 " style="fill:#15d8b1; stroke-width:1; stroke:black; " description="&lt;b&gt;LLPMBPKK_04047&lt;/b&gt;&lt;br&gt;ScbA protein&lt;br&gt;Location: 4646437 - 4647397" locus_tag="LLPMBPKK_04047" class="clusterblast-orf" id="dummy-18_q31_0_all"  />
<polygon points="550,40 561,40 566,35 561,30 550,30 550,40 " style="fill:#6315d8; stroke-width:1; stroke:black; " description="&lt;b&gt;LLPMBPKK_04048&lt;/b&gt;&lt;br&gt;2-alkyl-3-oxoalkanoate reductase&lt;br&gt;Location: 4647446 - 4648376" locus_tag="LLPMBPKK_04048" class="clusterblast-orf" id="dummy-18_q32_0_all"  />
<polygon points="566,35 571,30 587,30 587,40 571,40 566,35 " style="fill:white; stroke-width:1; stroke:black; " description="&lt;b&gt;LLPMBPKK_04049&lt;/b&gt;&lt;br&gt;pyrroloquinoline quinone biosynthesis proteinPqqE&lt;br&gt;Location: 4648378 - 4649575" locus_tag="LLPMBPKK_04049" class="clusterblast-orf" id="dummy-18_q33_0_all"  />
<polygon points="587,35 592,30 592,30 592,40 592,40 587,35 " style="fill:white; stroke-width:1; stroke:black; " description="&lt;b&gt;LLPMBPKK_04050&lt;/b&gt;&lt;br&gt;pyrroloquinoline quinone biosynthesis peptidechaperone PqqD&lt;br&gt;Location: 4649571 - 4649877" locus_tag="LLPMBPKK_04050" class="clusterblast-orf" id="dummy-18_q34_0_all"  />
<polygon points="592,35 597,30 605,30 605,40 597,40 592,35 " style="fill:white; stroke-width:1; stroke:black; " description="&lt;b&gt;LLPMBPKK_04051&lt;/b&gt;&lt;br&gt;pyrroloquinoline quinone biosynthesis proteinPqqC&lt;br&gt;Location: 4649876 - 4650611" locus_tag="LLPMBPKK_04051" class="clusterblast-orf" id="dummy-18_q35_0_all"  />
<polygon points="605,35 610,30 621,30 621,40 610,40 605,35 " style="fill:white; stroke-width:1; stroke:black; " description="&lt;b&gt;LLPMBPKK_04052&lt;/b&gt;&lt;br&gt;pyrroloquinoline quinone biosynthesis proteinPqqB&lt;br&gt;Location: 4650607 - 4651522" locus_tag="LLPMBPKK_04052" class="clusterblast-orf" id="dummy-18_q36_0_all"  />
<polygon points="621,35 624,30 624,40 621,35 " style="fill:white; stroke-width:1; stroke:black; " description="&lt;b&gt;LLPMBPKK_04053&lt;/b&gt;&lt;br&gt;hypothetical protein&lt;br&gt;Location: 4651529 - 4651667" locus_tag="LLPMBPKK_04053" class="clusterblast-orf" id="dummy-18_q37_0_all"  />
<polygon points="625,35 630,30 645,30 645,40 630,40 625,35 " style="fill:white; stroke-width:1; stroke:black; " description="&lt;b&gt;LLPMBPKK_04054&lt;/b&gt;&lt;br&gt;oxidoreductase&lt;br&gt;Location: 4651746 - 4652868" locus_tag="LLPMBPKK_04054" class="clusterblast-orf" id="dummy-18_q38_0_all"  />
<polygon points="646,35 651,30 676,30 676,40 651,40 646,35 " style="fill:white; stroke-width:1; stroke:black; " description="&lt;b&gt;LLPMBPKK_04055&lt;/b&gt;&lt;br&gt;hypothetical protein&lt;br&gt;Location: 4652956 - 4654618" locus_tag="LLPMBPKK_04055" class="clusterblast-orf" id="dummy-18_q39_0_all"  />
<polygon points="676,40 683,40 688,35 683,30 676,30 676,40 " style="fill:white; stroke-width:1; stroke:black; " description="&lt;b&gt;LLPMBPKK_04056&lt;/b&gt;&lt;br&gt;CDP-alcohol phosphatidyltransferase familyprotein&lt;br&gt;Location: 4654650 - 4655355" locus_tag="LLPMBPKK_04056" class="clusterblast-orf" id="dummy-18_q40_0_all"  />
<polygon points="687,35 692,30 696,30 696,40 692,40 687,35 " style="fill:white; stroke-width:1; stroke:black; " description="&lt;b&gt;LLPMBPKK_04057&lt;/b&gt;&lt;br&gt;Bifunctional protein HldE&lt;br&gt;Location: 4655244 - 4655793" locus_tag="LLPMBPKK_04057" class="clusterblast-orf" id="dummy-18_q41_0_all"  />
<polygon points="696,35 701,30 722,30 722,40 701,40 696,35 " style="fill:white; stroke-width:1; stroke:black; " description="&lt;b&gt;LLPMBPKK_04058&lt;/b&gt;&lt;br&gt;LamG domain-containing protein&lt;br&gt;Location: 4655789 - 4657256" locus_tag="LLPMBPKK_04058" class="clusterblast-orf" id="dummy-18_q42_0_all"  />
<polygon points="725,35 730,30 752,30 752,40 730,40 725,35 " style="fill:white; stroke-width:1; stroke:black; " description="&lt;b&gt;LLPMBPKK_04059&lt;/b&gt;&lt;br&gt;Polysaccharide biosynthesis protein&lt;br&gt;Location: 4657434 - 4658967" locus_tag="LLPMBPKK_04059" class="clusterblast-orf" id="dummy-18_q43_0_all"  />
<polygon points="752,35 757,30 780,30 780,40 757,40 752,35 " style="fill:white; stroke-width:1; stroke:black; " description="&lt;b&gt;LLPMBPKK_04060&lt;/b&gt;&lt;br&gt;hypothetical protein&lt;br&gt;Location: 4658963 - 4660556" locus_tag="LLPMBPKK_04060" class="clusterblast-orf" id="dummy-18_q44_0_all"  />
</g>
<g label="BGC0002441" description="BGC0002441_c1: o-dialkylbenzene 1/o-dialkylbenzene 2 (32% of genes show similarity), Polyketide+NRP" class="clusterblast-cluster"  >
<text x="5" y="70" class="clusterblast-acc"  >
<a xlink:href="https://mibig.secondarymetabolites.org/go/BGC0002441/1" target="_blank">BGC0002441</a>:                                            o-dialkylbenzene 1/o-dialkylbenzene 2 (32% of genes show similarity), Polyketide+NRP</text>
<line x1="10" y1="85" x2="778.0" y2="85" style="stroke-width:1; stroke:grey; "  />
</g>
<g id="a18_000"  >
<polygon points="137,85 142,80 153,80 153,90 142,90 137,85 " style="fill:white; stroke-width:1; stroke:black; " description="&lt;b&gt;BCN28618.1&lt;/b&gt;&lt;br&gt;ACP S-malonyltransferase&lt;br&gt;Location: 1 - 930" locus_tag="BCN28618.1" class="clusterblast-orf" id="dummy-18_h18_6_0"  />
</g>
<g id="a18_001"  >
<polygon points="158,85 163,80 171,80 171,90 163,90 158,85 " style="fill:white; stroke-width:1; stroke:black; " description="&lt;b&gt;BCN28619.1&lt;/b&gt;&lt;br&gt;LuxR family transcriptional regulator&lt;br&gt;Location: 1193 - 1969" locus_tag="BCN28619.1" class="clusterblast-orf" id="dummy-18_h18_6_1"  />
</g>
<g id="a18_002"  >
<polygon points="171,85 176,80 187,80 187,90 176,90 171,85 " style="fill:white; stroke-width:1; stroke:black; " description="&lt;b&gt;BCN28620.1&lt;/b&gt;&lt;br&gt;response regulator transcription factor&lt;br&gt;Location: 1966 - 2847" locus_tag="BCN28620.1" class="clusterblast-orf" id="dummy-18_h18_6_2"  />
</g>
<g id="a18_003"  >
<polygon points="206,90 250,90 255,85 250,80 206,80 206,90 " style="fill:white; stroke-width:1; stroke:black; " description="&lt;b&gt;BCN28621.1&lt;/b&gt;&lt;br&gt;non-ribosomal peptide synthetase&lt;br&gt;Location: 3954 - 6722" locus_tag="BCN28621.1" class="clusterblast-orf" id="dummy-18_h18_6_3"  />
</g>
<g id="a18_004"  >
<polygon points="254,90 266,90 271,85 266,80 254,80 254,90 " style="fill:white; stroke-width:1; stroke:black; " description="&lt;b&gt;BCN28622.1&lt;/b&gt;&lt;br&gt;NAD-dependent epimerase/dehydratase family&lt;br&gt;Location: 6719 - 7651" locus_tag="BCN28622.1" class="clusterblast-orf" id="dummy-18_h18_6_4"  />
</g>
<g id="a18_005"  >
<polygon points="271,90 273,90 278,85 273,80 271,80 271,90 " style="fill:white; stroke-width:1; stroke:black; " description="&lt;b&gt;BCN28623.1&lt;/b&gt;&lt;br&gt;nuclear transport factor 2 family&lt;br&gt;Location: 7659 - 8063" locus_tag="BCN28623.1" class="clusterblast-orf" id="dummy-18_h18_6_5"  />
</g>
<g id="a18_006"  >
<polygon points="280,85 285,80 293,80 293,90 285,90 280,85 " style="fill:white; stroke-width:1; stroke:black; " description="&lt;b&gt;BCN28624.1&lt;/b&gt;&lt;br&gt;4'-phosphopantetheinyl transferase&lt;br&gt;Location: 8159 - 8929" locus_tag="BCN28624.1" class="clusterblast-orf" id="dummy-18_h18_6_6"  />
</g>
<g id="a18_007"  >
<polygon points="295,85 300,80 307,80 307,90 300,90 295,85 " style="fill:#d81515; stroke-width:1; stroke:black; " description="&lt;b&gt;BCN28625.1&lt;/b&gt;&lt;br&gt;isomerase&lt;br&gt;Location: 9039 - 9716&lt;br&gt;&lt;br&gt;&lt;b&gt;BlastP hit with LLPMBPKK_04028&lt;/b&gt;&lt;br&gt;Percentage identity: 52&lt;br&gt;Percentage coverage: 97&lt;br&gt;BLAST bit score: 248&lt;br&gt;E-value: 3.55e-83" locus_tag="BCN28625.1" class="clusterblast-orf" id="dummy-18_h18_6_7"  />
</g>
<g id="a18_008"  >
<polygon points="308,85 313,80 327,80 327,90 313,90 308,85 " style="fill:#d86315; stroke-width:1; stroke:black; " description="&lt;b&gt;BCN28626.1&lt;/b&gt;&lt;br&gt;3-oxoacyl-ACP synthase&lt;br&gt;Location: 9762 - 10865&lt;br&gt;&lt;br&gt;&lt;b&gt;BlastP hit with LLPMBPKK_04032&lt;/b&gt;&lt;br&gt;Percentage identity: 52&lt;br&gt;Percentage coverage: 98&lt;br&gt;BLAST bit score: 318&lt;br&gt;E-value: 8.71e-107" locus_tag="BCN28626.1" class="clusterblast-orf" id="dummy-18_h18_6_8"  />
</g>
<g id="a18_009"  >
<polygon points="327,85 332,80 343,80 343,90 332,90 327,85 " style="fill:white; stroke-width:1; stroke:black; " description="&lt;b&gt;BCN28627.1&lt;/b&gt;&lt;br&gt;alpha/beta hydrolase&lt;br&gt;Location: 10871 - 11740" locus_tag="BCN28627.1" class="clusterblast-orf" id="dummy-18_h18_6_9"  />
</g>
<g id="a18_0010"  >
<polygon points="343,85 348,80 359,80 359,90 348,90 343,85 " style="fill:white; stroke-width:1; stroke:black; " description="&lt;b&gt;BCN28628.1&lt;/b&gt;&lt;br&gt;3-oxoacyl-ACP synthase&lt;br&gt;Location: 11742 - 12701" locus_tag="BCN28628.1" class="clusterblast-orf" id="dummy-18_h18_6_10"  />
</g>
<g id="a18_0011"  >
<polygon points="359,85 364,80 379,80 379,90 364,90 359,85 " style="fill:#d8b115; stroke-width:1; stroke:black; " description="&lt;b&gt;BCN28629.1&lt;/b&gt;&lt;br&gt;3-oxoacyl-ACP synthase&lt;br&gt;Location: 12698 - 13837&lt;br&gt;&lt;br&gt;&lt;b&gt;BlastP hit with LLPMBPKK_04039&lt;/b&gt;&lt;br&gt;Percentage identity: 59&lt;br&gt;Percentage coverage: 97&lt;br&gt;BLAST bit score: 403&lt;br&gt;E-value: 1.61e-139" locus_tag="BCN28629.1" class="clusterblast-orf" id="dummy-18_h18_6_11"  />
</g>
<g id="a18_0012"  >
<polygon points="379,85 384,80 402,80 402,90 384,90 379,85 " style="fill:#15d863; stroke-width:1; stroke:black; " description="&lt;b&gt;BCN28630.1&lt;/b&gt;&lt;br&gt;3-oxoacyl-ACP synthase&lt;br&gt;Location: 13831 - 15123&lt;br&gt;&lt;br&gt;&lt;b&gt;BlastP hit with LLPMBPKK_04040&lt;/b&gt;&lt;br&gt;Percentage identity: 70&lt;br&gt;Percentage coverage: 97&lt;br&gt;BLAST bit score: 568&lt;br&gt;E-value: 2.08e-203" locus_tag="BCN28630.1" class="clusterblast-orf" id="dummy-18_h18_6_12"  />
</g>
<g id="a18_0013"  >
<polygon points="403,85 407,80 407,90 403,85 " style="fill:#1515d8; stroke-width:1; stroke:black; " description="&lt;b&gt;BCN28631.1&lt;/b&gt;&lt;br&gt;acyl-carrier protein&lt;br&gt;Location: 15186 - 15440&lt;br&gt;&lt;br&gt;&lt;b&gt;BlastP hit with LLPMBPKK_04041&lt;/b&gt;&lt;br&gt;Percentage identity: 65&lt;br&gt;Percentage coverage: 99&lt;br&gt;BLAST bit score: 95&lt;br&gt;E-value: 4.08e-27" locus_tag="BCN28631.1" class="clusterblast-orf" id="dummy-18_h18_6_13"  />
</g>
<g id="a18_0014"  >
<polygon points="411,85 416,80 427,80 427,90 416,90 411,85 " style="fill:white; stroke-width:1; stroke:black; " description="&lt;b&gt;BCN28632.1&lt;/b&gt;&lt;br&gt;3-hydroxyacyl-ACP dehydratase&lt;br&gt;Location: 15614 - 16546" locus_tag="BCN28632.1" class="clusterblast-orf" id="dummy-18_h18_6_14"  />
</g>
<g id="a18_0015"  >
<polygon points="427,85 431,80 431,90 427,85 " style="fill:#b115d8; stroke-width:1; stroke:black; " description="&lt;b&gt;BCN28633.1&lt;/b&gt;&lt;br&gt;acyl-carrier protein&lt;br&gt;Location: 16543 - 16791&lt;br&gt;&lt;br&gt;&lt;b&gt;BlastP hit with LLPMBPKK_04031&lt;/b&gt;&lt;br&gt;Percentage identity: 51&lt;br&gt;Percentage coverage: 91&lt;br&gt;BLAST bit score: 78&lt;br&gt;E-value: 2.25e-20" locus_tag="BCN28633.1" class="clusterblast-orf" id="dummy-18_h18_6_15"  />
</g>
<g id="a18_0016"  >
<polygon points="432,85 437,80 450,80 450,90 437,90 432,85 " style="fill:white; stroke-width:1; stroke:black; " description="&lt;b&gt;BCN28634.1&lt;/b&gt;&lt;br&gt;SDR family oxidoreductase&lt;br&gt;Location: 16826 - 17851" locus_tag="BCN28634.1" class="clusterblast-orf" id="dummy-18_h18_6_16"  />
</g>
<g id="a18_0017"  >
<polygon points="451,85 456,80 458,80 458,90 456,90 451,85 " style="fill:white; stroke-width:1; stroke:black; " description="&lt;b&gt;BCN28635.1&lt;/b&gt;&lt;br&gt;SRPBCC family protein&lt;br&gt;Location: 17898 - 18347" locus_tag="BCN28635.1" class="clusterblast-orf" id="dummy-18_h18_6_17"  />
</g>
<g id="a18_0018"  >
<polygon points="460,85 465,80 489,80 489,90 465,90 460,85 " style="fill:white; stroke-width:1; stroke:black; " description="&lt;b&gt;BCN28636.1&lt;/b&gt;&lt;br&gt;MFS transporter&lt;br&gt;Location: 18459 - 20081" locus_tag="BCN28636.1" class="clusterblast-orf" id="dummy-18_h18_6_18"  />
</g>
<g id="a18_0019"  >
<polygon points="490,85 494,80 494,90 490,85 " style="fill:#b115d8; stroke-width:1; stroke:black; " description="&lt;b&gt;BCN28637.1&lt;/b&gt;&lt;br&gt;acyl-carrier protein&lt;br&gt;Location: 20139 - 20387&lt;br&gt;&lt;br&gt;&lt;b&gt;BlastP hit with LLPMBPKK_04031&lt;/b&gt;&lt;br&gt;Percentage identity: 49&lt;br&gt;Percentage coverage: 91&lt;br&gt;BLAST bit score: 76&lt;br&gt;E-value: 9.12e-20" locus_tag="BCN28637.1" class="clusterblast-orf" id="dummy-18_h18_6_19"  />
</g>
<g id="a18_0020"  >
<polygon points="495,85 500,80 512,80 512,90 500,90 495,85 " style="fill:white; stroke-width:1; stroke:black; " description="&lt;b&gt;BCN28638.1&lt;/b&gt;&lt;br&gt;3-oxoacyl-ACP synthase&lt;br&gt;Location: 20430 - 21401" locus_tag="BCN28638.1" class="clusterblast-orf" id="dummy-18_h18_6_20"  />
</g>
<g id="a18_0021"  >
<polygon points="512,85 517,80 532,80 532,90 517,90 512,85 " style="fill:white; stroke-width:1; stroke:black; " description="&lt;b&gt;BCN28639.1&lt;/b&gt;&lt;br&gt;3-oxoacyl-ACP synthase&lt;br&gt;Location: 21398 - 22564" locus_tag="BCN28639.1" class="clusterblast-orf" id="dummy-18_h18_6_21"  />
</g>
<g id="a18_0022"  >
<polygon points="537,90 549,90 554,85 549,80 537,80 537,90 " style="fill:#1563d8; stroke-width:1; stroke:black; " description="&lt;b&gt;BCN28640.1&lt;/b&gt;&lt;br&gt;putative thioesterase&lt;br&gt;Location: 22809 - 23798&lt;br&gt;&lt;br&gt;&lt;b&gt;BlastP hit with LLPMBPKK_04036&lt;/b&gt;&lt;br&gt;Percentage identity: 56&lt;br&gt;Percentage coverage: 98&lt;br&gt;BLAST bit score: 349&lt;br&gt;E-value: 4.31e-120" locus_tag="BCN28640.1" class="clusterblast-orf" id="dummy-18_h18_6_22"  />
</g>
<g id="a18_0023"  >
<polygon points="554,90 555,90 560,85 555,80 554,80 554,90 " style="fill:white; stroke-width:1; stroke:black; " description="&lt;b&gt;BCN28641.1&lt;/b&gt;&lt;br&gt;DsrE family protein&lt;br&gt;Location: 23804 - 24130" locus_tag="BCN28641.1" class="clusterblast-orf" id="dummy-18_h18_6_23"  />
</g>
<g id="a18_0024"  >
<polygon points="560,90 562,90 567,85 562,80 560,80 560,90 " style="fill:white; stroke-width:1; stroke:black; " description="&lt;b&gt;BCN28642.1&lt;/b&gt;&lt;br&gt;hypothetical protein&lt;br&gt;Location: 24130 - 24534" locus_tag="BCN28642.1" class="clusterblast-orf" id="dummy-18_h18_6_24"  />
</g>
<g id="a18_0025"  >
<polygon points="567,90 569,90 574,85 569,80 567,80 567,90 " style="fill:white; stroke-width:1; stroke:black; " description="&lt;b&gt;BCN28643.1&lt;/b&gt;&lt;br&gt;hypothetical protein&lt;br&gt;Location: 24536 - 24913" locus_tag="BCN28643.1" class="clusterblast-orf" id="dummy-18_h18_6_25"  />
</g>
<g id="a18_0026"  >
<polygon points="575,90 591,90 596,85 591,80 575,80 575,90 " style="fill:white; stroke-width:1; stroke:black; " description="&lt;b&gt;BCN28644.1&lt;/b&gt;&lt;br&gt;3-oxoacyl-ACP synthase&lt;br&gt;Location: 24982 - 26166" locus_tag="BCN28644.1" class="clusterblast-orf" id="dummy-18_h18_6_26"  />
</g>
<g id="a18_0027"  >
<polygon points="596,90 608,90 613,85 608,80 596,80 596,90 " style="fill:white; stroke-width:1; stroke:black; " description="&lt;b&gt;BCN28645.1&lt;/b&gt;&lt;br&gt;3-oxoacyl-ACP synthase&lt;br&gt;Location: 26163 - 27146" locus_tag="BCN28645.1" class="clusterblast-orf" id="dummy-18_h18_6_27"  />
</g>
<g id="a18_0028"  >
<polygon points="613,90 615,90 620,85 615,80 613,80 613,90 " style="fill:white; stroke-width:1; stroke:black; " description="&lt;b&gt;BCN28646.1&lt;/b&gt;&lt;br&gt;3-hydroxyacyl-ACP dehydratase&lt;br&gt;Location: 27180 - 27566" locus_tag="BCN28646.1" class="clusterblast-orf" id="dummy-18_h18_6_28"  />
</g>
<g id="a18_0029"  >
<polygon points="620,90 624,90 629,85 624,80 620,80 620,90 " style="fill:#15b1d8; stroke-width:1; stroke:black; " description="&lt;b&gt;BCN28647.1&lt;/b&gt;&lt;br&gt;3-hydroxyacyl-ACP dehydratase&lt;br&gt;Location: 27563 - 28078&lt;br&gt;&lt;br&gt;&lt;b&gt;BlastP hit with LLPMBPKK_04030&lt;/b&gt;&lt;br&gt;Percentage identity: 47&lt;br&gt;Percentage coverage: 47&lt;br&gt;BLAST bit score: 138&lt;br&gt;E-value: 5.65e-40" locus_tag="BCN28647.1" class="clusterblast-orf" id="dummy-18_h18_6_29"  />
</g>
<g id="a18_0030"  >
<polygon points="629,90 637,90 642,85 637,80 629,80 629,90 " style="fill:#63d815; stroke-width:1; stroke:black; " description="&lt;b&gt;BCN28648.1&lt;/b&gt;&lt;br&gt;3-oxoacyl-ACP reductase&lt;br&gt;Location: 28071 - 28832&lt;br&gt;&lt;br&gt;&lt;b&gt;BlastP hit with LLPMBPKK_04029&lt;/b&gt;&lt;br&gt;Percentage identity: 57&lt;br&gt;Percentage coverage: 101&lt;br&gt;BLAST bit score: 265&lt;br&gt;E-value: 2.24e-89" locus_tag="BCN28648.1" class="clusterblast-orf" id="dummy-18_h18_6_30"  />
</g>
</svg>
