<svg xmlns="http://www.w3.org/2000/svg" xmlns:xlink="http://www.w3.org/1999/xlink" version="1.1" x="0" y="0" height="230" width="800" viewBox="0 0 800 230" preserveAspectRatio="none"  >
<g label="Query sequence" class="clusterblast-cluster"  >
<text x="5" y="20" class="clusterblast-acc"  >
Query sequence</text>
<line x1="10" y1="35" x2="778.0" y2="35" style="stroke-width:1; stroke:grey; "  />
<polygon points="15,40 19,40 24,35 19,30 15,30 15,40 " style="fill:white; stroke-width:1; stroke:black; " description="&lt;b&gt;LLPMBPKK_06896&lt;/b&gt;&lt;br&gt;oxidoreductase&lt;br&gt;Location: 7938673 - 7939900" locus_tag="LLPMBPKK_06896" class="clusterblast-orf" id="dummy-30_q0_0_all"  />
<polygon points="24,35 29,30 29,30 29,40 29,40 24,35 " style="fill:white; stroke-width:1; stroke:black; " description="&lt;b&gt;LLPMBPKK_06897&lt;/b&gt;&lt;br&gt;crotonase/enoyl-CoA hydratase family protein&lt;br&gt;Location: 7939930 - 7940695" locus_tag="LLPMBPKK_06897" class="clusterblast-orf" id="dummy-30_q1_0_all"  />
<polygon points="29,35 34,30 36,30 36,40 34,40 29,35 " style="fill:white; stroke-width:1; stroke:black; " description="&lt;b&gt;LLPMBPKK_06898&lt;/b&gt;&lt;br&gt;flippase-like domain-containing protein&lt;br&gt;Location: 7940739 - 7941705" locus_tag="LLPMBPKK_06898" class="clusterblast-orf" id="dummy-30_q2_0_all"  />
<polygon points="37,40 45,40 50,35 45,30 37,30 37,40 " style="fill:white; stroke-width:1; stroke:black; " description="&lt;b&gt;LLPMBPKK_06899&lt;/b&gt;&lt;br&gt;ABC transporter ATP-binding protein&lt;br&gt;Location: 7941795 - 7943691" locus_tag="LLPMBPKK_06899" class="clusterblast-orf" id="dummy-30_q3_0_all"  />
<polygon points="50,35 55,30 65,30 65,40 55,40 50,35 " style="fill:white; stroke-width:1; stroke:black; " description="&lt;b&gt;LLPMBPKK_06900&lt;/b&gt;&lt;br&gt;HEAT repeats&lt;br&gt;Location: 7943772 - 7945989" locus_tag="LLPMBPKK_06900" class="clusterblast-orf" id="dummy-30_q4_0_all"  />
<polygon points="67,40 68,35 67,30 67,40 " style="fill:white; stroke-width:1; stroke:black; " description="&lt;b&gt;LLPMBPKK_06901&lt;/b&gt;&lt;br&gt;hypothetical protein&lt;br&gt;Location: 7946220 - 7946388" locus_tag="LLPMBPKK_06901" class="clusterblast-orf" id="dummy-30_q5_0_all"  />
<polygon points="69,40 73,35 69,30 69,40 " style="fill:white; stroke-width:1; stroke:black; " description="&lt;b&gt;LLPMBPKK_06902&lt;/b&gt;&lt;br&gt;2Fe-2S iron-sulfur cluster bindingdomain-containing protein&lt;br&gt;Location: 7946482 - 7947019" locus_tag="LLPMBPKK_06902" class="clusterblast-orf" id="dummy-30_q6_0_all"  />
<polygon points="73,40 75,40 80,35 75,30 73,30 73,40 " style="fill:white; stroke-width:1; stroke:black; " description="&lt;b&gt;LLPMBPKK_06903&lt;/b&gt;&lt;br&gt;FAD binding domain in molybdopterindehydrogenase&lt;br&gt;Location: 7947019 - 7948141" locus_tag="LLPMBPKK_06903" class="clusterblast-orf" id="dummy-30_q7_0_all"  />
<polygon points="80,40 89,40 94,35 89,30 80,30 80,40 " style="fill:white; stroke-width:1; stroke:black; " description="&lt;b&gt;LLPMBPKK_06904&lt;/b&gt;&lt;br&gt;xanthine dehydrogenase family protein molybdopterin-binding subunit&lt;br&gt;Location: 7948137 - 7950219" locus_tag="LLPMBPKK_06904" class="clusterblast-orf" id="dummy-30_q8_0_all"  />
<polygon points="94,40 106,40 111,35 106,30 94,30 94,40 " style="fill:white; stroke-width:1; stroke:black; " description="&lt;b&gt;LLPMBPKK_06905&lt;/b&gt;&lt;br&gt;glycoside hydrolase family 65 protein&lt;br&gt;Location: 7950221 - 7952591" locus_tag="LLPMBPKK_06905" class="clusterblast-orf" id="dummy-30_q9_0_all"  />
<polygon points="112,40 112,40 117,35 112,30 112,30 112,40 " style="fill:white; stroke-width:1; stroke:black; " description="&lt;b&gt;LLPMBPKK_06906&lt;/b&gt;&lt;br&gt;response regulator transcription factor&lt;br&gt;Location: 7952728 - 7953538" locus_tag="LLPMBPKK_06906" class="clusterblast-orf" id="dummy-30_q10_0_all"  />
<polygon points="123,40 127,40 132,35 127,30 123,30 123,40 " style="fill:#d81515; stroke-width:1; stroke:black; " description="&lt;b&gt;LLPMBPKK_06907&lt;/b&gt;&lt;br&gt;LuxR family transcriptional regulator&lt;br&gt;Location: 7954435 - 7955656" locus_tag="LLPMBPKK_06907" class="clusterblast-orf" id="dummy-30_q11_0_all"  />
<polygon points="133,40 133,40 138,35 133,30 133,30 133,40 " style="fill:#67d815; stroke-width:1; stroke:black; " description="&lt;b&gt;LLPMBPKK_06908&lt;/b&gt;&lt;br&gt;FMN-dependent NADH-azoreductase&lt;br&gt;Location: 7955880 - 7956528" locus_tag="LLPMBPKK_06908" class="clusterblast-orf" id="dummy-30_q12_0_all"  />
<polygon points="138,40 141,40 146,35 141,30 138,30 138,40 " style="fill:#15b9d8; stroke-width:1; stroke:black; " description="&lt;b&gt;LLPMBPKK_06909&lt;/b&gt;&lt;br&gt;cytochrome P450&lt;br&gt;Location: 7956524 - 7957718" locus_tag="LLPMBPKK_06909" class="clusterblast-orf" id="dummy-30_q13_0_all"  />
<polygon points="149,40 261,40 266,35 261,30 149,30 149,40 " style="fill:#a515d8; stroke-width:1; stroke:black; " description="&lt;b&gt;LLPMBPKK_06910&lt;/b&gt;&lt;br&gt;2-succinylbenzoate--CoA ligase&lt;br&gt;Location: 7958211 - 7975215" locus_tag="LLPMBPKK_06910" class="clusterblast-orf" id="dummy-30_q14_0_all"  />
<polygon points="266,40 371,40 376,35 371,30 266,30 266,40 " style="fill:#a515d8; stroke-width:1; stroke:black; " description="&lt;b&gt;LLPMBPKK_06911&lt;/b&gt;&lt;br&gt;rifamycin polyketide synthase&lt;br&gt;Location: 7975249 - 7991275" locus_tag="LLPMBPKK_06911" class="clusterblast-orf" id="dummy-30_q15_0_all"  />
<polygon points="376,40 480,40 485,35 480,30 376,30 376,40 " style="fill:#a515d8; stroke-width:1; stroke:black; " description="&lt;b&gt;LLPMBPKK_06912&lt;/b&gt;&lt;br&gt;rifamycin polyketide synthase&lt;br&gt;Location: 7991321 - 8007224" locus_tag="LLPMBPKK_06912" class="clusterblast-orf" id="dummy-30_q16_0_all"  />
<polygon points="486,40 510,40 515,35 510,30 486,30 486,40 " style="fill:#a515d8; stroke-width:1; stroke:black; " description="&lt;b&gt;LLPMBPKK_06913&lt;/b&gt;&lt;br&gt;rifamycin polyketide synthase&lt;br&gt;Location: 8007313 - 8011516" locus_tag="LLPMBPKK_06913" class="clusterblast-orf" id="dummy-30_q17_0_all"  />
<polygon points="516,40 555,40 560,35 555,30 516,30 516,40 " style="fill:#a515d8; stroke-width:1; stroke:black; " description="&lt;b&gt;LLPMBPKK_06914&lt;/b&gt;&lt;br&gt;rifamycin polyketide synthase&lt;br&gt;Location: 8011776 - 8018199" locus_tag="LLPMBPKK_06914" class="clusterblast-orf" id="dummy-30_q18_0_all"  />
<polygon points="561,40 628,40 633,35 628,30 561,30 561,40 " style="fill:#a515d8; stroke-width:1; stroke:black; " description="&lt;b&gt;LLPMBPKK_06915&lt;/b&gt;&lt;br&gt;rifamycin polyketide synthase&lt;br&gt;Location: 8018229 - 8028825" locus_tag="LLPMBPKK_06915" class="clusterblast-orf" id="dummy-30_q19_0_all"  />
<polygon points="635,40 637,35 635,30 635,40 " style="fill:#a515d8; stroke-width:1; stroke:black; " description="&lt;b&gt;LLPMBPKK_06916&lt;/b&gt;&lt;br&gt;rifamycin polyketide synthase&lt;br&gt;Location: 8029097 - 8029349" locus_tag="LLPMBPKK_06916" class="clusterblast-orf" id="dummy-30_q20_0_all"  />
<polygon points="637,40 638,40 643,35 638,30 637,30 637,40 " style="fill:#d85315; stroke-width:1; stroke:black; " description="&lt;b&gt;LLPMBPKK_06917&lt;/b&gt;&lt;br&gt;N-acetyltransferase/amide synthase&lt;br&gt;Location: 8029392 - 8030199" locus_tag="LLPMBPKK_06917" class="clusterblast-orf" id="dummy-30_q21_0_all"  />
<polygon points="643,40 647,40 652,35 647,30 643,30 643,40 " style="fill:#2ad815; stroke-width:1; stroke:black; " description="&lt;b&gt;LLPMBPKK_06918&lt;/b&gt;&lt;br&gt;electron transfer oxidoreductase&lt;br&gt;Location: 8030255 - 8031599" locus_tag="LLPMBPKK_06918" class="clusterblast-orf" id="dummy-30_q22_0_all"  />
<polygon points="653,40 656,40 661,35 656,30 653,30 653,40 " style="fill:#157cd8; stroke-width:1; stroke:black; " description="&lt;b&gt;LLPMBPKK_06919&lt;/b&gt;&lt;br&gt;3-dehydroquinate synthase&lt;br&gt;Location: 8031746 - 8032823" locus_tag="LLPMBPKK_06919" class="clusterblast-orf" id="dummy-30_q23_0_all"  />
<polygon points="661,40 665,40 670,35 665,30 661,30 661,40 " style="fill:#d815ce; stroke-width:1; stroke:black; " description="&lt;b&gt;LLPMBPKK_06920&lt;/b&gt;&lt;br&gt;aminoDAHP synthase&lt;br&gt;Location: 8032819 - 8034238" locus_tag="LLPMBPKK_06920" class="clusterblast-orf" id="dummy-30_q24_0_all"  />
<polygon points="670,40 671,40 676,35 671,30 670,30 670,40 " style="fill:#d89015; stroke-width:1; stroke:black; " description="&lt;b&gt;LLPMBPKK_06921&lt;/b&gt;&lt;br&gt;aminoquinate dehydrogenase&lt;br&gt;Location: 8034234 - 8035077" locus_tag="LLPMBPKK_06921" class="clusterblast-orf" id="dummy-30_q25_0_all"  />
<polygon points="677,40 680,40 685,35 680,30 677,30 677,40 " style="fill:#15d83e; stroke-width:1; stroke:black; " description="&lt;b&gt;LLPMBPKK_06922&lt;/b&gt;&lt;br&gt;3-amino-5-hydroxybenzoate synthase&lt;br&gt;Location: 8035247 - 8036408" locus_tag="LLPMBPKK_06922" class="clusterblast-orf" id="dummy-30_q26_0_all"  />
<polygon points="685,40 688,40 693,35 688,30 685,30 685,40 " style="fill:#153ed8; stroke-width:1; stroke:black; " description="&lt;b&gt;LLPMBPKK_06923&lt;/b&gt;&lt;br&gt;oxidoreductase RifL&lt;br&gt;Location: 8036404 - 8037499" locus_tag="LLPMBPKK_06923" class="clusterblast-orf" id="dummy-30_q27_0_all"  />
<polygon points="693,40 693,40 698,35 693,30 693,30 693,40 " style="fill:#d81590; stroke-width:1; stroke:black; " description="&lt;b&gt;LLPMBPKK_06924&lt;/b&gt;&lt;br&gt;phosphoglycolate phosphatase&lt;br&gt;Location: 8037506 - 8038202" locus_tag="LLPMBPKK_06924" class="clusterblast-orf" id="dummy-30_q28_0_all"  />
<polygon points="698,40 699,40 704,35 699,30 698,30 698,40 " style="fill:#d8ce15; stroke-width:1; stroke:black; " description="&lt;b&gt;LLPMBPKK_06925&lt;/b&gt;&lt;br&gt;kanosamine kinase&lt;br&gt;Location: 8038204 - 8039122" locus_tag="LLPMBPKK_06925" class="clusterblast-orf" id="dummy-30_q29_0_all"  />
<polygon points="706,35 711,30 717,30 717,40 711,40 706,35 " style="fill:#15d87c; stroke-width:1; stroke:black; " description="&lt;b&gt;LLPMBPKK_06926&lt;/b&gt;&lt;br&gt;3-(3-hydroxyphenyl)propionate hydroxylase&lt;br&gt;Location: 8039408 - 8041073" locus_tag="LLPMBPKK_06926" class="clusterblast-orf" id="dummy-30_q30_0_all"  />
<polygon points="719,40 719,40 724,35 719,30 719,30 719,40 " style="fill:#2a15d8; stroke-width:1; stroke:black; " description="&lt;b&gt;LLPMBPKK_06927&lt;/b&gt;&lt;br&gt;oleoyl-(acyl-carrier-protein) hydrolase&lt;br&gt;Location: 8041281 - 8042055" locus_tag="LLPMBPKK_06927" class="clusterblast-orf" id="dummy-30_q31_0_all"  />
<polygon points="724,40 729,40 734,35 729,30 724,30 724,40 " style="fill:#d81553; stroke-width:1; stroke:black; " description="&lt;b&gt;LLPMBPKK_06928&lt;/b&gt;&lt;br&gt;cation/H(+) antiporter&lt;br&gt;Location: 8042087 - 8043482" locus_tag="LLPMBPKK_06928" class="clusterblast-orf" id="dummy-30_q32_0_all"  />
<polygon points="734,40 737,35 734,30 734,40 " style="fill:#a5d815; stroke-width:1; stroke:black; " description="&lt;b&gt;LLPMBPKK_06929&lt;/b&gt;&lt;br&gt;aminoDHQ dehydratase&lt;br&gt;Location: 8043478 - 8043919" locus_tag="LLPMBPKK_06929" class="clusterblast-orf" id="dummy-30_q33_0_all"  />
<polygon points="737,40 737,40 742,35 737,30 737,30 737,40 " style="fill:#15d8b9; stroke-width:1; stroke:black; " description="&lt;b&gt;LLPMBPKK_06930&lt;/b&gt;&lt;br&gt;alpha/beta hydrolase&lt;br&gt;Location: 8043968 - 8044661" locus_tag="LLPMBPKK_06930" class="clusterblast-orf" id="dummy-30_q34_0_all"  />
<polygon points="742,40 742,40 747,35 742,30 742,30 742,40 " style="fill:#6715d8; stroke-width:1; stroke:black; " description="&lt;b&gt;LLPMBPKK_06931&lt;/b&gt;&lt;br&gt;Activator of Hsp90 ATPase -like protein&lt;br&gt;Location: 8044713 - 8045403" locus_tag="LLPMBPKK_06931" class="clusterblast-orf" id="dummy-30_q35_0_all"  />
<polygon points="748,40 750,35 748,30 748,40 " style="fill:white; stroke-width:1; stroke:black; " description="&lt;b&gt;LLPMBPKK_06932&lt;/b&gt;&lt;br&gt;hypothetical protein&lt;br&gt;Location: 8045491 - 8045839" locus_tag="LLPMBPKK_06932" class="clusterblast-orf" id="dummy-30_q36_0_all"  />
<polygon points="752,40 752,35 752,30 752,40 " style="fill:white; stroke-width:1; stroke:black; " description="&lt;b&gt;LLPMBPKK_06933&lt;/b&gt;&lt;br&gt;K(+)-transporting ATPase subunit F&lt;br&gt;Location: 8046102 - 8046192" locus_tag="LLPMBPKK_06933" class="clusterblast-orf" id="dummy-30_q37_0_all"  />
<polygon points="752,40 759,40 764,35 759,30 752,30 752,40 " style="fill:white; stroke-width:1; stroke:black; " description="&lt;b&gt;LLPMBPKK_06934&lt;/b&gt;&lt;br&gt;potassium-transporting ATPase subunit KdpA&lt;br&gt;Location: 8046200 - 8047862" locus_tag="LLPMBPKK_06934" class="clusterblast-orf" id="dummy-30_q38_0_all"  />
</g>
<g label="BGC0001759" description="BGC0001759_c1: rifamorpholine A/rifamorpholine B/rifamorpholine C/rifamorphol... (30% of genes show similarity), Polyketide" class="clusterblast-cluster"  >
<text x="5" y="70" class="clusterblast-acc"  >
<a xlink:href="https://mibig.secondarymetabolites.org/go/BGC0001759/1" target="_blank">BGC0001759</a>: rifamorpholine A/rifamorpholine B/rifamorpholine C/rifamorpholine D/rifamorpholine E (30% of genes show similarity), Polyketide</text>
<line x1="10" y1="85" x2="778.0" y2="85" style="stroke-width:1; stroke:grey; "  />
</g>
<g id="a30_000"  >
<polygon points="0,90 0,90 5,85 0,80 0,80 0,90 " style="fill:white; stroke-width:1; stroke:black; " description="&lt;b&gt;AWH12690.1&lt;/b&gt;&lt;br&gt;R2&lt;br&gt;Location: 113785 - 113012" locus_tag="AWH12690.1" class="clusterblast-orf" id="dummy-30_h30_7_0"  />
</g>
<g id="a30_001"  >
<polygon points="5,85 10,80 11,80 11,90 10,90 5,85 " style="fill:white; stroke-width:1; stroke:black; " description="&lt;b&gt;AWH12689.1&lt;/b&gt;&lt;br&gt;R1&lt;br&gt;Location: 113015 - 112068" locus_tag="AWH12689.1" class="clusterblast-orf" id="dummy-30_h30_7_1"  />
</g>
<g id="a30_002"  >
<polygon points="13,90 17,85 13,80 13,90 " style="fill:white; stroke-width:1; stroke:black; " description="&lt;b&gt;AWH12688.1&lt;/b&gt;&lt;br&gt;Rp1J&lt;br&gt;Location: 111756 - 111202" locus_tag="AWH12688.1" class="clusterblast-orf" id="dummy-30_h30_7_2"  />
</g>
<g id="a30_003"  >
<polygon points="18,90 20,85 18,80 18,90 " style="fill:white; stroke-width:1; stroke:black; " description="&lt;b&gt;AWH12687.1&lt;/b&gt;&lt;br&gt;Rp1I&lt;br&gt;Location: 111152 - 110766" locus_tag="AWH12687.1" class="clusterblast-orf" id="dummy-30_h30_7_3"  />
</g>
<g id="a30_004"  >
<polygon points="23,90 26,90 31,85 26,80 23,80 23,90 " style="fill:white; stroke-width:1; stroke:black; " description="&lt;b&gt;AWH12686.1&lt;/b&gt;&lt;br&gt;Rmp21&lt;br&gt;Location: 110373 - 109198" locus_tag="AWH12686.1" class="clusterblast-orf" id="dummy-30_h30_7_4"  />
</g>
<g id="a30_005"  >
<polygon points="31,90 31,90 36,85 31,80 31,80 31,90 " style="fill:white; stroke-width:1; stroke:black; " description="&lt;b&gt;AWH12685.1&lt;/b&gt;&lt;br&gt;Rmp22&lt;br&gt;Location: 109201 - 108407" locus_tag="AWH12685.1" class="clusterblast-orf" id="dummy-30_h30_7_5"  />
</g>
<g id="a30_006"  >
<polygon points="36,90 37,90 42,85 37,80 36,80 36,90 " style="fill:white; stroke-width:1; stroke:black; " description="&lt;b&gt;AWH12684.1&lt;/b&gt;&lt;br&gt;Rmp23&lt;br&gt;Location: 108402 - 107566" locus_tag="AWH12684.1" class="clusterblast-orf" id="dummy-30_h30_7_6"  />
</g>
<g id="a30_007"  >
<polygon points="42,90 46,90 51,85 46,80 42,80 42,90 " style="fill:white; stroke-width:1; stroke:black; " description="&lt;b&gt;AWH12683.1&lt;/b&gt;&lt;br&gt;Rmp24&lt;br&gt;Location: 107569 - 106244" locus_tag="AWH12683.1" class="clusterblast-orf" id="dummy-30_h30_7_7"  />
</g>
<g id="a30_008"  >
<polygon points="51,90 53,90 58,85 53,80 51,80 51,90 " style="fill:white; stroke-width:1; stroke:black; " description="&lt;b&gt;AWH12682.1&lt;/b&gt;&lt;br&gt;Rmp25&lt;br&gt;Location: 106247 - 105219" locus_tag="AWH12682.1" class="clusterblast-orf" id="dummy-30_h30_7_8"  />
</g>
<g id="a30_009"  >
<polygon points="58,90 60,90 65,85 60,80 58,80 58,90 " style="fill:white; stroke-width:1; stroke:black; " description="&lt;b&gt;AWH12681.1&lt;/b&gt;&lt;br&gt;Rmp26&lt;br&gt;Location: 105222 - 104236" locus_tag="AWH12681.1" class="clusterblast-orf" id="dummy-30_h30_7_9"  />
</g>
<g id="a30_0010"  >
<polygon points="65,90 68,90 73,85 68,80 65,80 65,90 " style="fill:white; stroke-width:1; stroke:black; " description="&lt;b&gt;AWH12680.1&lt;/b&gt;&lt;br&gt;Rmp27&lt;br&gt;Location: 104239 - 103055" locus_tag="AWH12680.1" class="clusterblast-orf" id="dummy-30_h30_7_10"  />
</g>
<g id="a30_0011"  >
<polygon points="73,90 76,90 81,85 76,80 73,80 73,90 " style="fill:white; stroke-width:1; stroke:black; " description="&lt;b&gt;AWH12679.1&lt;/b&gt;&lt;br&gt;Rmp28&lt;br&gt;Location: 103058 - 101883" locus_tag="AWH12679.1" class="clusterblast-orf" id="dummy-30_h30_7_11"  />
</g>
<g id="a30_0012"  >
<polygon points="81,90 85,90 90,85 85,80 81,80 81,90 " style="fill:white; stroke-width:1; stroke:black; " description="&lt;b&gt;AWH12678.1&lt;/b&gt;&lt;br&gt;Rmp29&lt;br&gt;Location: 101883 - 100618" locus_tag="AWH12678.1" class="clusterblast-orf" id="dummy-30_h30_7_12"  />
</g>
<g id="a30_0013"  >
<polygon points="90,90 94,85 90,80 90,90 " style="fill:white; stroke-width:1; stroke:black; " description="&lt;b&gt;AWH12677.1&lt;/b&gt;&lt;br&gt;Rmp30&lt;br&gt;Location: 100581 - 100006" locus_tag="AWH12677.1" class="clusterblast-orf" id="dummy-30_h30_7_13"  />
</g>
<g id="a30_0014"  >
<polygon points="94,90 96,90 101,85 96,80 94,80 94,90 " style="fill:white; stroke-width:1; stroke:black; " description="&lt;b&gt;AWH12676.1&lt;/b&gt;&lt;br&gt;Rmp31&lt;br&gt;Location: 99983 - 98997" locus_tag="AWH12676.1" class="clusterblast-orf" id="dummy-30_h30_7_14"  />
</g>
<g id="a30_0015"  >
<polygon points="104,90 106,90 111,85 106,80 104,80 104,90 " style="fill:white; stroke-width:1; stroke:black; " description="&lt;b&gt;AWH12675.1&lt;/b&gt;&lt;br&gt;RmpS&lt;br&gt;Location: 98501 - 97533" locus_tag="AWH12675.1" class="clusterblast-orf" id="dummy-30_h30_7_15"  />
</g>
<g id="a30_0016"  >
<polygon points="111,90 111,90 116,85 111,80 111,80 111,90 " style="fill:white; stroke-width:1; stroke:black; " description="&lt;b&gt;AWH12674.1&lt;/b&gt;&lt;br&gt;RmpT&lt;br&gt;Location: 97536 - 96757" locus_tag="AWH12674.1" class="clusterblast-orf" id="dummy-30_h30_7_16"  />
</g>
<g id="a30_0017"  >
<polygon points="117,90 119,85 117,80 117,90 " style="fill:white; stroke-width:1; stroke:black; " description="&lt;b&gt;AWH12673.1&lt;/b&gt;&lt;br&gt;Rmp35&lt;br&gt;Location: 96580 - 96353" locus_tag="AWH12673.1" class="clusterblast-orf" id="dummy-30_h30_7_17"  />
</g>
<g id="a30_0018"  >
<polygon points="119,90 122,90 127,85 122,80 119,80 119,90 " style="fill:#15b9d8; stroke-width:1; stroke:black; " description="&lt;b&gt;AWH12672.1&lt;/b&gt;&lt;br&gt;Rmp0&lt;br&gt;Location: 96320 - 95130&lt;br&gt;&lt;br&gt;&lt;b&gt;BlastP hit with LLPMBPKK_06909&lt;/b&gt;&lt;br&gt;Percentage identity: 65&lt;br&gt;Percentage coverage: 100&lt;br&gt;BLAST bit score: 548&lt;br&gt;E-value: 2.03e-196" locus_tag="AWH12672.1" class="clusterblast-orf" id="dummy-30_h30_7_18"  />
</g>
<g id="a30_0019"  >
<polygon points="128,90 187,90 192,85 187,80 128,80 128,90 " style="fill:#a515d8; stroke-width:1; stroke:black; " description="&lt;b&gt;AWH12671.1&lt;/b&gt;&lt;br&gt;RmpA1&lt;br&gt;Location: 95088 - 85690&lt;br&gt;&lt;br&gt;&lt;b&gt;BlastP hit with LLPMBPKK_06910&lt;/b&gt;&lt;br&gt;Percentage identity: 60&lt;br&gt;Percentage coverage: 64&lt;br&gt;BLAST bit score: 3726&lt;br&gt;E-value: 0.0&lt;br&gt;&lt;br&gt;&lt;b&gt;BlastP hit with LLPMBPKK_06911&lt;/b&gt;&lt;br&gt;Percentage identity: 58&lt;br&gt;Percentage coverage: 51&lt;br&gt;BLAST bit score: 2660&lt;br&gt;E-value: 0.0&lt;br&gt;&lt;br&gt;&lt;b&gt;BlastP hit with LLPMBPKK_06912&lt;/b&gt;&lt;br&gt;Percentage identity: 58&lt;br&gt;Percentage coverage: 53&lt;br&gt;BLAST bit score: 2695&lt;br&gt;E-value: 0.0&lt;br&gt;&lt;br&gt;&lt;b&gt;BlastP hit with LLPMBPKK_06913&lt;/b&gt;&lt;br&gt;Percentage identity: 61&lt;br&gt;Percentage coverage: 86&lt;br&gt;BLAST bit score: 1270&lt;br&gt;E-value: 0.0&lt;br&gt;&lt;br&gt;&lt;b&gt;BlastP hit with LLPMBPKK_06914&lt;/b&gt;&lt;br&gt;Percentage identity: 52&lt;br&gt;Percentage coverage: 86&lt;br&gt;BLAST bit score: 1506&lt;br&gt;E-value: 0.0&lt;br&gt;&lt;br&gt;&lt;b&gt;BlastP hit with LLPMBPKK_06915&lt;/b&gt;&lt;br&gt;Percentage identity: 54&lt;br&gt;Percentage coverage: 75&lt;br&gt;BLAST bit score: 2331&lt;br&gt;E-value: 0.0" locus_tag="AWH12671.1" class="clusterblast-orf" id="dummy-30_h30_7_19"  />
</g>
<g id="a30_0020"  >
<polygon points="193,90 220,90 225,85 220,80 193,80 193,90 " style="fill:#a515d8; stroke-width:1; stroke:black; " description="&lt;b&gt;AWH12670.1&lt;/b&gt;&lt;br&gt;RmpA2&lt;br&gt;Location: 85609 - 80894&lt;br&gt;&lt;br&gt;&lt;b&gt;BlastP hit with LLPMBPKK_06913&lt;/b&gt;&lt;br&gt;Percentage identity: 69&lt;br&gt;Percentage coverage: 66&lt;br&gt;BLAST bit score: 1197&lt;br&gt;E-value: 0.0&lt;br&gt;&lt;br&gt;&lt;b&gt;BlastP hit with LLPMBPKK_06914&lt;/b&gt;&lt;br&gt;Percentage identity: 59&lt;br&gt;Percentage coverage: 43&lt;br&gt;BLAST bit score: 938&lt;br&gt;E-value: 1.96e-308" locus_tag="AWH12670.1" class="clusterblast-orf" id="dummy-30_h30_7_20"  />
</g>
<g id="a30_0021"  >
<polygon points="225,90 324,90 329,85 324,80 225,80 225,90 " style="fill:#a515d8; stroke-width:1; stroke:black; " description="&lt;b&gt;AWH12669.1&lt;/b&gt;&lt;br&gt;RmpB&lt;br&gt;Location: 80860 - 65789&lt;br&gt;&lt;br&gt;&lt;b&gt;BlastP hit with LLPMBPKK_06910&lt;/b&gt;&lt;br&gt;Percentage identity: 49&lt;br&gt;Percentage coverage: 92&lt;br&gt;BLAST bit score: 3916&lt;br&gt;E-value: 0.0&lt;br&gt;&lt;br&gt;&lt;b&gt;BlastP hit with LLPMBPKK_06911&lt;/b&gt;&lt;br&gt;Percentage identity: 65&lt;br&gt;Percentage coverage: 99&lt;br&gt;BLAST bit score: 6115&lt;br&gt;E-value: 0.0&lt;br&gt;&lt;br&gt;&lt;b&gt;BlastP hit with LLPMBPKK_06912&lt;/b&gt;&lt;br&gt;Percentage identity: 59&lt;br&gt;Percentage coverage: 99&lt;br&gt;BLAST bit score: 5261&lt;br&gt;E-value: 0.0&lt;br&gt;&lt;br&gt;&lt;b&gt;BlastP hit with LLPMBPKK_06913&lt;/b&gt;&lt;br&gt;Percentage identity: 65&lt;br&gt;Percentage coverage: 95&lt;br&gt;BLAST bit score: 1600&lt;br&gt;E-value: 0.0&lt;br&gt;&lt;br&gt;&lt;b&gt;BlastP hit with LLPMBPKK_06914&lt;/b&gt;&lt;br&gt;Percentage identity: 59&lt;br&gt;Percentage coverage: 100&lt;br&gt;BLAST bit score: 2141&lt;br&gt;E-value: 0.0&lt;br&gt;&lt;br&gt;&lt;b&gt;BlastP hit with LLPMBPKK_06915&lt;/b&gt;&lt;br&gt;Percentage identity: 56&lt;br&gt;Percentage coverage: 99&lt;br&gt;BLAST bit score: 3253&lt;br&gt;E-value: 0.0&lt;br&gt;&lt;br&gt;&lt;b&gt;BlastP hit with LLPMBPKK_06916&lt;/b&gt;&lt;br&gt;Percentage identity: 47&lt;br&gt;Percentage coverage: 92&lt;br&gt;BLAST bit score: 67&lt;br&gt;E-value: 3e-14" locus_tag="AWH12669.1" class="clusterblast-orf" id="dummy-30_h30_7_21"  />
</g>
<g id="a30_0022"  >
<polygon points="329,90 360,90 365,85 360,80 329,80 329,90 " style="fill:#a515d8; stroke-width:1; stroke:black; " description="&lt;b&gt;AWH12668.1&lt;/b&gt;&lt;br&gt;RmpC&lt;br&gt;Location: 65775 - 60535&lt;br&gt;&lt;br&gt;&lt;b&gt;BlastP hit with LLPMBPKK_06913&lt;/b&gt;&lt;br&gt;Percentage identity: 65&lt;br&gt;Percentage coverage: 94&lt;br&gt;BLAST bit score: 1568&lt;br&gt;E-value: 0.0&lt;br&gt;&lt;br&gt;&lt;b&gt;BlastP hit with LLPMBPKK_06914&lt;/b&gt;&lt;br&gt;Percentage identity: 60&lt;br&gt;Percentage coverage: 81&lt;br&gt;BLAST bit score: 1793&lt;br&gt;E-value: 0.0&lt;br&gt;&lt;br&gt;&lt;b&gt;BlastP hit with LLPMBPKK_06915&lt;/b&gt;&lt;br&gt;Percentage identity: 61&lt;br&gt;Percentage coverage: 49&lt;br&gt;BLAST bit score: 1830&lt;br&gt;E-value: 0.0&lt;br&gt;&lt;br&gt;&lt;b&gt;BlastP hit with LLPMBPKK_06916&lt;/b&gt;&lt;br&gt;Percentage identity: 47&lt;br&gt;Percentage coverage: 88&lt;br&gt;BLAST bit score: 68&lt;br&gt;E-value: 8.52e-15" locus_tag="AWH12668.1" class="clusterblast-orf" id="dummy-30_h30_7_22"  />
</g>
<g id="a30_0023"  >
<polygon points="365,90 371,90 376,85 371,80 365,80 365,90 " style="fill:white; stroke-width:1; stroke:black; " description="&lt;b&gt;AWH12667.1&lt;/b&gt;&lt;br&gt;RmpD1&lt;br&gt;Location: 60497 - 58854" locus_tag="AWH12667.1" class="clusterblast-orf" id="dummy-30_h30_7_23"  />
</g>
<g id="a30_0024"  >
<polygon points="376,90 395,90 400,85 395,80 376,80 376,90 " style="fill:#a515d8; stroke-width:1; stroke:black; " description="&lt;b&gt;AWH12666.1&lt;/b&gt;&lt;br&gt;RmpD2&lt;br&gt;Location: 58932 - 55405&lt;br&gt;&lt;br&gt;&lt;b&gt;BlastP hit with LLPMBPKK_06913&lt;/b&gt;&lt;br&gt;Percentage identity: 54&lt;br&gt;Percentage coverage: 60&lt;br&gt;BLAST bit score: 736&lt;br&gt;E-value: 1.79e-244&lt;br&gt;&lt;br&gt;&lt;b&gt;BlastP hit with LLPMBPKK_06914&lt;/b&gt;&lt;br&gt;Percentage identity: 47&lt;br&gt;Percentage coverage: 61&lt;br&gt;BLAST bit score: 886&lt;br&gt;E-value: 5.54e-294" locus_tag="AWH12666.1" class="clusterblast-orf" id="dummy-30_h30_7_24"  />
</g>
<g id="a30_0025"  >
<polygon points="400,90 416,90 421,85 416,80 400,80 400,90 " style="fill:#a515d8; stroke-width:1; stroke:black; " description="&lt;b&gt;AWH12665.1&lt;/b&gt;&lt;br&gt;RmpE1&lt;br&gt;Location: 55357 - 52256&lt;br&gt;&lt;br&gt;&lt;b&gt;BlastP hit with LLPMBPKK_06913&lt;/b&gt;&lt;br&gt;Percentage identity: 58&lt;br&gt;Percentage coverage: 73&lt;br&gt;BLAST bit score: 1015&lt;br&gt;E-value: 0.0&lt;br&gt;&lt;br&gt;&lt;b&gt;BlastP hit with LLPMBPKK_06914&lt;/b&gt;&lt;br&gt;Percentage identity: 71&lt;br&gt;Percentage coverage: 46&lt;br&gt;BLAST bit score: 1295&lt;br&gt;E-value: 0.0" locus_tag="AWH12665.1" class="clusterblast-orf" id="dummy-30_h30_7_25"  />
</g>
<g id="a30_0026"  >
<polygon points="421,90 465,90 470,85 465,80 421,80 421,90 " style="fill:#a515d8; stroke-width:1; stroke:black; " description="&lt;b&gt;AWH12664.1&lt;/b&gt;&lt;br&gt;RmpE2&lt;br&gt;Location: 52328 - 45168&lt;br&gt;&lt;br&gt;&lt;b&gt;BlastP hit with LLPMBPKK_06911&lt;/b&gt;&lt;br&gt;Percentage identity: 63&lt;br&gt;Percentage coverage: 47&lt;br&gt;BLAST bit score: 2737&lt;br&gt;E-value: 0.0&lt;br&gt;&lt;br&gt;&lt;b&gt;BlastP hit with LLPMBPKK_06912&lt;/b&gt;&lt;br&gt;Percentage identity: 63&lt;br&gt;Percentage coverage: 47&lt;br&gt;BLAST bit score: 2696&lt;br&gt;E-value: 0.0&lt;br&gt;&lt;br&gt;&lt;b&gt;BlastP hit with LLPMBPKK_06913&lt;/b&gt;&lt;br&gt;Percentage identity: 64&lt;br&gt;Percentage coverage: 97&lt;br&gt;BLAST bit score: 1571&lt;br&gt;E-value: 0.0&lt;br&gt;&lt;br&gt;&lt;b&gt;BlastP hit with LLPMBPKK_06914&lt;/b&gt;&lt;br&gt;Percentage identity: 60&lt;br&gt;Percentage coverage: 97&lt;br&gt;BLAST bit score: 2095&lt;br&gt;E-value: 0.0&lt;br&gt;&lt;br&gt;&lt;b&gt;BlastP hit with LLPMBPKK_06915&lt;/b&gt;&lt;br&gt;Percentage identity: 58&lt;br&gt;Percentage coverage: 71&lt;br&gt;BLAST bit score: 2460&lt;br&gt;E-value: 0.0&lt;br&gt;&lt;br&gt;&lt;b&gt;BlastP hit with LLPMBPKK_06916&lt;/b&gt;&lt;br&gt;Percentage identity: 55&lt;br&gt;Percentage coverage: 81&lt;br&gt;BLAST bit score: 81&lt;br&gt;E-value: 2.91e-19" locus_tag="AWH12664.1" class="clusterblast-orf" id="dummy-30_h30_7_26"  />
</g>
<g id="a30_0027"  >
<polygon points="470,90 470,90 475,85 470,80 470,80 470,90 " style="fill:#d85315; stroke-width:1; stroke:black; " description="&lt;b&gt;AWH12663.1&lt;/b&gt;&lt;br&gt;RmpF&lt;br&gt;Location: 45157 - 44375&lt;br&gt;&lt;br&gt;&lt;b&gt;BlastP hit with LLPMBPKK_06917&lt;/b&gt;&lt;br&gt;Percentage identity: 58&lt;br&gt;Percentage coverage: 98&lt;br&gt;BLAST bit score: 302&lt;br&gt;E-value: 1.66e-103" locus_tag="AWH12663.1" class="clusterblast-orf" id="dummy-30_h30_7_27"  />
</g>
<g id="a30_0028"  >
<polygon points="475,90 477,85 475,80 475,90 " style="fill:white; stroke-width:1; stroke:black; " description="&lt;b&gt;AWH12662.1&lt;/b&gt;&lt;br&gt;Rmp1&lt;br&gt;Location: 44354 - 44166" locus_tag="AWH12662.1" class="clusterblast-orf" id="dummy-30_h30_7_28"  />
</g>
<g id="a30_0029"  >
<polygon points="477,90 479,90 484,85 479,80 477,80 477,90 " style="fill:#157cd8; stroke-width:1; stroke:black; " description="&lt;b&gt;AWH12661.1&lt;/b&gt;&lt;br&gt;RmpG&lt;br&gt;Location: 44169 - 43114&lt;br&gt;&lt;br&gt;&lt;b&gt;BlastP hit with LLPMBPKK_06919&lt;/b&gt;&lt;br&gt;Percentage identity: 75&lt;br&gt;Percentage coverage: 97&lt;br&gt;BLAST bit score: 509&lt;br&gt;E-value: 2.05e-182" locus_tag="AWH12661.1" class="clusterblast-orf" id="dummy-30_h30_7_29"  />
</g>
<g id="a30_0030"  >
<polygon points="484,90 488,90 493,85 488,80 484,80 484,90 " style="fill:#d815ce; stroke-width:1; stroke:black; " description="&lt;b&gt;AWH12660.1&lt;/b&gt;&lt;br&gt;RmpH&lt;br&gt;Location: 43117 - 41786&lt;br&gt;&lt;br&gt;&lt;b&gt;BlastP hit with LLPMBPKK_06920&lt;/b&gt;&lt;br&gt;Percentage identity: 63&lt;br&gt;Percentage coverage: 93&lt;br&gt;BLAST bit score: 533&lt;br&gt;E-value: 1.57e-188" locus_tag="AWH12660.1" class="clusterblast-orf" id="dummy-30_h30_7_30"  />
</g>
<g id="a30_0031"  >
<polygon points="493,90 494,90 499,85 494,80 493,80 493,90 " style="fill:#d89015; stroke-width:1; stroke:black; " description="&lt;b&gt;AWH12659.1&lt;/b&gt;&lt;br&gt;RmpI&lt;br&gt;Location: 41776 - 40982&lt;br&gt;&lt;br&gt;&lt;b&gt;BlastP hit with LLPMBPKK_06921&lt;/b&gt;&lt;br&gt;Percentage identity: 73&lt;br&gt;Percentage coverage: 93&lt;br&gt;BLAST bit score: 369&lt;br&gt;E-value: 1.08e-129" locus_tag="AWH12659.1" class="clusterblast-orf" id="dummy-30_h30_7_31"  />
</g>
<g id="a30_0032"  >
<polygon points="499,90 502,90 507,85 502,80 499,80 499,90 " style="fill:#15d83e; stroke-width:1; stroke:black; " description="&lt;b&gt;AWH12658.1&lt;/b&gt;&lt;br&gt;RmpK&lt;br&gt;Location: 40890 - 39724&lt;br&gt;&lt;br&gt;&lt;b&gt;BlastP hit with LLPMBPKK_06922&lt;/b&gt;&lt;br&gt;Percentage identity: 77&lt;br&gt;Percentage coverage: 100&lt;br&gt;BLAST bit score: 601&lt;br&gt;E-value: 9.95e-218" locus_tag="AWH12658.1" class="clusterblast-orf" id="dummy-30_h30_7_32"  />
</g>
<g id="a30_0033"  >
<polygon points="507,90 510,90 515,85 510,80 507,80 507,90 " style="fill:#153ed8; stroke-width:1; stroke:black; " description="&lt;b&gt;AWH12657.1&lt;/b&gt;&lt;br&gt;RmpL&lt;br&gt;Location: 39727 - 38657&lt;br&gt;&lt;br&gt;&lt;b&gt;BlastP hit with LLPMBPKK_06923&lt;/b&gt;&lt;br&gt;Percentage identity: 66&lt;br&gt;Percentage coverage: 99&lt;br&gt;BLAST bit score: 461&lt;br&gt;E-value: 3.15e-163" locus_tag="AWH12657.1" class="clusterblast-orf" id="dummy-30_h30_7_33"  />
</g>
<g id="a30_0034"  >
<polygon points="515,90 519,85 515,80 515,90 " style="fill:#d81590; stroke-width:1; stroke:black; " description="&lt;b&gt;AWH12656.1&lt;/b&gt;&lt;br&gt;RmpM&lt;br&gt;Location: 38644 - 37946&lt;br&gt;&lt;br&gt;&lt;b&gt;BlastP hit with LLPMBPKK_06924&lt;/b&gt;&lt;br&gt;Percentage identity: 80&lt;br&gt;Percentage coverage: 100&lt;br&gt;BLAST bit score: 350&lt;br&gt;E-value: 2.11e-123" locus_tag="AWH12656.1" class="clusterblast-orf" id="dummy-30_h30_7_34"  />
</g>
<g id="a30_0035"  >
<polygon points="519,90 521,90 526,85 521,80 519,80 519,90 " style="fill:#d8ce15; stroke-width:1; stroke:black; " description="&lt;b&gt;AWH12655.1&lt;/b&gt;&lt;br&gt;RmpN&lt;br&gt;Location: 37940 - 37038&lt;br&gt;&lt;br&gt;&lt;b&gt;BlastP hit with LLPMBPKK_06925&lt;/b&gt;&lt;br&gt;Percentage identity: 62&lt;br&gt;Percentage coverage: 94&lt;br&gt;BLAST bit score: 337&lt;br&gt;E-value: 3.95e-116" locus_tag="AWH12655.1" class="clusterblast-orf" id="dummy-30_h30_7_35"  />
</g>
<g id="a30_0036"  >
<polygon points="526,90 526,90 531,85 526,80 526,80 526,90 " style="fill:white; stroke-width:1; stroke:black; " description="&lt;b&gt;AWH12654.1&lt;/b&gt;&lt;br&gt;RmpO&lt;br&gt;Location: 36986 - 36222" locus_tag="AWH12654.1" class="clusterblast-orf" id="dummy-30_h30_7_36"  />
</g>
<g id="a30_0037"  >
<polygon points="532,90 533,90 538,85 533,80 532,80 532,90 " style="fill:white; stroke-width:1; stroke:black; " description="&lt;b&gt;AWH12653.1&lt;/b&gt;&lt;br&gt;Rmp2&lt;br&gt;Location: 36136 - 35204" locus_tag="AWH12653.1" class="clusterblast-orf" id="dummy-30_h30_7_37"  />
</g>
<g id="a30_0038"  >
<polygon points="540,90 545,90 550,85 545,80 540,80 540,90 " style="fill:white; stroke-width:1; stroke:black; " description="&lt;b&gt;AWH12652.1&lt;/b&gt;&lt;br&gt;RmpP&lt;br&gt;Location: 34984 - 33461" locus_tag="AWH12652.1" class="clusterblast-orf" id="dummy-30_h30_7_38"  />
</g>
<g id="a30_0039"  >
<polygon points="551,90 551,90 556,85 551,80 551,80 551,90 " style="fill:white; stroke-width:1; stroke:black; " description="&lt;b&gt;AWH12651.1&lt;/b&gt;&lt;br&gt;RmpQ&lt;br&gt;Location: 33385 - 32660" locus_tag="AWH12651.1" class="clusterblast-orf" id="dummy-30_h30_7_39"  />
</g>
<g id="a30_0040"  >
<polygon points="558,85 562,80 562,90 558,85 " style="fill:white; stroke-width:1; stroke:black; " description="&lt;b&gt;AWH12650.1&lt;/b&gt;&lt;br&gt;Rmp3&lt;br&gt;Location: 32292 - 31795" locus_tag="AWH12650.1" class="clusterblast-orf" id="dummy-30_h30_7_40"  />
</g>
<g id="a30_0041"  >
<polygon points="562,85 567,80 570,80 570,90 567,90 562,85 " style="fill:white; stroke-width:1; stroke:black; " description="&lt;b&gt;AWH12649.1&lt;/b&gt;&lt;br&gt;Rmp4&lt;br&gt;Location: 31715 - 30504" locus_tag="AWH12649.1" class="clusterblast-orf" id="dummy-30_h30_7_41"  />
</g>
<g id="a30_0042"  >
<polygon points="571,85 576,80 579,80 579,90 576,90 571,85 " style="fill:white; stroke-width:1; stroke:black; " description="&lt;b&gt;AWH12648.1&lt;/b&gt;&lt;br&gt;Rmp5&lt;br&gt;Location: 30477 - 29212" locus_tag="AWH12648.1" class="clusterblast-orf" id="dummy-30_h30_7_42"  />
</g>
<g id="a30_0043"  >
<polygon points="580,85 585,80 589,80 589,90 585,90 580,85 " style="fill:white; stroke-width:1; stroke:black; " description="&lt;b&gt;AWH12647.1&lt;/b&gt;&lt;br&gt;Rmp6&lt;br&gt;Location: 29155 - 27848" locus_tag="AWH12647.1" class="clusterblast-orf" id="dummy-30_h30_7_43"  />
</g>
<g id="a30_0044"  >
<polygon points="590,90 593,90 598,85 593,80 590,80 590,90 " style="fill:white; stroke-width:1; stroke:black; " description="&lt;b&gt;AWH12646.1&lt;/b&gt;&lt;br&gt;Rmp7&lt;br&gt;Location: 27710 - 26499" locus_tag="AWH12646.1" class="clusterblast-orf" id="dummy-30_h30_7_44"  />
</g>
<g id="a30_0045"  >
<polygon points="598,90 602,85 598,80 598,90 " style="fill:white; stroke-width:1; stroke:black; " description="&lt;b&gt;AWH12645.1&lt;/b&gt;&lt;br&gt;Rmp8&lt;br&gt;Location: 26492 - 25845" locus_tag="AWH12645.1" class="clusterblast-orf" id="dummy-30_h30_7_45"  />
</g>
<g id="a30_0046"  >
<polygon points="603,85 608,80 612,80 612,90 608,90 603,85 " style="fill:white; stroke-width:1; stroke:black; " description="&lt;b&gt;AWH12644.1&lt;/b&gt;&lt;br&gt;Rmp9&lt;br&gt;Location: 25787 - 24483" locus_tag="AWH12644.1" class="clusterblast-orf" id="dummy-30_h30_7_46"  />
</g>
<g id="a30_0047"  >
<polygon points="612,85 617,80 619,80 619,90 617,90 612,85 " style="fill:white; stroke-width:1; stroke:black; " description="&lt;b&gt;AWH12643.1&lt;/b&gt;&lt;br&gt;Rmp10&lt;br&gt;Location: 24464 - 23472" locus_tag="AWH12643.1" class="clusterblast-orf" id="dummy-30_h30_7_47"  />
</g>
<g id="a30_0048"  >
<polygon points="620,90 621,90 626,85 621,80 620,80 620,90 " style="fill:white; stroke-width:1; stroke:black; " description="&lt;b&gt;AWH12642.1&lt;/b&gt;&lt;br&gt;Rmp11&lt;br&gt;Location: 23337 - 22453" locus_tag="AWH12642.1" class="clusterblast-orf" id="dummy-30_h30_7_48"  />
</g>
<g id="a30_0049"  >
<polygon points="626,90 628,90 633,85 628,80 626,80 626,90 " style="fill:white; stroke-width:1; stroke:black; " description="&lt;b&gt;AWH12641.1&lt;/b&gt;&lt;br&gt;Rmp17&lt;br&gt;Location: 22426 - 21356" locus_tag="AWH12641.1" class="clusterblast-orf" id="dummy-30_h30_7_49"  />
</g>
<g id="a30_0050"  >
<polygon points="634,90 638,90 643,85 638,80 634,80 634,90 " style="fill:white; stroke-width:1; stroke:black; " description="&lt;b&gt;AWH12640.1&lt;/b&gt;&lt;br&gt;Rmp18&lt;br&gt;Location: 21274 - 19853" locus_tag="AWH12640.1" class="clusterblast-orf" id="dummy-30_h30_7_50"  />
</g>
<g id="a30_0051"  >
<polygon points="644,85 649,80 654,80 654,90 649,90 644,85 " style="fill:#15d87c; stroke-width:1; stroke:black; " description="&lt;b&gt;AWH12639.1&lt;/b&gt;&lt;br&gt;Rmp19&lt;br&gt;Location: 19794 - 18292&lt;br&gt;&lt;br&gt;&lt;b&gt;BlastP hit with LLPMBPKK_06926&lt;/b&gt;&lt;br&gt;Percentage identity: 69&lt;br&gt;Percentage coverage: 96&lt;br&gt;BLAST bit score: 694&lt;br&gt;E-value: 5.98e-250" locus_tag="AWH12639.1" class="clusterblast-orf" id="dummy-30_h30_7_51"  />
</g>
<g id="a30_0052"  >
<polygon points="654,85 659,80 663,80 663,90 659,90 654,85 " style="fill:white; stroke-width:1; stroke:black; " description="&lt;b&gt;AWH12638.1&lt;/b&gt;&lt;br&gt;Rmp20&lt;br&gt;Location: 18284 - 17064" locus_tag="AWH12638.1" class="clusterblast-orf" id="dummy-30_h30_7_52"  />
</g>
<g id="a30_0053"  >
<polygon points="663,85 668,80 668,80 668,90 668,90 663,85 " style="fill:#2a15d8; stroke-width:1; stroke:black; " description="&lt;b&gt;AWH12637.1&lt;/b&gt;&lt;br&gt;RmpR&lt;br&gt;Location: 17067 - 16297&lt;br&gt;&lt;br&gt;&lt;b&gt;BlastP hit with LLPMBPKK_06927&lt;/b&gt;&lt;br&gt;Percentage identity: 63&lt;br&gt;Percentage coverage: 94&lt;br&gt;BLAST bit score: 328&lt;br&gt;E-value: 6.3e-114" locus_tag="AWH12637.1" class="clusterblast-orf" id="dummy-30_h30_7_53"  />
</g>
<g id="a30_0054"  >
<polygon points="668,85 673,80 677,80 677,90 673,90 668,85 " style="fill:white; stroke-width:1; stroke:black; " description="&lt;b&gt;AWH12636.1&lt;/b&gt;&lt;br&gt;Rmp13&lt;br&gt;Location: 16276 - 15002" locus_tag="AWH12636.1" class="clusterblast-orf" id="dummy-30_h30_7_54"  />
</g>
<g id="a30_0055"  >
<polygon points="678,90 679,90 684,85 679,80 678,80 678,90 " style="fill:white; stroke-width:1; stroke:black; " description="&lt;b&gt;AWH12635.1&lt;/b&gt;&lt;br&gt;Rmp14&lt;br&gt;Location: 14743 - 13925" locus_tag="AWH12635.1" class="clusterblast-orf" id="dummy-30_h30_7_55"  />
</g>
<g id="a30_0056"  >
<polygon points="684,90 684,90 689,85 684,80 684,80 684,90 " style="fill:white; stroke-width:1; stroke:black; " description="&lt;b&gt;AWH12634.1&lt;/b&gt;&lt;br&gt;Rmp15A&lt;br&gt;Location: 13910 - 13218" locus_tag="AWH12634.1" class="clusterblast-orf" id="dummy-30_h30_7_56"  />
</g>
<g id="a30_0057"  >
<polygon points="689,90 690,90 695,85 690,80 689,80 689,90 " style="fill:white; stroke-width:1; stroke:black; " description="&lt;b&gt;AWH12633.1&lt;/b&gt;&lt;br&gt;RmpB&lt;br&gt;Location: 13221 - 12310" locus_tag="AWH12633.1" class="clusterblast-orf" id="dummy-30_h30_7_57"  />
</g>
<g id="a30_0058"  >
<polygon points="697,85 702,80 705,80 705,90 702,90 697,85 " style="fill:white; stroke-width:1; stroke:black; " description="&lt;b&gt;AWH12632.1&lt;/b&gt;&lt;br&gt;Rmp16&lt;br&gt;Location: 12058 - 10796" locus_tag="AWH12632.1" class="clusterblast-orf" id="dummy-30_h30_7_58"  />
</g>
<g id="a30_0059"  >
<polygon points="707,90 710,85 707,80 707,90 " style="fill:#a5d815; stroke-width:1; stroke:black; " description="&lt;b&gt;AWH12631.1&lt;/b&gt;&lt;br&gt;RmpJ&lt;br&gt;Location: 10608 - 10153&lt;br&gt;&lt;br&gt;&lt;b&gt;BlastP hit with LLPMBPKK_06929&lt;/b&gt;&lt;br&gt;Percentage identity: 74&lt;br&gt;Percentage coverage: 101&lt;br&gt;BLAST bit score: 226&lt;br&gt;E-value: 2.45e-77" locus_tag="AWH12631.1" class="clusterblast-orf" id="dummy-30_h30_7_59"  />
</g>
<g id="a30_0060"  >
<polygon points="714,90 718,90 723,85 718,80 714,80 714,90 " style="fill:white; stroke-width:1; stroke:black; " description="&lt;b&gt;AWH12630.1&lt;/b&gt;&lt;br&gt;Rmp36&lt;br&gt;Location: 9556 - 8303" locus_tag="AWH12630.1" class="clusterblast-orf" id="dummy-30_h30_7_60"  />
</g>
<g id="a30_0061"  >
<polygon points="728,90 747,90 752,85 747,80 728,80 728,90 " style="fill:white; stroke-width:1; stroke:black; " description="&lt;b&gt;AWH12629.1&lt;/b&gt;&lt;br&gt;RmpB&lt;br&gt;Location: 7509 - 4006" locus_tag="AWH12629.1" class="clusterblast-orf" id="dummy-30_h30_7_61"  />
</g>
<g id="a30_0062"  >
<polygon points="753,90 775,90 780,85 775,80 753,80 753,90 " style="fill:white; stroke-width:1; stroke:black; " description="&lt;b&gt;AWH12628.1&lt;/b&gt;&lt;br&gt;RmpC&lt;br&gt;Location: 3912 - 1" locus_tag="AWH12628.1" class="clusterblast-orf" id="dummy-30_h30_7_62"  />
</g>
</svg>
