<svg xmlns="http://www.w3.org/2000/svg" xmlns:xlink="http://www.w3.org/1999/xlink" version="1.1" x="0" y="0" height="230" width="800" viewBox="0 0 800 230" preserveAspectRatio="none"  >
<g label="Query sequence" class="clusterblast-cluster"  >
<text x="5" y="20" class="clusterblast-acc"  >
Query sequence</text>
<line x1="10" y1="35" x2="778.0" y2="35" style="stroke-width:1; stroke:grey; "  />
<polygon points="0,35 5,30 29,30 29,40 5,40 0,35 " style="fill:white; stroke-width:1; stroke:black; " description="&lt;b&gt;LLPMBPKK_06758&lt;/b&gt;&lt;br&gt;cation transporter&lt;br&gt;Location: 7791080 - 7792022" locus_tag="LLPMBPKK_06758" class="clusterblast-orf" id="dummy-29_q0_0_all"  />
<polygon points="35,35 40,30 65,30 65,40 40,40 35,35 " style="fill:white; stroke-width:1; stroke:black; " description="&lt;b&gt;LLPMBPKK_06759&lt;/b&gt;&lt;br&gt;UDP-glucose 4-epimerase GalE&lt;br&gt;Location: 7792229 - 7793201" locus_tag="LLPMBPKK_06759" class="clusterblast-orf" id="dummy-29_q1_0_all"  />
<polygon points="73,40 123,40 128,35 123,30 73,30 73,40 " style="fill:white; stroke-width:1; stroke:black; " description="&lt;b&gt;LLPMBPKK_06760&lt;/b&gt;&lt;br&gt;CDP-alcohol phosphatidyltransferase familyprotein&lt;br&gt;Location: 7793467 - 7795288" locus_tag="LLPMBPKK_06760" class="clusterblast-orf" id="dummy-29_q2_0_all"  />
<polygon points="128,40 146,40 151,35 146,30 128,30 128,40 " style="fill:#d81515; stroke-width:1; stroke:black; " description="&lt;b&gt;LLPMBPKK_06761&lt;/b&gt;&lt;br&gt;phosphocholine cytidylyltransferase familyprotein&lt;br&gt;Location: 7795284 - 7796037" locus_tag="LLPMBPKK_06761" class="clusterblast-orf" id="dummy-29_q3_0_all"  />
<polygon points="151,40 178,40 183,35 178,30 151,30 151,40 " style="fill:#4dd815; stroke-width:1; stroke:black; " description="&lt;b&gt;LLPMBPKK_06762&lt;/b&gt;&lt;br&gt;iron-containing alcohol dehydrogenase familyprotein&lt;br&gt;Location: 7796024 - 7797086" locus_tag="LLPMBPKK_06762" class="clusterblast-orf" id="dummy-29_q4_0_all"  />
<polygon points="185,40 201,40 206,35 201,30 185,30 185,40 " style="fill:white; stroke-width:1; stroke:black; " description="&lt;b&gt;LLPMBPKK_06763&lt;/b&gt;&lt;br&gt;transferase&lt;br&gt;Location: 7797159 - 7797843" locus_tag="LLPMBPKK_06763" class="clusterblast-orf" id="dummy-29_q5_0_all"  />
<polygon points="207,40 228,40 233,35 228,30 207,30 207,40 " style="fill:white; stroke-width:1; stroke:black; " description="&lt;b&gt;LLPMBPKK_06764&lt;/b&gt;&lt;br&gt;glycosyltransferase family 2 protein&lt;br&gt;Location: 7797851 - 7798724" locus_tag="LLPMBPKK_06764" class="clusterblast-orf" id="dummy-29_q6_0_all"  />
<polygon points="236,40 259,40 264,35 259,30 236,30 236,40 " style="fill:white; stroke-width:1; stroke:black; " description="&lt;b&gt;LLPMBPKK_06765&lt;/b&gt;&lt;br&gt;ABC transporter&lt;br&gt;Location: 7798813 - 7799743" locus_tag="LLPMBPKK_06765" class="clusterblast-orf" id="dummy-29_q7_0_all"  />
<polygon points="264,40 283,40 288,35 283,30 264,30 264,40 " style="fill:white; stroke-width:1; stroke:black; " description="&lt;b&gt;LLPMBPKK_06766&lt;/b&gt;&lt;br&gt;ABC transporter ATP-binding protein&lt;br&gt;Location: 7799735 - 7800524" locus_tag="LLPMBPKK_06766" class="clusterblast-orf" id="dummy-29_q8_0_all"  />
<polygon points="299,40 322,40 327,35 322,30 299,30 299,40 " style="fill:#1585d8; stroke-width:1; stroke:black; " description="&lt;b&gt;LLPMBPKK_06767&lt;/b&gt;&lt;br&gt;squalene synthase HpnC&lt;br&gt;Location: 7800884 - 7801781" locus_tag="LLPMBPKK_06767" class="clusterblast-orf" id="dummy-29_q9_0_all"  />
<polygon points="327,40 351,40 356,35 351,30 327,30 327,40 " style="fill:#a115d8; stroke-width:1; stroke:black; " description="&lt;b&gt;LLPMBPKK_06768&lt;/b&gt;&lt;br&gt;presqualene diphosphate synthase HpnD&lt;br&gt;Location: 7801777 - 7802740" locus_tag="LLPMBPKK_06768" class="clusterblast-orf" id="dummy-29_q10_0_all"  />
<polygon points="363,40 402,40 407,35 402,30 363,30 363,40 " style="fill:#d86915; stroke-width:1; stroke:black; " description="&lt;b&gt;LLPMBPKK_06769&lt;/b&gt;&lt;br&gt;FAD-dependent oxidoreductase&lt;br&gt;Location: 7802978 - 7804406" locus_tag="LLPMBPKK_06769" class="clusterblast-orf" id="dummy-29_q11_0_all"  />
<polygon points="407,40 436,40 441,35 436,30 407,30 407,40 " style="fill:#15d831; stroke-width:1; stroke:black; " description="&lt;b&gt;LLPMBPKK_06770&lt;/b&gt;&lt;br&gt;polyprenyl synthetase family protein&lt;br&gt;Location: 7804405 - 7805539" locus_tag="LLPMBPKK_06770" class="clusterblast-orf" id="dummy-29_q12_0_all"  />
<polygon points="445,40 502,40 507,35 502,30 445,30 445,40 " style="fill:#1531d8; stroke-width:1; stroke:black; " description="&lt;b&gt;LLPMBPKK_06771&lt;/b&gt;&lt;br&gt;squalene--hopene cyclase&lt;br&gt;Location: 7805655 - 7807686" locus_tag="LLPMBPKK_06771" class="clusterblast-orf" id="dummy-29_q13_0_all"  />
<polygon points="507,40 522,40 527,35 522,30 507,30 507,40 " style="fill:#d815bc; stroke-width:1; stroke:black; " description="&lt;b&gt;LLPMBPKK_06772&lt;/b&gt;&lt;br&gt;lipoprotein&lt;br&gt;Location: 7807682 - 7808324" locus_tag="LLPMBPKK_06772" class="clusterblast-orf" id="dummy-29_q14_0_all"  />
<polygon points="527,40 553,40 558,35 553,30 527,30 527,40 " style="fill:#d8bc15; stroke-width:1; stroke:black; " description="&lt;b&gt;LLPMBPKK_06773&lt;/b&gt;&lt;br&gt;adenosyl-hopene transferase HpnH&lt;br&gt;Location: 7808329 - 7809352" locus_tag="LLPMBPKK_06773" class="clusterblast-orf" id="dummy-29_q15_0_all"  />
<polygon points="558,40 588,40 593,35 588,30 558,30 558,40 " style="fill:#15d885; stroke-width:1; stroke:black; " description="&lt;b&gt;LLPMBPKK_06774&lt;/b&gt;&lt;br&gt;flavodoxin-dependent (E)-4-hydroxy-3-methylbut-2-enyl-diphosphate synthase&lt;br&gt;Location: 7809356 - 7810484" locus_tag="LLPMBPKK_06774" class="clusterblast-orf" id="dummy-29_q16_0_all"  />
<polygon points="594,40 647,40 652,35 647,30 594,30 594,40 " style="fill:#4d15d8; stroke-width:1; stroke:black; " description="&lt;b&gt;LLPMBPKK_06775&lt;/b&gt;&lt;br&gt;1-deoxy-D-xylulose-5-phosphate synthase&lt;br&gt;Location: 7810521 - 7812420" locus_tag="LLPMBPKK_06775" class="clusterblast-orf" id="dummy-29_q17_0_all"  />
<polygon points="652,40 689,40 694,35 689,30 652,30 652,40 " style="fill:#d81569; stroke-width:1; stroke:black; " description="&lt;b&gt;LLPMBPKK_06776&lt;/b&gt;&lt;br&gt;aspartate aminotransferase family protein&lt;br&gt;Location: 7812416 - 7813802" locus_tag="LLPMBPKK_06776" class="clusterblast-orf" id="dummy-29_q18_0_all"  />
<polygon points="694,35 699,30 703,30 703,40 699,40 694,35 " style="fill:white; stroke-width:1; stroke:black; " description="&lt;b&gt;LLPMBPKK_06777&lt;/b&gt;&lt;br&gt;hypothetical protein&lt;br&gt;Location: 7813812 - 7814088" locus_tag="LLPMBPKK_06777" class="clusterblast-orf" id="dummy-29_q19_0_all"  />
<polygon points="707,40 721,40 726,35 721,30 707,30 707,40 " style="fill:#a1d815; stroke-width:1; stroke:black; " description="&lt;b&gt;LLPMBPKK_06778&lt;/b&gt;&lt;br&gt;XRE family transcriptional regulator&lt;br&gt;Location: 7814226 - 7814856" locus_tag="LLPMBPKK_06778" class="clusterblast-orf" id="dummy-29_q20_0_all"  />
<polygon points="726,40 730,35 726,30 726,40 " style="fill:#15d8d8; stroke-width:1; stroke:black; " description="&lt;b&gt;LLPMBPKK_06779&lt;/b&gt;&lt;br&gt;small hydrophobic hypothetical protein&lt;br&gt;Location: 7814852 - 7814975" locus_tag="LLPMBPKK_06779" class="clusterblast-orf" id="dummy-29_q21_0_all"  />
<polygon points="731,40 750,40 755,35 750,30 731,30 731,40 " style="fill:white; stroke-width:1; stroke:black; " description="&lt;b&gt;LLPMBPKK_06780&lt;/b&gt;&lt;br&gt;hypothetical protein&lt;br&gt;Location: 7815004 - 7815805" locus_tag="LLPMBPKK_06780" class="clusterblast-orf" id="dummy-29_q22_0_all"  />
<polygon points="755,35 760,30 780,30 780,40 760,40 755,35 " style="fill:white; stroke-width:1; stroke:black; " description="&lt;b&gt;LLPMBPKK_06781&lt;/b&gt;&lt;br&gt;tyrosine-protein phosphatase&lt;br&gt;Location: 7815818 - 7816616" locus_tag="LLPMBPKK_06781" class="clusterblast-orf" id="dummy-29_q23_0_all"  />
</g>
<g label="BGC0000665" description="BGC0000665_c1: xiamycin (20% of genes show similarity), Terpene+Alkaloid" class="clusterblast-cluster"  >
<text x="5" y="70" class="clusterblast-acc"  >
<a xlink:href="https://mibig.secondarymetabolites.org/go/BGC0000665/1" target="_blank">BGC0000665</a>:                                                                         xiamycin (20% of genes show similarity), Terpene+Alkaloid</text>
<line x1="10" y1="85" x2="778.0" y2="85" style="stroke-width:1; stroke:grey; "  />
</g>
<g id="a29_000"  >
<polygon points="65,90 90,90 95,85 90,80 65,80 65,90 " style="fill:white; stroke-width:1; stroke:black; " description="&lt;b&gt;CCH63727.1&lt;/b&gt;&lt;br&gt;XiaA protein&lt;br&gt;Location: 1 - 1002" locus_tag="CCH63727.1" class="clusterblast-orf" id="dummy-29_h29_2_0"  />
</g>
<g id="a29_001"  >
<polygon points="96,90 146,90 151,85 146,80 96,80 96,90 " style="fill:#4d15d8; stroke-width:1; stroke:black; " description="&lt;b&gt;CCH63728.1&lt;/b&gt;&lt;br&gt;XiaB protein&lt;br&gt;Location: 1015 - 2832&lt;br&gt;&lt;br&gt;&lt;b&gt;BlastP hit with LLPMBPKK_06775&lt;/b&gt;&lt;br&gt;Percentage identity: 58&lt;br&gt;Percentage coverage: 97&lt;br&gt;BLAST bit score: 666&lt;br&gt;E-value: 5.61e-236" locus_tag="CCH63728.1" class="clusterblast-orf" id="dummy-29_h29_2_1"  />
</g>
<g id="a29_002"  >
<polygon points="151,90 181,90 186,85 181,80 151,80 151,90 " style="fill:#15d885; stroke-width:1; stroke:black; " description="&lt;b&gt;CCH63729.1&lt;/b&gt;&lt;br&gt;XiaC protein&lt;br&gt;Location: 2829 - 3980&lt;br&gt;&lt;br&gt;&lt;b&gt;BlastP hit with LLPMBPKK_06774&lt;/b&gt;&lt;br&gt;Percentage identity: 84&lt;br&gt;Percentage coverage: 98&lt;br&gt;BLAST bit score: 599&lt;br&gt;E-value: 4.4e-217" locus_tag="CCH63729.1" class="clusterblast-orf" id="dummy-29_h29_2_2"  />
</g>
<g id="a29_003"  >
<polygon points="200,90 217,90 222,85 217,80 200,80 200,90 " style="fill:white; stroke-width:1; stroke:black; " description="&lt;b&gt;CCH63730.1&lt;/b&gt;&lt;br&gt;XiaD protein&lt;br&gt;Location: 4412 - 5134" locus_tag="CCH63730.1" class="clusterblast-orf" id="dummy-29_h29_2_3"  />
</g>
<g id="a29_004"  >
<polygon points="221,85 226,80 244,80 244,90 226,90 221,85 " style="fill:white; stroke-width:1; stroke:black; " description="&lt;b&gt;CCH63731.1&lt;/b&gt;&lt;br&gt;XiaE protein&lt;br&gt;Location: 5127 - 5879" locus_tag="CCH63731.1" class="clusterblast-orf" id="dummy-29_h29_2_4"  />
</g>
<g id="a29_005"  >
<polygon points="246,85 251,80 283,80 283,90 251,90 246,85 " style="fill:white; stroke-width:1; stroke:black; " description="&lt;b&gt;CCH63732.1&lt;/b&gt;&lt;br&gt;XiaF protein&lt;br&gt;Location: 5946 - 7145" locus_tag="CCH63732.1" class="clusterblast-orf" id="dummy-29_h29_2_5"  />
</g>
<g id="a29_006"  >
<polygon points="283,85 288,80 295,80 295,90 288,90 283,85 " style="fill:white; stroke-width:1; stroke:black; " description="&lt;b&gt;CCH63733.1&lt;/b&gt;&lt;br&gt;XiaG protein&lt;br&gt;Location: 7142 - 7531" locus_tag="CCH63733.1" class="clusterblast-orf" id="dummy-29_h29_2_6"  />
</g>
<g id="a29_007"  >
<polygon points="295,85 300,80 350,80 350,90 300,90 295,85 " style="fill:white; stroke-width:1; stroke:black; " description="&lt;b&gt;CCH63734.1&lt;/b&gt;&lt;br&gt;XiaH protein&lt;br&gt;Location: 7534 - 9327" locus_tag="CCH63734.1" class="clusterblast-orf" id="dummy-29_h29_2_7"  />
</g>
<g id="a29_008"  >
<polygon points="350,85 355,80 357,80 357,90 355,90 350,85 " style="fill:white; stroke-width:1; stroke:black; " description="&lt;b&gt;CCH63735.1&lt;/b&gt;&lt;br&gt;Indole oxygenase &lt;br&gt;Location: 9324 - 9557" locus_tag="CCH63735.1" class="clusterblast-orf" id="dummy-29_h29_2_8"  />
</g>
<g id="a29_009"  >
<polygon points="358,85 363,80 393,80 393,90 363,90 358,85 " style="fill:white; stroke-width:1; stroke:black; " description="&lt;b&gt;CCH63736.1&lt;/b&gt;&lt;br&gt;XiaJ protein&lt;br&gt;Location: 9583 - 10752" locus_tag="CCH63736.1" class="clusterblast-orf" id="dummy-29_h29_2_9"  />
</g>
<g id="a29_0010"  >
<polygon points="398,85 403,80 432,80 432,90 403,90 398,85 " style="fill:#15d831; stroke-width:1; stroke:black; " description="&lt;b&gt;CCH63737.1&lt;/b&gt;&lt;br&gt;XiaK protein&lt;br&gt;Location: 10906 - 12036&lt;br&gt;&lt;br&gt;&lt;b&gt;BlastP hit with LLPMBPKK_06770&lt;/b&gt;&lt;br&gt;Percentage identity: 52&lt;br&gt;Percentage coverage: 94&lt;br&gt;BLAST bit score: 304&lt;br&gt;E-value: 6.52e-101" locus_tag="CCH63737.1" class="clusterblast-orf" id="dummy-29_h29_2_10"  />
</g>
<g id="a29_0011"  >
<polygon points="433,85 438,80 499,80 499,90 438,90 433,85 " style="fill:white; stroke-width:1; stroke:black; " description="&lt;b&gt;CCH63738.1&lt;/b&gt;&lt;br&gt;XiaL protein&lt;br&gt;Location: 12059 - 14227" locus_tag="CCH63738.1" class="clusterblast-orf" id="dummy-29_h29_2_11"  />
</g>
<g id="a29_0012"  >
<polygon points="500,85 505,80 531,80 531,90 505,90 500,85 " style="fill:white; stroke-width:1; stroke:black; " description="&lt;b&gt;CCH63739.1&lt;/b&gt;&lt;br&gt;Cytochrome P450&lt;br&gt;Location: 14256 - 15263" locus_tag="CCH63739.1" class="clusterblast-orf" id="dummy-29_h29_2_12"  />
</g>
<g id="a29_0013"  >
<polygon points="534,85 539,80 624,80 624,90 539,90 534,85 " style="fill:white; stroke-width:1; stroke:black; " description="&lt;b&gt;CCH63740.1&lt;/b&gt;&lt;br&gt;XiaN protein&lt;br&gt;Location: 15358 - 18309" locus_tag="CCH63740.1" class="clusterblast-orf" id="dummy-29_h29_2_13"  />
</g>
<g id="a29_0014"  >
<polygon points="629,90 709,90 714,85 709,80 629,80 629,90 " style="fill:white; stroke-width:1; stroke:black; " description="&lt;b&gt;CCH63741.1&lt;/b&gt;&lt;br&gt;XiaO protein&lt;br&gt;Location: 18482 - 21259" locus_tag="CCH63741.1" class="clusterblast-orf" id="dummy-29_h29_2_14"  />
</g>
</svg>
