<svg xmlns="http://www.w3.org/2000/svg" xmlns:xlink="http://www.w3.org/1999/xlink" version="1.1" x="0" y="0" height="230" width="800" viewBox="0 0 800 230" preserveAspectRatio="none"  >
<g label="Query sequence" class="clusterblast-cluster"  >
<text x="5" y="20" class="clusterblast-acc"  >
Query sequence</text>
<line x1="10" y1="35" x2="778.0" y2="35" style="stroke-width:1; stroke:grey; "  />
<polygon points="11,35 16,30 63,30 63,40 16,40 11,35 " style="fill:white; stroke-width:1; stroke:black; " description="&lt;b&gt;LLPMBPKK_05989&lt;/b&gt;&lt;br&gt;ATP-dependent RNA helicase RhlB&lt;br&gt;Location: 6863825 - 6869177" locus_tag="LLPMBPKK_05989" class="clusterblast-orf" id="dummy-22_q0_0_all"  />
<polygon points="63,35 68,30 73,30 73,40 68,40 63,35 " style="fill:white; stroke-width:1; stroke:black; " description="&lt;b&gt;LLPMBPKK_05990&lt;/b&gt;&lt;br&gt;serine/threonine protein kinase&lt;br&gt;Location: 6869173 - 6870160" locus_tag="LLPMBPKK_05990" class="clusterblast-orf" id="dummy-22_q1_0_all"  />
<polygon points="77,40 85,40 90,35 85,30 77,30 77,40 " style="fill:white; stroke-width:1; stroke:black; " description="&lt;b&gt;LLPMBPKK_05991&lt;/b&gt;&lt;br&gt;transmembrane transport protein&lt;br&gt;Location: 6870631 - 6871927" locus_tag="LLPMBPKK_05991" class="clusterblast-orf" id="dummy-22_q2_0_all"  />
<polygon points="91,40 95,40 100,35 95,30 91,30 91,40 " style="fill:white; stroke-width:1; stroke:black; " description="&lt;b&gt;LLPMBPKK_05992&lt;/b&gt;&lt;br&gt;Bacterial regulatory proteins, luxR family&lt;br&gt;Location: 6872042 - 6872930" locus_tag="LLPMBPKK_05992" class="clusterblast-orf" id="dummy-22_q3_0_all"  />
<polygon points="103,40 106,40 111,35 106,30 103,30 103,40 " style="fill:white; stroke-width:1; stroke:black; " description="&lt;b&gt;LLPMBPKK_05993&lt;/b&gt;&lt;br&gt;hypothetical protein&lt;br&gt;Location: 6873290 - 6874082" locus_tag="LLPMBPKK_05993" class="clusterblast-orf" id="dummy-22_q4_0_all"  />
<polygon points="111,40 124,40 129,35 124,30 111,30 111,40 " style="fill:white; stroke-width:1; stroke:black; " description="&lt;b&gt;LLPMBPKK_05994&lt;/b&gt;&lt;br&gt;asparagine synthase (glutamine-hydrolyzing)&lt;br&gt;Location: 6874081 - 6875923" locus_tag="LLPMBPKK_05994" class="clusterblast-orf" id="dummy-22_q5_0_all"  />
<polygon points="129,40 130,40 135,35 130,30 129,30 129,40 " style="fill:white; stroke-width:1; stroke:black; " description="&lt;b&gt;LLPMBPKK_05995&lt;/b&gt;&lt;br&gt;flavin reductase&lt;br&gt;Location: 6875919 - 6876489" locus_tag="LLPMBPKK_05995" class="clusterblast-orf" id="dummy-22_q6_0_all"  />
<polygon points="135,40 144,40 149,35 144,30 135,30 135,40 " style="fill:white; stroke-width:1; stroke:black; " description="&lt;b&gt;LLPMBPKK_05996&lt;/b&gt;&lt;br&gt;Anthranilate 3-monooxygenase oxygenase component&lt;br&gt;Location: 6876485 - 6877997" locus_tag="LLPMBPKK_05996" class="clusterblast-orf" id="dummy-22_q7_0_all"  />
<polygon points="149,40 153,40 158,35 153,30 149,30 149,40 " style="fill:white; stroke-width:1; stroke:black; " description="&lt;b&gt;LLPMBPKK_05997&lt;/b&gt;&lt;br&gt;hypothetical protein&lt;br&gt;Location: 6877993 - 6878839" locus_tag="LLPMBPKK_05997" class="clusterblast-orf" id="dummy-22_q8_0_all"  />
<polygon points="159,40 162,40 167,35 162,30 159,30 159,40 " style="fill:white; stroke-width:1; stroke:black; " description="&lt;b&gt;LLPMBPKK_05998&lt;/b&gt;&lt;br&gt;DNA-binding protein, mmyb&lt;br&gt;Location: 6878957 - 6879821" locus_tag="LLPMBPKK_05998" class="clusterblast-orf" id="dummy-22_q9_0_all"  />
<polygon points="168,35 173,30 180,30 180,40 173,40 168,35 " style="fill:white; stroke-width:1; stroke:black; " description="&lt;b&gt;LLPMBPKK_05999&lt;/b&gt;&lt;br&gt;Purine efflux pump PbuE&lt;br&gt;Location: 6879898 - 6881158" locus_tag="LLPMBPKK_05999" class="clusterblast-orf" id="dummy-22_q10_0_all"  />
<polygon points="182,40 187,40 192,35 187,30 182,30 182,40 " style="fill:white; stroke-width:1; stroke:black; " description="&lt;b&gt;LLPMBPKK_06000&lt;/b&gt;&lt;br&gt;luciferase family protein&lt;br&gt;Location: 6881385 - 6882399" locus_tag="LLPMBPKK_06000" class="clusterblast-orf" id="dummy-22_q11_0_all"  />
<polygon points="193,40 195,35 193,30 193,40 " style="fill:white; stroke-width:1; stroke:black; " description="&lt;b&gt;LLPMBPKK_06001&lt;/b&gt;&lt;br&gt;Class-II DAHP synthetase family protein&lt;br&gt;Location: 6882429 - 6882633" locus_tag="LLPMBPKK_06001" class="clusterblast-orf" id="dummy-22_q12_0_all"  />
<polygon points="194,40 197,40 202,35 197,30 194,30 194,40 " style="fill:white; stroke-width:1; stroke:black; " description="&lt;b&gt;LLPMBPKK_06002&lt;/b&gt;&lt;br&gt;methylenetetrahydrofolate reductase [NAD(P)H]&lt;br&gt;Location: 6882629 - 6883403" locus_tag="LLPMBPKK_06002" class="clusterblast-orf" id="dummy-22_q13_0_all"  />
<polygon points="202,40 361,40 366,35 361,30 202,30 202,40 " style="fill:#d81515; stroke-width:1; stroke:black; " description="&lt;b&gt;LLPMBPKK_06003&lt;/b&gt;&lt;br&gt;3-ketoacyl-CoA thiolase&lt;br&gt;Location: 6883432 - 6900247" locus_tag="LLPMBPKK_06003" class="clusterblast-orf" id="dummy-22_q14_0_all"  />
<polygon points="367,40 458,40 463,35 458,30 367,30 367,40 " style="fill:#d81515; stroke-width:1; stroke:black; " description="&lt;b&gt;LLPMBPKK_06004&lt;/b&gt;&lt;br&gt;3-ketoacyl-CoA thiolase&lt;br&gt;Location: 6900327 - 6910182" locus_tag="LLPMBPKK_06004" class="clusterblast-orf" id="dummy-22_q15_0_all"  />
<polygon points="463,40 575,40 580,35 575,30 463,30 463,40 " style="fill:#d81515; stroke-width:1; stroke:black; " description="&lt;b&gt;LLPMBPKK_06005&lt;/b&gt;&lt;br&gt;hypothetical protein&lt;br&gt;Location: 6910181 - 6922112" locus_tag="LLPMBPKK_06005" class="clusterblast-orf" id="dummy-22_q16_0_all"  />
<polygon points="580,40 584,35 580,30 580,40 " style="fill:white; stroke-width:1; stroke:black; " description="&lt;b&gt;LLPMBPKK_06006&lt;/b&gt;&lt;br&gt;SnoaL-like domain protein&lt;br&gt;Location: 6922113 - 6922569" locus_tag="LLPMBPKK_06006" class="clusterblast-orf" id="dummy-22_q17_0_all"  />
<polygon points="585,35 590,30 627,30 627,40 590,40 585,35 " style="fill:white; stroke-width:1; stroke:black; " description="&lt;b&gt;LLPMBPKK_06007&lt;/b&gt;&lt;br&gt;Chaperone protein HtpG&lt;br&gt;Location: 6922635 - 6926934" locus_tag="LLPMBPKK_06007" class="clusterblast-orf" id="dummy-22_q18_0_all"  />
<polygon points="627,35 630,30 630,40 627,35 " style="fill:white; stroke-width:1; stroke:black; " description="&lt;b&gt;LLPMBPKK_06008&lt;/b&gt;&lt;br&gt;hypothetical protein&lt;br&gt;Location: 6926930 - 6927302" locus_tag="LLPMBPKK_06008" class="clusterblast-orf" id="dummy-22_q19_0_all"  />
<polygon points="632,35 637,30 642,30 642,40 637,40 632,35 " style="fill:#3cd815; stroke-width:1; stroke:black; " description="&lt;b&gt;LLPMBPKK_06009&lt;/b&gt;&lt;br&gt;methylmalonyl Co-A mutase-associated GTPase MeaB&lt;br&gt;Location: 6927450 - 6928455" locus_tag="LLPMBPKK_06009" class="clusterblast-orf" id="dummy-22_q20_0_all"  />
<polygon points="642,35 647,30 663,30 663,40 647,40 642,35 " style="fill:#1563d8; stroke-width:1; stroke:black; " description="&lt;b&gt;LLPMBPKK_06010&lt;/b&gt;&lt;br&gt;methylmalonyl-CoA mutase&lt;br&gt;Location: 6928462 - 6930637" locus_tag="LLPMBPKK_06010" class="clusterblast-orf" id="dummy-22_q21_0_all"  />
<polygon points="663,35 668,30 681,30 681,40 668,40 663,35 " style="fill:#b115d8; stroke-width:1; stroke:black; " description="&lt;b&gt;LLPMBPKK_06011&lt;/b&gt;&lt;br&gt;methylmalonyl-CoA mutase subunit beta&lt;br&gt;Location: 6930636 - 6932445" locus_tag="LLPMBPKK_06011" class="clusterblast-orf" id="dummy-22_q22_0_all"  />
<polygon points="686,35 691,30 703,30 703,40 691,40 686,35 " style="fill:white; stroke-width:1; stroke:black; " description="&lt;b&gt;LLPMBPKK_06012&lt;/b&gt;&lt;br&gt;membrane protein&lt;br&gt;Location: 6933033 - 6934752" locus_tag="LLPMBPKK_06012" class="clusterblast-orf" id="dummy-22_q23_0_all"  />
<polygon points="706,40 710,35 706,30 706,40 " style="fill:#d88a15; stroke-width:1; stroke:black; " description="&lt;b&gt;LLPMBPKK_06013&lt;/b&gt;&lt;br&gt;cell division protein SepF&lt;br&gt;Location: 6935033 - 6935423" locus_tag="LLPMBPKK_06013" class="clusterblast-orf" id="dummy-22_q24_0_all"  />
<polygon points="711,40 718,40 723,35 718,30 711,30 711,40 " style="fill:#15d863; stroke-width:1; stroke:black; " description="&lt;b&gt;LLPMBPKK_06014&lt;/b&gt;&lt;br&gt;bldA-regulated nucleotide-binding protein&lt;br&gt;Location: 6935571 - 6936765" locus_tag="LLPMBPKK_06014" class="clusterblast-orf" id="dummy-22_q25_0_all"  />
<polygon points="723,40 726,35 723,30 723,40 " style="fill:#3c15d8; stroke-width:1; stroke:black; " description="&lt;b&gt;LLPMBPKK_06015&lt;/b&gt;&lt;br&gt;nucleotide pyrophosphohydrolase&lt;br&gt;Location: 6936761 - 6937127" locus_tag="LLPMBPKK_06015" class="clusterblast-orf" id="dummy-22_q26_0_all"  />
<polygon points="728,40 728,40 733,35 728,30 728,30 728,40 " style="fill:#d8158a; stroke-width:1; stroke:black; " description="&lt;b&gt;LLPMBPKK_06016&lt;/b&gt;&lt;br&gt;hypothetical protein&lt;br&gt;Location: 6937300 - 6937786" locus_tag="LLPMBPKK_06016" class="clusterblast-orf" id="dummy-22_q27_0_all"  />
<polygon points="733,35 735,30 735,40 733,35 " style="fill:#b1d815; stroke-width:1; stroke:black; " description="&lt;b&gt;LLPMBPKK_06017&lt;/b&gt;&lt;br&gt;hypothetical protein&lt;br&gt;Location: 6937822 - 6938002" locus_tag="LLPMBPKK_06017" class="clusterblast-orf" id="dummy-22_q28_0_all"  />
<polygon points="737,40 741,40 746,35 741,30 737,30 737,40 " style="fill:#15d8d8; stroke-width:1; stroke:black; " description="&lt;b&gt;LLPMBPKK_06018&lt;/b&gt;&lt;br&gt;LLM class F420-dependent oxidoreductase&lt;br&gt;Location: 6938239 - 6939163" locus_tag="LLPMBPKK_06018" class="clusterblast-orf" id="dummy-22_q29_0_all"  />
<polygon points="748,35 753,30 757,30 757,40 753,40 748,35 " style="fill:white; stroke-width:1; stroke:black; " description="&lt;b&gt;LLPMBPKK_06019&lt;/b&gt;&lt;br&gt;D-alanyl-D-alanine carboxypeptidase&lt;br&gt;Location: 6939363 - 6940320" locus_tag="LLPMBPKK_06019" class="clusterblast-orf" id="dummy-22_q30_0_all"  />
<polygon points="759,40 763,40 768,35 763,30 759,30 759,40 " style="fill:white; stroke-width:1; stroke:black; " description="&lt;b&gt;LLPMBPKK_06020&lt;/b&gt;&lt;br&gt;hypothetical protein&lt;br&gt;Location: 6940433 - 6941423" locus_tag="LLPMBPKK_06020" class="clusterblast-orf" id="dummy-22_q31_0_all"  />
</g>
<g label="BGC0002671" description="BGC0002671_c1: kendomycin B (18% of genes show similarity), Polyketide" class="clusterblast-cluster"  >
<text x="5" y="70" class="clusterblast-acc"  >
<a xlink:href="https://mibig.secondarymetabolites.org/go/BGC0002671/1" target="_blank">BGC0002671</a>:                                                                     kendomycin B (18% of genes show similarity), Polyketide</text>
<line x1="10" y1="85" x2="778.0" y2="85" style="stroke-width:1; stroke:grey; "  />
</g>
<g id="a22_000"  >
<polygon points="0,90 17,90 22,85 17,80 0,80 0,90 " style="fill:white; stroke-width:1; stroke:black; " description="&lt;b&gt;UHY14116.1&lt;/b&gt;&lt;br&gt;DUF262 domain-containing protein&lt;br&gt;Location: 1 - 2337" locus_tag="UHY14116.1" class="clusterblast-orf" id="dummy-22_h22_3_0"  />
</g>
<g id="a22_001"  >
<polygon points="26,90 29,85 26,80 26,90 " style="fill:white; stroke-width:1; stroke:black; " description="&lt;b&gt;UHY14117.1&lt;/b&gt;&lt;br&gt;hypothetical protein&lt;br&gt;Location: 2725 - 3012" locus_tag="UHY14117.1" class="clusterblast-orf" id="dummy-22_h22_3_1"  />
</g>
<g id="a22_002"  >
<polygon points="32,85 35,80 35,90 32,85 " style="fill:white; stroke-width:1; stroke:black; " description="&lt;b&gt;UHY14139.1&lt;/b&gt;&lt;br&gt;transposase&lt;br&gt;Location: 3334 - 3597" locus_tag="UHY14139.1" class="clusterblast-orf" id="dummy-22_h22_3_2"  />
</g>
<g id="a22_003"  >
<polygon points="43,90 45,85 43,80 43,90 " style="fill:white; stroke-width:1; stroke:black; " description="&lt;b&gt;UHY14118.1&lt;/b&gt;&lt;br&gt;transposase&lt;br&gt;Location: 4409 - 4645" locus_tag="UHY14118.1" class="clusterblast-orf" id="dummy-22_h22_3_3"  />
</g>
<g id="a22_004"  >
<polygon points="44,90 50,90 55,85 50,80 44,80 44,90 " style="fill:white; stroke-width:1; stroke:black; " description="&lt;b&gt;UHY14119.1&lt;/b&gt;&lt;br&gt;transposase&lt;br&gt;Location: 4611 - 5738" locus_tag="UHY14119.1" class="clusterblast-orf" id="dummy-22_h22_3_4"  />
</g>
<g id="a22_005"  >
<polygon points="60,90 82,90 87,85 82,80 60,80 60,90 " style="fill:white; stroke-width:1; stroke:black; " description="&lt;b&gt;UHY14120.1&lt;/b&gt;&lt;br&gt;transcriptional regulator&lt;br&gt;Location: 6190 - 8955" locus_tag="UHY14120.1" class="clusterblast-orf" id="dummy-22_h22_3_5"  />
</g>
<g id="a22_006"  >
<polygon points="87,85 92,80 95,80 95,90 92,90 87,85 " style="fill:white; stroke-width:1; stroke:black; " description="&lt;b&gt;UHY14140.1&lt;/b&gt;&lt;br&gt;NAD(P)-dependent oxidoreductase&lt;br&gt;Location: 9015 - 9839" locus_tag="UHY14140.1" class="clusterblast-orf" id="dummy-22_h22_3_6"  />
</g>
<g id="a22_007"  >
<polygon points="96,90 97,90 102,85 97,80 96,80 96,90 " style="fill:white; stroke-width:1; stroke:black; " description="&lt;b&gt;UHY14121.1&lt;/b&gt;&lt;br&gt;transcriptional regulator&lt;br&gt;Location: 9931 - 10548" locus_tag="UHY14121.1" class="clusterblast-orf" id="dummy-22_h22_3_7"  />
</g>
<g id="a22_008"  >
<polygon points="104,90 106,85 104,80 104,90 " style="fill:white; stroke-width:1; stroke:black; " description="&lt;b&gt;UHY14122.1&lt;/b&gt;&lt;br&gt;hypothetical protein&lt;br&gt;Location: 10685 - 10909" locus_tag="UHY14122.1" class="clusterblast-orf" id="dummy-22_h22_3_8"  />
</g>
<g id="a22_009"  >
<polygon points="106,90 106,90 111,85 106,80 106,80 106,90 " style="fill:white; stroke-width:1; stroke:black; " description="&lt;b&gt;UHY14123.1&lt;/b&gt;&lt;br&gt;hypothetical protein&lt;br&gt;Location: 10964 - 11413" locus_tag="UHY14123.1" class="clusterblast-orf" id="dummy-22_h22_3_9"  />
</g>
<g id="a22_0010"  >
<polygon points="111,90 121,90 126,85 121,80 111,80 111,90 " style="fill:white; stroke-width:1; stroke:black; " description="&lt;b&gt;UHY14124.1&lt;/b&gt;&lt;br&gt;FAD-dependent oxidoreductase&lt;br&gt;Location: 11413 - 12966" locus_tag="UHY14124.1" class="clusterblast-orf" id="dummy-22_h22_3_10"  />
</g>
<g id="a22_0011"  >
<polygon points="127,90 235,90 240,85 235,80 127,80 127,90 " style="fill:#d81515; stroke-width:1; stroke:black; " description="&lt;b&gt;UHY14125.1&lt;/b&gt;&lt;br&gt;PKS I&lt;br&gt;Location: 13067 - 24646&lt;br&gt;&lt;br&gt;&lt;b&gt;BlastP hit with LLPMBPKK_06005&lt;/b&gt;&lt;br&gt;Percentage identity: 46&lt;br&gt;Percentage coverage: 98&lt;br&gt;BLAST bit score: 2704&lt;br&gt;E-value: 0.0" locus_tag="UHY14125.1" class="clusterblast-orf" id="dummy-22_h22_3_11"  />
</g>
<g id="a22_0012"  >
<polygon points="240,90 298,90 303,85 298,80 240,80 240,90 " style="fill:white; stroke-width:1; stroke:black; " description="&lt;b&gt;UHY14126.1&lt;/b&gt;&lt;br&gt;PKS I&lt;br&gt;Location: 24683 - 31114" locus_tag="UHY14126.1" class="clusterblast-orf" id="dummy-22_h22_3_12"  />
</g>
<g id="a22_0013"  >
<polygon points="303,90 396,90 401,85 396,80 303,80 303,90 " style="fill:#d81515; stroke-width:1; stroke:black; " description="&lt;b&gt;UHY14127.1&lt;/b&gt;&lt;br&gt;PKS I&lt;br&gt;Location: 31139 - 41179&lt;br&gt;&lt;br&gt;&lt;b&gt;BlastP hit with LLPMBPKK_06005&lt;/b&gt;&lt;br&gt;Percentage identity: 49&lt;br&gt;Percentage coverage: 76&lt;br&gt;BLAST bit score: 2364&lt;br&gt;E-value: 0.0" locus_tag="UHY14127.1" class="clusterblast-orf" id="dummy-22_h22_3_13"  />
</g>
<g id="a22_0014"  >
<polygon points="402,90 408,90 413,85 408,80 402,80 402,90 " style="fill:white; stroke-width:1; stroke:black; " description="&lt;b&gt;UHY14128.1&lt;/b&gt;&lt;br&gt;FAD-dependent monooxygenase&lt;br&gt;Location: 41208 - 42380" locus_tag="UHY14128.1" class="clusterblast-orf" id="dummy-22_h22_3_14"  />
</g>
<g id="a22_0015"  >
<polygon points="414,85 419,80 428,80 428,90 419,90 414,85 " style="fill:white; stroke-width:1; stroke:black; " description="&lt;b&gt;UHY14141.1&lt;/b&gt;&lt;br&gt;benzaldehyde dehydrogenase&lt;br&gt;Location: 42448 - 43908" locus_tag="UHY14141.1" class="clusterblast-orf" id="dummy-22_h22_3_15"  />
</g>
<g id="a22_0016"  >
<polygon points="428,85 433,80 444,80 444,90 433,90 428,85 " style="fill:white; stroke-width:1; stroke:black; " description="&lt;b&gt;UHY14142.1&lt;/b&gt;&lt;br&gt;benzoylformate decarboxylase&lt;br&gt;Location: 43929 - 45584" locus_tag="UHY14142.1" class="clusterblast-orf" id="dummy-22_h22_3_16"  />
</g>
<g id="a22_0017"  >
<polygon points="444,85 449,80 457,80 457,90 449,90 444,85 " style="fill:white; stroke-width:1; stroke:black; " description="&lt;b&gt;UHY14143.1&lt;/b&gt;&lt;br&gt;dioxygenase&lt;br&gt;Location: 45589 - 46923" locus_tag="UHY14143.1" class="clusterblast-orf" id="dummy-22_h22_3_17"  />
</g>
<g id="a22_0018"  >
<polygon points="457,85 462,80 464,80 464,90 462,90 457,85 " style="fill:white; stroke-width:1; stroke:black; " description="&lt;b&gt;UHY14144.1&lt;/b&gt;&lt;br&gt;enoyl-CoA hydratase/isomerase&lt;br&gt;Location: 46920 - 47603" locus_tag="UHY14144.1" class="clusterblast-orf" id="dummy-22_h22_3_18"  />
</g>
<g id="a22_0019"  >
<polygon points="464,85 469,80 475,80 475,90 469,90 464,85 " style="fill:white; stroke-width:1; stroke:black; " description="&lt;b&gt;UHY14145.1&lt;/b&gt;&lt;br&gt;PKS III&lt;br&gt;Location: 47655 - 48773" locus_tag="UHY14145.1" class="clusterblast-orf" id="dummy-22_h22_3_19"  />
</g>
<g id="a22_0020"  >
<polygon points="479,90 605,90 610,85 605,80 479,80 479,90 " style="fill:#d81515; stroke-width:1; stroke:black; " description="&lt;b&gt;UHY14129.1&lt;/b&gt;&lt;br&gt;PKS I&lt;br&gt;Location: 49095 - 62579&lt;br&gt;&lt;br&gt;&lt;b&gt;BlastP hit with LLPMBPKK_06003&lt;/b&gt;&lt;br&gt;Percentage identity: 46&lt;br&gt;Percentage coverage: 69&lt;br&gt;BLAST bit score: 2552&lt;br&gt;E-value: 0.0&lt;br&gt;&lt;br&gt;&lt;b&gt;BlastP hit with LLPMBPKK_06005&lt;/b&gt;&lt;br&gt;Percentage identity: 48&lt;br&gt;Percentage coverage: 90&lt;br&gt;BLAST bit score: 2642&lt;br&gt;E-value: 0.0" locus_tag="UHY14129.1" class="clusterblast-orf" id="dummy-22_h22_3_20"  />
</g>
<g id="a22_0021"  >
<polygon points="610,90 653,90 658,85 653,80 610,80 610,90 " style="fill:white; stroke-width:1; stroke:black; " description="&lt;b&gt;UHY14130.1&lt;/b&gt;&lt;br&gt;PKS I&lt;br&gt;Location: 62585 - 67507" locus_tag="UHY14130.1" class="clusterblast-orf" id="dummy-22_h22_3_21"  />
</g>
<g id="a22_0022"  >
<polygon points="659,90 661,90 666,85 661,80 659,80 659,90 " style="fill:white; stroke-width:1; stroke:black; " description="&lt;b&gt;UHY14131.1&lt;/b&gt;&lt;br&gt;thioesterase&lt;br&gt;Location: 67539 - 68324" locus_tag="UHY14131.1" class="clusterblast-orf" id="dummy-22_h22_3_22"  />
</g>
<g id="a22_0023"  >
<polygon points="666,90 680,90 685,85 680,80 666,80 666,90 " style="fill:#b115d8; stroke-width:1; stroke:black; " description="&lt;b&gt;UHY14132.1&lt;/b&gt;&lt;br&gt;methylmalonyl-CoA mutase&lt;br&gt;Location: 68324 - 70258&lt;br&gt;&lt;br&gt;&lt;b&gt;BlastP hit with LLPMBPKK_06011&lt;/b&gt;&lt;br&gt;Percentage identity: 50&lt;br&gt;Percentage coverage: 101&lt;br&gt;BLAST bit score: 461&lt;br&gt;E-value: 3.21e-155" locus_tag="UHY14132.1" class="clusterblast-orf" id="dummy-22_h22_3_23"  />
</g>
<g id="a22_0024"  >
<polygon points="685,90 701,90 706,85 701,80 685,80 685,90 " style="fill:#1563d8; stroke-width:1; stroke:black; " description="&lt;b&gt;UHY14133.1&lt;/b&gt;&lt;br&gt;methylmalonyl-CoA mutase&lt;br&gt;Location: 70255 - 72426&lt;br&gt;&lt;br&gt;&lt;b&gt;BlastP hit with LLPMBPKK_06010&lt;/b&gt;&lt;br&gt;Percentage identity: 74&lt;br&gt;Percentage coverage: 101&lt;br&gt;BLAST bit score: 1030&lt;br&gt;E-value: 0.0" locus_tag="UHY14133.1" class="clusterblast-orf" id="dummy-22_h22_3_24"  />
</g>
<g id="a22_0025"  >
<polygon points="706,90 711,90 716,85 711,80 706,80 706,90 " style="fill:#3cd815; stroke-width:1; stroke:black; " description="&lt;b&gt;UHY14134.1&lt;/b&gt;&lt;br&gt;methylmalonyl-CoA mutase-associated GTPase&lt;br&gt;Location: 72429 - 73460&lt;br&gt;&lt;br&gt;&lt;b&gt;BlastP hit with LLPMBPKK_06009&lt;/b&gt;&lt;br&gt;Percentage identity: 51&lt;br&gt;Percentage coverage: 98&lt;br&gt;BLAST bit score: 297&lt;br&gt;E-value: 1.88e-99" locus_tag="UHY14134.1" class="clusterblast-orf" id="dummy-22_h22_3_25"  />
</g>
<g id="a22_0026"  >
<polygon points="718,90 725,90 730,85 725,80 718,80 718,90 " style="fill:white; stroke-width:1; stroke:black; " description="&lt;b&gt;UHY14135.1&lt;/b&gt;&lt;br&gt;propionyl CoA carboxylase&lt;br&gt;Location: 73594 - 74895" locus_tag="UHY14135.1" class="clusterblast-orf" id="dummy-22_h22_3_26"  />
</g>
<g id="a22_0027"  >
<polygon points="731,85 736,80 747,80 747,90 736,90 731,85 " style="fill:white; stroke-width:1; stroke:black; " description="&lt;b&gt;UHY14146.1&lt;/b&gt;&lt;br&gt;PQQ-dependent enzyme&lt;br&gt;Location: 74974 - 76617" locus_tag="UHY14146.1" class="clusterblast-orf" id="dummy-22_h22_3_27"  />
</g>
<g id="a22_0028"  >
<polygon points="748,85 753,80 754,80 754,90 753,90 748,85 " style="fill:white; stroke-width:1; stroke:black; " description="&lt;b&gt;UHY14147.1&lt;/b&gt;&lt;br&gt;hypothetical protein&lt;br&gt;Location: 76757 - 77281" locus_tag="UHY14147.1" class="clusterblast-orf" id="dummy-22_h22_3_28"  />
</g>
<g id="a22_0029"  >
<polygon points="755,85 758,80 758,90 755,85 " style="fill:white; stroke-width:1; stroke:black; " description="&lt;b&gt;UHY14148.1&lt;/b&gt;&lt;br&gt;DoxX family protein&lt;br&gt;Location: 77401 - 77778" locus_tag="UHY14148.1" class="clusterblast-orf" id="dummy-22_h22_3_29"  />
</g>
<g id="a22_0030"  >
<polygon points="760,85 765,80 767,80 767,90 765,90 760,85 " style="fill:white; stroke-width:1; stroke:black; " description="&lt;b&gt;UHY14138.1&lt;/b&gt;&lt;br&gt;enoyl-CoA hydratase/isomerase&lt;br&gt;Location: 77898 - 78704" locus_tag="UHY14138.1" class="clusterblast-orf" id="dummy-22_h22_3_30"  />
</g>
<g id="a22_0031"  >
<polygon points="771,90 772,90 777,85 772,80 771,80 771,90 " style="fill:white; stroke-width:1; stroke:black; " description="&lt;b&gt;UHY14136.1&lt;/b&gt;&lt;br&gt;hypothetical protein&lt;br&gt;Location: 79095 - 79718" locus_tag="UHY14136.1" class="clusterblast-orf" id="dummy-22_h22_3_31"  />
</g>
<g id="a22_0032"  >
<polygon points="778,90 780,85 778,80 778,90 " style="fill:white; stroke-width:1; stroke:black; " description="&lt;b&gt;UHY14137.1&lt;/b&gt;&lt;br&gt;hypothetical protein&lt;br&gt;Location: 79734 - 79937" locus_tag="UHY14137.1" class="clusterblast-orf" id="dummy-22_h22_3_32"  />
</g>
</svg>
