<svg xmlns="http://www.w3.org/2000/svg" xmlns:xlink="http://www.w3.org/1999/xlink" version="1.1" x="0" y="0" height="230" width="800" viewBox="0 0 800 230" preserveAspectRatio="none"  >
<g label="Query sequence" class="clusterblast-cluster"  >
<text x="5" y="20" class="clusterblast-acc"  >
Query sequence</text>
<line x1="10" y1="35" x2="778.0" y2="35" style="stroke-width:1; stroke:grey; "  />
<polygon points="0,40 3,40 8,35 3,30 0,30 0,40 " style="fill:white; stroke-width:1; stroke:black; " description="&lt;b&gt;LLPMBPKK_07173&lt;/b&gt;&lt;br&gt;Polysaccharide deacetylase&lt;br&gt;Location: 8309065 - 8309899" locus_tag="LLPMBPKK_07173" class="clusterblast-orf" id="dummy-31_q0_0_all"  />
<polygon points="12,35 17,30 23,30 23,40 17,40 12,35 " style="fill:white; stroke-width:1; stroke:black; " description="&lt;b&gt;LLPMBPKK_07174&lt;/b&gt;&lt;br&gt;Processive diacylglycerolbeta-glucosyltransferase&lt;br&gt;Location: 8310344 - 8311391" locus_tag="LLPMBPKK_07174" class="clusterblast-orf" id="dummy-31_q1_0_all"  />
<polygon points="25,40 29,40 34,35 29,30 25,30 25,40 " style="fill:white; stroke-width:1; stroke:black; " description="&lt;b&gt;LLPMBPKK_07175&lt;/b&gt;&lt;br&gt;hypothetical protein&lt;br&gt;Location: 8311642 - 8312464" locus_tag="LLPMBPKK_07175" class="clusterblast-orf" id="dummy-31_q2_0_all"  />
<polygon points="34,35 39,30 62,30 62,40 39,40 34,35 " style="fill:#d81515; stroke-width:1; stroke:black; " description="&lt;b&gt;LLPMBPKK_07176&lt;/b&gt;&lt;br&gt;NHLP bacteriocin export ABC transporterpermease/ATPase subunit&lt;br&gt;Location: 8312460 - 8315277" locus_tag="LLPMBPKK_07176" class="clusterblast-orf" id="dummy-31_q3_0_all"  />
<polygon points="62,35 67,30 84,30 84,40 67,40 62,35 " style="fill:#3cd815; stroke-width:1; stroke:black; " description="&lt;b&gt;LLPMBPKK_07177&lt;/b&gt;&lt;br&gt;NHLP family bacteriocin export ABC transporter peptidase/permease/ATPase subunit&lt;br&gt;Location: 8315278 - 8317501" locus_tag="LLPMBPKK_07177" class="clusterblast-orf" id="dummy-31_q4_0_all"  />
<polygon points="84,35 89,30 92,30 92,40 89,40 84,35 " style="fill:#1563d8; stroke-width:1; stroke:black; " description="&lt;b&gt;LLPMBPKK_07178&lt;/b&gt;&lt;br&gt;HlyD family efflux transporter periplasmicadaptor subunit&lt;br&gt;Location: 8317497 - 8318304" locus_tag="LLPMBPKK_07178" class="clusterblast-orf" id="dummy-31_q5_0_all"  />
<polygon points="93,35 96,30 96,40 93,35 " style="fill:#b115d8; stroke-width:1; stroke:black; " description="&lt;b&gt;LLPMBPKK_07179&lt;/b&gt;&lt;br&gt;hypothetical protein&lt;br&gt;Location: 8318405 - 8318624" locus_tag="LLPMBPKK_07179" class="clusterblast-orf" id="dummy-31_q6_0_all"  />
<polygon points="100,35 103,30 103,40 100,35 " style="fill:white; stroke-width:1; stroke:black; " description="&lt;b&gt;LLPMBPKK_07180&lt;/b&gt;&lt;br&gt;PaaI family thioesterase&lt;br&gt;Location: 8319076 - 8319319" locus_tag="LLPMBPKK_07180" class="clusterblast-orf" id="dummy-31_q7_0_all"  />
<polygon points="106,40 116,40 121,35 116,30 106,30 106,40 " style="fill:#d88a15; stroke-width:1; stroke:black; " description="&lt;b&gt;LLPMBPKK_07181&lt;/b&gt;&lt;br&gt;S1 family peptidase&lt;br&gt;Location: 8319665 - 8321150" locus_tag="LLPMBPKK_07181" class="clusterblast-orf" id="dummy-31_q8_0_all"  />
<polygon points="122,35 127,30 144,30 144,40 127,40 122,35 " style="fill:#15d863; stroke-width:1; stroke:black; " description="&lt;b&gt;LLPMBPKK_07182&lt;/b&gt;&lt;br&gt;magnesium or manganese-dependent proteinphosphatase&lt;br&gt;Location: 8321293 - 8323417" locus_tag="LLPMBPKK_07182" class="clusterblast-orf" id="dummy-31_q9_0_all"  />
<polygon points="159,40 166,40 171,35 166,30 159,30 159,40 " style="fill:#3c15d8; stroke-width:1; stroke:black; " description="&lt;b&gt;LLPMBPKK_07183&lt;/b&gt;&lt;br&gt;cytochrome P450&lt;br&gt;Location: 8324921 - 8326130" locus_tag="LLPMBPKK_07183" class="clusterblast-orf" id="dummy-31_q10_0_all"  />
<polygon points="172,40 181,40 186,35 181,30 172,30 172,40 " style="fill:white; stroke-width:1; stroke:black; " description="&lt;b&gt;LLPMBPKK_07184&lt;/b&gt;&lt;br&gt;alpha/beta hydrolase MppK&lt;br&gt;Location: 8326230 - 8327592" locus_tag="LLPMBPKK_07184" class="clusterblast-orf" id="dummy-31_q11_0_all"  />
<polygon points="191,40 373,40 378,35 373,30 191,30 191,40 " style="fill:#d8158a; stroke-width:1; stroke:black; " description="&lt;b&gt;LLPMBPKK_07185&lt;/b&gt;&lt;br&gt;non-ribosomal peptide synthetase&lt;br&gt;Location: 8328105 - 8346762" locus_tag="LLPMBPKK_07185" class="clusterblast-orf" id="dummy-31_q12_0_all"  />
<polygon points="378,40 575,40 580,35 575,30 378,30 378,40 " style="fill:#b1d815; stroke-width:1; stroke:black; " description="&lt;b&gt;LLPMBPKK_07186&lt;/b&gt;&lt;br&gt;D-alanine--poly(phosphoribitol) ligase subunit 1&lt;br&gt;Location: 8346775 - 8366839" locus_tag="LLPMBPKK_07186" class="clusterblast-orf" id="dummy-31_q13_0_all"  />
<polygon points="581,40 583,35 581,30 581,40 " style="fill:white; stroke-width:1; stroke:black; " description="&lt;b&gt;LLPMBPKK_07187&lt;/b&gt;&lt;br&gt;MbtH family NRPS accessory protein&lt;br&gt;Location: 8366970 - 8367174" locus_tag="LLPMBPKK_07187" class="clusterblast-orf" id="dummy-31_q14_0_all"  />
<polygon points="587,40 587,40 592,35 587,30 587,30 587,40 " style="fill:white; stroke-width:1; stroke:black; " description="&lt;b&gt;LLPMBPKK_07188&lt;/b&gt;&lt;br&gt;N-acetyltransferase&lt;br&gt;Location: 8367504 - 8368035" locus_tag="LLPMBPKK_07188" class="clusterblast-orf" id="dummy-31_q15_0_all"  />
<polygon points="592,40 600,40 605,35 600,30 592,30 592,40 " style="fill:white; stroke-width:1; stroke:black; " description="&lt;b&gt;LLPMBPKK_07189&lt;/b&gt;&lt;br&gt;major facilitator superfamily transporter&lt;br&gt;Location: 8368031 - 8369297" locus_tag="LLPMBPKK_07189" class="clusterblast-orf" id="dummy-31_q16_0_all"  />
<polygon points="607,40 626,40 631,35 626,30 607,30 607,40 " style="fill:#15d8d8; stroke-width:1; stroke:black; " description="&lt;b&gt;LLPMBPKK_07190&lt;/b&gt;&lt;br&gt;signal transduction histidine kinase&lt;br&gt;Location: 8369574 - 8371950" locus_tag="LLPMBPKK_07190" class="clusterblast-orf" id="dummy-31_q17_0_all"  />
<polygon points="632,40 635,35 632,30 632,40 " style="fill:white; stroke-width:1; stroke:black; " description="&lt;b&gt;LLPMBPKK_07191&lt;/b&gt;&lt;br&gt;hypothetical protein&lt;br&gt;Location: 8372031 - 8372304" locus_tag="LLPMBPKK_07191" class="clusterblast-orf" id="dummy-31_q18_0_all"  />
<polygon points="637,40 641,35 637,30 637,40 " style="fill:white; stroke-width:1; stroke:black; " description="&lt;b&gt;LLPMBPKK_07192&lt;/b&gt;&lt;br&gt;hypothetical protein&lt;br&gt;Location: 8372511 - 8372928" locus_tag="LLPMBPKK_07192" class="clusterblast-orf" id="dummy-31_q19_0_all"  />
<polygon points="643,40 644,35 643,30 643,40 " style="fill:white; stroke-width:1; stroke:black; " description="&lt;b&gt;LLPMBPKK_07193&lt;/b&gt;&lt;br&gt;hypothetical protein&lt;br&gt;Location: 8373070 - 8373256" locus_tag="LLPMBPKK_07193" class="clusterblast-orf" id="dummy-31_q20_0_all"  />
<polygon points="645,35 650,30 651,30 651,40 650,40 645,35 " style="fill:white; stroke-width:1; stroke:black; " description="&lt;b&gt;LLPMBPKK_07194&lt;/b&gt;&lt;br&gt;hydrolase&lt;br&gt;Location: 8373290 - 8373875" locus_tag="LLPMBPKK_07194" class="clusterblast-orf" id="dummy-31_q21_0_all"  />
<polygon points="652,35 657,30 657,30 657,40 657,40 652,35 " style="fill:white; stroke-width:1; stroke:black; " description="&lt;b&gt;LLPMBPKK_07195&lt;/b&gt;&lt;br&gt;MarR family transcriptional regulator&lt;br&gt;Location: 8374017 - 8374455" locus_tag="LLPMBPKK_07195" class="clusterblast-orf" id="dummy-31_q22_0_all"  />
<polygon points="658,40 684,40 689,35 684,30 658,30 658,40 " style="fill:white; stroke-width:1; stroke:black; " description="&lt;b&gt;LLPMBPKK_07196&lt;/b&gt;&lt;br&gt;FAD-binding oxidoreductase&lt;br&gt;Location: 8374640 - 8377685" locus_tag="LLPMBPKK_07196" class="clusterblast-orf" id="dummy-31_q23_0_all"  />
<polygon points="689,40 695,40 700,35 695,30 689,30 689,40 " style="fill:white; stroke-width:1; stroke:black; " description="&lt;b&gt;LLPMBPKK_07197&lt;/b&gt;&lt;br&gt;mandelate racemase&lt;br&gt;Location: 8377687 - 8378797" locus_tag="LLPMBPKK_07197" class="clusterblast-orf" id="dummy-31_q24_0_all"  />
<polygon points="700,40 706,40 711,35 706,30 700,30 700,40 " style="fill:white; stroke-width:1; stroke:black; " description="&lt;b&gt;LLPMBPKK_07198&lt;/b&gt;&lt;br&gt;SDR family NAD(P)-dependent oxidoreductase&lt;br&gt;Location: 8378830 - 8379838" locus_tag="LLPMBPKK_07198" class="clusterblast-orf" id="dummy-31_q25_0_all"  />
<polygon points="711,40 711,40 716,35 711,30 711,30 711,40 " style="fill:white; stroke-width:1; stroke:black; " description="&lt;b&gt;LLPMBPKK_07199&lt;/b&gt;&lt;br&gt;metallophosphoesterase&lt;br&gt;Location: 8379862 - 8380348" locus_tag="LLPMBPKK_07199" class="clusterblast-orf" id="dummy-31_q26_0_all"  />
<polygon points="716,40 717,40 722,35 717,30 716,30 716,40 " style="fill:white; stroke-width:1; stroke:black; " description="&lt;b&gt;LLPMBPKK_07200&lt;/b&gt;&lt;br&gt;N-acetyltransferase&lt;br&gt;Location: 8380373 - 8380964" locus_tag="LLPMBPKK_07200" class="clusterblast-orf" id="dummy-31_q27_0_all"  />
<polygon points="727,35 732,30 738,30 738,40 732,40 727,35 " style="fill:white; stroke-width:1; stroke:black; " description="&lt;b&gt;LLPMBPKK_07201&lt;/b&gt;&lt;br&gt;xanthine dehydrogenase&lt;br&gt;Location: 8381495 - 8382602" locus_tag="LLPMBPKK_07201" class="clusterblast-orf" id="dummy-31_q28_0_all"  />
<polygon points="740,40 755,40 760,35 755,30 740,30 740,40 " style="fill:white; stroke-width:1; stroke:black; " description="&lt;b&gt;LLPMBPKK_07202&lt;/b&gt;&lt;br&gt;GTP-binding protein&lt;br&gt;Location: 8382788 - 8384783" locus_tag="LLPMBPKK_07202" class="clusterblast-orf" id="dummy-31_q29_0_all"  />
<polygon points="761,40 775,40 780,35 775,30 761,30 761,40 " style="fill:white; stroke-width:1; stroke:black; " description="&lt;b&gt;LLPMBPKK_07203&lt;/b&gt;&lt;br&gt;endoglycosylceramidase&lt;br&gt;Location: 8384852 - 8386706" locus_tag="LLPMBPKK_07203" class="clusterblast-orf" id="dummy-31_q30_0_all"  />
</g>
<g label="BGC0000518" description="BGC0000518_c1: informatipeptin (57% of genes show similarity), RiPP:Lanthipeptide" class="clusterblast-cluster"  >
<text x="5" y="70" class="clusterblast-acc"  >
<a xlink:href="https://mibig.secondarymetabolites.org/go/BGC0000518/1" target="_blank">BGC0000518</a>:                                                                  informatipeptin (57% of genes show similarity), RiPP:Lanthipeptide</text>
<line x1="10" y1="85" x2="778.0" y2="85" style="stroke-width:1; stroke:grey; "  />
</g>
<g id="a31_000"  >
<polygon points="315,85 317,80 317,90 315,85 " style="fill:#b115d8; stroke-width:1; stroke:black; " description="&lt;b&gt;SSQG_07263&lt;/b&gt;&lt;br&gt;conserved hypothetical protein&lt;br&gt;Location: 1 - 216&lt;br&gt;&lt;br&gt;&lt;b&gt;BlastP hit with LLPMBPKK_07179&lt;/b&gt;&lt;br&gt;Percentage identity: 71&lt;br&gt;Percentage coverage: 100&lt;br&gt;BLAST bit score: 93&lt;br&gt;E-value: 1.15e-26" locus_tag="SSQG_07263" class="clusterblast-orf" id="dummy-31_h31_1_0"  />
</g>
<g id="a31_001"  >
<polygon points="324,90 334,90 339,85 334,80 324,80 324,90 " style="fill:#d88a15; stroke-width:1; stroke:black; " description="&lt;b&gt;SSQG_07264&lt;/b&gt;&lt;br&gt;protease&lt;br&gt;Location: 961 - 2373&lt;br&gt;&lt;br&gt;&lt;b&gt;BlastP hit with LLPMBPKK_07181&lt;/b&gt;&lt;br&gt;Percentage identity: 74&lt;br&gt;Percentage coverage: 78&lt;br&gt;BLAST bit score: 522&lt;br&gt;E-value: 2.28e-183" locus_tag="SSQG_07264" class="clusterblast-orf" id="dummy-31_h31_1_1"  />
</g>
<g id="a31_002"  >
<polygon points="340,85 345,80 361,80 361,90 345,90 340,85 " style="fill:#15d863; stroke-width:1; stroke:black; " description="&lt;b&gt;SSQG_07265&lt;/b&gt;&lt;br&gt;magnesium or manganese-dependent protein phosphatase&lt;br&gt;Location: 2474 - 4618&lt;br&gt;&lt;br&gt;&lt;b&gt;BlastP hit with LLPMBPKK_07182&lt;/b&gt;&lt;br&gt;Percentage identity: 76&lt;br&gt;Percentage coverage: 101&lt;br&gt;BLAST bit score: 1043&lt;br&gt;E-value: 0.0" locus_tag="SSQG_07265" class="clusterblast-orf" id="dummy-31_h31_1_2"  />
</g>
<g id="a31_003"  >
<polygon points="364,90 364,90 369,85 364,80 364,80 364,90 " style="fill:white; stroke-width:1; stroke:black; " description="&lt;b&gt;SSQG_07266&lt;/b&gt;&lt;br&gt;two-component system response regulator&lt;br&gt;Location: 4940 - 5413" locus_tag="SSQG_07266" class="clusterblast-orf" id="dummy-31_h31_1_3"  />
</g>
<g id="a31_004"  >
<polygon points="372,85 377,80 393,80 393,90 377,90 372,85 " style="fill:white; stroke-width:1; stroke:black; " description="&lt;b&gt;SSQG_07267&lt;/b&gt;&lt;br&gt;ABC transporter ATP-binding protein&lt;br&gt;Location: 5711 - 7808" locus_tag="SSQG_07267" class="clusterblast-orf" id="dummy-31_h31_1_4"  />
</g>
<g id="a31_005"  >
<polygon points="411,85 416,80 438,80 438,90 416,90 411,85 " style="fill:white; stroke-width:1; stroke:black; " description="&lt;b&gt;SSQG_07268&lt;/b&gt;&lt;br&gt;membrane translocator&lt;br&gt;Location: 9625 - 12318" locus_tag="SSQG_07268" class="clusterblast-orf" id="dummy-31_h31_1_5"  />
</g>
<g id="a31_006"  >
<polygon points="439,90 459,90 464,85 459,80 439,80 439,90 " style="fill:#15d8d8; stroke-width:1; stroke:black; " description="&lt;b&gt;SSQG_07269&lt;/b&gt;&lt;br&gt;regulatory protein&lt;br&gt;Location: 12358 - 14886&lt;br&gt;&lt;br&gt;&lt;b&gt;BlastP hit with LLPMBPKK_07190&lt;/b&gt;&lt;br&gt;Percentage identity: 78&lt;br&gt;Percentage coverage: 99&lt;br&gt;BLAST bit score: 1169&lt;br&gt;E-value: 0.0" locus_tag="SSQG_07269" class="clusterblast-orf" id="dummy-31_h31_1_6"  />
</g>
</svg>
