<svg xmlns="http://www.w3.org/2000/svg" xmlns:xlink="http://www.w3.org/1999/xlink" version="1.1" x="0" y="0" height="230" width="800" viewBox="0 0 800 230" preserveAspectRatio="none"  >
<g label="Query sequence" class="clusterblast-cluster"  >
<text x="5" y="20" class="clusterblast-acc"  >
Query sequence</text>
<line x1="10" y1="35" x2="778.0" y2="35" style="stroke-width:1; stroke:grey; "  />
<polygon points="343,35 348,30 348,30 348,40 348,40 343,35 " style="fill:white; stroke-width:1; stroke:black; " description="&lt;b&gt;LLPMBPKK_03075&lt;/b&gt;&lt;br&gt;hypothetical protein&lt;br&gt;Location: 3573605 - 3574061" locus_tag="LLPMBPKK_03075" class="clusterblast-orf" id="dummy-15_q0_0_all"  />
<polygon points="351,40 354,35 351,30 351,40 " style="fill:white; stroke-width:1; stroke:black; " description="&lt;b&gt;LLPMBPKK_03076&lt;/b&gt;&lt;br&gt;hypothetical protein&lt;br&gt;Location: 3574323 - 3574632" locus_tag="LLPMBPKK_03076" class="clusterblast-orf" id="dummy-15_q1_0_all"  />
<polygon points="357,40 363,40 368,35 363,30 357,30 357,40 " style="fill:white; stroke-width:1; stroke:black; " description="&lt;b&gt;LLPMBPKK_03077&lt;/b&gt;&lt;br&gt;D-2-hydroxyacid dehydrogenase family protein&lt;br&gt;Location: 3574867 - 3575827" locus_tag="LLPMBPKK_03077" class="clusterblast-orf" id="dummy-15_q2_0_all"  />
<polygon points="370,40 374,35 370,30 370,40 " style="fill:#d81515; stroke-width:1; stroke:black; " description="&lt;b&gt;LLPMBPKK_03078&lt;/b&gt;&lt;br&gt;chaplin&lt;br&gt;Location: 3575993 - 3576308" locus_tag="LLPMBPKK_03078" class="clusterblast-orf" id="dummy-15_q3_0_all"  />
<polygon points="375,35 380,30 385,30 385,40 380,40 375,35 " style="fill:#15d863; stroke-width:1; stroke:black; " description="&lt;b&gt;LLPMBPKK_03079&lt;/b&gt;&lt;br&gt;tyrosinase family protein&lt;br&gt;Location: 3576403 - 3577270" locus_tag="LLPMBPKK_03079" class="clusterblast-orf" id="dummy-15_q4_0_all"  />
<polygon points="384,35 389,30 390,30 390,40 389,40 384,35 " style="fill:#1563d8; stroke-width:1; stroke:black; " description="&lt;b&gt;LLPMBPKK_03080&lt;/b&gt;&lt;br&gt;tyrosinase&lt;br&gt;Location: 3577253 - 3577739" locus_tag="LLPMBPKK_03080" class="clusterblast-orf" id="dummy-15_q5_0_all"  />
<polygon points="392,35 397,30 399,30 399,40 397,40 392,35 " style="fill:white; stroke-width:1; stroke:black; " description="&lt;b&gt;LLPMBPKK_03081&lt;/b&gt;&lt;br&gt;hypothetical protein&lt;br&gt;Location: 3577894 - 3578482" locus_tag="LLPMBPKK_03081" class="clusterblast-orf" id="dummy-15_q6_0_all"  />
<polygon points="399,35 404,30 406,30 406,40 404,40 399,35 " style="fill:#b115d8; stroke-width:1; stroke:black; " description="&lt;b&gt;LLPMBPKK_03082&lt;/b&gt;&lt;br&gt;vitamin K epoxide reductase family protein&lt;br&gt;Location: 3578510 - 3579095" locus_tag="LLPMBPKK_03082" class="clusterblast-orf" id="dummy-15_q7_0_all"  />
<polygon points="406,35 411,30 412,30 412,40 411,40 406,35 " style="fill:white; stroke-width:1; stroke:black; " description="&lt;b&gt;LLPMBPKK_03083&lt;/b&gt;&lt;br&gt;hypothetical protein&lt;br&gt;Location: 3579094 - 3579679" locus_tag="LLPMBPKK_03083" class="clusterblast-orf" id="dummy-15_q8_0_all"  />
<polygon points="413,35 416,30 416,40 413,35 " style="fill:#b1d815; stroke-width:1; stroke:black; " description="&lt;b&gt;LLPMBPKK_03084&lt;/b&gt;&lt;br&gt;hypothetical protein&lt;br&gt;Location: 3579727 - 3580015" locus_tag="LLPMBPKK_03084" class="clusterblast-orf" id="dummy-15_q9_0_all"  />
<polygon points="418,35 423,30 432,30 432,40 423,40 418,35 " style="fill:white; stroke-width:1; stroke:black; " description="&lt;b&gt;LLPMBPKK_03085&lt;/b&gt;&lt;br&gt;hypothetical protein&lt;br&gt;Location: 3580148 - 3581384" locus_tag="LLPMBPKK_03085" class="clusterblast-orf" id="dummy-15_q10_0_all"  />
<polygon points="434,35 437,30 437,40 434,35 " style="fill:#d81515; stroke-width:1; stroke:black; " description="&lt;b&gt;LLPMBPKK_03086&lt;/b&gt;&lt;br&gt;chaplin&lt;br&gt;Location: 3581555 - 3581795" locus_tag="LLPMBPKK_03086" class="clusterblast-orf" id="dummy-15_q11_0_all"  />
</g>
<g label="BGC0000700" description="BGC0000700_c1: istamycin (5% of genes show similarity), Saccharide" class="clusterblast-cluster"  >
<text x="5" y="70" class="clusterblast-acc"  >
<a xlink:href="https://mibig.secondarymetabolites.org/go/BGC0000700/1" target="_blank">BGC0000700</a>:                                                                        istamycin (5% of genes show similarity), Saccharide</text>
<line x1="10" y1="85" x2="778.0" y2="85" style="stroke-width:1; stroke:grey; "  />
</g>
<g id="a15_000"  >
<polygon points="0,90 0,90 5,85 0,80 0,80 0,90 " style="fill:white; stroke-width:1; stroke:black; " description="&lt;b&gt;CAI60005.1&lt;/b&gt;&lt;br&gt;putative resolvase/invertase&lt;br&gt;Location: 67903 - 67391" locus_tag="CAI60005.1" class="clusterblast-orf" id="dummy-15_h15_1_0"  />
</g>
<g id="a15_001"  >
<polygon points="5,90 6,90 11,85 6,80 5,80 5,90 " style="fill:white; stroke-width:1; stroke:black; " description="&lt;b&gt;CAI60004.1&lt;/b&gt;&lt;br&gt;putative recombination protein&lt;br&gt;Location: 67391 - 66942" locus_tag="CAI60004.1" class="clusterblast-orf" id="dummy-15_h15_1_1"  />
</g>
<g id="a15_002"  >
<polygon points="12,90 13,90 18,85 13,80 12,80 12,90 " style="fill:white; stroke-width:1; stroke:black; " description="&lt;b&gt;CAI60003.1&lt;/b&gt;&lt;br&gt;putative methyltransferase&lt;br&gt;Location: 66807 - 66298" locus_tag="CAI60003.1" class="clusterblast-orf" id="dummy-15_h15_1_2"  />
</g>
<g id="a15_003"  >
<polygon points="19,85 24,80 25,80 25,90 24,90 19,85 " style="fill:white; stroke-width:1; stroke:black; " description="&lt;b&gt;CAI60002.1&lt;/b&gt;&lt;br&gt;putative citrate lyase beta chain&lt;br&gt;Location: 66224 - 65640" locus_tag="CAI60002.1" class="clusterblast-orf" id="dummy-15_h15_1_3"  />
</g>
<g id="a15_004"  >
<polygon points="27,85 30,80 30,90 27,85 " style="fill:white; stroke-width:1; stroke:black; " description="&lt;b&gt;CAI60001.1&lt;/b&gt;&lt;br&gt;hypothetical protein&lt;br&gt;Location: 65521 - 65243" locus_tag="CAI60001.1" class="clusterblast-orf" id="dummy-15_h15_1_4"  />
</g>
<g id="a15_005"  >
<polygon points="32,85 36,80 36,90 32,85 " style="fill:white; stroke-width:1; stroke:black; " description="&lt;b&gt;CAI60000.1&lt;/b&gt;&lt;br&gt;hypothetical protein&lt;br&gt;Location: 65105 - 64746" locus_tag="CAI60000.1" class="clusterblast-orf" id="dummy-15_h15_1_5"  />
</g>
<g id="a15_006"  >
<polygon points="37,85 42,80 44,80 44,90 42,90 37,85 " style="fill:white; stroke-width:1; stroke:black; " description="&lt;b&gt;CAI59999.1&lt;/b&gt;&lt;br&gt;putative hsp18 transcriptional regulator&lt;br&gt;Location: 64678 - 64046" locus_tag="CAI59999.1" class="clusterblast-orf" id="dummy-15_h15_1_6"  />
</g>
<g id="a15_007"  >
<polygon points="45,90 77,90 82,85 77,80 45,80 45,90 " style="fill:white; stroke-width:1; stroke:black; " description="&lt;b&gt;CAI59998.1&lt;/b&gt;&lt;br&gt;putative transposase&lt;br&gt;Location: 63899 - 60702" locus_tag="CAI59998.1" class="clusterblast-orf" id="dummy-15_h15_1_7"  />
</g>
<g id="a15_008"  >
<polygon points="82,90 85,90 90,85 85,80 82,80 82,90 " style="fill:white; stroke-width:1; stroke:black; " description="&lt;b&gt;CAI59997.1&lt;/b&gt;&lt;br&gt;hypothetical protein&lt;br&gt;Location: 60695 - 60003" locus_tag="CAI59997.1" class="clusterblast-orf" id="dummy-15_h15_1_8"  />
</g>
<g id="a15_009"  >
<polygon points="92,90 100,90 105,85 100,80 92,80 92,90 " style="fill:white; stroke-width:1; stroke:black; " description="&lt;b&gt;CAI59996.1&lt;/b&gt;&lt;br&gt;hypothetical protein&lt;br&gt;Location: 59861 - 58692" locus_tag="CAI59996.1" class="clusterblast-orf" id="dummy-15_h15_1_9"  />
</g>
<g id="a15_0010"  >
<polygon points="107,85 112,80 121,80 121,90 112,90 107,85 " style="fill:white; stroke-width:1; stroke:black; " description="&lt;b&gt;CAI59995.1&lt;/b&gt;&lt;br&gt;hypothetical protein&lt;br&gt;Location: 58508 - 57309" locus_tag="CAI59995.1" class="clusterblast-orf" id="dummy-15_h15_1_10"  />
</g>
<g id="a15_0011"  >
<polygon points="121,85 126,80 132,80 132,90 126,90 121,85 " style="fill:white; stroke-width:1; stroke:black; " description="&lt;b&gt;CAI59994.1&lt;/b&gt;&lt;br&gt;hypothetical protein&lt;br&gt;Location: 57331 - 56336" locus_tag="CAI59994.1" class="clusterblast-orf" id="dummy-15_h15_1_11"  />
</g>
<g id="a15_0012"  >
<polygon points="132,85 137,80 137,80 137,90 137,90 132,85 " style="fill:white; stroke-width:1; stroke:black; " description="&lt;b&gt;CAI59993.1&lt;/b&gt;&lt;br&gt;hypothetical protein&lt;br&gt;Location: 56332 - 55946" locus_tag="CAI59993.1" class="clusterblast-orf" id="dummy-15_h15_1_12"  />
</g>
<g id="a15_0013"  >
<polygon points="147,90 148,90 153,85 148,80 147,80 147,90 " style="fill:white; stroke-width:1; stroke:black; " description="&lt;b&gt;CAI59992.1&lt;/b&gt;&lt;br&gt;hypothetical protein&lt;br&gt;Location: 55097 - 54549" locus_tag="CAI59992.1" class="clusterblast-orf" id="dummy-15_h15_1_13"  />
</g>
<g id="a15_0014"  >
<polygon points="155,90 158,85 155,80 155,90 " style="fill:white; stroke-width:1; stroke:black; " description="&lt;b&gt;CAI59991.1&lt;/b&gt;&lt;br&gt;putative membrane protein&lt;br&gt;Location: 54346 - 54071" locus_tag="CAI59991.1" class="clusterblast-orf" id="dummy-15_h15_1_14"  />
</g>
<g id="a15_0015"  >
<polygon points="170,90 170,90 175,85 170,80 170,80 170,90 " style="fill:#d81515; stroke-width:1; stroke:black; " description="&lt;b&gt;CAI59990.1&lt;/b&gt;&lt;br&gt;putative small membrane protein&lt;br&gt;Location: 53064 - 52657&lt;br&gt;&lt;br&gt;&lt;b&gt;BlastP hit with LLPMBPKK_03078&lt;/b&gt;&lt;br&gt;Percentage identity: 78&lt;br&gt;Percentage coverage: 78&lt;br&gt;BLAST bit score: 122&lt;br&gt;E-value: 4.91e-37&lt;br&gt;&lt;br&gt;&lt;b&gt;BlastP hit with LLPMBPKK_03086&lt;/b&gt;&lt;br&gt;Percentage identity: 64&lt;br&gt;Percentage coverage: 99&lt;br&gt;BLAST bit score: 97&lt;br&gt;E-value: 1.34e-27" locus_tag="CAI59990.1" class="clusterblast-orf" id="dummy-15_h15_1_15"  />
</g>
<g id="a15_0016"  >
<polygon points="176,85 181,80 186,80 186,90 181,90 176,85 " style="fill:#15d863; stroke-width:1; stroke:black; " description="&lt;b&gt;CAI59989.1&lt;/b&gt;&lt;br&gt;putative tyrosinase&lt;br&gt;Location: 52566 - 51700&lt;br&gt;&lt;br&gt;&lt;b&gt;BlastP hit with LLPMBPKK_03079&lt;/b&gt;&lt;br&gt;Percentage identity: 63&lt;br&gt;Percentage coverage: 99&lt;br&gt;BLAST bit score: 391&lt;br&gt;E-value: 5.13e-138" locus_tag="CAI59989.1" class="clusterblast-orf" id="dummy-15_h15_1_16"  />
</g>
<g id="a15_0017"  >
<polygon points="185,85 190,80 193,80 193,90 190,90 185,85 " style="fill:#1563d8; stroke-width:1; stroke:black; " description="&lt;b&gt;CAI59988.1&lt;/b&gt;&lt;br&gt;putative tyrosinase co-factor protein&lt;br&gt;Location: 51713 - 51063&lt;br&gt;&lt;br&gt;&lt;b&gt;BlastP hit with LLPMBPKK_03080&lt;/b&gt;&lt;br&gt;Percentage identity: 62&lt;br&gt;Percentage coverage: 50&lt;br&gt;BLAST bit score: 91&lt;br&gt;E-value: 9.12e-23" locus_tag="CAI59988.1" class="clusterblast-orf" id="dummy-15_h15_1_17"  />
</g>
<g id="a15_0018"  >
<polygon points="193,90 194,90 199,85 194,80 193,80 193,90 " style="fill:white; stroke-width:1; stroke:black; " description="&lt;b&gt;CAI59987.1&lt;/b&gt;&lt;br&gt;hypothetical protein&lt;br&gt;Location: 51037 - 50534" locus_tag="CAI59987.1" class="clusterblast-orf" id="dummy-15_h15_1_18"  />
</g>
<g id="a15_0019"  >
<polygon points="199,90 202,90 207,85 202,80 199,80 199,90 " style="fill:#b115d8; stroke-width:1; stroke:black; " description="&lt;b&gt;CAI59986.1&lt;/b&gt;&lt;br&gt;putative integral membrane protein&lt;br&gt;Location: 50532 - 49873&lt;br&gt;&lt;br&gt;&lt;b&gt;BlastP hit with LLPMBPKK_03082&lt;/b&gt;&lt;br&gt;Percentage identity: 69&lt;br&gt;Percentage coverage: 97&lt;br&gt;BLAST bit score: 277&lt;br&gt;E-value: 1.29e-95" locus_tag="CAI59986.1" class="clusterblast-orf" id="dummy-15_h15_1_19"  />
</g>
<g id="a15_0020"  >
<polygon points="207,85 212,80 215,80 215,90 212,90 207,85 " style="fill:white; stroke-width:1; stroke:black; " description="&lt;b&gt;CAI59985.1&lt;/b&gt;&lt;br&gt;putative translocator&lt;br&gt;Location: 49830 - 49162" locus_tag="CAI59985.1" class="clusterblast-orf" id="dummy-15_h15_1_20"  />
</g>
<g id="a15_0021"  >
<polygon points="215,90 226,90 231,85 226,80 215,80 215,90 " style="fill:white; stroke-width:1; stroke:black; " description="&lt;b&gt;CAI59984.1&lt;/b&gt;&lt;br&gt;putative transcriptional regulatory protein&lt;br&gt;Location: 49140 - 47725" locus_tag="CAI59984.1" class="clusterblast-orf" id="dummy-15_h15_1_21"  />
</g>
<g id="a15_0022"  >
<polygon points="231,85 236,80 237,80 237,90 236,90 231,85 " style="fill:white; stroke-width:1; stroke:black; " description="&lt;b&gt;CAI59983.1&lt;/b&gt;&lt;br&gt;putative tRNA/mRNA methyltransferase&lt;br&gt;Location: 47723 - 47229" locus_tag="CAI59983.1" class="clusterblast-orf" id="dummy-15_h15_1_22"  />
</g>
<g id="a15_0023"  >
<polygon points="238,85 243,80 249,80 249,90 243,90 238,85 " style="fill:white; stroke-width:1; stroke:black; " description="&lt;b&gt;CAI59982.1&lt;/b&gt;&lt;br&gt;putative dehydrogenase&lt;br&gt;Location: 47180 - 46185" locus_tag="CAI59982.1" class="clusterblast-orf" id="dummy-15_h15_1_23"  />
</g>
<g id="a15_0024"  >
<polygon points="249,85 254,80 258,80 258,90 254,90 249,85 " style="fill:white; stroke-width:1; stroke:black; " description="&lt;b&gt;CAI59981.1&lt;/b&gt;&lt;br&gt;putative methyltransferase&lt;br&gt;Location: 46176 - 45433" locus_tag="CAI59981.1" class="clusterblast-orf" id="dummy-15_h15_1_24"  />
</g>
<g id="a15_0025"  >
<polygon points="258,85 263,80 271,80 271,90 263,90 258,85 " style="fill:white; stroke-width:1; stroke:black; " description="&lt;b&gt;CAI59980.1&lt;/b&gt;&lt;br&gt;putative (Fe-S) oxidoreductase&lt;br&gt;Location: 45405 - 44248" locus_tag="CAI59980.1" class="clusterblast-orf" id="dummy-15_h15_1_25"  />
</g>
<g id="a15_0026"  >
<polygon points="273,85 278,80 288,80 288,90 278,90 273,85 " style="fill:white; stroke-width:1; stroke:black; " description="&lt;b&gt;CAI59979.1&lt;/b&gt;&lt;br&gt;putative NDP-D-glucosaminyltransferase&lt;br&gt;Location: 44056 - 42761" locus_tag="CAI59979.1" class="clusterblast-orf" id="dummy-15_h15_1_26"  />
</g>
<g id="a15_0027"  >
<polygon points="292,90 292,90 297,85 292,80 292,80 292,90 " style="fill:white; stroke-width:1; stroke:black; " description="&lt;b&gt;CAI59978.1&lt;/b&gt;&lt;br&gt;hypothetical protein&lt;br&gt;Location: 42458 - 42006" locus_tag="CAI59978.1" class="clusterblast-orf" id="dummy-15_h15_1_27"  />
</g>
<g id="a15_0028"  >
<polygon points="297,90 301,90 306,85 301,80 297,80 297,90 " style="fill:white; stroke-width:1; stroke:black; " description="&lt;b&gt;CAI59977.1&lt;/b&gt;&lt;br&gt;putative methyltransferase&lt;br&gt;Location: 41991 - 41218" locus_tag="CAI59977.1" class="clusterblast-orf" id="dummy-15_h15_1_28"  />
</g>
<g id="a15_0029"  >
<polygon points="307,90 316,90 321,85 316,80 307,80 307,90 " style="fill:white; stroke-width:1; stroke:black; " description="&lt;b&gt;CAI59976.1&lt;/b&gt;&lt;br&gt;putative 2-deoxy-scyllo-inosose aminotransferase&lt;br&gt;Location: 41157 - 39883" locus_tag="CAI59976.1" class="clusterblast-orf" id="dummy-15_h15_1_29"  />
</g>
<g id="a15_0030"  >
<polygon points="322,85 327,80 339,80 339,90 327,90 322,85 " style="fill:white; stroke-width:1; stroke:black; " description="&lt;b&gt;CAH60162.2&lt;/b&gt;&lt;br&gt;putative transmembrane efflux protein&lt;br&gt;Location: 39836 - 38385" locus_tag="CAH60162.2" class="clusterblast-orf" id="dummy-15_h15_1_30"  />
</g>
<g id="a15_0031"  >
<polygon points="341,90 347,90 352,85 347,80 341,80 341,90 " style="fill:white; stroke-width:1; stroke:black; " description="&lt;b&gt;CAH60161.1&lt;/b&gt;&lt;br&gt;putative epimerase&lt;br&gt;Location: 38166 - 37183" locus_tag="CAH60161.1" class="clusterblast-orf" id="dummy-15_h15_1_31"  />
</g>
<g id="a15_0032"  >
<polygon points="353,90 360,90 365,85 360,80 353,80 353,90 " style="fill:white; stroke-width:1; stroke:black; " description="&lt;b&gt;CAH60160.1&lt;/b&gt;&lt;br&gt;putative metallo cofactor biosynthesis protein&lt;br&gt;Location: 37168 - 36122" locus_tag="CAH60160.1" class="clusterblast-orf" id="dummy-15_h15_1_32"  />
</g>
<g id="a15_0033"  >
<polygon points="365,90 374,90 379,85 374,80 365,80 365,90 " style="fill:white; stroke-width:1; stroke:black; " description="&lt;b&gt;CAH60159.1&lt;/b&gt;&lt;br&gt;2-deoxy-scyllo-inosose synthase&lt;br&gt;Location: 36060 - 34846" locus_tag="CAH60159.1" class="clusterblast-orf" id="dummy-15_h15_1_33"  />
</g>
<g id="a15_0034"  >
<polygon points="380,90 393,90 398,85 393,80 380,80 380,90 " style="fill:white; stroke-width:1; stroke:black; " description="&lt;b&gt;CAH60158.1&lt;/b&gt;&lt;br&gt;putative sugar alcohol dehydrogenase&lt;br&gt;Location: 34765 - 33212" locus_tag="CAH60158.1" class="clusterblast-orf" id="dummy-15_h15_1_34"  />
</g>
<g id="a15_0035"  >
<polygon points="400,85 405,80 411,80 411,90 405,90 400,85 " style="fill:white; stroke-width:1; stroke:black; " description="&lt;b&gt;CAH60157.1&lt;/b&gt;&lt;br&gt;putative glucose-6-phosphate 1-dehydrogenase&lt;br&gt;Location: 33039 - 32077" locus_tag="CAH60157.1" class="clusterblast-orf" id="dummy-15_h15_1_35"  />
</g>
<g id="a15_0036"  >
<polygon points="411,85 416,80 432,80 432,90 416,90 411,85 " style="fill:white; stroke-width:1; stroke:black; " description="&lt;b&gt;CAH60156.1&lt;/b&gt;&lt;br&gt;putative component of transmembrane efflux complex&lt;br&gt;Location: 32068 - 30290" locus_tag="CAH60156.1" class="clusterblast-orf" id="dummy-15_h15_1_36"  />
</g>
<g id="a15_0037"  >
<polygon points="437,90 449,90 454,85 449,80 437,80 437,90 " style="fill:white; stroke-width:1; stroke:black; " description="&lt;b&gt;CAH60155.1&lt;/b&gt;&lt;br&gt;putative N-formimidoyl istamycin A synthase&lt;br&gt;Location: 29793 - 28339" locus_tag="CAH60155.1" class="clusterblast-orf" id="dummy-15_h15_1_37"  />
</g>
<g id="a15_0038"  >
<polygon points="455,90 459,90 464,85 459,80 455,80 455,90 " style="fill:white; stroke-width:1; stroke:black; " description="&lt;b&gt;CAH60154.1&lt;/b&gt;&lt;br&gt;putative N-methyltransferase&lt;br&gt;Location: 28293 - 27460" locus_tag="CAH60154.1" class="clusterblast-orf" id="dummy-15_h15_1_38"  />
</g>
<g id="a15_0039"  >
<polygon points="464,90 464,90 469,85 464,80 464,80 464,90 " style="fill:white; stroke-width:1; stroke:black; " description="&lt;b&gt;CAH60153.1&lt;/b&gt;&lt;br&gt;IstF protein&lt;br&gt;Location: 27463 - 27056" locus_tag="CAH60153.1" class="clusterblast-orf" id="dummy-15_h15_1_39"  />
</g>
<g id="a15_0040"  >
<polygon points="469,90 485,90 490,85 485,80 469,80 469,90 " style="fill:white; stroke-width:1; stroke:black; " description="&lt;b&gt;CAH60152.1&lt;/b&gt;&lt;br&gt;putative efflux protein&lt;br&gt;Location: 27045 - 25180" locus_tag="CAH60152.1" class="clusterblast-orf" id="dummy-15_h15_1_40"  />
</g>
<g id="a15_0041"  >
<polygon points="490,90 501,90 506,85 501,80 490,80 490,90 " style="fill:white; stroke-width:1; stroke:black; " description="&lt;b&gt;CAH60151.1&lt;/b&gt;&lt;br&gt;putative AGA 6'-aminotransferase&lt;br&gt;Location: 25179 - 23833" locus_tag="CAH60151.1" class="clusterblast-orf" id="dummy-15_h15_1_41"  />
</g>
<g id="a15_0042"  >
<polygon points="506,90 510,90 515,85 510,80 506,80 506,90 " style="fill:white; stroke-width:1; stroke:black; " description="&lt;b&gt;CAH60150.1&lt;/b&gt;&lt;br&gt;putative phosphotransferase&lt;br&gt;Location: 23831 - 23010" locus_tag="CAH60150.1" class="clusterblast-orf" id="dummy-15_h15_1_42"  />
</g>
<g id="a15_0043"  >
<polygon points="516,90 520,90 525,85 520,80 516,80 516,90 " style="fill:white; stroke-width:1; stroke:black; " description="&lt;b&gt;CAH60149.1&lt;/b&gt;&lt;br&gt;putative amidase, AGA deacetylase&lt;br&gt;Location: 22905 - 22189" locus_tag="CAH60149.1" class="clusterblast-orf" id="dummy-15_h15_1_43"  />
</g>
<g id="a15_0044"  >
<polygon points="526,90 535,90 540,85 535,80 526,80 526,90 " style="fill:white; stroke-width:1; stroke:black; " description="&lt;b&gt;CAH60148.1&lt;/b&gt;&lt;br&gt;IstA protein&lt;br&gt;Location: 22027 - 20834" locus_tag="CAH60148.1" class="clusterblast-orf" id="dummy-15_h15_1_44"  />
</g>
<g id="a15_0045"  >
<polygon points="540,85 545,80 546,80 546,90 545,90 540,85 " style="fill:white; stroke-width:1; stroke:black; " description="&lt;b&gt;CAH60147.1&lt;/b&gt;&lt;br&gt;16S rRNA methyltransferase&lt;br&gt;Location: 20807 - 20325" locus_tag="CAH60147.1" class="clusterblast-orf" id="dummy-15_h15_1_45"  />
</g>
<g id="a15_0046"  >
<polygon points="549,90 557,90 562,85 557,80 549,80 549,90 " style="fill:white; stroke-width:1; stroke:black; " description="&lt;b&gt;CAH60146.1&lt;/b&gt;&lt;br&gt;IssA protein&lt;br&gt;Location: 20062 - 18896" locus_tag="CAH60146.1" class="clusterblast-orf" id="dummy-15_h15_1_46"  />
</g>
<g id="a15_0047"  >
<polygon points="565,85 570,80 573,80 573,90 570,90 565,85 " style="fill:white; stroke-width:1; stroke:black; " description="&lt;b&gt;CAH60145.1&lt;/b&gt;&lt;br&gt;putative ATP/GTP-binding protein&lt;br&gt;Location: 18677 - 17988" locus_tag="CAH60145.1" class="clusterblast-orf" id="dummy-15_h15_1_47"  />
</g>
<g id="a15_0048"  >
<polygon points="573,85 578,80 582,80 582,90 578,90 573,85 " style="fill:white; stroke-width:1; stroke:black; " description="&lt;b&gt;CAH60144.1&lt;/b&gt;&lt;br&gt;putative GntR-family transcriptional regulator&lt;br&gt;Location: 17991 - 17236" locus_tag="CAH60144.1" class="clusterblast-orf" id="dummy-15_h15_1_48"  />
</g>
<g id="a15_0049"  >
<polygon points="588,90 591,85 588,80 588,90 " style="fill:white; stroke-width:1; stroke:black; " description="&lt;b&gt;CAH60143.1&lt;/b&gt;&lt;br&gt;&lt;br&gt;Location: 16667 - 16452" locus_tag="CAH60143.1" class="clusterblast-orf" id="dummy-15_h15_1_49"  />
</g>
<g id="a15_0050"  >
<polygon points="592,90 595,85 592,80 592,90 " style="fill:white; stroke-width:1; stroke:black; " description="&lt;b&gt;CAH60142.1&lt;/b&gt;&lt;br&gt;hypothetical protein&lt;br&gt;Location: 16312 - 16046" locus_tag="CAH60142.1" class="clusterblast-orf" id="dummy-15_h15_1_50"  />
</g>
<g id="a15_0051"  >
<polygon points="595,90 598,85 595,80 595,90 " style="fill:white; stroke-width:1; stroke:black; " description="&lt;b&gt;CAH60141.1&lt;/b&gt;&lt;br&gt;hypothetical protein&lt;br&gt;Location: 16049 - 15768" locus_tag="CAH60141.1" class="clusterblast-orf" id="dummy-15_h15_1_51"  />
</g>
<g id="a15_0052"  >
<polygon points="599,90 606,90 611,85 606,80 599,80 599,90 " style="fill:white; stroke-width:1; stroke:black; " description="&lt;b&gt;CAH60140.1&lt;/b&gt;&lt;br&gt;putative conjugal transfer protein&lt;br&gt;Location: 15705 - 14644" locus_tag="CAH60140.1" class="clusterblast-orf" id="dummy-15_h15_1_52"  />
</g>
<g id="a15_0053"  >
<polygon points="611,90 615,85 611,80 611,90 " style="fill:white; stroke-width:1; stroke:black; " description="&lt;b&gt;CAH60139.1&lt;/b&gt;&lt;br&gt;hypothetical protein&lt;br&gt;Location: 14647 - 14312" locus_tag="CAH60139.1" class="clusterblast-orf" id="dummy-15_h15_1_53"  />
</g>
<g id="a15_0054"  >
<polygon points="616,90 619,85 616,80 616,90 " style="fill:white; stroke-width:1; stroke:black; " description="&lt;b&gt;CAH60138.1&lt;/b&gt;&lt;br&gt;hypothetical protein&lt;br&gt;Location: 14268 - 13966" locus_tag="CAH60138.1" class="clusterblast-orf" id="dummy-15_h15_1_54"  />
</g>
<g id="a15_0055"  >
<polygon points="619,90 622,85 619,80 619,90 " style="fill:white; stroke-width:1; stroke:black; " description="&lt;b&gt;CAH60137.1&lt;/b&gt;&lt;br&gt;hypothetical protein&lt;br&gt;Location: 13954 - 13694" locus_tag="CAH60137.1" class="clusterblast-orf" id="dummy-15_h15_1_55"  />
</g>
<g id="a15_0056"  >
<polygon points="623,90 640,90 645,85 640,80 623,80 623,90 " style="fill:white; stroke-width:1; stroke:black; " description="&lt;b&gt;CAH60136.1&lt;/b&gt;&lt;br&gt;putative plasmid transfer protein&lt;br&gt;Location: 13602 - 11752" locus_tag="CAH60136.1" class="clusterblast-orf" id="dummy-15_h15_1_56"  />
</g>
<g id="a15_0057"  >
<polygon points="645,90 647,85 645,80 645,90 " style="fill:white; stroke-width:1; stroke:black; " description="&lt;b&gt;CAH60135.1&lt;/b&gt;&lt;br&gt;&lt;br&gt;Location: 11731 - 11513" locus_tag="CAH60135.1" class="clusterblast-orf" id="dummy-15_h15_1_57"  />
</g>
<g id="a15_0058"  >
<polygon points="653,85 658,80 661,80 661,90 658,90 653,85 " style="fill:white; stroke-width:1; stroke:black; " description="&lt;b&gt;CAH60134.1&lt;/b&gt;&lt;br&gt;proline-rich protein&lt;br&gt;Location: 11030 - 10317" locus_tag="CAH60134.1" class="clusterblast-orf" id="dummy-15_h15_1_58"  />
</g>
<g id="a15_0059"  >
<polygon points="666,90 690,90 695,85 690,80 666,80 666,90 " style="fill:white; stroke-width:1; stroke:black; " description="&lt;b&gt;CAH60133.1&lt;/b&gt;&lt;br&gt;putative Clp-family ATP-binding protease&lt;br&gt;Location: 9886 - 7361" locus_tag="CAH60133.1" class="clusterblast-orf" id="dummy-15_h15_1_59"  />
</g>
<g id="a15_0060"  >
<polygon points="702,90 705,90 710,85 705,80 702,80 702,90 " style="fill:white; stroke-width:1; stroke:black; " description="&lt;b&gt;CAH60132.1&lt;/b&gt;&lt;br&gt;putative peptidase&lt;br&gt;Location: 6784 - 6068" locus_tag="CAH60132.1" class="clusterblast-orf" id="dummy-15_h15_1_60"  />
</g>
<g id="a15_0061"  >
<polygon points="710,85 715,80 726,80 726,90 715,90 710,85 " style="fill:white; stroke-width:1; stroke:black; " description="&lt;b&gt;CAH60131.1&lt;/b&gt;&lt;br&gt;putative two-component system sensor kinase&lt;br&gt;Location: 6027 - 4693" locus_tag="CAH60131.1" class="clusterblast-orf" id="dummy-15_h15_1_61"  />
</g>
<g id="a15_0062"  >
<polygon points="727,85 732,80 735,80 735,90 732,90 727,85 " style="fill:white; stroke-width:1; stroke:black; " description="&lt;b&gt;CAH60130.1&lt;/b&gt;&lt;br&gt;putative two-component response regulator&lt;br&gt;Location: 4564 - 3860" locus_tag="CAH60130.1" class="clusterblast-orf" id="dummy-15_h15_1_62"  />
</g>
<g id="a15_0063"  >
<polygon points="735,85 740,80 743,80 743,90 740,90 735,85 " style="fill:white; stroke-width:1; stroke:black; " description="&lt;b&gt;CAH60129.1&lt;/b&gt;&lt;br&gt;hypothetical protein&lt;br&gt;Location: 3840 - 3220" locus_tag="CAH60129.1" class="clusterblast-orf" id="dummy-15_h15_1_63"  />
</g>
<g id="a15_0064"  >
<polygon points="745,85 750,80 756,80 756,90 750,90 745,85 " style="fill:white; stroke-width:1; stroke:black; " description="&lt;b&gt;CAH60128.1&lt;/b&gt;&lt;br&gt;putative RNA polymerase ECF-subfamily sigma factor&lt;br&gt;Location: 2971 - 2006" locus_tag="CAH60128.1" class="clusterblast-orf" id="dummy-15_h15_1_64"  />
</g>
<g id="a15_0065"  >
<polygon points="757,85 762,80 768,80 768,90 762,90 757,85 " style="fill:white; stroke-width:1; stroke:black; " description="&lt;b&gt;CAH60127.1&lt;/b&gt;&lt;br&gt;putative adenine glycosylase&lt;br&gt;Location: 1955 - 1011" locus_tag="CAH60127.1" class="clusterblast-orf" id="dummy-15_h15_1_65"  />
</g>
<g id="a15_0066"  >
<polygon points="768,85 773,80 780,80 780,90 773,90 768,85 " style="fill:white; stroke-width:1; stroke:black; " description="&lt;b&gt;CAH60126.1&lt;/b&gt;&lt;br&gt;putative transport permease&lt;br&gt;Location: 967 - 1" locus_tag="CAH60126.1" class="clusterblast-orf" id="dummy-15_h15_1_66"  />
</g>
</svg>
