<svg xmlns="http://www.w3.org/2000/svg" xmlns:xlink="http://www.w3.org/1999/xlink" version="1.1" x="0" y="0" height="50" width="800" viewBox="0 0 800 50" preserveAspectRatio="none"  >
<g label="Query sequence" class="clusterblast-cluster"  >
<text x="5" y="20" class="clusterblast-acc"  >
Query sequence</text>
<line x1="10" y1="35" x2="778.0" y2="35" style="stroke-width:1; stroke:grey; "  />
<polygon points="0,40 86,40 91,35 86,30 0,30 0,40 " style="fill:white; stroke-width:1; stroke:black; " description="&lt;b&gt;LLPMBPKK_07646&lt;/b&gt;&lt;br&gt;CHAT domain protein&lt;br&gt;Location: 8902584 - 8907312" locus_tag="LLPMBPKK_07646" class="clusterblast-orf" id="subclusterblast-35_q0_0_all"  />
<polygon points="96,40 106,40 111,35 106,30 96,30 96,40 " style="fill:white; stroke-width:1; stroke:black; " description="&lt;b&gt;LLPMBPKK_07647&lt;/b&gt;&lt;br&gt;trypsin-like serine protease&lt;br&gt;Location: 8907570 - 8908341" locus_tag="LLPMBPKK_07647" class="clusterblast-orf" id="subclusterblast-35_q1_0_all"  />
<polygon points="113,35 118,30 119,30 119,40 118,40 113,35 " style="fill:white; stroke-width:1; stroke:black; " description="&lt;b&gt;LLPMBPKK_07648&lt;/b&gt;&lt;br&gt;hypothetical protein&lt;br&gt;Location: 8908431 - 8908731" locus_tag="LLPMBPKK_07648" class="clusterblast-orf" id="subclusterblast-35_q2_0_all"  />
<polygon points="119,35 124,30 136,30 136,40 124,40 119,35 " style="fill:white; stroke-width:1; stroke:black; " description="&lt;b&gt;LLPMBPKK_07649&lt;/b&gt;&lt;br&gt;nucleoside-diphosphate sugar epimerase&lt;br&gt;Location: 8908760 - 8909630" locus_tag="LLPMBPKK_07649" class="clusterblast-orf" id="subclusterblast-35_q3_0_all"  />
<polygon points="141,35 146,30 154,30 154,40 146,40 141,35 " style="fill:white; stroke-width:1; stroke:black; " description="&lt;b&gt;LLPMBPKK_07650&lt;/b&gt;&lt;br&gt;NAD-dependent epimerase/dehydratase&lt;br&gt;Location: 8909896 - 8910538" locus_tag="LLPMBPKK_07650" class="clusterblast-orf" id="subclusterblast-35_q4_0_all"  />
<polygon points="157,40 170,40 175,35 170,30 157,30 157,40 " style="fill:white; stroke-width:1; stroke:black; " description="&lt;b&gt;LLPMBPKK_07651&lt;/b&gt;&lt;br&gt;AraC family transcriptional regulator&lt;br&gt;Location: 8910722 - 8911637" locus_tag="LLPMBPKK_07651" class="clusterblast-orf" id="subclusterblast-35_q5_0_all"  />
<polygon points="175,40 178,35 175,30 175,40 " style="fill:white; stroke-width:1; stroke:black; " description="&lt;b&gt;LLPMBPKK_07652&lt;/b&gt;&lt;br&gt;hypothetical protein&lt;br&gt;Location: 8911633 - 8911795" locus_tag="LLPMBPKK_07652" class="clusterblast-orf" id="subclusterblast-35_q6_0_all"  />
<polygon points="180,40 184,40 189,35 184,30 180,30 180,40 " style="fill:white; stroke-width:1; stroke:black; " description="&lt;b&gt;LLPMBPKK_07653&lt;/b&gt;&lt;br&gt;acetyltransferase&lt;br&gt;Location: 8911878 - 8912385" locus_tag="LLPMBPKK_07653" class="clusterblast-orf" id="subclusterblast-35_q7_0_all"  />
<polygon points="191,35 196,30 197,30 197,40 196,40 191,35 " style="fill:white; stroke-width:1; stroke:black; " description="&lt;b&gt;LLPMBPKK_07654&lt;/b&gt;&lt;br&gt;hypothetical protein&lt;br&gt;Location: 8912474 - 8912750" locus_tag="LLPMBPKK_07654" class="clusterblast-orf" id="subclusterblast-35_q8_0_all"  />
<polygon points="197,40 201,35 197,30 197,40 " style="fill:white; stroke-width:1; stroke:black; " description="&lt;b&gt;LLPMBPKK_07655&lt;/b&gt;&lt;br&gt;hypothetical protein&lt;br&gt;Location: 8912769 - 8912967" locus_tag="LLPMBPKK_07655" class="clusterblast-orf" id="subclusterblast-35_q9_0_all"  />
<polygon points="202,35 207,30 214,30 214,40 207,40 202,35 " style="fill:white; stroke-width:1; stroke:black; " description="&lt;b&gt;LLPMBPKK_07656&lt;/b&gt;&lt;br&gt;SUKH-4 immunity protein&lt;br&gt;Location: 8913045 - 8913663" locus_tag="LLPMBPKK_07656" class="clusterblast-orf" id="subclusterblast-35_q10_0_all"  />
<polygon points="219,35 224,30 238,30 238,40 224,40 219,35 " style="fill:white; stroke-width:1; stroke:black; " description="&lt;b&gt;LLPMBPKK_07657&lt;/b&gt;&lt;br&gt;type I glyceraldehyde-3-phosphate dehydrogenase&lt;br&gt;Location: 8913910 - 8914909" locus_tag="LLPMBPKK_07657" class="clusterblast-orf" id="subclusterblast-35_q11_0_all"  />
<polygon points="241,35 246,30 260,30 260,40 246,40 241,35 " style="fill:white; stroke-width:1; stroke:black; " description="&lt;b&gt;LLPMBPKK_07658&lt;/b&gt;&lt;br&gt;helix-turn-helix domain-containing protein&lt;br&gt;Location: 8915051 - 8916008" locus_tag="LLPMBPKK_07658" class="clusterblast-orf" id="subclusterblast-35_q12_0_all"  />
<polygon points="262,40 268,40 273,35 268,30 262,30 262,40 " style="fill:white; stroke-width:1; stroke:black; " description="&lt;b&gt;LLPMBPKK_07659&lt;/b&gt;&lt;br&gt;hypothetical protein&lt;br&gt;Location: 8916122 - 8916722" locus_tag="LLPMBPKK_07659" class="clusterblast-orf" id="subclusterblast-35_q13_0_all"  />
<polygon points="276,35 281,30 281,30 281,40 281,40 276,35 " style="fill:white; stroke-width:1; stroke:black; " description="&lt;b&gt;LLPMBPKK_07660&lt;/b&gt;&lt;br&gt;hypothetical protein&lt;br&gt;Location: 8916870 - 8917101" locus_tag="LLPMBPKK_07660" class="clusterblast-orf" id="subclusterblast-35_q14_0_all"  />
<polygon points="288,35 292,30 292,40 288,35 " style="fill:white; stroke-width:1; stroke:black; " description="&lt;b&gt;LLPMBPKK_07661&lt;/b&gt;&lt;br&gt;hypothetical protein&lt;br&gt;Location: 8917453 - 8917699" locus_tag="LLPMBPKK_07661" class="clusterblast-orf" id="subclusterblast-35_q15_0_all"  />
<polygon points="299,40 318,40 323,35 318,30 299,30 299,40 " style="fill:white; stroke-width:1; stroke:black; " description="&lt;b&gt;LLPMBPKK_07662&lt;/b&gt;&lt;br&gt;PAS domain-containing protein&lt;br&gt;Location: 8918036 - 8919302" locus_tag="LLPMBPKK_07662" class="clusterblast-orf" id="subclusterblast-35_q16_0_all"  />
<polygon points="329,40 366,40 371,35 366,30 329,30 329,40 " style="fill:white; stroke-width:1; stroke:black; " description="&lt;b&gt;LLPMBPKK_07663&lt;/b&gt;&lt;br&gt;GAF domain-containing protein&lt;br&gt;Location: 8919599 - 8921762" locus_tag="LLPMBPKK_07663" class="clusterblast-orf" id="subclusterblast-35_q17_0_all"  />
<polygon points="374,35 379,30 397,30 397,40 379,40 374,35 " style="fill:white; stroke-width:1; stroke:black; " description="&lt;b&gt;LLPMBPKK_07664&lt;/b&gt;&lt;br&gt;polyketide synthase&lt;br&gt;Location: 8921899 - 8923087" locus_tag="LLPMBPKK_07664" class="clusterblast-orf" id="subclusterblast-35_q18_0_all"  />
<polygon points="404,35 409,30 411,30 411,40 409,40 404,35 " style="fill:white; stroke-width:1; stroke:black; " description="&lt;b&gt;LLPMBPKK_07665&lt;/b&gt;&lt;br&gt;antibiotic biosynthesis monooxygenase&lt;br&gt;Location: 8923483 - 8923816" locus_tag="LLPMBPKK_07665" class="clusterblast-orf" id="subclusterblast-35_q19_0_all"  />
<polygon points="414,35 419,30 467,30 467,40 419,40 414,35 " style="fill:white; stroke-width:1; stroke:black; " description="&lt;b&gt;LLPMBPKK_07666&lt;/b&gt;&lt;br&gt;GAF domain-containing protein&lt;br&gt;Location: 8924003 - 8926706" locus_tag="LLPMBPKK_07666" class="clusterblast-orf" id="subclusterblast-35_q20_0_all"  />
<polygon points="474,40 490,40 495,35 490,30 474,30 474,40 " style="fill:white; stroke-width:1; stroke:black; " description="&lt;b&gt;LLPMBPKK_07667&lt;/b&gt;&lt;br&gt;serine/threonine-protein phosphatase&lt;br&gt;Location: 8927096 - 8928152" locus_tag="LLPMBPKK_07667" class="clusterblast-orf" id="subclusterblast-35_q21_0_all"  />
<polygon points="496,35 501,30 519,30 519,40 501,40 496,35 " style="fill:white; stroke-width:1; stroke:black; " description="&lt;b&gt;LLPMBPKK_07668&lt;/b&gt;&lt;br&gt;PAS domain-containing protein&lt;br&gt;Location: 8928234 - 8929401" locus_tag="LLPMBPKK_07668" class="clusterblast-orf" id="subclusterblast-35_q22_0_all"  />
<polygon points="547,40 554,40 559,35 554,30 547,30 547,40 " style="fill:white; stroke-width:1; stroke:black; " description="&lt;b&gt;LLPMBPKK_07669&lt;/b&gt;&lt;br&gt;PadR family transcriptional regulator&lt;br&gt;Location: 8930863 - 8931451" locus_tag="LLPMBPKK_07669" class="clusterblast-orf" id="subclusterblast-35_q23_0_all"  />
<polygon points="562,40 590,40 595,35 590,30 562,30 562,40 " style="fill:white; stroke-width:1; stroke:black; " description="&lt;b&gt;LLPMBPKK_07670&lt;/b&gt;&lt;br&gt;acyl-CoA dehydrogenase&lt;br&gt;Location: 8931616 - 8933341" locus_tag="LLPMBPKK_07670" class="clusterblast-orf" id="subclusterblast-35_q24_0_all"  />
<polygon points="602,40 613,40 618,35 613,30 602,30 602,40 " style="fill:white; stroke-width:1; stroke:black; " description="&lt;b&gt;LLPMBPKK_07671&lt;/b&gt;&lt;br&gt;hypothetical protein&lt;br&gt;Location: 8933684 - 8934527" locus_tag="LLPMBPKK_07671" class="clusterblast-orf" id="subclusterblast-35_q25_0_all"  />
<polygon points="619,40 623,35 619,30 619,40 " style="fill:white; stroke-width:1; stroke:black; " description="&lt;b&gt;LLPMBPKK_07672&lt;/b&gt;&lt;br&gt;hypothetical protein&lt;br&gt;Location: 8934573 - 8934774" locus_tag="LLPMBPKK_07672" class="clusterblast-orf" id="subclusterblast-35_q26_0_all"  />
<polygon points="626,40 646,40 651,35 646,30 626,30 626,40 " style="fill:white; stroke-width:1; stroke:black; " description="&lt;b&gt;LLPMBPKK_07673&lt;/b&gt;&lt;br&gt;oxidoreductase&lt;br&gt;Location: 8934937 - 8936233" locus_tag="LLPMBPKK_07673" class="clusterblast-orf" id="subclusterblast-35_q27_0_all"  />
<polygon points="651,40 665,40 670,35 665,30 651,30 651,40 " style="fill:white; stroke-width:1; stroke:black; " description="&lt;b&gt;LLPMBPKK_07674&lt;/b&gt;&lt;br&gt;sigma-70 family RNA polymerase sigma factor&lt;br&gt;Location: 8936251 - 8937205" locus_tag="LLPMBPKK_07674" class="clusterblast-orf" id="subclusterblast-35_q28_0_all"  />
<polygon points="673,35 678,30 697,30 697,40 678,40 673,35 " style="fill:white; stroke-width:1; stroke:black; " description="&lt;b&gt;LLPMBPKK_07675&lt;/b&gt;&lt;br&gt;glycosyl transferase family protein&lt;br&gt;Location: 8937383 - 8938619" locus_tag="LLPMBPKK_07675" class="clusterblast-orf" id="subclusterblast-35_q29_0_all"  />
<polygon points="710,40 727,40 732,35 727,30 710,30 710,40 " style="fill:white; stroke-width:1; stroke:black; " description="&lt;b&gt;LLPMBPKK_07676&lt;/b&gt;&lt;br&gt;hypothetical protein&lt;br&gt;Location: 8939287 - 8940421" locus_tag="LLPMBPKK_07676" class="clusterblast-orf" id="subclusterblast-35_q30_0_all"  />
<polygon points="739,40 745,40 750,35 745,30 739,30 739,40 " style="fill:white; stroke-width:1; stroke:black; " description="&lt;b&gt;LLPMBPKK_07677&lt;/b&gt;&lt;br&gt;hypothetical protein&lt;br&gt;Location: 8940785 - 8941319" locus_tag="LLPMBPKK_07677" class="clusterblast-orf" id="subclusterblast-35_q31_0_all"  />
<polygon points="753,40 775,40 780,35 775,30 753,30 753,40 " style="fill:white; stroke-width:1; stroke:black; " description="&lt;b&gt;LLPMBPKK_07678&lt;/b&gt;&lt;br&gt;hypothetical protein&lt;br&gt;Location: 8941473 - 8942874" locus_tag="LLPMBPKK_07678" class="clusterblast-orf" id="subclusterblast-35_q32_0_all"  />
</g>
</svg>
