<svg xmlns="http://www.w3.org/2000/svg" xmlns:xlink="http://www.w3.org/1999/xlink" version="1.1" x="0" y="0" height="50" width="800" viewBox="0 0 800 50" preserveAspectRatio="none"  >
<g label="Query sequence" class="clusterblast-cluster"  >
<text x="5" y="20" class="clusterblast-acc"  >
Query sequence</text>
<line x1="10" y1="35" x2="778.0" y2="35" style="stroke-width:1; stroke:grey; "  />
<polygon points="0,40 102,40 107,35 102,30 0,30 0,40 " style="fill:white; stroke-width:1; stroke:black; " description="&lt;b&gt;LLPMBPKK_06021&lt;/b&gt;&lt;br&gt;3' terminal RNA ribose 2'-O-methyltransferaseHen1&lt;br&gt;Location: 6941527 - 6942991" locus_tag="LLPMBPKK_06021" class="clusterblast-orf" id="subclusterblast-23_q0_0_all"  />
<polygon points="107,40 288,40 293,35 288,30 107,30 107,40 " style="fill:white; stroke-width:1; stroke:black; " description="&lt;b&gt;LLPMBPKK_06022&lt;/b&gt;&lt;br&gt;phosphatase&lt;br&gt;Location: 6942987 - 6945534" locus_tag="LLPMBPKK_06022" class="clusterblast-orf" id="subclusterblast-23_q1_0_all"  />
<polygon points="308,40 438,40 443,35 438,30 308,30 308,40 " style="fill:white; stroke-width:1; stroke:black; " description="&lt;b&gt;LLPMBPKK_06023&lt;/b&gt;&lt;br&gt;RiPP maturation radical SAM protein 1&lt;br&gt;Location: 6945736 - 6947584" locus_tag="LLPMBPKK_06023" class="clusterblast-orf" id="subclusterblast-23_q2_0_all"  />
<polygon points="443,40 477,40 482,35 477,30 443,30 443,40 " style="fill:white; stroke-width:1; stroke:black; " description="&lt;b&gt;LLPMBPKK_06024&lt;/b&gt;&lt;br&gt;hypothetical protein&lt;br&gt;Location: 6947580 - 6948120" locus_tag="LLPMBPKK_06024" class="clusterblast-orf" id="subclusterblast-23_q3_0_all"  />
<polygon points="493,40 533,40 538,35 533,30 493,30 493,40 " style="fill:white; stroke-width:1; stroke:black; " description="&lt;b&gt;LLPMBPKK_06025&lt;/b&gt;&lt;br&gt;hypothetical protein&lt;br&gt;Location: 6948274 - 6948883" locus_tag="LLPMBPKK_06025" class="clusterblast-orf" id="subclusterblast-23_q4_0_all"  />
<polygon points="539,40 647,40 652,35 647,30 539,30 539,40 " style="fill:white; stroke-width:1; stroke:black; " description="&lt;b&gt;LLPMBPKK_06026&lt;/b&gt;&lt;br&gt;large membrane protein&lt;br&gt;Location: 6948902 - 6950441" locus_tag="LLPMBPKK_06026" class="clusterblast-orf" id="subclusterblast-23_q5_0_all"  />
<polygon points="652,40 702,40 707,35 702,30 652,30 652,40 " style="fill:white; stroke-width:1; stroke:black; " description="&lt;b&gt;LLPMBPKK_06027&lt;/b&gt;&lt;br&gt;putative nucleotide-binding protein containingTIR-like domain protein&lt;br&gt;Location: 6950437 - 6951190" locus_tag="LLPMBPKK_06027" class="clusterblast-orf" id="subclusterblast-23_q6_0_all"  />
<polygon points="713,35 718,30 780,30 780,40 718,40 713,35 " style="fill:white; stroke-width:1; stroke:black; " description="&lt;b&gt;LLPMBPKK_06028&lt;/b&gt;&lt;br&gt;hypothetical protein&lt;br&gt;Location: 6951282 - 6952197" locus_tag="LLPMBPKK_06028" class="clusterblast-orf" id="subclusterblast-23_q7_0_all"  />
</g>
</svg>
