<svg xmlns="http://www.w3.org/2000/svg" xmlns:xlink="http://www.w3.org/1999/xlink" version="1.1" x="0" y="0" height="50" width="800" viewBox="0 0 800 50" preserveAspectRatio="none"  >
<g label="Query sequence" class="clusterblast-cluster"  >
<text x="5" y="20" class="clusterblast-acc"  >
Query sequence</text>
<line x1="10" y1="35" x2="778.0" y2="35" style="stroke-width:1; stroke:grey; "  />
<polygon points="0,35 5,30 21,30 21,40 5,40 0,35 " style="fill:white; stroke-width:1; stroke:black; " description="&lt;b&gt;LLPMBPKK_07859&lt;/b&gt;&lt;br&gt;Protein TolB&lt;br&gt;Location: 9171151 - 9172210" locus_tag="LLPMBPKK_07859" class="clusterblast-orf" id="subclusterblast-37_q0_0_all"  />
<polygon points="24,35 29,30 35,30 35,40 29,40 24,35 " style="fill:white; stroke-width:1; stroke:black; " description="&lt;b&gt;LLPMBPKK_07860&lt;/b&gt;&lt;br&gt;hypothetical protein&lt;br&gt;Location: 9172341 - 9172887" locus_tag="LLPMBPKK_07860" class="clusterblast-orf" id="subclusterblast-37_q1_0_all"  />
<polygon points="40,35 45,30 56,30 56,40 45,40 40,35 " style="fill:white; stroke-width:1; stroke:black; " description="&lt;b&gt;LLPMBPKK_07861&lt;/b&gt;&lt;br&gt;XRE family transcriptional regulator&lt;br&gt;Location: 9173124 - 9173910" locus_tag="LLPMBPKK_07861" class="clusterblast-orf" id="subclusterblast-37_q2_0_all"  />
<polygon points="57,40 68,40 73,35 68,30 57,30 57,40 " style="fill:white; stroke-width:1; stroke:black; " description="&lt;b&gt;LLPMBPKK_07862&lt;/b&gt;&lt;br&gt;short chain dehydrogenase&lt;br&gt;Location: 9173973 - 9174780" locus_tag="LLPMBPKK_07862" class="clusterblast-orf" id="subclusterblast-37_q3_0_all"  />
<polygon points="81,40 99,40 104,35 99,30 81,30 81,40 " style="fill:white; stroke-width:1; stroke:black; " description="&lt;b&gt;LLPMBPKK_07863&lt;/b&gt;&lt;br&gt;serine hydrolase&lt;br&gt;Location: 9175151 - 9176300" locus_tag="LLPMBPKK_07863" class="clusterblast-orf" id="subclusterblast-37_q4_0_all"  />
<polygon points="111,35 116,30 140,30 140,40 116,40 111,35 " style="fill:white; stroke-width:1; stroke:black; " description="&lt;b&gt;LLPMBPKK_07864&lt;/b&gt;&lt;br&gt;Tryptophan halogenase&lt;br&gt;Location: 9176636 - 9178058" locus_tag="LLPMBPKK_07864" class="clusterblast-orf" id="subclusterblast-37_q5_0_all"  />
<polygon points="141,40 160,40 165,35 160,30 141,30 141,40 " style="fill:white; stroke-width:1; stroke:black; " description="&lt;b&gt;LLPMBPKK_07865&lt;/b&gt;&lt;br&gt;carboxylate-amine ligase&lt;br&gt;Location: 9178132 - 9179308" locus_tag="LLPMBPKK_07865" class="clusterblast-orf" id="subclusterblast-37_q6_0_all"  />
<polygon points="176,35 181,30 181,30 181,40 181,40 176,35 " style="fill:white; stroke-width:1; stroke:black; " description="&lt;b&gt;LLPMBPKK_07866&lt;/b&gt;&lt;br&gt;hypothetical protein&lt;br&gt;Location: 9179819 - 9180095" locus_tag="LLPMBPKK_07866" class="clusterblast-orf" id="subclusterblast-37_q7_0_all"  />
<polygon points="184,35 189,30 201,30 201,40 189,40 184,35 " style="fill:white; stroke-width:1; stroke:black; " description="&lt;b&gt;LLPMBPKK_07867&lt;/b&gt;&lt;br&gt;myo-inositol-1(or 4)-monophosphatase&lt;br&gt;Location: 9180229 - 9181078" locus_tag="LLPMBPKK_07867" class="clusterblast-orf" id="subclusterblast-37_q8_0_all"  />
<polygon points="212,40 218,40 223,35 218,30 212,30 212,40 " style="fill:white; stroke-width:1; stroke:black; " description="&lt;b&gt;LLPMBPKK_07868&lt;/b&gt;&lt;br&gt;hydrolase&lt;br&gt;Location: 9181593 - 9182154" locus_tag="LLPMBPKK_07868" class="clusterblast-orf" id="subclusterblast-37_q9_0_all"  />
<polygon points="231,35 236,30 256,30 256,40 236,40 231,35 " style="fill:white; stroke-width:1; stroke:black; " description="&lt;b&gt;LLPMBPKK_07869&lt;/b&gt;&lt;br&gt;oxidoreductase&lt;br&gt;Location: 9182549 - 9183800" locus_tag="LLPMBPKK_07869" class="clusterblast-orf" id="subclusterblast-37_q10_0_all"  />
<polygon points="258,40 265,40 270,35 265,30 258,30 258,40 " style="fill:white; stroke-width:1; stroke:black; " description="&lt;b&gt;LLPMBPKK_07870&lt;/b&gt;&lt;br&gt;TetR family transcriptional regulator&lt;br&gt;Location: 9183879 - 9184491" locus_tag="LLPMBPKK_07870" class="clusterblast-orf" id="subclusterblast-37_q11_0_all"  />
<polygon points="279,35 284,30 313,30 313,40 284,40 279,35 " style="fill:white; stroke-width:1; stroke:black; " description="&lt;b&gt;LLPMBPKK_07871&lt;/b&gt;&lt;br&gt;peptidase M4&lt;br&gt;Location: 9184939 - 9186577" locus_tag="LLPMBPKK_07871" class="clusterblast-orf" id="subclusterblast-37_q12_0_all"  />
<polygon points="321,35 326,30 349,30 349,40 326,40 321,35 " style="fill:white; stroke-width:1; stroke:black; " description="&lt;b&gt;LLPMBPKK_07872&lt;/b&gt;&lt;br&gt;PAS domain S-box protein&lt;br&gt;Location: 9186998 - 9188384" locus_tag="LLPMBPKK_07872" class="clusterblast-orf" id="subclusterblast-37_q13_0_all"  />
<polygon points="357,40 380,40 385,35 380,30 357,30 357,40 " style="fill:white; stroke-width:1; stroke:black; " description="&lt;b&gt;LLPMBPKK_07873&lt;/b&gt;&lt;br&gt;ATP-grasp domain-containing protein&lt;br&gt;Location: 9188751 - 9190125" locus_tag="LLPMBPKK_07873" class="clusterblast-orf" id="subclusterblast-37_q14_0_all"  />
<polygon points="385,40 421,40 426,35 421,30 385,30 385,40 " style="fill:white; stroke-width:1; stroke:black; " description="&lt;b&gt;LLPMBPKK_07874&lt;/b&gt;&lt;br&gt;phosphoenolpyruvate synthase&lt;br&gt;Location: 9190121 - 9192152" locus_tag="LLPMBPKK_07874" class="clusterblast-orf" id="subclusterblast-37_q15_0_all"  />
<polygon points="426,40 449,40 454,35 449,30 426,30 426,40 " style="fill:white; stroke-width:1; stroke:black; " description="&lt;b&gt;LLPMBPKK_07875&lt;/b&gt;&lt;br&gt;MFS transporter&lt;br&gt;Location: 9192160 - 9193537" locus_tag="LLPMBPKK_07875" class="clusterblast-orf" id="subclusterblast-37_q16_0_all"  />
<polygon points="457,35 462,30 463,30 463,40 462,40 457,35 " style="fill:white; stroke-width:1; stroke:black; " description="&lt;b&gt;LLPMBPKK_07876&lt;/b&gt;&lt;br&gt;hypothetical protein&lt;br&gt;Location: 9193707 - 9194004" locus_tag="LLPMBPKK_07876" class="clusterblast-orf" id="subclusterblast-37_q17_0_all"  />
<polygon points="466,40 470,35 466,30 466,40 " style="fill:white; stroke-width:1; stroke:black; " description="&lt;b&gt;LLPMBPKK_07877&lt;/b&gt;&lt;br&gt;hypothetical protein&lt;br&gt;Location: 9194132 - 9194330" locus_tag="LLPMBPKK_07877" class="clusterblast-orf" id="subclusterblast-37_q18_0_all"  />
<polygon points="469,35 474,30 475,30 475,40 474,40 469,35 " style="fill:white; stroke-width:1; stroke:black; " description="&lt;b&gt;LLPMBPKK_07878&lt;/b&gt;&lt;br&gt;hypothetical protein&lt;br&gt;Location: 9194268 - 9194583" locus_tag="LLPMBPKK_07878" class="clusterblast-orf" id="subclusterblast-37_q19_0_all"  />
<polygon points="480,35 485,30 506,30 506,40 485,40 480,35 " style="fill:white; stroke-width:1; stroke:black; " description="&lt;b&gt;LLPMBPKK_07879&lt;/b&gt;&lt;br&gt;major facilitator superfamily transporter&lt;br&gt;Location: 9194832 - 9196128" locus_tag="LLPMBPKK_07879" class="clusterblast-orf" id="subclusterblast-37_q20_0_all"  />
<polygon points="506,35 511,30 517,30 517,40 511,40 506,35 " style="fill:white; stroke-width:1; stroke:black; " description="&lt;b&gt;LLPMBPKK_07880&lt;/b&gt;&lt;br&gt;Helix-turn-helix domain protein&lt;br&gt;Location: 9196124 - 9196664" locus_tag="LLPMBPKK_07880" class="clusterblast-orf" id="subclusterblast-37_q21_0_all"  />
<polygon points="519,40 519,40 524,35 519,30 519,30 519,40 " style="fill:white; stroke-width:1; stroke:black; " description="&lt;b&gt;LLPMBPKK_07881&lt;/b&gt;&lt;br&gt;MarR family transcriptional regulator&lt;br&gt;Location: 9196772 - 9196979" locus_tag="LLPMBPKK_07881" class="clusterblast-orf" id="subclusterblast-37_q22_0_all"  />
<polygon points="532,35 537,30 539,30 539,40 537,40 532,35 " style="fill:white; stroke-width:1; stroke:black; " description="&lt;b&gt;LLPMBPKK_07882&lt;/b&gt;&lt;br&gt;hypothetical protein&lt;br&gt;Location: 9197378 - 9197711" locus_tag="LLPMBPKK_07882" class="clusterblast-orf" id="subclusterblast-37_q23_0_all"  />
<polygon points="546,35 551,30 555,30 555,40 551,40 546,35 " style="fill:white; stroke-width:1; stroke:black; " description="&lt;b&gt;LLPMBPKK_07883&lt;/b&gt;&lt;br&gt;VOC family protein&lt;br&gt;Location: 9198102 - 9198510" locus_tag="LLPMBPKK_07883" class="clusterblast-orf" id="subclusterblast-37_q24_0_all"  />
<polygon points="564,40 625,40 630,35 625,30 564,30 564,40 " style="fill:white; stroke-width:1; stroke:black; " description="&lt;b&gt;LLPMBPKK_07884&lt;/b&gt;&lt;br&gt;Protein TolB&lt;br&gt;Location: 9198952 - 9202243" locus_tag="LLPMBPKK_07884" class="clusterblast-orf" id="subclusterblast-37_q25_0_all"  />
<polygon points="634,35 639,30 654,30 654,40 639,40 634,35 " style="fill:white; stroke-width:1; stroke:black; " description="&lt;b&gt;LLPMBPKK_07885&lt;/b&gt;&lt;br&gt;hypothetical protein&lt;br&gt;Location: 9202432 - 9203407" locus_tag="LLPMBPKK_07885" class="clusterblast-orf" id="subclusterblast-37_q26_0_all"  />
<polygon points="656,40 661,40 666,35 661,30 656,30 656,40 " style="fill:white; stroke-width:1; stroke:black; " description="&lt;b&gt;LLPMBPKK_07886&lt;/b&gt;&lt;br&gt;MarR family transcriptional regulator&lt;br&gt;Location: 9203525 - 9204002" locus_tag="LLPMBPKK_07886" class="clusterblast-orf" id="subclusterblast-37_q27_0_all"  />
<polygon points="669,35 674,30 677,30 677,40 674,40 669,35 " style="fill:white; stroke-width:1; stroke:black; " description="&lt;b&gt;LLPMBPKK_07887&lt;/b&gt;&lt;br&gt;GNAT family N-acetyltransferase&lt;br&gt;Location: 9204119 - 9204515" locus_tag="LLPMBPKK_07887" class="clusterblast-orf" id="subclusterblast-37_q28_0_all"  />
<polygon points="690,40 710,40 715,35 710,30 690,30 690,40 " style="fill:white; stroke-width:1; stroke:black; " description="&lt;b&gt;LLPMBPKK_07888&lt;/b&gt;&lt;br&gt;serine/threonine-protein phosphatase&lt;br&gt;Location: 9205196 - 9206399" locus_tag="LLPMBPKK_07888" class="clusterblast-orf" id="subclusterblast-37_q29_0_all"  />
<polygon points="724,35 729,30 729,30 729,40 729,40 724,35 " style="fill:white; stroke-width:1; stroke:black; " description="&lt;b&gt;LLPMBPKK_07889&lt;/b&gt;&lt;br&gt;transposase&lt;br&gt;Location: 9206839 - 9207100" locus_tag="LLPMBPKK_07889" class="clusterblast-orf" id="subclusterblast-37_q30_0_all"  />
<polygon points="730,35 735,30 747,30 747,40 735,40 730,35 " style="fill:white; stroke-width:1; stroke:black; " description="&lt;b&gt;LLPMBPKK_07890&lt;/b&gt;&lt;br&gt;class I SAM-dependent methyltransferase&lt;br&gt;Location: 9207165 - 9207993" locus_tag="LLPMBPKK_07890" class="clusterblast-orf" id="subclusterblast-37_q31_0_all"  />
<polygon points="763,40 775,40 780,35 775,30 763,30 763,40 " style="fill:white; stroke-width:1; stroke:black; " description="&lt;b&gt;LLPMBPKK_07891&lt;/b&gt;&lt;br&gt;alpha/beta hydrolase&lt;br&gt;Location: 9208770 - 9209598" locus_tag="LLPMBPKK_07891" class="clusterblast-orf" id="subclusterblast-37_q32_0_all"  />
</g>
</svg>
