<svg xmlns="http://www.w3.org/2000/svg" xmlns:xlink="http://www.w3.org/1999/xlink" version="1.1" x="0" y="0" height="300" width="800" viewBox="0 0 800 300" preserveAspectRatio="none"  >
<g label="Query sequence" class="clusterblast-cluster"  >
<text x="5" y="20" class="clusterblast-acc"  >
Query sequence</text>
<line x1="10" y1="35" x2="778.0" y2="35" style="stroke-width:1; stroke:grey; "  />
<polygon points="0,40 3,40 8,35 3,30 0,30 0,40 " style="fill:white; stroke-width:1; stroke:black; " description="&lt;b&gt;LLPMBPKK_06896&lt;/b&gt;&lt;br&gt;oxidoreductase&lt;br&gt;Location: 7938673 - 7939900" locus_tag="LLPMBPKK_06896" class="clusterblast-orf" id="subclusterblast-30_q0_0_all"  />
<polygon points="9,35 14,30 14,30 14,40 14,40 9,35 " style="fill:white; stroke-width:1; stroke:black; " description="&lt;b&gt;LLPMBPKK_06897&lt;/b&gt;&lt;br&gt;crotonase/enoyl-CoA hydratase family protein&lt;br&gt;Location: 7939930 - 7940695" locus_tag="LLPMBPKK_06897" class="clusterblast-orf" id="subclusterblast-30_q1_0_all"  />
<polygon points="14,35 19,30 21,30 21,40 19,40 14,35 " style="fill:white; stroke-width:1; stroke:black; " description="&lt;b&gt;LLPMBPKK_06898&lt;/b&gt;&lt;br&gt;flippase-like domain-containing protein&lt;br&gt;Location: 7940739 - 7941705" locus_tag="LLPMBPKK_06898" class="clusterblast-orf" id="subclusterblast-30_q2_0_all"  />
<polygon points="22,40 30,40 35,35 30,30 22,30 22,40 " style="fill:white; stroke-width:1; stroke:black; " description="&lt;b&gt;LLPMBPKK_06899&lt;/b&gt;&lt;br&gt;ABC transporter ATP-binding protein&lt;br&gt;Location: 7941795 - 7943691" locus_tag="LLPMBPKK_06899" class="clusterblast-orf" id="subclusterblast-30_q3_0_all"  />
<polygon points="36,35 41,30 52,30 52,40 41,40 36,35 " style="fill:white; stroke-width:1; stroke:black; " description="&lt;b&gt;LLPMBPKK_06900&lt;/b&gt;&lt;br&gt;HEAT repeats&lt;br&gt;Location: 7943772 - 7945989" locus_tag="LLPMBPKK_06900" class="clusterblast-orf" id="subclusterblast-30_q4_0_all"  />
<polygon points="53,40 55,35 53,30 53,40 " style="fill:white; stroke-width:1; stroke:black; " description="&lt;b&gt;LLPMBPKK_06901&lt;/b&gt;&lt;br&gt;hypothetical protein&lt;br&gt;Location: 7946220 - 7946388" locus_tag="LLPMBPKK_06901" class="clusterblast-orf" id="subclusterblast-30_q5_0_all"  />
<polygon points="55,40 59,35 55,30 55,40 " style="fill:white; stroke-width:1; stroke:black; " description="&lt;b&gt;LLPMBPKK_06902&lt;/b&gt;&lt;br&gt;2Fe-2S iron-sulfur cluster bindingdomain-containing protein&lt;br&gt;Location: 7946482 - 7947019" locus_tag="LLPMBPKK_06902" class="clusterblast-orf" id="subclusterblast-30_q6_0_all"  />
<polygon points="59,40 62,40 67,35 62,30 59,30 59,40 " style="fill:white; stroke-width:1; stroke:black; " description="&lt;b&gt;LLPMBPKK_06903&lt;/b&gt;&lt;br&gt;FAD binding domain in molybdopterindehydrogenase&lt;br&gt;Location: 7947019 - 7948141" locus_tag="LLPMBPKK_06903" class="clusterblast-orf" id="subclusterblast-30_q7_0_all"  />
<polygon points="67,40 77,40 82,35 77,30 67,30 67,40 " style="fill:white; stroke-width:1; stroke:black; " description="&lt;b&gt;LLPMBPKK_06904&lt;/b&gt;&lt;br&gt;xanthine dehydrogenase family protein molybdopterin-binding subunit&lt;br&gt;Location: 7948137 - 7950219" locus_tag="LLPMBPKK_06904" class="clusterblast-orf" id="subclusterblast-30_q8_0_all"  />
<polygon points="82,40 94,40 99,35 94,30 82,30 82,40 " style="fill:white; stroke-width:1; stroke:black; " description="&lt;b&gt;LLPMBPKK_06905&lt;/b&gt;&lt;br&gt;glycoside hydrolase family 65 protein&lt;br&gt;Location: 7950221 - 7952591" locus_tag="LLPMBPKK_06905" class="clusterblast-orf" id="subclusterblast-30_q9_0_all"  />
<polygon points="100,40 101,40 106,35 101,30 100,30 100,40 " style="fill:white; stroke-width:1; stroke:black; " description="&lt;b&gt;LLPMBPKK_06906&lt;/b&gt;&lt;br&gt;response regulator transcription factor&lt;br&gt;Location: 7952728 - 7953538" locus_tag="LLPMBPKK_06906" class="clusterblast-orf" id="subclusterblast-30_q10_0_all"  />
<polygon points="112,40 116,40 121,35 116,30 112,30 112,40 " style="fill:white; stroke-width:1; stroke:black; " description="&lt;b&gt;LLPMBPKK_06907&lt;/b&gt;&lt;br&gt;LuxR family transcriptional regulator&lt;br&gt;Location: 7954435 - 7955656" locus_tag="LLPMBPKK_06907" class="clusterblast-orf" id="subclusterblast-30_q11_0_all"  />
<polygon points="122,40 122,40 127,35 122,30 122,30 122,40 " style="fill:white; stroke-width:1; stroke:black; " description="&lt;b&gt;LLPMBPKK_06908&lt;/b&gt;&lt;br&gt;FMN-dependent NADH-azoreductase&lt;br&gt;Location: 7955880 - 7956528" locus_tag="LLPMBPKK_06908" class="clusterblast-orf" id="subclusterblast-30_q12_0_all"  />
<polygon points="127,40 131,40 136,35 131,30 127,30 127,40 " style="fill:white; stroke-width:1; stroke:black; " description="&lt;b&gt;LLPMBPKK_06909&lt;/b&gt;&lt;br&gt;cytochrome P450&lt;br&gt;Location: 7956524 - 7957718" locus_tag="LLPMBPKK_06909" class="clusterblast-orf" id="subclusterblast-30_q13_0_all"  />
<polygon points="139,40 256,40 261,35 256,30 139,30 139,40 " style="fill:white; stroke-width:1; stroke:black; " description="&lt;b&gt;LLPMBPKK_06910&lt;/b&gt;&lt;br&gt;2-succinylbenzoate--CoA ligase&lt;br&gt;Location: 7958211 - 7975215" locus_tag="LLPMBPKK_06910" class="clusterblast-orf" id="subclusterblast-30_q14_0_all"  />
<polygon points="261,40 370,40 375,35 370,30 261,30 261,40 " style="fill:white; stroke-width:1; stroke:black; " description="&lt;b&gt;LLPMBPKK_06911&lt;/b&gt;&lt;br&gt;rifamycin polyketide synthase&lt;br&gt;Location: 7975249 - 7991275" locus_tag="LLPMBPKK_06911" class="clusterblast-orf" id="subclusterblast-30_q15_0_all"  />
<polygon points="376,40 484,40 489,35 484,30 376,30 376,40 " style="fill:white; stroke-width:1; stroke:black; " description="&lt;b&gt;LLPMBPKK_06912&lt;/b&gt;&lt;br&gt;rifamycin polyketide synthase&lt;br&gt;Location: 7991321 - 8007224" locus_tag="LLPMBPKK_06912" class="clusterblast-orf" id="subclusterblast-30_q16_0_all"  />
<polygon points="490,40 515,40 520,35 515,30 490,30 490,40 " style="fill:white; stroke-width:1; stroke:black; " description="&lt;b&gt;LLPMBPKK_06913&lt;/b&gt;&lt;br&gt;rifamycin polyketide synthase&lt;br&gt;Location: 8007313 - 8011516" locus_tag="LLPMBPKK_06913" class="clusterblast-orf" id="subclusterblast-30_q17_0_all"  />
<polygon points="522,40 563,40 568,35 563,30 522,30 522,40 " style="fill:white; stroke-width:1; stroke:black; " description="&lt;b&gt;LLPMBPKK_06914&lt;/b&gt;&lt;br&gt;rifamycin polyketide synthase&lt;br&gt;Location: 8011776 - 8018199" locus_tag="LLPMBPKK_06914" class="clusterblast-orf" id="subclusterblast-30_q18_0_all"  />
<polygon points="568,40 639,40 644,35 639,30 568,30 568,40 " style="fill:white; stroke-width:1; stroke:black; " description="&lt;b&gt;LLPMBPKK_06915&lt;/b&gt;&lt;br&gt;rifamycin polyketide synthase&lt;br&gt;Location: 8018229 - 8028825" locus_tag="LLPMBPKK_06915" class="clusterblast-orf" id="subclusterblast-30_q19_0_all"  />
<polygon points="646,40 647,35 646,30 646,40 " style="fill:white; stroke-width:1; stroke:black; " description="&lt;b&gt;LLPMBPKK_06916&lt;/b&gt;&lt;br&gt;rifamycin polyketide synthase&lt;br&gt;Location: 8029097 - 8029349" locus_tag="LLPMBPKK_06916" class="clusterblast-orf" id="subclusterblast-30_q20_0_all"  />
<polygon points="648,40 648,40 653,35 648,30 648,30 648,40 " style="fill:white; stroke-width:1; stroke:black; " description="&lt;b&gt;LLPMBPKK_06917&lt;/b&gt;&lt;br&gt;N-acetyltransferase/amide synthase&lt;br&gt;Location: 8029392 - 8030199" locus_tag="LLPMBPKK_06917" class="clusterblast-orf" id="subclusterblast-30_q21_0_all"  />
<polygon points="654,40 658,40 663,35 658,30 654,30 654,40 " style="fill:white; stroke-width:1; stroke:black; " description="&lt;b&gt;LLPMBPKK_06918&lt;/b&gt;&lt;br&gt;electron transfer oxidoreductase&lt;br&gt;Location: 8030255 - 8031599" locus_tag="LLPMBPKK_06918" class="clusterblast-orf" id="subclusterblast-30_q22_0_all"  />
<polygon points="664,40 667,40 672,35 667,30 664,30 664,40 " style="fill:#d81515; stroke-width:1; stroke:black; " description="&lt;b&gt;LLPMBPKK_06919&lt;/b&gt;&lt;br&gt;3-dehydroquinate synthase&lt;br&gt;Location: 8031746 - 8032823" locus_tag="LLPMBPKK_06919" class="clusterblast-orf" id="subclusterblast-30_q23_0_all"  />
<polygon points="672,40 677,40 682,35 677,30 672,30 672,40 " style="fill:#77d815; stroke-width:1; stroke:black; " description="&lt;b&gt;LLPMBPKK_06920&lt;/b&gt;&lt;br&gt;aminoDAHP synthase&lt;br&gt;Location: 8032819 - 8034238" locus_tag="LLPMBPKK_06920" class="clusterblast-orf" id="subclusterblast-30_q24_0_all"  />
<polygon points="682,40 683,40 688,35 683,30 682,30 682,40 " style="fill:#15d8d8; stroke-width:1; stroke:black; " description="&lt;b&gt;LLPMBPKK_06921&lt;/b&gt;&lt;br&gt;aminoquinate dehydrogenase&lt;br&gt;Location: 8034234 - 8035077" locus_tag="LLPMBPKK_06921" class="clusterblast-orf" id="subclusterblast-30_q25_0_all"  />
<polygon points="689,40 693,40 698,35 693,30 689,30 689,40 " style="fill:#7715d8; stroke-width:1; stroke:black; " description="&lt;b&gt;LLPMBPKK_06922&lt;/b&gt;&lt;br&gt;3-amino-5-hydroxybenzoate synthase&lt;br&gt;Location: 8035247 - 8036408" locus_tag="LLPMBPKK_06922" class="clusterblast-orf" id="subclusterblast-30_q26_0_all"  />
<polygon points="698,40 701,40 706,35 701,30 698,30 698,40 " style="fill:#d8a715; stroke-width:1; stroke:black; " description="&lt;b&gt;LLPMBPKK_06923&lt;/b&gt;&lt;br&gt;oxidoreductase RifL&lt;br&gt;Location: 8036404 - 8037499" locus_tag="LLPMBPKK_06923" class="clusterblast-orf" id="subclusterblast-30_q27_0_all"  />
<polygon points="706,40 706,40 711,35 706,30 706,30 706,40 " style="fill:#15d846; stroke-width:1; stroke:black; " description="&lt;b&gt;LLPMBPKK_06924&lt;/b&gt;&lt;br&gt;phosphoglycolate phosphatase&lt;br&gt;Location: 8037506 - 8038202" locus_tag="LLPMBPKK_06924" class="clusterblast-orf" id="subclusterblast-30_q28_0_all"  />
<polygon points="711,40 712,40 717,35 712,30 711,30 711,40 " style="fill:#1546d8; stroke-width:1; stroke:black; " description="&lt;b&gt;LLPMBPKK_06925&lt;/b&gt;&lt;br&gt;kanosamine kinase&lt;br&gt;Location: 8038204 - 8039122" locus_tag="LLPMBPKK_06925" class="clusterblast-orf" id="subclusterblast-30_q29_0_all"  />
<polygon points="719,35 724,30 731,30 731,40 724,40 719,35 " style="fill:white; stroke-width:1; stroke:black; " description="&lt;b&gt;LLPMBPKK_06926&lt;/b&gt;&lt;br&gt;3-(3-hydroxyphenyl)propionate hydroxylase&lt;br&gt;Location: 8039408 - 8041073" locus_tag="LLPMBPKK_06926" class="clusterblast-orf" id="subclusterblast-30_q30_0_all"  />
<polygon points="733,40 733,40 738,35 733,30 733,30 733,40 " style="fill:white; stroke-width:1; stroke:black; " description="&lt;b&gt;LLPMBPKK_06927&lt;/b&gt;&lt;br&gt;oleoyl-(acyl-carrier-protein) hydrolase&lt;br&gt;Location: 8041281 - 8042055" locus_tag="LLPMBPKK_06927" class="clusterblast-orf" id="subclusterblast-30_q31_0_all"  />
<polygon points="738,40 743,40 748,35 743,30 738,30 738,40 " style="fill:white; stroke-width:1; stroke:black; " description="&lt;b&gt;LLPMBPKK_06928&lt;/b&gt;&lt;br&gt;cation/H(+) antiporter&lt;br&gt;Location: 8042087 - 8043482" locus_tag="LLPMBPKK_06928" class="clusterblast-orf" id="subclusterblast-30_q32_0_all"  />
<polygon points="748,40 751,35 748,30 748,40 " style="fill:#d815a7; stroke-width:1; stroke:black; " description="&lt;b&gt;LLPMBPKK_06929&lt;/b&gt;&lt;br&gt;aminoDHQ dehydratase&lt;br&gt;Location: 8043478 - 8043919" locus_tag="LLPMBPKK_06929" class="clusterblast-orf" id="subclusterblast-30_q33_0_all"  />
<polygon points="752,40 752,40 757,35 752,30 752,30 752,40 " style="fill:white; stroke-width:1; stroke:black; " description="&lt;b&gt;LLPMBPKK_06930&lt;/b&gt;&lt;br&gt;alpha/beta hydrolase&lt;br&gt;Location: 8043968 - 8044661" locus_tag="LLPMBPKK_06930" class="clusterblast-orf" id="subclusterblast-30_q34_0_all"  />
<polygon points="757,40 757,40 762,35 757,30 757,30 757,40 " style="fill:white; stroke-width:1; stroke:black; " description="&lt;b&gt;LLPMBPKK_06931&lt;/b&gt;&lt;br&gt;Activator of Hsp90 ATPase -like protein&lt;br&gt;Location: 8044713 - 8045403" locus_tag="LLPMBPKK_06931" class="clusterblast-orf" id="subclusterblast-30_q35_0_all"  />
<polygon points="763,40 765,35 763,30 763,40 " style="fill:white; stroke-width:1; stroke:black; " description="&lt;b&gt;LLPMBPKK_06932&lt;/b&gt;&lt;br&gt;hypothetical protein&lt;br&gt;Location: 8045491 - 8045839" locus_tag="LLPMBPKK_06932" class="clusterblast-orf" id="subclusterblast-30_q36_0_all"  />
<polygon points="767,40 768,35 767,30 767,40 " style="fill:white; stroke-width:1; stroke:black; " description="&lt;b&gt;LLPMBPKK_06933&lt;/b&gt;&lt;br&gt;K(+)-transporting ATPase subunit F&lt;br&gt;Location: 8046102 - 8046192" locus_tag="LLPMBPKK_06933" class="clusterblast-orf" id="subclusterblast-30_q37_0_all"  />
<polygon points="768,40 775,40 780,35 775,30 768,30 768,40 " style="fill:white; stroke-width:1; stroke:black; " description="&lt;b&gt;LLPMBPKK_06934&lt;/b&gt;&lt;br&gt;potassium-transporting ATPase subunit KdpA&lt;br&gt;Location: 8046200 - 8047862" locus_tag="LLPMBPKK_06934" class="clusterblast-orf" id="subclusterblast-30_q38_0_all"  />
</g>
<g label="GQ452266" description="GQ452266_c1: naphtomycin AHBA (100% of genes show similarity), AHBA" class="clusterblast-cluster"  >
<text x="5" y="70" class="clusterblast-acc"  >
GQ452266_c1: naphtomycin AHBA (100% of genes show similarity), AHBA</text>
<line x1="10" y1="85" x2="778.0" y2="85" style="stroke-width:1; stroke:grey; "  />
</g>
<g id="a30_000"  >
<polygon points="347,90 349,90 354,85 349,80 347,80 347,90 " style="fill:#d81515; stroke-width:1; stroke:black; " description="&lt;b&gt;GQ452266_1_natG&lt;/b&gt;&lt;br&gt;3-dehydroquinate synthase&lt;br&gt;Location: 83802 - 84863&lt;br&gt;&lt;br&gt;&lt;b&gt;BlastP hit with LLPMBPKK_06919&lt;/b&gt;&lt;br&gt;Percentage identity: 88&lt;br&gt;Percentage coverage: 99&lt;br&gt;BLAST bit score: 598&lt;br&gt;E-value: 0.0" locus_tag="GQ452266_1_natG" class="clusterblast-orf" id="subclusterblast-30_all_30_1_0"  />
</g>
<g id="a30_001"  >
<polygon points="354,90 360,90 365,85 360,80 354,80 354,90 " style="fill:#77d815; stroke-width:1; stroke:black; " description="&lt;b&gt;GQ452266_1_natH&lt;/b&gt;&lt;br&gt;DAHP synthase&lt;br&gt;Location: 84896 - 86332&lt;br&gt;&lt;br&gt;&lt;b&gt;BlastP hit with LLPMBPKK_06920&lt;/b&gt;&lt;br&gt;Percentage identity: 81&lt;br&gt;Percentage coverage: 100&lt;br&gt;BLAST bit score: 752&lt;br&gt;E-value: 0.0" locus_tag="GQ452266_1_natH" class="clusterblast-orf" id="subclusterblast-30_all_30_1_1"  />
</g>
<g id="a30_002"  >
<polygon points="365,90 366,90 371,85 366,80 365,80 365,90 " style="fill:#15d8d8; stroke-width:1; stroke:black; " description="&lt;b&gt;GQ452266_1_natI&lt;/b&gt;&lt;br&gt;shikimate/quinate dehydrogenase&lt;br&gt;Location: 86329 - 87174&lt;br&gt;&lt;br&gt;&lt;b&gt;BlastP hit with LLPMBPKK_06921&lt;/b&gt;&lt;br&gt;Percentage identity: 87&lt;br&gt;Percentage coverage: 100&lt;br&gt;BLAST bit score: 434&lt;br&gt;E-value: 6.35e-157" locus_tag="GQ452266_1_natI" class="clusterblast-orf" id="subclusterblast-30_all_30_1_2"  />
</g>
<g id="a30_003"  >
<polygon points="372,90 375,90 380,85 375,80 372,80 372,90 " style="fill:#7715d8; stroke-width:1; stroke:black; " description="&lt;b&gt;GQ452266_1_natK&lt;/b&gt;&lt;br&gt;3-amino-5-hydroxybenzoic acid synthase&lt;br&gt;Location: 87338 - 88498&lt;br&gt;&lt;br&gt;&lt;b&gt;BlastP hit with LLPMBPKK_06922&lt;/b&gt;&lt;br&gt;Percentage identity: 90&lt;br&gt;Percentage coverage: 100&lt;br&gt;BLAST bit score: 713&lt;br&gt;E-value: 0.0" locus_tag="GQ452266_1_natK" class="clusterblast-orf" id="subclusterblast-30_all_30_1_3"  />
</g>
<g id="a30_004"  >
<polygon points="380,90 383,90 388,85 383,80 380,80 380,90 " style="fill:#d8a715; stroke-width:1; stroke:black; " description="&lt;b&gt;GQ452266_1_natL&lt;/b&gt;&lt;br&gt;oxidoreductase&lt;br&gt;Location: 88495 - 89589&lt;br&gt;&lt;br&gt;&lt;b&gt;BlastP hit with LLPMBPKK_06923&lt;/b&gt;&lt;br&gt;Percentage identity: 86&lt;br&gt;Percentage coverage: 100&lt;br&gt;BLAST bit score: 595&lt;br&gt;E-value: 0.0" locus_tag="GQ452266_1_natL" class="clusterblast-orf" id="subclusterblast-30_all_30_1_4"  />
</g>
<g id="a30_005"  >
<polygon points="388,90 388,90 393,85 388,80 388,80 388,90 " style="fill:#15d846; stroke-width:1; stroke:black; " description="&lt;b&gt;GQ452266_1_natM&lt;/b&gt;&lt;br&gt;phosphatase&lt;br&gt;Location: 89597 - 90292&lt;br&gt;&lt;br&gt;&lt;b&gt;BlastP hit with LLPMBPKK_06924&lt;/b&gt;&lt;br&gt;Percentage identity: 94&lt;br&gt;Percentage coverage: 100&lt;br&gt;BLAST bit score: 414&lt;br&gt;E-value: 7.55e-151" locus_tag="GQ452266_1_natM" class="clusterblast-orf" id="subclusterblast-30_all_30_1_5"  />
</g>
<g id="a30_006"  >
<polygon points="393,90 395,90 400,85 395,80 393,80 393,90 " style="fill:#1546d8; stroke-width:1; stroke:black; " description="&lt;b&gt;GQ452266_1_natN&lt;/b&gt;&lt;br&gt;glucose kinase&lt;br&gt;Location: 90295 - 91215&lt;br&gt;&lt;br&gt;&lt;b&gt;BlastP hit with LLPMBPKK_06925&lt;/b&gt;&lt;br&gt;Percentage identity: 83&lt;br&gt;Percentage coverage: 100&lt;br&gt;BLAST bit score: 454&lt;br&gt;E-value: 2.82e-164" locus_tag="GQ452266_1_natN" class="clusterblast-orf" id="subclusterblast-30_all_30_1_6"  />
</g>
<g id="a30_007"  >
<polygon points="429,90 432,85 429,80 429,90 " style="fill:#d815a7; stroke-width:1; stroke:black; " description="&lt;b&gt;GQ452266_1_natJ&lt;/b&gt;&lt;br&gt;aminodehydroquinate dehydratase&lt;br&gt;Location: 95383 - 95823&lt;br&gt;&lt;br&gt;&lt;b&gt;BlastP hit with LLPMBPKK_06929&lt;/b&gt;&lt;br&gt;Percentage identity: 93&lt;br&gt;Percentage coverage: 99&lt;br&gt;BLAST bit score: 250&lt;br&gt;E-value: 1.07e-88" locus_tag="GQ452266_1_natJ" class="clusterblast-orf" id="subclusterblast-30_all_30_1_7"  />
</g>
<g label="AF040570" description="AF040570_c1: rifamycin AHBA (100% of genes show similarity), AHBA" class="clusterblast-cluster"  >
<text x="5" y="120" class="clusterblast-acc"  >
AF040570_c1: rifamycin AHBA (100% of genes show similarity), AHBA</text>
<line x1="10" y1="135" x2="778.0" y2="135" style="stroke-width:1; stroke:grey; "  />
</g>
<g id="a30_000"  >
<polygon points="268,140 271,140 276,135 271,130 268,130 268,140 " style="fill:#d81515; stroke-width:1; stroke:black; " description="&lt;b&gt;AF040570_1_rifG&lt;/b&gt;&lt;br&gt;RifG&lt;br&gt;Location: 69003 - 70058&lt;br&gt;&lt;br&gt;&lt;b&gt;BlastP hit with LLPMBPKK_06919&lt;/b&gt;&lt;br&gt;Percentage identity: 74&lt;br&gt;Percentage coverage: 97&lt;br&gt;BLAST bit score: 493&lt;br&gt;E-value: 4.83e-178" locus_tag="AF040570_1_rifG" class="clusterblast-orf" id="subclusterblast-30_all_30_2_0"  />
</g>
<g id="a30_001"  >
<polygon points="276,140 280,140 285,135 280,130 276,130 276,140 " style="fill:#77d815; stroke-width:1; stroke:black; " description="&lt;b&gt;AF040570_1_rifH&lt;/b&gt;&lt;br&gt;RifH&lt;br&gt;Location: 70055 - 71380&lt;br&gt;&lt;br&gt;&lt;b&gt;BlastP hit with LLPMBPKK_06920&lt;/b&gt;&lt;br&gt;Percentage identity: 63&lt;br&gt;Percentage coverage: 93&lt;br&gt;BLAST bit score: 524&lt;br&gt;E-value: 0.0" locus_tag="AF040570_1_rifH" class="clusterblast-orf" id="subclusterblast-30_all_30_2_1"  />
</g>
<g id="a30_002"  >
<polygon points="285,140 286,140 291,135 286,130 285,130 285,140 " style="fill:#15d8d8; stroke-width:1; stroke:black; " description="&lt;b&gt;AF040570_1_rifI&lt;/b&gt;&lt;br&gt;RifI&lt;br&gt;Location: 71400 - 72191&lt;br&gt;&lt;br&gt;&lt;b&gt;BlastP hit with LLPMBPKK_06921&lt;/b&gt;&lt;br&gt;Percentage identity: 73&lt;br&gt;Percentage coverage: 93&lt;br&gt;BLAST bit score: 332&lt;br&gt;E-value: 4.64e-117" locus_tag="AF040570_1_rifI" class="clusterblast-orf" id="subclusterblast-30_all_30_2_2"  />
</g>
<g id="a30_003"  >
<polygon points="292,140 295,140 300,135 295,130 292,130 292,140 " style="fill:#7715d8; stroke-width:1; stroke:black; " description="&lt;b&gt;AF040570_1_rifK&lt;/b&gt;&lt;br&gt;RifK&lt;br&gt;Location: 72331 - 73497&lt;br&gt;&lt;br&gt;&lt;b&gt;BlastP hit with LLPMBPKK_06922&lt;/b&gt;&lt;br&gt;Percentage identity: 81&lt;br&gt;Percentage coverage: 100&lt;br&gt;BLAST bit score: 624&lt;br&gt;E-value: 0.0" locus_tag="AF040570_1_rifK" class="clusterblast-orf" id="subclusterblast-30_all_30_2_3"  />
</g>
<g id="a30_004"  >
<polygon points="301,140 304,140 309,135 304,130 301,130 301,140 " style="fill:#d8a715; stroke-width:1; stroke:black; " description="&lt;b&gt;AF040570_1_rifL&lt;/b&gt;&lt;br&gt;RifL&lt;br&gt;Location: 73571 - 74647&lt;br&gt;&lt;br&gt;&lt;b&gt;BlastP hit with LLPMBPKK_06923&lt;/b&gt;&lt;br&gt;Percentage identity: 67&lt;br&gt;Percentage coverage: 99&lt;br&gt;BLAST bit score: 476&lt;br&gt;E-value: 4.05e-171" locus_tag="AF040570_1_rifL" class="clusterblast-orf" id="subclusterblast-30_all_30_2_4"  />
</g>
<g id="a30_005"  >
<polygon points="309,140 309,140 314,135 309,130 309,130 309,140 " style="fill:#15d846; stroke-width:1; stroke:black; " description="&lt;b&gt;AF040570_1_rifM&lt;/b&gt;&lt;br&gt;RifM&lt;br&gt;Location: 74662 - 75360&lt;br&gt;&lt;br&gt;&lt;b&gt;BlastP hit with LLPMBPKK_06924&lt;/b&gt;&lt;br&gt;Percentage identity: 80&lt;br&gt;Percentage coverage: 100&lt;br&gt;BLAST bit score: 320&lt;br&gt;E-value: 8.36e-114" locus_tag="AF040570_1_rifM" class="clusterblast-orf" id="subclusterblast-30_all_30_2_5"  />
</g>
<g id="a30_006"  >
<polygon points="315,140 315,140 320,135 315,130 315,130 315,140 " style="fill:#1546d8; stroke-width:1; stroke:black; " description="&lt;b&gt;AF040570_1_rifN&lt;/b&gt;&lt;br&gt;RifN&lt;br&gt;Location: 75569 - 76276&lt;br&gt;&lt;br&gt;&lt;b&gt;BlastP hit with LLPMBPKK_06925&lt;/b&gt;&lt;br&gt;Percentage identity: 61&lt;br&gt;Percentage coverage: 72&lt;br&gt;BLAST bit score: 233&lt;br&gt;E-value: 6.02e-78" locus_tag="AF040570_1_rifN" class="clusterblast-orf" id="subclusterblast-30_all_30_2_6"  />
</g>
<g id="a30_007"  >
<polygon points="507,140 511,135 507,130 507,140 " style="fill:#d815a7; stroke-width:1; stroke:black; " description="&lt;b&gt;AF040570_1_rifJ&lt;/b&gt;&lt;br&gt;aminodehydroquinate dehydratase&lt;br&gt;Location: 102476 - 102967&lt;br&gt;&lt;br&gt;&lt;b&gt;BlastP hit with LLPMBPKK_06929&lt;/b&gt;&lt;br&gt;Percentage identity: 76&lt;br&gt;Percentage coverage: 98&lt;br&gt;BLAST bit score: 214&lt;br&gt;E-value: 1.74e-74" locus_tag="AF040570_1_rifJ" class="clusterblast-orf" id="subclusterblast-30_all_30_2_7"  />
</g>
<g label="AJ871581" description="AJ871581_c1: rubradirin AHBA (100% of genes show similarity), AHBA" class="clusterblast-cluster"  >
<text x="5" y="170" class="clusterblast-acc"  >
AJ871581_c1: rubradirin AHBA (100% of genes show similarity), AHBA</text>
<line x1="10" y1="185" x2="778.0" y2="185" style="stroke-width:1; stroke:grey; "  />
</g>
<g id="a30_000"  >
<polygon points="181,190 184,190 189,185 184,180 181,180 181,190 " style="fill:#7715d8; stroke-width:1; stroke:black; " description="&lt;b&gt;AJ871581_1_rubK&lt;/b&gt;&lt;br&gt;putative AHBA synthase&lt;br&gt;Location: 29902 - 31062&lt;br&gt;&lt;br&gt;&lt;b&gt;BlastP hit with LLPMBPKK_06922&lt;/b&gt;&lt;br&gt;Percentage identity: 77&lt;br&gt;Percentage coverage: 100&lt;br&gt;BLAST bit score: 611&lt;br&gt;E-value: 0.0" locus_tag="AJ871581_1_rubK" class="clusterblast-orf" id="subclusterblast-30_all_30_3_0"  />
</g>
<g id="a30_001"  >
<polygon points="189,190 192,190 197,185 192,180 189,180 189,190 " style="fill:#d8a715; stroke-width:1; stroke:black; " description="&lt;b&gt;AJ871581_1_rubL&lt;/b&gt;&lt;br&gt;putative oxidoreductase&lt;br&gt;Location: 31059 - 32153&lt;br&gt;&lt;br&gt;&lt;b&gt;BlastP hit with LLPMBPKK_06923&lt;/b&gt;&lt;br&gt;Percentage identity: 57&lt;br&gt;Percentage coverage: 96&lt;br&gt;BLAST bit score: 370&lt;br&gt;E-value: 2.32e-129" locus_tag="AJ871581_1_rubL" class="clusterblast-orf" id="subclusterblast-30_all_30_3_1"  />
</g>
<g id="a30_002"  >
<polygon points="197,190 201,185 197,180 197,190 " style="fill:#15d846; stroke-width:1; stroke:black; " description="&lt;b&gt;AJ871581_1_rubM&lt;/b&gt;&lt;br&gt;putative phosphatase&lt;br&gt;Location: 32153 - 32818&lt;br&gt;&lt;br&gt;&lt;b&gt;BlastP hit with LLPMBPKK_06924&lt;/b&gt;&lt;br&gt;Percentage identity: 69&lt;br&gt;Percentage coverage: 91&lt;br&gt;BLAST bit score: 274&lt;br&gt;E-value: 1.31e-95" locus_tag="AJ871581_1_rubM" class="clusterblast-orf" id="subclusterblast-30_all_30_3_2"  />
</g>
<g id="a30_003"  >
<polygon points="565,190 568,185 565,180 565,190 " style="fill:#d815a7; stroke-width:1; stroke:black; " description="&lt;b&gt;AJ871581_1_rubJ&lt;/b&gt;&lt;br&gt;putative aDHQ dehydratase&lt;br&gt;Location: 83661 - 84116&lt;br&gt;&lt;br&gt;&lt;b&gt;BlastP hit with LLPMBPKK_06929&lt;/b&gt;&lt;br&gt;Percentage identity: 73&lt;br&gt;Percentage coverage: 100&lt;br&gt;BLAST bit score: 217&lt;br&gt;E-value: 1.04e-75" locus_tag="AJ871581_1_rubJ" class="clusterblast-orf" id="subclusterblast-30_all_30_3_3"  />
</g>
<g id="a30_004"  >
<polygon points="582,190 585,190 590,185 585,180 582,180 582,190 " style="fill:#d81515; stroke-width:1; stroke:black; " description="&lt;b&gt;AJ871581_1_rubG&lt;/b&gt;&lt;br&gt;putative aDHQ synthase&lt;br&gt;Location: 86106 - 87158&lt;br&gt;&lt;br&gt;&lt;b&gt;BlastP hit with LLPMBPKK_06919&lt;/b&gt;&lt;br&gt;Percentage identity: 73&lt;br&gt;Percentage coverage: 96&lt;br&gt;BLAST bit score: 482&lt;br&gt;E-value: 1.17e-173" locus_tag="AJ871581_1_rubG" class="clusterblast-orf" id="subclusterblast-30_all_30_3_4"  />
</g>
<g id="a30_005"  >
<polygon points="590,190 593,190 598,185 593,180 590,180 590,190 " style="fill:#77d815; stroke-width:1; stroke:black; " description="&lt;b&gt;AJ871581_1_rubH&lt;/b&gt;&lt;br&gt;putative aDAHP synthase&lt;br&gt;Location: 87155 - 88378&lt;br&gt;&lt;br&gt;&lt;b&gt;BlastP hit with LLPMBPKK_06920&lt;/b&gt;&lt;br&gt;Percentage identity: 64&lt;br&gt;Percentage coverage: 93&lt;br&gt;BLAST bit score: 526&lt;br&gt;E-value: 0.0" locus_tag="AJ871581_1_rubH" class="clusterblast-orf" id="subclusterblast-30_all_30_3_5"  />
</g>
<g label="EU827593" description="EU827593_c1: macbecin AHBA (100% of genes show similarity), AHBA" class="clusterblast-cluster"  >
<text x="5" y="220" class="clusterblast-acc"  >
EU827593_c1: macbecin AHBA (100% of genes show similarity), AHBA</text>
<line x1="10" y1="235" x2="778.0" y2="235" style="stroke-width:1; stroke:grey; "  />
</g>
<g id="a30_000"  >
<polygon points="372,240 374,240 379,235 374,230 372,230 372,240 " style="fill:#1546d8; stroke-width:1; stroke:black; " description="&lt;b&gt;EU827593_1_mbcQ&lt;/b&gt;&lt;br&gt;MbcQ&lt;br&gt;Location: 69661 - 68690&lt;br&gt;&lt;br&gt;&lt;b&gt;BlastP hit with LLPMBPKK_06925&lt;/b&gt;&lt;br&gt;Percentage identity: 56&lt;br&gt;Percentage coverage: 95&lt;br&gt;BLAST bit score: 200&lt;br&gt;E-value: 3.18e-64" locus_tag="EU827593_1_mbcQ" class="clusterblast-orf" id="subclusterblast-30_all_30_4_0"  />
</g>
<g id="a30_001"  >
<polygon points="379,235 382,230 382,240 379,235 " style="fill:#d815a7; stroke-width:1; stroke:black; " description="&lt;b&gt;EU827593_1_mbcL&lt;/b&gt;&lt;br&gt;MbcL&lt;br&gt;Location: 68732 - 68301&lt;br&gt;&lt;br&gt;&lt;b&gt;BlastP hit with LLPMBPKK_06929&lt;/b&gt;&lt;br&gt;Percentage identity: 73&lt;br&gt;Percentage coverage: 98&lt;br&gt;BLAST bit score: 217&lt;br&gt;E-value: 1.06e-75" locus_tag="EU827593_1_mbcL" class="clusterblast-orf" id="subclusterblast-30_all_30_4_1"  />
</g>
<g id="a30_002"  >
<polygon points="384,240 387,240 392,235 387,230 384,230 384,240 " style="fill:#7715d8; stroke-width:1; stroke:black; " description="&lt;b&gt;EU827593_1_mbcE&lt;/b&gt;&lt;br&gt;MbcE&lt;br&gt;Location: 68057 - 66891&lt;br&gt;&lt;br&gt;&lt;b&gt;BlastP hit with LLPMBPKK_06922&lt;/b&gt;&lt;br&gt;Percentage identity: 71&lt;br&gt;Percentage coverage: 95&lt;br&gt;BLAST bit score: 535&lt;br&gt;E-value: 0.0" locus_tag="EU827593_1_mbcE" class="clusterblast-orf" id="subclusterblast-30_all_30_4_2"  />
</g>
<g id="a30_003"  >
<polygon points="393,240 396,240 401,235 396,230 393,230 393,240 " style="fill:#d8a715; stroke-width:1; stroke:black; " description="&lt;b&gt;EU827593_1_mbcD&lt;/b&gt;&lt;br&gt;MbcD&lt;br&gt;Location: 66853 - 65693&lt;br&gt;&lt;br&gt;&lt;b&gt;BlastP hit with LLPMBPKK_06923&lt;/b&gt;&lt;br&gt;Percentage identity: 56&lt;br&gt;Percentage coverage: 97&lt;br&gt;BLAST bit score: 339&lt;br&gt;E-value: 8.66e-117" locus_tag="EU827593_1_mbcD" class="clusterblast-orf" id="subclusterblast-30_all_30_4_3"  />
</g>
<g id="a30_004"  >
<polygon points="401,240 402,240 407,235 402,230 401,230 401,240 " style="fill:#15d846; stroke-width:1; stroke:black; " description="&lt;b&gt;EU827593_1_mbcC&lt;/b&gt;&lt;br&gt;MbcC&lt;br&gt;Location: 65696 - 64899&lt;br&gt;&lt;br&gt;&lt;b&gt;BlastP hit with LLPMBPKK_06924&lt;/b&gt;&lt;br&gt;Percentage identity: 69&lt;br&gt;Percentage coverage: 90&lt;br&gt;BLAST bit score: 268&lt;br&gt;E-value: 6.92e-93" locus_tag="EU827593_1_mbcC" class="clusterblast-orf" id="subclusterblast-30_all_30_4_4"  />
</g>
<g label="AF127374" description="AF127374_c1: mitomycin AHBA (100% of genes show similarity), AHBA" class="clusterblast-cluster"  >
<text x="5" y="270" class="clusterblast-acc"  >
AF127374_c1: mitomycin AHBA (100% of genes show similarity), AHBA</text>
<line x1="10" y1="285" x2="778.0" y2="285" style="stroke-width:1; stroke:grey; "  />
</g>
<g id="a30_000"  >
<polygon points="286,285 290,280 290,290 286,285 " style="fill:#d815a7; stroke-width:1; stroke:black; " description="&lt;b&gt;AF127374_1_mmcF&lt;/b&gt;&lt;br&gt;MmcF&lt;br&gt;Location: 35699 - 35262&lt;br&gt;&lt;br&gt;&lt;b&gt;BlastP hit with LLPMBPKK_06929&lt;/b&gt;&lt;br&gt;Percentage identity: 70&lt;br&gt;Percentage coverage: 97&lt;br&gt;BLAST bit score: 187&lt;br&gt;E-value: 1.09e-63" locus_tag="AF127374_1_mmcF" class="clusterblast-orf" id="subclusterblast-30_all_30_5_0"  />
</g>
<g id="a30_001"  >
<polygon points="340,290 343,290 348,285 343,280 340,280 340,290 " style="fill:#7715d8; stroke-width:1; stroke:black; " description="&lt;b&gt;AF127374_1_mitA&lt;/b&gt;&lt;br&gt;MitA&lt;br&gt;Location: 28257 - 27091&lt;br&gt;&lt;br&gt;&lt;b&gt;BlastP hit with LLPMBPKK_06922&lt;/b&gt;&lt;br&gt;Percentage identity: 65&lt;br&gt;Percentage coverage: 98&lt;br&gt;BLAST bit score: 482&lt;br&gt;E-value: 9.93e-173" locus_tag="AF127374_1_mitA" class="clusterblast-orf" id="subclusterblast-30_all_30_5_1"  />
</g>
<g id="a30_002"  >
<polygon points="415,290 415,290 420,285 415,280 415,280 415,290 " style="fill:#15d846; stroke-width:1; stroke:black; " description="&lt;b&gt;AF127374_1_mitJ&lt;/b&gt;&lt;br&gt;MitJ&lt;br&gt;Location: 17743 - 17036&lt;br&gt;&lt;br&gt;&lt;b&gt;BlastP hit with LLPMBPKK_06924&lt;/b&gt;&lt;br&gt;Percentage identity: 63&lt;br&gt;Percentage coverage: 88&lt;br&gt;BLAST bit score: 239&lt;br&gt;E-value: 1.25e-81" locus_tag="AF127374_1_mitJ" class="clusterblast-orf" id="subclusterblast-30_all_30_5_2"  />
</g>
<g id="a30_003"  >
<polygon points="454,285 459,280 462,280 462,290 459,290 454,285 " style="fill:#d81515; stroke-width:1; stroke:black; " description="&lt;b&gt;AF127374_1_mitP&lt;/b&gt;&lt;br&gt;MitP&lt;br&gt;Location: 12188 - 11157&lt;br&gt;&lt;br&gt;&lt;b&gt;BlastP hit with LLPMBPKK_06919&lt;/b&gt;&lt;br&gt;Percentage identity: 70&lt;br&gt;Percentage coverage: 93&lt;br&gt;BLAST bit score: 449&lt;br&gt;E-value: 1.06e-160" locus_tag="AF127374_1_mitP" class="clusterblast-orf" id="subclusterblast-30_all_30_5_3"  />
</g>
<g id="a30_004"  >
<polygon points="478,285 483,280 485,280 485,290 483,290 478,285 " style="fill:#1546d8; stroke-width:1; stroke:black; " description="&lt;b&gt;AF127374_1_mitS&lt;/b&gt;&lt;br&gt;MitS&lt;br&gt;Location: 8842 - 7895&lt;br&gt;&lt;br&gt;&lt;b&gt;BlastP hit with LLPMBPKK_06925&lt;/b&gt;&lt;br&gt;Percentage identity: 54&lt;br&gt;Percentage coverage: 87&lt;br&gt;BLAST bit score: 215&lt;br&gt;E-value: 5.36e-70" locus_tag="AF127374_1_mitS" class="clusterblast-orf" id="subclusterblast-30_all_30_5_4"  />
</g>
<g id="a30_005"  >
<polygon points="487,290 488,290 493,285 488,280 487,280 487,290 " style="fill:#15d8d8; stroke-width:1; stroke:black; " description="&lt;b&gt;AF127374_1_mitT&lt;/b&gt;&lt;br&gt;MitT&lt;br&gt;Location: 7666 - 6854&lt;br&gt;&lt;br&gt;&lt;b&gt;BlastP hit with LLPMBPKK_06921&lt;/b&gt;&lt;br&gt;Percentage identity: 61&lt;br&gt;Percentage coverage: 92&lt;br&gt;BLAST bit score: 257&lt;br&gt;E-value: 1.45e-87" locus_tag="AF127374_1_mitT" class="clusterblast-orf" id="subclusterblast-30_all_30_5_5"  />
</g>
</svg>
