<svg xmlns="http://www.w3.org/2000/svg" xmlns:xlink="http://www.w3.org/1999/xlink" version="1.1" x="0" y="0" height="100" width="800" viewBox="0 0 800 100" preserveAspectRatio="none"  >
<g label="Query sequence" class="clusterblast-cluster"  >
<text x="5" y="20" class="clusterblast-acc"  >
Query sequence</text>
<line x1="10" y1="35" x2="778.0" y2="35" style="stroke-width:1; stroke:grey; "  />
<polygon points="0,35 5,30 29,30 29,40 5,40 0,35 " style="fill:white; stroke-width:1; stroke:black; " description="&lt;b&gt;LLPMBPKK_06758&lt;/b&gt;&lt;br&gt;cation transporter&lt;br&gt;Location: 7791080 - 7792022" locus_tag="LLPMBPKK_06758" class="clusterblast-orf" id="subclusterblast-29_q0_0_all"  />
<polygon points="35,35 40,30 65,30 65,40 40,40 35,35 " style="fill:white; stroke-width:1; stroke:black; " description="&lt;b&gt;LLPMBPKK_06759&lt;/b&gt;&lt;br&gt;UDP-glucose 4-epimerase GalE&lt;br&gt;Location: 7792229 - 7793201" locus_tag="LLPMBPKK_06759" class="clusterblast-orf" id="subclusterblast-29_q1_0_all"  />
<polygon points="73,40 123,40 128,35 123,30 73,30 73,40 " style="fill:white; stroke-width:1; stroke:black; " description="&lt;b&gt;LLPMBPKK_06760&lt;/b&gt;&lt;br&gt;CDP-alcohol phosphatidyltransferase familyprotein&lt;br&gt;Location: 7793467 - 7795288" locus_tag="LLPMBPKK_06760" class="clusterblast-orf" id="subclusterblast-29_q2_0_all"  />
<polygon points="128,40 146,40 151,35 146,30 128,30 128,40 " style="fill:white; stroke-width:1; stroke:black; " description="&lt;b&gt;LLPMBPKK_06761&lt;/b&gt;&lt;br&gt;phosphocholine cytidylyltransferase familyprotein&lt;br&gt;Location: 7795284 - 7796037" locus_tag="LLPMBPKK_06761" class="clusterblast-orf" id="subclusterblast-29_q3_0_all"  />
<polygon points="151,40 178,40 183,35 178,30 151,30 151,40 " style="fill:white; stroke-width:1; stroke:black; " description="&lt;b&gt;LLPMBPKK_06762&lt;/b&gt;&lt;br&gt;iron-containing alcohol dehydrogenase familyprotein&lt;br&gt;Location: 7796024 - 7797086" locus_tag="LLPMBPKK_06762" class="clusterblast-orf" id="subclusterblast-29_q4_0_all"  />
<polygon points="185,40 201,40 206,35 201,30 185,30 185,40 " style="fill:white; stroke-width:1; stroke:black; " description="&lt;b&gt;LLPMBPKK_06763&lt;/b&gt;&lt;br&gt;transferase&lt;br&gt;Location: 7797159 - 7797843" locus_tag="LLPMBPKK_06763" class="clusterblast-orf" id="subclusterblast-29_q5_0_all"  />
<polygon points="207,40 228,40 233,35 228,30 207,30 207,40 " style="fill:white; stroke-width:1; stroke:black; " description="&lt;b&gt;LLPMBPKK_06764&lt;/b&gt;&lt;br&gt;glycosyltransferase family 2 protein&lt;br&gt;Location: 7797851 - 7798724" locus_tag="LLPMBPKK_06764" class="clusterblast-orf" id="subclusterblast-29_q6_0_all"  />
<polygon points="236,40 259,40 264,35 259,30 236,30 236,40 " style="fill:white; stroke-width:1; stroke:black; " description="&lt;b&gt;LLPMBPKK_06765&lt;/b&gt;&lt;br&gt;ABC transporter&lt;br&gt;Location: 7798813 - 7799743" locus_tag="LLPMBPKK_06765" class="clusterblast-orf" id="subclusterblast-29_q7_0_all"  />
<polygon points="264,40 283,40 288,35 283,30 264,30 264,40 " style="fill:white; stroke-width:1; stroke:black; " description="&lt;b&gt;LLPMBPKK_06766&lt;/b&gt;&lt;br&gt;ABC transporter ATP-binding protein&lt;br&gt;Location: 7799735 - 7800524" locus_tag="LLPMBPKK_06766" class="clusterblast-orf" id="subclusterblast-29_q8_0_all"  />
<polygon points="299,40 322,40 327,35 322,30 299,30 299,40 " style="fill:white; stroke-width:1; stroke:black; " description="&lt;b&gt;LLPMBPKK_06767&lt;/b&gt;&lt;br&gt;squalene synthase HpnC&lt;br&gt;Location: 7800884 - 7801781" locus_tag="LLPMBPKK_06767" class="clusterblast-orf" id="subclusterblast-29_q9_0_all"  />
<polygon points="327,40 351,40 356,35 351,30 327,30 327,40 " style="fill:white; stroke-width:1; stroke:black; " description="&lt;b&gt;LLPMBPKK_06768&lt;/b&gt;&lt;br&gt;presqualene diphosphate synthase HpnD&lt;br&gt;Location: 7801777 - 7802740" locus_tag="LLPMBPKK_06768" class="clusterblast-orf" id="subclusterblast-29_q10_0_all"  />
<polygon points="363,40 402,40 407,35 402,30 363,30 363,40 " style="fill:white; stroke-width:1; stroke:black; " description="&lt;b&gt;LLPMBPKK_06769&lt;/b&gt;&lt;br&gt;FAD-dependent oxidoreductase&lt;br&gt;Location: 7802978 - 7804406" locus_tag="LLPMBPKK_06769" class="clusterblast-orf" id="subclusterblast-29_q11_0_all"  />
<polygon points="407,40 436,40 441,35 436,30 407,30 407,40 " style="fill:white; stroke-width:1; stroke:black; " description="&lt;b&gt;LLPMBPKK_06770&lt;/b&gt;&lt;br&gt;polyprenyl synthetase family protein&lt;br&gt;Location: 7804405 - 7805539" locus_tag="LLPMBPKK_06770" class="clusterblast-orf" id="subclusterblast-29_q12_0_all"  />
<polygon points="445,40 502,40 507,35 502,30 445,30 445,40 " style="fill:white; stroke-width:1; stroke:black; " description="&lt;b&gt;LLPMBPKK_06771&lt;/b&gt;&lt;br&gt;squalene--hopene cyclase&lt;br&gt;Location: 7805655 - 7807686" locus_tag="LLPMBPKK_06771" class="clusterblast-orf" id="subclusterblast-29_q13_0_all"  />
<polygon points="507,40 522,40 527,35 522,30 507,30 507,40 " style="fill:white; stroke-width:1; stroke:black; " description="&lt;b&gt;LLPMBPKK_06772&lt;/b&gt;&lt;br&gt;lipoprotein&lt;br&gt;Location: 7807682 - 7808324" locus_tag="LLPMBPKK_06772" class="clusterblast-orf" id="subclusterblast-29_q14_0_all"  />
<polygon points="527,40 553,40 558,35 553,30 527,30 527,40 " style="fill:white; stroke-width:1; stroke:black; " description="&lt;b&gt;LLPMBPKK_06773&lt;/b&gt;&lt;br&gt;adenosyl-hopene transferase HpnH&lt;br&gt;Location: 7808329 - 7809352" locus_tag="LLPMBPKK_06773" class="clusterblast-orf" id="subclusterblast-29_q15_0_all"  />
<polygon points="558,40 588,40 593,35 588,30 558,30 558,40 " style="fill:#d81515; stroke-width:1; stroke:black; " description="&lt;b&gt;LLPMBPKK_06774&lt;/b&gt;&lt;br&gt;flavodoxin-dependent (E)-4-hydroxy-3-methylbut-2-enyl-diphosphate synthase&lt;br&gt;Location: 7809356 - 7810484" locus_tag="LLPMBPKK_06774" class="clusterblast-orf" id="subclusterblast-29_q16_0_all"  />
<polygon points="594,40 647,40 652,35 647,30 594,30 594,40 " style="fill:#15d8d8; stroke-width:1; stroke:black; " description="&lt;b&gt;LLPMBPKK_06775&lt;/b&gt;&lt;br&gt;1-deoxy-D-xylulose-5-phosphate synthase&lt;br&gt;Location: 7810521 - 7812420" locus_tag="LLPMBPKK_06775" class="clusterblast-orf" id="subclusterblast-29_q17_0_all"  />
<polygon points="652,40 689,40 694,35 689,30 652,30 652,40 " style="fill:white; stroke-width:1; stroke:black; " description="&lt;b&gt;LLPMBPKK_06776&lt;/b&gt;&lt;br&gt;aspartate aminotransferase family protein&lt;br&gt;Location: 7812416 - 7813802" locus_tag="LLPMBPKK_06776" class="clusterblast-orf" id="subclusterblast-29_q18_0_all"  />
<polygon points="694,35 699,30 703,30 703,40 699,40 694,35 " style="fill:white; stroke-width:1; stroke:black; " description="&lt;b&gt;LLPMBPKK_06777&lt;/b&gt;&lt;br&gt;hypothetical protein&lt;br&gt;Location: 7813812 - 7814088" locus_tag="LLPMBPKK_06777" class="clusterblast-orf" id="subclusterblast-29_q19_0_all"  />
<polygon points="707,40 721,40 726,35 721,30 707,30 707,40 " style="fill:white; stroke-width:1; stroke:black; " description="&lt;b&gt;LLPMBPKK_06778&lt;/b&gt;&lt;br&gt;XRE family transcriptional regulator&lt;br&gt;Location: 7814226 - 7814856" locus_tag="LLPMBPKK_06778" class="clusterblast-orf" id="subclusterblast-29_q20_0_all"  />
<polygon points="726,40 730,35 726,30 726,40 " style="fill:white; stroke-width:1; stroke:black; " description="&lt;b&gt;LLPMBPKK_06779&lt;/b&gt;&lt;br&gt;small hydrophobic hypothetical protein&lt;br&gt;Location: 7814852 - 7814975" locus_tag="LLPMBPKK_06779" class="clusterblast-orf" id="subclusterblast-29_q21_0_all"  />
<polygon points="731,40 750,40 755,35 750,30 731,30 731,40 " style="fill:white; stroke-width:1; stroke:black; " description="&lt;b&gt;LLPMBPKK_06780&lt;/b&gt;&lt;br&gt;hypothetical protein&lt;br&gt;Location: 7815004 - 7815805" locus_tag="LLPMBPKK_06780" class="clusterblast-orf" id="subclusterblast-29_q22_0_all"  />
<polygon points="755,35 760,30 780,30 780,40 760,40 755,35 " style="fill:white; stroke-width:1; stroke:black; " description="&lt;b&gt;LLPMBPKK_06781&lt;/b&gt;&lt;br&gt;tyrosine-protein phosphatase&lt;br&gt;Location: 7815818 - 7816616" locus_tag="LLPMBPKK_06781" class="clusterblast-orf" id="subclusterblast-29_q23_0_all"  />
</g>
<g label="DQ230532" description="DQ230532_c2: phenalinolactone terpenoid (33% of genes show similarity), terpenoid" class="clusterblast-cluster"  >
<text x="5" y="70" class="clusterblast-acc"  >
DQ230532_c2: phenalinolactone terpenoid (33% of genes show similarity), terpenoid</text>
<line x1="10" y1="85" x2="778.0" y2="85" style="stroke-width:1; stroke:grey; "  />
</g>
<g id="a29_000"  >
<polygon points="103,85 108,80 144,80 144,90 108,90 103,85 " style="fill:white; stroke-width:1; stroke:black; " description="&lt;b&gt;DQ230532_2_plaT1&lt;/b&gt;&lt;br&gt;PlaT1&lt;br&gt;Location: 16422 - 17771" locus_tag="DQ230532_2_plaT1" class="clusterblast-orf" id="subclusterblast-29_all_29_1_0"  />
</g>
<g id="a29_001"  >
<polygon points="144,85 149,80 196,80 196,90 149,90 144,85 " style="fill:white; stroke-width:1; stroke:black; " description="&lt;b&gt;DQ230532_2_plaT2&lt;/b&gt;&lt;br&gt;PlaT2&lt;br&gt;Location: 17768 - 19483" locus_tag="DQ230532_2_plaT2" class="clusterblast-orf" id="subclusterblast-29_all_29_1_1"  />
</g>
<g id="a29_002"  >
<polygon points="197,85 202,80 227,80 227,90 202,90 197,85 " style="fill:white; stroke-width:1; stroke:black; " description="&lt;b&gt;DQ230532_2_plaT3&lt;/b&gt;&lt;br&gt;PlaT3&lt;br&gt;Location: 19499 - 20512" locus_tag="DQ230532_2_plaT3" class="clusterblast-orf" id="subclusterblast-29_all_29_1_2"  />
</g>
<g id="a29_003"  >
<polygon points="552,90 580,90 585,85 580,80 552,80 552,90 " style="fill:white; stroke-width:1; stroke:black; " description="&lt;b&gt;DQ230532_2_plaT4&lt;/b&gt;&lt;br&gt;PlaT4&lt;br&gt;Location: 31153 - 32232" locus_tag="DQ230532_2_plaT4" class="clusterblast-orf" id="subclusterblast-29_all_29_1_3"  />
</g>
<g id="a29_004"  >
<polygon points="587,90 617,90 622,85 617,80 587,80 587,90 " style="fill:#d81515; stroke-width:1; stroke:black; " description="&lt;b&gt;DQ230532_2_plaT5&lt;/b&gt;&lt;br&gt;PlaT5&lt;br&gt;Location: 32273 - 33433&lt;br&gt;&lt;br&gt;&lt;b&gt;BlastP hit with LLPMBPKK_06774&lt;/b&gt;&lt;br&gt;Percentage identity: 77&lt;br&gt;Percentage coverage: 92&lt;br&gt;BLAST bit score: 535&lt;br&gt;E-value: 0.0" locus_tag="DQ230532_2_plaT5" class="clusterblast-orf" id="subclusterblast-29_all_29_1_4"  />
</g>
<g id="a29_005"  >
<polygon points="622,90 671,90 676,85 671,80 622,80 622,90 " style="fill:#15d8d8; stroke-width:1; stroke:black; " description="&lt;b&gt;DQ230532_2_plaT6&lt;/b&gt;&lt;br&gt;PlaT6&lt;br&gt;Location: 33430 - 35211&lt;br&gt;&lt;br&gt;&lt;b&gt;BlastP hit with LLPMBPKK_06775&lt;/b&gt;&lt;br&gt;Percentage identity: 56&lt;br&gt;Percentage coverage: 98&lt;br&gt;BLAST bit score: 617&lt;br&gt;E-value: 0.0" locus_tag="DQ230532_2_plaT6" class="clusterblast-orf" id="subclusterblast-29_all_29_1_5"  />
</g>
</svg>
