<svg xmlns="http://www.w3.org/2000/svg" xmlns:xlink="http://www.w3.org/1999/xlink" version="1.1" x="0" y="0" height="50" width="800" viewBox="0 0 800 50" preserveAspectRatio="none"  >
<g label="Query sequence" class="clusterblast-cluster"  >
<text x="5" y="20" class="clusterblast-acc"  >
Query sequence</text>
<line x1="10" y1="35" x2="778.0" y2="35" style="stroke-width:1; stroke:grey; "  />
<polygon points="0,40 58,40 63,35 58,30 0,30 0,40 " style="fill:white; stroke-width:1; stroke:black; " description="&lt;b&gt;LLPMBPKK_03166&lt;/b&gt;&lt;br&gt;siderophore-interacting protein&lt;br&gt;Location: 3676866 - 3677721" locus_tag="LLPMBPKK_03166" class="clusterblast-orf" id="subclusterblast-16_q0_0_all"  />
<polygon points="72,40 174,40 179,35 174,30 72,30 72,40 " style="fill:white; stroke-width:1; stroke:black; " description="&lt;b&gt;LLPMBPKK_03167&lt;/b&gt;&lt;br&gt;lysine decarboxylase DesA&lt;br&gt;Location: 3677843 - 3679310" locus_tag="LLPMBPKK_03167" class="clusterblast-orf" id="subclusterblast-16_q1_0_all"  />
<polygon points="178,40 267,40 272,35 267,30 178,30 178,40 " style="fill:white; stroke-width:1; stroke:black; " description="&lt;b&gt;LLPMBPKK_03168&lt;/b&gt;&lt;br&gt;alcaligin biosynthesis protein&lt;br&gt;Location: 3679293 - 3680571" locus_tag="LLPMBPKK_03168" class="clusterblast-orf" id="subclusterblast-16_q2_0_all"  />
<polygon points="271,40 305,40 310,35 305,30 271,30 271,40 " style="fill:white; stroke-width:1; stroke:black; " description="&lt;b&gt;LLPMBPKK_03169&lt;/b&gt;&lt;br&gt;N-acetyltransferase&lt;br&gt;Location: 3680567 - 3681095" locus_tag="LLPMBPKK_03169" class="clusterblast-orf" id="subclusterblast-16_q3_0_all"  />
<polygon points="310,40 435,40 440,35 435,30 310,30 310,40 " style="fill:white; stroke-width:1; stroke:black; " description="&lt;b&gt;LLPMBPKK_03170&lt;/b&gt;&lt;br&gt;desferrioxamine E synthetase monomer&lt;br&gt;Location: 3681091 - 3682864" locus_tag="LLPMBPKK_03170" class="clusterblast-orf" id="subclusterblast-16_q4_0_all"  />
<polygon points="445,35 450,30 562,30 562,40 450,40 445,35 " style="fill:white; stroke-width:1; stroke:black; " description="&lt;b&gt;LLPMBPKK_03171&lt;/b&gt;&lt;br&gt;beta-N-acetylhexosaminidase&lt;br&gt;Location: 3682928 - 3684527" locus_tag="LLPMBPKK_03171" class="clusterblast-orf" id="subclusterblast-16_q5_0_all"  />
<polygon points="569,40 628,40 633,35 628,30 569,30 569,40 " style="fill:white; stroke-width:1; stroke:black; " description="&lt;b&gt;LLPMBPKK_03172&lt;/b&gt;&lt;br&gt;hypothetical protein&lt;br&gt;Location: 3684625 - 3685498" locus_tag="LLPMBPKK_03172" class="clusterblast-orf" id="subclusterblast-16_q6_0_all"  />
<polygon points="634,35 639,30 749,30 749,40 639,40 634,35 " style="fill:white; stroke-width:1; stroke:black; " description="&lt;b&gt;LLPMBPKK_03173&lt;/b&gt;&lt;br&gt;metallophosphoesterase family protein&lt;br&gt;Location: 3685520 - 3687086" locus_tag="LLPMBPKK_03173" class="clusterblast-orf" id="subclusterblast-16_q7_0_all"  />
<polygon points="761,40 775,40 780,35 775,30 761,30 761,40 " style="fill:white; stroke-width:1; stroke:black; " description="&lt;b&gt;LLPMBPKK_03174&lt;/b&gt;&lt;br&gt;hypothetical protein&lt;br&gt;Location: 3687251 - 3687509" locus_tag="LLPMBPKK_03174" class="clusterblast-orf" id="subclusterblast-16_q8_0_all"  />
</g>
</svg>
