<svg xmlns="http://www.w3.org/2000/svg" xmlns:xlink="http://www.w3.org/1999/xlink" version="1.1" x="0" y="0" height="230" width="800" viewBox="0 0 800 230" preserveAspectRatio="none"  >
<g label="Query sequence" class="clusterblast-cluster"  >
<text x="5" y="20" class="clusterblast-acc"  >
Query sequence</text>
<line x1="10" y1="35" x2="778.0" y2="35" style="stroke-width:1; stroke:grey; "  />
<polygon points="0,35 5,30 11,30 11,40 5,40 0,35 " style="fill:white; stroke-width:1; stroke:black; " description="&lt;b&gt;LLPMBPKK_06374&lt;/b&gt;&lt;br&gt;hypothetical protein&lt;br&gt;Location: 7362119 - 7363100" locus_tag="LLPMBPKK_06374" class="clusterblast-orf" id="dummy-28_q0_0_all"  />
<polygon points="11,35 16,30 25,30 25,40 16,40 11,35 " style="fill:white; stroke-width:1; stroke:black; " description="&lt;b&gt;LLPMBPKK_06375&lt;/b&gt;&lt;br&gt;Major Facilitator Superfamily protein&lt;br&gt;Location: 7363114 - 7364371" locus_tag="LLPMBPKK_06375" class="clusterblast-orf" id="dummy-28_q1_0_all"  />
<polygon points="25,35 30,30 38,30 38,40 30,40 25,35 " style="fill:white; stroke-width:1; stroke:black; " description="&lt;b&gt;LLPMBPKK_06376&lt;/b&gt;&lt;br&gt;pyridoxal-phosphate dependent enzyme&lt;br&gt;Location: 7364367 - 7365609" locus_tag="LLPMBPKK_06376" class="clusterblast-orf" id="dummy-28_q2_0_all"  />
<polygon points="38,35 43,30 53,30 53,40 43,40 38,35 " style="fill:white; stroke-width:1; stroke:black; " description="&lt;b&gt;LLPMBPKK_06377&lt;/b&gt;&lt;br&gt;MbtG protein&lt;br&gt;Location: 7365605 - 7366961" locus_tag="LLPMBPKK_06377" class="clusterblast-orf" id="dummy-28_q3_0_all"  />
<polygon points="53,35 58,30 58,30 58,40 58,40 53,35 " style="fill:white; stroke-width:1; stroke:black; " description="&lt;b&gt;LLPMBPKK_06378&lt;/b&gt;&lt;br&gt;Acetyltransferase (GNAT) family protein&lt;br&gt;Location: 7366957 - 7367404" locus_tag="LLPMBPKK_06378" class="clusterblast-orf" id="dummy-28_q4_0_all"  />
<polygon points="59,35 64,30 67,30 67,40 64,40 59,35 " style="fill:white; stroke-width:1; stroke:black; " description="&lt;b&gt;LLPMBPKK_06379&lt;/b&gt;&lt;br&gt;hypothetical protein&lt;br&gt;Location: 7367448 - 7368186" locus_tag="LLPMBPKK_06379" class="clusterblast-orf" id="dummy-28_q5_0_all"  />
<polygon points="67,35 72,30 80,30 80,40 72,40 67,35 " style="fill:white; stroke-width:1; stroke:black; " description="&lt;b&gt;LLPMBPKK_06380&lt;/b&gt;&lt;br&gt;FAD-binding oxidoreductase&lt;br&gt;Location: 7368182 - 7369376" locus_tag="LLPMBPKK_06380" class="clusterblast-orf" id="dummy-28_q6_0_all"  />
<polygon points="80,35 83,30 83,40 80,35 " style="fill:white; stroke-width:1; stroke:black; " description="&lt;b&gt;LLPMBPKK_06381&lt;/b&gt;&lt;br&gt;cupin domain-containing protein&lt;br&gt;Location: 7369372 - 7369657" locus_tag="LLPMBPKK_06381" class="clusterblast-orf" id="dummy-28_q7_0_all"  />
<polygon points="84,35 89,30 102,30 102,40 89,40 84,35 " style="fill:white; stroke-width:1; stroke:black; " description="&lt;b&gt;LLPMBPKK_06382&lt;/b&gt;&lt;br&gt;methionine--tRNA ligase&lt;br&gt;Location: 7369671 - 7371327" locus_tag="LLPMBPKK_06382" class="clusterblast-orf" id="dummy-28_q8_0_all"  />
<polygon points="102,35 107,30 110,30 110,40 107,40 102,35 " style="fill:white; stroke-width:1; stroke:black; " description="&lt;b&gt;LLPMBPKK_06383&lt;/b&gt;&lt;br&gt;4-hydroxyphenylpyruvate dioxygenase&lt;br&gt;Location: 7371358 - 7372036" locus_tag="LLPMBPKK_06383" class="clusterblast-orf" id="dummy-28_q9_0_all"  />
<polygon points="111,35 116,30 125,30 125,40 116,40 111,35 " style="fill:white; stroke-width:1; stroke:black; " description="&lt;b&gt;LLPMBPKK_06384&lt;/b&gt;&lt;br&gt;cation/H(+) antiporter&lt;br&gt;Location: 7372095 - 7373418" locus_tag="LLPMBPKK_06384" class="clusterblast-orf" id="dummy-28_q10_0_all"  />
<polygon points="126,35 131,30 139,30 139,40 131,40 126,35 " style="fill:white; stroke-width:1; stroke:black; " description="&lt;b&gt;LLPMBPKK_06385&lt;/b&gt;&lt;br&gt;ATP-grasp domain-containing protein&lt;br&gt;Location: 7373441 - 7374677" locus_tag="LLPMBPKK_06385" class="clusterblast-orf" id="dummy-28_q11_0_all"  />
<polygon points="140,35 145,30 156,30 156,40 145,40 140,35 " style="fill:white; stroke-width:1; stroke:black; " description="&lt;b&gt;LLPMBPKK_06386&lt;/b&gt;&lt;br&gt;hypothetical protein&lt;br&gt;Location: 7374703 - 7376131" locus_tag="LLPMBPKK_06386" class="clusterblast-orf" id="dummy-28_q12_0_all"  />
<polygon points="157,35 162,30 171,30 171,40 162,40 157,35 " style="fill:white; stroke-width:1; stroke:black; " description="&lt;b&gt;LLPMBPKK_06387&lt;/b&gt;&lt;br&gt;MFS transporter&lt;br&gt;Location: 7376256 - 7377519" locus_tag="LLPMBPKK_06387" class="clusterblast-orf" id="dummy-28_q13_0_all"  />
<polygon points="172,35 177,30 185,30 185,40 177,40 172,35 " style="fill:white; stroke-width:1; stroke:black; " description="&lt;b&gt;LLPMBPKK_06388&lt;/b&gt;&lt;br&gt;Acetylornithine deacetylase&lt;br&gt;Location: 7377614 - 7378811" locus_tag="LLPMBPKK_06388" class="clusterblast-orf" id="dummy-28_q14_0_all"  />
<polygon points="187,35 192,30 197,30 197,40 192,40 187,35 " style="fill:white; stroke-width:1; stroke:black; " description="&lt;b&gt;LLPMBPKK_06389&lt;/b&gt;&lt;br&gt;alpha-ketoglutarate-dependent taurinedioxygenase&lt;br&gt;Location: 7378938 - 7379865" locus_tag="LLPMBPKK_06389" class="clusterblast-orf" id="dummy-28_q15_0_all"  />
<polygon points="198,35 203,30 203,30 203,40 203,40 198,35 " style="fill:white; stroke-width:1; stroke:black; " description="&lt;b&gt;LLPMBPKK_06390&lt;/b&gt;&lt;br&gt;N-acetyltransferase&lt;br&gt;Location: 7379924 - 7380398" locus_tag="LLPMBPKK_06390" class="clusterblast-orf" id="dummy-28_q16_0_all"  />
<polygon points="204,35 209,30 215,30 215,40 209,40 204,35 " style="fill:white; stroke-width:1; stroke:black; " description="&lt;b&gt;LLPMBPKK_06391&lt;/b&gt;&lt;br&gt;hypothetical protein&lt;br&gt;Location: 7380445 - 7381471" locus_tag="LLPMBPKK_06391" class="clusterblast-orf" id="dummy-28_q17_0_all"  />
<polygon points="215,35 220,30 227,30 227,40 220,40 215,35 " style="fill:white; stroke-width:1; stroke:black; " description="&lt;b&gt;LLPMBPKK_06392&lt;/b&gt;&lt;br&gt;streptomycin biosynthesis operon possibleregulatory protein&lt;br&gt;Location: 7381470 - 7382589" locus_tag="LLPMBPKK_06392" class="clusterblast-orf" id="dummy-28_q18_0_all"  />
<polygon points="234,35 239,30 252,30 252,40 239,40 234,35 " style="fill:white; stroke-width:1; stroke:black; " description="&lt;b&gt;LLPMBPKK_06393&lt;/b&gt;&lt;br&gt;exporter&lt;br&gt;Location: 7383186 - 7384794" locus_tag="LLPMBPKK_06393" class="clusterblast-orf" id="dummy-28_q19_0_all"  />
<polygon points="253,35 258,30 266,30 266,40 258,40 253,35 " style="fill:white; stroke-width:1; stroke:black; " description="&lt;b&gt;LLPMBPKK_06394&lt;/b&gt;&lt;br&gt;acyltransferase&lt;br&gt;Location: 7384891 - 7386085" locus_tag="LLPMBPKK_06394" class="clusterblast-orf" id="dummy-28_q20_0_all"  />
<polygon points="268,40 282,40 287,35 282,30 268,30 268,40 " style="fill:white; stroke-width:1; stroke:black; " description="&lt;b&gt;LLPMBPKK_06395&lt;/b&gt;&lt;br&gt;FAD-dependent oxidoreductase&lt;br&gt;Location: 7386278 - 7387928" locus_tag="LLPMBPKK_06395" class="clusterblast-orf" id="dummy-28_q21_0_all"  />
<polygon points="288,40 292,35 288,30 288,40 " style="fill:white; stroke-width:1; stroke:black; " description="&lt;b&gt;LLPMBPKK_06396&lt;/b&gt;&lt;br&gt;sterol binding domain-containing protein&lt;br&gt;Location: 7388005 - 7388434" locus_tag="LLPMBPKK_06396" class="clusterblast-orf" id="dummy-28_q22_0_all"  />
<polygon points="293,40 298,40 303,35 298,30 293,30 293,40 " style="fill:white; stroke-width:1; stroke:black; " description="&lt;b&gt;LLPMBPKK_06397&lt;/b&gt;&lt;br&gt;luciferase-like monooxygenase&lt;br&gt;Location: 7388449 - 7389409" locus_tag="LLPMBPKK_06397" class="clusterblast-orf" id="dummy-28_q23_0_all"  />
<polygon points="305,35 307,30 307,40 305,35 " style="fill:white; stroke-width:1; stroke:black; " description="&lt;b&gt;LLPMBPKK_06398&lt;/b&gt;&lt;br&gt;hypothetical protein&lt;br&gt;Location: 7389554 - 7389767" locus_tag="LLPMBPKK_06398" class="clusterblast-orf" id="dummy-28_q24_0_all"  />
<polygon points="307,35 312,30 325,30 325,40 312,40 307,35 " style="fill:white; stroke-width:1; stroke:black; " description="&lt;b&gt;LLPMBPKK_06399&lt;/b&gt;&lt;br&gt;decarboxylase&lt;br&gt;Location: 7389763 - 7391365" locus_tag="LLPMBPKK_06399" class="clusterblast-orf" id="dummy-28_q25_0_all"  />
<polygon points="326,40 333,40 338,35 333,30 326,30 326,40 " style="fill:white; stroke-width:1; stroke:black; " description="&lt;b&gt;LLPMBPKK_06400&lt;/b&gt;&lt;br&gt;acyltransferase of polyketide synthase&lt;br&gt;Location: 7391461 - 7392565" locus_tag="LLPMBPKK_06400" class="clusterblast-orf" id="dummy-28_q26_0_all"  />
<polygon points="339,40 342,40 347,35 342,30 339,30 339,40 " style="fill:white; stroke-width:1; stroke:black; " description="&lt;b&gt;LLPMBPKK_06401&lt;/b&gt;&lt;br&gt;SDR family oxidoreductase&lt;br&gt;Location: 7392591 - 7393332" locus_tag="LLPMBPKK_06401" class="clusterblast-orf" id="dummy-28_q27_0_all"  />
<polygon points="347,40 359,40 364,35 359,30 347,30 347,40 " style="fill:white; stroke-width:1; stroke:black; " description="&lt;b&gt;LLPMBPKK_06402&lt;/b&gt;&lt;br&gt;peptide MFS transporter&lt;br&gt;Location: 7393342 - 7394854" locus_tag="LLPMBPKK_06402" class="clusterblast-orf" id="dummy-28_q28_0_all"  />
<polygon points="365,40 368,35 365,30 365,40 " style="fill:#d81515; stroke-width:1; stroke:black; " description="&lt;b&gt;LLPMBPKK_06403&lt;/b&gt;&lt;br&gt;polyketide synthesis cyclase&lt;br&gt;Location: 7394939 - 7395260" locus_tag="LLPMBPKK_06403" class="clusterblast-orf" id="dummy-28_q29_0_all"  />
<polygon points="369,40 369,40 374,35 369,30 369,30 369,40 " style="fill:white; stroke-width:1; stroke:black; " description="&lt;b&gt;LLPMBPKK_06404&lt;/b&gt;&lt;br&gt;cupin&lt;br&gt;Location: 7395319 - 7395745" locus_tag="LLPMBPKK_06404" class="clusterblast-orf" id="dummy-28_q30_0_all"  />
<polygon points="374,40 383,40 388,35 383,30 374,30 374,40 " style="fill:#15d815; stroke-width:1; stroke:black; " description="&lt;b&gt;LLPMBPKK_06405&lt;/b&gt;&lt;br&gt;beta-ketoacyl-[acyl-carrier-protein] synthasefamily protein&lt;br&gt;Location: 7395741 - 7397007" locus_tag="LLPMBPKK_06405" class="clusterblast-orf" id="dummy-28_q31_0_all"  />
<polygon points="388,40 396,40 401,35 396,30 388,30 388,40 " style="fill:#1515d8; stroke-width:1; stroke:black; " description="&lt;b&gt;LLPMBPKK_06406&lt;/b&gt;&lt;br&gt;3-oxoacyl-ACP synthase&lt;br&gt;Location: 7397003 - 7398215" locus_tag="LLPMBPKK_06406" class="clusterblast-orf" id="dummy-28_q32_0_all"  />
<polygon points="402,40 405,35 402,30 402,40 " style="fill:white; stroke-width:1; stroke:black; " description="&lt;b&gt;LLPMBPKK_06407&lt;/b&gt;&lt;br&gt;actinorhodin polyketide synthase&lt;br&gt;Location: 7398269 - 7398524" locus_tag="LLPMBPKK_06407" class="clusterblast-orf" id="dummy-28_q33_0_all"  />
<polygon points="405,40 405,40 410,35 405,30 405,30 405,40 " style="fill:white; stroke-width:1; stroke:black; " description="&lt;b&gt;LLPMBPKK_06408&lt;/b&gt;&lt;br&gt;polyketide cyclase&lt;br&gt;Location: 7398523 - 7398991" locus_tag="LLPMBPKK_06408" class="clusterblast-orf" id="dummy-28_q34_0_all"  />
<polygon points="410,40 414,35 410,30 410,40 " style="fill:white; stroke-width:1; stroke:black; " description="&lt;b&gt;LLPMBPKK_06409&lt;/b&gt;&lt;br&gt;antibiotic biosynthesis monooxygenase&lt;br&gt;Location: 7398987 - 7399332" locus_tag="LLPMBPKK_06409" class="clusterblast-orf" id="dummy-28_q35_0_all"  />
<polygon points="414,40 414,40 419,35 414,30 414,30 414,40 " style="fill:white; stroke-width:1; stroke:black; " description="&lt;b&gt;LLPMBPKK_06410&lt;/b&gt;&lt;br&gt;SCP-2 sterol transfer family protein&lt;br&gt;Location: 7399328 - 7399763" locus_tag="LLPMBPKK_06410" class="clusterblast-orf" id="dummy-28_q36_0_all"  />
<polygon points="420,35 425,30 428,30 428,40 425,40 420,35 " style="fill:white; stroke-width:1; stroke:black; " description="&lt;b&gt;LLPMBPKK_06411&lt;/b&gt;&lt;br&gt;SchA/CurD like domain protein&lt;br&gt;Location: 7399863 - 7400604" locus_tag="LLPMBPKK_06411" class="clusterblast-orf" id="dummy-28_q37_0_all"  />
<polygon points="428,35 433,30 433,30 433,40 433,40 428,35 " style="fill:white; stroke-width:1; stroke:black; " description="&lt;b&gt;LLPMBPKK_06412&lt;/b&gt;&lt;br&gt;hypothetical protein&lt;br&gt;Location: 7400620 - 7401070" locus_tag="LLPMBPKK_06412" class="clusterblast-orf" id="dummy-28_q38_0_all"  />
<polygon points="435,40 436,40 441,35 436,30 435,30 435,40 " style="fill:white; stroke-width:1; stroke:black; " description="&lt;b&gt;LLPMBPKK_06413&lt;/b&gt;&lt;br&gt;hypothetical protein&lt;br&gt;Location: 7401263 - 7401749" locus_tag="LLPMBPKK_06413" class="clusterblast-orf" id="dummy-28_q39_0_all"  />
<polygon points="441,40 448,40 453,35 448,30 441,30 441,40 " style="fill:white; stroke-width:1; stroke:black; " description="&lt;b&gt;LLPMBPKK_06414&lt;/b&gt;&lt;br&gt;O-demethylpuromycin-O-methyltransferase&lt;br&gt;Location: 7401818 - 7402877" locus_tag="LLPMBPKK_06414" class="clusterblast-orf" id="dummy-28_q40_0_all"  />
<polygon points="454,40 457,40 462,35 457,30 454,30 454,40 " style="fill:white; stroke-width:1; stroke:black; " description="&lt;b&gt;LLPMBPKK_06415&lt;/b&gt;&lt;br&gt;short-chain dehydrogenase/reductase SDR&lt;br&gt;Location: 7402942 - 7403692" locus_tag="LLPMBPKK_06415" class="clusterblast-orf" id="dummy-28_q41_0_all"  />
<polygon points="462,40 466,35 462,30 462,40 " style="fill:white; stroke-width:1; stroke:black; " description="&lt;b&gt;LLPMBPKK_06416&lt;/b&gt;&lt;br&gt;antibiotic biosynthesis monooxygenase&lt;br&gt;Location: 7403693 - 7404005" locus_tag="LLPMBPKK_06416" class="clusterblast-orf" id="dummy-28_q42_0_all"  />
<polygon points="466,40 469,35 466,30 466,40 " style="fill:white; stroke-width:1; stroke:black; " description="&lt;b&gt;LLPMBPKK_06417&lt;/b&gt;&lt;br&gt;antibiotic biosynthesis monooxygenase&lt;br&gt;Location: 7404001 - 7404322" locus_tag="LLPMBPKK_06417" class="clusterblast-orf" id="dummy-28_q43_0_all"  />
<polygon points="470,35 475,30 481,30 481,40 475,40 470,35 " style="fill:white; stroke-width:1; stroke:black; " description="&lt;b&gt;LLPMBPKK_06418&lt;/b&gt;&lt;br&gt;ketoacyl-ACP synthase III&lt;br&gt;Location: 7404398 - 7405400" locus_tag="LLPMBPKK_06418" class="clusterblast-orf" id="dummy-28_q44_0_all"  />
<polygon points="482,35 487,30 488,30 488,40 487,40 482,35 " style="fill:white; stroke-width:1; stroke:black; " description="&lt;b&gt;LLPMBPKK_06419&lt;/b&gt;&lt;br&gt;MarR family transcriptional regulator&lt;br&gt;Location: 7405502 - 7406006" locus_tag="LLPMBPKK_06419" class="clusterblast-orf" id="dummy-28_q45_0_all"  />
<polygon points="489,40 489,40 494,35 489,30 489,30 489,40 " style="fill:white; stroke-width:1; stroke:black; " description="&lt;b&gt;LLPMBPKK_06420&lt;/b&gt;&lt;br&gt;hypothetical protein&lt;br&gt;Location: 7406132 - 7406555" locus_tag="LLPMBPKK_06420" class="clusterblast-orf" id="dummy-28_q46_0_all"  />
<polygon points="495,40 511,40 516,35 511,30 495,30 495,40 " style="fill:white; stroke-width:1; stroke:black; " description="&lt;b&gt;LLPMBPKK_06421&lt;/b&gt;&lt;br&gt;asparagine synthase&lt;br&gt;Location: 7406651 - 7408535" locus_tag="LLPMBPKK_06421" class="clusterblast-orf" id="dummy-28_q47_0_all"  />
<polygon points="517,35 522,30 537,30 537,40 522,40 517,35 " style="fill:white; stroke-width:1; stroke:black; " description="&lt;b&gt;LLPMBPKK_06422&lt;/b&gt;&lt;br&gt;SARP family transcriptional regulator&lt;br&gt;Location: 7408593 - 7410423" locus_tag="LLPMBPKK_06422" class="clusterblast-orf" id="dummy-28_q48_0_all"  />
<polygon points="541,40 541,40 546,35 541,30 541,30 541,40 " style="fill:white; stroke-width:1; stroke:black; " description="&lt;b&gt;LLPMBPKK_06423&lt;/b&gt;&lt;br&gt;4'-phosphopantetheinyl transferase superfamilyprotein&lt;br&gt;Location: 7410732 - 7411224" locus_tag="LLPMBPKK_06423" class="clusterblast-orf" id="dummy-28_q49_0_all"  />
<polygon points="547,40 550,35 547,30 547,40 " style="fill:white; stroke-width:1; stroke:black; " description="&lt;b&gt;LLPMBPKK_06424&lt;/b&gt;&lt;br&gt;hypothetical protein&lt;br&gt;Location: 7411319 - 7411568" locus_tag="LLPMBPKK_06424" class="clusterblast-orf" id="dummy-28_q50_0_all"  />
<polygon points="553,40 556,40 561,35 556,30 553,30 553,40 " style="fill:white; stroke-width:1; stroke:black; " description="&lt;b&gt;LLPMBPKK_06425&lt;/b&gt;&lt;br&gt;peptidylprolyl isomerase&lt;br&gt;Location: 7411806 - 7412532" locus_tag="LLPMBPKK_06425" class="clusterblast-orf" id="dummy-28_q51_0_all"  />
<polygon points="563,40 567,40 572,35 567,30 563,30 563,40 " style="fill:white; stroke-width:1; stroke:black; " description="&lt;b&gt;LLPMBPKK_06426&lt;/b&gt;&lt;br&gt;alpha/beta hydrolase&lt;br&gt;Location: 7412717 - 7413545" locus_tag="LLPMBPKK_06426" class="clusterblast-orf" id="dummy-28_q52_0_all"  />
<polygon points="572,35 577,30 580,30 580,40 577,40 572,35 " style="fill:white; stroke-width:1; stroke:black; " description="&lt;b&gt;LLPMBPKK_06427&lt;/b&gt;&lt;br&gt;hypothetical protein&lt;br&gt;Location: 7413591 - 7414293" locus_tag="LLPMBPKK_06427" class="clusterblast-orf" id="dummy-28_q53_0_all"  />
<polygon points="581,35 586,30 604,30 604,40 586,40 581,35 " style="fill:white; stroke-width:1; stroke:black; " description="&lt;b&gt;LLPMBPKK_06428&lt;/b&gt;&lt;br&gt;acetoacetate--CoA ligase&lt;br&gt;Location: 7414363 - 7416397" locus_tag="LLPMBPKK_06428" class="clusterblast-orf" id="dummy-28_q54_0_all"  />
<polygon points="604,35 609,30 621,30 621,40 609,40 604,35 " style="fill:white; stroke-width:1; stroke:black; " description="&lt;b&gt;LLPMBPKK_06429&lt;/b&gt;&lt;br&gt;bifunctional 3-(3-hydroxy-phenyl)propionate/3-hydroxycinnamic acid hydroxylase&lt;br&gt;Location: 7416413 - 7417988" locus_tag="LLPMBPKK_06429" class="clusterblast-orf" id="dummy-28_q55_0_all"  />
<polygon points="622,35 627,30 632,30 632,40 627,40 622,35 " style="fill:white; stroke-width:1; stroke:black; " description="&lt;b&gt;LLPMBPKK_06430&lt;/b&gt;&lt;br&gt;fumarylacetoacetate hydrolase family protein&lt;br&gt;Location: 7418011 - 7418989" locus_tag="LLPMBPKK_06430" class="clusterblast-orf" id="dummy-28_q56_0_all"  />
<polygon points="632,35 637,30 645,30 645,40 637,40 632,35 " style="fill:white; stroke-width:1; stroke:black; " description="&lt;b&gt;LLPMBPKK_06431&lt;/b&gt;&lt;br&gt;2,3-dihydroxybiphenyl 1,2-dioxygenase&lt;br&gt;Location: 7418985 - 7420131" locus_tag="LLPMBPKK_06431" class="clusterblast-orf" id="dummy-28_q57_0_all"  />
<polygon points="647,40 649,40 654,35 649,30 647,30 647,40 " style="fill:white; stroke-width:1; stroke:black; " description="&lt;b&gt;LLPMBPKK_06432&lt;/b&gt;&lt;br&gt;TetR/AcrR family transcriptional regulator&lt;br&gt;Location: 7420269 - 7420908" locus_tag="LLPMBPKK_06432" class="clusterblast-orf" id="dummy-28_q58_0_all"  />
<polygon points="657,35 662,30 668,30 668,40 662,40 657,35 " style="fill:white; stroke-width:1; stroke:black; " description="&lt;b&gt;LLPMBPKK_06433&lt;/b&gt;&lt;br&gt;alcohol dehydrogenase&lt;br&gt;Location: 7421160 - 7422207" locus_tag="LLPMBPKK_06433" class="clusterblast-orf" id="dummy-28_q59_0_all"  />
<polygon points="670,35 675,30 706,30 706,40 675,40 670,35 " style="fill:white; stroke-width:1; stroke:black; " description="&lt;b&gt;LLPMBPKK_06434&lt;/b&gt;&lt;br&gt;cytochrome P450&lt;br&gt;Location: 7422367 - 7425589" locus_tag="LLPMBPKK_06434" class="clusterblast-orf" id="dummy-28_q60_0_all"  />
<polygon points="709,40 711,40 716,35 711,30 709,30 709,40 " style="fill:white; stroke-width:1; stroke:black; " description="&lt;b&gt;LLPMBPKK_06435&lt;/b&gt;&lt;br&gt;TetR/AcrR family transcriptional regulator&lt;br&gt;Location: 7425844 - 7426504" locus_tag="LLPMBPKK_06435" class="clusterblast-orf" id="dummy-28_q61_0_all"  />
<polygon points="723,40 725,35 723,30 723,40 " style="fill:white; stroke-width:1; stroke:black; " description="&lt;b&gt;LLPMBPKK_06436&lt;/b&gt;&lt;br&gt;hypothetical protein&lt;br&gt;Location: 7427085 - 7427301" locus_tag="LLPMBPKK_06436" class="clusterblast-orf" id="dummy-28_q62_0_all"  />
<polygon points="726,40 728,35 726,30 726,40 " style="fill:white; stroke-width:1; stroke:black; " description="&lt;b&gt;LLPMBPKK_06437&lt;/b&gt;&lt;br&gt;ferredoxin&lt;br&gt;Location: 7427400 - 7427619" locus_tag="LLPMBPKK_06437" class="clusterblast-orf" id="dummy-28_q63_0_all"  />
<polygon points="728,40 739,40 744,35 739,30 728,30 728,40 " style="fill:white; stroke-width:1; stroke:black; " description="&lt;b&gt;LLPMBPKK_06438&lt;/b&gt;&lt;br&gt;NAD(P)/FAD-dependent oxidoreductase&lt;br&gt;Location: 7427615 - 7429019" locus_tag="LLPMBPKK_06438" class="clusterblast-orf" id="dummy-28_q64_0_all"  />
<polygon points="745,40 754,40 759,35 754,30 745,30 745,40 " style="fill:white; stroke-width:1; stroke:black; " description="&lt;b&gt;LLPMBPKK_06439&lt;/b&gt;&lt;br&gt;cytochrome P450&lt;br&gt;Location: 7429081 - 7430350" locus_tag="LLPMBPKK_06439" class="clusterblast-orf" id="dummy-28_q65_0_all"  />
<polygon points="759,40 766,40 771,35 766,30 759,30 759,40 " style="fill:white; stroke-width:1; stroke:black; " description="&lt;b&gt;LLPMBPKK_06440&lt;/b&gt;&lt;br&gt;NAD(P)-dependent alcohol dehydrogenase&lt;br&gt;Location: 7430373 - 7431417" locus_tag="LLPMBPKK_06440" class="clusterblast-orf" id="dummy-28_q66_0_all"  />
<polygon points="772,40 775,40 780,35 775,30 772,30 772,40 " style="fill:white; stroke-width:1; stroke:black; " description="&lt;b&gt;LLPMBPKK_06441&lt;/b&gt;&lt;br&gt;HdeD family acid-resistance protein&lt;br&gt;Location: 7431536 - 7432214" locus_tag="LLPMBPKK_06441" class="clusterblast-orf" id="dummy-28_q67_0_all"  />
</g>
<g label="AF080235" description="AF080235_c1: landomycin t2pks (50% of genes show similarity), t2pks" class="clusterblast-cluster"  >
<text x="5" y="70" class="clusterblast-acc"  >
AF080235_c1: landomycin t2pks (50% of genes show similarity), t2pks</text>
<line x1="10" y1="85" x2="778.0" y2="85" style="stroke-width:1; stroke:grey; "  />
</g>
<g id="a28_000"  >
<polygon points="362,90 365,85 362,80 362,90 " style="fill:#d81515; stroke-width:1; stroke:black; " description="&lt;b&gt;AF080235_1_lanF&lt;/b&gt;&lt;br&gt;cyclase homolog&lt;br&gt;Location: 2220 - 2549&lt;br&gt;&lt;br&gt;&lt;b&gt;BlastP hit with LLPMBPKK_06403&lt;/b&gt;&lt;br&gt;Percentage identity: 46&lt;br&gt;Percentage coverage: 99&lt;br&gt;BLAST bit score: 93&lt;br&gt;E-value: 1.38e-27" locus_tag="AF080235_1_lanF" class="clusterblast-orf" id="dummy-28_h28_1_0"  />
</g>
<g id="a28_001"  >
<polygon points="366,90 375,90 380,85 375,80 366,80 366,90 " style="fill:#15d815; stroke-width:1; stroke:black; " description="&lt;b&gt;AF080235_1_lanA&lt;/b&gt;&lt;br&gt;B-ketoacyl-ACP synthase homolog&lt;br&gt;Location: 2584 - 3858&lt;br&gt;&lt;br&gt;&lt;b&gt;BlastP hit with LLPMBPKK_06405&lt;/b&gt;&lt;br&gt;Percentage identity: 66&lt;br&gt;Percentage coverage: 101&lt;br&gt;BLAST bit score: 552&lt;br&gt;E-value: 0.0" locus_tag="AF080235_1_lanA" class="clusterblast-orf" id="dummy-28_h28_1_1"  />
</g>
<g id="a28_002"  >
<polygon points="380,90 388,90 393,85 388,80 380,80 380,90 " style="fill:#1515d8; stroke-width:1; stroke:black; " description="&lt;b&gt;AF080235_1_lanB&lt;/b&gt;&lt;br&gt;chain length factor homolog&lt;br&gt;Location: 3855 - 5075&lt;br&gt;&lt;br&gt;&lt;b&gt;BlastP hit with LLPMBPKK_06406&lt;/b&gt;&lt;br&gt;Percentage identity: 57&lt;br&gt;Percentage coverage: 100&lt;br&gt;BLAST bit score: 457&lt;br&gt;E-value: 4.52e-162" locus_tag="AF080235_1_lanB" class="clusterblast-orf" id="dummy-28_h28_1_2"  />
</g>
<g id="a28_003"  >
<polygon points="394,90 397,85 394,80 394,90 " style="fill:white; stroke-width:1; stroke:black; " description="&lt;b&gt;AF080235_1_lanC&lt;/b&gt;&lt;br&gt;acyl carrier protein homolog&lt;br&gt;Location: 5135 - 5404" locus_tag="AF080235_1_lanC" class="clusterblast-orf" id="dummy-28_h28_1_3"  />
</g>
<g id="a28_004"  >
<polygon points="397,90 401,90 406,85 401,80 397,80 397,90 " style="fill:white; stroke-width:1; stroke:black; " description="&lt;b&gt;AF080235_1_lanD&lt;/b&gt;&lt;br&gt;reductase homolog&lt;br&gt;Location: 5443 - 6228" locus_tag="AF080235_1_lanD" class="clusterblast-orf" id="dummy-28_h28_1_4"  />
</g>
<g id="a28_005"  >
<polygon points="407,90 412,90 417,85 412,80 407,80 407,90 " style="fill:white; stroke-width:1; stroke:black; " description="&lt;b&gt;AF080235_1_lanL&lt;/b&gt;&lt;br&gt;cyclase homolog&lt;br&gt;Location: 6276 - 7235" locus_tag="AF080235_1_lanL" class="clusterblast-orf" id="dummy-28_h28_1_5"  />
</g>
</svg>
