<svg xmlns="http://www.w3.org/2000/svg" xmlns:xlink="http://www.w3.org/1999/xlink" version="1.1" x="0" y="0" height="50" width="800" viewBox="0 0 800 50" preserveAspectRatio="none"  >
<g label="Query sequence" class="clusterblast-cluster"  >
<text x="5" y="20" class="clusterblast-acc"  >
Query sequence</text>
<line x1="10" y1="35" x2="778.0" y2="35" style="stroke-width:1; stroke:grey; "  />
<polygon points="0,40 48,40 53,35 48,30 0,30 0,40 " style="fill:white; stroke-width:1; stroke:black; " description="&lt;b&gt;LLPMBPKK_00843&lt;/b&gt;&lt;br&gt;hypothetical protein&lt;br&gt;Location: 1055682 - 1056348" locus_tag="LLPMBPKK_00843" class="clusterblast-orf" id="subclusterblast-7_q0_0_all"  />
<polygon points="66,40 95,40 100,35 95,30 66,30 66,40 " style="fill:white; stroke-width:1; stroke:black; " description="&lt;b&gt;LLPMBPKK_00844&lt;/b&gt;&lt;br&gt;VOC family protein&lt;br&gt;Location: 1056519 - 1056945" locus_tag="LLPMBPKK_00844" class="clusterblast-orf" id="subclusterblast-7_q1_0_all"  />
<polygon points="106,35 111,30 148,30 148,40 111,40 106,35 " style="fill:white; stroke-width:1; stroke:black; " description="&lt;b&gt;LLPMBPKK_00845&lt;/b&gt;&lt;br&gt;integral membrane protein&lt;br&gt;Location: 1057026 - 1057557" locus_tag="LLPMBPKK_00845" class="clusterblast-orf" id="subclusterblast-7_q2_0_all"  />
<polygon points="152,35 157,30 230,30 230,40 157,40 152,35 " style="fill:white; stroke-width:1; stroke:black; " description="&lt;b&gt;LLPMBPKK_00846&lt;/b&gt;&lt;br&gt;aldo/keto reductase&lt;br&gt;Location: 1057609 - 1058593" locus_tag="LLPMBPKK_00846" class="clusterblast-orf" id="subclusterblast-7_q3_0_all"  />
<polygon points="249,35 254,30 343,30 343,40 254,40 249,35 " style="fill:white; stroke-width:1; stroke:black; " description="&lt;b&gt;LLPMBPKK_00847&lt;/b&gt;&lt;br&gt;FAD-binding monooxygenase&lt;br&gt;Location: 1058831 - 1060028" locus_tag="LLPMBPKK_00847" class="clusterblast-orf" id="subclusterblast-7_q4_0_all"  />
<polygon points="370,40 395,40 400,35 395,30 370,30 370,40 " style="fill:white; stroke-width:1; stroke:black; " description="&lt;b&gt;LLPMBPKK_00848&lt;/b&gt;&lt;br&gt;Tyrosinase co-factor MelC1&lt;br&gt;Location: 1060366 - 1060744" locus_tag="LLPMBPKK_00848" class="clusterblast-orf" id="subclusterblast-7_q5_0_all"  />
<polygon points="403,40 463,40 468,35 463,30 403,30 403,40 " style="fill:white; stroke-width:1; stroke:black; " description="&lt;b&gt;LLPMBPKK_00849&lt;/b&gt;&lt;br&gt;tyrosinase family protein&lt;br&gt;Location: 1060778 - 1061600" locus_tag="LLPMBPKK_00849" class="clusterblast-orf" id="subclusterblast-7_q6_0_all"  />
<polygon points="468,35 473,30 524,30 524,40 473,40 468,35 " style="fill:white; stroke-width:1; stroke:black; " description="&lt;b&gt;LLPMBPKK_00850&lt;/b&gt;&lt;br&gt;ribonuclease HI&lt;br&gt;Location: 1061600 - 1062320" locus_tag="LLPMBPKK_00850" class="clusterblast-orf" id="subclusterblast-7_q7_0_all"  />
<polygon points="527,35 532,30 590,30 590,40 532,40 527,35 " style="fill:white; stroke-width:1; stroke:black; " description="&lt;b&gt;LLPMBPKK_00851&lt;/b&gt;&lt;br&gt;VOC family protein&lt;br&gt;Location: 1062354 - 1063149" locus_tag="LLPMBPKK_00851" class="clusterblast-orf" id="subclusterblast-7_q8_0_all"  />
<polygon points="601,35 606,30 639,30 639,40 606,40 601,35 " style="fill:white; stroke-width:1; stroke:black; " description="&lt;b&gt;LLPMBPKK_00852&lt;/b&gt;&lt;br&gt;DNA-binding protein&lt;br&gt;Location: 1063287 - 1063770" locus_tag="LLPMBPKK_00852" class="clusterblast-orf" id="subclusterblast-7_q9_0_all"  />
<polygon points="658,35 663,30 689,30 689,40 663,40 658,35 " style="fill:white; stroke-width:1; stroke:black; " description="&lt;b&gt;LLPMBPKK_00853&lt;/b&gt;&lt;br&gt;XRE family transcriptional regulator&lt;br&gt;Location: 1064011 - 1064404" locus_tag="LLPMBPKK_00853" class="clusterblast-orf" id="subclusterblast-7_q10_0_all"  />
<polygon points="710,40 775,40 780,35 775,30 710,30 710,40 " style="fill:white; stroke-width:1; stroke:black; " description="&lt;b&gt;LLPMBPKK_00854&lt;/b&gt;&lt;br&gt;RNA polymerase sigma factor SigF&lt;br&gt;Location: 1064671 - 1065562" locus_tag="LLPMBPKK_00854" class="clusterblast-orf" id="subclusterblast-7_q11_0_all"  />
</g>
</svg>
